g Aura_geo06
v -0.16045654 -0.12517577 0.30973142
v -0.19482909 -0.12985717 0.28726318
v -0.19317383 -0.120698236 0.29227296
v -0.22240478 -0.12604247 0.268313
v -0.22132324 -0.11676391 0.27335936
v -0.24826415 -0.123671874 0.24588378
v -0.24781494 -0.11428711 0.25093016
v -0.27236572 -0.12140747 0.22047119
v -0.27222413 -0.11207031 0.22516845
v -0.29416505 -0.118800044 0.1920752
v -0.29463622 -0.109436035 0.19643798
v -0.31386718 -0.11658813 0.15945679
v -0.31497803 -0.10736084 0.16355224
v -0.33075196 -0.11376831 0.122707516
v -0.33260253 -0.10473755 0.12631226
v -0.3443701 -0.11012695 0.08135193
v -0.34660155 -0.10115906 0.08457519
v -0.3529736 -0.10685669 0.035586547
v -0.35562745 -0.09755371 0.03780426
v -0.35531005 -0.10369751 -0.013915557
v -0.35813963 -0.094451904 -0.012608643
v -0.3508496 -0.098543696 -0.066054076
v -0.35372803 -0.088754274 -0.066192016
v -0.33875486 -0.09109863 -0.11902466
v -0.34105223 -0.08111999 -0.11990112
v -0.3184839 -0.08409241 -0.1694165
v -0.32033446 -0.07390564 -0.17146118
v -0.29111814 -0.07753174 -0.21615723
v -0.2919824 -0.06704773 -0.2186084
v -0.2577124 -0.07157288 -0.2568164
v -0.2576001 -0.060884397 -0.25939697
v -0.22007813 -0.06684753 -0.29032958
v -0.21925293 -0.056036986 -0.293313
v -0.18002807 -0.06311035 -0.317229
v -0.17864868 -0.05231018 -0.32001707
v -0.13909423 -0.060985718 -0.33750975
v -0.13708983 -0.05014038 -0.34026122
v -0.09812195 -0.06066223 -0.3518335
v -0.095432736 -0.04975769 -0.35447508
v -0.05597473 -0.056723632 -0.36204344
vt 0.009765625 0.0881958
vt 0.032104492 0.093811035
vt 0.032104492 0.0826416
vt 0.05444336 0.093811035
vt 0.05444336 0.0826416
vt 0.07678223 0.093811035
vt 0.07678223 0.0826416
vt 0.099121094 0.093811035
vt 0.099121094 0.0826416
vt 0.121520996 0.093811035
vt 0.121520996 0.0826416
vt 0.14379883 0.093811035
vt 0.14379883 0.0826416
vt 0.1661377 0.093811035
vt 0.1661377 0.0826416
vt 0.18847656 0.093811035
vt 0.18847656 0.0826416
vt 0.21081543 0.093811035
vt 0.21081543 0.0826416
vt 0.23327637 0.093811035
vt 0.23327637 0.0826416
vt 0.25561523 0.093811035
vt 0.25561523 0.0826416
vt 0.27783203 0.093811035
vt 0.27783203 0.0826416
vt 0.30029297 0.093811035
vt 0.30029297 0.0826416
vt 0.32250977 0.093811035
vt 0.32250977 0.0826416
vt 0.3449707 0.093811035
vt 0.3449707 0.0826416
vt 0.3671875 0.093811035
vt 0.3671875 0.0826416
vt 0.38964844 0.093811035
vt 0.38964844 0.0826416
vt 0.41186523 0.093811035
vt 0.41186523 0.0826416
vt 0.43432617 0.093811035
vt 0.43432617 0.0826416
vt 0.4567871 0.0881958
vn -0.47753906 -0.35351562 0.8041992
vn -0.5419922 -0.33618164 0.77001953
vn -0.52490234 -0.34106445 0.77978516
vn -0.6040039 -0.3293457 0.72558594
vn -0.5908203 -0.32983398 0.7363281
vn -0.67529297 -0.3178711 0.66552734
vn -0.6616211 -0.32128906 0.6772461
vn -0.74365234 -0.29833984 0.59814453
vn -0.7314453 -0.3022461 0.6113281
vn -0.80322266 -0.29077148 0.51953125
vn -0.7939453 -0.29052734 0.5341797
vn -0.8540039 -0.29882812 0.42626953
vn -0.8461914 -0.296875 0.4423828
vn -0.89501953 -0.30810547 0.32177734
vn -0.890625 -0.3071289 0.3359375
vn -0.9296875 -0.30395508 0.20727539
vn -0.92626953 -0.30541992 0.22167969
vn -0.95214844 -0.2932129 0.085754395
vn -0.9506836 -0.29418945 0.09613037
vn -0.95751953 -0.2841797 -0.045715332
vn -0.9580078 -0.28442383 -0.04043579
vn -0.94628906 -0.2692871 -0.17956543
vn -0.9448242 -0.2680664 -0.18725586
vn -0.91503906 -0.24975586 -0.31689453
vn -0.9111328 -0.24816895 -0.3293457
vn -0.86328125 -0.23242188 -0.4482422
vn -0.8540039 -0.2298584 -0.4663086
vn -0.79296875 -0.20483398 -0.57421875
vn -0.7792969 -0.19799805 -0.5942383
vn -0.70410156 -0.1743164 -0.68847656
vn -0.68652344 -0.171875 -0.70654297
vn -0.6015625 -0.16625977 -0.78125
vn -0.5805664 -0.1665039 -0.796875
vn -0.49365234 -0.16455078 -0.8540039
vn -0.4736328 -0.16333008 -0.8652344
vn -0.3857422 -0.16149902 -0.9082031
vn -0.36621094 -0.16174316 -0.9165039
vn -0.29638672 -0.16625977 -0.9404297
vn -0.2800293 -0.16906738 -0.9448242
vn -0.21569824 -0.17919922 -0.95996094
g Aura_geo06_0
f 3/3/3 2/2/2 1/1/1
f 4/4/4 2/2/2 3/3/3
f 5/5/5 4/4/4 3/3/3
f 6/6/6 4/4/4 5/5/5
f 7/7/7 6/6/6 5/5/5
f 8/8/8 6/6/6 7/7/7
f 9/9/9 8/8/8 7/7/7
f 10/10/10 8/8/8 9/9/9
f 11/11/11 10/10/10 9/9/9
f 12/12/12 10/10/10 11/11/11
f 13/13/13 12/12/12 11/11/11
f 14/14/14 12/12/12 13/13/13
f 15/15/15 14/14/14 13/13/13
f 16/16/16 14/14/14 15/15/15
f 17/17/17 16/16/16 15/15/15
f 18/18/18 16/16/16 17/17/17
f 19/19/19 18/18/18 17/17/17
f 20/20/20 18/18/18 19/19/19
f 21/21/21 20/20/20 19/19/19
f 22/22/22 20/20/20 21/21/21
f 23/23/23 22/22/22 21/21/21
f 24/24/24 22/22/22 23/23/23
f 25/25/25 24/24/24 23/23/23
f 26/26/26 24/24/24 25/25/25
f 27/27/27 26/26/26 25/25/25
f 28/28/28 26/26/26 27/27/27
f 29/29/29 28/28/28 27/27/27
f 30/30/30 28/28/28 29/29/29
f 31/31/31 30/30/30 29/29/29
f 32/32/32 30/30/30 31/31/31
f 33/33/33 32/32/32 31/31/31
f 34/34/34 32/32/32 33/33/33
f 35/35/35 34/34/34 33/33/33
f 36/36/36 34/34/34 35/35/35
f 37/37/37 36/36/36 35/35/35
f 38/38/38 36/36/36 37/37/37
f 39/39/39 38/38/38 37/37/37
f 40/40/40 38/38/38 39/39/39
