g Aura_geo07
v 0.19245605 -0.30121338 0.09772827
v 0.18516357 -0.3067627 0.094245605
v 0.17102051 -0.2996753 0.13505737
v 0.17803466 -0.29395995 0.13901001
v 0.15451781 -0.29018798 0.17114745
v 0.16107787 -0.28433594 0.17568848
v 0.13613525 -0.27889892 0.20301025
v 0.14224853 -0.27217528 0.20765136
v 0.11643799 -0.26610595 0.23057128
v 0.12212158 -0.25896972 0.2355664
v 0.09555542 -0.25143555 0.25507325
v 0.10094177 -0.24384032 0.26026124
v 0.07335571 -0.23570555 0.2764624
v 0.07817871 -0.2277954 0.28161377
v 0.04917572 -0.21994872 0.29422608
v 0.053623047 -0.21171142 0.29931885
v 0.02325943 -0.20425537 0.30840576
v 0.02732025 -0.19559936 0.3135156
v -0.003490181 -0.18523437 0.32096678
v -0.00021763801 -0.17981079 0.32402098
v -0.03195007 -0.16127197 0.33231688
v 0.027010497 -0.08673767 -0.35940185
v 0.056030884 -0.11685302 -0.34683838
v 0.061136473 -0.106732175 -0.34941894
v 0.08576843 -0.14378174 -0.33005127
v 0.09142273 -0.13418823 -0.33277342
v 0.11372192 -0.1718628 -0.30749512
v 0.11988892 -0.16275269 -0.3102368
v 0.13950317 -0.20026366 -0.27873045
v 0.14607422 -0.19146973 -0.28148437
v 0.16242798 -0.22736083 -0.24376953
v 0.16945678 -0.21934813 -0.24619628
v 0.18105102 -0.2522705 -0.2020874
v 0.18870728 -0.24499023 -0.20429443
v 0.19477294 -0.27404785 -0.15502074
v 0.20286743 -0.26744628 -0.15668823
v 0.20298584 -0.2915674 -0.10472778
v 0.21120849 -0.2853662 -0.10523926
v 0.20476317 -0.30402344 -0.052127685
v 0.21327148 -0.29839844 -0.051908568
v 0.20213622 -0.31029052 -0.00021162629
v 0.21013671 -0.30496582 0.0013842868
v 0.19571288 -0.31068358 0.048961487
v 0.20357299 -0.30518797 0.051463317
v 0.18516357 -0.3067627 0.094245605
v 0.19245605 -0.30121338 0.09772827
vt 0.7446289 0.054473877
vt 0.7446289 0.06427002
vt 0.76464844 0.06427002
vt 0.76464844 0.054473877
vt 0.7841797 0.06427002
vt 0.7841797 0.054473877
vt 0.80371094 0.06427002
vt 0.80371094 0.054473877
vt 0.8232422 0.06427002
vt 0.8232422 0.054473877
vt 0.84277344 0.06427002
vt 0.84277344 0.054473877
vt 0.8623047 0.06427002
vt 0.8623047 0.054473877
vt 0.88183594 0.06427002
vt 0.88183594 0.054473877
vt 0.9013672 0.06427002
vt 0.9013672 0.054473877
vt 0.92089844 0.06427002
vt 0.92089844 0.054473877
vt 0.9404297 0.05935669
vt 0.009765625 0.103515625
vt 0.03338623 0.109436035
vt 0.03338623 0.09765625
vt 0.057006836 0.109436035
vt 0.057006836 0.09765625
vt 0.08062744 0.109436035
vt 0.08062744 0.09765625
vt 0.10424805 0.109436035
vt 0.10424805 0.09765625
vt 0.12780762 0.109436035
vt 0.12780762 0.09765625
vt 0.15148926 0.109436035
vt 0.15148926 0.09765625
vt 0.17504883 0.109436035
vt 0.17504883 0.09765625
vt 0.19873047 0.109436035
vt 0.19873047 0.09765625
vt 0.22229004 0.109436035
vt 0.22229004 0.09765625
vt 0.24597168 0.109436035
vt 0.24597168 0.09765625
vt 0.26953125 0.109436035
vt 0.26953125 0.09765625
vt 0.2932129 0.109436035
vt 0.2932129 0.09765625
vn 0.50341797 -0.82421875 0.25927734
vn 0.50878906 -0.8251953 0.2442627
vn 0.46166992 -0.81396484 0.35205078
vn 0.4543457 -0.8120117 0.3659668
vn 0.41479492 -0.79052734 0.4506836
vn 0.40844727 -0.7841797 0.46728516
vn 0.3786621 -0.7480469 0.5449219
vn 0.37304688 -0.7402344 0.5595703
vn 0.33422852 -0.7060547 0.6245117
vn 0.32202148 -0.69873047 0.6386719
vn 0.2734375 -0.66796875 0.69189453
vn 0.2614746 -0.65966797 0.70458984
vn 0.21447754 -0.6254883 0.75
vn 0.20239258 -0.6166992 0.7607422
vn 0.15026855 -0.5805664 0.80029297
vn 0.13830566 -0.5727539 0.80810547
vn 0.08288574 -0.54052734 0.83740234
vn 0.06915283 -0.5332031 0.8432617
vn 0.014884949 -0.50439453 0.86328125
vn 0.0077590942 -0.5 0.86572266
vn -0.04421997 -0.4699707 0.88134766
vn 0.1048584 -0.29516602 -0.94970703
vn 0.171875 -0.33862305 -0.92529297
vn 0.15759277 -0.3293457 -0.93115234
vn 0.23828125 -0.3947754 -0.88720703
vn 0.22351074 -0.38085938 -0.89697266
vn 0.3154297 -0.46484375 -0.82714844
vn 0.30029297 -0.45141602 -0.84033203
vn 0.39111328 -0.5336914 -0.7495117
vn 0.3762207 -0.52001953 -0.76660156
vn 0.45458984 -0.6088867 -0.64990234
vn 0.44433594 -0.59472656 -0.6699219
vn 0.49682617 -0.68408203 -0.5336914
vn 0.49145508 -0.6723633 -0.55322266
vn 0.53222656 -0.7402344 -0.4104004
vn 0.52685547 -0.7338867 -0.42822266
vn 0.5566406 -0.78271484 -0.27783203
vn 0.55566406 -0.7792969 -0.29052734
vn 0.5605469 -0.81640625 -0.14001465
vn 0.5605469 -0.8149414 -0.14770508
vn 0.5551758 -0.83154297 -0.00680542
vn 0.5551758 -0.83203125 -0.0022449493
vn 0.54052734 -0.83203125 0.12438965
vn 0.5385742 -0.83154297 0.13476562
vn 0.50878906 -0.8251953 0.2442627
vn 0.50341797 -0.82421875 0.25927734
g Aura_geo07_0
f 3/3/3 2/2/2 1/1/1
f 4/4/4 3/3/3 1/1/1
f 5/5/5 3/3/3 4/4/4
f 6/6/6 5/5/5 4/4/4
f 7/7/7 5/5/5 6/6/6
f 8/8/8 7/7/7 6/6/6
f 9/9/9 7/7/7 8/8/8
f 10/10/10 9/9/9 8/8/8
f 11/11/11 9/9/9 10/10/10
f 12/12/12 11/11/11 10/10/10
f 13/13/13 11/11/11 12/12/12
f 14/14/14 13/13/13 12/12/12
f 15/15/15 13/13/13 14/14/14
f 16/16/16 15/15/15 14/14/14
f 17/17/17 15/15/15 16/16/16
f 18/18/18 17/17/17 16/16/16
f 19/19/19 17/17/17 18/18/18
f 20/20/20 19/19/19 18/18/18
f 21/21/21 19/19/19 20/20/20
f 24/24/24 23/23/23 22/22/22
f 25/25/25 23/23/23 24/24/24
f 26/26/26 25/25/25 24/24/24
f 27/27/27 25/25/25 26/26/26
f 28/28/28 27/27/27 26/26/26
f 29/29/29 27/27/27 28/28/28
f 30/30/30 29/29/29 28/28/28
f 31/31/31 29/29/29 30/30/30
f 32/32/32 31/31/31 30/30/30
f 33/33/33 31/31/31 32/32/32
f 34/34/34 33/33/33 32/32/32
f 35/35/35 33/33/33 34/34/34
f 36/36/36 35/35/35 34/34/34
f 37/37/37 35/35/35 36/36/36
f 38/38/38 37/37/37 36/36/36
f 39/39/39 37/37/37 38/38/38
f 40/40/40 39/39/39 38/38/38
f 41/41/41 39/39/39 40/40/40
f 42/42/42 41/41/41 40/40/40
f 43/43/43 41/41/41 42/42/42
f 44/44/44 43/43/43 42/42/42
f 45/45/45 43/43/43 44/44/44
f 46/46/46 45/45/45 44/44/44
