g Aura_geo04
v -0.1749707 -0.24531738 0.21610351
v -0.19996338 -0.23975341 0.200271
v -0.20005615 -0.23309813 0.20774414
v -0.22361816 -0.23093016 0.18499878
v -0.22440673 -0.2241211 0.19224365
v -0.24469726 -0.22286376 0.16722655
v -0.24626464 -0.21578613 0.17406249
v -0.2635254 -0.21517089 0.1476001
v -0.2656079 -0.20783691 0.15390868
v -0.28035888 -0.20751709 0.1259729
v -0.28296387 -0.19987793 0.13176025
v -0.29463866 -0.20109253 0.10131165
v -0.29777342 -0.19328003 0.10655395
v -0.3067627 -0.19421142 0.07492492
v -0.31053466 -0.1864099 0.07932678
v -0.31695312 -0.18687987 0.046293028
v -0.32104248 -0.17869385 0.050020445
v -0.32423094 -0.17921509 0.0144160455
v -0.32835203 -0.17085327 0.017274017
v -0.3280542 -0.17127441 -0.019859161
v -0.33249268 -0.16259643 -0.01783081
v -0.32736817 -0.164281 -0.05717529
v -0.33188477 -0.15552245 -0.05630432
v -0.3219336 -0.15624389 -0.096264645
v -0.32605714 -0.14699706 -0.096247554
v -0.31121093 -0.14769775 -0.13575073
v -0.31520262 -0.13824585 -0.1370398
v -0.29515868 -0.13991699 -0.17501709
v -0.29846925 -0.13021484 -0.1772058
v -0.27368408 -0.13295776 -0.21173827
v -0.27579346 -0.12267822 -0.21462157
v -0.2467627 -0.12598388 -0.24547607
v -0.24809326 -0.115584716 -0.2492285
v -0.21639892 -0.12060425 -0.27515137
v -0.2170166 -0.11026977 -0.27928466
v -0.18353637 -0.11712158 -0.3002002
v -0.18296875 -0.10668945 -0.30432373
v -0.1477771 -0.115307614 -0.3192993
v -0.1462976 -0.10484985 -0.32351318
v -0.111439206 -0.115615234 -0.33365235
v -0.10906738 -0.10530884 -0.33762938
v -0.073489375 -0.112928465 -0.34513915
vt 0.46069336 0.089416504
vt 0.4807129 0.09442139
vt 0.4807129 0.08441162
vt 0.5004883 0.09442139
vt 0.5004883 0.08441162
vt 0.5205078 0.09442139
vt 0.5205078 0.08441162
vt 0.54052734 0.09442139
vt 0.54052734 0.08441162
vt 0.5605469 0.09442139
vt 0.5605469 0.08441162
vt 0.5805664 0.09442139
vt 0.5805664 0.08441162
vt 0.60058594 0.09442139
vt 0.60058594 0.08441162
vt 0.62060547 0.09442139
vt 0.62060547 0.08441162
vt 0.640625 0.09442139
vt 0.640625 0.08441162
vt 0.66064453 0.09442139
vt 0.66064453 0.08441162
vt 0.68066406 0.09442139
vt 0.68066406 0.08441162
vt 0.7006836 0.09442139
vt 0.7006836 0.08441162
vt 0.7207031 0.09442139
vt 0.7207031 0.08441162
vt 0.74072266 0.09442139
vt 0.74072266 0.08441162
vt 0.7607422 0.09442139
vt 0.7607422 0.08441162
vt 0.7807617 0.09442139
vt 0.7807617 0.08441162
vt 0.80078125 0.09442139
vt 0.80078125 0.08441162
vt 0.8208008 0.09442139
vt 0.8208008 0.08441162
vt 0.8408203 0.09442139
vt 0.8408203 0.08441162
vt 0.86083984 0.09442139
vt 0.86083984 0.08441162
vt 0.8808594 0.089416504
vn -0.5053711 -0.64746094 0.5703125
vn -0.5551758 -0.62890625 0.5444336
vn -0.5498047 -0.6308594 0.5473633
vn -0.6074219 -0.61035156 0.5083008
vn -0.6010742 -0.6123047 0.5131836
vn -0.6665039 -0.58691406 0.45996094
vn -0.6611328 -0.5888672 0.46435547
vn -0.7207031 -0.55908203 0.41015625
vn -0.7163086 -0.56152344 0.41455078
vn -0.76904297 -0.5336914 0.35205078
vn -0.7651367 -0.53564453 0.35766602
vn -0.80615234 -0.52001953 0.28222656
vn -0.80371094 -0.5205078 0.28881836
vn -0.83496094 -0.5097656 0.20727539
vn -0.8334961 -0.5102539 0.21105957
vn -0.8647461 -0.48632812 0.12585449
vn -0.86376953 -0.4873047 0.12841797
vn -0.88720703 -0.45922852 0.040008545
vn -0.88720703 -0.45947266 0.040985107
vn -0.8935547 -0.44555664 -0.051635742
vn -0.8935547 -0.44555664 -0.05166626
vn -0.8901367 -0.42871094 -0.15527344
vn -0.88964844 -0.42797852 -0.15893555
vn -0.875 -0.40576172 -0.26342773
vn -0.87353516 -0.40454102 -0.27026367
vn -0.84472656 -0.3930664 -0.3630371
vn -0.84033203 -0.39233398 -0.3737793
vn -0.80322266 -0.3701172 -0.46704102
vn -0.796875 -0.3642578 -0.4819336
vn -0.7475586 -0.3347168 -0.5732422
vn -0.7363281 -0.3305664 -0.59033203
vn -0.67626953 -0.32348633 -0.6616211
vn -0.6611328 -0.32495117 -0.67626953
vn -0.59765625 -0.32080078 -0.7348633
vn -0.58203125 -0.31762695 -0.74853516
vn -0.50390625 -0.30541992 -0.80810547
vn -0.48168945 -0.30297852 -0.8222656
vn -0.40039062 -0.29345703 -0.86816406
vn -0.38427734 -0.29174805 -0.87597656
vn -0.32714844 -0.28979492 -0.89941406
vn -0.31298828 -0.29101562 -0.9038086
vn -0.25756836 -0.29589844 -0.9199219
g Aura_geo04_0
f 3/3/3 2/2/2 1/1/1
f 4/4/4 2/2/2 3/3/3
f 5/5/5 4/4/4 3/3/3
f 6/6/6 4/4/4 5/5/5
f 7/7/7 6/6/6 5/5/5
f 8/8/8 6/6/6 7/7/7
f 9/9/9 8/8/8 7/7/7
f 10/10/10 8/8/8 9/9/9
f 11/11/11 10/10/10 9/9/9
f 12/12/12 10/10/10 11/11/11
f 13/13/13 12/12/12 11/11/11
f 14/14/14 12/12/12 13/13/13
f 15/15/15 14/14/14 13/13/13
f 16/16/16 14/14/14 15/15/15
f 17/17/17 16/16/16 15/15/15
f 18/18/18 16/16/16 17/17/17
f 19/19/19 18/18/18 17/17/17
f 20/20/20 18/18/18 19/19/19
f 21/21/21 20/20/20 19/19/19
f 22/22/22 20/20/20 21/21/21
f 23/23/23 22/22/22 21/21/21
f 24/24/24 22/22/22 23/23/23
f 25/25/25 24/24/24 23/23/23
f 26/26/26 24/24/24 25/25/25
f 27/27/27 26/26/26 25/25/25
f 28/28/28 26/26/26 27/27/27
f 29/29/29 28/28/28 27/27/27
f 30/30/30 28/28/28 29/29/29
f 31/31/31 30/30/30 29/29/29
f 32/32/32 30/30/30 31/31/31
f 33/33/33 32/32/32 31/31/31
f 34/34/34 32/32/32 33/33/33
f 35/35/35 34/34/34 33/33/33
f 36/36/36 34/34/34 35/35/35
f 37/37/37 36/36/36 35/35/35
f 38/38/38 36/36/36 37/37/37
f 39/39/39 38/38/38 37/37/37
f 40/40/40 38/38/38 39/39/39
f 41/41/41 40/40/40 39/39/39
f 42/42/42 40/40/40 41/41/41
