g back_geo
v 0.1759537 0.26829267 4.0972096E-05
v 0.65805465 0.04036538 4.0972096E-05
v 0.4330351 -0.44412848 4.0972096E-05
v -0.05267845 -0.20130989 4.0972096E-05
v 0.39022726 -0.17633036 -0.015324972
v 0.79990065 -0.25106955 -0.015324972
v 0.7999007 -0.34722564 -0.015324972
v 0.3902271 -0.46817866 -0.015324972
v 0.25185558 -0.17214915 -0.015324972
v 0.09907209 -0.33270773 -0.015324972
v 0.09342964 -0.06946776 -0.015324972
v 0.25258154 0.00018212508 -0.015324972
v -0.23312072 -0.08960215 -0.015324972
v -0.51565737 -0.63294095 -0.015324972
v -0.60754555 -0.3981148 -0.015324972
v -0.28149256 0.031953022 -0.015324972
v -0.7052875 -0.14832869 -0.015324972
v -0.32274607 0.17399564 -0.015324972
v -0.7454159 0.041936923 -0.015324972
v -0.81120217 0.49067438 -0.015324972
v -0.43875763 0.5882954 -0.015324972
v 0.09174651 0.14082459 -0.015324972
v -0.028975846 0.35348973 -0.015324972
v 0.20437908 0.27312455 -0.015324972
v 0.075102426 0.48384175 -0.015324972
v 0.49835142 0.43640476 -0.015324981
v 0.4286553 0.56344765 -0.015324972
v 0.28813455 0.20144193 -0.015324972
v 0.34428298 0.17725538 -0.015324972
v 0.71591955 0.34007084 -0.015325028
v 0.7299802 0.15788369 -0.015325048
v 0.14809152 0.03809125 -0.015324972
v 0.02480798 -0.039919384 -0.015324972
v -0.005932617 -0.0073287277 -0.015324972
v 0.16611859 0.49956506 0.014999997
v 0.16611859 0.27504194 0.014999997
v -0.59880614 0.16493757 0.014999997
v -0.59880614 0.36514902 0.014999997
v 0.088800915 -0.39217868 0.014999997
v 0.088801056 -0.1601447 0.014999997
v 0.8112022 -0.16014487 0.014999997
v 0.8112022 -0.39217827 0.014999997
v -0.2094784 0.19585188 -0.044517934
v -0.10370876 -0.26791817 -0.044517934
v -0.47800696 -0.21726377 -0.044517934
v -0.63909966 0.02772771 -0.044517934
v 0.24845861 0.0061020963 -0.044517934
v -0.57445663 0.45334873 -0.044517934
v 0.24501666 0.38102642 -0.044517934
v -0.2914145 0.63294095 -0.044517934
v -0.0024476028 0.6068495 -0.044517934
vt 0.83740234 0.69189453
vt 0.99121094 0.6191406
vt 0.9194336 0.4645996
vt 0.76464844 0.5419922
vt 0.76953125 0.26489258
vt 0.9003906 0.24108887
vt 0.9003906 0.21032715
vt 0.76953125 0.17175293
vt 0.72558594 0.26611328
vt 0.6767578 0.21496582
vt 0.6748047 0.29907227
vt 0.72558594 0.32128906
vt 0.5708008 0.29248047
vt 0.48046875 0.11920166
vt 0.45117188 0.1940918
vt 0.5551758 0.33129883
vt 0.42016602 0.27392578
vt 0.5419922 0.37670898
vt 0.40722656 0.33447266
vt 0.38623047 0.4777832
vt 0.5048828 0.50878906
vt 0.6743164 0.3659668
vt 0.6357422 0.4338379
vt 0.7104492 0.40820312
vt 0.6689453 0.47558594
vt 0.8041992 0.46044922
vt 0.7817383 0.50097656
vt 0.7368164 0.38549805
vt 0.7548828 0.37768555
vt 0.87353516 0.4296875
vt 0.8779297 0.37158203
vt 0.6923828 0.33325195
vt 0.65283203 0.3083496
vt 0.6430664 0.31884766
vt 0.73291016 0.63916016
vt 0.73291016 0.5678711
vt 0.48876953 0.53271484
vt 0.48876953 0.5966797
vt 0.7626953 0.27734375
vt 0.7626953 0.35131836
vt 0.99316406 0.35131836
vt 0.99316406 0.27734375
vt 0.77734375 0.8535156
vt 0.81103516 0.7055664
vt 0.69140625 0.7216797
vt 0.6401367 0.7998047
vt 0.92333984 0.79296875
vt 0.66064453 0.9355469
vt 0.9223633 0.91259766
vt 0.75097656 0.99316406
vt 0.8432617 0.9848633
vn -0 0 1
vn -0 0 1
vn -0 0 1
vn -0 0 1
vn -0 0 1
vn -0 0 1
vn -0 0 1
vn -0 0 1
vn -0 0 1
vn -0 0 1
vn -0 0 1
vn -0 0 1
vn -0 0 1
vn -0 0 1
vn -0 0 1
vn -0 0 1
vn -0 0 1
vn -0 0 1
vn -0 0 1
vn -0 0 1
vn -0 0 1
vn -0 0 1
vn -0 0 1
vn -0 0 1
vn -0 0 1
vn -0 0 1
vn -0 0 1
vn 1.1920929E-07 0 1
vn 1.7881393E-07 0 1
vn 1.7881393E-07 0 1
vn 2.3841858E-07 0 1
vn -0 0 1
vn -0 0 1
vn -0 0 1
vn -0 0 1
vn -0 0 1
vn -0 0 1
vn -0 0 1
vn -0 0 1
vn -0 0 1
vn -0 0 1
vn -0 0 1
vn -0 0 1
vn -0 0 1
vn -0 0 1
vn -0 0 1
vn -0 0 1
vn -0 0 1
vn -0 0 1
vn -0 0 1
vn -0 0 1
g back_geo_0
f 3/3/3 2/2/2 1/1/1
f 4/4/4 3/3/3 1/1/1
g back_geo_1
f 7/7/7 6/6/6 5/5/5
f 8/8/8 7/7/7 5/5/5
f 5/5/5 9/9/9 8/8/8
f 9/9/9 10/10/10 8/8/8
f 11/11/11 10/10/10 9/9/9
f 9/9/9 12/12/12 11/11/11
f 10/10/10 11/11/11 13/13/13
f 14/14/14 10/10/10 13/13/13
f 14/14/14 13/13/13 15/15/15
f 15/15/15 13/13/13 16/16/16
f 17/17/17 15/15/15 16/16/16
f 17/17/17 16/16/16 18/18/18
f 18/18/18 19/19/19 17/17/17
f 19/19/19 18/18/18 20/20/20
f 18/18/18 21/21/21 20/20/20
f 22/22/22 18/18/18 16/16/16
f 22/22/22 23/23/23 18/18/18
f 22/22/22 24/24/24 23/23/23
f 24/24/24 25/25/25 23/23/23
f 24/24/24 26/26/26 25/25/25
f 26/26/26 27/27/27 25/25/25
f 24/24/24 28/28/28 26/26/26
f 24/24/24 22/22/22 28/28/28
f 28/28/28 29/29/29 26/26/26
f 29/29/29 30/30/30 26/26/26
f 29/29/29 31/31/31 30/30/30
f 22/22/22 32/32/32 28/28/28
f 33/33/33 32/32/32 22/22/22
f 34/34/34 33/33/33 22/22/22
g back_geo_2
f 37/37/37 36/36/36 35/35/35
f 38/38/38 37/37/37 35/35/35
f 41/41/41 40/40/40 39/39/39
f 42/42/42 41/41/41 39/39/39
g back_geo_3
f 45/45/45 44/44/44 43/43/43
f 43/43/43 46/46/46 45/45/45
f 47/47/47 43/43/43 44/44/44
f 43/43/43 48/48/48 46/46/46
f 47/47/47 49/49/49 43/43/43
f 43/43/43 50/50/50 48/48/48
f 43/43/43 49/49/49 51/51/51
f 51/51/51 50/50/50 43/43/43
