g back_geo02
v -0.4281076 -0.2918365 2.0513033E-09
v -0.6641085 0.27103797 2.0513033E-09
v -0.32212657 0.41467 2.0513033E-09
v -0.110773616 -0.14900191 2.0513033E-09
v 0.33968142 0.11988599 2.0513033E-09
v 0.3811664 0.2945664 2.0513033E-09
v 0.57515633 0.23297822 2.0513033E-09
v 0.5334817 0.05807309 2.0513033E-09
v 0.35851082 -0.37185523 2.0513033E-09
v 0.4718902 -0.07778737 2.0513033E-09
v 0.5825519 -0.121842906 2.0513033E-09
v 0.45925635 -0.42766047 2.0513033E-09
vt 0.7729492 0.49902344
vt 0.6928711 0.6894531
vt 0.80859375 0.73828125
vt 0.8803711 0.5473633
vt 0.9013672 0.66796875
vt 0.91552734 0.7270508
vt 0.98095703 0.7060547
vt 0.9667969 0.64697266
vt 0.90478516 0.5107422
vt 0.9433594 0.61035156
vt 0.98046875 0.5957031
vt 0.93896484 0.4921875
vn -0 0 1
vn -0 0 1
vn -0 0 1
vn -0 0 1
vn -0 0 1
vn -0 0 1
vn -0 0 1
vn -0 0 1
vn -0 0 1
vn -0 0 1
vn -0 0 1
vn -0 0 1
g back_geo02_0
f 3/3/3 2/2/2 1/1/1
f 4/4/4 3/3/3 1/1/1
f 7/7/7 6/6/6 5/5/5
f 8/8/8 7/7/7 5/5/5
f 11/11/11 10/10/10 9/9/9
f 12/12/12 11/11/11 9/9/9
