g back_geo_01
v -0.8594135 0.482796 -0.05983047
v -0.64799386 0.8424258 -0.05983047
v -0.21650863 0.73188215 -0.05983047
v -0.18944998 0.40509993 -0.05983047
v -0.42310402 0.16741289 -0.05983047
v 0.70286393 0.40799844 -0.060080163
v 0.558532 0.06824365 -0.060503677
v 0.17796333 0.2617071 -0.05994316
v 0.31888586 0.5906281 -0.059866637
vt 0.671875 0.5800781
vt 0.7714844 0.7495117
vt 0.9746094 0.6972656
vt 0.9873047 0.54345703
vt 0.8774414 0.43164062
vt 0.7480469 0.89404297
vt 0.69628906 0.7714844
vt 0.55908203 0.8413086
vt 0.6098633 0.95996094
vn -0 0 1
vn -0 0 1
vn -0 0 1
vn -0 0 1
vn -0 0 1
vn 0.0005326271 -0.000975132 1
vn 0.0005326271 -0.000975132 1
vn 0.0005326271 -0.000975132 1
vn 0.0005326271 -0.000975132 1
g back_geo_01_0
f 3/3/3 2/2/2 1/1/1
f 4/4/4 3/3/3 1/1/1
f 1/1/1 5/5/5 4/4/4
f 8/8/8 7/7/7 6/6/6
f 9/9/9 8/8/8 6/6/6
