g back_geo_01
v -0.18153907 1.052098 0
v 0.079288855 1.0371575 0
v 0.057452884 0.61401457 0
v -0.18153927 0.5313544 0
v -0.3916916 0.47688368 0
v -0.3916916 0.94291824 0
v -0.6111046 0.77767897 0
v -0.6133907 0.43402952 0
v -0.75234306 0.5696422 0
vt 0.8779297 0.66552734
vt 0.9609375 0.66064453
vt 0.95410156 0.5263672
vt 0.8779297 0.49975586
vt 0.81103516 0.48242188
vt 0.81103516 0.6308594
vt 0.74121094 0.578125
vt 0.74072266 0.46875
vt 0.69628906 0.51220703
vn -0 0 1
vn -0 0 1
vn -0 0 1
vn -0 0 1
vn -0 0 1
vn -0 0 1
vn -0 0 1
vn -0 0 1
vn -0 0 1
g back_geo_01_0
f 3/3/3 2/2/2 1/1/1
f 4/4/4 3/3/3 1/1/1
f 4/4/4 1/1/1 5/5/5
f 1/1/1 6/6/6 5/5/5
f 5/5/5 6/6/6 7/7/7
f 8/8/8 5/5/5 7/7/7
f 8/8/8 7/7/7 9/9/9
