g backTr_geo
v 0.77895033 0.49453613 -0.061436474
v -0.77895033 -0.076335534 -0.061436474
v -0.6898854 0.49310187 -0.061436467
v 0.77887523 -0.3237323 -0.061436474
v -0.5395963 -0.49453613 -0.061436474
v 0.49616727 -0.49426603 -0.061436474
vt 0.99853516 0.97753906
vt 0.35595703 0.74072266
vt 0.39233398 0.9760742
vt 0.99902344 0.6401367
vt 0.45507812 0.5683594
vt 0.8823242 0.56933594
vn -0 0 1
vn -0 0 1
vn -0 0 1
vn -0 0 1
vn -0 0 1
vn -0 0 1
g backTr_geo_0
f 3/3/3 2/2/2 1/1/1
f 2/2/2 4/4/4 1/1/1
f 2/2/2 5/5/5 4/4/4
f 5/5/5 6/6/6 4/4/4
