g back_geo_03
v -0.38525763 -0.28325862 -3.0786564E-09
v -0.38525763 -0.086356774 -3.0786564E-09
v -0.3018187 -0.134416 -3.0786564E-09
v -0.57216305 -0.134416 -3.0786564E-09
v -0.24433297 -0.28325862 -3.0786564E-09
v -0.6296463 -0.2832586 -3.0786564E-09
v -0.30169404 -0.46745905 -3.0786564E-09
v -0.5722868 -0.46745905 -3.0786564E-09
v -0.38525763 -0.5028729 -3.0786564E-09
vt 0.3564453 0.76171875
vt 0.3564453 0.82128906
vt 0.3815918 0.8066406
vt 0.30004883 0.8066406
vt 0.39868164 0.76171875
vt 0.28271484 0.76171875
vt 0.3815918 0.70654297
vt 0.30004883 0.70654297
vt 0.3564453 0.6958008
vn -0 0 1
vn -0 0 1
vn -0 0 1
vn -0 0 1
vn -0 0 1
vn -0 0 1
vn -0 0 1
vn -0 0 1
vn -0 0 1
g back_geo_03_0
f 3/3/3 2/2/2 1/1/1
f 1/1/1 2/2/2 4/4/4
f 1/1/1 5/5/5 3/3/3
f 1/1/1 4/4/4 6/6/6
f 7/7/7 5/5/5 1/1/1
f 1/1/1 6/6/6 8/8/8
f 7/7/7 1/1/1 9/9/9
f 8/8/8 9/9/9 1/1/1
