g back_geo
v 0.60898876 -0.35288987 -0.011654349
v 0.3079682 -0.44086468 -0.025536088
v -0.049885057 0.011568286 -0.011545774
v 0.7739683 0.15411925 0.011591309
v 0.46069124 0.47357872 0.0033734308
v -0.028514508 0.59192854 0.0013763987
v -0.26978368 0.6831827 -0.0011726295
v -0.7100846 0.469325 -0.01277114
v -0.813141 0.11878073 -0.0221113
v -0.7714196 -0.29307956 -0.03034645
v -0.6667374 -0.5447621 -0.03785496
v -0.2603051 -0.54329777 -0.04026589
vt 0.94970703 0.19067383
vt 0.8256836 0.15429688
vt 0.6777344 0.3413086
vt 1.0175781 0.40014648
vt 0.8886719 0.53222656
vt 0.68652344 0.5810547
vt 0.58691406 0.61865234
vt 0.40478516 0.53027344
vt 0.3623047 0.38549805
vt 0.37963867 0.2154541
vt 0.42285156 0.11138916
vt 0.5908203 0.11193848
vn -0.023040771 -0.04196167 0.99902344
vn -0.030059814 -0.054626465 0.9980469
vn -0.016448975 -0.026748657 0.9995117
vn -0.023986816 -0.02355957 0.9995117
vn -0.0211792 -0.008880615 0.9995117
vn -0.013175964 -0.021774292 0.9995117
vn -0.01675415 -0.0209198 0.9995117
vn -0.016555786 -0.021209717 0.9995117
vn -0.01687622 -0.02168274 0.9995117
vn -0.014381409 -0.027633667 0.9995117
vn -0.004673004 -0.042053223 0.99902344
vn 0.0061187744 -0.054016113 0.99853516
g back_geo_0
f 3/3/3 2/2/2 1/1/1
f 4/4/4 3/3/3 1/1/1
f 4/4/4 5/5/5 3/3/3
f 3/3/3 5/5/5 6/6/6
f 3/3/3 6/6/6 7/7/7
f 3/3/3 7/7/7 8/8/8
f 3/3/3 8/8/8 9/9/9
f 3/3/3 9/9/9 10/10/10
f 3/3/3 10/10/10 11/11/11
f 3/3/3 11/11/11 12/12/12
