g backTr_geo
v -0.45172134 0.5070321 -0.034379657
v 0.7342963 0.50719506 -0.034379657
v -0.85072035 0.16818151 -0.034379657
v -0.761401 -0.16533145 -0.034379657
v -0.62788826 -0.25068763 -0.034379657
v -0.59473675 -0.3869734 -0.034379657
v -0.43518564 -0.44639242 -0.034379657
v 0.7339688 -0.4481172 -0.034379657
vt 0.47998047 0.99365234
vt 0.99658203 0.9946289
vt 0.30664062 0.8457031
vt 0.34570312 0.7001953
vt 0.40405273 0.66308594
vt 0.41845703 0.6040039
vt 0.4880371 0.578125
vt 0.9975586 0.5786133
vn -0 0 1
vn -0 0 1
vn -0 0 1
vn -0 0 1
vn -0 0 1
vn -0 0 1
vn -0 0 1
vn -0 0 1
g backTr_geo_0
f 3/3/3 2/2/2 1/1/1
f 3/3/3 4/4/4 2/2/2
f 4/4/4 5/5/5 2/2/2
f 5/5/5 6/6/6 2/2/2
f 6/6/6 7/7/7 2/2/2
f 7/7/7 8/8/8 2/2/2
