g back_geo_03
v -0.24965732 0.7673781 0
v -0.114206366 0.7673781 0
v -0.0022004033 0.4134403 0
v -0.28485456 0.4134403 0
v -0.048436444 0.115924925 0
v -0.28565592 0.13408948 0
v -0.568389 0.44215414 0
v -0.5424489 0.81428695 0
v -0.32677397 0.81428695 0
v -0.3050312 0.44215414 0
v -0.5436977 0.04227581 0
v -0.33725873 0.012892637 0
vt 0.44311523 0.6748047
vt 0.48632812 0.6748047
vt 0.52197266 0.5620117
vt 0.43188477 0.5620117
vt 0.5073242 0.46728516
vt 0.43164062 0.4729004
vt 0.5283203 0.2932129
vt 0.5361328 0.4050293
vt 0.6010742 0.4050293
vt 0.6074219 0.2932129
vt 0.53564453 0.17321777
vt 0.59765625 0.16442871
vn -0 0 1
vn -0 0 1
vn -0 0 1
vn -0 0 1
vn -0 0 1
vn -0 0 1
vn -0 0 1
vn -0 0 1
vn -0 0 1
vn -0 0 1
vn -0 0 1
vn -0 0 1
g back_geo_03_0
f 3/3/3 2/2/2 1/1/1
f 4/4/4 3/3/3 1/1/1
f 5/5/5 3/3/3 4/4/4
f 6/6/6 5/5/5 4/4/4
f 9/9/9 8/8/8 7/7/7
f 10/10/10 9/9/9 7/7/7
f 10/10/10 7/7/7 11/11/11
f 12/12/12 10/10/10 11/11/11
