g back_geo
v -0.055301905 0.88863045 -0.09233209
v -0.057269942 0.49596453 -0.09233209
v -0.6285645 0.49555016 -0.09233209
v -0.6275798 0.8871532 -0.09233209
v 0.57136136 0.2552247 -0.07106951
v 0.6733633 -0.07396946 -0.07106951
v 0.18475795 -0.086799584 -0.07106951
v 0.16310582 0.22525798 -0.07106951
vt 0.2854004 0.9536133
vt 0.28442383 0.78759766
vt 0.04333496 0.78759766
vt 0.043762207 0.953125
vt 0.9555664 0.25952148
vt 0.9995117 0.11682129
vt 0.78759766 0.11126709
vt 0.7783203 0.24658203
vn -0 0 1
vn -0 0 1
vn -0 0 1
vn -0 0 1
vn -0 0 1
vn -0 0 1
vn -0 0 1
vn -0 0 1
g back_geo_0
f 3/3/3 2/2/2 1/1/1
f 4/4/4 3/3/3 1/1/1
f 7/7/7 6/6/6 5/5/5
f 8/8/8 7/7/7 5/5/5
