g back_geo01
v -0.04535052 -0.3829868 0.0058798646
v -0.5868459 -0.42058596 0.0058798646
v -0.04290614 -0.07385374 -4.891376E-05
v -0.7263098 -0.1217439 0.0058798646
v -0.2183806 0.45933387 -0.006281967
v -0.7237004 0.10248522 0.021439381
v -0.62382996 0.27656686 0.03595831
v -0.34988472 0.50952667 0.0043761637
v 0.59960556 -0.370081 0.005
v 0.36157486 -0.36022887 0.005
v 0.6436665 0.14230539 0.005
v 0.21756798 0.18569691 0.005
v 0.76041 0.31779417 0.005
v 0.5244728 0.5267969 0.005
v 0.2454809 0.60991514 0.005
v 0.15390211 0.541907 0.005
vt 0.6894531 0.19091797
vt 0.46704102 0.17565918
vt 0.6904297 0.3178711
vt 0.4104004 0.29833984
vt 0.61816406 0.5371094
vt 0.4111328 0.39038086
vt 0.45117188 0.46240234
vt 0.56396484 0.55810547
vt 0.92089844 0.18969727
vt 0.8208008 0.19445801
vt 0.94091797 0.40454102
vt 0.76220703 0.42407227
vt 0.9902344 0.4777832
vt 0.89160156 0.56640625
vt 0.77490234 0.6020508
vt 0.7363281 0.57373047
vn -0.001332283 0.019180298 1
vn 0.0063056946 0.007209778 1
vn 0.0058135986 0.013885498 1
vn 0.020370483 -0.0008010864 1
vn 0.023880005 0.0055999756 0.9995117
vn 0.111206055 -0.080566406 0.99072266
vn 0.17700195 -0.1685791 0.96972656
vn 0.09124756 0.027664185 0.99560547
vn -0 0 1
vn -0 0 1
vn -0 0 1
vn -0 0 1
vn -0 0 1
vn -0 0 1
vn -0 0 1
vn -0 0 1
g back_geo01_0
f 3/3/3 2/2/2 1/1/1
f 3/3/3 4/4/4 2/2/2
f 5/5/5 4/4/4 3/3/3
f 5/5/5 6/6/6 4/4/4
f 5/5/5 7/7/7 6/6/6
f 8/8/8 7/7/7 5/5/5
f 11/11/11 10/10/10 9/9/9
f 11/11/11 12/12/12 10/10/10
f 13/13/13 12/12/12 11/11/11
f 14/14/14 12/12/12 13/13/13
f 15/15/15 12/12/12 14/14/14
f 16/16/16 12/12/12 15/15/15
