g back_geo_04
v -3.379028E-10 1.1198756E-08 0
v 0.70222217 1.1198756E-08 0
v 0.6433987 -0.39794704 0
v 0.49777773 0.46199512 0
v -3.379028E-10 -0.41719723 0
v -3.379028E-10 0.61433536 0
v -0.42642483 -0.34314236 0
v -0.45233336 0.41981754 0
v -0.53421485 1.1198756E-08 0
vt 0.77001953 0.26831055
vt 0.9736328 0.26831055
vt 0.95654297 0.15307617
vt 0.9145508 0.40234375
vt 0.77001953 0.14746094
vt 0.77001953 0.4465332
vt 0.6464844 0.16894531
vt 0.63916016 0.39013672
vt 0.6152344 0.26831055
vn -0 0 1
vn -0 0 1
vn -0 0 1
vn -0 0 1
vn -0 0 1
vn -0 0 1
vn -0 0 1
vn -0 0 1
vn -0 0 1
g back_geo_04_0
f 3/3/3 2/2/2 1/1/1
f 2/2/2 4/4/4 1/1/1
f 3/3/3 1/1/1 5/5/5
f 4/4/4 6/6/6 1/1/1
f 5/5/5 1/1/1 7/7/7
f 1/1/1 6/6/6 8/8/8
f 1/1/1 9/9/9 7/7/7
f 1/1/1 8/8/8 9/9/9
