g back_geo
v 0.10605914 0.758257 0
v 0.23015147 0.4966731 0
v -0.11114264 -0.06854503 0
v -0.33057457 0.7022889 0
v 0.634675 0.35695526 0
v -0.73533124 0.52316326 0
v 0.51439786 -0.40385523 0
v -0.77087617 -0.19783172 0
v 0.26197714 -0.5719538 0
v -0.4675145 -0.564326 0
vt 0.7739258 0.7265625
vt 0.8261719 0.61621094
vt 0.6821289 0.37768555
vt 0.58984375 0.7026367
vt 0.99658203 0.5571289
vt 0.4189453 0.6269531
vt 0.9458008 0.23620605
vt 0.4038086 0.32299805
vt 0.83935547 0.1652832
vt 0.5317383 0.1685791
vn -0 0 1
vn -0 0 1
vn -0 0 1
vn -0 0 1
vn -0 0 1
vn -0 0 1
vn -0 0 1
vn -0 0 1
vn -0 0 1
vn -0 0 1
g back_geo_0
f 3/3/3 2/2/2 1/1/1
f 3/3/3 1/1/1 4/4/4
f 5/5/5 2/2/2 3/3/3
f 3/3/3 4/4/4 6/6/6
f 5/5/5 3/3/3 7/7/7
f 3/3/3 6/6/6 8/8/8
f 3/3/3 9/9/9 7/7/7
f 3/3/3 8/8/8 10/10/10
f 3/3/3 10/10/10 9/9/9
