g back_geo
v -0.6668274 0.37448546 -0.11628086
v -0.59221154 0.6166579 -0.11628086
v -0.4066731 0.45255637 -0.11628086
v -0.24963804 0.83017164 -0.11628086
v -0.19580804 0.59026647 -0.11628086
v -0.16224054 0.6764821 -0.11628086
v -0.122522525 0.026986236 -0.11628086
v -0.07553404 -0.063548274 -0.11628086
v -0.17366731 -0.15359893 -0.11628086
v -0.3113211 -0.08271896 -0.11628086
v 0.70107967 0.580884 -0.089999996
v 0.3532954 0.45057845 -0.089999996
v 0.6765971 1.1093034 -0.089999996
v 0.51314884 0.006291046 -0.089999996
v 0.015039482 0.77920955 -0.089999996
v 0.24547029 -0.024396973 -0.089999996
v -0.0032030486 0.06669828 -0.089999996
vt 0.30786133 0.98095703
vt 0.40576172 0.9506836
vt 0.3395996 0.87597656
vt 0.49194336 0.8125
vt 0.39501953 0.79052734
vt 0.42993164 0.77734375
vt 0.16760254 0.76123047
vt 0.13098145 0.7421875
vt 0.09466553 0.7817383
vt 0.123291016 0.83740234
vt 0.9760742 0.80322266
vt 0.8359375 0.7504883
vt 0.9663086 1.0166016
vt 0.9003906 0.57128906
vt 0.69921875 0.8833008
vt 0.79248047 0.55859375
vt 0.69189453 0.5957031
vn -0 0 1
vn -0 0 1
vn -0 0 1
vn -0 0 1
vn -0 0 1
vn -0 0 1
vn -0 0 1
vn -0 0 1
vn -0 0 1
vn -0 0 1
vn -0 0 1
vn -0 0 1
vn -0 0 1
vn -0 0 1
vn -0 0 1
vn -0 0 1
vn -0 0 1
g back_geo_0
f 3/3/3 2/2/2 1/1/1
f 3/3/3 4/4/4 2/2/2
f 5/5/5 4/4/4 3/3/3
f 6/6/6 4/4/4 5/5/5
f 9/9/9 8/8/8 7/7/7
f 10/10/10 9/9/9 7/7/7
f 13/13/13 12/12/12 11/11/11
f 14/14/14 11/11/11 12/12/12
f 12/12/12 13/13/13 15/15/15
f 14/14/14 12/12/12 16/16/16
f 17/17/17 12/12/12 15/15/15
f 16/16/16 12/12/12 17/17/17
