g back_geo_03
v 0.12861952 0.36038166 0
v 0.18374181 0.43984896 0
v 0.30165324 0.41187334 0
v 0.23626783 0.31672314 0
v 0.118058614 0.24768393 0
v 0.21049088 0.19365652 0
v -0.047594063 0.5304273 0
v 0.08661382 0.5333814 0
v 0.111153975 0.17068952 0
v -0.03472645 0.18022703 0
v 0.24698067 0.28572622 0
v 0.49539772 0.39443254 0
v 0.46288395 0.16032995 0
v 0.22183214 0.16839063 0
v 0.42921564 -0.0019872554 0
v -3.379028E-10 0.0076394 0
v 0.04976107 0.14534444 0
v -0.10326404 0.1667172 0
v -0.15865564 0.017266056 0
v -0.29627144 0.025823109 0
v -0.199182 0.30061314 0
v -0.4042129 0.029031955 0
v -0.39373496 0.30993298 0
vt 0.5083008 0.34399414
vt 0.52441406 0.3671875
vt 0.55859375 0.35913086
vt 0.5395508 0.33154297
vt 0.5053711 0.31152344
vt 0.53222656 0.29589844
vt 0.44799805 0.3955078
vt 0.4868164 0.39648438
vt 0.49389648 0.29125977
vt 0.45166016 0.2939453
vt 0.8198242 0.9506836
vt 0.89208984 0.9824219
vt 0.8823242 0.9145508
vt 0.8125 0.9169922
vt 0.8725586 0.8671875
vt 0.7480469 0.8701172
vt 0.7626953 0.91015625
vt 0.7182617 0.9165039
vt 0.70214844 0.8730469
vt 0.66259766 0.8754883
vt 0.6904297 0.9550781
vt 0.63134766 0.87646484
vt 0.63427734 0.9580078
vn -0 0 1
vn -0 0 1
vn -0 0 1
vn -0 0 1
vn -0 0 1
vn -0 0 1
vn -0 0 1
vn -0 0 1
vn -0 0 1
vn -0 0 1
vn -0 0 1
vn -0 0 1
vn -0 0 1
vn -0 0 1
vn -0 0 1
vn -0 0 1
vn -0 0 1
vn -0 0 1
vn -0 0 1
vn -0 0 1
vn -0 0 1
vn -0 0 1
vn -0 0 1
g back_geo_03_0
f 3/3/3 2/2/2 1/1/1
f 4/4/4 3/3/3 1/1/1
f 4/4/4 1/1/1 5/5/5
f 6/6/6 4/4/4 5/5/5
f 9/9/9 8/8/8 7/7/7
f 10/10/10 9/9/9 7/7/7
f 13/13/13 12/12/12 11/11/11
f 14/14/14 13/13/13 11/11/11
f 13/13/13 14/14/14 15/15/15
f 16/16/16 15/15/15 14/14/14
f 14/14/14 17/17/17 16/16/16
f 16/16/16 17/17/17 18/18/18
f 19/19/19 16/16/16 18/18/18
f 19/19/19 18/18/18 20/20/20
f 18/18/18 21/21/21 20/20/20
f 20/20/20 21/21/21 22/22/22
f 21/21/21 23/23/23 22/22/22
