g back_geo
v -0.6366479 0.35887566 -0.07
v -0.3899077 -0.09341441 -0.07
v -0.48627666 -0.095943354 -0.07
v -0.6229691 0.8589179 -0.07
v -0.069608 0.14594817 -0.07
v 0.6047588 0.6924772 -0.07
v 0.46194682 -0.05314458 -0.07
v 0.5521097 0.08383592 -0.07
v 0.6188598 0.3602745 -0.07
v 0.65043706 0.6396769 -0.07
vt 0.44726562 0.35351562
vt 0.5493164 0.16748047
vt 0.50927734 0.16638184
vt 0.45239258 0.5595703
vt 0.68066406 0.26635742
vt 0.9580078 0.4921875
vt 0.89990234 0.18493652
vt 0.9370117 0.24145508
vt 0.96435547 0.3552246
vt 0.9770508 0.47045898
vn -0 0 1
vn -0 0 1
vn -0 0 1
vn -0 0 1
vn -0 0 1
vn -0 0 1
vn -0 0 1
vn -0 0 1
vn -0 0 1
vn -0 0 1
g back_geo_0
f 3/3/3 2/2/2 1/1/1
f 1/1/1 2/2/2 4/4/4
f 4/4/4 2/2/2 5/5/5
f 4/4/4 5/5/5 6/6/6
f 6/6/6 5/5/5 7/7/7
f 6/6/6 7/7/7 8/8/8
f 6/6/6 8/8/8 9/9/9
f 9/9/9 10/10/10 6/6/6
