g back_geo_02
v -0.21536842 0.76960915 -7.6293944E-08
v -0.20975807 0.8678662 -7.6293944E-08
v -0.15025587 0.89197856 -7.6293944E-08
v -0.15025602 0.72153777 -7.6293944E-08
v -0.060067877 0.8459176 -7.7486035E-08
v -0.06006788 0.7246788 -7.867813E-08
v -0.58407533 0.031836547 0
v -0.5628334 0.1262898 0
v -0.4626911 0.14478792 0
v -0.4786044 0.047374353 0
v -0.51422876 0.7311873 0
v -0.39603683 0.6604413 0
v -0.5142288 0.63841116 0
v -0.3960366 0.8243865 0
v -0.28083286 0.8272409 0
v -0.28083298 0.7133489 0
v -0.61917675 0.58046514 0
v -0.5660467 0.58046544 0
v -0.5660467 0.5271234 0
v -0.61917675 0.52712315 0
v -0.5932153 -0.09112019 0
v -0.5688614 0.023032201 0
v -0.43747717 0.04145612 0
v -0.4539351 -0.077082925 0
vt 0.15368652 0.8388672
vt 0.15576172 0.8745117
vt 0.1772461 0.8833008
vt 0.1772461 0.82128906
vt 0.20996094 0.86621094
vt 0.20996094 0.8227539
vt 0.4675293 0.78564453
vt 0.47485352 0.8178711
vt 0.50878906 0.82421875
vt 0.50341797 0.7910156
vt 0.042999268 0.9550781
vt 0.08581543 0.9291992
vt 0.042999268 0.9213867
vt 0.08581543 0.98876953
vt 0.12756348 0.9897461
vt 0.12756348 0.9482422
vt 0.0074882507 0.8232422
vt 0.02671814 0.8232422
vt 0.02671814 0.8041992
vt 0.0074882507 0.8041992
vt 0.4645996 0.74121094
vt 0.4729004 0.78027344
vt 0.5175781 0.7866211
vt 0.51171875 0.74609375
vn -0 0 1
vn -0 0 1
vn -0 0 1
vn -0 0 1
vn -0 0 1
vn -0 0 1
vn -0 0 1
vn -0 0 1
vn -0 0 1
vn -0 0 1
vn -0 0 1
vn -0 0 1
vn -0 0 1
vn -0 0 1
vn -0 0 1
vn -0 0 1
vn -0 0 1
vn -0 0 1
vn -0 0 1
vn -0 0 1
vn -0 0 1
vn -0 0 1
vn -0 0 1
vn -0 0 1
g back_geo_02_0
f 3/3/3 2/2/2 1/1/1
f 4/4/4 3/3/3 1/1/1
f 3/3/3 4/4/4 5/5/5
f 4/4/4 6/6/6 5/5/5
f 9/9/9 8/8/8 7/7/7
f 10/10/10 9/9/9 7/7/7
f 13/13/13 12/12/12 11/11/11
f 12/12/12 14/14/14 11/11/11
f 15/15/15 14/14/14 12/12/12
f 16/16/16 15/15/15 12/12/12
f 19/19/19 18/18/18 17/17/17
f 20/20/20 19/19/19 17/17/17
f 23/23/23 22/22/22 21/21/21
f 24/24/24 23/23/23 21/21/21
