g ball_mesh
v -0.027049579 -0.083250046 -3.1558783E-10
v -1.078943E-33 -0.08753426 0
v 3.5471224E-09 -0.083250046 -0.0036099053
v -1.182375E-09 -0.083250046 0.0036099053
v -1.078943E-33 -0.08753426 0
v -0.027049579 -0.083250046 -3.1558783E-10
v 0.027049579 -0.083250046 0
v -1.078943E-33 -0.08753426 0
v -1.182375E-09 -0.083250046 0.0036099053
v 3.5471224E-09 -0.083250046 -0.0036099053
v -1.078943E-33 -0.08753426 0
v 0.027049579 -0.083250046 0
v 3.5471224E-09 0.083250046 -0.0036099053
v 1.078943E-33 0.08753426 0
v -0.027049579 0.083250046 -3.1558783E-10
v -0.027049579 0.083250046 -3.1558783E-10
v 1.078943E-33 0.08753426 0
v -1.182375E-09 0.083250046 0.0036099053
v -1.182375E-09 0.083250046 0.0036099053
v 1.078943E-33 0.08753426 0
v 0.027049579 0.083250046 0
v 0.027049579 0.083250046 0
v 1.078943E-33 0.08753426 0
v 3.5471224E-09 0.083250046 -0.0036099053
v 3.5471224E-09 -0.083250046 -0.0036099053
v 6.7470274E-09 -0.070816725 -0.006866455
v -0.05145134 -0.070816725 -6.0028466E-10
v -0.027049579 -0.083250046 -3.1558783E-10
v -0.027049579 -0.083250046 -3.1558783E-10
v -0.05145134 -0.070816725 -6.0028466E-10
v -2.2490099E-09 -0.070816725 0.006866455
v -1.182375E-09 -0.083250046 0.0036099053
v -1.182375E-09 -0.083250046 0.0036099053
v -2.2490099E-09 -0.070816725 0.006866455
v 0.05145134 -0.070816725 0
v 0.027049579 -0.083250046 0
v 0.027049579 -0.083250046 0
v 0.05145134 -0.070816725 0
v 6.7470274E-09 -0.070816725 -0.006866455
v 3.5471224E-09 -0.083250046 -0.0036099053
v 6.7470274E-09 -0.070816725 -0.006866455
v 9.286486E-09 -0.05145134 -0.0094509125
v -0.070816725 -0.05145134 -8.2622137E-10
v -0.05145134 -0.070816725 -6.0028466E-10
v -0.05145134 -0.070816725 -6.0028466E-10
v -0.070816725 -0.05145134 -8.2622137E-10
v -3.095497E-09 -0.05145134 0.0094509125
v -2.2490099E-09 -0.070816725 0.006866455
v -2.2490099E-09 -0.070816725 0.006866455
v -3.095497E-09 -0.05145134 0.0094509125
v 0.070816725 -0.05145134 0
v 0.05145134 -0.070816725 0
v 0.05145134 -0.070816725 0
v 0.070816725 -0.05145134 0
v 9.286486E-09 -0.05145134 -0.0094509125
v 6.7470274E-09 -0.070816725 -0.006866455
v 9.286486E-09 -0.05145134 -0.0094509125
v -0.083250046 -0.027049579 -9.712857E-10
v -0.070816725 -0.05145134 -8.2622137E-10
v 1.0916919E-08 -0.027049579 -0.011110153
v -0.08753426 -1.078943E-33 -1.0212625E-09
v 1.1478733E-08 1.41486E-40 -0.011681899
v -0.083250046 0.027049579 -9.712857E-10
v 1.0916919E-08 0.027049579 -0.011110153
v -0.070816725 0.05145134 -8.2622137E-10
v 9.286486E-09 0.05145134 -0.0094509125
v -0.070816725 -0.05145134 -8.2622137E-10
v -3.6389747E-09 -0.027049579 0.011110153
v -3.095497E-09 -0.05145134 0.0094509125
v -0.083250046 -0.027049579 -9.712857E-10
v -3.826244E-09 -4.7162E-41 0.011681899
v -0.08753426 -1.078943E-33 -1.0212625E-09
v -3.6389747E-09 0.027049579 0.011110153
v -0.083250046 0.027049579 -9.712857E-10
v -3.095497E-09 0.05145134 0.0094509125
v -0.070816725 0.05145134 -8.2622137E-10
v -3.095497E-09 -0.05145134 0.0094509125
v 0.083250046 -0.027049579 0
v 0.070816725 -0.05145134 0
v -3.6389747E-09 -0.027049579 0.011110153
v 0.08753426 1.078943E-33 0
v -3.826244E-09 -4.7162E-41 0.011681899
v 0.083250046 0.027049579 0
v -3.6389747E-09 0.027049579 0.011110153
v 0.070816725 0.05145134 0
v -3.095497E-09 0.05145134 0.0094509125
v 0.070816725 -0.05145134 0
v 1.0916919E-08 -0.027049579 -0.011110153
v 9.286486E-09 -0.05145134 -0.0094509125
v 0.083250046 -0.027049579 0
v 1.1478733E-08 1.41486E-40 -0.011681899
v 0.08753426 1.078943E-33 0
v 1.0916919E-08 0.027049579 -0.011110153
v 0.083250046 0.027049579 0
v 9.286486E-09 0.05145134 -0.0094509125
v 0.070816725 0.05145134 0
v 9.286486E-09 0.05145134 -0.0094509125
v 6.7470274E-09 0.070816725 -0.006866455
v -0.05145134 0.070816725 -6.0028466E-10
v -0.070816725 0.05145134 -8.2622137E-10
v -0.070816725 0.05145134 -8.2622137E-10
v -0.05145134 0.070816725 -6.0028466E-10
v -2.2490099E-09 0.070816725 0.006866455
v -3.095497E-09 0.05145134 0.0094509125
v -3.095497E-09 0.05145134 0.0094509125
v -2.2490099E-09 0.070816725 0.006866455
v 0.05145134 0.070816725 0
v 0.070816725 0.05145134 0
v 0.070816725 0.05145134 0
v 0.05145134 0.070816725 0
v 6.7470274E-09 0.070816725 -0.006866455
v 9.286486E-09 0.05145134 -0.0094509125
v 6.7470274E-09 0.070816725 -0.006866455
v 3.5471224E-09 0.083250046 -0.0036099053
v -0.027049579 0.083250046 -3.1558783E-10
v -0.05145134 0.070816725 -6.0028466E-10
v -0.05145134 0.070816725 -6.0028466E-10
v -0.027049579 0.083250046 -3.1558783E-10
v -1.182375E-09 0.083250046 0.0036099053
v -2.2490099E-09 0.070816725 0.006866455
v -2.2490099E-09 0.070816725 0.006866455
v -1.182375E-09 0.083250046 0.0036099053
v 0.027049579 0.083250046 0
v 0.05145134 0.070816725 0
v 0.05145134 0.070816725 0
v 0.027049579 0.083250046 0
v 3.5471224E-09 0.083250046 -0.0036099053
v 6.7470274E-09 0.070816725 -0.006866455
vt 0.95242983 0.8022928
vt 0.94598526 0.7926507
vt 0.93954057 0.8022928
vt 0.9653192 0.8022928
vt 0.9588745 0.7926507
vt 0.95242983 0.8022928
vt 0.9782085 0.8022928
vt 0.9717638 0.7926507
vt 0.9653192 0.8022928
vt 0.99109787 0.8022928
vt 0.9846532 0.7926507
vt 0.9782085 0.8022928
vt 0.93954057 0.87942964
vt 0.94598526 0.8890717
vt 0.95242983 0.87942964
vt 0.95242983 0.87942964
vt 0.9588745 0.8890717
vt 0.9653192 0.87942964
vt 0.9653192 0.87942964
vt 0.9717638 0.8890717
vt 0.9782085 0.87942964
vt 0.9782085 0.87942964
vt 0.9846532 0.8890717
vt 0.99109787 0.87942964
vt 0.93954057 0.8022928
vt 0.93954057 0.8119349
vt 0.95242983 0.8119349
vt 0.95242983 0.8022928
vt 0.95242983 0.8022928
vt 0.95242983 0.8119349
vt 0.9653192 0.8119349
vt 0.9653192 0.8022928
vt 0.9653192 0.8022928
vt 0.9653192 0.8119349
vt 0.9782085 0.8119349
vt 0.9782085 0.8022928
vt 0.9782085 0.8022928
vt 0.9782085 0.8119349
vt 0.99109787 0.8119349
vt 0.99109787 0.8022928
vt 0.93954057 0.8119349
vt 0.93954057 0.821577
vt 0.95242983 0.821577
vt 0.95242983 0.8119349
vt 0.95242983 0.8119349
vt 0.95242983 0.821577
vt 0.9653192 0.821577
vt 0.9653192 0.8119349
vt 0.9653192 0.8119349
vt 0.9653192 0.821577
vt 0.9782085 0.821577
vt 0.9782085 0.8119349
vt 0.9782085 0.8119349
vt 0.9782085 0.821577
vt 0.99109787 0.821577
vt 0.99109787 0.8119349
vt 0.93954057 0.821577
vt 0.95242983 0.8312191
vt 0.95242983 0.821577
vt 0.93954057 0.8312191
vt 0.95242983 0.8408612
vt 0.93954057 0.8408612
vt 0.95242983 0.85050327
vt 0.93954057 0.85050327
vt 0.95242983 0.8601454
vt 0.93954057 0.8601454
vt 0.95242983 0.821577
vt 0.9653192 0.8312191
vt 0.9653192 0.821577
vt 0.95242983 0.8312191
vt 0.9653192 0.8408612
vt 0.95242983 0.8408612
vt 0.9653192 0.85050327
vt 0.95242983 0.85050327
vt 0.9653192 0.8601454
vt 0.95242983 0.8601454
vt 0.9653192 0.821577
vt 0.9782085 0.8312191
vt 0.9782085 0.821577
vt 0.9653192 0.8312191
vt 0.9782085 0.8408612
vt 0.9653192 0.8408612
vt 0.9782085 0.85050327
vt 0.9653192 0.85050327
vt 0.9782085 0.8601454
vt 0.9653192 0.8601454
vt 0.9782085 0.821577
vt 0.99109787 0.8312191
vt 0.99109787 0.821577
vt 0.9782085 0.8312191
vt 0.99109787 0.8408612
vt 0.9782085 0.8408612
vt 0.99109787 0.85050327
vt 0.9782085 0.85050327
vt 0.99109787 0.8601454
vt 0.9782085 0.8601454
vt 0.93954057 0.8601454
vt 0.93954057 0.8697875
vt 0.95242983 0.8697875
vt 0.95242983 0.8601454
vt 0.95242983 0.8601454
vt 0.95242983 0.8697875
vt 0.9653192 0.8697875
vt 0.9653192 0.8601454
vt 0.9653192 0.8601454
vt 0.9653192 0.8697875
vt 0.9782085 0.8697875
vt 0.9782085 0.8601454
vt 0.9782085 0.8601454
vt 0.9782085 0.8697875
vt 0.99109787 0.8697875
vt 0.99109787 0.8601454
vt 0.93954057 0.8697875
vt 0.93954057 0.87942964
vt 0.95242983 0.87942964
vt 0.95242983 0.8697875
vt 0.95242983 0.8697875
vt 0.95242983 0.87942964
vt 0.9653192 0.87942964
vt 0.9653192 0.8697875
vt 0.9653192 0.8697875
vt 0.9653192 0.87942964
vt 0.9782085 0.87942964
vt 0.9782085 0.8697875
vt 0.9782085 0.8697875
vt 0.9782085 0.87942964
vt 0.99109787 0.87942964
vt 0.99109787 0.8697875
vn -0.10152862 -0.64102983 -0.76077116
vn -0.10152861 -0.6410298 -0.76077116
vn -0.10152861 -0.6410298 -0.76077116
vn -0.10152893 -0.6410316 0.76076955
vn -0.10152892 -0.6410317 0.7607695
vn -0.10152893 -0.6410316 0.76076955
vn 0.10152862 -0.64102983 0.76077116
vn 0.10152861 -0.64102983 0.7607711
vn 0.10152862 -0.6410299 0.7607711
vn 0.10152893 -0.6410317 -0.7607695
vn 0.10152893 -0.6410317 -0.7607695
vn 0.10152894 -0.6410317 -0.7607695
vn -0.1015287 0.6410304 -0.76077074
vn -0.1015287 0.6410304 -0.76077074
vn -0.1015287 0.6410304 -0.76077074
vn -0.10152902 0.6410323 0.76076907
vn -0.10152902 0.6410323 0.76076907
vn -0.10152902 0.6410323 0.76076907
vn 0.101528704 0.6410304 0.7607707
vn 0.101528704 0.6410304 0.7607707
vn 0.1015287 0.6410304 0.76077074
vn 0.10152902 0.6410323 -0.76076907
vn 0.10152901 0.6410323 -0.76076907
vn 0.10152901 0.6410323 -0.76076907
vn -0.1280377 -0.25128844 -0.95940626
vn -0.12803774 -0.25128847 -0.95940626
vn -0.12803774 -0.25128847 -0.95940626
vn -0.12803774 -0.25128847 -0.95940626
vn -0.12803777 -0.2512885 0.95940626
vn -0.12803777 -0.2512885 0.95940626
vn -0.12803777 -0.25128847 0.95940626
vn -0.12803777 -0.25128847 0.95940626
vn 0.1280377 -0.25128835 0.9594064
vn 0.1280377 -0.25128838 0.9594064
vn 0.1280377 -0.25128835 0.9594064
vn 0.12803772 -0.25128838 0.9594064
vn 0.12803777 -0.25128853 -0.95940626
vn 0.12803777 -0.2512885 -0.95940626
vn 0.12803777 -0.2512885 -0.95940626
vn 0.12803777 -0.2512885 -0.95940626
vn -0.13114043 -0.13114135 -0.98265165
vn -0.13114043 -0.13114138 -0.98265165
vn -0.13114043 -0.13114135 -0.98265165
vn -0.13114043 -0.13114135 -0.98265165
vn -0.13114044 -0.13114138 0.98265165
vn -0.13114044 -0.13114135 0.98265165
vn -0.13114044 -0.13114138 0.98265165
vn -0.13114046 -0.13114136 0.98265165
vn 0.13114047 -0.13114138 0.98265153
vn 0.13114049 -0.13114136 0.98265153
vn 0.13114047 -0.13114138 0.98265153
vn 0.13114049 -0.13114136 0.98265153
vn 0.13114043 -0.13114138 -0.98265165
vn 0.13114041 -0.13114135 -0.98265165
vn 0.13114044 -0.13114138 -0.98265165
vn 0.13114041 -0.13114135 -0.98265165
vn -0.13198325 -0.067247726 -0.9889682
vn -0.13198324 -0.06724772 -0.9889682
vn -0.13198325 -0.06724771 -0.9889682
vn -0.13198325 -0.067247726 -0.9889682
vn -0.13225338 -0.020946713 -0.99099463
vn -0.13225336 -0.02094671 -0.99099463
vn -0.13225338 0.020946711 -0.99099463
vn -0.13225336 0.02094671 -0.99099463
vn -0.13198325 0.06724771 -0.9889682
vn -0.13198325 0.067247726 -0.9889682
vn -0.13198331 -0.06724774 0.9889682
vn -0.13198332 -0.06724774 0.9889682
vn -0.13198331 -0.06724775 0.9889682
vn -0.13198334 -0.06724774 0.9889682
vn -0.13225338 -0.020946708 0.99099463
vn -0.13225341 -0.02094671 0.99099463
vn -0.13225341 0.02094671 0.99099463
vn -0.13225341 0.020946713 0.99099463
vn -0.13198331 0.06724775 0.9889682
vn -0.13198331 0.06724774 0.9889682
vn 0.13198328 -0.067247756 0.9889682
vn 0.13198331 -0.067247756 0.9889682
vn 0.13198328 -0.06724775 0.9889682
vn 0.13198331 -0.067247756 0.9889682
vn 0.1322534 -0.020946711 0.99099463
vn 0.13225338 -0.020946708 0.99099463
vn 0.13225341 0.020946713 0.99099463
vn 0.1322534 0.020946711 0.99099463
vn 0.13198328 0.06724775 0.9889682
vn 0.13198328 0.067247756 0.9889682
vn 0.13198331 -0.06724774 -0.9889682
vn 0.13198334 -0.06724775 -0.9889682
vn 0.13198332 -0.06724774 -0.9889682
vn 0.13198334 -0.06724774 -0.9889682
vn 0.1322534 -0.020946708 -0.99099463
vn 0.1322534 -0.02094671 -0.99099463
vn 0.13225342 0.020946713 -0.99099463
vn 0.13225341 0.020946713 -0.99099463
vn 0.13198332 0.067247756 -0.9889682
vn 0.13198331 0.067247756 -0.9889682
vn -0.13114044 0.13114138 -0.98265165
vn -0.13114044 0.13114138 -0.98265165
vn -0.13114044 0.1311414 -0.98265165
vn -0.13114044 0.13114138 -0.98265165
vn -0.13114046 0.13114138 0.98265165
vn -0.13114044 0.13114138 0.98265165
vn -0.13114044 0.13114136 0.98265165
vn -0.13114046 0.1311414 0.98265165
vn 0.13114047 0.13114138 0.98265165
vn 0.13114046 0.13114138 0.98265165
vn 0.13114047 0.13114138 0.98265153
vn 0.13114047 0.13114138 0.98265165
vn 0.13114043 0.13114138 -0.98265165
vn 0.13114043 0.13114138 -0.98265165
vn 0.13114043 0.13114138 -0.98265165
vn 0.13114043 0.13114138 -0.98265165
vn -0.1280377 0.25128844 -0.95940626
vn -0.12803772 0.25128844 -0.95940626
vn -0.12803774 0.2512885 -0.95940626
vn -0.1280377 0.25128847 -0.95940626
vn -0.12803777 0.25128847 0.95940626
vn -0.12803777 0.25128853 0.95940626
vn -0.12803777 0.2512885 0.95940626
vn -0.12803777 0.2512885 0.95940626
vn 0.12803774 0.25128847 0.95940626
vn 0.12803774 0.25128844 0.95940626
vn 0.12803774 0.25128847 0.95940626
vn 0.12803774 0.25128847 0.95940626
vn 0.12803781 0.25128856 -0.95940626
vn 0.12803783 0.2512886 -0.95940626
vn 0.12803783 0.2512886 -0.95940626
vn 0.12803783 0.2512886 -0.95940626
g ball_mesh_0
f 3/3/3 2/2/2 1/1/1
f 6/6/6 5/5/5 4/4/4
f 9/9/9 8/8/8 7/7/7
f 12/12/12 11/11/11 10/10/10
f 15/15/15 14/14/14 13/13/13
f 18/18/18 17/17/17 16/16/16
f 21/21/21 20/20/20 19/19/19
f 24/24/24 23/23/23 22/22/22
f 27/27/27 26/26/26 25/25/25
f 28/28/28 27/27/27 25/25/25
f 31/31/31 30/30/30 29/29/29
f 32/32/32 31/31/31 29/29/29
f 35/35/35 34/34/34 33/33/33
f 36/36/36 35/35/35 33/33/33
f 39/39/39 38/38/38 37/37/37
f 40/40/40 39/39/39 37/37/37
f 43/43/43 42/42/42 41/41/41
f 44/44/44 43/43/43 41/41/41
f 47/47/47 46/46/46 45/45/45
f 48/48/48 47/47/47 45/45/45
f 51/51/51 50/50/50 49/49/49
f 52/52/52 51/51/51 49/49/49
f 55/55/55 54/54/54 53/53/53
f 56/56/56 55/55/55 53/53/53
f 59/59/59 58/58/58 57/57/57
f 58/58/58 60/60/60 57/57/57
f 58/58/58 61/61/61 60/60/60
f 61/61/61 62/62/62 60/60/60
f 61/61/61 63/63/63 62/62/62
f 63/63/63 64/64/64 62/62/62
f 63/63/63 65/65/65 64/64/64
f 65/65/65 66/66/66 64/64/64
f 69/69/69 68/68/68 67/67/67
f 68/68/68 70/70/70 67/67/67
f 68/68/68 71/71/71 70/70/70
f 71/71/71 72/72/72 70/70/70
f 71/71/71 73/73/73 72/72/72
f 73/73/73 74/74/74 72/72/72
f 73/73/73 75/75/75 74/74/74
f 75/75/75 76/76/76 74/74/74
f 79/79/79 78/78/78 77/77/77
f 78/78/78 80/80/80 77/77/77
f 78/78/78 81/81/81 80/80/80
f 81/81/81 82/82/82 80/80/80
f 81/81/81 83/83/83 82/82/82
f 83/83/83 84/84/84 82/82/82
f 83/83/83 85/85/85 84/84/84
f 85/85/85 86/86/86 84/84/84
f 89/89/89 88/88/88 87/87/87
f 88/88/88 90/90/90 87/87/87
f 88/88/88 91/91/91 90/90/90
f 91/91/91 92/92/92 90/90/90
f 91/91/91 93/93/93 92/92/92
f 93/93/93 94/94/94 92/92/92
f 93/93/93 95/95/95 94/94/94
f 95/95/95 96/96/96 94/94/94
f 99/99/99 98/98/98 97/97/97
f 100/100/100 99/99/99 97/97/97
f 103/103/103 102/102/102 101/101/101
f 104/104/104 103/103/103 101/101/101
f 107/107/107 106/106/106 105/105/105
f 108/108/108 107/107/107 105/105/105
f 111/111/111 110/110/110 109/109/109
f 112/112/112 111/111/111 109/109/109
f 115/115/115 114/114/114 113/113/113
f 116/116/116 115/115/115 113/113/113
f 119/119/119 118/118/118 117/117/117
f 120/120/120 119/119/119 117/117/117
f 123/123/123 122/122/122 121/121/121
f 124/124/124 123/123/123 121/121/121
f 127/127/127 126/126/126 125/125/125
f 128/128/128 127/127/127 125/125/125
