g Black_Plane_below_A_geo01
v -4.5474734E-15 1.14440915E-07 9.822645
v -4.5474734E-15 -0.28759933 9.121029
v -4.5474734E-15 -0.28759933 9.822645
v -4.5474734E-15 -1.14440915E-07 9.121029
v -4.5474734E-15 1.14440915E-07 8.41941
v -4.5474734E-15 -0.28759933 8.41941
v -0.0062829587 -0.5659077 9.164886
v -0.0062829587 -0.5659077 9.216952
v -0.0062829587 -0.2737535 9.216952
v -0.0062829587 -0.2737535 9.164886
v -0.0062829587 -0.5715463 8.941741
v -0.0062829587 -0.5715463 9.024996
v -0.0062829587 -0.2474739 8.537555
v -0.0062829587 -0.2474739 8.433487
v -0.0062829587 -0.5659077 9.077171
v -0.0062829587 -0.2737535 9.077171
v -0.0062829587 -0.2737535 9.025104
v -0.0062829587 -0.5659077 9.025104
v -0.0062829587 -0.5715463 9.300315
v -0.0062829587 -0.2474739 9.80857
v -0.0062829587 -0.2474739 9.7045
v -0.0062829587 -0.5715463 9.217059
v -4.5474734E-15 1.14440915E-07 11.22588
v -4.5474734E-15 -0.28759933 10.524262
v -4.5474734E-15 -0.28759933 11.22588
v -4.5474734E-15 -1.14440915E-07 10.524262
v -4.5474734E-15 1.14440915E-07 9.822645
v -4.5474734E-15 -0.28759933 9.822645
v -0.0062829587 -0.5659077 10.568121
v -0.0062829587 -0.5659077 10.620189
v -0.0062829587 -0.2737535 10.620189
v -0.0062829587 -0.2737535 10.568121
v -0.0062829587 -0.5715463 10.344975
v -0.0062829587 -0.5715463 10.428231
v -0.0062829587 -0.2474739 9.940791
v -0.0062829587 -0.2474739 9.836722
v -0.0062829587 -0.5659077 10.480405
v -0.0062829587 -0.2737535 10.480405
v -0.0062829587 -0.2737535 10.428338
v -0.0062829587 -0.5659077 10.428338
v -0.0062829587 -0.5715463 10.70355
v -0.0062829587 -0.2474739 11.211804
v -0.0062829587 -0.2474739 11.107736
v -0.0062829587 -0.5715463 10.620294
v -4.5474734E-15 1.14440915E-07 12.629116
v -4.5474734E-15 -0.28759933 11.927497
v -4.5474734E-15 -0.28759933 12.629116
v -4.5474734E-15 -1.14440915E-07 11.927497
v -4.5474734E-15 1.14440915E-07 11.22588
v -4.5474734E-15 -0.28759933 11.22588
v -0.0062829587 -0.5659077 11.971356
v -0.0062829587 -0.5659077 12.023422
v -0.0062829587 -0.2737535 12.023422
v -0.0062829587 -0.2737535 11.971356
v -0.0062829587 -0.5715463 11.748212
v -0.0062829587 -0.5715463 11.831466
v -0.0062829587 -0.2474739 11.344026
v -0.0062829587 -0.2474739 11.239957
v -0.0062829587 -0.5659077 11.88364
v -0.0062829587 -0.2737535 11.88364
v -0.0062829587 -0.2737535 11.831574
v -0.0062829587 -0.5659077 11.831574
v -0.0062829587 -0.5715463 12.106786
v -0.0062829587 -0.2474739 12.615038
v -0.0062829587 -0.2474739 12.51097
v -0.0062829587 -0.5715463 12.023529
v -4.5474734E-15 1.14440915E-07 14.03235
v -4.5474734E-15 -0.28759933 13.330732
v -4.5474734E-15 -0.28759933 14.03235
v -4.5474734E-15 -1.14440915E-07 13.330732
v -4.5474734E-15 1.14440915E-07 12.629116
v -4.5474734E-15 -0.28759933 12.629116
v -0.0062829587 -0.5659077 13.374591
v -0.0062829587 -0.5659077 13.426659
v -0.0062829587 -0.2737535 13.426659
v -0.0062829587 -0.2737535 13.374591
v -0.0062829587 -0.5715463 13.151445
v -0.0062829587 -0.5715463 13.2347
v -0.0062829587 -0.2474739 12.747259
v -0.0062829587 -0.2474739 12.643192
v -0.0062829587 -0.5659077 13.286875
v -0.0062829587 -0.2737535 13.286875
v -0.0062829587 -0.2737535 13.234808
v -0.0062829587 -0.5659077 13.234808
v -0.0062829587 -0.5715463 13.510021
v -0.0062829587 -0.2474739 14.018273
v -0.0062829587 -0.2474739 13.914205
v -0.0062829587 -0.5715463 13.426764
v -4.5474734E-15 1.14440915E-07 15.435584
v -4.5474734E-15 -0.28759933 14.733967
v -4.5474734E-15 -0.28759933 15.435584
v -4.5474734E-15 -1.14440915E-07 14.733967
v -4.5474734E-15 1.14440915E-07 14.03235
v -4.5474734E-15 -0.28759933 14.03235
v -0.0062829587 -0.5659077 14.777825
v -0.0062829587 -0.5659077 14.829892
v -0.0062829587 -0.2737535 14.829892
v -0.0062829587 -0.2737535 14.777825
v -0.0062829587 -0.5715463 14.55468
v -0.0062829587 -0.5715463 14.637936
v -0.0062829587 -0.2474739 14.150496
v -0.0062829587 -0.2474739 14.046427
v -0.0062829587 -0.5659077 14.690109
v -0.0062829587 -0.2737535 14.690109
v -0.0062829587 -0.2737535 14.638042
v -0.0062829587 -0.5659077 14.638042
v -0.0062829587 -0.5715463 14.913256
v -0.0062829587 -0.2474739 15.421507
v -0.0062829587 -0.2474739 15.31744
v -0.0062829587 -0.5715463 14.829998
v -4.5474734E-15 1.14440915E-07 16.83882
v -4.5474734E-15 -0.28759933 16.137201
v -4.5474734E-15 -0.28759933 16.83882
v -4.5474734E-15 -1.14440915E-07 16.137201
v -4.5474734E-15 1.14440915E-07 15.435584
v -4.5474734E-15 -0.28759933 15.435584
v -0.0062829587 -0.5659077 16.18106
v -0.0062829587 -0.5659077 16.233128
v -0.0062829587 -0.2737535 16.233128
v -0.0062829587 -0.2737535 16.18106
v -0.0062829587 -0.5715463 15.957914
v -0.0062829587 -0.5715463 16.04117
v -0.0062829587 -0.2474739 15.553729
v -0.0062829587 -0.2474739 15.449661
v -0.0062829587 -0.5659077 16.093344
v -0.0062829587 -0.2737535 16.093344
v -0.0062829587 -0.2737535 16.041277
v -0.0062829587 -0.5659077 16.041277
v -0.0062829587 -0.5715463 16.31649
v -0.0062829587 -0.2474739 16.824741
v -0.0062829587 -0.2474739 16.720675
v -0.0062829587 -0.5715463 16.233232
v -4.5474734E-15 1.14440915E-07 8.419409
v -4.5474734E-15 -0.28759933 7.717793
v -4.5474734E-15 -0.28759933 8.419409
v -4.5474734E-15 -1.14440915E-07 7.717793
v -4.5474734E-15 1.14440915E-07 7.0161753
v -4.5474734E-15 -0.28759933 7.0161753
v -0.0062829587 -0.5659077 7.76165
v -0.0062829587 -0.5659077 7.8137183
v -0.0062829587 -0.2737535 7.8137183
v -0.0062829587 -0.2737535 7.76165
v -0.0062829587 -0.5715463 7.5385046
v -0.0062829587 -0.5715463 7.62176
v -0.0062829587 -0.2474739 7.134319
v -0.0062829587 -0.2474739 7.0302515
v -0.0062829587 -0.5659077 7.6739354
v -0.0062829587 -0.2737535 7.6739354
v -0.0062829587 -0.2737535 7.6218677
v -0.0062829587 -0.5659077 7.6218677
v -0.0062829587 -0.5715463 7.897081
v -0.0062829587 -0.2474739 8.4053335
v -0.0062829587 -0.2474739 8.301265
v -0.0062829587 -0.5715463 7.813823
v -4.5474734E-15 1.14440915E-07 7.0161753
v -4.5474734E-15 -0.28759933 6.3145566
v -4.5474734E-15 -0.28759933 7.0161753
v -4.5474734E-15 -1.14440915E-07 6.3145566
v -4.5474734E-15 1.14440915E-07 5.6129403
v -4.5474734E-15 -0.28759933 5.6129403
v -0.0062829587 -0.5659077 6.3584156
v -0.0062829587 -0.5659077 6.4104834
v -0.0062829587 -0.2737535 6.4104834
v -0.0062829587 -0.2737535 6.3584156
v -0.0062829587 -0.5715463 6.135271
v -0.0062829587 -0.5715463 6.2185264
v -0.0062829587 -0.2474739 5.7310853
v -0.0062829587 -0.2474739 5.6270165
v -0.0062829587 -0.5659077 6.2706995
v -0.0062829587 -0.2737535 6.2706995
v -0.0062829587 -0.2737535 6.218634
v -0.0062829587 -0.5659077 6.218634
v -0.0062829587 -0.5715463 6.4938464
v -0.0062829587 -0.2474739 7.002098
v -0.0062829587 -0.2474739 6.8980308
v -0.0062829587 -0.5715463 6.410589
v -4.5474734E-15 1.14440915E-07 5.6129403
v -4.5474734E-15 -0.28759933 4.911322
v -4.5474734E-15 -0.28759933 5.6129403
v -4.5474734E-15 -1.14440915E-07 4.911322
v -4.5474734E-15 1.14440915E-07 4.2097044
v -4.5474734E-15 -0.28759933 4.2097044
v -0.0062829587 -0.5659077 4.9551806
v -0.0062829587 -0.5659077 5.007247
v -0.0062829587 -0.2737535 5.007247
v -0.0062829587 -0.2737535 4.9551806
v -0.0062829587 -0.5715463 4.732036
v -0.0062829587 -0.5715463 4.8152914
v -0.0062829587 -0.2474739 4.3278503
v -0.0062829587 -0.2474739 4.223783
v -0.0062829587 -0.5659077 4.8674645
v -0.0062829587 -0.2737535 4.8674645
v -0.0062829587 -0.2737535 4.815399
v -0.0062829587 -0.5659077 4.815399
v -0.0062829587 -0.5715463 5.09061
v -0.0062829587 -0.2474739 5.598862
v -0.0062829587 -0.2474739 5.494796
v -0.0062829587 -0.5715463 5.0073547
v -4.5474734E-15 1.14440915E-07 4.2097044
v -4.5474734E-15 -0.28759933 3.5080884
v -4.5474734E-15 -0.28759933 4.2097044
v -4.5474734E-15 -1.14440915E-07 3.5080884
v -4.5474734E-15 1.14440915E-07 2.8064697
v -4.5474734E-15 -0.28759933 2.8064697
v -0.0062829587 -0.5659077 3.5519469
v -0.0062829587 -0.5659077 3.6040125
v -0.0062829587 -0.2737535 3.6040125
v -0.0062829587 -0.2737535 3.5519469
v -0.0062829587 -0.5715463 3.3288
v -0.0062829587 -0.5715463 3.4120555
v -0.0062829587 -0.2474739 2.9246142
v -0.0062829587 -0.2474739 2.820548
v -0.0062829587 -0.5659077 3.4642308
v -0.0062829587 -0.2737535 3.4642308
v -0.0062829587 -0.2737535 3.412163
v -0.0062829587 -0.5659077 3.412163
v -0.0062829587 -0.5715463 3.6873753
v -0.0062829587 -0.2474739 4.195627
v -0.0062829587 -0.2474739 4.09156
v -0.0062829587 -0.5715463 3.6041186
v -4.5474734E-15 1.14440915E-07 2.8064697
v -4.5474734E-15 -0.28759933 2.1048534
v -4.5474734E-15 -0.28759933 2.8064697
v -4.5474734E-15 -1.14440915E-07 2.1048534
v -4.5474734E-15 1.14440915E-07 1.4032348
v -4.5474734E-15 -0.28759933 1.4032348
v -0.0062829587 -0.5659077 2.1487122
v -0.0062829587 -0.5659077 2.2007787
v -0.0062829587 -0.2737535 2.2007787
v -0.0062829587 -0.2737535 2.1487122
v -0.0062829587 -0.5715463 1.9255651
v -0.0062829587 -0.5715463 2.0088208
v -0.0062829587 -0.2474739 1.5213794
v -0.0062829587 -0.2474739 1.417312
v -0.0062829587 -0.5659077 2.060996
v -0.0062829587 -0.2737535 2.060996
v -0.0062829587 -0.2737535 2.008928
v -0.0062829587 -0.5659077 2.008928
v -0.0062829587 -0.5715463 2.2841406
v -0.0062829587 -0.2474739 2.7923937
v -0.0062829587 -0.2474739 2.6883252
v -0.0062829587 -0.5715463 2.2008836
v -4.5474734E-15 1.14440915E-07 1.4032348
v -4.5474734E-15 -0.28759933 0.7016174
v -4.5474734E-15 -0.28759933 1.4032348
v -4.5474734E-15 -1.14440915E-07 0.7016174
v -4.5474734E-15 1.14440915E-07 1.2207031E-06
v -4.5474734E-15 -0.28759933 1.2207031E-06
v -0.0062829587 -0.5659077 0.74547607
v -0.0062829587 -0.5659077 0.79754394
v -0.0062829587 -0.2737535 0.79754394
v -0.0062829587 -0.2737535 0.74547607
v -0.0062829587 -0.5715463 0.52233154
v -0.0062829587 -0.5715463 0.6055871
v -0.0062829587 -0.2474739 0.118143305
v -0.0062829587 -0.2474739 0.014077148
v -0.0062829587 -0.5659077 0.65776
v -0.0062829587 -0.2737535 0.65776
v -0.0062829587 -0.2737535 0.60569334
v -0.0062829587 -0.5659077 0.60569334
v -0.0062829587 -0.5715463 0.88090694
v -0.0062829587 -0.2474739 1.3891588
v -0.0062829587 -0.2474739 1.2850915
v -0.0062829587 -0.5715463 0.79765016
vt 0.2541504 0.9824219
vt 0.50634766 0.87890625
vt 0.2541504 0.87890625
vt 0.50634766 0.9824219
vt 0.75878906 0.9824219
vt 0.75878906 0.87890625
vt 0.46801758 0.04196167
vt 0.43017578 0.04196167
vt 0.43017578 0.30004883
vt 0.46801758 0.30004883
vt 0.6303711 0.037841797
vt 0.5698242 0.037841797
vt 0.9243164 0.3190918
vt 1 0.3190918
vt 0.5317383 0.04196167
vt 0.5317383 0.30004883
vt 0.5698242 0.30004883
vt 0.5698242 0.04196167
vt 0.3696289 0.037841797
vt 0 0.3190918
vt 0.075683594 0.3190918
vt 0.43017578 0.037841797
vt 0.2541504 0.9824219
vt 0.50634766 0.87890625
vt 0.2541504 0.87890625
vt 0.50634766 0.9824219
vt 0.75878906 0.9824219
vt 0.75878906 0.87890625
vt 0.46801758 0.04196167
vt 0.43017578 0.04196167
vt 0.43017578 0.30004883
vt 0.46801758 0.30004883
vt 0.6303711 0.037841797
vt 0.5698242 0.037841797
vt 0.9243164 0.3190918
vt 1 0.3190918
vt 0.5317383 0.04196167
vt 0.5317383 0.30004883
vt 0.5698242 0.30004883
vt 0.5698242 0.04196167
vt 0.3696289 0.037841797
vt 0 0.3190918
vt 0.075683594 0.3190918
vt 0.43017578 0.037841797
vt 0.2541504 0.9824219
vt 0.50634766 0.87890625
vt 0.2541504 0.87890625
vt 0.50634766 0.9824219
vt 0.75878906 0.9824219
vt 0.75878906 0.87890625
vt 0.46801758 0.04196167
vt 0.43017578 0.04196167
vt 0.43017578 0.30004883
vt 0.46801758 0.30004883
vt 0.6303711 0.037841797
vt 0.5698242 0.037841797
vt 0.9243164 0.3190918
vt 1 0.3190918
vt 0.5317383 0.04196167
vt 0.5317383 0.30004883
vt 0.5698242 0.30004883
vt 0.5698242 0.04196167
vt 0.3696289 0.037841797
vt 0 0.3190918
vt 0.075683594 0.3190918
vt 0.43017578 0.037841797
vt 0.2541504 0.9824219
vt 0.50634766 0.87890625
vt 0.2541504 0.87890625
vt 0.50634766 0.9824219
vt 0.75878906 0.9824219
vt 0.75878906 0.87890625
vt 0.46801758 0.04196167
vt 0.43017578 0.04196167
vt 0.43017578 0.30004883
vt 0.46801758 0.30004883
vt 0.6303711 0.037841797
vt 0.5698242 0.037841797
vt 0.9243164 0.3190918
vt 1 0.3190918
vt 0.5317383 0.04196167
vt 0.5317383 0.30004883
vt 0.5698242 0.30004883
vt 0.5698242 0.04196167
vt 0.3696289 0.037841797
vt 0 0.3190918
vt 0.075683594 0.3190918
vt 0.43017578 0.037841797
vt 0.2541504 0.9824219
vt 0.50634766 0.87890625
vt 0.2541504 0.87890625
vt 0.50634766 0.9824219
vt 0.75878906 0.9824219
vt 0.75878906 0.87890625
vt 0.46801758 0.04196167
vt 0.43017578 0.04196167
vt 0.43017578 0.30004883
vt 0.46801758 0.30004883
vt 0.6303711 0.037841797
vt 0.5698242 0.037841797
vt 0.9243164 0.3190918
vt 1 0.3190918
vt 0.5317383 0.04196167
vt 0.5317383 0.30004883
vt 0.5698242 0.30004883
vt 0.5698242 0.04196167
vt 0.3696289 0.037841797
vt 0 0.3190918
vt 0.075683594 0.3190918
vt 0.43017578 0.037841797
vt 0.2541504 0.9824219
vt 0.50634766 0.87890625
vt 0.2541504 0.87890625
vt 0.50634766 0.9824219
vt 0.75878906 0.9824219
vt 0.75878906 0.87890625
vt 0.46801758 0.04196167
vt 0.43017578 0.04196167
vt 0.43017578 0.30004883
vt 0.46801758 0.30004883
vt 0.6303711 0.037841797
vt 0.5698242 0.037841797
vt 0.9243164 0.3190918
vt 1 0.3190918
vt 0.5317383 0.04196167
vt 0.5317383 0.30004883
vt 0.5698242 0.30004883
vt 0.5698242 0.04196167
vt 0.3696289 0.037841797
vt 0 0.3190918
vt 0.075683594 0.3190918
vt 0.43017578 0.037841797
vt 0.2541504 0.9824219
vt 0.50634766 0.87890625
vt 0.2541504 0.87890625
vt 0.50634766 0.9824219
vt 0.75878906 0.9824219
vt 0.75878906 0.87890625
vt 0.46801758 0.04196167
vt 0.43017578 0.04196167
vt 0.43017578 0.30004883
vt 0.46801758 0.30004883
vt 0.6303711 0.037841797
vt 0.5698242 0.037841797
vt 0.9243164 0.3190918
vt 1 0.3190918
vt 0.5317383 0.04196167
vt 0.5317383 0.30004883
vt 0.5698242 0.30004883
vt 0.5698242 0.04196167
vt 0.3696289 0.037841797
vt 0 0.3190918
vt 0.075683594 0.3190918
vt 0.43017578 0.037841797
vt 0.2541504 0.9824219
vt 0.50634766 0.87890625
vt 0.2541504 0.87890625
vt 0.50634766 0.9824219
vt 0.75878906 0.9824219
vt 0.75878906 0.87890625
vt 0.46801758 0.04196167
vt 0.43017578 0.04196167
vt 0.43017578 0.30004883
vt 0.46801758 0.30004883
vt 0.6303711 0.037841797
vt 0.5698242 0.037841797
vt 0.9243164 0.3190918
vt 1 0.3190918
vt 0.5317383 0.04196167
vt 0.5317383 0.30004883
vt 0.5698242 0.30004883
vt 0.5698242 0.04196167
vt 0.3696289 0.037841797
vt 0 0.3190918
vt 0.075683594 0.3190918
vt 0.43017578 0.037841797
vt 0.2541504 0.9824219
vt 0.50634766 0.87890625
vt 0.2541504 0.87890625
vt 0.50634766 0.9824219
vt 0.75878906 0.9824219
vt 0.75878906 0.87890625
vt 0.46801758 0.04196167
vt 0.43017578 0.04196167
vt 0.43017578 0.30004883
vt 0.46801758 0.30004883
vt 0.6303711 0.037841797
vt 0.5698242 0.037841797
vt 0.9243164 0.3190918
vt 1 0.3190918
vt 0.5317383 0.04196167
vt 0.5317383 0.30004883
vt 0.5698242 0.30004883
vt 0.5698242 0.04196167
vt 0.3696289 0.037841797
vt 0 0.3190918
vt 0.075683594 0.3190918
vt 0.43017578 0.037841797
vt 0.2541504 0.9824219
vt 0.50634766 0.87890625
vt 0.2541504 0.87890625
vt 0.50634766 0.9824219
vt 0.75878906 0.9824219
vt 0.75878906 0.87890625
vt 0.46801758 0.04196167
vt 0.43017578 0.04196167
vt 0.43017578 0.30004883
vt 0.46801758 0.30004883
vt 0.6303711 0.037841797
vt 0.5698242 0.037841797
vt 0.9243164 0.3190918
vt 1 0.3190918
vt 0.5317383 0.04196167
vt 0.5317383 0.30004883
vt 0.5698242 0.30004883
vt 0.5698242 0.04196167
vt 0.3696289 0.037841797
vt 0 0.3190918
vt 0.075683594 0.3190918
vt 0.43017578 0.037841797
vt 0.2541504 0.9824219
vt 0.50634766 0.87890625
vt 0.2541504 0.87890625
vt 0.50634766 0.9824219
vt 0.75878906 0.9824219
vt 0.75878906 0.87890625
vt 0.46801758 0.04196167
vt 0.43017578 0.04196167
vt 0.43017578 0.30004883
vt 0.46801758 0.30004883
vt 0.6303711 0.037841797
vt 0.5698242 0.037841797
vt 0.9243164 0.3190918
vt 1 0.3190918
vt 0.5317383 0.04196167
vt 0.5317383 0.30004883
vt 0.5698242 0.30004883
vt 0.5698242 0.04196167
vt 0.3696289 0.037841797
vt 0 0.3190918
vt 0.075683594 0.3190918
vt 0.43017578 0.037841797
vt 0.2541504 0.9824219
vt 0.50634766 0.87890625
vt 0.2541504 0.87890625
vt 0.50634766 0.9824219
vt 0.75878906 0.9824219
vt 0.75878906 0.87890625
vt 0.46801758 0.04196167
vt 0.43017578 0.04196167
vt 0.43017578 0.30004883
vt 0.46801758 0.30004883
vt 0.6303711 0.037841797
vt 0.5698242 0.037841797
vt 0.9243164 0.3190918
vt 1 0.3190918
vt 0.5317383 0.04196167
vt 0.5317383 0.30004883
vt 0.5698242 0.30004883
vt 0.5698242 0.04196167
vt 0.3696289 0.037841797
vt 0 0.3190918
vt 0.075683594 0.3190918
vt 0.43017578 0.037841797
vn 1 0 0
vn 1 0 0
vn 1 0 0
vn 1 0 0
vn 1 0 0
vn 1 0 0
vn 1 0 0
vn 1 0 0
vn 1 0 0
vn 1 0 0
vn 1 -2.0861626E-06 0
vn 1 -2.0861626E-06 0
vn 1 -2.0861626E-06 0
vn 1 -2.0861626E-06 0
vn 1 0 0
vn 1 0 0
vn 1 0 0
vn 1 0 0
vn 1 -2.0861626E-06 0
vn 1 -2.0861626E-06 0
vn 1 -2.0861626E-06 0
vn 1 -2.0861626E-06 0
vn 1 0 0
vn 1 0 0
vn 1 0 0
vn 1 0 0
vn 1 0 0
vn 1 0 0
vn 1 0 0
vn 1 0 0
vn 1 0 0
vn 1 0 0
vn 1 -2.0861626E-06 0
vn 1 -2.0861626E-06 0
vn 1 -2.0861626E-06 0
vn 1 -2.0861626E-06 0
vn 1 0 0
vn 1 0 0
vn 1 0 0
vn 1 0 0
vn 1 -2.0861626E-06 0
vn 1 -2.0861626E-06 0
vn 1 -2.0861626E-06 0
vn 1 -2.0861626E-06 0
vn 1 0 0
vn 1 0 0
vn 1 0 0
vn 1 0 0
vn 1 0 0
vn 1 0 0
vn 1 0 0
vn 1 0 0
vn 1 0 0
vn 1 0 0
vn 1 -2.0861626E-06 0
vn 1 -2.0861626E-06 0
vn 1 -2.0861626E-06 0
vn 1 -2.0861626E-06 0
vn 1 0 0
vn 1 0 0
vn 1 0 0
vn 1 0 0
vn 1 -2.0861626E-06 0
vn 1 -2.0861626E-06 0
vn 1 -2.0861626E-06 0
vn 1 -2.0861626E-06 0
vn 1 0 0
vn 1 0 0
vn 1 0 0
vn 1 0 0
vn 1 0 0
vn 1 0 0
vn 1 0 0
vn 1 0 0
vn 1 0 0
vn 1 0 0
vn 1 -2.0861626E-06 0
vn 1 -2.0861626E-06 0
vn 1 -2.0861626E-06 0
vn 1 -2.0861626E-06 0
vn 1 0 0
vn 1 0 0
vn 1 0 0
vn 1 0 0
vn 1 -2.0861626E-06 0
vn 1 -2.0861626E-06 0
vn 1 -2.0861626E-06 0
vn 1 -2.0861626E-06 0
vn 1 0 0
vn 1 0 0
vn 1 0 0
vn 1 0 0
vn 1 0 0
vn 1 0 0
vn 1 0 0
vn 1 0 0
vn 1 0 0
vn 1 0 0
vn 1 -2.0861626E-06 0
vn 1 -2.0861626E-06 0
vn 1 -2.0861626E-06 0
vn 1 -2.0861626E-06 0
vn 1 0 0
vn 1 0 0
vn 1 0 0
vn 1 0 0
vn 1 -2.0861626E-06 0
vn 1 -2.0861626E-06 0
vn 1 -2.0861626E-06 0
vn 1 -2.0861626E-06 0
vn 1 0 0
vn 1 0 0
vn 1 0 0
vn 1 0 0
vn 1 0 0
vn 1 0 0
vn 1 0 0
vn 1 0 0
vn 1 0 0
vn 1 0 0
vn 1 -2.0861626E-06 0
vn 1 -2.0861626E-06 0
vn 1 -2.0861626E-06 0
vn 1 -2.0861626E-06 0
vn 1 0 0
vn 1 0 0
vn 1 0 0
vn 1 0 0
vn 1 -2.0861626E-06 0
vn 1 -2.0861626E-06 0
vn 1 -2.0861626E-06 0
vn 1 -2.0861626E-06 0
vn 1 0 0
vn 1 0 0
vn 1 0 0
vn 1 0 0
vn 1 0 0
vn 1 0 0
vn 1 0 0
vn 1 0 0
vn 1 0 0
vn 1 0 0
vn 1 -2.0861626E-06 0
vn 1 -2.0861626E-06 0
vn 1 -2.0861626E-06 0
vn 1 -2.0861626E-06 0
vn 1 0 0
vn 1 0 0
vn 1 0 0
vn 1 0 0
vn 1 -2.0861626E-06 0
vn 1 -2.0861626E-06 0
vn 1 -2.0861626E-06 0
vn 1 -2.0861626E-06 0
vn 1 0 0
vn 1 0 0
vn 1 0 0
vn 1 0 0
vn 1 0 0
vn 1 0 0
vn 1 0 0
vn 1 0 0
vn 1 0 0
vn 1 0 0
vn 1 -2.0861626E-06 0
vn 1 -2.0861626E-06 0
vn 1 -2.0861626E-06 0
vn 1 -2.0861626E-06 0
vn 1 0 0
vn 1 0 0
vn 1 0 0
vn 1 0 0
vn 1 -2.0861626E-06 0
vn 1 -2.0861626E-06 0
vn 1 -2.0861626E-06 0
vn 1 -2.0861626E-06 0
vn 1 0 0
vn 1 0 0
vn 1 0 0
vn 1 0 0
vn 1 0 0
vn 1 0 0
vn 1 0 0
vn 1 0 0
vn 1 0 0
vn 1 0 0
vn 1 -2.0861626E-06 0
vn 1 -2.0861626E-06 0
vn 1 -2.0861626E-06 0
vn 1 -2.0861626E-06 0
vn 1 0 0
vn 1 0 0
vn 1 0 0
vn 1 0 0
vn 1 -2.0861626E-06 0
vn 1 -2.0861626E-06 0
vn 1 -2.0861626E-06 0
vn 1 -2.0861626E-06 0
vn 1 0 0
vn 1 0 0
vn 1 0 0
vn 1 0 0
vn 1 0 0
vn 1 0 0
vn 1 0 0
vn 1 0 0
vn 1 0 0
vn 1 0 0
vn 1 -2.0861626E-06 0
vn 1 -2.0861626E-06 0
vn 1 -2.0861626E-06 0
vn 1 -2.0861626E-06 0
vn 1 0 0
vn 1 0 0
vn 1 0 0
vn 1 0 0
vn 1 -2.0861626E-06 0
vn 1 -2.0861626E-06 0
vn 1 -2.0861626E-06 0
vn 1 -2.0861626E-06 0
vn 1 0 0
vn 1 0 0
vn 1 0 0
vn 1 0 0
vn 1 0 0
vn 1 0 0
vn 1 0 0
vn 1 0 0
vn 1 0 0
vn 1 0 0
vn 1 -2.0861626E-06 0
vn 1 -2.0861626E-06 0
vn 1 -2.0861626E-06 0
vn 1 -2.0861626E-06 0
vn 1 0 0
vn 1 0 0
vn 1 0 0
vn 1 0 0
vn 1 -2.0861626E-06 0
vn 1 -2.0861626E-06 0
vn 1 -2.0861626E-06 0
vn 1 -2.0861626E-06 0
vn 1 0 0
vn 1 0 0
vn 1 0 0
vn 1 0 0
vn 1 0 0
vn 1 0 0
vn 1 0 0
vn 1 0 0
vn 1 0 0
vn 1 0 0
vn 1 -2.0861626E-06 0
vn 1 -2.0861626E-06 0
vn 1 -2.0861626E-06 0
vn 1 -2.0861626E-06 0
vn 1 0 0
vn 1 0 0
vn 1 0 0
vn 1 0 0
vn 1 -2.0861626E-06 0
vn 1 -2.0861626E-06 0
vn 1 -2.0861626E-06 0
vn 1 -2.0861626E-06 0
g Black_Plane_below_A_geo01_0
f 3/3/3 2/2/2 1/1/1
f 2/2/2 4/4/4 1/1/1
f 4/4/4 2/2/2 5/5/5
f 2/2/2 6/6/6 5/5/5
f 9/9/9 8/8/8 7/7/7
f 10/10/10 9/9/9 7/7/7
f 13/13/13 12/12/12 11/11/11
f 14/14/14 13/13/13 11/11/11
f 17/17/17 16/16/16 15/15/15
f 18/18/18 17/17/17 15/15/15
f 21/21/21 20/20/20 19/19/19
f 22/22/22 21/21/21 19/19/19
f 25/25/25 24/24/24 23/23/23
f 24/24/24 26/26/26 23/23/23
f 26/26/26 24/24/24 27/27/27
f 24/24/24 28/28/28 27/27/27
f 31/31/31 30/30/30 29/29/29
f 32/32/32 31/31/31 29/29/29
f 35/35/35 34/34/34 33/33/33
f 36/36/36 35/35/35 33/33/33
f 39/39/39 38/38/38 37/37/37
f 40/40/40 39/39/39 37/37/37
f 43/43/43 42/42/42 41/41/41
f 44/44/44 43/43/43 41/41/41
f 47/47/47 46/46/46 45/45/45
f 46/46/46 48/48/48 45/45/45
f 48/48/48 46/46/46 49/49/49
f 46/46/46 50/50/50 49/49/49
f 53/53/53 52/52/52 51/51/51
f 54/54/54 53/53/53 51/51/51
f 57/57/57 56/56/56 55/55/55
f 58/58/58 57/57/57 55/55/55
f 61/61/61 60/60/60 59/59/59
f 62/62/62 61/61/61 59/59/59
f 65/65/65 64/64/64 63/63/63
f 66/66/66 65/65/65 63/63/63
f 69/69/69 68/68/68 67/67/67
f 68/68/68 70/70/70 67/67/67
f 70/70/70 68/68/68 71/71/71
f 68/68/68 72/72/72 71/71/71
f 75/75/75 74/74/74 73/73/73
f 76/76/76 75/75/75 73/73/73
f 79/79/79 78/78/78 77/77/77
f 80/80/80 79/79/79 77/77/77
f 83/83/83 82/82/82 81/81/81
f 84/84/84 83/83/83 81/81/81
f 87/87/87 86/86/86 85/85/85
f 88/88/88 87/87/87 85/85/85
f 91/91/91 90/90/90 89/89/89
f 90/90/90 92/92/92 89/89/89
f 92/92/92 90/90/90 93/93/93
f 90/90/90 94/94/94 93/93/93
f 97/97/97 96/96/96 95/95/95
f 98/98/98 97/97/97 95/95/95
f 101/101/101 100/100/100 99/99/99
f 102/102/102 101/101/101 99/99/99
f 105/105/105 104/104/104 103/103/103
f 106/106/106 105/105/105 103/103/103
f 109/109/109 108/108/108 107/107/107
f 110/110/110 109/109/109 107/107/107
f 113/113/113 112/112/112 111/111/111
f 112/112/112 114/114/114 111/111/111
f 114/114/114 112/112/112 115/115/115
f 112/112/112 116/116/116 115/115/115
f 119/119/119 118/118/118 117/117/117
f 120/120/120 119/119/119 117/117/117
f 123/123/123 122/122/122 121/121/121
f 124/124/124 123/123/123 121/121/121
f 127/127/127 126/126/126 125/125/125
f 128/128/128 127/127/127 125/125/125
f 131/131/131 130/130/130 129/129/129
f 132/132/132 131/131/131 129/129/129
f 135/135/135 134/134/134 133/133/133
f 134/134/134 136/136/136 133/133/133
f 136/136/136 134/134/134 137/137/137
f 134/134/134 138/138/138 137/137/137
f 141/141/141 140/140/140 139/139/139
f 142/142/142 141/141/141 139/139/139
f 145/145/145 144/144/144 143/143/143
f 146/146/146 145/145/145 143/143/143
f 149/149/149 148/148/148 147/147/147
f 150/150/150 149/149/149 147/147/147
f 153/153/153 152/152/152 151/151/151
f 154/154/154 153/153/153 151/151/151
f 157/157/157 156/156/156 155/155/155
f 156/156/156 158/158/158 155/155/155
f 158/158/158 156/156/156 159/159/159
f 156/156/156 160/160/160 159/159/159
f 163/163/163 162/162/162 161/161/161
f 164/164/164 163/163/163 161/161/161
f 167/167/167 166/166/166 165/165/165
f 168/168/168 167/167/167 165/165/165
f 171/171/171 170/170/170 169/169/169
f 172/172/172 171/171/171 169/169/169
f 175/175/175 174/174/174 173/173/173
f 176/176/176 175/175/175 173/173/173
f 179/179/179 178/178/178 177/177/177
f 178/178/178 180/180/180 177/177/177
f 180/180/180 178/178/178 181/181/181
f 178/178/178 182/182/182 181/181/181
f 185/185/185 184/184/184 183/183/183
f 186/186/186 185/185/185 183/183/183
f 189/189/189 188/188/188 187/187/187
f 190/190/190 189/189/189 187/187/187
f 193/193/193 192/192/192 191/191/191
f 194/194/194 193/193/193 191/191/191
f 197/197/197 196/196/196 195/195/195
f 198/198/198 197/197/197 195/195/195
f 201/201/201 200/200/200 199/199/199
f 200/200/200 202/202/202 199/199/199
f 202/202/202 200/200/200 203/203/203
f 200/200/200 204/204/204 203/203/203
f 207/207/207 206/206/206 205/205/205
f 208/208/208 207/207/207 205/205/205
f 211/211/211 210/210/210 209/209/209
f 212/212/212 211/211/211 209/209/209
f 215/215/215 214/214/214 213/213/213
f 216/216/216 215/215/215 213/213/213
f 219/219/219 218/218/218 217/217/217
f 220/220/220 219/219/219 217/217/217
f 223/223/223 222/222/222 221/221/221
f 222/222/222 224/224/224 221/221/221
f 224/224/224 222/222/222 225/225/225
f 222/222/222 226/226/226 225/225/225
f 229/229/229 228/228/228 227/227/227
f 230/230/230 229/229/229 227/227/227
f 233/233/233 232/232/232 231/231/231
f 234/234/234 233/233/233 231/231/231
f 237/237/237 236/236/236 235/235/235
f 238/238/238 237/237/237 235/235/235
f 241/241/241 240/240/240 239/239/239
f 242/242/242 241/241/241 239/239/239
f 245/245/245 244/244/244 243/243/243
f 244/244/244 246/246/246 243/243/243
f 246/246/246 244/244/244 247/247/247
f 244/244/244 248/248/248 247/247/247
f 251/251/251 250/250/250 249/249/249
f 252/252/252 251/251/251 249/249/249
f 255/255/255 254/254/254 253/253/253
f 256/256/256 255/255/255 253/253/253
f 259/259/259 258/258/258 257/257/257
f 260/260/260 259/259/259 257/257/257
f 263/263/263 262/262/262 261/261/261
f 264/264/264 263/263/263 261/261/261
