g Black_Plane_below_C_geo01
v -0 1.232118 -3.1622567
v -0 1.232118 -2.8247128
v -0 1.3086507 -2.8247128
v -0 1.3086507 -3.1622567
v -0 0.13432892 -3.3983896
v -0 1.1165724 -3.4106698
v -0 0.19210082 -3.4106698
v -0 1.1743447 -3.3983896
v -0 1.2166368 -3.3648543
v -0 0.09203643 -3.3648543
v -0 0.0765567 -3.3190463
v -0 1.232118 -3.3190463
v -0 0.0765567 0.49433503
v -0 1.232118 0.49433503
v -0 1.2166368 0.5401407
v -0 0.09203643 0.5401407
v -0 0.13432892 0.5736807
v -0 1.1743447 0.5736807
v -0 1.1165724 0.585961
v -0 0.19210082 0.585961
v -0 0 -3.1622567
v -0 0 -2.8247128
v -0 0.0765567 -2.8247128
v -0 0.0765567 -3.1622567
v -0 1.232118 0.3375479
v -0 1.3086507 0.3375479
v -0 1.3086507 -9.033203E-07
v -0 1.232118 -9.033203E-07
v -0 0 0.3375479
v -0 0.0765567 0.3375479
v -0 0.0765567 -9.033203E-07
v -0 0 -9.033203E-07
vt 0.72265625 0.81933594
vt 0.72265625 0.81933594
vt 0.72265625 0.81933594
vt 0.72265625 0.81933594
vt 0.72265625 0.81933594
vt 0.72265625 0.81933594
vt 0.72265625 0.81933594
vt 0.72265625 0.81933594
vt 0.72265625 0.81933594
vt 0.72265625 0.81933594
vt 0.72265625 0.81933594
vt 0.72265625 0.81933594
vt 0.72265625 0.81933594
vt 0.72265625 0.81933594
vt 0.72265625 0.81933594
vt 0.72265625 0.81933594
vt 0.72265625 0.81933594
vt 0.72265625 0.81933594
vt 0.72265625 0.81933594
vt 0.72265625 0.81933594
vt 0.72265625 0.81933594
vt 0.72265625 0.81933594
vt 0.72265625 0.81933594
vt 0.72265625 0.81933594
vt 0.72265625 0.81933594
vt 0.72265625 0.81933594
vt 0.72265625 0.81933594
vt 0.72265625 0.81933594
vt 0.72265625 0.81933594
vt 0.72265625 0.81933594
vt 0.72265625 0.81933594
vt 0.72265625 0.81933594
vn 1 0 0
vn 1 0 0
vn 1 0 0
vn 1 0 0
vn 1 0 0
vn 1 0 0
vn 1 0 0
vn 1 8.34465E-07 0
vn 1 3.4570694E-06 0
vn 1 0 0
vn 1 0 0
vn 1 0 0
vn 1 0 0
vn 1 0 0
vn 1 3.4570694E-06 0
vn 1 0 0
vn 1 0 0
vn 1 8.34465E-07 0
vn 1 0 0
vn 1 0 0
vn 1 0 0
vn 1 0 0
vn 1 0 0
vn 1 0 0
vn 1 0 0
vn 1 0 0
vn 1 0 0
vn 1 0 0
vn 1 0 0
vn 1 0 0
vn 1 0 0
vn 1 0 0
g Black_Plane_below_C_geo01_0
f 3/3/3 2/2/2 1/1/1
f 4/4/4 3/3/3 1/1/1
f 7/7/7 6/6/6 5/5/5
f 6/6/6 8/8/8 5/5/5
f 5/5/5 8/8/8 9/9/9
f 10/10/10 5/5/5 9/9/9
f 11/11/11 10/10/10 9/9/9
f 12/12/12 11/11/11 9/9/9
f 13/13/13 11/11/11 12/12/12
f 14/14/14 13/13/13 12/12/12
f 13/13/13 14/14/14 15/15/15
f 16/16/16 13/13/13 15/15/15
f 17/17/17 16/16/16 15/15/15
f 18/18/18 17/17/17 15/15/15
f 18/18/18 19/19/19 17/17/17
f 19/19/19 20/20/20 17/17/17
f 23/23/23 22/22/22 21/21/21
f 24/24/24 23/23/23 21/21/21
f 27/27/27 26/26/26 25/25/25
f 28/28/28 27/27/27 25/25/25
f 31/31/31 30/30/30 29/29/29
f 32/32/32 31/31/31 29/29/29
