g Black_Plane_below_C_geo03
v -0 0.5777927 -1.7499005
v -0 0.5777927 -1.4123516
v -0 0.6543255 -1.4123516
v -0 0.6543255 -1.7499005
v -0 -0.51999646 -1.9860333
v -0 0.46224704 -1.9983087
v -0 -0.46222454 -1.9983087
v -0 0.52001923 -1.9860333
v -0 0.5623114 -1.9524981
v -0 -0.56228894 -1.9524981
v -0 -0.5777687 -1.9066827
v -0 0.5777927 -1.9066827
v -0 -0.5777687 1.9066912
v -0 0.5777927 1.9066912
v -0 0.5623114 1.9525018
v -0 -0.56228894 1.9525018
v -0 -0.51999646 1.9860369
v -0 0.52001923 1.9860369
v -0 0.46224704 1.9983172
v -0 -0.46222454 1.9983172
v -0 -0.6543253 -1.7499005
v -0 -0.6543253 -1.4123516
v -0 -0.5777687 -1.4123516
v -0 -0.5777687 -1.7499005
v -0 0.5777927 1.749909
v -0 0.6543255 1.749909
v -0 0.6543255 1.4123553
v -0 0.5777927 1.4123553
v -0 -0.6543253 1.749909
v -0 -0.5777687 1.749909
v -0 -0.5777687 1.4123553
v -0 -0.6543253 1.4123553
vt 0.72265625 0.81933594
vt 0.72265625 0.81933594
vt 0.72265625 0.81933594
vt 0.72265625 0.81933594
vt 0.72265625 0.81933594
vt 0.72265625 0.81933594
vt 0.72265625 0.81933594
vt 0.72265625 0.81933594
vt 0.72265625 0.81933594
vt 0.72265625 0.81933594
vt 0.72265625 0.81933594
vt 0.72265625 0.81933594
vt 0.72265625 0.81933594
vt 0.72265625 0.81933594
vt 0.72265625 0.81933594
vt 0.72265625 0.81933594
vt 0.72265625 0.81933594
vt 0.72265625 0.81933594
vt 0.72265625 0.81933594
vt 0.72265625 0.81933594
vt 0.72265625 0.81933594
vt 0.72265625 0.81933594
vt 0.72265625 0.81933594
vt 0.72265625 0.81933594
vt 0.72265625 0.81933594
vt 0.72265625 0.81933594
vt 0.72265625 0.81933594
vt 0.72265625 0.81933594
vt 0.72265625 0.81933594
vt 0.72265625 0.81933594
vt 0.72265625 0.81933594
vt 0.72265625 0.81933594
vn 1 0 0
vn 1 0 0
vn 1 0 0
vn 1 0 0
vn 1 0 0
vn 1 0 0
vn 1 0 0
vn 1 8.34465E-07 0
vn 1 3.4570694E-06 0
vn 1 0 0
vn 1 0 0
vn 1 0 0
vn 1 0 0
vn 1 0 0
vn 1 3.4570694E-06 0
vn 1 0 0
vn 1 0 0
vn 1 8.34465E-07 0
vn 1 0 0
vn 1 0 0
vn 1 0 0
vn 1 0 0
vn 1 0 0
vn 1 0 0
vn 1 0 0
vn 1 0 0
vn 1 0 0
vn 1 0 0
vn 1 0 0
vn 1 0 0
vn 1 0 0
vn 1 0 0
g Black_Plane_below_C_geo03_0
f 3/3/3 2/2/2 1/1/1
f 4/4/4 3/3/3 1/1/1
f 7/7/7 6/6/6 5/5/5
f 6/6/6 8/8/8 5/5/5
f 5/5/5 8/8/8 9/9/9
f 10/10/10 5/5/5 9/9/9
f 11/11/11 10/10/10 9/9/9
f 12/12/12 11/11/11 9/9/9
f 13/13/13 11/11/11 12/12/12
f 14/14/14 13/13/13 12/12/12
f 13/13/13 14/14/14 15/15/15
f 16/16/16 13/13/13 15/15/15
f 17/17/17 16/16/16 15/15/15
f 18/18/18 17/17/17 15/15/15
f 18/18/18 19/19/19 17/17/17
f 19/19/19 20/20/20 17/17/17
f 23/23/23 22/22/22 21/21/21
f 24/24/24 23/23/23 21/21/21
f 27/27/27 26/26/26 25/25/25
f 28/28/28 27/27/27 25/25/25
f 31/31/31 30/30/30 29/29/29
f 32/32/32 31/31/31 29/29/29
