g Black_Plane_B_TL_geo02
v -1.9688759E-08 -1.968876E-08 0.20767468
v -1.9688759E-08 -0.05129091 0.32651377
v -1.9688759E-08 -1.968876E-08 0.32651377
v -1.9688759E-08 -0.05129091 0.20767468
v -1.9688759E-08 -0.05129091 1.3044888E-07
v -1.9688759E-08 -1.968876E-08 1.3044888E-07
v -1.9688759E-08 -0.12303224 0.1605885
v -1.9688759E-08 -0.12303224 0.20767468
v -1.9688759E-08 -0.05129091 -0.20767564
v -1.9688759E-08 -1.968876E-08 -0.20767564
v -1.9688759E-08 -0.05129091 -0.32651356
v -1.9688759E-08 -1.968876E-08 -0.32651356
v -1.9688759E-08 -0.12303224 0.029116342
v -1.9688759E-08 -3.7357054 0.1605885
v -1.9688759E-08 -3.7357054 0.029116342
v -1.9688759E-08 -0.12303224 1.3044888E-07
v -1.9688759E-08 -0.12303224 -0.02911486
v -1.9688759E-08 -0.12303224 -0.16058946
v -1.9688759E-08 -0.12303224 -0.20767564
v -1.9688759E-08 -3.7357054 -0.02911486
v -1.9688759E-08 -3.7357054 -0.16058946
vt 0.33251953 0.59765625
vt 0.3227539 0.59765625
vt 0.3227539 0.59765625
vt 0.33251953 0.59765625
vt 0.3491211 0.59765625
vt 0.3491211 0.59765625
vt 0.33618164 0.59716797
vt 0.33251953 0.59716797
vt 0.3659668 0.59765625
vt 0.3659668 0.59765625
vt 0.37548828 0.59765625
vt 0.37548828 0.59765625
vt 0.34350586 0.59716797
vt 0.33618164 0.5419922
vt 0.34350586 0.5419922
vt 0.3491211 0.59716797
vt 0.35498047 0.59716797
vt 0.36206055 0.59716797
vt 0.3659668 0.59716797
vt 0.35498047 0.5419922
vt 0.36206055 0.5419922
vn 1 0 0
vn 1 0 0
vn 1 0 0
vn 1 1.9073486E-06 0
vn 1 2.2053719E-06 0
vn 1 0 0
vn 1 6.020069E-06 0
vn 1 0 0
vn 1 1.9073486E-06 0
vn 1 0 0
vn 1 0 0
vn 1 0 0
vn 1 5.9604645E-06 0
vn 1 0 0
vn 1 0 0
vn 1 0 0
vn 1 5.9604645E-06 0
vn 1 6.020069E-06 0
vn 1 0 0
vn 1 0 0
vn 1 0 0
g Black_Plane_B_TL_geo02_0
f 3/3/3 2/2/2 1/1/1
f 2/2/2 4/4/4 1/1/1
f 4/4/4 5/5/5 1/1/1
f 5/5/5 6/6/6 1/1/1
f 4/4/4 7/7/7 5/5/5
f 8/8/8 7/7/7 4/4/4
f 5/5/5 9/9/9 6/6/6
f 9/9/9 10/10/10 6/6/6
f 9/9/9 11/11/11 10/10/10
f 11/11/11 12/12/12 10/10/10
f 7/7/7 13/13/13 5/5/5
f 7/7/7 14/14/14 13/13/13
f 14/14/14 15/15/15 13/13/13
f 16/16/16 5/5/5 13/13/13
f 17/17/17 5/5/5 16/16/16
f 9/9/9 5/5/5 18/18/18
f 5/5/5 17/17/17 18/18/18
f 18/18/18 19/19/19 9/9/9
f 17/17/17 20/20/20 18/18/18
f 20/20/20 21/21/21 18/18/18
