g boardWH_geo39
v -0.68131316 4.6385245 0.0764813
v -0.68131316 4.6385245 -0.076482564
v 0.6813113 4.6385245 -0.076482564
v 0.6813113 4.6385245 0.0764813
v -0.68131316 4.6385245 -0.076482564
v -0.68131316 -2.799566 -0.076482564
v 0.6813113 -2.799566 -0.076482564
v 0.6813113 4.6385245 -0.076482564
v -0.68131316 -2.799566 -0.076482564
v -0.68131316 -2.799566 0.0764813
v 0.6813113 -2.799566 0.0764813
v 0.6813113 -2.799566 -0.076482564
v 0.6813113 -2.799566 0.0764813
v 0.6813113 4.6385245 0.0764813
v 0.6813113 4.6385245 -0.076482564
v 0.6813113 -2.799566 -0.076482564
v -0.68131316 -2.799566 -0.076482564
v -0.68131316 4.6385245 -0.076482564
v -0.68131316 4.6385245 0.0764813
v -0.68131316 -2.799566 0.0764813
vt 0.76953125 0.6503906
vt 0.76660156 0.6479492
vt 0.7290039 0.64746094
vt 0.72558594 0.6503906
vt 0.8046875 0.45043945
vt 0.8046875 0.049468994
vt 0.6953125 0.049468994
vt 0.6953125 0.45043945
vt 0.7661133 0.5126953
vt 0.76953125 0.5102539
vt 0.72558594 0.5097656
vt 0.7290039 0.51220703
vt 0.72558594 0.5097656
vt 0.72558594 0.6503906
vt 0.7290039 0.64746094
vt 0.7290039 0.51220703
vt 0.7661133 0.5126953
vt 0.76660156 0.6479492
vt 0.76953125 0.6503906
vt 0.76953125 0.5102539
vn -0 1 0
vn -0 1 0
vn -0 1 0
vn -0 1 0
vn -0 0 -1
vn -0 0 -1
vn -0 0 -1
vn -0 0 -1
vn -0 -1 0
vn -0 -1 0
vn -0 -1 0
vn -0 -1 0
vn 1 0 0
vn 1 0 0
vn 1 0 0
vn 1 0 0
vn -1 0 0
vn -1 0 0
vn -1 0 0
vn -1 0 0
g boardWH_geo39_0
f 3/3/3 2/2/2 1/1/1
f 4/4/4 3/3/3 1/1/1
f 7/7/7 6/6/6 5/5/5
f 8/8/8 7/7/7 5/5/5
f 11/11/11 10/10/10 9/9/9
f 12/12/12 11/11/11 9/9/9
f 15/15/15 14/14/14 13/13/13
f 16/16/16 15/15/15 13/13/13
f 19/19/19 18/18/18 17/17/17
f 20/20/20 19/19/19 17/17/17
