g boardBK_geo62
v -0.6777631 3.855872 0.060983762
v -0.6777631 3.855872 -0.06098645
v 0.6777636 3.855872 -0.06098645
v 0.6777636 3.855872 0.060983762
v -0.6777631 3.855872 -0.06098645
v -0.6777631 -3.8558736 -0.06098645
v 0.6777636 -3.8558736 -0.06098645
v 0.6777636 3.855872 -0.06098645
v -0.6777631 -3.8558736 -0.06098645
v -0.6777631 -3.8558736 0.060983762
v 0.6777636 -3.8558736 0.060983762
v 0.6777636 -3.8558736 -0.06098645
v 0.6777636 -3.8558736 0.060983762
v 0.6777636 3.855872 0.060983762
v 0.6777636 3.855872 -0.06098645
v 0.6777636 -3.8558736 -0.06098645
v -0.6777631 -3.8558736 -0.06098645
v -0.6777631 3.855872 -0.06098645
v -0.6777631 3.855872 0.060983762
v -0.6777631 -3.8558736 0.060983762
vt 0.25878906 0.46411133
vt 0.25878906 0.4519043
vt 0.14990234 0.4519043
vt 0.14990234 0.46435547
vt 0.25878906 0.4519043
vt 0.25878906 0.05392456
vt 0.14990234 0.05392456
vt 0.14990234 0.4519043
vt 0.25878906 0.05392456
vt 0.25878906 0.04156494
vt 0.14990234 0.04156494
vt 0.14990234 0.05392456
vt 0.13745117 0.05392456
vt 0.13757324 0.4519043
vt 0.14990234 0.4519043
vt 0.14990234 0.05392456
vt 0.25878906 0.05392456
vt 0.25878906 0.4519043
vt 0.2709961 0.4519043
vt 0.2709961 0.05392456
vn -0 1 0
vn -0 1 0
vn -0 1 0
vn -0 1 0
vn -0 0 -1
vn -0 0 -1
vn -0 0 -1
vn -0 0 -1
vn -0 -1 0
vn -0 -1 0
vn -0 -1 0
vn -0 -1 0
vn 1 0 0
vn 1 0 0
vn 1 0 0
vn 1 0 0
vn -1 0 0
vn -1 0 0
vn -1 0 0
vn -1 0 0
g boardBK_geo62_0
f 3/3/3 2/2/2 1/1/1
f 4/4/4 3/3/3 1/1/1
f 7/7/7 6/6/6 5/5/5
f 8/8/8 7/7/7 5/5/5
f 11/11/11 10/10/10 9/9/9
f 12/12/12 11/11/11 9/9/9
f 15/15/15 14/14/14 13/13/13
f 16/16/16 15/15/15 13/13/13
f 19/19/19 18/18/18 17/17/17
f 20/20/20 19/19/19 17/17/17
