g boardBK_geo07
v -0.67292106 5.3572416 0.07648203
v -0.67292106 5.3572416 -0.076481834
v 0.67292154 5.3572416 -0.076481834
v 0.67292154 5.3572416 0.07648203
v -0.67292106 5.3572416 -0.076481834
v -0.67292106 -5.3572454 -0.076481834
v 0.67292154 -5.3572454 -0.076481834
v 0.67292154 5.3572416 -0.076481834
v -0.67292106 -5.3572454 -0.076481834
v -0.67292106 -5.3572454 0.07648203
v 0.67292154 -5.3572454 0.07648203
v 0.67292154 -5.3572454 -0.076481834
v 0.67292154 -5.3572454 0.07648203
v 0.67292154 5.3572416 0.07648203
v 0.67292154 5.3572416 -0.076481834
v 0.67292154 -5.3572454 -0.076481834
v -0.67292106 -5.3572454 -0.076481834
v -0.67292106 5.3572416 -0.076481834
v -0.67292106 5.3572416 0.07648203
v -0.67292106 -5.3572454 0.07648203
vt 0.30493164 0.46289062
vt 0.30493164 0.45043945
vt 0.19519043 0.45043945
vt 0.19519043 0.46289062
vt 0.30493164 0.45043945
vt 0.30493164 0.049468994
vt 0.19519043 0.049468994
vt 0.19519043 0.45043945
vt 0.30493164 0.049468994
vt 0.30493164 0.037017822
vt 0.19519043 0.037017822
vt 0.19519043 0.049468994
vt 0.18273926 0.049468994
vt 0.18273926 0.45043945
vt 0.19519043 0.45043945
vt 0.19519043 0.049468994
vt 0.30493164 0.049468994
vt 0.30493164 0.45043945
vt 0.3173828 0.45043945
vt 0.3173828 0.049468994
vn -0 1 0
vn -0 1 0
vn -0 1 0
vn -0 1 0
vn -0 0 -1
vn -0 0 -1
vn -0 0 -1
vn -0 0 -1
vn -0 -1 0
vn -0 -1 0
vn -0 -1 0
vn -0 -1 0
vn 1 0 0
vn 1 0 0
vn 1 0 0
vn 1 0 0
vn -1 0 0
vn -1 0 0
vn -1 0 0
vn -1 0 0
g boardBK_geo07_0
f 3/3/3 2/2/2 1/1/1
f 4/4/4 3/3/3 1/1/1
f 7/7/7 6/6/6 5/5/5
f 8/8/8 7/7/7 5/5/5
f 11/11/11 10/10/10 9/9/9
f 12/12/12 11/11/11 9/9/9
f 15/15/15 14/14/14 13/13/13
f 16/16/16 15/15/15 13/13/13
f 19/19/19 18/18/18 17/17/17
f 20/20/20 19/19/19 17/17/17
