g boardBK_spec_geo03
v -0.6729212 2.3856213 0.07648114
v -0.6729212 2.3856213 -0.07648272
v 0.67292166 2.3856213 -0.07648272
v 0.67292166 2.3856213 0.07648114
v -0.6729212 2.3856213 -0.07648272
v -0.6729212 -2.3856237 -0.07648272
v 0.67292166 -2.3856237 -0.07648272
v 0.67292166 2.3856213 -0.07648272
v -0.6729212 -2.3856237 -0.07648272
v -0.6729212 -2.3856237 0.07648114
v 0.67292166 -2.3856237 0.07648114
v 0.67292166 -2.3856237 -0.07648272
v 0.67292166 -2.3856237 0.07648114
v 0.67292166 2.3856213 0.07648114
v 0.67292166 2.3856213 -0.07648272
v 0.67292166 -2.3856237 -0.07648272
v -0.6729212 -2.3856237 -0.07648272
v -0.6729212 2.3856213 -0.07648272
v -0.6729212 2.3856213 0.07648114
v -0.6729212 -2.3856237 0.07648114
vt 0.28857422 0.12023926
vt 0.29003906 0.12023926
vt 0.29003906 0.10620117
vt 0.28857422 0.10620117
vt 0.24194336 0.54345703
vt 0.24194336 -0.1574707
vt 0.0847168 -0.1574707
vt 0.08477783 0.54345703
vt 0.29003906 0.16992188
vt 0.28857422 0.16992188
vt 0.28857422 0.18395996
vt 0.29003906 0.18395996
vt 0.28857422 0.18395996
vt 0.28857422 0.23364258
vt 0.29003906 0.23364258
vt 0.29003906 0.18395996
vt 0.29003906 0.16992188
vt 0.29003906 0.12023926
vt 0.28857422 0.12023926
vt 0.28857422 0.16992188
vn -0 1 0
vn -0 1 0
vn -0 1 0
vn -0 1 0
vn -0 0 -1
vn -0 0 -1
vn -0 0 -1
vn -0 0 -1
vn -0 -1 0
vn -0 -1 0
vn -0 -1 0
vn -0 -1 0
vn 1 0 0
vn 1 0 0
vn 1 0 0
vn 1 0 0
vn -1 0 0
vn -1 0 0
vn -1 0 0
vn -1 0 0
g boardBK_spec_geo03_0
f 3/3/3 2/2/2 1/1/1
f 4/4/4 3/3/3 1/1/1
f 7/7/7 6/6/6 5/5/5
f 8/8/8 7/7/7 5/5/5
f 11/11/11 10/10/10 9/9/9
f 12/12/12 11/11/11 9/9/9
f 15/15/15 14/14/14 13/13/13
f 16/16/16 15/15/15 13/13/13
f 19/19/19 18/18/18 17/17/17
f 20/20/20 19/19/19 17/17/17
