g boardBK_geo63
v -0.7026898 3.8558722 0.060985107
v -0.7026898 3.8558722 -0.060985107
v 0.7026898 3.8558722 -0.060985107
v 0.7026898 3.8558722 0.060985107
v -0.7026898 3.8558722 -0.060985107
v -0.7026898 -3.8558722 -0.060985107
v 0.7026898 -3.8558722 -0.060985107
v 0.7026898 3.8558722 -0.060985107
v -0.7026898 -3.8558722 -0.060985107
v -0.7026898 -3.8558722 0.060985107
v 0.7026898 -3.8558722 0.060985107
v 0.7026898 -3.8558722 -0.060985107
v 0.7026898 -3.8558722 0.060985107
v 0.7026898 3.8558722 0.060985107
v 0.7026898 3.8558722 -0.060985107
v 0.7026898 -3.8558722 -0.060985107
v -0.7026898 -3.8558722 -0.060985107
v -0.7026898 3.8558722 -0.060985107
v -0.7026898 3.8558722 0.060985107
v -0.7026898 -3.8558722 0.060985107
vt 0.28076172 0.44140625
vt 0.28076172 0.43139648
vt 0.19213867 0.43139648
vt 0.19213867 0.44140625
vt 0.28076172 0.43139648
vt 0.28076172 0.10656738
vt 0.1920166 0.10656738
vt 0.19213867 0.43139648
vt 0.28076172 0.10656738
vt 0.28076172 0.09649658
vt 0.1920166 0.09649658
vt 0.1920166 0.10656738
vt 0.18200684 0.10656738
vt 0.18200684 0.43139648
vt 0.19213867 0.43139648
vt 0.1920166 0.10656738
vt 0.28076172 0.10656738
vt 0.28076172 0.43139648
vt 0.29101562 0.43139648
vt 0.29101562 0.10656738
vn -0 1 0
vn -0 1 0
vn -0 1 0
vn -0 1 0
vn -0 0 -1
vn -0 0 -1
vn -0 0 -1
vn -0 0 -1
vn -0 -1 0
vn -0 -1 0
vn -0 -1 0
vn -0 -1 0
vn 1 0 0
vn 1 0 0
vn 1 0 0
vn 1 0 0
vn -1 0 0
vn -1 0 0
vn -1 0 0
vn -1 0 0
g boardBK_geo63_0
f 3/3/3 2/2/2 1/1/1
f 4/4/4 3/3/3 1/1/1
f 7/7/7 6/6/6 5/5/5
f 8/8/8 7/7/7 5/5/5
f 11/11/11 10/10/10 9/9/9
f 12/12/12 11/11/11 9/9/9
f 15/15/15 14/14/14 13/13/13
f 16/16/16 15/15/15 13/13/13
f 19/19/19 18/18/18 17/17/17
f 20/20/20 19/19/19 17/17/17
