g boardBK_geo61
v -0.67776334 3.855872 0.060983762
v -0.67776334 3.855872 -0.06098645
v 0.67776394 3.855872 -0.06098645
v 0.67776394 3.855872 0.060983762
v -0.67776334 3.855872 -0.06098645
v -0.67776334 -3.8558736 -0.06098645
v 0.67776394 -3.8558736 -0.06098645
v 0.67776394 3.855872 -0.06098645
v -0.67776334 -3.8558736 -0.06098645
v -0.67776334 -3.8558736 0.060983762
v 0.67776394 -3.8558736 0.060983762
v 0.67776394 -3.8558736 -0.06098645
v 0.67776394 -3.8558736 0.060983762
v 0.67776394 3.855872 0.060983762
v 0.67776394 3.855872 -0.06098645
v 0.67776394 -3.8558736 -0.06098645
v -0.67776334 -3.8558736 -0.06098645
v -0.67776334 3.855872 -0.06098645
v -0.67776334 3.855872 0.060983762
v -0.67776334 -3.8558736 0.060983762
vt 0.28027344 0.47802734
vt 0.28027344 0.46484375
vt 0.16345215 0.46484375
vt 0.16345215 0.47802734
vt 0.28027344 0.46484375
vt 0.28027344 0.037963867
vt 0.16345215 0.037963867
vt 0.16345215 0.46484375
vt 0.28027344 0.037963867
vt 0.28027344 0.02470398
vt 0.16345215 0.024719238
vt 0.16345215 0.037963867
vt 0.15014648 0.037994385
vt 0.15026855 0.46484375
vt 0.16345215 0.46484375
vt 0.16345215 0.037963867
vt 0.28027344 0.037963867
vt 0.28027344 0.46484375
vt 0.29345703 0.46484375
vt 0.29345703 0.037963867
vn -0 1 0
vn -0 1 0
vn -0 1 0
vn -0 1 0
vn -0 0 -1
vn -0 0 -1
vn -0 0 -1
vn -0 0 -1
vn -0 -1 0
vn -0 -1 0
vn -0 -1 0
vn -0 -1 0
vn 1 0 0
vn 1 0 0
vn 1 0 0
vn 1 0 0
vn -1 0 0
vn -1 0 0
vn -1 0 0
vn -1 0 0
g boardBK_geo61_0
f 3/3/3 2/2/2 1/1/1
f 4/4/4 3/3/3 1/1/1
f 7/7/7 6/6/6 5/5/5
f 8/8/8 7/7/7 5/5/5
f 11/11/11 10/10/10 9/9/9
f 12/12/12 11/11/11 9/9/9
f 15/15/15 14/14/14 13/13/13
f 16/16/16 15/15/15 13/13/13
f 19/19/19 18/18/18 17/17/17
f 20/20/20 19/19/19 17/17/17
