g butterflySignA_geo
v 0.0066914135 -1.153668E-08 0.0042814715
v 0.0110817915 0.91152614 1.0575365E-07
v 0.011664839 2.6897922E-09 5.2546163E-08
v 0.006691559 0.911528 0.00428119
v -0.003401082 8.529949E-09 0.004281205
v 0.01581309 1.0737243 1.33951765E-08
v -0.0034012077 0.911528 0.0042811856
v -0.013493761 0.91152793 0.004281401
v -0.01349385 4.9757387E-10 0.0042812005
v -0.009328688 1.0713438 0.0042812224
v 0.0019576198 1.0697337 0.0042813914
v 0.013730945 1.0713438 0.004281195
v 0.0019574473 1.1009766 0.0042812354
v -0.012362833 1.1009766 0.004281415
v 0.015872106 1.1009766 0.0042813495
v 0.017978905 1.103194 -2.0069167E-07
v 0.011086566 1.1101183 -7.377783E-08
v 0.0019575765 1.1084398 0.0042810724
v 0.010112675 1.107631 0.0042810664
v 0.0019577118 1.1145833 -7.342249E-08
v -0.0057101976 1.107631 0.0042812577
v -0.0066840593 1.1101183 -1.558632E-08
v -0.014469782 1.103194 6.992216E-08
v 0.006691539 -3.7234649E-09 -0.0042812014
v 0.011664839 2.6897922E-09 5.2546163E-08
v 0.0110817915 0.91152614 1.0575365E-07
v 0.0066914153 0.911528 -0.0042812186
v -0.0034012285 -1.1755841E-08 -0.0042812056
v 0.013730799 1.0713438 -0.0042812154
v 0.01581309 1.0737243 1.33951765E-08
v 0.015872233 1.1009766 -0.0042813215
v 0.017978905 1.103194 -2.0069167E-07
v 0.011086566 1.1101183 -7.377783E-08
v -0.0034013519 0.911528 -0.004281223
v -0.013493638 0.91152793 -0.0042812736
v -0.013493723 8.3107885E-09 -0.004281472
v 0.0019577476 1.0697337 -0.00428128
v -0.009328565 1.0713438 -0.0042814524
v -0.012362706 1.1009766 -0.004281256
v 0.001957571 1.1009766 -0.0042814394
v 0.0019576454 1.1084398 -0.004281117
v -0.0057103434 1.107631 -0.004281153
v 0.0019577118 1.1145833 -7.342249E-08
v 0.010112529 1.107631 -0.004281344
v -0.01349385 4.9757387E-10 0.0042812005
v -0.017597575 1.0146806E-08 9.832375E-08
v -0.01726107 0.91152585 6.951672E-08
v -0.013493761 0.91152793 0.004281401
v -0.011410782 1.0737243 7.0907284E-08
v -0.009328688 1.0713438 0.0042812224
v -0.012362833 1.1009766 0.004281415
v -0.014469782 1.103194 6.992216E-08
v -0.013493723 8.3107885E-09 -0.004281472
v -0.01726107 0.91152585 6.951672E-08
v -0.017597575 1.0146806E-08 9.832375E-08
v -0.013493638 0.91152793 -0.0042812736
v -0.011410782 1.0737243 7.0907284E-08
v -0.009328565 1.0713438 -0.0042814524
v -0.012362706 1.1009766 -0.004281256
v -0.014469782 1.103194 6.992216E-08
v -0.0066840593 1.1101183 -1.558632E-08
v -0.0057103434 1.107631 -0.004281153
v 0.0019577118 1.1145833 -7.342249E-08
vt 0.064331055 0.33813477
vt 0.06286621 0.08062744
vt 0.062683105 0.33813477
vt 0.064331055 0.08062744
vt 0.06768799 0.33813477
vt 0.061309814 0.01914978
vt 0.06768799 0.08062744
vt 0.07104492 0.08062744
vt 0.07104492 0.33813477
vt 0.06970215 0.019943237
vt 0.06591797 0.020477295
vt 0.06201172 0.019943237
vt 0.06591797 0.010093689
vt 0.07067871 0.010093689
vt 0.061309814 0.010093689
vt 0.06060791 0.009353638
vt 0.06286621 0.0070495605
vt 0.06591797 0.007610321
vt 0.06323242 0.007881165
vt 0.06591797 0.0055656433
vt 0.068481445 0.007881165
vt 0.06878662 0.0070495605
vt 0.07141113 0.009353638
vt 0.064331055 0.33813477
vt 0.062683105 0.33813477
vt 0.06286621 0.08062744
vt 0.064331055 0.08062744
vt 0.06768799 0.33813477
vt 0.06201172 0.019943237
vt 0.061309814 0.01914978
vt 0.061309814 0.010093689
vt 0.06060791 0.009353638
vt 0.06286621 0.0070495605
vt 0.06768799 0.08062744
vt 0.07104492 0.08062744
vt 0.07104492 0.33813477
vt 0.06591797 0.020477295
vt 0.06970215 0.019943237
vt 0.07067871 0.010093689
vt 0.06591797 0.010093689
vt 0.06591797 0.007610321
vt 0.068481445 0.007881165
vt 0.06591797 0.0055656433
vt 0.06323242 0.007881165
vt 0.07104492 0.33813477
vt 0.07244873 0.33813477
vt 0.07232666 0.08062744
vt 0.07104492 0.08062744
vt 0.070373535 0.01914978
vt 0.06970215 0.019943237
vt 0.07067871 0.010093689
vt 0.07141113 0.009353638
vt 0.07104492 0.33813477
vt 0.07232666 0.08062744
vt 0.07244873 0.33813477
vt 0.07104492 0.08062744
vt 0.070373535 0.01914978
vt 0.06970215 0.019943237
vt 0.07067871 0.010093689
vt 0.07141113 0.009353638
vt 0.06878662 0.0070495605
vt 0.068481445 0.007881165
vt 0.06591797 0.0055656433
vn 0.2783203 8.9108944E-05 0.9604492
vn 1 -0.0052757263 -3.2782555E-06
vn 1 0.00031995773 -6.556511E-07
vn 0.27905273 -0.0014295578 0.9604492
vn -1.4901161E-06 0 1
vn 0.99902344 -0.045837402 -1.3768673E-05
vn -3.5762787E-07 0 1
vn -0.29418945 0.0014324188 0.9555664
vn -0.2919922 5.3822994E-05 0.95654297
vn -0.34155273 0.006587982 0.9399414
vn 5.00679E-06 -5.364418E-07 1
vn 0.3449707 -0.013710022 0.93847656
vn 2.503395E-06 3.4570694E-06 1
vn -0.36108398 0.025344849 0.9321289
vn 0.35083008 0.025863647 0.93603516
vn 0.9848633 0.17382812 1.4901161E-06
vn 0.5131836 0.85839844 4.529953E-06
vn -0.00015294552 0.3227539 0.94628906
vn 0.22290039 0.3479004 0.91064453
vn 0.0022850037 1 -5.9604645E-06
vn -0.21691895 0.35009766 0.9111328
vn -0.5073242 0.8618164 -5.066395E-06
vn -0.98339844 0.1809082 -7.5101852E-06
vn 0.2783203 8.904934E-05 -0.9604492
vn 1 0.00031995773 -6.556511E-07
vn 1 -0.0052757263 -3.2782555E-06
vn 0.27905273 -0.0014295578 -0.9604492
vn 8.046627E-06 0 -1
vn 0.3449707 -0.013710022 -0.93847656
vn 0.99902344 -0.045837402 -1.3768673E-05
vn 0.35083008 0.025848389 -0.93603516
vn 0.9848633 0.17382812 1.4901161E-06
vn 0.5131836 0.85839844 4.529953E-06
vn 7.867813E-06 0 -1
vn -0.29418945 0.0014324188 -0.9555664
vn -0.2919922 5.4001808E-05 -0.95654297
vn 6.1392784E-06 -8.940697E-07 -1
vn -0.34155273 0.0065841675 -0.9399414
vn -0.36108398 0.025344849 -0.9321289
vn 1.9073486E-06 2.682209E-06 -1
vn -0.0001616478 0.3227539 -0.94628906
vn -0.21691895 0.35009766 -0.9111328
vn 0.0022850037 1 -5.9604645E-06
vn 0.22290039 0.3479004 -0.91064453
vn -0.2919922 5.3822994E-05 0.95654297
vn -1 0.00018465519 -1.41859055E-05
vn -1 0.004764557 -1.4603138E-05
vn -0.29418945 0.0014324188 0.9555664
vn -1 -0.0029087067 -2.0980835E-05
vn -0.34155273 0.006587982 0.9399414
vn -0.36108398 0.025344849 0.9321289
vn -0.98339844 0.1809082 -7.5101852E-06
vn -0.2919922 5.4001808E-05 -0.95654297
vn -1 0.004764557 -1.4603138E-05
vn -1 0.00018465519 -1.41859055E-05
vn -0.29418945 0.0014324188 -0.9555664
vn -1 -0.0029087067 -2.0980835E-05
vn -0.34155273 0.0065841675 -0.9399414
vn -0.36108398 0.025344849 -0.9321289
vn -0.98339844 0.1809082 -7.5101852E-06
vn -0.5073242 0.8618164 -5.066395E-06
vn -0.21691895 0.35009766 -0.9111328
vn 0.0022850037 1 -5.9604645E-06
g butterflySignA_geo_0
f 3/3/3 2/2/2 1/1/1
f 2/2/2 4/4/4 1/1/1
f 1/1/1 4/4/4 5/5/5
f 2/2/2 6/6/6 4/4/4
f 4/4/4 7/7/7 5/5/5
f 7/7/7 8/8/8 5/5/5
f 8/8/8 9/9/9 5/5/5
f 8/8/8 7/7/7 10/10/10
f 11/11/11 7/7/7 4/4/4
f 7/7/7 11/11/11 10/10/10
f 6/6/6 12/12/12 4/4/4
f 12/12/12 11/11/11 4/4/4
f 10/10/10 11/11/11 13/13/13
f 11/11/11 12/12/12 13/13/13
f 14/14/14 10/10/10 13/13/13
f 15/15/15 12/12/12 6/6/6
f 12/12/12 15/15/15 13/13/13
f 16/16/16 15/15/15 6/6/6
f 16/16/16 17/17/17 15/15/15
f 18/18/18 13/13/13 15/15/15
f 13/13/13 18/18/18 14/14/14
f 17/17/17 19/19/19 15/15/15
f 19/19/19 18/18/18 15/15/15
f 17/17/17 20/20/20 19/19/19
f 20/20/20 18/18/18 19/19/19
f 18/18/18 20/20/20 21/21/21
f 18/18/18 21/21/21 14/14/14
f 20/20/20 22/22/22 21/21/21
f 21/21/21 22/22/22 14/14/14
f 22/22/22 23/23/23 14/14/14
f 26/26/26 25/25/25 24/24/24
f 27/27/27 26/26/26 24/24/24
f 27/27/27 24/24/24 28/28/28
f 27/27/27 29/29/29 26/26/26
f 29/29/29 30/30/30 26/26/26
f 29/29/29 31/31/31 30/30/30
f 31/31/31 32/32/32 30/30/30
f 33/33/33 32/32/32 31/31/31
f 34/34/34 27/27/27 28/28/28
f 27/27/27 34/34/34 29/29/29
f 35/35/35 34/34/34 28/28/28
f 36/36/36 35/35/35 28/28/28
f 34/34/34 37/37/37 29/29/29
f 37/37/37 34/34/34 35/35/35
f 31/31/31 29/29/29 37/37/37
f 38/38/38 37/37/37 35/35/35
f 38/38/38 39/39/39 37/37/37
f 39/39/39 40/40/40 37/37/37
f 40/40/40 31/31/31 37/37/37
f 41/41/41 40/40/40 39/39/39
f 40/40/40 41/41/41 31/31/31
f 42/42/42 41/41/41 39/39/39
f 43/43/43 41/41/41 42/42/42
f 44/44/44 33/33/33 31/31/31
f 41/41/41 44/44/44 31/31/31
f 43/43/43 33/33/33 44/44/44
f 41/41/41 43/43/43 44/44/44
f 47/47/47 46/46/46 45/45/45
f 48/48/48 47/47/47 45/45/45
f 49/49/49 47/47/47 48/48/48
f 50/50/50 49/49/49 48/48/48
f 50/50/50 51/51/51 49/49/49
f 51/51/51 52/52/52 49/49/49
f 55/55/55 54/54/54 53/53/53
f 54/54/54 56/56/56 53/53/53
f 54/54/54 57/57/57 56/56/56
f 57/57/57 58/58/58 56/56/56
f 59/59/59 58/58/58 57/57/57
f 60/60/60 59/59/59 57/57/57
f 60/60/60 61/61/61 59/59/59
f 61/61/61 62/62/62 59/59/59
f 61/61/61 63/63/63 62/62/62
