g butterflySignA_geo
v 0.0066914265 -2.801788E-09 0.004281256
v 0.011081955 0.84961075 1.3467093E-07
v 0.011664693 1.9629057E-08 1.4922249E-07
v 0.00669142 0.84961253 0.004281238
v -0.0034011884 -1.3303785E-08 0.0042812577
v 0.015813066 1.0789099 -1.3959828E-08
v -0.0034011947 0.84961253 0.0042812405
v -0.013493755 0.8496125 0.004281252
v -0.013493802 -2.3805782E-08 0.0042812596
v -0.009328646 1.0765293 0.004281367
v 0.0019575872 1.0749192 0.0042813793
v 0.013730999 1.0765293 0.0042813662
v 0.0019575888 1.1061622 0.004281375
v -0.012362864 1.1061622 0.0042813793
v 0.015872119 1.1061622 0.0042813784
v 0.017978892 1.1083795 -1.14894725E-07
v 0.0110865785 1.1153038 -1.2402323E-07
v 0.0019576098 1.1136253 0.0042813034
v 0.010112622 1.1128165 0.0042813546
v 0.0019575923 1.1197689 6.0294674E-08
v -0.0057102717 1.1128165 0.0042813527
v -0.0066842 1.1153038 -1.2259615E-07
v -0.014469668 1.1083795 -1.191376E-07
v 0.0066914046 -2.8248413E-08 -0.004281259
v 0.011664693 1.9629057E-08 1.4922249E-07
v 0.011081955 0.84961075 1.3467093E-07
v 0.0066914414 0.84961253 -0.004281283
v -0.0034011712 3.003653E-08 -0.0042812694
v 0.013730973 1.0765293 -0.004281154
v 0.015813066 1.0789099 -1.3959828E-08
v 0.015872093 1.1061622 -0.0042811423
v 0.017978892 1.1083795 -1.14894725E-07
v 0.0110865785 1.1153038 -1.2402323E-07
v -0.0034011735 0.84961253 -0.004281281
v -0.013493781 0.8496125 -0.0042812685
v -0.013493786 1.9534534E-08 -0.0042812675
v 0.0019576084 1.0749192 -0.0042811423
v -0.009328624 1.0765293 -0.0042811544
v -0.01236289 1.1061622 -0.0042811404
v 0.0019576137 1.1061622 -0.004281141
v 0.001957584 1.1136253 -0.004281217
v -0.0057102973 1.1128165 -0.0042811674
v 0.0019575923 1.1197689 6.0294674E-08
v 0.010112641 1.1128165 -0.0042811665
v -0.013493802 -2.3805782E-08 0.0042812596
v -0.017597409 3.749917E-08 1.4610454E-07
v -0.017260998 0.84961045 -1.1610091E-07
v -0.013493755 0.8496125 0.004281252
v -0.011410733 1.0789099 -9.557323E-09
v -0.009328646 1.0765293 0.004281367
v -0.012362864 1.1061622 0.0042813793
v -0.014469668 1.1083795 -1.191376E-07
v -0.013493786 1.9534534E-08 -0.0042812675
v -0.017260998 0.84961045 -1.1610091E-07
v -0.017597409 3.749917E-08 1.4610454E-07
v -0.013493781 0.8496125 -0.0042812685
v -0.011410733 1.0789099 -9.557323E-09
v -0.009328624 1.0765293 -0.0042811544
v -0.01236289 1.1061622 -0.0042811404
v -0.014469668 1.1083795 -1.191376E-07
v -0.0066842 1.1153038 -1.2259615E-07
v -0.0057102973 1.1128165 -0.0042811674
v 0.0019575923 1.1197689 6.0294674E-08
vt 0.064331055 0.33813477
vt 0.06286621 0.08062744
vt 0.062683105 0.33813477
vt 0.064331055 0.08062744
vt 0.06768799 0.33813477
vt 0.061309814 0.01914978
vt 0.06768799 0.08062744
vt 0.07104492 0.08062744
vt 0.07104492 0.33813477
vt 0.06970215 0.019943237
vt 0.06591797 0.020477295
vt 0.06201172 0.019943237
vt 0.06591797 0.010093689
vt 0.07067871 0.010093689
vt 0.061309814 0.010093689
vt 0.06060791 0.009353638
vt 0.06286621 0.0070495605
vt 0.06591797 0.007610321
vt 0.06323242 0.007881165
vt 0.06591797 0.0055656433
vt 0.068481445 0.007881165
vt 0.06878662 0.0070495605
vt 0.07141113 0.009353638
vt 0.064331055 0.33813477
vt 0.062683105 0.33813477
vt 0.06286621 0.08062744
vt 0.064331055 0.08062744
vt 0.06768799 0.33813477
vt 0.06201172 0.019943237
vt 0.061309814 0.01914978
vt 0.061309814 0.010093689
vt 0.06060791 0.009353638
vt 0.06286621 0.0070495605
vt 0.06768799 0.08062744
vt 0.07104492 0.08062744
vt 0.07104492 0.33813477
vt 0.06591797 0.020477295
vt 0.06970215 0.019943237
vt 0.07067871 0.010093689
vt 0.06591797 0.010093689
vt 0.06591797 0.007610321
vt 0.068481445 0.007881165
vt 0.06591797 0.0055656433
vt 0.06323242 0.007881165
vt 0.07104492 0.33813477
vt 0.07244873 0.33813477
vt 0.07232666 0.08062744
vt 0.07104492 0.08062744
vt 0.070373535 0.01914978
vt 0.06970215 0.019943237
vt 0.07067871 0.010093689
vt 0.07141113 0.009353638
vt 0.07104492 0.33813477
vt 0.07232666 0.08062744
vt 0.07244873 0.33813477
vt 0.07104492 0.08062744
vt 0.070373535 0.01914978
vt 0.06970215 0.019943237
vt 0.07067871 0.010093689
vt 0.07141113 0.009353638
vt 0.06878662 0.0070495605
vt 0.068481445 0.007881165
vt 0.06591797 0.0055656433
vn 0.2783203 9.548664E-05 0.9604492
vn 1 -0.00522995 1.1920929E-07
vn 1 0.00034284592 -1.2516975E-06
vn 0.27978516 -0.0014352798 0.95996094
vn 4.172325E-07 0 1
vn 0.9995117 -0.035003662 3.695488E-06
vn 4.172325E-07 -1.1920929E-07 1
vn -0.29467773 0.0014238358 0.9555664
vn -0.2919922 5.787611E-05 0.95654297
vn -0.35131836 0.00491333 0.93603516
vn 3.5762787E-07 -5.364418E-07 1
vn 0.35009766 -0.01008606 0.93652344
vn -0 8.34465E-07 1
vn -0.36132812 0.025344849 0.9321289
vn 0.35083008 0.025863647 0.93603516
vn 0.9848633 0.17382812 5.3048134E-06
vn 0.5131836 0.85839844 -4.23193E-06
vn -0.00015592575 0.3227539 0.94628906
vn 0.22302246 0.3479004 0.91064453
vn 0.0022830963 1 7.5101852E-06
vn -0.21691895 0.35009766 0.9111328
vn -0.5073242 0.8618164 7.748604E-07
vn -0.98339844 0.1809082 6.3180923E-06
vn 0.2783203 9.5427036E-05 -0.9604492
vn 1 0.00034284592 -1.2516975E-06
vn 1 -0.00522995 1.1920929E-07
vn 0.27978516 -0.0014352798 -0.95996094
vn -1.1920929E-07 0 -1
vn 0.35009766 -0.01007843 -0.93652344
vn 0.9995117 -0.035003662 3.695488E-06
vn 0.35083008 0.025863647 -0.93603516
vn 0.9848633 0.17382812 5.3048134E-06
vn 0.5131836 0.85839844 -4.23193E-06
vn -1.7881393E-07 1.1920929E-07 -1
vn -0.29467773 0.0014238358 -0.9555664
vn -0.2919922 5.77569E-05 -0.95654297
vn -2.9802322E-07 5.364418E-07 -1
vn -0.35131836 0.00491333 -0.93603516
vn -0.36108398 0.025344849 -0.9321289
vn -0 -8.34465E-07 -1
vn -0.00015628338 0.3227539 -0.94628906
vn -0.21691895 0.35009766 -0.9111328
vn 0.0022830963 1 7.5101852E-06
vn 0.22290039 0.3479004 -0.91064453
vn -0.2919922 5.787611E-05 0.95654297
vn -1 0.00019800663 2.861023E-06
vn -1 0.004760742 4.7683716E-07
vn -0.29467773 0.0014238358 0.9555664
vn -1 -0.0023021698 4.23193E-06
vn -0.35131836 0.00491333 0.93603516
vn -0.36132812 0.025344849 0.9321289
vn -0.98339844 0.1809082 6.3180923E-06
vn -0.2919922 5.77569E-05 -0.95654297
vn -1 0.004760742 4.7683716E-07
vn -1 0.00019800663 2.861023E-06
vn -0.29467773 0.0014238358 -0.9555664
vn -1 -0.0023021698 4.23193E-06
vn -0.35131836 0.00491333 -0.93603516
vn -0.36108398 0.025344849 -0.9321289
vn -0.98339844 0.1809082 6.3180923E-06
vn -0.5073242 0.8618164 7.748604E-07
vn -0.21691895 0.35009766 -0.9111328
vn 0.0022830963 1 7.5101852E-06
g butterflySignA_geo_0
f 3/3/3 2/2/2 1/1/1
f 2/2/2 4/4/4 1/1/1
f 1/1/1 4/4/4 5/5/5
f 2/2/2 6/6/6 4/4/4
f 4/4/4 7/7/7 5/5/5
f 7/7/7 8/8/8 5/5/5
f 8/8/8 9/9/9 5/5/5
f 8/8/8 7/7/7 10/10/10
f 11/11/11 7/7/7 4/4/4
f 7/7/7 11/11/11 10/10/10
f 6/6/6 12/12/12 4/4/4
f 12/12/12 11/11/11 4/4/4
f 10/10/10 11/11/11 13/13/13
f 11/11/11 12/12/12 13/13/13
f 14/14/14 10/10/10 13/13/13
f 15/15/15 12/12/12 6/6/6
f 12/12/12 15/15/15 13/13/13
f 16/16/16 15/15/15 6/6/6
f 16/16/16 17/17/17 15/15/15
f 18/18/18 13/13/13 15/15/15
f 13/13/13 18/18/18 14/14/14
f 17/17/17 19/19/19 15/15/15
f 19/19/19 18/18/18 15/15/15
f 17/17/17 20/20/20 19/19/19
f 20/20/20 18/18/18 19/19/19
f 18/18/18 20/20/20 21/21/21
f 18/18/18 21/21/21 14/14/14
f 20/20/20 22/22/22 21/21/21
f 21/21/21 22/22/22 14/14/14
f 22/22/22 23/23/23 14/14/14
f 26/26/26 25/25/25 24/24/24
f 27/27/27 26/26/26 24/24/24
f 27/27/27 24/24/24 28/28/28
f 27/27/27 29/29/29 26/26/26
f 29/29/29 30/30/30 26/26/26
f 29/29/29 31/31/31 30/30/30
f 31/31/31 32/32/32 30/30/30
f 33/33/33 32/32/32 31/31/31
f 34/34/34 27/27/27 28/28/28
f 27/27/27 34/34/34 29/29/29
f 35/35/35 34/34/34 28/28/28
f 36/36/36 35/35/35 28/28/28
f 34/34/34 37/37/37 29/29/29
f 37/37/37 34/34/34 35/35/35
f 31/31/31 29/29/29 37/37/37
f 38/38/38 37/37/37 35/35/35
f 38/38/38 39/39/39 37/37/37
f 39/39/39 40/40/40 37/37/37
f 40/40/40 31/31/31 37/37/37
f 41/41/41 40/40/40 39/39/39
f 40/40/40 41/41/41 31/31/31
f 42/42/42 41/41/41 39/39/39
f 43/43/43 41/41/41 42/42/42
f 44/44/44 33/33/33 31/31/31
f 41/41/41 44/44/44 31/31/31
f 43/43/43 33/33/33 44/44/44
f 41/41/41 43/43/43 44/44/44
f 47/47/47 46/46/46 45/45/45
f 48/48/48 47/47/47 45/45/45
f 49/49/49 47/47/47 48/48/48
f 50/50/50 49/49/49 48/48/48
f 50/50/50 51/51/51 49/49/49
f 51/51/51 52/52/52 49/49/49
f 55/55/55 54/54/54 53/53/53
f 54/54/54 56/56/56 53/53/53
f 54/54/54 57/57/57 56/56/56
f 57/57/57 58/58/58 56/56/56
f 59/59/59 58/58/58 57/57/57
f 60/60/60 59/59/59 57/57/57
f 60/60/60 61/61/61 59/59/59
f 61/61/61 62/62/62 59/59/59
f 61/61/61 63/63/63 62/62/62
