g Circle_001
v -5.0071052E-15 -0.49240097 -0.08681942
v -5.0071052E-15 -2.422333E-06 3.4618377E-06
v -5.0071052E-15 -2.193451E-06 2.6130676E-06
v -5.0071052E-15 -0.4698435 -0.17100535
v -5.0071052E-15 -1.8119813E-06 1.8310546E-06
v -5.0071052E-15 -0.43301 -0.24999526
v -5.0071052E-15 -1.3160707E-06 1.1062622E-06
v -5.0071052E-15 -0.38301957 -0.32138908
v -5.0071052E-15 -7.0571906E-07 4.959106E-07
v -5.0071052E-15 -0.32139122 -0.38301748
v -5.0071052E-15 -1.0000889E-13 0
v -5.0071052E-15 -0.2499975 -0.433008
v -5.0071052E-15 7.820129E-07 -3.814697E-07
v -5.0071052E-15 -0.17100763 -0.46984163
v -5.0071052E-15 1.6307829E-06 -6.1035155E-07
v -5.0071052E-15 -0.08682171 -0.49239925
v -5.0071052E-15 2.498625E-06 -6.866455E-07
v -5.0071052E-15 2.3150442E-06 -0.49999544
v -5.0071052E-15 3.3664703E-06 -6.1035155E-07
v -5.0071052E-15 0.08682637 -0.4923994
v -5.0071052E-15 4.2152406E-06 -3.814697E-07
v -5.0071052E-15 0.17101234 -0.4698419
v -5.0071052E-15 4.997253E-06 0
v -5.0071052E-15 0.25000226 -0.43300837
v -5.0071052E-15 5.7029724E-06 4.959106E-07
v -5.0071052E-15 0.32139608 -0.38301793
v -5.0071052E-15 6.313324E-06 1.1062622E-06
v -5.0071052E-15 0.38302442 -0.32138953
v -5.0071052E-15 6.8473814E-06 1.8310546E-06
v -5.0071052E-15 0.433015 -0.2499958
v -5.0071052E-15 7.1907043E-06 2.6130676E-06
v -5.0071052E-15 0.46984854 -0.17100592
v -5.0071052E-15 7.419586E-06 3.4618377E-06
v -5.0071052E-15 0.49240622 -0.086819984
v -5.0071052E-15 7.49588E-06 4.3296786E-06
v -5.0071052E-15 0.5000023 4.0704012E-06
v -5.0071052E-15 7.419586E-06 5.197525E-06
v -5.0071052E-15 0.4924063 0.08682813
v -5.0071052E-15 7.1907043E-06 6.046295E-06
v -5.0071052E-15 0.46984878 0.1710141
v -5.0071052E-15 6.8092345E-06 6.828308E-06
v -5.0071052E-15 0.4330152 0.25000402
v -5.0071052E-15 6.313324E-06 7.5531E-06
v -5.0071052E-15 0.3830248 0.32139784
v -5.0071052E-15 5.7029724E-06 8.163452E-06
v -5.0071052E-15 0.3213964 0.38302624
v -5.0071052E-15 4.997253E-06 8.659363E-06
v -5.0071052E-15 0.2500026 0.43301672
v -5.0071052E-15 4.2152406E-06 9.040832E-06
v -5.0071052E-15 0.17101273 0.4698504
v -5.0071052E-15 3.3664703E-06 9.269714E-06
v -5.0071052E-15 0.086826764 0.49240798
v -5.0071052E-15 2.4986284E-06 9.3460085E-06
v -5.0071052E-15 2.6875734E-06 0.5000041
v -5.0071052E-15 1.6307829E-06 9.269714E-06
v -5.0071052E-15 -0.086821385 0.492408
v -5.0071052E-15 7.820129E-07 9.040832E-06
v -5.0071052E-15 -0.17100736 0.46985048
v -5.0071052E-15 -1.0000889E-13 8.659363E-06
v -5.0071052E-15 -0.2499973 0.4330169
v -5.0071052E-15 -7.0571906E-07 8.163452E-06
v -5.0071052E-15 -0.32139114 0.38302642
v -5.0071052E-15 -1.3160707E-06 7.5531E-06
v -5.0071052E-15 -0.38301948 0.321398
v -5.0071052E-15 -1.8119813E-06 6.828308E-06
v -5.0071052E-15 -0.43301 0.25000423
v -5.0071052E-15 -2.193451E-06 6.046295E-06
v -5.0071052E-15 -0.46984366 0.17101431
v -5.0071052E-15 -2.422333E-06 5.197525E-06
v -5.0071052E-15 -0.49240127 0.08682833
v -5.0071052E-15 -2.4986266E-06 4.3296805E-06
v -5.0071052E-15 -0.4999974 4.234314E-06
v -5.0071052E-15 -2.422333E-06 3.4618377E-06
v -5.0071052E-15 -0.49240097 -0.08681942
vt 1 1
vt 1 0
vt 0.9722221 0
vt 0.9722222 1
vt 0.9444443 0
vt 0.9444444 1
vt 0.9166665 0
vt 0.9166665 1
vt 0.8888886 0
vt 0.8888887 1
vt 0.8611108 0
vt 0.8611108 1
vt 0.833333 0
vt 0.833333 1
vt 0.8055551 0
vt 0.8055552 1
vt 0.7777773 0
vt 0.7777773 1
vt 0.7499994 0
vt 0.7499995 1
vt 0.72222155 0
vt 0.7222217 1
vt 0.6944437 0
vt 0.6944438 1
vt 0.6666659 0
vt 0.66666603 1
vt 0.63888806 0
vt 0.6388882 1
vt 0.6111102 0
vt 0.6111103 1
vt 0.5833324 0
vt 0.5833325 1
vt 0.5555546 0
vt 0.5555546 1
vt 0.5277767 0
vt 0.52777684 1
vt 0.4999989 0
vt 0.49999896 1
vt 0.47222117 0
vt 0.47222123 1
vt 0.4444434 0
vt 0.44444352 1
vt 0.41666573 0
vt 0.41666585 1
vt 0.388888 0
vt 0.38888812 1
vt 0.36111027 0
vt 0.3611104 1
vt 0.33333254 0
vt 0.33333266 1
vt 0.3055548 0
vt 0.30555493 1
vt 0.27777714 0
vt 0.27777725 1
vt 0.24999946 0
vt 0.24999946 1
vt 0.22222173 0
vt 0.22222173 1
vt 0.19444406 0
vt 0.19444406 1
vt 0.16666627 0
vt 0.16666627 1
vt 0.1388886 0
vt 0.1388886 1
vt 0.111110866 0
vt 0.111110866 1
vt 0.083333135 0
vt 0.083333135 1
vt 0.055555463 0
vt 0.055555463 1
vt 0.027777731 0
vt 0.027777731 1
vt 0 0
vt 0 1
vn 1 0 0
vn 1 0 0
vn 1 0 0
vn 1 0 0
vn 1 0 0
vn 1 0 0
vn 1 0 0
vn 1 0 0
vn 1 0 0
vn 1 0 0
vn 1 0 0
vn 1 0 0
vn 1 0 0
vn 1 0 0
vn 1 0 0
vn 1 0 0
vn 1 0 0
vn 1 0 0
vn 1 0 0
vn 1 0 0
vn 1 0 0
vn 1 0 0
vn 1 0 0
vn 1 0 0
vn 1 0 0
vn 1 0 0
vn 1 0 0
vn 1 0 0
vn 1 0 0
vn 1 0 0
vn 1 0 0
vn 1 0 0
vn 1 0 0
vn 1 0 0
vn 1 0 0
vn 1 0 0
vn 1 0 0
vn 1 0 0
vn 1 0 0
vn 1 0 0
vn 1 0 0
vn 1 0 0
vn 1 0 0
vn 1 0 0
vn 1 0 0
vn 1 0 0
vn 1 0 0
vn 1 0 0
vn 1 0 0
vn 1 0 0
vn 1 0 0
vn 1 0 0
vn 1 0 0
vn 1 0 0
vn 1 0 0
vn 1 0 0
vn 1 0 0
vn 1 0 0
vn 1 0 0
vn 1 0 0
vn 1 0 0
vn 1 0 0
vn 1 0 0
vn 1 0 0
vn 1 0 0
vn 1 0 0
vn 1 0 0
vn 1 0 0
vn 1 0 0
vn 1 0 0
vn 1 0 0
vn 1 0 0
vn 1 0 0
vn 1 0 0
g Circle_001_0
f 3/3/3 2/2/2 1/1/1
f 4/4/4 3/3/3 1/1/1
f 5/5/5 3/3/3 4/4/4
f 6/6/6 5/5/5 4/4/4
f 7/7/7 5/5/5 6/6/6
f 8/8/8 7/7/7 6/6/6
f 9/9/9 7/7/7 8/8/8
f 10/10/10 9/9/9 8/8/8
f 11/11/11 9/9/9 10/10/10
f 12/12/12 11/11/11 10/10/10
f 13/13/13 11/11/11 12/12/12
f 14/14/14 13/13/13 12/12/12
f 15/15/15 13/13/13 14/14/14
f 16/16/16 15/15/15 14/14/14
f 17/17/17 15/15/15 16/16/16
f 18/18/18 17/17/17 16/16/16
f 19/19/19 17/17/17 18/18/18
f 20/20/20 19/19/19 18/18/18
f 21/21/21 19/19/19 20/20/20
f 22/22/22 21/21/21 20/20/20
f 23/23/23 21/21/21 22/22/22
f 24/24/24 23/23/23 22/22/22
f 25/25/25 23/23/23 24/24/24
f 26/26/26 25/25/25 24/24/24
f 27/27/27 25/25/25 26/26/26
f 28/28/28 27/27/27 26/26/26
f 29/29/29 27/27/27 28/28/28
f 30/30/30 29/29/29 28/28/28
f 31/31/31 29/29/29 30/30/30
f 32/32/32 31/31/31 30/30/30
f 33/33/33 31/31/31 32/32/32
f 34/34/34 33/33/33 32/32/32
f 35/35/35 33/33/33 34/34/34
f 36/36/36 35/35/35 34/34/34
f 37/37/37 35/35/35 36/36/36
f 38/38/38 37/37/37 36/36/36
f 39/39/39 37/37/37 38/38/38
f 40/40/40 39/39/39 38/38/38
f 41/41/41 39/39/39 40/40/40
f 42/42/42 41/41/41 40/40/40
f 43/43/43 41/41/41 42/42/42
f 44/44/44 43/43/43 42/42/42
f 45/45/45 43/43/43 44/44/44
f 46/46/46 45/45/45 44/44/44
f 47/47/47 45/45/45 46/46/46
f 48/48/48 47/47/47 46/46/46
f 49/49/49 47/47/47 48/48/48
f 50/50/50 49/49/49 48/48/48
f 51/51/51 49/49/49 50/50/50
f 52/52/52 51/51/51 50/50/50
f 53/53/53 51/51/51 52/52/52
f 54/54/54 53/53/53 52/52/52
f 55/55/55 53/53/53 54/54/54
f 56/56/56 55/55/55 54/54/54
f 57/57/57 55/55/55 56/56/56
f 58/58/58 57/57/57 56/56/56
f 59/59/59 57/57/57 58/58/58
f 60/60/60 59/59/59 58/58/58
f 61/61/61 59/59/59 60/60/60
f 62/62/62 61/61/61 60/60/60
f 63/63/63 61/61/61 62/62/62
f 64/64/64 63/63/63 62/62/62
f 65/65/65 63/63/63 64/64/64
f 66/66/66 65/65/65 64/64/64
f 67/67/67 65/65/65 66/66/66
f 68/68/68 67/67/67 66/66/66
f 69/69/69 67/67/67 68/68/68
f 70/70/70 69/69/69 68/68/68
f 71/71/71 69/69/69 70/70/70
f 72/72/72 71/71/71 70/70/70
f 73/73/73 71/71/71 72/72/72
f 74/74/74 73/73/73 72/72/72
