g core
v -0.13719249 0.13719255 0.13719249
v -0.13719249 0.13719255 -0.13719249
v -0.13719249 -0.13719247 -0.13719249
v -0.13719249 -0.13719247 0.13719249
v -0.13719249 0.13719255 -0.13719249
v 0.13719246 0.13719255 -0.13719249
v 0.13719246 -0.13719247 -0.13719249
v -0.13719249 -0.13719247 -0.13719249
v 0.13719246 0.13719255 -0.13719249
v 0.13719246 0.13719255 0.13719249
v 0.13719246 -0.13719247 0.13719249
v 0.13719246 -0.13719247 -0.13719249
v 0.13719246 0.13719255 0.13719249
v -0.13719249 0.13719255 0.13719249
v -0.13719249 -0.13719247 0.13719249
v 0.13719246 -0.13719247 0.13719249
v 0.13719246 -0.13719247 -0.13719249
v 0.13719246 -0.13719247 0.13719249
v -0.13719249 -0.13719247 0.13719249
v -0.13719249 -0.13719247 -0.13719249
v -0.13719249 0.13719255 -0.13719249
v -0.13719249 0.13719255 0.13719249
v 0.13719246 0.13719255 0.13719249
v 0.13719246 0.13719255 -0.13719249
vt 0.88964844 0.9194336
vt 0.9067383 0.9194336
vt 0.9067383 0.90234375
vt 0.88964844 0.90234375
vt 0.9135742 0.8256836
vt 0.93066406 0.8256836
vt 0.93066406 0.80859375
vt 0.9135742 0.80859375
vt 0.8989258 0.05368042
vt 0.9160156 0.05368042
vt 0.9160156 0.036468506
vt 0.8989258 0.036468506
vt 0.23669434 0.9116211
vt 0.21948242 0.9116211
vt 0.21948242 0.92871094
vt 0.23669434 0.92871094
vt 0.87890625 0.9248047
vt 0.87890625 0.90771484
vt 0.8618164 0.90771484
vt 0.8618164 0.9248047
vt 0.30859375 0.9057617
vt 0.30859375 0.92285156
vt 0.3256836 0.92285156
vt 0.3256836 0.9057617
vn 1 0 0
vn 1 0 0
vn 1 0 0
vn 1 0 0
vn -0 0 1
vn -0 0 1
vn -0 0 1
vn -0 0 1
vn -1 0 0
vn -1 0 0
vn -1 0 0
vn -1 0 0
vn -0 0 -1
vn -0 0 -1
vn -0 0 -1
vn -0 0 -1
vn -0 1 0
vn -0 1 0
vn -0 1 0
vn -0 1 0
vn -0 -1 0
vn -0 -1 0
vn -0 -1 0
vn -0 -1 0
g core_0
f 3/3/3 2/2/2 1/1/1
f 4/4/4 3/3/3 1/1/1
f 7/7/7 6/6/6 5/5/5
f 8/8/8 7/7/7 5/5/5
f 11/11/11 10/10/10 9/9/9
f 12/12/12 11/11/11 9/9/9
f 15/15/15 14/14/14 13/13/13
f 16/16/16 15/15/15 13/13/13
f 19/19/19 18/18/18 17/17/17
f 20/20/20 19/19/19 17/17/17
f 23/23/23 22/22/22 21/21/21
f 24/24/24 23/23/23 21/21/21
