g doorR3_geo
v -0.015771942 0.06375657 0.0103504835
v -0.005157661 0.0770262 -0.010354842
v -0.005649395 0.07461911 0.010343468
v -0.017653255 0.066187024 -0.010354844
v -0.034186974 0.055473223 -0.010354844
v -0.03307995 0.054361295 0.01033446
v -0.042727258 0.03691083 0.0103527475
v -0.045229606 0.039454736 -0.010354799
v -0.060204275 0.0274726 0.010339281
v -0.060812395 0.028115053 -0.010354799
v -0.06749893 0.016840791 0.010345612
v -0.06881884 0.017936753 -0.010354844
v -0.07657013 0.007625036 0.010339756
v -0.077431336 0.0082921125 -0.010354844
v -0.08416229 -0.0027963829 0.010339012
v -0.084621124 -0.0024353599 -0.010354844
v -0.08951296 -0.0082604885 -0.010354844
v -0.088876076 -0.0070889755 0.010338928
v -0.09321153 -0.011172695 0.01033424
v -0.09261381 -0.012207975 -0.010354844
v -0.103315525 -0.013407068 0.01033424
v -0.10335624 -0.0144705195 -0.010354799
v -0.005649395 0.07461911 0.010343468
v -0.005157661 0.0770262 -0.010354842
v -0.0031375694 0.057973508 -0.010354844
v -0.007130146 0.057246123 0.01035438
v -0.001714344 0.051098317 -0.010354844
v -0.0025500297 0.050836094 0.010343292
v 0.00044712066 0.044060793 -0.010354842
v -0.0018583679 0.043660667 0.010347259
v 0.0017831421 0.036760814 -0.010354844
v -0.0013135147 0.036515035 0.010344128
v 0.0012802314 0.031156987 -0.010354844
v 0.00054450985 0.030686064 0.01034291
v 0.00054450985 0.030686064 0.01034291
v 0.0012802314 0.031156987 -0.010354844
v 0.0073678014 0.02941945 -0.010354844
v 0.0073184585 0.029296389 0.010335401
v 0.014308357 0.026599148 -0.010354844
v 0.013544884 0.024107255 0.01034759
v 0.021607265 0.025523825 -0.010354842
v 0.02037447 0.021300362 0.010353901
v 0.029079532 0.022058267 -0.010354842
v 0.026889456 0.018857183 0.010352726
v 0.035761144 0.01585969 -0.010354842
v 0.034282245 0.014738187 0.010337882
v 0.04024967 0.0090907 -0.010354844
v 0.03703125 0.0064757443 0.010354844
v 0.04516426 0.0023458577 -0.010354844
v 0.044996127 0.0023393154 0.0103406925
v 0.051344737 -0.0035742854 -0.010354844
v 0.05131002 -0.0036022854 0.010334284
v 0.06454044 -0.021790313 -0.010354842
v 0.062420625 -0.02295393 0.010345938
v 0.06866629 -0.032110862 -0.010354844
v 0.066550225 -0.033025578 0.010346726
v 0.07314862 -0.04174779 -0.010354842
v 0.07255821 -0.042214945 0.010336982
v 0.081488535 -0.049007416 -0.010354799
v 0.08046072 -0.04992732 0.010345218
v 0.08698167 -0.058587473 -0.010354844
v 0.08580226 -0.059374485 0.010344231
v 0.09025618 -0.06552155 0.010350296
v 0.09194636 -0.063635774 -0.010354844
v 0.09404603 -0.06660122 0.01033424
v 0.09519387 -0.06544161 -0.010354844
v 0.1018654 -0.07456136 -0.010354844
v 0.10268006 -0.07400245 0.01033424
v 0.101763725 -0.07699285 -0.010354799
v 0.10335624 -0.0770262 0.01033424
v 0.101763725 -0.07699285 -0.010354799
v 0.013556022 -0.07415182 0.01033424
v 0.10335624 -0.0770262 0.01033424
v 0.01026865 -0.07406477 -0.010354799
v -0.08005924 -0.07115532 0.01033424
v -0.08020302 -0.07116945 -0.010354799
v -0.09450674 -0.0700784 -0.010354844
v -0.09436298 -0.07006428 0.01033424
v -0.09904539 -0.05834876 -0.010354844
v -0.09890159 -0.058334634 0.01033424
v -0.103315525 -0.013407068 0.01033424
v -0.10335624 -0.0144705195 -0.010354799
v 0.09025618 -0.06552155 0.010350296
v 0.09404603 -0.06660122 0.01033424
v 0.10268006 -0.07400245 0.01033424
v 0.10335624 -0.0770262 0.01033424
v 0.011652297 -0.06254687 0.010343063
v 0.08580226 -0.059374485 0.010344231
v 0.013556022 -0.07415182 0.01033424
v 0.08046072 -0.04992732 0.010345218
v 0.07255821 -0.042214945 0.010336982
v 0.066550225 -0.033025578 0.010346726
v 0.062420625 -0.02295393 0.010345938
v -0.08005924 -0.07115532 0.01033424
v -0.084219456 -0.058918715 0.01033424
v -0.09436298 -0.07006428 0.01033424
v 0.05131002 -0.0036022854 0.010334284
v -0.09890159 -0.058334634 0.01033424
v -0.09321153 -0.011172695 0.01033424
v -0.103315525 -0.013407068 0.01033424
v -0.088876076 -0.0070889755 0.010338928
v -0.08416229 -0.0027963829 0.010339012
v -0.07657013 0.007625036 0.010339756
v -0.06749893 0.016840791 0.010345612
v 0.0023470498 0.013965387 0.010349292
v -0.060204275 0.0274726 0.010339281
v 0.03703125 0.0064757443 0.010354844
v 0.044996127 0.0023393154 0.0103406925
v 0.034282245 0.014738187 0.010337882
v 0.026889456 0.018857183 0.010352726
v 0.02037447 0.021300362 0.010353901
v 0.013544884 0.024107255 0.01034759
v 0.0073184585 0.029296389 0.010335401
v 0.00054450985 0.030686064 0.01034291
v -0.042727258 0.03691083 0.0103527475
v -0.0013135147 0.036515035 0.010344128
v -0.0018583679 0.043660667 0.010347259
v -0.0025500297 0.050836094 0.010343292
v -0.03307995 0.054361295 0.01033446
v -0.007130146 0.057246123 0.01035438
v -0.015771942 0.06375657 0.0103504835
v -0.005649395 0.07461911 0.010343468
v 0.09519387 -0.06544161 -0.010354844
v 0.101763725 -0.07699285 -0.010354799
v 0.1018654 -0.07456136 -0.010354844
v 0.09194636 -0.063635774 -0.010354844
v 0.01026865 -0.07406477 -0.010354799
v 0.009716988 -0.061442357 -0.0103548225
v 0.08698167 -0.058587473 -0.010354844
v 0.081488535 -0.049007416 -0.010354799
v 0.07314862 -0.04174779 -0.010354842
v 0.06866629 -0.032110862 -0.010354844
v 0.06454044 -0.021790313 -0.010354842
v 0.051344737 -0.0035742854 -0.010354844
v 0.04516426 0.0023458577 -0.010354844
v -0.08020302 -0.07116945 -0.010354799
v 0.04024967 0.0090907 -0.010354844
v -0.08436323 -0.05893282 -0.010354799
v -0.09450674 -0.0700784 -0.010354844
v -0.09904539 -0.05834876 -0.010354844
v -0.10335624 -0.0144705195 -0.010354799
v -0.09261381 -0.012207975 -0.010354844
v -0.08951296 -0.0082604885 -0.010354844
v -0.084621124 -0.0024353599 -0.010354844
v -0.077431336 0.0082921125 -0.010354844
v -0.06881884 0.017936753 -0.010354844
v -0.060812395 0.028115053 -0.010354799
v 0.0026457596 0.016169405 -0.010354839
v 0.035761144 0.01585969 -0.010354842
v 0.029079532 0.022058267 -0.010354842
v 0.021607265 0.025523825 -0.010354842
v 0.014308357 0.026599148 -0.010354844
v 0.0073678014 0.02941945 -0.010354844
v 0.0012802314 0.031156987 -0.010354844
v -0.045229606 0.039454736 -0.010354799
v 0.0017831421 0.036760814 -0.010354844
v 0.00044712066 0.044060793 -0.010354842
v -0.034186974 0.055473223 -0.010354844
v -0.001714344 0.051098317 -0.010354844
v -0.0031375694 0.057973508 -0.010354844
v -0.017653255 0.066187024 -0.010354844
v -0.005157661 0.0770262 -0.010354842
vt 0.5854492 0.049346924
vt 0.5776367 0.039520264
vt 0.5786133 0.049346924
vt 0.5854492 0.039520264
vt 0.59521484 0.039520264
vt 0.59472656 0.049346924
vt 0.6044922 0.049346924
vt 0.6044922 0.039520264
vt 0.6142578 0.049346924
vt 0.6142578 0.039520264
vt 0.62109375 0.049346924
vt 0.62060547 0.039520264
vt 0.6274414 0.049346924
vt 0.6274414 0.039520264
vt 0.63378906 0.049346924
vt 0.63378906 0.039520264
vt 0.6376953 0.039520264
vt 0.63720703 0.049346924
vt 0.6401367 0.049346924
vt 0.6401367 0.039520264
vt 0.64501953 0.049346924
vt 0.6455078 0.039520264
vt 0.6879883 0.049346924
vt 0.68896484 0.039520264
vt 0.6796875 0.039520264
vt 0.6796875 0.049346924
vt 0.67626953 0.039520264
vt 0.67626953 0.049346924
vt 0.6723633 0.039520264
vt 0.6723633 0.049346924
vt 0.6689453 0.039520264
vt 0.6689453 0.049346924
vt 0.6660156 0.039520264
vt 0.6660156 0.049346924
vt 0.6660156 0.049346924
vt 0.6660156 0.039520264
vt 0.66259766 0.039520264
vt 0.66259766 0.049346924
vt 0.6591797 0.039520264
vt 0.6586914 0.049346924
vt 0.65527344 0.039520264
vt 0.65478516 0.049346924
vt 0.6513672 0.039520264
vt 0.6513672 0.049346924
vt 0.64697266 0.039520264
vt 0.64697266 0.049346924
vt 0.6425781 0.039520264
vt 0.6430664 0.049346924
vt 0.6386719 0.039520264
vt 0.6386719 0.049346924
vt 0.63427734 0.039520264
vt 0.63427734 0.049346924
vt 0.6230469 0.039520264
vt 0.6230469 0.049346924
vt 0.6171875 0.039520264
vt 0.6176758 0.049346924
vt 0.6118164 0.039520264
vt 0.6118164 0.049346924
vt 0.6064453 0.039520264
vt 0.6064453 0.049346924
vt 0.6010742 0.039520264
vt 0.6010742 0.049346924
vt 0.59716797 0.049346924
vt 0.59716797 0.039520264
vt 0.5957031 0.049346924
vt 0.5957031 0.039520264
vt 0.59033203 0.039520264
vt 0.59033203 0.049346924
vt 0.5888672 0.039520264
vt 0.5888672 0.049346924
vt 0.06732178 0.015151978
vt 0.113586426 0.008628845
vt 0.066467285 0.008590698
vt 0.11529541 0.015197754
vt 0.16259766 0.008674622
vt 0.16271973 0.015235901
vt 0.17016602 0.01524353
vt 0.17016602 0.008682251
vt 0.17675781 0.01525116
vt 0.17675781 0.008682251
vt 0.20043945 0.00869751
vt 0.1998291 0.015258789
vt 0.15905762 0.47558594
vt 0.16064453 0.47558594
vt 0.16418457 0.4724121
vt 0.16455078 0.4711914
vt 0.1270752 0.47705078
vt 0.15722656 0.47827148
vt 0.12792969 0.4724121
vt 0.1550293 0.48217773
vt 0.15185547 0.48535156
vt 0.14916992 0.48901367
vt 0.14746094 0.4934082
vt 0.08984375 0.4736328
vt 0.088012695 0.47875977
vt 0.082458496 0.4729004
vt 0.1430664 0.50146484
vt 0.07910156 0.4790039
vt 0.08135986 0.49853516
vt 0.07733154 0.4975586
vt 0.08337402 0.5
vt 0.08734131 0.50146484
vt 0.09039307 0.5058594
vt 0.09399414 0.5097656
vt 0.122558594 0.50878906
vt 0.09655762 0.51416016
vt 0.13696289 0.5053711
vt 0.14038086 0.50390625
vt 0.13623047 0.50927734
vt 0.13305664 0.5107422
vt 0.1295166 0.51171875
vt 0.12683105 0.5136719
vt 0.125 0.515625
vt 0.121154785 0.515625
vt 0.10241699 0.5180664
vt 0.12072754 0.52001953
vt 0.12072754 0.5205078
vt 0.12054443 0.5234375
vt 0.10668945 0.5253906
vt 0.118896484 0.5258789
vt 0.11462402 0.5288086
vt 0.11895752 0.5332031
vt 0.2619629 0.17614746
vt 0.2590332 0.171875
vt 0.2590332 0.17285156
vt 0.26293945 0.17736816
vt 0.29638672 0.17333984
vt 0.29638672 0.1784668
vt 0.26489258 0.17944336
vt 0.26708984 0.18334961
vt 0.2705078 0.1862793
vt 0.2722168 0.19018555
vt 0.27392578 0.19445801
vt 0.27929688 0.2019043
vt 0.28173828 0.2043457
vt 0.3330078 0.17468262
vt 0.2836914 0.20703125
vt 0.3347168 0.17956543
vt 0.3388672 0.1751709
vt 0.34057617 0.17993164
vt 0.34228516 0.1977539
vt 0.33789062 0.19873047
vt 0.33666992 0.20031738
vt 0.3347168 0.20263672
vt 0.33154297 0.20703125
vt 0.328125 0.2109375
vt 0.32495117 0.21508789
vt 0.29907227 0.21008301
vt 0.28564453 0.20983887
vt 0.28833008 0.21240234
vt 0.29125977 0.21386719
vt 0.29418945 0.2142334
vt 0.29711914 0.2154541
vt 0.29956055 0.21618652
vt 0.31860352 0.21960449
vt 0.2993164 0.21838379
vt 0.2998047 0.22143555
vt 0.31396484 0.22607422
vt 0.30078125 0.22424316
vt 0.30126953 0.22705078
vt 0.3071289 0.23046875
vt 0.30200195 0.23486328
vn -0.5917969 0.7988281 0.109191895
vn -0.68847656 0.71728516 0.106933594
vn -0.68847656 0.71728516 0.106933594
vn -0.5913086 0.7988281 0.109191895
vn -0.6958008 0.7080078 0.11810303
vn -0.6958008 0.7084961 0.11810303
vn -0.7055664 0.69921875 0.115112305
vn -0.7060547 0.69873047 0.11517334
vn -0.64941406 0.7553711 0.08929443
vn -0.64941406 0.7553711 0.08929443
vn -0.76708984 0.6381836 0.064941406
vn -0.76708984 0.6381836 0.064941406
vn -0.7753906 0.62939453 0.05407715
vn -0.7753906 0.62939453 0.05404663
vn -0.78808594 0.6147461 0.028289795
vn -0.78808594 0.6147461 0.028274536
vn -0.7290039 0.68408203 -0.0132369995
vn -0.7290039 0.6845703 -0.011627197
vn -0.40429688 0.9135742 -0.048675537
vn -0.40429688 0.9135742 -0.048675537
vn -0.21057129 0.9760742 -0.052337646
vn -0.21057129 0.9760742 -0.052337646
vn 0.9941406 0.01474762 0.10876465
vn 0.9941406 0.01474762 0.10876465
vn 0.98535156 0.12915039 0.11248779
vn 0.98535156 0.12792969 0.11248779
vn 0.9472656 0.30517578 0.0970459
vn 0.9472656 0.30517578 0.0970459
vn 0.9814453 0.16186523 0.10418701
vn 0.9814453 0.16186523 0.10418701
vn 0.98583984 0.123291016 0.11419678
vn 0.98583984 0.123291016 0.11431885
vn 0.98876953 0.1171875 0.093566895
vn 0.98876953 0.1171875 0.093566895
vn 0.23620605 0.9716797 0.018417358
vn 0.23620605 0.9716797 0.018417358
vn 0.3930664 0.91845703 0.043518066
vn 0.3930664 0.91845703 0.043518066
vn 0.39624023 0.91064453 0.11584473
vn 0.39404297 0.9116211 0.116760254
vn 0.32348633 0.92871094 0.18078613
vn 0.32421875 0.92871094 0.18103027
vn 0.49389648 0.8540039 0.16369629
vn 0.49194336 0.85498047 0.16430664
vn 0.7583008 0.63623047 0.14172363
vn 0.7573242 0.63720703 0.14172363
vn 0.78515625 0.6069336 0.12310791
vn 0.7841797 0.60791016 0.12298584
vn 0.6665039 0.74365234 0.051849365
vn 0.6665039 0.74365234 0.052246094
vn 0.80126953 0.5966797 0.044158936
vn 0.80126953 0.5966797 0.044158936
vn 0.8691406 0.48828125 0.07733154
vn 0.8691406 0.4880371 0.07739258
vn 0.8984375 0.42944336 0.09350586
vn 0.8984375 0.42895508 0.09362793
vn 0.78271484 0.6191406 0.062805176
vn 0.78271484 0.6191406 0.062805176
vn 0.7807617 0.6220703 0.05947876
vn 0.78125 0.62158203 0.059539795
vn 0.828125 0.5551758 0.07800293
vn 0.828125 0.5551758 0.07800293
vn 0.6489258 0.7548828 0.09649658
vn 0.6459961 0.75683594 0.09649658
vn 0.6533203 0.7558594 0.036621094
vn 0.6557617 0.75439453 0.036071777
vn 0.80615234 0.5800781 -0.11767578
vn 0.8017578 0.5800781 0.14416504
vn -0.0031852722 -0.94873047 -0.31591797
vn -0.00071907043 -0.97265625 0.23254395
vn -0.0031852722 -0.94873047 -0.31591797
vn -0.028137207 -0.87841797 0.47729492
vn -0.00071907043 -0.97265625 0.23254395
vn -0.027496338 -0.8588867 -0.51123047
vn -0.0317688 -0.83691406 0.5463867
vn -0.031585693 -0.83154297 -0.5546875
vn -0.5498047 -0.8051758 -0.22167969
vn -0.5463867 -0.80566406 0.22912598
vn -0.85302734 -0.13513184 -0.50439453
vn -0.84814453 -0.13452148 0.51220703
vn -0.8129883 -0.07989502 0.57666016
vn -0.8359375 -0.08215332 -0.54248047
vn -6.520748E-05 -0.00093984604 1
vn 0.0033111572 0.0029563904 1
vn 0.8017578 0.5800781 0.14416504
vn -0.00071907043 -0.97265625 0.23254395
vn -7.915497E-05 -0.00027894974 1
vn -3.6418438E-05 0.00048351288 1
vn -0.028137207 -0.87841797 0.47729492
vn -6.610155E-05 0.00018978119 1
vn 3.9815903E-05 0.00017976761 1
vn 0.00014162064 -0.0003874302 1
vn -0.00029087067 0.0003004074 1
vn -0.0317688 -0.83691406 0.5463867
vn -0.000106453896 -0.0001502037 1
vn -0.5463867 -0.80566406 0.22912598
vn 0.00047135353 -0.00013422966 1
vn -0.84814453 -0.13452148 0.51220703
vn -0.00020766258 -3.9100647E-05 1
vn -0.8129883 -0.07989502 0.57666016
vn -0.00020754337 -0.0001090765 1
vn 2.5749207E-05 -8.505583E-05 1
vn -0.00013172626 -0.00012022257 1
vn -9.584427E-05 -6.4492226E-05 1
vn -7.545948E-05 -3.606081E-05 1
vn -5.221367E-05 -2.0384789E-05 1
vn 0.00023639202 -0.00012588501 1
vn 0.0010757446 -0.0005159378 1
vn 0.000320673 0.0015144348 1
vn 0.0003657341 -0.0025367737 1
vn -0.00017535686 -0.00019729137 1
vn -0.0007534027 0.0009994507 1
vn 0.00019490719 0.0008430481 1
vn 2.9206276E-05 -0.00020158291 1
vn -4.941225E-05 -4.9054623E-05 1
vn 0.00020551682 -0.00028038025 1
vn -1.9788742E-05 0.00061511993 1
vn -0.00018084049 0.00057554245 1
vn -0.00015377998 0.00068187714 1
vn -0.0005469322 -0.00096321106 1
vn -0.000477314 -0.0007677078 1
vn 2.0980835E-05 0.000626564 1
vn -1.2814999E-05 -1.04904175E-05 -1
vn -0.0031852722 -0.94873047 -0.31591797
vn 0.80615234 0.5800781 -0.11767578
vn -2.3841858E-07 -2.6226044E-06 -1
vn -0.027496338 -0.8588867 -0.51123047
vn -1.1920929E-07 -7.748604E-07 -1
vn -2.9802322E-07 1.9669533E-06 -1
vn -0 1.9669533E-06 -1
vn 5.364418E-07 -2.7418137E-06 -1
vn -4.172325E-07 -1.1920929E-07 -1
vn -2.3841858E-07 -1.7881393E-07 -1
vn -0 -2.3841858E-07 -1
vn -1.7881393E-07 -1.7881393E-07 -1
vn -0.031585693 -0.83154297 -0.5546875
vn -3.5762787E-07 -1.7881393E-07 -1
vn -1.1920929E-07 -5.364418E-07 -1
vn -0.5498047 -0.8051758 -0.22167969
vn -0.85302734 -0.13513184 -0.50439453
vn -0.8359375 -0.08215332 -0.54248047
vn -0 -1.1920929E-07 -1
vn 1.2516975E-06 -7.748604E-07 -1
vn 1.013279E-06 -7.748604E-07 -1
vn -2.3841858E-07 -5.364418E-07 -1
vn -0 -1.1920929E-07 -1
vn -0 2.9802322E-07 -1
vn -0 1.7881393E-07 -1
vn -1.7881393E-07 2.3841858E-07 -1
vn -0 0 -1
vn -0 -2.3841858E-07 -1
vn -0 -5.364418E-07 -1
vn -2.3841858E-07 -2.9802322E-07 -1
vn -7.1525574E-07 1.7881393E-07 -1
vn -6.556511E-07 -1.1920929E-07 -1
vn -1.013279E-06 1.1920929E-07 -1
vn -7.1525574E-07 -1.2516975E-06 -1
vn -4.7683716E-07 -1.5497208E-06 -1
vn -4.172325E-07 -1.3709068E-06 -1
vn -0 0 -1
vn -0 0 -1
vn -0 1.1920929E-07 -1
g doorR3_geo_0
f 3/3/3 2/2/2 1/1/1
f 2/2/2 4/4/4 1/1/1
f 4/4/4 5/5/5 1/1/1
f 5/5/5 6/6/6 1/1/1
f 6/6/6 5/5/5 7/7/7
f 5/5/5 8/8/8 7/7/7
f 7/7/7 8/8/8 9/9/9
f 8/8/8 10/10/10 9/9/9
f 9/9/9 10/10/10 11/11/11
f 10/10/10 12/12/12 11/11/11
f 11/11/11 12/12/12 13/13/13
f 12/12/12 14/14/14 13/13/13
f 13/13/13 14/14/14 15/15/15
f 14/14/14 16/16/16 15/15/15
f 15/15/15 16/16/16 17/17/17
f 18/18/18 15/15/15 17/17/17
f 18/18/18 17/17/17 19/19/19
f 17/17/17 20/20/20 19/19/19
f 19/19/19 20/20/20 21/21/21
f 20/20/20 22/22/22 21/21/21
f 25/25/25 24/24/24 23/23/23
f 26/26/26 25/25/25 23/23/23
f 27/27/27 25/25/25 26/26/26
f 28/28/28 27/27/27 26/26/26
f 29/29/29 27/27/27 28/28/28
f 30/30/30 29/29/29 28/28/28
f 31/31/31 29/29/29 30/30/30
f 32/32/32 31/31/31 30/30/30
f 33/33/33 31/31/31 32/32/32
f 34/34/34 33/33/33 32/32/32
f 37/37/37 36/36/36 35/35/35
f 38/38/38 37/37/37 35/35/35
f 39/39/39 37/37/37 38/38/38
f 40/40/40 39/39/39 38/38/38
f 41/41/41 39/39/39 40/40/40
f 42/42/42 41/41/41 40/40/40
f 43/43/43 41/41/41 42/42/42
f 44/44/44 43/43/43 42/42/42
f 45/45/45 43/43/43 44/44/44
f 46/46/46 45/45/45 44/44/44
f 47/47/47 45/45/45 46/46/46
f 48/48/48 47/47/47 46/46/46
f 49/49/49 47/47/47 48/48/48
f 50/50/50 49/49/49 48/48/48
f 51/51/51 49/49/49 50/50/50
f 52/52/52 51/51/51 50/50/50
f 53/53/53 51/51/51 52/52/52
f 54/54/54 53/53/53 52/52/52
f 55/55/55 53/53/53 54/54/54
f 56/56/56 55/55/55 54/54/54
f 57/57/57 55/55/55 56/56/56
f 58/58/58 57/57/57 56/56/56
f 59/59/59 57/57/57 58/58/58
f 60/60/60 59/59/59 58/58/58
f 61/61/61 59/59/59 60/60/60
f 62/62/62 61/61/61 60/60/60
f 62/62/62 63/63/63 61/61/61
f 63/63/63 64/64/64 61/61/61
f 63/63/63 65/65/65 64/64/64
f 65/65/65 66/66/66 64/64/64
f 67/67/67 66/66/66 65/65/65
f 68/68/68 67/67/67 65/65/65
f 69/69/69 67/67/67 68/68/68
f 70/70/70 69/69/69 68/68/68
f 73/73/73 72/72/72 71/71/71
f 72/72/72 74/74/74 71/71/71
f 72/72/72 75/75/75 74/74/74
f 75/75/75 76/76/76 74/74/74
f 77/77/77 76/76/76 75/75/75
f 78/78/78 77/77/77 75/75/75
f 79/79/79 77/77/77 78/78/78
f 80/80/80 79/79/79 78/78/78
f 79/79/79 80/80/80 81/81/81
f 82/82/82 79/79/79 81/81/81
f 85/85/85 84/84/84 83/83/83
f 86/86/86 85/85/85 83/83/83
f 86/86/86 83/83/83 87/87/87
f 87/87/87 83/83/83 88/88/88
f 89/89/89 86/86/86 87/87/87
f 87/87/87 88/88/88 90/90/90
f 87/87/87 90/90/90 91/91/91
f 87/87/87 91/91/91 92/92/92
f 87/87/87 92/92/92 93/93/93
f 89/89/89 87/87/87 94/94/94
f 87/87/87 95/95/95 94/94/94
f 95/95/95 96/96/96 94/94/94
f 87/87/87 93/93/93 97/97/97
f 95/95/95 98/98/98 96/96/96
f 95/95/95 99/99/99 98/98/98
f 99/99/99 100/100/100 98/98/98
f 99/99/99 95/95/95 101/101/101
f 101/101/101 95/95/95 102/102/102
f 95/95/95 103/103/103 102/102/102
f 104/104/104 103/103/103 95/95/95
f 87/87/87 104/104/104 95/95/95
f 87/87/87 105/105/105 104/104/104
f 105/105/105 106/106/106 104/104/104
f 87/87/87 107/107/107 105/105/105
f 87/87/87 97/97/97 107/107/107
f 97/97/97 108/108/108 107/107/107
f 105/105/105 107/107/107 109/109/109
f 105/105/105 109/109/109 110/110/110
f 105/105/105 110/110/110 111/111/111
f 105/105/105 111/111/111 112/112/112
f 105/105/105 112/112/112 113/113/113
f 105/105/105 113/113/113 114/114/114
f 106/106/106 105/105/105 114/114/114
f 115/115/115 106/106/106 114/114/114
f 115/115/115 114/114/114 116/116/116
f 115/115/115 116/116/116 117/117/117
f 115/115/115 117/117/117 118/118/118
f 119/119/119 115/115/115 118/118/118
f 119/119/119 118/118/118 120/120/120
f 121/121/121 119/119/119 120/120/120
f 121/121/121 120/120/120 122/122/122
f 125/125/125 124/124/124 123/123/123
f 124/124/124 126/126/126 123/123/123
f 124/124/124 127/127/127 126/126/126
f 127/127/127 128/128/128 126/126/126
f 129/129/129 126/126/126 128/128/128
f 130/130/130 129/129/129 128/128/128
f 131/131/131 130/130/130 128/128/128
f 132/132/132 131/131/131 128/128/128
f 133/133/133 132/132/132 128/128/128
f 134/134/134 133/133/133 128/128/128
f 135/135/135 134/134/134 128/128/128
f 127/127/127 136/136/136 128/128/128
f 137/137/137 135/135/135 128/128/128
f 136/136/136 138/138/138 128/128/128
f 139/139/139 138/138/138 136/136/136
f 140/140/140 138/138/138 139/139/139
f 140/140/140 141/141/141 138/138/138
f 141/141/141 142/142/142 138/138/138
f 142/142/142 143/143/143 138/138/138
f 138/138/138 143/143/143 144/144/144
f 145/145/145 138/138/138 144/144/144
f 138/138/138 145/145/145 146/146/146
f 128/128/128 138/138/138 146/146/146
f 128/128/128 146/146/146 147/147/147
f 148/148/148 137/137/137 128/128/128
f 148/148/148 128/128/128 147/147/147
f 148/148/148 149/149/149 137/137/137
f 148/148/148 150/150/150 149/149/149
f 148/148/148 151/151/151 150/150/150
f 148/148/148 152/152/152 151/151/151
f 148/148/148 153/153/153 152/152/152
f 148/148/148 154/154/154 153/153/153
f 148/148/148 147/147/147 155/155/155
f 154/154/154 148/148/148 155/155/155
f 156/156/156 154/154/154 155/155/155
f 157/157/157 156/156/156 155/155/155
f 157/157/157 155/155/155 158/158/158
f 159/159/159 157/157/157 158/158/158
f 160/160/160 159/159/159 158/158/158
f 161/161/161 160/160/160 158/158/158
f 161/161/161 162/162/162 160/160/160
