g doorR4_geo
v -0.07795245 -0.08317819 -0.009402269
v -0.07589413 -0.09376745 0.009402269
v -0.07375084 -0.09382851 -0.009402269
v -0.077075735 -0.083455354 0.009402269
v -0.07481926 -0.07873558 0.0094018085
v -0.0760741 -0.080382496 -0.009402269
v -0.07874514 -0.07719807 -0.009402269
v -0.07558397 -0.07493123 0.009401825
v -0.08435337 -0.07360437 -0.009402269
v -0.08105585 -0.070780635 0.009401834
v -0.08792227 -0.06692507 -0.009402269
v -0.08721331 -0.066341326 0.009402027
v -0.09390215 -0.06395771 -0.009402269
v -0.092432395 -0.062012468 0.009402004
v -0.09844889 -0.060169462 -0.009402269
v -0.09504795 -0.059501156 0.00940199
v -0.09517971 -0.05473289 -0.009402269
v -0.09504795 -0.059501156 0.00940199
v -0.09844889 -0.060169462 -0.009402269
v -0.09410645 -0.05535562 0.009402025
v -0.09266923 -0.048355203 -0.009402269
v -0.09031977 -0.049756415 0.0094019305
v -0.088944376 -0.04333728 -0.009402269
v -0.08921645 -0.0431498 0.009402247
v -0.086856894 -0.036550537 -0.009402269
v -0.087259375 -0.036351733 0.009402252
v -0.083240196 -0.02790953 -0.009402269
v -0.08304749 -0.027988333 0.009402264
v -0.079966374 -0.018935008 -0.009402192
v -0.07671477 -0.019898228 0.009401822
v -0.07737385 -0.009728303 -0.009402192
v -0.07677751 -0.009941163 0.009402117
v -0.07447914 -0.0011653184 -0.009402269
v -0.07566772 -0.00080612657 0.009402255
v -0.070800915 0.010035891 -0.009402192
v -0.06730097 0.008633285 0.009401891
v -0.06558975 0.021102862 -0.009402269
v -0.06476242 0.020886187 0.009402031
v -0.063169405 0.032993138 -0.009402192
v -0.060482156 0.03214576 0.009401859
v -0.059584253 0.044061065 -0.009402192
v -0.05785675 0.043242887 0.009402166
v -0.05387676 0.05520137 -0.009402269
v -0.052158356 0.05436727 0.009402037
v -0.048459206 0.06663034 -0.009402192
v -0.045412064 0.06457487 0.009401936
v -0.039650403 0.07590266 -0.009402192
v -0.038812295 0.075298205 0.009402153
v -0.032305297 0.08829584 -0.009402269
v -0.03030796 0.088655986 0.009402047
v -0.041776504 0.09675535 -0.009402192
v -0.03767433 0.09474531 0.0094019985
v -0.037046164 0.091996 0.009401886
v -0.039754637 0.093700714 -0.009402198
v -0.03030796 0.088655986 0.009402047
v -0.032305297 0.08829584 -0.009402269
v 0.09844889 0.049043972 -0.009402269
v 0.09820887 0.0481377 0.009402269
v 0.09068338 0.050966237 0.009402269
v 0.091099106 0.05359941 -0.009402269
v 0.086498775 0.04923772 0.0094018495
v 0.08804365 0.052622464 -0.009402192
v 0.077117726 0.057649475 -0.009402269
v 0.07712078 0.057686456 0.009402238
v 0.061589487 0.05636369 0.0094017815
v 0.06248991 0.061580367 -0.009402269
v 0.046830233 0.059920724 0.009401863
v 0.047516707 0.062196363 -0.009402269
v 0.032362577 0.064738035 0.00940179
v 0.03447628 0.068426065 -0.009402269
v 0.025553606 0.07176721 0.009401927
v 0.026903532 0.073631965 -0.009402269
v 0.017485237 0.07792434 0.009402016
v 0.019859027 0.08010177 -0.009402269
v 0.014000034 0.0883288 -0.009402269
v 0.011867218 0.086362585 0.009402002
v 0.0052716634 0.0952169 -0.009402269
v 0.004732399 0.093794174 0.0094021065
v -0.041776504 0.09675535 -0.009402192
v -0.03767433 0.09474531 0.0094019985
v 0.09820887 0.0481377 0.009402269
v 0.09844889 0.049043972 -0.009402269
v 0.08510175 -0.0783966 -0.009402192
v 0.084958345 -0.078378655 0.009402269
v 0.08040407 -0.093663655 -0.009402269
v 0.08026068 -0.09364571 0.009402269
v 0.06379805 -0.09675535 -0.009402269
v 0.06365457 -0.0967374 0.009402269
v -0.0042636106 -0.09530708 -0.009402269
v -0.0088341525 -0.09519466 0.009402269
v -0.07589413 -0.09376745 0.009402269
v -0.07375084 -0.09382851 -0.009402269
v 0.09844889 0.049043972 -0.009402269
v 0.091099106 0.05359941 -0.009402269
v 0.08804365 0.052622464 -0.009402192
v 0.07544664 -0.08330854 -0.009402269
v 0.08510175 -0.0783966 -0.009402192
v 0.08040407 -0.093663655 -0.009402269
v 0.06379805 -0.09675535 -0.009402269
v -0.0042636106 -0.09530708 -0.009402269
v 0.055137977 0.02249229 -0.009402269
v 0.077117726 0.057649475 -0.009402269
v 0.06248991 0.061580367 -0.009402269
v 0.047516707 0.062196363 -0.009402269
v 0.03447628 0.068426065 -0.009402269
v 0.0033929634 0.057678826 -0.009402269
v 0.026903532 0.073631965 -0.009402269
v 0.019859027 0.08010177 -0.009402269
v 0.014000034 0.0883288 -0.009402269
v 0.0052716634 0.0952169 -0.009402269
v -0.0035877419 -0.08180194 -0.009402269
v -0.0020415687 -0.05090792 -0.009402269
v -0.0760741 -0.080382496 -0.009402269
v -0.07375084 -0.09382851 -0.009402269
v -0.07795245 -0.08317819 -0.009402269
v -0.07874514 -0.07719807 -0.009402269
v -0.076670915 -0.048805833 -0.009402269
v -0.08435337 -0.07360437 -0.009402269
v -0.08792227 -0.06692507 -0.009402269
v -0.09390215 -0.06395771 -0.009402269
v -0.09844889 -0.060169462 -0.009402269
v -0.09517971 -0.05473289 -0.009402269
v -0.09266923 -0.048355203 -0.009402269
v -0.088944376 -0.04333728 -0.009402269
v -0.086856894 -0.036550537 -0.009402269
v -0.083240196 -0.02790953 -0.009402269
v -0.079966374 -0.018935008 -0.009402192
v -0.04144665 -0.00043962954 -0.009402221
v -0.07737385 -0.009728303 -0.009402192
v -0.07447914 -0.0011653184 -0.009402269
v -0.070800915 0.010035891 -0.009402192
v -0.06558975 0.021102862 -0.009402269
v -0.063169405 0.032993138 -0.009402192
v -0.059584253 0.044061065 -0.009402192
v -0.05387676 0.05520137 -0.009402269
v -0.020861454 0.056629594 -0.009402269
v -0.048459206 0.06663034 -0.009402192
v -0.039650403 0.07590266 -0.009402192
v -0.032305297 0.08829584 -0.009402269
v -0.039754637 0.093700714 -0.009402198
v -0.041776504 0.09675535 -0.009402192
v 0.086498775 0.04923772 0.0094018495
v 0.09068338 0.050966237 0.009402269
v 0.09820887 0.0481377 0.009402269
v 0.084958345 -0.078378655 0.009402269
v 0.07530319 -0.083290555 0.009401736
v 0.05599756 0.023232417 0.009401841
v -0.0055399514 -0.052616753 0.009401829
v 0.08026068 -0.09364571 0.009402269
v 0.07712078 0.057686456 0.009402238
v 0.06365457 -0.0967374 0.009402269
v 0.061589487 0.05636369 0.0094017815
v 0.046830233 0.059920724 0.009401863
v 0.032362577 0.064738035 0.00940179
v -0.0088341525 -0.09519466 0.009402269
v 0.007043514 0.05931209 0.009402083
v 0.025553606 0.07176721 0.009401927
v 0.017485237 0.07792434 0.009402016
v 0.011867218 0.086362585 0.009402002
v 0.004732399 0.093794174 0.0094021065
v -0.0075157546 -0.08077768 0.009401776
v -0.07481926 -0.07873558 0.0094018085
v -0.07589413 -0.09376745 0.009402269
v -0.077075735 -0.083455354 0.009402269
v -0.07558397 -0.07493123 0.009401825
v -0.07613771 -0.04798277 0.009401824
v -0.08105585 -0.070780635 0.009401834
v -0.08721331 -0.066341326 0.009402027
v -0.092432395 -0.062012468 0.009402004
v -0.044170056 -0.0019943283 0.009401893
v -0.07671477 -0.019898228 0.009401822
v -0.07677751 -0.009941163 0.009402117
v -0.08304749 -0.027988333 0.009402264
v -0.07566772 -0.00080612657 0.009402255
v -0.087259375 -0.036351733 0.009402252
v -0.06730097 0.008633285 0.009401891
v -0.08921645 -0.0431498 0.009402247
v -0.09031977 -0.049756415 0.0094019305
v -0.09410645 -0.05535562 0.009402025
v -0.09504795 -0.059501156 0.00940199
v -0.06476242 0.020886187 0.009402031
v -0.060482156 0.03214576 0.009401859
v -0.05785675 0.043242887 0.009402166
v -0.020378321 0.050663523 0.009402004
v -0.052158356 0.05436727 0.009402037
v -0.045412064 0.06457487 0.009401936
v -0.038812295 0.075298205 0.009402153
v -0.03030796 0.088655986 0.009402047
v -0.037046164 0.091996 0.009401886
v -0.03767433 0.09474531 0.0094019985
vt 0.64697266 0.039520264
vt 0.65234375 0.049346924
vt 0.65283203 0.039520264
vt 0.64697266 0.049346924
vt 0.64453125 0.049346924
vt 0.64501953 0.039520264
vt 0.6430664 0.039520264
vt 0.6425781 0.049346924
vt 0.63964844 0.039520264
vt 0.63964844 0.049346924
vt 0.6357422 0.039520264
vt 0.6357422 0.049346924
vt 0.6328125 0.039520264
vt 0.6323242 0.049346924
vt 0.6303711 0.039520264
vt 0.6303711 0.049346924
vt 0.6274414 0.039520264
vt 0.6303711 0.049346924
vt 0.6303711 0.039520264
vt 0.6279297 0.049346924
vt 0.62402344 0.039520264
vt 0.6245117 0.049346924
vt 0.62109375 0.039520264
vt 0.62109375 0.049346924
vt 0.6176758 0.039520264
vt 0.6176758 0.049346924
vt 0.61328125 0.039520264
vt 0.61328125 0.049346924
vt 0.60839844 0.039520264
vt 0.60839844 0.049346924
vt 0.6035156 0.039520264
vt 0.6035156 0.049346924
vt 0.5991211 0.039520264
vt 0.5991211 0.049346924
vt 0.5932617 0.039520264
vt 0.5932617 0.049346924
vt 0.58740234 0.039520264
vt 0.58691406 0.049346924
vt 0.5810547 0.039520264
vt 0.5810547 0.049346924
vt 0.5756836 0.039520264
vt 0.5756836 0.049346924
vt 0.56933594 0.039520264
vt 0.56933594 0.049346924
vt 0.5629883 0.039520264
vt 0.5629883 0.049346924
vt 0.5566406 0.039520264
vt 0.5571289 0.049346924
vt 0.5493164 0.039520264
vt 0.5493164 0.049346924
vt 0.54296875 0.039520264
vt 0.5439453 0.049346924
vt 0.54541016 0.049346924
vt 0.5444336 0.039520264
vt 0.5493164 0.049346924
vt 0.5493164 0.039520264
vt 0.6191406 0.039520264
vt 0.6191406 0.049346924
vt 0.6230469 0.049346924
vt 0.62353516 0.039520264
vt 0.6254883 0.049346924
vt 0.625 0.039520264
vt 0.63134766 0.039520264
vt 0.63134766 0.049346924
vt 0.63916016 0.049346924
vt 0.6386719 0.039520264
vt 0.6464844 0.049346924
vt 0.6464844 0.039520264
vt 0.6538086 0.049346924
vt 0.6542969 0.039520264
vt 0.6586914 0.049346924
vt 0.6586914 0.039520264
vt 0.6640625 0.049346924
vt 0.6640625 0.039520264
vt 0.6689453 0.039520264
vt 0.6689453 0.049346924
vt 0.6748047 0.039520264
vt 0.6748047 0.049346924
vt 0.69921875 0.039520264
vt 0.69677734 0.049346924
vt 0.24658203 0.02519226
vt 0.24707031 0.017807007
vt 0.17993164 0.017807007
vt 0.17993164 0.02519226
vt 0.17163086 0.017807007
vt 0.17150879 0.02519226
vt 0.16271973 0.017807007
vt 0.16271973 0.02519226
vt 0.1270752 0.017822266
vt 0.124694824 0.02520752
vt 0.08959961 0.025222778
vt 0.09069824 0.017822266
vt 0.07647705 0.22668457
vt 0.07946777 0.22851562
vt 0.08123779 0.22827148
vt 0.08673096 0.17272949
vt 0.08258057 0.17480469
vt 0.0847168 0.1685791
vt 0.09173584 0.16723633
vt 0.1204834 0.16784668
vt 0.095214844 0.21594238
vt 0.0859375 0.23022461
vt 0.09210205 0.2319336
vt 0.09838867 0.23217773
vt 0.103881836 0.23474121
vt 0.117004395 0.23034668
vt 0.107055664 0.2368164
vt 0.11004639 0.23950195
vt 0.11248779 0.24279785
vt 0.11621094 0.24560547
vt 0.12005615 0.17346191
vt 0.119384766 0.18603516
vt 0.15063477 0.1739502
vt 0.14978027 0.16845703
vt 0.15148926 0.17285156
vt 0.1517334 0.17529297
vt 0.1508789 0.18688965
vt 0.15405273 0.17675781
vt 0.15563965 0.17956543
vt 0.15808105 0.18078613
vt 0.16003418 0.18225098
vt 0.1586914 0.18444824
vt 0.15759277 0.18713379
vt 0.15600586 0.18920898
vt 0.15515137 0.19189453
vt 0.15356445 0.19543457
vt 0.15222168 0.19909668
vt 0.13598633 0.20666504
vt 0.15112305 0.20288086
vt 0.14990234 0.20629883
vt 0.14831543 0.2109375
vt 0.14611816 0.2154541
vt 0.1451416 0.22033691
vt 0.14355469 0.22485352
vt 0.14111328 0.22937012
vt 0.12719727 0.2298584
vt 0.13891602 0.23400879
vt 0.13513184 0.23779297
vt 0.13208008 0.24279785
vt 0.13513184 0.24499512
vt 0.13598633 0.24633789
vt 0.33813477 0.52685547
vt 0.3400879 0.52783203
vt 0.34326172 0.5263672
vt 0.3371582 0.4736328
vt 0.33325195 0.4716797
vt 0.3251953 0.5161133
vt 0.2993164 0.484375
vt 0.33520508 0.4675293
vt 0.33398438 0.5307617
vt 0.32836914 0.46606445
vt 0.32763672 0.52978516
vt 0.32128906 0.53125
vt 0.31518555 0.5332031
vt 0.29785156 0.46655273
vt 0.3046875 0.53125
vt 0.3125 0.5361328
vt 0.30908203 0.5385742
vt 0.30664062 0.54248047
vt 0.30371094 0.54541016
vt 0.29858398 0.4724121
vt 0.27026367 0.47314453
vt 0.2697754 0.46679688
vt 0.2692871 0.4711914
vt 0.27001953 0.47485352
vt 0.2697754 0.48608398
vt 0.26757812 0.4765625
vt 0.26513672 0.47827148
vt 0.26293945 0.4802246
vt 0.28320312 0.5053711
vt 0.26953125 0.49780273
vt 0.2692871 0.5019531
vt 0.2668457 0.49438477
vt 0.2697754 0.5058594
vt 0.26489258 0.49072266
vt 0.2734375 0.5097656
vt 0.26416016 0.4880371
vt 0.26367188 0.48535156
vt 0.26220703 0.48291016
vt 0.26171875 0.48120117
vt 0.27441406 0.51464844
vt 0.27612305 0.51953125
vt 0.27734375 0.5239258
vt 0.29296875 0.52734375
vt 0.27978516 0.5288086
vt 0.2824707 0.5332031
vt 0.2854004 0.53759766
vt 0.28881836 0.54296875
vt 0.2861328 0.5444336
vt 0.28588867 0.54541016
vn -0.99902344 -0.042053223 -0.016036987
vn -0.96777344 -0.24853516 -0.0340271
vn -0.96777344 -0.24853516 -0.0340271
vn -0.99902344 -0.04510498 -0.016311646
vn -0.9946289 0.017959595 0.10345459
vn -0.9926758 0.06921387 0.09680176
vn -0.6948242 -0.6933594 0.19091797
vn -0.6982422 -0.6904297 0.19042969
vn -0.6621094 -0.7294922 0.17150879
vn -0.6586914 -0.7324219 0.17285156
vn -0.6557617 -0.74609375 0.11541748
vn -0.6567383 -0.7451172 0.11566162
vn -0.5917969 -0.7988281 0.10845947
vn -0.5917969 -0.7988281 0.10845947
vn -0.6542969 -0.74365234 0.13647461
vn -0.6542969 -0.74365234 0.13647461
vn -0.8935547 0.43579102 0.10626221
vn -0.91015625 0.39990234 0.107788086
vn -0.91015625 0.39990234 0.107788086
vn -0.89404297 0.43554688 0.10632324
vn -0.9013672 0.4248047 0.08496094
vn -0.9008789 0.42529297 0.08532715
vn -0.9428711 0.33203125 0.019241333
vn -0.9433594 0.3317871 0.019012451
vn -0.9321289 0.3618164 -0.01235199
vn -0.9321289 0.3618164 -0.012336731
vn -0.88916016 0.45507812 0.0446167
vn -0.88916016 0.45507812 0.044677734
vn -0.9433594 0.31640625 0.10070801
vn -0.94384766 0.31518555 0.10076904
vn -0.98339844 0.17443848 0.04650879
vn -0.98339844 0.17407227 0.046936035
vn -0.921875 0.38623047 0.03152466
vn -0.9223633 0.3852539 0.03125
vn -0.90771484 0.4086914 0.09539795
vn -0.9082031 0.40771484 0.09564209
vn -0.94921875 0.29516602 0.109680176
vn -0.94921875 0.29516602 0.109680176
vn -0.9560547 0.2722168 0.11035156
vn -0.9560547 0.27246094 0.11029053
vn -0.92333984 0.36645508 0.11260986
vn -0.9238281 0.36572266 0.11273193
vn -0.8745117 0.46948242 0.1237793
vn -0.87402344 0.46948242 0.12390137
vn -0.8261719 0.546875 0.13562012
vn -0.8261719 0.546875 0.13562012
vn -0.8222656 0.56152344 0.093444824
vn -0.82177734 0.5620117 0.09350586
vn -0.8496094 0.5229492 0.06744385
vn -0.8496094 0.5229492 0.06744385
vn -0.90283203 -0.41210938 0.1227417
vn -0.90283203 -0.41210938 0.1227417
vn -0.63720703 -0.7685547 0.058410645
vn -0.671875 -0.73779297 0.06585693
vn -0.52441406 -0.85058594 0.035186768
vn -0.52441406 -0.85058594 0.035186768
vn 0.4428711 0.89208984 0.091674805
vn 0.4428711 0.89208984 0.091674805
vn 0.2006836 0.97314453 0.11224365
vn 0.20666504 0.97216797 0.11187744
vn 0.3708496 0.921875 0.11279297
vn 0.3486328 0.9301758 0.11444092
vn 0.30151367 0.9453125 0.12322998
vn 0.30126953 0.9453125 0.12322998
vn 0.111328125 0.9794922 0.16918945
vn 0.11077881 0.9794922 0.1685791
vn 0.2524414 0.94921875 0.18713379
vn 0.25195312 0.94921875 0.18725586
vn 0.4777832 0.8613281 0.17333984
vn 0.47851562 0.86083984 0.17333984
vn 0.63671875 0.7548828 0.15686035
vn 0.63671875 0.7553711 0.15673828
vn 0.7319336 0.6640625 0.15332031
vn 0.7319336 0.6640625 0.15332031
vn 0.7426758 0.65527344 0.13684082
vn 0.74316406 0.65478516 0.13696289
vn 0.15698242 0.98291016 0.09686279
vn 0.15734863 0.98291016 0.09686279
vn 0.027709961 0.99560547 0.088256836
vn 0.027709961 0.99560547 0.088256836
vn 0.8701172 -0.09112549 0.48461914
vn 0.8383789 -0.087768555 -0.53808594
vn 0.82470703 -0.10430908 -0.55615234
vn 0.8095703 -0.10241699 0.578125
vn 0.64160156 -0.7421875 -0.19421387
vn 0.6376953 -0.7426758 0.20410156
vn 0.013824463 -0.7402344 -0.6723633
vn 0.0128479 -0.7109375 0.703125
vn -0.017044067 -0.80078125 -0.5986328
vn -0.016601562 -0.78027344 0.6254883
vn -0.016555786 -0.77783203 0.62841797
vn -0.016784668 -0.7885742 -0.6147461
vn 0.8383789 -0.087768555 -0.53808594
vn -1.6391277E-05 -2.6583672E-05 -1
vn 1.3113022E-06 -1.7881393E-07 -1
vn 1.7881393E-07 0 -1
vn 0.82470703 -0.10430908 -0.55615234
vn 0.64160156 -0.7421875 -0.19421387
vn 0.013824463 -0.7402344 -0.6723633
vn -0.017044067 -0.80078125 -0.5986328
vn 4.172325E-07 0 -1
vn 2.7418137E-06 -1.7881393E-06 -1
vn -0 0 -1
vn -0 0 -1
vn -0 0 -1
vn -3.5762787E-07 0 -1
vn -0 0 -1
vn -0 0 -1
vn -0 0 -1
vn -0 1.7881393E-07 -1
vn -0 0 -1
vn -1.1920929E-07 1.1920929E-07 -1
vn -0 0 -1
vn -0.016784668 -0.7885742 -0.6147461
vn 7.748604E-07 0 -1
vn -0 0 -1
vn -2.9802322E-07 8.940697E-07 -1
vn 2.3841858E-07 0 -1
vn -0 0 -1
vn -0 0 -1
vn -1.1920929E-07 0 -1
vn -0 0 -1
vn -0 0 -1
vn -1.1920929E-07 0 -1
vn 1.7881393E-07 0 -1
vn 9.4771385E-06 3.0398369E-06 -1
vn -3.5762787E-07 1.3113022E-06 -1
vn -7.1525574E-07 2.9802322E-07 -1
vn -0 -2.682209E-06 -1
vn 1.4901161E-06 -2.2053719E-06 -1
vn -7.748604E-07 4.7683716E-07 -1
vn 2.682209E-06 7.748604E-07 -1
vn 7.748604E-07 1.4901161E-06 -1
vn -1.5497208E-06 -1.1324883E-06 -1
vn -1.4305115E-06 -5.9604645E-07 -1
vn -1.1920929E-06 -3.5762787E-07 -1
vn -9.536743E-07 4.887581E-06 -1
vn -2.0861626E-06 -2.3841858E-07 -1
vn -1.3113022E-06 1.4901161E-06 -1
vn -1.7285347E-06 4.1127205E-06 -1
vn -1.5497208E-06 4.7683716E-07 -1
vn -2.2351742E-05 -6.556511E-07 1
vn -4.774332E-05 -0.0001269579 1
vn 0.8701172 -0.09112549 0.48461914
vn 0.8095703 -0.10241699 0.578125
vn -5.2452087E-06 3.2782555E-06 1
vn 1.5497208E-06 -1.3709068E-06 1
vn 9.536743E-07 -1.6093254E-06 1
vn 0.6376953 -0.7426758 0.20410156
vn -2.3841858E-07 -1.13248825E-05 1
vn 0.0128479 -0.7109375 0.703125
vn -1.2993813E-05 3.993511E-06 1
vn -1.7881393E-06 -1.0728836E-06 1
vn 8.404255E-06 4.23193E-06 1
vn -0.016601562 -0.78027344 0.6254883
vn 1.1920929E-06 -1.3113022E-06 1
vn 1.13248825E-05 -4.351139E-06 1
vn 7.5101852E-06 -1.6093254E-06 1
vn 1.2040138E-05 8.34465E-07 1
vn -2.9802322E-07 -5.9604645E-07 1
vn 7.748604E-07 1.5497208E-05 1
vn 1.013279E-06 1.3291836E-05 1
vn -0.016555786 -0.77783203 0.62841797
vn 0.00016462803 1.8894672E-05 1
vn 2.9802322E-07 -1.3113022E-06 1
vn 4.7683716E-07 -1.013279E-06 1
vn 1.168251E-05 -2.0861626E-06 1
vn 1.6868114E-05 8.34465E-07 1
vn 6.4969063E-06 3.7550926E-06 1
vn -5.364418E-07 -1.66893E-06 1
vn 8.34465E-07 -2.0861626E-06 1
vn 1.2814999E-05 -2.4616718E-05 1
vn 5.8054924E-05 -1.9669533E-06 1
vn 1.1444092E-05 -5.9604645E-07 1
vn 2.5570393E-05 -1.23381615E-05 1
vn 3.9339066E-06 8.761883E-06 1
vn 2.2351742E-05 -2.7179718E-05 1
vn 9.119511E-06 -1.3291836E-05 1
vn 8.881092E-06 8.34465E-07 1
vn 9.23872E-06 -7.748604E-07 1
vn 1.013279E-05 3.0994415E-06 1
vn -2.4020672E-05 -1.0430813E-05 1
vn 3.516674E-06 -2.3245811E-06 1
vn -2.3841858E-07 -1.7285347E-06 1
vn 4.4703484E-06 -1.013279E-06 1
vn -4.053116E-06 -2.3841858E-06 1
vn -1.7881393E-07 -2.3841858E-06 1
vn -3.5762787E-07 2.861023E-06 1
vn -4.4107437E-06 -2.092123E-05 1
vn -3.516674E-06 -4.1782856E-05 1
g doorR4_geo_0
f 3/3/3 2/2/2 1/1/1
f 2/2/2 4/4/4 1/1/1
f 1/1/1 4/4/4 5/5/5
f 6/6/6 1/1/1 5/5/5
f 6/6/6 5/5/5 7/7/7
f 5/5/5 8/8/8 7/7/7
f 7/7/7 8/8/8 9/9/9
f 8/8/8 10/10/10 9/9/9
f 9/9/9 10/10/10 11/11/11
f 10/10/10 12/12/12 11/11/11
f 11/11/11 12/12/12 13/13/13
f 12/12/12 14/14/14 13/13/13
f 13/13/13 14/14/14 15/15/15
f 14/14/14 16/16/16 15/15/15
f 19/19/19 18/18/18 17/17/17
f 18/18/18 20/20/20 17/17/17
f 17/17/17 20/20/20 21/21/21
f 20/20/20 22/22/22 21/21/21
f 21/21/21 22/22/22 23/23/23
f 22/22/22 24/24/24 23/23/23
f 23/23/23 24/24/24 25/25/25
f 24/24/24 26/26/26 25/25/25
f 25/25/25 26/26/26 27/27/27
f 26/26/26 28/28/28 27/27/27
f 27/27/27 28/28/28 29/29/29
f 28/28/28 30/30/30 29/29/29
f 29/29/29 30/30/30 31/31/31
f 30/30/30 32/32/32 31/31/31
f 31/31/31 32/32/32 33/33/33
f 32/32/32 34/34/34 33/33/33
f 33/33/33 34/34/34 35/35/35
f 34/34/34 36/36/36 35/35/35
f 35/35/35 36/36/36 37/37/37
f 36/36/36 38/38/38 37/37/37
f 37/37/37 38/38/38 39/39/39
f 38/38/38 40/40/40 39/39/39
f 39/39/39 40/40/40 41/41/41
f 40/40/40 42/42/42 41/41/41
f 41/41/41 42/42/42 43/43/43
f 42/42/42 44/44/44 43/43/43
f 43/43/43 44/44/44 45/45/45
f 44/44/44 46/46/46 45/45/45
f 45/45/45 46/46/46 47/47/47
f 46/46/46 48/48/48 47/47/47
f 47/47/47 48/48/48 49/49/49
f 48/48/48 50/50/50 49/49/49
f 53/53/53 52/52/52 51/51/51
f 54/54/54 53/53/53 51/51/51
f 55/55/55 53/53/53 54/54/54
f 56/56/56 55/55/55 54/54/54
f 59/59/59 58/58/58 57/57/57
f 60/60/60 59/59/59 57/57/57
f 61/61/61 59/59/59 60/60/60
f 62/62/62 61/61/61 60/60/60
f 62/62/62 63/63/63 61/61/61
f 63/63/63 64/64/64 61/61/61
f 65/65/65 64/64/64 63/63/63
f 66/66/66 65/65/65 63/63/63
f 67/67/67 65/65/65 66/66/66
f 68/68/68 67/67/67 66/66/66
f 69/69/69 67/67/67 68/68/68
f 70/70/70 69/69/69 68/68/68
f 71/71/71 69/69/69 70/70/70
f 72/72/72 71/71/71 70/70/70
f 73/73/73 71/71/71 72/72/72
f 74/74/74 73/73/73 72/72/72
f 74/74/74 75/75/75 73/73/73
f 75/75/75 76/76/76 73/73/73
f 75/75/75 77/77/77 76/76/76
f 77/77/77 78/78/78 76/76/76
f 77/77/77 79/79/79 78/78/78
f 79/79/79 80/80/80 78/78/78
f 83/83/83 82/82/82 81/81/81
f 84/84/84 83/83/83 81/81/81
f 83/83/83 84/84/84 85/85/85
f 84/84/84 86/86/86 85/85/85
f 85/85/85 86/86/86 87/87/87
f 86/86/86 88/88/88 87/87/87
f 89/89/89 87/87/87 88/88/88
f 90/90/90 89/89/89 88/88/88
f 90/90/90 91/91/91 89/89/89
f 91/91/91 92/92/92 89/89/89
f 95/95/95 94/94/94 93/93/93
f 96/96/96 95/95/95 93/93/93
f 97/97/97 96/96/96 93/93/93
f 98/98/98 96/96/96 97/97/97
f 99/99/99 96/96/96 98/98/98
f 99/99/99 100/100/100 96/96/96
f 95/95/95 96/96/96 101/101/101
f 102/102/102 95/95/95 101/101/101
f 103/103/103 102/102/102 101/101/101
f 103/103/103 101/101/101 104/104/104
f 101/101/101 105/105/105 104/104/104
f 101/101/101 106/106/106 105/105/105
f 101/101/101 96/96/96 106/106/106
f 106/106/106 107/107/107 105/105/105
f 106/106/106 108/108/108 107/107/107
f 106/106/106 109/109/109 108/108/108
f 106/106/106 110/110/110 109/109/109
f 100/100/100 111/111/111 96/96/96
f 96/96/96 112/112/112 106/106/106
f 96/96/96 111/111/111 112/112/112
f 113/113/113 111/111/111 100/100/100
f 114/114/114 113/113/113 100/100/100
f 114/114/114 115/115/115 113/113/113
f 111/111/111 113/113/113 116/116/116
f 112/112/112 111/111/111 116/116/116
f 117/117/117 112/112/112 116/116/116
f 117/117/117 116/116/116 118/118/118
f 117/117/117 118/118/118 119/119/119
f 117/117/117 119/119/119 120/120/120
f 117/117/117 120/120/120 121/121/121
f 117/117/117 121/121/121 122/122/122
f 117/117/117 122/122/122 123/123/123
f 117/117/117 123/123/123 124/124/124
f 117/117/117 124/124/124 125/125/125
f 117/117/117 125/125/125 126/126/126
f 117/117/117 126/126/126 127/127/127
f 112/112/112 117/117/117 127/127/127
f 128/128/128 112/112/112 127/127/127
f 128/128/128 127/127/127 129/129/129
f 128/128/128 129/129/129 130/130/130
f 128/128/128 130/130/130 131/131/131
f 128/128/128 131/131/131 132/132/132
f 128/128/128 132/132/132 133/133/133
f 128/128/128 133/133/133 134/134/134
f 128/128/128 134/134/134 135/135/135
f 106/106/106 112/112/112 128/128/128
f 136/136/136 128/128/128 135/135/135
f 136/136/136 106/106/106 128/128/128
f 136/136/136 135/135/135 137/137/137
f 136/136/136 137/137/137 138/138/138
f 136/136/136 138/138/138 139/139/139
f 106/106/106 136/136/136 139/139/139
f 106/106/106 139/139/139 110/110/110
f 139/139/139 140/140/140 110/110/110
f 140/140/140 141/141/141 110/110/110
f 144/144/144 143/143/143 142/142/142
f 145/145/145 144/144/144 142/142/142
f 146/146/146 145/145/145 142/142/142
f 146/146/146 142/142/142 147/147/147
f 148/148/148 146/146/146 147/147/147
f 146/146/146 149/149/149 145/145/145
f 147/147/147 142/142/142 150/150/150
f 146/146/146 151/151/151 149/149/149
f 147/147/147 150/150/150 152/152/152
f 147/147/147 152/152/152 153/153/153
f 147/147/147 153/153/153 154/154/154
f 155/155/155 151/151/151 146/146/146
f 154/154/154 156/156/156 147/147/147
f 156/156/156 148/148/148 147/147/147
f 154/154/154 157/157/157 156/156/156
f 157/157/157 158/158/158 156/156/156
f 158/158/158 159/159/159 156/156/156
f 159/159/159 160/160/160 156/156/156
f 161/161/161 155/155/155 146/146/146
f 148/148/148 161/161/161 146/146/146
f 161/161/161 162/162/162 155/155/155
f 162/162/162 161/161/161 148/148/148
f 162/162/162 163/163/163 155/155/155
f 162/162/162 164/164/164 163/163/163
f 165/165/165 162/162/162 148/148/148
f 166/166/166 165/165/165 148/148/148
f 166/166/166 167/167/167 165/165/165
f 166/166/166 168/168/168 167/167/167
f 166/166/166 169/169/169 168/168/168
f 148/148/148 170/170/170 166/166/166
f 148/148/148 156/156/156 170/170/170
f 170/170/170 171/171/171 166/166/166
f 170/170/170 172/172/172 171/171/171
f 166/166/166 171/171/171 173/173/173
f 170/170/170 174/174/174 172/172/172
f 166/166/166 173/173/173 175/175/175
f 170/170/170 176/176/176 174/174/174
f 166/166/166 175/175/175 177/177/177
f 166/166/166 177/177/177 178/178/178
f 166/166/166 178/178/178 179/179/179
f 166/166/166 179/179/179 169/169/169
f 179/179/179 180/180/180 169/169/169
f 170/170/170 181/181/181 176/176/176
f 170/170/170 182/182/182 181/181/181
f 170/170/170 183/183/183 182/182/182
f 170/170/170 184/184/184 183/183/183
f 184/184/184 185/185/185 183/183/183
f 184/184/184 186/186/186 185/185/185
f 184/184/184 187/187/187 186/186/186
f 156/156/156 184/184/184 170/170/170
f 184/184/184 156/156/156 187/187/187
f 156/156/156 188/188/188 187/187/187
f 156/156/156 160/160/160 188/188/188
f 160/160/160 189/189/189 188/188/188
f 160/160/160 190/190/190 189/189/189
