g door_vertical_geo07
v -0.049227048 1.4547473 -0.009998779
v -0.049227048 -1.4547473 -0.009998779
v 0.049227048 -1.4547473 -0.009998779
v 0.049227048 1.4547473 -0.009998779
v 0.049227048 1.4547473 0.010001221
v 0.049227048 1.4547473 -0.009998779
v 0.049227048 -1.4547473 -0.009998779
v 0.049227048 -1.4547473 0.010001221
v -0.049227048 -1.4547473 0.010001221
v -0.049227048 -1.4547473 -0.009998779
v -0.049227048 1.4547473 -0.009998779
v -0.049227048 1.4547473 0.010001221
vt 0.14685059 0.00390625
vt 0.14685059 0.89746094
vt 0.17712402 0.89746094
vt 0.17712402 0.00390625
vt 0.18322754 0.00390625
vt 0.17712402 0.00390625
vt 0.17712402 0.89746094
vt 0.18322754 0.89746094
vt 0.14074707 0.89746094
vt 0.14685059 0.89746094
vt 0.14685059 0.00390625
vt 0.14074707 0.00390625
vn -0 0 -1
vn -0 0 -1
vn -0 0 -1
vn -0 0 -1
vn 1 0 0
vn 1 0 0
vn 1 0 0
vn 1 0 0
vn -1 0 0
vn -1 0 0
vn -1 0 0
vn -1 0 0
g door_vertical_geo07_0
f 3/3/3 2/2/2 1/1/1
f 4/4/4 3/3/3 1/1/1
f 7/7/7 6/6/6 5/5/5
f 8/8/8 7/7/7 5/5/5
f 11/11/11 10/10/10 9/9/9
f 12/12/12 11/11/11 9/9/9
