g doorL10_geo
v -0.01629898 0.008342885 -0.01021154
v -0.011457653 0.01041831 -0.01021154
v -0.011692009 0.009628687 0.010207607
v -0.014879074 0.007971258 0.010208837
v -0.008106403 -0.0064547253 -0.010211533
v -0.0128803635 -0.0045695016 -0.01021154
v -0.012170524 -0.0058022975 -0.01021154
v -0.011878833 0.0012171078 -0.01021154
v 0.003277626 -0.0042824266 -0.01021154
v 0.0025431823 -0.012208127 -0.01021154
v 0.013605766 -0.0094489 -0.01021154
v 0.012891693 -0.016266316 -0.010211533
v 0.01629898 0.016266316 -0.01021154
v 0.0049573136 0.013842554 -0.01021154
v -0.011457653 0.01041831 -0.01021154
v -0.01629898 0.008342885 -0.01021154
v -0.0128803635 -0.0045695016 -0.01021154
v -0.012020206 -0.0039007855 0.01020891
v -0.011186942 -0.0051567745 0.0102087995
v -0.012170524 -0.0058022975 -0.01021154
v -0.012170524 -0.0058022975 -0.01021154
v -0.011186942 -0.0051567745 0.0102087995
v -0.00808445 -0.006390047 0.010204251
v -0.008106403 -0.0064547253 -0.010211533
v 0.0025431823 -0.012208127 -0.01021154
v 0.0027159308 -0.011835852 0.010205325
v 0.012891693 -0.016266316 -0.010211533
v 0.012626801 -0.015830832 0.010205167
v 0.013605766 -0.0094489 -0.01021154
v 0.012891693 -0.016266316 -0.010211533
v 0.012626801 -0.015830832 0.010205167
v 0.013230095 -0.0094095515 0.010205266
v 0.016088905 0.015796423 0.010204617
v 0.01629898 0.016266316 -0.01021154
v 0.013230095 -0.0094095515 0.010205266
v 0.012626801 -0.015830832 0.010205167
v 0.0027159308 -0.011835852 0.010205325
v 0.0032776068 -0.0042824266 0.01021154
v -0.00808445 -0.006390047 0.010204251
v 0.005362587 0.0116479015 0.01021121
v 0.016088905 0.015796423 0.010204617
v -0.011692009 0.009628687 0.010207607
v -0.011318817 0.0013473034 0.010205535
v -0.014879074 0.007971258 0.010208837
v -0.011186942 -0.0051567745 0.0102087995
v -0.012020206 -0.0039007855 0.01020891
v -0.01629898 0.008342885 -0.01021154
v -0.014879074 0.007971258 0.010208837
v -0.011318817 0.0013473034 0.010205535
v -0.011878833 0.0012171078 -0.01021154
v -0.011318817 0.0013473034 0.010205535
v -0.012020206 -0.0039007855 0.01020891
v -0.0128803635 -0.0045695016 -0.01021154
v -0.011878833 0.0012171078 -0.01021154
v 0.005362587 0.0116479015 0.01021121
v -0.011692009 0.009628687 0.010207607
v -0.011457653 0.01041831 -0.01021154
v 0.0049573136 0.013842554 -0.01021154
v 0.016088905 0.015796423 0.010204617
v 0.01629898 0.016266316 -0.01021154
vt 0.69433594 0.040618896
vt 0.69189453 0.040618896
vt 0.6923828 0.050689697
vt 0.69433594 0.050689697
vt 0.086364746 0.2199707
vt 0.08850098 0.22070312
vt 0.0881958 0.22021484
vt 0.087890625 0.22314453
vt 0.08129883 0.2208252
vt 0.08166504 0.2175293
vt 0.0769043 0.21875
vt 0.07727051 0.21594238
vt 0.075683594 0.22924805
vt 0.080444336 0.22827148
vt 0.08758545 0.22692871
vt 0.08972168 0.22607422
vt 0.7006836 0.040618896
vt 0.7006836 0.050689697
vt 0.70166016 0.050689697
vt 0.70166016 0.040618896
vt 0.70166016 0.040618896
vt 0.70166016 0.050689697
vt 0.703125 0.050689697
vt 0.7036133 0.040618896
vt 0.7089844 0.040618896
vt 0.7089844 0.050689697
vt 0.71435547 0.040618896
vt 0.71435547 0.050689697
vt 0.66503906 0.040618896
vt 0.6616211 0.040618896
vt 0.6616211 0.050689697
vt 0.66503906 0.050689697
vt 0.6777344 0.050689697
vt 0.67822266 0.040618896
vt 0.34350586 0.5288086
vt 0.34350586 0.5258789
vt 0.3388672 0.52734375
vt 0.33911133 0.5307617
vt 0.33398438 0.5292969
vt 0.33984375 0.5385742
vt 0.34472656 0.5410156
vt 0.3322754 0.5366211
vt 0.33251953 0.53271484
vt 0.3310547 0.5361328
vt 0.33251953 0.52978516
vt 0.3322754 0.53027344
vt 0.69433594 0.040618896
vt 0.69433594 0.050689697
vt 0.6982422 0.050689697
vt 0.6982422 0.040618896
vt 0.6982422 0.050689697
vt 0.7006836 0.050689697
vt 0.7006836 0.040618896
vt 0.6982422 0.040618896
vt 0.68408203 0.050689697
vt 0.6923828 0.050689697
vt 0.69189453 0.040618896
vt 0.68359375 0.040618896
vt 0.6777344 0.050689697
vt 0.67822266 0.040618896
vn -0.42138672 0.90625 0.037994385
vn -0.42138672 0.90625 0.037994385
vn -0.42138672 0.90625 0.037994385
vn -0.42138672 0.90625 0.037994385
vn -3.5762787E-07 -7.1525574E-07 -1
vn 1.3709068E-06 0 -1
vn 1.3709068E-06 0 -1
vn -0 0 -1
vn -1.1920929E-07 0 -1
vn -2.3841858E-07 -3.5762787E-07 -1
vn 0.91796875 -0.0982666 -0.38427734
vn 0.8989258 -0.08947754 -0.42895508
vn 0.9350586 -0.101989746 -0.3388672
vn -0 0 -1
vn -0 0 -1
vn -0 0 -1
vn -0.8486328 -0.5263672 0.055236816
vn -0.8486328 -0.5263672 0.055236816
vn -0.8486328 -0.5263672 0.055236816
vn -0.8486328 -0.5263672 0.055236816
vn -0.25439453 -0.9667969 0.023071289
vn -0.25439453 -0.9667969 0.023071289
vn -0.41577148 -0.9091797 0.014427185
vn -0.41577148 -0.9091797 0.014427185
vn -0.4189453 -0.90771484 0.01448822
vn -0.4189453 -0.90771484 0.01448822
vn -0.36938477 -0.9291992 0.017547607
vn -0.36938477 -0.9291992 0.017547607
vn 0.91796875 -0.0982666 -0.38427734
vn 0.8989258 -0.08947754 -0.42895508
vn 0.90966797 -0.09069824 0.40576172
vn 0.92333984 -0.09893799 0.37109375
vn 0.95410156 -0.104003906 0.28051758
vn 0.9350586 -0.101989746 -0.3388672
vn 0.92333984 -0.09893799 0.37109375
vn 0.90966797 -0.09069824 0.40576172
vn -5.143881E-05 -0.00054836273 1
vn 0.00016987324 -0.00015211105 1
vn -0.0003786087 -0.00041222572 1
vn 0.0002799034 -5.0485134E-05 1
vn 0.95410156 -0.104003906 0.28051758
vn -0.00027179718 -5.8293343E-05 1
vn -0.00029230118 -7.468462E-05 1
vn 0.0005040169 -0.00022745132 1
vn 0.0015211105 0.0005326271 1
vn 0.0015211105 0.0005326271 1
vn -0.8642578 -0.50146484 0.03894043
vn -0.8642578 -0.50146484 0.03894043
vn -0.8642578 -0.50146484 0.03894043
vn -0.8642578 -0.50146484 0.03894043
vn -0.98779297 0.15246582 0.03137207
vn -0.98779297 0.15246582 0.03137207
vn -0.98779297 0.15246582 0.03137207
vn -0.98779297 0.15246582 0.03137207
vn -0.21069336 0.97509766 0.06921387
vn -0.16015625 0.984375 0.072631836
vn -0.16015625 0.984375 0.072631836
vn -0.21105957 0.97509766 0.06915283
vn -0.2849121 0.95654297 0.06378174
vn -0.2849121 0.95654297 0.06378174
g doorL10_geo_0
f 3/3/3 2/2/2 1/1/1
f 4/4/4 3/3/3 1/1/1
f 7/7/7 6/6/6 5/5/5
f 6/6/6 8/8/8 5/5/5
f 5/5/5 8/8/8 9/9/9
f 10/10/10 5/5/5 9/9/9
f 10/10/10 9/9/9 11/11/11
f 12/12/12 10/10/10 11/11/11
f 11/11/11 9/9/9 13/13/13
f 9/9/9 14/14/14 13/13/13
f 14/14/14 9/9/9 8/8/8
f 15/15/15 14/14/14 8/8/8
f 15/15/15 8/8/8 16/16/16
f 19/19/19 18/18/18 17/17/17
f 20/20/20 19/19/19 17/17/17
f 23/23/23 22/22/22 21/21/21
f 24/24/24 23/23/23 21/21/21
f 23/23/23 24/24/24 25/25/25
f 26/26/26 23/23/23 25/25/25
f 26/26/26 25/25/25 27/27/27
f 28/28/28 26/26/26 27/27/27
f 31/31/31 30/30/30 29/29/29
f 32/32/32 31/31/31 29/29/29
f 32/32/32 29/29/29 33/33/33
f 29/29/29 34/34/34 33/33/33
f 37/37/37 36/36/36 35/35/35
f 38/38/38 37/37/37 35/35/35
f 39/39/39 37/37/37 38/38/38
f 38/38/38 35/35/35 40/40/40
f 35/35/35 41/41/41 40/40/40
f 38/38/38 40/40/40 42/42/42
f 39/39/39 38/38/38 43/43/43
f 43/43/43 38/38/38 42/42/42
f 44/44/44 43/43/43 42/42/42
f 45/45/45 39/39/39 43/43/43
f 46/46/46 45/45/45 43/43/43
f 49/49/49 48/48/48 47/47/47
f 50/50/50 49/49/49 47/47/47
f 53/53/53 52/52/52 51/51/51
f 54/54/54 53/53/53 51/51/51
f 57/57/57 56/56/56 55/55/55
f 58/58/58 57/57/57 55/55/55
f 58/58/58 55/55/55 59/59/59
f 60/60/60 58/58/58 59/59/59
