g doorL00_geo
v -0.048107136 -0.02515415 -0.010578211
v -0.046494186 -0.02432142 0.010570268
v -0.04328038 -0.029041998 0.01055719
v -0.043203287 -0.02909649 -0.010578211
v 0.048107136 -0.030153582 -0.010578211
v 0.048095863 -0.029651647 0.010556898
v -0.048107136 -0.016075904 -0.010578211
v -0.047495283 0.018104384 -0.010578211
v -0.04551862 0.015891831 0.010574575
v -0.047804106 -0.016061552 0.010560389
v -0.046494186 -0.02432142 0.010570268
v -0.048107136 -0.02515415 -0.010578211
v -0.042393807 0.020245926 -0.010578211
v -0.04551862 0.015891831 0.010574575
v -0.047495283 0.018104384 -0.010578211
v -0.04086813 0.017811663 0.010560193
v -0.009328806 0.020336801 0.010578211
v -0.010722918 0.02368068 -0.010578211
v -0.042393807 0.020245926 -0.010578211
v -0.047495283 0.018104384 -0.010578211
v -0.048107136 -0.016075904 -0.010578211
v -0.043143384 -0.016090954 -0.010578211
v -0.048107136 -0.02515415 -0.010578211
v -0.043203287 -0.02909649 -0.010578211
v 0.048107136 -0.030153582 -0.010578211
v 0.03577678 -0.017595375 -0.010578211
v 0.013137414 0.0048989225 -0.010578211
v 0.008788702 0.00947943 -0.010578211
v 0.008619278 0.015573847 -0.010578211
v 0.0038818335 0.019329425 -0.010578211
v -0.010722918 0.02368068 -0.010578211
v 0.0026445745 0.02510544 -0.010578211
v -0.009241876 0.028696625 -0.010578211
v -0.0059605357 0.030153582 -0.010578211
v -0.0095044635 0.026342519 0.010573179
v -0.009328806 0.020336801 0.010578211
v -0.010722918 0.02368068 -0.010578211
v -0.009241876 0.028696625 -0.010578211
v -0.0059605357 0.030153582 -0.010578211
v -0.006842575 0.029405043 0.010561475
v -0.006842575 0.029405043 0.010561475
v -0.0059605357 0.030153582 -0.010578211
v 0.0026445745 0.02510544 -0.010578211
v 0.00064995524 0.02346699 0.010572281
v 0.0031443047 0.01883075 0.010564678
v 0.0038818335 0.019329425 -0.010578211
v 0.006331699 0.014454367 0.010577096
v 0.008619278 0.015573847 -0.010578211
v 0.007079146 0.008848174 0.010569569
v 0.008788702 0.00947943 -0.010578211
v 0.011692445 0.0035948108 0.010568523
v 0.013137414 0.0048989225 -0.010578211
v 0.03606361 -0.017584931 0.010556898
v 0.03577678 -0.017595375 -0.010578211
v 0.048107136 -0.030153582 -0.010578211
v 0.048095863 -0.029651647 0.010556898
v 0.03606361 -0.017584931 0.010556898
v 0.048095863 -0.029651647 0.010556898
v -0.04328038 -0.029041998 0.01055719
v -0.04385719 -0.015544126 0.010541806
v 0.011692445 0.0035948108 0.010568523
v -0.046494186 -0.02432142 0.010570268
v 0.007079146 0.008848174 0.010569569
v -0.047804106 -0.016061552 0.010560389
v 0.006331699 0.014454367 0.010577096
v -0.04551862 0.015891831 0.010574575
v 0.0031443047 0.01883075 0.010564678
v -0.04086813 0.017811663 0.010560193
v 0.00064995524 0.02346699 0.010572281
v -0.009328806 0.020336801 0.010578211
v -0.006842575 0.029405043 0.010561475
v -0.0095044635 0.026342519 0.010573179
vt 0.61865234 0.040618896
vt 0.6191406 0.050689697
vt 0.6220703 0.050689697
vt 0.6220703 0.040618896
vt 0.6660156 0.040618896
vt 0.6660156 0.050689697
vt 0.7426758 0.040618896
vt 0.7270508 0.040618896
vt 0.7270508 0.050689697
vt 0.7426758 0.050689697
vt 0.74658203 0.050689697
vt 0.7470703 0.040618896
vt 0.7246094 0.040618896
vt 0.7270508 0.050689697
vt 0.7270508 0.040618896
vt 0.7246094 0.050689697
vt 0.70996094 0.050689697
vt 0.70996094 0.040618896
vt 0.21704102 0.19140625
vt 0.21911621 0.19030762
vt 0.21948242 0.17590332
vt 0.2175293 0.17626953
vt 0.21960449 0.171875
vt 0.21777344 0.17089844
vt 0.17932129 0.17114258
vt 0.18444824 0.17626953
vt 0.19396973 0.18554688
vt 0.19580078 0.18737793
vt 0.19580078 0.1899414
vt 0.1977539 0.19152832
vt 0.20385742 0.19311523
vt 0.19836426 0.19384766
vt 0.20324707 0.1953125
vt 0.2019043 0.19592285
vt 0.70751953 0.050689697
vt 0.70996094 0.050689697
vt 0.70996094 0.040618896
vt 0.70751953 0.040618896
vt 0.7060547 0.040618896
vt 0.7060547 0.050689697
vt 0.7060547 0.050689697
vt 0.7060547 0.040618896
vt 0.7011719 0.040618896
vt 0.7011719 0.050689697
vt 0.69873047 0.050689697
vt 0.69873047 0.040618896
vt 0.69628906 0.050689697
vt 0.69628906 0.040618896
vt 0.6933594 0.050689697
vt 0.6933594 0.040618896
vt 0.6904297 0.050689697
vt 0.6899414 0.040618896
vt 0.6743164 0.050689697
vt 0.6743164 0.040618896
vt 0.6660156 0.040618896
vt 0.6660156 0.050689697
vt 0.23852539 0.4736328
vt 0.2434082 0.46850586
vt 0.2052002 0.46850586
vt 0.20495605 0.47436523
vt 0.22839355 0.48242188
vt 0.20385742 0.47045898
vt 0.2265625 0.48461914
vt 0.20300293 0.4741211
vt 0.22619629 0.48706055
vt 0.203125 0.48828125
vt 0.22497559 0.48876953
vt 0.20605469 0.4885254
vt 0.22387695 0.49072266
vt 0.21960449 0.48950195
vt 0.2208252 0.49316406
vt 0.21960449 0.49194336
vn -0.93896484 -0.34106445 0.046844482
vn -0.92871094 -0.3347168 0.1595459
vn -0.04714966 -0.86572266 0.49853516
vn -0.047576904 -0.8823242 -0.46826172
vn -0.00881958 -0.9663086 -0.25683594
vn -0.008781433 -0.95996094 0.28076172
vn -0.99853516 0.018966675 0.054138184
vn -0.9975586 0.043701172 0.056030273
vn -0.9580078 0.041809082 0.28344727
vn -0.9790039 0.018539429 0.20373535
vn -0.92871094 -0.3347168 0.1595459
vn -0.93896484 -0.34106445 0.046844482
vn -0.13659668 0.98046875 0.14050293
vn -0.38085938 0.91503906 0.13208008
vn -0.38085938 0.91503906 0.13208008
vn -0.13293457 0.98095703 0.140625
vn -0.09295654 0.98583984 0.14111328
vn -0.09295654 0.98583984 0.14111328
vn -0 0 -1
vn -0 0 -1
vn -1.1920929E-07 0 -1
vn -0 0 -1
vn -0 0 -1
vn -0.047576904 -0.8823242 -0.46826172
vn -0.00881958 -0.9663086 -0.25683594
vn -0 0 -1
vn -0 0 -1
vn -0 0 -1
vn 1.1920929E-07 0 -1
vn -0 0 -1
vn -0 0 -1
vn -0 0 -1
vn 2.3841858E-07 0 -1
vn 2.3841858E-07 0 -1
vn -0.9160156 0.3984375 0.04559326
vn -0.9921875 0.11755371 0.0423584
vn -0.9921875 0.11755371 0.0423584
vn -0.8959961 0.44213867 0.04574585
vn -0.6044922 0.79541016 0.041992188
vn -0.6044922 0.79541016 0.041992188
vn 0.56152344 0.8232422 0.08465576
vn 0.56152344 0.8232422 0.08465576
vn 0.72998047 0.67822266 0.0859375
vn 0.73046875 0.6772461 0.0859375
vn 0.84375 0.5307617 0.07946777
vn 0.8442383 0.53027344 0.07946777
vn 0.91015625 0.40356445 0.09307861
vn 0.90966797 0.40527344 0.09301758
vn 0.90527344 0.41357422 0.09613037
vn 0.9042969 0.41552734 0.096069336
vn 0.6904297 0.7216797 0.04876709
vn 0.6899414 0.72216797 0.048706055
vn 0.69140625 0.72216797 0.021911621
vn 0.69091797 0.72216797 0.022201538
vn 0.7109375 0.703125 -0.013160706
vn 0.7109375 0.703125 -0.013160706
vn -0.000101327896 0.00032019615 1
vn -0.008781433 -0.95996094 0.28076172
vn -0.04714966 -0.86572266 0.49853516
vn 0.0002758503 9.9778175E-05 1
vn -0.00022149086 -0.0007534027 1
vn -0.92871094 -0.3347168 0.1595459
vn -0.0006222725 -7.158518E-05 1
vn -0.9790039 0.018539429 0.20373535
vn -0.0008058548 0.000172019 1
vn -0.9580078 0.041809082 0.28344727
vn 2.1278858E-05 -0.0007882118 1
vn 0.00011885166 -0.0005493164 1
vn 0.0008430481 -0.0014619827 1
vn 0.00040197372 -0.0011749268 1
vn 0.0005669594 0.0016899109 1
vn 0.0005669594 0.0016899109 1
g doorL00_geo_0
f 3/3/3 2/2/2 1/1/1
f 4/4/4 3/3/3 1/1/1
f 4/4/4 5/5/5 3/3/3
f 5/5/5 6/6/6 3/3/3
f 9/9/9 8/8/8 7/7/7
f 10/10/10 9/9/9 7/7/7
f 10/10/10 7/7/7 11/11/11
f 7/7/7 12/12/12 11/11/11
f 15/15/15 14/14/14 13/13/13
f 14/14/14 16/16/16 13/13/13
f 16/16/16 17/17/17 13/13/13
f 17/17/17 18/18/18 13/13/13
f 21/21/21 20/20/20 19/19/19
f 22/22/22 21/21/21 19/19/19
f 21/21/21 22/22/22 23/23/23
f 22/22/22 24/24/24 23/23/23
f 24/24/24 22/22/22 25/25/25
f 22/22/22 26/26/26 25/25/25
f 27/27/27 26/26/26 22/22/22
f 28/28/28 27/27/27 22/22/22
f 29/29/29 28/28/28 22/22/22
f 30/30/30 29/29/29 22/22/22
f 22/22/22 19/19/19 31/31/31
f 30/30/30 22/22/22 32/32/32
f 22/22/22 31/31/31 32/32/32
f 31/31/31 33/33/33 32/32/32
f 33/33/33 34/34/34 32/32/32
f 37/37/37 36/36/36 35/35/35
f 38/38/38 37/37/37 35/35/35
f 39/39/39 38/38/38 35/35/35
f 40/40/40 39/39/39 35/35/35
f 43/43/43 42/42/42 41/41/41
f 44/44/44 43/43/43 41/41/41
f 43/43/43 44/44/44 45/45/45
f 46/46/46 43/43/43 45/45/45
f 46/46/46 45/45/45 47/47/47
f 48/48/48 46/46/46 47/47/47
f 48/48/48 47/47/47 49/49/49
f 50/50/50 48/48/48 49/49/49
f 50/50/50 49/49/49 51/51/51
f 52/52/52 50/50/50 51/51/51
f 52/52/52 51/51/51 53/53/53
f 54/54/54 52/52/52 53/53/53
f 55/55/55 54/54/54 53/53/53
f 56/56/56 55/55/55 53/53/53
f 59/59/59 58/58/58 57/57/57
f 60/60/60 59/59/59 57/57/57
f 57/57/57 61/61/61 60/60/60
f 59/59/59 60/60/60 62/62/62
f 61/61/61 63/63/63 60/60/60
f 60/60/60 64/64/64 62/62/62
f 63/63/63 65/65/65 60/60/60
f 64/64/64 60/60/60 66/66/66
f 65/65/65 67/67/67 60/60/60
f 60/60/60 68/68/68 66/66/66
f 67/67/67 69/69/69 60/60/60
f 70/70/70 68/68/68 60/60/60
f 69/69/69 70/70/70 60/60/60
f 69/69/69 71/71/71 70/70/70
f 71/71/71 72/72/72 70/70/70
