g doorR17_geo
v -0.06402113 -0.0038553332 -0.01018204
v -0.06297686 -0.004598322 0.010181629
v -0.060706582 -0.01413743 0.010181253
v -0.062233873 -0.016050158 -0.01018204
v -0.054978356 -0.017638521 0.01018184
v -0.055227797 -0.018453684 -0.01018204
v -0.042574868 -0.021077508 -0.0101820445
v -0.041583657 -0.018574458 0.010180524
v -0.03189295 -0.027550515 -0.010182035
v -0.031277414 -0.02665742 0.010181644
v -0.023756929 -0.03098855 0.010180967
v -0.025209146 -0.033433866 -0.01018204
v -0.016597122 -0.036308642 -0.01018204
v -0.015962968 -0.03521228 0.010181308
v -0.011871934 -0.037872665 0.010181065
v -0.011478638 -0.04029582 -0.01018204
v 0.03792192 -0.023277253 0.01018142
v 0.03841554 -0.023977365 -0.0101820445
v 0.044555753 -0.016270341 -0.01018204
v 0.0420902 -0.014117556 0.010180575
v 0.04357927 -0.013155717 0.010180718
v 0.051605925 -0.009225931 -0.0101820445
v 0.050597623 -0.0086225225 0.010181391
v 0.05469083 0.00057425495 -0.010182042
v 0.0538791 0.0010722255 0.010181679
v 0.0619708 0.0077499673 -0.0101820445
v 0.06143742 0.00803481 0.010181672
v 0.06402113 0.030933179 -0.01018204
v 0.062208857 0.03045142 0.01018131
v 0.059384502 0.033552542 0.010181577
v 0.05981543 0.03419612 -0.0101820445
v 0.05357484 0.03560817 0.010181062
v 0.05458898 0.037446965 -0.01018204
v 0.04893758 0.04029582 -0.0101820445
v 0.04995229 0.03750018 0.010180921
v -0.057944015 -0.0034748553 -0.0101820445
v -0.06297686 -0.004598322 0.010181629
v -0.06402113 -0.0038553332 -0.01018204
v -0.05807505 -0.004290094 0.010181727
v -0.050534233 -0.0076523684 0.010181534
v -0.050342925 -0.0064777085 -0.01018204
v -0.04110415 -0.008137598 0.010180876
v -0.04178347 -0.006111269 -0.010182035
v -0.036977943 -0.002465105 -0.01018204
v -0.034743484 -0.0049320315 0.0101806065
v -0.03299353 0.0016289043 0.0101820445
v -0.033250984 0.001812582 -0.010182035
v -0.028749222 0.004545698 0.0101808375
v -0.030358566 0.005995474 -0.01018204
v -0.025049005 0.009138593 0.010181542
v -0.025930542 0.009583998 -0.01018204
v -0.025732026 0.015611753 -0.01018204
v -0.022881493 0.01643836 0.010180716
v -0.027112603 0.020565672 0.010181181
v -0.028806252 0.02004508 -0.01018204
v -0.028242478 0.02935519 0.010182018
v -0.028393768 0.029443197 -0.01018204
v -0.024044976 0.030682897 0.010181088
v -0.028242478 0.02935519 0.010182018
v -0.028393768 0.029443197 -0.01018204
v -0.02468226 0.031840734 -0.0101820445
v -0.019892678 0.03415164 -0.010077257
v -0.018883003 0.033010893 0.010181062
v -0.017361779 0.038955603 -0.01018204
v -0.017244324 0.038190335 0.010181632
v -0.008133149 0.034135807 0.0101818945
v -0.017244324 0.038190335 0.010181632
v -0.017361779 0.038955603 -0.01018204
v -0.0077138757 0.034900464 -0.01018204
v -0.0010060358 0.030710936 -0.01018204
v -0.0014833688 0.030122861 0.010181976
v 0.004476409 0.025287198 -0.01018204
v 0.003873763 0.024591397 0.010181887
v 0.010277953 0.020280447 -0.01018204
v 0.009016204 0.018338194 0.010180931
v 0.016476378 0.017279692 -0.01018204
v 0.016460624 0.016062345 0.0101816915
v 0.021934485 0.019333562 0.010181914
v 0.02191068 0.019544745 -0.0101820445
v 0.028711677 0.0199681 -0.01018204
v 0.029457105 0.01834422 0.010181369
v 0.034690946 0.022693852 0.010180866
v 0.033236936 0.025273923 -0.01018204
v 0.04007997 0.02613307 -0.0101820445
v 0.041156247 0.024508238 0.010180955
v 0.04893758 0.04029582 -0.0101820445
v 0.04995229 0.03750018 0.010180921
v 0.041156247 0.024508238 0.010180955
v 0.04995229 0.03750018 0.010180921
v 0.05357484 0.03560817 0.010181062
v 0.059384502 0.033552542 0.010181577
v 0.062208857 0.03045142 0.01018131
v 0.06143742 0.00803481 0.010181672
v 0.0538791 0.0010722255 0.010181679
v 0.034690946 0.022693852 0.010180866
v 0.050597623 -0.0086225225 0.010181391
v 0.04357927 -0.013155717 0.010180718
v 0.0420902 -0.014117556 0.010180575
v 0.029457105 0.01834422 0.010181369
v 0.021934485 0.019333562 0.010181914
v 0.016460624 0.016062345 0.0101816915
v 0.03792192 -0.023277253 0.01018142
v 0.009016204 0.018338194 0.010180931
v -0.011871934 -0.037872665 0.010181065
v -0.025049005 0.009138593 0.010181542
v 0.003873763 0.024591397 0.010181887
v -0.0014833688 0.030122861 0.010181976
v -0.028749222 0.004545698 0.0101808375
v -0.022881493 0.01643836 0.010180716
v -0.015962968 -0.03521228 0.010181308
v -0.03299353 0.0016289043 0.0101820445
v -0.023756929 -0.03098855 0.010180967
v -0.034743484 -0.0049320315 0.0101806065
v -0.031277414 -0.02665742 0.010181644
v -0.04110415 -0.008137598 0.010180876
v -0.041583657 -0.018574458 0.010180524
v -0.050534233 -0.0076523684 0.010181534
v -0.054978356 -0.017638521 0.01018184
v -0.05807505 -0.004290094 0.010181727
v -0.060706582 -0.01413743 0.010181253
v -0.06297686 -0.004598322 0.010181629
v -0.008133149 0.034135807 0.0101818945
v -0.027112603 0.020565672 0.010181181
v -0.024044976 0.030682897 0.010181088
v -0.028242478 0.02935519 0.010182018
v -0.018883003 0.033010893 0.010181062
v -0.017244324 0.038190335 0.010181632
v 0.04007997 0.02613307 -0.0101820445
v 0.05458898 0.037446965 -0.01018204
v 0.04893758 0.04029582 -0.0101820445
v 0.05981543 0.03419612 -0.0101820445
v 0.06402113 0.030933179 -0.01018204
v 0.0619708 0.0077499673 -0.0101820445
v 0.05469083 0.00057425495 -0.010182042
v 0.051605925 -0.009225931 -0.0101820445
v 0.033236936 0.025273923 -0.01018204
v 0.044555753 -0.016270341 -0.01018204
v 0.028711677 0.0199681 -0.01018204
v 0.02191068 0.019544745 -0.0101820445
v 0.03841554 -0.023977365 -0.0101820445
v 0.016476378 0.017279692 -0.01018204
v -0.011478638 -0.04029582 -0.01018204
v 0.010277953 0.020280447 -0.01018204
v -0.025930542 0.009583998 -0.01018204
v 0.004476409 0.025287198 -0.01018204
v -0.016597122 -0.036308642 -0.01018204
v -0.025732026 0.015611753 -0.01018204
v -0.030358566 0.005995474 -0.01018204
v -0.0010060358 0.030710936 -0.01018204
v -0.025209146 -0.033433866 -0.01018204
v -0.033250984 0.001812582 -0.010182035
v -0.03189295 -0.027550515 -0.010182035
v -0.036977943 -0.002465105 -0.01018204
v -0.042574868 -0.021077508 -0.0101820445
v -0.04178347 -0.006111269 -0.010182035
v -0.055227797 -0.018453684 -0.01018204
v -0.050342925 -0.0064777085 -0.01018204
v -0.062233873 -0.016050158 -0.01018204
v -0.057944015 -0.0034748553 -0.0101820445
v -0.06402113 -0.0038553332 -0.01018204
v -0.028806252 0.02004508 -0.01018204
v -0.0077138757 0.034900464 -0.01018204
v -0.02468226 0.031840734 -0.0101820445
v -0.028393768 0.029443197 -0.01018204
v -0.019892678 0.03415164 -0.010077257
v -0.017361779 0.038955603 -0.01018204
vt 0.62060547 0.040618896
vt 0.62109375 0.050689697
vt 0.62597656 0.050689697
vt 0.62597656 0.040618896
vt 0.62890625 0.050689697
vt 0.62939453 0.040618896
vt 0.6352539 0.040618896
vt 0.6352539 0.050689697
vt 0.640625 0.040618896
vt 0.6411133 0.050689697
vt 0.64501953 0.050689697
vt 0.64501953 0.040618896
vt 0.6489258 0.040618896
vt 0.6489258 0.050689697
vt 0.6513672 0.050689697
vt 0.6513672 0.040618896
vt 0.67529297 0.050689697
vt 0.67529297 0.040618896
vt 0.6796875 0.040618896
vt 0.6796875 0.050689697
vt 0.6801758 0.050689697
vt 0.68408203 0.040618896
vt 0.68408203 0.050689697
vt 0.68847656 0.040618896
vt 0.68896484 0.050689697
vt 0.6933594 0.040618896
vt 0.6933594 0.050689697
vt 0.7036133 0.040618896
vt 0.7036133 0.050689697
vt 0.7055664 0.050689697
vt 0.7055664 0.040618896
vt 0.7084961 0.050689697
vt 0.7084961 0.040618896
vt 0.7109375 0.040618896
vt 0.7104492 0.050689697
vt 0.61816406 0.040618896
vt 0.62109375 0.050689697
vt 0.62060547 0.040618896
vt 0.61865234 0.050689697
vt 0.6147461 0.050689697
vt 0.6147461 0.040618896
vt 0.61083984 0.050689697
vt 0.61035156 0.040618896
vt 0.6074219 0.040618896
vt 0.60791016 0.050689697
vt 0.60498047 0.050689697
vt 0.60498047 0.040618896
vt 0.60253906 0.050689697
vt 0.60253906 0.040618896
vt 0.60009766 0.050689697
vt 0.60009766 0.040618896
vt 0.59716797 0.040618896
vt 0.5966797 0.050689697
vt 0.5942383 0.050689697
vt 0.5942383 0.040618896
vt 0.59033203 0.050689697
vt 0.59033203 0.040618896
vt 0.5883789 0.050689697
vt 0.59033203 0.050689697
vt 0.59033203 0.040618896
vt 0.5878906 0.040618896
vt 0.5854492 0.040618896
vt 0.5854492 0.050689697
vt 0.5830078 0.040618896
vt 0.5830078 0.050689697
vt 0.7441406 0.050689697
vt 0.74853516 0.050689697
vt 0.74853516 0.040618896
vt 0.7441406 0.040618896
vt 0.7402344 0.040618896
vt 0.7402344 0.050689697
vt 0.7368164 0.040618896
vt 0.7368164 0.050689697
vt 0.73339844 0.040618896
vt 0.73339844 0.050689697
vt 0.72998047 0.040618896
vt 0.72998047 0.050689697
vt 0.7270508 0.050689697
vt 0.72753906 0.040618896
vt 0.7241211 0.040618896
vt 0.7241211 0.050689697
vt 0.7207031 0.050689697
vt 0.7211914 0.040618896
vt 0.71777344 0.040618896
vt 0.71777344 0.050689697
vt 0.7109375 0.040618896
vt 0.7104492 0.050689697
vt 0.13439941 0.5908203
vt 0.13830566 0.5961914
vt 0.14038086 0.59521484
vt 0.14257812 0.5942383
vt 0.14416504 0.59277344
vt 0.14355469 0.5830078
vt 0.14050293 0.5800781
vt 0.13183594 0.58984375
vt 0.13928223 0.5756836
vt 0.13671875 0.57373047
vt 0.13623047 0.5732422
vt 0.12988281 0.5878906
vt 0.1270752 0.5878906
vt 0.124938965 0.58691406
vt 0.1340332 0.5698242
vt 0.12237549 0.5878906
vt 0.113220215 0.56347656
vt 0.107543945 0.5839844
vt 0.11993408 0.59033203
vt 0.11773682 0.59228516
vt 0.10583496 0.58251953
vt 0.107788086 0.5864258
vt 0.111450195 0.5649414
vt 0.10473633 0.5805664
vt 0.1081543 0.56640625
vt 0.10333252 0.5786133
vt 0.105285645 0.5683594
vt 0.10119629 0.57714844
vt 0.10089111 0.57128906
vt 0.09777832 0.57714844
vt 0.09576416 0.5722656
vt 0.09466553 0.5786133
vt 0.09295654 0.57373047
vt 0.09222412 0.578125
vt 0.114990234 0.5942383
vt 0.10644531 0.5878906
vt 0.10803223 0.5932617
vt 0.10662842 0.5917969
vt 0.10992432 0.5942383
vt 0.11102295 0.5957031
vt 0.2861328 0.29296875
vt 0.28027344 0.29760742
vt 0.2824707 0.29882812
vt 0.27807617 0.29638672
vt 0.2763672 0.29492188
vt 0.27734375 0.28564453
vt 0.28027344 0.28271484
vt 0.28173828 0.27856445
vt 0.2890625 0.2927246
vt 0.28442383 0.2758789
vt 0.29077148 0.29052734
vt 0.29370117 0.29052734
vt 0.28710938 0.27270508
vt 0.29589844 0.28955078
vt 0.30737305 0.26611328
vt 0.29833984 0.29077148
vt 0.31323242 0.28637695
vt 0.30078125 0.2927246
vt 0.3095703 0.26782227
vt 0.31298828 0.28881836
vt 0.3149414 0.2849121
vt 0.30297852 0.29492188
vt 0.31298828 0.26904297
vt 0.3161621 0.28320312
vt 0.31567383 0.27124023
vt 0.31762695 0.28149414
vt 0.32006836 0.27392578
vt 0.31958008 0.2800293
vt 0.3251953 0.27514648
vt 0.3232422 0.2800293
vt 0.328125 0.27612305
vt 0.32617188 0.28125
vt 0.32885742 0.28100586
vt 0.31445312 0.29077148
vt 0.30566406 0.29663086
vt 0.31274414 0.29541016
vt 0.31420898 0.2944336
vt 0.31054688 0.29638672
vt 0.3095703 0.29833984
vn -0.98095703 -0.18310547 0.06719971
vn -0.98095703 -0.18310547 0.06719971
vn -0.8564453 -0.5102539 0.07989502
vn -0.8486328 -0.5234375 0.08026123
vn -0.23632812 -0.9682617 0.08343506
vn -0.23632812 -0.9682617 0.08343506
vn -0.35791016 -0.9291992 0.090026855
vn -0.3581543 -0.9291992 0.090026855
vn -0.5732422 -0.8144531 0.0927124
vn -0.5732422 -0.8144531 0.0927124
vn -0.4897461 -0.86621094 0.0982666
vn -0.48999023 -0.86621094 0.0982666
vn -0.47070312 -0.8774414 0.08996582
vn -0.47094727 -0.8774414 0.08996582
vn 0.21374512 -0.9736328 0.081848145
vn 0.22009277 -0.97216797 0.08166504
vn 0.39746094 -0.9135742 0.08532715
vn 0.39697266 -0.9140625 0.08526611
vn 0.7578125 -0.64453125 0.10095215
vn 0.82958984 -0.5488281 0.103393555
vn 0.6245117 -0.7739258 0.105407715
vn 0.8330078 -0.54785156 0.07751465
vn 0.83251953 -0.5488281 0.07763672
vn 0.84521484 -0.53271484 0.04510498
vn 0.84521484 -0.53271484 0.04510498
vn 0.95751953 -0.28344727 0.05392456
vn 0.95751953 -0.28271484 0.053955078
vn 0.9951172 0.07861328 0.060424805
vn 0.9946289 0.08178711 0.06048584
vn 0.5415039 0.8383789 0.06524658
vn 0.5415039 0.8383789 0.06524658
vn 0.44189453 0.8930664 0.084350586
vn 0.44189453 0.8930664 0.08428955
vn 0.45288086 0.8857422 0.10083008
vn 0.45288086 0.8857422 0.10083008
vn 0.2121582 0.9760742 0.045806885
vn -0.062561035 0.9970703 0.03955078
vn -0.062561035 0.9970703 0.03955078
vn 0.21228027 0.9760742 0.045806885
vn 0.19116211 0.9794922 0.06512451
vn 0.19165039 0.9794922 0.06512451
vn -0.22583008 0.96875 0.10437012
vn -0.2241211 0.96875 0.10424805
vn -0.7241211 0.68066406 0.11212158
vn -0.7207031 0.68408203 0.11254883
vn -0.81591797 0.57373047 0.074157715
vn -0.81591797 0.57373047 0.074157715
vn -0.7060547 0.7050781 0.06890869
vn -0.7055664 0.7050781 0.068847656
vn -0.8955078 0.43676758 0.08648682
vn -0.8955078 0.43676758 0.08648682
vn -0.96972656 -0.21899414 0.10620117
vn -0.96972656 -0.21984863 0.10620117
vn -0.95458984 -0.2890625 0.07269287
vn -0.9550781 -0.28686523 0.07244873
vn -0.9980469 -0.039367676 0.04562378
vn -0.9980469 -0.039367676 0.04562378
vn -0.42382812 0.9042969 0.054016113
vn -0.42578125 0.9042969 0.035888672
vn -0.42578125 0.9042969 0.035888672
vn -0.42382812 0.9042969 0.053833008
vn -0.71875 0.6928711 0.060058594
vn -0.7167969 0.6948242 0.060180664
vn -0.921875 0.38549805 0.043670654
vn -0.921875 0.38549805 0.043670654
vn 0.45239258 0.8911133 0.0385437
vn 0.39648438 0.91748047 0.037384033
vn 0.39648438 0.91748047 0.037384033
vn 0.45263672 0.8911133 0.0385437
vn 0.6201172 0.7832031 0.04067993
vn 0.6201172 0.7832031 0.04067993
vn 0.7128906 0.69873047 0.059539795
vn 0.7128906 0.69873047 0.059631348
vn 0.55615234 0.82714844 0.082336426
vn 0.55615234 0.82714844 0.082336426
vn -0.01033783 0.9980469 0.06536865
vn -0.008506775 0.9980469 0.06549072
vn -0.1932373 0.98046875 0.03955078
vn -0.1928711 0.98046875 0.0395813
vn -0.35253906 0.9321289 0.08380127
vn -0.35498047 0.93115234 0.08404541
vn -0.4675293 0.87646484 0.11651611
vn -0.46850586 0.8754883 0.11651611
vn -0.68896484 0.7158203 0.11212158
vn -0.68896484 0.7163086 0.11212158
vn -0.8339844 0.5419922 0.10168457
vn -0.8339844 0.5419922 0.10168457
vn -3.260374E-05 8.46386E-06 1
vn -2.7954578E-05 2.1457672E-05 1
vn -5.4836273E-05 5.1617622E-05 1
vn -1.7166138E-05 -3.4332275E-05 1
vn -1.7940998E-05 3.874302E-06 1
vn -2.0086765E-05 1.8835068E-05 1
vn -3.4809113E-05 6.67572E-06 1
vn -9.179115E-06 1.847744E-06 1
vn -6.3955784E-05 -1.347065E-05 1
vn -8.046627E-05 -2.4080276E-05 1
vn 4.8279762E-05 6.7949295E-06 1
vn 8.004904E-05 6.6161156E-06 1
vn 5.7041645E-05 7.688999E-06 1
vn -9.596348E-06 -2.3841858E-07 1
vn -9.536743E-06 -2.3841858E-07 1
vn -6.198883E-06 -7.56979E-06 1
vn -1.090765E-05 -3.4570694E-06 1
vn 5.6028366E-06 -3.695488E-06 1
vn -5.185604E-06 -3.3438206E-05 1
vn -4.0233135E-05 7.748604E-06 1
vn -2.503395E-06 -4.1127205E-06 1
vn -3.838539E-05 3.8146973E-06 1
vn -2.092123E-05 -8.46386E-06 1
vn 5.0604343E-05 9.000301E-06 1
vn 4.7504902E-05 8.285046E-06 1
vn -6.771088E-05 -7.688999E-06 1
vn -6.979704E-05 -1.0073185E-05 1
vn 7.212162E-06 7.1525574E-07 1
vn 5.066395E-06 1.3709068E-06 1
vn 4.541874E-05 -1.4305115E-05 1
vn 3.528595E-05 -1.2099743E-05 1
vn -2.6166439E-05 -7.867813E-06 1
vn -2.7775764E-05 -1.66893E-06 1
vn -1.6987324E-05 -4.351139E-05 1
vn -1.7464161E-05 -4.720688E-05 1
vn -1.2040138E-05 -3.7670135E-05 1
vn -3.504753E-05 4.0352345E-05 1
vn 0.00024211407 -6.407499E-05 1
vn -6.240606E-05 3.4332275E-05 1
vn -6.818771E-05 -8.833408E-05 1
vn -1.7881393E-07 0 -1
vn -0 4.172325E-07 -1
vn 8.940697E-07 -4.172325E-07 -1
vn 1.7881393E-07 -3.5762787E-07 -1
vn 1.1920929E-07 0 -1
vn -0 0 -1
vn -2.3841858E-07 0 -1
vn -4.172325E-07 0 -1
vn -4.172325E-07 0 -1
vn -0 0 -1
vn -0 0 -1
vn 2.9802322E-07 0 -1
vn -0 0 -1
vn -0 0 -1
vn -0 0 -1
vn -0 0 -1
vn -0 0 -1
vn -0 0 -1
vn -0 0 -1
vn -0 0 -1
vn -1.1920929E-07 0 -1
vn -0 0 -1
vn -2.3841858E-07 0 -1
vn -2.3841858E-07 0 -1
vn -0 0 -1
vn 1.1920929E-07 0 -1
vn 1.7881393E-07 2.3841858E-07 -1
vn 1.7881393E-07 2.3841858E-07 -1
vn -0 0 -1
vn -0 1.1920929E-07 -1
vn 1.1920929E-07 -2.3841858E-07 -1
vn -0 -2.3841858E-07 -1
vn -8.34465E-07 -1.1920929E-07 -1
vn -0.00029063225 0.0016126633 -1
vn -0.00045347214 0.0006303787 -1
vn -0.0014467239 0.008026123 -1
vn -1.4305115E-06 0 -1
vn -0.0020523071 0.006011963 -1
vn -0.0075035095 -0.017852783 -1
g doorR17_geo_0
f 3/3/3 2/2/2 1/1/1
f 4/4/4 3/3/3 1/1/1
f 5/5/5 3/3/3 4/4/4
f 6/6/6 5/5/5 4/4/4
f 6/6/6 7/7/7 5/5/5
f 7/7/7 8/8/8 5/5/5
f 7/7/7 9/9/9 8/8/8
f 9/9/9 10/10/10 8/8/8
f 11/11/11 10/10/10 9/9/9
f 12/12/12 11/11/11 9/9/9
f 12/12/12 13/13/13 11/11/11
f 13/13/13 14/14/14 11/11/11
f 14/14/14 13/13/13 15/15/15
f 13/13/13 16/16/16 15/15/15
f 17/17/17 15/15/15 16/16/16
f 18/18/18 17/17/17 16/16/16
f 18/18/18 19/19/19 17/17/17
f 19/19/19 20/20/20 17/17/17
f 21/21/21 20/20/20 19/19/19
f 21/21/21 19/19/19 22/22/22
f 23/23/23 21/21/21 22/22/22
f 22/22/22 24/24/24 23/23/23
f 24/24/24 25/25/25 23/23/23
f 24/24/24 26/26/26 25/25/25
f 26/26/26 27/27/27 25/25/25
f 26/26/26 28/28/28 27/27/27
f 28/28/28 29/29/29 27/27/27
f 29/29/29 28/28/28 30/30/30
f 28/28/28 31/31/31 30/30/30
f 32/32/32 30/30/30 31/31/31
f 33/33/33 32/32/32 31/31/31
f 33/33/33 34/34/34 32/32/32
f 34/34/34 35/35/35 32/32/32
f 38/38/38 37/37/37 36/36/36
f 37/37/37 39/39/39 36/36/36
f 36/36/36 39/39/39 40/40/40
f 41/41/41 36/36/36 40/40/40
f 41/41/41 40/40/40 42/42/42
f 43/43/43 41/41/41 42/42/42
f 43/43/43 42/42/42 44/44/44
f 42/42/42 45/45/45 44/44/44
f 44/44/44 45/45/45 46/46/46
f 47/47/47 44/44/44 46/46/46
f 47/47/47 46/46/46 48/48/48
f 49/49/49 47/47/47 48/48/48
f 49/49/49 48/48/48 50/50/50
f 51/51/51 49/49/49 50/50/50
f 51/51/51 50/50/50 52/52/52
f 50/50/50 53/53/53 52/52/52
f 52/52/52 53/53/53 54/54/54
f 55/55/55 52/52/52 54/54/54
f 55/55/55 54/54/54 56/56/56
f 57/57/57 55/55/55 56/56/56
f 60/60/60 59/59/59 58/58/58
f 61/61/61 60/60/60 58/58/58
f 62/62/62 61/61/61 58/58/58
f 63/63/63 62/62/62 58/58/58
f 62/62/62 63/63/63 64/64/64
f 63/63/63 65/65/65 64/64/64
f 68/68/68 67/67/67 66/66/66
f 69/69/69 68/68/68 66/66/66
f 69/69/69 66/66/66 70/70/70
f 66/66/66 71/71/71 70/70/70
f 70/70/70 71/71/71 72/72/72
f 71/71/71 73/73/73 72/72/72
f 72/72/72 73/73/73 74/74/74
f 73/73/73 75/75/75 74/74/74
f 74/74/74 75/75/75 76/76/76
f 75/75/75 77/77/77 76/76/76
f 76/76/76 77/77/77 78/78/78
f 79/79/79 76/76/76 78/78/78
f 79/79/79 78/78/78 80/80/80
f 78/78/78 81/81/81 80/80/80
f 80/80/80 81/81/81 82/82/82
f 83/83/83 80/80/80 82/82/82
f 83/83/83 82/82/82 84/84/84
f 82/82/82 85/85/85 84/84/84
f 84/84/84 85/85/85 86/86/86
f 85/85/85 87/87/87 86/86/86
f 90/90/90 89/89/89 88/88/88
f 91/91/91 90/90/90 88/88/88
f 92/92/92 91/91/91 88/88/88
f 93/93/93 92/92/92 88/88/88
f 94/94/94 93/93/93 88/88/88
f 94/94/94 88/88/88 95/95/95
f 96/96/96 94/94/94 95/95/95
f 97/97/97 96/96/96 95/95/95
f 98/98/98 97/97/97 95/95/95
f 98/98/98 95/95/95 99/99/99
f 98/98/98 99/99/99 100/100/100
f 98/98/98 100/100/100 101/101/101
f 102/102/102 98/98/98 101/101/101
f 101/101/101 103/103/103 102/102/102
f 103/103/103 104/104/104 102/102/102
f 105/105/105 104/104/104 103/103/103
f 105/105/105 103/103/103 106/106/106
f 105/105/105 106/106/106 107/107/107
f 105/105/105 108/108/108 104/104/104
f 109/109/109 105/105/105 107/107/107
f 108/108/108 110/110/110 104/104/104
f 108/108/108 111/111/111 110/110/110
f 111/111/111 112/112/112 110/110/110
f 111/111/111 113/113/113 112/112/112
f 113/113/113 114/114/114 112/112/112
f 113/113/113 115/115/115 114/114/114
f 115/115/115 116/116/116 114/114/114
f 115/115/115 117/117/117 116/116/116
f 117/117/117 118/118/118 116/116/116
f 117/117/117 119/119/119 118/118/118
f 119/119/119 120/120/120 118/118/118
f 119/119/119 121/121/121 120/120/120
f 109/109/109 107/107/107 122/122/122
f 123/123/123 109/109/109 122/122/122
f 124/124/124 123/123/123 122/122/122
f 124/124/124 125/125/125 123/123/123
f 126/126/126 124/124/124 122/122/122
f 126/126/126 122/122/122 127/127/127
f 130/130/130 129/129/129 128/128/128
f 129/129/129 131/131/131 128/128/128
f 131/131/131 132/132/132 128/128/128
f 132/132/132 133/133/133 128/128/128
f 133/133/133 134/134/134 128/128/128
f 134/134/134 135/135/135 128/128/128
f 135/135/135 136/136/136 128/128/128
f 135/135/135 137/137/137 136/136/136
f 137/137/137 138/138/138 136/136/136
f 137/137/137 139/139/139 138/138/138
f 137/137/137 140/140/140 139/139/139
f 140/140/140 141/141/141 139/139/139
f 140/140/140 142/142/142 141/141/141
f 142/142/142 143/143/143 141/141/141
f 142/142/142 144/144/144 143/143/143
f 144/144/144 145/145/145 143/143/143
f 142/142/142 146/146/146 144/144/144
f 144/144/144 147/147/147 145/145/145
f 146/146/146 148/148/148 144/144/144
f 147/147/147 149/149/149 145/145/145
f 146/146/146 150/150/150 148/148/148
f 150/150/150 151/151/151 148/148/148
f 150/150/150 152/152/152 151/151/151
f 152/152/152 153/153/153 151/151/151
f 152/152/152 154/154/154 153/153/153
f 154/154/154 155/155/155 153/153/153
f 154/154/154 156/156/156 155/155/155
f 156/156/156 157/157/157 155/155/155
f 156/156/156 158/158/158 157/157/157
f 158/158/158 159/159/159 157/157/157
f 158/158/158 160/160/160 159/159/159
f 147/147/147 161/161/161 149/149/149
f 161/161/161 162/162/162 149/149/149
f 161/161/161 163/163/163 162/162/162
f 161/161/161 164/164/164 163/163/163
f 163/163/163 165/165/165 162/162/162
f 165/165/165 166/166/166 162/162/162
