g door_base_geo
v -1.4768112 -1.4547473 -0.088192135
v -1.4768112 1.4547473 -0.088192135
v -1.4768112 1.4547473 0.032520752
v -1.4768112 -1.4547473 0.032520752
v -0 -1.4547473 -0.088192135
v -0 1.4547473 -0.088192135
v -1.4768112 1.4547473 -0.088192135
v -1.4768112 -1.4547473 -0.088192135
v -0 -1.4547473 0.032520752
v -0 1.4547473 0.032520752
v -0 1.4547473 -0.088192135
v -0 -1.4547473 -0.088192135
vt 0.43798828 0.23852539
vt 0.43798828 0.4189453
vt 0.4489746 0.4189453
vt 0.4489746 0.23852539
vt 0.33666992 0.00390625
vt 0.33666992 0.22814941
vt 0.4506836 0.22814941
vt 0.4506836 0.00390625
vt 0.43798828 0.23852539
vt 0.43798828 0.4189453
vt 0.4489746 0.4189453
vt 0.4489746 0.23852539
vn -1 0 0
vn -1 0 0
vn -1 0 0
vn -1 0 0
vn -0 0 -1
vn -0 0 -1
vn -0 0 -1
vn -0 0 -1
vn 1 0 0
vn 1 0 0
vn 1 0 0
vn 1 0 0
g door_base_geo_0
f 3/3/3 2/2/2 1/1/1
f 4/4/4 3/3/3 1/1/1
f 7/7/7 6/6/6 5/5/5
f 8/8/8 7/7/7 5/5/5
f 11/11/11 10/10/10 9/9/9
f 12/12/12 11/11/11 9/9/9
