g door_horizontal_geo04
v -0.54149747 0.011428679 0.0044098026
v -0.54149747 0.011428679 -0.011427599
v 0.54149747 0.011428679 -0.011427599
v 0.54149747 0.011428679 0.0044098026
v -0.54149747 0.011428679 -0.011427599
v -0.54149747 -0.011428987 -0.011427599
v 0.54149747 -0.011428987 -0.011427599
v 0.54149747 0.011428679 -0.011427599
v -0.54149747 -0.011428987 -0.011427599
v -0.54149747 -0.011428987 0.0044098026
v 0.54149747 -0.011428987 0.0044098026
v 0.54149747 -0.011428987 -0.011427599
vt 0.00390625 0.95947266
vt 0.00390625 0.96435547
vt 0.33642578 0.96435547
vt 0.33642578 0.95947266
vt 0.00390625 0.96435547
vt 0.00390625 0.9716797
vt 0.33642578 0.9716797
vt 0.33642578 0.96435547
vt 0.00390625 0.9716797
vt 0.00390625 0.9765625
vt 0.33642578 0.9765625
vt 0.33642578 0.9716797
vn -0 1 0
vn -0 1 0
vn -0 1 0
vn -0 1 0
vn -0 0 -1
vn -0 0 -1
vn -0 0 -1
vn -0 0 -1
vn -0 -1 0
vn -0 -1 0
vn -0 -1 0
vn -0 -1 0
g door_horizontal_geo04_0
f 3/3/3 2/2/2 1/1/1
f 4/4/4 3/3/3 1/1/1
f 7/7/7 6/6/6 5/5/5
f 8/8/8 7/7/7 5/5/5
f 11/11/11 10/10/10 9/9/9
f 12/12/12 11/11/11 9/9/9
