g doorL_geo
v -0.17802894 0.2770243 0.0031647068
v -0.17768233 0.28609008 0.0031647075
v -0.17191726 0.28683692 0.0031647068
v -0.17186865 0.27689704 0.0031647068
v -0.15122648 0.28526664 0.0031647068
v -0.17388053 0.11889377 0.0031647068
v -0.17969452 0.11889381 0.0031647075
v -0.18865977 -0.2751337 0.0031647075
v -0.18369505 -0.27514887 0.0031647068
v -0.15276541 0.2744847 0.0031647068
v -0.1250718 0.2701886 0.0031647075
v -0.122070946 0.28095648 0.0031647075
v -0.18865977 -0.28421375 0.0031647068
v -0.09181428 0.27162912 0.0031647068
v -0.18375495 -0.28815696 0.0031647068
v 0.12608516 -0.281055 0.0031647068
v 0.11443542 -0.29450318 0.0031647068
v 0.13104317 -0.2914112 0.0031647068
v 0.13574125 -0.27614263 0.0031647068
v 0.17313105 0.08086059 0.0031647068
v -0.097014025 0.26228684 0.0031647068
v -0.06973656 0.2504793 0.0031647068
v -0.062557355 0.25930095 0.0031647068
v -0.03590029 0.23927677 0.0031647068
v -0.04372279 0.23259445 0.0031647068
v -0.0116057405 0.2125724 0.0031647068
v -0.021273453 0.20709082 0.0031647068
v 0.0084012775 0.17588474 0.0031647075
v -0.00050172984 0.17314549 0.0031647068
v 0.034072604 0.13939598 0.0031647068
v 0.023954617 0.13529323 0.0031647068
v 0.05244661 0.10675747 0.0031647068
v 0.0612973 0.11712089 0.0031647068
v 0.0875267 0.09533458 0.0031647068
v 0.09403295 0.10438412 0.0031647068
v 0.1601335 0.08635059 0.0031647068
v 0.16370885 0.09921768 0.0031647068
v 0.17249349 0.09070568 0.0031647068
v -0.17868526 0.2770063 -0.018499872
v -0.17179292 0.28681907 -0.018499868
v -0.17755748 0.28607216 -0.018499868
v -0.17174114 0.2768791 -0.018499872
v -0.15108302 0.28524873 -0.018499915
v -0.17377418 0.11887581 -0.018499944
v -0.17958818 0.11887581 -0.018499944
v -0.18856934 -0.2751517 -0.01850013
v -0.18360458 -0.27516678 -0.01850013
v -0.15262198 0.2744667 -0.018499918
v -0.12492835 0.2701706 -0.018499961
v -0.12192751 0.28093848 -0.018499963
v -0.18856934 -0.28423178 -0.018500134
v -0.09167083 0.27161124 -0.018499915
v -0.18366449 -0.2881749 -0.018500134
v 0.12622862 -0.28107297 -0.018500077
v 0.114578836 -0.29452112 -0.018500077
v 0.13118657 -0.29142913 -0.018500077
v 0.13588469 -0.27616057 -0.018500077
v 0.17327444 0.08084259 -0.018500049
v -0.09687058 0.2622688 -0.018499918
v -0.06959312 0.25046134 -0.018499877
v -0.06241392 0.25928298 -0.018499872
v -0.035756856 0.2392588 -0.018499982
v -0.043579347 0.23257644 -0.01849998
v -0.011462308 0.21255443 -0.018500077
v -0.02113002 0.2070729 -0.018500067
v 0.00854471 0.17586674 -0.018500054
v -0.00035829723 0.17312744 -0.018500049
v 0.03421604 0.13937801 -0.01850004
v 0.024098068 0.1352753 -0.018500032
v 0.052590046 0.1067395 -0.018500017
v 0.06144075 0.11710293 -0.01850002
v 0.08767013 0.09531662 -0.018500024
v 0.09417639 0.10436618 -0.018500015
v 0.16027696 0.08633263 -0.01850004
v 0.16385229 0.09919971 -0.01850004
v 0.17263693 0.090687715 -0.018500049
v -0.18375495 -0.28815696 0.0031647068
v -0.18856934 -0.28423178 -0.018500134
v -0.18865977 -0.28421375 0.0031647068
v -0.18366449 -0.2881749 -0.018500134
v 0.11443542 -0.29450318 0.0031647068
v 0.114578836 -0.29452112 -0.018500077
v 0.13104317 -0.2914112 0.0031647068
v 0.13118657 -0.29142913 -0.018500077
v 0.13574125 -0.27614263 0.0031647068
v 0.13588469 -0.27616057 -0.018500077
v 0.17313105 0.08086059 0.0031647068
v 0.17327444 0.08084259 -0.018500049
v 0.17249349 0.09070568 0.0031647068
v 0.17263693 0.090687715 -0.018500049
v 0.16370885 0.09921768 0.0031647068
v 0.16385229 0.09919971 -0.01850004
v 0.09403295 0.10438412 0.0031647068
v 0.09417639 0.10436618 -0.018500015
v 0.0612973 0.11712089 0.0031647068
v 0.06144075 0.11710293 -0.01850002
v 0.034072604 0.13939598 0.0031647068
v 0.03421604 0.13937801 -0.01850004
v 0.0084012775 0.17588474 0.0031647075
v 0.00854471 0.17586674 -0.018500054
v -0.0116057405 0.2125724 0.0031647068
v -0.011462308 0.21255443 -0.018500077
v -0.03590029 0.23927677 0.0031647068
v -0.035756856 0.2392588 -0.018499982
v -0.062557355 0.25930095 0.0031647068
v -0.06241392 0.25928298 -0.018499872
v -0.09181428 0.27162912 0.0031647068
v -0.09167083 0.27161124 -0.018499915
v -0.122070946 0.28095648 0.0031647075
v -0.12192751 0.28093848 -0.018499963
v -0.15122648 0.28526664 0.0031647068
v -0.15108302 0.28524873 -0.018499915
v -0.17191726 0.28683692 0.0031647068
v -0.17179292 0.28681907 -0.018499868
v -0.17768233 0.28609008 0.0031647075
v -0.17755748 0.28607216 -0.018499868
v -0.17802894 0.2770243 0.0031647068
v -0.17868526 0.2770063 -0.018499872
v -0.17969452 0.11889381 0.0031647075
v -0.17958818 0.11887581 -0.018499944
v -0.18865977 -0.2751337 0.0031647075
v -0.18856934 -0.2751517 -0.01850013
v -0.18865977 -0.28421375 0.0031647068
v -0.18856934 -0.28423178 -0.018500134
vt 0.20788574 0.70166016
vt 0.20800781 0.7050781
vt 0.21032715 0.7055664
vt 0.21032715 0.70166016
vt 0.21875 0.7050781
vt 0.20959473 0.63623047
vt 0.20715332 0.63623047
vt 0.20349121 0.4741211
vt 0.2055664 0.4741211
vt 0.21813965 0.7006836
vt 0.22937012 0.69873047
vt 0.23059082 0.703125
vt 0.20349121 0.47021484
vt 0.24291992 0.69921875
vt 0.2055664 0.46875
vt 0.33325195 0.4716797
vt 0.32836914 0.46606445
vt 0.33520508 0.46728516
vt 0.3371582 0.4736328
vt 0.35473633 0.62060547
vt 0.24084473 0.6953125
vt 0.25195312 0.6904297
vt 0.2548828 0.69433594
vt 0.265625 0.68603516
vt 0.26245117 0.68310547
vt 0.27563477 0.6748047
vt 0.27172852 0.67285156
vt 0.2836914 0.65966797
vt 0.2800293 0.6586914
vt 0.29418945 0.64501953
vt 0.29003906 0.6430664
vt 0.30151367 0.63134766
vt 0.30517578 0.6357422
vt 0.31591797 0.62646484
vt 0.31860352 0.6303711
vt 0.34936523 0.6230469
vt 0.35083008 0.62841797
vt 0.3544922 0.625
vt 0.21276855 0.40063477
vt 0.21020508 0.40478516
vt 0.21252441 0.40454102
vt 0.21020508 0.40063477
vt 0.20153809 0.40405273
vt 0.21166992 0.33618164
vt 0.21386719 0.33618164
vt 0.21923828 0.17456055
vt 0.2175293 0.17529297
vt 0.20227051 0.3996582
vt 0.19042969 0.39794922
vt 0.18908691 0.40234375
vt 0.21923828 0.16992188
vt 0.17651367 0.3984375
vt 0.21777344 0.16967773
vt 0.08685303 0.17285156
vt 0.09161377 0.1673584
vt 0.0847168 0.1685791
vt 0.08282471 0.17480469
vt 0.064453125 0.3203125
vt 0.17883301 0.39453125
vt 0.16760254 0.38964844
vt 0.16455078 0.39331055
vt 0.15368652 0.3852539
vt 0.15698242 0.38232422
vt 0.14379883 0.37426758
vt 0.14782715 0.3720703
vt 0.13574219 0.35913086
vt 0.1394043 0.3581543
vt 0.12536621 0.34423828
vt 0.1295166 0.34277344
vt 0.11798096 0.3310547
vt 0.11425781 0.33520508
vt 0.103759766 0.32617188
vt 0.10089111 0.32983398
vt 0.06970215 0.32250977
vt 0.068237305 0.32763672
vt 0.064697266 0.32421875
vt 0.006465912 0.02658081
vt 0.003200531 0.018066406
vt 0.003168106 0.02658081
vt 0.006504059 0.018066406
vt 0.16271973 0.026519775
vt 0.16271973 0.01802063
vt 0.17150879 0.026519775
vt 0.17163086 0.018005371
vt 0.17993164 0.026519775
vt 0.17993164 0.018005371
vt 0.36791992 0.026535034
vt 0.36791992 0.01802063
vt 0.37329102 0.026535034
vt 0.37304688 0.01802063
vt 0.37963867 0.026535034
vt 0.37963867 0.01802063
vt 0.41625977 0.026550293
vt 0.41601562 0.018035889
vt 0.4345703 0.026550293
vt 0.4345703 0.018035889
vt 0.453125 0.026550293
vt 0.45288086 0.018051147
vt 0.47631836 0.026550293
vt 0.47631836 0.018051147
vt 0.49829102 0.026550293
vt 0.49829102 0.018051147
vt 0.51708984 0.026550293
vt 0.51708984 0.018051147
vt 0.53466797 0.026565552
vt 0.53466797 0.018051147
vt 0.55126953 0.026565552
vt 0.55126953 0.018051147
vt 0.5678711 0.026565552
vt 0.5678711 0.018066406
vt 0.5834961 0.02658081
vt 0.5834961 0.018066406
vt 0.5942383 0.02658081
vt 0.5942383 0.018066406
vt 0.59716797 0.02658081
vt 0.59716797 0.018066406
vt 0.6020508 0.02658081
vt 0.6020508 0.018066406
vt 0.6845703 0.02658081
vt 0.6845703 0.018066406
vt 0.8911133 0.026565552
vt 0.8911133 0.018051147
vt 0.8959961 0.02659607
vt 0.8959961 0.018081665
vn -0.9609375 0.011627197 0.27661133
vn -0.80859375 0.5341797 0.2467041
vn 0.028289795 0.9165039 0.39868164
vn -0 0 1
vn 0.105773926 0.8979492 0.42749023
vn -0 0 1
vn -0.96777344 0.017974854 0.25073242
vn -0.97265625 0.021652222 0.23156738
vn -0 0 1
vn -0 0 1
vn -0 0 1
vn 0.20251465 0.88378906 0.421875
vn -0.9272461 -0.34838867 0.13708496
vn 0.3095703 0.8515625 0.42333984
vn -0.028762817 -0.8461914 0.53222656
vn -0 0 1
vn -0.007896423 -0.7578125 0.65234375
vn 0.6411133 -0.74609375 0.17822266
vn 0.8129883 -0.091918945 0.5751953
vn 0.8442383 -0.08459473 0.5292969
vn -0 0 1
vn -0 0 1
vn 0.45629883 0.7895508 0.4104004
vn 0.6152344 0.67089844 0.4140625
vn -0 0 1
vn 0.7504883 0.52490234 0.40112305
vn -0 0 1
vn 0.7651367 0.47729492 0.43237305
vn -0 0 1
vn 0.64746094 0.58251953 0.49121094
vn -0 0 1
vn -0 0 1
vn 0.42651367 0.7294922 0.53515625
vn -0 0 1
vn 0.14501953 0.82714844 0.54345703
vn -0 0 1
vn 0.15661621 0.90185547 0.40307617
vn 0.86621094 0.4453125 0.22717285
vn -0.9633789 0.011634827 -0.2685547
vn 0.028701782 0.91503906 -0.40283203
vn -0.8051758 0.53515625 -0.25634766
vn -1.3709068E-06 4.7683716E-07 -1
vn 0.10601807 0.8979492 -0.4272461
vn -4.172325E-07 4.7683716E-07 -1
vn -0.9667969 0.017959595 -0.2548828
vn -0.9707031 0.021606445 -0.2401123
vn -0 2.3841858E-07 -1
vn -1.7285347E-06 4.172325E-07 -1
vn -0 -1.1920929E-07 -1
vn 0.20324707 0.88427734 -0.42089844
vn -0.92578125 -0.34936523 -0.1439209
vn 0.31030273 0.8520508 -0.42114258
vn -0.028717041 -0.84765625 -0.52978516
vn -0 1.1920929E-07 -1
vn -0.007751465 -0.7558594 -0.6542969
vn 0.64453125 -0.74560547 -0.16931152
vn 0.8178711 -0.09246826 -0.5678711
vn 0.8491211 -0.08508301 -0.5209961
vn 1.3113022E-06 -5.364418E-07 -1
vn -6.556511E-07 1.1324883E-06 -1
vn 0.4580078 0.79052734 -0.40649414
vn 0.6171875 0.6723633 -0.40820312
vn -2.0861626E-06 2.026558E-06 -1
vn 0.75390625 0.5263672 -0.3935547
vn -1.013279E-06 3.5762787E-07 -1
vn 0.7680664 0.4794922 -0.42456055
vn -3.5762787E-07 -7.1525574E-07 -1
vn 0.64941406 0.58496094 -0.4855957
vn -2.9802322E-07 2.9802322E-07 -1
vn 2.3841858E-07 1.1920929E-07 -1
vn 0.42651367 0.7314453 -0.5317383
vn -0 1.7881393E-07 -1
vn 0.14428711 0.828125 -0.5415039
vn -0 1.7881393E-07 -1
vn 0.15759277 0.9008789 -0.40478516
vn 0.86865234 0.44506836 -0.21765137
vn -0.028762817 -0.8461914 0.53222656
vn -0.92578125 -0.34936523 -0.1439209
vn -0.9272461 -0.34838867 0.13708496
vn -0.028717041 -0.84765625 -0.52978516
vn -0.007896423 -0.7578125 0.65234375
vn -0.007751465 -0.7558594 -0.6542969
vn 0.6411133 -0.74609375 0.17822266
vn 0.64453125 -0.74560547 -0.16931152
vn 0.8129883 -0.091918945 0.5751953
vn 0.8178711 -0.09246826 -0.5678711
vn 0.8442383 -0.08459473 0.5292969
vn 0.8491211 -0.08508301 -0.5209961
vn 0.86621094 0.4453125 0.22717285
vn 0.86865234 0.44506836 -0.21765137
vn 0.15661621 0.90185547 0.40307617
vn 0.15759277 0.9008789 -0.40478516
vn 0.14501953 0.82714844 0.54345703
vn 0.14428711 0.828125 -0.5415039
vn 0.42651367 0.7294922 0.53515625
vn 0.42651367 0.7314453 -0.5317383
vn 0.64746094 0.58251953 0.49121094
vn 0.64941406 0.58496094 -0.4855957
vn 0.7651367 0.47729492 0.43237305
vn 0.7680664 0.4794922 -0.42456055
vn 0.7504883 0.52490234 0.40112305
vn 0.75390625 0.5263672 -0.3935547
vn 0.6152344 0.67089844 0.4140625
vn 0.6171875 0.6723633 -0.40820312
vn 0.45629883 0.7895508 0.4104004
vn 0.4580078 0.79052734 -0.40649414
vn 0.3095703 0.8515625 0.42333984
vn 0.31030273 0.8520508 -0.42114258
vn 0.20251465 0.88378906 0.421875
vn 0.20324707 0.88427734 -0.42089844
vn 0.105773926 0.8979492 0.42749023
vn 0.10601807 0.8979492 -0.4272461
vn 0.028289795 0.9165039 0.39868164
vn 0.028701782 0.91503906 -0.40283203
vn -0.80859375 0.5341797 0.2467041
vn -0.8051758 0.53515625 -0.25634766
vn -0.9609375 0.011627197 0.27661133
vn -0.9633789 0.011634827 -0.2685547
vn -0.96777344 0.017974854 0.25073242
vn -0.9667969 0.017959595 -0.2548828
vn -0.97265625 0.021652222 0.23156738
vn -0.9707031 0.021606445 -0.2401123
vn -0.9272461 -0.34838867 0.13708496
vn -0.92578125 -0.34936523 -0.1439209
g doorL_geo_0
f 3/3/3 2/2/2 1/1/1
f 4/4/4 3/3/3 1/1/1
f 5/5/5 3/3/3 4/4/4
f 4/4/4 1/1/1 6/6/6
f 1/1/1 7/7/7 6/6/6
f 6/6/6 7/7/7 8/8/8
f 9/9/9 6/6/6 8/8/8
f 10/10/10 4/4/4 6/6/6
f 10/10/10 5/5/5 4/4/4
f 11/11/11 10/10/10 6/6/6
f 12/12/12 5/5/5 10/10/10
f 11/11/11 12/12/12 10/10/10
f 9/9/9 8/8/8 13/13/13
f 12/12/12 11/11/11 14/14/14
f 15/15/15 9/9/9 13/13/13
f 9/9/9 15/15/15 16/16/16
f 15/15/15 17/17/17 16/16/16
f 16/16/16 17/17/17 18/18/18
f 16/16/16 18/18/18 19/19/19
f 16/16/16 19/19/19 20/20/20
f 11/11/11 21/21/21 14/14/14
f 11/11/11 6/6/6 21/21/21
f 21/21/21 22/22/22 14/14/14
f 21/21/21 6/6/6 22/22/22
f 22/22/22 23/23/23 14/14/14
f 24/24/24 23/23/23 22/22/22
f 25/25/25 24/24/24 22/22/22
f 25/25/25 22/22/22 6/6/6
f 26/26/26 24/24/24 25/25/25
f 27/27/27 26/26/26 25/25/25
f 27/27/27 25/25/25 6/6/6
f 28/28/28 26/26/26 27/27/27
f 29/29/29 28/28/28 27/27/27
f 29/29/29 27/27/27 6/6/6
f 30/30/30 28/28/28 29/29/29
f 31/31/31 29/29/29 6/6/6
f 31/31/31 30/30/30 29/29/29
f 31/31/31 6/6/6 9/9/9
f 30/30/30 31/31/31 32/32/32
f 32/32/32 31/31/31 9/9/9
f 33/33/33 30/30/30 32/32/32
f 34/34/34 32/32/32 9/9/9
f 33/33/33 32/32/32 34/34/34
f 34/34/34 9/9/9 16/16/16
f 35/35/35 33/33/33 34/34/34
f 36/36/36 34/34/34 16/16/16
f 35/35/35 34/34/34 36/36/36
f 36/36/36 16/16/16 20/20/20
f 37/37/37 35/35/35 36/36/36
f 36/36/36 20/20/20 38/38/38
f 36/36/36 38/38/38 37/37/37
f 41/41/41 40/40/40 39/39/39
f 40/40/40 42/42/42 39/39/39
f 40/40/40 43/43/43 42/42/42
f 39/39/39 42/42/42 44/44/44
f 45/45/45 39/39/39 44/44/44
f 45/45/45 44/44/44 46/46/46
f 44/44/44 47/47/47 46/46/46
f 42/42/42 48/48/48 44/44/44
f 43/43/43 48/48/48 42/42/42
f 48/48/48 49/49/49 44/44/44
f 43/43/43 50/50/50 48/48/48
f 50/50/50 49/49/49 48/48/48
f 46/46/46 47/47/47 51/51/51
f 49/49/49 50/50/50 52/52/52
f 47/47/47 53/53/53 51/51/51
f 53/53/53 47/47/47 54/54/54
f 55/55/55 53/53/53 54/54/54
f 55/55/55 54/54/54 56/56/56
f 56/56/56 54/54/54 57/57/57
f 57/57/57 54/54/54 58/58/58
f 59/59/59 49/49/49 52/52/52
f 44/44/44 49/49/49 59/59/59
f 60/60/60 59/59/59 52/52/52
f 44/44/44 59/59/59 60/60/60
f 61/61/61 60/60/60 52/52/52
f 61/61/61 62/62/62 60/60/60
f 62/62/62 63/63/63 60/60/60
f 60/60/60 63/63/63 44/44/44
f 62/62/62 64/64/64 63/63/63
f 64/64/64 65/65/65 63/63/63
f 63/63/63 65/65/65 44/44/44
f 64/64/64 66/66/66 65/65/65
f 66/66/66 67/67/67 65/65/65
f 65/65/65 67/67/67 44/44/44
f 66/66/66 68/68/68 67/67/67
f 67/67/67 69/69/69 44/44/44
f 68/68/68 69/69/69 67/67/67
f 44/44/44 69/69/69 47/47/47
f 69/69/69 68/68/68 70/70/70
f 69/69/69 70/70/70 47/47/47
f 68/68/68 71/71/71 70/70/70
f 70/70/70 72/72/72 47/47/47
f 70/70/70 71/71/71 72/72/72
f 47/47/47 72/72/72 54/54/54
f 71/71/71 73/73/73 72/72/72
f 72/72/72 74/74/74 54/54/54
f 72/72/72 73/73/73 74/74/74
f 54/54/54 74/74/74 58/58/58
f 73/73/73 75/75/75 74/74/74
f 58/58/58 74/74/74 76/76/76
f 76/76/76 74/74/74 75/75/75
f 79/79/79 78/78/78 77/77/77
f 78/78/78 80/80/80 77/77/77
f 77/77/77 80/80/80 81/81/81
f 80/80/80 82/82/82 81/81/81
f 81/81/81 82/82/82 83/83/83
f 82/82/82 84/84/84 83/83/83
f 83/83/83 84/84/84 85/85/85
f 84/84/84 86/86/86 85/85/85
f 85/85/85 86/86/86 87/87/87
f 86/86/86 88/88/88 87/87/87
f 87/87/87 88/88/88 89/89/89
f 88/88/88 90/90/90 89/89/89
f 89/89/89 90/90/90 91/91/91
f 90/90/90 92/92/92 91/91/91
f 91/91/91 92/92/92 93/93/93
f 92/92/92 94/94/94 93/93/93
f 93/93/93 94/94/94 95/95/95
f 94/94/94 96/96/96 95/95/95
f 95/95/95 96/96/96 97/97/97
f 96/96/96 98/98/98 97/97/97
f 97/97/97 98/98/98 99/99/99
f 98/98/98 100/100/100 99/99/99
f 99/99/99 100/100/100 101/101/101
f 100/100/100 102/102/102 101/101/101
f 101/101/101 102/102/102 103/103/103
f 102/102/102 104/104/104 103/103/103
f 103/103/103 104/104/104 105/105/105
f 104/104/104 106/106/106 105/105/105
f 105/105/105 106/106/106 107/107/107
f 106/106/106 108/108/108 107/107/107
f 107/107/107 108/108/108 109/109/109
f 108/108/108 110/110/110 109/109/109
f 109/109/109 110/110/110 111/111/111
f 110/110/110 112/112/112 111/111/111
f 111/111/111 112/112/112 113/113/113
f 112/112/112 114/114/114 113/113/113
f 113/113/113 114/114/114 115/115/115
f 114/114/114 116/116/116 115/115/115
f 115/115/115 116/116/116 117/117/117
f 116/116/116 118/118/118 117/117/117
f 117/117/117 118/118/118 119/119/119
f 118/118/118 120/120/120 119/119/119
f 119/119/119 120/120/120 121/121/121
f 120/120/120 122/122/122 121/121/121
f 121/121/121 122/122/122 123/123/123
f 122/122/122 124/124/124 123/123/123
