g doorR01_geo
v 0.008729219 -0.057700384 0.010045189
v 0.013694253 -0.06305805 0.010045196
v 0.011902487 -0.06649914 -0.010045176
v 0.0067927125 -0.060616646 -0.010045176
v 0.011902487 -0.06649914 -0.010045176
v 0.013694253 -0.06305805 0.010045196
v 0.021345777 -0.06579536 0.010045196
v 0.020283775 -0.06894585 -0.010045176
v 0.026546845 -0.07477325 -0.010045176
v 0.026456315 -0.07275581 0.010045196
v 0.0032555892 -0.04841175 -0.010045179
v 0.008729219 -0.057700384 0.010045189
v 0.0067927125 -0.060616646 -0.010045176
v 0.0059122615 -0.0468412 0.010045189
v -0.0047417185 -0.040543288 -0.010045176
v -0.0029730173 -0.039668236 0.010045196
v -0.005790922 -0.029557304 0.010045189
v -0.008272178 -0.031153258 -0.010045176
v -0.012208419 -0.021403922 -0.010045172
v -0.00871293 -0.01917446 0.0100451885
v -0.012991595 0.0031248473 -0.010045181
v -0.023271045 0.0034218596 -0.0100451745
v -0.029519372 -0.00038513183 -0.010045181
v -0.012208419 -0.021403922 -0.010045172
v -0.0025641103 0.008493804 -0.010045196
v 0.0044469503 0.008896713 -0.010045191
v 0.02771854 -0.014808273 -0.010045155
v 0.028308263 0.014375991 -0.010045146
v -0.008272178 -0.031153258 -0.010045176
v 0.0059105307 0.015466346 -0.010045191
v -0.0047417185 -0.040543288 -0.010045176
v 0.006134813 0.021435851 -0.010045191
v 0.0032555892 -0.04841175 -0.010045179
v 0.011138967 0.022640305 -0.010045181
v 0.0067927125 -0.060616646 -0.010045176
v 0.011902487 -0.06649914 -0.010045176
v 0.020283775 -0.06894585 -0.010045176
v 0.026546845 -0.07477325 -0.010045176
v 0.014276225 0.030983504 -0.010045179
v 0.016474538 0.034588013 -0.010045179
v 0.018149953 0.040039137 -0.010045181
v 0.028751254 0.03629898 -0.010045136
v 0.01958617 0.045588035 -0.010045184
v 0.022644471 0.058221586 -0.010045176
v 0.020678641 0.054423522 -0.010045169
v 0.02341394 0.06460861 -0.0100451745
v 0.029519372 0.07431187 -0.010045124
v -0.023033762 -0.0025373457 0.010045196
v -0.00871293 -0.01917446 0.0100451885
v -0.012208419 -0.021403922 -0.010045172
v -0.029519372 -0.00038513183 -0.010045181
v -0.023271045 0.0034218596 -0.0100451745
v -0.018664736 0.0021713637 0.0100451885
v -0.023033762 -0.0025373457 0.010045196
v -0.029519372 -0.00038513183 -0.010045181
v -0.012991595 0.0031248473 -0.010045181
v -0.012280283 -0.00019069671 0.010045137
v -0.018664736 0.0021713637 0.0100451885
v -0.023271045 0.0034218596 -0.0100451745
v -0.0025641103 0.008493804 -0.010045196
v -0.0025760313 0.00714756 0.0100451885
v -0.012280283 -0.00019069671 0.010045137
v -0.012991595 0.0031248473 -0.010045181
v 0.0055040317 0.0078034974 0.010045196
v -0.0025760313 0.00714756 0.0100451885
v -0.0025641103 0.008493804 -0.010045196
v 0.0044469503 0.008896713 -0.010045191
v 0.0059105307 0.015466346 -0.010045191
v 0.0055040317 0.0078034974 0.010045196
v 0.0044469503 0.008896713 -0.010045191
v 0.008715241 0.014975738 0.010045132
v 0.008402422 0.017333793 0.010045196
v 0.006134813 0.021435851 -0.010045191
v 0.011138967 0.022640305 -0.010045181
v 0.008402422 0.017333793 0.010045196
v 0.006134813 0.021435851 -0.010045191
v 0.013224534 0.021826133 0.010045149
v 0.014276225 0.030983504 -0.010045179
v 0.014379328 0.030957755 0.010045196
v 0.016474538 0.034588013 -0.010045179
v 0.017389929 0.033671606 0.010045189
v 0.020882364 0.03697029 0.010045196
v 0.018149953 0.040039137 -0.010045181
v 0.023263896 0.042488746 0.010045149
v 0.020882364 0.03697029 0.010045196
v 0.018149953 0.040039137 -0.010045181
v 0.01958617 0.045588035 -0.010045184
v 0.020678641 0.054423522 -0.010045169
v 0.023534827 0.055107307 0.010045196
v 0.022644471 0.058221586 -0.010045176
v 0.023534827 0.055107307 0.010045196
v 0.020678641 0.054423522 -0.010045169
v 0.02459041 0.05801666 0.0100451885
v 0.02341394 0.06460861 -0.0100451745
v 0.02607886 0.06857323 0.010045196
v 0.029333329 0.07477325 0.010045166
v 0.029519372 0.07431187 -0.010045124
v 0.02607886 0.06857323 0.010045196
v 0.029333329 0.07477325 0.010045166
v 0.029005546 0.05796501 0.010045189
v 0.02571063 0.05811939 0.010045196
v 0.02459041 0.05801666 0.0100451885
v 0.023534827 0.055107307 0.010045196
v 0.023263896 0.042488746 0.010045149
v 0.025033383 0.0388929 0.0100451885
v 0.020882364 0.03697029 0.010045196
v 0.028635344 0.038981665 0.010045196
v 0.017389929 0.033671606 0.010045189
v 0.024170151 0.014386405 0.0100451885
v 0.014379328 0.030957755 0.010045196
v 0.013224534 0.021826133 0.010045149
v 0.008402422 0.017333793 0.010045196
v 0.008715241 0.014975738 0.010045132
v 0.02816514 0.014870224 0.010045189
v 0.0055040317 0.0078034974 0.010045196
v 0.023185518 -0.013566589 0.010045189
v 0.027615944 -0.013291702 0.010045184
v 0.021345777 -0.06579536 0.010045196
v 0.026456315 -0.07275581 0.010045196
v 0.013694253 -0.06305805 0.010045196
v 0.008729219 -0.057700384 0.010045189
v 0.0059122615 -0.0468412 0.010045189
v -0.0029730173 -0.039668236 0.010045196
v -0.005790922 -0.029557304 0.010045189
v -0.00871293 -0.01917446 0.0100451885
v -0.0025760313 0.00714756 0.0100451885
v -0.012280283 -0.00019069671 0.010045137
v -0.018664736 0.0021713637 0.0100451885
v -0.023033762 -0.0025373457 0.010045196
v 0.02771854 -0.014808273 -0.010045155
v 0.026546845 -0.07477325 -0.010045176
v 0.026456315 -0.07275581 0.010045196
v 0.027615944 -0.013291702 0.010045184
v 0.028308263 0.014375991 -0.010045146
v 0.02816514 0.014870224 0.010045189
v 0.028751254 0.03629898 -0.010045136
v 0.028635344 0.038981665 0.010045196
v 0.029005546 0.05796501 0.010045189
v 0.029333329 0.07477325 0.010045166
v 0.029519372 0.07431187 -0.010045124
vt 0.6958008 0.050689697
vt 0.69970703 0.050689697
vt 0.69970703 0.040618896
vt 0.69628906 0.040618896
vt 0.69970703 0.040618896
vt 0.69970703 0.050689697
vt 0.70410156 0.050689697
vt 0.70410156 0.040618896
vt 0.7080078 0.040618896
vt 0.7084961 0.050689697
vt 0.6904297 0.040618896
vt 0.6958008 0.050689697
vt 0.69628906 0.040618896
vt 0.6904297 0.050689697
vt 0.6845703 0.040618896
vt 0.6845703 0.050689697
vt 0.6796875 0.050689697
vt 0.6796875 0.040618896
vt 0.6748047 0.040618896
vt 0.6743164 0.050689697
vt 0.23010254 0.35058594
vt 0.23449707 0.35058594
vt 0.23718262 0.3491211
vt 0.22998047 0.34033203
vt 0.22570801 0.3527832
vt 0.22277832 0.3527832
vt 0.21313477 0.34301758
vt 0.21264648 0.35498047
vt 0.22827148 0.33642578
vt 0.2220459 0.35546875
vt 0.22680664 0.33251953
vt 0.22192383 0.35791016
vt 0.22351074 0.3293457
vt 0.21984863 0.35839844
vt 0.2220459 0.32421875
vt 0.2199707 0.32177734
vt 0.21643066 0.32080078
vt 0.21374512 0.31835938
vt 0.21850586 0.3618164
vt 0.2175293 0.36328125
vt 0.21679688 0.36572266
vt 0.21240234 0.36401367
vt 0.21618652 0.36791992
vt 0.21484375 0.37304688
vt 0.21569824 0.37158203
vt 0.21447754 0.37573242
vt 0.21191406 0.37963867
vt 0.6635742 0.050689697
vt 0.6743164 0.050689697
vt 0.6748047 0.040618896
vt 0.66259766 0.040618896
vt 0.66015625 0.040618896
vt 0.66015625 0.050689697
vt 0.6635742 0.050689697
vt 0.66259766 0.040618896
vt 0.6557617 0.040618896
vt 0.6567383 0.050689697
vt 0.66015625 0.050689697
vt 0.66015625 0.040618896
vt 0.6503906 0.040618896
vt 0.6508789 0.050689697
vt 0.6567383 0.050689697
vt 0.6557617 0.040618896
vt 0.64697266 0.050689697
vt 0.6508789 0.050689697
vt 0.6503906 0.040618896
vt 0.64697266 0.040618896
vt 0.64404297 0.040618896
vt 0.64697266 0.050689697
vt 0.64697266 0.040618896
vt 0.6430664 0.050689697
vt 0.64208984 0.050689697
vt 0.6411133 0.040618896
vt 0.6386719 0.040618896
vt 0.64208984 0.050689697
vt 0.6411133 0.040618896
vt 0.63916016 0.050689697
vt 0.6347656 0.040618896
vt 0.6347656 0.050689697
vt 0.6328125 0.040618896
vt 0.6328125 0.050689697
vt 0.6308594 0.050689697
vt 0.6298828 0.040618896
vt 0.6279297 0.050689697
vt 0.6308594 0.050689697
vt 0.6298828 0.040618896
vt 0.6274414 0.040618896
vt 0.6230469 0.040618896
vt 0.6225586 0.050689697
vt 0.62109375 0.040618896
vt 0.6225586 0.050689697
vt 0.6230469 0.040618896
vt 0.62060547 0.050689697
vt 0.6176758 0.040618896
vt 0.61572266 0.050689697
vt 0.6123047 0.050689697
vt 0.6123047 0.040618896
vt 0.20544434 0.6767578
vt 0.20678711 0.6791992
vt 0.20666504 0.6723633
vt 0.20532227 0.6723633
vt 0.20483398 0.671875
vt 0.2043457 0.67089844
vt 0.2043457 0.66552734
vt 0.20507812 0.6640625
vt 0.20336914 0.66308594
vt 0.20666504 0.6640625
vt 0.2019043 0.6621094
vt 0.20483398 0.6538086
vt 0.2006836 0.66064453
vt 0.20019531 0.6567383
vt 0.19812012 0.65478516
vt 0.19824219 0.6538086
vt 0.20654297 0.6538086
vt 0.19702148 0.6508789
vt 0.20446777 0.64208984
vt 0.20629883 0.64208984
vt 0.20373535 0.6201172
vt 0.20593262 0.6171875
vt 0.20056152 0.62109375
vt 0.19836426 0.62353516
vt 0.19726562 0.6279297
vt 0.19348145 0.6308594
vt 0.19238281 0.6352539
vt 0.19104004 0.63964844
vt 0.19360352 0.6508789
vt 0.1895752 0.6479492
vt 0.18701172 0.6489258
vt 0.18518066 0.64697266
vt 0.73828125 0.040618896
vt 0.7080078 0.040618896
vt 0.7084961 0.050689697
vt 0.7392578 0.050689697
vt 0.75341797 0.040618896
vt 0.75390625 0.050689697
vt 0.76464844 0.040618896
vt 0.7661133 0.050689697
vt 0.7758789 0.050689697
vt 0.78466797 0.050689697
vt 0.7841797 0.040618896
vn -0.73339844 -0.65771484 0.17211914
vn -0.73339844 -0.65771484 0.17211914
vn -0.73339844 -0.65771484 0.17211914
vn -0.73339844 -0.65771484 0.17211914
vn -0.30297852 -0.9370117 0.1751709
vn -0.30297852 -0.9370117 0.1751709
vn -0.53515625 -0.83203125 0.14526367
vn -0.546875 -0.82470703 0.14331055
vn -0.74316406 -0.6611328 0.10296631
vn -0.74316406 -0.6611328 0.10296631
vn -0.8461914 -0.5161133 0.13391113
vn -0.95458984 -0.26293945 0.1385498
vn -0.95458984 -0.26293945 0.1385498
vn -0.8466797 -0.5151367 0.13391113
vn -0.82470703 -0.5522461 0.12249756
vn -0.8222656 -0.55566406 0.12249756
vn -0.93847656 -0.31298828 0.1451416
vn -0.93896484 -0.31274414 0.14404297
vn -0.93310547 -0.3178711 0.16906738
vn -0.93310547 -0.3178711 0.16906738
vn -1.7881393E-07 -4.172325E-07 -1
vn -0 0 -1
vn -0 0 -1
vn 2.3841858E-07 -3.5762787E-07 -1
vn -2.9802322E-07 -7.1525574E-07 -1
vn 7.748604E-07 -5.364418E-07 -1
vn 8.34465E-07 -2.9802322E-07 -1
vn 2.1457672E-06 1.7881393E-07 -1
vn 4.7683716E-07 4.172325E-07 -1
vn 1.9669533E-06 -2.9802322E-07 -1
vn 3.5762787E-07 4.172325E-07 -1
vn 1.9073486E-06 -1.1920929E-07 -1
vn 8.940697E-07 2.3841858E-07 -1
vn 1.847744E-06 -3.5762787E-07 -1
vn 5.9604645E-07 2.3841858E-07 -1
vn 2.9802322E-07 3.5762787E-07 -1
vn 3.5762787E-07 3.5762787E-07 -1
vn 3.5762787E-07 3.5762787E-07 -1
vn 1.847744E-06 -5.9604645E-07 -1
vn 3.2186508E-06 0 -1
vn 3.5762787E-06 -2.3841858E-07 -1
vn 3.8146973E-06 0 -1
vn 4.1127205E-06 -4.7683716E-07 -1
vn 6.67572E-06 0 -1
vn 3.993511E-06 -2.9802322E-07 -1
vn 7.033348E-06 0 -1
vn 7.033348E-06 0 -1
vn -0.7519531 -0.63183594 0.18798828
vn -0.7519531 -0.63183594 0.18798828
vn -0.7519531 -0.63183594 0.18798828
vn -0.7519531 -0.63183594 0.18798828
vn -0.60839844 0.75878906 0.2322998
vn -0.60839844 0.75878906 0.2322998
vn -0.60839844 0.75878906 0.2322998
vn -0.60839844 0.75878906 0.2322998
vn 0.15698242 0.98339844 0.09100342
vn 0.15698242 0.98339844 0.09100342
vn 0.15698242 0.98339844 0.09100342
vn 0.15698242 0.98339844 0.09100342
vn -0.5307617 0.8408203 0.10681152
vn -0.5307617 0.8408203 0.10681152
vn -0.5307617 0.8408203 0.10681152
vn -0.5307617 0.8408203 0.10681152
vn -0.069885254 0.99560547 0.06225586
vn -0.069885254 0.99560547 0.06225586
vn -0.069885254 0.99560547 0.06225586
vn -0.069885254 0.99560547 0.06225586
vn -0.97314453 0.20153809 0.11230469
vn -0.94189453 0.3203125 0.103149414
vn -0.94189453 0.3203125 0.103149414
vn -0.97265625 0.20251465 0.11224365
vn -0.9921875 -0.010551453 0.12402344
vn -0.9921875 -0.010551453 0.12402344
vn -0.8432617 0.52685547 0.10638428
vn -0.49536133 0.8540039 0.15820312
vn -0.49536133 0.8540039 0.15820312
vn -0.85058594 0.5151367 0.10449219
vn -0.9277344 0.3701172 0.051605225
vn -0.9272461 0.37036133 0.051605225
vn -0.82128906 0.56396484 0.08721924
vn -0.8208008 0.5649414 0.08660889
vn -0.8540039 0.50439453 0.12756348
vn -0.8540039 0.50439453 0.12756348
vn -0.97021484 0.16333008 0.17810059
vn -0.9267578 0.31982422 0.19689941
vn -0.9267578 0.31982422 0.19689941
vn -0.9736328 0.14648438 0.17590332
vn -0.984375 0.062561035 0.16381836
vn -0.984375 0.062561035 0.16381836
vn -0.9707031 0.21813965 0.1026001
vn -0.9067383 0.40844727 0.103515625
vn -0.9067383 0.40844727 0.103515625
vn -0.9711914 0.21569824 0.10253906
vn -0.9506836 0.30566406 0.055755615
vn -0.9321289 0.359375 0.040893555
vn -0.8618164 0.5073242 -0.0027046204
vn -0.8618164 0.5073242 -0.0027046204
vn 4.6491623E-06 7.1525574E-07 1
vn 0.99902344 -0.019973755 0.032989502
vn 0.9916992 -0.01977539 0.12634277
vn 2.9802322E-07 1.7881393E-07 1
vn -5.9604645E-06 1.4901161E-06 1
vn -1.0073185E-05 -1.3113022E-06 1
vn -9.4771385E-06 -4.172325E-07 1
vn -8.34465E-07 1.7881393E-07 1
vn 1.7881393E-07 0 1
vn 0.9682617 -0.019104004 0.24951172
vn 5.364418E-07 -1.1920929E-07 1
vn -1.1920929E-07 0 1
vn -1.3113022E-06 -1.1920929E-06 1
vn -3.33786E-06 -3.3974648E-06 1
vn -0 -2.503395E-06 1
vn -1.7285347E-06 4.1127205E-06 1
vn 0.9790039 -0.019424438 0.20349121
vn -7.748604E-07 5.364418E-07 1
vn 3.5762787E-07 0 1
vn 0.97558594 -0.01914978 0.21960449
vn 5.364418E-07 1.1920929E-07 1
vn 0.9951172 -0.019424438 0.09448242
vn -2.3841858E-07 1.7881393E-07 1
vn -7.748604E-07 2.3841858E-07 1
vn 2.3841858E-07 -1.1920929E-07 1
vn 1.7881393E-07 0 1
vn -1.7881393E-07 2.9802322E-07 1
vn -2.3841858E-07 2.3841858E-07 1
vn -3.695488E-06 8.34465E-07 1
vn -3.5762787E-07 1.4305115E-06 1
vn 4.9471855E-06 2.3245811E-06 1
vn 4.9471855E-06 2.3245811E-06 1
vn 1 -0.019622803 0.0066986084
vn 1 -0.019515991 0.0065231323
vn 0.9951172 -0.019424438 0.09448242
vn 0.97558594 -0.01914978 0.21960449
vn 1 -0.019851685 0.0075035095
vn 0.9790039 -0.019424438 0.20349121
vn 1 -0.019851685 0.00844574
vn 0.9682617 -0.019104004 0.24951172
vn 0.9916992 -0.01977539 0.12634277
vn 0.99902344 -0.019973755 0.032989502
vn 1 -0.019989014 0.009307861
g doorR01_geo_0
f 3/3/3 2/2/2 1/1/1
f 4/4/4 3/3/3 1/1/1
f 7/7/7 6/6/6 5/5/5
f 8/8/8 7/7/7 5/5/5
f 7/7/7 8/8/8 9/9/9
f 10/10/10 7/7/7 9/9/9
f 13/13/13 12/12/12 11/11/11
f 12/12/12 14/14/14 11/11/11
f 11/11/11 14/14/14 15/15/15
f 14/14/14 16/16/16 15/15/15
f 15/15/15 16/16/16 17/17/17
f 18/18/18 15/15/15 17/17/17
f 18/18/18 17/17/17 19/19/19
f 17/17/17 20/20/20 19/19/19
f 23/23/23 22/22/22 21/21/21
f 24/24/24 23/23/23 21/21/21
f 24/24/24 21/21/21 25/25/25
f 26/26/26 24/24/24 25/25/25
f 26/26/26 27/27/27 24/24/24
f 28/28/28 27/27/27 26/26/26
f 27/27/27 29/29/29 24/24/24
f 28/28/28 26/26/26 30/30/30
f 27/27/27 31/31/31 29/29/29
f 28/28/28 30/30/30 32/32/32
f 27/27/27 33/33/33 31/31/31
f 28/28/28 32/32/32 34/34/34
f 27/27/27 35/35/35 33/33/33
f 27/27/27 36/36/36 35/35/35
f 27/27/27 37/37/37 36/36/36
f 27/27/27 38/38/38 37/37/37
f 28/28/28 34/34/34 39/39/39
f 28/28/28 39/39/39 40/40/40
f 28/28/28 40/40/40 41/41/41
f 42/42/42 28/28/28 41/41/41
f 42/42/42 41/41/41 43/43/43
f 42/42/42 43/43/43 44/44/44
f 43/43/43 45/45/45 44/44/44
f 42/42/42 44/44/44 46/46/46
f 47/47/47 42/42/42 46/46/46
f 50/50/50 49/49/49 48/48/48
f 51/51/51 50/50/50 48/48/48
f 54/54/54 53/53/53 52/52/52
f 55/55/55 54/54/54 52/52/52
f 58/58/58 57/57/57 56/56/56
f 59/59/59 58/58/58 56/56/56
f 62/62/62 61/61/61 60/60/60
f 63/63/63 62/62/62 60/60/60
f 66/66/66 65/65/65 64/64/64
f 67/67/67 66/66/66 64/64/64
f 70/70/70 69/69/69 68/68/68
f 69/69/69 71/71/71 68/68/68
f 68/68/68 71/71/71 72/72/72
f 73/73/73 68/68/68 72/72/72
f 76/76/76 75/75/75 74/74/74
f 75/75/75 77/77/77 74/74/74
f 74/74/74 77/77/77 78/78/78
f 77/77/77 79/79/79 78/78/78
f 78/78/78 79/79/79 80/80/80
f 79/79/79 81/81/81 80/80/80
f 80/80/80 81/81/81 82/82/82
f 83/83/83 80/80/80 82/82/82
f 86/86/86 85/85/85 84/84/84
f 87/87/87 86/86/86 84/84/84
f 87/87/87 84/84/84 88/88/88
f 84/84/84 89/89/89 88/88/88
f 92/92/92 91/91/91 90/90/90
f 91/91/91 93/93/93 90/90/90
f 90/90/90 93/93/93 94/94/94
f 93/93/93 95/95/95 94/94/94
f 95/95/95 96/96/96 94/94/94
f 96/96/96 97/97/97 94/94/94
f 100/100/100 99/99/99 98/98/98
f 101/101/101 100/100/100 98/98/98
f 102/102/102 101/101/101 98/98/98
f 102/102/102 103/103/103 101/101/101
f 103/103/103 104/104/104 101/101/101
f 101/101/101 105/105/105 100/100/100
f 104/104/104 105/105/105 101/101/101
f 104/104/104 106/106/106 105/105/105
f 105/105/105 107/107/107 100/100/100
f 106/106/106 108/108/108 105/105/105
f 105/105/105 109/109/109 107/107/107
f 108/108/108 109/109/109 105/105/105
f 108/108/108 110/110/110 109/109/109
f 110/110/110 111/111/111 109/109/109
f 111/111/111 112/112/112 109/109/109
f 112/112/112 113/113/113 109/109/109
f 109/109/109 114/114/114 107/107/107
f 113/113/113 115/115/115 109/109/109
f 109/109/109 116/116/116 114/114/114
f 115/115/115 116/116/116 109/109/109
f 116/116/116 117/117/117 114/114/114
f 116/116/116 118/118/118 117/117/117
f 118/118/118 119/119/119 117/117/117
f 120/120/120 118/118/118 116/116/116
f 121/121/121 120/120/120 116/116/116
f 122/122/122 121/121/121 116/116/116
f 123/123/123 122/122/122 116/116/116
f 124/124/124 123/123/123 116/116/116
f 125/125/125 124/124/124 116/116/116
f 115/115/115 125/125/125 116/116/116
f 115/115/115 126/126/126 125/125/125
f 126/126/126 127/127/127 125/125/125
f 127/127/127 128/128/128 125/125/125
f 128/128/128 129/129/129 125/125/125
f 132/132/132 131/131/131 130/130/130
f 133/133/133 132/132/132 130/130/130
f 133/133/133 130/130/130 134/134/134
f 135/135/135 133/133/133 134/134/134
f 135/135/135 134/134/134 136/136/136
f 137/137/137 135/135/135 136/136/136
f 138/138/138 137/137/137 136/136/136
f 138/138/138 136/136/136 139/139/139
f 136/136/136 140/140/140 139/139/139
