g doorL17_geo
v -0.0036207866 0.008005219 -0.009981473
v -0.005734434 0.0047684098 0.009954908
v -0.010102034 0.008098144 -0.009981492
v -0.003230276 0.004023361 0.009950472
v 0.0069913575 0.0035618972 -0.009981411
v 0.0063928887 0.0017894363 0.009951063
v -0.005734434 0.0047684098 0.009954908
v 0.00048159598 -0.008098144 -0.009981411
v -0.010102034 0.008098144 -0.009981492
v 0.0005769443 -0.004975986 0.009957814
v 0.004406786 -0.0052911374 -0.009981411
v 0.002813177 -0.0028836823 0.009981492
v 0.008392019 -0.003329563 -0.009981492
v 0.006725702 -0.0029239464 0.009919316
v 0.010102034 1.8959045E-05 -0.009981492
v 0.008033685 5.5732726E-05 0.009929704
v 0.008033685 5.5732726E-05 0.009929704
v 0.0063928887 0.0017894363 0.009951063
v 0.0069913575 0.0035618972 -0.009981411
v 0.010102034 1.8959045E-05 -0.009981492
v -0.010102034 0.008098144 -0.009981492
v 0.00048159598 -0.008098144 -0.009981411
v 0.004406786 -0.0052911374 -0.009981411
v -0.0036207866 0.008005219 -0.009981473
v 0.0069913575 0.0035618972 -0.009981411
v 0.010102034 1.8959045E-05 -0.009981492
v 0.008392019 -0.003329563 -0.009981492
v 0.0063928887 0.0017894363 0.009951063
v 0.008033685 5.5732726E-05 0.009929704
v 0.006725702 -0.0029239464 0.009919316
v 0.002813177 -0.0028836823 0.009981492
v -0.003230276 0.004023361 0.009950472
v -0.005734434 0.0047684098 0.009954908
v 0.0005769443 -0.004975986 0.009957814
vt 0.6791992 0.040618896
vt 0.6791992 0.050689697
vt 0.6826172 0.040618896
vt 0.6777344 0.050689697
vt 0.6738281 0.040618896
vt 0.67285156 0.050689697
vt 0.65966797 0.050689697
vt 0.66552734 0.040618896
vt 0.65625 0.040618896
vt 0.66552734 0.050689697
vt 0.66796875 0.040618896
vt 0.66748047 0.050689697
vt 0.6699219 0.040618896
vt 0.6694336 0.050689697
vt 0.6713867 0.040618896
vt 0.6713867 0.050689697
vt 0.6713867 0.050689697
vt 0.67285156 0.050689697
vt 0.6738281 0.040618896
vt 0.6713867 0.040618896
vt 0.101501465 0.234375
vt 0.09655762 0.22766113
vt 0.09484863 0.22888184
vt 0.09857178 0.23425293
vt 0.093688965 0.23242188
vt 0.092285156 0.23095703
vt 0.09301758 0.22961426
vt 0.33276367 0.5288086
vt 0.33374023 0.52685547
vt 0.3334961 0.52441406
vt 0.33154297 0.5258789
vt 0.32763672 0.53125
vt 0.32641602 0.53222656
vt 0.3310547 0.5263672
vn 0.24291992 0.9584961 0.14819336
vn 0.09161377 0.9814453 0.16906738
vn 0.09161377 0.9814453 0.16906738
vn 0.25024414 0.95703125 0.14697266
vn 0.31030273 0.9404297 0.13745117
vn 0.31030273 0.9404297 0.13745117
vn -0.83447266 -0.54345703 0.09057617
vn -0.6645508 -0.7368164 0.123168945
vn -0.83447266 -0.54345703 0.09057617
vn -0.6699219 -0.7319336 0.12237549
vn 0.43310547 -0.89453125 0.11138916
vn 0.43823242 -0.89208984 0.11193848
vn 0.61035156 -0.7861328 0.09765625
vn 0.58740234 -0.80371094 0.097473145
vn 0.8989258 -0.42895508 0.08911133
vn 0.8989258 -0.42895508 0.08911133
vn 0.74121094 0.6669922 0.07867432
vn 0.74121094 0.6669922 0.07867432
vn 0.74121094 0.6669922 0.07867432
vn 0.74121094 0.6669922 0.07867432
vn 2.682209E-06 -3.1590462E-06 -1
vn 2.682209E-06 -3.1590462E-06 -1
vn 1.013279E-06 -1.847744E-06 -1
vn 3.0398369E-06 -2.9206276E-06 -1
vn -2.9802322E-07 3.5762787E-07 -1
vn -2.104044E-05 7.4505806E-06 -1
vn -2.104044E-05 7.4505806E-06 -1
vn 0.0056915283 0.0013237 1
vn 0.013183594 -0.0058021545 1
vn 0.013183594 -0.0058021545 1
vn 0.0006284714 0.0011863708 1
vn -0.0027599335 0.0005426407 1
vn -0.003829956 -0.0008049011 1
vn -0.003829956 -0.0008049011 1
g doorL17_geo_0
f 3/3/3 2/2/2 1/1/1
f 2/2/2 4/4/4 1/1/1
f 5/5/5 1/1/1 4/4/4
f 6/6/6 5/5/5 4/4/4
f 9/9/9 8/8/8 7/7/7
f 8/8/8 10/10/10 7/7/7
f 8/8/8 11/11/11 10/10/10
f 11/11/11 12/12/12 10/10/10
f 11/11/11 13/13/13 12/12/12
f 13/13/13 14/14/14 12/12/12
f 13/13/13 15/15/15 14/14/14
f 15/15/15 16/16/16 14/14/14
f 19/19/19 18/18/18 17/17/17
f 20/20/20 19/19/19 17/17/17
f 23/23/23 22/22/22 21/21/21
f 24/24/24 23/23/23 21/21/21
f 24/24/24 25/25/25 23/23/23
f 25/25/25 26/26/26 23/23/23
f 26/26/26 27/27/27 23/23/23
f 30/30/30 29/29/29 28/28/28
f 31/31/31 30/30/30 28/28/28
f 32/32/32 31/31/31 28/28/28
f 32/32/32 33/33/33 31/31/31
f 33/33/33 34/34/34 31/31/31
