g doorL13_geo
v -0.0120199295 -0.040086783 0.010083934
v 0.002370901 -0.050660893 0.010083595
v 0.0023742008 -0.05380371 -0.010084492
v -0.012445497 -0.04125057 -0.010084492
v -0.014598359 -0.0411573 -0.010084492
v -0.013829259 -0.039276123 0.010083596
v -0.017850408 -0.032762185 0.010083235
v -0.019665211 -0.033982925 -0.010084492
v -0.020621251 -0.02825138 0.0100833215
v -0.022913674 -0.029268684 -0.010084492
v -0.02332816 -0.022192039 0.010083638
v -0.0248923 -0.023170624 -0.010084492
v -0.026926488 -0.018527297 0.01008396
v -0.027934313 -0.019282455 -0.010084492
v -0.030999746 -0.014465103 0.010084424
v -0.031392355 -0.014556503 -0.010084492
v -0.028801316 -0.009645462 0.010083732
v -0.030383538 -0.009169273 -0.010084492
v -0.026243143 -0.0047174073 0.010083579
v -0.02823922 -0.004519577 -0.010084492
v -0.026755037 0.0002546692 0.010083442
v -0.02925086 0.00065727235 -0.010084492
v -0.024797792 0.0051766206 0.010083861
v -0.027107477 0.0052254484 -0.010084492
v -0.036397006 0.02825012 0.01008411
v -0.037380666 0.029321555 -0.010084492
v 0.002370901 -0.050660893 0.010083595
v 0.006139021 -0.0487376 -0.010084492
v 0.0023742008 -0.05380371 -0.010084492
v 0.0039023112 -0.04717125 0.010083356
v 0.010011701 -0.042628553 -0.010084492
v 0.009473257 -0.04219734 0.010084171
v 0.015334234 -0.03733322 -0.010084492
v 0.0133636 -0.03587578 0.010083314
v 0.01844699 -0.03286644 -0.010084492
v 0.016897649 -0.031421013 0.010083579
v 0.028750638 -0.02702652 0.010083412
v 0.031005124 -0.02903324 -0.010084492
v -0.025139665 0.04223579 0.010083151
v -0.036397006 0.02825012 0.01008411
v -0.037380666 0.029321555 -0.010084492
v -0.027398957 0.04373783 -0.010084492
v -0.020622473 0.05354183 0.010084492
v -0.02071042 0.05380371 -0.010084492
v 0.037380666 0.031841353 -0.010084492
v 0.031005124 -0.02903324 -0.010084492
v 0.028750638 -0.02702652 0.010083412
v 0.035124272 0.0318861 0.010083463
v 0.03674327 0.041684415 -0.010084492
v 0.03402133 0.04042648 0.010083293
v 0.027960347 0.050194778 -0.010084492
v 0.027045736 0.04815674 0.01008362
v -0.020622473 0.05354183 0.010084492
v -0.02071042 0.05380371 -0.010084492
v -0.0120199295 -0.040086783 0.010083934
v -0.013829259 -0.039276123 0.010083596
v -0.017850408 -0.032762185 0.010083235
v 0.009473257 -0.04219734 0.010084171
v -0.020621251 -0.02825138 0.0100833215
v 0.0039023112 -0.04717125 0.010083356
v 0.002370901 -0.050660893 0.010083595
v 0.0133636 -0.03587578 0.010083314
v -0.02332816 -0.022192039 0.010083638
v 0.016897649 -0.031421013 0.010083579
v 0.020214604 -0.0009664154 0.010083957
v 0.028750638 -0.02702652 0.010083412
v 0.035124272 0.0318861 0.010083463
v 0.02438567 0.037330244 0.010084431
v 0.03402133 0.04042648 0.010083293
v 0.027045736 0.04815674 0.01008362
v -0.020622473 0.05354183 0.010084492
v -0.025139665 0.04223579 0.010083151
v -0.036397006 0.02825012 0.01008411
v -0.024797792 0.0051766206 0.010083861
v -0.026755037 0.0002546692 0.010083442
v -0.026243143 -0.0047174073 0.010083579
v -0.028801316 -0.009645462 0.010083732
v -0.026926488 -0.018527297 0.01008396
v -0.030999746 -0.014465103 0.010084424
v -0.030383538 -0.009169273 -0.010084492
v -0.031392355 -0.014556503 -0.010084492
v -0.027934313 -0.019282455 -0.010084492
v -0.02823922 -0.004519577 -0.010084492
v -0.0248923 -0.023170624 -0.010084492
v 0.01844699 -0.03286644 -0.010084492
v 0.015334234 -0.03733322 -0.010084492
v 0.010011701 -0.042628553 -0.010084492
v -0.022913674 -0.029268684 -0.010084492
v -0.019665211 -0.033982925 -0.010084492
v 0.006139021 -0.0487376 -0.010084492
v -0.012445497 -0.04125057 -0.010084492
v -0.014598359 -0.0411573 -0.010084492
v 0.0023742008 -0.05380371 -0.010084492
v 0.021263113 0.0004208374 -0.010084492
v 0.031005124 -0.02903324 -0.010084492
v -0.02925086 0.00065727235 -0.010084492
v 0.037380666 0.031841353 -0.010084492
v 0.02438567 0.037330285 -0.010084492
v -0.027107477 0.0052254484 -0.010084492
v 0.03674327 0.041684415 -0.010084492
v -0.037380666 0.029321555 -0.010084492
v 0.027960347 0.050194778 -0.010084492
v -0.027398957 0.04373783 -0.010084492
v -0.02071042 0.05380371 -0.010084492
vt 0.6220703 0.050689697
vt 0.6308594 0.050689697
vt 0.6308594 0.040618896
vt 0.6220703 0.040618896
vt 0.62109375 0.040618896
vt 0.62109375 0.050689697
vt 0.6171875 0.050689697
vt 0.6171875 0.040618896
vt 0.6142578 0.050689697
vt 0.6142578 0.040618896
vt 0.6113281 0.050689697
vt 0.61083984 0.040618896
vt 0.60839844 0.050689697
vt 0.60839844 0.040618896
vt 0.60546875 0.050689697
vt 0.60546875 0.040618896
vt 0.60302734 0.050689697
vt 0.60302734 0.040618896
vt 0.60009766 0.050689697
vt 0.60009766 0.040618896
vt 0.59765625 0.050689697
vt 0.59765625 0.040618896
vt 0.59521484 0.050689697
vt 0.59472656 0.040618896
vt 0.58251953 0.050689697
vt 0.58154297 0.040618896
vt 0.6308594 0.050689697
vt 0.63378906 0.040618896
vt 0.6308594 0.040618896
vt 0.6328125 0.050689697
vt 0.63720703 0.040618896
vt 0.63671875 0.050689697
vt 0.640625 0.040618896
vt 0.6401367 0.050689697
vt 0.6430664 0.040618896
vt 0.6430664 0.050689697
vt 0.6489258 0.050689697
vt 0.64941406 0.040618896
vt 0.4099121 0.025772095
vt 0.4169922 0.025772095
vt 0.4169922 0.017501831
vt 0.4099121 0.017501831
vt 0.40527344 0.025772095
vt 0.40527344 0.017501831
vt 0.36791992 0.017501831
vt 0.3359375 0.017501831
vt 0.3359375 0.025772095
vt 0.36791992 0.025772095
vt 0.37329102 0.017501831
vt 0.37329102 0.025772095
vt 0.37963867 0.017501831
vt 0.37963867 0.025772095
vt 0.40527344 0.025772095
vt 0.40527344 0.017501831
vt 0.33276367 0.59033203
vt 0.33203125 0.5908203
vt 0.33007812 0.59375
vt 0.34326172 0.58935547
vt 0.32861328 0.5957031
vt 0.34057617 0.58740234
vt 0.33984375 0.5859375
vt 0.3449707 0.59228516
vt 0.32739258 0.59814453
vt 0.34643555 0.59375
vt 0.3479004 0.6069336
vt 0.35180664 0.5957031
vt 0.35498047 0.62109375
vt 0.34985352 0.62353516
vt 0.35473633 0.625
vt 0.35131836 0.62841797
vt 0.328125 0.6308594
vt 0.32592773 0.62597656
vt 0.32055664 0.6196289
vt 0.32641602 0.6098633
vt 0.32543945 0.60791016
vt 0.3256836 0.60546875
vt 0.3244629 0.6035156
vt 0.32543945 0.5996094
vt 0.32348633 0.6015625
vt 0.09234619 0.30566406
vt 0.0927124 0.3034668
vt 0.09118652 0.30151367
vt 0.09136963 0.3076172
vt 0.089782715 0.2998047
vt 0.07055664 0.29589844
vt 0.07183838 0.29418945
vt 0.074157715 0.2919922
vt 0.08886719 0.29736328
vt 0.087402344 0.29541016
vt 0.0758667 0.28930664
vt 0.08416748 0.29248047
vt 0.08508301 0.29248047
vt 0.07751465 0.28735352
vt 0.06945801 0.3095703
vt 0.06518555 0.29760742
vt 0.09185791 0.30981445
vt 0.062438965 0.32250977
vt 0.06817627 0.32495117
vt 0.09094238 0.31152344
vt 0.062683105 0.32666016
vt 0.09564209 0.3215332
vt 0.066589355 0.33007812
vt 0.091308594 0.32739258
vt 0.08850098 0.33154297
vn -0.5839844 -0.8066406 0.089660645
vn -0.61816406 -0.7807617 0.08984375
vn -0.61816406 -0.7807617 0.08984375
vn -0.58447266 -0.8066406 0.089660645
vn -0.74072266 -0.6645508 0.09667969
vn -0.7451172 -0.66015625 0.09667969
vn -0.8305664 -0.5473633 0.103271484
vn -0.8305664 -0.5473633 0.103271484
vn -0.8886719 -0.4453125 0.11090088
vn -0.8886719 -0.44458008 0.110839844
vn -0.86328125 -0.49560547 0.09466553
vn -0.86328125 -0.49536133 0.09472656
vn -0.75439453 -0.6542969 0.056884766
vn -0.75439453 -0.6542969 0.056793213
vn -0.9736328 -0.22143555 0.050933838
vn -0.9736328 -0.22167969 0.050933838
vn -0.92626953 0.3708496 0.06842041
vn -0.92626953 0.37036133 0.06829834
vn -0.9824219 0.15661621 0.10144043
vn -0.9819336 0.1586914 0.10131836
vn -0.9848633 0.12878418 0.11456299
vn -0.9848633 0.13000488 0.11456299
vn -0.95166016 -0.29760742 0.07434082
vn -0.95166016 -0.29858398 0.07421875
vn -0.90527344 -0.41992188 0.06225586
vn -0.90527344 -0.41992188 0.06225586
vn 0.84521484 -0.5234375 0.10803223
vn 0.7963867 -0.59765625 0.09423828
vn 0.84521484 -0.5234375 0.10803223
vn 0.7963867 -0.59765625 0.09423828
vn 0.77001953 -0.6328125 0.08087158
vn 0.77001953 -0.6328125 0.08087158
vn 0.78808594 -0.60839844 0.09259033
vn 0.78808594 -0.60839844 0.0925293
vn 0.47753906 -0.87109375 0.115356445
vn 0.48291016 -0.86816406 0.115478516
vn 0.3173828 -0.94189453 0.11053467
vn 0.3173828 -0.94189453 0.11053467
vn -0.8339844 0.5439453 0.090148926
vn -0.796875 0.5957031 0.10205078
vn -0.796875 0.5957031 0.10205078
vn -0.83447266 0.5439453 0.09008789
vn -0.8833008 0.46313477 0.07165527
vn -0.8833008 0.46313477 0.07165527
vn 0.9057617 -0.072143555 -0.4177246
vn 0.9736328 -0.103637695 -0.20397949
vn 0.9321289 -0.099243164 0.34814453
vn 0.84765625 -0.06744385 0.5263672
vn 0.88378906 0.44677734 -0.13757324
vn 0.8520508 0.43041992 0.2980957
vn 0.20141602 0.89453125 -0.39892578
vn 0.19470215 0.8618164 0.46801758
vn 0.07531738 0.8066406 0.5859375
vn 0.073913574 0.7919922 -0.60595703
vn -1.1861324E-05 -9.119511E-06 1
vn -0.00022363663 -8.267164E-05 1
vn -3.7014484E-05 -3.5226345E-05 1
vn 3.1590462E-06 2.7358532E-05 1
vn 6.6161156E-06 3.784895E-05 1
vn -7.1525574E-07 -8.34465E-07 1
vn 5.596876E-05 4.416704E-05 1
vn 1.66893E-06 4.7683716E-06 1
vn -2.2053719E-06 -2.8014183E-06 1
vn -2.026558E-06 -1.0371208E-05 1
vn 1.8000603E-05 -1.0311604E-05 1
vn 0.9321289 -0.099243164 0.34814453
vn 0.84765625 -0.06744385 0.5263672
vn 1.2516975E-05 -1.0669231E-05 1
vn 0.8520508 0.43041992 0.2980957
vn 0.19470215 0.8618164 0.46801758
vn 0.07531738 0.8066406 0.5859375
vn -1.2397766E-05 3.349781E-05 1
vn -6.6161156E-06 9.179115E-06 1
vn -4.5895576E-06 -1.9729137E-05 1
vn -1.1563301E-05 -2.2172928E-05 1
vn -3.5762787E-06 -2.6226044E-06 1
vn 8.046627E-05 2.7120113E-05 1
vn 7.945299E-05 2.670288E-05 1
vn 0.00017678738 6.300211E-05 1
vn 2.3841858E-07 0 -1
vn -1.013279E-06 0 -1
vn 2.3841858E-07 0 -1
vn -0 0 -1
vn -0 0 -1
vn -0 0 -1
vn -0 0 -1
vn -0 0 -1
vn -0 0 -1
vn -0 0 -1
vn -0 0 -1
vn -0 0 -1
vn -0 0 -1
vn -0 0 -1
vn -0 0 -1
vn 0.9736328 -0.103637695 -0.20397949
vn -0 0 -1
vn 0.9057617 -0.072143555 -0.4177246
vn -0 0 -1
vn -0 0 -1
vn 0.88378906 0.44677734 -0.13757324
vn -0 0 -1
vn 0.20141602 0.89453125 -0.39892578
vn -0 0 -1
vn 0.073913574 0.7919922 -0.60595703
g doorL13_geo_0
f 3/3/3 2/2/2 1/1/1
f 4/4/4 3/3/3 1/1/1
f 5/5/5 4/4/4 1/1/1
f 6/6/6 5/5/5 1/1/1
f 5/5/5 6/6/6 7/7/7
f 8/8/8 5/5/5 7/7/7
f 7/7/7 9/9/9 8/8/8
f 9/9/9 10/10/10 8/8/8
f 9/9/9 11/11/11 10/10/10
f 11/11/11 12/12/12 10/10/10
f 12/12/12 11/11/11 13/13/13
f 14/14/14 12/12/12 13/13/13
f 13/13/13 15/15/15 14/14/14
f 15/15/15 16/16/16 14/14/14
f 15/15/15 17/17/17 16/16/16
f 17/17/17 18/18/18 16/16/16
f 17/17/17 19/19/19 18/18/18
f 19/19/19 20/20/20 18/18/18
f 19/19/19 21/21/21 20/20/20
f 21/21/21 22/22/22 20/20/20
f 21/21/21 23/23/23 22/22/22
f 23/23/23 24/24/24 22/22/22
f 23/23/23 25/25/25 24/24/24
f 25/25/25 26/26/26 24/24/24
f 29/29/29 28/28/28 27/27/27
f 28/28/28 30/30/30 27/27/27
f 28/28/28 31/31/31 30/30/30
f 31/31/31 32/32/32 30/30/30
f 31/31/31 33/33/33 32/32/32
f 33/33/33 34/34/34 32/32/32
f 34/34/34 33/33/33 35/35/35
f 36/36/36 34/34/34 35/35/35
f 37/37/37 36/36/36 35/35/35
f 38/38/38 37/37/37 35/35/35
f 41/41/41 40/40/40 39/39/39
f 42/42/42 41/41/41 39/39/39
f 42/42/42 39/39/39 43/43/43
f 44/44/44 42/42/42 43/43/43
f 47/47/47 46/46/46 45/45/45
f 48/48/48 47/47/47 45/45/45
f 48/48/48 45/45/45 49/49/49
f 50/50/50 48/48/48 49/49/49
f 50/50/50 49/49/49 51/51/51
f 52/52/52 50/50/50 51/51/51
f 52/52/52 51/51/51 53/53/53
f 51/51/51 54/54/54 53/53/53
f 57/57/57 56/56/56 55/55/55
f 57/57/57 55/55/55 58/58/58
f 59/59/59 57/57/57 58/58/58
f 55/55/55 60/60/60 58/58/58
f 55/55/55 61/61/61 60/60/60
f 59/59/59 58/58/58 62/62/62
f 63/63/63 59/59/59 62/62/62
f 63/63/63 62/62/62 64/64/64
f 63/63/63 64/64/64 65/65/65
f 65/65/65 64/64/64 66/66/66
f 65/65/65 66/66/66 67/67/67
f 68/68/68 65/65/65 67/67/67
f 68/68/68 67/67/67 69/69/69
f 68/68/68 69/69/69 70/70/70
f 70/70/70 71/71/71 68/68/68
f 71/71/71 72/72/72 68/68/68
f 72/72/72 73/73/73 68/68/68
f 73/73/73 74/74/74 68/68/68
f 74/74/74 65/65/65 68/68/68
f 74/74/74 75/75/75 65/65/65
f 75/75/75 76/76/76 65/65/65
f 76/76/76 63/63/63 65/65/65
f 76/76/76 77/77/77 63/63/63
f 77/77/77 78/78/78 63/63/63
f 77/77/77 79/79/79 78/78/78
f 82/82/82 81/81/81 80/80/80
f 82/82/82 80/80/80 83/83/83
f 84/84/84 82/82/82 83/83/83
f 84/84/84 83/83/83 85/85/85
f 84/84/84 85/85/85 86/86/86
f 86/86/86 87/87/87 84/84/84
f 87/87/87 88/88/88 84/84/84
f 87/87/87 89/89/89 88/88/88
f 87/87/87 90/90/90 89/89/89
f 90/90/90 91/91/91 89/89/89
f 91/91/91 92/92/92 89/89/89
f 90/90/90 93/93/93 91/91/91
f 83/83/83 94/94/94 85/85/85
f 95/95/95 85/85/85 94/94/94
f 83/83/83 96/96/96 94/94/94
f 95/95/95 94/94/94 97/97/97
f 94/94/94 98/98/98 97/97/97
f 96/96/96 99/99/99 94/94/94
f 99/99/99 98/98/98 94/94/94
f 97/97/97 98/98/98 100/100/100
f 99/99/99 101/101/101 98/98/98
f 100/100/100 98/98/98 102/102/102
f 101/101/101 103/103/103 98/98/98
f 102/102/102 98/98/98 104/104/104
f 98/98/98 103/103/103 104/104/104
