g doorR05_geo
v -0.02244153 -0.034217585 0.010086289
v -0.011079226 -0.037481822 -0.010483636
v -0.022594575 -0.03483038 -0.010483636
v -0.011056795 -0.034291208 0.01036082
v -0.0041957567 -0.0356563 -0.010483636
v -0.004153261 -0.036128215 0.010131834
v 0.0022027302 -0.037258588 -0.010483636
v 0.0029567622 -0.03492403 0.010374287
v 0.008714647 -0.040323123 -0.010483636
v 0.008695669 -0.04025255 0.010128611
v -0.029999666 0.040543232 -0.010483608
v -0.029098328 0.03916006 0.010236856
v -0.02244153 -0.034217585 0.010086289
v -0.022594575 -0.03483038 -0.010483636
v 0.019272108 -0.040543232 -0.010483636
v 0.019301634 -0.039621904 0.010145153
v 0.019676236 -0.034530237 0.010391326
v 0.021377362 -0.036833934 -0.010483636
v 0.008714647 -0.040323123 -0.010483636
v 0.008695669 -0.04025255 0.010128611
v 0.016013822 -0.03553198 0.010370562
v 0.015716963 -0.03796854 -0.010483636
v 0.015716963 -0.03796854 -0.010483636
v 0.016013822 -0.03553198 0.010370562
v 0.019301634 -0.039621904 0.010145153
v 0.019272108 -0.040543232 -0.010483636
v 0.029999666 -0.03530462 -0.010483636
v 0.029473446 -0.034776248 0.010155023
v 0.023775015 -0.004557972 0.010289471
v 0.02527091 -0.0030394935 -0.010483636
v 0.009022817 0.00010728836 -0.010483636
v 0.0033405018 0.00021192551 0.01032948
v 0.004340181 0.0011472511 -0.010483636
v 0.008897772 -0.00088109967 0.010233527
v 0.014135446 -0.0013847923 0.010281359
v 0.014588098 0.00046316147 -0.010483636
v 0.019335546 -0.0023342322 -0.010483636
v 0.018426541 -0.0051054955 0.010483636
v 0.023775015 -0.004557972 0.010289471
v 0.02527091 -0.0030394935 -0.010483636
v 0.0033405018 0.00021192551 0.01032948
v 0.003733301 0.006145954 -0.010483636
v 0.004340181 0.0011472511 -0.010483636
v 0.0017513942 0.0054010963 0.010336608
v 0.0009370136 0.010706272 -0.010483636
v -0.00018099784 0.010205249 0.010270579
v -0.0013246059 0.0153324315 0.010168375
v -0.00076064107 0.01562807 -0.010483636
v -0.0050473115 0.018786486 0.010287425
v -0.003710165 0.02001009 -0.010483636
v -0.015375261 0.028068142 0.010150434
v -0.015287294 0.029008921 -0.010483636
v -0.029999666 0.040543232 -0.010483608
v -0.029098328 0.03916006 0.010236856
v -0.015287294 0.029008921 -0.010483636
v -0.029999666 0.040543232 -0.010483608
v -0.022594575 -0.03483038 -0.010483636
v -0.011079226 -0.037481822 -0.010483636
v -0.003710165 0.02001009 -0.010483636
v 0.0009370136 0.010706272 -0.010483636
v -0.00076064107 0.01562807 -0.010483636
v 0.004340181 0.0011472511 -0.010483636
v 0.003733301 0.006145954 -0.010483636
v -0.0041957567 -0.0356563 -0.010483636
v 0.0022027302 -0.037258588 -0.010483636
v 0.008714647 -0.040323123 -0.010483636
v 0.015716963 -0.03796854 -0.010483636
v 0.009022817 0.00010728836 -0.010483636
v 0.014588098 0.00046316147 -0.010483636
v 0.019335546 -0.0023342322 -0.010483636
v 0.021377362 -0.036833934 -0.010483636
v 0.019272108 -0.040543232 -0.010483636
v 0.02527091 -0.0030394935 -0.010483636
v 0.029999666 -0.03530462 -0.010483636
v 0.019676236 -0.034530237 0.010391326
v 0.029473446 -0.034776248 0.010155023
v 0.029999666 -0.03530462 -0.010483636
v 0.021377362 -0.036833934 -0.010483636
v -0.011056795 -0.034291208 0.01036082
v -0.02244153 -0.034217585 0.010086289
v -0.029098328 0.03916006 0.010236856
v -0.015375261 0.028068142 0.010150434
v -0.0050473115 0.018786486 0.010287425
v -0.00018099784 0.010205249 0.010270579
v -0.0013246059 0.0153324315 0.010168375
v 0.0033405018 0.00021192551 0.01032948
v 0.0017513942 0.0054010963 0.010336608
v -0.004153261 -0.036128215 0.010131834
v 0.0029567622 -0.03492403 0.010374287
v 0.008695669 -0.04025255 0.010128611
v 0.016013822 -0.03553198 0.010370562
v 0.008897772 -0.00088109967 0.010233527
v 0.018426541 -0.0051054955 0.010483636
v 0.014135446 -0.0013847923 0.010281359
v 0.019676236 -0.034530237 0.010391326
v 0.019301634 -0.039621904 0.010145153
v 0.029473446 -0.034776248 0.010155023
v 0.023775015 -0.004557972 0.010289471
vt 0.5786133 0.050689697
vt 0.58447266 0.040618896
vt 0.5786133 0.040618896
vt 0.5839844 0.050689697
vt 0.5878906 0.040618896
vt 0.58740234 0.050689697
vt 0.5908203 0.040618896
vt 0.5908203 0.050689697
vt 0.59472656 0.040618896
vt 0.5942383 0.050689697
vt 0.65625 0.040618896
vt 0.6567383 0.050689697
vt 0.69189453 0.050689697
vt 0.6923828 0.040618896
vt 0.60009766 0.040618896
vt 0.60058594 0.050689697
vt 0.60253906 0.050689697
vt 0.60253906 0.040618896
vt 0.59472656 0.040618896
vt 0.5942383 0.050689697
vt 0.59814453 0.050689697
vt 0.59814453 0.040618896
vt 0.59814453 0.040618896
vt 0.59814453 0.050689697
vt 0.60058594 0.050689697
vt 0.60009766 0.040618896
vt 0.6064453 0.040618896
vt 0.6069336 0.050689697
vt 0.62158203 0.050689697
vt 0.62158203 0.040618896
vt 0.62939453 0.040618896
vt 0.63183594 0.050689697
vt 0.63183594 0.040618896
vt 0.62890625 0.050689697
vt 0.62646484 0.050689697
vt 0.6269531 0.040618896
vt 0.62402344 0.040618896
vt 0.62402344 0.050689697
vt 0.62158203 0.050689697
vt 0.62158203 0.040618896
vt 0.63183594 0.050689697
vt 0.63427734 0.040618896
vt 0.63183594 0.040618896
vt 0.63427734 0.050689697
vt 0.63671875 0.040618896
vt 0.63671875 0.050689697
vt 0.63916016 0.050689697
vt 0.63916016 0.040618896
vt 0.64160156 0.050689697
vt 0.64160156 0.040618896
vt 0.6479492 0.050689697
vt 0.6479492 0.040618896
vt 0.65625 0.040618896
vt 0.6567383 0.050689697
vt 0.34716797 0.30737305
vt 0.35327148 0.31201172
vt 0.3503418 0.28125
vt 0.34545898 0.28027344
vt 0.3425293 0.30371094
vt 0.34057617 0.2998047
vt 0.3413086 0.3017578
vt 0.33911133 0.29589844
vt 0.33935547 0.2980957
vt 0.34277344 0.28100586
vt 0.3400879 0.28027344
vt 0.33740234 0.27905273
vt 0.3347168 0.2800293
vt 0.3371582 0.29541016
vt 0.33496094 0.2956543
vt 0.3330078 0.2944336
vt 0.3322754 0.28051758
vt 0.33325195 0.27905273
vt 0.3305664 0.29418945
vt 0.32885742 0.28100586
vt 0.60253906 0.050689697
vt 0.6069336 0.050689697
vt 0.6064453 0.040618896
vt 0.60253906 0.040618896
vt 0.07543945 0.5786133
vt 0.07086182 0.5786133
vt 0.0680542 0.6098633
vt 0.07397461 0.60498047
vt 0.07788086 0.60009766
vt 0.07977295 0.5966797
vt 0.0793457 0.5991211
vt 0.081970215 0.5942383
vt 0.08050537 0.5961914
vt 0.07836914 0.578125
vt 0.0814209 0.5786133
vt 0.083496094 0.5761719
vt 0.086364746 0.578125
vt 0.08343506 0.5932617
vt 0.087524414 0.5908203
vt 0.08557129 0.5917969
vt 0.08758545 0.5786133
vt 0.087890625 0.5761719
vt 0.09283447 0.57666016
vt 0.091552734 0.5878906
vn -0.118774414 -0.98876953 0.091308594
vn -0.074523926 -0.99365234 0.08178711
vn -0.118774414 -0.98876953 0.091308594
vn -0.07519531 -0.99365234 0.081970215
vn -0.014816284 -0.99853516 0.055541992
vn -0.01486969 -0.99853516 0.055511475
vn -0.32299805 -0.9448242 0.05407715
vn -0.32299805 -0.9448242 0.05407715
vn -0.56347656 -0.82421875 0.057800293
vn -0.56347656 -0.82421875 0.057800293
vn -0.95703125 -0.09051514 -0.27563477
vn -0.9580078 -0.0904541 0.27246094
vn -0.86279297 -0.08129883 0.49902344
vn -0.82128906 -0.077697754 -0.5649414
vn 0.9604492 -0.2722168 0.05984497
vn 0.9604492 -0.2722168 0.05984497
vn 0.9604492 -0.2722168 0.05984497
vn 0.9604492 -0.2722168 0.05984497
vn 0.4416504 -0.8955078 0.051208496
vn 0.4416504 -0.8955078 0.051208496
vn 0.4416504 -0.8955078 0.051208496
vn 0.4416504 -0.8955078 0.051208496
vn -0.6953125 -0.7158203 0.06341553
vn -0.6953125 -0.7158203 0.06341553
vn -0.6953125 -0.7158203 0.06341553
vn -0.6953125 -0.7158203 0.06341553
vn 0.9848633 0.16430664 0.05203247
vn 0.9848633 0.16430664 0.05203247
vn 0.9848633 0.16430664 0.05203247
vn 0.9848633 0.16430664 0.05203247
vn 0.107543945 0.9921875 0.060028076
vn 0.20410156 0.97753906 0.050811768
vn 0.20410156 0.97753906 0.050811768
vn 0.10784912 0.9921875 0.05999756
vn 0.32348633 0.94140625 0.09350586
vn 0.31689453 0.94384766 0.09301758
vn 0.31030273 0.94433594 0.11071777
vn 0.31054688 0.94433594 0.11071777
vn 0.015670776 0.9946289 0.10308838
vn 0.015670776 0.9946289 0.10308838
vn 0.9746094 0.20996094 0.07824707
vn 0.9394531 0.3330078 0.079711914
vn 0.9746094 0.20996094 0.07824707
vn 0.9399414 0.3322754 0.079711914
vn 0.9296875 0.36328125 0.062438965
vn 0.9291992 0.36450195 0.062683105
vn 0.88134766 0.46923828 0.052612305
vn 0.88183594 0.46899414 0.052612305
vn 0.67285156 0.7373047 0.061340332
vn 0.67333984 0.7368164 0.061340332
vn 0.6298828 0.7753906 0.04534912
vn 0.6298828 0.7753906 0.04486084
vn 0.6225586 0.78222656 0.031707764
vn 0.6225586 0.78222656 0.031707764
vn -8.940697E-07 0 -1
vn -0.95703125 -0.09051514 -0.27563477
vn -0.82128906 -0.077697754 -0.5649414
vn -8.34465E-07 0 -1
vn -0 0 -1
vn -1.7881393E-07 0 -1
vn -2.9802322E-07 0 -1
vn -0 0 -1
vn -0 0 -1
vn -0 0 -1
vn -0 0 -1
vn -0 0 -1
vn -0 0 -1
vn -0 0 -1
vn -0 0 -1
vn 1.1920929E-07 0 -1
vn -0 0 -1
vn 6.556511E-07 0 -1
vn -0 0 -1
vn -0 0 -1
vn 0.070251465 -0.9951172 0.07165527
vn 0.070251465 -0.9951172 0.07165527
vn 0.070251465 -0.9951172 0.07165527
vn 0.070251465 -0.9951172 0.07165527
vn -0.0027637482 -0.0014286041 1
vn -0.86279297 -0.08129883 0.49902344
vn -0.9580078 -0.0904541 0.27246094
vn -0.00793457 0.00013196468 1
vn -0.0074386597 0.0025730133 1
vn 0.005168915 0.0024986267 1
vn 0.0076522827 0.0023765564 1
vn -0.007549286 -5.4895878E-05 1
vn -0.007827759 0.0031356812 1
vn 0.0025196075 -0.005958557 1
vn 0.0060424805 0.001209259 1
vn 9.7095966E-05 -0.0019369125 1
vn -0.010749817 -0.003211975 1
vn -0.014961243 -0.0015115738 1
vn 0.002008438 0.00029826164 1
vn -0.02571106 0.0011968613 0.9995117
vn 0.0211792 -0.002204895 1
vn 0.007701874 -0.048858643 0.99853516
vn 0.028427124 -0.00048971176 0.9995117
vn 0.028427124 -0.00048971176 0.9995117
g doorR05_geo_0
f 3/3/3 2/2/2 1/1/1
f 2/2/2 4/4/4 1/1/1
f 2/2/2 5/5/5 4/4/4
f 5/5/5 6/6/6 4/4/4
f 5/5/5 7/7/7 6/6/6
f 7/7/7 8/8/8 6/6/6
f 7/7/7 9/9/9 8/8/8
f 9/9/9 10/10/10 8/8/8
f 13/13/13 12/12/12 11/11/11
f 14/14/14 13/13/13 11/11/11
f 17/17/17 16/16/16 15/15/15
f 18/18/18 17/17/17 15/15/15
f 21/21/21 20/20/20 19/19/19
f 22/22/22 21/21/21 19/19/19
f 25/25/25 24/24/24 23/23/23
f 26/26/26 25/25/25 23/23/23
f 29/29/29 28/28/28 27/27/27
f 30/30/30 29/29/29 27/27/27
f 33/33/33 32/32/32 31/31/31
f 32/32/32 34/34/34 31/31/31
f 31/31/31 34/34/34 35/35/35
f 36/36/36 31/31/31 35/35/35
f 36/36/36 35/35/35 37/37/37
f 35/35/35 38/38/38 37/37/37
f 37/37/37 38/38/38 39/39/39
f 40/40/40 37/37/37 39/39/39
f 43/43/43 42/42/42 41/41/41
f 42/42/42 44/44/44 41/41/41
f 42/42/42 45/45/45 44/44/44
f 45/45/45 46/46/46 44/44/44
f 47/47/47 46/46/46 45/45/45
f 48/48/48 47/47/47 45/45/45
f 49/49/49 47/47/47 48/48/48
f 50/50/50 49/49/49 48/48/48
f 51/51/51 49/49/49 50/50/50
f 52/52/52 51/51/51 50/50/50
f 52/52/52 53/53/53 51/51/51
f 53/53/53 54/54/54 51/51/51
f 57/57/57 56/56/56 55/55/55
f 58/58/58 57/57/57 55/55/55
f 58/58/58 55/55/55 59/59/59
f 58/58/58 59/59/59 60/60/60
f 59/59/59 61/61/61 60/60/60
f 58/58/58 60/60/60 62/62/62
f 60/60/60 63/63/63 62/62/62
f 64/64/64 58/58/58 62/62/62
f 65/65/65 64/64/64 62/62/62
f 66/66/66 65/65/65 62/62/62
f 67/67/67 66/66/66 62/62/62
f 68/68/68 67/67/67 62/62/62
f 67/67/67 68/68/68 69/69/69
f 67/67/67 69/69/69 70/70/70
f 71/71/71 67/67/67 70/70/70
f 71/71/71 72/72/72 67/67/67
f 71/71/71 70/70/70 73/73/73
f 74/74/74 71/71/71 73/73/73
f 77/77/77 76/76/76 75/75/75
f 78/78/78 77/77/77 75/75/75
f 81/81/81 80/80/80 79/79/79
f 82/82/82 81/81/81 79/79/79
f 79/79/79 83/83/83 82/82/82
f 79/79/79 84/84/84 83/83/83
f 84/84/84 85/85/85 83/83/83
f 79/79/79 86/86/86 84/84/84
f 86/86/86 87/87/87 84/84/84
f 79/79/79 88/88/88 86/86/86
f 88/88/88 89/89/89 86/86/86
f 89/89/89 90/90/90 86/86/86
f 90/90/90 91/91/91 86/86/86
f 91/91/91 92/92/92 86/86/86
f 92/92/92 91/91/91 93/93/93
f 94/94/94 92/92/92 93/93/93
f 91/91/91 95/95/95 93/93/93
f 91/91/91 96/96/96 95/95/95
f 95/95/95 97/97/97 93/93/93
f 97/97/97 98/98/98 93/93/93
