g doorL02_geo
v -0.047532532 -0.01086874 -0.010401112
v -0.046094794 -0.02231287 0.010401095
v -0.04743117 -0.023450451 -0.010401112
v -0.0447199 -0.01109827 0.01040108
v -0.045170918 0.004676342 -0.010401112
v -0.041854016 0.0043780324 0.010401089
v -0.043795362 0.02020445 -0.010401112
v -0.040455427 0.020110263 0.010401083
v -0.04219828 0.03573263 -0.010401112
v -0.04257851 0.03598665 0.010401112
v 0.030139383 -0.04111002 0.010401102
v 0.03439919 -0.03563364 -0.010401112
v 0.028929418 -0.043617725 -0.010401102
v 0.03223679 -0.03407671 0.010401075
v 0.036622204 -0.027493685 0.010401085
v 0.038529344 -0.028332157 -0.0104011
v 0.041056752 -0.020701008 -0.010401112
v 0.040017713 -0.020181445 0.010401097
v 0.04541307 -0.013669948 0.010401109
v 0.047532532 -0.011919231 -0.010401112
v -0.03129277 0.036388796 -0.010401112
v -0.04257851 0.03598665 0.010401112
v -0.04219828 0.03573263 -0.010401112
v -0.030920267 0.034479808 0.010401082
v -0.022354417 0.04118761 -0.010401112
v -0.019666614 0.03932478 0.010401093
v -0.00374928 0.041039865 0.0104011
v -0.0035074663 0.043617725 -0.010401112
v 0.0028080035 0.038995877 -0.010401112
v 0.002496848 0.038537197 0.010401104
v 0.008718667 0.034067668 -0.010401112
v 0.007861657 0.03270235 0.0104010925
v 0.016285509 0.032932874 0.010401105
v 0.016447196 0.033557337 -0.010401112
v 0.023365455 0.030484905 -0.010401112
v 0.022777209 0.027755221 0.010401085
v 0.024170766 0.02850874 0.010401085
v 0.02491959 0.030989932 -0.010401112
v 0.04541307 -0.013669948 0.010401109
v 0.024170766 0.02850874 0.010401085
v 0.02491959 0.030989932 -0.010401112
v 0.047532532 -0.011919231 -0.010401112
v -0.03129277 0.036388796 -0.010401112
v -0.04219828 0.03573263 -0.010401112
v -0.043795362 0.02020445 -0.010401112
v -0.024364552 0.01793516 -0.010401112
v -0.022354417 0.04118761 -0.010401112
v -0.0035074663 0.043617725 -0.010401112
v -0.045170918 0.004676342 -0.010401112
v 0.0028080035 0.038995877 -0.010401112
v 0.0059373425 0.014196109 -0.010401112
v 0.008718667 0.034067668 -0.010401112
v 0.016447196 0.033557337 -0.010401112
v 0.023365455 0.030484905 -0.010401112
v -0.028942142 -0.03429979 -0.010401112
v -0.047532532 -0.01086874 -0.010401112
v -0.04743117 -0.023450451 -0.010401112
v -0.013557563 -0.041335545 -0.010401112
v -0.001643958 -0.042042635 -0.010401109
v 0.028929418 -0.043617725 -0.010401102
v 0.03439919 -0.03563364 -0.010401112
v 0.038529344 -0.028332157 -0.0104011
v 0.041056752 -0.020701008 -0.010401112
v 0.02491959 0.030989932 -0.010401112
v 0.047532532 -0.011919231 -0.010401112
v -0.04743117 -0.023450451 -0.010401112
v -0.046094794 -0.02231287 0.010401095
v -0.027468933 -0.03214201 0.010401104
v -0.028942142 -0.03429979 -0.010401112
v -0.013557563 -0.041335545 -0.010401112
v -0.01332212 -0.038567904 0.0104010925
v 0.0010074091 -0.039708078 0.010401101
v -0.001643958 -0.042042635 -0.010401109
v 0.028929418 -0.043617725 -0.010401102
v 0.027364526 -0.039768808 0.010401088
v 0.030139383 -0.04111002 0.010401102
v -0.040455427 0.020110263 0.010401083
v -0.04257851 0.03598665 0.010401112
v -0.030920267 0.034479808 0.010401082
v -0.022009635 0.017863521 0.010401096
v -0.019666614 0.03932478 0.010401093
v -0.00374928 0.041039865 0.0104011
v -0.041854016 0.0043780324 0.010401089
v 0.002496848 0.038537197 0.010401104
v -0.027468933 -0.03214201 0.010401104
v -0.0447199 -0.01109827 0.01040108
v -0.046094794 -0.02231287 0.010401095
v 0.00598598 0.014458256 0.010401095
v 0.007861657 0.03270235 0.0104010925
v -0.01332212 -0.038567904 0.0104010925
v 0.016285509 0.032932874 0.010401105
v 0.0010074091 -0.039708078 0.010401101
v 0.022777209 0.027755221 0.010401085
v 0.027364526 -0.039768808 0.010401088
v 0.03223679 -0.03407671 0.010401075
v 0.030139383 -0.04111002 0.010401102
v 0.036622204 -0.027493685 0.010401085
v 0.040017713 -0.020181445 0.010401097
v 0.024170766 0.02850874 0.010401085
v 0.04541307 -0.013669948 0.010401109
vt 0.65966797 0.040618896
vt 0.66552734 0.050689697
vt 0.66552734 0.040618896
vt 0.65966797 0.050689697
vt 0.65185547 0.040618896
vt 0.65185547 0.050689697
vt 0.64404297 0.040618896
vt 0.64404297 0.050689697
vt 0.63623047 0.040618896
vt 0.63623047 0.050689697
vt 0.70410156 0.050689697
vt 0.70751953 0.040618896
vt 0.703125 0.040618896
vt 0.70751953 0.050689697
vt 0.7114258 0.050689697
vt 0.7114258 0.040618896
vt 0.71533203 0.040618896
vt 0.71533203 0.050689697
vt 0.71972656 0.050689697
vt 0.72021484 0.040618896
vt 0.6308594 0.040618896
vt 0.63623047 0.050689697
vt 0.63623047 0.040618896
vt 0.6303711 0.050689697
vt 0.62597656 0.040618896
vt 0.6245117 0.050689697
vt 0.6171875 0.050689697
vt 0.6171875 0.040618896
vt 0.61328125 0.040618896
vt 0.61376953 0.050689697
vt 0.6098633 0.040618896
vt 0.6098633 0.050689697
vt 0.60595703 0.050689697
vt 0.60595703 0.040618896
vt 0.60253906 0.040618896
vt 0.6020508 0.050689697
vt 0.6015625 0.050689697
vt 0.6015625 0.040618896
vt 0.71972656 0.050689697
vt 0.7426758 0.050689697
vt 0.74365234 0.040618896
vt 0.72021484 0.040618896
vt 0.18579102 0.3659668
vt 0.19030762 0.36572266
vt 0.19116211 0.359375
vt 0.18310547 0.35839844
vt 0.1821289 0.36791992
vt 0.1743164 0.36889648
vt 0.19177246 0.35302734
vt 0.17163086 0.36694336
vt 0.17053223 0.35668945
vt 0.16931152 0.36499023
vt 0.16601562 0.3647461
vt 0.16320801 0.3635254
vt 0.18530273 0.33691406
vt 0.1928711 0.3466797
vt 0.1928711 0.34155273
vt 0.17895508 0.33398438
vt 0.17407227 0.33374023
vt 0.16137695 0.33325195
vt 0.15905762 0.33642578
vt 0.15734863 0.33935547
vt 0.15625 0.3425293
vt 0.16259766 0.3635254
vt 0.15344238 0.3461914
vt 0.66552734 0.040618896
vt 0.66552734 0.050689697
vt 0.67578125 0.050689697
vt 0.67529297 0.040618896
vt 0.68310547 0.040618896
vt 0.68310547 0.050689697
vt 0.6899414 0.050689697
vt 0.68896484 0.040618896
vt 0.703125 0.040618896
vt 0.7026367 0.050689697
vt 0.70410156 0.050689697
vt 0.22912598 0.65966797
vt 0.22827148 0.6665039
vt 0.2331543 0.66552734
vt 0.23693848 0.6586914
vt 0.23791504 0.66796875
vt 0.24450684 0.66845703
vt 0.22851562 0.65283203
vt 0.24719238 0.66748047
vt 0.23461914 0.6376953
vt 0.22729492 0.6464844
vt 0.22668457 0.64160156
vt 0.24865723 0.65722656
vt 0.24938965 0.66503906
vt 0.24047852 0.6347656
vt 0.2529297 0.66503906
vt 0.24645996 0.63427734
vt 0.25561523 0.66308594
vt 0.25756836 0.63427734
vt 0.25952148 0.63671875
vt 0.25878906 0.63378906
vt 0.2614746 0.63964844
vt 0.26293945 0.6425781
vt 0.25610352 0.6635742
vt 0.26513672 0.6455078
vn -0.98535156 0.116882324 0.12548828
vn -0.99365234 0.05319214 0.097961426
vn -0.99365234 0.05319214 0.097961426
vn -0.98535156 0.1171875 0.12561035
vn -0.98046875 0.12609863 0.15209961
vn -0.98046875 0.12573242 0.15209961
vn -0.9926758 0.035980225 0.115356445
vn -0.9926758 0.035888672 0.11529541
vn -0.9975586 -0.016708374 0.07098389
vn -0.9975586 -0.016708374 0.07098389
vn 0.8911133 -0.4489746 0.06427002
vn 0.87060547 -0.48413086 0.088134766
vn 0.8911133 -0.4489746 0.06427002
vn 0.8701172 -0.48486328 0.08862305
vn 0.88964844 -0.44628906 0.095825195
vn 0.8901367 -0.44580078 0.095703125
vn 0.86035156 -0.50634766 0.058654785
vn 0.86083984 -0.5058594 0.05871582
vn 0.7890625 -0.61279297 0.041778564
vn 0.7890625 -0.61279297 0.041778564
vn -0.20202637 0.9760742 0.07867432
vn 0.03765869 0.99853516 0.039733887
vn 0.03765869 0.99853516 0.039733887
vn -0.20153809 0.9760742 0.07861328
vn -0.25097656 0.9614258 0.11395264
vn -0.23242188 0.9658203 0.11383057
vn 0.06335449 0.9926758 0.10412598
vn 0.05935669 0.9926758 0.10430908
vn 0.5991211 0.79833984 0.060577393
vn 0.5991211 0.79833984 0.060546875
vn 0.36987305 0.9277344 0.053222656
vn 0.37548828 0.92529297 0.053222656
vn 0.27685547 0.9584961 0.06518555
vn 0.27661133 0.9589844 0.06518555
vn 0.38867188 0.91748047 0.08746338
vn 0.39379883 0.91503906 0.0871582
vn -0.390625 0.91503906 0.10205078
vn -0.390625 0.91503906 0.10205078
vn 0.88378906 0.4555664 0.10723877
vn 0.88378906 0.4555664 0.10723877
vn 0.88378906 0.4555664 0.10723877
vn 0.88378906 0.4555664 0.10723877
vn -0 0 -1
vn -0 0 -1
vn -0 0 -1
vn -0 0 -1
vn 1.1920929E-07 0 -1
vn -0 0 -1
vn -0 0 -1
vn -0 0 -1
vn -0 0 -1
vn -1.1920929E-07 0 -1
vn -0 0 -1
vn -0 -1.7881393E-07 -1
vn -0 0 -1
vn -0 0 -1
vn -0 0 -1
vn -0 0 -1
vn 2.3841858E-07 0 -1
vn 1.1920929E-07 -1.7881393E-07 -1
vn -2.3841858E-07 -1.1920929E-07 -1
vn 2.9802322E-07 1.1920929E-07 -1
vn -1.7881393E-07 -2.3841858E-07 -1
vn -0 0 -1
vn -0 0 -1
vn -0.48413086 -0.8691406 0.1015625
vn -0.48413086 -0.8691406 0.1015625
vn -0.45263672 -0.8847656 0.11138916
vn -0.45336914 -0.88427734 0.111206055
vn -0.2602539 -0.95703125 0.12683105
vn -0.26489258 -0.9560547 0.12683105
vn -0.040100098 -0.9892578 0.14160156
vn -0.042816162 -0.9892578 0.14025879
vn -0.030548096 -0.98876953 0.14770508
vn -0.046569824 -0.98779297 0.14758301
vn -0.43139648 -0.8925781 0.13269043
vn -0 0 1
vn 4.7683716E-07 -2.9802322E-07 1
vn -0 -1.1920929E-07 1
vn -0 0 1
vn -6.556511E-07 1.7881393E-07 1
vn -4.172325E-07 1.7881393E-07 1
vn -7.748604E-07 1.1920929E-07 1
vn 1.7881393E-07 -2.3841858E-07 1
vn -0 0 1
vn -7.1525574E-07 1.1920929E-07 1
vn 1.7881393E-07 1.1920929E-06 1
vn 1.7881393E-07 0 1
vn -0 -2.3841858E-07 1
vn -0 0 1
vn 5.364418E-07 -8.34465E-07 1
vn 1.1920929E-07 0 1
vn -2.9802322E-07 -1.7881393E-07 1
vn 8.940697E-07 2.9802322E-07 1
vn 7.748604E-07 2.9802322E-07 1
vn 1.5497208E-06 7.748604E-07 1
vn -3.5762787E-07 -2.9802322E-07 1
vn -2.3841858E-07 0 1
vn -1.4901161E-06 -2.3841858E-07 1
vn -1.4901161E-06 -2.3841858E-07 1
g doorL02_geo_0
f 3/3/3 2/2/2 1/1/1
f 2/2/2 4/4/4 1/1/1
f 1/1/1 4/4/4 5/5/5
f 4/4/4 6/6/6 5/5/5
f 5/5/5 6/6/6 7/7/7
f 6/6/6 8/8/8 7/7/7
f 7/7/7 8/8/8 9/9/9
f 8/8/8 10/10/10 9/9/9
f 13/13/13 12/12/12 11/11/11
f 12/12/12 14/14/14 11/11/11
f 15/15/15 14/14/14 12/12/12
f 16/16/16 15/15/15 12/12/12
f 16/16/16 17/17/17 15/15/15
f 17/17/17 18/18/18 15/15/15
f 19/19/19 18/18/18 17/17/17
f 20/20/20 19/19/19 17/17/17
f 23/23/23 22/22/22 21/21/21
f 22/22/22 24/24/24 21/21/21
f 21/21/21 24/24/24 25/25/25
f 24/24/24 26/26/26 25/25/25
f 25/25/25 26/26/26 27/27/27
f 28/28/28 25/25/25 27/27/27
f 28/28/28 27/27/27 29/29/29
f 27/27/27 30/30/30 29/29/29
f 29/29/29 30/30/30 31/31/31
f 30/30/30 32/32/32 31/31/31
f 31/31/31 32/32/32 33/33/33
f 34/34/34 31/31/31 33/33/33
f 34/34/34 33/33/33 35/35/35
f 33/33/33 36/36/36 35/35/35
f 35/35/35 36/36/36 37/37/37
f 38/38/38 35/35/35 37/37/37
f 41/41/41 40/40/40 39/39/39
f 42/42/42 41/41/41 39/39/39
f 45/45/45 44/44/44 43/43/43
f 46/46/46 45/45/45 43/43/43
f 46/46/46 43/43/43 47/47/47
f 46/46/46 47/47/47 48/48/48
f 46/46/46 49/49/49 45/45/45
f 46/46/46 48/48/48 50/50/50
f 46/46/46 50/50/50 51/51/51
f 50/50/50 52/52/52 51/51/51
f 51/51/51 52/52/52 53/53/53
f 51/51/51 53/53/53 54/54/54
f 46/46/46 55/55/55 49/49/49
f 55/55/55 56/56/56 49/49/49
f 55/55/55 57/57/57 56/56/56
f 55/55/55 46/46/46 58/58/58
f 46/46/46 51/51/51 58/58/58
f 51/51/51 59/59/59 58/58/58
f 51/51/51 60/60/60 59/59/59
f 51/51/51 61/61/61 60/60/60
f 51/51/51 62/62/62 61/61/61
f 51/51/51 54/54/54 62/62/62
f 54/54/54 63/63/63 62/62/62
f 54/54/54 64/64/64 63/63/63
f 64/64/64 65/65/65 63/63/63
f 68/68/68 67/67/67 66/66/66
f 69/69/69 68/68/68 66/66/66
f 69/69/69 70/70/70 68/68/68
f 70/70/70 71/71/71 68/68/68
f 72/72/72 71/71/71 70/70/70
f 73/73/73 72/72/72 70/70/70
f 73/73/73 74/74/74 72/72/72
f 74/74/74 75/75/75 72/72/72
f 74/74/74 76/76/76 75/75/75
f 79/79/79 78/78/78 77/77/77
f 80/80/80 79/79/79 77/77/77
f 80/80/80 81/81/81 79/79/79
f 80/80/80 82/82/82 81/81/81
f 80/80/80 77/77/77 83/83/83
f 80/80/80 84/84/84 82/82/82
f 80/80/80 83/83/83 85/85/85
f 83/83/83 86/86/86 85/85/85
f 86/86/86 87/87/87 85/85/85
f 80/80/80 88/88/88 84/84/84
f 80/80/80 85/85/85 88/88/88
f 88/88/88 89/89/89 84/84/84
f 85/85/85 90/90/90 88/88/88
f 91/91/91 89/89/89 88/88/88
f 90/90/90 92/92/92 88/88/88
f 93/93/93 91/91/91 88/88/88
f 88/88/88 92/92/92 94/94/94
f 88/88/88 94/94/94 95/95/95
f 94/94/94 96/96/96 95/95/95
f 88/88/88 95/95/95 97/97/97
f 88/88/88 97/97/97 98/98/98
f 93/93/93 88/88/88 98/98/98
f 93/93/93 98/98/98 99/99/99
f 98/98/98 100/100/100 99/99/99
