g doorR1_geo
v -0.012247552 -0.02710697 -0.009320989
v -0.018590912 -0.030346831 -0.009320989
v -0.01706739 -0.02677967 0.009320623
v -0.014003247 -0.023599127 0.009319387
v -0.0024334746 -0.020323524 0.009318771
v -0.0011420745 -0.022701988 -0.009320992
v 0.010302343 -0.019571953 -0.009320992
v 0.009891353 -0.018002281 0.0093210805
v 0.018590912 -0.01836399 -0.009321204
v 0.013889308 -0.016470222 0.009319463
v -0.017504448 0.030346831 -0.009321204
v -0.01677345 0.028400764 0.009320966
v -0.01706739 -0.02677967 0.009320623
v -0.018590912 -0.030346831 -0.009320989
v 0.018590912 -0.01836399 -0.009321204
v 0.013889308 -0.016470222 0.009319463
v 0.0060382895 -0.015008239 0.009320214
v 0.008016256 -0.015471077 -0.009321204
v 0.000998395 -0.005100479 0.009320146
v 0.0026301593 -0.0043317033 -0.009321202
v -0.00303595 0.005345192 0.009320838
v -0.0027960043 0.00558403 -0.009321204
v -0.009643769 0.01462963 0.009320974
v -0.009236553 0.014851379 -0.009320989
v -0.012238414 0.021297226 0.009321011
v -0.011504228 0.020437699 -0.009320992
v -0.013591598 0.025081214 -0.009320995
v -0.013623981 0.02509281 0.009321204
v -0.01677345 0.028400764 0.009320966
v -0.017504448 0.030346831 -0.009321204
v 0.0060382895 -0.015008239 0.009320214
v 0.013889308 -0.016470222 0.009319463
v 0.009891353 -0.018002281 0.0093210805
v -0.0024334746 -0.020323524 0.009318771
v 0.000998395 -0.005100479 0.009320146
v -0.00303595 0.005345192 0.009320838
v -0.014003247 -0.023599127 0.009319387
v -0.009643769 0.01462963 0.009320974
v -0.012238414 0.021297226 0.009321011
v -0.013623981 0.02509281 0.009321204
v -0.01677345 0.028400764 0.009320966
v -0.01706739 -0.02677967 0.009320623
v -0.018590912 -0.030346831 -0.009320989
v -0.013591598 0.025081214 -0.009320995
v -0.017504448 0.030346831 -0.009321204
v -0.012247552 -0.02710697 -0.009320989
v -0.011504228 0.020437699 -0.009320992
v -0.009236553 0.014851379 -0.009320989
v -0.0027960043 0.00558403 -0.009321204
v -0.0011420745 -0.022701988 -0.009320992
v 0.0026301593 -0.0043317033 -0.009321202
v 0.008016256 -0.015471077 -0.009321204
v 0.010302343 -0.019571953 -0.009320992
v 0.018590912 -0.01836399 -0.009321204
vt 0.6279297 0.039520264
vt 0.62402344 0.039520264
vt 0.6254883 0.049346924
vt 0.6279297 0.049346924
vt 0.63378906 0.049346924
vt 0.63427734 0.039520264
vt 0.6401367 0.039520264
vt 0.6401367 0.049346924
vt 0.64453125 0.039520264
vt 0.6425781 0.049346924
vt 0.7089844 0.018051147
vt 0.70996094 0.02571106
vt 0.7397461 0.025985718
vt 0.74072266 0.018066406
vt 0.625 0.039520264
vt 0.6274414 0.049346924
vt 0.63183594 0.049346924
vt 0.6308594 0.039520264
vt 0.63720703 0.049346924
vt 0.63720703 0.039520264
vt 0.6425781 0.049346924
vt 0.6425781 0.039520264
vt 0.6484375 0.049346924
vt 0.6484375 0.039520264
vt 0.65185547 0.049346924
vt 0.6513672 0.039520264
vt 0.6538086 0.039520264
vt 0.6538086 0.049346924
vt 0.65625 0.049346924
vt 0.65722656 0.039520264
vt 0.21691895 0.59814453
vt 0.22045898 0.59814453
vt 0.21862793 0.59716797
vt 0.21289062 0.5957031
vt 0.21472168 0.60253906
vt 0.2130127 0.6069336
vt 0.20751953 0.5942383
vt 0.21020508 0.61035156
vt 0.20898438 0.61328125
vt 0.20837402 0.6152344
vt 0.20678711 0.6166992
vt 0.20605469 0.5932617
vt 0.21594238 0.29223633
vt 0.21374512 0.3149414
vt 0.21520996 0.31713867
vt 0.21350098 0.29370117
vt 0.21289062 0.31323242
vt 0.2121582 0.31103516
vt 0.20947266 0.3071289
vt 0.2088623 0.2956543
vt 0.20727539 0.30322266
vt 0.20495605 0.29858398
vt 0.20410156 0.296875
vt 0.20056152 0.29736328
vn 0.3959961 -0.90234375 0.16967773
vn 0.5566406 -0.8154297 0.15820312
vn 0.5566406 -0.8154297 0.15820312
vn 0.3955078 -0.90283203 0.16967773
vn 0.2705078 -0.95214844 0.14379883
vn 0.2685547 -0.9526367 0.14257812
vn 0.22009277 -0.96875 0.115112305
vn 0.22009277 -0.96875 0.11505127
vn 0.21606445 -0.9692383 0.119628906
vn 0.21606445 -0.9692383 0.119628906
vn -0.9980469 0.011894226 -0.05984497
vn -0.9916992 0.011810303 0.12731934
vn -0.9921875 0.011817932 0.12365723
vn -0.98876953 0.011779785 -0.14807129
vn 0.22998047 0.97314453 -0.02029419
vn 0.22998047 0.97314453 -0.02029419
vn 0.6796875 0.7319336 0.048553467
vn 0.640625 0.76660156 0.041870117
vn 0.8989258 0.43164062 0.07385254
vn 0.8989258 0.43164062 0.07385254
vn 0.8652344 0.5 0.039215088
vn 0.8647461 0.5004883 0.039093018
vn 0.8642578 0.5024414 0.021743774
vn 0.8642578 0.5024414 0.021743774
vn 0.9272461 0.3737793 0.01701355
vn 0.9277344 0.37329102 0.017440796
vn 0.85009766 0.5263672 0.014892578
vn 0.85009766 0.5263672 0.0149002075
vn 0.7714844 0.6357422 0.01852417
vn 0.7714844 0.6357422 0.01852417
vn -0.00014197826 -1.1086464E-05 1
vn 0.00019669533 0.00054216385 1
vn -1.6093254E-06 0.0002872944 1
vn 6.6161156E-06 -5.7697296E-05 1
vn -6.151199E-05 -7.6532364E-05 1
vn 2.0742416E-05 -5.90086E-05 1
vn 9.328127E-05 -3.9219856E-05 1
vn -1.92523E-05 -4.7445297E-05 1
vn 1.3411045E-05 -3.6656857E-05 1
vn 0.00015640259 -2.2292137E-05 1
vn -0.9916992 0.011810303 0.12731934
vn -0.9921875 0.011817932 0.12365723
vn -0.98876953 0.011779785 -0.14807129
vn 1.9788742E-05 -1.847744E-06 -1
vn -0.9980469 0.011894226 -0.05984497
vn 7.867813E-06 -2.2053719E-06 -1
vn 1.7881393E-07 0 -1
vn -6.9737434E-06 -1.66893E-06 -1
vn -1.3113022E-05 -2.9802322E-06 -1
vn -1.2934208E-05 -3.993511E-06 -1
vn -1.5318394E-05 -8.285046E-06 -1
vn -1.04904175E-05 -2.014637E-05 -1
vn -2.2649765E-06 -5.2928925E-05 -1
vn -1.6868114E-05 -6.1035156E-05 -1
g doorR1_geo_0
f 3/3/3 2/2/2 1/1/1
f 4/4/4 3/3/3 1/1/1
f 5/5/5 4/4/4 1/1/1
f 6/6/6 5/5/5 1/1/1
f 6/6/6 7/7/7 5/5/5
f 7/7/7 8/8/8 5/5/5
f 7/7/7 9/9/9 8/8/8
f 9/9/9 10/10/10 8/8/8
f 13/13/13 12/12/12 11/11/11
f 14/14/14 13/13/13 11/11/11
f 17/17/17 16/16/16 15/15/15
f 18/18/18 17/17/17 15/15/15
f 19/19/19 17/17/17 18/18/18
f 20/20/20 19/19/19 18/18/18
f 21/21/21 19/19/19 20/20/20
f 22/22/22 21/21/21 20/20/20
f 23/23/23 21/21/21 22/22/22
f 24/24/24 23/23/23 22/22/22
f 25/25/25 23/23/23 24/24/24
f 26/26/26 25/25/25 24/24/24
f 26/26/26 27/27/27 25/25/25
f 27/27/27 28/28/28 25/25/25
f 29/29/29 28/28/28 27/27/27
f 30/30/30 29/29/29 27/27/27
f 33/33/33 32/32/32 31/31/31
f 34/34/34 33/33/33 31/31/31
f 34/34/34 31/31/31 35/35/35
f 34/34/34 35/35/35 36/36/36
f 34/34/34 36/36/36 37/37/37
f 36/36/36 38/38/38 37/37/37
f 38/38/38 39/39/39 37/37/37
f 39/39/39 40/40/40 37/37/37
f 40/40/40 41/41/41 37/37/37
f 41/41/41 42/42/42 37/37/37
f 45/45/45 44/44/44 43/43/43
f 44/44/44 46/46/46 43/43/43
f 44/44/44 47/47/47 46/46/46
f 46/46/46 47/47/47 48/48/48
f 48/48/48 49/49/49 46/46/46
f 49/49/49 50/50/50 46/46/46
f 49/49/49 51/51/51 50/50/50
f 51/51/51 52/52/52 50/50/50
f 52/52/52 53/53/53 50/50/50
f 52/52/52 54/54/54 53/53/53
