g doorR5_geo
v -0.0377153 -0.078645036 -0.011106995
v -0.03664683 -0.075665414 0.011106993
v -0.03499852 -0.078167014 0.01110699
v -0.03476184 -0.079928495 -0.011103963
v -0.03499852 -0.078167014 0.01110699
v -0.02988737 -0.07359384 -0.011104916
v -0.03476184 -0.079928495 -0.011103963
v -0.03150416 -0.069911055 0.011106995
v -0.023140468 -0.06820059 -0.0111058075
v -0.025861282 -0.06523767 0.011106991
v -0.018408583 -0.060641155 -0.011107
v -0.021480808 -0.05845575 0.011106996
v -0.012228069 -0.056261234 -0.010984963
v -0.013550968 -0.05272661 0.011106993
v 0.0014159202 -0.049265232 -0.011104334
v 0.00023609161 -0.046260014 0.011104985
v 0.014017982 -0.041650906 -0.011104334
v 0.012686481 -0.038543377 0.011104967
v 0.02697727 -0.034115236 -0.011104301
v 0.025337525 -0.029959545 0.011104955
v 0.028921833 -0.031083392 -0.011107
v 0.027504273 -0.027000751 0.011104847
v 0.042728234 -0.027069071 -0.011106995
v 0.042720392 -0.027162151 0.011105011
v -0.03298579 -0.031199893 -0.011106961
v -0.03664683 -0.075665414 0.011106993
v -0.0377153 -0.078645036 -0.011106995
v -0.029093495 -0.030877667 0.011106986
v -0.038155735 -0.010046825 -0.011106966
v -0.035687607 -0.009568768 0.01110699
v -0.039419774 0.0009258079 -0.011106995
v -0.037622545 0.0012500953 0.011106991
v -0.042728234 0.011465816 -0.011107
v -0.041184627 0.0115924645 0.01110699
v -0.040865097 0.022611484 -0.011106995
v -0.038081158 0.02207754 0.011106999
v -0.037774 0.032792605 -0.011107
v -0.036169928 0.0324518 0.0111069875
v -0.03736413 0.043106783 -0.011106995
v -0.03457094 0.04308519 0.011106995
v -0.039484635 0.05363874 -0.011107
v -0.03810481 0.053602237 0.011106993
v -0.037111815 0.06196371 -0.011106995
v -0.036716186 0.061709534 0.011106991
v -0.038654756 0.069717005 -0.011106995
v -0.038112182 0.06978605 0.011106996
v -0.038750954 0.079928495 -0.011106995
v -0.038405094 0.0794087 0.011106996
v -0.022763137 0.06221525 0.011106994
v -0.038405094 0.0794087 0.011106996
v -0.038750954 0.079928495 -0.011106995
v -0.022619685 0.0621974 -0.011107
v -0.0027581214 0.025531292 0.011106995
v -0.0026146888 0.025513249 -0.011106961
v 0.022910632 -0.01095396 0.011106998
v 0.023054047 -0.010971737 -0.011106961
v 0.042720392 -0.027162151 0.011105011
v 0.042728234 -0.027069071 -0.011106995
v -0.038112182 0.06978605 0.011106996
v -0.038405094 0.0794087 0.011106996
v -0.022763137 0.06221525 0.011106994
v -0.032429818 0.056734215 0.011106996
v -0.036716186 0.061709534 0.011106991
v -0.03810481 0.053602237 0.011106993
v -0.03457094 0.04308519 0.011106995
v -0.0027581214 0.025531292 0.011106995
v -0.036169928 0.0324518 0.0111069875
v -0.011660252 0.0227923 0.011106995
v -0.038081158 0.02207754 0.011106999
v -0.041184627 0.0115924645 0.01110699
v -0.037622545 0.0012500953 0.011106991
v -0.035687607 -0.009568768 0.01110699
v 0.022910632 -0.01095396 0.011106998
v 0.012793694 -0.015056171 0.011107
v 0.042720392 -0.027162151 0.011105011
v -0.029093495 -0.030877667 0.011106986
v 0.027504273 -0.027000751 0.011104847
v 0.025337525 -0.029959545 0.011104955
v 0.012686481 -0.038543377 0.011104967
v 0.00023609161 -0.046260014 0.011104985
v -0.013550968 -0.05272661 0.011106993
v -0.021480808 -0.05845575 0.011106996
v -0.025861282 -0.06523767 0.011106991
v -0.03150416 -0.069911055 0.011106995
v -0.03664683 -0.075665414 0.011106993
v -0.03499852 -0.078167014 0.01110699
v -0.03298579 -0.031199893 -0.011106961
v -0.0377153 -0.078645036 -0.011106995
v -0.03476184 -0.079928495 -0.011103963
v -0.02988737 -0.07359384 -0.011104916
v -0.023140468 -0.06820059 -0.0111058075
v -0.018408583 -0.060641155 -0.011107
v -0.012228069 -0.056261234 -0.010984963
v 0.0014159202 -0.049265232 -0.011104334
v 0.012937126 -0.0150741385 -0.011106995
v 0.014017982 -0.041650906 -0.011104334
v 0.02697727 -0.034115236 -0.011104301
v 0.028921833 -0.031083392 -0.011107
v 0.042728234 -0.027069071 -0.011106995
v -0.038155735 -0.010046825 -0.011106966
v -0.011516799 0.022774257 -0.011106961
v -0.039419774 0.0009258079 -0.011106995
v 0.023054047 -0.010971737 -0.011106961
v -0.042728234 0.011465816 -0.011107
v -0.040865097 0.022611484 -0.011106995
v -0.0026146888 0.025513249 -0.011106961
v -0.032286454 0.056716327 -0.011106966
v -0.037774 0.032792605 -0.011107
v -0.03736413 0.043106783 -0.011106995
v -0.039484635 0.05363874 -0.011107
v -0.037111815 0.06196371 -0.011106995
v -0.022619685 0.0621974 -0.011107
v -0.038654756 0.069717005 -0.011106995
v -0.038750954 0.079928495 -0.011106995
vt 0.6176758 0.039520264
vt 0.6176758 0.049346924
vt 0.6191406 0.049346924
vt 0.6191406 0.039520264
vt 0.6191406 0.049346924
vt 0.6225586 0.039520264
vt 0.6191406 0.039520264
vt 0.6230469 0.049346924
vt 0.62646484 0.039520264
vt 0.62646484 0.049346924
vt 0.6303711 0.039520264
vt 0.6298828 0.049346924
vt 0.63378906 0.039520264
vt 0.63427734 0.049346924
vt 0.6411133 0.039520264
vt 0.6411133 0.049346924
vt 0.64746094 0.039520264
vt 0.64746094 0.049346924
vt 0.6542969 0.039520264
vt 0.6542969 0.049346924
vt 0.6557617 0.039520264
vt 0.6557617 0.049346924
vt 0.6621094 0.039520264
vt 0.6621094 0.049346924
vt 0.7026367 0.039520264
vt 0.72314453 0.049346924
vt 0.7246094 0.039520264
vt 0.7026367 0.049346924
vt 0.6923828 0.039520264
vt 0.6923828 0.049346924
vt 0.6875 0.039520264
vt 0.6875 0.049346924
vt 0.6826172 0.039520264
vt 0.6826172 0.049346924
vt 0.6777344 0.039520264
vt 0.6777344 0.049346924
vt 0.67333984 0.039520264
vt 0.67333984 0.049346924
vt 0.6689453 0.039520264
vt 0.6689453 0.049346924
vt 0.6640625 0.039520264
vt 0.6640625 0.049346924
vt 0.66015625 0.039520264
vt 0.66015625 0.049346924
vt 0.6567383 0.039520264
vt 0.6567383 0.049346924
vt 0.65234375 0.039520264
vt 0.65234375 0.049346924
vt 0.49829102 0.027420044
vt 0.5102539 0.027420044
vt 0.5107422 0.018692017
vt 0.49829102 0.018692017
vt 0.47631836 0.027420044
vt 0.47631836 0.018692017
vt 0.453125 0.027420044
vt 0.45288086 0.018692017
vt 0.43969727 0.027420044
vt 0.43969727 0.018692017
vt 0.2692871 0.67822266
vt 0.26904297 0.6821289
vt 0.27539062 0.67529297
vt 0.27172852 0.67285156
vt 0.27001953 0.6748047
vt 0.2692871 0.6713867
vt 0.27075195 0.66748047
vt 0.28344727 0.66015625
vt 0.27026367 0.66308594
vt 0.27978516 0.6591797
vt 0.26953125 0.6586914
vt 0.2685547 0.6542969
vt 0.27001953 0.64990234
vt 0.27075195 0.6455078
vt 0.2944336 0.64501953
vt 0.28979492 0.6435547
vt 0.30371094 0.6381836
vt 0.2734375 0.63671875
vt 0.29589844 0.6386719
vt 0.29467773 0.6376953
vt 0.28979492 0.63378906
vt 0.2849121 0.6308594
vt 0.27954102 0.6279297
vt 0.27661133 0.6254883
vt 0.27490234 0.6225586
vt 0.27294922 0.62060547
vt 0.2709961 0.61816406
vt 0.27148438 0.6171875
vt 0.14904785 0.3359375
vt 0.15112305 0.3166504
vt 0.14990234 0.3161621
vt 0.14794922 0.31860352
vt 0.14501953 0.32080078
vt 0.1430664 0.3239746
vt 0.14050293 0.3256836
vt 0.13476562 0.32861328
vt 0.12976074 0.3425293
vt 0.1295166 0.3317871
vt 0.12402344 0.3347168
vt 0.123168945 0.3359375
vt 0.11730957 0.33764648
vt 0.15100098 0.34472656
vt 0.13977051 0.3581543
vt 0.15148926 0.3491211
vt 0.12536621 0.34423828
vt 0.15283203 0.35351562
vt 0.15197754 0.35791016
vt 0.13574219 0.35913086
vt 0.14819336 0.37182617
vt 0.15063477 0.36206055
vt 0.1505127 0.36645508
vt 0.15124512 0.37060547
vt 0.15026855 0.37402344
vt 0.14379883 0.37426758
vt 0.15063477 0.37719727
vt 0.15026855 0.3815918
vn -0.9916992 0.07421875 0.10296631
vn -0.99121094 0.0859375 0.10241699
vn -0.6323242 -0.76904297 0.09387207
vn -0.6323242 -0.76904297 0.09387207
vn 0.86328125 -0.4951172 0.09674072
vn 0.7626953 -0.6323242 0.13574219
vn 0.86328125 -0.4951172 0.09674072
vn 0.75097656 -0.6455078 0.13964844
vn 0.73779297 -0.65234375 0.17443848
vn 0.7402344 -0.64941406 0.17443848
vn 0.7133789 -0.6801758 0.16809082
vn 0.7163086 -0.6767578 0.16821289
vn 0.48876953 -0.85791016 0.15783691
vn 0.48608398 -0.859375 0.15771484
vn 0.4753418 -0.8666992 0.15075684
vn 0.47631836 -0.86621094 0.15063477
vn 0.5205078 -0.8388672 0.15844727
vn 0.5209961 -0.8388672 0.15881348
vn 0.5834961 -0.7939453 0.17138672
vn 0.59277344 -0.7871094 0.17126465
vn 0.2915039 -0.94970703 0.11328125
vn 0.27929688 -0.9536133 0.111816406
vn 0.13098145 -0.9868164 0.09283447
vn 0.13098145 -0.9868164 0.09283447
vn -0.99316406 0.004058838 0.115600586
vn -0.99121094 0.0859375 0.10241699
vn -0.9916992 0.07421875 0.10296631
vn -0.99316406 0.0035133362 0.11566162
vn -0.9658203 -0.22497559 0.12695312
vn -0.9658203 -0.22509766 0.12695312
vn -0.96972656 -0.22888184 0.086120605
vn -0.96972656 -0.22851562 0.08618164
vn -0.9951172 -0.044708252 0.08874512
vn -0.9951172 -0.043884277 0.08880615
vn -0.9682617 0.22888184 0.0982666
vn -0.9682617 0.22888184 0.0982666
vn -0.98095703 0.16564941 0.099731445
vn -0.98095703 0.16589355 0.099731445
vn -0.9916992 -0.08728027 0.095825195
vn -0.9916992 -0.0847168 0.09588623
vn -0.99609375 -0.050445557 0.070495605
vn -0.99609375 -0.05126953 0.07055664
vn -0.99902344 0.024108887 0.03100586
vn -0.99902344 0.02696228 0.031143188
vn -0.99560547 -0.09289551 0.019943237
vn -0.99560547 -0.09283447 0.019943237
vn -0.9995117 -0.019607544 0.01979065
vn -0.9995117 -0.019607544 0.01979065
vn 0.79052734 0.52441406 0.3161621
vn 0.73828125 0.6713867 0.06549072
vn 0.73779297 0.6713867 -0.06903076
vn 0.79296875 0.5253906 -0.30932617
vn 0.7685547 0.4794922 0.42358398
vn 0.7714844 0.48168945 -0.41577148
vn 0.69628906 0.60009766 0.39379883
vn 0.68652344 0.59277344 -0.42138672
vn 0.625 0.7636719 0.16259766
vn 0.609375 0.7446289 -0.27294922
vn 1.1920929E-07 0 1
vn 0.73828125 0.6713867 0.06549072
vn 0.79052734 0.52441406 0.3161621
vn -0 0 1
vn -1.847744E-06 -5.364418E-07 1
vn -7.1525574E-07 0 1
vn -2.9802322E-07 -2.9802322E-07 1
vn 0.7685547 0.4794922 0.42358398
vn -1.7881393E-07 0 1
vn -0 0 1
vn 1.1920929E-07 0 1
vn -0 -2.3841858E-07 1
vn -1.1920929E-07 0 1
vn -1.7881393E-07 -1.1920929E-07 1
vn 0.69628906 0.60009766 0.39379883
vn 1.2099743E-05 -1.8119812E-05 1
vn 0.625 0.7636719 0.16259766
vn 1.5735626E-05 -1.1205673E-05 1
vn 2.3186207E-05 -0.00012177229 1
vn 6.8724155E-05 -7.933378E-05 1
vn 5.6684017E-05 -8.678436E-05 1
vn 5.0127506E-05 -3.7550926E-05 1
vn 4.3094158E-05 -3.0219555E-05 1
vn -5.9604645E-07 2.3841858E-07 1
vn 1.1920929E-07 1.7881393E-07 1
vn -4.172325E-07 1.7881393E-07 1
vn -7.1525574E-07 1.7881393E-07 1
vn -7.1525574E-07 1.7881393E-07 1
vn -0.00025439262 -0.00071144104 -1
vn 0.00031232834 -7.2956085E-05 -1
vn 0.00031232834 -7.2956085E-05 -1
vn 0.00021362305 -6.848574E-05 -1
vn -0.00010216236 -5.8293343E-05 -1
vn 0.005706787 0.0028266907 -1
vn 0.00043702126 -0.0013370514 -1
vn -0.0010595322 -0.002166748 -1
vn -0.00023519993 -0.00048613548 -1
vn 5.9187412E-05 -9.769201E-05 -1
vn -3.5107136E-05 -0.00016736984 -1
vn -6.16312E-05 -6.03199E-05 -1
vn 0.609375 0.7446289 -0.27294922
vn -4.172325E-07 1.1920929E-07 -1
vn -1.1920929E-07 0 -1
vn 2.2053719E-06 -1.4305115E-06 -1
vn 0.68652344 0.59277344 -0.42138672
vn 1.1920929E-06 0 -1
vn 1.1324883E-06 -1.7881393E-07 -1
vn 0.7714844 0.48168945 -0.41577148
vn -0 -7.748604E-07 -1
vn 1.7285347E-06 4.7683716E-07 -1
vn 2.026558E-06 8.940697E-07 -1
vn 4.5895576E-06 1.1920929E-07 -1
vn 6.377697E-06 5.364418E-07 -1
vn 0.79296875 0.5253906 -0.30932617
vn -5.364418E-07 -7.1525574E-07 -1
vn 0.73779297 0.6713867 -0.06903076
g doorR5_geo_0
f 3/3/3 2/2/2 1/1/1
f 4/4/4 3/3/3 1/1/1
f 7/7/7 6/6/6 5/5/5
f 6/6/6 8/8/8 5/5/5
f 6/6/6 9/9/9 8/8/8
f 9/9/9 10/10/10 8/8/8
f 9/9/9 11/11/11 10/10/10
f 11/11/11 12/12/12 10/10/10
f 11/11/11 13/13/13 12/12/12
f 13/13/13 14/14/14 12/12/12
f 13/13/13 15/15/15 14/14/14
f 15/15/15 16/16/16 14/14/14
f 15/15/15 17/17/17 16/16/16
f 17/17/17 18/18/18 16/16/16
f 17/17/17 19/19/19 18/18/18
f 19/19/19 20/20/20 18/18/18
f 19/19/19 21/21/21 20/20/20
f 21/21/21 22/22/22 20/20/20
f 21/21/21 23/23/23 22/22/22
f 23/23/23 24/24/24 22/22/22
f 27/27/27 26/26/26 25/25/25
f 26/26/26 28/28/28 25/25/25
f 25/25/25 28/28/28 29/29/29
f 28/28/28 30/30/30 29/29/29
f 29/29/29 30/30/30 31/31/31
f 30/30/30 32/32/32 31/31/31
f 31/31/31 32/32/32 33/33/33
f 32/32/32 34/34/34 33/33/33
f 33/33/33 34/34/34 35/35/35
f 34/34/34 36/36/36 35/35/35
f 35/35/35 36/36/36 37/37/37
f 36/36/36 38/38/38 37/37/37
f 37/37/37 38/38/38 39/39/39
f 38/38/38 40/40/40 39/39/39
f 39/39/39 40/40/40 41/41/41
f 40/40/40 42/42/42 41/41/41
f 41/41/41 42/42/42 43/43/43
f 42/42/42 44/44/44 43/43/43
f 43/43/43 44/44/44 45/45/45
f 44/44/44 46/46/46 45/45/45
f 45/45/45 46/46/46 47/47/47
f 46/46/46 48/48/48 47/47/47
f 51/51/51 50/50/50 49/49/49
f 52/52/52 51/51/51 49/49/49
f 52/52/52 49/49/49 53/53/53
f 54/54/54 52/52/52 53/53/53
f 54/54/54 53/53/53 55/55/55
f 56/56/56 54/54/54 55/55/55
f 55/55/55 57/57/57 56/56/56
f 57/57/57 58/58/58 56/56/56
f 61/61/61 60/60/60 59/59/59
f 62/62/62 61/61/61 59/59/59
f 62/62/62 59/59/59 63/63/63
f 63/63/63 64/64/64 62/62/62
f 64/64/64 65/65/65 62/62/62
f 66/66/66 61/61/61 62/62/62
f 65/65/65 67/67/67 62/62/62
f 68/68/68 66/66/66 62/62/62
f 67/67/67 68/68/68 62/62/62
f 67/67/67 69/69/69 68/68/68
f 69/69/69 70/70/70 68/68/68
f 70/70/70 71/71/71 68/68/68
f 71/71/71 72/72/72 68/68/68
f 73/73/73 66/66/66 68/68/68
f 74/74/74 73/73/73 68/68/68
f 73/73/73 74/74/74 75/75/75
f 72/72/72 76/76/76 68/68/68
f 76/76/76 74/74/74 68/68/68
f 74/74/74 77/77/77 75/75/75
f 78/78/78 77/77/77 74/74/74
f 79/79/79 78/78/78 74/74/74
f 80/80/80 79/79/79 74/74/74
f 81/81/81 80/80/80 74/74/74
f 76/76/76 81/81/81 74/74/74
f 76/76/76 82/82/82 81/81/81
f 76/76/76 83/83/83 82/82/82
f 76/76/76 84/84/84 83/83/83
f 76/76/76 85/85/85 84/84/84
f 85/85/85 86/86/86 84/84/84
f 89/89/89 88/88/88 87/87/87
f 90/90/90 89/89/89 87/87/87
f 91/91/91 90/90/90 87/87/87
f 92/92/92 91/91/91 87/87/87
f 93/93/93 92/92/92 87/87/87
f 94/94/94 93/93/93 87/87/87
f 95/95/95 94/94/94 87/87/87
f 95/95/95 96/96/96 94/94/94
f 95/95/95 97/97/97 96/96/96
f 95/95/95 98/98/98 97/97/97
f 99/99/99 98/98/98 95/95/95
f 95/95/95 87/87/87 100/100/100
f 101/101/101 95/95/95 100/100/100
f 101/101/101 100/100/100 102/102/102
f 103/103/103 99/99/99 95/95/95
f 103/103/103 95/95/95 101/101/101
f 101/101/101 102/102/102 104/104/104
f 101/101/101 104/104/104 105/105/105
f 106/106/106 103/103/103 101/101/101
f 106/106/106 101/101/101 107/107/107
f 101/101/101 105/105/105 108/108/108
f 101/101/101 108/108/108 107/107/107
f 108/108/108 109/109/109 107/107/107
f 109/109/109 110/110/110 107/107/107
f 110/110/110 111/111/111 107/107/107
f 112/112/112 106/106/106 107/107/107
f 107/107/107 111/111/111 113/113/113
f 112/112/112 107/107/107 113/113/113
f 112/112/112 113/113/113 114/114/114
