g doorL11_geo
v -0.025778847 -0.017225562 -0.011022265
v -0.020998554 -0.0041445824 -0.011022265
v -0.022861404 -0.0054804324 -0.011022265
v -0.025057983 -0.018409643 -0.011022265
v -0.019101428 -0.021308642 -0.011022265
v -0.015420036 -0.0047580814 -0.011022265
v -0.016785298 -0.02585784 -0.011022265
v -0.010257645 -0.025482873 -0.011022262
v -0.003980675 0.00329154 -0.011022265
v 0.019341316 0.0053363703 -0.011022265
v -0.006283016 0.0093275355 -0.011022265
v -0.0060025216 0.012929658 -0.011022265
v -0.005984783 0.016577443 -0.011022265
v -0.0054206657 0.019417562 -0.011022265
v -0.0040248297 0.022712812 -0.011022265
v -7.469177E-05 0.024495076 -0.011022265
v 0.0029335783 0.02815482 -0.011022255
v -0.0062165833 -0.030284356 -0.011022265
v 0.01432888 -0.04282098 -0.011022265
v -0.0052018357 -0.0356688 -0.011022265
v -0.0035845756 -0.040530406 -0.011022265
v -0.00019958496 -0.044833574 -0.011022265
v 0.0076387404 0.031426307 -0.011022265
v 0.0015659904 -0.050691918 -0.011022262
v 0.023005942 0.04819392 -0.011022265
v 0.008875103 0.037299756 -0.011022265
v 0.010948906 0.042379864 -0.011022265
v 0.0112773515 0.048179388 -0.011022265
v 0.011551361 0.05263499 -0.011022265
v 0.015955314 0.057437543 -0.011022265
v 0.018806534 0.06408153 -0.011022265
v 0.024807548 0.06926387 -0.011022265
v 0.028461609 0.07343993 -0.011022262
v 0.034883957 0.047129698 -0.011022265
v 0.038074262 0.07754157 -0.011022265
v 0.03018177 0.0020413685 -0.011022265
v 0.022605551 -0.057097044 -0.011022262
v 0.012686729 -0.058598336 -0.011022265
v -0.00015968323 -0.054564428 -0.011022265
v -0.0027799034 -0.057916287 -0.011022265
v -0.0017212677 -0.06156373 -0.011019328
v -0.0028238867 -0.06345475 -0.011022265
v -0.022298165 -0.07495744 -0.009287125
v -0.011622715 -0.07754157 -0.009287125
v -0.014328766 -0.07476641 -0.009287125
v -0.012987099 -0.07103831 -0.009287125
v -0.017299384 -0.065641336 -0.009287125
v -0.038074262 -0.07207709 -0.009287125
v -0.036319714 -0.0744394 -0.009287125
v -0.017299384 -0.065641336 -0.009287125
v -0.017299384 -0.065641336 0.011022263
v -0.038074262 -0.07207709 0.011022265
v -0.038074262 -0.07207709 -0.009287125
v -0.012987099 -0.07103831 -0.009287125
v -0.017299384 -0.065641336 0.011022263
v -0.017299384 -0.065641336 -0.009287125
v -0.012987099 -0.07103831 0.011022263
v -0.014328766 -0.07476641 -0.009287125
v -0.014328766 -0.07476641 0.011022265
v -0.011622715 -0.07754157 -0.009287125
v -0.011622715 -0.07754157 0.011022265
v -0.014328766 -0.07476641 0.011022265
v -0.014328766 -0.07476641 -0.009287125
v -0.022298165 -0.07495744 -0.009287125
v -0.011622715 -0.07754157 0.011022265
v -0.011622715 -0.07754157 -0.009287125
v -0.022298165 -0.07495744 0.011022265
v -0.036319714 -0.0744394 -0.009287125
v -0.036319714 -0.0744394 0.011022265
v -0.038074262 -0.07207709 -0.009287125
v -0.038074262 -0.07207709 0.011022265
v -0.0028238867 -0.06345475 -0.011022265
v -0.0017212677 -0.06156373 0.008414542
v -0.0028238867 -0.06345475 0.008417479
v -0.0017212677 -0.06156373 -0.011019328
v -0.0027799034 -0.057916287 0.008417479
v -0.0027799034 -0.057916287 -0.011022265
v -0.00015968323 -0.054564428 0.008417478
v -0.00015968323 -0.054564428 -0.011022265
v 0.0015659904 -0.050691918 0.008417479
v 0.0015659904 -0.050691918 -0.011022262
v -0.00019958496 -0.044833574 0.008417479
v -0.00019958496 -0.044833574 -0.011022265
v -0.0035845756 -0.040530406 0.008417478
v -0.0035845756 -0.040530406 -0.011022265
v -0.0052018357 -0.0356688 0.008417479
v -0.0052018357 -0.0356688 -0.011022265
v -0.0062165833 -0.030284356 0.008417479
v -0.0062165833 -0.030284356 -0.011022265
v -0.010257645 -0.025482873 0.008417479
v -0.010257645 -0.025482873 -0.011022262
v -0.016785298 -0.02585784 0.008417479
v -0.016785298 -0.02585784 -0.011022265
v -0.016785298 -0.02585784 -0.011022265
v -0.019101428 -0.021308642 0.008417479
v -0.016785298 -0.02585784 0.008417479
v -0.019101428 -0.021308642 -0.011022265
v -0.025057983 -0.018409643 0.008417478
v -0.025057983 -0.018409643 -0.011022265
v -0.025778847 -0.017225562 0.008417478
v -0.025778847 -0.017225562 -0.011022265
v -0.022861404 -0.0054804324 0.008417479
v -0.022861404 -0.0054804324 -0.011022265
v -0.020998554 -0.0041445824 0.008417478
v -0.020998554 -0.0041445824 -0.011022265
v -0.015420036 -0.0047580814 0.008417479
v -0.015420036 -0.0047580814 -0.011022265
v -0.003980675 0.00329154 0.008417478
v -0.003980675 0.00329154 -0.011022265
v -0.003980675 0.00329154 -0.011022265
v -0.006283016 0.0093275355 0.008417479
v -0.003980675 0.00329154 0.008417478
v -0.006283016 0.0093275355 -0.011022265
v -0.0060025216 0.012929658 0.008417478
v -0.0060025216 0.012929658 -0.011022265
v -0.005984783 0.016577443 0.008417479
v -0.005984783 0.016577443 -0.011022265
v -0.0054206657 0.019417562 0.008417478
v -0.0054206657 0.019417562 -0.011022265
v -0.0040248297 0.022712812 0.008417479
v -0.0040248297 0.022712812 -0.011022265
v -7.469177E-05 0.024495076 0.008417479
v -7.469177E-05 0.024495076 -0.011022265
v 0.0029335783 0.02815482 0.008417469
v 0.0029335783 0.02815482 -0.011022255
v 0.0076387404 0.031426307 0.008417479
v 0.0076387404 0.031426307 -0.011022265
v 0.008875103 0.037299756 0.008417478
v 0.008875103 0.037299756 -0.011022265
v 0.010948906 0.042379864 0.008417478
v 0.010948906 0.042379864 -0.011022265
v 0.0112773515 0.048179388 0.008417478
v 0.0112773515 0.048179388 -0.011022265
v 0.011551361 0.05263499 0.008417479
v 0.011551361 0.05263499 -0.011022265
v 0.015955314 0.057437543 0.008417478
v 0.015955314 0.057437543 -0.011022265
v 0.018806534 0.06408153 0.008417479
v 0.018806534 0.06408153 -0.011022265
v 0.024807548 0.06926387 0.008417478
v 0.024807548 0.06926387 -0.011022265
v 0.028461609 0.07343993 0.008417479
v 0.028461609 0.07343993 -0.011022262
v 0.038074262 0.07754157 0.008417479
v 0.038074262 0.07754157 -0.011022265
v 0.03018177 0.0020413685 -0.011022265
v 0.022605551 -0.057097044 -0.011022262
v 0.022605551 -0.057097044 0.008417479
v 0.03018177 0.0020413685 0.008417479
v 0.034883957 0.047129698 -0.011022265
v 0.034883957 0.047129698 0.008417479
v 0.038074262 0.07754157 -0.011022265
v 0.038074262 0.07754157 0.008417479
v 0.012686729 -0.058598336 -0.011022265
v -0.0028238867 -0.06345475 -0.011022265
v -0.0028238867 -0.06345475 0.008417479
v 0.012686729 -0.058598336 0.008417478
v 0.022605551 -0.057097044 -0.011022262
v 0.022605551 -0.057097044 0.008417479
v -0.025778847 -0.017225562 0.008417478
v -0.022861404 -0.0054804324 0.008417479
v -0.020998554 -0.0041445824 0.008417478
v -0.025057983 -0.018409643 0.008417478
v -0.019101428 -0.021308642 0.008417479
v -0.015420036 -0.0047580814 0.008417479
v -0.016785298 -0.02585784 0.008417479
v -0.010257645 -0.025482873 0.008417479
v -0.003980675 0.00329154 0.008417478
v 0.019341316 0.0053363703 0.008417479
v -0.006283016 0.0093275355 0.008417479
v -0.0060025216 0.012929658 0.008417478
v -0.005984783 0.016577443 0.008417479
v -0.0054206657 0.019417562 0.008417478
v -0.0040248297 0.022712812 0.008417479
v -7.469177E-05 0.024495076 0.008417479
v 0.0029335783 0.02815482 0.008417469
v -0.0062165833 -0.030284356 0.008417479
v 0.01432888 -0.04282098 0.008417479
v -0.0052018357 -0.0356688 0.008417479
v -0.0035845756 -0.040530406 0.008417478
v -0.00019958496 -0.044833574 0.008417479
v 0.0076387404 0.031426307 0.008417479
v 0.0015659904 -0.050691918 0.008417479
v 0.023005942 0.04819392 0.008417479
v 0.008875103 0.037299756 0.008417478
v 0.010948906 0.042379864 0.008417478
v 0.0112773515 0.048179388 0.008417478
v 0.011551361 0.05263499 0.008417479
v 0.015955314 0.057437543 0.008417478
v 0.018806534 0.06408153 0.008417479
v 0.024807548 0.06926387 0.008417478
v 0.034883957 0.047129698 0.008417479
v 0.028461609 0.07343993 0.008417479
v 0.038074262 0.07754157 0.008417479
v 0.03018177 0.0020413685 0.008417479
v 0.022605551 -0.057097044 0.008417479
v 0.012686729 -0.058598336 0.008417478
v -0.00015968323 -0.054564428 0.008417478
v -0.0027799034 -0.057916287 0.008417479
v -0.0017212677 -0.06156373 0.008414542
v -0.0028238867 -0.06345475 0.008417479
v -0.022298165 -0.07495744 0.011022265
v -0.014328766 -0.07476641 0.011022265
v -0.011622715 -0.07754157 0.011022265
v -0.012987099 -0.07103831 0.011022263
v -0.017299384 -0.065641336 0.011022263
v -0.038074262 -0.07207709 0.011022265
v -0.036319714 -0.0744394 0.011022265
vt 0.091552734 0.24914551
vt 0.08935547 0.25512695
vt 0.09008789 0.25439453
vt 0.09124756 0.24865723
vt 0.08905029 0.24719238
vt 0.08734131 0.25439453
vt 0.088134766 0.24511719
vt 0.08557129 0.24511719
vt 0.08300781 0.25756836
vt 0.07336426 0.2590332
vt 0.08428955 0.25976562
vt 0.084228516 0.26098633
vt 0.08416748 0.26245117
vt 0.08380127 0.26367188
vt 0.08300781 0.26489258
vt 0.08117676 0.26586914
vt 0.07989502 0.26733398
vt 0.083984375 0.24304199
vt 0.07556152 0.23840332
vt 0.083618164 0.24047852
vt 0.08306885 0.23852539
vt 0.081726074 0.23706055
vt 0.077941895 0.26904297
vt 0.08117676 0.23498535
vt 0.072021484 0.2775879
vt 0.07745361 0.27148438
vt 0.07659912 0.27392578
vt 0.07647705 0.2763672
vt 0.07635498 0.2783203
vt 0.07476807 0.28076172
vt 0.07373047 0.28393555
vt 0.07159424 0.28686523
vt 0.070251465 0.2890625
vt 0.06744385 0.27807617
vt 0.066467285 0.2915039
vt 0.06896973 0.25830078
vt 0.071899414 0.23254395
vt 0.07647705 0.23205566
vt 0.08203125 0.23352051
vt 0.08319092 0.23217773
vt 0.08251953 0.23046875
vt 0.08276367 0.22949219
vt 0.091552734 0.23425293
vt 0.08666992 0.23327637
vt 0.08770752 0.23449707
vt 0.08679199 0.2364502
vt 0.08850098 0.23901367
vt 0.09893799 0.23522949
vt 0.0982666 0.23400879
vt 0.5493164 0.040618896
vt 0.5493164 0.050689697
vt 0.5595703 0.050689697
vt 0.5595703 0.040618896
vt 0.54589844 0.040618896
vt 0.5493164 0.050689697
vt 0.5493164 0.040618896
vt 0.54589844 0.050689697
vt 0.5439453 0.040618896
vt 0.5439453 0.050689697
vt 0.5419922 0.040618896
vt 0.5419922 0.050689697
vt 0.5439453 0.050689697
vt 0.5439453 0.040618896
vt 0.5673828 0.040618896
vt 0.5727539 0.050689697
vt 0.5727539 0.040618896
vt 0.5673828 0.050689697
vt 0.5605469 0.040618896
vt 0.5605469 0.050689697
vt 0.5595703 0.040618896
vt 0.5595703 0.050689697
vt 0.7270508 0.040618896
vt 0.7260742 0.050689697
vt 0.7270508 0.050689697
vt 0.7260742 0.040618896
vt 0.7241211 0.050689697
vt 0.7241211 0.040618896
vt 0.7216797 0.050689697
vt 0.7216797 0.040618896
vt 0.71972656 0.050689697
vt 0.71972656 0.040618896
vt 0.7167969 0.050689697
vt 0.7167969 0.040618896
vt 0.7138672 0.050689697
vt 0.7138672 0.040618896
vt 0.7114258 0.050689697
vt 0.7114258 0.040618896
vt 0.7084961 0.050689697
vt 0.7084961 0.040618896
vt 0.7055664 0.050689697
vt 0.7055664 0.040618896
vt 0.70214844 0.050689697
vt 0.70214844 0.040618896
vt 0.70214844 0.040618896
vt 0.69970703 0.050689697
vt 0.70214844 0.050689697
vt 0.69970703 0.040618896
vt 0.69628906 0.050689697
vt 0.69628906 0.040618896
vt 0.6958008 0.050689697
vt 0.6958008 0.040618896
vt 0.6899414 0.050689697
vt 0.6899414 0.040618896
vt 0.68847656 0.050689697
vt 0.68847656 0.040618896
vt 0.68603516 0.050689697
vt 0.68603516 0.040618896
vt 0.67871094 0.050689697
vt 0.67871094 0.040618896
vt 0.67871094 0.040618896
vt 0.67578125 0.050689697
vt 0.67871094 0.050689697
vt 0.67578125 0.040618896
vt 0.6738281 0.050689697
vt 0.6738281 0.040618896
vt 0.671875 0.050689697
vt 0.671875 0.040618896
vt 0.67041016 0.050689697
vt 0.67041016 0.040618896
vt 0.66845703 0.050689697
vt 0.66845703 0.040618896
vt 0.6665039 0.050689697
vt 0.6665039 0.040618896
vt 0.6640625 0.050689697
vt 0.6640625 0.040618896
vt 0.66064453 0.050689697
vt 0.66064453 0.040618896
vt 0.65771484 0.050689697
vt 0.65771484 0.040618896
vt 0.65478516 0.050689697
vt 0.65478516 0.040618896
vt 0.65185547 0.050689697
vt 0.65185547 0.040618896
vt 0.64941406 0.050689697
vt 0.64941406 0.040618896
vt 0.6459961 0.050689697
vt 0.6459961 0.040618896
vt 0.64208984 0.050689697
vt 0.64208984 0.040618896
vt 0.6381836 0.050689697
vt 0.6381836 0.040618896
vt 0.6352539 0.050689697
vt 0.6352539 0.040618896
vt 0.6298828 0.050689697
vt 0.6298828 0.040618896
vt 0.58984375 0.040618896
vt 0.55908203 0.040618896
vt 0.55908203 0.050689697
vt 0.58984375 0.050689697
vt 0.61376953 0.040618896
vt 0.61376953 0.050689697
vt 0.6298828 0.040618896
vt 0.6298828 0.050689697
vt 0.73535156 0.040618896
vt 0.7270508 0.040618896
vt 0.7270508 0.050689697
vt 0.73535156 0.050689697
vt 0.74072266 0.040618896
vt 0.74072266 0.050689697
vt 0.32373047 0.5571289
vt 0.3251953 0.5620117
vt 0.3256836 0.5629883
vt 0.3239746 0.5566406
vt 0.32617188 0.5551758
vt 0.32788086 0.5625
vt 0.3269043 0.5527344
vt 0.32958984 0.5527344
vt 0.33203125 0.5654297
vt 0.34179688 0.56689453
vt 0.33081055 0.5673828
vt 0.33081055 0.56884766
vt 0.3310547 0.5703125
vt 0.33129883 0.57128906
vt 0.3322754 0.5727539
vt 0.33398438 0.57373047
vt 0.33520508 0.5751953
vt 0.3310547 0.55078125
vt 0.3395996 0.5463867
vt 0.33154297 0.54833984
vt 0.33203125 0.5463867
vt 0.3334961 0.5449219
vt 0.3371582 0.57666016
vt 0.33398438 0.54248047
vt 0.34301758 0.5854492
vt 0.33764648 0.57910156
vt 0.33862305 0.58154297
vt 0.33862305 0.5839844
vt 0.3388672 0.5859375
vt 0.34033203 0.5883789
vt 0.3413086 0.5917969
vt 0.34350586 0.59472656
vt 0.34765625 0.5859375
vt 0.3449707 0.5966797
vt 0.3486328 0.5996094
vt 0.3461914 0.56591797
vt 0.34326172 0.54052734
vt 0.33862305 0.5395508
vt 0.3330078 0.5415039
vt 0.33203125 0.54003906
vt 0.33251953 0.53808594
vt 0.3322754 0.5371094
vt 0.3244629 0.53222656
vt 0.32836914 0.53271484
vt 0.3293457 0.5317383
vt 0.32910156 0.53466797
vt 0.32739258 0.5371094
vt 0.31713867 0.5332031
vt 0.31762695 0.53222656
vn 5.364418E-07 0 -1
vn -0 0 -1
vn 5.364418E-07 0 -1
vn -0 0 -1
vn -5.9604645E-07 0 -1
vn 3.5762787E-07 0 -1
vn 3.5762787E-07 0 -1
vn -0 0 -1
vn -0 0 -1
vn -0 0 -1
vn -0 0 -1
vn -0 0 -1
vn 3.5762787E-07 0 -1
vn -3.5762787E-07 0 -1
vn -1.1920929E-07 0 -1
vn 1.1920929E-06 7.1525574E-07 -1
vn -1.1920929E-07 1.7881393E-07 -1
vn -0 0 -1
vn -0 0 -1
vn -0 0 -1
vn -1.1920929E-07 0 -1
vn -2.3841858E-07 0 -1
vn -1.1920929E-07 0 -1
vn -2.3841858E-07 0 -1
vn -0 0 -1
vn -0 0 -1
vn -1.1920929E-07 0 -1
vn 1.7881393E-07 0 -1
vn 1.1920929E-07 0 -1
vn -0 0 -1
vn 1.7881393E-07 0 -1
vn 1.1920929E-07 0 -1
vn -0 0 -1
vn 0.90283203 -0.09436035 -0.41992188
vn 0.9824219 -0.103027344 -0.15698242
vn 0.87841797 -0.103515625 -0.4663086
vn 0.9614258 -0.123168945 -0.24645996
vn -3.4570694E-06 -1.2278557E-05 -1
vn 1.7881393E-07 2.3841858E-07 -1
vn -2.0682812E-05 -0.00046992302 -1
vn -0.00024533272 0.00020325184 -1
vn -0.0005941391 0.0018997192 -1
vn -0 0 -1
vn -5.364418E-07 0 -1
vn -1.1920929E-07 0 -1
vn -2.3841858E-07 0 -1
vn -1.1920929E-07 0 -1
vn -0 0 -1
vn -0 0 -1
vn -0.29589844 0.9550781 0
vn -0.29589844 0.9550781 0
vn -0.29589844 0.9550781 0
vn -0.29589844 0.9550781 0
vn 0.9506836 0.3095703 0
vn 0.78125 0.62402344 0
vn 0.78125 0.62402344 0
vn 0.9506836 0.3095703 0
vn 0.94091797 -0.33862305 0
vn 0.94091797 -0.33862305 0
vn 0.7158203 0.6982422 0
vn 0.7158203 0.6982422 0
vn 0.7158203 0.6982422 0
vn 0.7158203 0.6982422 0
vn -0.12463379 -0.9921875 0
vn -0.23522949 -0.97216797 0
vn -0.23522949 -0.97216797 0
vn -0.12463379 -0.9921875 0
vn -0.17956543 -0.9838867 0
vn -0.17956543 -0.9838867 0
vn -0.8027344 -0.5961914 0
vn -0.8027344 -0.5961914 0
vn -0.86376953 0.50390625 0
vn -1 0.008010864 0
vn -0.86376953 0.50390625 0
vn -1 0.008010864 0
vn -0.9760742 0.21789551 0
vn -0.9760742 0.21789551 0
vn -0.8569336 0.515625 0
vn -0.8569336 0.515625 0
vn -1 -0.0041007996 0
vn -1 -0.0041007996 0
vn -0.89208984 -0.45214844 0
vn -0.89208984 -0.45214844 0
vn -0.8779297 -0.4790039 0
vn -0.8779297 -0.4790039 0
vn -0.96875 -0.2487793 0
vn -0.96875 -0.2487793 0
vn -0.8955078 -0.44458008 0
vn -0.8955078 -0.44458008 0
vn -0.38623047 -0.9223633 0
vn -0.38623047 -0.9223633 0
vn 0.05734253 -0.99853516 0
vn 0.05734253 -0.99853516 0
vn -0.8911133 -0.45361328 0
vn -0.6689453 -0.74316406 0
vn -0.8911133 -0.45361328 0
vn -0.6689453 -0.74316406 0
vn -0.5214844 -0.85302734 0
vn -0.5214844 -0.85302734 0
vn -0.98583984 0.16748047 0
vn -0.98583984 0.16748047 0
vn -0.9394531 0.34326172 0
vn -0.9394531 0.34326172 0
vn -0.09661865 0.9951172 0
vn -0.09661865 0.9951172 0
vn -0.40039062 0.9165039 0
vn -0.40039062 0.9165039 0
vn -0.5756836 0.8178711 0
vn -0.5756836 0.8178711 0
vn -0.9345703 -0.3564453 0
vn -0.9785156 -0.20532227 0
vn -0.9345703 -0.3564453 0
vn -0.9785156 -0.20532227 0
vn -0.99902344 0.041107178 0
vn -0.99902344 0.041107178 0
vn -0.99609375 0.08929443 0
vn -0.99609375 0.08929443 0
vn -0.9526367 0.30419922 0
vn -0.9526367 0.30419922 0
vn -0.68847656 0.72509766 0
vn -0.68847656 0.72509766 0
vn -0.61621094 0.78759766 0
vn -0.61621094 0.78759766 0
vn -0.66845703 0.74365234 0
vn -0.66845703 0.74365234 0
vn -0.8383789 0.5449219 0
vn -0.8383789 0.5449219 0
vn -0.95703125 0.28930664 0
vn -0.95703125 0.28930664 0
vn -0.9765625 0.21557617 0
vn -0.9765625 0.21557617 0
vn -0.9980469 0.058654785 0
vn -0.9980469 0.058654785 0
vn -0.8925781 0.45092773 0
vn -0.8925781 0.45092773 0
vn -0.84472656 0.53515625 0
vn -0.84472656 0.53515625 0
vn -0.80078125 0.5991211 0
vn -0.80078125 0.5991211 0
vn -0.6958008 0.7182617 0
vn -0.6958008 0.7182617 0
vn -0.5292969 0.8486328 0
vn -0.5292969 0.8486328 0
vn -0.39257812 0.9199219 0
vn -0.39257812 0.9199219 0
vn 0.87841797 -0.103515625 -0.4663086
vn 0.9614258 -0.123168945 -0.24645996
vn 0.9614258 -0.123168945 0.24645996
vn 0.87841797 -0.103515625 0.4663086
vn 0.90283203 -0.09436035 -0.41992188
vn 0.90283203 -0.09436035 0.41992188
vn 0.9824219 -0.103027344 -0.15698242
vn 0.9824219 -0.103027344 0.15698242
vn 0.24255371 -0.97021484 0
vn 0.29882812 -0.95410156 0
vn 0.29882812 -0.95410156 0
vn 0.24255371 -0.97021484 0
vn 0.1496582 -0.98876953 0
vn 0.1496582 -0.98876953 0
vn 7.1525574E-07 -2.3841858E-07 1
vn 7.1525574E-07 -2.3841858E-07 1
vn -1.1920929E-07 0 1
vn -1.1920929E-07 0 1
vn -1.1920929E-07 0 1
vn -0 0 1
vn -0 0 1
vn -0 0 1
vn -0 0 1
vn -0 0 1
vn -0 0 1
vn -0 0 1
vn -0 0 1
vn -0 -1.1920929E-07 1
vn -1.1920929E-07 -1.7881393E-07 1
vn 7.1525574E-07 7.748604E-07 1
vn -3.5762787E-07 1.1920929E-07 1
vn -0 0 1
vn -0 0 1
vn -0 -1.7881393E-07 1
vn -0 -1.7881393E-07 1
vn -0 0 1
vn -1.7881393E-07 0 1
vn -0 0 1
vn -0 0 1
vn -0 0 1
vn -1.7881393E-07 0 1
vn -0 -1.1920929E-07 1
vn -0 0 1
vn -0 0 1
vn 1.7881393E-07 0 1
vn -0 0 1
vn 0.90283203 -0.09436035 0.41992188
vn -0 0 1
vn 0.9824219 -0.103027344 0.15698242
vn 0.87841797 -0.103515625 0.4663086
vn 0.9614258 -0.123168945 0.24645996
vn -3.5762787E-06 -1.2278557E-05 1
vn -0 1.1920929E-07 1
vn -2.0563602E-05 -0.00046944618 1
vn -0.00024557114 0.00020313263 1
vn -0.0005950928 0.0018997192 1
vn -0 1.1920929E-07 1
vn -0 1.7881393E-07 1
vn -0 0 1
vn -0 1.1920929E-07 1
vn -0 1.1920929E-07 1
vn -0 0 1
vn -0 0 1
g doorL11_geo_0
f 3/3/3 2/2/2 1/1/1
f 2/2/2 4/4/4 1/1/1
f 5/5/5 4/4/4 2/2/2
f 6/6/6 5/5/5 2/2/2
f 5/5/5 6/6/6 7/7/7
f 7/7/7 6/6/6 8/8/8
f 6/6/6 9/9/9 8/8/8
f 8/8/8 9/9/9 10/10/10
f 11/11/11 10/10/10 9/9/9
f 12/12/12 10/10/10 11/11/11
f 13/13/13 10/10/10 12/12/12
f 14/14/14 10/10/10 13/13/13
f 14/14/14 15/15/15 10/10/10
f 15/15/15 16/16/16 10/10/10
f 16/16/16 17/17/17 10/10/10
f 18/18/18 8/8/8 10/10/10
f 10/10/10 19/19/19 18/18/18
f 18/18/18 19/19/19 20/20/20
f 20/20/20 19/19/19 21/21/21
f 21/21/21 19/19/19 22/22/22
f 17/17/17 23/23/23 10/10/10
f 22/22/22 19/19/19 24/24/24
f 10/10/10 23/23/23 25/25/25
f 23/23/23 26/26/26 25/25/25
f 26/26/26 27/27/27 25/25/25
f 27/27/27 28/28/28 25/25/25
f 28/28/28 29/29/29 25/25/25
f 29/29/29 30/30/30 25/25/25
f 30/30/30 31/31/31 25/25/25
f 25/25/25 31/31/31 32/32/32
f 25/25/25 32/32/32 33/33/33
f 34/34/34 25/25/25 33/33/33
f 10/10/10 25/25/25 34/34/34
f 34/34/34 33/33/33 35/35/35
f 36/36/36 10/10/10 34/34/34
f 19/19/19 10/10/10 36/36/36
f 37/37/37 19/19/19 36/36/36
f 38/38/38 19/19/19 37/37/37
f 19/19/19 38/38/38 24/24/24
f 24/24/24 38/38/38 39/39/39
f 39/39/39 38/38/38 40/40/40
f 40/40/40 38/38/38 41/41/41
f 38/38/38 42/42/42 41/41/41
f 45/45/45 44/44/44 43/43/43
f 46/46/46 45/45/45 43/43/43
f 47/47/47 46/46/46 43/43/43
f 48/48/48 47/47/47 43/43/43
f 49/49/49 48/48/48 43/43/43
f 52/52/52 51/51/51 50/50/50
f 53/53/53 52/52/52 50/50/50
f 56/56/56 55/55/55 54/54/54
f 55/55/55 57/57/57 54/54/54
f 54/54/54 57/57/57 58/58/58
f 57/57/57 59/59/59 58/58/58
f 62/62/62 61/61/61 60/60/60
f 63/63/63 62/62/62 60/60/60
f 66/66/66 65/65/65 64/64/64
f 65/65/65 67/67/67 64/64/64
f 64/64/64 67/67/67 68/68/68
f 67/67/67 69/69/69 68/68/68
f 68/68/68 69/69/69 70/70/70
f 69/69/69 71/71/71 70/70/70
f 74/74/74 73/73/73 72/72/72
f 73/73/73 75/75/75 72/72/72
f 73/73/73 76/76/76 75/75/75
f 76/76/76 77/77/77 75/75/75
f 76/76/76 78/78/78 77/77/77
f 78/78/78 79/79/79 77/77/77
f 78/78/78 80/80/80 79/79/79
f 80/80/80 81/81/81 79/79/79
f 80/80/80 82/82/82 81/81/81
f 82/82/82 83/83/83 81/81/81
f 82/82/82 84/84/84 83/83/83
f 84/84/84 85/85/85 83/83/83
f 84/84/84 86/86/86 85/85/85
f 86/86/86 87/87/87 85/85/85
f 86/86/86 88/88/88 87/87/87
f 88/88/88 89/89/89 87/87/87
f 88/88/88 90/90/90 89/89/89
f 90/90/90 91/91/91 89/89/89
f 90/90/90 92/92/92 91/91/91
f 92/92/92 93/93/93 91/91/91
f 96/96/96 95/95/95 94/94/94
f 95/95/95 97/97/97 94/94/94
f 95/95/95 98/98/98 97/97/97
f 98/98/98 99/99/99 97/97/97
f 98/98/98 100/100/100 99/99/99
f 100/100/100 101/101/101 99/99/99
f 100/100/100 102/102/102 101/101/101
f 102/102/102 103/103/103 101/101/101
f 102/102/102 104/104/104 103/103/103
f 104/104/104 105/105/105 103/103/103
f 104/104/104 106/106/106 105/105/105
f 106/106/106 107/107/107 105/105/105
f 106/106/106 108/108/108 107/107/107
f 108/108/108 109/109/109 107/107/107
f 112/112/112 111/111/111 110/110/110
f 111/111/111 113/113/113 110/110/110
f 111/111/111 114/114/114 113/113/113
f 114/114/114 115/115/115 113/113/113
f 114/114/114 116/116/116 115/115/115
f 116/116/116 117/117/117 115/115/115
f 116/116/116 118/118/118 117/117/117
f 118/118/118 119/119/119 117/117/117
f 118/118/118 120/120/120 119/119/119
f 120/120/120 121/121/121 119/119/119
f 120/120/120 122/122/122 121/121/121
f 122/122/122 123/123/123 121/121/121
f 122/122/122 124/124/124 123/123/123
f 124/124/124 125/125/125 123/123/123
f 124/124/124 126/126/126 125/125/125
f 126/126/126 127/127/127 125/125/125
f 126/126/126 128/128/128 127/127/127
f 128/128/128 129/129/129 127/127/127
f 128/128/128 130/130/130 129/129/129
f 130/130/130 131/131/131 129/129/129
f 130/130/130 132/132/132 131/131/131
f 132/132/132 133/133/133 131/131/131
f 132/132/132 134/134/134 133/133/133
f 134/134/134 135/135/135 133/133/133
f 134/134/134 136/136/136 135/135/135
f 136/136/136 137/137/137 135/135/135
f 136/136/136 138/138/138 137/137/137
f 138/138/138 139/139/139 137/137/137
f 138/138/138 140/140/140 139/139/139
f 140/140/140 141/141/141 139/139/139
f 140/140/140 142/142/142 141/141/141
f 142/142/142 143/143/143 141/141/141
f 142/142/142 144/144/144 143/143/143
f 144/144/144 145/145/145 143/143/143
f 148/148/148 147/147/147 146/146/146
f 149/149/149 148/148/148 146/146/146
f 149/149/149 146/146/146 150/150/150
f 151/151/151 149/149/149 150/150/150
f 150/150/150 152/152/152 151/151/151
f 152/152/152 153/153/153 151/151/151
f 156/156/156 155/155/155 154/154/154
f 157/157/157 156/156/156 154/154/154
f 157/157/157 154/154/154 158/158/158
f 159/159/159 157/157/157 158/158/158
f 162/162/162 161/161/161 160/160/160
f 163/163/163 162/162/162 160/160/160
f 163/163/163 164/164/164 162/162/162
f 164/164/164 165/165/165 162/162/162
f 165/165/165 164/164/164 166/166/166
f 165/165/165 166/166/166 167/167/167
f 168/168/168 165/165/165 167/167/167
f 168/168/168 167/167/167 169/169/169
f 169/169/169 170/170/170 168/168/168
f 169/169/169 171/171/171 170/170/170
f 169/169/169 172/172/172 171/171/171
f 169/169/169 173/173/173 172/172/172
f 174/174/174 173/173/173 169/169/169
f 175/175/175 174/174/174 169/169/169
f 176/176/176 175/175/175 169/169/169
f 167/167/167 177/177/177 169/169/169
f 178/178/178 169/169/169 177/177/177
f 178/178/178 177/177/177 179/179/179
f 178/178/178 179/179/179 180/180/180
f 178/178/178 180/180/180 181/181/181
f 182/182/182 176/176/176 169/169/169
f 178/178/178 181/181/181 183/183/183
f 182/182/182 169/169/169 184/184/184
f 185/185/185 182/182/182 184/184/184
f 186/186/186 185/185/185 184/184/184
f 187/187/187 186/186/186 184/184/184
f 188/188/188 187/187/187 184/184/184
f 189/189/189 188/188/188 184/184/184
f 190/190/190 189/189/189 184/184/184
f 190/190/190 184/184/184 191/191/191
f 191/191/191 184/184/184 192/192/192
f 184/184/184 169/169/169 192/192/192
f 193/193/193 191/191/191 192/192/192
f 194/194/194 193/193/193 192/192/192
f 169/169/169 195/195/195 192/192/192
f 169/169/169 178/178/178 195/195/195
f 178/178/178 196/196/196 195/195/195
f 178/178/178 197/197/197 196/196/196
f 197/197/197 178/178/178 183/183/183
f 197/197/197 183/183/183 198/198/198
f 197/197/197 198/198/198 199/199/199
f 197/197/197 199/199/199 200/200/200
f 201/201/201 197/197/197 200/200/200
f 204/204/204 203/203/203 202/202/202
f 203/203/203 205/205/205 202/202/202
f 205/205/205 206/206/206 202/202/202
f 206/206/206 207/207/207 202/202/202
f 207/207/207 208/208/208 202/202/202
