g doorL09_geo
v -0.029385962 0.014626141 0.009982401
v -0.03408914 0.013832016 0.009982398
v -0.03569609 0.014328861 -0.009965417
v -0.030184511 0.015746899 -0.009965414
v -0.025845561 0.019761505 0.009982396
v -0.026901793 0.021269092 -0.009965417
v -0.020986704 0.022928562 0.009982398
v -0.021540122 0.023868313 -0.009965417
v -0.016529726 0.026733493 0.009982386
v -0.017832808 0.027550373 -0.00998242
v -0.0122142555 0.03144304 -0.009965419
v -0.011086383 0.02872671 0.009982408
v -0.029385962 0.014626141 0.009982401
v -0.02881454 0.005306606 0.009982412
v -0.03408914 0.013832016 0.009982398
v -0.025845561 0.019761505 0.009982396
v -0.020986704 0.022928562 0.009982398
v -0.00889503 0.02460966 0.00998239
v -0.023735384 -0.0025318908 0.009982394
v -0.016529726 0.026733493 0.009982386
v -0.011086383 0.02872671 0.009982408
v -0.005963149 0.028816126 0.0099823885
v 0.0011905145 0.030154437 0.009982375
v -0.016739344 -0.010125503 0.009982393
v 0.0040598726 0.02633562 0.009982401
v -0.011943278 -0.018738251 0.009982402
v 0.01003386 0.02114458 0.009982402
v 0.012653489 0.017814768 0.009982386
v -0.0012487745 -0.029005947 0.009982412
v 0.0013002444 -0.028238144 0.009982394
v 0.017062955 0.016330319 0.009982381
v 0.028975777 -0.011729832 0.009982406
v 0.024040474 0.011482448 0.00998242
v 0.022117829 0.016668987 0.0099823745
v 0.030756095 -0.008118439 0.009982401
v 0.027238965 0.009630604 0.009982408
v 0.03509896 -0.005509262 0.00998241
v -0.0122142555 0.03144304 -0.009965419
v -0.005963149 0.028816126 0.0099823885
v -0.011086383 0.02872671 0.009982408
v -0.005261626 0.031665973 -0.009965419
v 0.0011905145 0.030154437 0.009982375
v 0.0020726442 0.032202624 -0.009965417
v 0.0040598726 0.02633562 0.009982401
v 0.0049161958 0.027506122 -0.009965419
v 0.011494355 0.022130031 -0.009965414
v 0.01003386 0.02114458 0.009982402
v 0.012653489 0.017814768 0.009982386
v 0.013191132 0.018361358 -0.009965417
v 0.017062955 0.016330319 0.009982381
v 0.017052788 0.016417293 -0.009965419
v 0.022117829 0.016668987 0.0099823745
v 0.023188882 0.017039584 -0.009784173
v -0.0012487745 -0.029005947 0.009982412
v -0.0016989087 -0.032202624 -0.009965414
v -0.013981509 -0.020043964 -0.009965417
v -0.011943278 -0.018738251 0.009982402
v -0.016739344 -0.010125503 0.009982393
v -0.017493242 -0.010599804 -0.009965414
v -0.023735384 -0.0025318908 0.009982394
v -0.024537139 -0.003294277 -0.009965419
v -0.02881454 0.005306606 0.009982412
v -0.031193461 0.0038044357 -0.009965411
v -0.03408914 0.013832016 0.009982398
v -0.03569609 0.014328861 -0.009965417
v 0.030756095 -0.008118439 0.009982401
v 0.03509896 -0.005509262 0.00998241
v 0.03569609 -0.005770645 -0.009965414
v 0.031773247 -0.008624821 -0.009965414
v 0.028975777 -0.011729832 0.009982406
v 0.030092644 -0.012694397 -0.009965411
v 0.0013002444 -0.028238144 0.009982394
v 0.0023941088 -0.02960825 -0.009965411
v -0.0016989087 -0.032202624 -0.009965414
v -0.0012487745 -0.029005947 0.009982412
v 0.03509896 -0.005509262 0.00998241
v 0.02914536 0.011008682 -0.009965414
v 0.03569609 -0.005770645 -0.009965414
v 0.027238965 0.009630604 0.009982408
v 0.025581058 0.013468646 -0.009965419
v 0.024040474 0.011482448 0.00998242
v 0.023188882 0.017039584 -0.009784173
v 0.022117829 0.016668987 0.0099823745
v -0.030184511 0.015746899 -0.009965414
v -0.03569609 0.014328861 -0.009965417
v -0.031193461 0.0038044357 -0.009965411
v -0.026901793 0.021269092 -0.009965417
v -0.021540122 0.023868313 -0.009965417
v -0.008534503 0.025729885 -0.009965419
v -0.024537139 -0.003294277 -0.009965419
v -0.017832808 0.027550373 -0.00998242
v -0.0122142555 0.03144304 -0.009965419
v -0.005261626 0.031665973 -0.009965419
v 0.0020726442 0.032202624 -0.009965417
v -0.017493242 -0.010599804 -0.009965414
v 0.0049161958 0.027506122 -0.009965419
v -0.013981509 -0.020043964 -0.009965417
v 0.011494355 0.022130031 -0.009965414
v 0.013191132 0.018361358 -0.009965417
v -0.0016989087 -0.032202624 -0.009965414
v 0.017052788 0.016417293 -0.009965419
v 0.0023941088 -0.02960825 -0.009965411
v 0.030092644 -0.012694397 -0.009965411
v 0.023188882 0.017039584 -0.009784173
v 0.025581058 0.013468646 -0.009965419
v 0.031773247 -0.008624821 -0.009965414
v 0.02914536 0.011008682 -0.009965414
v 0.03569609 -0.005770645 -0.009965414
vt 0.65771484 0.050689697
vt 0.66015625 0.050689697
vt 0.66015625 0.040618896
vt 0.65771484 0.040618896
vt 0.65478516 0.050689697
vt 0.6542969 0.040618896
vt 0.6513672 0.050689697
vt 0.6513672 0.040618896
vt 0.6484375 0.050689697
vt 0.6489258 0.040618896
vt 0.6455078 0.040618896
vt 0.6455078 0.050689697
vt 0.27270508 0.56640625
vt 0.27246094 0.56152344
vt 0.2705078 0.56591797
vt 0.27441406 0.5683594
vt 0.2763672 0.5698242
vt 0.28173828 0.5708008
vt 0.27539062 0.55859375
vt 0.2783203 0.57128906
vt 0.2800293 0.5722656
vt 0.28295898 0.5732422
vt 0.28564453 0.5722656
vt 0.2783203 0.55566406
vt 0.28710938 0.57128906
vt 0.27978516 0.5517578
vt 0.28979492 0.56884766
vt 0.29052734 0.5673828
vt 0.28442383 0.5473633
vt 0.2861328 0.54785156
vt 0.2919922 0.56689453
vt 0.29736328 0.5546875
vt 0.29541016 0.5654297
vt 0.2939453 0.56689453
vt 0.29785156 0.55615234
vt 0.29663086 0.5644531
vt 0.2993164 0.5576172
vt 0.6455078 0.040618896
vt 0.6425781 0.050689697
vt 0.6455078 0.050689697
vt 0.64208984 0.040618896
vt 0.6386719 0.050689697
vt 0.6386719 0.040618896
vt 0.63623047 0.050689697
vt 0.63623047 0.040618896
vt 0.6323242 0.040618896
vt 0.6323242 0.050689697
vt 0.6303711 0.050689697
vt 0.6298828 0.040618896
vt 0.6279297 0.050689697
vt 0.6279297 0.040618896
vt 0.6254883 0.050689697
vt 0.625 0.040618896
vt 0.68847656 0.050689697
vt 0.68847656 0.040618896
vt 0.6801758 0.040618896
vt 0.6801758 0.050689697
vt 0.67529297 0.050689697
vt 0.67529297 0.040618896
vt 0.6699219 0.050689697
vt 0.6699219 0.040618896
vt 0.66552734 0.050689697
vt 0.66552734 0.040618896
vt 0.66015625 0.050689697
vt 0.66015625 0.040618896
vt 0.7084961 0.050689697
vt 0.7109375 0.050689697
vt 0.7114258 0.040618896
vt 0.7089844 0.040618896
vt 0.70654297 0.050689697
vt 0.70654297 0.040618896
vt 0.6899414 0.050689697
vt 0.6904297 0.040618896
vt 0.68847656 0.040618896
vt 0.68847656 0.050689697
vt 0.6118164 0.050689697
vt 0.62060547 0.040618896
vt 0.6118164 0.040618896
vt 0.62060547 0.050689697
vt 0.6225586 0.040618896
vt 0.6225586 0.050689697
vt 0.625 0.040618896
vt 0.6254883 0.050689697
vt 0.13964844 0.2626953
vt 0.1418457 0.26220703
vt 0.14001465 0.2578125
vt 0.13830566 0.26513672
vt 0.1361084 0.26611328
vt 0.13085938 0.2668457
vt 0.13720703 0.2548828
vt 0.13415527 0.26733398
vt 0.13244629 0.26879883
vt 0.12963867 0.2692871
vt 0.12695312 0.26879883
vt 0.13427734 0.25195312
vt 0.12548828 0.26757812
vt 0.1328125 0.24804688
vt 0.1227417 0.26538086
vt 0.12207031 0.26391602
vt 0.12780762 0.24304199
vt 0.12054443 0.26293945
vt 0.12609863 0.24401855
vt 0.115356445 0.25097656
vt 0.118652344 0.26293945
vt 0.1171875 0.26171875
vt 0.11468506 0.25268555
vt 0.11578369 0.2607422
vt 0.11315918 0.25390625
vn -0.6020508 0.79541016 0.06976318
vn -0.21142578 0.9760742 0.05230713
vn -0.21142578 0.9760742 0.05230713
vn -0.6015625 0.79589844 0.06976318
vn -0.6933594 0.7163086 0.076049805
vn -0.6904297 0.7192383 0.07598877
vn -0.5830078 0.8095703 0.06896973
vn -0.5834961 0.80908203 0.06896973
vn -0.56640625 0.81933594 0.08746338
vn -0.5703125 0.81689453 0.08666992
vn -0.46728516 0.8779297 0.10614014
vn -0.46728516 0.8779297 0.10614014
vn -4.172325E-07 1.1324883E-06 1
vn 1.2516975E-06 -1.7881393E-07 1
vn -7.1525574E-07 1.1324883E-06 1
vn -1.3113022E-06 1.4305115E-06 1
vn 1.1920929E-06 -1.1920929E-07 1
vn 1.3709068E-06 -3.5762787E-07 1
vn 7.1525574E-07 -1.1920929E-07 1
vn -2.3841858E-07 1.66893E-06 1
vn -1.1920929E-07 -4.23193E-06 1
vn 2.3245811E-06 -1.013279E-06 1
vn -1.4305115E-06 7.748604E-07 1
vn -1.847744E-06 8.940697E-07 1
vn -1.847744E-06 8.940697E-07 1
vn -1.1920929E-07 2.9802322E-07 1
vn 2.9802322E-07 0 1
vn 1.1920929E-06 0 1
vn 1.3113022E-06 -1.1920929E-07 1
vn 1.2516975E-06 0 1
vn 3.5762787E-07 0 1
vn -7.1525574E-07 5.364418E-07 1
vn -4.6491623E-06 -1.2516975E-06 1
vn 5.364418E-07 9.000301E-06 1
vn 2.0861626E-06 0 1
vn 3.1590462E-06 1.1920929E-07 1
vn -1.7881393E-06 -7.748604E-07 1
vn -0.025604248 0.9902344 0.13842773
vn -0.079833984 0.98876953 0.12658691
vn -0.025604248 0.9902344 0.13842773
vn -0.08276367 0.98876953 0.12597656
vn 0.3088379 0.94384766 0.11846924
vn 0.3076172 0.94433594 0.11846924
vn 0.7192383 0.6899414 0.08013916
vn 0.7211914 0.68847656 0.08013916
vn 0.7216797 0.68847656 0.074035645
vn 0.72021484 0.6894531 0.07409668
vn 0.64208984 0.765625 0.04257202
vn 0.6411133 0.7661133 0.042510986
vn 0.12597656 0.9916992 0.014274597
vn 0.12866211 0.9916992 0.014335632
vn -0.08569336 0.99609375 0.00919342
vn -0.08569336 0.99609375 0.00919342
vn -0.6933594 -0.70996094 0.12335205
vn -0.6933594 -0.70996094 0.12335205
vn -0.7866211 -0.60791016 0.109313965
vn -0.78564453 -0.6088867 0.109436035
vn -0.8261719 -0.5595703 0.066467285
vn -0.8256836 -0.5600586 0.06640625
vn -0.7548828 -0.65185547 0.072753906
vn -0.7548828 -0.65185547 0.07269287
vn -0.8408203 -0.53222656 0.099121094
vn -0.8408203 -0.53222656 0.099121094
vn -0.8852539 -0.4543457 0.09991455
vn -0.8852539 -0.4543457 0.09991455
vn 0.7470703 -0.66259766 0.052215576
vn 0.55078125 -0.8334961 0.038330078
vn 0.55078125 -0.8334961 0.038330078
vn 0.74365234 -0.6665039 0.051971436
vn 0.5708008 -0.8173828 0.07824707
vn 0.5708008 -0.8173828 0.07824707
vn 0.5083008 -0.8574219 0.081726074
vn 0.5083008 -0.8569336 0.081604004
vn 0.4489746 -0.88671875 0.10876465
vn 0.4489746 -0.88671875 0.10876465
vn 0.9091797 0.4104004 0.06854248
vn 0.86083984 0.5024414 0.07952881
vn 0.9091797 0.4104004 0.06854248
vn 0.8598633 0.50439453 0.079711914
vn 0.7583008 0.6435547 0.103149414
vn 0.7558594 0.6464844 0.10333252
vn 0.89453125 0.43896484 0.0848999
vn 0.89453125 0.43896484 0.0848999
vn 2.3841858E-07 -1.7881393E-07 -1
vn 4.7683716E-07 -2.3841858E-07 -1
vn -4.172325E-07 1.1920929E-07 -1
vn -0 -2.9802322E-07 -1
vn 1.5556812E-05 -0.00011128187 -1
vn 5.9723854E-05 -1.6152859E-05 -1
vn -0 0 -1
vn 0.0011615753 -0.003408432 -1
vn 0.0013198853 0.0008497238 -1
vn 1.1920929E-07 -1.1920929E-07 -1
vn -0 0 -1
vn 2.3841858E-07 0 -1
vn -0 0 -1
vn -0 0 -1
vn -2.3841858E-07 -1.1920929E-07 -1
vn -0 0 -1
vn -0 0 -1
vn 0.004047394 0.0018129349 -1
vn -0 -1.1920929E-07 -1
vn -0.001039505 -2.7537346E-05 -1
vn 0.02027893 0.010414124 -0.9995117
vn -0.03265381 -0.005630493 -0.9995117
vn -0.026123047 -0.0045051575 -0.9995117
vn 7.1525574E-07 0 -1
vn 7.1525574E-07 0 -1
g doorL09_geo_0
f 3/3/3 2/2/2 1/1/1
f 4/4/4 3/3/3 1/1/1
f 4/4/4 1/1/1 5/5/5
f 6/6/6 4/4/4 5/5/5
f 5/5/5 7/7/7 6/6/6
f 7/7/7 8/8/8 6/6/6
f 8/8/8 7/7/7 9/9/9
f 10/10/10 8/8/8 9/9/9
f 10/10/10 9/9/9 11/11/11
f 9/9/9 12/12/12 11/11/11
f 15/15/15 14/14/14 13/13/13
f 16/16/16 13/13/13 14/14/14
f 17/17/17 16/16/16 14/14/14
f 18/18/18 17/17/17 14/14/14
f 19/19/19 18/18/18 14/14/14
f 18/18/18 20/20/20 17/17/17
f 21/21/21 20/20/20 18/18/18
f 18/18/18 22/22/22 21/21/21
f 23/23/23 22/22/22 18/18/18
f 18/18/18 19/19/19 24/24/24
f 23/23/23 18/18/18 24/24/24
f 23/23/23 24/24/24 25/25/25
f 24/24/24 26/26/26 25/25/25
f 27/27/27 25/25/25 26/26/26
f 27/27/27 26/26/26 28/28/28
f 26/26/26 29/29/29 28/28/28
f 29/29/29 30/30/30 28/28/28
f 30/30/30 31/31/31 28/28/28
f 32/32/32 31/31/31 30/30/30
f 33/33/33 31/31/31 32/32/32
f 33/33/33 34/34/34 31/31/31
f 33/33/33 32/32/32 35/35/35
f 36/36/36 33/33/33 35/35/35
f 35/35/35 37/37/37 36/36/36
f 40/40/40 39/39/39 38/38/38
f 39/39/39 41/41/41 38/38/38
f 39/39/39 42/42/42 41/41/41
f 42/42/42 43/43/43 41/41/41
f 42/42/42 44/44/44 43/43/43
f 44/44/44 45/45/45 43/43/43
f 45/45/45 44/44/44 46/46/46
f 44/44/44 47/47/47 46/46/46
f 46/46/46 47/47/47 48/48/48
f 49/49/49 46/46/46 48/48/48
f 48/48/48 50/50/50 49/49/49
f 50/50/50 51/51/51 49/49/49
f 50/50/50 52/52/52 51/51/51
f 52/52/52 53/53/53 51/51/51
f 56/56/56 55/55/55 54/54/54
f 57/57/57 56/56/56 54/54/54
f 57/57/57 58/58/58 56/56/56
f 58/58/58 59/59/59 56/56/56
f 58/58/58 60/60/60 59/59/59
f 60/60/60 61/61/61 59/59/59
f 60/60/60 62/62/62 61/61/61
f 62/62/62 63/63/63 61/61/61
f 62/62/62 64/64/64 63/63/63
f 64/64/64 65/65/65 63/63/63
f 68/68/68 67/67/67 66/66/66
f 69/69/69 68/68/68 66/66/66
f 66/66/66 70/70/70 69/69/69
f 70/70/70 71/71/71 69/69/69
f 71/71/71 70/70/70 72/72/72
f 73/73/73 71/71/71 72/72/72
f 74/74/74 73/73/73 72/72/72
f 75/75/75 74/74/74 72/72/72
f 78/78/78 77/77/77 76/76/76
f 77/77/77 79/79/79 76/76/76
f 79/79/79 77/77/77 80/80/80
f 81/81/81 79/79/79 80/80/80
f 81/81/81 80/80/80 82/82/82
f 83/83/83 81/81/81 82/82/82
f 86/86/86 85/85/85 84/84/84
f 87/87/87 86/86/86 84/84/84
f 87/87/87 88/88/88 86/86/86
f 88/88/88 89/89/89 86/86/86
f 89/89/89 90/90/90 86/86/86
f 88/88/88 91/91/91 89/89/89
f 91/91/91 92/92/92 89/89/89
f 92/92/92 93/93/93 89/89/89
f 89/89/89 93/93/93 94/94/94
f 89/89/89 95/95/95 90/90/90
f 95/95/95 89/89/89 94/94/94
f 95/95/95 94/94/94 96/96/96
f 97/97/97 95/95/95 96/96/96
f 96/96/96 98/98/98 97/97/97
f 98/98/98 99/99/99 97/97/97
f 99/99/99 100/100/100 97/97/97
f 99/99/99 101/101/101 100/100/100
f 101/101/101 102/102/102 100/100/100
f 101/101/101 103/103/103 102/102/102
f 101/101/101 104/104/104 103/103/103
f 104/104/104 105/105/105 103/103/103
f 105/105/105 106/106/106 103/103/103
f 105/105/105 107/107/107 106/106/106
f 107/107/107 108/108/108 106/106/106
