g doorR00_geo
v -0.026200764 -0.032867316 -0.00996556
v -0.0211788 -0.04008072 0.009952525
v -0.022001278 -0.04330284 -0.009965566
v -0.023999665 -0.032223053 0.009959879
v -0.028789941 -0.025312576 0.00995448
v -0.02864382 -0.025195083 -0.00996556
v -0.036448844 -0.02007492 -0.009965571
v -0.03428387 -0.017919999 0.009958726
v -0.041837342 -0.011939735 -0.009965571
v -0.041285206 -0.011398696 0.009952439
v -0.048952907 -0.0057246014 0.009953271
v -0.049453776 -0.0065058134 -0.009965575
v -0.05762951 -0.0015100098 0.009957504
v -0.058930237 -0.0026699447 -0.009965589
v -0.060704224 0.004013176 -0.00996558
v -0.059552226 0.004659805 0.009954772
v -0.06568345 0.011554222 0.00995391
v -0.06719152 0.010731468 -0.009965575
v 0.0036516876 -0.042445794 0.009955372
v -0.022001278 -0.04330284 -0.009965566
v -0.0211788 -0.04008072 0.009952525
v 0.0011385557 -0.047327 -0.009965566
v 0.003847086 -0.050997734 -0.00996556
v 0.0061719916 -0.04496849 0.009960337
v 0.010752967 -0.045951385 0.009962197
v 0.008812668 -0.05115215 -0.009965566
v 0.010752967 -0.045951385 0.009962197
v 0.0095420955 -0.0536861 -0.009965566
v 0.008812668 -0.05115215 -0.009965566
v 0.011716849 -0.050768737 0.009960024
v 0.016362483 -0.060181923 -0.009965566
v 0.017520234 -0.056148186 0.009956602
v 0.022475816 -0.056830823 0.009960578
v 0.021602714 -0.062039413 -0.00996558
v 0.031861246 -0.067597575 -0.009965585
v 0.028977133 -0.06173313 0.00995164
v 0.028977133 -0.06173313 0.00995164
v 0.032224618 -0.05554283 -0.009965589
v 0.031861246 -0.067597575 -0.009965585
v 0.030504767 -0.054365918 0.009955918
v 0.035966817 -0.048634376 -0.009965604
v 0.03418337 -0.0473407 0.0099550355
v 0.043481402 -0.04598793 -0.0099656135
v 0.0406295 -0.043105543 0.009956343
v 0.0406295 -0.043105543 0.009956343
v 0.04095879 -0.038535118 0.009961451
v 0.042717833 -0.040080834 -0.0099656135
v 0.043481402 -0.04598793 -0.0099656135
v 0.04095879 -0.038535118 0.009961451
v 0.04841389 -0.038646735 -0.009965623
v 0.042717833 -0.040080834 -0.0099656135
v 0.04596203 -0.038041 0.009954856
v 0.049460717 -0.032138214 0.009954949
v 0.051884606 -0.0323246 -0.009965641
v 0.05181761 -0.025703354 -0.009965641
v 0.04998046 -0.024852065 0.009957321
v 0.054865208 -0.019806327 0.009956961
v 0.057183668 -0.020450706 -0.009965652
v 0.05842528 -0.014153099 0.009954574
v 0.059592713 -0.014621773 -0.009965661
v 0.058506493 -0.0037494276 0.009963692
v 0.06134653 -0.004136467 -0.009965661
v 0.06719152 0.01764042 -0.00996567
v 0.06520911 0.017137527 0.009951304
v 0.06266522 0.027122878 -0.00996568
v 0.05769042 0.024488296 0.009960165
v 0.051432107 0.03536884 -0.009965685
v 0.0488668 0.035870932 0.0099589275
v 0.04472184 0.04781719 -0.00996569
v 0.040251907 0.046363942 0.009961984
v 0.037251737 0.05343044 -0.009965685
v 0.03535669 0.051823158 0.009962731
v 0.034211054 0.05823402 -0.00996568
v 0.031391535 0.05754257 0.009957141
v 0.033915024 0.067597575 -0.00996568
v 0.031079706 0.06563095 0.009951963
v -0.06568345 0.011554222 0.00995391
v -0.06719152 0.010731468 -0.009965575
v -0.05818374 0.021166725 -0.009965566
v -0.056579623 0.01953247 0.009961213
v -0.027937194 0.0415612 -0.009965508
v -0.026728908 0.03977703 0.009961113
v 0.00017869212 0.056104813 -0.0099656135
v 0.0006233809 0.055312116 0.009955201
v 0.033915024 0.067597575 -0.00996568
v 0.031079706 0.06563095 0.009951963
v -0.059552226 0.004659805 0.009954772
v -0.06568345 0.011554222 0.00995391
v -0.056579623 0.01953247 0.009961213
v -0.04895556 0.011697502 0.00996569
v -0.05762951 -0.0015100098 0.009957504
v -0.048952907 -0.0057246014 0.009953271
v -0.026728908 0.03977703 0.009961113
v -0.041285206 -0.011398696 0.009952439
v -0.025156014 -0.009948616 0.0099619245
v -0.03428387 -0.017919999 0.009958726
v -0.028789941 -0.025312576 0.00995448
v -0.023999665 -0.032223053 0.009959879
v -0.02197241 0.031949766 0.009958753
v 0.0006233809 0.055312116 0.009955201
v -0.008049724 -0.02550705 0.009959217
v -0.0211788 -0.04008072 0.009952525
v 0.0036516876 -0.042445794 0.009955372
v -0.0021671418 0.009738464 0.009958973
v 0.004468128 0.04483467 0.009953553
v 0.031079706 0.06563095 0.009951963
v 0.031391535 0.05754257 0.009957141
v 0.03535669 0.051823158 0.009962731
v 0.01598251 0.02535507 0.009958729
v 0.040251907 0.046363942 0.009961984
v 0.02502938 0.010164947 0.0099590495
v 0.0488668 0.035870932 0.0099589275
v 0.05769042 0.024488296 0.009960165
v 0.010970828 -0.0049955747 0.00995912
v 0.058506493 -0.0037494276 0.009963692
v 0.06520911 0.017137527 0.009951304
v 0.05842528 -0.014153099 0.009954574
v 0.054865208 -0.019806327 0.009956961
v 0.044982262 -0.023379821 0.009961142
v 0.04998046 -0.024852065 0.009957321
v 0.049460717 -0.032138214 0.009954949
v 0.04596203 -0.038041 0.009954856
v 0.04095879 -0.038535118 0.009961451
v 0.0061719916 -0.04496849 0.009960337
v 0.010752967 -0.045951385 0.009962197
v 0.0406295 -0.043105543 0.009956343
v 0.03418337 -0.0473407 0.0099550355
v 0.011716849 -0.050768737 0.009960024
v 0.017520234 -0.056148186 0.009956602
v 0.022475816 -0.056830823 0.009960578
v 0.030504767 -0.054365918 0.009955918
v 0.028977133 -0.06173313 0.00995164
v 0.06134653 -0.004136467 -0.009965661
v 0.06719152 0.01764042 -0.00996567
v 0.06266522 0.027122878 -0.00996568
v 0.02518186 0.009557342 -0.009965626
v 0.059592713 -0.014621773 -0.009965661
v 0.051432107 0.03536884 -0.009965685
v 0.057183668 -0.020450706 -0.009965652
v 0.015918538 0.025219725 -0.00996562
v 0.04472184 0.04781719 -0.00996569
v 0.04580072 -0.025304984 -0.00996564
v 0.05181761 -0.025703354 -0.009965641
v 0.051884606 -0.0323246 -0.009965641
v 0.04841389 -0.038646735 -0.009965623
v 0.042717833 -0.040080834 -0.0099656135
v 0.0043257256 0.044820786 -0.0099656135
v 0.037251737 0.05343044 -0.009965685
v 0.034211054 0.05823402 -0.00996568
v 0.033915024 0.067597575 -0.00996568
v 0.00017869212 0.056104813 -0.0099656135
v -0.022114823 0.031935766 -0.009965518
v -0.027937194 0.0415612 -0.009965508
v -0.049097963 0.011683502 -0.009965566
v -0.05818374 0.021166725 -0.009965566
v -0.06719152 0.010731468 -0.009965575
v -0.060704224 0.004013176 -0.00996558
v -0.058930237 -0.0026699447 -0.009965589
v -0.049453776 -0.0065058134 -0.009965575
v -0.041837342 -0.011939735 -0.009965571
v -0.0020653845 0.009664688 -0.009965546
v -0.026813185 -0.011740646 -0.009965566
v -0.036448844 -0.02007492 -0.009965571
v -0.02864382 -0.025195083 -0.00996556
v 0.011496694 -0.0054001617 -0.009965568
v -0.010241692 -0.029159393 -0.009965566
v -0.026200764 -0.032867316 -0.00996556
v -0.022001278 -0.04330284 -0.009965566
v 0.0011385557 -0.047327 -0.009965566
v 0.043481402 -0.04598793 -0.0099656135
v 0.003847086 -0.050997734 -0.00996556
v 0.035966817 -0.048634376 -0.009965604
v 0.008812668 -0.05115215 -0.009965566
v 0.0095420955 -0.0536861 -0.009965566
v 0.016362483 -0.060181923 -0.009965566
v 0.032224618 -0.05554283 -0.009965589
v 0.021602714 -0.062039413 -0.00996558
v 0.031861246 -0.067597575 -0.009965585
vt 0.78466797 0.040618896
vt 0.7890625 0.050689697
vt 0.79052734 0.040618896
vt 0.78466797 0.050689697
vt 0.7807617 0.050689697
vt 0.7807617 0.040618896
vt 0.7758789 0.040618896
vt 0.7758789 0.050689697
vt 0.7709961 0.040618896
vt 0.7709961 0.050689697
vt 0.76660156 0.050689697
vt 0.76660156 0.040618896
vt 0.76171875 0.050689697
vt 0.76171875 0.040618896
vt 0.7583008 0.040618896
vt 0.7583008 0.050689697
vt 0.75341797 0.050689697
vt 0.75390625 0.040618896
vt 0.6010742 0.050689697
vt 0.5888672 0.040618896
vt 0.5888672 0.050689697
vt 0.60058594 0.040618896
vt 0.60302734 0.040618896
vt 0.60302734 0.050689697
vt 0.60498047 0.050689697
vt 0.60546875 0.040618896
vt 0.60498047 0.050689697
vt 0.6069336 0.040618896
vt 0.60546875 0.040618896
vt 0.6074219 0.050689697
vt 0.6113281 0.040618896
vt 0.6113281 0.050689697
vt 0.6142578 0.050689697
vt 0.61376953 0.040618896
vt 0.61865234 0.040618896
vt 0.61865234 0.050689697
vt 0.61865234 0.050689697
vt 0.62353516 0.040618896
vt 0.61865234 0.040618896
vt 0.6230469 0.050689697
vt 0.6274414 0.040618896
vt 0.6269531 0.050689697
vt 0.6308594 0.040618896
vt 0.63134766 0.050689697
vt 0.63134766 0.050689697
vt 0.63378906 0.050689697
vt 0.63378906 0.040618896
vt 0.6308594 0.040618896
vt 0.63378906 0.050689697
vt 0.63671875 0.040618896
vt 0.63378906 0.040618896
vt 0.63623047 0.050689697
vt 0.63964844 0.050689697
vt 0.6401367 0.040618896
vt 0.6435547 0.040618896
vt 0.6430664 0.050689697
vt 0.6464844 0.050689697
vt 0.64697266 0.040618896
vt 0.64990234 0.050689697
vt 0.64990234 0.040618896
vt 0.65478516 0.050689697
vt 0.65527344 0.040618896
vt 0.66552734 0.040618896
vt 0.6660156 0.050689697
vt 0.67041016 0.040618896
vt 0.67089844 0.050689697
vt 0.6772461 0.040618896
vt 0.67822266 0.050689697
vt 0.68359375 0.040618896
vt 0.6845703 0.050689697
vt 0.68847656 0.040618896
vt 0.68847656 0.050689697
vt 0.69091797 0.040618896
vt 0.69189453 0.050689697
vt 0.6953125 0.040618896
vt 0.69628906 0.050689697
vt 0.75341797 0.050689697
vt 0.75390625 0.040618896
vt 0.7470703 0.040618896
vt 0.7470703 0.050689697
vt 0.7290039 0.040618896
vt 0.7285156 0.050689697
vt 0.7128906 0.040618896
vt 0.7128906 0.050689697
vt 0.6953125 0.040618896
vt 0.69628906 0.050689697
vt 0.15600586 0.6791992
vt 0.1541748 0.6821289
vt 0.15734863 0.68603516
vt 0.16015625 0.6826172
vt 0.15637207 0.6767578
vt 0.15979004 0.67529297
vt 0.16918945 0.6948242
vt 0.16296387 0.67285156
vt 0.1697998 0.67333984
vt 0.16589355 0.6699219
vt 0.16809082 0.6669922
vt 0.17004395 0.6640625
vt 0.17126465 0.69140625
vt 0.18066406 0.70166016
vt 0.17687988 0.6669922
vt 0.17114258 0.66064453
vt 0.18164062 0.65966797
vt 0.17956543 0.6821289
vt 0.18237305 0.6972656
vt 0.19360352 0.7060547
vt 0.19384766 0.70214844
vt 0.19543457 0.69970703
vt 0.18725586 0.68847656
vt 0.1973877 0.6977539
vt 0.19104004 0.6821289
vt 0.2010498 0.6933594
vt 0.20471191 0.68847656
vt 0.1850586 0.67578125
vt 0.20495605 0.67626953
vt 0.20776367 0.6850586
vt 0.20495605 0.671875
vt 0.20349121 0.6694336
vt 0.19934082 0.66796875
vt 0.20141602 0.66748047
vt 0.20117188 0.6645508
vt 0.19970703 0.6621094
vt 0.19763184 0.6616211
vt 0.18261719 0.6586914
vt 0.18444824 0.6582031
vt 0.19750977 0.65966797
vt 0.19470215 0.65771484
vt 0.18469238 0.65625
vt 0.18725586 0.6538086
vt 0.18945312 0.6538086
vt 0.19299316 0.65478516
vt 0.19238281 0.65234375
vt 0.21374512 0.3774414
vt 0.21118164 0.3864746
vt 0.2130127 0.39038086
vt 0.2290039 0.38305664
vt 0.21447754 0.37304688
vt 0.21777344 0.39379883
vt 0.2154541 0.37060547
vt 0.23291016 0.38964844
vt 0.22058105 0.39892578
vt 0.22033691 0.36865234
vt 0.21777344 0.36865234
vt 0.21777344 0.36572266
vt 0.21923828 0.36328125
vt 0.22167969 0.36254883
vt 0.2376709 0.39770508
vt 0.22375488 0.40112305
vt 0.22509766 0.40307617
vt 0.22521973 0.40698242
vt 0.23950195 0.40234375
vt 0.2487793 0.39233398
vt 0.2512207 0.39648438
vt 0.26000977 0.3840332
vt 0.26367188 0.38793945
vt 0.26733398 0.38378906
vt 0.26464844 0.38110352
vt 0.26391602 0.37817383
vt 0.26000977 0.37670898
vt 0.25683594 0.37451172
vt 0.24035645 0.38330078
vt 0.25073242 0.37451172
vt 0.25463867 0.37109375
vt 0.25146484 0.36889648
vt 0.23474121 0.37695312
vt 0.24389648 0.3671875
vt 0.25048828 0.36572266
vt 0.2487793 0.36157227
vt 0.23913574 0.35986328
vt 0.22143555 0.36035156
vt 0.23803711 0.3581543
vt 0.22460938 0.35913086
vt 0.23596191 0.3581543
vt 0.23571777 0.35717773
vt 0.23278809 0.3544922
vt 0.22619629 0.35620117
vt 0.23059082 0.35375977
vt 0.22644043 0.35131836
vn -0.9145508 -0.39672852 0.08105469
vn -0.92822266 -0.3564453 0.105041504
vn -0.92822266 -0.3564453 0.105041504
vn -0.9145508 -0.3959961 0.08148193
vn -0.79541016 -0.60253906 0.06347656
vn -0.79541016 -0.60253906 0.06347656
vn -0.7241211 -0.6845703 0.083984375
vn -0.7241211 -0.6845703 0.08404541
vn -0.6796875 -0.72998047 0.06964111
vn -0.6801758 -0.72998047 0.06970215
vn -0.49658203 -0.86621094 0.053100586
vn -0.4963379 -0.8666992 0.053131104
vn -0.6899414 -0.72021484 0.07281494
vn -0.6894531 -0.7207031 0.07281494
vn -0.8486328 -0.5234375 0.0748291
vn -0.8491211 -0.5234375 0.0748291
vn -0.7314453 -0.6777344 0.07385254
vn -0.7314453 -0.6777344 0.07385254
vn -0.22558594 -0.9482422 0.22265625
vn -0.12915039 -0.96972656 0.20800781
vn -0.12915039 -0.96972656 0.20800781
vn -0.22644043 -0.9482422 0.22277832
vn -0.41796875 -0.86083984 0.29003906
vn -0.43310547 -0.8535156 0.28979492
vn -0.113586426 -0.953125 0.28076172
vn -0.113586426 -0.953125 0.28076172
vn -0.96435547 -0.22216797 0.14477539
vn -0.7832031 -0.5961914 0.17700195
vn -0.96435547 -0.22216797 0.14477539
vn -0.79589844 -0.57910156 0.17602539
vn -0.5151367 -0.83154297 0.20727539
vn -0.5263672 -0.82470703 0.20568848
vn -0.4194336 -0.88183594 0.2166748
vn -0.42919922 -0.8769531 0.21557617
vn -0.5180664 -0.8305664 0.20458984
vn -0.5180664 -0.8305664 0.20458984
vn 0.9868164 -0.096069336 0.13098145
vn 0.95703125 -0.26293945 0.12243652
vn 0.9868164 -0.096069336 0.13098145
vn 0.9550781 -0.27001953 0.12200928
vn 0.6879883 -0.7138672 0.13146973
vn 0.6933594 -0.7084961 0.13110352
vn 0.4375 -0.8876953 0.1439209
vn 0.4375 -0.8876953 0.1439209
vn 0.99316406 0.041107178 0.11035156
vn 0.99316406 0.041107178 0.11035156
vn 0.99316406 0.041107178 0.11035156
vn 0.99316406 0.041107178 0.11035156
vn 0.17700195 -0.9814453 0.07171631
vn 0.6381836 -0.7626953 0.107055664
vn 0.17700195 -0.9814453 0.07171631
vn 0.6040039 -0.79003906 0.10510254
vn 0.95458984 -0.27539062 0.11468506
vn 0.95654297 -0.26831055 0.11456299
vn 0.9091797 -0.40112305 0.111083984
vn 0.9086914 -0.40234375 0.111083984
vn 0.79541016 -0.59814453 0.09655762
vn 0.80029297 -0.5917969 0.09631348
vn 0.96777344 -0.23254395 0.09899902
vn 0.96728516 -0.23400879 0.09893799
vn 0.9692383 -0.21923828 0.110839844
vn 0.9692383 -0.2199707 0.11090088
vn 0.98876953 -0.0044021606 0.15026855
vn 0.98876953 -0.008453369 0.14978027
vn 0.74072266 0.6479492 0.17614746
vn 0.7368164 0.6533203 0.17541504
vn 0.75439453 0.6352539 0.16430664
vn 0.7626953 0.6254883 0.16369629
vn 0.76953125 0.61816406 0.16040039
vn 0.76123047 0.62841797 0.16064453
vn 0.73583984 0.66064453 0.14892578
vn 0.73583984 0.66064453 0.14892578
vn 0.95458984 0.26123047 0.14221191
vn 0.9555664 0.25830078 0.14233398
vn 0.9892578 0.034484863 0.1427002
vn 0.9892578 0.034484863 0.1427002
vn -0.63134766 0.62060547 0.46533203
vn -0.7114258 0.69970703 0.06976318
vn -0.5996094 0.7939453 0.099731445
vn -0.5288086 0.7011719 0.47827148
vn -0.52001953 0.8491211 0.09454346
vn -0.45410156 0.7421875 0.49291992
vn -0.39746094 0.91552734 0.061065674
vn -0.3569336 0.82373047 0.4411621
vn -0.32128906 0.9458008 0.04623413
vn -0.3022461 0.88964844 0.34204102
vn -0.0008029938 -0.00019192696 1
vn -0.63134766 0.62060547 0.46533203
vn -0.5288086 0.7011719 0.47827148
vn -1.2218952E-05 -2.6345253E-05 1
vn -0.00015854836 -0.00051546097 1
vn -0.00041246414 -0.00073480606 1
vn -0.45410156 0.7421875 0.49291992
vn -0.00050354004 -0.0006632805 1
vn 4.2915344E-05 -2.8371811E-05 1
vn -0.0002708435 -9.11355E-05 1
vn -0.00020253658 -0.0001373291 1
vn -9.441376E-05 -0.00025844574 1
vn 0.00011187792 7.611513E-05 1
vn -0.3569336 0.82373047 0.4411621
vn 3.0636787E-05 -0.00010240078 1
vn 1.0311604E-05 -0.0004684925 1
vn -0.00013124943 -2.0861626E-06 1
vn 7.7188015E-05 6.222725E-05 1
vn -6.0796738E-06 8.267164E-05 1
vn -0.3022461 0.88964844 0.34204102
vn -0.00016367435 0.000289917 1
vn -0.0002603531 9.471178E-05 1
vn -3.015995E-05 3.606081E-05 1
vn -9.9658966E-05 -3.749132E-05 1
vn 1.7642975E-05 1.0073185E-05 1
vn -9.536743E-07 -4.7385693E-05 1
vn 0.00011742115 0.0001142025 1
vn -1.5974045E-05 1.5854836E-05 1
vn -2.270937E-05 -0.00015819073 1
vn 0.00017023087 0.00012981892 1
vn -3.796816E-05 -0.00023627281 1
vn 0.00032281876 0.00023305416 1
vn 5.865097E-05 5.9902668E-05 1
vn 0.00063323975 -0.00044631958 1
vn 0.0010099411 -0.0003604889 1
vn 0.0010356903 -0.00035953522 1
vn -3.2305717E-05 -1.7285347E-05 1
vn -0.00016081333 3.8027763E-05 1
vn 0.00018942356 -0.0005030632 1
vn 0.00017261505 -0.00049352646 1
vn 0.0002462864 -0.00043320656 1
vn 0.0002732277 -0.00049495697 1
vn 0.00021505356 -0.0001552105 1
vn 0.00010073185 0.0004067421 1
vn 0.00013327599 0.00035381317 1
vn 0.00081014633 -0.00074863434 1
vn -8.940697E-07 -3.5762787E-07 -1
vn -9.536743E-07 -5.9604645E-07 -1
vn -9.536743E-07 -7.748604E-07 -1
vn -2.0861626E-06 -1.013279E-06 -1
vn -1.1324883E-06 -4.172325E-07 -1
vn -1.4305115E-06 -1.0728836E-06 -1
vn -1.2516975E-06 -4.7683716E-07 -1
vn -2.2649765E-06 -1.1324883E-06 -1
vn -1.66893E-06 -8.940697E-07 -1
vn -2.3841858E-06 -1.013279E-06 -1
vn -9.536743E-07 -7.1525574E-07 -1
vn -2.682209E-06 -1.3709068E-06 -1
vn -1.6093254E-06 -1.5497208E-06 -1
vn -1.4305115E-06 -4.172325E-07 -1
vn -2.503395E-06 -1.013279E-06 -1
vn -1.847744E-06 -8.34465E-07 -1
vn -2.026558E-06 -4.172325E-07 -1
vn -2.026558E-06 -4.172325E-07 -1
vn -2.5629997E-06 -7.1525574E-07 -1
vn -7.748604E-07 2.3841858E-07 -1
vn -9.536743E-07 2.3841858E-07 -1
vn 6.556511E-07 1.013279E-06 -1
vn 7.748604E-07 1.1324883E-06 -1
vn 4.7683716E-07 7.748604E-07 -1
vn 4.172325E-07 9.536743E-07 -1
vn 1.3113022E-06 7.1525574E-07 -1
vn 7.748604E-07 3.5762787E-07 -1
vn 5.364418E-07 3.5762787E-07 -1
vn -1.013279E-06 0 -1
vn 2.3841858E-07 7.1525574E-07 -1
vn 5.9604645E-07 -1.1920929E-07 -1
vn -1.1920929E-07 -2.3841858E-07 -1
vn -1.4305115E-06 -2.9802322E-07 -1
vn -5.9604645E-07 2.3841858E-07 -1
vn -2.3841858E-07 0 -1
vn -0 1.1920929E-07 -1
vn -8.34465E-07 0 -1
vn -1.0728836E-06 -8.940697E-07 -1
vn -1.0728836E-06 -8.940697E-07 -1
vn -1.4305115E-06 -5.9604645E-07 -1
vn -1.3709068E-06 -4.7683716E-07 -1
vn -1.3113022E-06 -9.536743E-07 -1
vn -1.3113022E-06 -1.013279E-06 -1
vn -1.1920929E-06 -2.9802322E-07 -1
vn -1.1324883E-06 -2.9802322E-07 -1
vn -3.5762787E-07 -3.5762787E-07 -1
g doorR00_geo_0
f 3/3/3 2/2/2 1/1/1
f 2/2/2 4/4/4 1/1/1
f 1/1/1 4/4/4 5/5/5
f 6/6/6 1/1/1 5/5/5
f 6/6/6 5/5/5 7/7/7
f 5/5/5 8/8/8 7/7/7
f 7/7/7 8/8/8 9/9/9
f 8/8/8 10/10/10 9/9/9
f 9/9/9 10/10/10 11/11/11
f 12/12/12 9/9/9 11/11/11
f 12/12/12 11/11/11 13/13/13
f 14/14/14 12/12/12 13/13/13
f 14/14/14 13/13/13 15/15/15
f 13/13/13 16/16/16 15/15/15
f 16/16/16 17/17/17 15/15/15
f 17/17/17 18/18/18 15/15/15
f 21/21/21 20/20/20 19/19/19
f 20/20/20 22/22/22 19/19/19
f 22/22/22 23/23/23 19/19/19
f 23/23/23 24/24/24 19/19/19
f 25/25/25 24/24/24 23/23/23
f 26/26/26 25/25/25 23/23/23
f 29/29/29 28/28/28 27/27/27
f 28/28/28 30/30/30 27/27/27
f 28/28/28 31/31/31 30/30/30
f 31/31/31 32/32/32 30/30/30
f 33/33/33 32/32/32 31/31/31
f 34/34/34 33/33/33 31/31/31
f 34/34/34 35/35/35 33/33/33
f 35/35/35 36/36/36 33/33/33
f 39/39/39 38/38/38 37/37/37
f 38/38/38 40/40/40 37/37/37
f 38/38/38 41/41/41 40/40/40
f 41/41/41 42/42/42 40/40/40
f 41/41/41 43/43/43 42/42/42
f 43/43/43 44/44/44 42/42/42
f 47/47/47 46/46/46 45/45/45
f 48/48/48 47/47/47 45/45/45
f 51/51/51 50/50/50 49/49/49
f 50/50/50 52/52/52 49/49/49
f 53/53/53 52/52/52 50/50/50
f 54/54/54 53/53/53 50/50/50
f 54/54/54 55/55/55 53/53/53
f 55/55/55 56/56/56 53/53/53
f 57/57/57 56/56/56 55/55/55
f 58/58/58 57/57/57 55/55/55
f 59/59/59 57/57/57 58/58/58
f 60/60/60 59/59/59 58/58/58
f 59/59/59 60/60/60 61/61/61
f 60/60/60 62/62/62 61/61/61
f 62/62/62 63/63/63 61/61/61
f 63/63/63 64/64/64 61/61/61
f 63/63/63 65/65/65 64/64/64
f 65/65/65 66/66/66 64/64/64
f 65/65/65 67/67/67 66/66/66
f 67/67/67 68/68/68 66/66/66
f 67/67/67 69/69/69 68/68/68
f 69/69/69 70/70/70 68/68/68
f 70/70/70 69/69/69 71/71/71
f 72/72/72 70/70/70 71/71/71
f 72/72/72 71/71/71 73/73/73
f 74/74/74 72/72/72 73/73/73
f 74/74/74 73/73/73 75/75/75
f 76/76/76 74/74/74 75/75/75
f 79/79/79 78/78/78 77/77/77
f 80/80/80 79/79/79 77/77/77
f 79/79/79 80/80/80 81/81/81
f 80/80/80 82/82/82 81/81/81
f 81/81/81 82/82/82 83/83/83
f 82/82/82 84/84/84 83/83/83
f 83/83/83 84/84/84 85/85/85
f 84/84/84 86/86/86 85/85/85
f 89/89/89 88/88/88 87/87/87
f 90/90/90 89/89/89 87/87/87
f 87/87/87 91/91/91 90/90/90
f 90/90/90 91/91/91 92/92/92
f 93/93/93 89/89/89 90/90/90
f 90/90/90 92/92/92 94/94/94
f 95/95/95 90/90/90 94/94/94
f 95/95/95 94/94/94 96/96/96
f 95/95/95 96/96/96 97/97/97
f 95/95/95 97/97/97 98/98/98
f 99/99/99 93/93/93 90/90/90
f 99/99/99 90/90/90 95/95/95
f 100/100/100 93/93/93 99/99/99
f 101/101/101 95/95/95 98/98/98
f 101/101/101 98/98/98 102/102/102
f 102/102/102 103/103/103 101/101/101
f 104/104/104 95/95/95 101/101/101
f 104/104/104 99/99/99 95/95/95
f 105/105/105 100/100/100 99/99/99
f 106/106/106 100/100/100 105/105/105
f 107/107/107 106/106/106 105/105/105
f 108/108/108 107/107/107 105/105/105
f 109/109/109 105/105/105 99/99/99
f 108/108/108 105/105/105 109/109/109
f 104/104/104 109/109/109 99/99/99
f 110/110/110 108/108/108 109/109/109
f 110/110/110 109/109/109 111/111/111
f 112/112/112 110/110/110 111/111/111
f 113/113/113 112/112/112 111/111/111
f 114/114/114 104/104/104 101/101/101
f 104/104/104 114/114/114 109/109/109
f 114/114/114 111/111/111 109/109/109
f 114/114/114 101/101/101 103/103/103
f 111/111/111 115/115/115 113/113/113
f 115/115/115 116/116/116 113/113/113
f 111/111/111 117/117/117 115/115/115
f 111/111/111 118/118/118 117/117/117
f 111/111/111 119/119/119 118/118/118
f 111/111/111 114/114/114 119/119/119
f 118/118/118 119/119/119 120/120/120
f 119/119/119 121/121/121 120/120/120
f 121/121/121 119/119/119 122/122/122
f 119/119/119 123/123/123 122/122/122
f 114/114/114 123/123/123 119/119/119
f 114/114/114 103/103/103 123/123/123
f 103/103/103 124/124/124 123/123/123
f 123/123/123 124/124/124 125/125/125
f 126/126/126 123/123/123 125/125/125
f 127/127/127 126/126/126 125/125/125
f 128/128/128 127/127/127 125/125/125
f 128/128/128 129/129/129 127/127/127
f 129/129/129 130/130/130 127/127/127
f 130/130/130 131/131/131 127/127/127
f 131/131/131 130/130/130 132/132/132
f 135/135/135 134/134/134 133/133/133
f 136/136/136 135/135/135 133/133/133
f 136/136/136 133/133/133 137/137/137
f 136/136/136 138/138/138 135/135/135
f 136/136/136 137/137/137 139/139/139
f 136/136/136 140/140/140 138/138/138
f 140/140/140 141/141/141 138/138/138
f 142/142/142 136/136/136 139/139/139
f 142/142/142 139/139/139 143/143/143
f 142/142/142 143/143/143 144/144/144
f 142/142/142 144/144/144 145/145/145
f 142/142/142 145/145/145 146/146/146
f 136/136/136 142/142/142 146/146/146
f 140/140/140 147/147/147 141/141/141
f 147/147/147 148/148/148 141/141/141
f 149/149/149 148/148/148 147/147/147
f 150/150/150 149/149/149 147/147/147
f 151/151/151 150/150/150 147/147/147
f 151/151/151 147/147/147 152/152/152
f 152/152/152 147/147/147 140/140/140
f 153/153/153 151/151/151 152/152/152
f 153/153/153 152/152/152 154/154/154
f 155/155/155 153/153/153 154/154/154
f 155/155/155 154/154/154 156/156/156
f 154/154/154 157/157/157 156/156/156
f 158/158/158 157/157/157 154/154/154
f 159/159/159 158/158/158 154/154/154
f 160/160/160 159/159/159 154/154/154
f 161/161/161 152/152/152 140/140/140
f 152/152/152 161/161/161 154/154/154
f 161/161/161 140/140/140 136/136/136
f 162/162/162 160/160/160 154/154/154
f 161/161/161 162/162/162 154/154/154
f 162/162/162 163/163/163 160/160/160
f 162/162/162 164/164/164 163/163/163
f 165/165/165 161/161/161 136/136/136
f 161/161/161 165/165/165 162/162/162
f 165/165/165 136/136/136 146/146/146
f 162/162/162 166/166/166 164/164/164
f 165/165/165 166/166/166 162/162/162
f 165/165/165 146/146/146 166/166/166
f 166/166/166 167/167/167 164/164/164
f 166/166/166 168/168/168 167/167/167
f 166/166/166 169/169/169 168/168/168
f 146/146/146 169/169/169 166/166/166
f 146/146/146 170/170/170 169/169/169
f 170/170/170 171/171/171 169/169/169
f 170/170/170 172/172/172 171/171/171
f 172/172/172 173/173/173 171/171/171
f 172/172/172 174/174/174 173/173/173
f 172/172/172 175/175/175 174/174/174
f 175/175/175 172/172/172 176/176/176
f 177/177/177 175/175/175 176/176/176
f 177/177/177 176/176/176 178/178/178
