g doorR15_geo
v -0.044239745 -0.03282305 -0.010104559
v -0.059657205 -0.007649059 -0.010099161
v -0.056354698 -0.024051819 -0.010100299
v -0.049829658 0.0029255294 -0.010099498
v -0.032453302 -0.04259216 -0.010104304
v -0.038339887 0.010912666 -0.010102151
v -0.018069671 -0.048165854 -0.010100709
v -0.026324285 0.018213004 -0.010104598
v -0.0055991444 -0.05705032 -0.010103031
v -0.015059107 0.026840782 -0.010099123
v 0.004383818 0.038427047 -0.010099381
v 0.009161201 -0.04072338 -0.010100518
v -0.0022852696 -0.06518711 -0.010102571
v 0.0092853075 -0.06401846 -0.010100852
v 0.016550953 -0.06100876 -0.0101024825
v 0.024844564 0.048533287 -0.01010297
v 0.027152095 -0.03565767 -0.010099209
v 0.02384448 -0.058131065 -0.010098275
v 0.031654086 -0.056883086 -0.0101037845
v 0.038470175 -0.053227022 -0.010101322
v 0.046082955 0.056686018 -0.01010326
v 0.040262397 -0.03299753 -0.010103687
v 0.039750125 -0.050394457 -0.010098606
v 0.04338357 -0.04905714 -0.010101582
v 0.046207875 -0.046771545 -0.010102125
v 0.049879406 -0.04593214 -0.010104247
v 0.05196678 -0.0429121 -0.010098098
v 0.05539513 0.06295452 -0.010104064
v 0.057355456 -0.045232065 -0.010102855
v 0.059657205 0.06518711 -0.010104006
v -0.044239745 -0.03282305 -0.010104559
v -0.056354698 -0.024051819 -0.010100299
v -0.056354698 -0.024051819 0.010100298
v -0.044239745 -0.03282305 0.010104558
v -0.032453302 -0.04259216 -0.010104304
v -0.032453302 -0.04259216 0.010104303
v -0.018069671 -0.048165854 -0.010100709
v -0.018069671 -0.048165854 0.01010071
v -0.0055991444 -0.05705032 -0.010103031
v -0.0055991444 -0.05705032 0.010103031
v -0.056354698 -0.024051819 -0.010100299
v -0.059657205 -0.007649059 -0.010099161
v -0.059657205 -0.007649059 0.010099163
v -0.056354698 -0.024051819 0.010100298
v -0.0022852696 -0.06518711 -0.010102571
v -0.0055991444 -0.05705032 -0.010103031
v -0.0055991444 -0.05705032 0.010103031
v -0.0022852696 -0.06518711 0.010102572
v -0.059657205 -0.007649059 -0.010099161
v -0.049829658 0.0029255294 0.010099497
v -0.059657205 -0.007649059 0.010099163
v -0.049829658 0.0029255294 -0.010099498
v -0.038339887 0.010912666 0.010102151
v -0.038339887 0.010912666 -0.010102151
v -0.026324285 0.018213004 0.010104598
v -0.026324285 0.018213004 -0.010104598
v -0.015059107 0.026840782 0.010099123
v -0.015059107 0.026840782 -0.010099123
v 0.004383818 0.038427047 0.010099378
v 0.004383818 0.038427047 -0.010099381
v 0.024844564 0.048533287 0.0101029705
v 0.024844564 0.048533287 -0.01010297
v 0.046082955 0.056686018 0.010103261
v 0.046082955 0.056686018 -0.01010326
v 0.05539513 0.06295452 0.010104064
v 0.05539513 0.06295452 -0.010104064
v 0.059657205 0.06518711 0.010104007
v 0.059657205 0.06518711 -0.010104006
v 0.059657205 0.06518711 -0.010104006
v 0.057355456 -0.045232065 -0.010102855
v 0.057355456 -0.045232065 0.010102852
v 0.059657205 0.06518711 0.010104007
v 0.016550953 -0.06100876 -0.0101024825
v 0.0092853075 -0.06401846 -0.010100852
v 0.0092853075 -0.06401846 0.010100854
v 0.016550953 -0.06100876 0.0101024825
v 0.02384448 -0.058131065 -0.010098275
v 0.02384448 -0.058131065 0.010098276
v 0.031654086 -0.056883086 -0.0101037845
v 0.031654086 -0.056883086 0.010103785
v 0.038470175 -0.053227022 -0.010101322
v 0.038470175 -0.053227022 0.010101323
v 0.039750125 -0.050394457 -0.010098606
v 0.039750125 -0.050394457 0.010098607
v 0.04338357 -0.04905714 -0.010101582
v 0.04338357 -0.04905714 0.010101582
v 0.046207875 -0.046771545 -0.010102125
v 0.046207875 -0.046771545 0.010102125
v 0.049879406 -0.04593214 -0.010104247
v 0.049879406 -0.04593214 0.010104247
v 0.05196678 -0.0429121 0.0100981
v 0.05196678 -0.0429121 -0.010098098
v 0.057355456 -0.045232065 0.010102852
v 0.057355456 -0.045232065 -0.010102855
v 0.0092853075 -0.06401846 -0.010100852
v -0.0022852696 -0.06518711 -0.010102571
v -0.0022852696 -0.06518711 0.010102572
v 0.0092853075 -0.06401846 0.010100854
v -0.044239745 -0.03282305 0.010104558
v -0.056354698 -0.024051819 0.010100298
v -0.059657205 -0.007649059 0.010099163
v -0.049829658 0.0029255294 0.010099497
v -0.032453302 -0.04259216 0.010104303
v -0.038339887 0.010912666 0.010102151
v -0.018069671 -0.048165854 0.01010071
v -0.026324285 0.018213004 0.010104598
v -0.0055991444 -0.05705032 0.010103031
v -0.015059107 0.026840782 0.010099123
v 0.004383818 0.038427047 0.010099378
v 0.009161201 -0.04072338 0.010100517
v -0.0022852696 -0.06518711 0.010102572
v 0.0092853075 -0.06401846 0.010100854
v 0.016550953 -0.06100876 0.0101024825
v 0.024844564 0.048533287 0.0101029705
v 0.027152095 -0.03565767 0.010099211
v 0.02384448 -0.058131065 0.010098276
v 0.031654086 -0.056883086 0.010103785
v 0.038470175 -0.053227022 0.010101323
v 0.039750125 -0.050394457 0.010098607
v 0.040262397 -0.03299753 0.010103688
v 0.046082955 0.056686018 0.010103261
v 0.04338357 -0.04905714 0.010101582
v 0.046207875 -0.046771545 0.010102125
v 0.049879406 -0.04593214 0.010104247
v 0.05196678 -0.0429121 0.0100981
v 0.052085415 -0.039248694 0.0100983055
v 0.05539513 0.06295452 0.010104064
v 0.057355456 -0.045232065 0.010102852
v 0.059657205 0.06518711 0.010104007
vt 0.2607422 0.2548828
vt 0.26733398 0.2668457
vt 0.26586914 0.25952148
vt 0.2631836 0.27026367
vt 0.25610352 0.25024414
vt 0.25830078 0.27294922
vt 0.25 0.24780273
vt 0.25341797 0.2758789
vt 0.24499512 0.24401855
vt 0.24890137 0.27954102
vt 0.2409668 0.2841797
vt 0.23876953 0.25073242
vt 0.24365234 0.24060059
vt 0.23864746 0.2409668
vt 0.23547363 0.2421875
vt 0.23254395 0.28808594
vt 0.23120117 0.2529297
vt 0.23254395 0.2434082
vt 0.22924805 0.24389648
vt 0.22644043 0.24536133
vt 0.22363281 0.29125977
vt 0.22583008 0.25390625
vt 0.22595215 0.24658203
vt 0.22436523 0.24719238
vt 0.2232666 0.24804688
vt 0.22192383 0.24841309
vt 0.22106934 0.24963379
vt 0.21972656 0.29370117
vt 0.21862793 0.24865723
vt 0.21765137 0.2944336
vt 0.6201172 0.040618896
vt 0.61279297 0.040618896
vt 0.61279297 0.050689697
vt 0.6201172 0.050689697
vt 0.6274414 0.040618896
vt 0.6274414 0.050689697
vt 0.6347656 0.040618896
vt 0.6347656 0.050689697
vt 0.64208984 0.040618896
vt 0.64208984 0.050689697
vt 0.61279297 0.040618896
vt 0.6044922 0.040618896
vt 0.6044922 0.050689697
vt 0.61279297 0.050689697
vt 0.6464844 0.040618896
vt 0.64208984 0.040618896
vt 0.64208984 0.050689697
vt 0.6464844 0.050689697
vt 0.6044922 0.040618896
vt 0.59716797 0.050689697
vt 0.6044922 0.050689697
vt 0.59716797 0.040618896
vt 0.59033203 0.050689697
vt 0.59033203 0.040618896
vt 0.5834961 0.050689697
vt 0.5834961 0.040618896
vt 0.57666016 0.050689697
vt 0.57666016 0.040618896
vt 0.5654297 0.050689697
vt 0.5654297 0.040618896
vt 0.5541992 0.050689697
vt 0.5541992 0.040618896
vt 0.54296875 0.050689697
vt 0.54296875 0.040618896
vt 0.53759766 0.050689697
vt 0.5371094 0.040618896
vt 0.53515625 0.050689697
vt 0.53515625 0.040618896
vt 0.73339844 0.040618896
vt 0.6791992 0.040618896
vt 0.6791992 0.050689697
vt 0.73339844 0.050689697
vt 0.6557617 0.040618896
vt 0.65234375 0.040618896
vt 0.65234375 0.050689697
vt 0.6557617 0.050689697
vt 0.65966797 0.040618896
vt 0.65966797 0.050689697
vt 0.6635742 0.040618896
vt 0.6635742 0.050689697
vt 0.66748047 0.040618896
vt 0.66748047 0.050689697
vt 0.6689453 0.040618896
vt 0.6689453 0.050689697
vt 0.67089844 0.040618896
vt 0.67089844 0.050689697
vt 0.6723633 0.040618896
vt 0.6723633 0.050689697
vt 0.6743164 0.040618896
vt 0.6743164 0.050689697
vt 0.67626953 0.050689697
vt 0.67626953 0.040618896
vt 0.6791992 0.050689697
vt 0.6791992 0.040618896
vt 0.65234375 0.040618896
vt 0.6464844 0.040618896
vt 0.6464844 0.050689697
vt 0.65234375 0.050689697
vt 0.16296387 0.55322266
vt 0.15783691 0.5576172
vt 0.15649414 0.5649414
vt 0.16064453 0.5683594
vt 0.16772461 0.54833984
vt 0.16540527 0.57128906
vt 0.17370605 0.54589844
vt 0.17028809 0.57421875
vt 0.17883301 0.5419922
vt 0.17480469 0.5776367
vt 0.18273926 0.58251953
vt 0.1850586 0.5488281
vt 0.18017578 0.5385742
vt 0.18518066 0.5390625
vt 0.18823242 0.54003906
vt 0.19128418 0.5864258
vt 0.19250488 0.55078125
vt 0.19128418 0.5415039
vt 0.19445801 0.5419922
vt 0.1973877 0.54345703
vt 0.19787598 0.5449219
vt 0.19799805 0.5517578
vt 0.20007324 0.58935547
vt 0.19934082 0.54541016
vt 0.20043945 0.5463867
vt 0.2019043 0.5463867
vt 0.20275879 0.54785156
vt 0.20288086 0.5493164
vt 0.20410156 0.5917969
vt 0.20507812 0.546875
vt 0.20605469 0.59277344
vn -0.00011599064 7.0393085E-05 -1
vn -0.00021612644 8.201599E-05 -1
vn -0.00021612644 8.201599E-05 -1
vn -0.00012141466 7.104874E-05 -1
vn 1.6331673E-05 5.841255E-06 -1
vn 7.6293945E-06 1.0609627E-05 -1
vn 0.00010693073 8.404255E-06 -1
vn 0.000103890896 7.56979E-06 -1
vn 8.034706E-05 2.592802E-05 -1
vn 6.03199E-05 2.9921532E-05 -1
vn -2.1338463E-05 -3.5762787E-07 -1
vn 1.7940998E-05 1.6152859E-05 -1
vn 0.00015187263 1.2993813E-05 -1
vn 3.0696392E-05 1.4483929E-05 -1
vn 9.959936E-05 3.6239624E-05 -1
vn -0.00010174513 -1.7166138E-05 -1
vn -7.4744225E-05 -1.7464161E-05 -1
vn 6.0141087E-05 4.6789646E-05 -1
vn -0.0003004074 0.00015175343 -1
vn 0.0003209114 0.0003271103 -1
vn 7.110834E-05 -2.9325485E-05 -1
vn 1.9073486E-05 -3.3676624E-05 -1
vn -4.8279762E-05 -8.940697E-07 -1
vn -0.0004968643 -0.00022780895 -1
vn -0.00028848648 -0.00023818016 -1
vn 0.0004823208 0.0004017353 -1
vn -0.00011217594 -3.0994415E-06 -1
vn -0.00015187263 -2.8908253E-05 -1
vn 0.984375 -0.020523071 -0.17382812
vn 0.9873047 -0.020584106 -0.15698242
vn -0.61279297 -0.79003906 0
vn -0.5864258 -0.8100586 0
vn -0.5864258 -0.8100586 0
vn -0.61279297 -0.79003906 0
vn -0.5058594 -0.86279297 0
vn -0.5058594 -0.86279297 0
vn -0.4741211 -0.8803711 0
vn -0.4741211 -0.8803711 0
vn -0.5800781 -0.8144531 0
vn -0.5800781 -0.8144531 0
vn -0.98046875 -0.1973877 0
vn -0.98046875 -0.1973877 0
vn -0.98046875 -0.1973877 0
vn -0.98046875 -0.1973877 0
vn -0.92626953 -0.37719727 0
vn -0.92626953 -0.37719727 0
vn -0.92626953 -0.37719727 0
vn -0.92626953 -0.37719727 0
vn -0.7324219 0.68066406 0
vn -0.6567383 0.75439453 0
vn -0.7324219 0.68066406 0
vn -0.6567383 0.75439453 0
vn -0.54541016 0.8383789 0
vn -0.54541016 0.8383789 0
vn -0.5644531 0.8251953 0
vn -0.5644531 0.8251953 0
vn -0.5498047 0.8354492 0
vn -0.5498047 0.8354492 0
vn -0.47753906 0.87841797 0
vn -0.47753906 0.87841797 0
vn -0.40112305 0.9160156 0
vn -0.40112305 0.9160156 0
vn -0.42700195 0.9042969 0
vn -0.42700195 0.9042969 0
vn -0.5307617 0.84765625 0
vn -0.5307617 0.84765625 0
vn -0.46411133 0.8857422 0
vn -0.46411133 0.8857422 0
vn 0.9873047 -0.020584106 -0.15698242
vn 0.984375 -0.020523071 -0.17382812
vn 0.99365234 -0.020721436 0.10913086
vn 0.98779297 -0.020599365 0.15405273
vn 0.375 -0.9272461 0
vn 0.3828125 -0.9238281 0
vn 0.3828125 -0.9238281 0
vn 0.375 -0.9272461 0
vn 0.26342773 -0.96484375 0
vn 0.26342773 -0.96484375 0
vn 0.3178711 -0.9482422 0
vn 0.3178711 -0.9482422 0
vn 0.6254883 -0.78027344 0
vn 0.6254883 -0.78027344 0
vn 0.64697266 -0.76220703 0
vn 0.64697266 -0.76220703 0
vn 0.4892578 -0.8720703 0
vn 0.4892578 -0.8720703 0
vn 0.4333496 -0.9013672 0
vn 0.4333496 -0.9013672 0
vn 0.5566406 -0.8305664 0
vn 0.5566406 -0.8305664 0
vn 0.093444824 -0.99560547 0
vn 0.093444824 -0.99560547 0
vn -0.3955078 -0.91845703 0
vn -0.3955078 -0.91845703 0
vn 0.10046387 -0.9951172 0
vn 0.10046387 -0.9951172 0
vn 0.10046387 -0.9951172 0
vn 0.10046387 -0.9951172 0
vn -0.00011622906 7.0393085E-05 1
vn -0.00021612644 8.201599E-05 1
vn -0.00021612644 8.201599E-05 1
vn -0.00012165308 7.104874E-05 1
vn 1.6391277E-05 5.841255E-06 1
vn 7.6293945E-06 1.0609627E-05 1
vn 0.00010687113 8.46386E-06 1
vn 0.00010377169 7.56979E-06 1
vn 8.034706E-05 2.592802E-05 1
vn 6.0379505E-05 2.9921532E-05 1
vn -2.1338463E-05 -3.5762787E-07 1
vn 1.8000603E-05 1.6152859E-05 1
vn 0.00015163422 1.3053417E-05 1
vn 3.0755997E-05 1.4543533E-05 1
vn 9.948015E-05 3.6239624E-05 1
vn -0.00010180473 -1.7166138E-05 1
vn -7.480383E-05 -1.7464161E-05 1
vn 5.9902668E-05 4.6789646E-05 1
vn -0.00030064583 0.00015175343 1
vn 0.00032114983 0.0003271103 1
vn -4.839897E-05 -8.940697E-07 1
vn 6.67572E-06 -3.3140182E-05 1
vn 6.67572E-05 -2.8848648E-05 1
vn -0.00049734116 -0.00022780895 1
vn -0.00028920174 -0.00023829937 1
vn 0.00048184395 0.0004014969 1
vn 0.0006489754 0.000562191 1
vn -0.00013637543 -2.938509E-05 1
vn -0.00014984608 -2.849102E-05 1
vn 0.99365234 -0.020721436 0.10913086
vn 0.98779297 -0.020599365 0.15405273
g doorR15_geo_0
f 3/3/3 2/2/2 1/1/1
f 2/2/2 4/4/4 1/1/1
f 1/1/1 4/4/4 5/5/5
f 4/4/4 6/6/6 5/5/5
f 5/5/5 6/6/6 7/7/7
f 6/6/6 8/8/8 7/7/7
f 7/7/7 8/8/8 9/9/9
f 8/8/8 10/10/10 9/9/9
f 10/10/10 11/11/11 9/9/9
f 11/11/11 12/12/12 9/9/9
f 9/9/9 12/12/12 13/13/13
f 13/13/13 12/12/12 14/14/14
f 14/14/14 12/12/12 15/15/15
f 11/11/11 16/16/16 12/12/12
f 16/16/16 17/17/17 12/12/12
f 15/15/15 12/12/12 18/18/18
f 12/12/12 17/17/17 18/18/18
f 18/18/18 17/17/17 19/19/19
f 17/17/17 20/20/20 19/19/19
f 17/17/17 16/16/16 21/21/21
f 22/22/22 17/17/17 21/21/21
f 23/23/23 20/20/20 17/17/17
f 22/22/22 23/23/23 17/17/17
f 23/23/23 22/22/22 24/24/24
f 24/24/24 22/22/22 25/25/25
f 25/25/25 22/22/22 26/26/26
f 26/26/26 22/22/22 27/27/27
f 21/21/21 28/28/28 22/22/22
f 28/28/28 27/27/27 22/22/22
f 29/29/29 27/27/27 28/28/28
f 30/30/30 29/29/29 28/28/28
f 33/33/33 32/32/32 31/31/31
f 34/34/34 33/33/33 31/31/31
f 34/34/34 31/31/31 35/35/35
f 36/36/36 34/34/34 35/35/35
f 36/36/36 35/35/35 37/37/37
f 38/38/38 36/36/36 37/37/37
f 38/38/38 37/37/37 39/39/39
f 40/40/40 38/38/38 39/39/39
f 43/43/43 42/42/42 41/41/41
f 44/44/44 43/43/43 41/41/41
f 47/47/47 46/46/46 45/45/45
f 48/48/48 47/47/47 45/45/45
f 51/51/51 50/50/50 49/49/49
f 50/50/50 52/52/52 49/49/49
f 50/50/50 53/53/53 52/52/52
f 53/53/53 54/54/54 52/52/52
f 53/53/53 55/55/55 54/54/54
f 55/55/55 56/56/56 54/54/54
f 55/55/55 57/57/57 56/56/56
f 57/57/57 58/58/58 56/56/56
f 57/57/57 59/59/59 58/58/58
f 59/59/59 60/60/60 58/58/58
f 59/59/59 61/61/61 60/60/60
f 61/61/61 62/62/62 60/60/60
f 61/61/61 63/63/63 62/62/62
f 63/63/63 64/64/64 62/62/62
f 63/63/63 65/65/65 64/64/64
f 65/65/65 66/66/66 64/64/64
f 65/65/65 67/67/67 66/66/66
f 67/67/67 68/68/68 66/66/66
f 71/71/71 70/70/70 69/69/69
f 72/72/72 71/71/71 69/69/69
f 75/75/75 74/74/74 73/73/73
f 76/76/76 75/75/75 73/73/73
f 76/76/76 73/73/73 77/77/77
f 78/78/78 76/76/76 77/77/77
f 78/78/78 77/77/77 79/79/79
f 80/80/80 78/78/78 79/79/79
f 80/80/80 79/79/79 81/81/81
f 82/82/82 80/80/80 81/81/81
f 82/82/82 81/81/81 83/83/83
f 84/84/84 82/82/82 83/83/83
f 84/84/84 83/83/83 85/85/85
f 86/86/86 84/84/84 85/85/85
f 86/86/86 85/85/85 87/87/87
f 88/88/88 86/86/86 87/87/87
f 88/88/88 87/87/87 89/89/89
f 90/90/90 88/88/88 89/89/89
f 90/90/90 89/89/89 91/91/91
f 89/89/89 92/92/92 91/91/91
f 91/91/91 92/92/92 93/93/93
f 92/92/92 94/94/94 93/93/93
f 97/97/97 96/96/96 95/95/95
f 98/98/98 97/97/97 95/95/95
f 101/101/101 100/100/100 99/99/99
f 102/102/102 101/101/101 99/99/99
f 102/102/102 99/99/99 103/103/103
f 104/104/104 102/102/102 103/103/103
f 104/104/104 103/103/103 105/105/105
f 106/106/106 104/104/104 105/105/105
f 106/106/106 105/105/105 107/107/107
f 108/108/108 106/106/106 107/107/107
f 109/109/109 108/108/108 107/107/107
f 110/110/110 109/109/109 107/107/107
f 110/110/110 107/107/107 111/111/111
f 110/110/110 111/111/111 112/112/112
f 110/110/110 112/112/112 113/113/113
f 114/114/114 109/109/109 110/110/110
f 115/115/115 114/114/114 110/110/110
f 110/110/110 113/113/113 116/116/116
f 115/115/115 110/110/110 116/116/116
f 115/115/115 116/116/116 117/117/117
f 118/118/118 115/115/115 117/117/117
f 118/118/118 119/119/119 115/115/115
f 119/119/119 120/120/120 115/115/115
f 114/114/114 115/115/115 121/121/121
f 115/115/115 120/120/120 121/121/121
f 120/120/120 119/119/119 122/122/122
f 120/120/120 122/122/122 123/123/123
f 120/120/120 123/123/123 124/124/124
f 120/120/120 124/124/124 125/125/125
f 120/120/120 126/126/126 121/121/121
f 126/126/126 120/120/120 125/125/125
f 126/126/126 127/127/127 121/121/121
f 125/125/125 128/128/128 126/126/126
f 126/126/126 128/128/128 127/127/127
f 128/128/128 129/129/129 127/127/127
