g doorL19_geo
v 0.04988946 0.024224272 -0.009929007
v 0.03293782 0.05326762 -0.009929006
v -0.022356978 0.056301013 -0.009929007
v 0.051566266 -0.0011843395 -0.009929007
v -0.031165838 0.047028646 -0.009929007
v -0.03658332 0.035599716 -0.009929006
v -0.042290866 0.024459371 -0.009929007
v 0.047635622 -0.008283892 -0.009929007
v -0.045876075 0.013391428 -0.009929007
v 0.04394555 -0.015896806 -0.009929007
v 0.04030671 -0.02378642 -0.00992902
v -0.048296366 0.0015011692 -0.009929007
v 0.021969004 -0.042167395 -0.009929019
v 0.039723482 -0.03275672 -0.00992902
v 0.0372 -0.04129512 -0.00992902
v 0.034593742 -0.050013427 -0.009929022
v 0.022753457 -0.056081828 -0.009929022
v 0.020195683 -0.054036874 -0.009929022
v 0.015922785 -0.056301013 -0.009929022
v 0.012052507 -0.052921057 -0.009929022
v -0.0334278 -0.021729002 -0.00992902
v 0.0015425396 -0.055969503 -0.009929022
v -0.051566266 -0.0054431055 -0.009929006
v -0.048203897 -0.010720777 -0.009929006
v -0.051566266 -0.0054431055 -0.009929006
v -0.04968934 -0.0051239682 0.009924501
v -0.047581375 -0.009287691 0.009922836
v -0.048203897 -0.010720777 -0.009929006
v -0.03300458 -0.019806948 0.009922336
v -0.0334278 -0.021729002 -0.00992902
v 0.0022806071 -0.053265963 0.009924973
v 0.0015425396 -0.055969503 -0.009929022
v -0.047924355 0.0014214992 0.009923947
v -0.04968934 -0.0051239682 0.009924501
v -0.051566266 -0.0054431055 -0.009929006
v -0.048296366 0.0015011692 -0.009929007
v -0.045876075 0.013391428 -0.009929007
v -0.045897856 0.013399152 0.009920921
v -0.039632693 0.023231953 0.009925453
v -0.042290866 0.024459371 -0.009929007
v -0.034653366 0.03466254 0.009926813
v -0.03658332 0.035599716 -0.009929006
v -0.029568547 0.045971878 0.009921904
v -0.031165838 0.047028646 -0.009929007
v -0.022356978 0.056301013 -0.009929007
v -0.021288652 0.053777855 0.009926796
v 0.03293782 0.05326762 -0.009929006
v 0.0323351 0.05288491 0.009920064
v 0.0022806071 -0.053265963 0.009924973
v 0.012475538 -0.05111618 0.009925762
v 0.012052507 -0.052921057 -0.009929022
v 0.0015425396 -0.055969503 -0.009929022
v 0.012475538 -0.05111618 0.009925762
v 0.016071958 -0.055004757 0.009920693
v 0.015922785 -0.056301013 -0.009929022
v 0.012052507 -0.052921057 -0.009929022
v 0.015922785 -0.056301013 -0.009929022
v 0.016071958 -0.055004757 0.009920693
v 0.020209016 -0.053589944 0.009919863
v 0.020195683 -0.054036874 -0.009929022
v 0.020209016 -0.053589944 0.009919863
v 0.022761106 -0.05499133 0.009921473
v 0.022753457 -0.056081828 -0.009929022
v 0.020195683 -0.054036874 -0.009929022
v 0.022753457 -0.056081828 -0.009929022
v 0.022761106 -0.05499133 0.009921473
v 0.03269864 -0.048475884 0.00992461
v 0.034593742 -0.050013427 -0.009929022
v 0.03269864 -0.048475884 0.00992461
v 0.0372 -0.04129512 -0.00992902
v 0.034593742 -0.050013427 -0.009929022
v 0.037010334 -0.041230906 0.00991761
v 0.039723482 -0.03275672 -0.00992902
v 0.040242165 -0.032900963 0.009917879
v 0.038023308 -0.02321927 0.009927873
v 0.04030671 -0.02378642 -0.00992902
v 0.04394555 -0.015896806 -0.009929007
v 0.041781645 -0.014880037 0.009928544
v 0.04717164 -0.008058157 0.00992039
v 0.047635622 -0.008283892 -0.009929007
v 0.048060864 -0.0009373188 0.009929022
v 0.051566266 -0.0011843395 -0.009929007
v 0.04988946 0.024224272 -0.009929007
v 0.049582414 0.024076605 0.009919975
v 0.03293782 0.05326762 -0.009929006
v 0.0323351 0.05288491 0.009920064
v -0.021288652 0.053777855 0.009926796
v 0.0323351 0.05288491 0.009920064
v 0.049582414 0.024076605 0.009919975
v -0.029568547 0.045971878 0.009921904
v 0.048060864 -0.0009373188 0.009929022
v -0.034653366 0.03466254 0.009926813
v -0.039632693 0.023231953 0.009925453
v -0.045897856 0.013399152 0.009920921
v 0.04717164 -0.008058157 0.00992039
v 0.041781645 -0.014880037 0.009928544
v -0.047924355 0.0014214992 0.009923947
v 0.038023308 -0.02321927 0.009927873
v 0.021791352 -0.047362756 0.0099226665
v 0.040242165 -0.032900963 0.009917879
v 0.037010334 -0.041230906 0.00991761
v 0.03269864 -0.048475884 0.00992461
v 0.022761106 -0.05499133 0.009921473
v 0.020209016 -0.053589944 0.009919863
v 0.016071958 -0.055004757 0.009920693
v 0.012475538 -0.05111618 0.009925762
v -0.03300458 -0.019806948 0.009922336
v 0.0022806071 -0.053265963 0.009924973
v -0.047581375 -0.009287691 0.009922836
v -0.04968934 -0.0051239682 0.009924501
vt 0.10498047 0.22644043
vt 0.11212158 0.23828125
vt 0.1352539 0.23950195
vt 0.10430908 0.21606445
vt 0.13891602 0.23583984
vt 0.14123535 0.2310791
vt 0.14367676 0.2265625
vt 0.10595703 0.21313477
vt 0.1451416 0.2220459
vt 0.10748291 0.21008301
vt 0.10900879 0.20678711
vt 0.14611816 0.21716309
vt 0.11663818 0.19934082
vt 0.10925293 0.203125
vt 0.11029053 0.19970703
vt 0.11138916 0.19616699
vt 0.11633301 0.19360352
vt 0.11743164 0.19445801
vt 0.11920166 0.19360352
vt 0.120788574 0.19494629
vt 0.13989258 0.20776367
vt 0.12524414 0.19372559
vt 0.14746094 0.21435547
vt 0.14611816 0.2121582
vt 0.5527344 0.040618896
vt 0.5527344 0.050689697
vt 0.5551758 0.050689697
vt 0.55566406 0.040618896
vt 0.5644531 0.050689697
vt 0.5649414 0.040618896
vt 0.58935547 0.050689697
vt 0.58935547 0.040618896
vt 0.72216797 0.050689697
vt 0.72558594 0.050689697
vt 0.72558594 0.040618896
vt 0.7216797 0.040618896
vt 0.7158203 0.040618896
vt 0.7158203 0.050689697
vt 0.70996094 0.050689697
vt 0.70996094 0.040618896
vt 0.7036133 0.050689697
vt 0.70410156 0.040618896
vt 0.6972656 0.050689697
vt 0.6977539 0.040618896
vt 0.69140625 0.040618896
vt 0.69140625 0.050689697
vt 0.6635742 0.040618896
vt 0.6635742 0.050689697
vt 0.58935547 0.050689697
vt 0.59472656 0.050689697
vt 0.59472656 0.040618896
vt 0.58935547 0.040618896
vt 0.59472656 0.050689697
vt 0.59716797 0.050689697
vt 0.59716797 0.040618896
vt 0.59472656 0.040618896
vt 0.59716797 0.040618896
vt 0.59716797 0.050689697
vt 0.5996094 0.050689697
vt 0.5996094 0.040618896
vt 0.5996094 0.050689697
vt 0.6010742 0.050689697
vt 0.6010742 0.040618896
vt 0.5996094 0.040618896
vt 0.6010742 0.040618896
vt 0.6010742 0.050689697
vt 0.6069336 0.050689697
vt 0.6074219 0.040618896
vt 0.6069336 0.050689697
vt 0.6118164 0.040618896
vt 0.6074219 0.040618896
vt 0.6113281 0.050689697
vt 0.61621094 0.040618896
vt 0.61572266 0.050689697
vt 0.62060547 0.050689697
vt 0.62060547 0.040618896
vt 0.625 0.040618896
vt 0.625 0.050689697
vt 0.62939453 0.050689697
vt 0.62939453 0.040618896
vt 0.6333008 0.050689697
vt 0.6333008 0.040618896
vt 0.6464844 0.040618896
vt 0.6464844 0.050689697
vt 0.6635742 0.040618896
vt 0.6635742 0.050689697
vt 0.28588867 0.5361328
vt 0.3083496 0.5361328
vt 0.3154297 0.5239258
vt 0.28198242 0.5332031
vt 0.31518555 0.5131836
vt 0.27978516 0.5283203
vt 0.2775879 0.5239258
vt 0.27563477 0.51953125
vt 0.31445312 0.5102539
vt 0.31225586 0.5078125
vt 0.27490234 0.51464844
vt 0.31079102 0.50439453
vt 0.30419922 0.49438477
vt 0.31176758 0.5004883
vt 0.31054688 0.4970703
vt 0.3088379 0.49389648
vt 0.3046875 0.49121094
vt 0.3034668 0.49169922
vt 0.3017578 0.4909668
vt 0.30029297 0.49243164
vt 0.28173828 0.5048828
vt 0.29638672 0.49072266
vt 0.27612305 0.50927734
vt 0.27490234 0.51123047
vn -0 0 -1
vn -0 0 -1
vn -0 0 -1
vn -0 0 -1
vn -0 0 -1
vn -0 0 -1
vn -0 0 -1
vn -0 0 -1
vn -0 2.9802322E-07 -1
vn -0 4.172325E-07 -1
vn -0 4.172325E-07 -1
vn -0 4.7683716E-07 -1
vn -0 2.3841858E-07 -1
vn -2.9802322E-07 0 -1
vn -1.7881393E-07 0 -1
vn -1.7881393E-07 1.7881393E-07 -1
vn -0 1.7881393E-07 -1
vn -0 1.7881393E-07 -1
vn 2.9802322E-07 1.1920929E-07 -1
vn 1.7881393E-07 4.172325E-07 -1
vn 1.7881393E-07 4.7683716E-07 -1
vn -0 0 -1
vn -8.940697E-07 -1.1920929E-07 -1
vn -8.940697E-07 -1.1920929E-07 -1
vn -0.86279297 -0.49975586 0.07635498
vn -0.86279297 -0.49975586 0.07635498
vn -0.6645508 -0.7426758 0.08300781
vn -0.66015625 -0.74658203 0.08306885
vn -0.66308594 -0.7421875 0.098083496
vn -0.66503906 -0.7402344 0.09857178
vn -0.6899414 -0.7163086 0.103637695
vn -0.6899414 -0.7163086 0.103637695
vn -0.96875 0.24597168 0.02470398
vn -0.9355469 0.3491211 0.05090332
vn -0.9355469 0.3491211 0.05090332
vn -0.96875 0.24609375 0.024734497
vn -0.95166016 0.30395508 0.04058838
vn -0.95166016 0.30395508 0.04058838
vn -0.89941406 0.42504883 0.101135254
vn -0.89941406 0.42504883 0.10107422
vn -0.89990234 0.42089844 0.11401367
vn -0.89990234 0.42089844 0.11395264
vn -0.81689453 0.56640625 0.107421875
vn -0.8173828 0.56591797 0.107421875
vn -0.103881836 0.99121094 0.083496094
vn -0.10284424 0.99121094 0.08343506
vn 0.035949707 0.99658203 0.072509766
vn 0.035949707 0.99658203 0.072509766
vn 0.2421875 -0.96484375 0.10247803
vn 0.2421875 -0.96484375 0.10247803
vn 0.2421875 -0.96484375 0.10247803
vn 0.2421875 -0.96484375 0.10247803
vn -0.6958008 -0.71484375 0.06585693
vn -0.6958008 -0.71484375 0.06585693
vn -0.6958008 -0.71484375 0.06585693
vn -0.6958008 -0.71484375 0.06585693
vn 0.40039062 -0.91552734 0.03857422
vn 0.40039062 -0.91552734 0.03857422
vn 0.40039062 -0.91552734 0.03857422
vn 0.40039062 -0.91552734 0.03857422
vn -0.55908203 -0.8286133 0.03237915
vn -0.55908203 -0.8286133 0.03237915
vn -0.55908203 -0.8286133 0.03237915
vn -0.55908203 -0.8286133 0.03237915
vn 0.4987793 -0.86279297 0.08081055
vn 0.4987793 -0.86279297 0.08081055
vn 0.4987793 -0.86279297 0.08081055
vn 0.4987793 -0.86279297 0.08081055
vn 0.91552734 -0.39672852 0.064086914
vn 0.9326172 -0.35986328 0.027450562
vn 0.91552734 -0.39672852 0.064086914
vn 0.9326172 -0.36010742 0.02748108
vn 0.99316406 -0.11480713 0.018508911
vn 0.99316406 -0.11578369 0.01838684
vn 0.98291016 -0.1652832 0.08282471
vn 0.98339844 -0.16259766 0.082458496
vn 0.8769531 -0.4711914 0.095825195
vn 0.8769531 -0.47070312 0.0960083
vn 0.8964844 -0.43481445 0.08508301
vn 0.8964844 -0.43481445 0.08502197
vn 0.9926758 -0.071899414 0.0970459
vn 0.9926758 -0.06976318 0.0970459
vn 0.95166016 0.3022461 0.058166504
vn 0.95166016 0.30126953 0.058288574
vn 0.86035156 0.50878906 0.026519775
vn 0.86035156 0.50878906 0.026519775
vn 6.16312E-05 0.000106692314 1
vn 0.00012671947 7.277727E-05 1
vn 6.586313E-05 0.00010448694 1
vn 7.921457E-05 0.00019109249 1
vn -6.0737133E-05 -0.00026154518 1
vn 3.3318996E-05 0.00013947487 1
vn -0.00014972687 -0.00049209595 1
vn -9.506941E-05 -0.0002142191 1
vn -8.3088875E-05 -0.0002629757 1
vn 6.2167645E-05 0.00042510033 1
vn -3.2305717E-05 6.169081E-05 1
vn -3.3318996E-05 -3.296137E-05 1
vn -4.7028065E-05 -0.0001090765 1
vn 0.0008468628 -0.0007491112 1
vn 0.0003221035 2.5331974E-05 1
vn -0.00010544062 0.00071287155 1
vn -0.00028681755 -0.00019276142 1
vn -6.967783E-05 -0.0004324913 1
vn 0.00058460236 -0.0006957054 1
vn 2.7120113E-05 4.208088E-05 1
vn 2.515316E-05 6.1392784E-05 1
vn -7.688999E-05 -2.2053719E-06 1
vn 3.9577484E-05 -0.00010251999 1
vn 3.9577484E-05 -0.00010251999 1
g doorL19_geo_0
f 3/3/3 2/2/2 1/1/1
f 3/3/3 1/1/1 4/4/4
f 5/5/5 3/3/3 4/4/4
f 6/6/6 5/5/5 4/4/4
f 7/7/7 6/6/6 4/4/4
f 7/7/7 4/4/4 8/8/8
f 9/9/9 7/7/7 8/8/8
f 9/9/9 8/8/8 10/10/10
f 9/9/9 10/10/10 11/11/11
f 12/12/12 9/9/9 11/11/11
f 13/13/13 12/12/12 11/11/11
f 13/13/13 11/11/11 14/14/14
f 13/13/13 14/14/14 15/15/15
f 13/13/13 15/15/15 16/16/16
f 13/13/13 16/16/16 17/17/17
f 13/13/13 17/17/17 18/18/18
f 13/13/13 18/18/18 19/19/19
f 13/13/13 19/19/19 20/20/20
f 12/12/12 13/13/13 21/21/21
f 13/13/13 20/20/20 21/21/21
f 20/20/20 22/22/22 21/21/21
f 23/23/23 12/12/12 21/21/21
f 24/24/24 23/23/23 21/21/21
f 27/27/27 26/26/26 25/25/25
f 28/28/28 27/27/27 25/25/25
f 29/29/29 27/27/27 28/28/28
f 30/30/30 29/29/29 28/28/28
f 31/31/31 29/29/29 30/30/30
f 32/32/32 31/31/31 30/30/30
f 35/35/35 34/34/34 33/33/33
f 36/36/36 35/35/35 33/33/33
f 36/36/36 33/33/33 37/37/37
f 33/33/33 38/38/38 37/37/37
f 37/37/37 38/38/38 39/39/39
f 40/40/40 37/37/37 39/39/39
f 40/40/40 39/39/39 41/41/41
f 42/42/42 40/40/40 41/41/41
f 42/42/42 41/41/41 43/43/43
f 44/44/44 42/42/42 43/43/43
f 44/44/44 43/43/43 45/45/45
f 43/43/43 46/46/46 45/45/45
f 45/45/45 46/46/46 47/47/47
f 46/46/46 48/48/48 47/47/47
f 51/51/51 50/50/50 49/49/49
f 52/52/52 51/51/51 49/49/49
f 55/55/55 54/54/54 53/53/53
f 56/56/56 55/55/55 53/53/53
f 59/59/59 58/58/58 57/57/57
f 60/60/60 59/59/59 57/57/57
f 63/63/63 62/62/62 61/61/61
f 64/64/64 63/63/63 61/61/61
f 67/67/67 66/66/66 65/65/65
f 68/68/68 67/67/67 65/65/65
f 71/71/71 70/70/70 69/69/69
f 70/70/70 72/72/72 69/69/69
f 70/70/70 73/73/73 72/72/72
f 73/73/73 74/74/74 72/72/72
f 75/75/75 74/74/74 73/73/73
f 76/76/76 75/75/75 73/73/73
f 76/76/76 77/77/77 75/75/75
f 77/77/77 78/78/78 75/75/75
f 79/79/79 78/78/78 77/77/77
f 80/80/80 79/79/79 77/77/77
f 81/81/81 79/79/79 80/80/80
f 82/82/82 81/81/81 80/80/80
f 81/81/81 82/82/82 83/83/83
f 84/84/84 81/81/81 83/83/83
f 83/83/83 85/85/85 84/84/84
f 85/85/85 86/86/86 84/84/84
f 89/89/89 88/88/88 87/87/87
f 89/89/89 87/87/87 90/90/90
f 91/91/91 89/89/89 90/90/90
f 91/91/91 90/90/90 92/92/92
f 91/91/91 92/92/92 93/93/93
f 91/91/91 93/93/93 94/94/94
f 95/95/95 91/91/91 94/94/94
f 96/96/96 95/95/95 94/94/94
f 96/96/96 94/94/94 97/97/97
f 98/98/98 96/96/96 97/97/97
f 98/98/98 97/97/97 99/99/99
f 98/98/98 99/99/99 100/100/100
f 100/100/100 99/99/99 101/101/101
f 102/102/102 101/101/101 99/99/99
f 102/102/102 99/99/99 103/103/103
f 99/99/99 104/104/104 103/103/103
f 99/99/99 105/105/105 104/104/104
f 99/99/99 106/106/106 105/105/105
f 106/106/106 99/99/99 97/97/97
f 107/107/107 106/106/106 97/97/97
f 107/107/107 108/108/108 106/106/106
f 109/109/109 107/107/107 97/97/97
f 110/110/110 109/109/109 97/97/97
