g doorL16_geo
v 0.00063398835 0.07331035 -0.01070794
v 0.00995481 0.07494167 -0.011036479
v 0.005163579 0.07683672 -0.010215642
v -0.016585125 0.060056686 -0.0108437985
v -0.012917714 0.068137266 -0.010027898
v -0.004107642 0.075421065 -0.010797436
v -0.009211974 0.07661745 -0.01001278
v 0.03046841 0.0664089 -0.010514615
v 0.027067408 0.07558841 -0.010009375
v 0.024340281 0.07843954 -0.010878458
v 0.033029236 0.056540374 -0.010955693
v -0.020724453 0.052502267 -0.01102545
v -0.026158623 0.045586813 -0.010624181
v 0.041236367 0.050180987 -0.0104051
v -0.02844006 0.03927643 -0.010679935
v 0.048327755 0.04310686 -0.010299996
v -0.03293036 0.034360886 -0.010677893
v 0.05102677 0.033172894 -0.010647468
v 0.043647695 -0.042095203 -0.010236308
v 0.055621933 0.026949806 -0.010889947
v 0.04754038 -0.03254759 -0.010623559
v 0.05253899 -0.020974692 -0.01051705
v 0.062377095 0.023100605 -0.010424024
v 0.05890698 -0.00989439 -0.010464797
v 0.0665291 0.016029663 -0.010946871
v 0.06596148 0.00061365124 -0.010954271
v 0.07374819 0.0112167355 -0.010369134
v 0.00010071277 -0.057987556 -0.010480708
v -0.036630884 0.029258613 -0.010847126
v -0.040678773 0.024023533 -0.010248463
v -0.011598534 -0.061783943 -0.010435967
v -0.02304194 -0.06574055 -0.010711543
v -0.048544995 0.020647831 -0.010272295
v -0.035033602 -0.06795332 -0.010577035
v -0.05541484 0.015677089 -0.010037249
v -0.058428507 0.0066342927 -0.010963991
v -0.047456246 -0.07133079 -0.010911423
v -0.0676315 0.0055574034 -0.010040449
v -0.07374819 -0.06816089 -0.010854585
v -0.05864231 -0.077822685 -0.010653559
v -0.055840477 -0.07843954 -0.010023508
v -0.058428507 0.0066342927 -0.010963991
v -0.058428507 0.0066342927 0.010963991
v -0.0676315 0.0055574034 0.01004045
v -0.0676315 0.0055574034 -0.010040449
v -0.05541484 0.015677089 -0.010037249
v -0.058428507 0.0066342927 0.010963991
v -0.058428507 0.0066342927 -0.010963991
v -0.05541484 0.015677089 0.010037249
v -0.048544995 0.020647831 -0.010272295
v -0.048544995 0.020647831 0.010272295
v -0.040678773 0.024023533 -0.010248463
v -0.040678773 0.024023533 0.010248462
v -0.036630884 0.029258613 -0.010847126
v -0.036630884 0.029258613 0.010847126
v -0.03293036 0.034360886 -0.010677893
v -0.03293036 0.034360886 0.010677893
v -0.02844006 0.03927643 -0.010679935
v -0.02844006 0.03927643 0.010679936
v -0.026158623 0.045586813 -0.010624181
v -0.026158623 0.045586813 0.01062418
v -0.020724453 0.052502267 -0.01102545
v -0.020724453 0.052502267 0.01102545
v -0.016585125 0.060056686 -0.0108437985
v -0.016585125 0.060056686 0.0108437985
v -0.012917714 0.068137266 -0.010027898
v -0.012917714 0.068137266 0.010027898
v -0.009211974 0.07661745 -0.01001278
v -0.009211974 0.07661745 0.01001278
v -0.004107642 0.075421065 -0.010797436
v -0.009211974 0.07661745 0.01001278
v -0.009211974 0.07661745 -0.01001278
v -0.004107642 0.075421065 0.010797436
v 0.00063398835 0.07331035 -0.01070794
v 0.00063398835 0.07331035 0.01070794
v 0.005163579 0.07683672 -0.010215642
v 0.00063398835 0.07331035 0.01070794
v 0.00063398835 0.07331035 -0.01070794
v 0.005163579 0.07683672 0.010215642
v 0.00995481 0.07494167 -0.011036479
v 0.00995481 0.07494167 0.011036479
v 0.024340281 0.07843954 -0.010878458
v 0.024340281 0.07843954 0.010878458
v 0.027067408 0.07558841 -0.010009375
v 0.027067408 0.07558841 0.010009375
v 0.03046841 0.0664089 -0.010514615
v 0.03046841 0.0664089 0.010514614
v 0.033029236 0.056540374 -0.010955693
v 0.033029236 0.056540374 0.010955693
v 0.041236367 0.050180987 -0.0104051
v 0.041236367 0.050180987 0.010405099
v 0.048327755 0.04310686 -0.010299996
v 0.048327755 0.04310686 0.010299996
v 0.05102677 0.033172894 -0.010647468
v 0.05102677 0.033172894 0.010647468
v 0.055621933 0.026949806 -0.010889947
v 0.055621933 0.026949806 0.010889947
v 0.062377095 0.023100605 -0.010424024
v 0.062377095 0.023100605 0.010424024
v 0.0665291 0.016029663 -0.010946871
v 0.0665291 0.016029663 0.01094687
v 0.07374819 0.0112167355 -0.010369134
v 0.07374819 0.0112167355 0.010369134
v 0.06596148 0.00061365124 -0.010954271
v 0.07374819 0.0112167355 0.010369134
v 0.07374819 0.0112167355 -0.010369134
v 0.06596148 0.00061365124 0.010954271
v 0.05890698 -0.00989439 -0.010464797
v 0.05890698 -0.00989439 0.010464797
v 0.05253899 -0.020974692 -0.01051705
v 0.05253899 -0.020974692 0.010517049
v 0.04754038 -0.03254759 -0.010623559
v 0.04754038 -0.03254759 0.010623559
v 0.043647695 -0.042095203 -0.010236308
v 0.043647695 -0.042095203 0.010236308
v 0.00010071277 -0.057987556 -0.010480708
v 0.00010071277 -0.057987556 0.010480708
v -0.011598534 -0.061783943 -0.010435967
v -0.011598534 -0.061783943 0.010435967
v -0.02304194 -0.06574055 -0.010711543
v -0.02304194 -0.06574055 0.010711543
v -0.035033602 -0.06795332 -0.010577035
v -0.035033602 -0.06795332 0.010577035
v -0.047456246 -0.07133079 -0.010911423
v -0.047456246 -0.07133079 0.010911423
v -0.055840477 -0.07843954 -0.010023508
v -0.055840477 -0.07843954 0.010023508
v -0.05864231 -0.077822685 -0.010653559
v -0.05864231 -0.077822685 0.010653557
v -0.07374819 -0.06816089 -0.010854585
v -0.07374819 -0.06816089 0.010854585
v -0.0676315 0.0055574034 -0.010040449
v -0.0676315 0.0055574034 0.01004045
v -0.07374819 -0.06816089 0.010854585
v -0.07374819 -0.06816089 -0.010854585
v 0.00063398835 0.07331035 0.01070794
v 0.005163579 0.07683672 0.010215642
v 0.00995481 0.07494167 0.011036479
v -0.016585125 0.060056686 0.0108437985
v -0.012917714 0.068137266 0.010027898
v -0.004107642 0.075421065 0.010797436
v -0.009211974 0.07661745 0.01001278
v 0.03046841 0.0664089 0.010514614
v 0.027067408 0.07558841 0.010009375
v 0.024340281 0.07843954 0.010878458
v 0.033029236 0.056540374 0.010955693
v -0.020724453 0.052502267 0.01102545
v -0.026158623 0.045586813 0.01062418
v 0.041236367 0.050180987 0.010405099
v -0.02844006 0.03927643 0.010679936
v 0.048327755 0.04310686 0.010299996
v -0.03293036 0.034360886 0.010677893
v 0.05102677 0.033172894 0.010647468
v 0.043647695 -0.042095203 0.010236308
v 0.04754038 -0.03254759 0.010623559
v 0.055621933 0.026949806 0.010889947
v 0.05253899 -0.020974692 0.010517049
v 0.062377095 0.023100605 0.010424024
v 0.05890698 -0.00989439 0.010464797
v 0.0665291 0.016029663 0.01094687
v 0.06596148 0.00061365124 0.010954271
v 0.07374819 0.0112167355 0.010369134
v 0.00010071277 -0.057987556 0.010480708
v -0.036630884 0.029258613 0.010847126
v -0.040678773 0.024023533 0.010248462
v -0.036630884 0.029258613 0.010847126
v -0.011598534 -0.061783943 0.010435967
v -0.02304194 -0.06574055 0.010711543
v -0.048544995 0.020647831 0.010272295
v -0.035033602 -0.06795332 0.010577035
v -0.05541484 0.015677089 0.010037249
v -0.058428507 0.0066342927 0.010963991
v -0.047456246 -0.07133079 0.010911423
v -0.0676315 0.0055574034 0.01004045
v -0.07374819 -0.06816089 0.010854585
v -0.05864231 -0.077822685 0.010653557
v -0.055840477 -0.07843954 0.010023508
vt 0.1619873 0.26831055
vt 0.15795898 0.26904297
vt 0.16003418 0.27001953
vt 0.16918945 0.26293945
vt 0.16772461 0.26635742
vt 0.16394043 0.2692871
vt 0.1661377 0.27001953
vt 0.14929199 0.26538086
vt 0.15075684 0.26953125
vt 0.15197754 0.2705078
vt 0.14819336 0.26123047
vt 0.17089844 0.25952148
vt 0.17321777 0.25683594
vt 0.14477539 0.25854492
vt 0.17419434 0.2541504
vt 0.14172363 0.25561523
vt 0.17602539 0.25195312
vt 0.14050293 0.25146484
vt 0.14343262 0.21984863
vt 0.1385498 0.2487793
vt 0.1418457 0.22375488
vt 0.13977051 0.2286377
vt 0.13574219 0.24719238
vt 0.13708496 0.23339844
vt 0.13391113 0.24414062
vt 0.1340332 0.2376709
vt 0.13085938 0.2421875
vt 0.16186523 0.21325684
vt 0.1776123 0.24987793
vt 0.17932129 0.24780273
vt 0.16674805 0.21166992
vt 0.17150879 0.20996094
vt 0.18261719 0.24633789
vt 0.17663574 0.20898438
vt 0.18554688 0.24438477
vt 0.18676758 0.24035645
vt 0.18188477 0.20751953
vt 0.19067383 0.2401123
vt 0.19299316 0.20898438
vt 0.18664551 0.20495605
vt 0.1854248 0.20471191
vt 0.6269531 0.040618896
vt 0.6269531 0.050689697
vt 0.63134766 0.050689697
vt 0.63134766 0.040618896
vt 0.6225586 0.040618896
vt 0.6269531 0.050689697
vt 0.6269531 0.040618896
vt 0.6225586 0.050689697
vt 0.61865234 0.040618896
vt 0.61865234 0.050689697
vt 0.6147461 0.040618896
vt 0.6147461 0.050689697
vt 0.6123047 0.040618896
vt 0.6123047 0.050689697
vt 0.609375 0.040618896
vt 0.609375 0.050689697
vt 0.6064453 0.040618896
vt 0.6064453 0.050689697
vt 0.6040039 0.040618896
vt 0.6040039 0.050689697
vt 0.60009766 0.040618896
vt 0.60009766 0.050689697
vt 0.5966797 0.040618896
vt 0.5966797 0.050689697
vt 0.59277344 0.040618896
vt 0.59277344 0.050689697
vt 0.5883789 0.040618896
vt 0.5883789 0.050689697
vt 0.5859375 0.040618896
vt 0.5883789 0.050689697
vt 0.5883789 0.040618896
vt 0.5859375 0.050689697
vt 0.5839844 0.040618896
vt 0.5839844 0.050689697
vt 0.58154297 0.040618896
vt 0.5839844 0.050689697
vt 0.5839844 0.040618896
vt 0.58154297 0.050689697
vt 0.57910156 0.040618896
vt 0.57910156 0.050689697
vt 0.5732422 0.040618896
vt 0.5732422 0.050689697
vt 0.57128906 0.040618896
vt 0.57128906 0.050689697
vt 0.56689453 0.040618896
vt 0.56689453 0.050689697
vt 0.5625 0.040618896
vt 0.5625 0.050689697
vt 0.55810547 0.040618896
vt 0.55810547 0.050689697
vt 0.55371094 0.040618896
vt 0.55371094 0.050689697
vt 0.5488281 0.040618896
vt 0.5488281 0.050689697
vt 0.54541016 0.040618896
vt 0.54541016 0.050689697
vt 0.5415039 0.040618896
vt 0.5415039 0.050689697
vt 0.53759766 0.040618896
vt 0.53759766 0.050689697
vt 0.5336914 0.040618896
vt 0.5336914 0.050689697
vt 0.7426758 0.040618896
vt 0.74902344 0.050689697
vt 0.74902344 0.040618896
vt 0.7426758 0.050689697
vt 0.7368164 0.040618896
vt 0.7368164 0.050689697
vt 0.73095703 0.040618896
vt 0.73095703 0.050689697
vt 0.72509766 0.040618896
vt 0.72509766 0.050689697
vt 0.72021484 0.040618896
vt 0.72021484 0.050689697
vt 0.69921875 0.040618896
vt 0.69921875 0.050689697
vt 0.6933594 0.040618896
vt 0.6933594 0.050689697
vt 0.6879883 0.040618896
vt 0.6879883 0.050689697
vt 0.6826172 0.040618896
vt 0.6826172 0.050689697
vt 0.6772461 0.040618896
vt 0.6772461 0.050689697
vt 0.67285156 0.040618896
vt 0.67285156 0.050689697
vt 0.6713867 0.040618896
vt 0.6713867 0.050689697
vt 0.6635742 0.040618896
vt 0.6635742 0.050689697
vt 0.63134766 0.040618896
vt 0.63134766 0.050689697
vt 0.6635742 0.050689697
vt 0.6635742 0.040618896
vt 0.25805664 0.5683594
vt 0.26000977 0.5698242
vt 0.2619629 0.56884766
vt 0.25073242 0.5629883
vt 0.2524414 0.56640625
vt 0.25610352 0.56933594
vt 0.25390625 0.5698242
vt 0.27075195 0.5654297
vt 0.2692871 0.56933594
vt 0.2680664 0.5703125
vt 0.27197266 0.56103516
vt 0.24914551 0.5595703
vt 0.24682617 0.5566406
vt 0.27539062 0.55859375
vt 0.24584961 0.5541992
vt 0.2783203 0.55566406
vt 0.24401855 0.5522461
vt 0.27954102 0.55126953
vt 0.27661133 0.52001953
vt 0.2783203 0.5239258
vt 0.28149414 0.5488281
vt 0.28027344 0.5288086
vt 0.28442383 0.5473633
vt 0.28295898 0.5332031
vt 0.2861328 0.5439453
vt 0.28588867 0.53759766
vt 0.2890625 0.5419922
vt 0.25830078 0.5131836
vt 0.24243164 0.5498047
vt 0.24072266 0.54785156
vt 0.24243164 0.5498047
vt 0.25317383 0.51171875
vt 0.24841309 0.5097656
vt 0.23742676 0.5463867
vt 0.2434082 0.50878906
vt 0.23449707 0.5444336
vt 0.23327637 0.54052734
vt 0.23815918 0.5073242
vt 0.22937012 0.54003906
vt 0.22705078 0.50878906
vt 0.23339844 0.5048828
vt 0.23461914 0.5048828
vn -0.0032081604 -0.012870789 -1
vn 0.006164551 -0.013931274 -1
vn -0.07470703 0.23132324 -0.97021484
vn -0.0015163422 0.030349731 -0.9995117
vn -0.097595215 0.10369873 -0.9897461
vn -0.07519531 -0.0143585205 -0.9970703
vn -0.07519531 -0.0143585205 -0.9970703
vn 0.0058784485 0.0236969 -0.9995117
vn 0.059906006 0.0003232956 -0.9980469
vn 0.059906006 0.0003232956 -0.9980469
vn 0.0046691895 -0.029754639 -0.9995117
vn 0.0051460266 -0.036834717 -0.9995117
vn 0.0050849915 -0.019760132 -1
vn 0.004928589 -0.016342163 -1
vn 0.0027885437 0.015670776 -1
vn 0.0027618408 0.015991211 -1
vn 0.0048675537 0.00019299984 -1
vn -0.0021419525 -0.0013065338 -1
vn 0.0032730103 -0.002193451 -1
vn -0.031951904 -0.0013341904 -0.9995117
vn -0.064208984 0.002357483 -0.9980469
vn 0.049987793 -0.01033783 -0.99853516
vn 0.035583496 -0.007888794 -0.9995117
vn -0.04788208 0.006088257 -0.99902344
vn -0.03186035 0.0050086975 -0.9995117
vn -0.04296875 0.0020618439 -0.99902344
vn 0.078186035 -0.0023994446 -0.9970703
vn -0.0012178421 -0.00248909 -1
vn 0.002527237 -0.0011816025 -1
vn -0.013084412 -0.0043144226 -1
vn -0.008956909 -0.0023956299 -1
vn -0.0028362274 0.004196167 -1
vn -0.0006322861 0.004688263 -1
vn 0.019500732 0.0074920654 -1
vn -0.0028800964 0.0034637451 -1
vn 0.018051147 0.009902954 -1
vn 0.008399963 0.006401062 -1
vn -0.027359009 0.004142761 -0.9995117
vn -0.026443481 0.0026340485 -0.9995117
vn 0.01184845 -0.060058594 -0.9980469
vn 0.01184845 -0.060058594 -0.9980469
vn -0.11621094 0.99316406 0
vn -0.11621094 0.99316406 0
vn -0.11621094 0.99316406 0
vn -0.11621094 0.99316406 0
vn -0.82421875 0.56640625 0
vn -0.94873047 0.3161621 0
vn -0.94873047 0.3161621 0
vn -0.82421875 0.56640625 0
vn -0.49145508 0.87060547 0
vn -0.49145508 0.87060547 0
vn -0.5942383 0.8041992 0
vn -0.5942383 0.8041992 0
vn -0.80029297 0.5996094 0
vn -0.80029297 0.5996094 0
vn -0.77441406 0.6323242 0
vn -0.77441406 0.6323242 0
vn -0.85595703 0.51708984 0
vn -0.85595703 0.51708984 0
vn -0.8623047 0.50634766 0
vn -0.8623047 0.50634766 0
vn -0.83447266 0.55078125 0
vn -0.83447266 0.55078125 0
vn -0.8935547 0.44873047 0
vn -0.8935547 0.44873047 0
vn -0.9135742 0.40698242 0
vn -0.9135742 0.40698242 0
vn -0.9165039 0.40039062 0
vn -0.9165039 0.40039062 0
vn 0.32373047 0.94628906 0
vn 0.22814941 0.9736328 0
vn 0.22814941 0.9736328 0
vn 0.32373047 0.94628906 0
vn 0.40673828 0.9135742 0
vn 0.40673828 0.9135742 0
vn -0.15600586 0.98779297 0
vn -0.6142578 0.7890625 0
vn -0.6142578 0.7890625 0
vn -0.15600586 0.98779297 0
vn -0.09814453 0.9951172 0
vn -0.09814453 0.9951172 0
vn -0.0703125 0.9975586 0
vn -0.0703125 0.9975586 0
vn 0.88671875 0.46264648 0
vn 0.88671875 0.46264648 0
vn 0.9550781 0.29614258 0
vn 0.9550781 0.29614258 0
vn 0.83447266 0.55126953 0
vn 0.83447266 0.55126953 0
vn 0.6582031 0.7529297 0
vn 0.6582031 0.7529297 0
vn 0.86865234 0.4958496 0
vn 0.86865234 0.4958496 0
vn 0.9086914 0.41723633 0
vn 0.9086914 0.41723633 0
vn 0.6660156 0.74609375 0
vn 0.6660156 0.74609375 0
vn 0.7080078 0.7060547 0
vn 0.7080078 0.7060547 0
vn 0.72265625 0.69091797 0
vn 0.72265625 0.69091797 0
vn 0.5546875 0.83203125 0
vn 0.5546875 0.83203125 0
vn 0.8183594 -0.5751953 0
vn 0.80615234 -0.5917969 0
vn 0.80615234 -0.5917969 0
vn 0.8183594 -0.5751953 0
vn 0.8486328 -0.5288086 0
vn 0.8486328 -0.5288086 0
vn 0.89404297 -0.44799805 0
vn 0.89404297 -0.44799805 0
vn 0.9213867 -0.3881836 0
vn 0.9213867 -0.3881836 0
vn 0.47558594 -0.8798828 0
vn 0.47558594 -0.8798828 0
vn 0.33569336 -0.94189453 0
vn 0.33569336 -0.94189453 0
vn 0.3178711 -0.9482422 0
vn 0.3178711 -0.9482422 0
vn 0.2541504 -0.96728516 0
vn 0.2541504 -0.96728516 0
vn 0.22363281 -0.9746094 0
vn 0.22363281 -0.9746094 0
vn 0.44384766 -0.8959961 0
vn 0.44384766 -0.8959961 0
vn 0.49316406 -0.8701172 0
vn 0.49316406 -0.8701172 0
vn -0.50439453 -0.86328125 0
vn -0.50439453 -0.86328125 0
vn -0.5385742 -0.84228516 0
vn -0.5385742 -0.84228516 0
vn -0.99658203 0.08270264 0
vn -0.99658203 0.08270264 0
vn -0.99658203 0.08270264 0
vn -0.99658203 0.08270264 0
vn -0.0032081604 -0.012870789 1
vn -0.07470703 0.23132324 0.97021484
vn 0.006164551 -0.013931274 1
vn -0.0015163422 0.030349731 0.9995117
vn -0.097595215 0.10369873 0.9897461
vn -0.07519531 -0.0143585205 0.9970703
vn -0.07519531 -0.0143585205 0.9970703
vn 0.0058784485 0.0236969 0.9995117
vn 0.059906006 0.0003232956 0.9980469
vn 0.059906006 0.0003232956 0.9980469
vn 0.0046691895 -0.029754639 0.9995117
vn 0.0051460266 -0.036834717 0.9995117
vn 0.0050849915 -0.019760132 1
vn 0.004928589 -0.016342163 1
vn 0.0027885437 0.015670776 1
vn 0.0027618408 0.015991211 1
vn 0.0048675537 0.00019299984 1
vn -0.0021419525 -0.0013065338 1
vn 0.0032730103 -0.002193451 1
vn -0.064208984 0.002357483 0.9980469
vn -0.031951904 -0.0013341904 0.9995117
vn 0.049987793 -0.01033783 0.99853516
vn 0.035583496 -0.007888794 0.9995117
vn -0.04788208 0.006088257 0.99902344
vn -0.03186035 0.0050086975 0.9995117
vn -0.04296875 0.0020618439 0.99902344
vn 0.078186035 -0.0023994446 0.9970703
vn -0.0012178421 -0.00248909 1
vn 0.002527237 -0.0011816025 1
vn -0.013084412 -0.0043144226 1
vn 0.002527237 -0.0011816025 1
vn -0.008956909 -0.0023956299 1
vn -0.0028362274 0.004196167 1
vn -0.0006322861 0.004688263 1
vn 0.019500732 0.0074920654 1
vn -0.0028800964 0.0034637451 1
vn 0.018051147 0.009902954 1
vn 0.008407593 0.006401062 1
vn -0.027359009 0.004142761 0.9995117
vn -0.026443481 0.0026340485 0.9995117
vn 0.01184845 -0.060058594 0.9980469
vn 0.01184845 -0.060058594 0.9980469
g doorL16_geo_0
f 3/3/3 2/2/2 1/1/1
f 1/1/1 2/2/2 4/4/4
f 5/5/5 1/1/1 4/4/4
f 6/6/6 1/1/1 5/5/5
f 7/7/7 6/6/6 5/5/5
f 2/2/2 8/8/8 4/4/4
f 9/9/9 8/8/8 2/2/2
f 10/10/10 9/9/9 2/2/2
f 4/4/4 8/8/8 11/11/11
f 12/12/12 4/4/4 11/11/11
f 12/12/12 11/11/11 13/13/13
f 11/11/11 14/14/14 13/13/13
f 13/13/13 14/14/14 15/15/15
f 14/14/14 16/16/16 15/15/15
f 15/15/15 16/16/16 17/17/17
f 16/16/16 18/18/18 17/17/17
f 18/18/18 19/19/19 17/17/17
f 18/18/18 20/20/20 19/19/19
f 20/20/20 21/21/21 19/19/19
f 22/22/22 21/21/21 20/20/20
f 23/23/23 22/22/22 20/20/20
f 24/24/24 22/22/22 23/23/23
f 25/25/25 24/24/24 23/23/23
f 26/26/26 24/24/24 25/25/25
f 27/27/27 26/26/26 25/25/25
f 17/17/17 19/19/19 28/28/28
f 29/29/29 17/17/17 28/28/28
f 30/30/30 29/29/29 28/28/28
f 31/31/31 30/30/30 28/28/28
f 30/30/30 31/31/31 32/32/32
f 33/33/33 30/30/30 32/32/32
f 33/33/33 32/32/32 34/34/34
f 35/35/35 33/33/33 34/34/34
f 36/36/36 35/35/35 34/34/34
f 37/37/37 36/36/36 34/34/34
f 38/38/38 36/36/36 37/37/37
f 39/39/39 38/38/38 37/37/37
f 40/40/40 39/39/39 37/37/37
f 41/41/41 40/40/40 37/37/37
f 44/44/44 43/43/43 42/42/42
f 45/45/45 44/44/44 42/42/42
f 48/48/48 47/47/47 46/46/46
f 47/47/47 49/49/49 46/46/46
f 46/46/46 49/49/49 50/50/50
f 49/49/49 51/51/51 50/50/50
f 50/50/50 51/51/51 52/52/52
f 51/51/51 53/53/53 52/52/52
f 52/52/52 53/53/53 54/54/54
f 53/53/53 55/55/55 54/54/54
f 54/54/54 55/55/55 56/56/56
f 55/55/55 57/57/57 56/56/56
f 56/56/56 57/57/57 58/58/58
f 57/57/57 59/59/59 58/58/58
f 58/58/58 59/59/59 60/60/60
f 59/59/59 61/61/61 60/60/60
f 60/60/60 61/61/61 62/62/62
f 61/61/61 63/63/63 62/62/62
f 62/62/62 63/63/63 64/64/64
f 63/63/63 65/65/65 64/64/64
f 64/64/64 65/65/65 66/66/66
f 65/65/65 67/67/67 66/66/66
f 66/66/66 67/67/67 68/68/68
f 67/67/67 69/69/69 68/68/68
f 72/72/72 71/71/71 70/70/70
f 71/71/71 73/73/73 70/70/70
f 70/70/70 73/73/73 74/74/74
f 73/73/73 75/75/75 74/74/74
f 78/78/78 77/77/77 76/76/76
f 77/77/77 79/79/79 76/76/76
f 76/76/76 79/79/79 80/80/80
f 79/79/79 81/81/81 80/80/80
f 80/80/80 81/81/81 82/82/82
f 81/81/81 83/83/83 82/82/82
f 82/82/82 83/83/83 84/84/84
f 83/83/83 85/85/85 84/84/84
f 84/84/84 85/85/85 86/86/86
f 85/85/85 87/87/87 86/86/86
f 86/86/86 87/87/87 88/88/88
f 87/87/87 89/89/89 88/88/88
f 88/88/88 89/89/89 90/90/90
f 89/89/89 91/91/91 90/90/90
f 90/90/90 91/91/91 92/92/92
f 91/91/91 93/93/93 92/92/92
f 92/92/92 93/93/93 94/94/94
f 93/93/93 95/95/95 94/94/94
f 94/94/94 95/95/95 96/96/96
f 95/95/95 97/97/97 96/96/96
f 96/96/96 97/97/97 98/98/98
f 97/97/97 99/99/99 98/98/98
f 98/98/98 99/99/99 100/100/100
f 99/99/99 101/101/101 100/100/100
f 100/100/100 101/101/101 102/102/102
f 101/101/101 103/103/103 102/102/102
f 106/106/106 105/105/105 104/104/104
f 105/105/105 107/107/107 104/104/104
f 104/104/104 107/107/107 108/108/108
f 107/107/107 109/109/109 108/108/108
f 108/108/108 109/109/109 110/110/110
f 109/109/109 111/111/111 110/110/110
f 110/110/110 111/111/111 112/112/112
f 111/111/111 113/113/113 112/112/112
f 112/112/112 113/113/113 114/114/114
f 113/113/113 115/115/115 114/114/114
f 114/114/114 115/115/115 116/116/116
f 115/115/115 117/117/117 116/116/116
f 116/116/116 117/117/117 118/118/118
f 117/117/117 119/119/119 118/118/118
f 118/118/118 119/119/119 120/120/120
f 119/119/119 121/121/121 120/120/120
f 120/120/120 121/121/121 122/122/122
f 121/121/121 123/123/123 122/122/122
f 122/122/122 123/123/123 124/124/124
f 123/123/123 125/125/125 124/124/124
f 124/124/124 125/125/125 126/126/126
f 125/125/125 127/127/127 126/126/126
f 126/126/126 127/127/127 128/128/128
f 127/127/127 129/129/129 128/128/128
f 128/128/128 129/129/129 130/130/130
f 129/129/129 131/131/131 130/130/130
f 134/134/134 133/133/133 132/132/132
f 135/135/135 134/134/134 132/132/132
f 138/138/138 137/137/137 136/136/136
f 138/138/138 136/136/136 139/139/139
f 136/136/136 140/140/140 139/139/139
f 136/136/136 141/141/141 140/140/140
f 141/141/141 142/142/142 140/140/140
f 143/143/143 138/138/138 139/139/139
f 143/143/143 144/144/144 138/138/138
f 144/144/144 145/145/145 138/138/138
f 143/143/143 139/139/139 146/146/146
f 139/139/139 147/147/147 146/146/146
f 146/146/146 147/147/147 148/148/148
f 149/149/149 146/146/146 148/148/148
f 149/149/149 148/148/148 150/150/150
f 151/151/151 149/149/149 150/150/150
f 151/151/151 150/150/150 152/152/152
f 153/153/153 151/151/151 152/152/152
f 154/154/154 153/153/153 152/152/152
f 154/154/154 155/155/155 153/153/153
f 155/155/155 156/156/156 153/153/153
f 155/155/155 157/157/157 156/156/156
f 157/157/157 158/158/158 156/156/156
f 157/157/157 159/159/159 158/158/158
f 159/159/159 160/160/160 158/158/158
f 159/159/159 161/161/161 160/160/160
f 161/161/161 162/162/162 160/160/160
f 154/154/154 152/152/152 163/163/163
f 152/152/152 164/164/164 163/163/163
f 166/166/166 165/165/165 163/163/163
f 165/165/165 167/167/167 163/163/163
f 167/167/167 165/165/165 168/168/168
f 165/165/165 169/169/169 168/168/168
f 168/168/168 169/169/169 170/170/170
f 169/169/169 171/171/171 170/170/170
f 171/171/171 172/172/172 170/170/170
f 172/172/172 173/173/173 170/170/170
f 172/172/172 174/174/174 173/173/173
f 174/174/174 175/175/175 173/173/173
f 175/175/175 176/176/176 173/173/173
f 176/176/176 177/177/177 173/173/173
