g eff_101501_dml_cylinder_03
v -1.5937917 -0.885617 -0.42705593
v -1.9736674 -1.4760284 -0.52884346
v -1.7695441 -1.4760284 -1.0216466
v -1.4289564 -0.885617 -0.8250083
v -0.2236925 1.2398638 -0.05993829
v -1.444825 -1.4760284 -1.444825
v -0.20055738 1.2398638 -0.11579188
v -0.06995683 1.4760284 -0.018744899
v -0.062721595 1.4760284 -0.03621236
v -1.1667367 -0.885617 -1.1667367
v -1.0216466 -1.4760284 -1.7695441
v -0.16375437 1.2398638 -0.16375437
v -0.051212013 1.4760284 -0.051212013
v -0.82500833 -0.885617 -1.4289565
v -0.5288424 -1.4760284 -1.9736674
v -0.11579189 1.2398638 -0.20055738
v -0.03621236 1.4760284 -0.062721595
v -0.42705506 -0.885617 -1.5937917
v -0.05993823 1.2398638 -0.2236925
v -0.018744899 1.4760284 -0.06995683
v 1.2366587E-07 -0.885617 -1.6500165
v 1.4890985E-07 -1.4760284 -2.0432932
v 0.5288424 -1.4760284 -1.9736674
v 2.8218498E-08 1.2398638 -0.23158376
v 1.2418807E-08 1.4760284 -0.07242472
v 0.42705506 -0.885617 -1.5937917
v 1.0216446 -1.4760284 -1.76954
v 0.05993826 1.2398638 -0.22369245
v 0.0187449 1.4760284 -0.06995683
v 0.82500666 -0.885617 -1.4289532
v 1.444825 -1.4760284 -1.444825
v 0.11579177 1.2398638 -0.20055711
v 0.03621236 1.4760284 -0.062721595
v 1.1667368 -0.885617 -1.1667367
v 1.7695441 -1.4760284 -1.0216466
v 0.1637544 1.2398638 -0.1637542
v 0.051212013 1.4760284 -0.05121191
v 1.4289564 -0.885617 -0.8250083
v 1.9736674 -1.4760284 -0.5288424
v 0.20055738 1.2398638 -0.11579188
v 0.062721595 1.4760284 -0.03621236
v 1.5937917 -0.885617 -0.42705506
v 2.0432932 -1.4760284 -1.1360327E-07
v 1.6500165 -0.885617 -8.763742E-08
v 0.22369248 1.2398638 -0.059938222
v 0.06995683 1.4760284 -0.018744899
v 0.23158376 1.2398638 7.339191E-10
v 0.07242472 1.4760284 4.542145E-09
vt 0.99779373 0.19999999
vt 0.99779373 0
vt 0.9070852 0
vt 0.9070852 0.19999999
vt 0.99779373 0.91999996
vt 0.8163767 0
vt 0.9070852 0.91999996
vt 0.99779373 1
vt 0.9070852 1
vt 0.8163767 0.19999999
vt 0.72566825 0
vt 0.8163767 0.91999996
vt 0.8163767 1
vt 0.72566825 0.19999999
vt 0.63495976 0
vt 0.72566825 0.91999996
vt 0.72566825 1
vt 0.63495976 0.19999999
vt 0.63495976 0.91999996
vt 0.63495976 1
vt 0.54425126 0.19999999
vt 0.54425126 0
vt 0.45354274 0
vt 0.54425126 0.91999996
vt 0.54425126 1
vt 0.45354274 0.19999999
vt 0.36283427 0
vt 0.45354274 0.91999996
vt 0.45354274 1
vt 0.36283427 0.19999999
vt 0.27212584 0
vt 0.36283427 0.91999996
vt 0.36283427 1
vt 0.27212584 0.19999999
vt 0.1814173 0
vt 0.27212584 0.91999996
vt 0.27212584 1
vt 0.1814173 0.19999999
vt 0.090708874 0
vt 0.1814173 0.91999996
vt 0.1814173 1
vt 0.09070886 0.19999999
vt 1.2177148E-07 0
vt 9.640242E-08 0.19999999
vt 0.090708815 0.91999996
vt 0.090708815 1
vt 1.0147623E-08 0.91999996
vt 0 1
vn -0.7706625 0.55152595 -0.3192152
vn -0.9230701 0.29456156 -0.24733613
vn -0.82760185 0.2945616 -0.4778164
vn -0.7205048 0.55482453 -0.41598368
vn -0.77046204 0.551854 -0.31913227
vn -0.67573416 0.29456156 -0.6757342
vn -0.7203152 0.55515283 -0.41587412
vn -0.9230701 0.29456162 -0.24733616
vn -0.8276019 0.2945615 -0.4778163
vn -0.58829004 0.55482423 -0.58828986
vn -0.47781605 0.29456165 -0.8276022
vn -0.5881352 0.5551524 -0.588135
vn -0.675734 0.2945616 -0.67573446
vn -0.41598332 0.5548246 -0.72050506
vn -0.24733528 0.29456162 -0.9230703
vn -0.41587386 0.55515283 -0.72031546
vn -0.47781578 0.29456162 -0.82760227
vn -0.21532884 0.5548242 -0.80361915
vn -0.21527216 0.5551525 -0.80340755
vn -0.24733558 0.29456156 -0.9230702
vn -0 0.5548245 -0.83196735
vn -0 0.29456154 -0.9556325
vn 0.247336 0.29456148 -0.9230702
vn -0 0.5551528 -0.83174837
vn -0 0.29456156 -0.9556325
vn 0.21533217 0.55482405 -0.80361825
vn 0.47781637 0.29456145 -0.8276019
vn 0.21527554 0.55515224 -0.8034067
vn 0.24733578 0.2945615 -0.9230702
vn 0.41598368 0.55482376 -0.7205056
vn 0.6757341 0.29456156 -0.67573434
vn 0.41587403 0.555152 -0.72031593
vn 0.47781637 0.2945615 -0.8276019
vn 0.58828765 0.5548241 -0.58829224
vn 0.827602 0.2945616 -0.47781625
vn 0.58813286 0.5551524 -0.5881374
vn 0.6757344 0.29456142 -0.6757341
vn 0.7205052 0.55482453 -0.41598335
vn 0.9230699 0.29456148 -0.24733675
vn 0.72031546 0.55515283 -0.4158738
vn 0.8276019 0.2945614 -0.47781646
vn 0.803619 0.5548241 -0.21532895
vn 0.9556325 0.2945616 0
vn 0.827021 0.5515259 -0.108883135
vn 0.80340755 0.5551524 -0.21527235
vn 0.9230699 0.2945615 -0.24733685
vn 0.82680583 0.5518539 -0.10885483
vn 0.9556325 0.2945616 0
g eff_101501_dml_cylinder_03_0
f 3/3/3 2/2/2 1/1/1
f 4/4/4 3/3/3 1/1/1
f 4/4/4 1/1/1 5/5/5
f 6/6/6 3/3/3 4/4/4
f 7/7/7 4/4/4 5/5/5
f 7/7/7 5/5/5 8/8/8
f 9/9/9 7/7/7 8/8/8
f 10/10/10 6/6/6 4/4/4
f 10/10/10 4/4/4 7/7/7
f 11/11/11 6/6/6 10/10/10
f 12/12/12 7/7/7 9/9/9
f 12/12/12 10/10/10 7/7/7
f 13/13/13 12/12/12 9/9/9
f 14/14/14 11/11/11 10/10/10
f 14/14/14 10/10/10 12/12/12
f 15/15/15 11/11/11 14/14/14
f 16/16/16 12/12/12 13/13/13
f 16/16/16 14/14/14 12/12/12
f 17/17/17 16/16/16 13/13/13
f 18/18/18 15/15/15 14/14/14
f 18/18/18 14/14/14 16/16/16
f 19/19/19 16/16/16 17/17/17
f 19/19/19 18/18/18 16/16/16
f 20/20/20 19/19/19 17/17/17
f 18/18/18 21/21/21 15/15/15
f 18/18/18 19/19/19 21/21/21
f 21/21/21 22/22/22 15/15/15
f 23/23/23 22/22/22 21/21/21
f 19/19/19 20/20/20 24/24/24
f 19/19/19 24/24/24 21/21/21
f 20/20/20 25/25/25 24/24/24
f 26/26/26 23/23/23 21/21/21
f 26/26/26 21/21/21 24/24/24
f 27/27/27 23/23/23 26/26/26
f 28/28/28 24/24/24 25/25/25
f 28/28/28 26/26/26 24/24/24
f 29/29/29 28/28/28 25/25/25
f 30/30/30 27/27/27 26/26/26
f 30/30/30 26/26/26 28/28/28
f 31/31/31 27/27/27 30/30/30
f 32/32/32 28/28/28 29/29/29
f 32/32/32 30/30/30 28/28/28
f 33/33/33 32/32/32 29/29/29
f 34/34/34 31/31/31 30/30/30
f 34/34/34 30/30/30 32/32/32
f 35/35/35 31/31/31 34/34/34
f 36/36/36 32/32/32 33/33/33
f 36/36/36 34/34/34 32/32/32
f 37/37/37 36/36/36 33/33/33
f 38/38/38 35/35/35 34/34/34
f 38/38/38 34/34/34 36/36/36
f 39/39/39 35/35/35 38/38/38
f 40/40/40 36/36/36 37/37/37
f 40/40/40 38/38/38 36/36/36
f 41/41/41 40/40/40 37/37/37
f 42/42/42 39/39/39 38/38/38
f 42/42/42 38/38/38 40/40/40
f 43/43/43 39/39/39 42/42/42
f 44/44/44 43/43/43 42/42/42
f 45/45/45 40/40/40 41/41/41
f 45/45/45 42/42/42 40/40/40
f 44/44/44 42/42/42 45/45/45
f 46/46/46 45/45/45 41/41/41
f 47/47/47 44/44/44 45/45/45
f 47/47/47 45/45/45 46/46/46
f 48/48/48 47/47/47 46/46/46
