g eff_cmn_fan_01
v -2.4069884 0 0.47877842
v -2.7635965 0 1.1447171
v -2.9338176 0 0.5835709
v -2.267334 0 0.9391589
v -1.880159 0 0.37398595
v -2.040547 0 1.3634481
v -2.4871714 0 1.6618726
v -1.7710716 0 0.73360074
v -1.3533297 0 0.26919347
v -1.2748091 0 0.52804255
v -1.1472979 0 0.7665992
v -1.5939224 0 1.0650237
v -0.97569674 0 0.97569597
v -1.3555197 0 1.3555183
v -0.7666001 0 1.1472973
v -1.7353425 0 1.7353407
v -2.1151655 0 2.115163
v -1.0650251 0 1.5939213
v -0.5280435 0 1.2748086
v -1.36345 0 2.0405452
v -1.6618751 0 2.4871693
v -0.73360234 0 1.7710706
v -0.26919442 0 1.3533297
v -0.9391612 0 2.2673326
v -1.1447201 0 2.7635946
v -0.37398753 0 1.8801587
v -3.422081E-07 0 1.3798431
v -0.47878063 0 2.4069877
v -0.58357376 0 2.933817
v -6.0917506E-07 0 1.9169934
v 0.26919377 0 1.3533299
v -8.7614205E-07 0 2.4541435
v -1.143109E-06 0 2.991294
v 0.37398636 0 1.880159
v 0.5280429 0 1.274809
v 0.478779 0 2.4069881
v 0.5835716 0 2.9338174
v 0.73360133 0 1.7710712
v 0.76659954 0 1.1472977
v 0.9391597 0 2.2673335
v 1.144718 0 2.7635956
v 1.0650241 0 1.5939219
v 0.97569644 0 0.97569674
v 1.3634486 0 2.040546
v 1.6618732 0 2.4871702
v 1.355519 0 1.3555194
v 1.1472977 0 0.76659995
v 1.7353417 0 1.735342
v 2.1151643 0 2.1151648
v 1.5939218 0 1.0650246
v 1.2748091 0 0.5280432
v 2.040546 0 1.3634493
v 2.48717 0 1.661874
v 1.7710713 0 0.7336017
v 1.3533301 0 0.26919407
v 2.2673335 0 0.93916017
v 2.7635958 0 1.1447186
v 1.8801593 0 0.37398678
v 1.3798435 0 -1.1603419E-07
v 2.4069884 0 0.4787795
v 2.9338176 0 0.5835722
v 1.9169937 0 -2.9495533E-07
v 1.3533287 0 -0.2691933
v 1.8801572 0 -0.373986
v 2.454144 0 -4.7387647E-07
v 2.9912944 0 -6.527976E-07
v 2.4069858 0 -0.47877872
v 2.9338143 0 -0.58357143
vt 0.6666665 2.9802322E-08
vt 0.9999999 0.06249997
vt 0.9999999 0
vt 0.6666665 0.06250003
vt 0.3333334 0
vt 0.6666666 0.12499985
vt 0.9999999 0.12499985
vt 0.3333334 0.0625
vt 2.9802322E-08 1.1920929E-07
vt 2.9802322E-08 0.06250012
vt 0 0.125
vt 0.33333337 0.12499994
vt 0 0.18750012
vt 0.33333337 0.18750006
vt 0 0.25000006
vt 0.6666666 0.18750006
vt 1 0.18749997
vt 0.33333337 0.25000006
vt -2.9802322E-08 0.31250012
vt 0.6666666 0.25000006
vt 1 0.25000006
vt 0.33333337 0.31250012
vt -2.9802322E-08 0.37500012
vt 0.6666666 0.31250012
vt 1 0.31250006
vt 0.33333337 0.37500012
vt 0 0.43750012
vt 0.6666666 0.37500006
vt 1 0.37500003
vt 0.33333337 0.43750012
vt 0 0.49999988
vt 0.6666666 0.43750012
vt 1 0.4375001
vt 0.33333337 0.49999988
vt 0 0.5625002
vt 0.6666666 0.49999988
vt 1 0.49999985
vt 0.33333337 0.5625001
vt 0 0.6250001
vt 0.6666666 0.5625001
vt 1 0.56250006
vt 0.33333337 0.6250001
vt 0 0.68750024
vt 0.6666666 0.6250001
vt 1 0.6250001
vt 0.33333337 0.68750024
vt 0 0.75000036
vt 0.6666667 0.68750024
vt 1 0.68750024
vt 0.33333337 0.7500002
vt 0 0.8125001
vt 0.6666667 0.7500002
vt 1 0.7500001
vt 0.33333337 0.81249994
vt 5.9604645E-08 0.8750001
vt 0.6666667 0.81249994
vt 1 0.8124999
vt 0.33333337 0.87499994
vt 0 0.9375001
vt 0.6666667 0.875
vt 1 0.8749999
vt 0.33333337 0.9375001
vt 0 1
vt 0.33333337 1
vt 0.6666667 0.9375001
vt 1 0.9375
vt 0.6666667 1
vt 1 0.9999999
vn -0 1 0
vn -0 1 0
vn -0 1 0
vn -0 1 0
vn -0 1 0
vn -0 1 0
vn -0 1 0
vn -0 1 0
vn -0 1 0
vn -0 1 0
vn -0 1 0
vn -0 1 0
vn -0 1 0
vn -0 1 0
vn -0 1 0
vn -0 1 0
vn -0 1 0
vn -0 1 0
vn -0 1 0
vn -0 1 0
vn -0 1 0
vn -0 1 0
vn -0 1 0
vn -0 1 0
vn -0 1 0
vn -0 1 0
vn -0 1 0
vn -0 1 0
vn -0 1 0
vn -0 1 0
vn -0 1 0
vn -0 1 0
vn -0 1 0
vn -0 1 0
vn -0 1 0
vn -0 1 0
vn -0 1 0
vn -0 1 0
vn -0 1 0
vn -0 1 0
vn -0 1 0
vn -0 1 0
vn -0 1 0
vn -0 1 0
vn -0 1 0
vn -0 1 0
vn -0 1 0
vn -0 1 0
vn -0 1 0
vn -0 1 0
vn -0 1 0
vn -0 1 0
vn -0 1 0
vn -0 1 0
vn -0 1 0
vn -0 1 0
vn -0 1 0
vn -0 1 0
vn -0 1 0
vn -0 1 0
vn -0 1 0
vn -0 1 0
vn -0 1 0
vn -0 1 0
vn -0 1 0
vn -0 1 0
vn -0 1 0
vn -0 1 0
g eff_cmn_fan_01_0
f 3/3/3 2/2/2 1/1/1
f 2/2/2 4/4/4 1/1/1
f 1/1/1 4/4/4 5/5/5
f 6/6/6 4/4/4 2/2/2
f 7/7/7 6/6/6 2/2/2
f 4/4/4 8/8/8 5/5/5
f 5/5/5 8/8/8 9/9/9
f 8/8/8 10/10/10 9/9/9
f 11/11/11 10/10/10 8/8/8
f 12/12/12 8/8/8 4/4/4
f 12/12/12 11/11/11 8/8/8
f 6/6/6 12/12/12 4/4/4
f 13/13/13 11/11/11 12/12/12
f 14/14/14 13/13/13 12/12/12
f 14/14/14 12/12/12 6/6/6
f 15/15/15 13/13/13 14/14/14
f 16/16/16 6/6/6 7/7/7
f 16/16/16 14/14/14 6/6/6
f 17/17/17 16/16/16 7/7/7
f 18/18/18 15/15/15 14/14/14
f 18/18/18 14/14/14 16/16/16
f 19/19/19 15/15/15 18/18/18
f 20/20/20 16/16/16 17/17/17
f 20/20/20 18/18/18 16/16/16
f 21/21/21 20/20/20 17/17/17
f 22/22/22 19/19/19 18/18/18
f 22/22/22 18/18/18 20/20/20
f 23/23/23 19/19/19 22/22/22
f 24/24/24 20/20/20 21/21/21
f 24/24/24 22/22/22 20/20/20
f 25/25/25 24/24/24 21/21/21
f 26/26/26 23/23/23 22/22/22
f 26/26/26 22/22/22 24/24/24
f 27/27/27 23/23/23 26/26/26
f 28/28/28 24/24/24 25/25/25
f 28/28/28 26/26/26 24/24/24
f 29/29/29 28/28/28 25/25/25
f 30/30/30 27/27/27 26/26/26
f 30/30/30 26/26/26 28/28/28
f 31/31/31 27/27/27 30/30/30
f 32/32/32 28/28/28 29/29/29
f 32/32/32 30/30/30 28/28/28
f 33/33/33 32/32/32 29/29/29
f 34/34/34 31/31/31 30/30/30
f 34/34/34 30/30/30 32/32/32
f 35/35/35 31/31/31 34/34/34
f 36/36/36 32/32/32 33/33/33
f 36/36/36 34/34/34 32/32/32
f 37/37/37 36/36/36 33/33/33
f 38/38/38 35/35/35 34/34/34
f 38/38/38 34/34/34 36/36/36
f 39/39/39 35/35/35 38/38/38
f 40/40/40 36/36/36 37/37/37
f 40/40/40 38/38/38 36/36/36
f 41/41/41 40/40/40 37/37/37
f 42/42/42 39/39/39 38/38/38
f 42/42/42 38/38/38 40/40/40
f 43/43/43 39/39/39 42/42/42
f 44/44/44 40/40/40 41/41/41
f 44/44/44 42/42/42 40/40/40
f 45/45/45 44/44/44 41/41/41
f 46/46/46 43/43/43 42/42/42
f 46/46/46 42/42/42 44/44/44
f 47/47/47 43/43/43 46/46/46
f 48/48/48 44/44/44 45/45/45
f 48/48/48 46/46/46 44/44/44
f 49/49/49 48/48/48 45/45/45
f 50/50/50 47/47/47 46/46/46
f 50/50/50 46/46/46 48/48/48
f 51/51/51 47/47/47 50/50/50
f 52/52/52 48/48/48 49/49/49
f 52/52/52 50/50/50 48/48/48
f 53/53/53 52/52/52 49/49/49
f 54/54/54 51/51/51 50/50/50
f 54/54/54 50/50/50 52/52/52
f 55/55/55 51/51/51 54/54/54
f 56/56/56 52/52/52 53/53/53
f 56/56/56 54/54/54 52/52/52
f 57/57/57 56/56/56 53/53/53
f 58/58/58 55/55/55 54/54/54
f 58/58/58 54/54/54 56/56/56
f 59/59/59 55/55/55 58/58/58
f 60/60/60 56/56/56 57/57/57
f 60/60/60 58/58/58 56/56/56
f 61/61/61 60/60/60 57/57/57
f 62/62/62 59/59/59 58/58/58
f 62/62/62 58/58/58 60/60/60
f 63/63/63 59/59/59 62/62/62
f 64/64/64 63/63/63 62/62/62
f 65/65/65 60/60/60 61/61/61
f 65/65/65 62/62/62 60/60/60
f 64/64/64 62/62/62 65/65/65
f 66/66/66 65/65/65 61/61/61
f 67/67/67 64/64/64 65/65/65
f 67/67/67 65/65/65 66/66/66
f 68/68/68 67/67/67 66/66/66
