g eff_108301_lh_sphere_01
v -0.92387944 -0.38268343 8.497279E-17
v -0.9807852 4.331876E-17 -0.19509031
v -1 0 0
v -0.9061274 -0.37533027 -0.19509031
v -0.7071067 -0.7071068 1.5700926E-16
v -0.90612763 0.3753297 -0.19509031
v -0.92387974 0.38268286 -8.4972664E-17
v -0.69351983 -0.6935199 -0.19509035
v -0.38268328 -0.9238795 2.0514246E-16
v -0.6935202 0.6935194 -0.19509035
v -0.7071071 0.7071063 -1.5700914E-16
v -0.37533012 -0.9061274 -0.19509031
v 1.4901161E-07 -1 2.220446E-16
v -0.3753306 0.9061271 -0.19509038
v -0.3826839 0.9238792 -2.0514239E-16
v 1.590274E-07 -0.9807852 -0.19509035
v 0.3826836 -0.92387944 2.0514245E-16
v -4.949168E-07 0.98078513 -0.19509035
v -5.066395E-07 0.9999999 -2.2204458E-16
v 0.37533042 -0.9061273 -0.19509031
v 0.7071069 -0.7071066 1.570092E-16
v 0.37532982 0.9061275 -0.19509031
v 0.38268298 0.9238797 -2.051425E-16
v 0.69352 -0.69351965 -0.19509031
v 0.9238796 -0.38268313 8.4972724E-17
v 0.6935196 0.6935201 -0.19509031
v 0.7071065 0.70710707 -1.5700931E-16
v 0.90612745 -0.37532997 -0.19509031
v 1 3.5762787E-07 -7.940934E-23
v 0.9061272 0.37533057 -0.19509031
v 0.9238794 0.38268378 -8.497287E-17
v 0.9807852 3.5075612E-07 -0.19509031
v 0.35355294 0.8535535 -0.3826834
v 0.65328115 0.6532817 -0.3826834
v 0.8535531 0.35355368 -0.3826834
v 0.92387944 3.3040504E-07 -0.38268334
v 0.85355335 -0.3535531 -0.3826834
v 0.65328157 -0.6532812 -0.3826834
v -4.4745352E-07 0.9238794 -0.3826834
v 0.35355353 -0.85355324 -0.3826834
v -0.3535537 0.85355306 -0.3826834
v 1.6750703E-07 -0.92387944 -0.3826834
v -0.65328175 0.65328103 -0.3826834
v -0.35355324 -0.85355335 -0.3826834
v -0.85355353 0.35355285 -0.3826834
v -0.6532814 -0.65328145 -0.3826834
v -0.9238793 8.4972784E-17 -0.3826834
v -0.8535533 -0.35355338 -0.3826834
v -0.31819 0.76817757 -0.5555702
v -0.58793813 0.5879375 -0.5555702
v -0.7681779 0.3181892 -0.55557024
v -0.83146966 1.2336136E-16 -0.55557024
v -0.7681778 -0.31818968 -0.55557024
v -0.5879378 -0.58793783 -0.5555702
v -4.1797804E-07 0.83146954 -0.5555702
v -0.3181896 -0.7681778 -0.5555702
v 0.31818926 0.7681779 -0.5555702
v 1.049832E-07 -0.83146966 -0.5555702
v 0.5879376 0.5879381 -0.5555702
v 0.3181898 -0.7681777 -0.5555702
v 0.7681776 0.31818995 -0.55557024
v 0.58793795 -0.58793765 -0.5555702
v 0.83146966 2.973567E-07 -0.55557007
v 0.76817787 -0.3181894 -0.55557007
v 0.49999976 0.5000002 -0.70710677
v 0.6532814 0.2705983 -0.70710677
v 0.70710677 2.5288108E-07 -0.70710677
v 0.65328157 -0.27059785 -0.70710677
v 0.5 -0.49999985 -0.70710677
v 0.27059814 -0.6532814 -0.70710677
v 0.27059767 0.65328157 -0.70710677
v 4.7220762E-08 -0.70710677 -0.70710677
v -4.0469124E-07 0.7071067 -0.70710677
v -0.2705979 -0.65328145 -0.70710677
v -0.27059838 0.65328133 -0.70710677
v -0.49999988 -0.5 -0.70710677
v -0.50000024 0.49999967 -0.70710677
v -0.65328133 -0.27059805 -0.70710677
v -0.65328175 0.27059767 -0.70710677
v -0.70710677 1.5700924E-16 -0.70710677
v -3.2887772E-07 0.5555702 -0.83146954
v -0.2126078 0.51327986 -0.83146954
v -0.39284766 0.39284724 -0.83146954
v -0.51328003 0.21260722 -0.83146954
v -0.5555702 1.8462332E-16 -0.83146954
v -0.51328003 -0.21260755 -0.83146954
v 0.21260728 0.51328003 -0.83146954
v -0.39284745 -0.3928475 -0.83146954
v 0.39284724 0.39284766 -0.83146954
v -0.21260741 -0.51328 -0.83146954
v 0.51327986 0.21260773 -0.83146954
v 6.980147E-08 -0.55557024 -0.83146954
v 0.5555702 1.986874E-07 -0.83146954
v 0.21260767 -0.5132799 -0.83146954
v 0.51328003 -0.21260735 -0.83146954
v 0.3928476 -0.3928474 -0.83146954
v 0.3535534 0.14644675 -0.9238793
v 0.38268337 1.3685826E-07 -0.92387944
v 0.3535535 -0.1464465 -0.9238793
v 0.27059814 -0.270598 -0.92387944
v 0.14644669 -0.35355338 -0.92387944
v 9.556361E-08 -0.38268343 -0.92387944
v 0.2705979 0.27059814 -0.92387944
v -0.1464465 -0.3535534 -0.9238793
v 0.14644647 0.35355344 -0.92387944
v -0.27059793 -0.27059808 -0.9238793
v -2.638811E-07 0.3826834 -0.92387944
v -0.35355338 -0.14644663 -0.92387944
v -0.1464468 0.3535533 -0.9238796
v -0.38268352 2.0514245E-16 -0.92387944
v -0.27059823 0.2705979 -0.92387944
v -0.3535534 0.1464464 -0.92387944
v 0.07465774 0.18023999 -0.9807852
v -5.3747424E-08 0.19509031 -0.9807852
v -0 2.220446E-16 -1
v 0.1379497 0.13794975 -0.9807852
v -0.074657865 0.1802399 -0.9807852
v 0.18023995 0.0746579 -0.9807852
v -0.13794973 0.1379496 -0.9807852
v 0.19509032 6.976974E-08 -0.9807852
v -0.18024004 0.07465773 -0.9807852
v 0.18024005 -0.074657775 -0.9807852
v -0.19509032 2.1777806E-16 -0.9807852
v 0.13794976 -0.13794966 -0.9807852
v -0.18023992 -0.07465784 -0.9807852
v 0.074657924 -0.18023995 -0.9807852
v -0.13794966 -0.1379497 -0.9807852
v -2.9070724E-08 -0.19509032 -0.9807852
v -0.07465783 -0.18023996 -0.9807852
vt 0.91574574 0.32779247
vt 0.88880277 0.5
vt 0.95 0.5
vt 0.8592069 0.35121167
vt 0.81819797 0.18180194
vt 0.85920703 0.64878815
vt 0.91574585 0.67220724
vt 0.774925 0.22507492
vt 0.6722075 0.084254235
vt 0.7749252 0.7749249
vt 0.8181982 0.81819785
vt 0.64878833 0.14079309
vt 0.49999994 0.050000012
vt 0.6487886 0.8592068
vt 0.6722078 0.9157456
vt 0.49999994 0.11119723
vt 0.32779238 0.084254295
vt 0.5000002 0.88880277
vt 0.50000024 0.95
vt 0.35121155 0.14079311
vt 0.18180194 0.18180203
vt 0.3512118 0.85920703
vt 0.32779264 0.91574585
vt 0.22507487 0.22507504
vt 0.084254175 0.32779258
vt 0.22507505 0.7749252
vt 0.1818021 0.8181982
vt 0.14079303 0.35121173
vt 0.050000012 0.50000024
vt 0.14079311 0.64878845
vt 0.084254295 0.6722077
vt 0.1111972 0.5000001
vt 0.37359035 0.8051803
vt 0.2664252 0.733575
vt 0.19481981 0.62640995
vt 0.16967525 0.5000001
vt 0.19481973 0.3735903
vt 0.26642507 0.2664252
vt 0.5000002 0.8303247
vt 0.3735901 0.19481978
vt 0.62640995 0.8051802
vt 0.49999994 0.16967526
vt 0.7335749 0.7335747
vt 0.62640977 0.19481972
vt 0.8051803 0.6264096
vt 0.73357487 0.26642513
vt 0.8303247 0.5
vt 0.8051802 0.3735902
vt 0.6046823 0.7527251
vt 0.6934276 0.6934273
vt 0.75272524 0.6046821
vt 0.77354777 0.5
vt 0.7527252 0.3953178
vt 0.6934275 0.3065725
vt 0.5000001 0.77354777
vt 0.60468215 0.24727482
vt 0.3953179 0.7527253
vt 0.49999994 0.2264522
vt 0.3065726 0.6934276
vt 0.39531773 0.24727482
vt 0.24727483 0.6046823
vt 0.30657244 0.30657256
vt 0.22645219 0.5000001
vt 0.24727476 0.39531788
vt 0.34594378 0.6540564
vt 0.29871577 0.58337474
vt 0.2821315 0.5000001
vt 0.2987157 0.4166254
vt 0.34594366 0.34594375
vt 0.41662532 0.29871577
vt 0.4166254 0.7012843
vt 0.49999997 0.2821315
vt 0.5000001 0.71786845
vt 0.5833746 0.29871577
vt 0.58337474 0.70128417
vt 0.65405625 0.3459437
vt 0.6540564 0.6540562
vt 0.7012842 0.41662532
vt 0.7012843 0.58337456
vt 0.7178685 0.5
vt 0.50000006 0.66291
vt 0.562343 0.6505091
vt 0.6151948 0.6151947
vt 0.65050924 0.5623429
vt 0.66291 0.5
vt 0.6505092 0.43765706
vt 0.4376571 0.65050924
vt 0.61519474 0.38480523
vt 0.38480526 0.6151948
vt 0.5623429 0.3494908
vt 0.3494908 0.562343
vt 0.49999997 0.33709002
vt 0.33709 0.50000006
vt 0.43765703 0.3494908
vt 0.34949076 0.4376571
vt 0.38480523 0.38480526
vt 0.39983708 0.5414889
vt 0.39158443 0.50000006
vt 0.39983705 0.4585112
vt 0.4233386 0.42333865
vt 0.45851114 0.39983708
vt 0.49999997 0.39158446
vt 0.42333865 0.5766614
vt 0.54148877 0.39983708
vt 0.4585112 0.6001629
vt 0.57666135 0.4233386
vt 0.50000006 0.60841554
vt 0.60016286 0.45851117
vt 0.5414889 0.6001629
vt 0.60841554 0.5
vt 0.5766614 0.57666135
vt 0.6001629 0.54148877
vt 0.47926453 0.5500599
vt 0.5 0.55418444
vt 0.5 0.5
vt 0.46168584 0.53831416
vt 0.5207355 0.55005985
vt 0.44994012 0.5207355
vt 0.53831416 0.53831416
vt 0.44581556 0.5
vt 0.5500599 0.52073544
vt 0.44994012 0.47926453
vt 0.55418444 0.5
vt 0.4616858 0.46168584
vt 0.55005985 0.47926453
vt 0.47926453 0.44994015
vt 0.53831416 0.46168584
vt 0.49999997 0.44581556
vt 0.52073544 0.44994015
vn -0.9194308 -0.3808407 -0.09801726
vn -0.9816212 -2.5745794E-07 -0.19083996
vn -0.9951847 -3.375058E-07 -0.098017365
vn -0.9068997 -0.3756502 -0.19083981
vn -0.70370185 -0.7037019 -0.0980173
vn -0.90689975 0.37564993 -0.19083986
vn -0.9194309 0.3808405 -0.098017514
vn -0.694111 -0.69411117 -0.1908396
vn -0.38084066 -0.9194308 -0.09801768
vn -0.6941112 0.6941107 -0.19083974
vn -0.7037022 0.70370156 -0.0980175
vn -0.37565008 -0.90689975 -0.19083963
vn -0 -0.9951847 -0.09801779
vn -0.3756506 0.9068996 -0.19083977
vn -0.3808412 0.9194306 -0.098017424
vn 1.2534126E-07 -0.9816212 -0.1908398
vn 0.38084084 -0.9194307 -0.09801749
vn -5.6234194E-07 0.9816212 -0.1908398
vn -6.0883355E-07 0.9951847 -0.098017596
vn 0.3756504 -0.9068997 -0.19083983
vn 0.70370203 -0.7037017 -0.09801746
vn 0.37564966 0.90689987 -0.1908398
vn 0.38084024 0.919431 -0.09801754
vn 0.69411117 -0.6941107 -0.19083983
vn 0.9194309 -0.38084048 -0.09801749
vn 0.6941107 0.6941113 -0.19083977
vn 0.7037015 0.70370215 -0.09801741
vn 0.90689987 -0.37564996 -0.19083984
vn 0.9951847 2.44857E-07 -0.098017484
vn 0.9068996 0.3756505 -0.19083981
vn 0.9194306 0.38084108 -0.09801747
vn 0.9816212 2.4729493E-07 -0.19083983
vn 0.35481617 0.8566034 -0.3746148
vn 0.6556154 0.6556159 -0.37461472
vn 0.856603 0.3548169 -0.37461475
vn 0.9271806 2.6195514E-07 -0.3746148
vn 0.8566032 -0.35481635 -0.37461478
vn 0.65561587 -0.65561557 -0.37461472
vn -5.20322E-07 0.9271806 -0.3746147
vn 0.3548169 -0.856603 -0.37461478
vn -0.35481706 0.856603 -0.37461463
vn 1.7224447E-07 -0.9271806 -0.37461463
vn -0.6556159 0.6556154 -0.3746146
vn -0.35481656 -0.85660326 -0.3746145
vn -0.85660326 0.3548164 -0.3746147
vn -0.65561557 -0.6556158 -0.3746146
vn -0.9271806 -2.1530569E-07 -0.37461478
vn -0.8566031 -0.35481662 -0.3746147
vn -0.32098275 0.77491987 -0.54449
vn -0.5930983 0.59309787 -0.5444899
vn -0.77492005 0.32098216 -0.54449004
vn -0.83876735 -3.416126E-07 -0.54449004
vn -0.77491987 -0.32098234 -0.5444902
vn -0.593098 -0.5930979 -0.54449034
vn -4.8858493E-07 0.8387672 -0.5444902
vn -0.32098222 -0.77491975 -0.5444903
vn 0.32098183 0.77492 -0.5444904
vn 1.588894E-07 -0.8387671 -0.54449034
vn 0.59309775 0.59309816 -0.5444902
vn 0.32098252 -0.77491975 -0.54449016
vn 0.77491975 0.32098246 -0.5444901
vn 0.5930982 -0.59309787 -0.5444901
vn 0.8387673 2.02584E-07 -0.5444901
vn 0.77492 -0.32098204 -0.54449016
vn 0.50904155 0.509042 -0.6940843
vn 0.66509515 0.27549163 -0.6940841
vn 0.719894 1.4165224E-07 -0.69408405
vn 0.6650954 -0.27549124 -0.69408405
vn 0.50904214 -0.5090417 -0.69408405
vn 0.27549168 -0.6650952 -0.69408405
vn 0.2754911 0.6650953 -0.69408435
vn -0 -0.7198938 -0.69408417
vn -4.179903E-07 0.71989393 -0.69408405
vn -0.27549148 -0.6650952 -0.69408417
vn -0.27549183 0.6650952 -0.69408405
vn -0.5090418 -0.50904185 -0.6940842
vn -0.50904214 0.5090416 -0.6940841
vn -0.6650951 -0.2754916 -0.6940843
vn -0.6650953 0.27549124 -0.69408417
vn -0.7198939 -3.2510383E-07 -0.69408417
vn -3.7070907E-07 0.5756718 -0.8176809
vn -0.22030027 0.53185123 -0.8176809
vn -0.40706146 0.40706107 -0.81768095
vn -0.5318512 0.22029983 -0.8176811
vn -0.5756717 -1.11359306E-07 -0.81768095
vn -0.5318512 -0.22030011 -0.81768095
vn 0.22029968 0.5318514 -0.8176809
vn -0.40706095 -0.4070614 -0.81768113
vn 0.40706113 0.4070614 -0.8176811
vn -0.22030002 -0.53185105 -0.8176811
vn 0.5318511 0.22030017 -0.8176811
vn -1.09894E-07 -0.57567155 -0.81768095
vn 0.57567143 1.9341341E-07 -0.81768113
vn 0.22030006 -0.53185123 -0.81768095
vn 0.53185123 -0.22029981 -0.8176811
vn 0.4070615 -0.40706107 -0.81768095
vn 0.38222975 0.15832482 -0.910403
vn 0.41372216 1.6042776E-07 -0.9104032
vn 0.38222978 -0.15832447 -0.9104031
vn 0.29254606 -0.29254562 -0.9104032
vn 0.15832464 -0.38222957 -0.9104032
vn -2.0761235E-07 -0.41372222 -0.9104032
vn 0.29254603 0.29254577 -0.9104031
vn -0.15832464 -0.38222942 -0.9104032
vn 0.15832447 0.38222966 -0.9104031
vn -0.2925453 -0.292546 -0.9104032
vn -0 0.41372246 -0.9104031
vn -0.3822293 -0.15832488 -0.9104032
vn -0.15832485 0.38222954 -0.9104031
vn -0.4137225 0 -0.9104031
vn -0.29254627 0.2925457 -0.910403
vn -0.38222978 0.15832467 -0.9104031
vn 0.09602094 0.23181565 -0.968009
vn 6.367092E-07 0.25091535 -0.968009
vn 2.419048E-07 0 -1
vn 0.1774242 0.177424 -0.968009
vn -0.09602079 0.2318152 -0.9680091
vn 0.23181589 0.096021354 -0.9680089
vn -0.17742439 0.17742361 -0.968009
vn 0.25091574 1.3454049E-07 -0.9680089
vn -0.23181558 0.09602118 -0.968009
vn 0.23181584 -0.096021175 -0.968009
vn -0.25091535 0 -0.968009
vn 0.17742412 -0.17742383 -0.968009
vn -0.23181537 -0.09602156 -0.968009
vn 0.09602153 -0.23181552 -0.968009
vn -0.17742403 -0.17742462 -0.9680089
vn -0 -0.2509154 -0.968009
vn -0.096021645 -0.23181593 -0.9680089
g eff_108301_lh_sphere_01_0
f 3/3/3 2/2/2 1/1/1
f 2/2/2 4/4/4 1/1/1
f 1/1/1 4/4/4 5/5/5
f 6/6/6 2/2/2 3/3/3
f 7/7/7 6/6/6 3/3/3
f 4/4/4 8/8/8 5/5/5
f 5/5/5 8/8/8 9/9/9
f 10/10/10 6/6/6 7/7/7
f 11/11/11 10/10/10 7/7/7
f 8/8/8 12/12/12 9/9/9
f 9/9/9 12/12/12 13/13/13
f 14/14/14 10/10/10 11/11/11
f 15/15/15 14/14/14 11/11/11
f 12/12/12 16/16/16 13/13/13
f 13/13/13 16/16/16 17/17/17
f 18/18/18 14/14/14 15/15/15
f 19/19/19 18/18/18 15/15/15
f 16/16/16 20/20/20 17/17/17
f 17/17/17 20/20/20 21/21/21
f 22/22/22 18/18/18 19/19/19
f 23/23/23 22/22/22 19/19/19
f 20/20/20 24/24/24 21/21/21
f 21/21/21 24/24/24 25/25/25
f 26/26/26 22/22/22 23/23/23
f 27/27/27 26/26/26 23/23/23
f 24/24/24 28/28/28 25/25/25
f 25/25/25 28/28/28 29/29/29
f 30/30/30 26/26/26 27/27/27
f 31/31/31 30/30/30 27/27/27
f 29/29/29 32/32/32 31/31/31
f 28/28/28 32/32/32 29/29/29
f 32/32/32 30/30/30 31/31/31
f 22/22/22 33/33/33 18/18/18
f 26/26/26 34/34/34 22/22/22
f 34/34/34 33/33/33 22/22/22
f 30/30/30 35/35/35 26/26/26
f 35/35/35 34/34/34 26/26/26
f 32/32/32 36/36/36 30/30/30
f 36/36/36 35/35/35 30/30/30
f 28/28/28 37/37/37 32/32/32
f 37/37/37 36/36/36 32/32/32
f 24/24/24 38/38/38 28/28/28
f 38/38/38 37/37/37 28/28/28
f 33/33/33 39/39/39 18/18/18
f 18/18/18 39/39/39 14/14/14
f 40/40/40 38/38/38 24/24/24
f 20/20/20 40/40/40 24/24/24
f 39/39/39 41/41/41 14/14/14
f 14/14/14 41/41/41 10/10/10
f 42/42/42 40/40/40 20/20/20
f 16/16/16 42/42/42 20/20/20
f 41/41/41 43/43/43 10/10/10
f 10/10/10 43/43/43 6/6/6
f 44/44/44 42/42/42 16/16/16
f 12/12/12 44/44/44 16/16/16
f 43/43/43 45/45/45 6/6/6
f 6/6/6 45/45/45 2/2/2
f 46/46/46 44/44/44 12/12/12
f 8/8/8 46/46/46 12/12/12
f 45/45/45 47/47/47 2/2/2
f 2/2/2 47/47/47 4/4/4
f 4/4/4 48/48/48 8/8/8
f 48/48/48 46/46/46 8/8/8
f 47/47/47 48/48/48 4/4/4
f 41/41/41 49/49/49 43/43/43
f 43/43/43 50/50/50 45/45/45
f 49/49/49 50/50/50 43/43/43
f 45/45/45 51/51/51 47/47/47
f 50/50/50 51/51/51 45/45/45
f 47/47/47 52/52/52 48/48/48
f 51/51/51 52/52/52 47/47/47
f 48/48/48 53/53/53 46/46/46
f 52/52/52 53/53/53 48/48/48
f 46/46/46 54/54/54 44/44/44
f 53/53/53 54/54/54 46/46/46
f 55/55/55 49/49/49 41/41/41
f 39/39/39 55/55/55 41/41/41
f 54/54/54 56/56/56 44/44/44
f 44/44/44 56/56/56 42/42/42
f 57/57/57 55/55/55 39/39/39
f 33/33/33 57/57/57 39/39/39
f 56/56/56 58/58/58 42/42/42
f 42/42/42 58/58/58 40/40/40
f 59/59/59 57/57/57 33/33/33
f 34/34/34 59/59/59 33/33/33
f 58/58/58 60/60/60 40/40/40
f 40/40/40 60/60/60 38/38/38
f 61/61/61 59/59/59 34/34/34
f 35/35/35 61/61/61 34/34/34
f 60/60/60 62/62/62 38/38/38
f 38/38/38 62/62/62 37/37/37
f 63/63/63 61/61/61 35/35/35
f 36/36/36 63/63/63 35/35/35
f 37/37/37 64/64/64 36/36/36
f 62/62/62 64/64/64 37/37/37
f 64/64/64 63/63/63 36/36/36
f 59/59/59 65/65/65 57/57/57
f 61/61/61 66/66/66 59/59/59
f 66/66/66 65/65/65 59/59/59
f 63/63/63 67/67/67 61/61/61
f 67/67/67 66/66/66 61/61/61
f 64/64/64 68/68/68 63/63/63
f 68/68/68 67/67/67 63/63/63
f 62/62/62 69/69/69 64/64/64
f 69/69/69 68/68/68 64/64/64
f 60/60/60 70/70/70 62/62/62
f 70/70/70 69/69/69 62/62/62
f 65/65/65 71/71/71 57/57/57
f 57/57/57 71/71/71 55/55/55
f 72/72/72 70/70/70 60/60/60
f 58/58/58 72/72/72 60/60/60
f 71/71/71 73/73/73 55/55/55
f 55/55/55 73/73/73 49/49/49
f 74/74/74 72/72/72 58/58/58
f 56/56/56 74/74/74 58/58/58
f 73/73/73 75/75/75 49/49/49
f 49/49/49 75/75/75 50/50/50
f 76/76/76 74/74/74 56/56/56
f 54/54/54 76/76/76 56/56/56
f 75/75/75 77/77/77 50/50/50
f 50/50/50 77/77/77 51/51/51
f 78/78/78 76/76/76 54/54/54
f 53/53/53 78/78/78 54/54/54
f 77/77/77 79/79/79 51/51/51
f 51/51/51 79/79/79 52/52/52
f 52/52/52 80/80/80 53/53/53
f 80/80/80 78/78/78 53/53/53
f 79/79/79 80/80/80 52/52/52
f 73/73/73 81/81/81 75/75/75
f 75/75/75 82/82/82 77/77/77
f 81/81/81 82/82/82 75/75/75
f 77/77/77 83/83/83 79/79/79
f 82/82/82 83/83/83 77/77/77
f 79/79/79 84/84/84 80/80/80
f 83/83/83 84/84/84 79/79/79
f 80/80/80 85/85/85 78/78/78
f 84/84/84 85/85/85 80/80/80
f 78/78/78 86/86/86 76/76/76
f 85/85/85 86/86/86 78/78/78
f 87/87/87 81/81/81 73/73/73
f 71/71/71 87/87/87 73/73/73
f 86/86/86 88/88/88 76/76/76
f 76/76/76 88/88/88 74/74/74
f 89/89/89 87/87/87 71/71/71
f 65/65/65 89/89/89 71/71/71
f 88/88/88 90/90/90 74/74/74
f 74/74/74 90/90/90 72/72/72
f 91/91/91 89/89/89 65/65/65
f 66/66/66 91/91/91 65/65/65
f 90/90/90 92/92/92 72/72/72
f 72/72/72 92/92/92 70/70/70
f 93/93/93 91/91/91 66/66/66
f 67/67/67 93/93/93 66/66/66
f 92/92/92 94/94/94 70/70/70
f 70/70/70 94/94/94 69/69/69
f 95/95/95 93/93/93 67/67/67
f 68/68/68 95/95/95 67/67/67
f 69/69/69 96/96/96 68/68/68
f 94/94/94 96/96/96 69/69/69
f 96/96/96 95/95/95 68/68/68
f 91/91/91 97/97/97 89/89/89
f 93/93/93 98/98/98 91/91/91
f 98/98/98 97/97/97 91/91/91
f 95/95/95 99/99/99 93/93/93
f 99/99/99 98/98/98 93/93/93
f 96/96/96 100/100/100 95/95/95
f 100/100/100 99/99/99 95/95/95
f 94/94/94 101/101/101 96/96/96
f 101/101/101 100/100/100 96/96/96
f 92/92/92 102/102/102 94/94/94
f 102/102/102 101/101/101 94/94/94
f 97/97/97 103/103/103 89/89/89
f 89/89/89 103/103/103 87/87/87
f 104/104/104 102/102/102 92/92/92
f 90/90/90 104/104/104 92/92/92
f 103/103/103 105/105/105 87/87/87
f 87/87/87 105/105/105 81/81/81
f 106/106/106 104/104/104 90/90/90
f 88/88/88 106/106/106 90/90/90
f 105/105/105 107/107/107 81/81/81
f 81/81/81 107/107/107 82/82/82
f 108/108/108 106/106/106 88/88/88
f 86/86/86 108/108/108 88/88/88
f 107/107/107 109/109/109 82/82/82
f 82/82/82 109/109/109 83/83/83
f 110/110/110 108/108/108 86/86/86
f 85/85/85 110/110/110 86/86/86
f 109/109/109 111/111/111 83/83/83
f 83/83/83 111/111/111 84/84/84
f 84/84/84 112/112/112 85/85/85
f 112/112/112 110/110/110 85/85/85
f 111/111/111 112/112/112 84/84/84
f 105/105/105 113/113/113 107/107/107
f 107/107/107 114/114/114 109/109/109
f 113/113/113 114/114/114 107/107/107
f 113/113/113 115/115/115 114/114/114
f 116/116/116 113/113/113 105/105/105
f 116/116/116 115/115/115 113/113/113
f 103/103/103 116/116/116 105/105/105
f 114/114/114 117/117/117 109/109/109
f 109/109/109 117/117/117 111/111/111
f 114/114/114 115/115/115 117/117/117
f 118/118/118 116/116/116 103/103/103
f 118/118/118 115/115/115 116/116/116
f 97/97/97 118/118/118 103/103/103
f 117/117/117 119/119/119 111/111/111
f 111/111/111 119/119/119 112/112/112
f 117/117/117 115/115/115 119/119/119
f 120/120/120 118/118/118 97/97/97
f 120/120/120 115/115/115 118/118/118
f 98/98/98 120/120/120 97/97/97
f 119/119/119 121/121/121 112/112/112
f 119/119/119 115/115/115 121/121/121
f 122/122/122 115/115/115 120/120/120
f 122/122/122 120/120/120 98/98/98
f 121/121/121 115/115/115 123/123/123
f 112/112/112 121/121/121 110/110/110
f 121/121/121 123/123/123 110/110/110
f 99/99/99 122/122/122 98/98/98
f 110/110/110 123/123/123 108/108/108
f 124/124/124 122/122/122 99/99/99
f 124/124/124 115/115/115 122/122/122
f 100/100/100 124/124/124 99/99/99
f 123/123/123 125/125/125 108/108/108
f 123/123/123 115/115/115 125/125/125
f 108/108/108 125/125/125 106/106/106
f 126/126/126 124/124/124 100/100/100
f 126/126/126 115/115/115 124/124/124
f 101/101/101 126/126/126 100/100/100
f 125/125/125 127/127/127 106/106/106
f 125/125/125 115/115/115 127/127/127
f 106/106/106 127/127/127 104/104/104
f 128/128/128 126/126/126 101/101/101
f 128/128/128 115/115/115 126/126/126
f 102/102/102 128/128/128 101/101/101
f 104/104/104 129/129/129 102/102/102
f 127/127/127 129/129/129 104/104/104
f 127/127/127 115/115/115 129/129/129
f 129/129/129 128/128/128 102/102/102
f 129/129/129 115/115/115 128/128/128
