g eff_101501_dml_helix_01
v -0.35578522 -1.2087526 -1.0919049
v -0.36914963 -1.3809077 -1.1328256
v 0.034133606 -1.5263621 -1.2101457
v 0.032950517 -1.3542068 -1.1668015
v -0.33998033 -1.0820277 -1.0434175
v 0.03151866 -1.227482 -1.1152589
v -0.31893122 -0.9611481 -0.9787827
v 0.029590957 -1.1066025 -1.0464253
v -0.28236213 -0.8123572 -0.86641645
v 0.026214901 -0.95781153 -0.92658025
v -0.6909653 -1.0632981 -0.89375776
v -0.7171164 -1.2354532 -0.92756075
v -0.36914963 -1.3809077 -1.1328256
v -0.35578522 -1.2087526 -1.0919049
v -0.6601275 -0.9365732 -0.8538479
v -0.33998033 -1.0820277 -1.0434175
v -0.6191203 -0.8156937 -0.8007463
v -0.31893122 -0.9611481 -0.9787827
v -0.5479681 -0.6669027 -0.7085698
v -0.28236213 -0.8123572 -0.86641645
v -0.9356441 -0.9178435 -0.59928596
v -0.97136927 -1.0899987 -0.62217164
v -0.7171164 -1.2354532 -0.92756075
v -0.6909653 -1.0632981 -0.89375776
v -0.89366376 -0.7911187 -0.5723612
v -0.6601275 -0.9365732 -0.8538479
v -0.837942 -0.67023903 -0.5366027
v -0.6191203 -0.8156937 -0.8007463
v -0.74140495 -0.52144814 -0.47462568
v -0.5479681 -0.6669027 -0.7085698
v -1.064585 -0.7723889 -0.24570659
v -1.1056145 -0.94454414 -0.25519705
v -0.97136927 -1.0899987 -0.62217164
v -0.9356441 -0.9178435 -0.59928596
v -1.0165505 -0.64566404 -0.2345739
v -0.89366376 -0.7911187 -0.5723612
v -0.9529177 -0.52478445 -0.21981223
v -0.837942 -0.67023903 -0.5366027
v -0.84285194 -0.37599346 -0.19426115
v -0.74140495 -0.52144814 -0.47462568
v -1.0668215 -0.6269343 0.1241461
v -1.108339 -0.79908955 0.12894084
v -1.1056145 -0.94454414 -0.25519705
v -1.064585 -0.7723889 -0.24570659
v -1.0184035 -0.5002094 0.11856783
v -1.0165505 -0.64566404 -0.2345739
v -0.954393 -0.37932983 0.11120156
v -0.9529177 -0.52478445 -0.21981223
v -0.8438601 -0.23053877 0.09849234
v -0.84285194 -0.37599346 -0.19426115
v -0.9464625 -0.48147973 0.46700013
v -0.9836712 -0.65363485 0.4853042
v -1.108339 -0.79908955 0.12894084
v -1.0668215 -0.6269343 0.1241461
v -0.90324324 -0.35475475 0.44574344
v -1.0184035 -0.5002094 0.11856783
v -0.8462268 -0.23387514 0.41770348
v -0.954393 -0.37932983 0.11120156
v -0.7479439 -0.08508419 0.36937258
v -0.8438601 -0.23053877 0.09849234
v -0.72170603 -0.33602518 0.7442084
v -0.7503834 -0.5081803 0.7736964
v -0.9836712 -0.65363485 0.4853042
v -0.9464625 -0.48147973 0.46700013
v -0.6885357 -0.20930022 0.71009195
v -0.90324324 -0.35475475 0.44574344
v -0.64487344 -0.088420585 0.6651792
v -0.8462268 -0.23387514 0.41770348
v -0.5697492 0.060370333 0.58789575
v -0.7479439 -0.08508419 0.36937258
v -0.4222321 -0.19057062 0.9261009
v -0.43920982 -0.3627258 0.96319115
v -0.7503834 -0.5081803 0.7736964
v -0.72170603 -0.33602518 0.7442084
v -0.40268463 -0.06384572 0.88336104
v -0.6885357 -0.20930022 0.71009195
v -0.37701723 0.05703389 0.8272175
v -0.64487344 -0.088420585 0.6651792
v -0.3329434 0.20582482 0.7307834
v -0.5697492 0.060370333 0.58789575
v -0.08534111 -0.045116097 0.99513376
v -0.088854626 -0.21727125 1.0354238
v -0.43920982 -0.3627258 0.96319115
v -0.4222321 -0.19057062 0.9261009
v -0.08133107 0.08160885 0.94890016
v -0.40268463 -0.06384572 0.88336104
v -0.07608924 0.2024885 0.88830394
v -0.37701723 0.05703389 0.8272175
v -0.06712072 0.3512794 0.7844187
v -0.3329434 0.20582482 0.7307834
v 0.248674 0.100338414 0.9475118
v 0.25880367 -0.07181672 0.9863003
v -0.088854626 -0.21727125 1.0354238
v -0.08534111 -0.045116097 0.99513376
v 0.23707303 0.22706337 0.90319204
v -0.08133107 0.08160885 0.94890016
v 0.2218865 0.347943 0.8452401
v -0.07608924 0.2024885 0.88830394
v 0.19587973 0.49673393 0.74608314
v -0.06712072 0.3512794 0.7844187
v 0.5413439 0.24579297 0.7931359
v 0.5637154 0.073637865 0.8259728
v 0.25880367 -0.07181672 0.9863003
v 0.248674 0.100338414 0.9475118
v 0.51586276 0.3725179 0.7557828
v 0.23707303 0.22706337 0.90319204
v 0.4826035 0.49339747 0.7070587
v 0.2218865 0.347943 0.8452401
v 0.42578524 0.64218843 0.62386155
v 0.19587973 0.49673393 0.74608314
v 0.7604534 0.39124748 0.5539439
v 0.7922733 0.21909234 0.57714057
v 0.5637154 0.073637865 0.8259728
v 0.5413439 0.24579297 0.7931359
v 0.7243821 0.5179724 0.52767897
v 0.51586276 0.3725179 0.7557828
v 0.67742217 0.6388521 0.49350566
v 0.4826035 0.49339747 0.7070587
v 0.59737396 0.787643 0.43527985
v 0.42578524 0.64218843 0.62386155
v 0.88357675 0.5367021 0.26089516
v 0.9210057 0.36454695 0.27193922
v 0.7922733 0.21909234 0.57714057
v 0.7604534 0.39124748 0.5539439
v 0.84134454 0.663427 0.24845502
v 0.7243821 0.5179724 0.52767897
v 0.7865059 0.7843066 0.23231518
v 0.67742217 0.6388521 0.49350566
v 0.6932328 0.93309754 0.2048814
v 0.59737396 0.787643 0.43527985
v 0.90033084 0.6821568 -0.049995486
v 0.938946 0.51000166 -0.052169435
v 0.9210057 0.36454695 0.27193922
v 0.88357675 0.5367021 0.26089516
v 0.85696435 0.8088817 -0.047540765
v 0.84134454 0.663427 0.24845502
v 0.80080026 0.92976135 -0.04435303
v 0.7865059 0.7843066 0.23231518
v 0.7054869 1.0785522 -0.038932044
v 0.6932328 0.93309754 0.2048814
v 0.81312597 0.8276114 -0.34207204
v 0.848442 0.65545624 -0.35698318
v 0.938946 0.51000166 -0.052169435
v 0.90033084 0.6821568 -0.049995486
v 0.7736519 0.9543362 -0.32540002
v 0.85696435 0.8088817 -0.047540765
v 0.72266495 1.0752159 -0.30386215
v 0.80080026 0.92976135 -0.04435303
v 0.63633597 1.2240068 -0.26739055
v 0.7054869 1.0785522 -0.038932044
v 0.63637835 0.97306603 -0.58235866
v 0.6643683 0.8009109 -0.608062
v 0.848442 0.65545624 -0.35698318
v 0.81312597 0.8276114 -0.34207204
v 0.6052411 1.099791 -0.5537706
v 0.7736519 0.9543362 -0.32540002
v 0.56513107 1.2206707 -0.51694757
v 0.72266495 1.0752159 -0.30386215
v 0.4973771 1.3694617 -0.4547506
v 0.63633597 1.2240068 -0.26739055
v 0.39433745 1.1185204 -0.7452801
v 0.41189063 0.9463651 -0.7786168
v 0.6643683 0.8009109 -0.608062
v 0.63637835 0.97306603 -0.58235866
v 0.37490025 1.2452453 -0.708391
v 0.6052411 1.099791 -0.5537706
v 0.3499281 1.366125 -0.6610142
v 0.56513107 1.2206707 -0.51694757
v 0.30784306 1.5149161 -0.5811931
v 0.4973771 1.3694617 -0.4547506
v 0.12310304 1.0918196 -0.85234356
v 0.41189063 0.9463651 -0.7786168
v 0.39433745 1.1185204 -0.7452801
v 0.11783674 1.2639749 -0.81536
v 0.11202064 1.3906999 -0.77464557
v 0.37490025 1.2452453 -0.708391
v 0.1045609 1.5115794 -0.7225108
v 0.3499281 1.366125 -0.6610142
v 0.09200908 1.6603705 -0.63490033
v 0.30784306 1.5149161 -0.5811931
vt 0.7490672 0.054938406
vt 0.99806976 0.054938376
vt 0.99806976 -0.0006945729
vt 0.7490672 -0.00069463253
vt 0.5000647 0.054938436
vt 0.5000647 -0.00069463253
vt 0.25106215 0.054938436
vt 0.2510621 -0.0006945133
vt 0.0020596683 0.054938465
vt 0.0020595193 -0.0006943345
vt 0.7490672 0.110571355
vt 0.99806964 0.110571325
vt 0.99806976 0.054938376
vt 0.7490672 0.054938406
vt 0.5000647 0.110571384
vt 0.5000647 0.054938436
vt 0.25106215 0.110571444
vt 0.25106215 0.054938436
vt 0.0020596385 0.1105715
vt 0.0020596683 0.054938465
vt 0.74906737 0.16620445
vt 0.99806976 0.1662044
vt 0.99806964 0.110571325
vt 0.7490672 0.110571355
vt 0.50006485 0.16620451
vt 0.5000647 0.110571384
vt 0.25106233 0.16620445
vt 0.25106215 0.110571444
vt 0.0020597875 0.16620442
vt 0.0020596385 0.1105715
vt 0.74906737 0.22183734
vt 0.9980699 0.22183734
vt 0.99806976 0.1662044
vt 0.74906737 0.16620445
vt 0.50006485 0.22183734
vt 0.50006485 0.16620451
vt 0.25106233 0.2218374
vt 0.25106233 0.16620445
vt 0.0020597875 0.22183743
vt 0.0020597875 0.16620442
vt 0.74906737 0.27747047
vt 0.9980699 0.27747047
vt 0.9980699 0.22183734
vt 0.74906737 0.22183734
vt 0.50006485 0.27747047
vt 0.50006485 0.22183734
vt 0.25106233 0.2774705
vt 0.25106233 0.2218374
vt 0.0020597875 0.27747053
vt 0.0020597875 0.22183743
vt 0.74906737 0.3331033
vt 0.9980699 0.3331033
vt 0.9980699 0.27747047
vt 0.74906737 0.27747047
vt 0.50006485 0.3331033
vt 0.50006485 0.27747047
vt 0.25106233 0.3331033
vt 0.25106233 0.2774705
vt 0.0020597875 0.3331033
vt 0.0020597875 0.27747053
vt 0.74906737 0.3887363
vt 0.9980699 0.3887363
vt 0.9980699 0.3331033
vt 0.74906737 0.3331033
vt 0.50006485 0.3887363
vt 0.50006485 0.3331033
vt 0.25106233 0.38873637
vt 0.25106233 0.3331033
vt 0.0020597875 0.3887364
vt 0.0020597875 0.3331033
vt 0.7490674 0.4443692
vt 0.9980699 0.4443691
vt 0.9980699 0.3887363
vt 0.74906737 0.3887363
vt 0.500065 0.4443693
vt 0.50006485 0.3887363
vt 0.25106245 0.4443693
vt 0.25106233 0.38873637
vt 0.0020598173 0.4443693
vt 0.0020597875 0.3887364
vt 0.74906737 0.50000226
vt 0.9980699 0.50000226
vt 0.9980699 0.4443691
vt 0.7490674 0.4443692
vt 0.50006497 0.5000022
vt 0.500065 0.4443693
vt 0.2510624 0.5000022
vt 0.25106245 0.4443693
vt 0.0020598173 0.5000022
vt 0.0020598173 0.4443693
vt 0.74906737 0.5556348
vt 0.9980699 0.5556348
vt 0.9980699 0.50000226
vt 0.74906737 0.50000226
vt 0.50006497 0.5556348
vt 0.50006497 0.5000022
vt 0.25106245 0.5556348
vt 0.2510624 0.5000022
vt 0.0020599365 0.5556348
vt 0.0020598173 0.5000022
vt 0.74906737 0.6112671
vt 0.9980699 0.6112671
vt 0.9980699 0.5556348
vt 0.74906737 0.5556348
vt 0.50006485 0.6112671
vt 0.50006497 0.5556348
vt 0.25106245 0.6112671
vt 0.25106245 0.5556348
vt 0.0020600855 0.6112671
vt 0.0020599365 0.5556348
vt 0.74906737 0.6668997
vt 0.99806976 0.6668997
vt 0.9980699 0.6112671
vt 0.74906737 0.6112671
vt 0.50006485 0.6668996
vt 0.50006485 0.6112671
vt 0.25106233 0.6668996
vt 0.25106245 0.6112671
vt 0.0020598173 0.6668996
vt 0.0020600855 0.6112671
vt 0.74906737 0.72253215
vt 0.99806976 0.72253215
vt 0.99806976 0.6668997
vt 0.74906737 0.6668997
vt 0.50006485 0.72253215
vt 0.50006485 0.6668996
vt 0.25106233 0.72253215
vt 0.25106233 0.6668996
vt 0.002059877 0.72253215
vt 0.0020598173 0.6668996
vt 0.7490674 0.7781648
vt 0.99807006 0.7781648
vt 0.99806976 0.72253215
vt 0.74906737 0.72253215
vt 0.50006485 0.7781648
vt 0.50006485 0.72253215
vt 0.25106245 0.77816486
vt 0.25106233 0.72253215
vt 0.0020600855 0.77816486
vt 0.002059877 0.72253215
vt 0.74906725 0.83379734
vt 0.99806964 0.83379734
vt 0.99807006 0.7781648
vt 0.7490674 0.7781648
vt 0.50006485 0.83379734
vt 0.50006485 0.7781648
vt 0.25106233 0.83379734
vt 0.25106245 0.77816486
vt 0.002059877 0.83379734
vt 0.0020600855 0.77816486
vt 0.7490674 0.8894297
vt 0.9980699 0.88942975
vt 0.99806964 0.83379734
vt 0.74906725 0.83379734
vt 0.500065 0.8894297
vt 0.50006485 0.83379734
vt 0.25106245 0.8894297
vt 0.25106233 0.83379734
vt 0.002059877 0.8894297
vt 0.002059877 0.83379734
vt 0.7490674 0.9450624
vt 0.9980699 0.9450624
vt 0.9980699 0.88942975
vt 0.7490674 0.8894297
vt 0.500065 0.9450624
vt 0.500065 0.8894297
vt 0.25106245 0.9450624
vt 0.25106245 0.8894297
vt 0.0020597875 0.9450624
vt 0.002059877 0.8894297
vt 0.9980699 1.0006949
vt 0.9980699 0.9450624
vt 0.7490674 0.9450624
vt 0.74906737 1.0006949
vt 0.50006485 1.0006949
vt 0.500065 0.9450624
vt 0.25106233 1.0006948
vt 0.25106245 0.9450624
vt 0.0020598173 1.0006948
vt 0.0020597875 0.9450624
vn -0.0667725 0.30785087 -0.94908863
vn -0.09754062 0.23984122 -0.9658996
vn -0.09754063 0.23984122 -0.9658996
vn -0.07961264 0.27979323 -0.95675373
vn -0.0015337016 0.4353656 -0.90025246
vn -0.015655255 0.41002113 -0.9119417
vn 0.08177387 0.56126046 -0.82358956
vn 0.062073052 0.53431094 -0.8430058
vn 0.11355954 0.6033089 -0.78938115
vn 0.11355955 0.6033089 -0.7893812
vn -0.38204414 0.30542395 -0.8722146
vn -0.41662958 0.23821351 -0.8773107
vn -0.41662955 0.23821351 -0.8773107
vn -0.39687023 0.2773459 -0.8749705
vn -0.30451426 0.43126637 -0.84928226
vn -0.32196733 0.40579095 -0.85537755
vn -0.20037813 0.55610275 -0.80659676
vn -0.2259222 0.5288254 -0.8181094
vn -0.15915115 0.59770375 -0.78576154
vn -0.15915117 0.59770375 -0.78576154
vn -0.65338254 0.30299738 -0.6937462
vn -0.6875007 0.23658945 -0.6865626
vn -0.6875008 0.23658945 -0.6865626
vn -0.6683757 0.27489886 -0.6911618
vn -0.57334083 0.42714742 -0.6991605
vn -0.5919879 0.40154216 -0.6987948
vn -0.46151295 0.5508868 -0.69536287
vn -0.48983648 0.5232818 -0.6973065
vn -0.41612193 0.59201795 -0.69018644
vn -0.416122 0.5920179 -0.6901865
vn -0.8491519 0.30055895 -0.43428725
vn -0.8785961 0.23495546 -0.4157701
vn -0.8785961 0.23495546 -0.41577014
vn -0.86243856 0.27243966 -0.4265869
vn -0.7765473 0.4229974 -0.46695548
vn -0.79406023 0.397264 -0.46005404
vn -0.6709856 0.5456032 -0.5020911
vn -0.69858736 0.51767087 -0.49395624
vn -0.62711805 0.5862438 -0.51287544
vn -0.62711805 0.5862438 -0.5128754
vn -0.9464623 0.29809308 -0.12389405
vn -0.96761763 0.23329686 -0.09637841
vn -0.96761763 0.23329687 -0.09637841
vn -0.956344 0.2699537 -0.1119429
vn -0.89018524 0.41880375 -0.17936993
vn -0.9043309 0.39294362 -0.16667598
vn -0.8039329 0.5402413 -0.2486588
vn -0.82730013 0.5119824 -0.23118964
vn -0.7669711 0.58037084 -0.273724
vn -0.76697123 0.5803709 -0.27372402
vn -0.9338415 0.29559007 0.20141138
vn -0.94412583 0.23160417 0.23449087
vn -0.94412583 0.23160416 0.23449089
vn -0.93900883 0.26743212 0.21620008
vn -0.9006415 0.4145565 0.13033694
vn -0.90956247 0.38857192 0.14733617
vn -0.84422195 0.5347925 0.035865754
vn -0.8602707 0.5062082 0.060725484
vn -0.81858045 0.5743918 -6.5726E-05
vn -0.81858045 0.57439184 -6.5726E-05
vn -0.8125838 0.29304296 0.5038189
vn -0.8107617 0.22987092 0.538354
vn -0.8107616 0.22987093 0.5383539
vn -0.81228745 0.2648689 0.5196476
vn -0.8062617 0.41024843 0.4261905
vn -0.8087173 0.38414305 0.4454327
vn -0.78639674 0.52924806 0.31855416
vn -0.79287297 0.50034136 0.34786636
vn -0.774993 0.568298 0.2764474
vn -0.774993 0.5682981 0.2764474
vn -0.5966164 0.2904467 0.74812406
vn -0.5829479 0.22809297 0.7798368
vn -0.58294797 0.22809297 0.7798368
vn -0.5907737 0.26226047 0.7630242
vn -0.61759114 0.405874 0.6736821
vn -0.6131284 0.37965283 0.6927751
vn -0.6363974 0.5236023 0.5664264
vn -0.63218886 0.49437723 0.5965973
vn -0.64031845 0.5620842 0.52350116
vn -0.64031845 0.5620842 0.5235012
vn -0.31090084 0.28780285 0.9058202
vn -0.28710723 0.22627226 0.9307902
vn -0.28710726 0.2262723 0.9307902
vn -0.30012196 0.25960913 0.91789424
vn -0.35619748 0.4014339 0.84378564
vn -0.34522763 0.37510315 0.8602997
vn -0.41095906 0.5178532 0.75029373
vn -0.39627346 0.4883156 0.7775057
vn -0.42936307 0.55574757 0.71189314
vn -0.42936307 0.5557476 0.71189314
vn 0.011450787 0.28511688 0.9584243
vn 0.042401314 0.22441664 0.9735704
vn 0.042401314 0.22441666 0.9735704
vn 0.02592215 0.2569223 0.96608436
vn -0.052209754 0.39693165 0.91636205
vn -0.035977256 0.37049863 0.928136
vn -0.1357514 0.5120015 0.8481899
vn -0.112136036 0.4821593 0.8688774
vn -0.16601154 0.5492883 0.8189765
vn -0.1660115 0.54928833 0.81897646
vn 0.3330074 0.2823983 0.8996428
vn 0.36726588 0.22253646 0.90310204
vn 0.36726588 0.22253646 0.903102
vn 0.3494335 0.2542102 0.9018167
vn 0.25915402 0.3923743 0.88254267
vn 0.27870604 0.36584786 0.887963
vn 0.15754062 0.50605154 0.84799343
vn 0.1873513 0.4759141 0.859305
vn 0.11946979 0.54271 0.83138007
vn 0.11946979 0.54271007 0.83138007
vn 0.6163677 0.27965924 0.736126
vn 0.6496814 0.22064564 0.72748166
vn 0.6496813 0.22064562 0.72748166
vn 0.63272285 0.25148627 0.7324045
vn 0.5416617 0.3877726 0.7458117
vn 0.56212026 0.36116207 0.74403137
vn 0.43485942 0.5000104 0.7489239
vn 0.4672496 0.46958923 0.7491087
vn 0.39390728 0.5360185 0.7466735
vn 0.39390725 0.5360185 0.74667346
vn 0.82850605 0.27691394 0.48672003
vn 0.85674196 0.21875848 0.46705252
vn 0.85674196 0.21875851 0.46705252
vn 0.84272283 0.24876481 0.47742465
vn 0.76228416 0.38313812 0.52165884
vn 0.78105986 0.35645428 0.51272386
vn 0.66372764 0.49388668 0.56173086
vn 0.69463 0.46319473 0.5503996
vn 0.6250701 0.5292217 0.5737698
vn 0.62507004 0.5292217 0.5737698
vn 0.9446272 0.27417615 0.18029656
vn 0.96428275 0.21688838 0.15204729
vn 0.96428275 0.21688838 0.15204729
vn 0.9548543 0.24605937 0.16645707
vn 0.89506185 0.37848297 0.2358284
vn 0.9097112 0.35173753 0.22069512
vn 0.81705517 0.48768964 0.30753818
vn 0.8424544 0.45674074 0.28575963
vn 0.78545886 0.52232796 0.33200577
vn 0.78545886 0.522328 0.3320058
vn 0.9510673 0.27145648 -0.1475882
vn 0.95969987 0.21504642 -0.18091789
vn 0.95969987 0.21504642 -0.1809179
vn 0.95590615 0.24338076 -0.16434492
vn 0.9241624 0.37381858 -0.07863592
vn 0.9327017 0.3470227 -0.09819774
vn 0.87634873 0.48142892 0.015464133
vn 0.8927935 0.45023856 -0.014319726
vn 0.855581 0.51534593 0.0489858
vn 0.8555811 0.515346 0.04898581
vn 0.84690446 0.26876375 -0.4588234
vn 0.8434316 0.21324196 -0.4931035
vn 0.8434316 0.213242 -0.4931035
vn 0.8455947 0.24073766 -0.47646084
vn 0.8457745 0.36915246 -0.38521665
vn 0.8469424 0.34231737 -0.40682617
vn 0.8339471 0.47511256 -0.28071404
vn 0.8390104 0.44369623 -0.31495267
vn 0.82632315 0.5082836 -0.24256526
vn 0.8263231 0.5082836 -0.24256526
vn 0.6440872 0.2661022 -0.71717584
vn 0.6289204 0.21147807 -0.7481553
vn 0.6289203 0.21147807 -0.7481553
vn 0.63661903 0.2381337 -0.7334907
vn 0.66860193 0.3644904 -0.64816535
vn 0.66203755 0.33762696 -0.6691145
vn 0.6940044 0.46874467 -0.5464763
vn 0.6866285 0.43711928 -0.58092004
vn 0.7001287 0.50114495 -0.5085995
vn 0.70012873 0.50114495 -0.50859946
vn 0.34105685 0.20975319 -0.9163426
vn 0.34105685 0.20975317 -0.9163426
vn 0.35319868 0.23556791 -0.90540516
vn 0.36606517 0.263472 -0.89251256
vn 0.41290003 0.35983267 -0.83668035
vn 0.39921513 0.33295253 -0.8542657
vn 0.47210053 0.4623271 -0.7505829
vn 0.45278037 0.4305092 -0.780802
vn 0.4908331 0.49393278 -0.71771383
vn 0.49083316 0.49393278 -0.71771383
g eff_101501_dml_helix_01_0
f 3/3/3 2/2/2 1/1/1
f 4/4/4 3/3/3 1/1/1
f 4/4/4 1/1/1 5/5/5
f 6/6/6 4/4/4 5/5/5
f 6/6/6 5/5/5 7/7/7
f 8/8/8 6/6/6 7/7/7
f 8/8/8 7/7/7 9/9/9
f 10/10/10 8/8/8 9/9/9
f 13/13/13 12/12/12 11/11/11
f 14/14/14 13/13/13 11/11/11
f 14/14/14 11/11/11 15/15/15
f 16/16/16 14/14/14 15/15/15
f 16/16/16 15/15/15 17/17/17
f 18/18/18 16/16/16 17/17/17
f 18/18/18 17/17/17 19/19/19
f 20/20/20 18/18/18 19/19/19
f 23/23/23 22/22/22 21/21/21
f 24/24/24 23/23/23 21/21/21
f 24/24/24 21/21/21 25/25/25
f 26/26/26 24/24/24 25/25/25
f 26/26/26 25/25/25 27/27/27
f 28/28/28 26/26/26 27/27/27
f 28/28/28 27/27/27 29/29/29
f 30/30/30 28/28/28 29/29/29
f 33/33/33 32/32/32 31/31/31
f 34/34/34 33/33/33 31/31/31
f 34/34/34 31/31/31 35/35/35
f 36/36/36 34/34/34 35/35/35
f 36/36/36 35/35/35 37/37/37
f 38/38/38 36/36/36 37/37/37
f 38/38/38 37/37/37 39/39/39
f 40/40/40 38/38/38 39/39/39
f 43/43/43 42/42/42 41/41/41
f 44/44/44 43/43/43 41/41/41
f 44/44/44 41/41/41 45/45/45
f 46/46/46 44/44/44 45/45/45
f 46/46/46 45/45/45 47/47/47
f 48/48/48 46/46/46 47/47/47
f 48/48/48 47/47/47 49/49/49
f 50/50/50 48/48/48 49/49/49
f 53/53/53 52/52/52 51/51/51
f 54/54/54 53/53/53 51/51/51
f 54/54/54 51/51/51 55/55/55
f 56/56/56 54/54/54 55/55/55
f 56/56/56 55/55/55 57/57/57
f 58/58/58 56/56/56 57/57/57
f 58/58/58 57/57/57 59/59/59
f 60/60/60 58/58/58 59/59/59
f 63/63/63 62/62/62 61/61/61
f 64/64/64 63/63/63 61/61/61
f 64/64/64 61/61/61 65/65/65
f 66/66/66 64/64/64 65/65/65
f 66/66/66 65/65/65 67/67/67
f 68/68/68 66/66/66 67/67/67
f 68/68/68 67/67/67 69/69/69
f 70/70/70 68/68/68 69/69/69
f 73/73/73 72/72/72 71/71/71
f 74/74/74 73/73/73 71/71/71
f 74/74/74 71/71/71 75/75/75
f 76/76/76 74/74/74 75/75/75
f 76/76/76 75/75/75 77/77/77
f 78/78/78 76/76/76 77/77/77
f 78/78/78 77/77/77 79/79/79
f 80/80/80 78/78/78 79/79/79
f 83/83/83 82/82/82 81/81/81
f 84/84/84 83/83/83 81/81/81
f 84/84/84 81/81/81 85/85/85
f 86/86/86 84/84/84 85/85/85
f 86/86/86 85/85/85 87/87/87
f 88/88/88 86/86/86 87/87/87
f 88/88/88 87/87/87 89/89/89
f 90/90/90 88/88/88 89/89/89
f 93/93/93 92/92/92 91/91/91
f 94/94/94 93/93/93 91/91/91
f 94/94/94 91/91/91 95/95/95
f 96/96/96 94/94/94 95/95/95
f 96/96/96 95/95/95 97/97/97
f 98/98/98 96/96/96 97/97/97
f 98/98/98 97/97/97 99/99/99
f 100/100/100 98/98/98 99/99/99
f 103/103/103 102/102/102 101/101/101
f 104/104/104 103/103/103 101/101/101
f 104/104/104 101/101/101 105/105/105
f 106/106/106 104/104/104 105/105/105
f 106/106/106 105/105/105 107/107/107
f 108/108/108 106/106/106 107/107/107
f 108/108/108 107/107/107 109/109/109
f 110/110/110 108/108/108 109/109/109
f 113/113/113 112/112/112 111/111/111
f 114/114/114 113/113/113 111/111/111
f 114/114/114 111/111/111 115/115/115
f 116/116/116 114/114/114 115/115/115
f 116/116/116 115/115/115 117/117/117
f 118/118/118 116/116/116 117/117/117
f 118/118/118 117/117/117 119/119/119
f 120/120/120 118/118/118 119/119/119
f 123/123/123 122/122/122 121/121/121
f 124/124/124 123/123/123 121/121/121
f 124/124/124 121/121/121 125/125/125
f 126/126/126 124/124/124 125/125/125
f 126/126/126 125/125/125 127/127/127
f 128/128/128 126/126/126 127/127/127
f 128/128/128 127/127/127 129/129/129
f 130/130/130 128/128/128 129/129/129
f 133/133/133 132/132/132 131/131/131
f 134/134/134 133/133/133 131/131/131
f 134/134/134 131/131/131 135/135/135
f 136/136/136 134/134/134 135/135/135
f 136/136/136 135/135/135 137/137/137
f 138/138/138 136/136/136 137/137/137
f 138/138/138 137/137/137 139/139/139
f 140/140/140 138/138/138 139/139/139
f 143/143/143 142/142/142 141/141/141
f 144/144/144 143/143/143 141/141/141
f 144/144/144 141/141/141 145/145/145
f 146/146/146 144/144/144 145/145/145
f 146/146/146 145/145/145 147/147/147
f 148/148/148 146/146/146 147/147/147
f 148/148/148 147/147/147 149/149/149
f 150/150/150 148/148/148 149/149/149
f 153/153/153 152/152/152 151/151/151
f 154/154/154 153/153/153 151/151/151
f 154/154/154 151/151/151 155/155/155
f 156/156/156 154/154/154 155/155/155
f 156/156/156 155/155/155 157/157/157
f 158/158/158 156/156/156 157/157/157
f 158/158/158 157/157/157 159/159/159
f 160/160/160 158/158/158 159/159/159
f 163/163/163 162/162/162 161/161/161
f 164/164/164 163/163/163 161/161/161
f 164/164/164 161/161/161 165/165/165
f 166/166/166 164/164/164 165/165/165
f 166/166/166 165/165/165 167/167/167
f 168/168/168 166/166/166 167/167/167
f 168/168/168 167/167/167 169/169/169
f 170/170/170 168/168/168 169/169/169
f 173/173/173 172/172/172 171/171/171
f 174/174/174 173/173/173 171/171/171
f 174/174/174 175/175/175 173/173/173
f 175/175/175 176/176/176 173/173/173
f 175/175/175 177/177/177 176/176/176
f 177/177/177 178/178/178 176/176/176
f 177/177/177 179/179/179 178/178/178
f 179/179/179 180/180/180 178/178/178
