g eff_cmn_disc_07
v -2.3771966 0 -0.65648466
v -2.3037815 0 -0.19299366
v -1.9548774 0 -0.31134567
v -2.0095356 0 -0.65642065
v -2.3037815 0 -1.1199746
v -1.6418744 0 -0.6563557
v -1.6059724 0 -0.42969766
v -1.9548774 0 -1.0014946
v -2.0907223 0 -1.5380957
v -1.7962514 0 -1.3127906
v -1.5017815 0 -1.0874866
v -1.6059724 0 -0.8830147
v -1.2073104 0 -0.86218166
v -1.2570674 0 -0.76453465
v -1.2742134 0 -0.65629166
v -1.2570674 0 -0.5480487
v -1.7588744 0 -1.8699176
v -2.0907223 0 -1.5380957
v -1.7962514 0 -1.3127906
v -1.5491865 0 -1.5598366
v -1.3407224 0 -2.0829608
v -1.3394984 0 -1.2497567
v -1.5017815 0 -1.0874866
v -1.2378664 0 -1.7184497
v -0.87719643 0 -2.1563709
v -0.8927664 0 -1.7731047
v -0.90833545 0 -1.3898387
v -1.1350114 0 -1.3539397
v -0.92390543 0 -1.0065726
v -1.0321565 0 -0.98942864
v -1.1298114 0 -0.9396756
v -1.2073104 0 -0.86218166
v -0.4136704 0 -2.0829608
v -0.87719643 0 -2.1563709
v -0.8927664 0 -1.7731047
v -0.5476654 0 -1.7184497
v -0.68165946 0 -1.3539397
v -0.90833545 0 -1.3898387
v -0.81565446 0 -0.98942864
v -0.92390543 0 -1.0065726
v 0.0044816406 0 -1.8699176
v -0.5476654 0 -1.7184497
v -0.23634541 0 -1.5598366
v -0.4771724 0 -1.2497556
v -0.68165946 0 -1.3539397
v -0.71799946 0 -0.9396756
v -0.81565446 0 -0.98942864
v 0.010719401 0 -1.3127906
v 0.3363296 0 -1.5380957
v -0.23634541 0 -1.5598366
v -0.3148904 0 -1.0874866
v -0.4771724 0 -1.2497556
v -0.6405004 0 -0.86218166
v -1.5017815 0 -0.22522566
v -1.2073104 0 -0.45040166
v -1.2570674 0 -0.5480487
v -1.6059724 0 -0.42969766
v -1.3394995 0 -0.06295596
v -1.1298114 0 -0.37290865
v -1.7962514 0 -4.9458202E-05
v -1.9548774 0 -0.31134567
v -2.3037815 0 -0.19299366
v -2.0907223 0 0.22512634
v -1.5491865 0 0.24699634
v -1.7588744 0 0.5569493
v -1.2378664 0 0.40561035
v -1.3407224 0 0.76999235
v -1.1350114 0 0.041227743
v -1.0321565 0 -0.32315466
v -0.8927664 0 0.46026435
v -0.87719643 0 0.8434023
v -0.90833545 0 0.07712694
v -0.92390543 0 -0.30601066
v -0.5476654 0 0.40561035
v -0.4136704 0 0.76999235
v -0.68165946 0 0.041227743
v -0.81565446 0 -0.32315466
v -0.23634541 0 0.24699734
v 0.004482171 0 0.5569493
v 0.3363296 0 0.22512734
v 0.01071998 0 -4.92645E-05
v -0.4771724 0 -0.06295576
v -0.71799946 0 -0.37290865
v -0.3148904 0 -0.22522566
v -0.6405004 0 -0.45040166
vt 0.9999999 0.49999988
vt 1 0.4374999
vt 0.6666667 0.43749988
vt 0.6666666 0.49999985
vt 1 0.5624998
vt 0.33333334 0.49999988
vt 0.3333334 0.43749988
vt 0.6666666 0.56249976
vt 1 0.6249999
vt 0.6666666 0.6249998
vt 0.33333337 0.62499976
vt 0.33333337 0.5624998
vt 8.940697E-08 0.62499976
vt 8.940697E-08 0.5624998
vt 8.940697E-08 0.49999988
vt 1.4901161E-07 0.43749985
vt 1 0.68749976
vt 0.9999999 0.6249999
vt 0.6666666 0.6249999
vt 0.6666666 0.68749976
vt 1 0.74999976
vt 0.33333334 0.68749976
vt 0.33333337 0.6249999
vt 0.6666666 0.74999976
vt 1 0.81249976
vt 0.6666667 0.81249964
vt 0.3333334 0.81249964
vt 0.33333334 0.74999976
vt 1.4901161E-07 0.81249964
vt 2.9802322E-08 0.74999976
vt 2.9802322E-08 0.68749976
vt 1.4901161E-07 0.6249999
vt 1 0.8749998
vt 0.9999999 0.81249976
vt 0.6666666 0.81249964
vt 0.6666666 0.87499976
vt 0.33333337 0.87499976
vt 0.33333334 0.81249964
vt 8.940697E-08 0.8749997
vt 8.940697E-08 0.81249964
vt 0.9999999 0.9374999
vt 0.6666667 0.8749998
vt 0.6666666 0.93749976
vt 0.33333334 0.93749976
vt 0.3333334 0.8749999
vt 2.9802322E-08 0.9374999
vt 1.4901161E-07 0.8749998
vt 0.6666666 0.9999999
vt 1 0.99999994
vt 0.6666666 0.9374999
vt 0.33333334 0.9999999
vt 0.33333334 0.9374999
vt 2.9802322E-08 0.9999999
vt 0.33333337 0.37499988
vt 1.4901161E-07 0.37499988
vt 1.4901161E-07 0.43749985
vt 0.33333337 0.43749988
vt 0.33333337 0.31249988
vt 8.940697E-08 0.31249988
vt 0.6666666 0.37499988
vt 0.6666666 0.43749988
vt 0.9999999 0.4374999
vt 0.9999999 0.37499988
vt 0.6666666 0.31249988
vt 1 0.3124999
vt 0.6666666 0.24999991
vt 1 0.24999994
vt 0.33333334 0.24999991
vt 5.9604645E-08 0.24999988
vt 0.6666666 0.18749994
vt 0.9999999 0.18749997
vt 0.33333337 0.18749993
vt 1.1920929E-07 0.18749991
vt 0.6666666 0.12499997
vt 0.9999999 0.125
vt 0.33333337 0.12499994
vt 1.4901161E-07 0.12499991
vt 0.6666666 0.06249996
vt 0.9999999 0.06249997
vt 0.9999999 2.9802322E-08
vt 0.6666667 1.9868216E-08
vt 0.33333337 0.062499948
vt 1.1920929E-07 0.06249994
vt 0.3333334 9.934108E-09
vt 1.1920929E-07 0
vn -0 -1 0
vn -0 -1 0
vn -0 -1 0
vn -0 -1 0
vn -0 -1 0
vn -0 -1 0
vn -0 -1 0
vn -0 -1 0
vn -0 -1 0
vn -0 -1 0
vn -0 -1 0
vn -0 -1 0
vn -0.03200185 -0.9994281 -0.010923437
vn -0.037620425 -0.99929214 0.00010282175
vn -0.03955647 -0.99914134 0.012325508
vn -0.037620436 -0.9989905 0.024548188
vn -0 -1 0
vn -0 -1 0
vn -0 -1 0
vn -0 -1 0
vn -0 -1 0
vn -0 -1 0
vn -0 -1 0
vn -0 -1 0
vn -0 -1 0
vn -0 -1 0
vn -0 -1 0
vn -0 -1 0
vn -0 -0.99962926 -0.027227957
vn -0.012223623 -0.99960536 -0.025292067
vn -0.023250705 -0.99953604 -0.019673914
vn -0.03200185 -0.9994281 -0.010923437
vn -0 -1 0
vn -0 -1 0
vn -0 -1 0
vn -0 -1 0
vn -0 -1 0
vn -0 -1 0
vn 0.012223631 -0.99960536 -0.025292074
vn -0 -0.99962926 -0.027227957
vn 0.5877853 -0.009977896 -0.80895543
vn -0 -1 0
vn -0 -1 0
vn -0 -1 0
vn -0 -1 0
vn 0.023250714 -0.99953604 -0.019673921
vn 0.012223631 -0.99960536 -0.025292074
vn -0 -1 0
vn 0.809017 -0.007248969 -0.58774054
vn -0 -1 0
vn -0 -1 0
vn -0 -1 0
vn 0.032001864 -0.9994281 -0.010923437
vn -0 -1 0
vn -0.03200185 -0.9988545 0.035574432
vn -0.037620436 -0.9989905 0.024548188
vn -0 -1 0
vn -0 -1 0
vn -0.023250708 -0.9987465 0.04432491
vn -0 -1 0
vn -0 -1 0
vn -0 -1 0
vn -0 -1 0
vn -0 -1 0
vn -0 -1 0
vn -0 -1 0
vn -0 -1 0
vn -0 -1 0
vn -0.012223626 -0.9986772 0.049943063
vn -0 -1 0
vn -0 -1 0
vn -0 -1 0
vn -0 -0.9986534 0.051878955
vn -0 -1 0
vn -0 -1 0
vn -0 -1 0
vn 0.012223605 -0.9986772 0.04994306
vn -0 -1 0
vn -0 -1 0
vn 0.70710677 0.008726117 0.7070529
vn -0 -1 0
vn -0 -1 0
vn 0.023250693 -0.9987465 0.044324912
vn -0 -1 0
vn 0.028318744 -0.9987723 0.040641848
g eff_cmn_disc_07_0
f 3/3/3 2/2/2 1/1/1
f 4/4/4 3/3/3 1/1/1
f 4/4/4 1/1/1 5/5/5
f 4/4/4 6/6/6 3/3/3
f 6/6/6 7/7/7 3/3/3
f 8/8/8 4/4/4 5/5/5
f 8/8/8 5/5/5 9/9/9
f 10/10/10 8/8/8 9/9/9
f 10/10/10 11/11/11 8/8/8
f 8/8/8 12/12/12 4/4/4
f 11/11/11 12/12/12 8/8/8
f 12/12/12 6/6/6 4/4/4
f 11/11/11 13/13/13 12/12/12
f 13/13/13 14/14/14 12/12/12
f 12/12/12 14/14/14 6/6/6
f 14/14/14 15/15/15 6/6/6
f 6/6/6 15/15/15 7/7/7
f 15/15/15 16/16/16 7/7/7
f 19/19/19 18/18/18 17/17/17
f 20/20/20 19/19/19 17/17/17
f 20/20/20 17/17/17 21/21/21
f 20/20/20 22/22/22 19/19/19
f 22/22/22 23/23/23 19/19/19
f 24/24/24 20/20/20 21/21/21
f 24/24/24 21/21/21 25/25/25
f 26/26/26 24/24/24 25/25/25
f 26/26/26 27/27/27 24/24/24
f 24/24/24 28/28/28 20/20/20
f 27/27/27 28/28/28 24/24/24
f 28/28/28 22/22/22 20/20/20
f 27/27/27 29/29/29 28/28/28
f 29/29/29 30/30/30 28/28/28
f 28/28/28 30/30/30 22/22/22
f 30/30/30 31/31/31 22/22/22
f 22/22/22 31/31/31 23/23/23
f 31/31/31 32/32/32 23/23/23
f 35/35/35 34/34/34 33/33/33
f 36/36/36 35/35/35 33/33/33
f 36/36/36 37/37/37 35/35/35
f 37/37/37 38/38/38 35/35/35
f 37/37/37 39/39/39 38/38/38
f 39/39/39 40/40/40 38/38/38
f 42/42/42 33/33/33 41/41/41
f 43/43/43 42/42/42 41/41/41
f 43/43/43 44/44/44 42/42/42
f 44/44/44 45/45/45 42/42/42
f 44/44/44 46/46/46 45/45/45
f 46/46/46 47/47/47 45/45/45
f 41/41/41 49/49/49 48/48/48
f 50/50/50 41/41/41 48/48/48
f 50/50/50 48/48/48 51/51/51
f 52/52/52 50/50/50 51/51/51
f 46/46/46 52/52/52 53/53/53
f 52/52/52 51/51/51 53/53/53
f 56/56/56 55/55/55 54/54/54
f 57/57/57 56/56/56 54/54/54
f 54/54/54 55/55/55 58/58/58
f 55/55/55 59/59/59 58/58/58
f 57/57/57 54/54/54 60/60/60
f 61/61/61 57/57/57 60/60/60
f 61/61/61 60/60/60 62/62/62
f 60/60/60 63/63/63 62/62/62
f 60/60/60 54/54/54 64/64/64
f 60/60/60 64/64/64 63/63/63
f 54/54/54 58/58/58 64/64/64
f 64/64/64 65/65/65 63/63/63
f 64/64/64 66/66/66 65/65/65
f 64/64/64 58/58/58 66/66/66
f 66/66/66 67/67/67 65/65/65
f 58/58/58 59/59/59 68/68/68
f 58/58/58 68/68/68 66/66/66
f 59/59/59 69/69/69 68/68/68
f 66/66/66 70/70/70 67/67/67
f 66/66/66 68/68/68 70/70/70
f 70/70/70 71/71/71 67/67/67
f 68/68/68 69/69/69 72/72/72
f 68/68/68 72/72/72 70/70/70
f 69/69/69 73/73/73 72/72/72
f 70/70/70 74/74/74 71/71/71
f 70/70/70 72/72/72 74/74/74
f 74/74/74 75/75/75 71/71/71
f 72/72/72 73/73/73 76/76/76
f 72/72/72 76/76/76 74/74/74
f 73/73/73 77/77/77 76/76/76
f 74/74/74 78/78/78 75/75/75
f 74/74/74 76/76/76 78/78/78
f 78/78/78 79/79/79 75/75/75
f 80/80/80 79/79/79 78/78/78
f 81/81/81 80/80/80 78/78/78
f 76/76/76 77/77/77 82/82/82
f 76/76/76 82/82/82 78/78/78
f 81/81/81 78/78/78 82/82/82
f 77/77/77 83/83/83 82/82/82
f 84/84/84 81/81/81 82/82/82
f 82/82/82 83/83/83 85/85/85
f 84/84/84 82/82/82 85/85/85
