g eff_cmn_cylinder_01
v 0.95105714 0 -0.30901718
v 0.95105714 2 -0.30901718
v 0.80901754 2 -0.5877856
v 0.80901754 0 -0.5877856
v 0.5877856 2 -0.8090175
v 0.5877856 0 -0.8090175
v 0.30901715 2 -0.951057
v 0.30901715 0 -0.951057
v -0 2 -1.0000005
v -0 0 -1.0000005
v -0.30901715 2 -0.95105696
v -0.30901715 0 -0.95105696
v -0.5877855 2 -0.8090173
v -0.5877855 0 -0.8090173
v -0.80901724 2 -0.5877854
v -0.80901724 0 -0.5877854
v -0.9510568 2 -0.30901706
v -0.9510568 0 -0.30901706
v -1.0000002 2 0
v -1.0000002 0 0
v -0.9510568 2 0.30901706
v -0.9510568 0 0.30901706
v -0.8090172 2 0.58778536
v -0.8090172 0 0.58778536
v -0.58778536 2 0.8090171
v -0.58778536 0 0.8090171
v -0.30901706 2 0.95105666
v -0.30901706 0 0.95105666
v -2.9802322E-08 2 1.0000001
v -2.9802322E-08 0 1.0000001
v 0.30901697 2 0.9510566
v 0.30901697 0 0.9510566
v 0.58778524 2 0.80901706
v 0.58778524 0 0.80901706
v 0.809017 2 0.5877853
v 0.809017 0 0.5877853
v 0.95105654 2 0.309017
v 0.95105654 0 0.309017
v 1 2 0
v 1 0 0
v 0.95105714 2 -0.30901718
v 0.95105714 0 -0.30901718
vt 0 0
vt 0 1
vt 0.049987793 1
vt 0.049987793 0
vt 0.099975586 1
vt 0.099975586 0
vt 0.15002441 1
vt 0.15002441 0
vt 0.19995117 1
vt 0.19995117 0
vt 0.25 1
vt 0.25 0
vt 0.30004883 1
vt 0.30004883 0
vt 0.35009766 1
vt 0.35009766 0
vt 0.39990234 1
vt 0.39990234 0
vt 0.44995117 1
vt 0.44995117 0
vt 0.5 1
vt 0.5 0
vt 0.5498047 1
vt 0.5498047 0
vt 0.60009766 1
vt 0.60009766 0
vt 0.64990234 1
vt 0.64990234 0
vt 0.7001953 1
vt 0.7001953 0
vt 0.75 1
vt 0.75 0
vt 0.7998047 1
vt 0.7998047 0
vt 0.85009766 1
vt 0.85009766 0
vt 0.89990234 1
vt 0.89990234 0
vt 0.9501953 1
vt 0.9501953 0
vt 1 1
vt 1 0
vn 0.9511719 0 -0.30908203
vn 0.9511719 0 -0.30908203
vn 0.80908203 0 -0.5878906
vn 0.80908203 0 -0.5878906
vn 0.5878906 0 -0.80908203
vn 0.5878906 0 -0.80908203
vn 0.30908203 0 -0.9511719
vn 0.30908203 0 -0.9511719
vn -0 0 -1
vn -0 0 -1
vn -0.30908203 0 -0.9511719
vn -0.30908203 0 -0.9511719
vn -0.5878906 0 -0.80908203
vn -0.5878906 0 -0.80908203
vn -0.80908203 0 -0.5878906
vn -0.80908203 0 -0.5878906
vn -0.9511719 0 -0.30908203
vn -0.9511719 0 -0.30908203
vn -1 0 0
vn -1 0 0
vn -0.9511719 0 0.30908203
vn -0.9511719 0 0.30908203
vn -0.80908203 0 0.5878906
vn -0.80908203 0 0.5878906
vn -0.5878906 0 0.80908203
vn -0.5878906 0 0.80908203
vn -0.30908203 0 0.9511719
vn -0.30908203 0 0.9511719
vn -0 0 1
vn -0 0 1
vn 0.30908203 0 0.9511719
vn 0.30908203 0 0.9511719
vn 0.5878906 0 0.80908203
vn 0.5878906 0 0.80908203
vn 0.80908203 0 0.5878906
vn 0.80908203 0 0.5878906
vn 0.9511719 0 0.30908203
vn 0.9511719 0 0.30908203
vn 1 0 0
vn 1 0 0
vn 0.9511719 0 -0.30908203
vn 0.9511719 0 -0.30908203
g eff_cmn_cylinder_01_0
f 3/3/3 2/2/2 1/1/1
f 4/4/4 3/3/3 1/1/1
f 5/5/5 3/3/3 4/4/4
f 6/6/6 5/5/5 4/4/4
f 7/7/7 5/5/5 6/6/6
f 8/8/8 7/7/7 6/6/6
f 9/9/9 7/7/7 8/8/8
f 10/10/10 9/9/9 8/8/8
f 11/11/11 9/9/9 10/10/10
f 12/12/12 11/11/11 10/10/10
f 13/13/13 11/11/11 12/12/12
f 14/14/14 13/13/13 12/12/12
f 15/15/15 13/13/13 14/14/14
f 16/16/16 15/15/15 14/14/14
f 17/17/17 15/15/15 16/16/16
f 18/18/18 17/17/17 16/16/16
f 19/19/19 17/17/17 18/18/18
f 20/20/20 19/19/19 18/18/18
f 21/21/21 19/19/19 20/20/20
f 22/22/22 21/21/21 20/20/20
f 23/23/23 21/21/21 22/22/22
f 24/24/24 23/23/23 22/22/22
f 25/25/25 23/23/23 24/24/24
f 26/26/26 25/25/25 24/24/24
f 27/27/27 25/25/25 26/26/26
f 28/28/28 27/27/27 26/26/26
f 29/29/29 27/27/27 28/28/28
f 30/30/30 29/29/29 28/28/28
f 31/31/31 29/29/29 30/30/30
f 32/32/32 31/31/31 30/30/30
f 33/33/33 31/31/31 32/32/32
f 34/34/34 33/33/33 32/32/32
f 35/35/35 33/33/33 34/34/34
f 36/36/36 35/35/35 34/34/34
f 37/37/37 35/35/35 36/36/36
f 38/38/38 37/37/37 36/36/36
f 39/39/39 37/37/37 38/38/38
f 40/40/40 39/39/39 38/38/38
f 41/41/41 39/39/39 40/40/40
f 42/42/42 41/41/41 40/40/40
