g eff_107401_dml_slash_02
v -4.9764576 -0.21168852 2.905425
v -6.137712 -0.7016517 2.111637
v -4.9906936 -0.2497529 2.8843493
v -5.94928 -0.49619842 2.0037644
v -6.579081 0.3685125 0.4018678
v -6.1223507 0.20087755 0.2629117
v -6.1223507 0.20087755 0.2629117
v -6.785555 -0.5725235 -1.442734
v -6.887991 0.12794718 -1.5279543
v -6.579081 0.3685125 0.4018678
v -6.785555 -0.5725235 -1.442734
v -6.2975907 -0.40062904 -3.4049926
v -5.9022427 0.006325215 -3.1880362
v -6.887991 0.12794718 -1.5279543
v -6.2975907 -0.40062904 -3.4049926
v -4.699837 -0.8980357 -4.207203
v -5.9022427 0.006325215 -3.1880362
v -4.9964623 -0.8158969 -4.6032696
v -3.4524825 -0.77433157 -5.572271
v -3.6659825 -0.44418702 -5.6175203
v -3.6659825 -0.44418702 -5.6175203
v -1.9616814 -0.16169669 -5.655665
v -3.4524825 -0.77433157 -5.572271
v -2.0481634 0.04793167 -5.4750276
v -0.14645424 -0.34565905 -5.5933385
v -0.12833661 -0.34805992 -5.508236
v -4.71048 -0.21495602 3.085176
v -5.310281 0.45323408 1.7066438
v -4.6738997 -0.17969447 3.0610368
v -5.648423 0.16731372 1.8159683
v -4.7242546 -0.26873198 3.0942655
v -5.612075 0.621453 0.6161963
v -5.7757497 -0.26873198 1.8571341
v -4.71048 -0.32250804 3.085176
v -6.047634 0.26891285 0.66403973
v -5.6497774 0.6942264 -0.52248156
v -5.648423 -0.7047777 1.8159684
v -4.6738997 -0.3577695 3.0610368
v -5.310281 -0.9906981 1.7066438
v -6.2116427 -0.26873198 0.682055
v -6.1216984 0.3128658 -0.5668295
v -5.456004 0.7669999 -1.6514091
v -6.047634 -0.8063769 0.66403973
v -5.612075 -1.158917 0.6161963
v -6.299399 -0.26873198 -0.5835286
v -5.9435086 0.3568188 -1.8006002
v -5.024424 0.8060437 -2.7168481
v -6.121699 -0.8503298 -0.5668295
v -5.6497774 -1.2316904 -0.52248156
v -6.1270766 -0.26873198 -1.8567777
v -5.488717 0.38040006 -2.9704537
v -4.3414674 0.70222294 -3.6390424
v -5.9435086 -0.8942828 -1.8006003
v -5.456004 -1.3044639 -1.6514091
v -5.663545 -0.26873198 -3.0659482
v -4.706122 0.3176955 -3.947993
v -3.4924412 0.5984021 -4.398776
v -5.488717 -0.9178641 -2.9704537
v -5.024424 -1.3435078 -2.7168481
v -4.843431 -0.26873198 -4.0643272
v -3.7556956 0.25499082 -4.7347565
v -2.5057087 0.44218755 -4.9484487
v -4.706122 -0.8551595 -3.947993
v -4.3414674 -1.239687 -3.6390424
v -3.8548234 -0.26873198 -4.861269
v -2.6615398 0.16064194 -5.2617755
v -1.4343145 0.23091662 -5.262082
v -3.7556956 -0.79245484 -4.7347565
v -3.4924412 -1.1358662 -4.398776
v -2.7202175 -0.26873198 -5.3797574
v -1.4971195 0.033040673 -5.4998717
v 0.023872431 -0.17621651 -5.330147
v 0.025199234 -0.21285544 -5.4374247
v -2.6615398 -0.69810593 -5.2617755
v -2.5057087 -0.9796516 -4.9484487
v -1.5207685 -0.26873198 -5.5894103
v 0.025698839 -0.268732 -5.47782
v -1.4971195 -0.57050467 -5.4998717
v -1.4343145 -0.76838064 -5.262082
v 0.025199234 -0.32460856 -5.4374247
v 0.023872431 -0.3612475 -5.3301473
vt 2.9802322E-08 1
vt 0.096396536 2.9802322E-08
vt 0 2.9802322E-08
vt 0.096396595 1
vt 0.23021337 0
vt 0.23021343 1
vt 0.23021343 1
vt 0.3713892 1
vt 0.37138915 0
vt 0.23021337 0
vt 0.3713892 1
vt 0.5155887 1
vt 0.5155887 0
vt 0.37138915 0
vt 0.5155887 1
vt 0.6446969 0
vt 0.5155887 0
vt 0.6446969 1
vt 0.76647544 0
vt 0.76647544 1
vt 0.76647544 1
vt 0.8873477 0
vt 0.76647544 0
vt 0.8873478 1
vt 1 0
vt 1 1
vt 0 0.25
vt 0.12416017 2.9802322E-08
vt 0 2.9802322E-08
vt 0.1241602 0.25
vt 0 0.5
vt 0.21829405 0
vt 0.1241602 0.5
vt 0 0.75
vt 0.21829408 0.25
vt 0.31224257 0
vt 0.1241602 0.75
vt 2.9802322E-08 1
vt 0.12416023 1
vt 0.21829408 0.5
vt 0.31224257 0.25
vt 0.4066949 0
vt 0.21829408 0.75
vt 0.21829411 1
vt 0.31224257 0.5
vt 0.40669492 0.25
vt 0.5013487 0
vt 0.31224257 0.75
vt 0.31224257 1
vt 0.40669492 0.5
vt 0.5013487 0.25
vt 0.5961706 0
vt 0.40669492 0.75
vt 0.40669495 1
vt 0.5013487 0.5
vt 0.5961706 0.25
vt 0.6903177 0
vt 0.5013487 0.75
vt 0.5013487 1
vt 0.5961706 0.5
vt 0.6903177 0.25
vt 0.7841536 0
vt 0.5961706 0.75
vt 0.5961706 1
vt 0.6903177 0.5
vt 0.7841536 0.25
vt 0.8776535 0
vt 0.6903177 0.75
vt 0.6903177 1
vt 0.7841536 0.5
vt 0.8776535 0.24999997
vt 1 0
vt 1 0.24999997
vt 0.7841536 0.75
vt 0.7841536 1
vt 0.8776535 0.49999997
vt 1 0.49999997
vt 0.8776535 0.75
vt 0.8776535 1
vt 1 0.75
vt 1 1
vn 0.593756 -0.6588152 -0.4619702
vn 0.05076225 -0.8833289 -0.46599716
vn 0.5937561 -0.6588152 -0.46197018
vn 0.038114667 -0.8849061 -0.46420738
vn -0.114720576 -0.8923232 -0.43657595
vn -0.11472058 -0.8923232 -0.43657595
vn -0.7764083 -0.5219643 0.35319036
vn -0.7764083 -0.52196425 0.35319033
vn -0.7764083 -0.5219643 0.35319033
vn -0.7764083 -0.52196425 0.3531903
vn -0.8910153 0.2783355 -0.35863763
vn -0.8910153 0.2783355 -0.35863763
vn -0.8910153 0.2783355 -0.3586376
vn -0.8910153 0.27833554 -0.35863763
vn 0.02518248 0.8713056 -0.49009427
vn 0.14637575 0.9836251 -0.10514626
vn 0.025182476 0.8713056 -0.49009427
vn 0.15949622 0.98557425 -0.056606997
vn 0.27224377 0.8397411 0.46980655
vn 0.27224374 0.8397411 0.4698065
vn 0.05712102 -0.2129087 0.97540104
vn -0.047053065 -0.5057312 0.861407
vn 0.057121027 -0.2129087 0.97540104
vn -0.010040508 -0.40647805 0.9136054
vn -0.17452775 -0.8022633 0.5708885
vn -0.17452775 -0.8022633 0.57088846
vn -0.66588837 0.5295029 0.52556586
vn -0.5357816 0.7680795 0.35070214
vn -0.48338962 0.76064754 0.43330115
vn -0.73198026 0.53736186 0.41886416
vn -0.80749315 0 0.58987683
vn -0.6085319 0.7768225 0.16197409
vn -0.8847338 0 0.46609658
vn -0.66588825 -0.5295029 0.5255658
vn -0.8182335 0.5443615 0.1848367
vn -0.62888575 0.77749765 0.0001629905
vn -0.73198026 -0.53736174 0.41886425
vn -0.48338965 -0.76064754 0.43330106
vn -0.5357818 -0.76807934 0.3507022
vn -0.9800789 0 0.19860864
vn -0.83894396 0.5438583 -0.019779097
vn -0.61126316 0.778912 -0.14019088
vn -0.81823355 -0.54436135 0.1848368
vn -0.6085318 -0.7768226 0.16197422
vn -0.99930024 0 -0.03740406
vn -0.81389767 0.54463243 -0.2023514
vn -0.5348327 0.78177285 -0.32060117
vn -0.8389442 -0.543858 -0.019779133
vn -0.6288853 -0.777498 0.00016298417
vn -0.96786267 0 -0.25147942
vn -0.72234756 0.5471176 -0.42293778
vn -0.4227225 0.7758257 -0.46840188
vn -0.81389785 -0.54463214 -0.20235156
vn -0.61126286 -0.7789123 -0.14019091
vn -0.86594945 0 -0.50013167
vn -0.5834823 0.54259187 -0.60427016
vn -0.3028279 0.77506804 -0.55458516
vn -0.7223477 -0.54711735 -0.42293778
vn -0.5348329 -0.78177273 -0.32060134
vn -0.7086135 0 -0.70559675
vn -0.43253297 0.54297554 -0.7197867
vn -0.1461018 0.76962286 -0.6215585
vn -0.5834823 -0.5425918 -0.6042702
vn -0.42272252 -0.7758255 -0.46840197
vn -0.5357031 0 -0.84440637
vn -0.23864852 0.53990334 -0.80718726
vn 0.022284234 0.7623339 -0.6468001
vn -0.43253297 -0.54297554 -0.71978664
vn -0.30282786 -0.7750681 -0.5545851
vn -0.31579313 0 -0.9488281
vn -0.026513923 0.5342525 -0.844909
vn 0.11352681 0.75689703 -0.6435982
vn 0.09435553 0.5279323 -0.8440288
vn -0.23864876 -0.5399034 -0.8071871
vn -0.14610177 -0.76962286 -0.6215584
vn -0.07071156 0 -0.9974968
vn 0.07292155 0 -0.99733764
vn -0.026513832 -0.53425235 -0.8449092
vn 0.02228416 -0.7623337 -0.6468003
vn 0.09435586 -0.5279318 -0.84402907
vn 0.11352653 -0.7568966 -0.64359874
g eff_107401_dml_slash_02_0
f 3/3/3 2/2/2 1/1/1
f 2/2/2 4/4/4 1/1/1
f 2/2/2 5/5/5 4/4/4
f 5/5/5 6/6/6 4/4/4
f 9/9/9 8/8/8 7/7/7
f 10/10/10 9/9/9 7/7/7
f 13/13/13 12/12/12 11/11/11
f 14/14/14 13/13/13 11/11/11
f 17/17/17 16/16/16 15/15/15
f 16/16/16 18/18/18 15/15/15
f 16/16/16 19/19/19 18/18/18
f 19/19/19 20/20/20 18/18/18
f 23/23/23 22/22/22 21/21/21
f 22/22/22 24/24/24 21/21/21
f 22/22/22 25/25/25 24/24/24
f 25/25/25 26/26/26 24/24/24
f 29/29/29 28/28/28 27/27/27
f 28/28/28 30/30/30 27/27/27
f 27/27/27 30/30/30 31/31/31
f 28/28/28 32/32/32 30/30/30
f 30/30/30 33/33/33 31/31/31
f 31/31/31 33/33/33 34/34/34
f 32/32/32 35/35/35 30/30/30
f 30/30/30 35/35/35 33/33/33
f 32/32/32 36/36/36 35/35/35
f 33/33/33 37/37/37 34/34/34
f 34/34/34 37/37/37 38/38/38
f 37/37/37 39/39/39 38/38/38
f 35/35/35 40/40/40 33/33/33
f 33/33/33 40/40/40 37/37/37
f 36/36/36 41/41/41 35/35/35
f 35/35/35 41/41/41 40/40/40
f 36/36/36 42/42/42 41/41/41
f 37/37/37 43/43/43 39/39/39
f 40/40/40 43/43/43 37/37/37
f 43/43/43 44/44/44 39/39/39
f 41/41/41 45/45/45 40/40/40
f 40/40/40 45/45/45 43/43/43
f 42/42/42 46/46/46 41/41/41
f 41/41/41 46/46/46 45/45/45
f 42/42/42 47/47/47 46/46/46
f 43/43/43 48/48/48 44/44/44
f 45/45/45 48/48/48 43/43/43
f 48/48/48 49/49/49 44/44/44
f 46/46/46 50/50/50 45/45/45
f 45/45/45 50/50/50 48/48/48
f 47/47/47 51/51/51 46/46/46
f 46/46/46 51/51/51 50/50/50
f 47/47/47 52/52/52 51/51/51
f 48/48/48 53/53/53 49/49/49
f 50/50/50 53/53/53 48/48/48
f 53/53/53 54/54/54 49/49/49
f 51/51/51 55/55/55 50/50/50
f 50/50/50 55/55/55 53/53/53
f 52/52/52 56/56/56 51/51/51
f 51/51/51 56/56/56 55/55/55
f 52/52/52 57/57/57 56/56/56
f 53/53/53 58/58/58 54/54/54
f 55/55/55 58/58/58 53/53/53
f 58/58/58 59/59/59 54/54/54
f 56/56/56 60/60/60 55/55/55
f 55/55/55 60/60/60 58/58/58
f 57/57/57 61/61/61 56/56/56
f 56/56/56 61/61/61 60/60/60
f 57/57/57 62/62/62 61/61/61
f 58/58/58 63/63/63 59/59/59
f 60/60/60 63/63/63 58/58/58
f 63/63/63 64/64/64 59/59/59
f 61/61/61 65/65/65 60/60/60
f 60/60/60 65/65/65 63/63/63
f 62/62/62 66/66/66 61/61/61
f 61/61/61 66/66/66 65/65/65
f 62/62/62 67/67/67 66/66/66
f 63/63/63 68/68/68 64/64/64
f 65/65/65 68/68/68 63/63/63
f 68/68/68 69/69/69 64/64/64
f 66/66/66 70/70/70 65/65/65
f 65/65/65 70/70/70 68/68/68
f 67/67/67 71/71/71 66/66/66
f 66/66/66 71/71/71 70/70/70
f 67/67/67 72/72/72 71/71/71
f 72/72/72 73/73/73 71/71/71
f 68/68/68 74/74/74 69/69/69
f 70/70/70 74/74/74 68/68/68
f 74/74/74 75/75/75 69/69/69
f 71/71/71 76/76/76 70/70/70
f 71/71/71 73/73/73 76/76/76
f 70/70/70 76/76/76 74/74/74
f 73/73/73 77/77/77 76/76/76
f 74/74/74 78/78/78 75/75/75
f 76/76/76 78/78/78 74/74/74
f 76/76/76 77/77/77 78/78/78
f 78/78/78 79/79/79 75/75/75
f 77/77/77 80/80/80 78/78/78
f 78/78/78 80/80/80 79/79/79
f 80/80/80 81/81/81 79/79/79
