g eff_cmn_thunder_01
v 6.841128 3.7565832 -1.0746135E-07
v 5.480882 1.363485 -2.2667064E-07
v 5.529207 3.7930255 -1.0746135E-07
v 4.2832723 1.4228238 -2.2667064E-07
v 4.412036 3.824058 -1.0746135E-07
v 2.492213 1.5115666 -1.0746135E-07
v 3.6867418 4.44003 -2.2667064E-07
v 1.4545692 2.1221814 -1.0746135E-07
v 2.2530441 5.7114563 -2.2667064E-07
v 0.7696513 2.4127102 -1.0746135E-07
v 0.9200593 5.5642476 -2.2667064E-07
v 0.33586204 2.3655233 -1.0746135E-07
v -0.56606853 5.3931828 -2.2667064E-07
v -0.5788034 2.2670987 -1.0746135E-07
v -2.052196 5.2221174 -2.2667064E-07
v -2.016842 2.111372 1.3095723E-07
v -3.8648438 5.0069814 1.1747941E-08
v -4.5966525 2.8169575 1.0860549E-07
v -2.2145681 1.5168414 1.3095723E-07
v -5.0244517 1.5425441 1.3095723E-07
v -2.518486 0.6036596 1.1747941E-08
vt 0.0018972754 0.9853968
vt 1.0000219 0.9853968
vt 0.0018972754 0.87931883
vt 1.0000219 0.87931883
vt 0.0018972754 0.7714236
vt 1.0000219 0.7714237
vt 0.0018972754 0.66477287
vt 1.0000219 0.6647729
vt 0.0018972754 0.55444545
vt 1.0000219 0.55444545
vt 0.0018972754 0.4533078
vt 1.0000219 0.55444545
vt 0.0018972754 0.33463413
vt 1.0000219 0.33463413
vt 0.0018972754 0.23331133
vt 1.0000219 0.23331131
vt 0.0018972754 0.23331127
vt 0.0018972754 0.12229057
vt 1.0000219 0.12229054
vt 0.0018972754 0.011661523
vt 1.0000219 0.01166153
vn -0 0 1
vn -0 0 1
vn -0 0 1
vn -0 0 1
vn -0 0 1
vn -0 0 1
vn -0 0 1
vn -0 0 1
vn -0 0 1
vn -0 0 1
vn -0 0 1
vn -0 0 1
vn -0 0 1
vn -0 0 1
vn -0 0 1
vn -0 0 1
vn -0 0 1
vn -0 0 1
vn -0 0 1
vn -0 0 1
vn -0 0 1
g eff_cmn_thunder_01_0
f 3/3/3 2/2/2 1/1/1
f 3/3/3 4/4/4 2/2/2
f 3/3/3 5/5/5 4/4/4
f 5/5/5 6/6/6 4/4/4
f 5/5/5 7/7/7 6/6/6
f 7/7/7 8/8/8 6/6/6
f 9/9/9 8/8/8 7/7/7
f 8/8/8 9/9/9 10/10/10
f 11/11/11 10/10/10 9/9/9
f 11/11/11 12/12/12 10/10/10
f 11/11/11 13/13/13 12/12/12
f 12/12/12 13/13/13 14/14/14
f 13/13/13 15/15/15 14/14/14
f 16/16/16 14/14/14 15/15/15
f 15/15/15 17/17/17 16/16/16
f 18/18/18 16/16/16 17/17/17
f 18/18/18 19/19/19 16/16/16
f 18/18/18 20/20/20 19/19/19
f 20/20/20 21/21/21 19/19/19
