g eff_108301_lh_aura_01
v -0.025771713 0.27533618 -0.45399052
v -0.07962959 0.25 -0.58778524
v -0.068688445 0.149985 -0.58778524
v -0.012058926 0.14998499 -0.45399052
v 0.013674412 0.29389262 -0.3090169
v -0.060509045 -3.8146972E-08 -0.58778524
v 0.029417152 0.14998499 -0.30901697
v 0.03773739 0.3052125 -0.15643436
v -0.0038795653 -3.8146972E-08 -0.45399052
v -0.06868844 -0.14998505 -0.58778524
v 0.054718494 0.14998499 -0.15643436
v 0.045824774 0.30901703 0
v 0.03759653 -1.9073486E-08 -0.30901697
v -0.012058944 -0.149985 -0.45399046
v -0.07962959 -0.25 -0.58778524
v -0.025771713 -0.27533618 -0.45399052
v 0.029417114 -0.14998503 -0.30901697
v 0.013674354 -0.29389265 -0.30901697
v 0.063222066 0.14998499 0
v 0.03773739 0.3052125 0.15643439
v 0.0628979 -1.9073486E-08 -0.15643439
v 0.054718476 -0.14998502 -0.15643437
v 0.03773735 -0.3052125 -0.15643436
v 0.054718494 0.14998497 0.15643437
v 0.013674412 0.2938926 0.30901697
v 0.07140144 -1.8479211E-08 0
v 0.06322203 -0.14998503 0
v 0.0458247 -0.30901703 0
v 0.029417133 0.14998499 0.30901697
v -0.025771713 0.27533618 0.45399052
v 0.0628979 -1.9073486E-08 0.15643439
v 0.054718476 -0.14998503 0.15643436
v 0.03773735 -0.3052125 0.15643436
v -0.010558624 0.14998497 0.44874644
v -0.07962959 0.25 0.58778524
v -0.06868849 0.14998497 0.58778524
v 0.03759653 -1.9073486E-08 0.30901694
v 0.029417133 -0.14998503 0.30901697
v 0.013674354 -0.29389265 0.30901694
v -0.003501872 -3.8146972E-08 0.45267585
v -0.060509086 -3.8146972E-08 0.5877852
v -0.012058963 -0.14998503 0.45399052
v -0.025771713 -0.27533618 0.45399052
v -0.068688475 -0.14998505 0.58778524
v -0.07962959 -0.25000003 0.58778524
vt 0 0.875
vt 0 1
vt 0.20003003 1
vt 0.227633 0.875
vt 0 0.75
vt 0.5 1
vt 0.24483028 0.75
vt 0 0.625
vt 0.5 0.875
vt 0.79997003 1
vt 0.25429416 0.625
vt 0 0.5
vt 0.5 0.75
vt 0.7723671 0.875
vt 1 1
vt 1 0.875
vt 0.7551697 0.75
vt 1 0.75
vt 0.25731918 0.5
vt 0 0.375
vt 0.5 0.625
vt 0.7457059 0.625
vt 1 0.625
vt 0.25429413 0.375
vt 0 0.25
vt 0.5 0.5
vt 0.7426808 0.5
vt 1 0.5
vt 0.24483027 0.25
vt 0 0.12499997
vt 0.5 0.375
vt 0.74570584 0.375
vt 1 0.375
vt 0.2288519 0.12952153
vt 0 0
vt 0.20003003 0
vt 0.5 0.25
vt 0.75516975 0.25
vt 1 0.25
vt 0.5 0.12499997
vt 0.5 0
vt 0.7723671 0.12499996
vt 1 0.12499997
vt 0.7999699 7.450579E-09
vt 1 0
vn 0.94145006 0.102989875 -0.321037
vn 0.91626984 0.10023535 -0.38781744
vn 0.9185041 0.07220513 -0.388763
vn 0.9415388 0.07470097 -0.3285186
vn 0.9714395 0.10627049 -0.21216024
vn 0.9209079 0 -0.3897802
vn 0.97304225 0.07899355 -0.21667685
vn 0.98852557 0.108139634 -0.10546618
vn 0.94352394 0 -0.33130422
vn 0.9185042 -0.07220512 -0.3887627
vn 0.9908523 0.081447795 -0.10760068
vn 0.9940696 0.10874614 0
vn 0.9758262 0 -0.21854793
vn 0.9415388 -0.07470101 -0.3285185
vn 0.91627 -0.10023521 -0.38781705
vn 0.9414502 -0.102989785 -0.32103693
vn 0.97304213 -0.07899368 -0.21667686
vn 0.9714395 -0.10627052 -0.21216021
vn 0.996612 0.082245976 0
vn 0.98852557 0.1081396 0.10546621
vn 0.99409217 0 -0.108539134
vn 0.9908523 -0.08144798 -0.10760065
vn 0.98852557 -0.108139805 -0.10546611
vn 0.9908523 0.081447795 0.10760072
vn 0.9715399 0.10628138 0.21169445
vn 1 0 0
vn 0.996612 -0.08224617 0
vn 0.9940696 -0.10874634 0
vn 0.97316235 0.07905128 0.21611536
vn 0.9410312 0.10170021 0.32267228
vn 0.99409217 0 0.10853915
vn 0.9908523 -0.081447996 0.10760065
vn 0.98852557 -0.10813987 0.10546613
vn 0.9419668 0.07464793 0.3273015
vn 0.9174808 0.09750185 0.38564518
vn 0.91955185 0.07189982 0.38633516
vn 0.97591215 -0.0002342811 0.21816397
vn 0.973055 -0.07902571 0.21660766
vn 0.9714395 -0.1062706 0.21216027
vn 0.94340783 0.0005222631 0.3316343
vn 0.92156124 0.0015742282 0.38822973
vn 0.941487 -0.074550286 0.32870117
vn 0.9414502 -0.102989726 0.32103693
vn 0.918651 -0.07184947 0.38848177
vn 0.91626996 -0.10023507 0.38781738
g eff_108301_lh_aura_01_0
f 3/3/3 2/2/2 1/1/1
f 4/4/4 3/3/3 1/1/1
f 4/4/4 1/1/1 5/5/5
f 6/6/6 3/3/3 4/4/4
f 7/7/7 4/4/4 5/5/5
f 7/7/7 5/5/5 8/8/8
f 9/9/9 6/6/6 4/4/4
f 9/9/9 4/4/4 7/7/7
f 10/10/10 6/6/6 9/9/9
f 11/11/11 7/7/7 8/8/8
f 11/11/11 8/8/8 12/12/12
f 13/13/13 9/9/9 7/7/7
f 13/13/13 7/7/7 11/11/11
f 14/14/14 10/10/10 9/9/9
f 14/14/14 9/9/9 13/13/13
f 15/15/15 10/10/10 14/14/14
f 16/16/16 15/15/15 14/14/14
f 16/16/16 14/14/14 17/17/17
f 17/17/17 14/14/14 13/13/13
f 18/18/18 16/16/16 17/17/17
f 19/19/19 11/11/11 12/12/12
f 19/19/19 12/12/12 20/20/20
f 21/21/21 13/13/13 11/11/11
f 17/17/17 13/13/13 21/21/21
f 21/21/21 11/11/11 19/19/19
f 18/18/18 17/17/17 22/22/22
f 22/22/22 17/17/17 21/21/21
f 23/23/23 18/18/18 22/22/22
f 24/24/24 19/19/19 20/20/20
f 24/24/24 20/20/20 25/25/25
f 26/26/26 21/21/21 19/19/19
f 22/22/22 21/21/21 26/26/26
f 26/26/26 19/19/19 24/24/24
f 23/23/23 22/22/22 27/27/27
f 27/27/27 22/22/22 26/26/26
f 28/28/28 23/23/23 27/27/27
f 29/29/29 24/24/24 25/25/25
f 29/29/29 25/25/25 30/30/30
f 31/31/31 26/26/26 24/24/24
f 27/27/27 26/26/26 31/31/31
f 31/31/31 24/24/24 29/29/29
f 28/28/28 27/27/27 32/32/32
f 32/32/32 27/27/27 31/31/31
f 33/33/33 28/28/28 32/32/32
f 34/34/34 29/29/29 30/30/30
f 34/34/34 30/30/30 35/35/35
f 36/36/36 34/34/34 35/35/35
f 37/37/37 31/31/31 29/29/29
f 32/32/32 31/31/31 37/37/37
f 37/37/37 29/29/29 34/34/34
f 33/33/33 32/32/32 38/38/38
f 38/38/38 32/32/32 37/37/37
f 39/39/39 33/33/33 38/38/38
f 40/40/40 34/34/34 36/36/36
f 40/40/40 37/37/37 34/34/34
f 38/38/38 37/37/37 40/40/40
f 41/41/41 40/40/40 36/36/36
f 39/39/39 38/38/38 42/42/42
f 42/42/42 38/38/38 40/40/40
f 42/42/42 40/40/40 41/41/41
f 43/43/43 39/39/39 42/42/42
f 44/44/44 42/42/42 41/41/41
f 45/45/45 43/43/43 42/42/42
f 44/44/44 45/45/45 42/42/42
