g eff_cmn_disc_01
v 2.9912944 0 -6.527976E-07
v 2.265337 0 -0.450603
v 2.9338143 0 -0.58357143
v 2.3097198 0 -4.361696E-07
v 2.9338176 0 0.5835722
v 1.2850282 0 -0.25560743
v 2.2653394 0 0.45060372
v 2.7635958 0 1.1447186
v 1.3102046 0 -7.905763E-08
v 0.36797208 0 -0.073193766
v 0.3751815 0 2.0483154E-07
v 1.2850293 0 0.2556082
v 0.3679725 0 0.073194444
v 2.1339033 0 0.8838914
v 2.48717 0 1.661874
v 1.2104713 0 0.5013936
v 0.34662247 0 0.14357586
v 1.9204617 0 1.2832116
v 2.1151643 0 2.1151648
v 1.0893953 0 0.7279108
v 0.311952 0 0.20843974
v 1.6332184 0 1.6332188
v 1.6618732 0 2.4871702
v 0.9264544 0 0.9264548
v 0.26529336 0 0.26529342
v 1.2832111 0 1.9204618
v 1.144718 0 2.7635956
v 0.7279103 0 1.0893953
v 0.20843968 0 0.311952
v 0.8838909 0 2.1339025
v 0.5835716 0 2.9338174
v 0.5013933 0 1.2104712
v 0.14357579 0 0.34662247
v 0.45060334 0 2.2653391
v -1.143109E-06 0 2.991294
v 0.25560793 0 1.2850289
v 0.07319437 0 0.36797243
v -7.875235E-07 0 2.3097193
v -0.58357376 0 2.933817
v -2.9381678E-07 0 1.3102043
v 1.4333455E-07 0 0.37518138
v -0.45060477 0 2.2653387
v -1.1447201 0 2.7635946
v -0.25560853 0 1.2850288
v -0.07319407 0 0.3679723
v -0.8838924 0 2.1339023
v -1.6618751 0 2.4871693
v -0.5013938 0 1.2104708
v -0.14357546 0 0.34662235
v -1.2832121 0 1.9204609
v -2.1151655 0 2.115163
v -0.72791076 0 1.0893947
v -0.20843932 0 0.31195188
v -1.6332191 0 1.6332175
v -2.4871714 0 1.6618726
v -0.9264547 0 0.92645395
v -0.26529297 0 0.26529324
v -1.9204625 0 1.2832103
v -2.7635965 0 1.1447171
v -1.0893954 0 0.72791
v -0.31195152 0 0.20843956
v -2.1339033 0 0.88389033
v -2.9338176 0 0.5835709
v -1.2104712 0 0.50139296
v -0.34662193 0 0.14357568
v -2.2653394 0 0.45060277
v -2.991294 0 -1.6334208E-06
v -1.2850289 0 0.2556077
v -0.3679719 0 0.07319428
v -2.3097193 0 -1.193355E-06
v -2.933817 0 -0.58357406
v -1.310204 0 -5.085762E-07
v -0.37518084 0 8.183753E-08
v -2.2653384 0 -0.450605
v -2.7635949 0 -1.1447201
v -1.2850282 0 -0.25560862
v -0.36797178 0 -0.07319411
v -2.133902 2.9802322E-08 -0.8838927
v -2.4871693 0 -1.6618751
v -1.2104704 0 -0.5013938
v -0.3466218 0 -0.14357547
v -1.9204609 2.9802322E-08 -1.2832124
v -2.1151636 0 -2.115165
v -1.0893946 0 -0.72791076
v -0.31195134 0 -0.20843929
v -1.6332177 0 -1.6332188
v -1.6618729 0 -2.4871705
v -0.92645365 0 -0.92645454
v -0.26529267 0 -0.26529288
v -1.2832106 0 -1.9204618
v -1.1447178 0 -2.763595
v -0.7279097 0 -1.0893952
v -0.20843902 0 -0.31195146
v -0.88389057 0 -2.1339023
v -0.5835717 0 -2.9338167
v -0.5013929 0 -1.2104706
v -0.14357518 0 -0.3466218
v -0.45060313 0 -2.2653384
v 6.8441574E-07 0 -2.9912932
v -0.25560755 0 -1.2850282
v -0.0731938 0 -0.36797178
v 6.235947E-07 0 -2.3097188
v 0.58357286 0 -2.933816
v 5.066496E-07 0 -1.3102038
v 3.7255063E-07 0 -0.37518072
v 0.45060432 0 -2.265338
v 1.1447188 0 -2.7635942
v 0.2556085 0 -1.285028
v 0.07319453 0 -0.36797166
v 0.88389146 0 -2.1339016
v 1.6618735 0 -2.4871686
v 0.5013937 0 -1.2104702
v 0.14357588 0 -0.3466217
v 1.2832112 0 -1.9204605
v 2.1151636 0 -2.1151628
v 0.7279105 0 -1.089394
v 0.20843968 0 -0.31195122
v 1.6332178 0 -1.6332171
v 2.4871686 0 -1.6618724
v 0.92645407 0 -0.9264535
v 0.26529327 0 -0.2652926
v 1.9204605 0 -1.28321
v 2.7635934 0 -1.1447173
v 1.0893945 0 -0.72790956
v 0.31195176 0 -0.20843899
v 2.1339014 0 -0.88389033
v 2.9338143 0 -0.58357143
v 2.265337 0 -0.450603
v 1.2104703 0 -0.50139266
v 0.34662217 0 -0.14357513
v 1.2850282 0 -0.25560743
v 0.36797208 0 -0.073193766
vt 0.96875006 2.9802322E-08
vt 1 0.31641793
vt 1 2.9802322E-08
vt 0.96875006 0.31641793
vt 0.9375 2.9802322E-08
vt 1 0.7123188
vt 0.9375 0.31641793
vt 0.90625 2.9802322E-08
vt 0.96875006 0.7123188
vt 1 1
vt 0.96875006 1
vt 0.9375 0.7123188
vt 0.9375 1
vt 0.90625 0.31641793
vt 0.8750001 2.9802322E-08
vt 0.90625 0.7123188
vt 0.90625 1
vt 0.8750001 0.31641793
vt 0.8437501 2.9802322E-08
vt 0.8750001 0.7123188
vt 0.8750001 1
vt 0.8437501 0.31641793
vt 0.8125001 2.9802322E-08
vt 0.8437501 0.7123188
vt 0.8437501 1
vt 0.8125001 0.31641793
vt 0.7812501 2.9802322E-08
vt 0.8125001 0.7123188
vt 0.8125001 1
vt 0.7812501 0.31641793
vt 0.74999994 2.9802322E-08
vt 0.7812501 0.7123188
vt 0.7812501 1
vt 0.74999994 0.31641793
vt 0.71875006 2.9802322E-08
vt 0.74999994 0.7123188
vt 0.74999994 1
vt 0.71875006 0.31641793
vt 0.68750006 2.9802322E-08
vt 0.71875006 0.7123188
vt 0.71875006 1
vt 0.68750006 0.31641793
vt 0.65625006 2.9802322E-08
vt 0.68750006 0.7123188
vt 0.68750006 1
vt 0.65625006 0.31641793
vt 0.62500006 2.9802322E-08
vt 0.65625006 0.7123188
vt 0.65625006 1
vt 0.62500006 0.31641793
vt 0.59375006 2.9802322E-08
vt 0.62500006 0.7123188
vt 0.62500006 1
vt 0.59375006 0.31641793
vt 0.5625 2.9802322E-08
vt 0.59375006 0.7123188
vt 0.59375006 1
vt 0.5625 0.31641793
vt 0.53125006 2.9802322E-08
vt 0.5625 0.7123188
vt 0.5625 1
vt 0.53125006 0.31641793
vt 0.50000006 2.9802322E-08
vt 0.53125006 0.7123188
vt 0.53125006 1
vt 0.50000006 0.31641793
vt 0.46875003 2.9802322E-08
vt 0.50000006 0.7123188
vt 0.50000006 1
vt 0.46875003 0.31641793
vt 0.43750003 2.9802322E-08
vt 0.46875003 0.7123188
vt 0.46875003 1
vt 0.43750003 0.31641793
vt 0.40625 2.9802322E-08
vt 0.43750003 0.7123188
vt 0.43750003 1
vt 0.40625 0.31641793
vt 0.37500006 2.9802322E-08
vt 0.40625 0.7123188
vt 0.40625 1
vt 0.37500006 0.31641793
vt 0.34375 2.9802322E-08
vt 0.37500006 0.7123188
vt 0.37500006 1
vt 0.34375 0.31641793
vt 0.31250003 2.9802322E-08
vt 0.34375 0.7123188
vt 0.34375 1
vt 0.31250003 0.31641793
vt 0.28125 2.9802322E-08
vt 0.31250003 0.7123188
vt 0.31250003 1
vt 0.28125 0.31641793
vt 0.25000006 2.9802322E-08
vt 0.28125 0.7123188
vt 0.28125 1
vt 0.25000006 0.31641793
vt 0.21875 2.9802322E-08
vt 0.25000006 0.7123188
vt 0.25000006 1
vt 0.21875 0.31641793
vt 0.18750003 2.9802322E-08
vt 0.21875 0.7123188
vt 0.21875 1
vt 0.18750003 0.31641793
vt 0.15624997 2.9802322E-08
vt 0.18750003 0.7123188
vt 0.18750003 1
vt 0.15624997 0.31641793
vt 0.12499997 2.9802322E-08
vt 0.15624997 0.7123188
vt 0.15624997 1
vt 0.12499997 0.31641793
vt 0.09375003 2.9802322E-08
vt 0.12499997 0.7123188
vt 0.12499997 1
vt 0.09375003 0.31641793
vt 0.06250003 2.9802322E-08
vt 0.09375003 0.7123188
vt 0.09375003 1
vt 0.06250003 0.31641793
vt 0.03124997 2.9802322E-08
vt 0.06250003 0.7123188
vt 0.06250003 1
vt 0.03124997 0.31641793
vt 0 2.9802322E-08
vt 0 0.31641793
vt 0.03124997 0.7123188
vt 0.03124997 1
vt 0 0.7123188
vt 0 1
vn -0 1 0
vn -0 1 0
vn -0 1 0
vn -0 1 0
vn -0 1 0
vn -0 1 0
vn -0 1 0
vn -0 1 0
vn -0 1 0
vn -0 1 0
vn -0 1 0
vn -0 1 0
vn -0 1 0
vn -0 1 0
vn -0 1 0
vn -0 1 0
vn -0 1 0
vn -0 1 0
vn -0 1 0
vn -0 1 0
vn -0 1 0
vn -0 1 0
vn -0 1 0
vn -0 1 0
vn -0 1 0
vn -0 1 0
vn -0 1 0
vn -0 1 0
vn -0 1 0
vn -0 1 0
vn -0 1 0
vn -0 1 0
vn -0 1 0
vn -0 1 0
vn -0 1 0
vn -0 1 0
vn -0 1 0
vn -0 1 0
vn -0 1 0
vn -0 1 0
vn -0 1 0
vn -0 1 0
vn -0 1 0
vn -0 1 0
vn -0 1 0
vn -0 1 0
vn -0 1 0
vn -0 1 0
vn -0 1 0
vn -0 1 0
vn -0 1 0
vn -0 1 0
vn -0 1 0
vn -0 1 0
vn -0 1 0
vn -0 1 0
vn -0 1 0
vn -0 1 0
vn -0 1 0
vn -0 1 0
vn -0 1 0
vn -0 1 0
vn -0 1 0
vn -0 1 0
vn -0 1 0
vn -0 1 0
vn -0 1 0
vn -0 1 0
vn -0 1 0
vn -0 1 0
vn -0 1 0
vn -0 1 0
vn -0 1 0
vn -0 1 0
vn -0 1 0
vn -0 1 0
vn -0 1 0
vn -0 1 0
vn -0 1 0
vn -0 1 0
vn -0 1 0
vn -0 1 0
vn -0 1 0
vn -0 1 0
vn -0 1 0
vn -0 1 0
vn -0 1 0
vn -0 1 0
vn -0 1 0
vn -0 1 0
vn -0 1 0
vn -0 1 0
vn -0 1 0
vn -0 1 0
vn -0 1 0
vn -0 1 0
vn -0 1 0
vn -0 1 0
vn -0 1 0
vn -0 1 0
vn -0 1 0
vn -0 1 0
vn -0 1 0
vn -0 1 0
vn -0 1 0
vn -0 1 0
vn -0 1 0
vn -0 1 0
vn -0 1 0
vn -0 1 0
vn -0 1 0
vn -0 1 0
vn -0 1 0
vn -0 1 0
vn -0 1 0
vn -0 1 0
vn -0 1 0
vn -0 1 0
vn -0 1 0
vn -0 1 0
vn -0 1 0
vn -0 1 0
vn -0 1 0
vn -0 1 0
vn -0 1 0
vn -0 1 0
vn -0 1 0
vn -0 1 0
vn -0 1 0
vn -0 1 0
vn -0 1 0
vn -0 1 0
g eff_cmn_disc_01_0
f 3/3/3 2/2/2 1/1/1
f 2/2/2 4/4/4 1/1/1
f 1/1/1 4/4/4 5/5/5
f 2/2/2 6/6/6 4/4/4
f 4/4/4 7/7/7 5/5/5
f 5/5/5 7/7/7 8/8/8
f 6/6/6 9/9/9 4/4/4
f 4/4/4 9/9/9 7/7/7
f 6/6/6 10/10/10 9/9/9
f 10/10/10 11/11/11 9/9/9
f 9/9/9 11/11/11 12/12/12
f 9/9/9 12/12/12 7/7/7
f 11/11/11 13/13/13 12/12/12
f 7/7/7 14/14/14 8/8/8
f 7/7/7 12/12/12 14/14/14
f 8/8/8 14/14/14 15/15/15
f 12/12/12 13/13/13 16/16/16
f 12/12/12 16/16/16 14/14/14
f 13/13/13 17/17/17 16/16/16
f 14/14/14 18/18/18 15/15/15
f 14/14/14 16/16/16 18/18/18
f 15/15/15 18/18/18 19/19/19
f 16/16/16 17/17/17 20/20/20
f 16/16/16 20/20/20 18/18/18
f 17/17/17 21/21/21 20/20/20
f 18/18/18 22/22/22 19/19/19
f 18/18/18 20/20/20 22/22/22
f 19/19/19 22/22/22 23/23/23
f 20/20/20 21/21/21 24/24/24
f 20/20/20 24/24/24 22/22/22
f 21/21/21 25/25/25 24/24/24
f 22/22/22 26/26/26 23/23/23
f 22/22/22 24/24/24 26/26/26
f 23/23/23 26/26/26 27/27/27
f 24/24/24 25/25/25 28/28/28
f 24/24/24 28/28/28 26/26/26
f 25/25/25 29/29/29 28/28/28
f 26/26/26 30/30/30 27/27/27
f 26/26/26 28/28/28 30/30/30
f 27/27/27 30/30/30 31/31/31
f 28/28/28 29/29/29 32/32/32
f 28/28/28 32/32/32 30/30/30
f 29/29/29 33/33/33 32/32/32
f 30/30/30 34/34/34 31/31/31
f 30/30/30 32/32/32 34/34/34
f 31/31/31 34/34/34 35/35/35
f 32/32/32 33/33/33 36/36/36
f 32/32/32 36/36/36 34/34/34
f 33/33/33 37/37/37 36/36/36
f 34/34/34 38/38/38 35/35/35
f 34/34/34 36/36/36 38/38/38
f 35/35/35 38/38/38 39/39/39
f 36/36/36 37/37/37 40/40/40
f 36/36/36 40/40/40 38/38/38
f 37/37/37 41/41/41 40/40/40
f 38/38/38 42/42/42 39/39/39
f 38/38/38 40/40/40 42/42/42
f 39/39/39 42/42/42 43/43/43
f 40/40/40 41/41/41 44/44/44
f 40/40/40 44/44/44 42/42/42
f 41/41/41 45/45/45 44/44/44
f 42/42/42 46/46/46 43/43/43
f 42/42/42 44/44/44 46/46/46
f 43/43/43 46/46/46 47/47/47
f 44/44/44 45/45/45 48/48/48
f 44/44/44 48/48/48 46/46/46
f 45/45/45 49/49/49 48/48/48
f 46/46/46 50/50/50 47/47/47
f 46/46/46 48/48/48 50/50/50
f 47/47/47 50/50/50 51/51/51
f 48/48/48 49/49/49 52/52/52
f 48/48/48 52/52/52 50/50/50
f 49/49/49 53/53/53 52/52/52
f 50/50/50 54/54/54 51/51/51
f 50/50/50 52/52/52 54/54/54
f 51/51/51 54/54/54 55/55/55
f 52/52/52 53/53/53 56/56/56
f 52/52/52 56/56/56 54/54/54
f 53/53/53 57/57/57 56/56/56
f 54/54/54 58/58/58 55/55/55
f 54/54/54 56/56/56 58/58/58
f 55/55/55 58/58/58 59/59/59
f 56/56/56 57/57/57 60/60/60
f 56/56/56 60/60/60 58/58/58
f 57/57/57 61/61/61 60/60/60
f 58/58/58 62/62/62 59/59/59
f 58/58/58 60/60/60 62/62/62
f 59/59/59 62/62/62 63/63/63
f 60/60/60 61/61/61 64/64/64
f 60/60/60 64/64/64 62/62/62
f 61/61/61 65/65/65 64/64/64
f 62/62/62 66/66/66 63/63/63
f 62/62/62 64/64/64 66/66/66
f 63/63/63 66/66/66 67/67/67
f 64/64/64 65/65/65 68/68/68
f 64/64/64 68/68/68 66/66/66
f 65/65/65 69/69/69 68/68/68
f 66/66/66 70/70/70 67/67/67
f 66/66/66 68/68/68 70/70/70
f 67/67/67 70/70/70 71/71/71
f 68/68/68 69/69/69 72/72/72
f 68/68/68 72/72/72 70/70/70
f 69/69/69 73/73/73 72/72/72
f 70/70/70 74/74/74 71/71/71
f 70/70/70 72/72/72 74/74/74
f 71/71/71 74/74/74 75/75/75
f 72/72/72 73/73/73 76/76/76
f 72/72/72 76/76/76 74/74/74
f 73/73/73 77/77/77 76/76/76
f 74/74/74 78/78/78 75/75/75
f 74/74/74 76/76/76 78/78/78
f 75/75/75 78/78/78 79/79/79
f 76/76/76 77/77/77 80/80/80
f 76/76/76 80/80/80 78/78/78
f 77/77/77 81/81/81 80/80/80
f 78/78/78 82/82/82 79/79/79
f 78/78/78 80/80/80 82/82/82
f 79/79/79 82/82/82 83/83/83
f 80/80/80 81/81/81 84/84/84
f 80/80/80 84/84/84 82/82/82
f 81/81/81 85/85/85 84/84/84
f 82/82/82 86/86/86 83/83/83
f 82/82/82 84/84/84 86/86/86
f 83/83/83 86/86/86 87/87/87
f 84/84/84 85/85/85 88/88/88
f 84/84/84 88/88/88 86/86/86
f 85/85/85 89/89/89 88/88/88
f 86/86/86 90/90/90 87/87/87
f 86/86/86 88/88/88 90/90/90
f 87/87/87 90/90/90 91/91/91
f 88/88/88 89/89/89 92/92/92
f 88/88/88 92/92/92 90/90/90
f 89/89/89 93/93/93 92/92/92
f 90/90/90 94/94/94 91/91/91
f 90/90/90 92/92/92 94/94/94
f 91/91/91 94/94/94 95/95/95
f 92/92/92 93/93/93 96/96/96
f 92/92/92 96/96/96 94/94/94
f 93/93/93 97/97/97 96/96/96
f 94/94/94 98/98/98 95/95/95
f 94/94/94 96/96/96 98/98/98
f 95/95/95 98/98/98 99/99/99
f 96/96/96 97/97/97 100/100/100
f 96/96/96 100/100/100 98/98/98
f 97/97/97 101/101/101 100/100/100
f 98/98/98 102/102/102 99/99/99
f 98/98/98 100/100/100 102/102/102
f 99/99/99 102/102/102 103/103/103
f 100/100/100 101/101/101 104/104/104
f 100/100/100 104/104/104 102/102/102
f 101/101/101 105/105/105 104/104/104
f 102/102/102 106/106/106 103/103/103
f 102/102/102 104/104/104 106/106/106
f 103/103/103 106/106/106 107/107/107
f 104/104/104 105/105/105 108/108/108
f 104/104/104 108/108/108 106/106/106
f 105/105/105 109/109/109 108/108/108
f 106/106/106 110/110/110 107/107/107
f 106/106/106 108/108/108 110/110/110
f 107/107/107 110/110/110 111/111/111
f 108/108/108 109/109/109 112/112/112
f 108/108/108 112/112/112 110/110/110
f 109/109/109 113/113/113 112/112/112
f 110/110/110 114/114/114 111/111/111
f 110/110/110 112/112/112 114/114/114
f 111/111/111 114/114/114 115/115/115
f 112/112/112 113/113/113 116/116/116
f 112/112/112 116/116/116 114/114/114
f 113/113/113 117/117/117 116/116/116
f 114/114/114 118/118/118 115/115/115
f 114/114/114 116/116/116 118/118/118
f 115/115/115 118/118/118 119/119/119
f 116/116/116 117/117/117 120/120/120
f 116/116/116 120/120/120 118/118/118
f 117/117/117 121/121/121 120/120/120
f 118/118/118 122/122/122 119/119/119
f 118/118/118 120/120/120 122/122/122
f 119/119/119 122/122/122 123/123/123
f 120/120/120 121/121/121 124/124/124
f 120/120/120 124/124/124 122/122/122
f 121/121/121 125/125/125 124/124/124
f 122/122/122 126/126/126 123/123/123
f 122/122/122 124/124/124 126/126/126
f 123/123/123 126/126/126 127/127/127
f 126/126/126 128/128/128 127/127/127
f 124/124/124 125/125/125 129/129/129
f 124/124/124 129/129/129 126/126/126
f 126/126/126 129/129/129 128/128/128
f 125/125/125 130/130/130 129/129/129
f 129/129/129 131/131/131 128/128/128
f 129/129/129 130/130/130 131/131/131
f 130/130/130 132/132/132 131/131/131
