g eff_112501_dml_spiral_02
v -0.015799694 0.38764402 -0.15283325
v 0.040763978 0.30467293 -0.014551718
v -0.0427974 0.28412506 0.009409052
v -0.10763139 0.36074904 -0.12873334
v -0.119926155 0.25811014 0.033661958
v -0.11187184 0.26044443 -0.2668757
v -0.029476795 0.288161 -0.29111478
v -0.18263492 0.2213511 -0.2425061
v -0.19825026 0.31976983 -0.10442207
v -0.18562505 0.21908341 0.057858184
v -0.27824286 0.2554703 -0.08015442
v -0.23491128 0.16587149 -0.21816699
v -0.23748739 0.1617538 0.08199782
v -0.33651438 0.171644 -0.05588725
v -0.27036506 0.09730824 -0.19377232
v -0.3700179 0.07542731 -0.03163679
v -0.27210644 0.092419766 0.10597056
v -0.37651256 -0.02619637 -0.0073930537
v -0.2865687 0.021476941 -0.16924416
v -0.28688934 0.016129458 0.12986034
v -0.28188246 -0.05574526 -0.14464644
v -0.2807418 -0.061177816 0.1535916
v -0.25678355 -0.12892531 -0.11984131
v -0.355518 -0.12577336 0.016875152
v -0.25405252 -0.13417268 0.17712595
v -0.21305065 -0.19275576 -0.094905965
v -0.30863973 -0.21597522 0.041109975
v -0.20873138 -0.19735582 0.20051324
v -0.23934762 -0.29022565 0.06537587
v -0.15402937 -0.24247153 -0.06976151
v -0.1528296 -0.34305966 0.08962451
v -0.14822301 -0.24607292 0.22361526
v -0.08381099 -0.27476996 -0.044366512
v -0.055459168 -0.37062135 0.1138695
v -0.0077428245 -0.28707075 -0.018778594
v -0.07658879 -0.27677223 0.24651782
v 0.06885125 -0.27876624 0.007143014
v 0.04552043 -0.3710292 0.13813812
v 0.00052015705 -0.28714362 0.2691332
v 0.14044903 -0.25040492 0.033319704
v 0.07775491 -0.27637565 0.29142573
v 0.14260525 -0.34435904 0.1623727
v 0.14925557 -0.24513014 0.31344825
v 0.20169963 -0.20416671 0.05982842
v 0.2286365 -0.2926723 0.18663837
v 0.20972985 -0.19583732 0.33506674
v 0.29734114 -0.22002427 0.21088651
v 0.24859528 -0.14331488 0.08670631
v 0.34373203 -0.131933 0.23513259
v 0.25474456 -0.13183306 0.356355
v 0.36456484 -0.035081618 0.25939947
v 0.27753818 -0.072434455 0.11391014
v 0.28080052 -0.058163345 0.37723258
v 0.2867409 0.0034996164 0.14156641
v 0.2859418 0.020038005 0.39767146
v 0.27552348 0.0790665 0.16959678
v 0.35851136 0.06324787 0.2836341
v 0.26968342 0.09674547 0.4177083
v 0.24487123 0.14874911 0.19809487
v 0.32635102 0.15572432 0.30790162
v 0.23327677 0.16622354 0.43722045
v 0.2708341 0.23552871 0.33214888
v 0.19698872 0.20794947 0.22707738
v 0.17913024 0.22328837 0.45627657
v 0.19636671 0.29680994 0.35639518
v 0.13541818 0.25220588 0.2565138
v 0.10887004 0.33536366 0.38066238
v 0.11157499 0.26349485 0.4748016
v 0.015113807 0.34866527 0.40489694
v 0.06451131 0.27877676 0.2865231
v 0.035399046 0.28381777 0.49275962
v -0.010748166 0.28581387 0.31703424
v -0.043482307 0.2825324 0.5101897
v -0.08491673 0.27295557 0.34813872
v -0.07772197 0.33617467 0.42916423
v -0.11911652 0.25972575 0.52698123
v -0.15312895 0.24124233 0.37983897
v -0.16270699 0.2994065 0.45341003
v -0.18575184 0.21691257 0.5431814
v -0.2335832 0.2416762 0.4776586
v -0.21047324 0.19301581 0.41213593
v -0.2380103 0.15774839 0.55873334
v -0.28526413 0.16793577 0.50192726
v -0.25301224 0.13193904 0.44512117
v -0.31292683 0.08397279 0.52619576
v -0.27051318 0.08669945 0.57362515
v -0.31820393 -0.0045666755 0.5505051
v -0.27629372 0.062401466 0.47876647
v -0.2827678 0.003999398 0.5878761
v -0.2835067 -0.015736077 0.5131341
v -0.28280902 -0.08545432 0.60120445
v -0.28197443 -0.099307604 0.5479883
v -0.31123427 -0.094118915 0.5745964
vt 0.5 0.00048828125
vt 1.7881393E-07 0.00048828125
vt 1.7881393E-07 0.033691406
vt 0.5 0.033691406
vt 1.7881393E-07 0.06689453
vt 0.9995117 0.033691406
vt 0.9995117 0
vt 0.9995117 0.06689453
vt 0.5 0.06689453
vt 1.7881393E-07 0.100097656
vt 0.5 0.100097656
vt 0.9995117 0.100097656
vt 1.7881393E-07 0.13378906
vt 0.49975586 0.13378906
vt 0.9995117 0.13378906
vt 0.5 0.16699219
vt 1.7881393E-07 0.16699219
vt 0.49975586 0.20019531
vt 0.9995117 0.16699219
vt 1.7881393E-07 0.20019531
vt 0.9995117 0.20019531
vt 5.9604645E-08 0.23339844
vt 0.9995117 0.23339844
vt 0.5 0.23339844
vt 1.7881393E-07 0.26708984
vt 0.9995117 0.26708984
vt 0.5 0.26708984
vt 5.9604645E-08 0.30029297
vt 0.5 0.30029297
vt 0.9995117 0.30029297
vt 0.49975586 0.3334961
vt 1.7881393E-07 0.3334961
vt 0.9995117 0.3334961
vt 0.5 0.36669922
vt 0.9995117 0.36669922
vt 5.9604645E-08 0.36669922
vt 0.9995117 0.40039062
vt 0.5 0.40039062
vt 1.7881393E-07 0.40039062
vt 0.9995117 0.43359375
vt 1.7881393E-07 0.43359375
vt 0.5 0.43359375
vt 1.7881393E-07 0.46679688
vt 0.9995117 0.46679688
vt 0.5 0.46679688
vt 1.7881393E-07 0.5
vt 0.5 0.5
vt 0.9995117 0.5
vt 0.5 0.53344727
vt 1.7881393E-07 0.53344727
vt 0.49975586 0.56689453
vt 0.9995117 0.53344727
vt 1.7881393E-07 0.56689453
vt 0.9995117 0.56689453
vt 1.7881393E-07 0.60009766
vt 0.9995117 0.60009766
vt 0.5 0.60009766
vt 1.7881393E-07 0.6335449
vt 0.9995117 0.6335449
vt 0.5 0.6335449
vt 2.3841858E-07 0.66674805
vt 0.5 0.66674805
vt 0.9995117 0.66674805
vt 1.7881393E-07 0.7001953
vt 0.49975586 0.7001953
vt 0.9995117 0.7001953
vt 0.5 0.73339844
vt 2.3841858E-07 0.73339844
vt 0.5 0.76672363
vt 0.9995117 0.73339844
vt 1.7881393E-07 0.76672363
vt 0.9995117 0.76672363
vt 1.7881393E-07 0.8000488
vt 0.9995117 0.8000488
vt 0.5 0.8000488
vt 2.3841858E-07 0.833374
vt 0.9995117 0.833374
vt 0.49975586 0.833374
vt -5.9604645E-08 0.8666992
vt 0.5 0.8666992
vt 1 0.8666992
vt 1.7881393E-07 0.9000244
vt 0.5 0.9000244
vt 0.9995117 0.9000244
vt 0.49975586 0.9333496
vt 5.9604645E-08 0.9333496
vt 0.5 0.9666748
vt 0.9995117 0.9333496
vt 5.9604645E-08 0.9666748
vt 1 0.9666748
vt 2.3841858E-07 1
vt 0.9995117 1
vt 0.5 1
vn -0.275753 0.9611963 -0.007878658
vn -0.055362355 0.84625316 0.5298968
vn -0.09462615 0.8437499 0.5283294
vn -0.34680092 0.93793875 0
vn -0.22022678 0.8258505 0.519106
vn -0.4628198 0.7138408 -0.525575
vn -0.39277646 0.7541309 -0.5263205
vn -0.62312996 0.58369136 -0.52058953
vn -0.52145 0.85328186 0
vn -0.42547393 0.7406398 0.5200237
vn -0.7302714 0.6831571 0
vn -0.7706984 0.36962068 -0.5190418
vn -0.62026155 0.5888559 0.5181932
vn -0.88965344 0.4566363 0
vn -0.84155494 0.14943498 -0.51908994
vn -0.98027545 0.19763617 0
vn -0.75487655 0.40102813 0.5189777
vn -0.99749833 -0.07068885 0
vn -0.85063106 -0.07876214 -0.5198301
vn -0.83485276 0.18114729 0.51981395
vn -0.8012888 -0.29851934 -0.51848096
vn -0.8523247 -0.047351368 0.5208651
vn -0.69147867 -0.50289357 -0.518609
vn -0.94138646 -0.3373301 0
vn -0.80675906 -0.2768291 0.5220206
vn -0.5285266 -0.6705188 -0.52063817
vn -0.81849176 -0.5745183 0
vn -0.7036508 -0.4822775 0.5218084
vn -0.6323765 -0.77466124 0
vn -0.33080098 -0.7876214 -0.5198301
vn -0.40247414 -0.9154313 0
vn -0.5431387 -0.6533408 0.52739555
vn -0.10994011 -0.8481094 -0.5182891
vn -0.14142135 -0.98994946 0
vn 0.12625067 -0.8443014 -0.520784
vn -0.34753576 -0.77405685 0.5292021
vn 0.34684402 -0.7803989 -0.52026594
vn 0.13370913 -0.9910206 0
vn -0.12573114 -0.84082705 0.5264992
vn 0.54256755 -0.6605169 -0.5189776
vn 0.10243208 -0.8430948 0.52791923
vn 0.39297053 -0.919551 0
vn 0.33148023 -0.78134626 0.52878994
vn 0.7009613 -0.48831007 -0.51981395
vn 0.62373173 -0.78163844 0
vn 0.5269061 -0.6605987 0.53477037
vn 0.81213206 -0.58347356 0
vn 0.80497336 -0.28410822 -0.5208651
vn 0.93793875 -0.34680092 0
vn 0.68433964 -0.49555632 0.5348861
vn 0.9969144 -0.0784972 0
vn 0.84847575 -0.054993805 -0.5263692
vn 0.7936779 -0.2907533 0.5343574
vn 0.83258337 0.17280032 -0.5262555
vn 0.8387579 -0.06271087 0.54088116
vn 0.7648948 0.41004667 -0.4967873
vn 0.9802449 0.19763002 0.0079052
vn 0.82173 0.16592628 0.54518634
vn 0.6623419 0.56772166 -0.48887143
vn 0.8927299 0.45031506 -0.015800528
vn 0.739974 0.3857311 0.5510444
vn 0.7377145 0.6749303 -0.015696054
vn 0.47994313 0.7238487 -0.49567896
vn 0.60849136 0.5689789 0.55317396
vn 0.5271017 0.8496565 -0.01573438
vn 0.26754242 0.826234 -0.49574035
vn 0.2757273 0.9611068 -0.015755847
vn 0.42614913 0.71024853 0.56030715
vn 0.007873528 0.999938 -0.007873528
vn 0.039258275 0.8636821 -0.5025059
vn 0.21269737 0.7956457 0.5671929
vn -0.19660068 0.84145087 -0.5032977
vn -0.0078698695 0.8184664 0.5745005
vn -0.4182314 0.74966 -0.51292527
vn -0.25912058 0.96581304 -0.007852139
vn -0.23586975 0.77837014 0.5818121
vn -0.5996907 0.6075814 -0.520784
vn -0.5121604 0.85885364 -0.007879391
vn -0.4341895 0.6789144 0.5920766
vn -0.7302714 0.6831571 0
vn -0.7333528 0.41793227 -0.5362149
vn -0.592132 0.5289712 0.60792214
vn -0.88965344 0.4566363 0
vn -0.8182891 0.18883596 -0.5429033
vn -0.9820322 0.18855017 0.007856258
vn -0.70571417 0.32933322 0.62730145
vn -0.9997521 -0.015744127 0.015744127
vn -0.81785876 -0.03932013 -0.5740739
vn -0.7318979 0.16526726 0.66106904
vn -0.76283413 -0.20447102 -0.61341304
vn -0.70998317 0.11833053 0.6942058
vn -0.6998985 -0.25164887 -0.66844225
vn -0.9968836 -0.07849477 0.007849477
g eff_112501_dml_spiral_02_0
f 3/3/3 2/2/2 1/1/1
f 4/4/4 3/3/3 1/1/1
f 5/5/5 3/3/3 4/4/4
f 6/6/6 4/4/4 1/1/1
f 1/1/1 7/7/7 6/6/6
f 4/4/4 6/6/6 8/8/8
f 9/9/9 5/5/5 4/4/4
f 8/8/8 9/9/9 4/4/4
f 10/10/10 5/5/5 9/9/9
f 8/8/8 11/11/11 9/9/9
f 10/10/10 9/9/9 11/11/11
f 8/8/8 12/12/12 11/11/11
f 13/13/13 10/10/10 11/11/11
f 12/12/12 14/14/14 11/11/11
f 13/13/13 11/11/11 14/14/14
f 12/12/12 15/15/15 14/14/14
f 13/13/13 14/14/14 16/16/16
f 15/15/15 16/16/16 14/14/14
f 16/16/16 17/17/17 13/13/13
f 17/17/17 16/16/16 18/18/18
f 15/15/15 19/19/19 16/16/16
f 19/19/19 18/18/18 16/16/16
f 18/18/18 20/20/20 17/17/17
f 19/19/19 21/21/21 18/18/18
f 18/18/18 22/22/22 20/20/20
f 18/18/18 21/21/21 23/23/23
f 18/18/18 24/24/24 22/22/22
f 23/23/23 24/24/24 18/18/18
f 24/24/24 25/25/25 22/22/22
f 24/24/24 23/23/23 26/26/26
f 24/24/24 27/27/27 25/25/25
f 26/26/26 27/27/27 24/24/24
f 27/27/27 28/28/28 25/25/25
f 27/27/27 26/26/26 29/29/29
f 27/27/27 29/29/29 28/28/28
f 29/29/29 26/26/26 30/30/30
f 28/28/28 29/29/29 31/31/31
f 31/31/31 29/29/29 30/30/30
f 31/31/31 32/32/32 28/28/28
f 33/33/33 31/31/31 30/30/30
f 32/32/32 31/31/31 34/34/34
f 34/34/34 31/31/31 33/33/33
f 33/33/33 35/35/35 34/34/34
f 34/34/34 36/36/36 32/32/32
f 34/34/34 35/35/35 37/37/37
f 36/36/36 34/34/34 38/38/38
f 37/37/37 38/38/38 34/34/34
f 38/38/38 39/39/39 36/36/36
f 38/38/38 37/37/37 40/40/40
f 41/41/41 39/39/39 38/38/38
f 40/40/40 42/42/42 38/38/38
f 42/42/42 41/41/41 38/38/38
f 43/43/43 41/41/41 42/42/42
f 42/42/42 40/40/40 44/44/44
f 45/45/45 43/43/43 42/42/42
f 44/44/44 45/45/45 42/42/42
f 46/46/46 43/43/43 45/45/45
f 45/45/45 44/44/44 47/47/47
f 46/46/46 45/45/45 47/47/47
f 47/47/47 44/44/44 48/48/48
f 46/46/46 47/47/47 49/49/49
f 49/49/49 47/47/47 48/48/48
f 49/49/49 50/50/50 46/46/46
f 50/50/50 49/49/49 51/51/51
f 52/52/52 49/49/49 48/48/48
f 51/51/51 49/49/49 52/52/52
f 51/51/51 53/53/53 50/50/50
f 52/52/52 54/54/54 51/51/51
f 55/55/55 53/53/53 51/51/51
f 51/51/51 54/54/54 56/56/56
f 51/51/51 57/57/57 55/55/55
f 56/56/56 57/57/57 51/51/51
f 58/58/58 55/55/55 57/57/57
f 57/57/57 56/56/56 59/59/59
f 60/60/60 58/58/58 57/57/57
f 59/59/59 60/60/60 57/57/57
f 61/61/61 58/58/58 60/60/60
f 62/62/62 60/60/60 59/59/59
f 62/62/62 61/61/61 60/60/60
f 59/59/59 63/63/63 62/62/62
f 64/64/64 61/61/61 62/62/62
f 65/65/65 62/62/62 63/63/63
f 64/64/64 62/62/62 65/65/65
f 63/63/63 66/66/66 65/65/65
f 64/64/64 65/65/65 67/67/67
f 67/67/67 65/65/65 66/66/66
f 67/67/67 68/68/68 64/64/64
f 68/68/68 67/67/67 69/69/69
f 66/66/66 70/70/70 67/67/67
f 69/69/69 67/67/67 70/70/70
f 69/69/69 71/71/71 68/68/68
f 70/70/70 72/72/72 69/69/69
f 73/73/73 71/71/71 69/69/69
f 69/69/69 72/72/72 74/74/74
f 75/75/75 73/73/73 69/69/69
f 74/74/74 75/75/75 69/69/69
f 76/76/76 73/73/73 75/75/75
f 75/75/75 74/74/74 77/77/77
f 78/78/78 76/76/76 75/75/75
f 77/77/77 78/78/78 75/75/75
f 79/79/79 76/76/76 78/78/78
f 80/80/80 78/78/78 77/77/77
f 80/80/80 79/79/79 78/78/78
f 77/77/77 81/81/81 80/80/80
f 79/79/79 80/80/80 82/82/82
f 83/83/83 80/80/80 81/81/81
f 83/83/83 82/82/82 80/80/80
f 81/81/81 84/84/84 83/83/83
f 82/82/82 83/83/83 85/85/85
f 85/85/85 83/83/83 84/84/84
f 85/85/85 86/86/86 82/82/82
f 86/86/86 85/85/85 87/87/87
f 84/84/84 88/88/88 85/85/85
f 87/87/87 85/85/85 88/88/88
f 87/87/87 89/89/89 86/86/86
f 88/88/88 90/90/90 87/87/87
f 89/89/89 87/87/87 91/91/91
f 90/90/90 92/92/92 87/87/87
f 87/87/87 93/93/93 91/91/91
f 87/87/87 92/92/92 93/93/93
