g eff_cmn_cylinder_02
v 2.4531012 0.81217206 3.0861767E-07
v 2.5999997 1 3.5773922E-07
v 2.5500414 0.99999994 0.5072351
v 2.4059653 0.8121719 0.4785765
v 1.8312776 -1.140887E-14 9.864382E-08
v 2.4020865 0.9999998 0.994977
v 1.7960902 -4.2589257E-08 0.35726458
v 2.2663698 0.81217176 0.93876135
v 2.1618207 0.99999976 1.444483
v 1.69188 -8.354182E-08 0.7007996
v 2.039679 0.8121718 1.3628706
v 1.8384774 0.9999997 1.8384781
v 1.5226518 -1.2128397E-07 1.0174036
v 1.7346044 0.81217176 1.734605
v 1.4444822 0.99999964 2.1618216
v 1.2949088 -1.5436522E-07 1.2949092
v 1.3628697 0.8121717 2.0396798
v 0.9949763 0.9999996 2.4020877
v 1.0174032 -1.8151428E-07 1.5226521
v 0.93876064 0.8121717 2.2663708
v 0.50723404 0.9999996 2.5500424
v 0.7007993 -2.0168787E-07 1.6918805
v 0.47857556 0.81217164 2.405966
v -1.0227884E-06 0.9999996 2.6000006
v 0.35726404 -2.141107E-07 1.7960906
v -9.566717E-07 0.81217164 2.453102
v -0.50723606 0.9999996 2.5500422
v -6.95415E-07 -2.1830536E-07 1.831278
v -0.47857746 0.81217164 2.4059658
v -0.9949782 0.9999996 2.4020867
v -0.3572654 -2.1411068E-07 1.7960904
v -0.9387625 0.8121717 2.2663703
v -1.444484 0.99999964 2.161821
v -0.70080054 -2.0168781E-07 1.69188
v -1.3628713 0.8121717 2.039679
v -1.8384789 0.9999997 1.838477
v -1.0174044 -1.8151424E-07 1.5226516
v -1.7346058 0.81217176 1.734604
v -2.1618223 0.99999976 1.4444816
v -1.2949098 -1.5436511E-07 1.2949084
v -2.0396802 0.8121718 1.362869
v -2.402088 0.9999998 0.99497545
v -1.5226526 -1.2128386E-07 1.0174026
v -2.266371 0.8121719 0.9387598
v -2.5500424 0.99999994 0.50723314
v -1.6918807 -8.35417E-08 0.7007985
v -2.405966 0.812172 0.47857466
v -2.6000001 1 -1.9565239E-06
v -1.7960906 -4.2589093E-08 0.3572632
v -2.4531019 0.81217206 -1.8748908E-06
v -2.5500414 1.0000001 -0.5072369
v -1.8312778 1.8290497E-13 -1.5313788E-06
v -2.4059653 0.812172 -0.47857836
v -2.4020858 1.0000001 -0.994979
v -1.79609 4.2589456E-08 -0.35726622
v -2.266369 0.81217223 -0.93876326
v -2.1618195 1.0000002 -1.4444846
v -1.6918793 8.3542034E-08 -0.7008013
v -2.0396779 0.8121723 -1.362872
v -1.8384753 1.0000004 -1.8384793
v -1.5226506 1.2128412E-07 -1.0174049
v -1.7346026 0.81217223 -1.7346061
v -1.4444798 1.0000004 -2.161822
v -1.2949073 1.5436532E-07 -1.2949102
v -1.3628675 0.8121724 -2.0396802
v -0.99497354 1.0000004 -2.4020875
v -1.0174015 1.8151437E-07 -1.5226529
v -0.9387581 0.8121724 -2.2663708
v -0.50723106 1.0000004 -2.5500417
v -0.70079726 2.016879E-07 -1.6918807
v -0.47857276 0.8121725 -2.4059656
v -1.7560086E-07 1.0000005 -2.5999994
v -0.3572619 2.1411068E-07 -1.7960904
v -1.573497E-07 0.81217235 -2.453101
v 0.50723463 1.0000004 -2.550041
v -9.870894E-08 2.183053E-07 -1.8312774
v 0.47857615 0.8121725 -2.4059649
v 0.99497676 1.0000004 -2.402086
v 0.35726446 2.1411063E-07 -1.7960899
v 0.9387611 0.8121723 -2.2663693
v 1.4444824 1.0000004 -2.1618202
v 0.7007996 2.0168777E-07 -1.6918796
v 1.3628699 0.8121723 -2.0396783
v 1.8384774 1.0000004 -1.838477
v 1.0174034 1.815142E-07 -1.5226514
v 1.7346044 0.81217235 -1.734604
v 2.1618207 1.0000002 -1.4444818
v 1.2949088 1.5436513E-07 -1.2949085
v 2.039679 0.8121723 -1.3628694
v 2.4020863 1.0000001 -0.99497634
v 1.5226518 1.2128389E-07 -1.017403
v 2.2663696 0.81217223 -0.93876076
v 2.5500412 1.0000001 -0.50723433
v 1.6918799 8.3541806E-08 -0.7007994
v 2.4059653 0.812172 -0.47857592
v 2.5999997 1 3.5773922E-07
v 1.7960901 4.2589242E-08 -0.3572644
v 2.4531012 0.81217206 3.0861767E-07
v 1.8312776 -1.140887E-14 9.864382E-08
vt 0.9999422 0.7675977
vt 0.9999409 0.99997956
vt 0.9686945 0.9999794
vt 0.96869576 0.7675975
vt 0.9999435 5.9574842E-05
vt 0.9374482 0.99997914
vt 0.968697 5.9336424E-05
vt 0.93744934 0.76759726
vt 0.90620184 0.99997896
vt 0.9374505 5.9098005E-05
vt 0.906203 0.767597
vt 0.87495553 0.9999788
vt 0.9062041 5.8859587E-05
vt 0.8749566 0.76759684
vt 0.8437091 0.9999786
vt 0.8749577 5.8680773E-05
vt 0.8437101 0.76759666
vt 0.8124628 0.9999784
vt 0.84371114 5.8442354E-05
vt 0.81246376 0.7675965
vt 0.7812165 0.99997824
vt 0.8124647 5.826354E-05
vt 0.7812174 0.7675963
vt 0.7499701 0.9999781
vt 0.7812183 5.8084726E-05
vt 0.7499709 0.7675961
vt 0.7187238 0.999978
vt 0.7499718 5.7905912E-05
vt 0.71872455 0.767596
vt 0.6874774 0.9999779
vt 0.7187253 5.77569E-05
vt 0.6874781 0.7675959
vt 0.65623105 0.99997777
vt 0.68747884 5.760789E-05
vt 0.6562317 0.76759577
vt 0.6249846 0.99997765
vt 0.65623236 5.748868E-05
vt 0.6249852 0.76759565
vt 0.5937382 0.9999776
vt 0.6249859 5.736947E-05
vt 0.5937388 0.7675955
vt 0.56249183 0.99997747
vt 0.5937394 5.725026E-05
vt 0.5624924 0.7675954
vt 0.53124547 0.9999774
vt 0.5624929 5.7160854E-05
vt 0.53124595 0.76759535
vt 0.4999991 0.99997735
vt 0.5312464 5.7041645E-05
vt 0.49999955 0.7675953
vt 0.46875262 0.9999773
vt 0.5 5.6952238E-05
vt 0.46875307 0.7675952
vt 0.43750626 0.9999772
vt 0.46875352 5.686283E-05
vt 0.43750662 0.7675951
vt 0.40625983 0.9999772
vt 0.43750697 5.6803226E-05
vt 0.4062602 0.7675951
vt 0.37501347 0.9999771
vt 0.40626055 5.6773424E-05
vt 0.37501377 0.76759505
vt 0.343767 0.99997705
vt 0.37501407 5.671382E-05
vt 0.3437673 0.767595
vt 0.31252062 0.99997705
vt 0.34376758 5.6654215E-05
vt 0.31252086 0.76759493
vt 0.28127426 0.99997705
vt 0.3125211 5.659461E-05
vt 0.2812744 0.76759493
vt 0.2500282 0.999977
vt 0.28127456 5.6535006E-05
vt 0.25002834 0.7675949
vt 0.21878183 0.99997705
vt 0.2500285 5.6535006E-05
vt 0.21878192 0.76759493
vt 0.1875354 0.99997705
vt 0.21878201 5.6505203E-05
vt 0.18753543 0.7675949
vt 0.15628898 0.99997705
vt 0.18753546 5.64754E-05
vt 0.15628898 0.7675949
vt 0.12504262 0.9999771
vt 0.15628898 5.64754E-05
vt 0.12504256 0.76759493
vt 0.09379625 0.9999772
vt 0.1250425 5.64754E-05
vt 0.093796134 0.767595
vt 0.06254983 0.99997723
vt 0.093796015 5.6535006E-05
vt 0.06254965 0.767595
vt 0.031303465 0.9999773
vt 0.06254947 5.6535006E-05
vt 0.031303227 0.76759505
vt 5.7041645E-05 0.9999774
vt 0.03130299 5.659461E-05
vt 5.6743622E-05 0.7675952
vt 5.64456E-05 5.6654215E-05
vn -0.7907435 0.6121476 0
vn -0.78770334 0.6160548 0
vn -0.7725674 0.6160553 -0.15367322
vn -0.77554935 0.6121479 -0.15426633
vn -0.7940035 0.60791314 0
vn -0.7277428 0.61605513 -0.30144075
vn -0.7787471 0.60791314 -0.15490232
vn -0.7305516 0.6121479 -0.3026042
vn -0.65495104 0.61605537 -0.4376241
vn -0.73356366 0.6079132 -0.30385178
vn -0.65747905 0.61214805 -0.43931323
vn -0.5569897 0.6160558 -0.5569898
vn -0.6601898 0.60791326 -0.4411246
vn -0.5591397 0.6121483 -0.5591397
vn -0.437624 0.6160558 -0.6549507
vn -0.5614452 0.60791326 -0.56144524
vn -0.43931332 0.6121482 -0.65747875
vn -0.30144036 0.6160562 -0.727742
vn -0.44112474 0.60791326 -0.6601897
vn -0.30260402 0.61214846 -0.7305512
vn -0.15367302 0.6160562 -0.7725667
vn -0.30385178 0.60791326 -0.7335636
vn -0.15426625 0.6121485 -0.77554893
vn -0 0.6160561 -0.7877023
vn -0.15490235 0.6079134 -0.77874684
vn -0 0.61214846 -0.79074293
vn 0.1536737 0.61605585 -0.77256685
vn -0 0.6079135 -0.79400337
vn 0.15426679 0.6121483 -0.77554893
vn 0.30144095 0.61605585 -0.727742
vn 0.15490276 0.6079133 -0.7787468
vn 0.30260447 0.6121483 -0.7305511
vn 0.43762442 0.61605585 -0.6549504
vn 0.30385226 0.6079134 -0.73356336
vn 0.4393136 0.6121483 -0.65747845
vn 0.55698997 0.6160562 -0.5569892
vn 0.44112504 0.6079134 -0.6601894
vn 0.5591401 0.61214846 -0.55913925
vn 0.6549504 0.6160568 -0.43762308
vn 0.5614458 0.60791326 -0.56144476
vn 0.6574788 0.61214876 -0.43931255
vn 0.7277418 0.61605686 -0.30143955
vn 0.6601901 0.6079132 -0.44112408
vn 0.7305511 0.6121489 -0.30260333
vn 0.77256685 0.6160562 -0.1536723
vn 0.7335637 0.6079133 -0.30385122
vn 0.77554905 0.6121484 -0.1542656
vn 0.7877028 0.6160554 0
vn 0.77874696 0.60791326 -0.15490183
vn 0.7907431 0.61214805 0
vn 0.77256733 0.61605513 0.15367427
vn 0.7940035 0.60791326 0
vn 0.7755492 0.61214787 0.15426749
vn 0.72774214 0.61605537 0.30144176
vn 0.7787467 0.60791326 0.15490358
vn 0.7305511 0.6121479 0.30260527
vn 0.6549505 0.61605513 0.4376252
vn 0.73356324 0.60791314 0.30385292
vn 0.6574784 0.6121479 0.43931434
vn 0.55698943 0.6160549 0.5569911
vn 0.66018915 0.6079132 0.44112557
vn 0.55913925 0.6121477 0.55914086
vn 0.43762353 0.61605525 0.6549517
vn 0.5614445 0.607913 0.5614462
vn 0.43931258 0.61214775 0.65747964
vn 0.30143976 0.6160553 0.72774297
vn 0.4411239 0.6079129 0.66019046
vn 0.3026032 0.6121479 0.730552
vn 0.15367225 0.6160553 0.77256763
vn 0.30385077 0.60791296 0.73356426
vn 0.1542655 0.61214787 0.7755496
vn -0 0.6160552 0.787703
vn 0.1549016 0.607913 0.77874726
vn -0 0.61214787 0.7907433
vn -0.15367308 0.61605525 0.7725674
vn -0 0.607913 0.79400355
vn -0.1542664 0.6121479 0.7755495
vn -0.30144063 0.6160554 0.7277426
vn -0.15490255 0.607913 0.7787471
vn -0.30260423 0.61214787 0.73055154
vn -0.43762407 0.61605567 0.65495086
vn -0.303852 0.6079129 0.7335638
vn -0.43931335 0.61214805 0.657479
vn -0.5569898 0.6160556 0.55698997
vn -0.4411249 0.6079129 0.66019
vn -0.55913985 0.6121479 0.55913997
vn -0.6549512 0.61605513 0.43762422
vn -0.56144536 0.6079129 0.5614454
vn -0.65747917 0.6121477 0.43931335
vn -0.72774243 0.61605537 0.30144086
vn -0.66019 0.6079129 0.44112477
vn -0.73055154 0.6121478 0.3026044
vn -0.77256763 0.61605495 0.15367351
vn -0.73356366 0.60791296 0.30385214
vn -0.7755495 0.61214775 0.15426664
vn -0.78770334 0.6160548 0
vn -0.7787469 0.60791314 0.15490268
vn -0.7907435 0.6121476 0
vn -0.7940035 0.60791314 0
g eff_cmn_cylinder_02_0
f 3/3/3 2/2/2 1/1/1
f 4/4/4 3/3/3 1/1/1
f 4/4/4 1/1/1 5/5/5
f 6/6/6 3/3/3 4/4/4
f 7/7/7 4/4/4 5/5/5
f 8/8/8 6/6/6 4/4/4
f 8/8/8 4/4/4 7/7/7
f 9/9/9 6/6/6 8/8/8
f 10/10/10 8/8/8 7/7/7
f 11/11/11 9/9/9 8/8/8
f 11/11/11 8/8/8 10/10/10
f 12/12/12 9/9/9 11/11/11
f 13/13/13 11/11/11 10/10/10
f 14/14/14 12/12/12 11/11/11
f 14/14/14 11/11/11 13/13/13
f 15/15/15 12/12/12 14/14/14
f 16/16/16 14/14/14 13/13/13
f 17/17/17 15/15/15 14/14/14
f 17/17/17 14/14/14 16/16/16
f 18/18/18 15/15/15 17/17/17
f 19/19/19 17/17/17 16/16/16
f 20/20/20 18/18/18 17/17/17
f 20/20/20 17/17/17 19/19/19
f 21/21/21 18/18/18 20/20/20
f 22/22/22 20/20/20 19/19/19
f 23/23/23 21/21/21 20/20/20
f 23/23/23 20/20/20 22/22/22
f 24/24/24 21/21/21 23/23/23
f 25/25/25 23/23/23 22/22/22
f 26/26/26 24/24/24 23/23/23
f 26/26/26 23/23/23 25/25/25
f 27/27/27 24/24/24 26/26/26
f 28/28/28 26/26/26 25/25/25
f 29/29/29 27/27/27 26/26/26
f 29/29/29 26/26/26 28/28/28
f 30/30/30 27/27/27 29/29/29
f 31/31/31 29/29/29 28/28/28
f 32/32/32 30/30/30 29/29/29
f 32/32/32 29/29/29 31/31/31
f 33/33/33 30/30/30 32/32/32
f 34/34/34 32/32/32 31/31/31
f 35/35/35 33/33/33 32/32/32
f 35/35/35 32/32/32 34/34/34
f 36/36/36 33/33/33 35/35/35
f 37/37/37 35/35/35 34/34/34
f 38/38/38 36/36/36 35/35/35
f 38/38/38 35/35/35 37/37/37
f 39/39/39 36/36/36 38/38/38
f 40/40/40 38/38/38 37/37/37
f 41/41/41 39/39/39 38/38/38
f 41/41/41 38/38/38 40/40/40
f 42/42/42 39/39/39 41/41/41
f 43/43/43 41/41/41 40/40/40
f 44/44/44 42/42/42 41/41/41
f 44/44/44 41/41/41 43/43/43
f 45/45/45 42/42/42 44/44/44
f 46/46/46 44/44/44 43/43/43
f 47/47/47 45/45/45 44/44/44
f 47/47/47 44/44/44 46/46/46
f 48/48/48 45/45/45 47/47/47
f 49/49/49 47/47/47 46/46/46
f 50/50/50 48/48/48 47/47/47
f 50/50/50 47/47/47 49/49/49
f 51/51/51 48/48/48 50/50/50
f 52/52/52 50/50/50 49/49/49
f 53/53/53 51/51/51 50/50/50
f 53/53/53 50/50/50 52/52/52
f 54/54/54 51/51/51 53/53/53
f 55/55/55 53/53/53 52/52/52
f 56/56/56 54/54/54 53/53/53
f 56/56/56 53/53/53 55/55/55
f 57/57/57 54/54/54 56/56/56
f 58/58/58 56/56/56 55/55/55
f 59/59/59 57/57/57 56/56/56
f 59/59/59 56/56/56 58/58/58
f 60/60/60 57/57/57 59/59/59
f 61/61/61 59/59/59 58/58/58
f 62/62/62 60/60/60 59/59/59
f 62/62/62 59/59/59 61/61/61
f 63/63/63 60/60/60 62/62/62
f 64/64/64 62/62/62 61/61/61
f 65/65/65 63/63/63 62/62/62
f 65/65/65 62/62/62 64/64/64
f 66/66/66 63/63/63 65/65/65
f 67/67/67 65/65/65 64/64/64
f 68/68/68 66/66/66 65/65/65
f 68/68/68 65/65/65 67/67/67
f 69/69/69 66/66/66 68/68/68
f 70/70/70 68/68/68 67/67/67
f 71/71/71 69/69/69 68/68/68
f 71/71/71 68/68/68 70/70/70
f 72/72/72 69/69/69 71/71/71
f 73/73/73 71/71/71 70/70/70
f 74/74/74 72/72/72 71/71/71
f 74/74/74 71/71/71 73/73/73
f 75/75/75 72/72/72 74/74/74
f 76/76/76 74/74/74 73/73/73
f 77/77/77 75/75/75 74/74/74
f 77/77/77 74/74/74 76/76/76
f 78/78/78 75/75/75 77/77/77
f 79/79/79 77/77/77 76/76/76
f 80/80/80 78/78/78 77/77/77
f 80/80/80 77/77/77 79/79/79
f 81/81/81 78/78/78 80/80/80
f 82/82/82 80/80/80 79/79/79
f 83/83/83 81/81/81 80/80/80
f 83/83/83 80/80/80 82/82/82
f 84/84/84 81/81/81 83/83/83
f 85/85/85 83/83/83 82/82/82
f 86/86/86 84/84/84 83/83/83
f 86/86/86 83/83/83 85/85/85
f 87/87/87 84/84/84 86/86/86
f 88/88/88 86/86/86 85/85/85
f 89/89/89 87/87/87 86/86/86
f 89/89/89 86/86/86 88/88/88
f 90/90/90 87/87/87 89/89/89
f 91/91/91 89/89/89 88/88/88
f 92/92/92 90/90/90 89/89/89
f 92/92/92 89/89/89 91/91/91
f 93/93/93 90/90/90 92/92/92
f 94/94/94 92/92/92 91/91/91
f 95/95/95 93/93/93 92/92/92
f 95/95/95 92/92/92 94/94/94
f 96/96/96 93/93/93 95/95/95
f 97/97/97 95/95/95 94/94/94
f 98/98/98 96/96/96 95/95/95
f 98/98/98 95/95/95 97/97/97
f 99/99/99 98/98/98 97/97/97
