g eff_mesh_drop
v -6.740199E-09 -0.43662333 6.1799675E-08
v -0.0956709 -0.3985631 0.16570692
v -6.740199E-09 -0.3985631 0.19134185
v -0.17677672 -0.2901767 0.3061863
v -6.740199E-09 -0.2901767 0.35355347
v 0.09567085 -0.3985631 0.16570689
v -6.740199E-09 -0.43662333 6.1799675E-08
v -0.30618623 -0.29017672 0.17677674
v -0.16570686 -0.39856312 0.09567094
v -6.740199E-09 -0.43662333 6.1799675E-08
v -0.23096992 -0.12796494 0.40005162
v -0.40005162 -0.127965 0.23096989
v 0.17677662 -0.2901767 0.3061863
v -4.3497057E-08 -0.12796493 0.46193972
v 0.1657068 -0.39856312 0.09567093
v -6.740199E-09 -0.43662333 6.1799675E-08
v -0.35355344 -0.29017678 2.853556E-08
v -0.46193984 -0.12796506 -1.722923E-08
v -0.19134179 -0.39856315 5.1664024E-08
v -6.740199E-09 -0.43662333 6.1799675E-08
v -0.43301275 0.063957155 0.24999996
v -0.25000003 0.06395721 0.43301266
v -0.5 0.06395709 -8.6277375E-08
v 0.30618617 -0.29017672 0.17677675
v 0.23096982 -0.12796494 0.40005153
v 0.19134174 -0.39856315 5.9114605E-08
v -6.740199E-09 -0.43662333 6.1799675E-08
v 0.35355338 -0.29017678 5.8337882E-08
v 0.4000515 -0.127965 0.23096986
v 0.46193972 -0.12796506 -2.3280684E-09
v -6.740199E-09 0.06395723 0.49999997
v 0.4330126 0.06395716 0.2499999
v 0.4999999 0.063957095 -7.137622E-08
v 0.24999991 0.06395721 0.43301257
v 0.40005147 0.28377727 0.23096977
v 0.4619397 0.2837772 -7.378942E-08
v 0.23096979 0.2837773 0.40005141
v -7.3299375E-08 0.2837773 0.46193957
v -0.2309699 0.2837773 0.40005147
v 0.30618617 0.53081113 0.17677653
v 0.35355338 0.5308111 -1.7328739E-07
v 0.17677662 0.530811 0.30618605
v -6.740199E-09 0.5308111 0.35355324
v 0.1657068 0.79432845 0.095670596
v 0.19134173 0.7943286 -2.6998532E-07
v -6.7401955E-09 1.0633767 -4.0510668E-07
v 0.09567085 0.7943285 0.16570655
v -6.7401955E-09 1.0633767 -4.0510668E-07
v -2.8595892E-08 0.7943285 0.19134147
v -6.7401955E-09 1.0633767 -4.0510668E-07
v -0.17677672 0.530811 0.30618605
v -0.095670894 0.7943285 0.16570656
v -6.7401955E-09 1.0633767 -4.0510668E-07
v -0.16570684 0.79432845 0.095670596
v -6.7401955E-09 1.0633767 -4.0510668E-07
v -0.30618623 0.530811 0.17677651
v -0.40005162 0.28377724 0.23096976
v -0.19134177 0.7943286 -2.8488648E-07
v -6.7401955E-09 1.0633767 -4.0510668E-07
v -0.4619398 0.28377718 -1.6319638E-07
v -0.35355344 0.53081095 -2.0308968E-07
v -0.16570683 0.7943286 -0.09567117
v -6.7401955E-09 1.0633767 -4.0510668E-07
v -0.30618626 0.5308109 -0.17677692
v -0.4000516 0.28377712 -0.23097005
v -0.09567087 0.7943285 -0.1657071
v -6.7401955E-09 1.0633767 -4.0510668E-07
v -0.1767767 0.530811 -0.30618644
v -0.4330127 0.06395702 -0.25000006
v 1.2064296E-09 0.7943285 -0.19134203
v -6.7401955E-09 1.0633767 -4.0510668E-07
v -0.23096988 0.28377706 -0.40005174
v -0.40005162 -0.12796512 -0.23096994
v 1.6107592E-08 0.53081095 -0.3535536
v -0.25 0.063956976 -0.43301275
v -0.30618626 -0.29017684 -0.17677669
v 0.09567087 0.7943285 -0.16570708
v -6.7401955E-09 1.0633767 -4.0510668E-07
v 3.100875E-08 0.2837771 -0.4619399
v -0.2309699 -0.12796518 -0.40005162
v -0.16570684 -0.39856318 -0.09567084
v -6.740199E-09 -0.43662333 6.1799675E-08
v 0.1767767 0.530811 -0.3061864
v -1.36947325E-08 0.06395695 -0.5
v -0.1767767 -0.29017687 -0.3061862
v 0.1657068 0.7943286 -0.09567115
v -6.7401955E-09 1.0633767 -4.0510668E-07
v 0.2309699 0.2837771 -0.40005165
v 1.2064296E-09 -0.1279652 -0.4619398
v -0.09567088 -0.3985632 -0.16570677
v -6.740199E-09 -0.43662333 6.1799675E-08
v 0.30618623 0.530811 -0.17677687
v 0.24999997 0.063956976 -0.43301272
v 1.6107592E-08 -0.29017687 -0.35355335
v 0.19134173 0.7943286 -2.6998532E-07
v -6.7401955E-09 1.0633767 -4.0510668E-07
v 0.35355338 0.5308111 -1.7328739E-07
v 0.40005156 0.28377715 -0.23096994
v 0.4619397 0.2837772 -7.378942E-08
v 0.43301263 0.06395703 -0.25000006
v 0.4999999 0.063957095 -7.137622E-08
v 0.23096989 -0.12796518 -0.4000516
v 0.40005156 -0.12796512 -0.23096989
v 0.46193972 -0.12796506 -2.3280684E-09
v 0.1767767 -0.29017687 -0.30618617
v 0.30618623 -0.29017684 -0.17677665
v 0.35355338 -0.29017678 5.8337882E-08
v 1.2064296E-09 -0.3985632 -0.1913417
v -6.740199E-09 -0.43662333 6.1799675E-08
v 0.09567088 -0.3985632 -0.16570675
v -6.740199E-09 -0.43662333 6.1799675E-08
v 0.16570681 -0.39856318 -0.09567083
v -6.740199E-09 -0.43662333 6.1799675E-08
v 0.19134174 -0.39856315 5.9114605E-08
v -6.740199E-09 -0.43662333 6.1799675E-08
vt 0.7083333 0
vt 0.6666666 0.12500006
vt 0.75 0.12500006
vt 0.6666666 0.25
vt 0.75 0.25
vt 0.8333334 0.125
vt 0.7916666 0
vt 0.5833333 0.25
vt 0.5833333 0.12500006
vt 0.62499994 0
vt 0.6666667 0.375
vt 0.5833333 0.375
vt 0.83333325 0.25
vt 0.75 0.375
vt 0.9166667 0.12500006
vt 0.875 0
vt 0.49999997 0.25
vt 0.5 0.37500006
vt 0.49999997 0.12500006
vt 0.5416666 0
vt 0.5833333 0.5
vt 0.6666666 0.5
vt 0.49999997 0.5
vt 0.9166666 0.25
vt 0.8333334 0.375
vt 1 0.12500006
vt 0.9583334 0
vt 1 0.25
vt 0.9166666 0.375
vt 1 0.375
vt 0.75 0.5
vt 0.9166666 0.5
vt 1 0.5
vt 0.8333334 0.5
vt 0.9166666 0.62500006
vt 1 0.62500006
vt 0.83333325 0.62500006
vt 0.74999994 0.62500006
vt 0.6666667 0.625
vt 0.9166666 0.75000006
vt 1 0.75000006
vt 0.83333325 0.75000006
vt 0.75 0.75000006
vt 0.9166667 0.875
vt 1 0.875
vt 0.9583334 1
vt 0.8333334 0.875
vt 0.875 1
vt 0.75 0.875
vt 0.7916666 1
vt 0.6666666 0.75000006
vt 0.6666666 0.875
vt 0.7083333 1
vt 0.5833333 0.875
vt 0.62499994 1
vt 0.5833333 0.75
vt 0.5833333 0.625
vt 0.49999997 0.875
vt 0.5416666 1
vt 0.49999997 0.625
vt 0.49999997 0.75
vt 0.41666663 0.875
vt 0.45833325 1
vt 0.41666666 0.75
vt 0.41666666 0.625
vt 0.3333333 0.875
vt 0.37499994 1
vt 0.3333333 0.75
vt 0.41666666 0.5
vt 0.25 0.875
vt 0.29166663 1
vt 0.3333333 0.625
vt 0.41666666 0.37500006
vt 0.25 0.75
vt 0.3333333 0.5
vt 0.41666666 0.25
vt 0.16666666 0.875
vt 0.20833337 1
vt 0.25 0.625
vt 0.3333333 0.37500006
vt 0.41666663 0.12500006
vt 0.45833328 0
vt 0.16666666 0.75
vt 0.25 0.5
vt 0.3333333 0.25
vt 0.08333334 0.875
vt 0.12500006 1
vt 0.16666666 0.625
vt 0.25 0.37500006
vt 0.3333333 0.12500006
vt 0.37499994 0
vt 0.08333334 0.75
vt 0.16666666 0.5
vt 0.25 0.25
vt 2.9802322E-08 0.875
vt 0.041666746 1
vt 0 0.75000006
vt 0.08333334 0.625
vt 0 0.62500006
vt 0.08333334 0.5
vt 2.9802322E-08 0.5
vt 0.16666666 0.37500006
vt 0.08333334 0.375
vt 2.9802322E-08 0.375
vt 0.16666666 0.25
vt 0.08333334 0.25
vt 0 0.25
vt 0.25 0.12500006
vt 0.29166666 0
vt 0.16666666 0.12500006
vt 0.20833334 0
vt 0.08333334 0.12500006
vt 0.12500006 0
vt 2.9802322E-08 0.12500006
vt 0.041666746 0
vn -0 -1 0
vn -0.20485005 -0.91222006 0.354811
vn -0 -0.91222006 0.40970036
vn -0.3612816 -0.6913047 0.6257583
vn -0 -0.6913047 0.72256345
vn 0.20485008 -0.9122202 0.35481095
vn -0 -1 0
vn -0.625758 -0.69130474 0.36128178
vn -0.35481068 -0.9122202 0.20485035
vn -0 -1 0
vn -0.4642215 -0.37147436 0.8040554
vn -0.80405533 -0.37147444 0.4642216
vn 0.36128163 -0.6913047 0.6257583
vn -0 -0.3714743 0.9284432
vn 0.35481083 -0.91222006 0.20485039
vn -0 -1 0
vn -0.72256315 -0.6913049 0
vn -0.92844313 -0.3714745 0
vn -0.40970013 -0.9122203 0
vn -0 -1 0
vn -0.86596507 -0.011812996 0.49996504
vn -0.49996507 -0.011812908 0.865965
vn -0.99993026 -0.011813119 0
vn 0.625758 -0.69130474 0.36128187
vn 0.46422163 -0.37147427 0.8040554
vn 0.40970019 -0.9122202 0
vn -0 -1 0
vn 0.7225632 -0.6913048 0
vn 0.8040553 -0.37147436 0.46422175
vn 0.92844313 -0.37147447 0
vn -0 -0.011812828 0.99993026
vn 0.865965 -0.011812985 0.49996516
vn 0.99993026 -0.011813103 0
vn 0.49996522 -0.011812886 0.8659649
vn 0.83063495 0.2829499 0.47956744
vn 0.95913476 0.28294966 0
vn 0.4795673 0.28294998 0.830635
vn -0 0.28295016 0.9591345
vn -0.47956732 0.2829502 0.83063495
vn 0.76919615 0.45947388 0.44409582
vn 0.8881914 0.45947364 0
vn 0.4440956 0.45947385 0.76919633
vn -0 0.45947394 0.8881912
vn 0.7234581 0.5496766 0.4176889
vn 0.83537763 0.54967654 0
vn -0 1 0
vn 0.41768867 0.5496767 0.72345823
vn -0 1 0
vn -0 0.54967666 0.83537745
vn -0 1 0
vn -0.4440956 0.45947406 0.76919615
vn -0.41768864 0.5496768 0.7234581
vn -0 1 0
vn -0.7234582 0.54967654 0.4176889
vn -0 1 0
vn -0.76919615 0.45947397 0.4440957
vn -0.830635 0.28295 0.47956723
vn -0.83537763 0.5496765 0
vn -0 1 0
vn -0.95913464 0.28294984 0
vn -0.8881913 0.45947376 0
vn -0.72345823 0.54967636 -0.41768903
vn -0 1 0
vn -0.76919633 0.4594736 -0.44409585
vn -0.830635 0.28294963 -0.4795675
vn -0.41768876 0.5496763 -0.72345847
vn -0 1 0
vn -0.44409573 0.45947355 -0.76919645
vn -0.865965 -0.011813252 -0.49996516
vn -0 0.5496762 -0.83537775
vn -0 1 0
vn -0.47956735 0.28294948 -0.8306352
vn -0.8040553 -0.3714746 -0.46422163
vn -0 0.45947343 -0.88819146
vn -0.49996504 -0.011813346 -0.86596507
vn -0.62575793 -0.69130504 -0.36128148
vn 0.41768885 0.5496762 -0.7234584
vn -0 1 0
vn -0 0.28294942 -0.95913476
vn -0.4642215 -0.37147465 -0.80405533
vn -0.35481068 -0.9122203 -0.20484981
vn -0 -1 0
vn 0.44409582 0.4594734 -0.7691964
vn -0 -0.0118133705 -0.99993026
vn -0.36128148 -0.69130504 -0.6257579
vn 0.7234583 0.5496764 -0.4176889
vn -0 1 0
vn 0.47956747 0.2829495 -0.83063513
vn -0 -0.37147477 -0.92844313
vn -0.20485003 -0.91222036 -0.35481054
vn -0 -1 0
vn 0.76919645 0.45947358 -0.44409567
vn 0.49996513 -0.011813324 -0.865965
vn -0 -0.6913051 -0.72256297
vn 0.83537763 0.54967654 0
vn -0 1 0
vn 0.8881914 0.45947364 0
vn 0.8306352 0.28294957 -0.4795673
vn 0.95913476 0.28294966 0
vn 0.86596507 -0.011813238 -0.49996504
vn 0.99993026 -0.011813103 0
vn 0.46422163 -0.3714747 -0.8040553
vn 0.80405533 -0.3714746 -0.46422145
vn 0.92844313 -0.37147447 0
vn 0.3612816 -0.69130504 -0.6257578
vn 0.62575805 -0.691305 -0.36128134
vn 0.7225632 -0.6913048 0
vn -0 -0.91222036 -0.40969995
vn -0 -1 0
vn 0.20485009 -0.91222036 -0.35481045
vn -0 -1 0
vn 0.3548107 -0.9122203 -0.2048498
vn -0 -1 0
vn 0.40970019 -0.9122202 0
vn -0 -1 0
g eff_mesh_drop_0
f 3/3/3 2/2/2 1/1/1
f 4/4/4 2/2/2 3/3/3
f 5/5/5 4/4/4 3/3/3
f 5/5/5 3/3/3 6/6/6
f 6/6/6 3/3/3 7/7/7
f 4/4/4 8/8/8 2/2/2
f 8/8/8 9/9/9 2/2/2
f 2/2/2 9/9/9 10/10/10
f 11/11/11 4/4/4 5/5/5
f 12/12/12 8/8/8 4/4/4
f 11/11/11 12/12/12 4/4/4
f 13/13/13 5/5/5 6/6/6
f 14/14/14 11/11/11 5/5/5
f 14/14/14 5/5/5 13/13/13
f 13/13/13 6/6/6 15/15/15
f 15/15/15 6/6/6 16/16/16
f 8/8/8 17/17/17 9/9/9
f 12/12/12 18/18/18 8/8/8
f 18/18/18 17/17/17 8/8/8
f 17/17/17 19/19/19 9/9/9
f 9/9/9 19/19/19 20/20/20
f 21/21/21 12/12/12 11/11/11
f 22/22/22 11/11/11 14/14/14
f 22/22/22 21/21/21 11/11/11
f 23/23/23 18/18/18 12/12/12
f 21/21/21 23/23/23 12/12/12
f 24/24/24 13/13/13 15/15/15
f 25/25/25 14/14/14 13/13/13
f 25/25/25 13/13/13 24/24/24
f 24/24/24 15/15/15 26/26/26
f 26/26/26 15/15/15 27/27/27
f 28/28/28 24/24/24 26/26/26
f 29/29/29 24/24/24 28/28/28
f 29/29/29 25/25/25 24/24/24
f 30/30/30 29/29/29 28/28/28
f 31/31/31 14/14/14 25/25/25
f 31/31/31 22/22/22 14/14/14
f 32/32/32 29/29/29 30/30/30
f 33/33/33 32/32/32 30/30/30
f 34/34/34 25/25/25 29/29/29
f 34/34/34 31/31/31 25/25/25
f 32/32/32 34/34/34 29/29/29
f 35/35/35 32/32/32 33/33/33
f 36/36/36 35/35/35 33/33/33
f 37/37/37 34/34/34 32/32/32
f 35/35/35 37/37/37 32/32/32
f 38/38/38 31/31/31 34/34/34
f 37/37/37 38/38/38 34/34/34
f 39/39/39 22/22/22 31/31/31
f 38/38/38 39/39/39 31/31/31
f 40/40/40 35/35/35 36/36/36
f 41/41/41 40/40/40 36/36/36
f 42/42/42 37/37/37 35/35/35
f 40/40/40 42/42/42 35/35/35
f 43/43/43 38/38/38 37/37/37
f 42/42/42 43/43/43 37/37/37
f 44/44/44 40/40/40 41/41/41
f 45/45/45 44/44/44 41/41/41
f 46/46/46 44/44/44 45/45/45
f 44/44/44 47/47/47 40/40/40
f 47/47/47 42/42/42 40/40/40
f 48/48/48 47/47/47 44/44/44
f 47/47/47 49/49/49 42/42/42
f 49/49/49 43/43/43 42/42/42
f 50/50/50 49/49/49 47/47/47
f 43/43/43 51/51/51 38/38/38
f 51/51/51 39/39/39 38/38/38
f 49/49/49 52/52/52 43/43/43
f 52/52/52 51/51/51 43/43/43
f 53/53/53 52/52/52 49/49/49
f 52/52/52 54/54/54 51/51/51
f 55/55/55 54/54/54 52/52/52
f 51/51/51 56/56/56 39/39/39
f 54/54/54 56/56/56 51/51/51
f 56/56/56 57/57/57 39/39/39
f 39/39/39 57/57/57 22/22/22
f 57/57/57 21/21/21 22/22/22
f 54/54/54 58/58/58 56/56/56
f 59/59/59 58/58/58 54/54/54
f 57/57/57 60/60/60 21/21/21
f 60/60/60 23/23/23 21/21/21
f 56/56/56 61/61/61 57/57/57
f 58/58/58 61/61/61 56/56/56
f 61/61/61 60/60/60 57/57/57
f 58/58/58 62/62/62 61/61/61
f 63/63/63 62/62/62 58/58/58
f 61/61/61 64/64/64 60/60/60
f 62/62/62 64/64/64 61/61/61
f 60/60/60 65/65/65 23/23/23
f 64/64/64 65/65/65 60/60/60
f 62/62/62 66/66/66 64/64/64
f 67/67/67 66/66/66 62/62/62
f 66/66/66 68/68/68 64/64/64
f 64/64/64 68/68/68 65/65/65
f 65/65/65 69/69/69 23/23/23
f 23/23/23 69/69/69 18/18/18
f 66/66/66 70/70/70 68/68/68
f 71/71/71 70/70/70 66/66/66
f 68/68/68 72/72/72 65/65/65
f 65/65/65 72/72/72 69/69/69
f 69/69/69 73/73/73 18/18/18
f 18/18/18 73/73/73 17/17/17
f 70/70/70 74/74/74 68/68/68
f 68/68/68 74/74/74 72/72/72
f 72/72/72 75/75/75 69/69/69
f 69/69/69 75/75/75 73/73/73
f 73/73/73 76/76/76 17/17/17
f 17/17/17 76/76/76 19/19/19
f 70/70/70 77/77/77 74/74/74
f 78/78/78 77/77/77 70/70/70
f 74/74/74 79/79/79 72/72/72
f 72/72/72 79/79/79 75/75/75
f 75/75/75 80/80/80 73/73/73
f 73/73/73 80/80/80 76/76/76
f 76/76/76 81/81/81 19/19/19
f 19/19/19 81/81/81 82/82/82
f 77/77/77 83/83/83 74/74/74
f 74/74/74 83/83/83 79/79/79
f 79/79/79 84/84/84 75/75/75
f 75/75/75 84/84/84 80/80/80
f 80/80/80 85/85/85 76/76/76
f 76/76/76 85/85/85 81/81/81
f 77/77/77 86/86/86 83/83/83
f 87/87/87 86/86/86 77/77/77
f 83/83/83 88/88/88 79/79/79
f 79/79/79 88/88/88 84/84/84
f 84/84/84 89/89/89 80/80/80
f 80/80/80 89/89/89 85/85/85
f 85/85/85 90/90/90 81/81/81
f 81/81/81 90/90/90 91/91/91
f 86/86/86 92/92/92 83/83/83
f 83/83/83 92/92/92 88/88/88
f 88/88/88 93/93/93 84/84/84
f 84/84/84 93/93/93 89/89/89
f 85/85/85 94/94/94 90/90/90
f 89/89/89 94/94/94 85/85/85
f 86/86/86 95/95/95 92/92/92
f 96/96/96 95/95/95 86/86/86
f 95/95/95 97/97/97 92/92/92
f 92/92/92 98/98/98 88/88/88
f 92/92/92 97/97/97 98/98/98
f 88/88/88 98/98/98 93/93/93
f 97/97/97 99/99/99 98/98/98
f 98/98/98 99/99/99 100/100/100
f 98/98/98 100/100/100 93/93/93
f 99/99/99 101/101/101 100/100/100
f 93/93/93 102/102/102 89/89/89
f 93/93/93 100/100/100 102/102/102
f 89/89/89 102/102/102 94/94/94
f 100/100/100 101/101/101 103/103/103
f 100/100/100 103/103/103 102/102/102
f 101/101/101 104/104/104 103/103/103
f 102/102/102 105/105/105 94/94/94
f 102/102/102 103/103/103 105/105/105
f 103/103/103 104/104/104 106/106/106
f 103/103/103 106/106/106 105/105/105
f 104/104/104 107/107/107 106/106/106
f 94/94/94 105/105/105 108/108/108
f 94/94/94 108/108/108 90/90/90
f 90/90/90 108/108/108 109/109/109
f 105/105/105 110/110/110 108/108/108
f 105/105/105 106/106/106 110/110/110
f 108/108/108 110/110/110 111/111/111
f 106/106/106 107/107/107 112/112/112
f 106/106/106 112/112/112 110/110/110
f 110/110/110 112/112/112 113/113/113
f 107/107/107 114/114/114 112/112/112
f 112/112/112 114/114/114 115/115/115
