g eff_cmn_disc_04
v 2.9912944 0 -6.527976E-07
v 2.5995755 0 -0.5170872
v 2.9338143 0 -0.58357143
v 2.650507 0 -5.444836E-07
v 2.265337 0 -0.450603
v 2.9338176 0 0.5835722
v 2.3097198 0 -4.361696E-07
v 2.5995784 0 0.51708794
v 2.7635958 0 1.1447186
v 2.2653394 0 0.45060372
v 2.4487495 0 1.014305
v 2.48717 0 1.661874
v 2.1339033 0 0.8838914
v 2.203816 0 1.4725428
v 2.1151643 0 2.1151648
v 1.9204617 0 1.2832116
v 1.8741913 0 1.8741918
v 1.6618732 0 2.4871702
v 1.6332184 0 1.6332188
v 1.4725422 0 2.203816
v 1.144718 0 2.7635956
v 1.2832111 0 1.9204618
v 1.0143045 0 2.448749
v 0.5835716 0 2.9338174
v 0.8838909 0 2.1339025
v 0.51708746 0 2.5995784
v -1.143109E-06 0 2.991294
v 0.45060334 0 2.2653391
v -9.653163E-07 0 2.6505065
v -0.58357376 0 2.933817
v -7.875235E-07 0 2.3097193
v -0.51708925 0 2.599578
v -1.1447201 0 2.7635946
v -0.45060477 0 2.2653387
v -1.0143063 0 2.4487486
v -1.6618751 0 2.4871693
v -0.8838924 0 2.1339023
v -1.4725436 0 2.203815
v -2.1151655 0 2.115163
v -1.2832121 0 1.9204609
v -1.8741922 0 1.8741903
v -2.4871714 0 1.6618726
v -1.6332191 0 1.6332175
v -2.203817 0 1.4725415
v -2.7635965 0 1.1447171
v -1.9204625 0 1.2832103
v -2.44875 0 1.0143037
v -2.9338176 0 0.5835709
v -2.1339033 0 0.88389033
v -2.5995784 0 0.51708686
v -2.991294 0 -1.6334208E-06
v -2.2653394 0 0.45060277
v -2.6505065 0 -1.413388E-06
v -2.933817 0 -0.58357406
v -2.3097193 0 -1.193355E-06
v -2.5995777 0 -0.51708955
v -2.7635949 0 -1.1447201
v -2.2653384 0 -0.450605
v -2.4487486 1.4901161E-08 -1.0143064
v -2.4871693 0 -1.6618751
v -2.133902 2.9802322E-08 -0.8838927
v -2.203815 1.4901161E-08 -1.4725437
v -2.1151636 0 -2.115165
v -1.9204609 2.9802322E-08 -1.2832124
v -1.8741906 0 -1.8741919
v -1.6618729 0 -2.4871705
v -1.6332177 0 -1.6332188
v -1.4725418 0 -2.2038162
v -1.1447178 0 -2.763595
v -1.2832106 0 -1.9204618
v -1.0143042 0 -2.4487486
v -0.5835717 0 -2.9338167
v -0.88389057 0 -2.1339023
v -0.5170874 0 -2.5995774
v 6.8441574E-07 0 -2.9912932
v -0.45060313 0 -2.2653384
v 6.5400525E-07 0 -2.650506
v 0.58357286 0 -2.933816
v 6.235947E-07 0 -2.3097188
v 0.5170886 0 -2.599577
v 1.1447188 0 -2.7635942
v 0.45060432 0 -2.265338
v 1.0143051 0 -2.4487479
v 1.6618735 0 -2.4871686
v 0.88389146 0 -2.1339016
v 1.4725423 0 -2.2038145
v 2.1151636 0 -2.1151628
v 1.2832112 0 -1.9204605
v 1.8741907 0 -1.87419
v 2.4871686 0 -1.6618724
v 1.6332178 0 -1.6332171
v 2.2038145 0 -1.4725412
v 2.7635934 0 -1.1447173
v 1.9204605 0 -1.28321
v 2.4487474 0 -1.0143038
v 2.9338143 0 -0.58357143
v 2.1339014 0 -0.88389033
v 2.5995755 0 -0.5170872
v 2.265337 0 -0.450603
vt 0.9662215 0.0060403943
vt 0.9973029 0.49949843
vt 0.9973029 0.0060403943
vt 0.9662215 0.49949843
vt 0.9973029 0.99295634
vt 0.93514 0.0060403943
vt 0.9662215 0.99295634
vt 0.93514 0.49949843
vt 0.9040586 0.0060403943
vt 0.93514 0.99295634
vt 0.9040586 0.49949843
vt 0.87297726 0.0060403943
vt 0.9040586 0.99295634
vt 0.87297726 0.49949843
vt 0.8418959 0.0060403943
vt 0.87297726 0.99295634
vt 0.8418959 0.49949843
vt 0.8108144 0.0060403943
vt 0.8418959 0.99295634
vt 0.8108144 0.49949843
vt 0.77973294 0.0060403943
vt 0.8108144 0.99295634
vt 0.77973294 0.49949843
vt 0.7486514 0.0060403943
vt 0.77973294 0.99295634
vt 0.7486514 0.49949843
vt 0.71757007 0.0060403943
vt 0.7486514 0.99295634
vt 0.71757007 0.49949843
vt 0.6864886 0.0060403943
vt 0.71757007 0.99295634
vt 0.6864886 0.49949843
vt 0.6554072 0.0060403943
vt 0.6864886 0.99295634
vt 0.6554072 0.49949843
vt 0.62432575 0.0060403943
vt 0.6554072 0.99295634
vt 0.62432575 0.49949843
vt 0.5932443 0.0060403943
vt 0.62432575 0.99295634
vt 0.5932443 0.49949843
vt 0.5621628 0.0060403943
vt 0.5932443 0.99295634
vt 0.5621628 0.49949843
vt 0.53108144 0.0060403943
vt 0.5621628 0.99295634
vt 0.53108144 0.49949843
vt 0.5 0.0060403943
vt 0.53108144 0.99295634
vt 0.5 0.49949843
vt 0.46891856 0.0060403943
vt 0.5 0.99295634
vt 0.46891856 0.49949843
vt 0.43783712 0.0060403943
vt 0.46891856 0.99295634
vt 0.43783712 0.49949843
vt 0.40675566 0.0060403943
vt 0.43783712 0.99295634
vt 0.40675566 0.49949843
vt 0.3756743 0.0060403943
vt 0.40675566 0.99295634
vt 0.3756743 0.49949843
vt 0.3445928 0.0060403943
vt 0.3756743 0.99295634
vt 0.3445928 0.49949843
vt 0.3135114 0.0060403943
vt 0.3445928 0.99295634
vt 0.3135114 0.49949843
vt 0.28242993 0.0060403943
vt 0.3135114 0.99295634
vt 0.28242993 0.49949843
vt 0.25134858 0.0060403943
vt 0.28242993 0.99295634
vt 0.25134858 0.49949843
vt 0.22026709 0.0060403943
vt 0.25134858 0.99295634
vt 0.22026709 0.49949843
vt 0.18918568 0.0060403943
vt 0.22026709 0.99295634
vt 0.18918568 0.49949843
vt 0.15810418 0.0060403943
vt 0.18918568 0.99295634
vt 0.15810418 0.49949843
vt 0.12702274 0.0060403943
vt 0.15810418 0.99295634
vt 0.12702274 0.49949843
vt 0.095941395 0.0060403943
vt 0.12702274 0.99295634
vt 0.095941395 0.49949843
vt 0.06485996 0.0060403943
vt 0.095941395 0.99295634
vt 0.06485996 0.49949843
vt 0.03377846 0.0060403943
vt 0.06485996 0.99295634
vt 0.03377846 0.49949843
vt 0.0026970506 0.0060403943
vt 0.03377846 0.99295634
vt 0.0026970506 0.49949843
vt 0.0026970506 0.99295634
vn -0 1 0
vn -0 1 0
vn -0 1 0
vn -0 1 0
vn -0 1 0
vn -0 1 0
vn -0 1 0
vn -0 1 0
vn -0 1 0
vn -0 1 0
vn -0 1 0
vn -0 1 0
vn -0 1 0
vn -0 1 0
vn -0 1 0
vn -0 1 0
vn -0 1 0
vn -0 1 0
vn -0 1 0
vn -0 1 0
vn -0 1 0
vn -0 1 0
vn -0 1 0
vn -0 1 0
vn -0 1 0
vn -0 1 0
vn -0 1 0
vn -0 1 0
vn -0 1 0
vn -0 1 0
vn -0 1 0
vn -0 1 0
vn -0 1 0
vn -0 1 0
vn -0 1 0
vn -0 1 0
vn -0 1 0
vn -0 1 0
vn -0 1 0
vn -0 1 0
vn -0 1 0
vn -0 1 0
vn -0 1 0
vn -0 1 0
vn -0 1 0
vn -0 1 0
vn -0 1 0
vn -0 1 0
vn -0 1 0
vn -0 1 0
vn -0 1 0
vn -0 1 0
vn -0 1 0
vn -0 1 0
vn -0 1 0
vn -0 1 0
vn -0 1 0
vn -0 1 0
vn -0 1 0
vn -0 1 0
vn -0 1 0
vn -0 1 0
vn -0 1 0
vn -0 1 0
vn -0 1 0
vn -0 1 0
vn -0 1 0
vn -0 1 0
vn -0 1 0
vn -0 1 0
vn -0 1 0
vn -0 1 0
vn -0 1 0
vn -0 1 0
vn -0 1 0
vn -0 1 0
vn -0 1 0
vn -0 1 0
vn -0 1 0
vn -0 1 0
vn -0 1 0
vn -0 1 0
vn -0 1 0
vn -0 1 0
vn -0 1 0
vn -0 1 0
vn -0 1 0
vn -0 1 0
vn -0 1 0
vn -0 1 0
vn -0 1 0
vn -0 1 0
vn -0 1 0
vn -0 1 0
vn -0 1 0
vn -0 1 0
vn -0 1 0
vn -0 1 0
vn -0 1 0
g eff_cmn_disc_04_0
f 3/3/3 2/2/2 1/1/1
f 2/2/2 4/4/4 1/1/1
f 2/2/2 5/5/5 4/4/4
f 1/1/1 4/4/4 6/6/6
f 5/5/5 7/7/7 4/4/4
f 4/4/4 8/8/8 6/6/6
f 4/4/4 7/7/7 8/8/8
f 6/6/6 8/8/8 9/9/9
f 7/7/7 10/10/10 8/8/8
f 8/8/8 11/11/11 9/9/9
f 8/8/8 10/10/10 11/11/11
f 9/9/9 11/11/11 12/12/12
f 10/10/10 13/13/13 11/11/11
f 11/11/11 14/14/14 12/12/12
f 11/11/11 13/13/13 14/14/14
f 12/12/12 14/14/14 15/15/15
f 13/13/13 16/16/16 14/14/14
f 14/14/14 17/17/17 15/15/15
f 14/14/14 16/16/16 17/17/17
f 15/15/15 17/17/17 18/18/18
f 16/16/16 19/19/19 17/17/17
f 17/17/17 20/20/20 18/18/18
f 17/17/17 19/19/19 20/20/20
f 18/18/18 20/20/20 21/21/21
f 19/19/19 22/22/22 20/20/20
f 20/20/20 23/23/23 21/21/21
f 20/20/20 22/22/22 23/23/23
f 21/21/21 23/23/23 24/24/24
f 22/22/22 25/25/25 23/23/23
f 23/23/23 26/26/26 24/24/24
f 23/23/23 25/25/25 26/26/26
f 24/24/24 26/26/26 27/27/27
f 25/25/25 28/28/28 26/26/26
f 26/26/26 29/29/29 27/27/27
f 26/26/26 28/28/28 29/29/29
f 27/27/27 29/29/29 30/30/30
f 28/28/28 31/31/31 29/29/29
f 29/29/29 32/32/32 30/30/30
f 29/29/29 31/31/31 32/32/32
f 30/30/30 32/32/32 33/33/33
f 31/31/31 34/34/34 32/32/32
f 32/32/32 35/35/35 33/33/33
f 32/32/32 34/34/34 35/35/35
f 33/33/33 35/35/35 36/36/36
f 34/34/34 37/37/37 35/35/35
f 35/35/35 38/38/38 36/36/36
f 35/35/35 37/37/37 38/38/38
f 36/36/36 38/38/38 39/39/39
f 37/37/37 40/40/40 38/38/38
f 38/38/38 41/41/41 39/39/39
f 38/38/38 40/40/40 41/41/41
f 39/39/39 41/41/41 42/42/42
f 40/40/40 43/43/43 41/41/41
f 41/41/41 44/44/44 42/42/42
f 41/41/41 43/43/43 44/44/44
f 42/42/42 44/44/44 45/45/45
f 43/43/43 46/46/46 44/44/44
f 44/44/44 47/47/47 45/45/45
f 44/44/44 46/46/46 47/47/47
f 45/45/45 47/47/47 48/48/48
f 46/46/46 49/49/49 47/47/47
f 47/47/47 50/50/50 48/48/48
f 47/47/47 49/49/49 50/50/50
f 48/48/48 50/50/50 51/51/51
f 49/49/49 52/52/52 50/50/50
f 50/50/50 53/53/53 51/51/51
f 50/50/50 52/52/52 53/53/53
f 51/51/51 53/53/53 54/54/54
f 52/52/52 55/55/55 53/53/53
f 53/53/53 56/56/56 54/54/54
f 53/53/53 55/55/55 56/56/56
f 54/54/54 56/56/56 57/57/57
f 55/55/55 58/58/58 56/56/56
f 56/56/56 59/59/59 57/57/57
f 56/56/56 58/58/58 59/59/59
f 57/57/57 59/59/59 60/60/60
f 58/58/58 61/61/61 59/59/59
f 59/59/59 62/62/62 60/60/60
f 59/59/59 61/61/61 62/62/62
f 60/60/60 62/62/62 63/63/63
f 61/61/61 64/64/64 62/62/62
f 62/62/62 65/65/65 63/63/63
f 62/62/62 64/64/64 65/65/65
f 63/63/63 65/65/65 66/66/66
f 64/64/64 67/67/67 65/65/65
f 65/65/65 68/68/68 66/66/66
f 65/65/65 67/67/67 68/68/68
f 66/66/66 68/68/68 69/69/69
f 67/67/67 70/70/70 68/68/68
f 68/68/68 71/71/71 69/69/69
f 68/68/68 70/70/70 71/71/71
f 69/69/69 71/71/71 72/72/72
f 70/70/70 73/73/73 71/71/71
f 71/71/71 74/74/74 72/72/72
f 71/71/71 73/73/73 74/74/74
f 72/72/72 74/74/74 75/75/75
f 73/73/73 76/76/76 74/74/74
f 74/74/74 77/77/77 75/75/75
f 74/74/74 76/76/76 77/77/77
f 75/75/75 77/77/77 78/78/78
f 76/76/76 79/79/79 77/77/77
f 77/77/77 80/80/80 78/78/78
f 77/77/77 79/79/79 80/80/80
f 78/78/78 80/80/80 81/81/81
f 79/79/79 82/82/82 80/80/80
f 80/80/80 83/83/83 81/81/81
f 80/80/80 82/82/82 83/83/83
f 81/81/81 83/83/83 84/84/84
f 82/82/82 85/85/85 83/83/83
f 83/83/83 86/86/86 84/84/84
f 83/83/83 85/85/85 86/86/86
f 84/84/84 86/86/86 87/87/87
f 85/85/85 88/88/88 86/86/86
f 86/86/86 89/89/89 87/87/87
f 86/86/86 88/88/88 89/89/89
f 87/87/87 89/89/89 90/90/90
f 88/88/88 91/91/91 89/89/89
f 89/89/89 92/92/92 90/90/90
f 89/89/89 91/91/91 92/92/92
f 90/90/90 92/92/92 93/93/93
f 91/91/91 94/94/94 92/92/92
f 92/92/92 95/95/95 93/93/93
f 92/92/92 94/94/94 95/95/95
f 93/93/93 95/95/95 96/96/96
f 94/94/94 97/97/97 95/95/95
f 95/95/95 98/98/98 96/96/96
f 95/95/95 97/97/97 98/98/98
f 97/97/97 99/99/99 98/98/98
