g eff_107201_dml_circle_01
v 0.11350576 0.34933487 0
v 0.05927595 0.56065816 7.6293944E-08
v 0.038394585 0.3653002 0
v 0.174719 0.53612 7.6293944E-08
v 0.18365617 0.31810188 0
v 0.08015732 0.7560161 1.5258789E-07
v 0.28253758 0.48811606 7.6293944E-08
v 0.24577995 0.27296633 0
v 0.23593228 0.7229051 1.5258789E-07
v 0.10103867 0.95137405 2.2888183E-07
v 0.37801948 0.41874442 5.722046E-08
v 0.29716197 0.2159008 0
v 0.29714552 0.9096902 2.2888183E-07
v 0.12192004 1.146732 3.0517577E-07
v 0.35835877 1.0964755 3.0517577E-07
v 0.38141894 0.65813035 1.5258789E-07
v 0.48030037 0.8281445 2.2888183E-07
v 0.57918173 0.9981587 3.0517577E-07
v 0.45699173 0.33103687 5.7220458E-08
v 0.33555657 0.14939941 0
v 0.51025903 0.56452256 1.1444092E-07
v 0.64249855 0.71030056 1.7166137E-07
v 0.7747381 0.8560787 2.2888183E-07
v 0.5160028 0.22882676 5.7220458E-08
v 0.35928574 0.07636855 0
v 0.6168215 0.44617292 1.14440915E-07
v 0.77665126 0.561309 1.7166137E-07
v 0.936481 0.676445 2.2888183E-07
v 0.5524736 0.11658105 5.7220454E-08
v 0.36731237 0 0
v 0.696449 0.30825412 1.14440915E-07
v 0.8768951 0.38768148 1.7166137E-07
v 1.0573413 0.46710882 2.2888183E-07
v 0.5648103 -0.0007945348 5.7220458E-08
v 0.35928556 -0.07636925 0
v 0.74566144 0.15679356 1.1444091E-07
v 0.93884933 0.1970061 1.7166137E-07
v 1.1320373 0.23721862 2.2888183E-07
v 0.55247337 -0.1181712 5.722046E-08
v 0.33555633 -0.14939998 0
v 0.7623082 -0.0015890696 1.14440915E-07
v 0.959806 -0.0023836044 1.7166137E-07
v 1.1573039 -0.0031781392 2.2888183E-07
v 0.5160024 -0.2304167 5.7220458E-08
v 0.29716164 -0.21590126 0
v 0.74566114 -0.15997316 1.1444092E-07
v 0.93884903 -0.2017751 1.716614E-07
v 1.1320368 -0.24357705 2.2888183E-07
v 0.4569912 -0.33262673 5.7220454E-08
v 0.24577962 -0.27296662 0
v 0.6964485 -0.3114334 1.14440915E-07
v 0.87689465 -0.3924501 1.7166137E-07
v 1.0573406 -0.4734668 2.2888183E-07
v 0.37801898 -0.42033407 5.7220458E-08
v 0.18365587 -0.31810206 0
v 0.61682075 -0.44935217 1.1444091E-07
v 0.77665037 -0.5660776 1.7166136E-07
v 0.9364799 -0.6828031 2.2888183E-07
v 0.2825371 -0.4897055 3.8146972E-08
v 0.11350548 -0.34933493 0
v 0.5102584 -0.5677015 1.14440915E-07
v 0.6424977 -0.71506894 1.7166137E-07
v 0.77473706 -0.86243635 2.2888183E-07
v 0.17471859 -0.53770924 3.814697E-08
v 0.038394384 -0.36530024 0
v 0.3814183 -0.66130894 7.6293944E-08
v 0.48029953 -0.83291245 1.14440915E-07
v 0.5791807 -1.0045159 1.5258789E-07
v 0.059275646 -0.5622474 3.8146975E-08
v -0.038394723 -0.3653002 0
v 0.23593168 -0.7260836 7.629394E-08
v 0.29714477 -0.9144579 1.1444091E-07
v 0.35835788 -1.1028323 1.5258789E-07
v -0.058746338 -0.5622473 3.8146972E-08
v -0.11350581 -0.34933484 0
v 0.08015691 -0.7591945 7.629395E-08
v 0.101038165 -0.95614165 1.1444092E-07
v 0.121919416 -1.1530887 1.5258789E-07
v -0.17418925 -0.5377091 3.814697E-08
v -0.18365616 -0.31810188 0
v -0.07909796 -0.7591945 7.6293944E-08
v -0.09944957 -0.9561415 1.14440915E-07
v -0.119801186 -1.1530886 1.5258789E-07
v -0.2820077 -0.48970526 3.814697E-08
v -0.24577993 -0.27296633 0
v -0.2348727 -0.72608334 7.629394E-08
v -0.2955562 -0.9144577 1.14440915E-07
v -0.35623962 -1.102832 1.5258789E-07
v -0.37748963 -0.4203336 5.722046E-08
v -0.29716194 -0.21590084 0
v -0.38035926 -0.6613086 7.629394E-08
v -0.47871086 -0.83291197 1.1444091E-07
v -0.5770624 -1.0045154 1.5258789E-07
v -0.45646185 -0.33262607 5.722046E-08
v -0.33555657 -0.14939944 0
v -0.50919926 -0.56770086 1.1444092E-07
v -0.640909 -0.7150681 1.716614E-07
v -0.7726187 -0.86243534 2.2888183E-07
v -0.51547295 -0.23041587 5.7220458E-08
v -0.35928574 -0.07636857 0
v -0.61576176 -0.44935134 1.1444092E-07
v -0.7750616 -0.5660766 1.716614E-07
v -0.9343616 -0.6828018 2.2888183E-07
v -0.5519438 -0.118170165 5.7220454E-08
v -0.36731237 -3.211147E-08 0
v -0.69538933 -0.3114323 1.14440915E-07
v -0.8753057 -0.39244872 1.7166137E-07
v -1.055222 -0.47346514 2.2888183E-07
v -0.56428045 -0.00079458416 5.7220458E-08
v -0.35928574 0.07636851 0
v -0.7446018 -0.15997174 1.1444091E-07
v -0.9372598 -0.20177333 1.7166136E-07
v -1.129918 -0.24357492 2.2888183E-07
v -0.5519438 0.116581015 5.7220458E-08
v -0.33555657 0.14939938 0
v -0.7612485 -0.0015891361 1.14440915E-07
v -0.9582166 -0.002383688 1.7166137E-07
v -1.1551846 -0.0031782403 2.2888183E-07
v -0.51547295 0.22882673 5.7220454E-08
v -0.297162 0.21590078 0
v -0.7446019 0.15679352 1.14440915E-07
v -0.93725985 0.19700603 1.7166137E-07
v -1.129918 0.23721853 2.2888183E-07
v -0.45646194 0.33103684 5.7220458E-08
v -0.24577999 0.2729663 0
v -0.69538933 0.30825406 1.1444091E-07
v -0.8753057 0.38768142 1.7166137E-07
v -1.055222 0.46710876 2.2888183E-07
v -0.37748972 0.41874436 5.7220458E-08
v -0.18365622 0.31810185 0
v -0.6157619 0.44617286 1.14440915E-07
v -0.7750618 0.56130886 1.7166137E-07
v -0.9343617 0.6764449 2.2888183E-07
v -0.2820078 0.48811606 7.629395E-08
v -0.11350578 0.34933484 0
v -0.50919944 0.56452245 1.14440915E-07
v -0.6409092 0.7103005 1.7166137E-07
v -0.77261895 0.8560786 2.2888183E-07
v -0.478711 0.82814443 2.2888183E-07
v -0.5770626 0.99815863 3.0517577E-07
v -0.17418922 0.53611994 7.6293944E-08
v -0.038394615 0.3653002 0
v -0.3803594 0.6581302 1.525879E-07
v -0.2955561 0.9096902 2.2888185E-07
v -0.35623953 1.0964752 3.0517577E-07
v -0.23487265 0.7229051 1.5258789E-07
v -0.058746174 0.56065816 7.629394E-08
v 0.038394585 0.3653002 0
v 0.05927595 0.56065816 7.6293944E-08
v -0.079097725 0.7560161 1.5258787E-07
v 0.08015732 0.7560161 1.5258789E-07
v -0.09944929 0.95137393 2.2888182E-07
v -0.11980084 1.146732 3.0517577E-07
v 0.10103867 0.95137405 2.2888183E-07
v 0.12192004 1.146732 3.0517577E-07
vt 0.96969205 0.0028131504
vt 1.0030254 0.25281313
vt 1.0030254 0.0028131504
vt 0.96969205 0.25281313
vt 0.93635875 0.0028131504
vt 1.0030254 0.5028131
vt 0.93635875 0.25281313
vt 0.9030254 0.0028131504
vt 0.96969205 0.5028131
vt 1.0030254 0.7528131
vt 0.9030254 0.25281313
vt 0.8696921 0.0028131504
vt 0.96969205 0.7528131
vt 1.0030254 1.0028131
vt 0.96969205 1.0028131
vt 0.93635875 0.5028131
vt 0.93635875 0.7528131
vt 0.93635875 1.0028131
vt 0.8696921 0.25281313
vt 0.8363587 0.0028131504
vt 0.9030254 0.5028131
vt 0.9030254 0.7528131
vt 0.9030254 1.0028131
vt 0.8363587 0.25281313
vt 0.8030254 0.0028131504
vt 0.8696921 0.5028131
vt 0.8696921 0.7528131
vt 0.8696921 1.0028131
vt 0.8030254 0.25281313
vt 0.76969206 0.0028131504
vt 0.8363587 0.5028131
vt 0.8363587 0.7528131
vt 0.8363587 1.0028131
vt 0.76969206 0.25281316
vt 0.73635846 0.0028131504
vt 0.8030254 0.5028131
vt 0.8030254 0.7528131
vt 0.8030254 1.0028131
vt 0.73635846 0.25281313
vt 0.70302516 0.0028131504
vt 0.76969206 0.5028131
vt 0.76969206 0.7528131
vt 0.76969206 1.0028131
vt 0.70302516 0.25281313
vt 0.66969186 0.0028131504
vt 0.73635846 0.5028131
vt 0.73635846 0.7528131
vt 0.73635846 1.0028131
vt 0.66969186 0.25281313
vt 0.63635856 0.0028131504
vt 0.70302516 0.5028131
vt 0.70302516 0.7528131
vt 0.70302516 1.0028131
vt 0.63635856 0.25281313
vt 0.6030252 0.0028131504
vt 0.66969186 0.5028131
vt 0.66969186 0.7528131
vt 0.66969186 1.0028131
vt 0.6030252 0.25281313
vt 0.56969196 0.0028131504
vt 0.63635856 0.5028131
vt 0.63635856 0.7528131
vt 0.63635856 1.0028131
vt 0.56969196 0.25281313
vt 0.53635865 0.0028131504
vt 0.6030252 0.5028131
vt 0.6030252 0.7528131
vt 0.6030252 1.0028131
vt 0.53635865 0.25281313
vt 0.50302535 0.0028131504
vt 0.56969196 0.5028131
vt 0.56969196 0.7528131
vt 0.56969196 1.0028131
vt 0.50302535 0.25281313
vt 0.46969205 0.0028131504
vt 0.53635865 0.5028131
vt 0.53635865 0.7528131
vt 0.53635865 1.0028131
vt 0.46969205 0.25281313
vt 0.43635875 0.0028131504
vt 0.50302535 0.5028131
vt 0.50302535 0.7528131
vt 0.50302535 1.0028131
vt 0.43635875 0.25281313
vt 0.40302542 0.0028131504
vt 0.46969205 0.5028131
vt 0.46969205 0.7528131
vt 0.46969205 1.0028131
vt 0.40302542 0.25281313
vt 0.3696921 0.0028131504
vt 0.43635875 0.5028131
vt 0.43635875 0.7528131
vt 0.43635875 1.0028131
vt 0.3696921 0.25281313
vt 0.33635876 0.0028131504
vt 0.40302542 0.5028131
vt 0.40302542 0.7528131
vt 0.40302542 1.0028131
vt 0.33635876 0.25281313
vt 0.30302542 0.0028131504
vt 0.3696921 0.5028131
vt 0.3696921 0.7528131
vt 0.3696921 1.0028131
vt 0.30302542 0.25281313
vt 0.2696921 0.0028131504
vt 0.33635876 0.5028131
vt 0.33635876 0.7528131
vt 0.33635876 1.0028131
vt 0.2696921 0.25281313
vt 0.23635873 0.0028131504
vt 0.30302542 0.5028131
vt 0.30302542 0.7528131
vt 0.30302542 1.0028131
vt 0.23635873 0.25281313
vt 0.2030254 0.0028131504
vt 0.2696921 0.5028131
vt 0.2696921 0.7528131
vt 0.2696921 1.0028131
vt 0.2030254 0.25281313
vt 0.16969207 0.0028131504
vt 0.23635873 0.5028131
vt 0.23635873 0.7528131
vt 0.23635873 1.0028131
vt 0.16969207 0.25281313
vt 0.13635874 0.0028131504
vt 0.2030254 0.5028131
vt 0.2030254 0.7528131
vt 0.2030254 1.0028131
vt 0.13635874 0.25281313
vt 0.10302541 0.0028131504
vt 0.16969207 0.5028131
vt 0.16969207 0.7528131
vt 0.16969207 1.0028131
vt 0.10302541 0.25281313
vt 0.069692075 0.0028131504
vt 0.13635874 0.5028131
vt 0.13635874 0.7528131
vt 0.13635874 1.0028131
vt 0.10302541 0.7528131
vt 0.10302541 1.0028131
vt 0.069692075 0.25281313
vt 0.036358736 0.0028131504
vt 0.10302541 0.5028131
vt 0.069692075 0.7528131
vt 0.069692075 1.0028131
vt 0.069692075 0.5028131
vt 0.036358736 0.25281313
vt 0.0030254014 0.0028131504
vt 0.0030254014 0.25281313
vt 0.036358736 0.5028131
vt 0.0030254014 0.5028131
vt 0.036358736 0.7528131
vt 0.036358736 1.0028131
vt 0.0030254014 0.7528131
vt 0.0030254014 1.0028131
vn 1.1987527E-07 3.6917282E-07 -1
vn -0 3.8619626E-07 -1
vn -0 3.8620092E-07 -1
vn 1.199338E-07 3.691536E-07 -1
vn 1.4015215E-07 3.4516853E-07 -1
vn -0 3.861963E-07 -1
vn 1.16821845E-07 3.6219592E-07 -1
vn 1.6923882E-07 2.6483968E-07 -1
vn 1.1993379E-07 3.6915355E-07 -1
vn -0 3.8619635E-07 -1
vn 1.4595355E-07 2.818061E-07 -1
vn 2.3495917E-07 1.7081521E-07 -1
vn 1.1993379E-07 3.6915355E-07 -1
vn -0 3.861911E-07 -1
vn 1.2000072E-07 3.6913164E-07 -1
vn -0 3.8640727E-07 -1
vn -0 4.0030775E-07 -1
vn -0 4.055002E-07 -1
vn 2.3500232E-07 1.7075529E-07 -1
vn 2.6510688E-07 1.18132306E-07 -1
vn 1.12916375E-07 3.0598528E-07 -1
vn -0 3.1987153E-07 -1
vn -0 3.2460713E-07 -1
vn 2.6513788E-07 1.18061834E-07 -1
vn 2.8362288E-07 0 -1
vn 2.3500235E-07 1.7075531E-07 -1
vn 2.3500235E-07 1.7075534E-07 -1
vn 2.350517E-07 1.7068683E-07 -1
vn 2.836385E-07 0 -1
vn 2.897273E-07 0 -1
vn 2.6513786E-07 1.1806183E-07 -1
vn 2.6513786E-07 1.18061834E-07 -1
vn 2.651733E-07 1.1798133E-07 -1
vn 2.89727E-07 0 -1
vn 2.8318362E-07 0 -1
vn 2.8363857E-07 0 -1
vn 2.8363849E-07 0 -1
vn 2.836563E-07 0 -1
vn 2.8316958E-07 0 -1
vn 2.6430402E-07 -1.1760323E-07 -1
vn 2.89727E-07 0 -1
vn 2.8972693E-07 0 -1
vn 2.897266E-07 0 -1
vn 2.6428077E-07 -1.1765492E-07 -1
vn 2.339315E-07 -1.698968E-07 -1
vn 2.8316953E-07 0 -1
vn 2.8316956E-07 0 -1
vn 2.831535E-07 0 -1
vn 2.3390517E-07 -1.6993283E-07 -1
vn 2.1878432E-07 -1.6647662E-07 -1
vn 2.642808E-07 -1.1765488E-07 -1
vn 2.6428083E-07 -1.1765489E-07 -1
vn 2.6425434E-07 -1.1771408E-07 -1
vn 2.4218392E-07 -1.4949548E-07 -1
vn 1.5021439E-07 -1.5765771E-07 -1
vn 2.3390517E-07 -1.6993279E-07 -1
vn 2.3390523E-07 -1.6993285E-07 -1
vn 2.3387518E-07 -1.6997406E-07 -1
vn 1.736105E-07 -1.406889E-07 -1
vn -0 -1.8316689E-07 -1
vn 2.7537035E-07 -1.254492E-07 -1
vn 2.9442504E-07 -1.1164249E-07 -1
vn 3.0149E-07 -1.06493395E-07 -1
vn -0 -1.8316678E-07 -1
vn -0 -1.9155819E-07 -1
vn 2.0678068E-07 -1.1665438E-07 -1
vn 2.2582819E-07 -1.02852866E-07 -1
vn 2.3269355E-07 0 -1
vn -0 -1.9155705E-07 -1
vn -0 -1.9160784E-07 -1
vn -0 -1.8316678E-07 -1
vn -0 -1.8316678E-07 -1
vn -0 -1.8316663E-07 -1
vn -0 -1.9161E-07 -1
vn -0 -1.8330728E-07 -1
vn -0 -1.9155704E-07 -1
vn -0 -1.9155704E-07 -1
vn -0 -1.915557E-07 -1
vn -0 -1.8331659E-07 -1
vn -1.5053234E-07 -1.579696E-07 -1
vn -0 -1.9161003E-07 -1
vn -0 -1.9161003E-07 -1
vn -0 -1.9161249E-07 -1
vn -1.7389881E-07 -1.4105478E-07 -1
vn -2.1917316E-07 -1.6694611E-07 -1
vn -0 -1.8331663E-07 -1
vn -0 -1.8331659E-07 -1
vn -0 -1.8332726E-07 -1
vn -2.4258503E-07 -1.5000283E-07 -1
vn -2.3445959E-07 -1.7023807E-07 -1
vn -2.0710661E-07 -1.1710325E-07 -1
vn -2.261777E-07 -1.0334799E-07 -1
vn -2.3279863E-07 0 -1
vn -2.344161E-07 -1.7029734E-07 -1
vn -2.649623E-07 -1.1786992E-07 -1
vn -2.7583684E-07 -1.2601957E-07 -1
vn -2.9492728E-07 -1.1225031E-07 -1
vn -3.021292E-07 -1.069905E-07 -1
vn -2.6493075E-07 -1.1793996E-07 -1
vn -2.8393072E-07 0 -1
vn -2.3441615E-07 -1.7029737E-07 -1
vn -2.3441609E-07 -1.7029731E-07 -1
vn -2.3436644E-07 -1.7036504E-07 -1
vn -2.8391443E-07 0 -1
vn -2.905066E-07 0 -1
vn -2.6493078E-07 -1.1793997E-07 -1
vn -2.6493075E-07 -1.1793997E-07 -1
vn -2.6489468E-07 -1.1802004E-07 -1
vn -2.9050628E-07 0 -1
vn -2.8437208E-07 0 -1
vn -2.8391443E-07 0 -1
vn -2.839144E-07 0 -1
vn -2.8389576E-07 0 -1
vn -2.8438572E-07 0 -1
vn -2.6576865E-07 1.1840165E-07 -1
vn -2.905063E-07 0 -1
vn -2.905063E-07 0 -1
vn -2.9050597E-07 0 -1
vn -2.6579175E-07 1.1834919E-07 -1
vn -2.3549133E-07 1.711602E-07 -1
vn -2.8438578E-07 0 -1
vn -2.8438575E-07 0 -1
vn -2.8440135E-07 0 -1
vn -2.3551782E-07 1.7112353E-07 -1
vn -1.6961138E-07 2.6508746E-07 -1
vn -2.6579178E-07 1.1834922E-07 -1
vn -2.6579178E-07 1.1834923E-07 -1
vn -2.6581822E-07 1.1828925E-07 -1
vn -1.4625982E-07 2.8206475E-07 -1
vn -1.403107E-07 3.4548273E-07 -1
vn -2.3551782E-07 1.7112356E-07 -1
vn -2.3551779E-07 1.7112353E-07 -1
vn -2.355481E-07 1.7108162E-07 -1
vn -1.16936626E-07 3.6249855E-07 -1
vn -1.2004506E-07 3.6945775E-07 -1
vn -1.1315718E-07 3.0618074E-07 -1
vn -0 3.2002947E-07 -1
vn -0 3.2493327E-07 -1
vn -0 4.0048045E-07 -1
vn -0 4.0557165E-07 -1
vn -1.200443E-07 3.694579E-07 -1
vn -0 3.8630165E-07 -1
vn -0 3.8662643E-07 -1
vn -1.2004429E-07 3.6945795E-07 -1
vn -1.2004342E-07 3.694583E-07 -1
vn -1.200443E-07 3.694579E-07 -1
vn -0 3.8630395E-07 -1
vn -0 3.8620092E-07 -1
vn -0 3.8619626E-07 -1
vn -0 3.8630398E-07 -1
vn -0 3.861963E-07 -1
vn -0 3.8630407E-07 -1
vn -0 3.8630668E-07 -1
vn -0 3.8619635E-07 -1
vn -0 3.861911E-07 -1
g eff_107201_dml_circle_01_0
f 3/3/3 2/2/2 1/1/1
f 2/2/2 4/4/4 1/1/1
f 1/1/1 4/4/4 5/5/5
f 4/4/4 2/2/2 6/6/6
f 4/4/4 7/7/7 5/5/5
f 5/5/5 7/7/7 8/8/8
f 9/9/9 4/4/4 6/6/6
f 7/7/7 4/4/4 9/9/9
f 9/9/9 6/6/6 10/10/10
f 7/7/7 11/11/11 8/8/8
f 8/8/8 11/11/11 12/12/12
f 13/13/13 9/9/9 10/10/10
f 13/13/13 10/10/10 14/14/14
f 15/15/15 13/13/13 14/14/14
f 16/16/16 7/7/7 9/9/9
f 16/16/16 9/9/9 13/13/13
f 11/11/11 7/7/7 16/16/16
f 17/17/17 13/13/13 15/15/15
f 17/17/17 16/16/16 13/13/13
f 18/18/18 17/17/17 15/15/15
f 11/11/11 19/19/19 12/12/12
f 12/12/12 19/19/19 20/20/20
f 21/21/21 11/11/11 16/16/16
f 21/21/21 16/16/16 17/17/17
f 19/19/19 11/11/11 21/21/21
f 22/22/22 17/17/17 18/18/18
f 22/22/22 21/21/21 17/17/17
f 23/23/23 22/22/22 18/18/18
f 19/19/19 24/24/24 20/20/20
f 20/20/20 24/24/24 25/25/25
f 26/26/26 19/19/19 21/21/21
f 26/26/26 21/21/21 22/22/22
f 24/24/24 19/19/19 26/26/26
f 27/27/27 22/22/22 23/23/23
f 27/27/27 26/26/26 22/22/22
f 28/28/28 27/27/27 23/23/23
f 24/24/24 29/29/29 25/25/25
f 25/25/25 29/29/29 30/30/30
f 31/31/31 24/24/24 26/26/26
f 31/31/31 26/26/26 27/27/27
f 29/29/29 24/24/24 31/31/31
f 32/32/32 27/27/27 28/28/28
f 32/32/32 31/31/31 27/27/27
f 33/33/33 32/32/32 28/28/28
f 29/29/29 34/34/34 30/30/30
f 30/30/30 34/34/34 35/35/35
f 36/36/36 29/29/29 31/31/31
f 36/36/36 31/31/31 32/32/32
f 34/34/34 29/29/29 36/36/36
f 37/37/37 32/32/32 33/33/33
f 37/37/37 36/36/36 32/32/32
f 38/38/38 37/37/37 33/33/33
f 34/34/34 39/39/39 35/35/35
f 35/35/35 39/39/39 40/40/40
f 41/41/41 34/34/34 36/36/36
f 41/41/41 36/36/36 37/37/37
f 39/39/39 34/34/34 41/41/41
f 42/42/42 37/37/37 38/38/38
f 42/42/42 41/41/41 37/37/37
f 43/43/43 42/42/42 38/38/38
f 39/39/39 44/44/44 40/40/40
f 40/40/40 44/44/44 45/45/45
f 46/46/46 39/39/39 41/41/41
f 46/46/46 41/41/41 42/42/42
f 44/44/44 39/39/39 46/46/46
f 47/47/47 42/42/42 43/43/43
f 47/47/47 46/46/46 42/42/42
f 48/48/48 47/47/47 43/43/43
f 44/44/44 49/49/49 45/45/45
f 45/45/45 49/49/49 50/50/50
f 51/51/51 44/44/44 46/46/46
f 51/51/51 46/46/46 47/47/47
f 49/49/49 44/44/44 51/51/51
f 52/52/52 47/47/47 48/48/48
f 52/52/52 51/51/51 47/47/47
f 53/53/53 52/52/52 48/48/48
f 49/49/49 54/54/54 50/50/50
f 50/50/50 54/54/54 55/55/55
f 56/56/56 49/49/49 51/51/51
f 56/56/56 51/51/51 52/52/52
f 54/54/54 49/49/49 56/56/56
f 57/57/57 52/52/52 53/53/53
f 57/57/57 56/56/56 52/52/52
f 58/58/58 57/57/57 53/53/53
f 54/54/54 59/59/59 55/55/55
f 55/55/55 59/59/59 60/60/60
f 61/61/61 54/54/54 56/56/56
f 61/61/61 56/56/56 57/57/57
f 59/59/59 54/54/54 61/61/61
f 62/62/62 57/57/57 58/58/58
f 62/62/62 61/61/61 57/57/57
f 63/63/63 62/62/62 58/58/58
f 59/59/59 64/64/64 60/60/60
f 60/60/60 64/64/64 65/65/65
f 66/66/66 59/59/59 61/61/61
f 66/66/66 61/61/61 62/62/62
f 64/64/64 59/59/59 66/66/66
f 67/67/67 62/62/62 63/63/63
f 67/67/67 66/66/66 62/62/62
f 68/68/68 67/67/67 63/63/63
f 64/64/64 69/69/69 65/65/65
f 65/65/65 69/69/69 70/70/70
f 71/71/71 64/64/64 66/66/66
f 71/71/71 66/66/66 67/67/67
f 69/69/69 64/64/64 71/71/71
f 72/72/72 67/67/67 68/68/68
f 72/72/72 71/71/71 67/67/67
f 73/73/73 72/72/72 68/68/68
f 69/69/69 74/74/74 70/70/70
f 70/70/70 74/74/74 75/75/75
f 76/76/76 69/69/69 71/71/71
f 76/76/76 71/71/71 72/72/72
f 74/74/74 69/69/69 76/76/76
f 77/77/77 72/72/72 73/73/73
f 77/77/77 76/76/76 72/72/72
f 78/78/78 77/77/77 73/73/73
f 74/74/74 79/79/79 75/75/75
f 75/75/75 79/79/79 80/80/80
f 81/81/81 74/74/74 76/76/76
f 81/81/81 76/76/76 77/77/77
f 79/79/79 74/74/74 81/81/81
f 82/82/82 77/77/77 78/78/78
f 82/82/82 81/81/81 77/77/77
f 83/83/83 82/82/82 78/78/78
f 79/79/79 84/84/84 80/80/80
f 80/80/80 84/84/84 85/85/85
f 86/86/86 79/79/79 81/81/81
f 86/86/86 81/81/81 82/82/82
f 84/84/84 79/79/79 86/86/86
f 87/87/87 82/82/82 83/83/83
f 87/87/87 86/86/86 82/82/82
f 88/88/88 87/87/87 83/83/83
f 84/84/84 89/89/89 85/85/85
f 85/85/85 89/89/89 90/90/90
f 91/91/91 84/84/84 86/86/86
f 91/91/91 86/86/86 87/87/87
f 89/89/89 84/84/84 91/91/91
f 92/92/92 87/87/87 88/88/88
f 92/92/92 91/91/91 87/87/87
f 93/93/93 92/92/92 88/88/88
f 89/89/89 94/94/94 90/90/90
f 90/90/90 94/94/94 95/95/95
f 96/96/96 89/89/89 91/91/91
f 96/96/96 91/91/91 92/92/92
f 94/94/94 89/89/89 96/96/96
f 97/97/97 92/92/92 93/93/93
f 97/97/97 96/96/96 92/92/92
f 98/98/98 97/97/97 93/93/93
f 94/94/94 99/99/99 95/95/95
f 95/95/95 99/99/99 100/100/100
f 101/101/101 94/94/94 96/96/96
f 101/101/101 96/96/96 97/97/97
f 99/99/99 94/94/94 101/101/101
f 102/102/102 97/97/97 98/98/98
f 102/102/102 101/101/101 97/97/97
f 103/103/103 102/102/102 98/98/98
f 99/99/99 104/104/104 100/100/100
f 100/100/100 104/104/104 105/105/105
f 106/106/106 99/99/99 101/101/101
f 106/106/106 101/101/101 102/102/102
f 104/104/104 99/99/99 106/106/106
f 107/107/107 102/102/102 103/103/103
f 107/107/107 106/106/106 102/102/102
f 108/108/108 107/107/107 103/103/103
f 104/104/104 109/109/109 105/105/105
f 105/105/105 109/109/109 110/110/110
f 111/111/111 104/104/104 106/106/106
f 111/111/111 106/106/106 107/107/107
f 109/109/109 104/104/104 111/111/111
f 112/112/112 107/107/107 108/108/108
f 112/112/112 111/111/111 107/107/107
f 113/113/113 112/112/112 108/108/108
f 109/109/109 114/114/114 110/110/110
f 110/110/110 114/114/114 115/115/115
f 116/116/116 109/109/109 111/111/111
f 116/116/116 111/111/111 112/112/112
f 114/114/114 109/109/109 116/116/116
f 117/117/117 112/112/112 113/113/113
f 117/117/117 116/116/116 112/112/112
f 118/118/118 117/117/117 113/113/113
f 114/114/114 119/119/119 115/115/115
f 115/115/115 119/119/119 120/120/120
f 121/121/121 114/114/114 116/116/116
f 121/121/121 116/116/116 117/117/117
f 119/119/119 114/114/114 121/121/121
f 122/122/122 117/117/117 118/118/118
f 122/122/122 121/121/121 117/117/117
f 123/123/123 122/122/122 118/118/118
f 119/119/119 124/124/124 120/120/120
f 120/120/120 124/124/124 125/125/125
f 126/126/126 119/119/119 121/121/121
f 126/126/126 121/121/121 122/122/122
f 124/124/124 119/119/119 126/126/126
f 127/127/127 122/122/122 123/123/123
f 127/127/127 126/126/126 122/122/122
f 128/128/128 127/127/127 123/123/123
f 124/124/124 129/129/129 125/125/125
f 125/125/125 129/129/129 130/130/130
f 131/131/131 124/124/124 126/126/126
f 131/131/131 126/126/126 127/127/127
f 129/129/129 124/124/124 131/131/131
f 132/132/132 127/127/127 128/128/128
f 132/132/132 131/131/131 127/127/127
f 133/133/133 132/132/132 128/128/128
f 129/129/129 134/134/134 130/130/130
f 130/130/130 134/134/134 135/135/135
f 136/136/136 129/129/129 131/131/131
f 136/136/136 131/131/131 132/132/132
f 134/134/134 129/129/129 136/136/136
f 137/137/137 132/132/132 133/133/133
f 137/137/137 136/136/136 132/132/132
f 138/138/138 137/137/137 133/133/133
f 139/139/139 137/137/137 138/138/138
f 137/137/137 139/139/139 136/136/136
f 140/140/140 139/139/139 138/138/138
f 134/134/134 141/141/141 135/135/135
f 135/135/135 141/141/141 142/142/142
f 143/143/143 134/134/134 136/136/136
f 139/139/139 143/143/143 136/136/136
f 141/141/141 134/134/134 143/143/143
f 144/144/144 139/139/139 140/140/140
f 145/145/145 144/144/144 140/140/140
f 146/146/146 143/143/143 139/139/139
f 146/146/146 141/141/141 143/143/143
f 144/144/144 146/146/146 139/139/139
f 141/141/141 147/147/147 142/142/142
f 147/147/147 141/141/141 146/146/146
f 142/142/142 147/147/147 148/148/148
f 147/147/147 149/149/149 148/148/148
f 150/150/150 147/147/147 146/146/146
f 149/149/149 147/147/147 150/150/150
f 150/150/150 146/146/146 144/144/144
f 151/151/151 149/149/149 150/150/150
f 152/152/152 144/144/144 145/145/145
f 152/152/152 150/150/150 144/144/144
f 151/151/151 150/150/150 152/152/152
f 153/153/153 152/152/152 145/145/145
f 154/154/154 151/151/151 152/152/152
f 154/154/154 152/152/152 153/153/153
f 155/155/155 154/154/154 153/153/153
