g eff_108401_dml_jewelry_01
v -0.0033520395 0.005 -0.003352038
v 0.000563533 0.005 -0.0035819176
v -0.001 0.009917771 0
v -0.005 -0.00058326573 0.005
v -0.0005139591 -0.00058326573 0.003953179
v -0.001 -0.012346949 0
v -0.0033520395 0.005 0.003352038
v -0.001 0.009917771 0
v -0.000515012 0.005 0.002494359
v -0.005 -0.00058326573 -0.005
v -0.001 -0.012346949 0
v 0.0014675006 -0.0020984542 -0.0051637166
v -0.000515012 0.005 0.002494359
v 0.0022770183 0.005 -8.8054585E-05
v 0.004073052 -0.00058326573 0.0006563081
v -0.0005139591 -0.00058326573 0.003953179
v 0.0022770183 0.005 -8.8054585E-05
v -0.000515012 0.005 0.002494359
v -0.001 0.009917771 0
v 0.000563533 0.005 -0.0035819176
v 0.0014675006 -0.0020984542 -0.0051637166
v 0.004073052 -0.00058326573 0.0006563081
v 0.0022770183 0.005 -8.8054585E-05
v 0.000563533 0.005 -0.0035819176
v 0.004073052 -0.00058326573 0.0006563081
v 0.0014675006 -0.0020984542 -0.0051637166
v -0.001 -0.012346949 0
v -0.0005139591 -0.00058326573 0.003953179
v -0.005 -0.00058326573 -0.005
v -0.0033520395 0.005 -0.003352038
v -0.0045095915 0.005 0.00018965716
v -0.006249492 -0.00058326573 0
v -0.005 -0.00058326573 0.005
v -0.0033520395 0.005 0.003352038
v -0.005 -0.00058326573 -0.005
v -0.006249492 -0.00058326573 0
v -0.001 -0.012346949 0
v -0.005 -0.00058326573 0.005
v -0.0033520395 0.005 -0.003352038
v -0.005 -0.00058326573 -0.005
v 0.0014675006 -0.0020984542 -0.0051637166
v 0.000563533 0.005 -0.0035819176
v -0.005 -0.00058326573 0.005
v -0.0033520395 0.005 0.003352038
v -0.000515012 0.005 0.002494359
v -0.0005139591 -0.00058326573 0.003953179
v -0.0033520395 0.005 0.003352038
v -0.0045095915 0.005 0.00018965716
v -0.001 0.009917771 0
v -0.0033520395 0.005 -0.003352038
vt 0.68927646 0.2603984
vt 0.8158418 0.2603984
vt 0.7653027 0.101439394
vt 0.8530013 0.48169738
vt 0.998008 0.48169738
vt 0.982297 0.101443686
vt 0.90627074 0.6621735
vt 0.982297 0.8211368
vt 0.99797374 0.6621735
vt 0.636007 0.4408745
vt 0.7653027 0.82113034
vt 0.8450632 0.48984566
vt 0.049144372 0.6621735
vt 0.13262187 0.6621735
vt 0.10855667 0.48169738
vt 0.0019920322 0.48169738
vt 0.13262187 0.6621735
vt 0.049144372 0.6621735
vt 0.12977351 0.8211368
vt 0.2455524 0.6621735
vt 0.29668558 0.43271977
vt 0.10855667 0.48169738
vt 0.13262187 0.6621735
vt 0.2455524 0.6621735
vt 0.10855667 0.48169738
vt 0.29668558 0.43271977
vt 0.12977351 0.101443686
vt 0.0019920322 0.48169738
vt 0.30514488 0.48169738
vt 0.35841432 0.6621735
vt 0.4728956 0.6621735
vt 0.4667656 0.48169738
vt 0.6283864 0.48169738
vt 0.57511693 0.6621735
vt 0.30514488 0.48169738
vt 0.4667656 0.48169738
vt 0.4667656 0.101443686
vt 0.6283864 0.48169738
vt 0.68927646 0.2603984
vt 0.636007 0.4408745
vt 0.8450632 0.48984566
vt 0.8158418 0.2603984
vt 0.8530013 0.48169738
vt 0.90627074 0.6621735
vt 0.99797374 0.6621735
vt 0.998008 0.48169738
vt 0.57511693 0.6621735
vt 0.4728956 0.6621735
vt 0.4667656 0.8211368
vt 0.35841432 0.6621735
vn -0.44957733 0.63985354 -0.6232717
vn 0.36926854 0.6209848 -0.6913889
vn 0.050708827 0.9974796 -0.04962969
vn -0.52426165 -0.47785032 0.7048466
vn 0.40030327 -0.30672657 0.86352533
vn 0.09621088 -0.99177706 -0.08438968
vn -0.4255726 0.63976735 0.63998884
vn 0.050708827 0.9974796 -0.04962969
vn 0.45111042 0.43869612 0.7772034
vn -0.59184456 -0.47731823 -0.64952856
vn 0.09621088 -0.99177706 -0.08438968
vn 0.44417226 -0.48613328 -0.75258577
vn 0.4672861 0.24318777 0.85000205
vn 0.60388166 0.24672653 0.7579268
vn 0.6038816 0.24672651 0.7579268
vn 0.44178054 0.24187396 0.86390215
vn 0.829042 0.55070525 0.097020514
vn 0.45111042 0.43869612 0.7772034
vn 0.050708827 0.9974796 -0.04962969
vn 0.36926854 0.6209848 -0.6913889
vn 0.49649766 0.26880214 -0.8253699
vn 0.87224644 0.21472201 -0.4394093
vn 0.87224644 0.214722 -0.43940926
vn 0.5016483 0.2686283 -0.82230645
vn 0.8718681 -0.3923433 0.29310858
vn 0.44417226 -0.48613328 -0.75258577
vn 0.09621088 -0.99177706 -0.08438968
vn 0.40030327 -0.30672657 0.86352533
vn -0.9122065 0.319061 -0.2570592
vn -0.9122065 0.319061 -0.25705922
vn -0.9450609 0.32684222 0.0058346977
vn -0.94501275 0.3269832 -0.0057281284
vn -0.9114052 0.31161526 0.26876876
vn -0.9114052 0.31161523 0.26876876
vn -0.59184456 -0.47731823 -0.64952856
vn -0.9132 -0.4075115 0
vn 0.09621088 -0.99177706 -0.08438968
vn -0.52426165 -0.47785032 0.7048466
vn -0.00071342126 0.2468396 -0.9690561
vn -0.0007134212 0.2468396 -0.9690561
vn 0.49649766 0.26880214 -0.8253699
vn 0.5016483 0.2686283 -0.82230645
vn 0.24517637 0.2261308 0.9427372
vn 0.24517639 0.22613077 0.94273716
vn 0.4672861 0.24318777 0.85000205
vn 0.44178054 0.24187396 0.86390215
vn -0.4255726 0.63976735 0.63998884
vn -0.8138933 0.58099943 0.0041635577
vn 0.050708827 0.9974796 -0.04962969
vn -0.44957733 0.63985354 -0.6232717
g eff_108401_dml_jewelry_01_0
f 3/3/3 2/2/2 1/1/1
f 6/6/6 5/5/5 4/4/4
f 9/9/9 8/8/8 7/7/7
f 12/12/12 11/11/11 10/10/10
f 15/15/15 14/14/14 13/13/13
f 16/16/16 15/15/15 13/13/13
f 19/19/19 18/18/18 17/17/17
f 19/19/19 17/17/17 20/20/20
f 23/23/23 22/22/22 21/21/21
f 24/24/24 23/23/23 21/21/21
f 27/27/27 26/26/26 25/25/25
f 27/27/27 25/25/25 28/28/28
f 31/31/31 30/30/30 29/29/29
f 32/32/32 31/31/31 29/29/29
f 32/32/32 33/33/33 31/31/31
f 33/33/33 34/34/34 31/31/31
f 37/37/37 36/36/36 35/35/35
f 37/37/37 38/38/38 36/36/36
f 41/41/41 40/40/40 39/39/39
f 42/42/42 41/41/41 39/39/39
f 45/45/45 44/44/44 43/43/43
f 46/46/46 45/45/45 43/43/43
f 49/49/49 48/48/48 47/47/47
f 49/49/49 50/50/50 48/48/48
