g eff_112501_dml_slash_01
v 0.73621285 0.5025389 -5.120476
v -5.866393E-07 0.41473204 -5.173129
v -5.866393E-07 0.2799445 -5.173129
v 0.73621285 0.3392139 -5.120476
v 1.4574392 0.5888744 -4.963581
v -5.866393E-07 1.9733247E-06 -5.173129
v 1.4574392 0.3938475 -4.963581
v 2.1489956 0.67486274 -4.705643
v 2.1489956 0.45158672 -4.705643
v 2.7968054 0.76113254 -4.3519144
v 2.7968054 0.5101048 -4.3519144
v 3.38768 0.84784985 -3.9095905
v 3.38768 0.56900644 -3.9095907
v 3.909591 0.9354661 -3.3876798
v 3.909591 0.6284843 -3.38768
v 4.3519144 1.0439007 -2.7968054
v 4.3519144 0.7022999 -2.7968054
v 4.7056437 1.1604387 -2.1489959
v 4.7056437 0.78185356 -2.1489959
v 4.963581 1.2728609 -1.4574393
v 4.963581 0.8614516 -1.4574394
v 5.120476 1.3796939 -0.7362134
v 5.120476 0.9345442 -0.73621345
v 5.1731286 1.4871697 -3.2081402E-07
v 5.1731286 1.0081663 -3.3334044E-07
v 5.120476 1.6015631 0.7362128
v 5.120476 1.0865828 0.73621273
v 4.963581 1.7133722 1.457439
v 4.963581 1.1631607 1.4574387
v 4.7056437 1.8119624 2.1489954
v 4.7056437 1.2301738 2.1489954
v 4.351915 1.8879876 2.796805
v 4.351915 1.2803235 2.796805
v 3.9095917 1.9344592 3.3876796
v 3.9095917 1.3078237 3.3876796
v 3.387681 1.9447442 3.9095905
v 3.387681 1.315361 3.9095902
v 2.7968075 1.9155017 4.3519135
v 2.7968075 1.2963113 4.3519135
v 2.1489973 1.8515749 4.7056427
v 2.1489973 1.2581375 4.7056427
v 1.4574417 1.778542 4.963581
v 1.4574417 1.2112515 4.963581
v 0.7362155 1.6646702 5.1204762
v 0.7362155 1.1353438 5.120476
v 2.6612236E-06 1.5409961 5.173129
v 2.6612236E-06 1.0523143 5.173129
v -0.7362103 1.4187448 5.120477
v -0.7362103 0.9701289 5.120477
v -1.4574358 1.2897621 4.963582
v -1.4574358 0.88242793 4.963582
v -2.1489937 1.146344 4.7056456
v -2.1489937 0.7839038 4.7056456
v -2.796803 1.0010237 4.351917
v -2.796803 0.6850145 4.351917
v -3.3876781 0.8474565 3.909594
v -3.3876781 0.5846224 3.909594
v -3.9095883 0.69666636 3.3876834
v -3.9095883 0.48290694 3.3876834
v -3.9095883 0.03892011 3.3876834
v -3.3876781 0.038429104 3.909594
v -3.909588 -0.36099726 3.387683
v -2.796803 0.03710809 4.351917
v -2.1489937 0.034950335 4.7056456
v -1.4574358 0.03211702 4.963582
v -3.387678 -0.45365873 3.909594
v -2.796803 -0.54718524 4.351917
v -3.3876781 -0.772678 3.909594
v -3.9095883 -0.62010777 3.3876832
v -2.796803 -0.9292277 4.351917
v -2.1489937 -0.6400605 4.7056446
v -2.1489937 -1.079528 4.7056456
v -1.4574358 -0.73386306 4.963582
v -1.4574358 -1.2294005 4.963582
v -0.7362103 0.028811976 5.120477
v -0.7362103 -0.81877786 5.120477
v -0.7362103 -1.3654189 5.120477
v 2.6612236E-06 0.025269948 5.173129
v 2.6612233E-06 -0.8992509 5.173129
v 2.6612236E-06 -1.4950025 5.1731286
v 0.7362155 0.021719702 5.120476
v 0.7362155 -0.98055416 5.120476
v 0.7362155 -1.6261916 5.120476
v 1.4574417 0.018383529 4.963581
v 1.4574417 -1.0551817 4.96358
v 1.4574417 -1.746953 4.963581
v 2.1489973 0.015452888 4.7056427
v 2.1489973 -1.1031955 4.7056427
v 2.1489973 -1.8257518 4.7056427
v 2.7968075 0.0130353635 4.3519135
v 2.7968075 -1.1430354 4.3519135
v 2.7968075 -1.8931394 4.3519135
v 3.387681 0.010769193 3.9095902
v 3.3876805 -1.1643809 3.9095902
v 3.387681 -1.9265354 3.9095902
v 3.9095917 0.008588275 3.3876796
v 3.9095917 -1.1615953 3.3876796
v 3.9095917 -1.9200935 3.3876796
v 4.351915 0.0065517244 2.796805
v 4.351915 -1.1394114 2.796805
v 4.351915 -1.877919 2.796805
v 4.7056437 0.0047150603 2.1489954
v 4.7056437 -1.0970194 2.1489954
v 4.7056437 -1.8039987 2.1489952
v 4.963581 0.0031272387 1.4574382
v 4.96358 -1.0393834 1.4574378
v 4.963581 -1.7072449 1.4574375
v 5.120476 0.0018315358 0.73621273
v 5.120476 -0.9729042 0.73621273
v 5.120476 -1.5969714 0.7362127
v 5.1731286 0.0008634446 -3.5935687E-07
v 5.1731286 -0.90433794 -3.8277167E-07
v 5.1731286 -1.4840789 -3.9789973E-07
v 5.120476 0.0002489951 -0.73621345
v 5.120476 -0.8394368 -0.73621345
v 5.120476 -1.3776402 -0.73621356
v 4.963581 7.8760695E-06 -1.4574394
v 4.96358 -0.77436954 -1.4574394
v 4.963581 -1.2714353 -1.4574394
v 4.7056437 7.7659405E-07 -2.1489959
v 4.7056437 -0.70409703 -2.1489959
v 4.7056437 -1.1607432 -2.148996
v 4.3519144 4.35484E-06 -2.7968054
v 4.3519144 -0.63259006 -2.7968054
v 4.3519144 -1.0445316 -2.7968054
v 3.909591 1.4696747E-06 -3.38768
v 3.9095905 -0.5665364 -3.38768
v 3.909591 -0.93630606 -3.38768
v 3.38768 1.630752E-06 -3.9095905
v 3.38768 -0.5130604 -3.9095905
v 3.38768 -0.8484548 -3.9095905
v 2.7968054 1.7695891E-06 -4.3519144
v 2.7968054 -0.46007904 -4.3519144
v 2.7968054 -0.76136804 -4.3519144
v 2.1489956 1.8538974E-06 -4.705643
v 2.1489956 -0.40741253 -4.705643
v 2.1489956 -0.6748589 -4.705643
v 1.4574392 1.8952438E-06 -4.963581
v 1.4574392 -0.35532245 -4.96358
v 1.4574392 -0.5888704 -4.963581
v 0.73621285 1.9515128E-06 -5.120476
v 0.73621285 -0.30528936 -5.120476
v 0.73621285 -0.502535 -5.120476
v -5.866393E-07 -0.25194606 -5.173129
v -5.866393E-07 -0.41472805 -5.173129
vt 2.9802322E-08 0.9700794
vt 2.9802322E-08 1.0001312
vt 0.1625 1.0001081
vt 0.16250001 0.9700484
vt 2.9802322E-08 0.9416625
vt 0.5 1.0000297
vt 0.16250001 0.9416181
vt 2.9802322E-08 0.91463023
vt 0.16250001 0.9145793
vt 2.9802322E-08 0.8886636
vt 0.16250001 0.88861734
vt 2.9802322E-08 0.86339486
vt 0.16250001 0.8633688
vt 2.9802322E-08 0.8384298
vt 0.16250001 0.8384436
vt 2.9802322E-08 0.8133627
vt 0.16250001 0.8134492
vt 5.9604645E-08 0.78781086
vt 0.16250005 0.7880078
vt 5.9604645E-08 0.761449
vt 0.16250005 0.76178616
vt 5.9604645E-08 0.7341925
vt 0.16250005 0.73467
vt 5.9604645E-08 0.706096
vt 0.16250005 0.70672876
vt 5.9604645E-08 0.67695755
vt 0.16250005 0.67776287
vt 5.9604645E-08 0.6466466
vt 0.16250005 0.6476021
vt 5.9604645E-08 0.61512315
vt 0.16250005 0.61611545
vt 5.9604645E-08 0.58248436
vt 0.16250005 0.5832126
vt 5.9604645E-08 0.5488407
vt 0.16250005 0.548841
vt 5.9604645E-08 0.5136987
vt 0.16250005 0.513587
vt 5.9604645E-08 0.47539008
vt 0.16250005 0.47503775
vt 5.9604645E-08 0.43388557
vt 0.16250005 0.43405268
vt 5.9604645E-08 0.38973925
vt 0.16250005 0.3900242
vt 5.9604645E-08 0.34322602
vt 0.16250005 0.3434118
vt 5.9604645E-08 0.29474074
vt 0.16250005 0.29478666
vt 5.9604645E-08 0.244887
vt 0.16250005 0.24483442
vt 5.9604645E-08 0.19437131
vt 0.16250005 0.19427505
vt 5.9604645E-08 0.1439148
vt 0.16250005 0.14382087
vt 5.9604645E-08 0.09421809
vt 0.16250005 0.09416787
vt 5.9604645E-08 0.045895115
vt 0.16250005 0.045912378
vt 0 0.0003542155
vt 0.16250001 0.0003322363
vt 0.49999997 -1.8369406E-05
vt 0.5 0.045476127
vt 0.8037499 -5.3543597E-05
vt 0.5 0.09356256
vt 0.5 0.14304926
vt 0.5 0.19337
vt 0.80375 0.04544265
vt 0.80375 0.09360154
vt 0.99999994 0.045246046
vt 0.99999994 -0.00019026175
vt 0.99999994 0.09348661
vt 0.80375 0.14317359
vt 0.99999994 0.14314099
vt 0.80375 0.19357178
vt 0.99999994 0.19360623
vt 0.5 0.2438666
vt 0.80375 0.24412006
vt 0.99999994 0.24419218
vt 0.5 0.29382944
vt 0.80375 0.29410002
vt 0.99999994 0.29418612
vt 0.5 0.3425397
vt 0.80375 0.3427932
vt 0.99999994 0.3428895
vt 0.5 0.38931465
vt 0.80375 0.38952428
vt 0.99999994 0.38966137
vt 0.5 0.4335509
vt 0.80375 0.43373314
vt 0.99999994 0.4339621
vt 0.5 0.47476336
vt 0.80375 0.4749904
vt 0.99999994 0.4753849
vt 0.5 0.51349115
vt 0.80375 0.5135712
vt 0.99999994 0.5136974
vt 0.5 0.54884124
vt 0.80375 0.54884106
vt 0.99999994 0.5488407
vt 0.5 0.58315223
vt 0.80375 0.58297175
vt 0.99999994 0.58256906
vt 0.5 0.6159636
vt 0.80375 0.61571944
vt 0.99999994 0.61504835
vt 0.5 0.64735
vt 0.80375 0.6471008
vt 0.99999994 0.64631605
vt 0.5 0.67742276
vt 0.80375 0.6771955
vt 0.99999994 0.6764132
vt 0.5 0.7063259
vt 0.80375 0.70612735
vt 0.99999994 0.70541245
vt 0.5 0.73423386
vt 0.80375 0.7340593
vt 0.99999994 0.7334363
vt 0.5 0.7613353
vt 0.80375 0.76118714
vt 0.99999994 0.76067024
vt 0.5 0.78754795
vt 0.80375 0.78743845
vt 0.99999994 0.7870488
vt 0.5 0.8130058
vt 0.80375 0.8129271
vt 0.99999994 0.81265205
vt 0.5 0.8380373
vt 0.80375 0.83797777
vt 0.99999994 0.83778983
vt 0.5 0.8630116
vt 0.80375 0.86295944
vt 0.99999994 0.86283064
vt 0.5 0.88831747
vt 0.80375 0.8882702
vt 0.99999994 0.8881825
vt 0.5 0.9143406
vt 0.80375 0.9142969
vt 0.99999994 0.9142358
vt 0.5 0.94144005
vt 0.80375 0.94139946
vt 0.99999994 0.9413541
vt 0.5 0.969926
vt 0.80375 0.96988904
vt 0.99999994 0.96985304
vt 0.80375 1.0000024
vt 0.99999994 0.9999795
vn 0.14231464 0 -0.98982155
vn 0.071336545 0 -0.9974523
vn 0.071336456 0 -0.9974523
vn 0.1423146 0 -0.98982155
vn 0.2817341 0 -0.9594925
vn 0.0713367 0 -0.9974523
vn 0.2817341 0 -0.9594925
vn 0.41541436 0 -0.90963227
vn 0.41541433 0 -0.90963227
vn 0.54064006 0 -0.841254
vn 0.54064 0 -0.841254
vn 0.65486073 0 -0.7557496
vn 0.65486085 0 -0.75574946
vn 0.7557495 0 -0.6548608
vn 0.75574946 0 -0.65486085
vn 0.84125394 0 -0.54064023
vn 0.84125394 0 -0.5406402
vn 0.90963227 0 -0.41541442
vn 0.9096324 0 -0.4154143
vn 0.9594926 0 -0.28173366
vn 0.9594926 0 -0.28173366
vn 0.98982155 0 -0.14231445
vn 0.98982155 0 -0.14231446
vn 1 0 0
vn 1 0 0
vn 0.98982155 0 0.14231446
vn 0.98982155 0 0.14231445
vn 0.9594926 0 0.28173363
vn 0.9594926 0 0.28173366
vn 0.9096325 0 0.41541407
vn 0.9096325 0 0.41541398
vn 0.84125423 0 0.54063976
vn 0.84125423 0 0.5406397
vn 0.7557496 0 0.6548608
vn 0.75574964 0 0.6548606
vn 0.65486103 0 0.7557494
vn 0.654861 0 0.7557494
vn 0.5406402 0 0.84125394
vn 0.54064006 0 0.841254
vn 0.41541484 0 0.9096321
vn 0.41541478 0 0.9096321
vn 0.28173444 0 0.9594924
vn 0.28173447 0 0.9594924
vn 0.14231455 0 0.98982155
vn 0.14231479 0 0.98982143
vn -0 0 1
vn -0 0 1
vn -0.14231387 0 0.98982155
vn -0.14231414 0 0.98982155
vn -0.28173319 0 0.95949286
vn -0.28173327 0 0.95949286
vn -0.41541314 0 0.90963286
vn -0.41541323 0 0.90963286
vn -0.54063964 0 0.84125423
vn -0.54063946 0 0.8412544
vn -0.65486056 0 0.7557497
vn -0.6548604 0 0.75574976
vn -0.7071069 0 0.70710665
vn -0.70710707 0 0.7071065
vn -0.7071072 0 0.70710635
vn -0.6548605 0 0.7557497
vn -0.70710725 0 0.70710623
vn -0.5406394 0 0.8412544
vn -0.41541314 0 0.90963286
vn -0.28173333 0 0.95949274
vn -0.6548608 0 0.7557496
vn -0.54063946 0 0.8412544
vn -0.6548607 0 0.75574964
vn -0.70710725 0 0.70710623
vn -0.54063946 0 0.84125435
vn -0.41541314 0 0.90963286
vn -0.4154132 0 0.90963286
vn -0.2817334 0 0.95949274
vn -0.2817334 0 0.95949274
vn -0.14231424 0 0.98982155
vn -0.1423142 0 0.98982155
vn -0.14231412 0 0.98982155
vn -0 0 1
vn -0 0 1
vn -0 0 1
vn 0.14231496 0 0.98982143
vn 0.14231502 0 0.98982143
vn 0.14231512 0 0.98982143
vn 0.28173447 0 0.9594924
vn 0.2817344 0 0.9594924
vn 0.28173426 0 0.9594925
vn 0.41541472 0 0.9096322
vn 0.41541457 0 0.9096322
vn 0.41541463 0 0.9096322
vn 0.5406402 0 0.84125394
vn 0.5406405 0 0.8412538
vn 0.54064035 0 0.8412538
vn 0.6548611 0 0.7557492
vn 0.65486115 0 0.7557492
vn 0.654861 0 0.7557494
vn 0.7557497 0 0.6548606
vn 0.7557496 0 0.65486073
vn 0.7557494 0 0.654861
vn 0.84125423 0 0.54063976
vn 0.8412542 0 0.5406399
vn 0.8412542 0 0.5406399
vn 0.90963256 0 0.41541374
vn 0.9096327 0 0.41541353
vn 0.9096327 0 0.41541344
vn 0.95949274 0 0.28173363
vn 0.9594926 0 0.2817337
vn 0.95949274 0 0.28173363
vn 0.98982155 0 0.14231464
vn 0.98982143 0 0.14231485
vn 0.98982143 0 0.1423149
vn 1 0 0
vn 1 0 0
vn 1 0 0
vn 0.98982155 0 -0.14231461
vn 0.98982143 0 -0.14231475
vn 0.98982143 0 -0.14231479
vn 0.9594926 0 -0.28173363
vn 0.9594926 0 -0.2817337
vn 0.9594926 0 -0.28173363
vn 0.9096325 0 -0.41541412
vn 0.9096325 0 -0.41541407
vn 0.9096325 0 -0.41541412
vn 0.84125394 0 -0.5406403
vn 0.8412538 0 -0.5406403
vn 0.8412538 0 -0.54064035
vn 0.75574946 0 -0.65486085
vn 0.7557494 0 -0.6548611
vn 0.7557494 0 -0.6548609
vn 0.6548608 0 -0.7557495
vn 0.6548609 0 -0.7557494
vn 0.65486085 0 -0.75574946
vn 0.54064006 0 -0.841254
vn 0.54064006 0 -0.841254
vn 0.5406402 0 -0.84125394
vn 0.41541407 0 -0.9096325
vn 0.4154139 0 -0.9096325
vn 0.415414 0 -0.9096325
vn 0.28173396 0 -0.9594926
vn 0.2817339 0 -0.9594926
vn 0.28173384 0 -0.9594926
vn 0.14231488 0 -0.98982143
vn 0.14231515 0 -0.98982143
vn 0.14231503 0 -0.98982143
vn 0.07133694 0 -0.9974522
vn 0.07133682 0 -0.9974522
g eff_112501_dml_slash_01_0
f 3/3/3 2/2/2 1/1/1
f 4/4/4 3/3/3 1/1/1
f 4/4/4 1/1/1 5/5/5
f 3/3/3 4/4/4 6/6/6
f 7/7/7 4/4/4 5/5/5
f 7/7/7 5/5/5 8/8/8
f 9/9/9 7/7/7 8/8/8
f 9/9/9 8/8/8 10/10/10
f 11/11/11 9/9/9 10/10/10
f 11/11/11 10/10/10 12/12/12
f 13/13/13 11/11/11 12/12/12
f 13/13/13 12/12/12 14/14/14
f 15/15/15 13/13/13 14/14/14
f 15/15/15 14/14/14 16/16/16
f 17/17/17 15/15/15 16/16/16
f 17/17/17 16/16/16 18/18/18
f 19/19/19 17/17/17 18/18/18
f 19/19/19 18/18/18 20/20/20
f 21/21/21 19/19/19 20/20/20
f 21/21/21 20/20/20 22/22/22
f 23/23/23 21/21/21 22/22/22
f 23/23/23 22/22/22 24/24/24
f 25/25/25 23/23/23 24/24/24
f 25/25/25 24/24/24 26/26/26
f 27/27/27 25/25/25 26/26/26
f 27/27/27 26/26/26 28/28/28
f 29/29/29 27/27/27 28/28/28
f 29/29/29 28/28/28 30/30/30
f 31/31/31 29/29/29 30/30/30
f 31/31/31 30/30/30 32/32/32
f 33/33/33 31/31/31 32/32/32
f 33/33/33 32/32/32 34/34/34
f 35/35/35 33/33/33 34/34/34
f 35/35/35 34/34/34 36/36/36
f 37/37/37 35/35/35 36/36/36
f 37/37/37 36/36/36 38/38/38
f 39/39/39 37/37/37 38/38/38
f 39/39/39 38/38/38 40/40/40
f 41/41/41 39/39/39 40/40/40
f 41/41/41 40/40/40 42/42/42
f 43/43/43 41/41/41 42/42/42
f 43/43/43 42/42/42 44/44/44
f 45/45/45 43/43/43 44/44/44
f 45/45/45 44/44/44 46/46/46
f 47/47/47 45/45/45 46/46/46
f 47/47/47 46/46/46 48/48/48
f 49/49/49 47/47/47 48/48/48
f 49/49/49 48/48/48 50/50/50
f 51/51/51 49/49/49 50/50/50
f 51/51/51 50/50/50 52/52/52
f 53/53/53 51/51/51 52/52/52
f 53/53/53 52/52/52 54/54/54
f 55/55/55 53/53/53 54/54/54
f 55/55/55 54/54/54 56/56/56
f 57/57/57 55/55/55 56/56/56
f 57/57/57 56/56/56 58/58/58
f 59/59/59 57/57/57 58/58/58
f 59/59/59 60/60/60 57/57/57
f 60/60/60 61/61/61 57/57/57
f 57/57/57 61/61/61 55/55/55
f 61/61/61 60/60/60 62/62/62
f 55/55/55 63/63/63 53/53/53
f 61/61/61 63/63/63 55/55/55
f 53/53/53 64/64/64 51/51/51
f 63/63/63 64/64/64 53/53/53
f 51/51/51 65/65/65 49/49/49
f 64/64/64 65/65/65 51/51/51
f 66/66/66 61/61/61 62/62/62
f 63/63/63 61/61/61 66/66/66
f 64/64/64 63/63/63 67/67/67
f 67/67/67 63/63/63 66/66/66
f 68/68/68 66/66/66 62/62/62
f 67/67/67 66/66/66 68/68/68
f 69/69/69 68/68/68 62/62/62
f 70/70/70 67/67/67 68/68/68
f 71/71/71 64/64/64 67/67/67
f 71/71/71 67/67/67 70/70/70
f 65/65/65 64/64/64 71/71/71
f 72/72/72 71/71/71 70/70/70
f 73/73/73 71/71/71 72/72/72
f 73/73/73 65/65/65 71/71/71
f 74/74/74 73/73/73 72/72/72
f 65/65/65 75/75/75 49/49/49
f 75/75/75 65/65/65 73/73/73
f 49/49/49 75/75/75 47/47/47
f 76/76/76 73/73/73 74/74/74
f 76/76/76 75/75/75 73/73/73
f 77/77/77 76/76/76 74/74/74
f 75/75/75 78/78/78 47/47/47
f 78/78/78 75/75/75 76/76/76
f 47/47/47 78/78/78 45/45/45
f 79/79/79 76/76/76 77/77/77
f 79/79/79 78/78/78 76/76/76
f 80/80/80 79/79/79 77/77/77
f 78/78/78 81/81/81 45/45/45
f 81/81/81 78/78/78 79/79/79
f 45/45/45 81/81/81 43/43/43
f 82/82/82 79/79/79 80/80/80
f 82/82/82 81/81/81 79/79/79
f 83/83/83 82/82/82 80/80/80
f 81/81/81 84/84/84 43/43/43
f 84/84/84 81/81/81 82/82/82
f 43/43/43 84/84/84 41/41/41
f 85/85/85 82/82/82 83/83/83
f 85/85/85 84/84/84 82/82/82
f 86/86/86 85/85/85 83/83/83
f 84/84/84 87/87/87 41/41/41
f 87/87/87 84/84/84 85/85/85
f 41/41/41 87/87/87 39/39/39
f 88/88/88 85/85/85 86/86/86
f 88/88/88 87/87/87 85/85/85
f 89/89/89 88/88/88 86/86/86
f 87/87/87 90/90/90 39/39/39
f 90/90/90 87/87/87 88/88/88
f 39/39/39 90/90/90 37/37/37
f 91/91/91 88/88/88 89/89/89
f 91/91/91 90/90/90 88/88/88
f 92/92/92 91/91/91 89/89/89
f 90/90/90 93/93/93 37/37/37
f 93/93/93 90/90/90 91/91/91
f 37/37/37 93/93/93 35/35/35
f 94/94/94 91/91/91 92/92/92
f 94/94/94 93/93/93 91/91/91
f 95/95/95 94/94/94 92/92/92
f 93/93/93 96/96/96 35/35/35
f 96/96/96 93/93/93 94/94/94
f 35/35/35 96/96/96 33/33/33
f 97/97/97 94/94/94 95/95/95
f 97/97/97 96/96/96 94/94/94
f 98/98/98 97/97/97 95/95/95
f 96/96/96 99/99/99 33/33/33
f 99/99/99 96/96/96 97/97/97
f 33/33/33 99/99/99 31/31/31
f 100/100/100 97/97/97 98/98/98
f 100/100/100 99/99/99 97/97/97
f 101/101/101 100/100/100 98/98/98
f 99/99/99 102/102/102 31/31/31
f 102/102/102 99/99/99 100/100/100
f 31/31/31 102/102/102 29/29/29
f 103/103/103 100/100/100 101/101/101
f 103/103/103 102/102/102 100/100/100
f 104/104/104 103/103/103 101/101/101
f 102/102/102 105/105/105 29/29/29
f 105/105/105 102/102/102 103/103/103
f 29/29/29 105/105/105 27/27/27
f 106/106/106 103/103/103 104/104/104
f 106/106/106 105/105/105 103/103/103
f 107/107/107 106/106/106 104/104/104
f 105/105/105 108/108/108 27/27/27
f 108/108/108 105/105/105 106/106/106
f 27/27/27 108/108/108 25/25/25
f 109/109/109 106/106/106 107/107/107
f 109/109/109 108/108/108 106/106/106
f 110/110/110 109/109/109 107/107/107
f 108/108/108 111/111/111 25/25/25
f 111/111/111 108/108/108 109/109/109
f 25/25/25 111/111/111 23/23/23
f 112/112/112 109/109/109 110/110/110
f 112/112/112 111/111/111 109/109/109
f 113/113/113 112/112/112 110/110/110
f 111/111/111 114/114/114 23/23/23
f 114/114/114 111/111/111 112/112/112
f 23/23/23 114/114/114 21/21/21
f 115/115/115 112/112/112 113/113/113
f 115/115/115 114/114/114 112/112/112
f 116/116/116 115/115/115 113/113/113
f 114/114/114 117/117/117 21/21/21
f 117/117/117 114/114/114 115/115/115
f 21/21/21 117/117/117 19/19/19
f 118/118/118 115/115/115 116/116/116
f 118/118/118 117/117/117 115/115/115
f 119/119/119 118/118/118 116/116/116
f 117/117/117 120/120/120 19/19/19
f 120/120/120 117/117/117 118/118/118
f 19/19/19 120/120/120 17/17/17
f 121/121/121 118/118/118 119/119/119
f 121/121/121 120/120/120 118/118/118
f 122/122/122 121/121/121 119/119/119
f 120/120/120 123/123/123 17/17/17
f 123/123/123 120/120/120 121/121/121
f 17/17/17 123/123/123 15/15/15
f 124/124/124 121/121/121 122/122/122
f 124/124/124 123/123/123 121/121/121
f 125/125/125 124/124/124 122/122/122
f 123/123/123 126/126/126 15/15/15
f 126/126/126 123/123/123 124/124/124
f 15/15/15 126/126/126 13/13/13
f 127/127/127 124/124/124 125/125/125
f 127/127/127 126/126/126 124/124/124
f 128/128/128 127/127/127 125/125/125
f 126/126/126 129/129/129 13/13/13
f 129/129/129 126/126/126 127/127/127
f 13/13/13 129/129/129 11/11/11
f 130/130/130 127/127/127 128/128/128
f 130/130/130 129/129/129 127/127/127
f 131/131/131 130/130/130 128/128/128
f 129/129/129 132/132/132 11/11/11
f 132/132/132 129/129/129 130/130/130
f 11/11/11 132/132/132 9/9/9
f 133/133/133 130/130/130 131/131/131
f 133/133/133 132/132/132 130/130/130
f 134/134/134 133/133/133 131/131/131
f 132/132/132 135/135/135 9/9/9
f 135/135/135 132/132/132 133/133/133
f 9/9/9 135/135/135 7/7/7
f 136/136/136 133/133/133 134/134/134
f 136/136/136 135/135/135 133/133/133
f 137/137/137 136/136/136 134/134/134
f 135/135/135 138/138/138 7/7/7
f 138/138/138 135/135/135 136/136/136
f 7/7/7 138/138/138 4/4/4
f 139/139/139 136/136/136 137/137/137
f 139/139/139 138/138/138 136/136/136
f 140/140/140 139/139/139 137/137/137
f 138/138/138 141/141/141 4/4/4
f 141/141/141 138/138/138 139/139/139
f 4/4/4 141/141/141 6/6/6
f 142/142/142 139/139/139 140/140/140
f 142/142/142 141/141/141 139/139/139
f 6/6/6 141/141/141 142/142/142
f 143/143/143 142/142/142 140/140/140
f 144/144/144 6/6/6 142/142/142
f 144/144/144 142/142/142 143/143/143
f 145/145/145 144/144/144 143/143/143
