g eff_cmn_beam_02
v 1.1920929E-07 5.9604645E-08 7.263529
v 1.1920929E-07 -0.75773686 7.263529
v 1.1920929E-07 -0.73509026 6.7790165
v 1.1920929E-07 6.3578284E-08 6.7790165
v 1.1920929E-07 0.7350904 6.779016
v 1.1920929E-07 0.757737 7.263529
v 1.1920929E-07 0.7124437 6.2945037
v 1.1920929E-07 6.755193E-08 6.2945037
v 1.1920929E-07 -0.7124436 6.2945037
v 1.1920929E-07 0.6897971 5.8099914
v 1.1920929E-07 7.152558E-08 5.8099914
v 1.1920929E-07 -0.68979704 5.8099914
v 1.1920929E-07 0.66715056 5.325479
v 1.1920929E-07 7.5499216E-08 5.325479
v 1.1920929E-07 -0.6671504 5.325479
v 1.1920929E-07 0.6445039 4.8409667
v 1.1920929E-07 7.9472855E-08 4.8409667
v 1.1920929E-07 -0.6445038 4.8409667
v 1.1920929E-07 0.62185735 4.3564544
v 1.1920929E-07 8.34465E-08 4.3564544
v 1.1920929E-07 -0.62185717 4.3564544
v 1.1920929E-07 0.5992107 3.8719416
v 1.1920929E-07 8.742015E-08 3.871942
v 1.1920929E-07 -0.5992105 3.871942
v 1.1920929E-07 0.5765641 3.3874292
v 1.1920929E-07 9.139379E-08 3.3874295
v 1.1920929E-07 -0.5765639 3.3874295
v 1.1920929E-07 0.5539174 2.9029167
v 1.1920929E-07 9.536743E-08 2.902917
v 1.1920929E-07 -0.5539173 2.902917
v 1.1920929E-07 0.53127086 2.4184046
v 1.1920929E-07 9.934107E-08 2.4184048
v 1.1920929E-07 -0.5312706 2.4184048
v 1.1920929E-07 0.50862426 1.933892
v 1.1920929E-07 1.0331472E-07 1.9338921
v 1.1920929E-07 -0.5086241 1.9338921
v 1.1920929E-07 0.4859776 1.4493797
v 1.1920929E-07 1.0728836E-07 1.4493799
v 1.1920929E-07 -0.4859774 1.4493799
v 1.1920929E-07 0.46333098 0.9648673
v 1.1920929E-07 1.11262004E-07 0.9648674
v 1.1920929E-07 -0.46333078 0.9648674
v 1.1920929E-07 0.4406844 0.48035485
v 1.1920929E-07 1.1523564E-07 0.48035485
v 1.1920929E-07 0.41803777 -0.004157494
v 1.1920929E-07 -0.44068417 0.48035485
v 1.1920929E-07 1.1920929E-07 -0.004157494
v 1.1920929E-07 -0.41803753 -0.004157494
vt 0.49999994 0.99999994
vt 0 0.99999994
vt -7.9472855E-09 0.9333333
vt 0.49999994 0.9333333
vt 0.9999999 0.9333333
vt 0.9999999 0.9999999
vt 0.9999999 0.86666656
vt 0.49999994 0.8666666
vt -1.5894571E-08 0.8666666
vt 0.9999998 0.7999999
vt 0.49999994 0.79999995
vt -2.3841856E-08 0.79999995
vt 0.99999994 0.73333323
vt 0.49999994 0.7333333
vt -3.1789142E-08 0.73333335
vt 0.9999999 0.6666666
vt 0.49999994 0.6666666
vt -3.9736427E-08 0.6666666
vt 0.99999994 0.5999999
vt 0.49999994 0.59999996
vt -4.7683713E-08 0.6
vt 0.9999999 0.5333333
vt 0.49999994 0.5333333
vt -5.5631E-08 0.5333333
vt 0.9999999 0.46666658
vt 0.49999988 0.46666664
vt -6.3578284E-08 0.4666667
vt 0.9999999 0.39999992
vt 0.49999994 0.39999998
vt -7.152558E-08 0.39999998
vt 0.9999999 0.3333333
vt 0.4999999 0.33333337
vt -7.9472855E-08 0.33333337
vt 0.9999999 0.26666665
vt 0.49999994 0.26666665
vt -8.742015E-08 0.26666665
vt 0.9999999 0.19999999
vt 0.4999999 0.20000005
vt -9.5367426E-08 0.20000005
vt 0.99999994 0.13333333
vt 0.4999999 0.13333333
vt -1.0331472E-07 0.13333333
vt 0.99999994 0.06666666
vt 0.4999999 0.06666666
vt 0.99999994 0
vt -1.11262004E-07 0.06666666
vt 0.4999999 0
vt -1.1920929E-07 0
vn -1 0 0
vn -1 0 0
vn -1 0 0
vn -1 0 0
vn -1 0 0
vn -1 0 0
vn -1 0 0
vn -1 0 0
vn -1 0 0
vn -1 0 0
vn -1 0 0
vn -1 0 0
vn -1 0 0
vn -1 0 0
vn -1 0 0
vn -1 0 0
vn -1 0 0
vn -1 0 0
vn -1 0 0
vn -1 0 0
vn -1 0 0
vn -1 0 0
vn -1 0 0
vn -1 0 0
vn -1 0 0
vn -1 0 0
vn -1 0 0
vn -1 0 0
vn -1 0 0
vn -1 0 0
vn -1 0 0
vn -1 0 0
vn -1 0 0
vn -1 0 0
vn -1 0 0
vn -1 0 0
vn -1 0 0
vn -1 0 0
vn -1 0 0
vn -1 0 0
vn -1 0 0
vn -1 0 0
vn -1 0 0
vn -1 0 0
vn -1 0 0
vn -1 0 0
vn -1 0 0
vn -0.99999225 0.0016989975 0.0035541926
g eff_cmn_beam_02_0
f 3/3/3 2/2/2 1/1/1
f 4/4/4 3/3/3 1/1/1
f 4/4/4 1/1/1 5/5/5
f 1/1/1 6/6/6 5/5/5
f 4/4/4 5/5/5 7/7/7
f 4/4/4 8/8/8 3/3/3
f 8/8/8 4/4/4 7/7/7
f 8/8/8 9/9/9 3/3/3
f 8/8/8 7/7/7 10/10/10
f 8/8/8 11/11/11 9/9/9
f 11/11/11 8/8/8 10/10/10
f 11/11/11 12/12/12 9/9/9
f 11/11/11 10/10/10 13/13/13
f 11/11/11 14/14/14 12/12/12
f 14/14/14 11/11/11 13/13/13
f 14/14/14 15/15/15 12/12/12
f 14/14/14 13/13/13 16/16/16
f 14/14/14 17/17/17 15/15/15
f 17/17/17 14/14/14 16/16/16
f 17/17/17 18/18/18 15/15/15
f 17/17/17 16/16/16 19/19/19
f 17/17/17 20/20/20 18/18/18
f 20/20/20 17/17/17 19/19/19
f 20/20/20 21/21/21 18/18/18
f 20/20/20 19/19/19 22/22/22
f 20/20/20 23/23/23 21/21/21
f 23/23/23 20/20/20 22/22/22
f 23/23/23 24/24/24 21/21/21
f 23/23/23 22/22/22 25/25/25
f 23/23/23 26/26/26 24/24/24
f 26/26/26 23/23/23 25/25/25
f 26/26/26 27/27/27 24/24/24
f 26/26/26 25/25/25 28/28/28
f 26/26/26 29/29/29 27/27/27
f 29/29/29 26/26/26 28/28/28
f 29/29/29 30/30/30 27/27/27
f 29/29/29 28/28/28 31/31/31
f 29/29/29 32/32/32 30/30/30
f 32/32/32 29/29/29 31/31/31
f 32/32/32 33/33/33 30/30/30
f 32/32/32 31/31/31 34/34/34
f 32/32/32 35/35/35 33/33/33
f 35/35/35 32/32/32 34/34/34
f 35/35/35 36/36/36 33/33/33
f 35/35/35 34/34/34 37/37/37
f 35/35/35 38/38/38 36/36/36
f 38/38/38 35/35/35 37/37/37
f 38/38/38 39/39/39 36/36/36
f 38/38/38 37/37/37 40/40/40
f 38/38/38 41/41/41 39/39/39
f 41/41/41 38/38/38 40/40/40
f 41/41/41 42/42/42 39/39/39
f 41/41/41 40/40/40 43/43/43
f 41/41/41 44/44/44 42/42/42
f 44/44/44 41/41/41 43/43/43
f 44/44/44 43/43/43 45/45/45
f 44/44/44 46/46/46 42/42/42
f 47/47/47 44/44/44 45/45/45
f 44/44/44 47/47/47 46/46/46
f 47/47/47 48/48/48 46/46/46
