g eff_101801_dml_plane_01
v 0.8333334 0 1
v 1 0 0.8333333
v 1 0 1
v 0.8333334 0 0.8333333
v 0.66666675 0 1
v 1 0 0.6666666
v 0.66666675 0 0.8333333
v 0.5 0 1
v 0.8333334 0 0.6666666
v 1 0 0.5
v 0.5 0 0.8333333
v 0.33333337 0 1
v 0.66666675 0 0.6666666
v 0.8333334 0 0.5
v 1 0 0.3333333
v 0.33333337 0 0.8333333
v 0.16666675 0 1
v 0.5 0 0.6666666
v 0.66666675 0 0.5
v 0.8333334 0 0.3333333
v 1 0 0.16666663
v 0.16666675 0 0.8333333
v -0 0 1
v 0.33333337 0 0.6666666
v 0.5 0 0.5
v 0.66666675 0 0.3333333
v 0.8333334 0 0.16666663
v 1 0 0
v -0 0 0.8333333
v -0.16666663 0 1
v 0.16666675 0 0.6666666
v 0.33333337 0 0.5
v 0.5 0 0.3333333
v 0.66666675 0 0.16666663
v 0.8333334 0 0
v 1 0 -0.16666675
v -0.16666663 0 0.8333333
v -0.3333333 0 1
v -0 0 0.6666666
v 0.16666675 0 0.5
v 0.33333337 0 0.3333333
v 0.5 0 0.16666663
v 0.66666675 0 0
v 0.8333334 0 -0.16666675
v 1 0 -0.33333337
v 0.8333334 0 -0.33333337
v 1 0 -0.5
v 0.66666675 0 -0.16666675
v 0.5 0 0
v 0.33333337 0 0.16666663
v 0.16666675 0 0.3333333
v 0.8333334 0 -0.5
v 1 0 -0.66666675
v 0.66666675 0 -0.33333337
v 0.5 0 -0.16666675
v 0.33333337 0 0
v 0.8333334 0 -0.66666675
v 1 0 -0.8333334
v 0.66666675 0 -0.5
v 0.5 0 -0.33333337
v 0.8333334 0 -0.8333334
v 1 0 -1
v 0.8333334 0 -1
v 0.66666675 0 -0.66666675
v 0.66666675 0 -0.8333334
v 0.66666675 0 -1
v 0.5 0 -0.5
v 0.33333337 0 -0.16666675
v 0.5 0 -0.66666675
v 0.5 0 -0.8333334
v 0.5 0 -1
v 0.33333337 0 -0.33333337
v 0.33333337 0 -0.5
v 0.33333337 0 -0.66666675
v 0.33333337 0 -0.8333334
v 0.33333337 0 -1
v 0.16666675 0 -0.8333334
v 0.16666675 0 -1
v 0.16666675 0 -0.66666675
v 0.16666675 0 -0.5
v 0.16666675 0 -0.33333337
v 0.16666675 0 -0.16666675
v -0 0 -0.8333334
v -0 0 -1
v -0 0 -0.66666675
v -0 0 -0.5
v -0 0 -0.33333337
v -0.16666663 0 -0.8333334
v -0.16666663 0 -1
v -0.16666663 0 -0.66666675
v -0.16666663 0 -0.5
v -0.3333333 0 -0.8333334
v -0.3333333 0 -1
v -0.3333333 0 -0.66666675
v -0.5 0 -0.8333334
v -0.5 0 -1
v -0 0 -0.16666675
v -0.16666663 0 -0.33333337
v -0.3333333 0 -0.5
v -0.5 0 -0.66666675
v -0.6666666 0 -0.8333334
v -0.6666666 0 -1
v -0.16666663 0 -0.16666675
v -0.3333333 0 -0.33333337
v -0.5 0 -0.5
v -0.6666666 0 -0.66666675
v -0.8333333 0 -0.8333334
v -0.8333333 0 -1
v -1 0 -0.8333334
v -1 0 -1
v -1 0 -0.66666675
v -0.8333333 0 -0.66666675
v -1 0 -0.5
v -0.8333333 0 -0.5
v -1 0 -0.33333337
v -0.6666666 0 -0.5
v -0.8333333 0 -0.33333337
v -1 0 -0.16666675
v -0.6666666 0 -0.33333337
v -0.8333333 0 -0.16666675
v -1 0 0
v -0.5 0 -0.33333337
v -0.8333333 0 0
v -1 0 0.16666663
v -0.6666666 0 -0.16666675
v -0.5 0 -0.16666675
v -0.8333333 0 0.16666663
v -1 0 0.3333333
v -0.6666666 0 0
v -0.3333333 0 -0.16666675
v -0.8333333 0 0.3333333
v -1 0 0.5
v -0.6666666 0 0.16666663
v -0.5 0 0
v -0.3333333 0 0
v -0.8333333 0 0.5
v -1 0 0.6666666
v -0.6666666 0 0.3333333
v -0.5 0 0.16666663
v -0.16666663 0 0
v -0.8333333 0 0.6666666
v -1 0 0.8333333
v -0.6666666 0 0.5
v -0.5 0 0.3333333
v -0.3333333 0 0.16666663
v -0 0 0
v -0.8333333 0 0.8333333
v -1 0 1
v -0.8333333 0 1
v -0.6666666 0 0.6666666
v -0.6666666 0 0.8333333
v -0.6666666 0 1
v -0.5 0 0.5
v -0.3333333 0 0.3333333
v -0.5 0 0.8333333
v -0.5 0 1
v -0.5 0 0.6666666
v -0.3333333 0 0.8333333
v -0.3333333 0 0.5
v -0.3333333 0 0.6666666
v -0.16666663 0 0.6666666
v -0.16666663 0 0.5
v -0 0 0.5
v -0.16666663 0 0.3333333
v -0 0 0.3333333
v -0.16666663 0 0.16666663
v -0 0 0.16666663
v 0.16666675 0 0.16666663
v 0.16666675 0 0
vt 0.9166667 0
vt 1 0.083333336
vt 1 0
vt 0.9166667 0.083333336
vt 0.8333334 0
vt 1 0.16666667
vt 0.8333334 0.083333336
vt 0.75 0
vt 0.9166667 0.16666667
vt 1 0.25
vt 0.75 0.083333336
vt 0.6666667 0
vt 0.8333334 0.16666667
vt 0.9166667 0.25
vt 1 0.33333334
vt 0.6666667 0.083333336
vt 0.5833334 0
vt 0.75 0.16666667
vt 0.8333334 0.25
vt 0.9166667 0.33333334
vt 1 0.4166667
vt 0.5833334 0.083333336
vt 0.5 0
vt 0.6666667 0.16666667
vt 0.75 0.25
vt 0.8333334 0.33333334
vt 0.9166667 0.4166667
vt 1 0.5
vt 0.5 0.083333336
vt 0.4166667 0
vt 0.5833334 0.16666667
vt 0.6666667 0.25
vt 0.75 0.33333334
vt 0.8333334 0.4166667
vt 0.9166667 0.5
vt 1 0.5833334
vt 0.4166667 0.083333336
vt 0.33333334 0
vt 0.5 0.16666667
vt 0.5833334 0.25
vt 0.6666667 0.33333334
vt 0.75 0.4166667
vt 0.8333334 0.5
vt 0.9166667 0.5833334
vt 1 0.6666667
vt 0.9166667 0.6666667
vt 1 0.75
vt 0.8333334 0.5833334
vt 0.75 0.5
vt 0.6666667 0.4166667
vt 0.5833334 0.33333334
vt 0.9166667 0.75
vt 1 0.8333334
vt 0.8333334 0.6666667
vt 0.75 0.5833334
vt 0.6666667 0.5
vt 0.9166667 0.8333334
vt 1 0.9166667
vt 0.8333334 0.75
vt 0.75 0.6666667
vt 0.9166667 0.9166667
vt 1 1
vt 0.9166667 1
vt 0.8333334 0.8333334
vt 0.8333334 0.9166667
vt 0.8333334 1
vt 0.75 0.75
vt 0.6666667 0.5833334
vt 0.75 0.8333334
vt 0.75 0.9166667
vt 0.75 1
vt 0.6666667 0.6666667
vt 0.6666667 0.75
vt 0.6666667 0.8333334
vt 0.6666667 0.9166667
vt 0.6666667 1
vt 0.5833334 0.9166667
vt 0.5833334 1
vt 0.5833334 0.8333334
vt 0.5833334 0.75
vt 0.5833334 0.6666667
vt 0.5833334 0.5833334
vt 0.5 0.9166667
vt 0.5 1
vt 0.5 0.8333334
vt 0.5 0.75
vt 0.5 0.6666667
vt 0.4166667 0.9166667
vt 0.4166667 1
vt 0.4166667 0.8333334
vt 0.4166667 0.75
vt 0.33333334 0.9166667
vt 0.33333334 1
vt 0.33333334 0.8333334
vt 0.25 0.9166667
vt 0.25 1
vt 0.5 0.5833334
vt 0.4166667 0.6666667
vt 0.33333334 0.75
vt 0.25 0.8333334
vt 0.16666667 0.9166667
vt 0.16666667 1
vt 0.4166667 0.5833334
vt 0.33333334 0.6666667
vt 0.25 0.75
vt 0.16666667 0.8333334
vt 0.083333336 0.9166667
vt 0.083333336 1
vt 0 0.9166667
vt 0 1
vt 0 0.8333334
vt 0.083333336 0.8333334
vt 0 0.75
vt 0.083333336 0.75
vt 0 0.6666667
vt 0.16666667 0.75
vt 0.083333336 0.6666667
vt 0 0.5833334
vt 0.16666667 0.6666667
vt 0.083333336 0.5833334
vt 0 0.5
vt 0.25 0.6666667
vt 0.083333336 0.5
vt 0 0.4166667
vt 0.16666667 0.5833334
vt 0.25 0.5833334
vt 0.083333336 0.4166667
vt 0 0.33333334
vt 0.16666667 0.5
vt 0.33333334 0.5833334
vt 0.083333336 0.33333334
vt 0 0.25
vt 0.16666667 0.4166667
vt 0.25 0.5
vt 0.33333334 0.5
vt 0.083333336 0.25
vt 0 0.16666667
vt 0.16666667 0.33333334
vt 0.25 0.4166667
vt 0.4166667 0.5
vt 0.083333336 0.16666667
vt 0 0.083333336
vt 0.16666667 0.25
vt 0.25 0.33333334
vt 0.33333334 0.4166667
vt 0.5 0.5
vt 0.083333336 0.083333336
vt 0 0
vt 0.083333336 0
vt 0.16666667 0.16666667
vt 0.16666667 0.083333336
vt 0.16666667 0
vt 0.25 0.25
vt 0.33333334 0.33333334
vt 0.25 0.083333336
vt 0.25 0
vt 0.25 0.16666667
vt 0.33333334 0.083333336
vt 0.33333334 0.25
vt 0.33333334 0.16666667
vt 0.4166667 0.16666667
vt 0.4166667 0.25
vt 0.5 0.25
vt 0.4166667 0.33333334
vt 0.5 0.33333334
vt 0.4166667 0.4166667
vt 0.5 0.4166667
vt 0.5833334 0.4166667
vt 0.5833334 0.5
vn -0 1 0
vn -0 1 0
vn -0 1 0
vn -0 1 0
vn -0 1 0
vn -0 1 0
vn -0 1 0
vn -0 1 0
vn -0 1 0
vn -0 1 0
vn -0 1 0
vn -0 1 0
vn -0 1 0
vn -0 1 0
vn -0 1 0
vn -0 1 0
vn -0 1 0
vn -0 1 0
vn -0 1 0
vn -0 1 0
vn -0 1 0
vn -0 1 0
vn -0 1 0
vn -0 1 0
vn -0 1 0
vn -0 1 0
vn -0 1 0
vn -0 1 0
vn -0 1 0
vn -0 1 0
vn -0 1 0
vn -0 1 0
vn -0 1 0
vn -0 1 0
vn -0 1 0
vn -0 1 0
vn -0 1 0
vn -0 1 0
vn -0 1 0
vn -0 1 0
vn -0 1 0
vn -0 1 0
vn -0 1 0
vn -0 1 0
vn -0 1 0
vn -0 1 0
vn -0 1 0
vn -0 1 0
vn -0 1 0
vn -0 1 0
vn -0 1 0
vn -0 1 0
vn -0 1 0
vn -0 1 0
vn -0 1 0
vn -0 1 0
vn -0 1 0
vn -0 1 0
vn -0 1 0
vn -0 1 0
vn -0 1 0
vn -0 1 0
vn -0 1 0
vn -0 1 0
vn -0 1 0
vn -0 1 0
vn -0 1 0
vn -0 1 0
vn -0 1 0
vn -0 1 0
vn -0 1 0
vn -0 1 0
vn -0 1 0
vn -0 1 0
vn -0 1 0
vn -0 1 0
vn -0 1 0
vn -0 1 0
vn -0 1 0
vn -0 1 0
vn -0 1 0
vn -0 1 0
vn -0 1 0
vn -0 1 0
vn -0 1 0
vn -0 1 0
vn -0 1 0
vn -0 1 0
vn -0 1 0
vn -0 1 0
vn -0 1 0
vn -0 1 0
vn -0 1 0
vn -0 1 0
vn -0 1 0
vn -0 1 0
vn -0 1 0
vn -0 1 0
vn -0 1 0
vn -0 1 0
vn -0 1 0
vn -0 1 0
vn -0 1 0
vn -0 1 0
vn -0 1 0
vn -0 1 0
vn -0 1 0
vn -0 1 0
vn -0 1 0
vn -0 1 0
vn -0 1 0
vn -0 1 0
vn -0 1 0
vn -0 1 0
vn -0 1 0
vn -0 1 0
vn -0 1 0
vn -0 1 0
vn -0 1 0
vn -0 1 0
vn -0 1 0
vn -0 1 0
vn -0 1 0
vn -0 1 0
vn -0 1 0
vn -0 1 0
vn -0 1 0
vn -0 1 0
vn -0 1 0
vn -0 1 0
vn -0 1 0
vn -0 1 0
vn -0 1 0
vn -0 1 0
vn -0 1 0
vn -0 1 0
vn -0 1 0
vn -0 1 0
vn -0 1 0
vn -0 1 0
vn -0 1 0
vn -0 1 0
vn -0 1 0
vn -0 1 0
vn -0 1 0
vn -0 1 0
vn -0 1 0
vn -0 1 0
vn -0 1 0
vn -0 1 0
vn -0 1 0
vn -0 1 0
vn -0 1 0
vn -0 1 0
vn -0 1 0
vn -0 1 0
vn -0 1 0
vn -0 1 0
vn -0 1 0
vn -0 1 0
vn -0 1 0
vn -0 1 0
vn -0 1 0
vn -0 1 0
vn -0 1 0
vn -0 1 0
vn -0 1 0
vn -0 1 0
vn -0 1 0
g eff_101801_dml_plane_01_0
f 3/3/3 2/2/2 1/1/1
f 2/2/2 4/4/4 1/1/1
f 1/1/1 4/4/4 5/5/5
f 2/2/2 6/6/6 4/4/4
f 4/4/4 7/7/7 5/5/5
f 5/5/5 7/7/7 8/8/8
f 6/6/6 9/9/9 4/4/4
f 4/4/4 9/9/9 7/7/7
f 6/6/6 10/10/10 9/9/9
f 7/7/7 11/11/11 8/8/8
f 8/8/8 11/11/11 12/12/12
f 9/9/9 13/13/13 7/7/7
f 7/7/7 13/13/13 11/11/11
f 10/10/10 14/14/14 9/9/9
f 9/9/9 14/14/14 13/13/13
f 10/10/10 15/15/15 14/14/14
f 11/11/11 16/16/16 12/12/12
f 12/12/12 16/16/16 17/17/17
f 13/13/13 18/18/18 11/11/11
f 11/11/11 18/18/18 16/16/16
f 14/14/14 19/19/19 13/13/13
f 13/13/13 19/19/19 18/18/18
f 15/15/15 20/20/20 14/14/14
f 14/14/14 20/20/20 19/19/19
f 15/15/15 21/21/21 20/20/20
f 16/16/16 22/22/22 17/17/17
f 17/17/17 22/22/22 23/23/23
f 18/18/18 24/24/24 16/16/16
f 16/16/16 24/24/24 22/22/22
f 19/19/19 25/25/25 18/18/18
f 18/18/18 25/25/25 24/24/24
f 20/20/20 26/26/26 19/19/19
f 19/19/19 26/26/26 25/25/25
f 21/21/21 27/27/27 20/20/20
f 20/20/20 27/27/27 26/26/26
f 21/21/21 28/28/28 27/27/27
f 22/22/22 29/29/29 23/23/23
f 23/23/23 29/29/29 30/30/30
f 24/24/24 31/31/31 22/22/22
f 22/22/22 31/31/31 29/29/29
f 25/25/25 32/32/32 24/24/24
f 24/24/24 32/32/32 31/31/31
f 26/26/26 33/33/33 25/25/25
f 25/25/25 33/33/33 32/32/32
f 27/27/27 34/34/34 26/26/26
f 26/26/26 34/34/34 33/33/33
f 28/28/28 35/35/35 27/27/27
f 27/27/27 35/35/35 34/34/34
f 28/28/28 36/36/36 35/35/35
f 29/29/29 37/37/37 30/30/30
f 30/30/30 37/37/37 38/38/38
f 31/31/31 39/39/39 29/29/29
f 29/29/29 39/39/39 37/37/37
f 32/32/32 40/40/40 31/31/31
f 31/31/31 40/40/40 39/39/39
f 33/33/33 41/41/41 32/32/32
f 32/32/32 41/41/41 40/40/40
f 34/34/34 42/42/42 33/33/33
f 33/33/33 42/42/42 41/41/41
f 35/35/35 43/43/43 34/34/34
f 34/34/34 43/43/43 42/42/42
f 36/36/36 44/44/44 35/35/35
f 35/35/35 44/44/44 43/43/43
f 36/36/36 45/45/45 44/44/44
f 45/45/45 46/46/46 44/44/44
f 45/45/45 47/47/47 46/46/46
f 44/44/44 48/48/48 43/43/43
f 44/44/44 46/46/46 48/48/48
f 43/43/43 49/49/49 42/42/42
f 43/43/43 48/48/48 49/49/49
f 42/42/42 50/50/50 41/41/41
f 42/42/42 49/49/49 50/50/50
f 41/41/41 51/51/51 40/40/40
f 41/41/41 50/50/50 51/51/51
f 47/47/47 52/52/52 46/46/46
f 47/47/47 53/53/53 52/52/52
f 46/46/46 54/54/54 48/48/48
f 46/46/46 52/52/52 54/54/54
f 48/48/48 55/55/55 49/49/49
f 48/48/48 54/54/54 55/55/55
f 49/49/49 56/56/56 50/50/50
f 49/49/49 55/55/55 56/56/56
f 53/53/53 57/57/57 52/52/52
f 53/53/53 58/58/58 57/57/57
f 52/52/52 59/59/59 54/54/54
f 52/52/52 57/57/57 59/59/59
f 54/54/54 60/60/60 55/55/55
f 54/54/54 59/59/59 60/60/60
f 58/58/58 61/61/61 57/57/57
f 58/58/58 62/62/62 61/61/61
f 62/62/62 63/63/63 61/61/61
f 57/57/57 64/64/64 59/59/59
f 57/57/57 61/61/61 64/64/64
f 61/61/61 63/63/63 65/65/65
f 61/61/61 65/65/65 64/64/64
f 63/63/63 66/66/66 65/65/65
f 59/59/59 64/64/64 67/67/67
f 59/59/59 67/67/67 60/60/60
f 55/55/55 60/60/60 68/68/68
f 55/55/55 68/68/68 56/56/56
f 64/64/64 65/65/65 69/69/69
f 64/64/64 69/69/69 67/67/67
f 65/65/65 66/66/66 70/70/70
f 65/65/65 70/70/70 69/69/69
f 66/66/66 71/71/71 70/70/70
f 60/60/60 67/67/67 72/72/72
f 60/60/60 72/72/72 68/68/68
f 67/67/67 69/69/69 73/73/73
f 67/67/67 73/73/73 72/72/72
f 69/69/69 70/70/70 74/74/74
f 69/69/69 74/74/74 73/73/73
f 70/70/70 71/71/71 75/75/75
f 70/70/70 75/75/75 74/74/74
f 71/71/71 76/76/76 75/75/75
f 75/75/75 76/76/76 77/77/77
f 76/76/76 78/78/78 77/77/77
f 74/74/74 75/75/75 79/79/79
f 75/75/75 77/77/77 79/79/79
f 73/73/73 74/74/74 80/80/80
f 74/74/74 79/79/79 80/80/80
f 72/72/72 73/73/73 81/81/81
f 73/73/73 80/80/80 81/81/81
f 68/68/68 72/72/72 82/82/82
f 72/72/72 81/81/81 82/82/82
f 77/77/77 78/78/78 83/83/83
f 78/78/78 84/84/84 83/83/83
f 79/79/79 77/77/77 85/85/85
f 77/77/77 83/83/83 85/85/85
f 80/80/80 79/79/79 86/86/86
f 79/79/79 85/85/85 86/86/86
f 81/81/81 80/80/80 87/87/87
f 80/80/80 86/86/86 87/87/87
f 83/83/83 84/84/84 88/88/88
f 84/84/84 89/89/89 88/88/88
f 85/85/85 83/83/83 90/90/90
f 83/83/83 88/88/88 90/90/90
f 86/86/86 85/85/85 91/91/91
f 85/85/85 90/90/90 91/91/91
f 88/88/88 89/89/89 92/92/92
f 89/89/89 93/93/93 92/92/92
f 90/90/90 88/88/88 94/94/94
f 88/88/88 92/92/92 94/94/94
f 92/92/92 93/93/93 95/95/95
f 93/93/93 96/96/96 95/95/95
f 81/81/81 87/87/87 97/97/97
f 82/82/82 81/81/81 97/97/97
f 87/87/87 86/86/86 98/98/98
f 86/86/86 91/91/91 98/98/98
f 91/91/91 90/90/90 99/99/99
f 90/90/90 94/94/94 99/99/99
f 94/94/94 92/92/92 100/100/100
f 92/92/92 95/95/95 100/100/100
f 95/95/95 96/96/96 101/101/101
f 96/96/96 102/102/102 101/101/101
f 97/97/97 87/87/87 103/103/103
f 87/87/87 98/98/98 103/103/103
f 98/98/98 91/91/91 104/104/104
f 91/91/91 99/99/99 104/104/104
f 99/99/99 94/94/94 105/105/105
f 94/94/94 100/100/100 105/105/105
f 100/100/100 95/95/95 106/106/106
f 95/95/95 101/101/101 106/106/106
f 101/101/101 102/102/102 107/107/107
f 102/102/102 108/108/108 107/107/107
f 107/107/107 108/108/108 109/109/109
f 108/108/108 110/110/110 109/109/109
f 107/107/107 109/109/109 111/111/111
f 101/101/101 107/107/107 112/112/112
f 112/112/112 107/107/107 111/111/111
f 106/106/106 101/101/101 112/112/112
f 112/112/112 111/111/111 113/113/113
f 114/114/114 112/112/112 113/113/113
f 106/106/106 112/112/112 114/114/114
f 114/114/114 113/113/113 115/115/115
f 100/100/100 106/106/106 116/116/116
f 116/116/116 106/106/106 114/114/114
f 105/105/105 100/100/100 116/116/116
f 117/117/117 114/114/114 115/115/115
f 116/116/116 114/114/114 117/117/117
f 117/117/117 115/115/115 118/118/118
f 105/105/105 116/116/116 119/119/119
f 119/119/119 116/116/116 117/117/117
f 120/120/120 117/117/117 118/118/118
f 119/119/119 117/117/117 120/120/120
f 120/120/120 118/118/118 121/121/121
f 122/122/122 105/105/105 119/119/119
f 99/99/99 105/105/105 122/122/122
f 104/104/104 99/99/99 122/122/122
f 123/123/123 120/120/120 121/121/121
f 123/123/123 121/121/121 124/124/124
f 125/125/125 119/119/119 120/120/120
f 122/122/122 119/119/119 125/125/125
f 125/125/125 120/120/120 123/123/123
f 104/104/104 122/122/122 126/126/126
f 126/126/126 122/122/122 125/125/125
f 127/127/127 123/123/123 124/124/124
f 127/127/127 124/124/124 128/128/128
f 129/129/129 125/125/125 123/123/123
f 126/126/126 125/125/125 129/129/129
f 129/129/129 123/123/123 127/127/127
f 130/130/130 104/104/104 126/126/126
f 98/98/98 104/104/104 130/130/130
f 103/103/103 98/98/98 130/130/130
f 131/131/131 127/127/127 128/128/128
f 131/131/131 128/128/128 132/132/132
f 133/133/133 129/129/129 127/127/127
f 133/133/133 127/127/127 131/131/131
f 134/134/134 126/126/126 129/129/129
f 130/130/130 126/126/126 134/134/134
f 134/134/134 129/129/129 133/133/133
f 103/103/103 130/130/130 135/135/135
f 135/135/135 130/130/130 134/134/134
f 136/136/136 131/131/131 132/132/132
f 136/136/136 132/132/132 137/137/137
f 138/138/138 133/133/133 131/131/131
f 138/138/138 131/131/131 136/136/136
f 139/139/139 134/134/134 133/133/133
f 135/135/135 134/134/134 139/139/139
f 139/139/139 133/133/133 138/138/138
f 140/140/140 103/103/103 135/135/135
f 97/97/97 103/103/103 140/140/140
f 141/141/141 136/136/136 137/137/137
f 141/141/141 137/137/137 142/142/142
f 143/143/143 138/138/138 136/136/136
f 143/143/143 136/136/136 141/141/141
f 144/144/144 139/139/139 138/138/138
f 144/144/144 138/138/138 143/143/143
f 145/145/145 135/135/135 139/139/139
f 140/140/140 135/135/135 145/145/145
f 145/145/145 139/139/139 144/144/144
f 146/146/146 97/97/97 140/140/140
f 82/82/82 97/97/97 146/146/146
f 147/147/147 141/141/141 142/142/142
f 147/147/147 142/142/142 148/148/148
f 149/149/149 147/147/147 148/148/148
f 150/150/150 143/143/143 141/141/141
f 150/150/150 141/141/141 147/147/147
f 151/151/151 147/147/147 149/149/149
f 151/151/151 150/150/150 147/147/147
f 152/152/152 151/151/151 149/149/149
f 153/153/153 144/144/144 143/143/143
f 153/153/153 143/143/143 150/150/150
f 154/154/154 145/145/145 144/144/144
f 154/154/154 144/144/144 153/153/153
f 155/155/155 151/151/151 152/152/152
f 156/156/156 155/155/155 152/152/152
f 157/157/157 150/150/150 151/151/151
f 157/157/157 153/153/153 150/150/150
f 155/155/155 157/157/157 151/151/151
f 158/158/158 155/155/155 156/156/156
f 38/38/38 158/158/158 156/156/156
f 37/37/37 158/158/158 38/38/38
f 159/159/159 153/153/153 157/157/157
f 159/159/159 154/154/154 153/153/153
f 160/160/160 157/157/157 155/155/155
f 158/158/158 160/160/160 155/155/155
f 160/160/160 159/159/159 157/157/157
f 37/37/37 161/161/161 158/158/158
f 161/161/161 160/160/160 158/158/158
f 39/39/39 161/161/161 37/37/37
f 162/162/162 159/159/159 160/160/160
f 161/161/161 162/162/162 160/160/160
f 39/39/39 163/163/163 161/161/161
f 163/163/163 162/162/162 161/161/161
f 40/40/40 163/163/163 39/39/39
f 40/40/40 51/51/51 163/163/163
f 164/164/164 154/154/154 159/159/159
f 162/162/162 164/164/164 159/159/159
f 163/163/163 165/165/165 162/162/162
f 51/51/51 165/165/165 163/163/163
f 165/165/165 164/164/164 162/162/162
f 164/164/164 166/166/166 154/154/154
f 166/166/166 145/145/145 154/154/154
f 166/166/166 140/140/140 145/145/145
f 146/146/146 140/140/140 166/166/166
f 167/167/167 166/166/166 164/164/164
f 165/165/165 167/167/167 164/164/164
f 167/167/167 146/146/146 166/166/166
f 51/51/51 168/168/168 165/165/165
f 168/168/168 167/167/167 165/165/165
f 50/50/50 168/168/168 51/51/51
f 50/50/50 56/56/56 168/168/168
f 169/169/169 146/146/146 167/167/167
f 168/168/168 169/169/169 167/167/167
f 56/56/56 169/169/169 168/168/168
f 169/169/169 82/82/82 146/146/146
f 56/56/56 68/68/68 169/169/169
f 68/68/68 82/82/82 169/169/169
