g eff_110701_dml_ring_01
v -7.276046E-14 0.049999584 -2.7085925E-08
v -7.276046E-14 0.032095686 -1.7386965E-08
v -7.276046E-14 0.0318211 0.004189374
v -7.276046E-14 0.049571827 0.006526292
v -3.638067E-14 0.031002032 0.008307082
v -7.276046E-14 0.048295878 0.012940941
v -7.276046E-14 0.029652512 0.012282655
v -7.276046E-14 0.04619356 0.019134168
v -7.276046E-14 0.027795617 0.016048066
v -7.276046E-14 0.043300852 0.025000004
v -7.276046E-14 0.025463121 0.01953889
v -7.276046E-14 0.03966724 0.030438079
v -7.276046E-14 0.022694936 0.022695398
v -7.276046E-14 0.03535491 0.035355352
v -7.276046E-14 0.019538427 0.025463585
v -7.276046E-14 0.030437633 0.03966769
v -7.276046E-14 0.0160476 0.027796082
v -7.276046E-14 0.024999553 0.0433013
v -7.276046E-14 0.012282189 0.029652981
v -7.276046E-14 0.01913372 0.046194013
v -7.276046E-14 0.008306616 0.031002501
v -7.276046E-14 0.012940493 0.04829632
v -7.276046E-14 0.0041889083 0.031821564
v -7.276046E-14 0.0065258434 0.049572278
v -7.276046E-14 -4.8139384E-07 0.03209615
v -7.276046E-14 -4.7221E-07 0.05000003
v -3.638067E-14 -0.004189872 0.03182157
v -7.276046E-14 -0.0065267896 0.04957228
v -7.276046E-14 -0.008307582 0.031002501
v -7.276046E-14 -0.0129414415 0.048296325
v -7.276046E-14 -0.012283153 0.029652981
v -7.276046E-14 -0.019134667 0.04619401
v -7.276046E-14 -0.016048566 0.027796082
v -7.276046E-14 -0.025000503 0.0433013
v -7.276046E-14 -0.01953939 0.025463585
v -7.276046E-14 -0.030438578 0.039667692
v -7.276046E-14 -0.022695899 0.022695407
v -7.276046E-14 -0.03535585 0.035355363
v -7.276046E-14 -0.025464078 0.019538894
v -7.276046E-14 -0.03966818 0.030438084
v -7.276046E-14 -0.027796574 0.016048072
v -7.276046E-14 -0.043301787 0.02500001
v -7.276046E-14 -0.029653473 0.012282661
v -7.276046E-14 -0.0461945 0.019134177
v -7.276046E-14 -0.031002993 0.008307087
v -7.276046E-14 -0.048296813 0.012940949
v -7.276046E-14 -0.03182205 0.0041893804
v -7.276046E-14 -0.049572762 0.006526302
v -7.276046E-14 -0.03209664 -9.389186E-09
v -7.276046E-14 -0.05000052 -1.3972904E-08
v -3.638067E-14 -0.03182205 -0.0041893977
v -7.276046E-14 -0.04957276 -0.006526328
v -7.276046E-14 -0.031002989 -0.008307105
v -7.276046E-14 -0.0482968 -0.012940975
v -7.276046E-14 -0.029653464 -0.012282676
v -7.276046E-14 -0.046194486 -0.019134201
v -7.276046E-14 -0.027796568 -0.016048087
v -7.276046E-14 -0.043301776 -0.025000032
v -3.638067E-14 -0.025464075 -0.019538905
v -7.276046E-14 -0.039668173 -0.030438103
v -7.276046E-14 -0.022695892 -0.022695417
v -7.276046E-14 -0.03535584 -0.035355378
v -7.276046E-14 -0.019539386 -0.0254636
v -7.276046E-14 -0.030438572 -0.03966771
v -7.276046E-14 -0.016048562 -0.027796092
v -7.276046E-14 -0.025000496 -0.043301314
v -7.276046E-14 -0.01228315 -0.029652987
v -7.276046E-14 -0.019134661 -0.046194017
v -7.276046E-14 -0.00830758 -0.031002507
v -7.276046E-14 -0.012941439 -0.048296332
v -7.276046E-14 -0.0041898745 -0.031821564
v -7.276046E-14 -0.006526794 -0.04957228
v -7.276046E-14 -4.875192E-07 -0.03209615
v -7.276046E-14 -4.817467E-07 -0.050000038
v -7.276046E-14 0.0041889003 -0.031821564
v -7.276046E-14 0.0065258313 -0.049572278
v -7.276046E-14 0.008306605 -0.031002501
v -7.276046E-14 0.012940475 -0.04829632
v -7.276046E-14 0.012282172 -0.029652975
v -7.276046E-14 0.019133694 -0.04619401
v -3.638067E-14 0.016047582 -0.027796082
v -7.276046E-14 0.024999525 -0.0433013
v -7.276046E-14 0.019538403 -0.02546359
v -7.276046E-14 0.030437594 -0.039667696
v -7.276046E-14 0.022694906 -0.022695407
v -7.276046E-14 0.035354864 -0.035355367
v -3.638067E-14 0.025463091 -0.0195389
v -7.276046E-14 0.039667197 -0.030438093
v -7.276046E-14 0.027795583 -0.016048081
v -7.276046E-14 0.0433008 -0.025000023
v -7.276046E-14 0.029652476 -0.012282671
v -7.276046E-14 0.046193503 -0.019134194
v -7.276046E-14 0.031001996 -0.008307103
v -7.276046E-14 0.048295815 -0.012940973
v -7.276046E-14 0.031821057 -0.004189398
v -7.276046E-14 0.049571767 -0.0065263286
v -7.276046E-14 0.032095686 -1.7386965E-08
v -7.276046E-14 0.049999584 -2.7085925E-08
vt 1 1
vt 1 0
vt 0.9791667 0
vt 0.9791666 1
vt 0.95833325 0
vt 0.95833325 1
vt 0.9374999 0
vt 0.9374999 1
vt 0.9166664 0
vt 0.9166664 1
vt 0.895833 0
vt 0.895833 1
vt 0.87499964 0
vt 0.87499964 1
vt 0.85416627 0
vt 0.85416627 1
vt 0.8333329 0
vt 0.8333329 1
vt 0.8124995 0
vt 0.8124995 1
vt 0.7916661 0
vt 0.79166603 1
vt 0.77083266 0
vt 0.77083266 1
vt 0.7499993 0
vt 0.74999934 1
vt 0.7291659 0
vt 0.729166 1
vt 0.70833254 0
vt 0.70833254 1
vt 0.68749917 0
vt 0.68749917 1
vt 0.6666658 0
vt 0.6666658 1
vt 0.6458323 0
vt 0.64583236 1
vt 0.624999 0
vt 0.624999 1
vt 0.60416555 0
vt 0.60416555 1
vt 0.5833322 0
vt 0.5833322 1
vt 0.5624988 0
vt 0.5624988 1
vt 0.5416653 0
vt 0.5416653 1
vt 0.52083194 0
vt 0.52083194 1
vt 0.4999986 0
vt 0.4999986 1
vt 0.47916535 0
vt 0.47916535 1
vt 0.45833203 0
vt 0.45833206 1
vt 0.4374988 0
vt 0.4374988 1
vt 0.4166655 0
vt 0.41666555 1
vt 0.3958322 0
vt 0.39583224 1
vt 0.37499896 0
vt 0.374999 1
vt 0.3541657 0
vt 0.35416573 1
vt 0.3333324 0
vt 0.33333242 1
vt 0.31249914 0
vt 0.31249917 1
vt 0.29166588 0
vt 0.2916659 1
vt 0.27083257 0
vt 0.2708326 1
vt 0.24999928 0
vt 0.24999928 1
vt 0.22916603 0
vt 0.22916603 1
vt 0.20833278 0
vt 0.20833278 1
vt 0.18749946 0
vt 0.18749946 1
vt 0.16666615 0
vt 0.16666615 1
vt 0.1458329 0
vt 0.1458329 1
vt 0.12499964 0
vt 0.12499964 1
vt 0.10416639 0
vt 0.10416639 1
vt 0.083333135 0
vt 0.083333135 1
vt 0.06249982 0
vt 0.06249982 1
vt 0.041666508 0
vt 0.041666508 1
vt 0.020833254 0
vt 0.020833254 1
vt 0 0
vt 0 1
vn 1 0 0
vn 1 0 0
vn 1 0 0
vn 1 0 0
vn 1 0 0
vn 1 0 0
vn 1 0 0
vn 1 0 0
vn 1 0 0
vn 1 0 0
vn 1 0 0
vn 1 0 0
vn 1 0 0
vn 1 0 0
vn 1 0 0
vn 1 0 0
vn 1 0 0
vn 1 0 0
vn 1 0 0
vn 1 0 0
vn 1 0 0
vn 1 0 0
vn 1 0 0
vn 1 0 0
vn 1 0 0
vn 1 0 0
vn 1 0 0
vn 1 0 0
vn 1 0 0
vn 1 0 0
vn 1 0 0
vn 1 0 0
vn 1 0 0
vn 1 0 0
vn 1 0 0
vn 1 0 0
vn 1 0 0
vn 1 0 0
vn 1 0 0
vn 1 0 0
vn 1 0 0
vn 1 0 0
vn 1 0 0
vn 1 0 0
vn 1 0 0
vn 1 0 0
vn 1 0 0
vn 1 0 0
vn 1 0 0
vn 1 0 0
vn 1 0 0
vn 1 0 0
vn 1 0 0
vn 1 0 0
vn 1 0 0
vn 1 0 0
vn 1 0 0
vn 1 0 0
vn 1 0 0
vn 1 0 0
vn 1 0 0
vn 1 0 0
vn 1 0 0
vn 1 0 0
vn 1 0 0
vn 1 0 0
vn 1 0 0
vn 1 0 0
vn 1 0 0
vn 1 0 0
vn 1 0 0
vn 1 0 0
vn 1 0 0
vn 1 0 0
vn 1 0 0
vn 1 0 0
vn 1 0 0
vn 1 0 0
vn 1 0 0
vn 1 0 0
vn 1 0 0
vn 1 0 0
vn 1 0 0
vn 1 0 0
vn 1 0 0
vn 1 0 0
vn 1 0 0
vn 1 0 0
vn 1 0 0
vn 1 0 0
vn 1 0 0
vn 1 0 0
vn 1 0 0
vn 1 0 0
vn 1 0 0
vn 1 0 0
vn 1 0 0
vn 1 0 0
g eff_110701_dml_ring_01_0
f 3/3/3 2/2/2 1/1/1
f 4/4/4 3/3/3 1/1/1
f 5/5/5 3/3/3 4/4/4
f 6/6/6 5/5/5 4/4/4
f 7/7/7 5/5/5 6/6/6
f 8/8/8 7/7/7 6/6/6
f 9/9/9 7/7/7 8/8/8
f 10/10/10 9/9/9 8/8/8
f 11/11/11 9/9/9 10/10/10
f 12/12/12 11/11/11 10/10/10
f 13/13/13 11/11/11 12/12/12
f 14/14/14 13/13/13 12/12/12
f 15/15/15 13/13/13 14/14/14
f 16/16/16 15/15/15 14/14/14
f 17/17/17 15/15/15 16/16/16
f 18/18/18 17/17/17 16/16/16
f 19/19/19 17/17/17 18/18/18
f 20/20/20 19/19/19 18/18/18
f 21/21/21 19/19/19 20/20/20
f 22/22/22 21/21/21 20/20/20
f 23/23/23 21/21/21 22/22/22
f 24/24/24 23/23/23 22/22/22
f 25/25/25 23/23/23 24/24/24
f 26/26/26 25/25/25 24/24/24
f 27/27/27 25/25/25 26/26/26
f 28/28/28 27/27/27 26/26/26
f 29/29/29 27/27/27 28/28/28
f 30/30/30 29/29/29 28/28/28
f 31/31/31 29/29/29 30/30/30
f 32/32/32 31/31/31 30/30/30
f 33/33/33 31/31/31 32/32/32
f 34/34/34 33/33/33 32/32/32
f 35/35/35 33/33/33 34/34/34
f 36/36/36 35/35/35 34/34/34
f 37/37/37 35/35/35 36/36/36
f 38/38/38 37/37/37 36/36/36
f 39/39/39 37/37/37 38/38/38
f 40/40/40 39/39/39 38/38/38
f 41/41/41 39/39/39 40/40/40
f 42/42/42 41/41/41 40/40/40
f 43/43/43 41/41/41 42/42/42
f 44/44/44 43/43/43 42/42/42
f 45/45/45 43/43/43 44/44/44
f 46/46/46 45/45/45 44/44/44
f 47/47/47 45/45/45 46/46/46
f 48/48/48 47/47/47 46/46/46
f 49/49/49 47/47/47 48/48/48
f 50/50/50 49/49/49 48/48/48
f 51/51/51 49/49/49 50/50/50
f 52/52/52 51/51/51 50/50/50
f 53/53/53 51/51/51 52/52/52
f 54/54/54 53/53/53 52/52/52
f 55/55/55 53/53/53 54/54/54
f 56/56/56 55/55/55 54/54/54
f 57/57/57 55/55/55 56/56/56
f 58/58/58 57/57/57 56/56/56
f 59/59/59 57/57/57 58/58/58
f 60/60/60 59/59/59 58/58/58
f 61/61/61 59/59/59 60/60/60
f 62/62/62 61/61/61 60/60/60
f 63/63/63 61/61/61 62/62/62
f 64/64/64 63/63/63 62/62/62
f 65/65/65 63/63/63 64/64/64
f 66/66/66 65/65/65 64/64/64
f 67/67/67 65/65/65 66/66/66
f 68/68/68 67/67/67 66/66/66
f 69/69/69 67/67/67 68/68/68
f 70/70/70 69/69/69 68/68/68
f 71/71/71 69/69/69 70/70/70
f 72/72/72 71/71/71 70/70/70
f 73/73/73 71/71/71 72/72/72
f 74/74/74 73/73/73 72/72/72
f 75/75/75 73/73/73 74/74/74
f 76/76/76 75/75/75 74/74/74
f 77/77/77 75/75/75 76/76/76
f 78/78/78 77/77/77 76/76/76
f 79/79/79 77/77/77 78/78/78
f 80/80/80 79/79/79 78/78/78
f 81/81/81 79/79/79 80/80/80
f 82/82/82 81/81/81 80/80/80
f 83/83/83 81/81/81 82/82/82
f 84/84/84 83/83/83 82/82/82
f 85/85/85 83/83/83 84/84/84
f 86/86/86 85/85/85 84/84/84
f 87/87/87 85/85/85 86/86/86
f 88/88/88 87/87/87 86/86/86
f 89/89/89 87/87/87 88/88/88
f 90/90/90 89/89/89 88/88/88
f 91/91/91 89/89/89 90/90/90
f 92/92/92 91/91/91 90/90/90
f 93/93/93 91/91/91 92/92/92
f 94/94/94 93/93/93 92/92/92
f 95/95/95 93/93/93 94/94/94
f 96/96/96 95/95/95 94/94/94
f 97/97/97 95/95/95 96/96/96
f 98/98/98 97/97/97 96/96/96
