g eff_cmn_wind_04
v -0.087429605 -0.4259655 -0.08669614
v -0.11132607 -0.32270053 -0.04662283
v -0.11895047 -0.41762888 -0.02553759
v -0.082143344 -0.3297159 -0.10555159
v -0.046648018 -0.43095034 -0.12436307
v -0.10101775 -0.23091999 -0.055433985
v -0.04438356 -0.33391422 -0.1415966
v -0.0005629305 -0.43220884 -0.13568108
v -0.074966185 -0.23560281 -0.1112312
v -0.08977034 -0.15119387 -0.050182167
v -0.001570879 -0.33483014 -0.15258163
v 0.04636643 -0.4296519 -0.11975614
v -0.04098427 -0.23828948 -0.14538145
v -0.06689169 -0.15366974 -0.10233242
v -0.07814375 -0.08713486 -0.036938224
v 0.04215227 -0.3326055 -0.1378375
v 0.08956705 -0.42345172 -0.07757627
v -0.0021942374 -0.23877558 -0.15607928
v -0.036858063 -0.15506321 -0.13415568
v -0.058237683 -0.08819836 -0.08481828
v -0.066318735 -0.037503835 -0.017919147
v 0.08249529 -0.32725558 -0.09778073
v 0.12482011 -0.4140944 -0.012375868
v 0.11533649 -0.31928566 -0.03457689
v 0.03766156 -0.23704813 -0.14269169
v 0.074659914 -0.23324463 -0.105346076
v 0.10492363 -0.22786063 -0.045614813
v -0.00237056 -0.15515727 -0.14429669
v -0.03204004 -0.088684134 -0.113994695
v -0.049217403 -0.037811067 -0.060106117
v -0.05412477 0.00083655625 0.004229405
v -0.039872825 0.00075319916 -0.030948976
v -0.026783912 -0.037907477 -0.08607955
v -0.021267226 0.0007422617 -0.05289728
v 0.0664655 -0.15168607 -0.09779943
v 0.09376132 -0.1487103 -0.04194184
v 0.033253275 -0.15402253 -0.13227202
v -0.0019042832 -0.08856361 -0.12331379
v -0.0010232748 -0.037746247 -0.09432907
v 1.7797132E-05 0.0008705011 -0.059797544
v 0.029272662 -0.08786025 -0.11229373
v 0.058392692 -0.08670863 -0.080666006
v 0.08231342 -0.08541649 -0.0294139
v 0.02559699 -0.03734931 -0.08430083
v 0.021943374 0.0011214367 -0.0510383
v 0.050407372 -0.03679752 -0.055973027
v 0.070735164 -0.03643402 -0.011026978
v 0.042302407 0.0013969294 -0.026996447
v 0.058931697 0.0015357188 0.010403176
vt 0.82871056 0.0069341958
vt 0.9930656 0.17128947
vt 0.9930656 0.0069341958
vt 0.82871056 0.17128947
vt 0.6643553 0.0069341958
vt 0.9930656 0.33564472
vt 0.6643553 0.17128947
vt 0.5 0.0069341958
vt 0.82871056 0.33564472
vt 0.9930656 0.5
vt 0.5 0.17128947
vt 0.33564472 0.0069341958
vt 0.6643553 0.33564472
vt 0.82871056 0.5
vt 0.9930656 0.6643553
vt 0.33564472 0.17128947
vt 0.17128956 0.0069341958
vt 0.5 0.33564472
vt 0.6643553 0.5
vt 0.82871056 0.6643553
vt 0.9930656 0.82871056
vt 0.17128956 0.17128947
vt 0.006934285 0.0069341958
vt 0.006934285 0.17128947
vt 0.33564472 0.33564472
vt 0.17128956 0.33564472
vt 0.006934285 0.33564472
vt 0.5 0.5
vt 0.6643553 0.6643553
vt 0.82871056 0.82871056
vt 0.9930656 0.99306583
vt 0.82871056 0.99306583
vt 0.6643553 0.82871056
vt 0.6643553 0.99306583
vt 0.17128956 0.5
vt 0.006934285 0.5
vt 0.33564472 0.5
vt 0.5 0.6643553
vt 0.5 0.82871056
vt 0.5 0.99306583
vt 0.33564472 0.6643553
vt 0.17128956 0.6643553
vt 0.006934285 0.6643553
vt 0.33564472 0.82871056
vt 0.33564472 0.99306583
vt 0.17128956 0.82871056
vt 0.006934285 0.82871056
vt 0.17128956 0.99306583
vt 0.006934285 0.99306583
vn -0.8188832 -0.06536872 -0.57022566
vn -0.8963482 0.0046293754 -0.44332656
vn -0.8936659 -0.03314157 -0.44750726
vn -0.8154622 -0.0224003 -0.5783767
vn -0.5052059 -0.13807681 -0.85188127
vn -0.8988142 0.09242156 -0.4284754
vn -0.50283146 -0.080695905 -0.86060953
vn 0.049299967 -0.16953267 -0.9842906
vn -0.8209616 0.0789647 -0.5654967
vn -0.8957527 0.18436274 -0.40452117
vn 0.043602493 -0.10617635 -0.9933909
vn 0.5538658 -0.12766029 -0.82276094
vn -0.5148913 0.053341385 -0.8555943
vn -0.82245463 0.1867505 -0.5373013
vn -0.8817458 0.2836505 -0.3769173
vn 0.54465896 -0.07590421 -0.83521557
vn 0.8187235 -0.057215005 -0.57133037
vn 0.034278393 0.04134673 -0.9985567
vn -0.5243043 0.20000781 -0.82770884
vn -0.8110609 0.3005497 -0.5018468
vn -0.8477973 0.39866358 -0.34972444
vn 0.8129388 -0.021403547 -0.5819557
vn 0.88462996 -0.026677873 -0.46552983
vn 0.88622737 0.003720687 -0.46323577
vn 0.54284924 0.050002318 -0.8383403
vn 0.81278217 0.07229171 -0.5780649
vn 0.88612425 0.08404565 -0.4557631
vn 0.025187774 0.20697425 -0.9780221
vn -0.5192348 0.35347232 -0.77810836
vn -0.77846396 0.42856324 -0.45861465
vn -0.82435656 0.45528588 -0.33637935
vn -0.7683595 0.49371615 -0.40726894
vn -0.49139154 0.51958615 -0.698974
vn -0.48887372 0.60845083 -0.6251322
vn 0.808563 0.18145213 -0.5597331
vn 0.87973756 0.18043692 -0.43989116
vn 0.53905755 0.19313706 -0.81982625
vn 0.021135285 0.37991384 -0.92478037
vn 0.021478118 0.5635361 -0.8258122
vn 0.028423505 0.6678373 -0.74376434
vn 0.5295086 0.34432483 -0.7752813
vn 0.7958769 0.29731885 -0.5274292
vn 0.8648748 0.2840241 -0.41391072
vn 0.5052527 0.5069898 -0.69834167
vn 0.510651 0.5911615 -0.62431055
vn 0.766489 0.42417744 -0.482253
vn 0.8332037 0.39877638 -0.38307828
vn 0.7592892 0.48811063 -0.43038118
vn 0.8114098 0.4549395 -0.36693907
g eff_cmn_wind_04_0
f 3/3/3 2/2/2 1/1/1
f 2/2/2 4/4/4 1/1/1
f 1/1/1 4/4/4 5/5/5
f 2/2/2 6/6/6 4/4/4
f 4/4/4 7/7/7 5/5/5
f 5/5/5 7/7/7 8/8/8
f 6/6/6 9/9/9 4/4/4
f 4/4/4 9/9/9 7/7/7
f 6/6/6 10/10/10 9/9/9
f 7/7/7 11/11/11 8/8/8
f 8/8/8 11/11/11 12/12/12
f 9/9/9 13/13/13 7/7/7
f 7/7/7 13/13/13 11/11/11
f 10/10/10 14/14/14 9/9/9
f 9/9/9 14/14/14 13/13/13
f 10/10/10 15/15/15 14/14/14
f 11/11/11 16/16/16 12/12/12
f 12/12/12 16/16/16 17/17/17
f 13/13/13 18/18/18 11/11/11
f 11/11/11 18/18/18 16/16/16
f 14/14/14 19/19/19 13/13/13
f 13/13/13 19/19/19 18/18/18
f 15/15/15 20/20/20 14/14/14
f 14/14/14 20/20/20 19/19/19
f 15/15/15 21/21/21 20/20/20
f 16/16/16 22/22/22 17/17/17
f 17/17/17 22/22/22 23/23/23
f 22/22/22 24/24/24 23/23/23
f 18/18/18 25/25/25 16/16/16
f 16/16/16 25/25/25 22/22/22
f 22/22/22 26/26/26 24/24/24
f 25/25/25 26/26/26 22/22/22
f 26/26/26 27/27/27 24/24/24
f 19/19/19 28/28/28 18/18/18
f 18/18/18 28/28/28 25/25/25
f 20/20/20 29/29/29 19/19/19
f 19/19/19 29/29/29 28/28/28
f 21/21/21 30/30/30 20/20/20
f 20/20/20 30/30/30 29/29/29
f 21/21/21 31/31/31 30/30/30
f 31/31/31 32/32/32 30/30/30
f 30/30/30 32/32/32 33/33/33
f 30/30/30 33/33/33 29/29/29
f 32/32/32 34/34/34 33/33/33
f 26/26/26 35/35/35 27/27/27
f 35/35/35 36/36/36 27/27/27
f 25/25/25 37/37/37 26/26/26
f 28/28/28 37/37/37 25/25/25
f 37/37/37 35/35/35 26/26/26
f 29/29/29 38/38/38 28/28/28
f 29/29/29 33/33/33 38/38/38
f 28/28/28 38/38/38 37/37/37
f 33/33/33 34/34/34 39/39/39
f 33/33/33 39/39/39 38/38/38
f 34/34/34 40/40/40 39/39/39
f 38/38/38 41/41/41 37/37/37
f 37/37/37 41/41/41 35/35/35
f 38/38/38 39/39/39 41/41/41
f 35/35/35 42/42/42 36/36/36
f 41/41/41 42/42/42 35/35/35
f 42/42/42 43/43/43 36/36/36
f 39/39/39 40/40/40 44/44/44
f 39/39/39 44/44/44 41/41/41
f 41/41/41 44/44/44 42/42/42
f 40/40/40 45/45/45 44/44/44
f 42/42/42 46/46/46 43/43/43
f 44/44/44 46/46/46 42/42/42
f 44/44/44 45/45/45 46/46/46
f 46/46/46 47/47/47 43/43/43
f 45/45/45 48/48/48 46/46/46
f 46/46/46 48/48/48 47/47/47
f 48/48/48 49/49/49 47/47/47
