g eff_101401_dml_slash_01
v 1.0329862 4.7683716E-07 2.7627351
v 1.386858 4.7683716E-07 3.369189
v 1.386858 0.9262827 3.369189
v 1.0329862 0.9262827 2.7627351
v 1.386858 1.8525649 3.369189
v 0.15076801 0.92628276 0.50537837
v 0.15076801 4.7683716E-07 0.50537837
v 1.0329862 1.852565 2.7627351
v 1.386858 3.8893352 3.344811
v -0 0.9262827 0
v -0 4.7683716E-07 0
v -0 1.8525649 0
v 0.15076801 1.852565 0.50537837
v -0 3.7047765 -0.019319111
v 0.15076801 3.7324603 0.4853004
v -0 5.5408797 -0.25341046
v 1.0329862 3.8561149 2.7392676
v 1.386858 6.206256 3.0494182
v 0.15076801 5.640686 0.24201386
v 1.0329862 6.0864882 2.4549093
v 0.15076801 6.576736 0.018090384
v -0 6.4415507 -0.4688706
v -0 7.3243895 -0.7485646
v 1.0329862 7.1805625 2.193183
v 1.386858 7.342785 2.777536
v 1.386858 8.456811 2.424599
v 0.15076801 7.4942527 -0.27259007
v -0 8.184822 -1.0910434
v 1.0329862 8.252975 1.8534296
v 1.386858 9.542564 1.9924358
v 0.15076801 8.388483 -0.62852144
v -0 9.018391 -1.4945327
v 1.0329862 9.29817 1.4374096
v 1.386858 10.594419 1.4832852
v 0.15076801 9.254795 -1.04786
v -0 9.820775 -1.9569414
v 1.0329862 10.310734 0.9472781
v 1.386858 11.606922 0.8997863
v 0.15076801 10.088697 -1.5284321
v -0 10.587819 -2.4758737
v 1.0329862 11.285417 0.38557485
v 1.386858 12.57483 0.24496198
v 0.15076801 10.885871 -2.0677483
v -0 11.315548 -3.0486414
v 1.0329862 12.217168 -0.24478832
v 1.386858 13.493128 -0.4777957
v 0.15076801 11.642185 -2.6630147
v -0 12.00019 -3.6722758
v 1.0329862 13.101164 -0.9405478
v 1.386858 14.357057 -1.2647403
v 0.15076801 12.35372 -3.3111455
v -0 12.638199 -4.343546
v 1.0329862 13.932821 -1.6980975
v 1.386858 15.16214 -2.1117952
v 0.15076801 13.016789 -4.0087833
v -0 13.226269 -5.058975
v 0.15076801 13.627959 -4.7523146
v 1.0329862 14.70783 -2.5135102
v 1.386858 15.904207 -3.0145724
v 1.0329862 15.422178 -3.3825648
v -0.15076801 4.7683716E-07 0.50537837
v -0 4.7683716E-07 0
v -0 0.9262827 0
v -0.15076801 0.92628276 0.50537837
v -1.0329862 4.7683716E-07 2.762735
v -0.15076801 1.852565 0.50537837
v -0 1.8525649 0
v -0 3.7047765 -0.019319111
v -1.0329862 0.92628264 2.762735
v -1.386858 4.7683716E-07 3.369189
v -1.386858 0.9262827 3.369189
v -1.0329862 1.8525649 2.762735
v -1.386858 1.8525649 3.369189
v -0.15076801 3.7324603 0.4853004
v -0 5.5408797 -0.25341046
v -1.0329862 3.8561146 2.7392673
v -1.386858 3.8893352 3.344811
v -0.15076801 5.640686 0.24201386
v -1.0329862 6.0864882 2.454909
v -1.386858 6.206256 3.0494182
v -0.15076801 6.576736 0.018090384
v -0 6.4415507 -0.4688706
v -0 7.3243895 -0.7485646
v -1.0329862 7.1805625 2.1931827
v -1.386858 7.342785 2.777536
v -0.15076801 7.4942527 -0.27259007
v -0 8.184822 -1.0910434
v -1.0329862 8.252975 1.8534293
v -1.386858 8.456811 2.424599
v -0.15076801 8.388483 -0.62852144
v -0 9.018391 -1.4945327
v -1.0329862 9.29817 1.4374094
v -1.386858 9.542564 1.9924358
v -0.15076801 9.254795 -1.04786
v -0 9.820775 -1.9569414
v -1.0329862 10.310734 0.9472779
v -1.386858 10.594419 1.4832852
v -0.15076801 10.088697 -1.5284321
v -0 10.587819 -2.4758737
v -1.0329862 11.285416 0.38557526
v -1.386858 11.606922 0.8997863
v -0.15076801 10.885871 -2.0677483
v -0 11.315548 -3.0486414
v -1.0329862 12.217168 -0.24478851
v -1.386858 12.57483 0.24496198
v -0.15076801 11.642185 -2.6630147
v -0 12.00019 -3.6722758
v -1.0329862 13.101164 -0.940548
v -1.386858 13.493128 -0.4777957
v -0.15076801 12.35372 -3.3111455
v -0 12.638199 -4.343546
v -1.0329862 13.932819 -1.698096
v -1.386858 14.357057 -1.2647403
v -0.15076801 13.016789 -4.0087833
v -0 13.226269 -5.058975
v -0.15076801 13.627959 -4.7523146
v -1.0329862 15.422178 -3.382565
v -1.0329862 14.70783 -2.5135105
v -1.386858 15.16214 -2.1117952
v -1.386858 15.904207 -3.0145724
vt 0.089999996 0
vt 0 0
vt 0 0.0625
vt 0.089999996 0.0625
vt 0 0.125
vt 0.425 0.0625
vt 0.425 0
vt 0.089999996 0.125
vt 0 0.25
vt 0.5 0.0625
vt 0.5 0
vt 0.5 0.125
vt 0.425 0.125
vt 0.5 0.25
vt 0.425 0.25
vt 0.5 0.375
vt 0.089999996 0.25
vt 0 0.375
vt 0.425 0.375
vt 0.089999996 0.375
vt 0.425 0.4375
vt 0.5 0.4375
vt 0.5 0.5
vt 0.089999996 0.4375
vt 0 0.4375
vt 0 0.5
vt 0.425 0.5
vt 0.5 0.5625
vt 0.089999996 0.5
vt 0 0.5625
vt 0.425 0.5625
vt 0.5 0.625
vt 0.089999996 0.5625
vt 0 0.625
vt 0.425 0.625
vt 0.5 0.6875
vt 0.089999996 0.625
vt 0 0.6875
vt 0.425 0.6875
vt 0.5 0.75
vt 0.089999996 0.6875
vt 0 0.75
vt 0.425 0.75
vt 0.5 0.8125
vt 0.089999996 0.75
vt 0 0.8125
vt 0.425 0.8125
vt 0.5 0.875
vt 0.089999996 0.8125
vt 0 0.875
vt 0.425 0.875
vt 0.5 0.9375
vt 0.089999996 0.875
vt 0 0.9375
vt 0.425 0.9375
vt 0.5 1
vt 0.425 1
vt 0.089999996 0.9375
vt 0 1
vt 0.089999996 1
vt 0.575 0
vt 0.5 0
vt 0.5 0.0625
vt 0.575 0.0625
vt 0.90999997 0
vt 0.575 0.125
vt 0.5 0.125
vt 0.5 0.25
vt 0.90999997 0.0625
vt 1 0
vt 1 0.0625
vt 0.90999997 0.125
vt 1 0.125
vt 0.575 0.25
vt 0.5 0.375
vt 0.90999997 0.25
vt 1 0.25
vt 0.575 0.375
vt 0.90999997 0.375
vt 1 0.375
vt 0.575 0.4375
vt 0.5 0.4375
vt 0.5 0.5
vt 0.90999997 0.4375
vt 1 0.4375
vt 0.575 0.5
vt 0.5 0.5625
vt 0.90999997 0.5
vt 1 0.5
vt 0.575 0.5625
vt 0.5 0.625
vt 0.90999997 0.5625
vt 1 0.5625
vt 0.575 0.625
vt 0.5 0.6875
vt 0.90999997 0.625
vt 1 0.625
vt 0.575 0.6875
vt 0.5 0.75
vt 0.90999997 0.6875
vt 1 0.6875
vt 0.575 0.75
vt 0.5 0.8125
vt 0.90999997 0.75
vt 1 0.75
vt 0.575 0.8125
vt 0.5 0.875
vt 0.90999997 0.8125
vt 1 0.8125
vt 0.575 0.875
vt 0.5 0.9375
vt 0.90999997 0.875
vt 1 0.875
vt 0.575 0.9375
vt 0.5 1
vt 0.575 1
vt 0.90999997 1
vt 0.90999997 0.9375
vt 1 0.9375
vt 1 1
vn 0.9181271 0 -0.39628583
vn 0.8637125 0 -0.50398487
vn 0.8637125 0 -0.50398475
vn 0.9181271 0 -0.39628586
vn 0.8636413 -0.0040843035 -0.50409025
vn 0.9366675 0 -0.3502198
vn 0.9366675 0 -0.35021973
vn 0.9176874 -0.003074774 -0.39729124
vn 0.86372244 -0.036494214 -0.5026446
vn 0.9582663 0 -0.2858767
vn 0.9582663 0 -0.28587672
vn 0.9582402 -0.0020215265 -0.2859573
vn 0.93648076 -0.002639688 -0.35070887
vn 0.95827585 -0.01984575 -0.28515542
vn 0.93610454 -0.02500402 -0.3508319
vn 0.9582141 -0.046222933 -0.28229278
vn 0.9166283 -0.028540405 -0.39872056
vn 0.86357385 -0.08197424 -0.49751416
vn 0.93589693 -0.05697402 -0.3476362
vn 0.9161954 -0.065039374 -0.39541855
vn 0.9360845 -0.094103806 -0.3389547
vn 0.95826626 -0.07647541 -0.27545846
vn 0.95826614 -0.096093155 -0.26924375
vn 0.91661173 -0.10694506 -0.3852086
vn 0.863712 -0.13482143 -0.48561794
vn 0.8637117 -0.16940625 -0.47466153
vn 0.9360843 -0.11824362 -0.33130738
vn 0.958266 -0.11521297 -0.26163402
vn 0.91661155 -0.13437897 -0.3765178
vn 0.86371136 -0.2031133 -0.46124595
vn 0.9360842 -0.14177074 -0.3219435
vn 0.9582658 -0.13373575 -0.25266853
vn 0.91661125 -0.16111653 -0.36587605
vn 0.863711 -0.23576786 -0.44544014
vn 0.93608385 -0.16456322 -0.31091148
vn 0.95826566 -0.1515656 -0.24239385
vn 0.91661096 -0.18701932 -0.35333857
vn 0.86371046 -0.26720092 -0.42732665
vn 0.9360837 -0.18650311 -0.29826832
vn 0.9582655 -0.1686102 -0.23086335
vn 0.91661066 -0.21195309 -0.33897015
vn 0.8637098 -0.29724938 -0.406999
vn 0.93608344 -0.20747665 -0.28407976
vn 0.95826524 -0.18478116 -0.21813655
vn 0.91661036 -0.23578866 -0.32284555
vn 0.8637093 -0.3257576 -0.3845625
vn 0.93608314 -0.22737518 -0.26841938
vn 0.958265 -0.19999473 -0.20427966
vn 0.91660994 -0.2584024 -0.30504808
vn 0.86370885 -0.35257795 -0.36013323
vn 0.9360827 -0.24609545 -0.25136837
vn 0.9582648 -0.21417208 -0.18936442
vn 0.9166095 -0.27967724 -0.2856702
vn 0.8637083 -0.37757128 -0.333838
vn 0.93608254 -0.26354066 -0.23301476
vn 0.9582139 -0.22098027 -0.18164198
vn 0.93600744 -0.27191058 -0.22350545
vn 0.9166092 -0.29950306 -0.26481202
vn 0.8635658 -0.3895306 -0.32018766
vn 0.91651464 -0.30900764 -0.2539987
vn -0.9366675 0 -0.3502198
vn -0.9582663 0 -0.28587672
vn -0.9582663 0 -0.2858767
vn -0.9366675 0 -0.35021985
vn -0.91812724 0 -0.39628586
vn -0.93648076 -0.0026396778 -0.35070893
vn -0.9582402 -0.0020215265 -0.2859573
vn -0.95827585 -0.01984575 -0.28515542
vn -0.9181271 0 -0.39628586
vn -0.86371267 0 -0.50398463
vn -0.86371267 0 -0.50398463
vn -0.9176874 -0.0030747643 -0.39729115
vn -0.8636415 -0.004084301 -0.50409
vn -0.93610454 -0.025004016 -0.35083196
vn -0.9582141 -0.046222933 -0.28229278
vn -0.9166283 -0.028540393 -0.3987206
vn -0.8637226 -0.03649422 -0.50264436
vn -0.93589693 -0.05697401 -0.34763622
vn -0.9161954 -0.06503938 -0.39541855
vn -0.86357397 -0.08197429 -0.49751413
vn -0.9360845 -0.0941038 -0.3389547
vn -0.95826626 -0.07647541 -0.27545846
vn -0.95826614 -0.09609313 -0.26924375
vn -0.91661173 -0.106945045 -0.3852086
vn -0.863712 -0.13482137 -0.48561776
vn -0.9360843 -0.11824364 -0.33130738
vn -0.958266 -0.11521297 -0.26163402
vn -0.91661155 -0.13437897 -0.37651774
vn -0.86371183 -0.16940618 -0.47466138
vn -0.9360841 -0.14177072 -0.32194346
vn -0.9582658 -0.13373576 -0.25266847
vn -0.91661125 -0.16111651 -0.365876
vn -0.8637114 -0.20311323 -0.46124572
vn -0.93608385 -0.16456324 -0.3109114
vn -0.95826566 -0.15156558 -0.24239382
vn -0.91661096 -0.18701932 -0.3533385
vn -0.863711 -0.2357679 -0.44544014
vn -0.9360837 -0.18650313 -0.29826835
vn -0.9582655 -0.1686102 -0.23086333
vn -0.91661066 -0.21195312 -0.33897015
vn -0.86371046 -0.26720095 -0.42732656
vn -0.9360834 -0.20747665 -0.28407985
vn -0.95826524 -0.18478115 -0.21813655
vn -0.91661036 -0.2357886 -0.32284558
vn -0.8637099 -0.2972494 -0.40699884
vn -0.93608314 -0.22737512 -0.26841933
vn -0.958265 -0.19999474 -0.20427968
vn -0.91661006 -0.25840244 -0.30504796
vn -0.8637094 -0.32575765 -0.38456202
vn -0.9360827 -0.24609542 -0.25136837
vn -0.9582648 -0.2141721 -0.18936445
vn -0.9166095 -0.27967724 -0.2856702
vn -0.8637089 -0.3525778 -0.36013302
vn -0.93608254 -0.26354063 -0.23301478
vn -0.9582139 -0.22098026 -0.18164197
vn -0.9360075 -0.27191055 -0.2235054
vn -0.91651464 -0.30900756 -0.25399858
vn -0.9166092 -0.29950297 -0.2648121
vn -0.8637083 -0.37757114 -0.3338383
vn -0.8635658 -0.38953048 -0.3201876
g eff_101401_dml_slash_01_0
f 3/3/3 2/2/2 1/1/1
f 4/4/4 3/3/3 1/1/1
f 5/5/5 3/3/3 4/4/4
f 4/4/4 1/1/1 6/6/6
f 1/1/1 7/7/7 6/6/6
f 8/8/8 5/5/5 4/4/4
f 9/9/9 5/5/5 8/8/8
f 6/6/6 7/7/7 10/10/10
f 7/7/7 11/11/11 10/10/10
f 6/6/6 10/10/10 12/12/12
f 4/4/4 6/6/6 13/13/13
f 13/13/13 6/6/6 12/12/12
f 8/8/8 4/4/4 13/13/13
f 13/13/13 12/12/12 14/14/14
f 15/15/15 13/13/13 14/14/14
f 8/8/8 13/13/13 15/15/15
f 15/15/15 14/14/14 16/16/16
f 17/17/17 9/9/9 8/8/8
f 17/17/17 8/8/8 15/15/15
f 18/18/18 9/9/9 17/17/17
f 19/19/19 15/15/15 16/16/16
f 17/17/17 15/15/15 19/19/19
f 20/20/20 18/18/18 17/17/17
f 20/20/20 17/17/17 19/19/19
f 19/19/19 16/16/16 21/21/21
f 20/20/20 19/19/19 21/21/21
f 16/16/16 22/22/22 21/21/21
f 21/21/21 22/22/22 23/23/23
f 20/20/20 24/24/24 18/18/18
f 24/24/24 20/20/20 21/21/21
f 24/24/24 25/25/25 18/18/18
f 26/26/26 25/25/25 24/24/24
f 27/27/27 21/21/21 23/23/23
f 24/24/24 21/21/21 27/27/27
f 27/27/27 23/23/23 28/28/28
f 29/29/29 26/26/26 24/24/24
f 29/29/29 24/24/24 27/27/27
f 30/30/30 26/26/26 29/29/29
f 31/31/31 27/27/27 28/28/28
f 29/29/29 27/27/27 31/31/31
f 31/31/31 28/28/28 32/32/32
f 33/33/33 30/30/30 29/29/29
f 33/33/33 29/29/29 31/31/31
f 34/34/34 30/30/30 33/33/33
f 35/35/35 31/31/31 32/32/32
f 33/33/33 31/31/31 35/35/35
f 35/35/35 32/32/32 36/36/36
f 37/37/37 34/34/34 33/33/33
f 37/37/37 33/33/33 35/35/35
f 38/38/38 34/34/34 37/37/37
f 39/39/39 35/35/35 36/36/36
f 37/37/37 35/35/35 39/39/39
f 39/39/39 36/36/36 40/40/40
f 41/41/41 38/38/38 37/37/37
f 41/41/41 37/37/37 39/39/39
f 42/42/42 38/38/38 41/41/41
f 43/43/43 39/39/39 40/40/40
f 41/41/41 39/39/39 43/43/43
f 43/43/43 40/40/40 44/44/44
f 45/45/45 42/42/42 41/41/41
f 45/45/45 41/41/41 43/43/43
f 46/46/46 42/42/42 45/45/45
f 47/47/47 43/43/43 44/44/44
f 45/45/45 43/43/43 47/47/47
f 47/47/47 44/44/44 48/48/48
f 49/49/49 46/46/46 45/45/45
f 49/49/49 45/45/45 47/47/47
f 50/50/50 46/46/46 49/49/49
f 51/51/51 47/47/47 48/48/48
f 49/49/49 47/47/47 51/51/51
f 51/51/51 48/48/48 52/52/52
f 53/53/53 50/50/50 49/49/49
f 53/53/53 49/49/49 51/51/51
f 54/54/54 50/50/50 53/53/53
f 55/55/55 51/51/51 52/52/52
f 53/53/53 51/51/51 55/55/55
f 55/55/55 52/52/52 56/56/56
f 57/57/57 55/55/55 56/56/56
f 58/58/58 54/54/54 53/53/53
f 58/58/58 53/53/53 55/55/55
f 58/58/58 55/55/55 57/57/57
f 59/59/59 54/54/54 58/58/58
f 60/60/60 58/58/58 57/57/57
f 60/60/60 59/59/59 58/58/58
f 63/63/63 62/62/62 61/61/61
f 64/64/64 63/63/63 61/61/61
f 61/61/61 65/65/65 64/64/64
f 64/64/64 66/66/66 63/63/63
f 66/66/66 67/67/67 63/63/63
f 68/68/68 67/67/67 66/66/66
f 65/65/65 69/69/69 64/64/64
f 64/64/64 69/69/69 66/66/66
f 69/69/69 65/65/65 70/70/70
f 71/71/71 69/69/69 70/70/70
f 69/69/69 71/71/71 72/72/72
f 69/69/69 72/72/72 66/66/66
f 71/71/71 73/73/73 72/72/72
f 74/74/74 68/68/68 66/66/66
f 66/66/66 72/72/72 74/74/74
f 75/75/75 68/68/68 74/74/74
f 76/76/76 72/72/72 73/73/73
f 72/72/72 76/76/76 74/74/74
f 77/77/77 76/76/76 73/73/73
f 78/78/78 75/75/75 74/74/74
f 74/74/74 76/76/76 78/78/78
f 79/79/79 76/76/76 77/77/77
f 76/76/76 79/79/79 78/78/78
f 80/80/80 79/79/79 77/77/77
f 78/78/78 81/81/81 75/75/75
f 78/78/78 79/79/79 81/81/81
f 81/81/81 82/82/82 75/75/75
f 83/83/83 82/82/82 81/81/81
f 79/79/79 80/80/80 84/84/84
f 79/79/79 84/84/84 81/81/81
f 80/80/80 85/85/85 84/84/84
f 86/86/86 83/83/83 81/81/81
f 81/81/81 84/84/84 86/86/86
f 87/87/87 83/83/83 86/86/86
f 88/88/88 84/84/84 85/85/85
f 84/84/84 88/88/88 86/86/86
f 89/89/89 88/88/88 85/85/85
f 90/90/90 87/87/87 86/86/86
f 86/86/86 88/88/88 90/90/90
f 91/91/91 87/87/87 90/90/90
f 92/92/92 88/88/88 89/89/89
f 88/88/88 92/92/92 90/90/90
f 93/93/93 92/92/92 89/89/89
f 94/94/94 91/91/91 90/90/90
f 90/90/90 92/92/92 94/94/94
f 95/95/95 91/91/91 94/94/94
f 96/96/96 92/92/92 93/93/93
f 92/92/92 96/96/96 94/94/94
f 97/97/97 96/96/96 93/93/93
f 98/98/98 95/95/95 94/94/94
f 94/94/94 96/96/96 98/98/98
f 99/99/99 95/95/95 98/98/98
f 100/100/100 96/96/96 97/97/97
f 96/96/96 100/100/100 98/98/98
f 101/101/101 100/100/100 97/97/97
f 102/102/102 99/99/99 98/98/98
f 98/98/98 100/100/100 102/102/102
f 103/103/103 99/99/99 102/102/102
f 104/104/104 100/100/100 101/101/101
f 100/100/100 104/104/104 102/102/102
f 105/105/105 104/104/104 101/101/101
f 106/106/106 103/103/103 102/102/102
f 102/102/102 104/104/104 106/106/106
f 107/107/107 103/103/103 106/106/106
f 108/108/108 104/104/104 105/105/105
f 104/104/104 108/108/108 106/106/106
f 109/109/109 108/108/108 105/105/105
f 110/110/110 107/107/107 106/106/106
f 106/106/106 108/108/108 110/110/110
f 111/111/111 107/107/107 110/110/110
f 112/112/112 108/108/108 109/109/109
f 108/108/108 112/112/112 110/110/110
f 113/113/113 112/112/112 109/109/109
f 114/114/114 111/111/111 110/110/110
f 110/110/110 112/112/112 114/114/114
f 115/115/115 111/111/111 114/114/114
f 116/116/116 115/115/115 114/114/114
f 116/116/116 114/114/114 117/117/117
f 118/118/118 112/112/112 113/113/113
f 112/112/112 118/118/118 114/114/114
f 114/114/114 118/118/118 117/117/117
f 119/119/119 118/118/118 113/113/113
f 117/117/117 118/118/118 119/119/119
f 120/120/120 117/117/117 119/119/119
