g eff_101501_dml_cylinder_01
v 1.5937917 -0.885617 -0.42705506
v 1.9736674 -1.4760284 -0.5288424
v 2.0432932 -1.4760284 -1.1360327E-07
v 1.6500165 -0.885617 -8.763742E-08
v 0.22369248 1.2398638 -0.059938222
v 1.9736674 -1.4760284 0.5288424
v 0.23158376 1.2398638 7.339191E-10
v 0.06995683 1.4760284 -0.018744899
v 0.07242472 1.4760284 4.542145E-09
v 1.5937917 -0.885617 0.42705506
v 1.7695441 -1.4760284 1.0216466
v 0.2236925 1.2398638 0.059938267
v 0.06995683 1.4760284 0.0187449
v 1.4289564 -0.885617 0.8250083
v 1.444825 -1.4760284 1.444825
v 0.20055738 1.2398638 0.11579188
v 0.062721595 1.4760284 0.03621236
v 1.1667367 -0.885617 1.1667367
v 1.0216446 -1.4760284 1.7695441
v 0.16375437 1.2398638 0.16375437
v 0.051212013 1.4760284 0.051212013
v 0.8250067 -0.885617 1.4289565
v 0.5288424 -1.4760284 1.9736674
v 0.11579178 1.2398638 0.20055738
v 0.03621236 1.4760284 0.062721595
v 0.42705506 -0.885617 1.5937917
v -1.5556445E-07 -1.4760284 2.0432932
v 0.05993823 1.2398638 0.2236925
v 0.018744899 1.4760284 0.06995683
v -1.2220563E-07 -0.885617 1.6500165
v -0.52884346 -1.4760284 1.9736674
v -6.2901444E-09 1.2398638 0.23158376
v 1.6266948E-09 1.4760284 0.07242472
v -0.42705593 -0.885617 1.5937917
v -1.0216466 -1.4760284 1.7695441
v -0.05993829 1.2398638 0.2236925
v -0.018744899 1.4760284 0.06995683
v -0.8250083 -0.885617 1.4289564
v -1.444825 -1.4760284 1.444825
v -0.11579188 1.2398638 0.20055738
v -0.03621236 1.4760284 0.062721595
v -1.1667367 -0.885617 1.1667367
v -1.7695441 -1.4760284 1.0216446
v -0.16375437 1.2398638 0.16375437
v -0.051212013 1.4760284 0.051212013
v -1.4289565 -0.885617 0.8250067
v -1.9736674 -1.4760284 0.5288424
v -0.20055738 1.2398638 0.11579178
v -0.062721595 1.4760284 0.03621236
v -1.5937917 -0.885617 0.42705506
v -2.0432932 -1.4760284 -2.3539305E-07
v -0.2236925 1.2398638 0.05993823
v -0.06995683 1.4760284 0.018744899
v -1.6500165 -0.885617 -1.8598608E-07
v -1.9736674 -1.4760284 -0.52884346
v -0.23158376 1.2398638 -1.30695454E-08
v -0.07242472 1.4760284 2.2529836E-10
v -1.5937917 -0.885617 -0.42705593
v -1.7695441 -1.4760284 -1.0216466
v -0.2236925 1.2398638 -0.05993829
v -0.06995683 1.4760284 -0.018744899
v -1.4289564 -0.885617 -0.8250083
v -1.444825 -1.4760284 -1.444825
v -0.20055738 1.2398638 -0.11579188
v -0.062721595 1.4760284 -0.03621236
v -1.1667367 -0.885617 -1.1667367
v -1.0216466 -1.4760284 -1.7695441
v -0.16375437 1.2398638 -0.16375437
v -0.051212013 1.4760284 -0.051212013
v -0.82500833 -0.885617 -1.4289565
v -0.5288424 -1.4760284 -1.9736674
v -0.11579189 1.2398638 -0.20055738
v -0.03621236 1.4760284 -0.062721595
v -0.42705506 -0.885617 -1.5937917
v -0.05993823 1.2398638 -0.2236925
v -0.018744899 1.4760284 -0.06995683
v 1.2366587E-07 -0.885617 -1.6500165
v 1.4890985E-07 -1.4760284 -2.0432932
v 0.5288424 -1.4760284 -1.9736674
v 2.8218498E-08 1.2398638 -0.23158376
v 1.2418807E-08 1.4760284 -0.07242472
v 0.42705506 -0.885617 -1.5937917
v 1.0216446 -1.4760284 -1.76954
v 0.05993826 1.2398638 -0.22369245
v 0.0187449 1.4760284 -0.06995683
v 0.82500666 -0.885617 -1.4289532
v 1.444825 -1.4760284 -1.444825
v 0.11579177 1.2398638 -0.20055711
v 0.03621236 1.4760284 -0.062721595
v 1.1667368 -0.885617 -1.1667367
v 1.7695441 -1.4760284 -1.0216466
v 0.1637544 1.2398638 -0.1637542
v 0.051212013 1.4760284 -0.05121191
v 1.4289564 -0.885617 -0.8250083
v 1.9736674 -1.4760284 -0.5288424
v 1.5937917 -0.885617 -0.42705506
v 0.20055738 1.2398638 -0.11579188
v 0.062721595 1.4760284 -0.03621236
v 0.22369248 1.2398638 -0.059938222
v 0.06995683 1.4760284 -0.018744899
vt 1 0.19999999
vt 1 0
vt 0.95833325 0
vt 0.95833325 0.2
vt 1 0.91999996
vt 0.9166665 0
vt 0.95833325 0.91999996
vt 1 1
vt 0.95833325 1
vt 0.9166665 0.2
vt 0.8749998 0
vt 0.9166665 0.91999996
vt 0.9166665 1
vt 0.8749998 0.2
vt 0.83333313 0
vt 0.8749999 0.91999996
vt 0.8749998 1
vt 0.83333313 0.2
vt 0.7916664 0
vt 0.83333313 0.91999996
vt 0.83333313 1
vt 0.79166645 0.2
vt 0.74999964 0
vt 0.7916664 0.91999996
vt 0.7916664 1
vt 0.74999964 0.2
vt 0.7083329 0
vt 0.74999964 0.91999996
vt 0.74999964 1
vt 0.7083329 0.2
vt 0.6666662 0
vt 0.7083329 0.91999996
vt 0.7083329 1
vt 0.66666627 0.2
vt 0.62499946 0
vt 0.6666662 0.91999996
vt 0.6666662 1
vt 0.62499946 0.2
vt 0.5833327 0
vt 0.62499946 0.91999996
vt 0.62499946 1
vt 0.5833327 0.2
vt 0.54166603 0
vt 0.5833327 0.91999996
vt 0.5833327 1
vt 0.54166603 0.2
vt 0.49999928 0
vt 0.54166603 0.91999996
vt 0.54166603 1
vt 0.49999928 0.2
vt 0.4583327 0
vt 0.49999928 0.91999996
vt 0.49999928 1
vt 0.45833272 0.2
vt 0.41666606 0
vt 0.4583327 0.91999996
vt 0.4583327 1
vt 0.4166661 0.2
vt 0.37499946 0
vt 0.41666606 0.91999996
vt 0.41666606 1
vt 0.37499946 0.2
vt 0.33333284 0
vt 0.37499946 0.91999996
vt 0.37499946 1
vt 0.33333284 0.2
vt 0.29166627 0
vt 0.33333284 0.91999996
vt 0.33333284 1
vt 0.29166627 0.2
vt 0.24999964 0
vt 0.29166627 0.91999996
vt 0.29166627 1
vt 0.24999964 0.2
vt 0.24999964 0.91999996
vt 0.24999964 1
vt 0.20833305 0.2
vt 0.20833305 0
vt 0.16666642 0
vt 0.20833305 0.91999996
vt 0.20833305 1
vt 0.16666642 0.2
vt 0.12499982 0
vt 0.16666642 0.91999996
vt 0.16666642 1
vt 0.12499982 0.2
vt 0.083333224 0
vt 0.12499982 0.91999996
vt 0.12499982 1
vt 0.083333224 0.2
vt 0.041666597 0
vt 0.083333224 0.91999996
vt 0.083333224 1
vt 0.041666597 0.2
vt 0 0
vt 0 0.19999999
vt 0.041666597 0.91999996
vt 0.041666597 1
vt 0 0.91999996
vt 0 1
vn 0.803619 0.5548241 -0.21532895
vn 0.9230699 0.29456148 -0.24733675
vn 0.9556325 0.2945616 0
vn 0.83196735 0.55482453 0
vn 0.80340755 0.5551524 -0.21527235
vn 0.9230701 0.2945615 0.24733599
vn 0.83174837 0.5551527 0
vn 0.9230699 0.2945615 -0.24733685
vn 0.9556325 0.2945616 0
vn 0.80361915 0.55482405 0.21532896
vn 0.8276019 0.2945615 0.4778163
vn 0.80340755 0.5551523 0.2152723
vn 0.9230701 0.2945615 0.24733591
vn 0.72050506 0.55482453 0.41598344
vn 0.6757339 0.2945616 0.6757346
vn 0.72031546 0.5551528 0.41587386
vn 0.8276021 0.29456148 0.4778162
vn 0.58828926 0.5548242 0.5882907
vn 0.47781602 0.2945615 0.8276022
vn 0.58813447 0.55515236 0.5881358
vn 0.67573416 0.29456148 0.67573434
vn 0.4159834 0.5548244 0.7205052
vn 0.24733594 0.29456156 0.9230701
vn 0.41587383 0.55515265 0.7203155
vn 0.4778159 0.29456154 0.82760227
vn 0.21532919 0.554824 0.803619
vn -0 0.29456162 0.9556325
vn 0.21527256 0.55515236 0.8034075
vn 0.24733552 0.29456156 0.9230702
vn -0 0.5548245 0.83196735
vn -0.24733588 0.29456156 0.9230701
vn -0 0.55515283 0.83174837
vn -0 0.29456154 0.9556325
vn -0.21532893 0.5548241 0.803619
vn -0.47781646 0.2945615 0.8276019
vn -0.2152723 0.5551524 0.80340755
vn -0.24733564 0.29456156 0.9230702
vn -0.41598368 0.55482453 0.7205048
vn -0.6757346 0.29456156 0.675734
vn -0.41587412 0.55515283 0.7203152
vn -0.47781643 0.29456156 0.8276019
vn -0.58829063 0.55482405 0.5882893
vn -0.8276021 0.29456145 0.47781622
vn -0.58813566 0.5551524 0.58813447
vn -0.6757345 0.29456156 0.675734
vn -0.7205052 0.55482435 0.4159834
vn -0.9230702 0.29456136 0.24733607
vn -0.7203155 0.55515265 0.41587391
vn -0.8276022 0.2945616 0.47781605
vn -0.803619 0.554824 0.21532917
vn -0.9556325 0.29456145 0
vn -0.80340755 0.5551523 0.21527253
vn -0.9230701 0.29456162 0.24733582
vn -0.83196735 0.55482453 0
vn -0.9230701 0.29456156 -0.24733613
vn -0.83174837 0.5551527 0
vn -0.9556325 0.29456162 0
vn -0.803619 0.55482423 -0.21532902
vn -0.82760185 0.2945616 -0.4778164
vn -0.80340755 0.5551525 -0.21527235
vn -0.9230701 0.29456162 -0.24733616
vn -0.7205048 0.55482453 -0.41598368
vn -0.67573416 0.29456156 -0.6757342
vn -0.7203152 0.55515283 -0.41587412
vn -0.8276019 0.2945615 -0.4778163
vn -0.58829004 0.55482423 -0.58828986
vn -0.47781605 0.29456165 -0.8276022
vn -0.5881352 0.5551524 -0.588135
vn -0.675734 0.2945616 -0.67573446
vn -0.41598332 0.5548246 -0.72050506
vn -0.24733528 0.29456162 -0.9230703
vn -0.41587386 0.55515283 -0.72031546
vn -0.47781578 0.29456162 -0.82760227
vn -0.21532884 0.5548242 -0.80361915
vn -0.21527216 0.5551525 -0.80340755
vn -0.24733558 0.29456156 -0.9230702
vn -0 0.5548245 -0.83196735
vn -0 0.29456154 -0.9556325
vn 0.247336 0.29456148 -0.9230702
vn -0 0.5551528 -0.83174837
vn -0 0.29456156 -0.9556325
vn 0.21533217 0.55482405 -0.80361825
vn 0.47781637 0.29456145 -0.8276019
vn 0.21527554 0.55515224 -0.8034067
vn 0.24733578 0.2945615 -0.9230702
vn 0.41598368 0.55482376 -0.7205056
vn 0.6757341 0.29456156 -0.67573434
vn 0.41587403 0.555152 -0.72031593
vn 0.47781637 0.2945615 -0.8276019
vn 0.58828765 0.5548241 -0.58829224
vn 0.827602 0.2945616 -0.47781625
vn 0.58813286 0.5551524 -0.5881374
vn 0.6757344 0.29456142 -0.6757341
vn 0.7205052 0.55482453 -0.41598335
vn 0.9230699 0.29456148 -0.24733675
vn 0.803619 0.5548241 -0.21532895
vn 0.72031546 0.55515283 -0.4158738
vn 0.8276019 0.2945614 -0.47781646
vn 0.80340755 0.5551524 -0.21527235
vn 0.9230699 0.2945615 -0.24733685
g eff_101501_dml_cylinder_01_0
f 3/3/3 2/2/2 1/1/1
f 4/4/4 3/3/3 1/1/1
f 4/4/4 1/1/1 5/5/5
f 6/6/6 3/3/3 4/4/4
f 7/7/7 4/4/4 5/5/5
f 7/7/7 5/5/5 8/8/8
f 9/9/9 7/7/7 8/8/8
f 10/10/10 6/6/6 4/4/4
f 10/10/10 4/4/4 7/7/7
f 11/11/11 6/6/6 10/10/10
f 12/12/12 7/7/7 9/9/9
f 12/12/12 10/10/10 7/7/7
f 13/13/13 12/12/12 9/9/9
f 14/14/14 11/11/11 10/10/10
f 14/14/14 10/10/10 12/12/12
f 15/15/15 11/11/11 14/14/14
f 16/16/16 12/12/12 13/13/13
f 16/16/16 14/14/14 12/12/12
f 17/17/17 16/16/16 13/13/13
f 18/18/18 15/15/15 14/14/14
f 18/18/18 14/14/14 16/16/16
f 19/19/19 15/15/15 18/18/18
f 20/20/20 16/16/16 17/17/17
f 20/20/20 18/18/18 16/16/16
f 21/21/21 20/20/20 17/17/17
f 22/22/22 19/19/19 18/18/18
f 22/22/22 18/18/18 20/20/20
f 23/23/23 19/19/19 22/22/22
f 24/24/24 20/20/20 21/21/21
f 24/24/24 22/22/22 20/20/20
f 25/25/25 24/24/24 21/21/21
f 26/26/26 23/23/23 22/22/22
f 26/26/26 22/22/22 24/24/24
f 27/27/27 23/23/23 26/26/26
f 28/28/28 24/24/24 25/25/25
f 28/28/28 26/26/26 24/24/24
f 29/29/29 28/28/28 25/25/25
f 30/30/30 27/27/27 26/26/26
f 30/30/30 26/26/26 28/28/28
f 31/31/31 27/27/27 30/30/30
f 32/32/32 28/28/28 29/29/29
f 32/32/32 30/30/30 28/28/28
f 33/33/33 32/32/32 29/29/29
f 34/34/34 31/31/31 30/30/30
f 34/34/34 30/30/30 32/32/32
f 35/35/35 31/31/31 34/34/34
f 36/36/36 32/32/32 33/33/33
f 36/36/36 34/34/34 32/32/32
f 37/37/37 36/36/36 33/33/33
f 38/38/38 35/35/35 34/34/34
f 38/38/38 34/34/34 36/36/36
f 39/39/39 35/35/35 38/38/38
f 40/40/40 36/36/36 37/37/37
f 40/40/40 38/38/38 36/36/36
f 41/41/41 40/40/40 37/37/37
f 42/42/42 39/39/39 38/38/38
f 42/42/42 38/38/38 40/40/40
f 43/43/43 39/39/39 42/42/42
f 44/44/44 40/40/40 41/41/41
f 44/44/44 42/42/42 40/40/40
f 45/45/45 44/44/44 41/41/41
f 46/46/46 43/43/43 42/42/42
f 46/46/46 42/42/42 44/44/44
f 47/47/47 43/43/43 46/46/46
f 48/48/48 44/44/44 45/45/45
f 48/48/48 46/46/46 44/44/44
f 49/49/49 48/48/48 45/45/45
f 50/50/50 47/47/47 46/46/46
f 50/50/50 46/46/46 48/48/48
f 51/51/51 47/47/47 50/50/50
f 52/52/52 48/48/48 49/49/49
f 52/52/52 50/50/50 48/48/48
f 53/53/53 52/52/52 49/49/49
f 54/54/54 51/51/51 50/50/50
f 54/54/54 50/50/50 52/52/52
f 55/55/55 51/51/51 54/54/54
f 56/56/56 52/52/52 53/53/53
f 56/56/56 54/54/54 52/52/52
f 57/57/57 56/56/56 53/53/53
f 58/58/58 55/55/55 54/54/54
f 58/58/58 54/54/54 56/56/56
f 59/59/59 55/55/55 58/58/58
f 60/60/60 56/56/56 57/57/57
f 60/60/60 58/58/58 56/56/56
f 61/61/61 60/60/60 57/57/57
f 62/62/62 59/59/59 58/58/58
f 62/62/62 58/58/58 60/60/60
f 63/63/63 59/59/59 62/62/62
f 64/64/64 60/60/60 61/61/61
f 64/64/64 62/62/62 60/60/60
f 65/65/65 64/64/64 61/61/61
f 66/66/66 63/63/63 62/62/62
f 66/66/66 62/62/62 64/64/64
f 67/67/67 63/63/63 66/66/66
f 68/68/68 64/64/64 65/65/65
f 68/68/68 66/66/66 64/64/64
f 69/69/69 68/68/68 65/65/65
f 70/70/70 67/67/67 66/66/66
f 70/70/70 66/66/66 68/68/68
f 71/71/71 67/67/67 70/70/70
f 72/72/72 68/68/68 69/69/69
f 72/72/72 70/70/70 68/68/68
f 73/73/73 72/72/72 69/69/69
f 74/74/74 71/71/71 70/70/70
f 74/74/74 70/70/70 72/72/72
f 75/75/75 72/72/72 73/73/73
f 75/75/75 74/74/74 72/72/72
f 76/76/76 75/75/75 73/73/73
f 74/74/74 77/77/77 71/71/71
f 74/74/74 75/75/75 77/77/77
f 77/77/77 78/78/78 71/71/71
f 79/79/79 78/78/78 77/77/77
f 75/75/75 76/76/76 80/80/80
f 75/75/75 80/80/80 77/77/77
f 76/76/76 81/81/81 80/80/80
f 82/82/82 79/79/79 77/77/77
f 82/82/82 77/77/77 80/80/80
f 83/83/83 79/79/79 82/82/82
f 84/84/84 80/80/80 81/81/81
f 84/84/84 82/82/82 80/80/80
f 85/85/85 84/84/84 81/81/81
f 86/86/86 83/83/83 82/82/82
f 86/86/86 82/82/82 84/84/84
f 87/87/87 83/83/83 86/86/86
f 88/88/88 84/84/84 85/85/85
f 88/88/88 86/86/86 84/84/84
f 89/89/89 88/88/88 85/85/85
f 90/90/90 87/87/87 86/86/86
f 90/90/90 86/86/86 88/88/88
f 91/91/91 87/87/87 90/90/90
f 92/92/92 88/88/88 89/89/89
f 92/92/92 90/90/90 88/88/88
f 93/93/93 92/92/92 89/89/89
f 94/94/94 91/91/91 90/90/90
f 94/94/94 90/90/90 92/92/92
f 95/95/95 91/91/91 94/94/94
f 96/96/96 95/95/95 94/94/94
f 97/97/97 92/92/92 93/93/93
f 97/97/97 94/94/94 92/92/92
f 96/96/96 94/94/94 97/97/97
f 98/98/98 97/97/97 93/93/93
f 99/99/99 96/96/96 97/97/97
f 99/99/99 97/97/97 98/98/98
f 100/100/100 99/99/99 98/98/98
