g eff_106901_lh_slash_01
v -0.537228 -0.23593539 -3.7365496
v -5.5696273E-07 -0.23593538 -3.7749722
v -8.427365E-07 -0.14723806 -4.7116356
v -0.67052764 -0.1472381 -4.6636796
v -1.3593382E-06 6.315735E-07 -5.267505
v -1.0635271 -0.23593542 -3.6220615
v -0.7496356 5.9574774E-07 -5.213891
v -1.3274144 -0.14723812 -4.520783
v -1.5681759 -0.23593542 -3.4338381
v -1.4840207 5.7670366E-07 -5.0541377
v -1.9572787 -0.14723815 -4.2858577
v -2.0409007 -0.23593543 -3.175711
v -2.1881948 5.4539424E-07 -4.7914953
v -2.547298 -0.1472382 -3.9636836
v -2.472078 -0.2359355 -2.8529363
v -2.847824 5.024569E-07 -4.4313116
v -3.0854623 -0.14723825 -3.5608206
v -2.852932 -0.23593551 -2.472084
v -3.4494798 4.4876603E-07 -3.9809194
v -3.5608144 -0.14723828 -3.0854683
v -3.175708 -0.23593561 -2.040907
v -3.980913 3.8541435E-07 -3.4494867
v -3.963679 -0.14723837 -2.5473056
v -3.4338348 -0.23593564 -1.5681822
v -4.4313064 3.136915E-07 -2.8478322
v -4.2858543 -0.14723845 -1.957287
v -3.6220596 -0.2359357 -1.063534
v -4.7914915 2.3505763E-07 -2.1882036
v -4.520782 -0.14723852 -1.3274229
v -3.736549 -0.23593576 -0.5372353
v -5.054135 1.5111355E-07 -1.4840295
v -4.663679 -0.14723858 -0.6705366
v -3.7749724 -0.23593584 -1.8152685E-08
v -5.213891 6.356809E-08 -0.749645
v -4.711636 -0.14723863 3.3087993E-08
v -3.736549 -0.2359359 0.5372353
v -5.2675066 -2.5796592E-08 1.5125455E-07
v -4.663679 -0.14723873 0.6705368
v -3.6220596 -0.23593593 1.063534
v -5.213891 -1.1516128E-07 0.7496455
v -4.520782 -0.14723882 1.3274229
v -3.4338353 -0.235936 1.568182
v -5.054135 -2.0270676E-07 1.48403
v -4.285855 -0.1472389 1.9572866
v -3.1757083 -0.23593609 2.0409067
v -4.7914925 -2.8665082E-07 2.1882036
v -3.9636793 -0.14723894 2.5473058
v -2.852932 -0.23593612 2.472084
v -4.431308 -3.6528465E-07 2.8478322
v -3.5608149 -0.14723901 3.085469
v -2.4720795 -0.23593616 2.8529363
v -3.9809139 -4.3700746E-07 3.4494867
v -3.0854626 -0.14723907 3.5608206
v -2.0409021 -0.23593621 3.175711
v -3.4494805 -5.00359E-07 3.9809184
v -2.5473 -0.1472391 3.9636831
v -1.5681782 -0.23593624 3.4338374
v -2.8478265 -5.5405E-07 4.431311
v -1.9572816 -0.14723916 4.285857
v -1.0635303 -0.23593627 3.622061
v -2.1881986 -5.969872E-07 4.791495
v -1.3274188 -0.14723921 4.520783
v -0.5372326 -0.23593627 3.7365496
v -1.4840257 -6.282966E-07 5.0541368
v -0.67053336 -0.14723921 4.663679
v 1.8130894E-06 -0.23593627 3.7749722
v -0.7496422 -6.473409E-07 5.213891
v 2.1153833E-06 -0.14723921 4.7116356
v 1.9477754E-06 -6.537321E-07 5.267506
v -0.7496356 5.9574774E-07 -5.213891
v -1.3593382E-06 6.315735E-07 -5.267505
v -8.427365E-07 0.14723918 -4.7116356
v -0.67052764 0.14723915 -4.6636796
v -5.5696273E-07 0.23593621 -3.7749722
v -1.4840207 5.7670366E-07 -5.0541377
v -0.53722805 0.23593621 -3.7365496
v -1.3274144 0.14723915 -4.520783
v -2.1881948 5.4539424E-07 -4.7914953
v -1.0635271 0.2359362 -3.6220615
v -1.9572787 0.14723907 -4.2858577
v -2.847824 5.024569E-07 -4.4313116
v -1.5681759 0.23593616 -3.433838
v -2.547298 0.14723906 -3.9636834
v -3.4494798 4.4876603E-07 -3.9809194
v -2.0409007 0.23593612 -3.175711
v -3.0854623 0.147239 -3.5608206
v -3.980913 3.8541435E-07 -3.4494867
v -2.472078 0.2359361 -2.8529363
v -3.5608144 0.14723895 -3.0854683
v -4.4313064 3.136915E-07 -2.8478322
v -2.852932 0.23593605 -2.472084
v -3.963679 0.1472389 -2.5473056
v -4.7914915 2.3505763E-07 -2.1882036
v -3.175708 0.23593597 -2.0409067
v -4.2858543 0.14723882 -1.9572866
v -5.054135 1.5111355E-07 -1.4840295
v -3.4338348 0.23593591 -1.568182
v -4.520782 0.14723873 -1.3274229
v -5.213891 6.356809E-08 -0.749645
v -3.6220596 0.23593587 -1.063534
v -4.663679 0.14723869 -0.6705364
v -5.2675066 -2.5796592E-08 1.5125455E-07
v -3.736549 0.23593584 -0.53723526
v -4.711636 0.14723858 6.819244E-08
v -5.213891 -1.1516128E-07 0.7496455
v -3.7749724 0.23593573 3.8098797E-08
v -4.663679 0.14723852 0.6705368
v -5.054135 -2.0270676E-07 1.48403
v -3.736549 0.23593566 0.5372353
v -4.520782 0.14723845 1.3274229
v -4.7914925 -2.8665082E-07 2.1882036
v -3.6220596 0.23593564 1.063534
v -4.285855 0.14723837 1.957287
v -4.431308 -3.6528465E-07 2.8478322
v -3.4338353 0.23593558 1.5681822
v -3.9636793 0.14723828 2.5473058
v -3.9809139 -4.3700746E-07 3.4494867
v -3.1757083 0.2359355 2.040907
v -3.5608149 0.14723822 3.085469
v -3.4494805 -5.00359E-07 3.9809184
v -2.852932 0.23593545 2.4720843
v -3.0854626 0.14723817 3.5608206
v -2.8478265 -5.5405E-07 4.431311
v -2.4720795 0.23593542 2.8529363
v -2.5473 0.14723812 3.9636831
v -2.1881986 -5.969872E-07 4.791495
v -2.0409021 0.23593539 3.175711
v -1.9572816 0.1472381 4.285857
v -1.4840257 -6.282966E-07 5.0541368
v -1.5681782 0.23593529 3.4338374
v -1.3274188 0.14723805 4.520783
v -0.7496422 -6.473409E-07 5.213891
v -1.0635303 0.23593529 3.622061
v -0.67053336 0.14723805 4.663679
v 1.9477754E-06 -6.537321E-07 5.267506
v -0.5372326 0.23593526 3.7365496
v 2.1153833E-06 0.14723805 4.7116356
v 1.9024964E-06 0.23593526 3.7749724
vt 1 0.045454502
vt 1 0
vt 0.5 0
vt 0.5 0.045454502
vt 0 0
vt 1 0.090908974
vt 0 0.045454502
vt 0.5 0.090908974
vt 1 0.13636363
vt 0 0.090908974
vt 0.5 0.13636363
vt 1 0.1818181
vt 0 0.13636363
vt 0.5 0.1818181
vt 1 0.22727272
vt 0 0.1818181
vt 0.5 0.22727257
vt 1 0.27272722
vt 0 0.22727272
vt 0.5 0.27272722
vt 1 0.31818187
vt 0 0.27272722
vt 0.5 0.3181817
vt 1 0.3636363
vt 0 0.3181817
vt 0.5 0.3636363
vt 1 0.40909082
vt 0 0.3636363
vt 0.5 0.40909082
vt 1 0.4545454
vt 0 0.40909082
vt 0.5 0.4545454
vt 1 0.49999988
vt 0 0.4545454
vt 0.5 0.49999988
vt 1 0.5454545
vt 0 0.49999988
vt 0.5 0.5454545
vt 1 0.5909091
vt 0 0.5454545
vt 0.5 0.590909
vt 1 0.6363636
vt 0 0.590909
vt 0.5 0.6363636
vt 1 0.68181807
vt 0 0.6363636
vt 0.5 0.68181807
vt 1 0.72727275
vt 0 0.68181807
vt 0.5 0.72727275
vt 1 0.77272725
vt 0 0.72727275
vt 0.5 0.77272725
vt 1 0.81818175
vt 0 0.77272725
vt 0.5 0.81818175
vt 1 0.8636364
vt 0 0.818182
vt 0.5 0.8636364
vt 1 0.90909094
vt 0 0.8636364
vt 0.5 0.90909094
vt 1 0.95454544
vt 0 0.90909094
vt 0.5 0.95454544
vt 1 1
vt 0 0.95454544
vt 0.5 1
vt 0 1
vt 1.1920929E-07 0.045454502
vt 0 0
vt 0.49999988 0
vt 0.5000002 0.045454502
vt 0.99999976 0
vt 1.1920929E-07 0.090908974
vt 0.9999998 0.045454502
vt 0.5 0.090908974
vt 1.1920929E-07 0.13636363
vt 0.9999998 0.090908974
vt 0.5 0.13636363
vt 1.1920929E-07 0.1818181
vt 0.9999998 0.13636363
vt 0.5 0.1818181
vt 1.1920929E-07 0.22727272
vt 1 0.1818181
vt 0.5000002 0.22727272
vt 1.1920929E-07 0.27272722
vt 1 0.22727257
vt 0.5 0.27272722
vt 1.1920929E-07 0.3181817
vt 0.9999998 0.27272722
vt 0.5 0.3181817
vt 1.1920929E-07 0.3636363
vt 0.9999998 0.3181817
vt 0.5 0.3636363
vt 1.1920929E-07 0.40909082
vt 0.9999998 0.3636363
vt 0.49999988 0.40909082
vt 1.1920929E-07 0.4545454
vt 0.99999964 0.40909082
vt 0.49999988 0.4545454
vt 1.1920929E-07 0.4999999
vt 0.99999964 0.4545454
vt 0.5 0.4999999
vt 1.1920929E-07 0.5454545
vt 0.9999998 0.4999999
vt 0.5 0.5454545
vt 1.1920929E-07 0.590909
vt 0.9999998 0.5454545
vt 0.5 0.590909
vt 1.1920929E-07 0.6363636
vt 0.9999998 0.590909
vt 0.5 0.6363636
vt 1.1920929E-07 0.68181807
vt 0.9999998 0.6363636
vt 0.5 0.68181807
vt 1.1920929E-07 0.72727275
vt 1 0.68181807
vt 0.5000002 0.72727275
vt 1.1920929E-07 0.77272725
vt 1 0.72727275
vt 0.5 0.77272725
vt 1.1920929E-07 0.818182
vt 0.9999998 0.77272725
vt 0.5 0.81818175
vt 1.1920929E-07 0.8636364
vt 0.9999998 0.81818175
vt 0.5 0.86363626
vt 1.1920929E-07 0.90909094
vt 0.9999998 0.86363626
vt 0.5 0.90909094
vt 1.1920929E-07 0.95454544
vt 0.9999998 0.90909094
vt 0.5 0.95454544
vt 1.1920929E-07 1
vt 0.9999998 0.95454544
vt 0.5 1
vt 0.9999998 1
vn -0.009466928 -0.997785 -0.06584487
vn -0 -0.997785 -0.066521965
vn -0 -0.9837816 -0.17937036
vn -0.025526788 -0.9837816 -0.1775447
vn -0 -0.9666636 -0.25604972
vn -0.018741276 -0.997785 -0.06382739
vn -0.036439303 -0.9666636 -0.25344345
vn -0.050534185 -0.9837816 -0.17210464
vn -0.027634108 -0.997785 -0.060510546
vn -0.0721371 -0.9666637 -0.24567787
vn -0.07451291 -0.9837816 -0.16316107
vn -0.03596436 -0.997785 -0.055961896
vn -0.10636651 -0.9666637 -0.2329109
vn -0.09697462 -0.9837816 -0.15089609
vn -0.043562476 -0.997785 -0.05027401
vn -0.13843042 -0.9666637 -0.21540278
vn -0.11746234 -0.9837816 -0.13555925
vn -0.0502738 -0.997785 -0.04356268
vn -0.16767642 -0.9666637 -0.19350953
vn -0.13555886 -0.9837816 -0.117462695
vn -0.05596169 -0.997785 -0.035964563
vn -0.19350916 -0.9666637 -0.16767694
vn -0.15089577 -0.9837816 -0.09697511
vn -0.060510345 -0.997785 -0.027634338
vn -0.21540238 -0.9666637 -0.13843107
vn -0.16316077 -0.9837817 -0.07451333
vn -0.0638272 -0.997785 -0.018741526
vn -0.23291056 -0.9666637 -0.10636703
vn -0.17210446 -0.9837816 -0.050534666
vn -0.0658447 -0.997785 -0.009467156
vn -0.24567756 -0.9666637 -0.072137706
vn -0.17754462 -0.9837816 -0.025527187
vn -0.06652179 -0.997785 -1.3052652E-07
vn -0.25344342 -0.9666637 -0.0364398
vn -0.1793703 -0.9837816 -1.14733645E-07
vn -0.065844715 -0.997785 0.00946693
vn -0.2560496 -0.9666637 -1.07249306E-07
vn -0.17754455 -0.9837816 0.02552696
vn -0.0638272 -0.997785 0.018741282
vn -0.25344327 -0.9666637 0.036439564
vn -0.17210451 -0.9837817 0.05053438
vn -0.06051035 -0.997785 0.027634075
vn -0.24567759 -0.9666637 0.072137415
vn -0.16316088 -0.9837817 0.074513055
vn -0.055961687 -0.997785 0.035964318
vn -0.23291066 -0.9666637 0.10636676
vn -0.15089574 -0.9837817 0.09697487
vn -0.050273836 -0.997785 0.04356245
vn -0.2154023 -0.9666637 0.13843077
vn -0.13555887 -0.9837817 0.1174625
vn -0.043562494 -0.997785 0.050273776
vn -0.19350907 -0.9666637 0.16767669
vn -0.11746245 -0.9837817 0.13555901
vn -0.035964366 -0.997785 0.055961657
vn -0.1676766 -0.9666637 0.19350924
vn -0.096974805 -0.9837817 0.15089582
vn -0.02763412 -0.997785 0.060510278
vn -0.13843068 -0.9666637 0.2154024
vn -0.07451294 -0.9837817 0.16316083
vn -0.018741315 -0.997785 0.06382712
vn -0.10636653 -0.96666384 0.23291062
vn -0.050534267 -0.9837817 0.17210446
vn -0.009466996 -0.997785 0.06584463
vn -0.07213715 -0.9666637 0.24567753
vn -0.025526885 -0.9837817 0.17754447
vn -0 -0.997785 0.06652173
vn -0.03643939 -0.9666637 0.2534431
vn 1.1966658E-07 -0.9837817 0.1793701
vn 1.569231E-07 -0.9666637 0.2560493
vn -0.036439136 0.9666637 -0.2534432
vn -0 0.9666637 -0.2560494
vn -0 0.9837817 -0.17937015
vn -0.025526723 0.9837817 -0.1775445
vn -0 0.997785 -0.06652173
vn -0.072136946 0.96666384 -0.24567756
vn -0.009466961 0.997785 -0.06584463
vn -0.05053411 0.9837817 -0.17210445
vn -0.10636659 0.96666384 -0.23291062
vn -0.018741274 0.997785 -0.06382717
vn -0.07451293 0.9837817 -0.16316083
vn -0.13843042 0.9666637 -0.21540251
vn -0.027634092 0.997785 -0.060510334
vn -0.096974626 0.9837817 -0.1508959
vn -0.1676764 0.9666637 -0.19350927
vn -0.03596436 0.997785 -0.055961676
vn -0.1174624 0.9837817 -0.13555905
vn -0.19350898 0.9666637 -0.16767669
vn -0.043562494 0.997785 -0.050273802
vn -0.1355588 0.9837817 -0.117462456
vn -0.21540222 0.9666637 -0.1384308
vn -0.05027381 0.997785 -0.043562464
vn -0.15089574 0.9837817 -0.09697487
vn -0.23291062 0.9666637 -0.1063668
vn -0.05596171 0.997785 -0.035964344
vn -0.16316083 0.9837817 -0.074513085
vn -0.24567759 0.9666637 -0.07213745
vn -0.06051036 0.997785 -0.027634092
vn -0.17210448 0.9837816 -0.050534416
vn -0.25344342 0.9666637 -0.03643957
vn -0.0638272 0.997785 -0.018741282
vn -0.17754462 0.9837816 -0.02552695
vn -0.2560496 0.9666637 1.02907556E-07
vn -0.06584473 0.997785 -0.0094669135
vn -0.1793703 0.9837816 1.0833357E-07
vn -0.2534432 0.9666637 0.036439784
vn -0.06652181 0.997785 1.1198872E-07
vn -0.17754452 0.9837816 0.02552717
vn -0.24567765 0.9666637 0.072137654
vn -0.065844744 0.997785 0.009467135
vn -0.17210446 0.9837816 0.050534625
vn -0.23291059 0.9666637 0.106366955
vn -0.063827224 0.997785 0.018741509
vn -0.16316082 0.9837817 0.07451328
vn -0.21540222 0.9666637 0.13843097
vn -0.06051036 0.997785 0.02763433
vn -0.15089571 0.9837817 0.09697507
vn -0.19350907 0.9666637 0.16767694
vn -0.055961687 0.997785 0.035964563
vn -0.13555889 0.9837816 0.11746273
vn -0.16767642 0.9666637 0.19350952
vn -0.050273847 0.997785 0.043562688
vn -0.11746236 0.9837816 0.13555923
vn -0.1384306 0.9666637 0.21540271
vn -0.043562498 0.997785 0.050274003
vn -0.09697471 0.9837816 0.15089601
vn -0.10636669 0.9666637 0.2329109
vn -0.03596436 0.997785 0.05596188
vn -0.07451302 0.9837816 0.16316105
vn -0.072137326 0.9666637 0.24567775
vn -0.027634127 0.997785 0.06051053
vn -0.05053432 0.9837816 0.17210458
vn -0.03643931 0.9666637 0.25344336
vn -0.018741323 0.997785 0.06382734
vn -0.025526837 0.9837816 0.17754464
vn 1.556826E-07 0.9666637 0.2560496
vn -0.0094669955 0.997785 0.065844886
vn 1.1936888E-07 0.9837816 0.17937031
vn -0 0.997785 0.066521965
g eff_106901_lh_slash_01_0
f 3/3/3 2/2/2 1/1/1
f 4/4/4 3/3/3 1/1/1
f 5/5/5 3/3/3 4/4/4
f 4/4/4 1/1/1 6/6/6
f 7/7/7 5/5/5 4/4/4
f 8/8/8 4/4/4 6/6/6
f 7/7/7 4/4/4 8/8/8
f 8/8/8 6/6/6 9/9/9
f 10/10/10 7/7/7 8/8/8
f 11/11/11 8/8/8 9/9/9
f 10/10/10 8/8/8 11/11/11
f 11/11/11 9/9/9 12/12/12
f 13/13/13 10/10/10 11/11/11
f 14/14/14 11/11/11 12/12/12
f 13/13/13 11/11/11 14/14/14
f 14/14/14 12/12/12 15/15/15
f 16/16/16 13/13/13 14/14/14
f 17/17/17 14/14/14 15/15/15
f 16/16/16 14/14/14 17/17/17
f 17/17/17 15/15/15 18/18/18
f 19/19/19 16/16/16 17/17/17
f 20/20/20 17/17/17 18/18/18
f 19/19/19 17/17/17 20/20/20
f 20/20/20 18/18/18 21/21/21
f 22/22/22 19/19/19 20/20/20
f 23/23/23 20/20/20 21/21/21
f 22/22/22 20/20/20 23/23/23
f 23/23/23 21/21/21 24/24/24
f 25/25/25 22/22/22 23/23/23
f 26/26/26 23/23/23 24/24/24
f 25/25/25 23/23/23 26/26/26
f 26/26/26 24/24/24 27/27/27
f 28/28/28 25/25/25 26/26/26
f 29/29/29 26/26/26 27/27/27
f 28/28/28 26/26/26 29/29/29
f 29/29/29 27/27/27 30/30/30
f 31/31/31 28/28/28 29/29/29
f 32/32/32 29/29/29 30/30/30
f 31/31/31 29/29/29 32/32/32
f 32/32/32 30/30/30 33/33/33
f 34/34/34 31/31/31 32/32/32
f 35/35/35 32/32/32 33/33/33
f 34/34/34 32/32/32 35/35/35
f 35/35/35 33/33/33 36/36/36
f 37/37/37 34/34/34 35/35/35
f 38/38/38 35/35/35 36/36/36
f 37/37/37 35/35/35 38/38/38
f 38/38/38 36/36/36 39/39/39
f 40/40/40 37/37/37 38/38/38
f 41/41/41 38/38/38 39/39/39
f 40/40/40 38/38/38 41/41/41
f 41/41/41 39/39/39 42/42/42
f 43/43/43 40/40/40 41/41/41
f 44/44/44 41/41/41 42/42/42
f 43/43/43 41/41/41 44/44/44
f 44/44/44 42/42/42 45/45/45
f 46/46/46 43/43/43 44/44/44
f 47/47/47 44/44/44 45/45/45
f 46/46/46 44/44/44 47/47/47
f 47/47/47 45/45/45 48/48/48
f 49/49/49 46/46/46 47/47/47
f 50/50/50 47/47/47 48/48/48
f 49/49/49 47/47/47 50/50/50
f 50/50/50 48/48/48 51/51/51
f 52/52/52 49/49/49 50/50/50
f 53/53/53 50/50/50 51/51/51
f 52/52/52 50/50/50 53/53/53
f 53/53/53 51/51/51 54/54/54
f 55/55/55 52/52/52 53/53/53
f 56/56/56 53/53/53 54/54/54
f 55/55/55 53/53/53 56/56/56
f 56/56/56 54/54/54 57/57/57
f 58/58/58 55/55/55 56/56/56
f 59/59/59 56/56/56 57/57/57
f 58/58/58 56/56/56 59/59/59
f 59/59/59 57/57/57 60/60/60
f 61/61/61 58/58/58 59/59/59
f 62/62/62 59/59/59 60/60/60
f 61/61/61 59/59/59 62/62/62
f 62/62/62 60/60/60 63/63/63
f 64/64/64 61/61/61 62/62/62
f 65/65/65 62/62/62 63/63/63
f 64/64/64 62/62/62 65/65/65
f 65/65/65 63/63/63 66/66/66
f 67/67/67 64/64/64 65/65/65
f 68/68/68 65/65/65 66/66/66
f 67/67/67 65/65/65 68/68/68
f 69/69/69 67/67/67 68/68/68
f 72/72/72 71/71/71 70/70/70
f 73/73/73 72/72/72 70/70/70
f 74/74/74 72/72/72 73/73/73
f 73/73/73 70/70/70 75/75/75
f 76/76/76 74/74/74 73/73/73
f 77/77/77 73/73/73 75/75/75
f 76/76/76 73/73/73 77/77/77
f 77/77/77 75/75/75 78/78/78
f 79/79/79 76/76/76 77/77/77
f 80/80/80 77/77/77 78/78/78
f 79/79/79 77/77/77 80/80/80
f 80/80/80 78/78/78 81/81/81
f 82/82/82 79/79/79 80/80/80
f 83/83/83 80/80/80 81/81/81
f 82/82/82 80/80/80 83/83/83
f 83/83/83 81/81/81 84/84/84
f 85/85/85 82/82/82 83/83/83
f 86/86/86 83/83/83 84/84/84
f 85/85/85 83/83/83 86/86/86
f 86/86/86 84/84/84 87/87/87
f 88/88/88 85/85/85 86/86/86
f 89/89/89 86/86/86 87/87/87
f 88/88/88 86/86/86 89/89/89
f 89/89/89 87/87/87 90/90/90
f 91/91/91 88/88/88 89/89/89
f 92/92/92 89/89/89 90/90/90
f 91/91/91 89/89/89 92/92/92
f 92/92/92 90/90/90 93/93/93
f 94/94/94 91/91/91 92/92/92
f 95/95/95 92/92/92 93/93/93
f 94/94/94 92/92/92 95/95/95
f 95/95/95 93/93/93 96/96/96
f 97/97/97 94/94/94 95/95/95
f 98/98/98 95/95/95 96/96/96
f 97/97/97 95/95/95 98/98/98
f 98/98/98 96/96/96 99/99/99
f 100/100/100 97/97/97 98/98/98
f 101/101/101 98/98/98 99/99/99
f 100/100/100 98/98/98 101/101/101
f 101/101/101 99/99/99 102/102/102
f 103/103/103 100/100/100 101/101/101
f 104/104/104 101/101/101 102/102/102
f 103/103/103 101/101/101 104/104/104
f 104/104/104 102/102/102 105/105/105
f 106/106/106 103/103/103 104/104/104
f 107/107/107 104/104/104 105/105/105
f 106/106/106 104/104/104 107/107/107
f 107/107/107 105/105/105 108/108/108
f 109/109/109 106/106/106 107/107/107
f 110/110/110 107/107/107 108/108/108
f 109/109/109 107/107/107 110/110/110
f 110/110/110 108/108/108 111/111/111
f 112/112/112 109/109/109 110/110/110
f 113/113/113 110/110/110 111/111/111
f 112/112/112 110/110/110 113/113/113
f 113/113/113 111/111/111 114/114/114
f 115/115/115 112/112/112 113/113/113
f 116/116/116 113/113/113 114/114/114
f 115/115/115 113/113/113 116/116/116
f 116/116/116 114/114/114 117/117/117
f 118/118/118 115/115/115 116/116/116
f 119/119/119 116/116/116 117/117/117
f 118/118/118 116/116/116 119/119/119
f 119/119/119 117/117/117 120/120/120
f 121/121/121 118/118/118 119/119/119
f 122/122/122 119/119/119 120/120/120
f 121/121/121 119/119/119 122/122/122
f 122/122/122 120/120/120 123/123/123
f 124/124/124 121/121/121 122/122/122
f 125/125/125 122/122/122 123/123/123
f 124/124/124 122/122/122 125/125/125
f 125/125/125 123/123/123 126/126/126
f 127/127/127 124/124/124 125/125/125
f 128/128/128 125/125/125 126/126/126
f 127/127/127 125/125/125 128/128/128
f 128/128/128 126/126/126 129/129/129
f 130/130/130 127/127/127 128/128/128
f 131/131/131 128/128/128 129/129/129
f 130/130/130 128/128/128 131/131/131
f 131/131/131 129/129/129 132/132/132
f 133/133/133 130/130/130 131/131/131
f 134/134/134 131/131/131 132/132/132
f 133/133/133 131/131/131 134/134/134
f 134/134/134 132/132/132 135/135/135
f 136/136/136 133/133/133 134/134/134
f 137/137/137 134/134/134 135/135/135
f 136/136/136 134/134/134 137/137/137
f 138/138/138 136/136/136 137/137/137
