g eff_cmn_dome_01
v 0.7990572 -0.8300984 -0.580549
v 0.93934804 -0.8300984 -0.30521268
v 0.8933731 -0.6813203 -0.2902745
v 0.75994855 -0.6813203 -0.5521349
v 0.580549 -0.8300984 -0.7990571
v 0.6959629 -0.50653267 -0.5056466
v 0.81815344 -0.50653267 -0.26583415
v 0.67249894 -0.27942598 -0.21850814
v 0.5521349 -0.6813203 -0.7599485
v 0.30521265 -0.8300984 -0.9393479
v 0.5720618 -0.27942598 -0.41562718
v 0.42024982 -0.095526226 -0.13654745
v 0.5056466 -0.50653267 -0.6959629
v 0.29027447 -0.6813203 -0.89337295
v -0 -0.8300984 -0.98768884
v 0.35748586 -0.095526226 -0.25972867
v 0.13839586 -0.02362437 -0.044967584
v 0.41562718 -0.27942598 -0.5720617
v 0.26583412 -0.50653267 -0.8181533
v -0 -0.6813203 -0.93934786
v -0.30521265 -0.8300984 -0.93934786
v -4.114045E-09 -0.50653267 -0.8602573
v 0.21850812 -0.27942598 -0.6724989
v 0.25972867 -0.095526226 -0.35748583
v 0.117726594 -0.02362437 -0.08553344
v -0.29027447 -0.6813203 -0.8933729
v -0.5805489 -0.8300984 -0.79905695
v -0.26583412 -0.50653267 -0.8181533
v -0 -0.27942598 -0.7071071
v 0.0115970075 0.0011556052 -0.00842575
v 0.013633102 0.0011556052 -0.0044297017
v 0.008425705 0.0011556052 -0.011597045
v 0.08553342 -0.02362437 -0.117726624
v 0.0044296533 0.0011556052 -0.013633147
v 0.13654742 -0.095526226 -0.42024976
v 0.044967547 -0.02362437 -0.1383959
v -2.0303561E-08 0.0011556052 -0.014334738
v -1.5904533E-09 -0.095526226 -0.44187674
v -1.8731214E-08 -0.02362437 -0.14551814
v -0.0044296943 0.0011556052 -0.013633147
v -0.21850812 -0.27942598 -0.6724988
v -0.13654743 -0.095526226 -0.42024973
v -0.04496757 -0.02362437 -0.13839589
v -0.008425742 0.0011556052 -0.011597045
v -0.5056465 -0.50653267 -0.6959627
v -0.4156271 -0.27942598 -0.5720616
v -0.2597286 -0.095526226 -0.35748574
v -0.085533425 -0.02362437 -0.117726594
v -0.011597037 0.0011556052 -0.00842575
v -0.55213475 -0.6813203 -0.7599483
v -0.7990569 -0.8300984 -0.5805488
v -0.69596267 -0.50653267 -0.50564647
v -0.75994825 -0.6813203 -0.55213475
v -0.9393477 -0.8300984 -0.30521256
v -0.57206154 -0.27942598 -0.41562706
v -0.35748574 -0.095526226 -0.25972858
v -0.117726564 -0.02362437 -0.08553341
v -0.013633132 0.0011556052 -0.004429698
v -0.8933728 -0.6813203 -0.29027438
v -0.9876886 -0.8300984 0
v -0.81815314 -0.50653267 -0.26583406
v -0.6724987 -0.27942598 -0.21850805
v -0.42024967 -0.095526226 -0.13654739
v -0.13839588 -0.02362437 -0.044967573
v -0.014334723 0.0011556052 -2.7071419E-08
v -0.9393477 -0.6813203 0
v -0.9393477 -0.8300984 0.30521256
v -0.86025715 -0.50653267 -5.1425575E-09
v -0.70710695 -0.27942598 -3.469447E-18
v -0.44187665 -0.095526226 -1.9880642E-09
v -0.14551812 -0.02362437 -2.6019654E-08
v -0.013633132 0.0011556052 0.004429646
v -0.8933728 -0.6813203 0.29027438
v -0.7990568 -0.8300984 0.58054876
v -0.81815314 -0.50653267 0.26583403
v -0.6724987 -0.27942598 0.21850805
v -0.42024967 -0.095526226 0.13654737
v -0.13839588 -0.02362437 0.044967532
v -0.011597037 0.0011556052 0.00842569
v -0.75994825 -0.6813203 0.5521347
v -0.58054876 -0.8300984 0.79905677
v -0.69596267 -0.50653267 0.5056464
v -0.57206154 -0.27942598 0.415627
v -0.3574857 -0.095526226 0.25972855
v -0.11772655 -0.02362437 0.085533366
v -0.008425742 0.0011556052 0.011596985
v -0.5521347 -0.6813203 0.75994813
v -0.30521256 -0.8300984 0.93934757
v -0.50564647 -0.50653267 0.69596255
v -0.415627 -0.27942598 0.5720615
v -0.25972855 -0.095526226 0.35748568
v -0.08553339 -0.02362437 0.117726505
v -0.0044296905 0.0011556052 0.013633087
v -0.29027438 -0.6813203 0.89337265
v -2.9435407E-08 -0.8300984 0.9876885
v -0.26583406 -0.50653267 0.818153
v -0.21850805 -0.27942598 0.6724986
v -0.13654739 -0.095526226 0.42024964
v -0.04496756 -0.02362437 0.13839579
v -2.0730774E-08 0.0011556052 0.014334679
v -2.7994735E-08 -0.6813203 0.93934757
v 0.30521247 -0.8300984 0.93934757
v -2.97517E-08 -0.50653267 0.860257
v -2.1073424E-08 -0.27942598 0.7071068
v -1.47594E-08 -0.095526226 0.4418766
v -2.3067988E-08 -0.02362437 0.14551803
v 0.0044296496 0.0011556052 0.013633087
v 0.29027432 -0.6813203 0.8933726
v 0.58054864 -0.8300984 0.7990567
v 0.26583397 -0.50653267 0.81815296
v 0.21850799 -0.27942598 0.6724986
v 0.13654736 -0.095526226 0.42024958
v 0.044967514 -0.02362437 0.13839579
v 0.008425698 0.0011556052 0.011596985
v 0.5521346 -0.6813203 0.75994813
v 0.79905665 -0.8300984 0.5805487
v 0.50564635 -0.50653267 0.69596255
v 0.4156269 -0.27942598 0.5720614
v 0.2597285 -0.095526226 0.35748568
v 0.085533336 -0.02362437 0.117726505
v 0.011596993 0.0011556052 0.00842569
v 0.759948 -0.6813203 0.55213463
v 0.9393475 -0.8300984 0.3052125
v 0.6959625 -0.50653267 0.50564635
v 0.5720614 -0.27942598 0.41562697
v 0.35748565 -0.095526226 0.25972852
v 0.117726505 -0.02362437 0.08553335
v 0.013633087 0.0011556052 0.004429646
v 0.89337254 -0.6813203 0.29027432
v 0.98768836 -0.8300984 0
v 0.8181529 -0.50653267 0.265834
v 0.6724985 -0.27942598 0.21850802
v 0.42024955 -0.095526226 0.13654736
v 0.13839579 -0.02362437 0.044967517
v 0.014334679 0.0011556052 -2.7071419E-08
v 0.93934745 -0.6813203 0
v 0.93934804 -0.8300984 -0.30521268
v 0.8933731 -0.6813203 -0.2902745
v 0.81815344 -0.50653267 -0.26583415
v 0.8602569 -0.50653267 -5.1425575E-09
v 0.70710677 -0.27942598 -3.469447E-18
v 0.67249894 -0.27942598 -0.21850814
v 0.44187653 -0.095526226 -1.9880642E-09
v 0.42024982 -0.095526226 -0.13654745
v 0.14551803 -0.02362437 -2.6019654E-08
v 0.013633102 0.0011556052 -0.0044297017
v 0.13839586 -0.02362437 -0.044967584
vt 0.05 0.0018537045
vt 0 0.0018537045
vt 0 0.12645796
vt 0.05 0.12645796
vt 0.1 0.0018537045
vt 0.05 0.2510622
vt 0 0.2510622
vt 0 0.5002706
vt 0.1 0.12645796
vt 0.15 0.0018537045
vt 0.05 0.5002706
vt 0 0.74947906
vt 0.1 0.2510622
vt 0.15 0.12645796
vt 0.2 0.0018537045
vt 0.05 0.74947906
vt 0 0.93030494
vt 0.1 0.5002706
vt 0.15 0.2510622
vt 0.2 0.12645796
vt 0.25 0.0018537045
vt 0.2 0.2510622
vt 0.15 0.5002706
vt 0.1 0.74947906
vt 0.05 0.93030494
vt 0.25 0.12645796
vt 0.3 0.0018537045
vt 0.25 0.2510622
vt 0.2 0.5002706
vt 0.05 0.9986874
vt 0 0.9986874
vt 0.1 0.9986874
vt 0.1 0.93030494
vt 0.15 0.9986874
vt 0.15 0.74947906
vt 0.15 0.93030494
vt 0.2 0.9986874
vt 0.2 0.74947906
vt 0.2 0.93030494
vt 0.25 0.9986874
vt 0.25 0.5002706
vt 0.25 0.74947906
vt 0.25 0.93030494
vt 0.3 0.9986874
vt 0.3 0.2510622
vt 0.3 0.5002706
vt 0.3 0.74947906
vt 0.3 0.93030494
vt 0.35000002 0.9986874
vt 0.3 0.12645796
vt 0.35000002 0.0018537045
vt 0.35000002 0.2510622
vt 0.35000002 0.12645796
vt 0.40000004 0.0018537045
vt 0.35000002 0.5002706
vt 0.35000002 0.74947906
vt 0.35000002 0.93030494
vt 0.40000004 0.9986874
vt 0.40000004 0.12645796
vt 0.45000005 0.0018537045
vt 0.40000004 0.2510622
vt 0.40000004 0.5002706
vt 0.40000004 0.74947906
vt 0.40000004 0.93030494
vt 0.45000005 0.9986874
vt 0.45000005 0.12645796
vt 0.50000006 0.0018537045
vt 0.45000005 0.2510622
vt 0.45000005 0.5002706
vt 0.45000005 0.74947906
vt 0.45000005 0.93030494
vt 0.50000006 0.9986874
vt 0.50000006 0.12645796
vt 0.5500001 0.0018537045
vt 0.50000006 0.2510622
vt 0.50000006 0.5002706
vt 0.50000006 0.74947906
vt 0.50000006 0.93030494
vt 0.5500001 0.9986874
vt 0.5500001 0.12645796
vt 0.6000001 0.0018537045
vt 0.5500001 0.2510622
vt 0.5500001 0.5002706
vt 0.5500001 0.74947906
vt 0.5500001 0.93030494
vt 0.6000001 0.9986874
vt 0.6000001 0.12645796
vt 0.6500001 0.0018537045
vt 0.6000001 0.2510622
vt 0.6000001 0.5002706
vt 0.6000001 0.74947906
vt 0.6000001 0.93030494
vt 0.6500001 0.9986874
vt 0.6500001 0.12645796
vt 0.7000001 0.0018537045
vt 0.6500001 0.2510622
vt 0.6500001 0.5002706
vt 0.6500001 0.74947906
vt 0.6500001 0.93030494
vt 0.7000001 0.9986874
vt 0.7000001 0.12645796
vt 0.7500001 0.0018537045
vt 0.7000001 0.2510622
vt 0.7000001 0.5002706
vt 0.7000001 0.74947906
vt 0.7000001 0.93030494
vt 0.7500001 0.9986874
vt 0.7500001 0.12645796
vt 0.80000013 0.0018537045
vt 0.7500001 0.2510622
vt 0.7500001 0.5002706
vt 0.7500001 0.74947906
vt 0.7500001 0.93030494
vt 0.80000013 0.9986874
vt 0.80000013 0.12645796
vt 0.85000014 0.0018537045
vt 0.80000013 0.2510622
vt 0.80000013 0.5002706
vt 0.80000013 0.74947906
vt 0.80000013 0.93030494
vt 0.85000014 0.9986874
vt 0.85000014 0.12645796
vt 0.90000015 0.0018537045
vt 0.85000014 0.2510622
vt 0.85000014 0.5002706
vt 0.85000014 0.74947906
vt 0.85000014 0.93030494
vt 0.90000015 0.9986874
vt 0.90000015 0.12645796
vt 0.95000017 0.0018537045
vt 0.90000015 0.2510622
vt 0.90000015 0.5002706
vt 0.90000015 0.74947906
vt 0.90000015 0.93030494
vt 0.95000017 0.9986874
vt 0.95000017 0.12645796
vt 1.0000001 0.0018537045
vt 1.0000001 0.12645796
vt 1.0000001 0.2510622
vt 0.95000017 0.2510622
vt 0.95000017 0.5002706
vt 1.0000001 0.5002706
vt 0.95000017 0.74947906
vt 1.0000001 0.74947906
vt 0.95000017 0.93030494
vt 1.0000001 0.9986874
vt 1.0000001 0.93030494
vn 0.76942074 0.3090172 -0.55901706
vn 0.9045087 0.3090173 -0.29389173
vn 0.8862486 0.36282688 -0.2879587
vn 0.75388783 0.3628267 -0.54773164
vn 0.5590168 0.30901715 -0.7694209
vn 0.7044053 0.49182728 -0.5117804
vn 0.8280784 0.49182728 -0.2690581
vn 0.6944336 0.68326503 -0.22563438
vn 0.54773146 0.3628267 -0.75388795
vn 0.2938926 0.30901712 -0.9045085
vn 0.5907203 0.68326503 -0.42918348
vn 0.45696795 0.8770033 -0.1484773
vn 0.5117802 0.49182728 -0.70440537
vn 0.28795943 0.36282673 -0.88624835
vn -0 0.30901724 -0.9510565
vn 0.38871992 0.8770033 -0.2824216
vn 0.22000644 0.9728757 -0.07148415
vn 0.42918327 0.6832651 -0.5907203
vn 0.26905867 0.49182728 -0.8280781
vn -0 0.36282673 -0.9318565
vn -0.29389283 0.30901715 -0.9045084
vn -0 0.49182725 -0.8706928
vn 0.22563492 0.6832651 -0.6944334
vn 0.28242147 0.8770033 -0.38872
vn 0.18714859 0.9728757 -0.13597156
vn -0.28795975 0.36282665 -0.88624823
vn -0.55901724 0.3090172 -0.76942056
vn -0.26905897 0.49182722 -0.828078
vn -0 0.68326503 -0.7301704
vn 0.15016429 0.98262286 -0.10910109
vn 0.17652874 0.982623 -0.057356894
vn 0.10910061 0.98262274 -0.15016529
vn 0.13597131 0.9728757 -0.18714881
vn 0.057357732 0.9826226 -0.17652982
vn 0.14847773 0.8770033 -0.45696777
vn 0.07148443 0.9728756 -0.22000678
vn -0 0.98262274 -0.18561418
vn -0 0.87700325 -0.4804844
vn -0 0.9728756 -0.23132873
vn -0.057357833 0.98262286 -0.17652906
vn -0.22563519 0.68326503 -0.6944334
vn -0.14847793 0.87700325 -0.45696786
vn -0.07148453 0.9728757 -0.22000663
vn -0.10910074 0.98262286 -0.15016487
vn -0.51178056 0.49182725 -0.7044052
vn -0.42918354 0.68326503 -0.5907202
vn -0.2824217 0.87700325 -0.38871998
vn -0.13597146 0.9728757 -0.18714853
vn -0.15016437 0.98262286 -0.10910114
vn -0.54773176 0.36282668 -0.7538878
vn -0.76942104 0.309017 -0.5590168
vn -0.70440537 0.49182728 -0.51178026
vn -0.7538879 0.36282668 -0.5477315
vn -0.9045086 0.3090168 -0.29389262
vn -0.5907204 0.68326503 -0.4291834
vn -0.38872 0.8770033 -0.28242162
vn -0.18714872 0.9728757 -0.1359715
vn -0.17652872 0.98262286 -0.057358053
vn -0.88624835 0.36282665 -0.2879595
vn -0.95105654 0.3090168 0
vn -0.828078 0.49182746 -0.26905888
vn -0.6944334 0.68326503 -0.22563511
vn -0.45696774 0.87700325 -0.1484779
vn -0.22000644 0.9728757 -0.07148474
vn -0.1856132 0.98262286 0
vn -0.93185663 0.36282673 0
vn -0.9045086 0.3090166 0.2938927
vn -0.87069273 0.49182743 0
vn -0.73017055 0.68326503 0
vn -0.4804845 0.87700325 0
vn -0.23132846 0.9728757 0
vn -0.17652872 0.982623 0.05735693
vn -0.8862484 0.3628265 0.28795955
vn -0.76942086 0.30901662 0.5590171
vn -0.828078 0.4918274 0.26905882
vn -0.6944334 0.6832651 0.2256351
vn -0.45696777 0.8770033 0.14847784
vn -0.22000644 0.9728757 0.07148445
vn -0.15016429 0.98262286 0.10910116
vn -0.7538879 0.36282647 0.5477317
vn -0.55901694 0.3090169 0.76942104
vn -0.7044052 0.4918273 0.5117803
vn -0.59072024 0.6832651 0.4291835
vn -0.38871992 0.87700325 0.28242177
vn -0.18714863 0.9728757 0.13597155
vn -0.10910068 0.98262274 0.15016548
vn -0.5477315 0.36282656 0.75388795
vn -0.29389268 0.30901688 0.9045085
vn -0.5117803 0.4918273 0.70440525
vn -0.4291834 0.683265 0.59072036
vn -0.28242156 0.87700325 0.3887202
vn -0.1359714 0.9728757 0.18714896
vn -0.057357825 0.98262286 0.17652893
vn -0.28795958 0.3628266 0.8862484
vn -0 0.3090169 0.95105654
vn -0.26905888 0.49182728 0.8280781
vn -0.22563508 0.683265 0.69443345
vn -0.14847785 0.87700325 0.45696792
vn -0.071484454 0.9728756 0.2200067
vn -0 0.982623 0.18561286
vn -0 0.36282656 0.93185663
vn 0.29389274 0.30901697 0.9045085
vn -0 0.49182725 0.8706928
vn -0 0.68326503 0.7301705
vn -0 0.87700325 0.4804844
vn -0 0.9728757 0.23132835
vn 0.05735783 0.98262274 0.17652938
vn 0.28795967 0.36282662 0.88624835
vn 0.5590171 0.309017 0.7694208
vn 0.26905897 0.49182725 0.8280781
vn 0.22563522 0.68326503 0.6944334
vn 0.14847793 0.87700325 0.4569678
vn 0.071484484 0.9728757 0.22000645
vn 0.1091007 0.98262274 0.1501655
vn 0.54773164 0.36282647 0.7538879
vn 0.76942086 0.3090171 0.559017
vn 0.51178044 0.4918272 0.7044053
vn 0.42918348 0.6832649 0.59072036
vn 0.28242165 0.87700313 0.3887202
vn 0.13597141 0.9728756 0.18714908
vn 0.15016435 0.98262286 0.10910118
vn 0.7538879 0.36282653 0.54773164
vn 0.9045085 0.3090169 0.29389262
vn 0.7044054 0.49182707 0.5117804
vn 0.5907204 0.6832649 0.42918342
vn 0.3887201 0.87700313 0.28242174
vn 0.18714869 0.9728757 0.13597171
vn 0.17652881 0.98262286 0.05735809
vn 0.8862484 0.3628266 0.2879596
vn 0.95105654 0.30901703 0
vn 0.82807815 0.49182713 0.26905894
vn 0.69443357 0.68326485 0.22563507
vn 0.45696792 0.87700325 0.1484778
vn 0.22000644 0.9728757 0.07148444
vn 0.18561327 0.98262286 0
vn 0.93185663 0.36282656 0
vn 0.9045087 0.3090173 -0.29389173
vn 0.8862486 0.36282688 -0.2879587
vn 0.8280784 0.49182728 -0.2690581
vn 0.8706929 0.49182716 0
vn 0.73017055 0.683265 0
vn 0.6944336 0.68326503 -0.22563438
vn 0.4804844 0.87700325 0
vn 0.45696795 0.8770033 -0.1484773
vn 0.2313285 0.9728757 0
vn 0.17652874 0.982623 -0.057356894
vn 0.22000644 0.9728757 -0.07148415
g eff_cmn_dome_01_0
f 3/3/3 2/2/2 1/1/1
f 4/4/4 3/3/3 1/1/1
f 4/4/4 1/1/1 5/5/5
f 4/4/4 6/6/6 3/3/3
f 6/6/6 7/7/7 3/3/3
f 8/8/8 7/7/7 6/6/6
f 9/9/9 4/4/4 5/5/5
f 9/9/9 5/5/5 10/10/10
f 11/11/11 8/8/8 6/6/6
f 12/12/12 8/8/8 11/11/11
f 13/13/13 6/6/6 4/4/4
f 9/9/9 13/13/13 4/4/4
f 11/11/11 6/6/6 13/13/13
f 14/14/14 9/9/9 10/10/10
f 14/14/14 10/10/10 15/15/15
f 16/16/16 12/12/12 11/11/11
f 17/17/17 12/12/12 16/16/16
f 18/18/18 11/11/11 13/13/13
f 16/16/16 11/11/11 18/18/18
f 19/19/19 13/13/13 9/9/9
f 14/14/14 19/19/19 9/9/9
f 18/18/18 13/13/13 19/19/19
f 20/20/20 14/14/14 15/15/15
f 20/20/20 15/15/15 21/21/21
f 22/22/22 19/19/19 14/14/14
f 20/20/20 22/22/22 14/14/14
f 23/23/23 18/18/18 19/19/19
f 23/23/23 19/19/19 22/22/22
f 24/24/24 16/16/16 18/18/18
f 24/24/24 18/18/18 23/23/23
f 25/25/25 17/17/17 16/16/16
f 25/25/25 16/16/16 24/24/24
f 26/26/26 20/20/20 21/21/21
f 26/26/26 21/21/21 27/27/27
f 28/28/28 22/22/22 20/20/20
f 26/26/26 28/28/28 20/20/20
f 29/29/29 23/23/23 22/22/22
f 29/29/29 22/22/22 28/28/28
f 25/25/25 30/30/30 17/17/17
f 30/30/30 31/31/31 17/17/17
f 32/32/32 30/30/30 25/25/25
f 33/33/33 32/32/32 25/25/25
f 33/33/33 25/25/25 24/24/24
f 34/34/34 32/32/32 33/33/33
f 35/35/35 24/24/24 23/23/23
f 33/33/33 24/24/24 35/35/35
f 35/35/35 23/23/23 29/29/29
f 36/36/36 34/34/34 33/33/33
f 36/36/36 33/33/33 35/35/35
f 37/37/37 34/34/34 36/36/36
f 38/38/38 35/35/35 29/29/29
f 36/36/36 35/35/35 38/38/38
f 39/39/39 37/37/37 36/36/36
f 39/39/39 36/36/36 38/38/38
f 40/40/40 37/37/37 39/39/39
f 38/38/38 29/29/29 41/41/41
f 41/41/41 29/29/29 28/28/28
f 39/39/39 38/38/38 42/42/42
f 42/42/42 38/38/38 41/41/41
f 43/43/43 40/40/40 39/39/39
f 43/43/43 39/39/39 42/42/42
f 44/44/44 40/40/40 43/43/43
f 41/41/41 28/28/28 45/45/45
f 45/45/45 28/28/28 26/26/26
f 42/42/42 41/41/41 46/46/46
f 46/46/46 41/41/41 45/45/45
f 43/43/43 42/42/42 47/47/47
f 47/47/47 42/42/42 46/46/46
f 48/48/48 44/44/44 43/43/43
f 48/48/48 43/43/43 47/47/47
f 49/49/49 44/44/44 48/48/48
f 50/50/50 45/45/45 26/26/26
f 50/50/50 26/26/26 27/27/27
f 50/50/50 27/27/27 51/51/51
f 46/46/46 45/45/45 52/52/52
f 52/52/52 45/45/45 50/50/50
f 53/53/53 50/50/50 51/51/51
f 53/53/53 52/52/52 50/50/50
f 53/53/53 51/51/51 54/54/54
f 47/47/47 46/46/46 55/55/55
f 55/55/55 46/46/46 52/52/52
f 48/48/48 47/47/47 56/56/56
f 56/56/56 47/47/47 55/55/55
f 57/57/57 49/49/49 48/48/48
f 57/57/57 48/48/48 56/56/56
f 58/58/58 49/49/49 57/57/57
f 59/59/59 53/53/53 54/54/54
f 59/59/59 54/54/54 60/60/60
f 61/61/61 52/52/52 53/53/53
f 55/55/55 52/52/52 61/61/61
f 59/59/59 61/61/61 53/53/53
f 56/56/56 55/55/55 62/62/62
f 62/62/62 55/55/55 61/61/61
f 57/57/57 56/56/56 63/63/63
f 63/63/63 56/56/56 62/62/62
f 64/64/64 58/58/58 57/57/57
f 64/64/64 57/57/57 63/63/63
f 65/65/65 58/58/58 64/64/64
f 66/66/66 59/59/59 60/60/60
f 66/66/66 60/60/60 67/67/67
f 68/68/68 61/61/61 59/59/59
f 62/62/62 61/61/61 68/68/68
f 66/66/66 68/68/68 59/59/59
f 63/63/63 62/62/62 69/69/69
f 69/69/69 62/62/62 68/68/68
f 64/64/64 63/63/63 70/70/70
f 70/70/70 63/63/63 69/69/69
f 71/71/71 65/65/65 64/64/64
f 71/71/71 64/64/64 70/70/70
f 72/72/72 65/65/65 71/71/71
f 73/73/73 66/66/66 67/67/67
f 73/73/73 67/67/67 74/74/74
f 75/75/75 68/68/68 66/66/66
f 69/69/69 68/68/68 75/75/75
f 73/73/73 75/75/75 66/66/66
f 70/70/70 69/69/69 76/76/76
f 76/76/76 69/69/69 75/75/75
f 71/71/71 70/70/70 77/77/77
f 77/77/77 70/70/70 76/76/76
f 78/78/78 72/72/72 71/71/71
f 78/78/78 71/71/71 77/77/77
f 79/79/79 72/72/72 78/78/78
f 80/80/80 73/73/73 74/74/74
f 80/80/80 74/74/74 81/81/81
f 82/82/82 75/75/75 73/73/73
f 76/76/76 75/75/75 82/82/82
f 80/80/80 82/82/82 73/73/73
f 77/77/77 76/76/76 83/83/83
f 83/83/83 76/76/76 82/82/82
f 78/78/78 77/77/77 84/84/84
f 84/84/84 77/77/77 83/83/83
f 85/85/85 79/79/79 78/78/78
f 85/85/85 78/78/78 84/84/84
f 86/86/86 79/79/79 85/85/85
f 87/87/87 80/80/80 81/81/81
f 87/87/87 81/81/81 88/88/88
f 89/89/89 82/82/82 80/80/80
f 83/83/83 82/82/82 89/89/89
f 87/87/87 89/89/89 80/80/80
f 84/84/84 83/83/83 90/90/90
f 90/90/90 83/83/83 89/89/89
f 85/85/85 84/84/84 91/91/91
f 91/91/91 84/84/84 90/90/90
f 92/92/92 86/86/86 85/85/85
f 92/92/92 85/85/85 91/91/91
f 93/93/93 86/86/86 92/92/92
f 94/94/94 87/87/87 88/88/88
f 94/94/94 88/88/88 95/95/95
f 96/96/96 89/89/89 87/87/87
f 90/90/90 89/89/89 96/96/96
f 94/94/94 96/96/96 87/87/87
f 91/91/91 90/90/90 97/97/97
f 97/97/97 90/90/90 96/96/96
f 92/92/92 91/91/91 98/98/98
f 98/98/98 91/91/91 97/97/97
f 99/99/99 93/93/93 92/92/92
f 99/99/99 92/92/92 98/98/98
f 100/100/100 93/93/93 99/99/99
f 101/101/101 94/94/94 95/95/95
f 101/101/101 95/95/95 102/102/102
f 103/103/103 96/96/96 94/94/94
f 97/97/97 96/96/96 103/103/103
f 101/101/101 103/103/103 94/94/94
f 98/98/98 97/97/97 104/104/104
f 104/104/104 97/97/97 103/103/103
f 99/99/99 98/98/98 105/105/105
f 105/105/105 98/98/98 104/104/104
f 106/106/106 100/100/100 99/99/99
f 106/106/106 99/99/99 105/105/105
f 107/107/107 100/100/100 106/106/106
f 108/108/108 101/101/101 102/102/102
f 108/108/108 102/102/102 109/109/109
f 110/110/110 103/103/103 101/101/101
f 104/104/104 103/103/103 110/110/110
f 108/108/108 110/110/110 101/101/101
f 105/105/105 104/104/104 111/111/111
f 111/111/111 104/104/104 110/110/110
f 106/106/106 105/105/105 112/112/112
f 112/112/112 105/105/105 111/111/111
f 113/113/113 107/107/107 106/106/106
f 113/113/113 106/106/106 112/112/112
f 114/114/114 107/107/107 113/113/113
f 115/115/115 108/108/108 109/109/109
f 115/115/115 109/109/109 116/116/116
f 117/117/117 110/110/110 108/108/108
f 111/111/111 110/110/110 117/117/117
f 115/115/115 117/117/117 108/108/108
f 112/112/112 111/111/111 118/118/118
f 118/118/118 111/111/111 117/117/117
f 113/113/113 112/112/112 119/119/119
f 119/119/119 112/112/112 118/118/118
f 120/120/120 114/114/114 113/113/113
f 120/120/120 113/113/113 119/119/119
f 121/121/121 114/114/114 120/120/120
f 122/122/122 115/115/115 116/116/116
f 122/122/122 116/116/116 123/123/123
f 124/124/124 117/117/117 115/115/115
f 118/118/118 117/117/117 124/124/124
f 122/122/122 124/124/124 115/115/115
f 119/119/119 118/118/118 125/125/125
f 125/125/125 118/118/118 124/124/124
f 120/120/120 119/119/119 126/126/126
f 126/126/126 119/119/119 125/125/125
f 127/127/127 121/121/121 120/120/120
f 127/127/127 120/120/120 126/126/126
f 128/128/128 121/121/121 127/127/127
f 129/129/129 122/122/122 123/123/123
f 129/129/129 123/123/123 130/130/130
f 131/131/131 124/124/124 122/122/122
f 125/125/125 124/124/124 131/131/131
f 129/129/129 131/131/131 122/122/122
f 126/126/126 125/125/125 132/132/132
f 132/132/132 125/125/125 131/131/131
f 127/127/127 126/126/126 133/133/133
f 133/133/133 126/126/126 132/132/132
f 134/134/134 128/128/128 127/127/127
f 134/134/134 127/127/127 133/133/133
f 135/135/135 128/128/128 134/134/134
f 136/136/136 129/129/129 130/130/130
f 136/136/136 130/130/130 137/137/137
f 138/138/138 136/136/136 137/137/137
f 138/138/138 139/139/139 136/136/136
f 140/140/140 131/131/131 129/129/129
f 136/136/136 140/140/140 129/129/129
f 132/132/132 131/131/131 140/140/140
f 139/139/139 140/140/140 136/136/136
f 141/141/141 132/132/132 140/140/140
f 141/141/141 140/140/140 139/139/139
f 133/133/133 132/132/132 141/141/141
f 142/142/142 141/141/141 139/139/139
f 143/143/143 133/133/133 141/141/141
f 143/143/143 141/141/141 142/142/142
f 134/134/134 133/133/133 143/143/143
f 144/144/144 143/143/143 142/142/142
f 145/145/145 135/135/135 134/134/134
f 145/145/145 134/134/134 143/143/143
f 145/145/145 143/143/143 144/144/144
f 146/146/146 135/135/135 145/145/145
f 147/147/147 145/145/145 144/144/144
f 147/147/147 146/146/146 145/145/145
