g eff_106901_lh_Spiral_01
v 0.22024581 0.14800903 -0.7991993
v 0.23379424 0.15711395 -0.7579714
v 0.17651802 0.19813201 -0.7622256
v 0.18737659 0.21032013 -0.72099763
v 0.23846267 0.16025108 -0.71226835
v 0.121698946 0.23580559 -0.725252
v 0.19111812 0.2145198 -0.675295
v 0.23379421 0.15711395 -0.66656697
v 0.1291852 0.2503113 -0.6840233
v 0.059233062 0.25866255 -0.6882775
v 0.18737651 0.21032006 -0.6295932
v 0.22024578 0.14800918 -0.6253382
v 0.13176487 0.25530943 -0.6383209
v 0.0628768 0.27457443 -0.64704984
v -0.006954626 0.26526695 -0.65130454
v 0.17651798 0.19813198 -0.5883645
v 0.19914356 0.13382804 -0.59261894
v 0.12918532 0.2503111 -0.5926189
v 0.06413232 0.28005692 -0.6013473
v -0.0073824427 0.281585 -0.6100755
v -0.072705336 0.25520355 -0.6143302
v 0.1596054 0.1791486 -0.5556448
v 0.1698637 0.11415138 -0.5716117
v 0.1356575 0.15226837 -0.53463835
v 0.12169891 0.23580559 -0.55139023
v 0.10998903 0.21311645 -0.51867115
v 0.09328199 0.18074471 -0.4976641
v 0.0628768 0.27457416 -0.5556451
v -0.077177815 0.27090254 -0.5731021
v -0.13388777 0.2291048 -0.57735676
v -0.0075298506 0.2872075 -0.56437314
v 0.053451765 0.23341644 -0.48169738
v 0.045272626 0.19769935 -0.46069038
v 0.059233043 0.25866267 -0.5144164
v -0.14212374 0.24319805 -0.53612787
v -0.1866574 0.18861052 -0.5403824
v -0.078718886 0.27631164 -0.5273994
v -0.0073824427 0.28158492 -0.5186713
v -0.0062582283 0.23870452 -0.4447235
v -0.005294925 0.20196174 -0.42371646
v -0.006954619 0.26526695 -0.47744277
v -0.19813967 0.20021282 -0.49915394
v -0.22769876 0.13626517 -0.5034087
v -0.14496176 0.24805434 -0.49042556
v -0.0771778 0.27090254 -0.48169738
v -0.065106384 0.22853042 -0.40774977
v -0.055041187 0.19320045 -0.38674262
v -0.07270533 0.25520363 -0.44046867
v -0.2417057 0.1446476 -0.46218017
v -0.25443295 0.075357705 -0.46643502
v -0.20209613 0.20421077 -0.45345178
v -0.14212386 0.24319823 -0.44472343
v -0.118983686 0.20360145 -0.37077582
v -0.10053959 0.17204043 -0.3497687
v -0.13388766 0.2291048 -0.40349498
v -0.27008444 0.07999336 -0.42520636
v -0.26236755 0.009612274 -0.42946115
v -0.24653207 0.14753594 -0.41647807
v -0.19813961 0.20021285 -0.40774947
v -0.16407879 0.16579567 -0.33380195
v -0.13862021 0.14007059 -0.3127949
v -0.18588802 0.18783313 -0.3665211
v -0.27676082 0.01013958 -0.38823253
v -0.24867593 -0.05422844 -0.39248726
v -0.27477404 0.08138237 -0.379504
v -0.24170563 0.1446476 -0.3707757
v -0.19724494 0.118040234 -0.29682803
v -0.16666906 0.099742204 -0.275821
v -0.2233572 0.13366699 -0.32954708
v -0.26230016 -0.05719948 -0.35125846
v -0.2192781 -0.110294186 -0.3555133
v -0.2791274 0.010226288 -0.3425303
v -0.26507494 0.07850967 -0.333802
v -0.21631254 0.06406723 -0.25985414
v -0.18288441 0.054166526 -0.238847
v -0.24477479 0.072497174 -0.29257315
v -0.23121922 -0.11630045 -0.3142846
v -0.17736946 -0.15473919 -0.31853953
v -0.26463076 -0.057707652 -0.30555648
v -0.26945868 0.0098720165 -0.29682788
v -0.22030579 0.008071232 -0.22288018
v -0.18645321 0.0068309973 -0.20187311
v -0.24903986 0.009123955 -0.25559932
v -0.18692361 -0.16307434 -0.2773107
v -0.12707277 -0.18490474 -0.28156558
v -0.23332794 -0.11736105 -0.26858252
v -0.25563684 -0.055746403 -0.25985423
v -0.20953596 -0.045693208 -0.18590635
v -0.17762505 -0.038734436 -0.16489929
v -0.23652646 -0.051579017 -0.21862547
v -0.13381138 -0.19471008 -0.24033698
v -0.07301157 -0.19953339 -0.2445916
v -0.18867281 -0.16460034 -0.23160852
v -0.22558922 -0.11346859 -0.22288029
v -0.18555355 -0.09333113 -0.14893249
v -0.15767026 -0.07930616 -0.12792547
v -0.20903282 -0.10514087 -0.18165168
v -0.076808006 -0.20990878 -0.20336296
v -0.019839656 -0.19883285 -0.20761776
v -0.13511497 -0.19660687 -0.19463468
v -0.1826247 -0.15932404 -0.18590641
v -0.15096141 -0.1317006 -0.11195864
v -0.12871833 -0.11229546 -0.09095162
v -0.16957316 -0.14793766 -0.14467767
v -0.020850753 -0.20896581 -0.16638914
v 0.028220152 -0.18437973 -0.17064396
v -0.077621795 -0.21213274 -0.15766089
v -0.1310113 -0.19063582 -0.14893247
v -0.10909534 -0.15874557 -0.07498476
v -0.093481675 -0.13602601 -0.053977717
v -0.1220267 -0.17756218 -0.107703894
v 0.029649243 -0.1937165 -0.12941544
v 0.06777409 -0.15888 -0.13367006
v -0.021116499 -0.21162844 -0.12068697
v -0.075486474 -0.20629716 -0.111958615
v -0.06357687 -0.17374928 -0.038010903
v -0.054862067 -0.14993268 -0.017003918
v -0.07065838 -0.19310252 -0.070730135
v 0.071518205 -0.16765705 -0.0924414
v 0.09654694 -0.12581399 -0.09669617
v 0.03020737 -0.19736332 -0.08371315
v -0.020650515 -0.20695877 -0.0749847
v -0.017526686 -0.17565161 -0.0010370445
v -0.015043046 -0.15076075 0.019969977
v -0.019453805 -0.19496545 -0.033756196
v 0.10248601 -0.13355346 -0.055467606
v 0.11559465 -0.09063175 -0.059722327
v 0.12270555 -0.09620712 -0.018493729
v 0.0730628 -0.17127809 -0.046739236
v 0.029660085 -0.19378772 -0.038010903
v 0.104532465 -0.1362203 -0.009765387
v 0.12515575 -0.09812806 0.02720849
v 0.025097616 -0.16397846 0.03593685
v 0.021586018 -0.14103499 0.056943808
v 0.027899701 -0.18228589 0.0032176399
v 0.07163248 -0.16792499 -0.0010370255
v 0.10248598 -0.13355343 0.035936832
v 0.122705445 -0.09620693 0.07291067
v 0.06737356 -0.15794094 0.040191535
v 0.060769185 -0.14245853 0.072910726
v 0.052404597 -0.122849844 0.093917675
v 0.09654694 -0.12581398 0.07716545
v 0.11559463 -0.09063173 0.11413925
v 0.08729658 -0.11375948 0.10988458
v 0.075640365 -0.09856975 0.13089159
v 0.104519285 -0.08194819 0.1468583
v 0.09056345 -0.07100603 0.16786547
vt 1 0
vt 0.8330078 0
vt 1 0.05029297
vt 0.8330078 0.05029297
vt 0.6665039 0
vt 1 0.100097656
vt 0.6665039 0.05029297
vt 0.5 0
vt 0.8330078 0.100097656
vt 1 0.14990234
vt 0.5 0.05029297
vt 0.33325195 0
vt 0.6665039 0.100097656
vt 0.8330078 0.14990234
vt 1 0.20019531
vt 0.33325195 0.05029297
vt 0.16662598 0
vt 0.5 0.100097656
vt 0.6665039 0.14990234
vt 0.8330078 0.20019531
vt 1 0.25
vt 0.16662598 0.05029297
vt 4.172325E-07 0
vt 4.172325E-07 0.05029297
vt 0.33325195 0.100097656
vt 0.16662598 0.100097656
vt 4.172325E-07 0.100097656
vt 0.5 0.14990234
vt 0.8330078 0.25
vt 1 0.2998047
vt 0.6665039 0.20019531
vt 0.16662598 0.14990234
vt 4.172325E-07 0.14990234
vt 0.33325195 0.14990234
vt 0.8330078 0.2998047
vt 1 0.35009766
vt 0.6665039 0.25
vt 0.5 0.20019531
vt 0.16662598 0.20019531
vt 4.172325E-07 0.20019531
vt 0.33325195 0.20019531
vt 0.8330078 0.35009766
vt 1 0.39990234
vt 0.6665039 0.2998047
vt 0.5 0.25
vt 0.16662598 0.25
vt 4.172325E-07 0.25
vt 0.33325195 0.25
vt 0.8330078 0.39990234
vt 1 0.4501953
vt 0.6665039 0.35009766
vt 0.5 0.2998047
vt 0.16662598 0.2998047
vt 4.172325E-07 0.2998047
vt 0.33325195 0.2998047
vt 0.8330078 0.4501953
vt 1 0.5
vt 0.6665039 0.39990234
vt 0.5 0.35009766
vt 0.16662598 0.35009766
vt 4.172325E-07 0.35009766
vt 0.33325195 0.35009766
vt 0.8330078 0.5
vt 1 0.5498047
vt 0.6665039 0.4501953
vt 0.5 0.39990234
vt 0.16662598 0.39990234
vt 4.172325E-07 0.39990234
vt 0.33325195 0.39990234
vt 0.8330078 0.5498047
vt 1 0.5996094
vt 0.6665039 0.5
vt 0.5 0.4501953
vt 0.16662598 0.4501953
vt 4.172325E-07 0.4501953
vt 0.33325195 0.4501953
vt 0.8330078 0.5996094
vt 1 0.64990234
vt 0.6665039 0.5498047
vt 0.5 0.5
vt 0.16662598 0.5
vt 4.172325E-07 0.5
vt 0.33325195 0.5
vt 0.8330078 0.64990234
vt 1 0.69970703
vt 0.6665039 0.5996094
vt 0.5 0.5498047
vt 0.16662598 0.5498047
vt 4.172325E-07 0.5498047
vt 0.33325195 0.5498047
vt 0.8330078 0.69970703
vt 1 0.75
vt 0.6665039 0.64990234
vt 0.5 0.5996094
vt 0.16662598 0.5996094
vt 4.172325E-07 0.5996094
vt 0.33325195 0.5996094
vt 0.8330078 0.75
vt 1 0.7998047
vt 0.6665039 0.69970703
vt 0.5 0.64990234
vt 0.16662598 0.64990234
vt 4.172325E-07 0.64990234
vt 0.33325195 0.64990234
vt 0.8330078 0.7998047
vt 1 0.8496094
vt 0.6665039 0.75
vt 0.5 0.69970703
vt 0.16662598 0.69970703
vt 4.172325E-07 0.69970703
vt 0.33325195 0.69970703
vt 0.8330078 0.8496094
vt 1 0.89990234
vt 0.6665039 0.7998047
vt 0.5 0.75
vt 0.16662598 0.75
vt 4.172325E-07 0.75
vt 0.33325195 0.75
vt 0.8330078 0.89990234
vt 1 0.94970703
vt 0.6665039 0.8496094
vt 0.5 0.7998047
vt 0.16662598 0.7998047
vt 4.172325E-07 0.7998047
vt 0.33325195 0.7998047
vt 0.8330078 0.94970703
vt 1 1
vt 0.8330078 1
vt 0.6665039 0.89990234
vt 0.5 0.8496094
vt 0.6665039 0.94970703
vt 0.6665039 1
vt 0.16662598 0.8496094
vt 4.172325E-07 0.8496094
vt 0.33325195 0.8496094
vt 0.5 0.89990234
vt 0.5 0.94970703
vt 0.5 1
vt 0.33325195 0.89990234
vt 0.16662598 0.89990234
vt 4.172325E-07 0.89990234
vt 0.33325195 0.94970703
vt 0.33325195 1
vt 0.16662598 0.94970703
vt 4.172325E-07 0.94970703
vt 0.16662598 1
vt 4.172325E-07 1
vn 0.55813885 0.74680555 -0.36161107
vn 0.6284424 0.7305643 -0.26708797
vn 0.48770544 0.79448783 -0.36184594
vn 0.54990405 0.80128884 -0.23567317
vn 0.7413535 0.6703728 -0.031546954
vn 0.275753 0.8902883 -0.36241826
vn 0.66240364 0.74914706 0
vn 0.8033489 0.5591938 0.2047752
vn 0.330801 0.91364074 -0.23628645
vn 0.03944842 0.93098277 -0.36292544
vn 0.7327152 0.6381713 0.23635973
vn 0.8105966 0.3856236 0.4407127
vn 0.45663625 0.8896535 0
vn 0.09435957 0.9671856 -0.23589893
vn -0.18886518 0.91284835 -0.36199158
vn 0.75475997 0.4638629 0.4638629
vn 0.74779975 0.11807364 0.6533408
vn 0.54990405 0.80128884 0.23567317
vn 0.22026089 0.975441 0
vn -0.14953215 0.9601539 -0.2361034
vn -0.41037852 0.8365409 -0.36302716
vn 0.71758175 0.18925235 0.6702686
vn 0.6603538 -0.07861354 0.7468286
vn 0.66238314 0.007885513 0.7491237
vn 0.61423033 0.6378546 0.46461016
vn 0.64534926 0.35415512 0.67682976
vn 0.6352013 0.17252383 0.7528312
vn 0.330801 0.91364074 0.23628645
vn -0.37712362 0.89566857 -0.23570229
vn -0.6059987 0.70831025 -0.3620252
vn -0.02361546 0.9997211 0
vn 0.53564894 0.5041402 0.67743844
vn 0.5730825 0.32186824 0.75364274
vn 0.4407263 0.763401 0.47220677
vn -0.59055114 0.77165353 -0.23622048
vn -0.76330644 0.53510135 -0.36198038
vn -0.27576154 0.96122605 0
vn 0.09435957 0.9671856 0.23589893
vn 0.395532 0.6170299 0.680315
vn 0.4733811 0.449712 0.7574097
vn 0.2359646 0.8494725 0.4719292
vn -0.76482344 0.5992431 -0.2365433
vn -0.87207144 0.32997298 -0.36139902
vn -0.50289357 0.86434835 0
vn -0.14953215 0.9601539 0.2361034
vn 0.2368897 0.68698007 0.68698007
vn 0.34577134 0.5579492 0.7544102
vn 0.023679374 0.87613684 0.48148057
vn -0.8913956 0.38653442 -0.2366537
vn -0.9308379 0.08677302 -0.3549806
vn -0.7031455 0.711046 0
vn -0.37712362 0.89566857 0.23570229
vn 0.06307038 0.7174256 0.6937742
vn 0.19617048 0.62774545 0.7532946
vn -0.18850945 0.8482925 0.49483728
vn -0.9663196 0.13355635 -0.21997517
vn -0.9227198 -0.19716233 -0.33123276
vn -0.85885364 0.51216036 0.00787939
vn -0.5882941 0.7687043 0.25100544
vn -0.11833789 0.7021382 0.7021382
vn 0.03150388 0.6537055 0.756093
vn -0.38538498 0.762905 0.51908994
vn -0.9692253 -0.1575976 -0.18911712
vn -0.83485276 -0.45680627 -0.3071628
vn -0.9667076 0.25150114 0.047156468
vn -0.75401455 0.5890739 0.29060978
vn -0.2995843 0.6464713 0.701658
vn -0.14197895 0.6467931 0.74933344
vn -0.56016755 0.63117474 0.5364985
vn -0.89161766 -0.41819236 -0.1735893
vn -0.6879244 -0.66420287 -0.29256552
vn -0.9970065 -0.031401776 0.07065399
vn -0.87431395 0.3623283 0.3229448
vn -0.46462455 0.55124944 0.69299936
vn -0.30668756 0.5897838 0.7470595
vn -0.7065618 0.4553398 0.5416974
vn -0.74662095 -0.64445186 -0.16504252
vn -0.48871952 -0.8276702 -0.27589005
vn -0.951665 -0.29887 0.07078499
vn -0.93966246 0.11054853 0.32374924
vn -0.59991485 0.41046807 0.6867447
vn -0.44986603 0.4972204 0.74188435
vn -0.8111997 0.25202325 0.5276736
vn -0.55140334 -0.81922793 -0.15754384
vn -0.25269023 -0.9317952 -0.26058677
vn -0.83596843 -0.54416806 0.07097845
vn -0.93951595 -0.15000676 0.3079086
vn -0.6935156 0.24430662 0.6777539
vn -0.5754279 0.3625984 0.7330793
vn -0.8551717 0.023536833 0.51781034
vn -0.3079086 -0.93951595 -0.15000676
vn -0 -0.96967703 -0.24439014
vn -0.6527344 -0.75496995 0.06291416
vn -0.86773026 -0.40231133 0.29187292
vn -0.74830997 0.047261678 0.6616635
vn -0.66004777 0.20430051 0.7229095
vn -0.8387579 -0.21164921 0.50168693
vn -0.039253432 -0.98918647 -0.14131233
vn 0.2606111 -0.9397796 -0.2211246
vn -0.42439508 -0.90380436 0.055014182
vn -0.7253095 -0.6307038 0.27593288
vn -0.7440659 -0.15831189 0.6490788
vn -0.70305765 0.01579905 0.7109573
vn -0.7605563 -0.43908396 0.47828797
vn 0.22916487 -0.96407294 -0.13433802
vn 0.5050026 -0.83641076 -0.21304801
vn -0.1578674 -0.98667127 0.03946685
vn -0.5276736 -0.8111997 0.25202325
vn -0.6859757 -0.36269978 0.63078225
vn -0.69937956 -0.18073855 0.69152147
vn -0.6204146 -0.64397466 0.44764093
vn 0.4866226 -0.86336267 -0.13342877
vn 0.71536106 -0.6681943 -0.20438886
vn 0.118179865 -0.9927108 0.023635972
vn -0.28456938 -0.9327553 0.22133175
vn -0.5742871 -0.55068624 0.6057549
vn -0.63235676 -0.3715096 0.67978346
vn -0.42519692 -0.8031496 0.41732287
vn 0.70780617 -0.69207716 -0.14156121
vn 0.86894774 -0.45027292 -0.20538764
vn 0.3929584 -0.9195226 0.007859169
vn -0.01571106 -0.9819412 0.18853271
vn -0.3925343 -0.70656174 0.5888015
vn -0.51268595 -0.53634834 0.6704354
vn -0.18095656 -0.90478283 0.38551614
vn 0.86665237 -0.48059815 -0.13393718
vn 0.9308379 -0.30764982 -0.19721143
vn 0.9155454 -0.38673902 -0.11049686
vn 0.63708466 -0.7707938 0
vn 0.2684582 -0.9474997 0.17370827
vn 0.81213206 -0.58347356 0
vn 0.8675144 -0.49684912 0.023659484
vn -0.18149664 -0.797007 0.5760546
vn -0.3542209 -0.6690839 0.65334076
vn 0.094744064 -0.9237546 0.37108088
vn 0.5276245 -0.8347492 0.15749985
vn 0.729889 -0.6671029 0.14911711
vn 0.7852622 -0.5967993 0.16490506
vn 0.35508 -0.8679733 0.34718937
vn 0.055260483 -0.8368016 0.5447104
vn -0.1494165 -0.7628106 0.62912214
vn 0.5730825 -0.75364274 0.32186824
vn 0.6208743 -0.7073252 0.33794418
vn 0.28345573 -0.81099856 0.5117951
vn 0.06276875 -0.80030155 0.5963032
vn 0.29197285 -0.797007 0.52870756
vn 0.14140391 -0.8012888 0.5813272
g eff_106901_lh_Spiral_01_0
f 3/3/3 2/2/2 1/1/1
f 3/3/3 4/4/4 2/2/2
f 2/2/2 4/4/4 5/5/5
f 6/6/6 4/4/4 3/3/3
f 5/5/5 4/4/4 7/7/7
f 5/5/5 7/7/7 8/8/8
f 6/6/6 9/9/9 4/4/4
f 9/9/9 7/7/7 4/4/4
f 10/10/10 9/9/9 6/6/6
f 8/8/8 7/7/7 11/11/11
f 8/8/8 11/11/11 12/12/12
f 7/7/7 9/9/9 13/13/13
f 13/13/13 11/11/11 7/7/7
f 9/9/9 10/10/10 14/14/14
f 14/14/14 13/13/13 9/9/9
f 15/15/15 14/14/14 10/10/10
f 12/12/12 11/11/11 16/16/16
f 16/16/16 17/17/17 12/12/12
f 11/11/11 13/13/13 18/18/18
f 11/11/11 18/18/18 16/16/16
f 13/13/13 14/14/14 19/19/19
f 19/19/19 18/18/18 13/13/13
f 14/14/14 15/15/15 20/20/20
f 20/20/20 19/19/19 14/14/14
f 21/21/21 20/20/20 15/15/15
f 17/17/17 16/16/16 22/22/22
f 23/23/23 17/17/17 22/22/22
f 22/22/22 24/24/24 23/23/23
f 16/16/16 18/18/18 25/25/25
f 22/22/22 16/16/16 25/25/25
f 22/22/22 26/26/26 24/24/24
f 25/25/25 26/26/26 22/22/22
f 26/26/26 27/27/27 24/24/24
f 18/18/18 19/19/19 28/28/28
f 18/18/18 28/28/28 25/25/25
f 20/20/20 21/21/21 29/29/29
f 30/30/30 29/29/29 21/21/21
f 19/19/19 20/20/20 31/31/31
f 31/31/31 28/28/28 19/19/19
f 29/29/29 31/31/31 20/20/20
f 32/32/32 27/27/27 26/26/26
f 33/33/33 27/27/27 32/32/32
f 26/26/26 25/25/25 34/34/34
f 28/28/28 34/34/34 25/25/25
f 34/34/34 32/32/32 26/26/26
f 29/29/29 30/30/30 35/35/35
f 35/35/35 30/30/30 36/36/36
f 31/31/31 29/29/29 37/37/37
f 35/35/35 37/37/37 29/29/29
f 28/28/28 31/31/31 38/38/38
f 28/28/28 38/38/38 34/34/34
f 37/37/37 38/38/38 31/31/31
f 39/39/39 33/33/33 32/32/32
f 40/40/40 33/33/33 39/39/39
f 41/41/41 32/32/32 34/34/34
f 38/38/38 41/41/41 34/34/34
f 41/41/41 39/39/39 32/32/32
f 36/36/36 42/42/42 35/35/35
f 42/42/42 36/36/36 43/43/43
f 37/37/37 35/35/35 44/44/44
f 42/42/42 44/44/44 35/35/35
f 38/38/38 37/37/37 45/45/45
f 38/38/38 45/45/45 41/41/41
f 44/44/44 45/45/45 37/37/37
f 46/46/46 40/40/40 39/39/39
f 40/40/40 46/46/46 47/47/47
f 48/48/48 39/39/39 41/41/41
f 45/45/45 48/48/48 41/41/41
f 48/48/48 46/46/46 39/39/39
f 43/43/43 49/49/49 42/42/42
f 49/49/49 43/43/43 50/50/50
f 44/44/44 42/42/42 51/51/51
f 49/49/49 51/51/51 42/42/42
f 45/45/45 44/44/44 52/52/52
f 45/45/45 52/52/52 48/48/48
f 51/51/51 52/52/52 44/44/44
f 47/47/47 46/46/46 53/53/53
f 53/53/53 54/54/54 47/47/47
f 55/55/55 46/46/46 48/48/48
f 52/52/52 55/55/55 48/48/48
f 55/55/55 53/53/53 46/46/46
f 50/50/50 56/56/56 49/49/49
f 56/56/56 50/50/50 57/57/57
f 49/49/49 58/58/58 51/51/51
f 56/56/56 58/58/58 49/49/49
f 52/52/52 51/51/51 59/59/59
f 52/52/52 59/59/59 55/55/55
f 58/58/58 59/59/59 51/51/51
f 54/54/54 53/53/53 60/60/60
f 60/60/60 61/61/61 54/54/54
f 62/62/62 53/53/53 55/55/55
f 59/59/59 62/62/62 55/55/55
f 60/60/60 53/53/53 62/62/62
f 57/57/57 63/63/63 56/56/56
f 64/64/64 63/63/63 57/57/57
f 56/56/56 65/65/65 58/58/58
f 63/63/63 65/65/65 56/56/56
f 58/58/58 66/66/66 59/59/59
f 59/59/59 66/66/66 62/62/62
f 65/65/65 66/66/66 58/58/58
f 61/61/61 60/60/60 67/67/67
f 67/67/67 68/68/68 61/61/61
f 69/69/69 60/60/60 62/62/62
f 69/69/69 62/62/62 66/66/66
f 67/67/67 60/60/60 69/69/69
f 64/64/64 70/70/70 63/63/63
f 71/71/71 70/70/70 64/64/64
f 63/63/63 72/72/72 65/65/65
f 70/70/70 72/72/72 63/63/63
f 65/65/65 73/73/73 66/66/66
f 73/73/73 69/69/69 66/66/66
f 72/72/72 73/73/73 65/65/65
f 68/68/68 67/67/67 74/74/74
f 74/74/74 75/75/75 68/68/68
f 67/67/67 69/69/69 76/76/76
f 76/76/76 69/69/69 73/73/73
f 76/76/76 74/74/74 67/67/67
f 71/71/71 77/77/77 70/70/70
f 71/71/71 78/78/78 77/77/77
f 70/70/70 79/79/79 72/72/72
f 77/77/77 79/79/79 70/70/70
f 72/72/72 80/80/80 73/73/73
f 80/80/80 76/76/76 73/73/73
f 79/79/79 80/80/80 72/72/72
f 74/74/74 81/81/81 75/75/75
f 81/81/81 82/82/82 75/75/75
f 83/83/83 74/74/74 76/76/76
f 83/83/83 76/76/76 80/80/80
f 74/74/74 83/83/83 81/81/81
f 84/84/84 77/77/77 78/78/78
f 78/78/78 85/85/85 84/84/84
f 77/77/77 86/86/86 79/79/79
f 77/77/77 84/84/84 86/86/86
f 79/79/79 87/87/87 80/80/80
f 87/87/87 83/83/83 80/80/80
f 86/86/86 87/87/87 79/79/79
f 88/88/88 82/82/82 81/81/81
f 89/89/89 82/82/82 88/88/88
f 90/90/90 81/81/81 83/83/83
f 90/90/90 83/83/83 87/87/87
f 81/81/81 90/90/90 88/88/88
f 91/91/91 84/84/84 85/85/85
f 91/91/91 85/85/85 92/92/92
f 93/93/93 86/86/86 84/84/84
f 93/93/93 84/84/84 91/91/91
f 86/86/86 94/94/94 87/87/87
f 94/94/94 90/90/90 87/87/87
f 93/93/93 94/94/94 86/86/86
f 95/95/95 89/89/89 88/88/88
f 96/96/96 89/89/89 95/95/95
f 97/97/97 88/88/88 90/90/90
f 97/97/97 90/90/90 94/94/94
f 88/88/88 97/97/97 95/95/95
f 98/98/98 91/91/91 92/92/92
f 98/98/98 92/92/92 99/99/99
f 100/100/100 93/93/93 91/91/91
f 100/100/100 91/91/91 98/98/98
f 93/93/93 101/101/101 94/94/94
f 101/101/101 97/97/97 94/94/94
f 101/101/101 93/93/93 100/100/100
f 102/102/102 96/96/96 95/95/95
f 96/96/96 102/102/102 103/103/103
f 104/104/104 95/95/95 97/97/97
f 104/104/104 97/97/97 101/101/101
f 95/95/95 104/104/104 102/102/102
f 105/105/105 98/98/98 99/99/99
f 99/99/99 106/106/106 105/105/105
f 107/107/107 100/100/100 98/98/98
f 107/107/107 98/98/98 105/105/105
f 108/108/108 101/101/101 100/100/100
f 108/108/108 104/104/104 101/101/101
f 108/108/108 100/100/100 107/107/107
f 103/103/103 102/102/102 109/109/109
f 103/103/103 109/109/109 110/110/110
f 111/111/111 102/102/102 104/104/104
f 111/111/111 104/104/104 108/108/108
f 102/102/102 111/111/111 109/109/109
f 112/112/112 105/105/105 106/106/106
f 106/106/106 113/113/113 112/112/112
f 114/114/114 107/107/107 105/105/105
f 105/105/105 112/112/112 114/114/114
f 115/115/115 108/108/108 107/107/107
f 115/115/115 111/111/111 108/108/108
f 115/115/115 107/107/107 114/114/114
f 110/110/110 109/109/109 116/116/116
f 110/110/110 116/116/116 117/117/117
f 118/118/118 109/109/109 111/111/111
f 111/111/111 115/115/115 118/118/118
f 109/109/109 118/118/118 116/116/116
f 119/119/119 112/112/112 113/113/113
f 113/113/113 120/120/120 119/119/119
f 121/121/121 114/114/114 112/112/112
f 112/112/112 119/119/119 121/121/121
f 122/122/122 115/115/115 114/114/114
f 122/122/122 118/118/118 115/115/115
f 121/121/121 122/122/122 114/114/114
f 117/117/117 116/116/116 123/123/123
f 123/123/123 124/124/124 117/117/117
f 125/125/125 116/116/116 118/118/118
f 118/118/118 122/122/122 125/125/125
f 116/116/116 125/125/125 123/123/123
f 119/119/119 120/120/120 126/126/126
f 120/120/120 127/127/127 126/126/126
f 126/126/126 127/127/127 128/128/128
f 129/129/129 121/121/121 119/119/119
f 119/119/119 126/126/126 129/129/129
f 122/122/122 121/121/121 130/130/130
f 130/130/130 125/125/125 122/122/122
f 121/121/121 129/129/129 130/130/130
f 126/126/126 128/128/128 131/131/131
f 129/129/129 126/126/126 131/131/131
f 131/131/131 128/128/128 132/132/132
f 124/124/124 123/123/123 133/133/133
f 133/133/133 134/134/134 124/124/124
f 135/135/135 123/123/123 125/125/125
f 125/125/125 130/130/130 135/135/135
f 123/123/123 135/135/135 133/133/133
f 136/136/136 130/130/130 129/129/129
f 129/129/129 131/131/131 136/136/136
f 136/136/136 135/135/135 130/130/130
f 131/131/131 132/132/132 137/137/137
f 137/137/137 136/136/136 131/131/131
f 137/137/137 132/132/132 138/138/138
f 135/135/135 136/136/136 139/139/139
f 139/139/139 133/133/133 135/135/135
f 136/136/136 137/137/137 139/139/139
f 134/134/134 133/133/133 140/140/140
f 133/133/133 139/139/139 140/140/140
f 134/134/134 140/140/140 141/141/141
f 137/137/137 138/138/138 142/142/142
f 142/142/142 139/139/139 137/137/137
f 140/140/140 139/139/139 142/142/142
f 142/142/142 138/138/138 143/143/143
f 141/141/141 140/140/140 144/144/144
f 140/140/140 142/142/142 144/144/144
f 142/142/142 143/143/143 144/144/144
f 141/141/141 144/144/144 145/145/145
f 144/144/144 143/143/143 146/146/146
f 145/145/145 144/144/144 146/146/146
f 145/145/145 146/146/146 147/147/147
