g eff_101801_dml_slash_01
v -0.59237695 3.1292439E-07 -2.6961532
v -0.00256497 3.1292439E-07 -2.6876504
v -0.0004862957 -0.23323655 -3.7120464
v -0.63802284 -0.2345312 -3.722177
v -1.1664625 2.9802322E-07 -2.6588187
v -7.003546E-07 -0.5014301 -4.769703
v -1.2934105 -0.23593542 -3.6869092
v -1.7566141 2.9802322E-07 -2.601275
v -0.7035072 -0.50282025 -4.783848
v -0 -0.7132865 -5.447143
v -0.7523367 -0.71328723 -5.438508
v -1.4602194 -0.50282025 -4.731056
v -1.5768276 -0.71328723 -5.347761
v -2.004508 -0.23593542 -3.5963442
v -2.3467777 2.682209E-07 -2.4939797
v -2.2732532 -0.5028203 -4.592896
v -2.4426808 -0.7132873 -5.1714306
v -2.7111478 -0.23593545 -3.44624
v -2.9429643 2.3841858E-07 -2.3316116
v -3.0877845 -0.5028204 -4.3841505
v -3.3199186 -0.71328735 -4.9234447
v -3.4155989 -0.2359355 -3.2319913
v -3.534295 1.6391277E-07 -2.1114526
v -3.888486 -0.5028205 -4.1123986
v -4.1810303 -0.7132874 -4.6143355
v -4.114359 -0.23593555 -2.9499128
v -4.104281 1.4901161E-07 -1.8356261
v -4.66961 -0.5028205 -3.7737744
v -5.005172 -0.7132875 -4.243548
v -4.786908 -0.23593563 -2.6032844
v -4.6359653 1.1920929E-07 -1.5087361
v -5.4213705 -0.50282097 -3.365356
v -5.7913127 -0.7132876 -3.8032131
v -5.4136887 -0.23593569 -2.1954923
v -5.121175 1.4901161E-08 -1.1331172
v -6.1253653 -0.502821 -2.8884475
v -6.5298457 -0.71328866 -3.29147
v -5.9792275 -0.23593576 -1.7300482
v -5.551342 -7.4505806E-08 -0.712476
v -6.767467 -0.5028212 -2.3450594
v -7.213969 -0.7132888 -2.7114677
v -6.479363 -0.23593582 -1.208199
v -5.915793 -1.0430813E-07 -0.25698262
v -7.3367963 -0.50282145 -1.7388346
v -7.8261266 -0.7132889 -2.0616515
v -6.913764 -0.23593591 -0.6433749
v -6.2035613 -1.937151E-07 0.22776999
v -7.831817 -0.50282156 -1.072086
v -8.3471775 -0.713289 -1.34064
v -7.2561703 -0.23593602 -0.036449283
v -6.4127464 -2.3841858E-07 0.72848135
v -8.230763 -0.5028217 -0.34436095
v -8.767679 -0.71328926 -0.547379
v -7.5072484 -0.23593608 0.59784347
v -6.522434 -3.2782555E-07 1.2389476
v -8.527668 -0.5028219 0.42889842
v -9.077646 -0.7132894 0.30465376
v -7.645007 -0.23593618 1.249835
v -6.520592 -3.427267E-07 1.7462149
v -8.709702 -0.5028222 1.2348738
v -9.270177 -0.7132895 1.1970326
v -7.6545734 -0.23593624 1.903258
v -6.4109154 -4.3213367E-07 2.2430487
v -8.753746 -0.5028231 2.049443
v -9.337084 -0.71328974 2.107541
v -7.5299506 -0.2359363 2.5443964
v -6.1802626 -4.61936E-07 2.715466
v -7.26512 -0.23593634 3.159087
v -8.624558 -0.50282323 2.8424644
v -9.253108 -0.71328986 3.00858
v -8.334781 -0.50282335 3.6056836
v -8.955927 -0.71329 3.8598714
v -0.7523367 0.713289 -5.438508
v -0 0.7132891 -5.447143
v -7.003546E-07 0.5014342 -4.769703
v -0.7035072 0.50282323 -4.783848
v -1.5768276 0.713289 -5.347761
v -0.0004862957 0.23323742 -3.7120464
v -1.4602194 0.50282323 -4.731056
v -2.4426808 0.71328896 -5.1714306
v -0.6380231 0.23453201 -3.722177
v -0.00256497 3.1292439E-07 -2.6876504
v -0.59237695 3.1292439E-07 -2.6961532
v -1.2934105 0.2359362 -3.6869092
v -1.1664625 2.9802322E-07 -2.6588187
v -2.2732532 0.5028231 -4.592896
v -3.3199186 0.7132889 -4.9234447
v -2.004508 0.23593616 -3.5963442
v -1.7566141 2.9802322E-07 -2.601275
v -3.0877845 0.5028231 -4.38415
v -4.1810303 0.71328884 -4.6143355
v -2.7111478 0.23593614 -3.44624
v -2.3467777 2.682209E-07 -2.4939797
v -3.888486 0.502823 -4.1123986
v -5.005172 0.7132888 -4.243548
v -3.4155989 0.2359361 -3.2319913
v -2.9429643 2.3841858E-07 -2.3316116
v -4.66961 0.5028227 -3.7737744
v -5.7913127 0.71328855 -3.8032131
v -4.114359 0.23593605 -2.9499128
v -3.534295 1.6391277E-07 -2.1114526
v -5.4213705 0.5028221 -3.365356
v -6.5298457 0.7132884 -3.29147
v -4.786908 0.23593596 -2.6032841
v -4.104281 1.4901161E-07 -1.8356261
v -6.1253653 0.5028218 -2.8884473
v -7.213969 0.7132883 -2.7114677
v -5.4136887 0.2359359 -2.195492
v -4.6359653 1.1920929E-07 -1.5087361
v -6.767467 0.5028216 -2.3450594
v -7.8261266 0.7132882 -2.0616515
v -5.9792275 0.23593584 -1.7300482
v -5.121175 1.4901161E-08 -1.1331172
v -7.3367963 0.5028215 -1.7388345
v -8.3471775 0.71328807 -1.34064
v -6.479363 0.23593576 -1.2081989
v -5.551342 -7.4505806E-08 -0.712476
v -7.831817 0.5028213 -1.072086
v -8.767679 0.71328783 -0.547379
v -6.913764 0.23593566 -0.6433748
v -5.915793 -1.0430813E-07 -0.25698262
v -8.230763 0.5028211 -0.34436095
v -9.077646 0.7132877 0.30465376
v -7.2561703 0.23593558 -0.036449283
v -6.2035613 -1.937151E-07 0.22776999
v -8.527668 0.5028209 0.42889854
v -9.270177 0.71328664 1.1970326
v -7.507249 0.23593554 0.5978436
v -6.4127464 -2.3841858E-07 0.72848135
v -8.709702 0.5028205 1.2348738
v -9.337084 0.7132865 2.107541
v -7.645007 0.23593543 1.2498351
v -6.522434 -3.2782555E-07 1.2389476
v -8.753746 0.5028204 2.049443
v -9.253108 0.7132864 3.00858
v -7.6545744 0.23593535 1.9032581
v -6.520592 -3.427267E-07 1.7462149
v -8.624558 0.5028202 2.8424644
v -8.955927 0.7132856 3.8598714
v -8.334781 0.50282013 3.6056836
v -7.5299506 0.2359353 2.5443969
v -6.4109154 -4.3213367E-07 2.2430487
v -7.26512 0.23593524 3.159087
v -6.1802626 -4.61936E-07 2.715466
vt 1 0.059012953
vt 1 5.9604645E-08
vt 0.8333334 5.9604645E-08
vt 0.8333333 0.059012953
vt 1 0.11802596
vt 0.6666667 5.9604645E-08
vt 0.8333333 0.11802581
vt 1 0.17703885
vt 0.6666667 0.059012953
vt 0.50000006 5.9604645E-08
vt 0.5 0.059012953
vt 0.6666667 0.11802581
vt 0.5 0.11802581
vt 0.8333333 0.17703885
vt 1 0.23605171
vt 0.6666667 0.17703885
vt 0.5 0.17703885
vt 0.8333333 0.23605171
vt 1 0.29506475
vt 0.6666667 0.23605171
vt 0.5 0.23605171
vt 0.8333333 0.29506475
vt 1 0.35407764
vt 0.6666667 0.29506457
vt 0.5 0.29506475
vt 0.8333333 0.35407764
vt 1 0.4130907
vt 0.6666667 0.35407764
vt 0.5 0.35407764
vt 0.8333333 0.4130907
vt 1 0.4721035
vt 0.6666667 0.4130905
vt 0.5 0.4130905
vt 0.8333333 0.4721035
vt 1 0.53111655
vt 0.6666667 0.4721035
vt 0.5 0.4721035
vt 0.8333333 0.5311164
vt 1 0.59012944
vt 0.6666667 0.5311164
vt 0.5 0.5311164
vt 0.8333333 0.59012944
vt 1 0.64911616
vt 0.6666667 0.59012944
vt 0.5 0.59012944
vt 0.8333333 0.649116
vt 1 0.7077968
vt 0.6666667 0.649116
vt 0.5 0.649116
vt 0.8333333 0.7077968
vt 1 0.76619047
vt 0.6666667 0.7077968
vt 0.5 0.7077968
vt 0.8333333 0.76619047
vt 1 0.8244777
vt 0.6666667 0.76619035
vt 0.5 0.76619035
vt 0.8333333 0.8244777
vt 1 0.8828669
vt 0.6666667 0.8244777
vt 0.5 0.8244777
vt 0.8333333 0.8828667
vt 1 0.9412995
vt 0.6666667 0.8828667
vt 0.5 0.8828667
vt 0.8333333 0.9412995
vt 1 1.0000998
vt 0.8333333 1.0000995
vt 0.6666667 0.9412995
vt 0.5 0.9412995
vt 0.6666667 1.0000995
vt 0.5 1.0000995
vt 0.5 0.059012953
vt 0.50000006 5.9604645E-08
vt 0.3333334 5.9604645E-08
vt 0.33333328 0.059012953
vt 0.5 0.11802581
vt 0.16666672 5.9604645E-08
vt 0.33333334 0.11802581
vt 0.5 0.17703885
vt 0.16666669 0.059012953
vt 5.9604645E-08 -9.5162974E-08
vt 0 0.05901276
vt 0.16666669 0.11802581
vt 0 0.11802581
vt 0.33333334 0.17703885
vt 0.5 0.23605171
vt 0.16666669 0.17703885
vt 0 0.1770387
vt 0.33333334 0.23605171
vt 0.5 0.29506475
vt 0.16666663 0.23605171
vt 0 0.23605171
vt 0.33333328 0.29506475
vt 0.5 0.35407764
vt 0.16666663 0.29506457
vt 0 0.29506457
vt 0.33333334 0.35407764
vt 0.5 0.4130905
vt 0.16666669 0.35407764
vt 0 0.35407764
vt 0.33333334 0.4130905
vt 0.5 0.4721035
vt 0.16666669 0.4130905
vt 0 0.4130905
vt 0.3333333 0.4721035
vt 0.5 0.5311164
vt 0.16666669 0.4721035
vt 0 0.4721035
vt 0.33333337 0.5311164
vt 0.5 0.59012944
vt 0.16666675 0.5311164
vt 0 0.5311164
vt 0.33333337 0.59012944
vt 0.5 0.649116
vt 0.16666675 0.59012944
vt 0 0.5901293
vt 0.3333333 0.649116
vt 0.5 0.7077968
vt 0.16666669 0.649116
vt 0 0.649116
vt 0.3333333 0.7077968
vt 0.5 0.76619035
vt 0.16666669 0.7077968
vt 0 0.70779663
vt 0.3333333 0.76619035
vt 0.5 0.8244777
vt 0.16666669 0.76619035
vt 0 0.76619035
vt 0.3333333 0.8244777
vt 0.5 0.8828667
vt 0.16666669 0.8244777
vt 0 0.82447755
vt 0.3333333 0.8828667
vt 0.5 0.9412995
vt 0.16666663 0.8828667
vt 0 0.8828667
vt 0.33333325 0.9412995
vt 0.5 1.0000995
vt 0.3333333 1.0000995
vt 0.16666663 0.9412995
vt 0 0.9412995
vt 0.16666669 1.0000995
vt 0 1.0000995
vn -0.005134065 -0.99934906 -0.035708815
vn -0 -0.99934906 -0.036076024
vn -0 -0.997785 -0.066521965
vn -0.009466927 -0.997785 -0.06584486
vn -0.010163686 -0.99934906 -0.034614693
vn -0 -0.9837816 -0.17937036
vn -0.018741274 -0.997785 -0.06382738
vn -0.014986422 -0.99934906 -0.03281592
vn -0.025526788 -0.9837816 -0.1775447
vn -0 -0.9666636 -0.25604966
vn -0.036439307 -0.9666637 -0.25344348
vn -0.05053419 -0.9837816 -0.17210466
vn -0.07213711 -0.9666637 -0.24567784
vn -0.027634103 -0.997785 -0.060510542
vn -0.019504078 -0.99934906 -0.030349111
vn -0.0745129 -0.9837816 -0.16316107
vn -0.10636651 -0.9666637 -0.23291089
vn -0.03596435 -0.997785 -0.05596189
vn -0.023624644 -0.99934906 -0.027264487
vn -0.09697462 -0.9837816 -0.15089609
vn -0.13843042 -0.9666637 -0.21540277
vn -0.043562472 -0.997785 -0.050274003
vn -0.027264303 -0.99934906 -0.02362482
vn -0.117462344 -0.9837816 -0.13555925
vn -0.1676764 -0.9666637 -0.19350953
vn -0.050273795 -0.997785 -0.04356268
vn -0.030348958 -0.99934906 -0.019504244
vn -0.13555887 -0.9837816 -0.11746269
vn -0.19350915 -0.9666637 -0.16767694
vn -0.055961683 -0.997785 -0.035964563
vn -0.03281576 -0.99934906 -0.01498662
vn -0.15089577 -0.9837816 -0.09697511
vn -0.21540238 -0.9666637 -0.13843106
vn -0.060510337 -0.997785 -0.027634334
vn -0.03461454 -0.99934906 -0.010163893
vn -0.16316079 -0.9837817 -0.07451333
vn -0.23291054 -0.9666637 -0.10636704
vn -0.063827194 -0.997785 -0.018741526
vn -0.03570869 -0.99934906 -0.0051342472
vn -0.17210446 -0.9837816 -0.05053466
vn -0.24567756 -0.9666637 -0.0721377
vn -0.06584469 -0.997785 -0.009467155
vn -0.036075883 -0.99934906 0
vn -0.17754461 -0.9837816 -0.025527187
vn -0.25344342 -0.9666637 -0.036439795
vn -0.066521786 -0.997785 0
vn -0.03570866 -0.99934906 0.0051340153
vn -0.1793703 -0.9837816 0
vn -0.2560496 -0.9666637 0
vn -0.06584471 -0.997785 0.009466929
vn -0.03461454 -0.99934906 0.010163665
vn -0.17754453 -0.9837816 0.025526958
vn -0.25344324 -0.9666637 0.036439568
vn -0.063827194 -0.997785 0.01874128
vn -0.03281576 -0.99934906 0.01498635
vn -0.1721045 -0.9837817 0.05053438
vn -0.24567762 -0.9666637 0.07213742
vn -0.060510345 -0.997785 0.027634071
vn -0.030348957 -0.99934906 0.019503979
vn -0.16316088 -0.9837817 0.07451306
vn -0.23291066 -0.9666637 0.10636676
vn -0.05596168 -0.997785 0.035964318
vn -0.027264344 -0.99934906 0.023624577
vn -0.15089574 -0.9837817 0.09697487
vn -0.2154023 -0.9666637 0.13843077
vn -0.05027383 -0.997785 0.04356245
vn -0.023624655 -0.99934906 0.027264256
vn -0.04356249 -0.997785 0.050273772
vn -0.13555889 -0.9837817 0.11746251
vn -0.19350906 -0.9666637 0.16767666
vn -0.11746246 -0.9837817 0.13555901
vn -0.1676766 -0.9666637 0.19350925
vn -0.03643914 0.9666637 -0.2534432
vn -0 0.9666637 -0.2560494
vn -0 0.9837817 -0.17937015
vn -0.025526723 0.9837817 -0.1775445
vn -0.07213694 0.9666637 -0.24567756
vn -0 0.997785 -0.06652173
vn -0.050534114 0.9837817 -0.17210445
vn -0.10636659 0.96666384 -0.23291062
vn -0.00946696 0.997785 -0.065844625
vn -0 0.99934906 -0.036075804
vn -0.005134103 0.99934906 -0.035708614
vn -0.018741272 0.997785 -0.063827164
vn -0.010163688 0.99934906 -0.03461452
vn -0.074512936 0.9837817 -0.16316085
vn -0.13843042 0.9666637 -0.21540251
vn -0.02763409 0.997785 -0.06051033
vn -0.014986431 0.99934906 -0.03281573
vn -0.09697462 0.9837817 -0.15089588
vn -0.16767643 0.9666637 -0.1935093
vn -0.03596435 0.997785 -0.05596167
vn -0.019504106 0.99934906 -0.030348912
vn -0.11746239 0.9837817 -0.13555905
vn -0.19350901 0.96666384 -0.16767669
vn -0.04356249 0.997785 -0.0502738
vn -0.023624673 0.99934906 -0.027264278
vn -0.1355588 0.9837817 -0.11746246
vn -0.21540223 0.9666637 -0.13843079
vn -0.05027381 0.997785 -0.043562464
vn -0.02726434 0.99934906 -0.023624627
vn -0.15089574 0.9837817 -0.09697487
vn -0.2329106 0.9666637 -0.1063668
vn -0.055961702 0.997785 -0.03596434
vn -0.030349005 0.99934906 -0.019504031
vn -0.16316083 0.9837817 -0.07451309
vn -0.24567762 0.9666637 -0.07213745
vn -0.060510356 0.997785 -0.027634086
vn -0.032815814 0.99934906 -0.014986366
vn -0.1721045 0.9837817 -0.050534423
vn -0.25344342 0.9666637 -0.03643957
vn -0.0638272 0.997785 -0.018741282
vn -0.034614585 0.99934906 -0.010163642
vn -0.17754461 0.9837816 -0.025526948
vn -0.25604957 0.9666637 0
vn -0.065844715 0.997785 -0.009466913
vn -0.03570871 0.99934906 -0.005134018
vn -0.1793703 0.9837816 0
vn -0.2534432 0.9666637 0.036439784
vn -0.06652181 0.997785 0
vn -0.03607592 0.99934906 0
vn -0.17754452 0.9837816 0.02552717
vn -0.24567762 0.9666637 0.07213766
vn -0.06584473 0.997785 0.009467134
vn -0.03570872 0.99934906 0.005134227
vn -0.17210446 0.9837816 0.05053462
vn -0.23291059 0.9666637 0.10636696
vn -0.06382721 0.997785 0.018741505
vn -0.034614574 0.99934906 0.010163876
vn -0.16316082 0.9837817 0.07451328
vn -0.21540223 0.9666637 0.13843098
vn -0.060510352 0.997785 0.027634326
vn -0.03281579 0.99934906 0.01498662
vn -0.15089571 0.9837817 0.09697507
vn -0.19350907 0.9666637 0.16767693
vn -0.05596168 0.997785 0.03596456
vn -0.030348971 0.99934906 0.019504247
vn -0.13555889 0.9837816 0.117462724
vn -0.16767643 0.9666637 0.19350952
vn -0.11746235 0.9837816 0.13555923
vn -0.05027384 0.997785 0.043562684
vn -0.027264344 0.99934906 0.023624845
vn -0.043562498 0.997785 0.050274
vn -0.023624672 0.99934906 0.02726451
g eff_101801_dml_slash_01_0
f 3/3/3 2/2/2 1/1/1
f 4/4/4 3/3/3 1/1/1
f 4/4/4 1/1/1 5/5/5
f 6/6/6 3/3/3 4/4/4
f 7/7/7 4/4/4 5/5/5
f 7/7/7 5/5/5 8/8/8
f 9/9/9 6/6/6 4/4/4
f 9/9/9 4/4/4 7/7/7
f 10/10/10 6/6/6 9/9/9
f 11/11/11 10/10/10 9/9/9
f 11/11/11 9/9/9 12/12/12
f 12/12/12 9/9/9 7/7/7
f 13/13/13 11/11/11 12/12/12
f 14/14/14 7/7/7 8/8/8
f 12/12/12 7/7/7 14/14/14
f 14/14/14 8/8/8 15/15/15
f 13/13/13 12/12/12 16/16/16
f 16/16/16 12/12/12 14/14/14
f 17/17/17 13/13/13 16/16/16
f 18/18/18 14/14/14 15/15/15
f 16/16/16 14/14/14 18/18/18
f 18/18/18 15/15/15 19/19/19
f 17/17/17 16/16/16 20/20/20
f 20/20/20 16/16/16 18/18/18
f 21/21/21 17/17/17 20/20/20
f 22/22/22 18/18/18 19/19/19
f 20/20/20 18/18/18 22/22/22
f 22/22/22 19/19/19 23/23/23
f 21/21/21 20/20/20 24/24/24
f 24/24/24 20/20/20 22/22/22
f 25/25/25 21/21/21 24/24/24
f 26/26/26 22/22/22 23/23/23
f 24/24/24 22/22/22 26/26/26
f 26/26/26 23/23/23 27/27/27
f 25/25/25 24/24/24 28/28/28
f 28/28/28 24/24/24 26/26/26
f 29/29/29 25/25/25 28/28/28
f 30/30/30 26/26/26 27/27/27
f 28/28/28 26/26/26 30/30/30
f 30/30/30 27/27/27 31/31/31
f 29/29/29 28/28/28 32/32/32
f 32/32/32 28/28/28 30/30/30
f 33/33/33 29/29/29 32/32/32
f 34/34/34 30/30/30 31/31/31
f 32/32/32 30/30/30 34/34/34
f 34/34/34 31/31/31 35/35/35
f 33/33/33 32/32/32 36/36/36
f 36/36/36 32/32/32 34/34/34
f 37/37/37 33/33/33 36/36/36
f 38/38/38 34/34/34 35/35/35
f 36/36/36 34/34/34 38/38/38
f 38/38/38 35/35/35 39/39/39
f 37/37/37 36/36/36 40/40/40
f 40/40/40 36/36/36 38/38/38
f 41/41/41 37/37/37 40/40/40
f 42/42/42 38/38/38 39/39/39
f 40/40/40 38/38/38 42/42/42
f 42/42/42 39/39/39 43/43/43
f 41/41/41 40/40/40 44/44/44
f 44/44/44 40/40/40 42/42/42
f 45/45/45 41/41/41 44/44/44
f 46/46/46 42/42/42 43/43/43
f 44/44/44 42/42/42 46/46/46
f 46/46/46 43/43/43 47/47/47
f 45/45/45 44/44/44 48/48/48
f 48/48/48 44/44/44 46/46/46
f 49/49/49 45/45/45 48/48/48
f 50/50/50 46/46/46 47/47/47
f 48/48/48 46/46/46 50/50/50
f 50/50/50 47/47/47 51/51/51
f 49/49/49 48/48/48 52/52/52
f 52/52/52 48/48/48 50/50/50
f 53/53/53 49/49/49 52/52/52
f 54/54/54 50/50/50 51/51/51
f 52/52/52 50/50/50 54/54/54
f 54/54/54 51/51/51 55/55/55
f 53/53/53 52/52/52 56/56/56
f 56/56/56 52/52/52 54/54/54
f 57/57/57 53/53/53 56/56/56
f 58/58/58 54/54/54 55/55/55
f 56/56/56 54/54/54 58/58/58
f 58/58/58 55/55/55 59/59/59
f 57/57/57 56/56/56 60/60/60
f 60/60/60 56/56/56 58/58/58
f 61/61/61 57/57/57 60/60/60
f 62/62/62 58/58/58 59/59/59
f 60/60/60 58/58/58 62/62/62
f 62/62/62 59/59/59 63/63/63
f 61/61/61 60/60/60 64/64/64
f 64/64/64 60/60/60 62/62/62
f 65/65/65 61/61/61 64/64/64
f 66/66/66 62/62/62 63/63/63
f 64/64/64 62/62/62 66/66/66
f 66/66/66 63/63/63 67/67/67
f 68/68/68 66/66/66 67/67/67
f 65/65/65 64/64/64 69/69/69
f 69/69/69 64/64/64 66/66/66
f 69/69/69 66/66/66 68/68/68
f 70/70/70 65/65/65 69/69/69
f 71/71/71 69/69/69 68/68/68
f 70/70/70 69/69/69 71/71/71
f 72/72/72 70/70/70 71/71/71
f 75/75/75 74/74/74 73/73/73
f 76/76/76 75/75/75 73/73/73
f 76/76/76 73/73/73 77/77/77
f 78/78/78 75/75/75 76/76/76
f 79/79/79 76/76/76 77/77/77
f 79/79/79 77/77/77 80/80/80
f 81/81/81 78/78/78 76/76/76
f 81/81/81 76/76/76 79/79/79
f 82/82/82 78/78/78 81/81/81
f 83/83/83 82/82/82 81/81/81
f 83/83/83 81/81/81 84/84/84
f 84/84/84 81/81/81 79/79/79
f 85/85/85 83/83/83 84/84/84
f 86/86/86 79/79/79 80/80/80
f 84/84/84 79/79/79 86/86/86
f 86/86/86 80/80/80 87/87/87
f 85/85/85 84/84/84 88/88/88
f 88/88/88 84/84/84 86/86/86
f 89/89/89 85/85/85 88/88/88
f 90/90/90 86/86/86 87/87/87
f 88/88/88 86/86/86 90/90/90
f 90/90/90 87/87/87 91/91/91
f 89/89/89 88/88/88 92/92/92
f 92/92/92 88/88/88 90/90/90
f 93/93/93 89/89/89 92/92/92
f 94/94/94 90/90/90 91/91/91
f 92/92/92 90/90/90 94/94/94
f 94/94/94 91/91/91 95/95/95
f 93/93/93 92/92/92 96/96/96
f 96/96/96 92/92/92 94/94/94
f 97/97/97 93/93/93 96/96/96
f 98/98/98 94/94/94 95/95/95
f 96/96/96 94/94/94 98/98/98
f 98/98/98 95/95/95 99/99/99
f 97/97/97 96/96/96 100/100/100
f 100/100/100 96/96/96 98/98/98
f 101/101/101 97/97/97 100/100/100
f 102/102/102 98/98/98 99/99/99
f 100/100/100 98/98/98 102/102/102
f 102/102/102 99/99/99 103/103/103
f 101/101/101 100/100/100 104/104/104
f 104/104/104 100/100/100 102/102/102
f 105/105/105 101/101/101 104/104/104
f 106/106/106 102/102/102 103/103/103
f 104/104/104 102/102/102 106/106/106
f 106/106/106 103/103/103 107/107/107
f 105/105/105 104/104/104 108/108/108
f 108/108/108 104/104/104 106/106/106
f 109/109/109 105/105/105 108/108/108
f 110/110/110 106/106/106 107/107/107
f 108/108/108 106/106/106 110/110/110
f 110/110/110 107/107/107 111/111/111
f 109/109/109 108/108/108 112/112/112
f 112/112/112 108/108/108 110/110/110
f 113/113/113 109/109/109 112/112/112
f 114/114/114 110/110/110 111/111/111
f 112/112/112 110/110/110 114/114/114
f 114/114/114 111/111/111 115/115/115
f 113/113/113 112/112/112 116/116/116
f 116/116/116 112/112/112 114/114/114
f 117/117/117 113/113/113 116/116/116
f 118/118/118 114/114/114 115/115/115
f 116/116/116 114/114/114 118/118/118
f 118/118/118 115/115/115 119/119/119
f 117/117/117 116/116/116 120/120/120
f 120/120/120 116/116/116 118/118/118
f 121/121/121 117/117/117 120/120/120
f 122/122/122 118/118/118 119/119/119
f 120/120/120 118/118/118 122/122/122
f 122/122/122 119/119/119 123/123/123
f 121/121/121 120/120/120 124/124/124
f 124/124/124 120/120/120 122/122/122
f 125/125/125 121/121/121 124/124/124
f 126/126/126 122/122/122 123/123/123
f 124/124/124 122/122/122 126/126/126
f 126/126/126 123/123/123 127/127/127
f 125/125/125 124/124/124 128/128/128
f 128/128/128 124/124/124 126/126/126
f 129/129/129 125/125/125 128/128/128
f 130/130/130 126/126/126 127/127/127
f 128/128/128 126/126/126 130/130/130
f 130/130/130 127/127/127 131/131/131
f 129/129/129 128/128/128 132/132/132
f 132/132/132 128/128/128 130/130/130
f 133/133/133 129/129/129 132/132/132
f 134/134/134 130/130/130 131/131/131
f 132/132/132 130/130/130 134/134/134
f 134/134/134 131/131/131 135/135/135
f 133/133/133 132/132/132 136/136/136
f 136/136/136 132/132/132 134/134/134
f 137/137/137 133/133/133 136/136/136
f 138/138/138 134/134/134 135/135/135
f 136/136/136 134/134/134 138/138/138
f 138/138/138 135/135/135 139/139/139
f 140/140/140 138/138/138 139/139/139
f 137/137/137 136/136/136 141/141/141
f 141/141/141 136/136/136 138/138/138
f 141/141/141 138/138/138 140/140/140
f 142/142/142 137/137/137 141/141/141
f 143/143/143 141/141/141 140/140/140
f 142/142/142 141/141/141 143/143/143
f 144/144/144 142/142/142 143/143/143
