g Eye2_Mesh
v -0.10982153 0.8000548 0.28
v -0.05165657 0.8021393 0.28
v -0.047412794 0.80493146 0.28
v -0.05110691 0.7942877 0.28
v -0.04706373 0.8075366 0.28
v -0.05005985 0.78273803 0.28
v -0.047809083 0.81129485 0.28
v -0.055222794 0.76633286 0.28
v -0.05156347 0.8125323 0.28
v -0.06515193 0.763828 0.28
v -0.05302574 0.8211008 0.28
v -0.072341956 0.7618147 0.28
v -0.061762303 0.8349719 0.28
v -0.074904464 0.7519957 0.28
v -0.07326779 0.848114 0.28
v -0.091464534 0.7435579 0.28
v -0.09066682 0.861604 0.28
v -0.11083791 0.74463654 0.28
v -0.10982153 0.8615866 0.28
v -0.13119881 0.73766094 0.28
v -0.12817852 0.8565518 0.28
v -0.14726 0.74725384 0.28
v -0.14403671 0.8525075 0.28
v -0.1635371 0.7627406 0.28
v -0.1571387 0.847176 0.28
v -0.175691 0.789281 0.28
v -0.16798706 0.8276051 0.28
v -0.17672713 0.8071022 0.28
v 0.10982153 0.8000548 0.28
v 0.047412794 0.80493146 0.28
v 0.05165657 0.8021393 0.28
v 0.05110691 0.7942877 0.28
v 0.04706373 0.8075366 0.28
v 0.05005985 0.78273803 0.28
v 0.047809083 0.81129485 0.28
v 0.055222794 0.76633286 0.28
v 0.05156347 0.8125323 0.28
v 0.065151945 0.763828 0.28
v 0.05302574 0.8211008 0.28
v 0.072341956 0.7618147 0.28
v 0.061762314 0.8349719 0.28
v 0.074904464 0.7519957 0.28
v 0.07326779 0.848114 0.28
v 0.091464534 0.7435579 0.28
v 0.09066682 0.861604 0.28
v 0.11083791 0.74463654 0.28
v 0.10982153 0.8615866 0.28
v 0.13119881 0.73766094 0.28
v 0.12817852 0.8565518 0.28
v 0.14726 0.74725384 0.28
v 0.14403671 0.8525075 0.28
v 0.1635371 0.7627406 0.28
v 0.1571387 0.847176 0.28
v 0.175691 0.789281 0.28
v 0.16798706 0.8276051 0.28
v 0.17672713 0.8071022 0.28
v -0.10982153 0.8000548 0.286106
v -0.047412794 0.80493146 0.28
v -0.05165657 0.8021393 0.28
v -0.05110691 0.7942877 0.28
v -0.04706373 0.8075366 0.28
v -0.05005985 0.78273803 0.28
v -0.047809083 0.81129485 0.28
v -0.055222794 0.76633286 0.28
v -0.05156347 0.8125323 0.28
v -0.06515193 0.763828 0.28
v -0.05302574 0.8211008 0.28
v -0.072341956 0.7618147 0.28
v -0.061762303 0.8349719 0.28
v -0.074904464 0.7519957 0.28
v -0.07326779 0.848114 0.28
v -0.091464534 0.7435579 0.28
v -0.09066682 0.861604 0.28
v -0.11083791 0.74463654 0.28
v -0.10982153 0.8615866 0.28
v -0.13119881 0.73766094 0.28
v -0.12817852 0.8565518 0.28
v -0.14726 0.74725384 0.28
v -0.14403671 0.8525075 0.28
v -0.1635371 0.7627406 0.28
v -0.1571387 0.847176 0.28
v -0.175691 0.789281 0.28
v -0.16798706 0.8276051 0.28
v -0.17672713 0.8071022 0.28
v 0.10982153 0.8000548 0.286106
v 0.05165657 0.8021393 0.28
v 0.047412794 0.80493146 0.28
v 0.05110691 0.7942877 0.28
v 0.04706373 0.8075366 0.28
v 0.05005985 0.78273803 0.28
v 0.047809083 0.81129485 0.28
v 0.055222794 0.76633286 0.28
v 0.05156347 0.8125323 0.28
v 0.065151945 0.763828 0.28
v 0.05302574 0.8211008 0.28
v 0.072341956 0.7618147 0.28
v 0.061762314 0.8349719 0.28
v 0.074904464 0.7519957 0.28
v 0.07326779 0.848114 0.28
v 0.091464534 0.7435579 0.28
v 0.09066682 0.861604 0.28
v 0.11083791 0.74463654 0.28
v 0.10982153 0.8615866 0.28
v 0.13119881 0.73766094 0.28
v 0.12817852 0.8565518 0.28
v 0.14726 0.74725384 0.28
v 0.14403671 0.8525075 0.28
v 0.1635371 0.7627406 0.28
v 0.1571387 0.847176 0.28
v 0.175691 0.789281 0.28
v 0.16798706 0.8276051 0.28
v 0.17672713 0.8071022 0.28
vt 0.84646064 0.38123232
vt 0.77559745 0.41047645
vt 0.76907814 0.4092782
vt 0.77924275 0.42014503
vt 0.76725864 0.40634903
vt 0.7843579 0.43447784
vt 0.76609737 0.40145636
vt 0.7994842 0.45123547
vt 0.7697867 0.39785504
vt 0.81271625 0.44903558
vt 0.7668965 0.38681164
vt 0.8224128 0.44766438
vt 0.7697437 0.3654634
vt 0.8309659 0.45785525
vt 0.77634704 0.3434671
vt 0.8553806 0.45892522
vt 0.7898716 0.3178695
vt 0.8780549 0.44717836
vt 0.81277335 0.30734402
vt 0.9061686 0.44412333
vt 0.8375001 0.30326188
vt 0.92020726 0.42388353
vt 0.8587082 0.29950646
vt 0.93125045 0.3964208
vt 0.8773005 0.29881364
vt 0.9312543 0.3579576
vt 0.9010578 0.31623155
vt 0.9227116 0.33604866
vt 0.84646064 0.38123232
vt 0.76907814 0.4092782
vt 0.77559745 0.41047645
vt 0.77924275 0.42014503
vt 0.76725864 0.40634903
vt 0.7843579 0.43447784
vt 0.76609737 0.40145636
vt 0.7994842 0.45123547
vt 0.7697867 0.39785504
vt 0.81271625 0.44903558
vt 0.7668965 0.38681164
vt 0.8224128 0.44766438
vt 0.7697437 0.3654634
vt 0.8309659 0.45785525
vt 0.77634704 0.3434671
vt 0.8553806 0.45892522
vt 0.7898716 0.3178695
vt 0.8780549 0.44717836
vt 0.81277335 0.30734402
vt 0.9061686 0.44412333
vt 0.8375001 0.30326188
vt 0.92020726 0.42388353
vt 0.8587082 0.29950646
vt 0.93125045 0.3964208
vt 0.8773005 0.29881364
vt 0.9312543 0.3579576
vt 0.9010578 0.31623155
vt 0.9227116 0.33604866
vt 0.84646064 0.38123232
vt 0.76907814 0.4092782
vt 0.77559745 0.41047645
vt 0.77924275 0.42014503
vt 0.76725864 0.40634903
vt 0.7843579 0.43447784
vt 0.76609737 0.40145636
vt 0.7994842 0.45123547
vt 0.7697867 0.39785504
vt 0.81271625 0.44903558
vt 0.7668965 0.38681164
vt 0.8224128 0.44766438
vt 0.7697437 0.3654634
vt 0.8309659 0.45785525
vt 0.77634704 0.3434671
vt 0.8553806 0.45892522
vt 0.7898716 0.3178695
vt 0.8780549 0.44717836
vt 0.81277335 0.30734402
vt 0.9061686 0.44412333
vt 0.8375001 0.30326188
vt 0.92020726 0.42388353
vt 0.8587082 0.29950646
vt 0.93125045 0.3964208
vt 0.8773005 0.29881364
vt 0.9312543 0.3579576
vt 0.9010578 0.31623155
vt 0.9227116 0.33604866
vt 0.84646064 0.38123232
vt 0.77559745 0.41047645
vt 0.76907814 0.4092782
vt 0.77924275 0.42014503
vt 0.76725864 0.40634903
vt 0.7843579 0.43447784
vt 0.76609737 0.40145636
vt 0.7994842 0.45123547
vt 0.7697867 0.39785504
vt 0.81271625 0.44903558
vt 0.7668965 0.38681164
vt 0.8224128 0.44766438
vt 0.7697437 0.3654634
vt 0.8309659 0.45785525
vt 0.77634704 0.3434671
vt 0.8553806 0.45892522
vt 0.7898716 0.3178695
vt 0.8780549 0.44717836
vt 0.81277335 0.30734402
vt 0.9061686 0.44412333
vt 0.8375001 0.30326188
vt 0.92020726 0.42388353
vt 0.8587082 0.29950646
vt 0.93125045 0.3964208
vt 0.8773005 0.29881364
vt 0.9312543 0.3579576
vt 0.9010578 0.31623155
vt 0.9227116 0.33604866
vn -0 0 -1
vn -0 0 -1
vn -0 0 -1
vn -0 0 -1
vn -0 0 -1
vn -0 0 -1
vn -0 0 -1
vn -0 0 -1
vn -0 0 -1
vn -0 0 -1
vn -0 0 -1
vn -0 0 -1
vn -0 0 -1
vn -0 0 -1
vn -0 0 -1
vn -0 0 -1
vn -0 0 -1
vn -0 0 -1
vn -0 0 -1
vn -0 0 -1
vn -0 0 -1
vn -0 0 -1
vn -0 0 -1
vn -0 0 -1
vn -0 0 -1
vn -0 0 -1
vn -0 0 -1
vn -0 0 -1
vn -0 0 -1
vn -0 0 -1
vn -0 0 -1
vn -0 0 -1
vn -0 0 -1
vn -0 0 -1
vn -0 0 -1
vn -0 0 -1
vn -0 0 -1
vn -0 0 -1
vn -0 0 -1
vn -0 0 -1
vn -0 0 -1
vn -0 0 -1
vn -0 0 -1
vn -0 0 -1
vn -0 0 -1
vn -0 0 -1
vn -0 0 -1
vn -0 0 -1
vn -0 0 -1
vn -0 0 -1
vn -0 0 -1
vn -0 0 -1
vn -0 0 -1
vn -0 0 -1
vn -0 0 -1
vn -0 0 -1
vn -0.012225098 -0.00037090352 0.99992526
vn 0.10086312 -0.046463136 0.9938147
vn 0.10616656 -0.054068413 0.9928772
vn 0.10427717 0.008695834 0.9945102
vn 0.096016414 0.0069225403 0.9953557
vn 0.09686171 -0.016619334 0.9951591
vn 0.090314575 0.042249978 0.99501675
vn 0.08033431 -0.050186604 0.99550384
vn 0.09037943 0.06435303 0.993826
vn 0.03279449 -0.12666327 0.9914035
vn 0.09159351 0.041475844 0.99493235
vn 0.08832593 -0.07206441 0.9934814
vn 0.08187266 0.06126753 0.99475783
vn 0.064127095 -0.07979383 0.9947465
vn 0.067934595 0.07473074 0.99488705
vn 0.022787962 -0.10010159 0.9947162
vn 0.031973656 0.08881153 0.99553514
vn 0.018211612 -0.1098294 0.9937836
vn -0.01204694 0.09874087 0.99504024
vn -0.015258986 -0.092205785 0.99562305
vn -0.026233308 0.09898469 0.9947431
vn -0.05741923 -0.0744168 0.9955727
vn -0.03199162 0.09495547 0.9949673
vn -0.077089235 -0.051955443 0.9956696
vn -0.06669496 0.062069632 0.99584097
vn -0.08818347 -0.025214268 0.99578506
vn -0.08487643 0.041444812 0.99552923
vn -0.0891136 0.016833657 0.9958792
vn 0.012225158 -0.00037090655 0.99992526
vn -0.106166825 -0.05406842 0.9928772
vn -0.10086329 -0.046463158 0.9938147
vn -0.10427731 0.008695834 0.9945102
vn -0.09601697 0.006922625 0.9953556
vn -0.09686163 -0.016619306 0.9951591
vn -0.09031544 0.042250674 0.99501663
vn -0.08033421 -0.050186567 0.99550384
vn -0.0903796 0.06435412 0.993826
vn -0.03279449 -0.12666327 0.9914035
vn -0.0915937 0.041475993 0.99493235
vn -0.08832579 -0.07206454 0.9934814
vn -0.081873454 0.061267585 0.9947577
vn -0.06412719 -0.079794034 0.9947465
vn -0.067935124 0.074730605 0.99488705
vn -0.022788035 -0.10010174 0.9947162
vn -0.031973656 0.08881153 0.99553514
vn -0.018211594 -0.10982934 0.9937836
vn 0.01204694 0.09874087 0.99504024
vn 0.0152590005 -0.092205755 0.99562305
vn 0.026233308 0.09898469 0.9947431
vn 0.05741983 -0.074416846 0.9955727
vn 0.031991586 0.09495537 0.9949673
vn 0.07709017 -0.051955465 0.9956695
vn 0.066694826 0.062069513 0.99584097
vn 0.088183805 -0.025214264 0.99578506
vn 0.084876195 0.041444767 0.99552923
vn 0.089113325 0.016833657 0.9958792
g Eye2_Mesh_0
f 3/3/3 2/2/2 1/1/1
f 2/2/2 4/4/4 1/1/1
f 1/1/1 5/5/5 3/3/3
f 4/4/4 6/6/6 1/1/1
f 7/7/7 5/5/5 1/1/1
f 8/8/8 1/1/1 6/6/6
f 1/1/1 9/9/9 7/7/7
f 10/10/10 1/1/1 8/8/8
f 9/9/9 1/1/1 11/11/11
f 10/10/10 12/12/12 1/1/1
f 11/11/11 1/1/1 13/13/13
f 12/12/12 14/14/14 1/1/1
f 13/13/13 1/1/1 15/15/15
f 16/16/16 1/1/1 14/14/14
f 15/15/15 1/1/1 17/17/17
f 18/18/18 1/1/1 16/16/16
f 17/17/17 1/1/1 19/19/19
f 20/20/20 1/1/1 18/18/18
f 19/19/19 1/1/1 21/21/21
f 22/22/22 1/1/1 20/20/20
f 21/21/21 1/1/1 23/23/23
f 24/24/24 1/1/1 22/22/22
f 23/23/23 1/1/1 25/25/25
f 26/26/26 1/1/1 24/24/24
f 25/25/25 1/1/1 27/27/27
f 28/28/28 1/1/1 26/26/26
f 27/27/27 1/1/1 28/28/28
f 31/31/31 30/30/30 29/29/29
f 32/32/32 31/31/31 29/29/29
f 33/33/33 29/29/29 30/30/30
f 34/34/34 32/32/32 29/29/29
f 33/33/33 35/35/35 29/29/29
f 29/29/29 36/36/36 34/34/34
f 37/37/37 29/29/29 35/35/35
f 29/29/29 38/38/38 36/36/36
f 29/29/29 37/37/37 39/39/39
f 40/40/40 38/38/38 29/29/29
f 29/29/29 39/39/39 41/41/41
f 42/42/42 40/40/40 29/29/29
f 29/29/29 41/41/41 43/43/43
f 29/29/29 44/44/44 42/42/42
f 29/29/29 43/43/43 45/45/45
f 29/29/29 46/46/46 44/44/44
f 29/29/29 45/45/45 47/47/47
f 29/29/29 48/48/48 46/46/46
f 29/29/29 47/47/47 49/49/49
f 29/29/29 50/50/50 48/48/48
f 29/29/29 49/49/49 51/51/51
f 29/29/29 52/52/52 50/50/50
f 29/29/29 51/51/51 53/53/53
f 29/29/29 54/54/54 52/52/52
f 29/29/29 53/53/53 55/55/55
f 29/29/29 56/56/56 54/54/54
f 29/29/29 55/55/55 56/56/56
f 59/59/59 58/58/58 57/57/57
f 60/60/60 59/59/59 57/57/57
f 61/61/61 57/57/57 58/58/58
f 62/62/62 60/60/60 57/57/57
f 63/63/63 57/57/57 61/61/61
f 57/57/57 64/64/64 62/62/62
f 65/65/65 57/57/57 63/63/63
f 57/57/57 66/66/66 64/64/64
f 57/57/57 65/65/65 67/67/67
f 68/68/68 66/66/66 57/57/57
f 57/57/57 67/67/67 69/69/69
f 70/70/70 68/68/68 57/57/57
f 57/57/57 69/69/69 71/71/71
f 57/57/57 72/72/72 70/70/70
f 57/57/57 71/71/71 73/73/73
f 57/57/57 74/74/74 72/72/72
f 57/57/57 73/73/73 75/75/75
f 57/57/57 76/76/76 74/74/74
f 57/57/57 75/75/75 77/77/77
f 57/57/57 78/78/78 76/76/76
f 57/57/57 77/77/77 79/79/79
f 57/57/57 80/80/80 78/78/78
f 57/57/57 79/79/79 81/81/81
f 57/57/57 82/82/82 80/80/80
f 57/57/57 81/81/81 83/83/83
f 57/57/57 84/84/84 82/82/82
f 57/57/57 83/83/83 84/84/84
f 87/87/87 86/86/86 85/85/85
f 86/86/86 88/88/88 85/85/85
f 85/85/85 89/89/89 87/87/87
f 88/88/88 90/90/90 85/85/85
f 85/85/85 91/91/91 89/89/89
f 92/92/92 85/85/85 90/90/90
f 85/85/85 93/93/93 91/91/91
f 94/94/94 85/85/85 92/92/92
f 93/93/93 85/85/85 95/95/95
f 94/94/94 96/96/96 85/85/85
f 95/95/95 85/85/85 97/97/97
f 96/96/96 98/98/98 85/85/85
f 97/97/97 85/85/85 99/99/99
f 100/100/100 85/85/85 98/98/98
f 99/99/99 85/85/85 101/101/101
f 102/102/102 85/85/85 100/100/100
f 101/101/101 85/85/85 103/103/103
f 104/104/104 85/85/85 102/102/102
f 103/103/103 85/85/85 105/105/105
f 106/106/106 85/85/85 104/104/104
f 105/105/105 85/85/85 107/107/107
f 108/108/108 85/85/85 106/106/106
f 107/107/107 85/85/85 109/109/109
f 110/110/110 85/85/85 108/108/108
f 109/109/109 85/85/85 111/111/111
f 112/112/112 85/85/85 110/110/110
f 111/111/111 85/85/85 112/112/112
