g Face_b_mesh
v 0.027649995 1.5113225 0.21587628
v 0.026576212 1.5098867 0.2164119
v 0.0254817 1.5084829 0.21664517
v 0.115253076 1.4633876 0.17994314
v 0.10290918 1.4414029 0.18507189
v 0.09377229 1.4551966 0.19088112
v 0.08256916 1.4220093 0.18660933
v 0.074863866 1.4481137 0.1983649
v 0.05730366 1.4047898 0.19108814
v 0.049927592 1.4424816 0.20585547
v 0.026287904 1.389819 0.19599938
v 0.023719277 1.439007 0.21228844
v -0.008642025 1.3844038 0.19792837
v -0.0050419997 1.4382502 0.21821478
v -0.04442186 1.3888731 0.19272014
v -0.033644848 1.4401197 0.212914
v -0.07524651 1.4018875 0.18542491
v -0.059989367 1.4443291 0.20535307
v -0.10110797 1.4231918 0.18291345
v -0.08459835 1.4525889 0.19735931
v -0.117679834 1.4538337 0.18360426
v -0.10633324 1.4652026 0.18958262
v -0.11990702 1.4787805 0.17808491
v 0.02380165 1.5025468 0.21796793
v 0.019446405 1.5028375 0.2184275
v 0.0254817 1.5084829 0.21664517
v 0.027649995 1.5113225 0.21587628
v 0.011772221 1.4646035 0.21850432
v 0.018789759 1.4641783 0.2179416
v 0.017637722 1.4547175 0.21775758
v 0.020756546 1.5166487 0.21653435
v 0.010139951 1.4601926 0.2186953
v 0.015397665 1.4455149 0.21763816
v 0.00979108 1.4450946 0.21779281
v -0.0098664565 1.4623344 0.22062652
v -0.010983056 1.4486299 0.21995316
v -0.0276872 1.4506007 0.21542232
v -0.02621271 1.4638867 0.21671146
v -0.037160877 1.4521931 0.21419185
v -0.040299583 1.4548473 0.21369131
v -0.040288594 1.4621665 0.21458437
v -0.039586768 1.4686211 0.21527773
v -0.030127266 1.4685127 0.21600315
v -0.029855967 1.4739527 0.21641031
v -0.037809905 1.4751822 0.2156839
v -0.020915937 1.5017428 0.2177782
v -0.029216351 1.5019404 0.2170872
v -0.018455375 1.5168862 0.21644996
v -0.026999844 1.5165178 0.21598008
v -0.020214701 1.5355804 0.2156385
v -0.031251337 1.5151509 0.213612
v -0.05974125 1.5365968 0.20478052
v -0.021135807 1.5484488 0.21335767
v -0.04536599 1.5093096 0.21104056
v -0.030332157 1.559394 0.20930843
v -0.05997096 1.5073625 0.20569883
v -0.045095947 1.566255 0.20350726
v -0.07368084 1.5084976 0.19988428
v -0.058548216 1.5669479 0.19883513
v -0.08633914 1.5132748 0.1940042
v -0.07164381 1.5653858 0.19400695
v -0.094578914 1.5253593 0.1891564
v -0.08377433 1.5602952 0.18923551
v -0.09513838 1.5401322 0.18635425
v -0.091316804 1.5519276 0.18726964
v 0.023860538 1.5358903 0.21316971
v 0.0598335 1.532995 0.20474444
v 0.029154124 1.5498636 0.20941578
v 0.030912511 1.5080558 0.2151862
v 0.0360665 1.5589703 0.2062766
v 0.043103445 1.5005322 0.21313949
v 0.04485367 1.5649568 0.20315118
v 0.05818541 1.4982654 0.20941819
v 0.05671956 1.5678383 0.19822986
v 0.075499065 1.5029142 0.20327799
v 0.07121573 1.5674218 0.19289707
v 0.08868132 1.5160748 0.195345
v 0.086680755 1.5607678 0.18829794
v 0.093631886 1.5281466 0.19086558
v 0.093077905 1.5497633 0.18704285
v 0.094214685 1.5383252 0.18867883
vt 0.1836788 0.3671152
vt 0.19491619 0.35916615
vt 0.18078178 0.36376005
vt 0.38799626 0.3629481
vt 0.3791266 0.35182407
vt 0.3766926 0.35862842
vt 0.36992007 0.3454918
vt 0.36661583 0.3562784
vt 0.35925418 0.34062237
vt 0.356031 0.35495785
vt 0.34758645 0.33702177
vt 0.34621865 0.3546253
vt 0.33478075 0.33540222
vt 0.3357435 0.3547489
vt 0.3235415 0.33761552
vt 0.32674772 0.35591742
vt 0.31358713 0.34221452
vt 0.31813198 0.35717645
vt 0.3050122 0.34872675
vt 0.31021315 0.35892642
vt 0.29831633 0.3568429
vt 0.3022526 0.3617648
vt 0.29437786 0.36553225
vt 0.25004554 0.3177777
vt 0.24779902 0.31816667
vt 0.25037274 0.32008603
vt 0.25130376 0.3206156
vt 0.2463678 0.30048537
vt 0.24894193 0.30043328
vt 0.24879959 0.29808813
vt 0.24802119 0.3243701
vt 0.24560507 0.2989239
vt 0.24847746 0.29338354
vt 0.24560533 0.2933305
vt 0.23723494 0.29960704
vt 0.23714887 0.2931875
vt 0.2294489 0.29310477
vt 0.22912386 0.2995334
vt 0.22422515 0.29362524
vt 0.22307834 0.29513267
vt 0.22244553 0.29825294
vt 0.22235237 0.3003086
vt 0.22680292 0.30072895
vt 0.22612987 0.3028934
vt 0.22273888 0.30326504
vt 0.22909962 0.31538773
vt 0.22511403 0.31491962
vt 0.22914492 0.32203105
vt 0.22531348 0.32130244
vt 0.2262619 0.3341111
vt 0.22394022 0.32341012
vt 0.20980631 0.32966125
vt 0.2227451 0.34083605
vt 0.22007632 0.32001242
vt 0.21770036 0.34413064
vt 0.21368729 0.31677186
vt 0.21164833 0.34367335
vt 0.2071942 0.31532878
vt 0.20533358 0.34222838
vt 0.20024896 0.31559893
vt 0.1997637 0.3398983
vt 0.19488046 0.31987405
vt 0.19489561 0.33632928
vt 0.19236194 0.32617962
vt 0.19251606 0.33195192
vt 0.24829446 0.33209774
vt 0.2650522 0.33227038
vt 0.24950871 0.3382231
vt 0.25255084 0.3200274
vt 0.2515799 0.3411661
vt 0.25708795 0.316412
vt 0.25813058 0.34681943
vt 0.2639655 0.3148882
vt 0.26449955 0.3471732
vt 0.271836 0.317029
vt 0.2716623 0.34687787
vt 0.27889046 0.32306364
vt 0.2784965 0.34479403
vt 0.28166375 0.3293314
vt 0.28195012 0.34014788
vt 0.2825659 0.33410147
vn 0.23452604 0.12901065 0.9635112
vn -0.77345484 0.62261325 0.11882981
vn 0.17852269 0.12109596 0.9764556
vn 0.47072908 -0.05893705 0.8803071
vn 0.3911385 -0.20284072 0.8977006
vn 0.3898928 -0.20490797 0.897773
vn 0.35116673 -0.27647322 0.89456385
vn 0.35256013 -0.2735677 0.89490896
vn 0.29950756 -0.29357383 0.90780485
vn 0.30268243 -0.29332605 0.9068313
vn 0.19627598 -0.3189711 0.927218
vn 0.20335639 -0.31698608 0.9263724
vn -0.03326699 -0.33633113 0.94115597
vn -0.018553622 -0.3364056 0.94153434
vn -0.2497876 -0.31527022 0.91553855
vn -0.24173743 -0.3173233 0.9169891
vn -0.3327117 -0.28736094 0.89817965
vn -0.33222646 -0.28775316 0.8982337
vn -0.35753947 -0.25263417 0.8990781
vn -0.35940793 -0.24827915 0.89954627
vn -0.40767422 -0.153349 0.9001587
vn -0.4139982 -0.14341995 0.8989083
vn -0.56145 0.13066043 0.8171302
vn 0.09056748 -0.0005363555 0.9958902
vn 0.098030075 0.003298912 0.995178
vn 0.17852269 0.12109596 0.9764556
vn 0.23452604 0.12901065 0.9635112
vn 0.09026698 -0.015147225 0.99580246
vn 0.089880474 -0.014880047 0.99584144
vn 0.0966445 -0.029089052 0.9948938
vn 0.19430654 0.13247617 0.97195417
vn 0.09090998 -0.05180886 0.99451053
vn 0.051917873 -0.053230215 0.99723166
vn 0.08387456 -0.059226327 0.9947147
vn -0.061991222 -0.054091636 0.99660987
vn -0.054177154 -0.05437579 0.9970497
vn -0.22844912 -0.05346377 0.9720867
vn -0.21987477 -0.050414354 0.9742245
vn -0.16285825 -0.05972084 0.98484045
vn -0.15806454 -0.08242055 0.9839829
vn -0.12617214 -0.07655474 0.98905003
vn -0.106132224 -0.040451813 0.9935288
vn -0.10690079 -0.03996416 0.9934662
vn -0.08845119 -0.02763645 0.995697
vn -0.08838955 -0.028698787 0.99567246
vn -0.080730565 0.026230866 0.99639076
vn -0.08307663 0.012271851 0.9964676
vn -0.15134907 0.09583802 0.9838234
vn -0.16331784 0.09630152 0.9818621
vn -0.2588701 0.094044246 0.9613231
vn -0.24898833 0.067391306 0.966159
vn -0.3407937 0.109185986 0.93377626
vn -0.25692794 0.14547496 0.9554188
vn -0.27127534 0.07718766 0.9594018
vn -0.26763806 0.15642764 0.95073664
vn -0.36746585 0.032084517 0.9294834
vn -0.29562792 0.18620671 0.93697983
vn -0.399921 0.03883093 0.9157267
vn -0.33612543 0.19375442 0.9216718
vn -0.42030695 0.061019532 0.905328
vn -0.3951973 0.1741362 0.9019399
vn -0.43704838 0.11455331 0.8921134
vn -0.41726625 0.16325983 0.89399946
vn -0.44918066 0.11826931 0.88557845
vn -0.43846148 0.11504682 0.89135605
vn 0.23600122 0.15074342 0.9599895
vn 0.31019422 0.155432 0.9378809
vn 0.23506127 0.16211492 0.95836574
vn 0.25195962 0.1103503 0.96142554
vn 0.23274402 0.15633577 0.9598903
vn 0.24600324 0.121887 0.96157473
vn 0.28814152 0.18191129 0.94015044
vn 0.2790591 0.115055144 0.9533563
vn 0.3388453 0.20208485 0.9188828
vn 0.34775883 0.13588126 0.9276854
vn 0.35122848 0.19874305 0.9149535
vn 0.39169887 0.16497378 0.9051827
vn 0.3831893 0.16749325 0.9083567
vn 0.39520365 0.17196338 0.90235394
vn 0.40504274 0.1492272 0.9020375
vn 0.39551172 0.16958287 0.9026694
g Face_b_mesh_0
f 3/3/3 2/2/2 1/1/1
f 6/6/6 5/5/5 4/4/4
f 5/5/5 6/6/6 7/7/7
f 6/6/6 8/8/8 7/7/7
f 7/7/7 8/8/8 9/9/9
f 8/8/8 10/10/10 9/9/9
f 9/9/9 10/10/10 11/11/11
f 10/10/10 12/12/12 11/11/11
f 11/11/11 12/12/12 13/13/13
f 12/12/12 14/14/14 13/13/13
f 13/13/13 14/14/14 15/15/15
f 14/14/14 16/16/16 15/15/15
f 15/15/15 16/16/16 17/17/17
f 16/16/16 18/18/18 17/17/17
f 17/17/17 18/18/18 19/19/19
f 18/18/18 20/20/20 19/19/19
f 19/19/19 20/20/20 21/21/21
f 20/20/20 22/22/22 21/21/21
f 23/23/23 21/21/21 22/22/22
f 26/26/26 25/25/25 24/24/24
f 26/26/26 27/27/27 25/25/25
f 24/24/24 25/25/25 28/28/28
f 29/29/29 24/24/24 28/28/28
f 29/29/29 28/28/28 30/30/30
f 27/27/27 31/31/31 25/25/25
f 28/28/28 32/32/32 30/30/30
f 33/33/33 30/30/30 32/32/32
f 33/33/33 32/32/32 34/34/34
f 32/32/32 35/35/35 34/34/34
f 35/35/35 36/36/36 34/34/34
f 37/37/37 36/36/36 35/35/35
f 38/38/38 37/37/37 35/35/35
f 38/38/38 39/39/39 37/37/37
f 38/38/38 40/40/40 39/39/39
f 38/38/38 41/41/41 40/40/40
f 42/42/42 41/41/41 38/38/38
f 43/43/43 42/42/42 38/38/38
f 43/43/43 44/44/44 42/42/42
f 44/44/44 45/45/45 42/42/42
f 44/44/44 46/46/46 45/45/45
f 46/46/46 47/47/47 45/45/45
f 46/46/46 48/48/48 47/47/47
f 48/48/48 49/49/49 47/47/47
f 48/48/48 50/50/50 49/49/49
f 50/50/50 51/51/51 49/49/49
f 51/51/51 50/50/50 52/52/52
f 53/53/53 52/52/52 50/50/50
f 51/51/51 52/52/52 54/54/54
f 53/53/53 55/55/55 52/52/52
f 56/56/56 54/54/54 52/52/52
f 55/55/55 57/57/57 52/52/52
f 56/56/56 52/52/52 58/58/58
f 57/57/57 59/59/59 52/52/52
f 52/52/52 60/60/60 58/58/58
f 59/59/59 61/61/61 52/52/52
f 52/52/52 62/62/62 60/60/60
f 63/63/63 52/52/52 61/61/61
f 52/52/52 64/64/64 62/62/62
f 63/63/63 65/65/65 52/52/52
f 52/52/52 65/65/65 64/64/64
f 27/27/27 66/66/66 31/31/31
f 66/66/66 27/27/27 67/67/67
f 68/68/68 66/66/66 67/67/67
f 27/27/27 69/69/69 67/67/67
f 70/70/70 68/68/68 67/67/67
f 71/71/71 67/67/67 69/69/69
f 70/70/70 67/67/67 72/72/72
f 71/71/71 73/73/73 67/67/67
f 72/72/72 67/67/67 74/74/74
f 73/73/73 75/75/75 67/67/67
f 74/74/74 67/67/67 76/76/76
f 77/77/77 67/67/67 75/75/75
f 76/76/76 67/67/67 78/78/78
f 79/79/79 67/67/67 77/77/77
f 78/78/78 67/67/67 80/80/80
f 79/79/79 81/81/81 67/67/67
f 81/81/81 80/80/80 67/67/67
