g far_ground_geo02
v -0 0 2.5
v -0 0 1.25
v 2.5 0 1.25
v 2.5 0 2.5
v -2.5 0 2.5
v -2.5 0 1.25
v -0 0 1.25
v -0 0 2.5
v -0 0 1.25
v 2.5 0 -1.25
v 2.5 0 1.25
v -0 0 -1.25
v 2.5 0 -2.5
v -0 0 -2.5
v -2.5 0 1.25
v -0 0 -1.25
v -0 0 1.25
v -2.5 0 -1.25
v -0 0 -2.5
v -2.5 0 -2.5
vt 1.424551E-05 0.5
vt 1.424551E-05 1
vt 1 1
vt 1 0.5
vt 1.424551E-05 0.5
vt 1.424551E-05 1
vt 1 1
vt 1 0.5
vt 1.424551E-05 -5.6028366E-05
vt 1 1
vt 1 -5.6028366E-05
vt 1.424551E-05 1
vt 1 1.5
vt 1.424551E-05 1.5
vt 1.424551E-05 -5.6028366E-05
vt 1 1
vt 1 -5.6028366E-05
vt 1.424551E-05 1
vt 1 1.5
vt 1.424551E-05 1.5
vn -0 1 0
vn -0 1 0
vn -0 1 0
vn -0 1 0
vn -0 1 0
vn -0 1 0
vn -0 1 0
vn -0 1 0
vn -0 1 0
vn -0 1 0
vn -0 1 0
vn -0 1 0
vn -0 1 0
vn -0 1 0
vn -0 1 0
vn -0 1 0
vn -0 1 0
vn -0 1 0
vn -0 1 0
vn -0 1 0
g far_ground_geo02_0
f 3/3/3 2/2/2 1/1/1
f 4/4/4 3/3/3 1/1/1
f 7/7/7 6/6/6 5/5/5
f 8/8/8 7/7/7 5/5/5
f 11/11/11 10/10/10 9/9/9
f 10/10/10 12/12/12 9/9/9
f 10/10/10 13/13/13 12/12/12
f 13/13/13 14/14/14 12/12/12
f 17/17/17 16/16/16 15/15/15
f 16/16/16 18/18/18 15/15/15
f 16/16/16 19/19/19 18/18/18
f 19/19/19 20/20/20 18/18/18
