g fire_geo
v -0.5110689 -0.035494078 3.218651E-07
v -0.62038535 -0.026278572 1.2397766E-07
v -0.6460757 0.202621 -7.6293944E-08
v -0.53690505 0.21447659 -3.1948088E-07
v 0.38662246 -0.085657045 -0.02838364
v 0.30750105 -0.038823318 -0.028383864
v 0.45732445 0.061239548 -0.028383965
v 0.45981276 0.30408967 -0.028384319
v 0.31377986 0.23336151 -0.028384022
v 0.3809777 0.33631536 -0.028384209
v 0.6095866 0.13481984 3.5762787E-07
v 0.5717959 0.20637295 1.335144E-07
v 0.6038734 0.3526924 -8.5830685E-08
v 0.6768217 0.33738068 -3.5762787E-07
v 0.41550845 -0.14676563 -0.022948137
v 0.35885307 -0.21430561 -0.022947822
v 0.3722825 -0.13928692 -0.022947865
v 0.44604868 -0.278035 -0.022947911
v 0.2980326 -0.26157275 -0.022947764
v 0.28352734 -0.42238188 -0.022947645
v 0.38323948 -0.4437102 -0.022947421
v -0.44718024 -0.30037546 3.004074E-07
v -0.5417418 -0.31042615 1.14440915E-07
v -0.544938 -0.11965374 -7.152557E-08
v -0.4639631 -0.1374821 -3.004074E-07
v -0.73560697 -0.23949231 1.14440915E-07
v -0.7172688 -0.017051697 -7.152557E-08
v -0.60842574 -0.086815946 -3.004074E-07
v -0.57374585 -0.21867651 0
v -0.59797657 -0.3523143 3.004074E-07
v 0.5309996 -0.18153933 2.9802322E-07
v 0.43779776 -0.16413613 1.1920929E-07
v 0.48572737 0.054452743 -7.6293944E-08
v 0.57942975 0.041976776 -2.8848646E-07
vt 0.27856445 0.54052734
vt 0.095214844 0.5727539
vt 0.085632324 0.96191406
vt 0.27197266 0.96533203
vt 0.85058594 0.029281616
vt 0.70703125 0.11437988
vt 0.9790039 0.2944336
vt 0.98291016 0.73339844
vt 0.7182617 0.6064453
vt 0.83984375 0.7919922
vt 0.37231445 0.26464844
vt 0.29638672 0.38427734
vt 0.3317871 0.6430664
vt 0.46142578 0.62597656
vt 0.61035156 0.5517578
vt 0.5073242 0.43017578
vt 0.5317383 0.56591797
vt 0.66552734 0.31445312
vt 0.39697266 0.34521484
vt 0.37109375 0.054595947
vt 0.5517578 0.015472412
vt 0.5126953 0.6611328
vt 0.3413086 0.6435547
vt 0.33520508 0.98828125
vt 0.48217773 0.9555664
vt 0.041259766 0.1965332
vt 0.074279785 0.5986328
vt 0.27197266 0.4716797
vt 0.33496094 0.23327637
vt 0.29125977 -0.008125305
vt 0.7211914 0.5415039
vt 0.53271484 0.5644531
vt 0.5991211 1.0058594
vt 0.78808594 0.9926758
vn 1.7881393E-07 1.7881393E-06 1
vn 1.7881393E-07 1.7881393E-06 1
vn 1.7881393E-07 1.7881393E-06 1
vn 1.7881393E-07 1.7881393E-06 1
vn -1.2516975E-06 2.8014183E-06 1
vn 4.172325E-07 1.3113022E-06 1
vn 7.1525574E-07 1.0728836E-06 1
vn 8.940697E-07 9.536743E-07 1
vn 8.34465E-07 9.536743E-07 1
vn 1.6093254E-06 7.1525574E-07 1
vn 2.0861626E-06 2.0861626E-06 1
vn 2.0861626E-06 2.0861626E-06 1
vn 2.0861626E-06 2.0861626E-06 1
vn 2.0861626E-06 2.0861626E-06 1
vn 3.5762787E-06 1.6093254E-06 1
vn 2.6226044E-06 1.013279E-06 1
vn 3.5762787E-06 1.6093254E-06 1
vn 5.364418E-07 1.7285347E-06 1
vn -0 1.7285347E-06 1
vn -0 1.847744E-06 1
vn -0 1.847744E-06 1
vn 2.9802322E-07 2.2649765E-06 1
vn 2.9802322E-07 2.2649765E-06 1
vn 2.9802322E-07 2.2649765E-06 1
vn 2.9802322E-07 2.2649765E-06 1
vn 1.3113022E-06 1.6093254E-06 1
vn 1.5497208E-06 1.4305115E-06 1
vn 1.5497208E-06 1.4305115E-06 1
vn 1.2516975E-06 1.66893E-06 1
vn 4.172325E-07 2.1457672E-06 1
vn 4.7683716E-07 1.66893E-06 1
vn 4.7683716E-07 1.66893E-06 1
vn 4.7683716E-07 1.66893E-06 1
vn 4.7683716E-07 1.66893E-06 1
g fire_geo_0
f 3/3/3 2/2/2 1/1/1
f 4/4/4 3/3/3 1/1/1
f 7/7/7 6/6/6 5/5/5
f 7/7/7 8/8/8 6/6/6
f 8/8/8 9/9/9 6/6/6
f 8/8/8 10/10/10 9/9/9
f 13/13/13 12/12/12 11/11/11
f 14/14/14 13/13/13 11/11/11
f 17/17/17 16/16/16 15/15/15
f 16/16/16 18/18/18 15/15/15
f 16/16/16 19/19/19 18/18/18
f 19/19/19 20/20/20 18/18/18
f 20/20/20 21/21/21 18/18/18
f 24/24/24 23/23/23 22/22/22
f 25/25/25 24/24/24 22/22/22
f 28/28/28 27/27/27 26/26/26
f 29/29/29 28/28/28 26/26/26
f 29/29/29 26/26/26 30/30/30
f 33/33/33 32/32/32 31/31/31
f 34/34/34 33/33/33 31/31/31
