g flame04_geo
v -0.07399124 -0.07150745 -0.00999999
v -0.071595766 -0.07686326 0.010000007
v -0.07301029 -0.08113457 -0.009999993
v -0.072785795 -0.06823319 0.010000009
v -0.07793716 -0.06276901 -0.009999986
v -0.07557304 -0.05965024 0.010000013
v -0.080545366 -0.05475436 -0.009999984
v -0.07848741 -0.05349345 0.010000007
v -0.08003631 -0.048024118 0.010000008
v -0.08403631 -0.048026264 -0.00999999
v -0.071595766 -0.07686326 0.010000007
v -0.060213335 -0.08510036 -0.009999998
v -0.07301029 -0.08113457 -0.009999993
v -0.05916496 -0.08251627 0.010000003
v -0.045424957 -0.08592565 0.009999998
v -0.04673311 -0.089219786 -0.010000001
v -0.034634817 -0.09739852 -0.010000005
v -0.033456918 -0.093489595 0.009999993
v -0.023708075 -0.09672977 0.0099999895
v -0.024955787 -0.1054478 -0.010000011
v -0.08403631 -0.048026264 -0.00999999
v -0.045447655 -0.04889449 0.010000008
v -0.08003631 -0.048024118 0.010000008
v -0.045447655 -0.04889449 -0.00999999
v -0.030757217 -0.046568222 -0.00999999
v -0.030757217 -0.046568222 0.010000008
v -0.01294733 0.09562414 0.010000008
v -0.012827586 0.09878874 -0.00999999
v -0.004865093 0.09576578 -0.009999993
v -0.00664484 0.09330702 0.010000009
v 0.005334148 0.09488563 -0.010000001
v 0.006149769 0.09142213 0.0100000035
v 0.018334102 0.08554918 -0.010000005
v 0.018176327 0.082961656 0.009999997
v 0.027034396 0.0822617 0.009999993
v 0.0270376 0.08330164 -0.010000011
v 0.036484357 0.08578216 -0.010000016
v 0.03649988 0.08397875 0.009999989
v 0.045811594 0.082238786 0.009999994
v 0.0457456 0.085301414 -0.010000011
v 0.055350475 0.085944496 -0.010000001
v 0.055548113 0.08131702 0.010000003
v 0.073197156 0.05984907 0.010000016
v 0.074530125 0.061290264 -0.009999986
v 0.07999365 0.0572945 -0.009999984
v 0.080036335 0.055633716 0.010000016
v -0.030757217 -0.046568222 0.010000008
v -0.030757217 -0.046568222 -0.00999999
v -0.027044449 -0.03449329 -0.00999999
v -0.027044449 -0.03449329 0.010000008
v -0.015659617 0.07059002 -0.00999999
v -0.015489063 0.07216369 0.010000008
v -0.01294733 0.09562414 0.010000008
v -0.012827586 0.09878874 -0.00999999
v 0.061744098 -0.055437583 0.009999983
v 0.06836443 -0.05324335 0.009999984
v 0.06835397 -0.058405302 -0.010000016
v 0.06401918 -0.060486488 -0.010000016
v 0.017670574 -0.065096 0.009999989
v 0.018217793 -0.07256009 -0.010000011
v 0.011094989 -0.07158199 0.0099999895
v 0.01147028 -0.074560985 -0.010000011
v 0.00402792 -0.071890935 0.009999991
v 0.0042291833 -0.07525415 -0.010000008
v -0.0022799873 -0.07575628 0.009999992
v -0.00017160416 -0.07872925 -0.010000008
v -0.008380566 -0.083018035 -0.010000008
v -0.011554775 -0.0785916 0.009999992
v -0.024955787 -0.1054478 -0.010000011
v -0.023708075 -0.09672977 0.0099999895
v 0.06835397 -0.058405302 -0.010000016
v 0.06836443 -0.05324335 0.009999984
v 0.080036335 0.055633716 0.010000016
v 0.07999365 0.0572945 -0.009999984
v 0.06836443 -0.05324335 0.009999984
v 0.073197156 0.05984907 0.010000016
v 0.080036335 0.055633716 0.010000016
v 0.061744098 -0.055437583 0.009999983
v 0.017670574 -0.065096 0.009999989
v 0.035560627 0.064281866 0.010000013
v 0.055548113 0.08131702 0.010000003
v 0.045811594 0.082238786 0.009999994
v 0.03649988 0.08397875 0.009999989
v 0.027034396 0.0822617 0.009999993
v 0.018176327 0.082961656 0.009999997
v -0.009016017 0.07139875 0.010000008
v -0.021132298 -0.04054775 0.010000005
v 0.006149769 0.09142213 0.0100000035
v 0.011094989 -0.07158199 0.0099999895
v 0.00402792 -0.071890935 0.009999991
v -0.00664484 0.09330702 0.010000009
v -0.0022799873 -0.07575628 0.009999992
v -0.015489063 0.07216369 0.010000008
v -0.01294733 0.09562414 0.010000008
v -0.027044449 -0.03449329 0.010000008
v -0.024777068 -0.05218006 0.010000005
v -0.030757217 -0.046568222 0.010000008
v -0.03888729 -0.054452848 0.010000005
v -0.011554775 -0.0785916 0.009999992
v -0.023708075 -0.09672977 0.0099999895
v -0.033456918 -0.093489595 0.009999993
v -0.045424957 -0.08592565 0.009999998
v -0.05916496 -0.08251627 0.010000003
v -0.071595766 -0.07686326 0.010000007
v -0.072785795 -0.06823319 0.010000009
v -0.07557304 -0.05965024 0.010000013
v -0.045447655 -0.04889449 0.010000008
v -0.07848741 -0.05349345 0.010000007
v -0.08003631 -0.048024118 0.010000008
v -0.045447655 -0.04889449 -0.00999999
v -0.08403631 -0.048026264 -0.00999999
v -0.080545366 -0.05475436 -0.009999984
v -0.07793716 -0.06276901 -0.009999986
v -0.07399124 -0.07150745 -0.00999999
v -0.07301029 -0.08113457 -0.009999993
v -0.060213335 -0.08510036 -0.009999998
v -0.04673311 -0.089219786 -0.010000001
v -0.034634817 -0.09739852 -0.010000005
v -0.024955787 -0.1054478 -0.010000011
v -0.008380566 -0.083018035 -0.010000008
v -0.030757217 -0.046568222 -0.00999999
v -0.00017160416 -0.07872925 -0.010000008
v -0.027044449 -0.03449329 -0.00999999
v 0.0042291833 -0.07525415 -0.010000008
v 0.01147028 -0.074560985 -0.010000011
v 0.018217793 -0.07256009 -0.010000011
v 0.03524355 0.06565956 -0.009999989
v -0.015659617 0.07059002 -0.00999999
v 0.074530125 0.061290264 -0.009999986
v 0.06401918 -0.060486488 -0.010000016
v 0.07999365 0.0572945 -0.009999984
v 0.06835397 -0.058405302 -0.010000016
v 0.055350475 0.085944496 -0.010000001
v 0.0457456 0.085301414 -0.010000011
v 0.036484357 0.08578216 -0.010000016
v 0.0270376 0.08330164 -0.010000011
v 0.018334102 0.08554918 -0.010000005
v 0.005334148 0.09488563 -0.010000001
v -0.012827586 0.09878874 -0.00999999
v -0.004865093 0.09576578 -0.009999993
vt 0.6333008 0.040618896
vt 0.63671875 0.050689697
vt 0.6376953 0.040618896
vt 0.6323242 0.050689697
vt 0.62841797 0.040618896
vt 0.6274414 0.050689697
vt 0.6245117 0.040618896
vt 0.62402344 0.050689697
vt 0.62158203 0.050689697
vt 0.62060547 0.040618896
vt 0.63671875 0.050689697
vt 0.6435547 0.040618896
vt 0.6376953 0.040618896
vt 0.6435547 0.050689697
vt 0.64990234 0.050689697
vt 0.64990234 0.040618896
vt 0.65722656 0.040618896
vt 0.6567383 0.050689697
vt 0.6611328 0.050689697
vt 0.66308594 0.040618896
vt 0.2783203 0.06274414
vt 0.29663086 0.05557251
vt 0.28027344 0.05557251
vt 0.29663086 0.06274414
vt 0.30395508 0.06274414
vt 0.30395508 0.05557251
vt 0.6772461 0.050689697
vt 0.6777344 0.040618896
vt 0.67333984 0.040618896
vt 0.6738281 0.050689697
vt 0.66845703 0.040618896
vt 0.66748047 0.050689697
vt 0.66064453 0.040618896
vt 0.66015625 0.050689697
vt 0.6557617 0.050689697
vt 0.6557617 0.040618896
vt 0.6508789 0.040618896
vt 0.6508789 0.050689697
vt 0.6464844 0.050689697
vt 0.6464844 0.040618896
vt 0.6425781 0.040618896
vt 0.6411133 0.050689697
vt 0.6274414 0.050689697
vt 0.6274414 0.040618896
vt 0.62402344 0.040618896
vt 0.62353516 0.050689697
vt 0.30395508 0.05557251
vt 0.30395508 0.06274414
vt 0.30981445 0.06274414
vt 0.30981445 0.05557251
vt 0.36035156 0.06274414
vt 0.36108398 0.05557251
vt 0.37231445 0.05557251
vt 0.3737793 0.06274414
vt 0.66552734 0.050689697
vt 0.6689453 0.050689697
vt 0.66845703 0.040618896
vt 0.6660156 0.040618896
vt 0.6435547 0.050689697
vt 0.6425781 0.040618896
vt 0.63916016 0.050689697
vt 0.6386719 0.040618896
vt 0.6357422 0.050689697
vt 0.6347656 0.040618896
vt 0.63183594 0.050689697
vt 0.63183594 0.040618896
vt 0.6269531 0.040618896
vt 0.6269531 0.050689697
vt 0.61328125 0.040618896
vt 0.6166992 0.050689697
vt 0.43774414 0.08117676
vt 0.4404297 0.08868408
vt 0.4951172 0.08868408
vt 0.4958496 0.08117676
vt 0.37695312 0.46435547
vt 0.37890625 0.51123047
vt 0.38232422 0.50927734
vt 0.37402344 0.46362305
vt 0.3552246 0.45947266
vt 0.36328125 0.5126953
vt 0.37158203 0.52001953
vt 0.36767578 0.52001953
vt 0.36401367 0.5209961
vt 0.36010742 0.52001953
vt 0.35620117 0.5205078
vt 0.3449707 0.515625
vt 0.33935547 0.46972656
vt 0.35131836 0.5239258
vt 0.35253906 0.4567871
vt 0.34960938 0.4567871
vt 0.3461914 0.52490234
vt 0.34692383 0.45507812
vt 0.34228516 0.5161133
vt 0.34350586 0.5258789
vt 0.33691406 0.47216797
vt 0.33789062 0.46484375
vt 0.33544922 0.46704102
vt 0.33203125 0.4638672
vt 0.34326172 0.45385742
vt 0.33813477 0.4465332
vt 0.33422852 0.4477539
vt 0.3293457 0.45092773
vt 0.32373047 0.45239258
vt 0.31860352 0.45458984
vt 0.31811523 0.45825195
vt 0.31689453 0.46166992
vt 0.3293457 0.4663086
vt 0.31567383 0.46435547
vt 0.31518555 0.46655273
vt 1.3291016 0.4663086
vt 1.3134766 0.46655273
vt 1.3154297 0.4638672
vt 1.3164062 0.46044922
vt 1.3173828 0.4567871
vt 1.3183594 0.45288086
vt 1.3232422 0.45117188
vt 1.3291016 0.4494629
vt 1.3339844 0.44628906
vt 1.3378906 0.4428711
vt 1.3447266 0.45214844
vt 1.3349609 0.46704102
vt 1.3476562 0.45385742
vt 1.3369141 0.47216797
vt 1.3496094 0.45532227
vt 1.3525391 0.4555664
vt 1.3554688 0.45654297
vt 1.3632812 0.5131836
vt 1.3417969 0.515625
vt 1.3789062 0.51171875
vt 1.3740234 0.46142578
vt 1.3818359 0.5097656
vt 1.3759766 0.4621582
vt 1.3720703 0.52197266
vt 1.3681641 0.5214844
vt 1.3642578 0.5214844
vt 1.3603516 0.5205078
vt 1.3564453 0.5214844
vt 1.3515625 0.5253906
vt 1.34375 0.52685547
vt 1.3466797 0.5258789
vn -0.9667969 -0.23046875 0.11218262
vn -0.9892578 -0.117614746 0.0869751
vn -0.9892578 -0.117614746 0.0869751
vn -0.9604492 -0.2524414 0.11694336
vn -0.92285156 -0.35913086 0.14038086
vn -0.92285156 -0.35913086 0.14050293
vn -0.91845703 -0.36767578 0.14550781
vn -0.91845703 -0.36791992 0.14562988
vn -0.9135742 -0.3774414 0.15026855
vn -0.9135742 -0.3774414 0.15026855
vn -0.35058594 -0.9194336 0.17907715
vn -0.30664062 -0.9370117 0.1673584
vn -0.35058594 -0.9194336 0.17907715
vn -0.30615234 -0.9370117 0.16723633
vn -0.40673828 -0.89746094 0.1706543
vn -0.40820312 -0.89697266 0.17077637
vn -0.51220703 -0.82666016 0.23278809
vn -0.51416016 -0.8261719 0.22949219
vn -0.4807129 -0.82714844 0.2902832
vn -0.4807129 -0.82714844 0.2902832
vn 0.023757935 0.9995117 -0.0024280548
vn -0.026763916 0.94189453 0.33520508
vn 0.02331543 0.9814453 0.19104004
vn -0.028396606 0.9995117 -0.0017328262
vn -0.15637207 0.98779297 0
vn -0.5419922 0.6923828 0.4765625
vn 0.3466797 0.92626953 0.14672852
vn 0.3466797 0.92626953 0.14672852
vn 0.20617676 0.96728516 0.14855957
vn 0.21411133 0.96533203 0.14855957
vn 0.37597656 0.9169922 0.13330078
vn 0.40405273 0.90527344 0.13098145
vn 0.44091797 0.8911133 0.107299805
vn 0.43115234 0.8959961 0.10675049
vn -0.033813477 0.99609375 0.080566406
vn -0.034179688 0.99609375 0.080566406
vn -0.051513672 0.9941406 0.09564209
vn -0.05230713 0.9941406 0.09552002
vn 0.06414795 0.98583984 0.15576172
vn 0.06506348 0.98583984 0.15515137
vn 0.61376953 0.7758789 0.14660645
vn 0.6459961 0.75 0.14160156
vn 0.7373047 0.6665039 0.11010742
vn 0.7373047 0.6665039 0.11010742
vn 0.55322266 0.82910156 0.08215332
vn 0.55322266 0.82910156 0.08215332
vn -0.5419922 0.6923828 0.4765625
vn -0.9560547 0.2939453 0
vn -0.9916992 0.12768555 1.3709068E-06
vn -0.9008789 0.1159668 0.4182129
vn -0.9941406 0.106933594 0.00097322464
vn -0.9423828 0.10119629 0.31933594
vn -0.97021484 0.10095215 0.21972656
vn -0.9946289 0.10345459 0.005378723
vn 0.2376709 -0.9238281 0.2998047
vn 0.35205078 -0.90185547 0.25024414
vn 0.35205078 -0.90185547 0.25024414
vn 0.23864746 -0.9238281 0.2993164
vn 0.26171875 -0.91796875 0.29736328
vn 0.27197266 -0.9160156 0.29516602
vn 0.32373047 -0.9248047 0.2006836
vn 0.31689453 -0.9272461 0.19958496
vn 0.30566406 -0.9379883 0.16467285
vn 0.32006836 -0.93310547 0.16479492
vn 0.44580078 -0.87353516 0.19543457
vn 0.4482422 -0.8725586 0.19470215
vn 0.7011719 -0.67529297 0.22827148
vn 0.69873047 -0.6777344 0.22827148
vn 0.79541016 -0.56347656 0.22338867
vn 0.79541016 -0.56347656 0.22338867
vn 0.9946289 -0.103271484 0.0077171326
vn 0.9296875 -0.09649658 0.35498047
vn 0.9165039 -0.09515381 0.38842773
vn 0.9946289 -0.103271484 0.0077171326
vn 0.9296875 -0.09649658 0.35498047
vn -0 -2.3841858E-07 1
vn 0.9165039 -0.09515381 0.38842773
vn -0 -2.3841858E-07 1
vn -0 -1.7881393E-07 1
vn -0 -1.1920929E-07 1
vn -0 7.1525574E-07 1
vn -5.364418E-07 1.3709068E-06 1
vn -0 1.1920929E-06 1
vn 1.1920929E-07 1.013279E-06 1
vn 1.7881393E-07 8.34465E-07 1
vn 1.1920929E-07 0 1
vn 1.1920929E-07 -1.1920929E-07 1
vn 4.172325E-07 0 1
vn 2.9802322E-07 -2.3841858E-07 1
vn 2.9802322E-07 -2.3841858E-07 1
vn 1.7881393E-07 0 1
vn 2.3841858E-07 -2.9802322E-07 1
vn -0.9423828 0.10119629 0.31933594
vn -0.97021484 0.10095215 0.21972656
vn -0.9008789 0.1159668 0.4182129
vn 2.3841858E-07 -2.9802322E-07 1
vn -0.5419922 0.6923828 0.4765625
vn 1.1920929E-07 -3.5762787E-07 1
vn 1.7881393E-07 -3.5762787E-07 1
vn 2.3841858E-07 -2.9802322E-07 1
vn 2.3841858E-07 -2.9802322E-07 1
vn 2.3841858E-07 -2.9802322E-07 1
vn 2.3841858E-07 -2.9802322E-07 1
vn 2.3841858E-07 -2.9802322E-07 1
vn 2.3841858E-07 -2.9802322E-07 1
vn 1.1920929E-07 3.5762787E-07 1
vn -0.026763916 0.94189453 0.33520508
vn -0 0 1
vn 0.02331543 0.9814453 0.19104004
vn -1.7881393E-07 2.9802322E-07 -1
vn -0 -1.0728836E-06 -1
vn -1.7881393E-07 -4.7683716E-07 -1
vn -2.9802322E-07 2.9802322E-07 -1
vn -2.9802322E-07 2.9802322E-07 -1
vn -2.3841858E-07 2.9802322E-07 -1
vn -1.7881393E-07 2.9802322E-07 -1
vn -2.9802322E-07 2.3841858E-07 -1
vn -4.7683716E-07 2.3841858E-07 -1
vn -1.7881393E-07 2.3841858E-07 -1
vn -1.7881393E-07 2.9802322E-07 -1
vn -1.7881393E-07 2.9802322E-07 -1
vn -1.7881393E-07 2.9802322E-07 -1
vn -1.1920929E-07 1.1920929E-07 -1
vn -3.5762787E-07 1.7881393E-07 -1
vn -1.7881393E-07 2.9802322E-07 -1
vn -0 1.7881393E-07 -1
vn -0 0 -1
vn -1.1920929E-07 0 -1
vn -0 1.7881393E-07 -1
vn -0 1.7881393E-07 -1
vn 7.748604E-07 2.3841858E-07 -1
vn 7.748604E-07 2.3841858E-07 -1
vn 1.1920929E-07 -7.1525574E-07 -1
vn 8.940697E-07 -1.5497208E-06 -1
vn 1.7881393E-07 -1.3113022E-06 -1
vn -1.1920929E-07 -1.013279E-06 -1
vn -1.7881393E-07 -8.34465E-07 -1
vn -4.172325E-07 0 -1
vn -4.7683716E-07 1.1920929E-07 -1
vn -4.7683716E-07 1.1920929E-07 -1
g flame04_geo_0
f 3/3/3 2/2/2 1/1/1
f 2/2/2 4/4/4 1/1/1
f 1/1/1 4/4/4 5/5/5
f 4/4/4 6/6/6 5/5/5
f 5/5/5 6/6/6 7/7/7
f 6/6/6 8/8/8 7/7/7
f 8/8/8 9/9/9 7/7/7
f 9/9/9 10/10/10 7/7/7
f 13/13/13 12/12/12 11/11/11
f 12/12/12 14/14/14 11/11/11
f 15/15/15 14/14/14 12/12/12
f 16/16/16 15/15/15 12/12/12
f 16/16/16 17/17/17 15/15/15
f 17/17/17 18/18/18 15/15/15
f 19/19/19 18/18/18 17/17/17
f 20/20/20 19/19/19 17/17/17
f 23/23/23 22/22/22 21/21/21
f 22/22/22 24/24/24 21/21/21
f 25/25/25 24/24/24 22/22/22
f 26/26/26 25/25/25 22/22/22
f 29/29/29 28/28/28 27/27/27
f 30/30/30 29/29/29 27/27/27
f 31/31/31 29/29/29 30/30/30
f 32/32/32 31/31/31 30/30/30
f 33/33/33 31/31/31 32/32/32
f 34/34/34 33/33/33 32/32/32
f 33/33/33 34/34/34 35/35/35
f 36/36/36 33/33/33 35/35/35
f 36/36/36 35/35/35 37/37/37
f 35/35/35 38/38/38 37/37/37
f 37/37/37 38/38/38 39/39/39
f 40/40/40 37/37/37 39/39/39
f 40/40/40 39/39/39 41/41/41
f 39/39/39 42/42/42 41/41/41
f 41/41/41 42/42/42 43/43/43
f 44/44/44 41/41/41 43/43/43
f 45/45/45 44/44/44 43/43/43
f 46/46/46 45/45/45 43/43/43
f 49/49/49 48/48/48 47/47/47
f 50/50/50 49/49/49 47/47/47
f 51/51/51 49/49/49 50/50/50
f 52/52/52 51/51/51 50/50/50
f 52/52/52 53/53/53 51/51/51
f 53/53/53 54/54/54 51/51/51
f 57/57/57 56/56/56 55/55/55
f 58/58/58 57/57/57 55/55/55
f 58/58/58 55/55/55 59/59/59
f 60/60/60 58/58/58 59/59/59
f 60/60/60 59/59/59 61/61/61
f 62/62/62 60/60/60 61/61/61
f 61/61/61 63/63/63 62/62/62
f 63/63/63 64/64/64 62/62/62
f 64/64/64 63/63/63 65/65/65
f 66/66/66 64/64/64 65/65/65
f 67/67/67 66/66/66 65/65/65
f 68/68/68 67/67/67 65/65/65
f 67/67/67 68/68/68 69/69/69
f 68/68/68 70/70/70 69/69/69
f 73/73/73 72/72/72 71/71/71
f 74/74/74 73/73/73 71/71/71
f 77/77/77 76/76/76 75/75/75
f 76/76/76 78/78/78 75/75/75
f 79/79/79 78/78/78 76/76/76
f 80/80/80 79/79/79 76/76/76
f 81/81/81 80/80/80 76/76/76
f 81/81/81 82/82/82 80/80/80
f 82/82/82 83/83/83 80/80/80
f 83/83/83 84/84/84 80/80/80
f 84/84/84 85/85/85 80/80/80
f 85/85/85 86/86/86 80/80/80
f 80/80/80 86/86/86 79/79/79
f 86/86/86 87/87/87 79/79/79
f 85/85/85 88/88/88 86/86/86
f 87/87/87 89/89/89 79/79/79
f 90/90/90 89/89/89 87/87/87
f 88/88/88 91/91/91 86/86/86
f 90/90/90 87/87/87 92/92/92
f 86/86/86 91/91/91 93/93/93
f 86/86/86 93/93/93 87/87/87
f 91/91/91 94/94/94 93/93/93
f 93/93/93 95/95/95 87/87/87
f 96/96/96 87/87/87 95/95/95
f 87/87/87 96/96/96 92/92/92
f 97/97/97 96/96/96 95/95/95
f 96/96/96 98/98/98 92/92/92
f 96/96/96 97/97/97 98/98/98
f 98/98/98 99/99/99 92/92/92
f 100/100/100 99/99/99 98/98/98
f 101/101/101 100/100/100 98/98/98
f 102/102/102 101/101/101 98/98/98
f 103/103/103 102/102/102 98/98/98
f 104/104/104 103/103/103 98/98/98
f 105/105/105 104/104/104 98/98/98
f 106/106/106 105/105/105 98/98/98
f 97/97/97 107/107/107 98/98/98
f 108/108/108 106/106/106 98/98/98
f 108/108/108 98/98/98 107/107/107
f 109/109/109 108/108/108 107/107/107
f 112/112/112 111/111/111 110/110/110
f 113/113/113 112/112/112 110/110/110
f 114/114/114 113/113/113 110/110/110
f 115/115/115 114/114/114 110/110/110
f 116/116/116 115/115/115 110/110/110
f 117/117/117 116/116/116 110/110/110
f 118/118/118 117/117/117 110/110/110
f 118/118/118 110/110/110 119/119/119
f 110/110/110 120/120/120 119/119/119
f 110/110/110 121/121/121 120/120/120
f 121/121/121 122/122/122 120/120/120
f 122/122/122 121/121/121 123/123/123
f 124/124/124 122/122/122 123/123/123
f 124/124/124 123/123/123 125/125/125
f 126/126/126 125/125/125 123/123/123
f 127/127/127 126/126/126 123/123/123
f 128/128/128 127/127/127 123/123/123
f 127/127/127 129/129/129 126/126/126
f 129/129/129 130/130/130 126/126/126
f 129/129/129 131/131/131 130/130/130
f 131/131/131 132/132/132 130/130/130
f 127/127/127 133/133/133 129/129/129
f 127/127/127 134/134/134 133/133/133
f 127/127/127 135/135/135 134/134/134
f 127/127/127 136/136/136 135/135/135
f 127/127/127 128/128/128 136/136/136
f 128/128/128 137/137/137 136/136/136
f 128/128/128 138/138/138 137/137/137
f 128/128/128 139/139/139 138/138/138
f 139/139/139 140/140/140 138/138/138
