g flame5_geo
v 0.1159291 0.008351444 -0.009088943
v 0.11266121 0.012021168 0.00908894
v 0.11339288 0.011999749 -0.00908894
v 0.114679255 0.004797519 0.0090255225
v 0.119434096 0.00420132 0.009087695
v 0.12363848 0.0044576866 -0.009088938
v 0.12728223 -0.00091859966 -0.00908894
v 0.12313612 -0.0010264984 0.009088258
v 0.12481664 -0.0073898085 -0.0090889335
v 0.12210631 -0.0077382624 0.008982217
v 0.12510946 -0.014542795 -0.009088938
v 0.12182779 -0.014257289 0.009016625
v 0.12480721 -0.021354206 0.009088837
v 0.12351392 -0.02124572 -0.009088929
v 0.12106877 -0.028046262 -0.009088929
v 0.11740808 -0.027090127 0.008973641
v 0.11740808 -0.027090127 0.008973641
v 0.12106877 -0.028046262 -0.009088929
v 0.12265983 -0.034011643 -0.008999513
v 0.119050816 -0.034654457 0.009035268
v 0.12554984 -0.041549224 0.008988309
v 0.13118276 -0.0385672 -0.009088921
v 0.13885885 -0.04308137 -0.009088914
v 0.1344421 -0.044722624 0.009013655
v 0.14455417 -0.050886188 -0.009088905
v 0.1398657 -0.052789193 0.0089687295
v 0.1527978 -0.05535801 -0.0090889
v 0.14832875 -0.057125267 0.008990032
v 0.1603037 -0.070082396 0.008961291
v 0.15830597 -0.06649 -0.009088888
v 0.16720492 -0.07429812 -0.00908888
v 0.16837057 -0.074314795 0.009088944
v 0.11339288 0.011999749 -0.00908894
v 0.11266121 0.012021168 0.00908894
v -0.07117097 0.016647022 0.009088942
v -0.071170986 0.016647032 -0.009088943
v -0.08295758 0.017546099 0.009088943
v -0.08295758 0.017546099 -0.009088943
v -0.09695489 0.06984602 0.008995032
v -0.09161149 0.0802242 -0.009088938
v -0.09170512 0.0743148 0.00908894
v -0.097665854 0.07441338 -0.009088943
v -0.10500148 0.0683425 0.008962369
v -0.106086105 0.0750974 -0.009088929
v -0.11185153 0.066196404 0.009003585
v -0.11443099 0.071536444 -0.009088914
v -0.115419455 0.06141799 0.009041973
v -0.11617621 0.061966486 -0.009088909
v -0.12023341 0.05719237 0.009048578
v -0.12073195 0.06025584 -0.009088903
v -0.120235816 0.050323598 0.008973838
v -0.1222972 0.051193647 -0.0090889
v -0.12388789 0.04575077 0.00903655
v -0.12520415 0.04955301 -0.009088897
v -0.12879263 0.038847674 0.008966918
v -0.13065559 0.04533036 -0.009088886
v -0.13767664 0.03780211 0.008992251
v -0.13814548 0.04024615 -0.009088876
v -0.15262061 0.03514894 0.008967459
v -0.15433662 0.04142417 -0.009088857
v -0.16382779 0.03259151 -0.009088838
v -0.16264643 0.029762322 0.009050808
v -0.16834153 0.025565898 -0.009088838
v -0.16837049 0.025907485 0.00908895
v -0.16834153 0.025565898 -0.009088838
v -0.1605414 -0.06580072 -0.009088795
v -0.16382779 0.03259151 -0.009088838
v -0.15433662 0.04142417 -0.009088857
v -0.13814548 0.04024615 -0.009088876
v -0.13065559 0.04533036 -0.009088886
v -0.08719033 0.028447863 -0.00908894
v -0.12520415 0.04955301 -0.009088897
v -0.1222972 0.051193647 -0.0090889
v -0.12073195 0.06025584 -0.009088903
v -0.11617621 0.061966486 -0.009088909
v -0.11443099 0.071536444 -0.009088914
v -0.106086105 0.0750974 -0.009088929
v -0.097665854 0.07441338 -0.009088943
v -0.09161149 0.0802242 -0.009088938
v -0.08295758 0.017546099 -0.009088943
v -0.15890685 -0.06898969 -0.009088795
v -0.071170986 0.016647032 -0.009088943
v -0.15500402 -0.0696882 -0.0090887975
v 0.088419504 -0.07338987 -0.009088862
v 0.103127934 -0.009102021 -0.009088934
v 0.12106877 -0.028046262 -0.009088929
v 0.11339288 0.011999749 -0.00908894
v 0.1159291 0.008351444 -0.009088943
v 0.12363848 0.0044576866 -0.009088938
v 0.12728223 -0.00091859966 -0.00908894
v 0.12481664 -0.0073898085 -0.0090889335
v 0.12510946 -0.014542795 -0.009088938
v 0.12351392 -0.02124572 -0.009088929
v 0.12265983 -0.034011643 -0.008999513
v 0.13118276 -0.0385672 -0.009088921
v 0.13885885 -0.04308137 -0.009088914
v 0.14455417 -0.050886188 -0.009088905
v 0.1527978 -0.05535801 -0.0090889
v 0.15830597 -0.06649 -0.009088888
v 0.16720492 -0.07429812 -0.00908888
v -0.16837049 0.025907485 0.00908895
v -0.1605414 -0.06580072 -0.009088795
v -0.16834153 0.025565898 -0.009088838
v -0.16054125 -0.06580072 0.009088952
v -0.15890685 -0.06898969 0.009088951
v -0.15890685 -0.06898969 -0.009088795
v -0.08719029 0.028447844 0.00908894
v -0.09695489 0.06984602 0.008995032
v -0.09170512 0.0743148 0.00908894
v -0.09213063 0.022100111 0.00908894
v -0.10500148 0.0683425 0.008962369
v -0.11185153 0.066196404 0.009003585
v -0.115419455 0.06141799 0.009041973
v -0.12023341 0.05719237 0.009048578
v -0.120235816 0.050323598 0.008973838
v -0.12388789 0.04575077 0.00903655
v -0.12879263 0.038847674 0.008966918
v -0.08295758 0.017546099 0.009088943
v -0.13767664 0.03780211 0.008992251
v -0.15570945 -0.059592284 0.009088947
v -0.15262061 0.03514894 0.008967459
v -0.16264643 0.029762322 0.009050808
v -0.16837049 0.025907485 0.00908895
v -0.16054125 -0.06580072 0.009088952
v -0.15890685 -0.06898969 0.009088951
v -0.088072844 0.011717794 0.009088943
v -0.07117097 0.016647022 0.009088942
v -0.15390392 -0.06328931 0.00908895
v -0.07681725 0.01083228 0.009088943
v 0.11266121 0.012021168 0.00908894
v 0.114679255 0.004797519 0.0090255225
v 0.101452224 -0.0122993095 0.008993089
v 0.119434096 0.00420132 0.009087695
v 0.12313612 -0.0010264984 0.009088258
v 0.12210631 -0.0077382624 0.008982217
v 0.12182779 -0.014257289 0.009016625
v 0.12480721 -0.021354206 0.009088837
v 0.11740808 -0.027090127 0.008973641
v 0.09074901 -0.07006088 0.008983647
v 0.119050816 -0.034654457 0.009035268
v 0.12554984 -0.041549224 0.008988309
v 0.1344421 -0.044722624 0.009013655
v 0.1398657 -0.052789193 0.0089687295
v 0.14832875 -0.057125267 0.008990032
v 0.1603037 -0.070082396 0.008961291
v -0.14948173 -0.06400103 0.009088951
v -0.15500402 -0.0696882 0.00908895
v 0.08999903 -0.07341247 0.009088943
v 0.16837057 -0.074314795 0.009088944
v -0.08719029 0.028447844 0.00908894
v -0.08295758 0.017546099 -0.009088943
v -0.08295758 0.017546099 0.009088943
v -0.08719033 0.028447863 -0.00908894
v -0.09170512 0.0743148 0.00908894
v -0.09161149 0.0802242 -0.009088938
v -0.15500402 -0.0696882 0.00908895
v -0.15890685 -0.06898969 -0.009088795
v -0.15890685 -0.06898969 0.009088951
v -0.15500402 -0.0696882 -0.0090887975
v 0.088419504 -0.07338987 -0.009088862
v 0.08999903 -0.07341247 0.009088943
v 0.16837057 -0.074314795 0.009088944
v 0.16720492 -0.07429812 -0.00908888
vt 0.7890625 0.05432129
vt 0.7919922 0.06427002
vt 0.7915039 0.05432129
vt 0.78808594 0.06427002
vt 0.78564453 0.06427002
vt 0.78466797 0.05432129
vt 0.7817383 0.05432129
vt 0.78222656 0.06427002
vt 0.7783203 0.05432129
vt 0.7788086 0.06427002
vt 0.77490234 0.05432129
vt 0.7753906 0.06427002
vt 0.7714844 0.06427002
vt 0.7709961 0.05432129
vt 0.76708984 0.05432129
vt 0.76708984 0.06427002
vt 0.76708984 0.06427002
vt 0.76708984 0.05432129
vt 0.7631836 0.05432129
vt 0.7636719 0.06427002
vt 0.75878906 0.06427002
vt 0.7578125 0.05432129
vt 0.7529297 0.05432129
vt 0.75439453 0.06427002
vt 0.7480469 0.05432129
vt 0.74902344 0.06427002
vt 0.74316406 0.05432129
vt 0.7441406 0.06427002
vt 0.7348633 0.06427002
vt 0.7368164 0.05432129
vt 0.73095703 0.05432129
vt 0.72998047 0.06427002
vt 0.10345459 0.06274414
vt 0.10308838 0.05621338
vt 0.015335083 0.05621338
vt 0.015335083 0.06274414
vt 0.009689331 0.05621338
vt 0.00969696 0.06274414
vt 0.6791992 0.06427002
vt 0.6738281 0.05432129
vt 0.67578125 0.06427002
vt 0.67822266 0.05432129
vt 0.68310547 0.06427002
vt 0.6826172 0.05432129
vt 0.6870117 0.06427002
vt 0.68652344 0.05432129
vt 0.6904297 0.06427002
vt 0.69091797 0.05432129
vt 0.69384766 0.06427002
vt 0.6928711 0.05432129
vt 0.6972656 0.06427002
vt 0.6977539 0.05432129
vt 0.7001953 0.06427002
vt 0.69921875 0.05432129
vt 0.70410156 0.06427002
vt 0.703125 0.05432129
vt 0.7084961 0.06427002
vt 0.7080078 0.05432129
vt 0.7163086 0.06427002
vt 0.7158203 0.05432129
vt 0.7216797 0.05432129
vt 0.72216797 0.06427002
vt 0.7260742 0.05432129
vt 0.7260742 0.06427002
vt 1.046875 0.47607422
vt 1.0507812 0.43823242
vt 1.0488281 0.47875977
vt 1.0527344 0.48242188
vt 1.0595703 0.4819336
vt 1.0625 0.48413086
vt 1.0810547 0.47705078
vt 1.0654297 0.48583984
vt 1.0664062 0.48657227
vt 1.0664062 0.49023438
vt 1.0683594 0.4909668
vt 1.0693359 0.49487305
vt 1.0732422 0.4963379
vt 1.0761719 0.49609375
vt 1.0791016 0.49853516
vt 1.0820312 0.47265625
vt 1.0517578 0.43701172
vt 1.0869141 0.4724121
vt 1.0527344 0.43676758
vt 1.1523438 0.43530273
vt 1.1591797 0.46166992
vt 1.1660156 0.45385742
vt 1.1630859 0.47045898
vt 1.1640625 0.46899414
vt 1.1669922 0.46728516
vt 1.1689453 0.4650879
vt 1.1679688 0.46240234
vt 1.1679688 0.45947266
vt 1.1669922 0.4567871
vt 1.1669922 0.45141602
vt 1.1699219 0.4494629
vt 1.1738281 0.4477539
vt 1.1757812 0.44458008
vt 1.1787109 0.44262695
vt 1.1816406 0.43798828
vt 1.1855469 0.43481445
vt 0.7426758 0.10015869
vt 0.7885742 0.09338379
vt 0.7426758 0.09338379
vt 0.7885742 0.10015869
vt 0.79052734 0.10015869
vt 0.79052734 0.09338379
vt 0.080444336 0.47729492
vt 0.076171875 0.49487305
vt 0.078552246 0.49682617
vt 0.07836914 0.47485352
vt 0.07281494 0.49438477
vt 0.070007324 0.4934082
vt 0.06854248 0.49145508
vt 0.066589355 0.4897461
vt 0.066589355 0.4868164
vt 0.06512451 0.48486328
vt 0.06311035 0.48217773
vt 0.082458496 0.47314453
vt 0.059417725 0.48168945
vt 0.052337646 0.44140625
vt 0.053222656 0.4807129
vt 0.049102783 0.47827148
vt 0.04660034 0.4765625
vt 0.050109863 0.4387207
vt 0.051330566 0.43725586
vt 0.0803833 0.47070312
vt 0.08746338 0.4724121
vt 0.05343628 0.43969727
vt 0.08520508 0.47021484
vt 0.16308594 0.47094727
vt 0.1640625 0.46777344
vt 0.1586914 0.46069336
vt 0.1661377 0.4675293
vt 0.16760254 0.46533203
vt 0.16723633 0.46264648
vt 0.16711426 0.45996094
vt 0.16833496 0.45703125
vt 0.1652832 0.45458984
vt 0.15429688 0.43725586
vt 0.16589355 0.45166016
vt 0.1685791 0.44873047
vt 0.17224121 0.44750977
vt 0.17443848 0.44433594
vt 0.17797852 0.44262695
vt 0.18286133 0.43725586
vt 0.055480957 0.43945312
vt 0.05331421 0.43725586
vt 0.15393066 0.43579102
vt 0.18615723 0.43554688
vt 0.59472656 0.06854248
vt 0.60009766 0.07507324
vt 0.60009766 0.06854248
vt 0.59472656 0.07507324
vt 0.5727539 0.06854248
vt 0.5698242 0.07507324
vt 0.012023926 0.088012695
vt 0.010009766 0.08117676
vt 0.010032654 0.088012695
vt 0.012016296 0.08117676
vt 0.1340332 0.08117676
vt 0.13476562 0.088012695
vt 0.17407227 0.088012695
vt 0.17346191 0.08117676
vn 0.67871094 0.72314453 0.12915039
vn 0.9189453 0.38452148 0.08758545
vn 0.9189453 0.38452148 0.08758545
vn 0.64990234 0.74853516 0.13195801
vn 0.5708008 0.8022461 0.1751709
vn 0.62109375 0.7626953 0.1796875
vn 0.96777344 0.15100098 0.20153809
vn 0.96435547 0.16992188 0.2019043
vn 0.9765625 -0.13061523 0.17163086
vn 0.9770508 -0.125 0.17138672
vn 0.9926758 0.05090332 0.10888672
vn 0.9926758 0.049713135 0.11022949
vn 0.9511719 -0.3022461 0.064819336
vn 0.94873047 -0.30859375 0.064941406
vn 0.78466797 -0.6166992 0.06567383
vn 0.78466797 -0.6166992 0.06567383
vn 0.95458984 0.23022461 0.19018555
vn 0.95458984 0.23022461 0.19018555
vn 0.77685547 0.5883789 0.22546387
vn 0.7944336 0.5644531 0.22399902
vn 0.51416016 0.8261719 0.22924805
vn 0.49389648 0.8388672 0.2290039
vn 0.64208984 0.7246094 0.24975586
vn 0.6123047 0.75097656 0.24768066
vn 0.6323242 0.73876953 0.23364258
vn 0.6582031 0.71435547 0.23754883
vn 0.6928711 0.7011719 0.16772461
vn 0.6699219 0.72216797 0.17236328
vn 0.7055664 0.703125 0.089904785
vn 0.734375 0.67089844 0.10443115
vn 0.578125 0.8154297 0.030715942
vn 0.578125 0.8154297 0.030715942
vn 0.025161743 0.9995117 -8.21352E-05
vn 0.02319336 0.9189453 0.39331055
vn 0.025100708 0.8857422 0.46313477
vn 0.02822876 0.9995117 -7.7188015E-05
vn 0.51660156 0.7011719 0.49145508
vn 0.076049805 0.9970703 -4.172325E-07
vn -0.34521484 0.8959961 0.27905273
vn -0.65722656 0.7207031 0.21948242
vn -0.65722656 0.7207031 0.21948242
vn -0.36645508 0.8886719 0.2763672
vn -0.1940918 0.9277344 0.31884766
vn -0.19116211 0.92822266 0.31860352
vn -0.6850586 0.6801758 0.26049805
vn -0.6459961 0.7133789 0.27197266
vn -0.80322266 0.5810547 0.1315918
vn -0.8022461 0.58203125 0.1315918
vn -0.90527344 0.41357422 0.09790039
vn -0.87597656 0.47216797 0.100097656
vn -0.9321289 0.34375 0.114868164
vn -0.93066406 0.34692383 0.11529541
vn -0.7001953 0.6796875 0.21887207
vn -0.69873047 0.6826172 0.21398926
vn -0.51464844 0.81884766 0.25390625
vn -0.5395508 0.8027344 0.25439453
vn -0.1538086 0.9580078 0.24279785
vn -0.1541748 0.95751953 0.24279785
vn -0.29077148 0.9238281 0.24938965
vn -0.28222656 0.92626953 0.24914551
vn -0.6303711 0.75439453 0.18310547
vn -0.6357422 0.75146484 0.1776123
vn -0.9995117 -0.0289917 0.005290985
vn -0.9291992 -0.025009155 0.36865234
vn -0 -4.172325E-07 -1
vn -1.4305115E-06 -4.172325E-07 -1
vn -1.0728836E-06 -4.7683716E-07 -1
vn -1.1324883E-06 -4.7683716E-07 -1
vn -1.3113022E-06 -4.7683716E-07 -1
vn -1.3113022E-06 -4.7683716E-07 -1
vn -1.3709068E-06 -4.172325E-07 -1
vn -1.2516975E-06 -5.9604645E-07 -1
vn -1.013279E-06 0 -1
vn -1.1920929E-06 -1.7881393E-07 -1
vn -1.2516975E-06 -2.9802322E-07 -1
vn -1.5497208E-06 -3.5762787E-07 -1
vn -1.7881393E-06 -4.172325E-07 -1
vn -4.172325E-07 -1.7881393E-07 -1
vn 1.1324883E-06 1.1920929E-07 -1
vn -8.940697E-07 -9.536743E-07 -1
vn -9.536743E-07 -8.940697E-07 -1
vn -2.3841858E-07 -1.3113022E-06 -1
vn -2.3841858E-07 -1.3113022E-06 -1
vn -2.9802322E-06 5.185604E-06 -1
vn -2.3841858E-07 -1.1324883E-06 -1
vn 0.0012187958 -0.0008792877 -1
vn -0 -2.9802322E-07 -1
vn -0 -4.172325E-07 -1
vn -1.1920929E-07 -1.7881393E-07 -1
vn -2.3841858E-07 -2.9802322E-07 -1
vn -0 -2.9802322E-07 -1
vn -4.172325E-07 -4.172325E-07 -1
vn -2.3841858E-07 -5.9604645E-07 -1
vn 0.0021820068 0.0003721714 -1
vn -0.0024967194 0.0030651093 -1
vn -1.7881393E-07 -1.4901161E-06 -1
vn -1.1920929E-07 -1.4305115E-06 -1
vn -1.7881393E-07 -1.2516975E-06 -1
vn -2.3841858E-07 -1.1920929E-06 -1
vn -2.9802322E-07 -1.1920929E-06 -1
vn -0.9291992 -0.025009155 0.36865234
vn -0.9951172 -0.099243164 9.655952E-06
vn -0.9995117 -0.0289917 0.005290985
vn -0.9824219 -0.097961426 0.1595459
vn -0.54833984 -0.7807617 0.2993164
vn -0.57470703 -0.8183594 1.847744E-06
vn 0.91015625 0.13305664 0.39282227
vn -0.0076293945 0.0005645752 1
vn 0.9819336 0.090026855 0.16674805
vn -0.0015897751 0.0012311935 1
vn -8.404255E-06 0.002735138 1
vn 0.0048713684 0.0041160583 1
vn 0.0029239655 0.0029258728 1
vn -0.003124237 -0.0013523102 1
vn -0.006340027 -0.0022335052 1
vn -0.0013694763 0.0003759861 1
vn -0.0017051697 0.0013999939 1
vn 0.51660156 0.7011719 0.49145508
vn -0.0016040802 0.001613617 1
vn 0.0005764961 0.0006842613 1
vn 0.0008096695 0.0012559891 1
vn 0.006061554 0.00082206726 1
vn -0.9291992 -0.025009155 0.36865234
vn -0.9824219 -0.097961426 0.1595459
vn -0.54833984 -0.7807617 0.2993164
vn -1.1920929E-07 1.7881393E-07 1
vn 0.025100708 0.8857422 0.46313477
vn -1.1920929E-07 1.7881393E-07 1
vn 0.00043225288 -0.00049495697 1
vn 0.02319336 0.9189453 0.39331055
vn -0.00020742416 -0.0031604767 1
vn 0.00042200089 -0.00060367584 1
vn -0.005531311 0.0002925396 1
vn -0.00057411194 -0.0073394775 1
vn 0.0022258759 -0.0076942444 1
vn -0.00037550926 0.008110046 1
vn -0.005214691 -0.002872467 1
vn -0.0012207031 -0.0011348724 1
vn 0.0004529953 0.0008535385 1
vn -0.0032157898 0.0011119843 1
vn 0.00028705597 -0.00051403046 1
vn 0.00073957443 -0.0024604797 1
vn 0.00031971931 -4.5597553E-05 1
vn 0.00018489361 -0.0013160706 1
vn 0.00033688545 0.02003479 1
vn 0.0004131794 0.0015621185 1
vn -0.017578125 -0.99072266 0.1352539
vn -0.013702393 -0.9667969 0.25512695
vn -0.011497498 -0.9980469 0.060913086
vn 0.91015625 0.13305664 0.39282227
vn 0.9321289 0.3618164 -5.9604645E-07
vn 0.51660156 0.7011719 0.49145508
vn 0.9892578 0.14416504 0.01411438
vn 0.9819336 0.090026855 0.16674805
vn 0.99560547 0.09112549 0.01737976
vn -0.017578125 -0.99072266 0.1352539
vn -0.57470703 -0.8183594 1.847744E-06
vn -0.54833984 -0.7807617 0.2993164
vn -0.01777649 -1 3.8206577E-05
vn -0.014381409 -1 -1.692772E-05
vn -0.013702393 -0.9667969 0.25512695
vn -0.011497498 -0.9980469 0.060913086
vn -0.011520386 -1 -0.00021028519
g flame5_geo_0
f 3/3/3 2/2/2 1/1/1
f 2/2/2 4/4/4 1/1/1
f 4/4/4 5/5/5 1/1/1
f 5/5/5 6/6/6 1/1/1
f 7/7/7 6/6/6 5/5/5
f 8/8/8 7/7/7 5/5/5
f 9/9/9 7/7/7 8/8/8
f 10/10/10 9/9/9 8/8/8
f 11/11/11 9/9/9 10/10/10
f 12/12/12 11/11/11 10/10/10
f 12/12/12 13/13/13 11/11/11
f 13/13/13 14/14/14 11/11/11
f 15/15/15 14/14/14 13/13/13
f 16/16/16 15/15/15 13/13/13
f 19/19/19 18/18/18 17/17/17
f 20/20/20 19/19/19 17/17/17
f 19/19/19 20/20/20 21/21/21
f 22/22/22 19/19/19 21/21/21
f 23/23/23 22/22/22 21/21/21
f 24/24/24 23/23/23 21/21/21
f 25/25/25 23/23/23 24/24/24
f 26/26/26 25/25/25 24/24/24
f 27/27/27 25/25/25 26/26/26
f 28/28/28 27/27/27 26/26/26
f 28/28/28 29/29/29 27/27/27
f 29/29/29 30/30/30 27/27/27
f 30/30/30 29/29/29 31/31/31
f 29/29/29 32/32/32 31/31/31
f 35/35/35 34/34/34 33/33/33
f 36/36/36 35/35/35 33/33/33
f 35/35/35 36/36/36 37/37/37
f 36/36/36 38/38/38 37/37/37
f 41/41/41 40/40/40 39/39/39
f 40/40/40 42/42/42 39/39/39
f 39/39/39 42/42/42 43/43/43
f 42/42/42 44/44/44 43/43/43
f 43/43/43 44/44/44 45/45/45
f 44/44/44 46/46/46 45/45/45
f 45/45/45 46/46/46 47/47/47
f 46/46/46 48/48/48 47/47/47
f 47/47/47 48/48/48 49/49/49
f 48/48/48 50/50/50 49/49/49
f 49/49/49 50/50/50 51/51/51
f 50/50/50 52/52/52 51/51/51
f 51/51/51 52/52/52 53/53/53
f 52/52/52 54/54/54 53/53/53
f 53/53/53 54/54/54 55/55/55
f 54/54/54 56/56/56 55/55/55
f 55/55/55 56/56/56 57/57/57
f 56/56/56 58/58/58 57/57/57
f 57/57/57 58/58/58 59/59/59
f 58/58/58 60/60/60 59/59/59
f 60/60/60 61/61/61 59/59/59
f 61/61/61 62/62/62 59/59/59
f 61/61/61 63/63/63 62/62/62
f 63/63/63 64/64/64 62/62/62
f 67/67/67 66/66/66 65/65/65
f 67/67/67 68/68/68 66/66/66
f 68/68/68 69/69/69 66/66/66
f 69/69/69 70/70/70 66/66/66
f 70/70/70 71/71/71 66/66/66
f 70/70/70 72/72/72 71/71/71
f 72/72/72 73/73/73 71/71/71
f 73/73/73 74/74/74 71/71/71
f 74/74/74 75/75/75 71/71/71
f 75/75/75 76/76/76 71/71/71
f 76/76/76 77/77/77 71/71/71
f 77/77/77 78/78/78 71/71/71
f 78/78/78 79/79/79 71/71/71
f 71/71/71 80/80/80 66/66/66
f 80/80/80 81/81/81 66/66/66
f 81/81/81 80/80/80 82/82/82
f 83/83/83 81/81/81 82/82/82
f 83/83/83 82/82/82 84/84/84
f 82/82/82 85/85/85 84/84/84
f 85/85/85 86/86/86 84/84/84
f 82/82/82 87/87/87 85/85/85
f 87/87/87 88/88/88 85/85/85
f 85/85/85 88/88/88 89/89/89
f 85/85/85 89/89/89 90/90/90
f 85/85/85 90/90/90 91/91/91
f 85/85/85 91/91/91 92/92/92
f 85/85/85 92/92/92 93/93/93
f 85/85/85 93/93/93 86/86/86
f 86/86/86 94/94/94 84/84/84
f 94/94/94 95/95/95 84/84/84
f 95/95/95 96/96/96 84/84/84
f 96/96/96 97/97/97 84/84/84
f 97/97/97 98/98/98 84/84/84
f 98/98/98 99/99/99 84/84/84
f 99/99/99 100/100/100 84/84/84
f 103/103/103 102/102/102 101/101/101
f 102/102/102 104/104/104 101/101/101
f 104/104/104 102/102/102 105/105/105
f 102/102/102 106/106/106 105/105/105
f 109/109/109 108/108/108 107/107/107
f 108/108/108 110/110/110 107/107/107
f 108/108/108 111/111/111 110/110/110
f 111/111/111 112/112/112 110/110/110
f 112/112/112 113/113/113 110/110/110
f 113/113/113 114/114/114 110/110/110
f 114/114/114 115/115/115 110/110/110
f 115/115/115 116/116/116 110/110/110
f 116/116/116 117/117/117 110/110/110
f 118/118/118 107/107/107 110/110/110
f 117/117/117 119/119/119 110/110/110
f 119/119/119 120/120/120 110/110/110
f 119/119/119 121/121/121 120/120/120
f 121/121/121 122/122/122 120/120/120
f 120/120/120 122/122/122 123/123/123
f 124/124/124 120/120/120 123/123/123
f 120/120/120 124/124/124 125/125/125
f 126/126/126 118/118/118 110/110/110
f 126/126/126 110/110/110 120/120/120
f 118/118/118 126/126/126 127/127/127
f 128/128/128 120/120/120 125/125/125
f 128/128/128 126/126/126 120/120/120
f 126/126/126 129/129/129 127/127/127
f 126/126/126 128/128/128 129/129/129
f 130/130/130 127/127/127 129/129/129
f 131/131/131 130/130/130 129/129/129
f 129/129/129 132/132/132 131/131/131
f 132/132/132 133/133/133 131/131/131
f 132/132/132 134/134/134 133/133/133
f 132/132/132 135/135/135 134/134/134
f 132/132/132 136/136/136 135/135/135
f 132/132/132 137/137/137 136/136/136
f 132/132/132 138/138/138 137/137/137
f 139/139/139 138/138/138 132/132/132
f 140/140/140 138/138/138 139/139/139
f 140/140/140 139/139/139 141/141/141
f 139/139/139 142/142/142 141/141/141
f 139/139/139 143/143/143 142/142/142
f 139/139/139 144/144/144 143/143/143
f 139/139/139 145/145/145 144/144/144
f 129/129/129 146/146/146 132/132/132
f 146/146/146 139/139/139 132/132/132
f 128/128/128 146/146/146 129/129/129
f 128/128/128 125/125/125 146/146/146
f 125/125/125 147/147/147 146/146/146
f 146/146/146 147/147/147 148/148/148
f 139/139/139 146/146/146 148/148/148
f 139/139/139 148/148/148 145/145/145
f 148/148/148 149/149/149 145/145/145
f 152/152/152 151/151/151 150/150/150
f 151/151/151 153/153/153 150/150/150
f 150/150/150 153/153/153 154/154/154
f 153/153/153 155/155/155 154/154/154
f 158/158/158 157/157/157 156/156/156
f 157/157/157 159/159/159 156/156/156
f 156/156/156 159/159/159 160/160/160
f 161/161/161 156/156/156 160/160/160
f 161/161/161 160/160/160 162/162/162
f 160/160/160 163/163/163 162/162/162
