g flame03_geo
v 0.051733803 0.039878715 -0.009999999
v 0.05171965 0.03988086 0.009999999
v -0.055112377 0.04234759 0.009999999
v -0.054381937 0.042543452 -0.009999999
v 0.116532534 -0.037177965 0.009999972
v 0.117457025 -0.04256952 0.009999969
v 0.058660205 -0.0417283 0.009999984
v 0.057196278 -0.036296062 0.009999986
v 0.112135105 -0.0101832505 0.009999981
v 0.09829908 -0.0055846185 0.009999985
v 0.086331025 0.0019793254 0.0099999895
v 0.07259102 0.005388711 0.009999993
v 0.06016024 0.011041715 0.009999998
v -0.04886556 -0.03471968 0.010000011
v -0.049201082 -0.0401851 0.010000012
v -0.111452445 -0.033789463 0.010000025
v -0.1169396 -0.03921595 0.010000029
v -0.08723457 -0.0080401 0.010000026
v -0.07729201 -0.0067996853 0.010000025
v -0.07065164 0.00065747555 0.010000025
v -0.061339963 0.0028042728 0.010000025
v -0.0520622 0.00794164 0.010000024
v 0.05897017 0.019671785 0.010000001
v -0.051410582 0.016181914 0.010000026
v -0.052118685 0.023439342 0.010000021
v 0.05618292 0.028254734 0.010000005
v -0.049989715 0.030626714 0.010000011
v -0.0502613 0.036919743 0.010000001
v 0.05326857 0.034411523 0.009999999
v 0.05171965 0.03988086 0.009999999
v -0.055112377 0.04234759 0.009999999
v 0.06016024 0.011041715 0.009999998
v 0.061745074 0.019997302 -0.011387227
v 0.06424147 0.013067472 -0.011083824
v 0.05897017 0.019671785 0.010000001
v 0.05618292 0.028254734 0.010000005
v 0.059064277 0.028887732 -0.011122203
v 0.05326857 0.034411523 0.009999999
v 0.05370577 0.03449119 -0.0126399435
v 0.05171965 0.03988086 0.009999999
v 0.051733803 0.039878715 -0.009999999
v 0.06424147 0.013067472 -0.011083824
v 0.07259102 0.005388711 0.009999993
v 0.06016024 0.011041715 0.009999998
v 0.07448765 0.0064666206 -0.010384131
v 0.086331025 0.0019793254 0.0099999895
v 0.08823265 0.0042859917 -0.010217238
v 0.09829908 -0.0055846185 0.009999985
v 0.10129409 -0.0036553591 -0.011939898
v 0.112135105 -0.0101832505 0.009999981
v 0.11663629 -0.008422233 -0.011971331
v 0.116532534 -0.037177965 0.009999972
v 0.112135105 -0.0101832505 0.009999981
v 0.11663629 -0.008422233 -0.011971331
v 0.11961069 -0.0381562 -0.010465794
v 0.120394915 -0.042568095 -0.010000025
v 0.117457025 -0.04256952 0.009999969
v 0.117457025 -0.04256952 0.009999969
v 0.120394915 -0.042568095 -0.010000025
v 0.06187033 -0.04177423 -0.010000011
v 0.058660205 -0.0417283 0.009999984
v -0.049201082 -0.0401851 0.010000012
v -0.049828563 -0.040176123 -0.009999988
v -0.1169396 -0.03921595 0.010000029
v -0.122675896 -0.039208546 -0.009999971
v -0.052268185 0.038211614 -0.010062712
v -0.054381937 0.042543452 -0.009999999
v -0.055112377 0.04234759 0.009999999
v -0.0502613 0.036919743 0.010000001
v -0.051149257 0.030633451 -0.010590645
v -0.049989715 0.030626714 0.010000011
v -0.055143867 0.023596102 -0.011225293
v -0.052118685 0.023439342 0.010000021
v -0.05463118 0.016168257 -0.012941976
v -0.051410582 0.016181914 0.010000026
v -0.055960983 0.009589232 -0.013423522
v -0.0520622 0.00794164 0.010000024
v -0.061339963 0.0028042728 0.010000025
v -0.06248198 0.005691276 -0.010253933
v -0.07377477 0.0035153227 -0.012205993
v -0.07065164 0.00065747555 0.010000025
v -0.080772094 -0.0038092392 -0.0124864755
v -0.07729201 -0.0067996853 0.010000025
v -0.08723457 -0.0080401 0.010000026
v -0.090880066 -0.0059698597 -0.010579601
v -0.111452445 -0.033789463 0.010000025
v -0.11724487 -0.033846263 -0.011770604
v -0.122675896 -0.039208546 -0.009999971
v -0.1169396 -0.03921595 0.010000029
v 0.05370577 0.03449119 -0.0126399435
v 0.051733803 0.039878715 -0.009999999
v -0.054381937 0.042543452 -0.009999999
v -0.052268185 0.038211614 -0.010062712
v 0.059064277 0.028887732 -0.011122203
v -0.051149257 0.030633451 -0.010590645
v 0.061745074 0.019997302 -0.011387227
v -0.055143867 0.023596102 -0.011225293
v -0.05463118 0.016168257 -0.012941976
v 0.06424147 0.013067472 -0.011083824
v -0.055960983 0.009589232 -0.013423522
v 0.06187033 -0.04177423 -0.010000011
v 0.07448765 0.0064666206 -0.010384131
v 0.08823265 0.0042859917 -0.010217238
v 0.10129409 -0.0036553591 -0.011939898
v 0.11663629 -0.008422233 -0.011971331
v 0.11961069 -0.0381562 -0.010465794
v 0.120394915 -0.042568095 -0.010000025
v -0.049828563 -0.040176123 -0.009999988
v -0.06248198 0.005691276 -0.010253933
v -0.07377477 0.0035153227 -0.012205993
v -0.080772094 -0.0038092392 -0.0124864755
v -0.090880066 -0.0059698597 -0.010579601
v -0.11724487 -0.033846263 -0.011770604
v -0.122675896 -0.039208546 -0.009999971
vt 0.28027344 0.06274414
vt 0.28027344 0.05557251
vt 0.22924805 0.05557251
vt 0.22961426 0.06274414
vt 0.34155273 0.43481445
vt 0.34204102 0.4326172
vt 0.3178711 0.43286133
vt 0.31713867 0.4350586
vt 0.33984375 0.44580078
vt 0.33422852 0.4477539
vt 0.3293457 0.45092773
vt 0.32373047 0.45239258
vt 0.31860352 0.45458984
vt 0.27368164 0.43579102
vt 0.27368164 0.43359375
vt 0.24804688 0.4362793
vt 0.24572754 0.4338379
vt 0.25805664 0.44677734
vt 0.26220703 0.44726562
vt 0.26489258 0.45043945
vt 0.26879883 0.45117188
vt 0.27246094 0.45336914
vt 0.31811523 0.45825195
vt 0.27270508 0.4567871
vt 0.27246094 0.4597168
vt 0.31689453 0.46166992
vt 0.2734375 0.46264648
vt 0.27319336 0.46533203
vt 0.31567383 0.46435547
vt 0.31518555 0.46655273
vt 0.27124023 0.4675293
vt 0.6508789 0.050689697
vt 0.6538086 0.040618896
vt 0.6503906 0.040618896
vt 0.65478516 0.050689697
vt 0.6591797 0.050689697
vt 0.6586914 0.040618896
vt 0.66259766 0.050689697
vt 0.6621094 0.040618896
vt 0.66552734 0.050689697
vt 0.66503906 0.040618896
vt 0.6503906 0.040618896
vt 0.64404297 0.050689697
vt 0.6508789 0.050689697
vt 0.6435547 0.040618896
vt 0.63671875 0.050689697
vt 0.63623047 0.040618896
vt 0.62939453 0.050689697
vt 0.62841797 0.040618896
vt 0.6220703 0.050689697
vt 0.62158203 0.040618896
vt 0.60839844 0.050689697
vt 0.6220703 0.050689697
vt 0.62158203 0.040618896
vt 0.60791016 0.040618896
vt 0.60546875 0.040618896
vt 0.60546875 0.050689697
vt 0.36499023 0.08868408
vt 0.36645508 0.08117676
vt 0.3371582 0.08117676
vt 0.33544922 0.08868408
vt 0.28149414 0.08868408
vt 0.28125 0.08117676
vt 0.2475586 0.08868408
vt 0.24475098 0.08117676
vt 0.5957031 0.040618896
vt 0.5932617 0.040618896
vt 0.59277344 0.050689697
vt 0.5961914 0.050689697
vt 0.5996094 0.040618896
vt 0.5991211 0.050689697
vt 0.6035156 0.040618896
vt 0.60253906 0.050689697
vt 0.6069336 0.040618896
vt 0.60595703 0.050689697
vt 0.6098633 0.040618896
vt 0.609375 0.050689697
vt 0.6142578 0.050689697
vt 0.61376953 0.040618896
vt 0.6191406 0.040618896
vt 0.61816406 0.050689697
vt 0.62353516 0.040618896
vt 0.6230469 0.050689697
vt 0.6279297 0.050689697
vt 0.62841797 0.040618896
vt 0.64501953 0.050689697
vt 0.64697266 0.040618896
vt 0.6503906 0.040618896
vt 0.6489258 0.050689697
vt 1.3154297 0.4638672
vt 1.3154297 0.46655273
vt 1.2714844 0.4675293
vt 1.2724609 0.4658203
vt 1.3173828 0.46191406
vt 1.2734375 0.46264648
vt 1.3183594 0.45825195
vt 1.2714844 0.4597168
vt 1.2724609 0.45654297
vt 1.3203125 0.45532227
vt 1.2714844 0.45361328
vt 1.3193359 0.43286133
vt 1.3242188 0.45263672
vt 1.3300781 0.4519043
vt 1.3349609 0.44799805
vt 1.3408203 0.44604492
vt 1.3427734 0.43432617
vt 1.3427734 0.4326172
vt 1.2734375 0.43359375
vt 1.2685547 0.45239258
vt 1.2636719 0.4506836
vt 1.2607422 0.4477539
vt 1.2568359 0.44750977
vt 1.2460938 0.43554688
vt 1.2431641 0.4338379
vn 0.024093628 0.9995117 0.005290985
vn 0.02293396 0.95166016 0.30566406
vn 0.023834229 0.9892578 0.14526367
vn 0.024093628 0.9995117 0.005290985
vn 2.3841858E-07 -3.5762787E-07 1
vn -0.013618469 -0.9770508 0.21325684
vn -0.013786316 -0.9711914 0.23852539
vn 2.3841858E-07 -2.3841858E-07 1
vn 2.3841858E-07 -2.9802322E-07 1
vn 1.7881393E-07 -2.3841858E-07 1
vn 2.3841858E-07 -2.3841858E-07 1
vn 2.3841858E-07 -2.3841858E-07 1
vn 2.3841858E-07 -2.9802322E-07 1
vn 2.3841858E-07 -2.3841858E-07 1
vn -0.013656616 -0.9682617 0.25024414
vn 2.3841858E-07 0 1
vn -0.013687134 -0.99365234 0.11029053
vn 2.3841858E-07 -2.3841858E-07 1
vn 2.3841858E-07 -2.9802322E-07 1
vn 1.7881393E-07 -2.9802322E-07 1
vn 1.7881393E-07 -2.9802322E-07 1
vn 2.3841858E-07 -2.9802322E-07 1
vn 1.7881393E-07 0 1
vn 2.3841858E-07 0 1
vn 1.7881393E-07 4.7683716E-07 1
vn 1.1920929E-07 6.556511E-07 1
vn -0 7.1525574E-07 1
vn -0 5.9604645E-07 1
vn -0 8.34465E-07 1
vn 0.02293396 0.95166016 0.30566406
vn 0.023834229 0.9892578 0.14526367
vn 0.9584961 0.23034668 0.16748047
vn 0.9526367 0.26416016 0.14916992
vn 0.9584961 0.23034668 0.16748047
vn 0.9526367 0.26489258 0.14880371
vn 0.89697266 0.42919922 0.10601807
vn 0.8959961 0.4309082 0.10571289
vn 0.8833008 0.4663086 0.04522705
vn 0.87597656 0.47998047 0.04824829
vn 0.95214844 0.30615234 0.010635376
vn 0.95214844 0.30615234 0.010635376
vn 0.46801758 0.87353516 0.1328125
vn 0.33862305 0.93359375 0.11785889
vn 0.46801758 0.87353516 0.1328125
vn 0.32983398 0.9370117 0.116760254
vn 0.37231445 0.9199219 0.12512207
vn 0.3864746 0.9135742 0.1270752
vn 0.42041016 0.8964844 0.1394043
vn 0.4038086 0.9042969 0.13830566
vn 0.30322266 0.94384766 0.13110352
vn 0.30322266 0.94384766 0.13110352
vn 0.97558594 0.1373291 0.17199707
vn 0.97558594 0.13146973 0.17663574
vn 0.97558594 0.13146973 0.17663574
vn 0.97558594 0.13781738 0.17163086
vn 0.9741211 0.17651367 0.140625
vn 0.9741211 0.17651367 0.140625
vn -0.013618469 -0.9770508 0.21325684
vn -0.013938904 -1 -0.0010290146
vn -0.014160156 -1 -0.00040745735
vn -0.013786316 -0.9711914 0.23852539
vn -0.013656616 -0.9682617 0.25024414
vn -0.014091492 -1 0.0007123947
vn -0.013687134 -0.99365234 0.11029053
vn -0.013771057 -1 0.0017824173
vn -0.9394531 -0.3400879 0.042510986
vn -0.81396484 -0.5810547 0.004360199
vn -0.81396484 -0.5810547 0.004360199
vn -0.94677734 -0.3178711 0.045654297
vn -0.97998047 0.1784668 0.08746338
vn -0.9824219 0.16430664 0.08691406
vn -0.9848633 0.12158203 0.12249756
vn -0.9814453 0.14990234 0.11993408
vn -0.98828125 0.029266357 0.14892578
vn -0.98876953 0.017654419 0.14819336
vn -0.81689453 0.5517578 0.16796875
vn -0.7963867 0.5810547 0.16748047
vn -0.3395996 0.92871094 0.15002441
vn -0.34692383 0.92578125 0.14978027
vn -0.52197266 0.8330078 0.18334961
vn -0.48583984 0.85546875 0.18054199
vn -0.46850586 0.86572266 0.17712402
vn -0.4802246 0.8588867 0.17822266
vn -0.60253906 0.7758789 0.1862793
vn -0.6166992 0.76464844 0.18713379
vn -0.7104492 0.6772461 0.19067383
vn -0.7084961 0.6796875 0.19042969
vn -0.67529297 0.7138672 0.18554688
vn -0.67529297 0.7138672 0.18554688
vn -0.013038635 0.014663696 -1
vn -0.0036907196 0.26635742 -0.9638672
vn -0.0036907196 0.26635742 -0.9638672
vn -0.009880066 0.10247803 -0.9946289
vn -0.009017944 -0.014373779 -1
vn -0.009147644 -0.012367249 -1
vn 0.010192871 0.022109985 -0.9995117
vn 0.0038642883 0.16992188 -0.98535156
vn 0.012634277 0.08465576 -0.99609375
vn 0.012229919 -0.03656006 -0.99902344
vn 0.002620697 -0.03817749 -0.99902344
vn 0.008033752 -0.041656494 -0.99902344
vn 0.03161621 -0.016220093 -0.9995117
vn -0.055725098 0.027191162 -0.9980469
vn -0.023284912 -0.029785156 -0.9995117
vn -0.0075302124 -0.046661377 -0.99902344
vn -0.0069084167 -0.052642822 -0.99853516
vn -0.0014276505 -0.10522461 -0.9946289
vn 0.010864258 -0.039978027 -0.99902344
vn -0.07434082 -0.026016235 -0.9970703
vn 0.11450195 0.012588501 -0.99316406
vn -0.048858643 -0.109436035 -0.9926758
vn 0.009101868 -0.006023407 -1
vn 0.017333984 -0.093811035 -0.99560547
vn -0.0041160583 -0.30981445 -0.9506836
g flame03_geo_0
f 3/3/3 2/2/2 1/1/1
f 4/4/4 3/3/3 1/1/1
f 7/7/7 6/6/6 5/5/5
f 8/8/8 7/7/7 5/5/5
f 8/8/8 5/5/5 9/9/9
f 8/8/8 9/9/9 10/10/10
f 8/8/8 10/10/10 11/11/11
f 8/8/8 11/11/11 12/12/12
f 8/8/8 12/12/12 13/13/13
f 8/8/8 14/14/14 7/7/7
f 14/14/14 8/8/8 13/13/13
f 14/14/14 15/15/15 7/7/7
f 14/14/14 16/16/16 15/15/15
f 16/16/16 17/17/17 15/15/15
f 18/18/18 16/16/16 14/14/14
f 19/19/19 18/18/18 14/14/14
f 20/20/20 19/19/19 14/14/14
f 21/21/21 20/20/20 14/14/14
f 22/22/22 21/21/21 14/14/14
f 22/22/22 14/14/14 13/13/13
f 22/22/22 13/13/13 23/23/23
f 24/24/24 22/22/22 23/23/23
f 25/25/25 24/24/24 23/23/23
f 25/25/25 23/23/23 26/26/26
f 27/27/27 25/25/25 26/26/26
f 28/28/28 27/27/27 26/26/26
f 29/29/29 28/28/28 26/26/26
f 28/28/28 29/29/29 30/30/30
f 31/31/31 28/28/28 30/30/30
f 34/34/34 33/33/33 32/32/32
f 33/33/33 35/35/35 32/32/32
f 35/35/35 33/33/33 36/36/36
f 33/33/33 37/37/37 36/36/36
f 38/38/38 36/36/36 37/37/37
f 39/39/39 38/38/38 37/37/37
f 40/40/40 38/38/38 39/39/39
f 41/41/41 40/40/40 39/39/39
f 44/44/44 43/43/43 42/42/42
f 43/43/43 45/45/45 42/42/42
f 43/43/43 46/46/46 45/45/45
f 46/46/46 47/47/47 45/45/45
f 46/46/46 48/48/48 47/47/47
f 48/48/48 49/49/49 47/47/47
f 48/48/48 50/50/50 49/49/49
f 50/50/50 51/51/51 49/49/49
f 54/54/54 53/53/53 52/52/52
f 55/55/55 54/54/54 52/52/52
f 56/56/56 55/55/55 52/52/52
f 57/57/57 56/56/56 52/52/52
f 60/60/60 59/59/59 58/58/58
f 61/61/61 60/60/60 58/58/58
f 61/61/61 62/62/62 60/60/60
f 62/62/62 63/63/63 60/60/60
f 62/62/62 64/64/64 63/63/63
f 64/64/64 65/65/65 63/63/63
f 68/68/68 67/67/67 66/66/66
f 69/69/69 68/68/68 66/66/66
f 69/69/69 66/66/66 70/70/70
f 71/71/71 69/69/69 70/70/70
f 70/70/70 72/72/72 71/71/71
f 72/72/72 73/73/73 71/71/71
f 72/72/72 74/74/74 73/73/73
f 74/74/74 75/75/75 73/73/73
f 74/74/74 76/76/76 75/75/75
f 76/76/76 77/77/77 75/75/75
f 78/78/78 77/77/77 76/76/76
f 79/79/79 78/78/78 76/76/76
f 79/79/79 80/80/80 78/78/78
f 80/80/80 81/81/81 78/78/78
f 80/80/80 82/82/82 81/81/81
f 82/82/82 83/83/83 81/81/81
f 84/84/84 83/83/83 82/82/82
f 85/85/85 84/84/84 82/82/82
f 86/86/86 84/84/84 85/85/85
f 87/87/87 86/86/86 85/85/85
f 87/87/87 88/88/88 86/86/86
f 88/88/88 89/89/89 86/86/86
f 92/92/92 91/91/91 90/90/90
f 93/93/93 92/92/92 90/90/90
f 93/93/93 90/90/90 94/94/94
f 95/95/95 93/93/93 94/94/94
f 96/96/96 95/95/95 94/94/94
f 96/96/96 97/97/97 95/95/95
f 96/96/96 98/98/98 97/97/97
f 96/96/96 99/99/99 98/98/98
f 99/99/99 100/100/100 98/98/98
f 99/99/99 101/101/101 100/100/100
f 99/99/99 102/102/102 101/101/101
f 102/102/102 103/103/103 101/101/101
f 103/103/103 104/104/104 101/101/101
f 104/104/104 105/105/105 101/101/101
f 105/105/105 106/106/106 101/101/101
f 106/106/106 107/107/107 101/101/101
f 101/101/101 108/108/108 100/100/100
f 108/108/108 109/109/109 100/100/100
f 108/108/108 110/110/110 109/109/109
f 108/108/108 111/111/111 110/110/110
f 108/108/108 112/112/112 111/111/111
f 108/108/108 113/113/113 112/112/112
f 108/108/108 114/114/114 113/113/113
