g flame08_geo
v 0.086690105 0.039678916 0.009999943
v 0.08742179 0.039657496 -0.010000058
v 0.08995797 0.03382277 -0.010000058
v 0.08972432 0.033826016 0.009999949
v 0.09376398 0.032115433 -0.010000056
v 0.09349285 0.03188795 0.009999951
v 0.097184286 0.02664099 0.009999958
v 0.09740769 0.026739148 -0.010000054
v 0.09884552 0.020267945 -0.010000051
v 0.10011906 0.020363979 0.009999958
v 0.098274 0.013178019 0.009999959
v 0.10104741 0.013114957 -0.010000048
v 0.098946795 0.0064120344 -0.010000046
v 0.0988398 0.006302715 0.00999996
v 0.09522857 -0.00026845394 0.00999996
v 0.09732297 -0.0003884977 -0.010000046
v 0.097067505 -0.00448975 -0.010000042
v 0.09501313 -0.0037961572 0.0099999625
v 0.09501313 -0.0037961572 0.0099999625
v 0.097067505 -0.00448975 -0.010000042
v 0.07140258 0.007987614 -0.010000048
v 0.07140263 0.007979188 0.009999959
v 0.020147324 0.041404705 0.009999943
v -0.09995935 0.04451968 0.009999943
v -0.10011909 0.04453187 -0.010000058
v 0.020509375 0.041396618 -0.010000058
v 0.070298806 0.040104024 0.009999943
v 0.07093944 0.040085886 -0.010000058
v 0.086690105 0.039678916 0.009999943
v 0.08742179 0.039657496 -0.010000058
v 0.07140258 0.007987614 -0.010000048
v 0.06545523 0.0053047664 0.009999959
v 0.07140263 0.007979188 0.009999959
v 0.06559258 0.0026991945 -0.010000046
v 0.059688807 0.00024949134 0.009999965
v 0.059675846 -0.0025996868 -0.010000039
v 0.05197854 -0.00039493025 0.009999967
v 0.05209566 -0.0019606964 -0.010000034
v 0.038236894 -0.004411091 0.009999977
v 0.038262643 -0.005789625 -0.010000027
v 0.030957049 -0.004942688 0.009999979
v 0.03099657 -0.0050457423 -0.010000025
v 0.025091495 -0.009895152 0.009999988
v 0.026917418 -0.012695036 -0.010000013
v 0.016364688 -0.010162001 0.00999999
v 0.01946701 -0.012624657 -0.010000013
v -0.0045832824 -0.04453005 -0.009999958
v -0.006140003 -0.04453186 0.010000043
v 0.0018372154 -0.03897832 0.010000034
v 0.0026917649 -0.039880157 -0.009999964
v 0.009560185 -0.03174417 -0.009999979
v 0.008405647 -0.03195374 0.010000022
v 0.015950432 -0.023160297 -0.009999996
v 0.013395863 -0.020861063 0.010000005
v 0.01946701 -0.012624657 -0.010000013
v 0.016364688 -0.010162001 0.00999999
v -0.06388933 -0.043705624 0.010000057
v -0.06536596 -0.043712378 -0.009999943
v -0.07114349 -0.038325112 -0.009999952
v -0.0704215 -0.03790435 0.010000051
v -0.08807228 -0.025078982 0.010000038
v -0.08931763 -0.025269689 -0.0099999625
v -0.08979322 -0.015468378 0.010000025
v -0.08807228 -0.025078982 0.010000038
v -0.08931763 -0.025269689 -0.0099999625
v -0.089927845 -0.0154808825 -0.0099999765
v -0.089623965 -0.0059042685 0.010000012
v -0.0915802 -0.005951065 -0.00999999
v -0.093459204 0.0029201084 0.01
v -0.09493259 0.0029638724 -0.010000001
v -0.10011909 0.04453187 -0.010000058
v -0.09896396 0.03839736 0.009999952
v -0.09995935 0.04451968 0.009999943
v 0.0018372154 -0.03897832 0.010000034
v -0.006140003 -0.04453186 0.010000043
v -0.06388933 -0.043705624 0.010000057
v -0.0704215 -0.03790435 0.010000051
v 0.008405647 -0.03195374 0.010000022
v -0.08807228 -0.025078982 0.010000038
v 0.013395863 -0.020861063 0.010000005
v -0.08979322 -0.015468378 0.010000025
v 0.016364688 -0.010162001 0.00999999
v -0.089623965 -0.0059042685 0.010000012
v -0.093459204 0.0029201084 0.01
v 0.02080082 0.035495825 0.0099999495
v -0.09896396 0.03839736 0.009999952
v 0.025091495 -0.009895152 0.009999988
v -0.09995935 0.04451968 0.009999943
v 0.030957049 -0.004942688 0.009999979
v 0.038236894 -0.004411091 0.009999977
v 0.05197854 -0.00039493025 0.009999967
v 0.059688807 0.00024949134 0.009999965
v 0.06545523 0.0053047664 0.009999959
v 0.020147324 0.041404705 0.009999943
v 0.07128717 0.03427269 0.009999949
v 0.070298806 0.040104024 0.009999943
v 0.07140263 0.007979188 0.009999959
v 0.086690105 0.039678916 0.009999943
v 0.08972432 0.033826016 0.009999949
v 0.09349285 0.03188795 0.009999951
v 0.097184286 0.02664099 0.009999958
v 0.10011906 0.020363979 0.009999958
v 0.098274 0.013178019 0.009999959
v 0.0988398 0.006302715 0.00999996
v 0.09522857 -0.00026845394 0.00999996
v 0.09501313 -0.0037961572 0.0099999625
v -0.006140003 -0.04453186 0.010000043
v -0.0045832824 -0.04453005 -0.009999958
v -0.06536596 -0.043712378 -0.009999943
v -0.06388933 -0.043705624 0.010000057
v 0.08995797 0.03382277 -0.010000058
v 0.08742179 0.039657496 -0.010000058
v 0.07093944 0.040085886 -0.010000058
v 0.07140258 0.007987614 -0.010000048
v 0.09376398 0.032115433 -0.010000056
v 0.09740769 0.026739148 -0.010000054
v 0.09884552 0.020267945 -0.010000051
v 0.10104741 0.013114957 -0.010000048
v 0.098946795 0.0064120344 -0.010000046
v 0.09732297 -0.0003884977 -0.010000046
v 0.097067505 -0.00448975 -0.010000042
v 0.06559258 0.0026991945 -0.010000046
v 0.020509375 0.041396618 -0.010000058
v 0.059675846 -0.0025996868 -0.010000039
v 0.05209566 -0.0019606964 -0.010000034
v 0.038262643 -0.005789625 -0.010000027
v 0.03099657 -0.0050457423 -0.010000025
v 0.026917418 -0.012695036 -0.010000013
v 0.01946701 -0.012624657 -0.010000013
v -0.09493259 0.0029638724 -0.010000001
v -0.10011909 0.04453187 -0.010000058
v -0.0915802 -0.005951065 -0.00999999
v 0.015950432 -0.023160297 -0.009999996
v -0.089927845 -0.0154808825 -0.0099999765
v 0.009560185 -0.03174417 -0.009999979
v -0.08931763 -0.025269689 -0.0099999625
v 0.0026917649 -0.039880157 -0.009999964
v -0.07114349 -0.038325112 -0.009999952
v -0.0045832824 -0.04453005 -0.009999958
v -0.06536596 -0.043712378 -0.009999943
vt 0.65966797 0.050689697
vt 0.65966797 0.040618896
vt 0.65625 0.040618896
vt 0.6567383 0.050689697
vt 0.6542969 0.040618896
vt 0.6542969 0.050689697
vt 0.6513672 0.050689697
vt 0.6513672 0.040618896
vt 0.6479492 0.040618896
vt 0.6479492 0.050689697
vt 0.64404297 0.050689697
vt 0.64404297 0.040618896
vt 0.640625 0.040618896
vt 0.640625 0.050689697
vt 0.63720703 0.050689697
vt 0.63720703 0.040618896
vt 0.6352539 0.040618896
vt 0.6352539 0.050689697
vt 0.65771484 0.050689697
vt 0.6586914 0.040618896
vt 0.64453125 0.040618896
vt 0.64453125 0.050689697
vt 0.07128906 0.05557251
vt 0.01398468 0.05557251
vt 0.013908386 0.06274414
vt 0.07147217 0.06274414
vt 0.09527588 0.05557251
vt 0.095581055 0.06274414
vt 0.10308838 0.05557251
vt 0.10345459 0.06274414
vt 0.64453125 0.040618896
vt 0.6411133 0.050689697
vt 0.64453125 0.050689697
vt 0.640625 0.040618896
vt 0.63720703 0.050689697
vt 0.63671875 0.040618896
vt 0.6333008 0.050689697
vt 0.6333008 0.040618896
vt 0.62646484 0.050689697
vt 0.62646484 0.040618896
vt 0.6225586 0.050689697
vt 0.6230469 0.040618896
vt 0.61865234 0.050689697
vt 0.61865234 0.040618896
vt 0.6147461 0.050689697
vt 0.6147461 0.040618896
vt 0.59375 0.040618896
vt 0.5932617 0.050689697
vt 0.59814453 0.050689697
vt 0.59814453 0.040618896
vt 0.6035156 0.040618896
vt 0.60302734 0.050689697
vt 0.6088867 0.040618896
vt 0.609375 0.050689697
vt 0.6147461 0.040618896
vt 0.6147461 0.050689697
vt 0.6665039 0.050689697
vt 0.66552734 0.040618896
vt 0.6616211 0.040618896
vt 0.6621094 0.050689697
vt 0.6508789 0.050689697
vt 0.6508789 0.040618896
vt 0.6459961 0.050689697
vt 0.6508789 0.050689697
vt 0.6508789 0.040618896
vt 0.6459961 0.040618896
vt 0.6411133 0.050689697
vt 0.6411133 0.040618896
vt 0.63623047 0.050689697
vt 0.63623047 0.040618896
vt 0.6152344 0.040618896
vt 0.61865234 0.050689697
vt 0.6152344 0.050689697
vt 0.12792969 0.43798828
vt 0.12463379 0.43579102
vt 0.10095215 0.43603516
vt 0.0982666 0.43847656
vt 0.13061523 0.44091797
vt 0.09100342 0.44360352
vt 0.13256836 0.44555664
vt 0.090270996 0.4477539
vt 0.13378906 0.44995117
vt 0.09033203 0.45166016
vt 0.08874512 0.45532227
vt 0.13562012 0.46875
vt 0.08642578 0.4699707
vt 0.13745117 0.44995117
vt 0.085998535 0.4724121
vt 0.13977051 0.4519043
vt 0.14282227 0.45214844
vt 0.1484375 0.45385742
vt 0.15161133 0.45410156
vt 0.15393066 0.45629883
vt 0.13537598 0.4711914
vt 0.15637207 0.46826172
vt 0.15588379 0.47045898
vt 0.15637207 0.4572754
vt 0.16271973 0.47045898
vt 0.16394043 0.46801758
vt 0.16552734 0.46728516
vt 0.16699219 0.4650879
vt 0.16821289 0.46240234
vt 0.16748047 0.45947266
vt 0.16760254 0.45654297
vt 0.1661377 0.45385742
vt 0.16601562 0.45239258
vt 0.099609375 0.08868408
vt 0.10040283 0.08117676
vt 0.06994629 0.08117676
vt 0.07067871 0.08868408
vt 1.1640625 0.46801758
vt 1.1630859 0.47045898
vt 1.15625 0.47045898
vt 1.15625 0.4572754
vt 1.1660156 0.46728516
vt 1.1669922 0.4650879
vt 1.1679688 0.46240234
vt 1.1689453 0.45947266
vt 1.1679688 0.4567871
vt 1.1669922 0.45385742
vt 1.1669922 0.45214844
vt 1.1542969 0.45507812
vt 1.1357422 0.4711914
vt 1.1513672 0.45288086
vt 1.1484375 0.453125
vt 1.1425781 0.45166016
vt 1.1396484 0.4519043
vt 1.1376953 0.44873047
vt 1.1347656 0.44873047
vt 1.0878906 0.45532227
vt 1.0859375 0.4724121
vt 1.0898438 0.45166016
vt 1.1337891 0.44458008
vt 1.0898438 0.4477539
vt 1.1308594 0.44091797
vt 1.0908203 0.44360352
vt 1.1279297 0.4375
vt 1.0976562 0.43823242
vt 1.125 0.43579102
vt 1.1005859 0.43603516
vn 0.90234375 0.43017578 0.021514893
vn 0.90234375 0.43017578 0.021514893
vn 0.7578125 0.65185547 0.0181427
vn 0.7602539 0.64941406 0.018203735
vn 0.69189453 0.72216797 0.013549805
vn 0.69091797 0.72265625 0.013542175
vn 0.89404297 0.44799805 -0.005470276
vn 0.89404297 0.44799805 -0.0054855347
vn 0.9848633 0.1730957 0.007106781
vn 0.9848633 0.171875 0.007358551
vn 0.9975586 -0.04248047 0.054138184
vn 0.9975586 -0.04220581 0.05407715
vn 0.9682617 -0.24267578 0.061584473
vn 0.96777344 -0.24365234 0.06149292
vn 0.9628906 -0.25952148 0.07086182
vn 0.96240234 -0.26245117 0.070373535
vn 0.9926758 -0.061279297 0.10418701
vn 0.9926758 -0.061279297 0.10418701
vn -0.4416504 -0.89697266 -0.0073127747
vn -0.4416504 -0.89697266 -0.0073127747
vn -0.4416504 -0.89697266 -0.0073127747
vn -0.4416504 -0.89697266 -0.0073127747
vn 0.024810791 0.9560547 0.29296875
vn 0.025100708 0.96728516 0.25341797
vn 0.0259552 0.9995117 0.00023412704
vn 0.0259552 0.9995117 0.00016248226
vn 0.024780273 0.95458984 0.29663086
vn 0.0259552 0.9995117 -2.8669834E-05
vn 0.024139404 0.9296875 0.36816406
vn 0.0259552 0.9995117 -9.828806E-05
vn 0.5600586 -0.82666016 0.055603027
vn 0.6118164 -0.7871094 0.079956055
vn 0.5600586 -0.82666016 0.055603027
vn 0.61621094 -0.7832031 0.082214355
vn 0.36767578 -0.92285156 0.11376953
vn 0.34643555 -0.93115234 0.11401367
vn 0.17883301 -0.97998047 0.085754395
vn 0.17956543 -0.97998047 0.085632324
vn 0.17883301 -0.9819336 0.060638428
vn 0.1776123 -0.9824219 0.06048584
vn 0.45043945 -0.8901367 0.06719971
vn 0.45043945 -0.8901367 0.06719971
vn 0.42822266 -0.8959961 0.11871338
vn 0.4387207 -0.8911133 0.11804199
vn 0.012039185 -0.99121094 0.13183594
vn 0.012039185 -0.99121094 0.13183594
vn 0.070373535 -0.9975586 0.007827759
vn 0.05316162 -0.9165039 0.39697266
vn 0.6611328 -0.74853516 0.050933838
vn 0.6616211 -0.7480469 0.05090332
vn 0.81347656 -0.5761719 0.080322266
vn 0.8105469 -0.5805664 0.07879639
vn 0.9067383 -0.39916992 0.13659668
vn 0.9091797 -0.39208984 0.13867188
vn 0.9428711 -0.28808594 0.16760254
vn 0.9428711 -0.28808594 0.16760254
vn -0.08441162 -0.9165039 0.390625
vn -0.10394287 -0.9946289 0.0061950684
vn -0.609375 -0.7919922 0.04220581
vn -0.6098633 -0.7915039 0.042236328
vn -0.58496094 -0.8100586 0.041168213
vn -0.58496094 -0.8100586 0.041168213
vn -0.9941406 -0.09851074 0.043426514
vn -0.9921875 -0.119262695 0.034851074
vn -0.9921875 -0.119262695 0.034851074
vn -0.9941406 -0.09851074 0.043426514
vn -0.9716797 -0.22705078 0.066345215
vn -0.9707031 -0.23083496 0.066711426
vn -0.98095703 -0.18615723 0.051239014
vn -0.9814453 -0.1842041 0.050933838
vn -0.9897461 -0.13769531 0.043151855
vn -0.9892578 -0.1385498 0.04196167
vn -0.9868164 -0.16052246 0.007785797
vn 2.3841858E-07 1.3709068E-06 1
vn 0.05316162 -0.9165039 0.39697266
vn -0.08441162 -0.9165039 0.390625
vn 2.3841858E-07 1.3709068E-06 1
vn 2.3841858E-07 1.4305115E-06 1
vn 2.3841858E-07 1.4305115E-06 1
vn 2.3841858E-07 1.4305115E-06 1
vn 2.3841858E-07 1.4305115E-06 1
vn 2.3841858E-07 1.013279E-06 1
vn 2.3841858E-07 1.4305115E-06 1
vn 1.1920929E-07 1.2516975E-06 1
vn 1.1920929E-07 9.536743E-07 1
vn -0 1.3709068E-06 1
vn 3.5762787E-07 8.940697E-07 1
vn 0.025100708 0.96728516 0.25341797
vn 4.7683716E-07 8.34465E-07 1
vn 3.5762787E-07 8.34465E-07 1
vn 3.5762787E-07 8.34465E-07 1
vn 3.5762787E-07 7.748604E-07 1
vn -0 4.172325E-07 1
vn 0.024810791 0.9560547 0.29296875
vn -0 5.364418E-07 1
vn 0.024780273 0.95458984 0.29663086
vn -0 3.5762787E-07 1
vn 0.024139404 0.9296875 0.36816406
vn -0 1.1920929E-06 1
vn -0 1.3709068E-06 1
vn -3.5762787E-07 0 1
vn -1.1920929E-07 2.9802322E-07 1
vn -1.1920929E-07 2.9802322E-07 1
vn -0 0 1
vn -0 2.9802322E-07 1
vn 2.9802322E-07 9.536743E-07 1
vn 0.05316162 -0.9165039 0.39697266
vn 0.070373535 -0.9975586 0.007827759
vn -0.10394287 -0.9946289 0.0061950684
vn -0.08441162 -0.9165039 0.390625
vn -0 -3.5762787E-07 -1
vn 2.3841858E-07 0 -1
vn -0 -2.9802322E-07 -1
vn -0 -2.9802322E-07 -1
vn -0 -3.5762787E-07 -1
vn 1.1920929E-07 -3.5762787E-07 -1
vn -0 -3.5762787E-07 -1
vn -0 -3.5762787E-07 -1
vn -0 -2.3841858E-07 -1
vn -0 -4.7683716E-07 -1
vn -0 -1.1324883E-06 -1
vn -0 -4.172325E-07 -1
vn -1.7881393E-07 -8.34465E-07 -1
vn -7.1525574E-07 -8.940697E-07 -1
vn -5.9604645E-07 -8.940697E-07 -1
vn -2.9802322E-07 -7.748604E-07 -1
vn -4.7683716E-07 -8.940697E-07 -1
vn -4.172325E-07 -8.940697E-07 -1
vn -2.3841858E-07 -1.013279E-06 -1
vn -1.1920929E-07 -1.1920929E-06 -1
vn -0 -1.3709068E-06 -1
vn -2.9802322E-07 -1.3709068E-06 -1
vn -2.9802322E-07 -1.5497208E-06 -1
vn -2.9802322E-07 -1.5497208E-06 -1
vn -2.3841858E-07 -1.4901161E-06 -1
vn -2.3841858E-07 -1.4901161E-06 -1
vn -2.3841858E-07 -1.2516975E-06 -1
vn -2.3841858E-07 -1.3113022E-06 -1
vn -2.3841858E-07 -1.6093254E-06 -1
vn -2.3841858E-07 -1.6093254E-06 -1
g flame08_geo_0
f 3/3/3 2/2/2 1/1/1
f 4/4/4 3/3/3 1/1/1
f 5/5/5 3/3/3 4/4/4
f 6/6/6 5/5/5 4/4/4
f 6/6/6 7/7/7 5/5/5
f 7/7/7 8/8/8 5/5/5
f 9/9/9 8/8/8 7/7/7
f 10/10/10 9/9/9 7/7/7
f 10/10/10 11/11/11 9/9/9
f 11/11/11 12/12/12 9/9/9
f 13/13/13 12/12/12 11/11/11
f 14/14/14 13/13/13 11/11/11
f 14/14/14 15/15/15 13/13/13
f 15/15/15 16/16/16 13/13/13
f 17/17/17 16/16/16 15/15/15
f 18/18/18 17/17/17 15/15/15
f 21/21/21 20/20/20 19/19/19
f 22/22/22 21/21/21 19/19/19
f 25/25/25 24/24/24 23/23/23
f 26/26/26 25/25/25 23/23/23
f 26/26/26 23/23/23 27/27/27
f 28/28/28 26/26/26 27/27/27
f 28/28/28 27/27/27 29/29/29
f 30/30/30 28/28/28 29/29/29
f 33/33/33 32/32/32 31/31/31
f 32/32/32 34/34/34 31/31/31
f 32/32/32 35/35/35 34/34/34
f 35/35/35 36/36/36 34/34/34
f 36/36/36 35/35/35 37/37/37
f 38/38/38 36/36/36 37/37/37
f 38/38/38 37/37/37 39/39/39
f 40/40/40 38/38/38 39/39/39
f 39/39/39 41/41/41 40/40/40
f 41/41/41 42/42/42 40/40/40
f 42/42/42 41/41/41 43/43/43
f 44/44/44 42/42/42 43/43/43
f 43/43/43 45/45/45 44/44/44
f 45/45/45 46/46/46 44/44/44
f 49/49/49 48/48/48 47/47/47
f 50/50/50 49/49/49 47/47/47
f 49/49/49 50/50/50 51/51/51
f 52/52/52 49/49/49 51/51/51
f 52/52/52 51/51/51 53/53/53
f 54/54/54 52/52/52 53/53/53
f 54/54/54 53/53/53 55/55/55
f 56/56/56 54/54/54 55/55/55
f 59/59/59 58/58/58 57/57/57
f 60/60/60 59/59/59 57/57/57
f 59/59/59 60/60/60 61/61/61
f 62/62/62 59/59/59 61/61/61
f 65/65/65 64/64/64 63/63/63
f 66/66/66 65/65/65 63/63/63
f 66/66/66 63/63/63 67/67/67
f 68/68/68 66/66/66 67/67/67
f 68/68/68 67/67/67 69/69/69
f 70/70/70 68/68/68 69/69/69
f 71/71/71 70/70/70 69/69/69
f 72/72/72 71/71/71 69/69/69
f 72/72/72 73/73/73 71/71/71
f 76/76/76 75/75/75 74/74/74
f 77/77/77 76/76/76 74/74/74
f 77/77/77 74/74/74 78/78/78
f 79/79/79 77/77/77 78/78/78
f 79/79/79 78/78/78 80/80/80
f 81/81/81 79/79/79 80/80/80
f 81/81/81 80/80/80 82/82/82
f 83/83/83 81/81/81 82/82/82
f 83/83/83 82/82/82 84/84/84
f 82/82/82 85/85/85 84/84/84
f 85/85/85 86/86/86 84/84/84
f 85/85/85 82/82/82 87/87/87
f 88/88/88 86/86/86 85/85/85
f 89/89/89 85/85/85 87/87/87
f 89/89/89 90/90/90 85/85/85
f 90/90/90 91/91/91 85/85/85
f 91/91/91 92/92/92 85/85/85
f 92/92/92 93/93/93 85/85/85
f 94/94/94 88/88/88 85/85/85
f 94/94/94 85/85/85 95/95/95
f 96/96/96 94/94/94 95/95/95
f 85/85/85 93/93/93 97/97/97
f 95/95/95 85/85/85 97/97/97
f 96/96/96 95/95/95 98/98/98
f 95/95/95 99/99/99 98/98/98
f 100/100/100 99/99/99 95/95/95
f 101/101/101 100/100/100 95/95/95
f 102/102/102 101/101/101 95/95/95
f 102/102/102 95/95/95 97/97/97
f 103/103/103 102/102/102 97/97/97
f 97/97/97 104/104/104 103/103/103
f 97/97/97 105/105/105 104/104/104
f 97/97/97 106/106/106 105/105/105
f 109/109/109 108/108/108 107/107/107
f 110/110/110 109/109/109 107/107/107
f 113/113/113 112/112/112 111/111/111
f 113/113/113 111/111/111 114/114/114
f 111/111/111 115/115/115 114/114/114
f 115/115/115 116/116/116 114/114/114
f 116/116/116 117/117/117 114/114/114
f 117/117/117 118/118/118 114/114/114
f 118/118/118 119/119/119 114/114/114
f 119/119/119 120/120/120 114/114/114
f 120/120/120 121/121/121 114/114/114
f 113/113/113 114/114/114 122/122/122
f 123/123/123 113/113/113 122/122/122
f 123/123/123 122/122/122 124/124/124
f 123/123/123 124/124/124 125/125/125
f 123/123/123 125/125/125 126/126/126
f 123/123/123 126/126/126 127/127/127
f 123/123/123 127/127/127 128/128/128
f 123/123/123 128/128/128 129/129/129
f 123/123/123 129/129/129 130/130/130
f 123/123/123 130/130/130 131/131/131
f 129/129/129 132/132/132 130/130/130
f 129/129/129 133/133/133 132/132/132
f 133/133/133 134/134/134 132/132/132
f 133/133/133 135/135/135 134/134/134
f 135/135/135 136/136/136 134/134/134
f 135/135/135 137/137/137 136/136/136
f 137/137/137 138/138/138 136/136/136
f 137/137/137 139/139/139 138/138/138
f 139/139/139 140/140/140 138/138/138
