g flame13_geo
v -0.048547294 -0.056352258 -0.010000014
v -0.06305299 0.052466407 -0.009999977
v -0.053606577 -0.058185026 -0.010000017
v -0.057453353 0.04754598 -0.009999979
v -0.029366808 -0.020480176 -0.009223402
v -0.062078446 0.05571092 -0.009999976
v -0.022827195 -0.043298133 -0.0100000175
v -0.025301674 -0.048327506 -0.010000018
v -0.0214285 -0.03689394 -0.010000017
v -0.014550484 -0.031603947 -0.00999283
v -0.010159844 -0.023375494 -0.010000016
v -0.056525506 0.051425412 -0.009999978
v -0.008305138 -0.008617575 -0.009979131
v -0.004690789 -0.022609847 -0.010000017
v 0.00049788563 -0.00655474 -0.009940275
v -0.0007616511 -0.019573767 -0.010000017
v 0.003494254 -0.016163275 -0.0100000175
v -0.052912414 0.05273862 -0.009999978
v -0.05900811 0.05687261 -0.009999976
v -0.012788323 0.058174107 -0.009999981
v -0.0076405797 0.05395433 -0.009999983
v 0.007829238 0.04188768 -0.00999999
v 0.009816542 0.03711828 -0.009999992
v 0.013039122 0.033022784 -0.009999996
v 0.005818969 -0.005205596 -0.009904198
v 0.012689582 -0.0046422035 -0.009919517
v 0.0135714635 0.027648332 -0.01
v 0.013046981 -0.016579192 -0.01000002
v 0.01951541 -0.014352667 -0.01000002
v 0.020220174 -0.009346335 -0.010000018
v 0.017304182 0.022807557 -0.010000003
v 0.029196614 -0.0010652379 -0.01021485
v 0.031529073 -0.0058842306 -0.010000024
v 0.047854796 -0.0017293005 -0.010000021
v 0.044280842 -0.0059590368 -0.010000024
v 0.054859303 0.0057887807 -0.010000016
v 0.062250853 0.012671868 -0.010000012
v 0.0629806 0.016787507 -0.010000011
v 0.020220174 -0.009346335 -0.010000018
v 0.020220174 -0.009346335 0.010000018
v 0.031529073 -0.0058842306 0.010000024
v 0.031529073 -0.0058842306 -0.010000024
v 0.044280842 -0.0059590368 0.010000024
v 0.044280842 -0.0059590368 -0.010000024
v 0.047854796 -0.0017293005 0.010000021
v 0.047854796 -0.0017293005 -0.010000021
v 0.054859303 0.0057887807 0.010000016
v 0.054859303 0.0057887807 -0.010000016
v 0.062250853 0.012671868 0.010000012
v 0.062250853 0.012671868 -0.010000012
v 0.0629806 0.016787507 0.010000011
v 0.0629806 0.016787507 -0.010000011
v 0.01951541 -0.014352667 -0.01000002
v 0.020220174 -0.009346335 0.010000018
v 0.020220174 -0.009346335 -0.010000018
v 0.01951541 -0.014352667 0.01000002
v 0.013046981 -0.016579192 -0.01000002
v 0.013046981 -0.016579192 0.01000002
v 0.003494254 -0.016163275 -0.0100000175
v 0.003494254 -0.016163275 0.0100000175
v -0.0007616511 -0.019573767 -0.010000017
v -0.0007616511 -0.019573767 0.010000017
v -0.004690789 -0.022609847 -0.010000017
v -0.004690789 -0.022609847 0.010000017
v -0.010159844 -0.023375494 -0.010000016
v -0.010159844 -0.023375494 0.010000016
v -0.014550484 -0.031603947 -0.00999283
v -0.014550484 -0.031603947 0.0099928295
v -0.0214285 -0.03689394 -0.010000017
v -0.0214285 -0.03689394 0.010000017
v -0.022827195 -0.043298133 -0.0100000175
v -0.022827195 -0.043298133 0.0100000175
v -0.025301674 -0.048327506 -0.010000018
v -0.025301674 -0.048327506 0.010000018
v -0.048547294 -0.056352258 -0.010000014
v -0.048547294 -0.056352258 0.010000014
v -0.053606577 -0.058185026 -0.010000017
v -0.053606577 -0.058185026 0.010000017
v -0.06305299 0.052466407 -0.009999977
v -0.053606577 -0.058185026 0.010000017
v -0.053606577 -0.058185026 -0.010000017
v -0.06305299 0.052466407 0.009999977
v -0.062078446 0.05571092 -0.009999976
v -0.062078446 0.05571092 0.009999976
v -0.05900811 0.05687261 -0.009999976
v -0.05900811 0.05687261 0.009999976
v -0.012788323 0.058174107 -0.009999981
v -0.012788323 0.058174107 0.00999998
v -0.0076405797 0.05395433 -0.009999983
v -0.012788323 0.058174107 0.00999998
v -0.012788323 0.058174107 -0.009999981
v -0.0076405797 0.05395433 0.009999982
v 0.007829238 0.04188768 -0.00999999
v 0.007829238 0.04188768 0.00999999
v 0.009816542 0.03711828 -0.009999992
v 0.009816542 0.03711828 0.009999993
v 0.013039122 0.033022784 -0.009999996
v 0.013039122 0.033022784 0.009999996
v 0.0135714635 0.027648332 -0.01
v 0.0135714635 0.027648332 0.009999999
v 0.017304182 0.022807557 -0.010000003
v 0.017304182 0.022807557 0.010000003
v 0.0629806 0.016787507 -0.010000011
v 0.0629806 0.016787507 0.010000011
v -0.048547294 -0.056352258 0.010000014
v -0.053606577 -0.058185026 0.010000017
v -0.06305299 0.052466407 0.009999977
v -0.057453353 0.04754598 0.009999979
v -0.029366808 -0.020480176 0.009223402
v -0.062078446 0.05571092 0.009999976
v -0.022827195 -0.043298133 0.0100000175
v -0.025301674 -0.048327506 0.010000018
v -0.0214285 -0.03689394 0.010000017
v -0.014550484 -0.031603947 0.0099928295
v -0.010159844 -0.023375494 0.010000016
v -0.056525506 0.051425412 0.009999978
v -0.008305138 -0.008617575 0.009979131
v -0.004690789 -0.022609847 0.010000017
v 0.00049788563 -0.00655474 0.009940273
v -0.0007616511 -0.019573767 0.010000017
v 0.003494254 -0.016163275 0.0100000175
v -0.052912414 0.05273862 0.009999978
v -0.05900811 0.05687261 0.009999976
v -0.012788323 0.058174107 0.00999998
v -0.0076405797 0.05395433 0.009999982
v 0.007829238 0.04188768 0.00999999
v 0.009816542 0.03711828 0.009999993
v 0.013039122 0.033022784 0.009999996
v 0.005818969 -0.005205596 0.009904197
v 0.012689582 -0.0046422035 0.009919518
v 0.0135714635 0.027648332 0.009999999
v 0.013046981 -0.016579192 0.01000002
v 0.01951541 -0.014352667 0.01000002
v 0.020220174 -0.009346335 0.010000018
v 0.017304182 0.022807557 0.010000003
v 0.029196614 -0.0010652379 0.01021485
v 0.031529073 -0.0058842306 0.010000024
v 0.047854796 -0.0017293005 0.010000021
v 0.044280842 -0.0059590368 0.010000024
v 0.054859303 0.0057887807 0.010000016
v 0.062250853 0.012671868 0.010000012
v 0.0629806 0.016787507 0.010000011
vt 1.0371094 0.61376953
vt 1.03125 0.6586914
vt 1.0351562 0.61279297
vt 1.0332031 0.6567383
vt 1.0449219 0.62841797
vt 1.03125 0.65966797
vt 1.0478516 0.6191406
vt 1.046875 0.6171875
vt 1.0488281 0.62158203
vt 1.0517578 0.62402344
vt 1.0537109 0.6274414
vt 1.0341797 0.6582031
vt 1.0537109 0.6333008
vt 1.0556641 0.6274414
vt 1.0576172 0.63427734
vt 1.0576172 0.62890625
vt 1.0595703 0.6303711
vt 1.0351562 0.6586914
vt 1.0332031 0.66015625
vt 1.0517578 0.66064453
vt 1.0537109 0.6591797
vt 1.0605469 0.6542969
vt 1.0615234 0.65234375
vt 1.0625 0.6503906
vt 1.0595703 0.6347656
vt 1.0625 0.6347656
vt 1.0625 0.6484375
vt 1.0634766 0.6298828
vt 1.0654297 0.6308594
vt 1.0664062 0.6328125
vt 1.0644531 0.6464844
vt 1.0693359 0.63623047
vt 1.0703125 0.63427734
vt 1.0771484 0.63623047
vt 1.0761719 0.63427734
vt 1.0800781 0.63916016
vt 1.0830078 0.64208984
vt 1.0830078 0.64404297
vt 0.60253906 0.040618896
vt 0.60253906 0.050689697
vt 0.60791016 0.050689697
vt 0.60791016 0.040618896
vt 0.6142578 0.050689697
vt 0.6142578 0.040618896
vt 0.6166992 0.050689697
vt 0.6166992 0.040618896
vt 0.62158203 0.050689697
vt 0.62158203 0.040618896
vt 0.62646484 0.050689697
vt 0.62646484 0.040618896
vt 0.62841797 0.050689697
vt 0.62890625 0.040618896
vt 0.60009766 0.040618896
vt 0.60253906 0.050689697
vt 0.60253906 0.040618896
vt 0.60009766 0.050689697
vt 0.5966797 0.040618896
vt 0.5966797 0.050689697
vt 0.59228516 0.040618896
vt 0.59228516 0.050689697
vt 0.58984375 0.040618896
vt 0.58984375 0.050689697
vt 0.58740234 0.040618896
vt 0.58740234 0.050689697
vt 0.58496094 0.040618896
vt 0.58447266 0.050689697
vt 0.5800781 0.040618896
vt 0.5800781 0.050689697
vt 0.5761719 0.040618896
vt 0.5761719 0.050689697
vt 0.5732422 0.040618896
vt 0.5732422 0.050689697
vt 0.5703125 0.040618896
vt 0.5703125 0.050689697
vt 0.55859375 0.040618896
vt 0.55810547 0.050689697
vt 0.55566406 0.040618896
vt 0.55566406 0.050689697
vt 0.52001953 0.09338379
vt 0.5756836 0.10089111
vt 0.5756836 0.09338379
vt 0.52001953 0.10089111
vt 0.5185547 0.09338379
vt 0.5185547 0.10089111
vt 0.51660156 0.09338379
vt 0.51660156 0.10089111
vt 0.4934082 0.09338379
vt 0.4934082 0.10089111
vt 0.6699219 0.040618896
vt 0.67333984 0.050689697
vt 0.67333984 0.040618896
vt 0.6699219 0.050689697
vt 0.66064453 0.040618896
vt 0.66064453 0.050689697
vt 0.6582031 0.040618896
vt 0.6582031 0.050689697
vt 0.6557617 0.040618896
vt 0.6557617 0.050689697
vt 0.65283203 0.040618896
vt 0.65283203 0.050689697
vt 0.64990234 0.040618896
vt 0.64990234 0.050689697
vt 0.6279297 0.040618896
vt 0.62841797 0.050689697
vt 0.037322998 0.61376953
vt 0.03527832 0.61279297
vt 0.03125 0.6586914
vt 0.03353882 0.65625
vt 0.045318604 0.62841797
vt 0.03164673 0.65966797
vt 0.048095703 0.6191406
vt 0.047058105 0.6166992
vt 0.048675537 0.62158203
vt 0.05154419 0.62402344
vt 0.053375244 0.6274414
vt 0.03390503 0.6582031
vt 0.054107666 0.6333008
vt 0.05569458 0.6274414
vt 0.057769775 0.63427734
vt 0.05731201 0.62890625
vt 0.05911255 0.6303711
vt 0.03540039 0.6586914
vt 0.03289795 0.66015625
vt 0.052001953 0.66064453
vt 0.054107666 0.6591797
vt 0.060546875 0.6542969
vt 0.06137085 0.65234375
vt 0.06274414 0.6503906
vt 0.05999756 0.6347656
vt 0.06286621 0.6347656
vt 0.06298828 0.6484375
vt 0.06311035 0.6298828
vt 0.06573486 0.6308594
vt 0.06604004 0.6328125
vt 0.064575195 0.6459961
vt 0.06976318 0.63623047
vt 0.07067871 0.63427734
vt 0.07733154 0.63623047
vt 0.0758667 0.63427734
vt 0.08013916 0.63916016
vt 0.08312988 0.64208984
vt 0.08343506 0.6435547
vn 0.010612488 0.004257202 -1
vn -0.98876953 -0.07354736 -0.13122559
vn -0.97509766 -0.08325195 -0.20471191
vn -0.009597778 -0.010925293 -1
vn 0.01108551 -0.00198555 -1
vn -0.7109375 0.65283203 -0.2614746
vn -0.015823364 0.027832031 -0.9995117
vn -4.7683716E-07 4.172325E-07 -1
vn -0.04498291 0.025497437 -0.99853516
vn -0.032165527 0.026260376 -0.99902344
vn -0.02671814 0.0079956055 -0.9995117
vn -0.011207581 -0.010292053 -1
vn -0.011985779 -0.008865356 -1
vn 0.0019235611 0.0022697449 -1
vn 0.001121521 0.00017809868 -1
vn -0.0019083023 0.0055885315 -1
vn -0.00021314621 0.0070991516 -1
vn 0.00093507767 0.0001052022 -1
vn -0.049621582 0.9926758 -0.109069824
vn 0.054351807 0.95703125 -0.28515625
vn -7.8856945E-05 -0.0009469986 -1
vn -0.0009121895 -0.0010948181 -1
vn -0.0019130707 -0.0009589195 -1
vn -0.0002605915 -0.0015296936 -1
vn 0.0004930496 0.000521183 -1
vn -0.007446289 -0.0009255409 -1
vn 0.0020103455 -0.0030002594 -1
vn -0.0013399124 0.007499695 -1
vn -0.0040664673 0.005432129 -1
vn -0.0063285828 -0.016143799 -1
vn -0.0018672943 0.0014657974 -1
vn -5.4955482E-05 0.001376152 -1
vn 0.00092458725 -0.022476196 -0.9995117
vn 0.0062789917 0.0057792664 -1
vn 0.006259918 -0.024597168 -0.9995117
vn 0.0036468506 0.0045394897 -1
vn -0 4.7683716E-07 -1
vn -1.1920929E-07 2.9802322E-07 -1
vn 0.2927246 -0.9560547 0
vn 0.2927246 -0.9560547 0
vn 0.1394043 -0.9902344 0
vn 0.1394043 -0.9902344 0
vn 0.24658203 -0.9692383 0
vn 0.24658203 -0.9692383 0
vn 0.74316406 -0.6689453 0
vn 0.74316406 -0.6689453 0
vn 0.70703125 -0.70703125 0
vn 0.70703125 -0.70703125 0
vn 0.8046875 -0.5942383 0
vn 0.8046875 -0.5942383 0
vn 0.9848633 -0.17456055 0
vn 0.9848633 -0.17456055 0
vn 0.70996094 -0.70410156 0
vn 0.9902344 -0.1394043 0
vn 0.9902344 -0.1394043 0
vn 0.70996094 -0.70410156 0
vn 0.11230469 -0.99365234 0
vn 0.11230469 -0.99365234 0
vn 0.21191406 -0.9770508 0
vn 0.21191406 -0.9770508 0
vn 0.61865234 -0.78564453 0
vn 0.61865234 -0.78564453 0
vn 0.375 -0.9272461 0
vn 0.375 -0.9272461 0
vn 0.6738281 -0.73876953 0
vn 0.6738281 -0.73876953 0
vn 0.7680664 -0.6401367 0
vn 0.7680664 -0.6401367 0
vn 0.81640625 -0.5776367 0
vn 0.81640625 -0.5776367 0
vn 0.9472656 -0.32080078 0
vn 0.9472656 -0.32080078 0
vn 0.45263672 -0.89160156 0
vn 0.45263672 -0.89160156 0
vn 0.32885742 -0.94433594 0
vn 0.32885742 -0.94433594 0
vn 0.34057617 -0.9404297 0
vn 0.34057617 -0.9404297 0
vn -0.98876953 -0.07354736 -0.13122559
vn -0.97509766 -0.08325195 0.20471191
vn -0.97509766 -0.08325195 -0.20471191
vn -0.98876953 -0.07354736 0.13122559
vn -0.7109375 0.65283203 -0.2614746
vn -0.7109375 0.65283203 0.2614746
vn -0.049621582 0.9926758 -0.109069824
vn -0.049621582 0.9926758 0.109069824
vn 0.054351807 0.95703125 -0.28515625
vn 0.054351807 0.95703125 0.28515625
vn 0.6196289 0.78466797 0
vn 0.054351807 0.95703125 0.28515625
vn 0.054351807 0.95703125 -0.28515625
vn 0.6196289 0.78466797 0
vn 0.69433594 0.71972656 0
vn 0.69433594 0.71972656 0
vn 0.8623047 0.50683594 0
vn 0.8623047 0.50683594 0
vn 0.9296875 0.36865234 0
vn 0.9296875 0.36865234 0
vn 0.92285156 0.3852539 0
vn 0.92285156 0.3852539 0
vn 0.21472168 0.9765625 0
vn 0.21472168 0.9765625 0
vn 0.13061523 0.99121094 0
vn 0.13061523 0.99121094 0
vn 0.010612488 0.004257202 1
vn -0.97509766 -0.08325195 0.20471191
vn -0.98876953 -0.07354736 0.13122559
vn -0.009597778 -0.010925293 1
vn 0.01108551 -0.00198555 1
vn -0.7109375 0.65283203 0.2614746
vn -0.015823364 0.027832031 0.9995117
vn -2.9802322E-07 2.9802322E-07 1
vn -0.04498291 0.025497437 0.99853516
vn -0.032165527 0.026260376 0.99902344
vn -0.02671814 0.0079956055 0.9995117
vn -0.011207581 -0.010292053 1
vn -0.011985779 -0.008865356 1
vn 0.0019235611 0.0022697449 1
vn 0.001121521 0.00017809868 1
vn -0.0019083023 0.0055885315 1
vn -0.000213027 0.0070991516 1
vn 0.00093507767 0.0001052022 1
vn -0.049621582 0.9926758 0.109069824
vn 0.054351807 0.95703125 0.28515625
vn -7.8856945E-05 -0.0009469986 1
vn -0.0009121895 -0.0010948181 1
vn -0.0019140244 -0.0009589195 1
vn -0.00026011467 -0.0015296936 1
vn 0.0004930496 0.000521183 1
vn -0.007446289 -0.0009255409 1
vn 0.0020103455 -0.0030002594 1
vn -0.0013399124 0.007499695 1
vn -0.0040664673 0.005432129 1
vn -0.0063285828 -0.016143799 1
vn -0.0018672943 0.0014657974 1
vn -5.4955482E-05 0.001376152 1
vn 0.00092458725 -0.022476196 0.9995117
vn 0.0062789917 0.0057792664 1
vn 0.006259918 -0.024597168 0.9995117
vn 0.0036468506 0.0045394897 1
vn -0 5.9604645E-07 1
vn -0 5.364418E-07 1
g flame13_geo_0
f 3/3/3 2/2/2 1/1/1
f 2/2/2 4/4/4 1/1/1
f 5/5/5 1/1/1 4/4/4
f 2/2/2 6/6/6 4/4/4
f 1/1/1 5/5/5 7/7/7
f 8/8/8 1/1/1 7/7/7
f 7/7/7 5/5/5 9/9/9
f 9/9/9 5/5/5 10/10/10
f 10/10/10 5/5/5 11/11/11
f 6/6/6 12/12/12 4/4/4
f 4/4/4 12/12/12 5/5/5
f 5/5/5 13/13/13 11/11/11
f 12/12/12 13/13/13 5/5/5
f 11/11/11 13/13/13 14/14/14
f 13/13/13 15/15/15 14/14/14
f 15/15/15 16/16/16 14/14/14
f 16/16/16 15/15/15 17/17/17
f 18/18/18 12/12/12 6/6/6
f 13/13/13 12/12/12 18/18/18
f 15/15/15 13/13/13 18/18/18
f 19/19/19 18/18/18 6/6/6
f 18/18/18 19/19/19 20/20/20
f 21/21/21 18/18/18 20/20/20
f 15/15/15 18/18/18 21/21/21
f 15/15/15 21/21/21 22/22/22
f 23/23/23 15/15/15 22/22/22
f 23/23/23 24/24/24 15/15/15
f 15/15/15 24/24/24 25/25/25
f 15/15/15 25/25/25 17/17/17
f 25/25/25 26/26/26 17/17/17
f 24/24/24 27/27/27 25/25/25
f 25/25/25 27/27/27 26/26/26
f 26/26/26 28/28/28 17/17/17
f 28/28/28 26/26/26 29/29/29
f 26/26/26 30/30/30 29/29/29
f 27/27/27 31/31/31 26/26/26
f 30/30/30 26/26/26 32/32/32
f 32/32/32 26/26/26 31/31/31
f 33/33/33 30/30/30 32/32/32
f 33/33/33 32/32/32 34/34/34
f 34/34/34 32/32/32 31/31/31
f 35/35/35 33/33/33 34/34/34
f 36/36/36 34/34/34 31/31/31
f 37/37/37 36/36/36 31/31/31
f 38/38/38 37/37/37 31/31/31
f 41/41/41 40/40/40 39/39/39
f 42/42/42 41/41/41 39/39/39
f 43/43/43 41/41/41 42/42/42
f 44/44/44 43/43/43 42/42/42
f 45/45/45 43/43/43 44/44/44
f 46/46/46 45/45/45 44/44/44
f 47/47/47 45/45/45 46/46/46
f 48/48/48 47/47/47 46/46/46
f 49/49/49 47/47/47 48/48/48
f 50/50/50 49/49/49 48/48/48
f 51/51/51 49/49/49 50/50/50
f 52/52/52 51/51/51 50/50/50
f 55/55/55 54/54/54 53/53/53
f 54/54/54 56/56/56 53/53/53
f 53/53/53 56/56/56 57/57/57
f 56/56/56 58/58/58 57/57/57
f 57/57/57 58/58/58 59/59/59
f 58/58/58 60/60/60 59/59/59
f 59/59/59 60/60/60 61/61/61
f 60/60/60 62/62/62 61/61/61
f 61/61/61 62/62/62 63/63/63
f 62/62/62 64/64/64 63/63/63
f 63/63/63 64/64/64 65/65/65
f 64/64/64 66/66/66 65/65/65
f 65/65/65 66/66/66 67/67/67
f 66/66/66 68/68/68 67/67/67
f 67/67/67 68/68/68 69/69/69
f 68/68/68 70/70/70 69/69/69
f 69/69/69 70/70/70 71/71/71
f 70/70/70 72/72/72 71/71/71
f 71/71/71 72/72/72 73/73/73
f 72/72/72 74/74/74 73/73/73
f 73/73/73 74/74/74 75/75/75
f 74/74/74 76/76/76 75/75/75
f 75/75/75 76/76/76 77/77/77
f 76/76/76 78/78/78 77/77/77
f 81/81/81 80/80/80 79/79/79
f 80/80/80 82/82/82 79/79/79
f 79/79/79 82/82/82 83/83/83
f 82/82/82 84/84/84 83/83/83
f 83/83/83 84/84/84 85/85/85
f 84/84/84 86/86/86 85/85/85
f 85/85/85 86/86/86 87/87/87
f 86/86/86 88/88/88 87/87/87
f 91/91/91 90/90/90 89/89/89
f 90/90/90 92/92/92 89/89/89
f 89/89/89 92/92/92 93/93/93
f 92/92/92 94/94/94 93/93/93
f 93/93/93 94/94/94 95/95/95
f 94/94/94 96/96/96 95/95/95
f 95/95/95 96/96/96 97/97/97
f 96/96/96 98/98/98 97/97/97
f 97/97/97 98/98/98 99/99/99
f 98/98/98 100/100/100 99/99/99
f 99/99/99 100/100/100 101/101/101
f 100/100/100 102/102/102 101/101/101
f 101/101/101 102/102/102 103/103/103
f 102/102/102 104/104/104 103/103/103
f 107/107/107 106/106/106 105/105/105
f 108/108/108 107/107/107 105/105/105
f 105/105/105 109/109/109 108/108/108
f 110/110/110 107/107/107 108/108/108
f 109/109/109 105/105/105 111/111/111
f 105/105/105 112/112/112 111/111/111
f 109/109/109 111/111/111 113/113/113
f 109/109/109 113/113/113 114/114/114
f 109/109/109 114/114/114 115/115/115
f 116/116/116 110/110/110 108/108/108
f 116/116/116 108/108/108 109/109/109
f 117/117/117 109/109/109 115/115/115
f 117/117/117 116/116/116 109/109/109
f 117/117/117 115/115/115 118/118/118
f 119/119/119 117/117/117 118/118/118
f 116/116/116 117/117/117 119/119/119
f 120/120/120 119/119/119 118/118/118
f 119/119/119 120/120/120 121/121/121
f 116/116/116 122/122/122 110/110/110
f 122/122/122 116/116/116 119/119/119
f 122/122/122 123/123/123 110/110/110
f 123/123/123 122/122/122 124/124/124
f 122/122/122 125/125/125 124/124/124
f 125/125/125 122/122/122 119/119/119
f 125/125/125 119/119/119 126/126/126
f 119/119/119 127/127/127 126/126/126
f 119/119/119 128/128/128 127/127/127
f 128/128/128 119/119/119 129/129/129
f 129/129/129 119/119/119 121/121/121
f 130/130/130 129/129/129 121/121/121
f 131/131/131 128/128/128 129/129/129
f 131/131/131 129/129/129 130/130/130
f 132/132/132 130/130/130 121/121/121
f 130/130/130 132/132/132 133/133/133
f 134/134/134 130/130/130 133/133/133
f 135/135/135 131/131/131 130/130/130
f 130/130/130 134/134/134 136/136/136
f 130/130/130 136/136/136 135/135/135
f 134/134/134 137/137/137 136/136/136
f 136/136/136 137/137/137 138/138/138
f 136/136/136 138/138/138 135/135/135
f 137/137/137 139/139/139 138/138/138
f 138/138/138 140/140/140 135/135/135
f 140/140/140 141/141/141 135/135/135
f 141/141/141 142/142/142 135/135/135
