g flame17_geo
v -0.13318132 -0.054671668 0.010000054
v -0.12978086 -0.057230107 0.010000057
v -0.13052045 -0.05808689 -0.009999943
v -0.13154908 -0.056566276 -0.009999945
v -0.13535911 -0.051294897 -0.009999948
v -0.13584249 -0.051465187 0.010000051
v -0.12978086 -0.057230107 0.010000057
v -0.121417485 -0.047541387 -0.009999943
v -0.13052045 -0.05808689 -0.009999943
v -0.121417485 -0.047541387 0.010000057
v -0.09086237 -0.026938895 0.010000052
v -0.09086237 -0.026938895 -0.0099999495
v -0.062459663 -0.0122468565 0.010000062
v -0.06234822 -0.012100524 -0.009999939
v -0.03030301 -0.004353943 0.010000056
v -0.03037138 -0.0043707276 -0.009999937
v -0.13400479 -0.037846565 0.010000044
v -0.13584249 -0.051465187 0.010000051
v -0.13535911 -0.051294897 -0.009999948
v -0.13361701 -0.037900046 -0.009999954
v -0.13310398 -0.025400734 -0.009999983
v -0.13304001 -0.026562575 0.010000021
v -0.13236082 -0.013020172 -0.009999995
v -0.13222715 -0.0130245965 0.0100000035
v -0.13129753 -0.000823822 -0.010000021
v -0.13089277 -0.00079025264 0.009999979
v -0.13805406 0.01992447 -0.010000081
v -0.13619885 0.015969696 0.009999928
v -0.13756885 0.020297088 0.009999917
v -0.12225611 0.032056578 -0.010000126
v -0.13756885 0.020297088 0.009999917
v -0.13805406 0.01992447 -0.010000081
v -0.12225611 0.032056578 0.009999876
v -0.08014377 0.051198423 -0.009999969
v -0.08014377 0.051198423 0.010000033
v -0.05231212 0.057951506 -0.009999883
v -0.05180811 0.058087002 0.01000012
v -0.05180811 0.058087002 0.01000012
v -0.05231212 0.057951506 -0.009999883
v -0.048790272 0.054361876 0.010000124
v -0.031944737 0.033540495 0.010000122
v -0.032371674 0.03338913 -0.009999883
v -0.13619885 0.015969696 0.009999928
v -0.13756885 0.020297088 0.009999917
v -0.12225611 0.032056578 0.009999876
v -0.12018814 0.028170317 0.009999888
v -0.13089277 -0.00079025264 0.009999979
v -0.09297676 -0.022965508 0.010000041
v -0.13222715 -0.0130245965 0.0100000035
v -0.13304001 -0.026562575 0.010000021
v -0.07897887 0.047019042 0.010000035
v -0.08014377 0.051198423 0.010000033
v -0.0636507 -0.007973633 0.01000006
v -0.031944737 0.033540495 0.010000122
v -0.048790272 0.054361876 0.010000124
v -0.05180811 0.058087002 0.01000012
v -0.032050338 0.022512512 0.0100000985
v -0.03029528 0.011473236 0.01000008
v -0.030917296 0.00016708374 0.010000069
v -0.03030301 -0.004353943 0.010000056
v -0.062459663 -0.0122468565 0.010000062
v -0.09086237 -0.026938895 0.010000052
v -0.121417485 -0.047541387 0.010000057
v -0.1236239 -0.04383152 0.010000051
v -0.13400479 -0.037846565 0.010000044
v -0.13318132 -0.054671668 0.010000054
v -0.12978086 -0.057230107 0.010000057
v -0.13584249 -0.051465187 0.010000051
v -0.032371674 0.03338913 -0.009999883
v -0.05231212 0.057951506 -0.009999883
v -0.08014377 0.051198423 -0.009999969
v -0.031745873 0.022544097 -0.009999902
v -0.06234822 -0.012100524 -0.009999939
v -0.030603478 0.011460876 -0.009999922
v -0.031011127 0.00027755738 -0.00999994
v -0.03037138 -0.0043707276 -0.009999937
v -0.12225611 0.032056578 -0.010000126
v -0.09086237 -0.026938895 -0.0099999495
v -0.13129753 -0.000823822 -0.010000021
v -0.13805406 0.01992447 -0.010000081
v -0.13236082 -0.013020172 -0.009999995
v -0.13310398 -0.025400734 -0.009999983
v -0.121417485 -0.047541387 -0.009999943
v -0.13361701 -0.037900046 -0.009999954
v -0.13535911 -0.051294897 -0.009999948
v -0.13154908 -0.056566276 -0.009999945
v -0.13052045 -0.05808689 -0.009999943
v -0.031011127 0.00027755738 -0.00999994
v -0.03037138 -0.0043707276 -0.009999937
v -0.03030301 -0.004353943 0.010000056
v -0.030917296 0.00016708374 0.010000069
v -0.03029528 0.011473236 0.01000008
v -0.030603478 0.011460876 -0.009999922
v -0.031745873 0.022544097 -0.009999902
v -0.032050338 0.022512512 0.0100000985
v -0.032371674 0.03338913 -0.009999883
v -0.031944737 0.033540495 0.010000122
vt 0.65625 0.050689697
vt 0.6582031 0.050689697
vt 0.6582031 0.040618896
vt 0.65722656 0.040618896
vt 0.6538086 0.040618896
vt 0.6538086 0.050689697
vt 0.28442383 0.06793213
vt 0.2783203 0.07507324
vt 0.2849121 0.07507324
vt 0.2783203 0.06793213
vt 0.2607422 0.06793213
vt 0.2607422 0.07507324
vt 0.2454834 0.06793213
vt 0.2454834 0.07507324
vt 0.22973633 0.06793213
vt 0.22973633 0.07507324
vt 0.64697266 0.050689697
vt 0.6538086 0.050689697
vt 0.6538086 0.040618896
vt 0.64697266 0.040618896
vt 0.640625 0.040618896
vt 0.64160156 0.050689697
vt 0.6347656 0.040618896
vt 0.6347656 0.050689697
vt 0.62841797 0.040618896
vt 0.62841797 0.050689697
vt 0.6176758 0.040618896
vt 0.6196289 0.050689697
vt 0.6176758 0.050689697
vt 0.33544922 0.09338379
vt 0.34521484 0.10089111
vt 0.34545898 0.09338379
vt 0.33544922 0.10089111
vt 0.31225586 0.09338379
vt 0.31225586 0.10089111
vt 0.29785156 0.09338379
vt 0.29760742 0.10089111
vt 0.6533203 0.050689697
vt 0.6533203 0.040618896
vt 0.6508789 0.050689697
vt 0.6376953 0.050689697
vt 0.6376953 0.040618896
vt 0.15039062 0.7128906
vt 0.14990234 0.71484375
vt 0.15612793 0.71972656
vt 0.15698242 0.71777344
vt 0.15258789 0.7060547
vt 0.16809082 0.69677734
vt 0.15209961 0.7011719
vt 0.1517334 0.6953125
vt 0.17382812 0.72558594
vt 0.17333984 0.72753906
vt 0.18005371 0.703125
vt 0.19299316 0.72021484
vt 0.18603516 0.7285156
vt 0.18481445 0.73046875
vt 0.1928711 0.7158203
vt 0.19360352 0.7109375
vt 0.19335938 0.70654297
vt 0.19360352 0.70458984
vt 0.18054199 0.7011719
vt 0.16894531 0.6953125
vt 0.15649414 0.68652344
vt 0.15551758 0.68847656
vt 0.15136719 0.69091797
vt 0.15161133 0.68359375
vt 0.15307617 0.6826172
vt 0.1505127 0.6850586
vt 1.1923828 0.72021484
vt 1.1845703 0.72998047
vt 1.1728516 0.72753906
vt 1.1933594 0.7158203
vt 1.1806641 0.7011719
vt 1.1933594 0.7109375
vt 1.1933594 0.70654297
vt 1.1933594 0.70458984
vt 1.15625 0.71972656
vt 1.1689453 0.6953125
vt 1.1523438 0.7060547
vt 1.1494141 0.71435547
vt 1.1523438 0.7011719
vt 1.1513672 0.6958008
vt 1.15625 0.68652344
vt 1.1513672 0.69091797
vt 1.1503906 0.6850586
vt 1.1523438 0.68310547
vt 1.1523438 0.6826172
vt 0.62109375 0.040618896
vt 0.61865234 0.040618896
vt 0.61865234 0.050689697
vt 0.62109375 0.050689697
vt 0.62646484 0.050689697
vt 0.62646484 0.040618896
vt 0.63183594 0.040618896
vt 0.6323242 0.050689697
vt 0.6376953 0.040618896
vt 0.6376953 0.050689697
vn -0.75927734 -0.6508789 0.0008378029
vn -0.6772461 -0.73535156 0.035461426
vn -0.6772461 -0.73535156 0.035461426
vn -0.75097656 -0.66064453 0.004573822
vn -0.7949219 -0.6064453 -0.0158844
vn -0.7949219 -0.6064453 -0.0158844
vn 0.7402344 -0.63916016 0.20935059
vn 0.61572266 -0.78759766 0
vn 0.75683594 -0.6533203 0
vn 0.6010742 -0.7685547 0.22009277
vn 0.50097656 -0.8359375 0.2241211
vn 0.51416016 -0.85791016 -0.0009160042
vn 0.34033203 -0.91064453 0.23474121
vn 0.34887695 -0.9370117 -0.002456665
vn 0.23010254 -0.9448242 0.23339844
vn 0.23669434 -0.9716797 -0.0028934479
vn -0.9951172 0.09906006 -0.014282227
vn -0.99121094 0.13134766 -0.021194458
vn -0.99121094 0.13134766 -0.021194458
vn -0.9951172 0.09906006 -0.014289856
vn -0.9980469 0.06088257 0.00067806244
vn -0.9980469 0.06097412 0.00019979477
vn -0.9970703 0.07824707 0.0099105835
vn -0.9970703 0.078308105 0.0099105835
vn -0.98779297 -0.1541748 0.02015686
vn -0.98779297 -0.15405273 0.02015686
vn -0.95166016 -0.3059082 0.023864746
vn -0.95166016 -0.30566406 0.024169922
vn -0.953125 -0.3017578 0.0287323
vn -0.47460938 0.8803711 0
vn -0.58935547 0.7675781 0.2512207
vn -0.6088867 0.79296875 0
vn -0.4650879 0.8623047 0.19946289
vn -0.34692383 0.9379883 -0.00012254715
vn -0.33984375 0.9189453 0.2006836
vn -0.23596191 0.9716797 -0.00031733513
vn -0.22644043 0.9321289 0.28198242
vn 0.77685547 0.62939453 -0.023834229
vn 0.77685547 0.62939453 -0.022583008
vn 0.77685547 0.62939453 -0.022628784
vn 0.77685547 0.62939453 -0.02255249
vn 0.77685547 0.62939453 -0.02255249
vn 1.7881393E-07 3.0398369E-06 1
vn -0.58935547 0.7675781 0.2512207
vn -0.4650879 0.8623047 0.19946289
vn -2.2053719E-06 1.013279E-06 1
vn -0 2.861023E-06 1
vn -2.026558E-06 9.536743E-07 1
vn -5.364418E-07 1.6093254E-06 1
vn -5.9604645E-07 1.4305115E-06 1
vn -2.4437904E-06 1.7881393E-07 1
vn -0.33984375 0.9189453 0.2006836
vn -2.1457672E-06 2.9802322E-07 1
vn -1.5497208E-06 -4.7683716E-07 1
vn -2.4437904E-06 -1.847744E-06 1
vn -0.22644043 0.9321289 0.28198242
vn -1.3709068E-06 -4.172325E-07 1
vn 2.3841858E-07 -1.4305115E-06 1
vn 1.1920929E-07 -1.0728836E-06 1
vn 0.23010254 -0.9448242 0.23339844
vn 0.34033203 -0.91064453 0.23474121
vn 0.50097656 -0.8359375 0.2241211
vn 0.6010742 -0.7685547 0.22009277
vn -5.9604645E-07 1.3709068E-06 1
vn -0 1.2516975E-06 1
vn -5.364418E-07 5.9604645E-07 1
vn 0.7402344 -0.63916016 0.20935059
vn -2.9802322E-07 4.7683716E-07 1
vn 1.5497208E-06 3.5762787E-07 -1
vn 2.682209E-06 2.0861626E-06 -1
vn 2.3245811E-06 -2.3841858E-07 -1
vn 1.4305115E-06 2.9802322E-07 -1
vn 2.3245811E-06 -3.5762787E-07 -1
vn -5.9604645E-07 1.66893E-06 -1
vn -3.5762787E-07 1.1920929E-06 -1
vn 2.9802322E-07 -4.7683716E-07 -1
vn 2.2053719E-06 -1.013279E-06 -1
vn 2.1457672E-06 -8.940697E-07 -1
vn -1.7881393E-07 -2.9802322E-06 -1
vn -3.5762787E-07 -3.0398369E-06 -1
vn 6.556511E-07 -1.6093254E-06 -1
vn 7.1525574E-07 -1.3113022E-06 -1
vn 7.1525574E-07 -1.1920929E-06 -1
vn -0 -1.4305115E-06 -1
vn 5.364418E-07 -4.7683716E-07 -1
vn 4.7683716E-07 -4.7683716E-07 -1
vn -0 -8.940697E-07 -1
vn 1 0.0068130493 -0.008308411
vn 0.99072266 0.13549805 -0.0037002563
vn 0.99072266 0.13549805 -0.0037002563
vn 1 0.007358551 -0.008293152
vn 0.99902344 0.041809082 -0.0051345825
vn 0.99902344 0.041809082 -0.0051345825
vn 0.9970703 0.07745361 -0.0015687943
vn 0.9970703 0.07745361 -0.0015678406
vn 0.9995117 0.023773193 -0.0031318665
vn 0.9995117 0.023773193 -0.0031318665
g flame17_geo_0
f 3/3/3 2/2/2 1/1/1
f 4/4/4 3/3/3 1/1/1
f 4/4/4 1/1/1 5/5/5
f 1/1/1 6/6/6 5/5/5
f 9/9/9 8/8/8 7/7/7
f 8/8/8 10/10/10 7/7/7
f 10/10/10 8/8/8 11/11/11
f 8/8/8 12/12/12 11/11/11
f 11/11/11 12/12/12 13/13/13
f 12/12/12 14/14/14 13/13/13
f 13/13/13 14/14/14 15/15/15
f 14/14/14 16/16/16 15/15/15
f 19/19/19 18/18/18 17/17/17
f 20/20/20 19/19/19 17/17/17
f 20/20/20 17/17/17 21/21/21
f 17/17/17 22/22/22 21/21/21
f 21/21/21 22/22/22 23/23/23
f 22/22/22 24/24/24 23/23/23
f 23/23/23 24/24/24 25/25/25
f 24/24/24 26/26/26 25/25/25
f 25/25/25 26/26/26 27/27/27
f 26/26/26 28/28/28 27/27/27
f 28/28/28 29/29/29 27/27/27
f 32/32/32 31/31/31 30/30/30
f 31/31/31 33/33/33 30/30/30
f 34/34/34 30/30/30 33/33/33
f 35/35/35 34/34/34 33/33/33
f 34/34/34 35/35/35 36/36/36
f 35/35/35 37/37/37 36/36/36
f 40/40/40 39/39/39 38/38/38
f 40/40/40 41/41/41 39/39/39
f 41/41/41 42/42/42 39/39/39
f 45/45/45 44/44/44 43/43/43
f 46/46/46 45/45/45 43/43/43
f 47/47/47 46/46/46 43/43/43
f 47/47/47 48/48/48 46/46/46
f 47/47/47 49/49/49 48/48/48
f 49/49/49 50/50/50 48/48/48
f 46/46/46 51/51/51 45/45/45
f 51/51/51 52/52/52 45/45/45
f 48/48/48 53/53/53 46/46/46
f 53/53/53 51/51/51 46/46/46
f 54/54/54 51/51/51 53/53/53
f 51/51/51 55/55/55 52/52/52
f 54/54/54 55/55/55 51/51/51
f 55/55/55 56/56/56 52/52/52
f 57/57/57 54/54/54 53/53/53
f 57/57/57 53/53/53 58/58/58
f 53/53/53 59/59/59 58/58/58
f 59/59/59 53/53/53 60/60/60
f 53/53/53 61/61/61 60/60/60
f 62/62/62 61/61/61 53/53/53
f 48/48/48 62/62/62 53/53/53
f 63/63/63 62/62/62 48/48/48
f 64/64/64 63/63/63 48/48/48
f 50/50/50 64/64/64 48/48/48
f 64/64/64 50/50/50 65/65/65
f 64/64/64 66/66/66 63/63/63
f 66/66/66 64/64/64 65/65/65
f 66/66/66 67/67/67 63/63/63
f 68/68/68 66/66/66 65/65/65
f 71/71/71 70/70/70 69/69/69
f 71/71/71 69/69/69 72/72/72
f 73/73/73 71/71/71 72/72/72
f 73/73/73 72/72/72 74/74/74
f 75/75/75 73/73/73 74/74/74
f 75/75/75 76/76/76 73/73/73
f 77/77/77 71/71/71 73/73/73
f 78/78/78 77/77/77 73/73/73
f 79/79/79 77/77/77 78/78/78
f 79/79/79 80/80/80 77/77/77
f 81/81/81 79/79/79 78/78/78
f 82/82/82 81/81/81 78/78/78
f 83/83/83 82/82/82 78/78/78
f 84/84/84 82/82/82 83/83/83
f 85/85/85 84/84/84 83/83/83
f 86/86/86 85/85/85 83/83/83
f 87/87/87 86/86/86 83/83/83
f 90/90/90 89/89/89 88/88/88
f 91/91/91 90/90/90 88/88/88
f 91/91/91 88/88/88 92/92/92
f 88/88/88 93/93/93 92/92/92
f 93/93/93 94/94/94 92/92/92
f 94/94/94 95/95/95 92/92/92
f 94/94/94 96/96/96 95/95/95
f 96/96/96 97/97/97 95/95/95
