g flame0_geo
v -0.090892695 0.015656967 -0.008887655
v -0.09096628 0.009159469 0.009436828
v -0.09123503 0.009455032 -0.008887655
v -0.09171568 0.016576614 0.009436828
v -0.09089865 0.021822318 0.009436786
v -0.09051523 0.02199562 -0.008885869
v -0.09309095 0.026442528 -0.008885298
v -0.09314796 0.026647262 0.009436786
v -0.097846314 0.040213395 0.009436777
v -0.09954332 0.039810292 -0.008887655
v -0.10061087 0.048317414 -0.008887655
v -0.09791206 0.048429105 0.009436788
v -0.10054033 0.05700943 -0.008887655
v -0.10084041 0.057004623 0.009436823
v -0.09815589 0.065447845 -0.008887655
v -0.097138405 0.06536415 0.009436796
v -0.09968885 0.074136734 -0.008887655
v -0.09547378 0.07375336 0.00943676
v -0.09528971 0.08120399 0.009436793
v -0.09838224 0.07916854 -0.008887655
v -0.092371784 0.09238716 0.009436765
v -0.09479736 0.09303726 -0.008887655
v -0.09359251 0.097698435 -0.008887655
v -0.092786595 0.09731262 0.009436828
v 0.0936412 -0.04534672 -0.008887654
v 0.10084041 -0.042176016 -0.008887655
v 0.05890446 -0.03518795 -0.008887655
v 0.06902298 -0.056189153 -0.008887655
v 0.06230799 -0.066025734 -0.008887655
v 0.054164812 -0.07443035 -0.008887655
v 0.04705414 -0.08374115 -0.008887657
v 0.042927764 -0.08590141 -0.008887655
v 0.040942997 -0.09220146 -0.008887655
v 0.028390946 -0.09351173 -0.008887655
v 0.031884063 -0.029065818 -0.008887655
v 0.0148601 -0.09437839 -0.008887655
v 0.0017076922 -0.09410938 -0.008887655
v -0.00442512 -0.0959943 -0.008887655
v 0.013226399 -0.016149139 -0.008887655
v -0.009731803 -0.09762527 -0.008887655
v -0.029483942 -0.081452675 -0.008887655
v -0.055166963 -0.044938162 -0.008887655
v -0.004743457 0.009297333 -0.008887655
v -0.07516231 -0.0082245255 -0.008887655
v -0.027677873 0.043651123 -0.008887655
v -0.090892695 0.015656967 -0.008887655
v -0.09123503 0.009455032 -0.008887655
v -0.09051523 0.02199562 -0.008885869
v -0.09309095 0.026442528 -0.008885298
v -0.05453197 0.071815416 -0.008887655
v -0.09954332 0.039810292 -0.008887655
v -0.10061087 0.048317414 -0.008887655
v -0.10054033 0.05700943 -0.008887655
v -0.09815589 0.065447845 -0.008887655
v -0.09968885 0.074136734 -0.008887655
v -0.08767021 0.09486343 -0.008887655
v -0.09838224 0.07916854 -0.008887655
v -0.09359251 0.097698435 -0.008887655
v -0.09479736 0.09303726 -0.008887655
v 0.10084041 -0.042176016 -0.008887655
v 0.089396626 -0.044464722 0.009436789
v 0.0993544 -0.04192829 0.009436828
v 0.0936412 -0.04534672 -0.008887654
v 0.0661479 -0.05292671 0.009436763
v 0.06902298 -0.056189153 -0.008887655
v 0.061209682 -0.06518364 0.009436782
v 0.06230799 -0.066025734 -0.008887655
v 0.053113922 -0.07352077 0.009436809
v 0.054164812 -0.07443035 -0.008887655
v 0.045319274 -0.08253658 0.009436801
v 0.04705414 -0.08374115 -0.008887657
v 0.040267624 -0.091116674 0.009436796
v 0.040942997 -0.09220146 -0.008887655
v 0.028390946 -0.09351173 -0.008887655
v 0.028088555 -0.08859642 0.009436752
v 0.014607262 -0.09026466 0.009436745
v 0.0148601 -0.09437839 -0.008887655
v 0.0013816118 -0.09189728 0.009436767
v 0.0017076922 -0.09410938 -0.008887655
v -0.004625182 -0.09196537 0.009436737
v -0.00442512 -0.0959943 -0.008887655
v -0.009731803 -0.09762527 -0.008887655
v -0.009642444 -0.097698435 0.009436828
v 0.10084041 -0.042176016 -0.008887655
v 0.0993544 -0.04192829 0.009436828
v 0.05890446 -0.035187874 0.009436828
v 0.05890446 -0.03518795 -0.008887655
v 0.031884063 -0.029065818 0.009436828
v 0.031884063 -0.029065818 -0.008887655
v 0.013226399 -0.016149139 -0.008887655
v 0.013226399 -0.016149139 0.009436828
v -0.0047434377 0.009297333 0.009436828
v -0.004743457 0.009297333 -0.008887655
v -0.027677873 0.043651197 0.009436828
v -0.027677873 0.043651123 -0.008887655
v -0.05453197 0.071815416 0.009436828
v -0.05453197 0.071815416 -0.008887655
v -0.08767021 0.09486343 0.009436828
v -0.08767021 0.09486343 -0.008887655
v -0.092786595 0.09731262 0.009436828
v -0.09359251 0.097698435 -0.008887655
v -0.004625182 -0.09196537 0.009436737
v -0.009642444 -0.097698435 0.009436828
v -0.029483942 -0.08145259 0.009436828
v -0.026607297 -0.07705437 0.009436828
v -0.055166926 -0.0449382 0.009436828
v 0.0013816118 -0.09189728 0.009436767
v -0.051770892 -0.041285247 0.009436828
v -0.07516231 -0.008224449 0.009436828
v 0.010413003 -0.020450821 0.009436828
v 0.029741062 -0.03398506 0.009436828
v 0.014607262 -0.09026466 0.009436745
v 0.028088555 -0.08859642 0.009436752
v -0.07196411 -0.004730644 0.009436828
v -0.09096628 0.009159469 0.009436828
v -0.09171568 0.016576614 0.009436828
v -0.030805849 0.04023403 0.009436828
v -0.09089865 0.021822318 0.009436786
v -0.09314796 0.026647262 0.009436786
v -0.008064952 0.005724716 0.009436828
v -0.057491276 0.06830322 0.009436828
v -0.097846314 0.040213395 0.009436777
v -0.09791206 0.048429105 0.009436788
v -0.10084041 0.057004623 0.009436823
v -0.097138405 0.06536415 0.009436796
v -0.09547378 0.07375336 0.00943676
v 0.013226399 -0.016149139 0.009436828
v -0.0047434377 0.009297333 0.009436828
v -0.027677873 0.043651197 0.009436828
v -0.05453197 0.071815416 0.009436828
v 0.031884063 -0.029065818 0.009436828
v 0.05890446 -0.035187874 0.009436828
v -0.08767021 0.09486343 0.009436828
v 0.056893714 -0.04059986 0.009436828
v 0.0993544 -0.04192829 0.009436828
v 0.089396626 -0.044464722 0.009436789
v 0.0661479 -0.05292671 0.009436763
v 0.061209682 -0.06518364 0.009436782
v 0.053113922 -0.07352077 0.009436809
v 0.045319274 -0.08253658 0.009436801
v 0.04279988 -0.08342262 0.009436801
v 0.040267624 -0.091116674 0.009436796
v -0.090202615 0.09115311 0.009436828
v -0.09528971 0.08120399 0.009436793
v -0.092371784 0.09238716 0.009436765
v -0.092786595 0.09731262 0.009436828
v -0.009642444 -0.097698435 0.009436828
v -0.009731803 -0.09762527 -0.008887655
v -0.029483942 -0.081452675 -0.008887655
v -0.029483942 -0.08145259 0.009436828
v -0.055166926 -0.0449382 0.009436828
v -0.055166963 -0.044938162 -0.008887655
v -0.07516231 -0.0082245255 -0.008887655
v -0.07516231 -0.008224449 0.009436828
v -0.09123503 0.009455032 -0.008887655
v -0.09096628 0.009159469 0.009436828
vt 0.6801758 0.05432129
vt 0.68408203 0.06427002
vt 0.68359375 0.05432129
vt 0.6796875 0.06427002
vt 0.6767578 0.06427002
vt 0.6767578 0.05432129
vt 0.6743164 0.05432129
vt 0.6738281 0.06427002
vt 0.6660156 0.06427002
vt 0.6660156 0.05432129
vt 0.6616211 0.05432129
vt 0.6616211 0.06427002
vt 0.6567383 0.05432129
vt 0.6567383 0.06427002
vt 0.65185547 0.05432129
vt 0.65185547 0.06427002
vt 0.64746094 0.05432129
vt 0.64746094 0.06427002
vt 0.6435547 0.06427002
vt 0.64453125 0.05432129
vt 0.63720703 0.06427002
vt 0.63720703 0.05432129
vt 0.63427734 0.05432129
vt 0.6347656 0.06427002
vt 1.3466797 0.65966797
vt 1.3496094 0.6611328
vt 1.3310547 0.6640625
vt 1.3359375 0.65527344
vt 1.3330078 0.6513672
vt 1.3291016 0.6479492
vt 1.3261719 0.64404297
vt 1.3242188 0.6430664
vt 1.3232422 0.640625
vt 1.3183594 0.63964844
vt 1.3203125 0.6665039
vt 1.3125 0.63964844
vt 1.3076172 0.63964844
vt 1.3046875 0.6386719
vt 1.3125 0.671875
vt 1.3027344 0.6381836
vt 1.2949219 0.64501953
vt 1.2841797 0.65966797
vt 1.3046875 0.6821289
vt 1.2753906 0.6748047
vt 1.2949219 0.69628906
vt 1.2695312 0.6845703
vt 1.2685547 0.6821289
vt 1.2695312 0.6870117
vt 1.2685547 0.68896484
vt 1.2841797 0.7080078
vt 1.265625 0.6948242
vt 1.2646484 0.6982422
vt 1.265625 0.70166016
vt 1.2666016 0.7050781
vt 1.265625 0.7089844
vt 1.2705078 0.71728516
vt 1.2666016 0.7109375
vt 1.2685547 0.71875
vt 1.2675781 0.7167969
vt 0.7583008 0.05432129
vt 0.7519531 0.06427002
vt 0.7578125 0.06427002
vt 0.75390625 0.05432129
vt 0.7392578 0.06427002
vt 0.7397461 0.05432129
vt 0.73291016 0.06427002
vt 0.73291016 0.05432129
vt 0.7265625 0.06427002
vt 0.7265625 0.05432129
vt 0.72021484 0.06427002
vt 0.7207031 0.05432129
vt 0.71484375 0.06427002
vt 0.71484375 0.05432129
vt 0.7080078 0.05432129
vt 0.7080078 0.06427002
vt 0.7006836 0.06427002
vt 0.7006836 0.05432129
vt 0.6933594 0.06427002
vt 0.6933594 0.05432129
vt 0.6904297 0.06427002
vt 0.6894531 0.05432129
vt 0.68652344 0.05432129
vt 0.68603516 0.06427002
vt 0.06628418 0.09375
vt 0.06707764 0.10064697
vt 0.08758545 0.10064697
vt 0.08758545 0.09375
vt 0.101501465 0.10064697
vt 0.101501465 0.09375
vt 0.112854004 0.09375
vt 0.112854004 0.10064697
vt 0.12841797 0.10064697
vt 0.12841797 0.09375
vt 0.14916992 0.10064697
vt 0.14916992 0.09375
vt 0.16870117 0.10064697
vt 0.16870117 0.09375
vt 0.18884277 0.10064697
vt 0.18884277 0.09375
vt 0.19177246 0.10064697
vt 0.19213867 0.09375
vt 0.3046875 0.6401367
vt 0.30273438 0.6376953
vt 0.29467773 0.64453125
vt 0.2956543 0.6464844
vt 0.2841797 0.65966797
vt 0.3071289 0.6401367
vt 0.2854004 0.6611328
vt 0.2758789 0.6748047
vt 0.31103516 0.6699219
vt 0.3190918 0.6640625
vt 0.3125 0.6411133
vt 0.31811523 0.64160156
vt 0.2770996 0.67626953
vt 0.26953125 0.6821289
vt 0.26904297 0.6850586
vt 0.2939453 0.6948242
vt 0.2692871 0.6875
vt 0.26831055 0.6894531
vt 0.30322266 0.68066406
vt 0.28295898 0.70654297
vt 0.26635742 0.6948242
vt 0.26635742 0.6982422
vt 0.26513672 0.70166016
vt 0.2668457 0.7055664
vt 0.26733398 0.7089844
vt 0.31225586 0.6713867
vt 0.3046875 0.6821289
vt 0.29541016 0.69628906
vt 0.28442383 0.7080078
vt 0.32006836 0.6660156
vt 0.33154297 0.6635742
vt 0.27075195 0.71777344
vt 0.3305664 0.6611328
vt 0.34887695 0.66064453
vt 0.34448242 0.65966797
vt 0.33447266 0.65625
vt 0.3322754 0.6513672
vt 0.32885742 0.6479492
vt 0.32543945 0.64404297
vt 0.3244629 0.64404297
vt 0.3232422 0.640625
vt 0.26953125 0.7163086
vt 0.26757812 0.71191406
vt 0.26879883 0.7167969
vt 0.2685547 0.71875
vt 0.06903076 0.068115234
vt 0.0690918 0.074645996
vt 0.08129883 0.074645996
vt 0.08129883 0.068115234
vt 0.1026001 0.068115234
vt 0.1026001 0.074645996
vt 0.122558594 0.074645996
vt 0.122558594 0.068115234
vt 0.13391113 0.074645996
vt 0.13378906 0.068115234
vn -0.9995117 0.029220581 -0.023666382
vn -0.7841797 -0.5234375 0.33276367
vn -0.83496094 -0.55029297 -0.0034694672
vn -0.99902344 0.03326416 -0.024291992
vn -0.9848633 -0.17028809 -0.024276733
vn -0.9848633 -0.17224121 -0.02418518
vn -0.9145508 -0.4038086 0.03225708
vn -0.9145508 -0.4033203 0.032562256
vn -0.95996094 -0.26953125 0.07513428
vn -0.95996094 -0.26953125 0.07513428
vn -0.98876953 -0.11621094 0.091918945
vn -0.98876953 -0.11553955 0.092285156
vn -0.9946289 0.09466553 0.04324341
vn -0.9946289 0.09411621 0.043273926
vn -0.98046875 0.17980957 0.08062744
vn -0.98046875 0.17858887 0.08105469
vn -0.98535156 0.054473877 0.16223145
vn -0.98535156 0.054229736 0.16210938
vn -0.9658203 0.21044922 0.15124512
vn -0.96728516 0.20019531 0.15551758
vn -0.9707031 0.20544434 0.123413086
vn -0.9711914 0.2043457 0.123168945
vn -0.9926758 0.08178711 0.08984375
vn -0.9926758 0.08178711 0.08984375
vn -0 -1.1920929E-07 -1
vn -1.1920929E-07 -2.9802322E-07 -1
vn -0 0 -1
vn -0 0 -1
vn 2.3841858E-07 0 -1
vn 4.7683716E-07 0 -1
vn 4.7683716E-07 0 -1
vn -0 0 -1
vn 2.9802322E-07 0 -1
vn -1.1920929E-07 0 -1
vn -0 0 -1
vn -0 0 -1
vn -0 0 -1
vn -0 0 -1
vn -0 0 -1
vn -0 0 -1
vn -0 0 -1
vn -0 0 -1
vn -0 0 -1
vn -4.708767E-06 1.0609627E-05 -1
vn -1.04904175E-05 1.66893E-06 -1
vn -2.1159649E-05 4.774332E-05 -1
vn 2.3841858E-07 0 -1
vn -2.7179718E-05 1.7881393E-05 -1
vn -1.31726265E-05 -3.0755997E-05 -1
vn -2.2172928E-05 -1.50203705E-05 -1
vn 7.086992E-05 -9.948015E-05 -1
vn -0 0 -1
vn -0 0 -1
vn -0 0 -1
vn -0 0 -1
vn -0 0 -1
vn -0 0 -1
vn -3.5762787E-07 0 -1
vn -3.5762787E-07 0 -1
vn 0.31469727 -0.9458008 0.07836914
vn 0.35742188 -0.92089844 0.15466309
vn 0.31469727 -0.9458008 0.07836914
vn 0.35229492 -0.9243164 0.14550781
vn 0.5605469 -0.8095703 0.17468262
vn 0.56103516 -0.80908203 0.17468262
vn 0.8071289 -0.57910156 0.11352539
vn 0.8071289 -0.57958984 0.113464355
vn 0.7451172 -0.6616211 0.08520508
vn 0.7451172 -0.6616211 0.08520508
vn 0.8017578 -0.5908203 0.092285156
vn 0.80126953 -0.5908203 0.092285156
vn 0.39672852 -0.90625 0.14733887
vn 0.39990234 -0.90478516 0.14709473
vn 0.02532959 -0.9790039 0.20275879
vn 0.026245117 -0.9790039 0.20324707
vn 0.07141113 -0.9760742 0.20629883
vn 0.0713501 -0.9760742 0.20617676
vn 0.08483887 -0.9819336 0.17004395
vn 0.08453369 -0.9819336 0.17004395
vn 0.36914062 -0.9199219 0.13378906
vn 0.3869629 -0.91259766 0.1303711
vn 0.5786133 -0.81103516 0.08929443
vn 0.5786133 -0.81103516 0.08929443
vn 0.16442871 0.9863281 -6.2584877E-06
vn 0.1640625 0.9848633 0.057800293
vn 0.18078613 0.94921875 0.25683594
vn 0.18701172 0.9824219 -3.7550926E-06
vn 0.36450195 0.8745117 0.3203125
vn 0.38476562 0.92285156 0
vn 0.72314453 0.6904297 0
vn 0.6899414 0.6586914 0.2998047
vn 0.79785156 0.54589844 0.25512695
vn 0.8251953 0.5644531 -1.0728836E-06
vn 0.76123047 0.60595703 0.23095703
vn 0.78222656 0.6230469 -2.0861626E-06
vn 0.6323242 0.74072266 0.22717285
vn 0.64941406 0.7607422 -1.0728836E-06
vn 0.5390625 0.81152344 0.22546387
vn 0.55371094 0.8330078 -1.7881393E-07
vn 0.4296875 0.89746094 0.10076904
vn 0.43188477 0.90185547 -1.2516975E-06
vn 8.34465E-07 -9.536743E-07 1
vn -0.59472656 -0.7265625 0.34375
vn -0.7314453 -0.6308594 0.25927734
vn 4.7683716E-07 -3.5762787E-07 1
vn -0.8227539 -0.5131836 0.24365234
vn 7.1525574E-07 -1.3113022E-06 1
vn -0 0 1
vn -0.80029297 -0.53027344 0.27929688
vn 2.3841858E-07 -4.7683716E-07 1
vn -0 -1.0728836E-06 1
vn 1.0728836E-06 -1.7285347E-06 1
vn -9.536743E-07 -1.013279E-06 1
vn -1.1920929E-07 2.9802322E-07 1
vn -0.7841797 -0.5234375 0.33276367
vn -4.7683716E-07 1.1920929E-06 1
vn -1.7881393E-07 0 1
vn -5.364418E-07 3.5762787E-07 1
vn -6.556511E-07 -4.172325E-07 1
vn -0 0 1
vn -5.364418E-07 -4.7683716E-07 1
vn -1.1324883E-06 -1.1920929E-07 1
vn 2.3841858E-07 -2.503395E-06 1
vn 2.9802322E-07 -1.4305115E-06 1
vn -1.0728836E-06 3.993511E-06 1
vn -1.7285347E-06 -8.940697E-07 1
vn 0.6899414 0.6586914 0.2998047
vn 0.79785156 0.54589844 0.25512695
vn 0.76123047 0.60595703 0.23095703
vn 0.6323242 0.74072266 0.22717285
vn 0.36450195 0.8745117 0.3203125
vn 0.18078613 0.94921875 0.25683594
vn 0.5390625 0.81152344 0.22546387
vn -6.556511E-07 -1.4305115E-06 1
vn 0.1640625 0.9848633 0.057800293
vn -0 -4.708767E-06 1
vn 2.503395E-06 -3.3974648E-06 1
vn 4.708767E-06 -1.013279E-06 1
vn 4.7683716E-07 -6.556511E-07 1
vn -2.3841858E-07 -5.364418E-07 1
vn -1.1920929E-06 -8.34465E-07 1
vn -3.516674E-06 5.364418E-07 1
vn -2.2053719E-06 -1.9073486E-06 1
vn -2.0861626E-06 -3.2186508E-06 1
vn -1.513958E-05 -2.9802322E-07 1
vn 0.4296875 0.89746094 0.10076904
vn -0.59472656 -0.7265625 0.34375
vn -0.6333008 -0.7739258 1.7881393E-06
vn -0.7573242 -0.6533203 1.847744E-06
vn -0.7314453 -0.6308594 0.25927734
vn -0.8227539 -0.5131836 0.24365234
vn -0.8486328 -0.5292969 1.3709068E-06
vn -0.8334961 -0.5522461 1.847744E-06
vn -0.80029297 -0.53027344 0.27929688
vn -0.83496094 -0.55029297 -0.0034694672
vn -0.7841797 -0.5234375 0.33276367
g flame0_geo_0
f 3/3/3 2/2/2 1/1/1
f 2/2/2 4/4/4 1/1/1
f 4/4/4 5/5/5 1/1/1
f 5/5/5 6/6/6 1/1/1
f 6/6/6 5/5/5 7/7/7
f 5/5/5 8/8/8 7/7/7
f 7/7/7 8/8/8 9/9/9
f 10/10/10 7/7/7 9/9/9
f 10/10/10 9/9/9 11/11/11
f 9/9/9 12/12/12 11/11/11
f 11/11/11 12/12/12 13/13/13
f 12/12/12 14/14/14 13/13/13
f 13/13/13 14/14/14 15/15/15
f 14/14/14 16/16/16 15/15/15
f 15/15/15 16/16/16 17/17/17
f 16/16/16 18/18/18 17/17/17
f 17/17/17 18/18/18 19/19/19
f 20/20/20 17/17/17 19/19/19
f 20/20/20 19/19/19 21/21/21
f 22/22/22 20/20/20 21/21/21
f 22/22/22 21/21/21 23/23/23
f 21/21/21 24/24/24 23/23/23
f 27/27/27 26/26/26 25/25/25
f 27/27/27 25/25/25 28/28/28
f 29/29/29 27/27/27 28/28/28
f 29/29/29 30/30/30 27/27/27
f 30/30/30 31/31/31 27/27/27
f 31/31/31 32/32/32 27/27/27
f 31/31/31 33/33/33 32/32/32
f 34/34/34 32/32/32 33/33/33
f 35/35/35 27/27/27 32/32/32
f 34/34/34 35/35/35 32/32/32
f 34/34/34 36/36/36 35/35/35
f 36/36/36 37/37/37 35/35/35
f 37/37/37 38/38/38 35/35/35
f 38/38/38 39/39/39 35/35/35
f 38/38/38 40/40/40 39/39/39
f 40/40/40 41/41/41 39/39/39
f 39/39/39 41/41/41 42/42/42
f 43/43/43 39/39/39 42/42/42
f 42/42/42 44/44/44 43/43/43
f 44/44/44 45/45/45 43/43/43
f 45/45/45 44/44/44 46/46/46
f 44/44/44 47/47/47 46/46/46
f 48/48/48 45/45/45 46/46/46
f 48/48/48 49/49/49 45/45/45
f 49/49/49 50/50/50 45/45/45
f 50/50/50 49/49/49 51/51/51
f 50/50/50 51/51/51 52/52/52
f 50/50/50 52/52/52 53/53/53
f 50/50/50 53/53/53 54/54/54
f 50/50/50 54/54/54 55/55/55
f 50/50/50 55/55/55 56/56/56
f 55/55/55 57/57/57 56/56/56
f 56/56/56 57/57/57 58/58/58
f 57/57/57 59/59/59 58/58/58
f 62/62/62 61/61/61 60/60/60
f 61/61/61 63/63/63 60/60/60
f 61/61/61 64/64/64 63/63/63
f 64/64/64 65/65/65 63/63/63
f 65/65/65 64/64/64 66/66/66
f 67/67/67 65/65/65 66/66/66
f 67/67/67 66/66/66 68/68/68
f 69/69/69 67/67/67 68/68/68
f 69/69/69 68/68/68 70/70/70
f 71/71/71 69/69/69 70/70/70
f 71/71/71 70/70/70 72/72/72
f 73/73/73 71/71/71 72/72/72
f 73/73/73 72/72/72 74/74/74
f 72/72/72 75/75/75 74/74/74
f 74/74/74 75/75/75 76/76/76
f 77/77/77 74/74/74 76/76/76
f 77/77/77 76/76/76 78/78/78
f 79/79/79 77/77/77 78/78/78
f 79/79/79 78/78/78 80/80/80
f 81/81/81 79/79/79 80/80/80
f 81/81/81 80/80/80 82/82/82
f 80/80/80 83/83/83 82/82/82
f 86/86/86 85/85/85 84/84/84
f 87/87/87 86/86/86 84/84/84
f 86/86/86 87/87/87 88/88/88
f 87/87/87 89/89/89 88/88/88
f 88/88/88 89/89/89 90/90/90
f 91/91/91 88/88/88 90/90/90
f 91/91/91 90/90/90 92/92/92
f 90/90/90 93/93/93 92/92/92
f 92/92/92 93/93/93 94/94/94
f 93/93/93 95/95/95 94/94/94
f 94/94/94 95/95/95 96/96/96
f 95/95/95 97/97/97 96/96/96
f 96/96/96 97/97/97 98/98/98
f 97/97/97 99/99/99 98/98/98
f 98/98/98 99/99/99 100/100/100
f 99/99/99 101/101/101 100/100/100
f 104/104/104 103/103/103 102/102/102
f 105/105/105 104/104/104 102/102/102
f 104/104/104 105/105/105 106/106/106
f 105/105/105 102/102/102 107/107/107
f 105/105/105 108/108/108 106/106/106
f 106/106/106 108/108/108 109/109/109
f 110/110/110 105/105/105 107/107/107
f 105/105/105 110/110/110 108/108/108
f 107/107/107 111/111/111 110/110/110
f 111/111/111 107/107/107 112/112/112
f 111/111/111 112/112/112 113/113/113
f 108/108/108 114/114/114 109/109/109
f 115/115/115 109/109/109 114/114/114
f 116/116/116 115/115/115 114/114/114
f 116/116/116 114/114/114 117/117/117
f 118/118/118 116/116/116 117/117/117
f 119/119/119 118/118/118 117/117/117
f 108/108/108 120/120/120 114/114/114
f 110/110/110 120/120/120 108/108/108
f 120/120/120 117/117/117 114/114/114
f 121/121/121 119/119/119 117/117/117
f 119/119/119 121/121/121 122/122/122
f 121/121/121 123/123/123 122/122/122
f 121/121/121 124/124/124 123/123/123
f 121/121/121 125/125/125 124/124/124
f 121/121/121 126/126/126 125/125/125
f 110/110/110 127/127/127 120/120/120
f 127/127/127 110/110/110 111/111/111
f 127/127/127 128/128/128 120/120/120
f 120/120/120 128/128/128 117/117/117
f 128/128/128 129/129/129 117/117/117
f 117/117/117 129/129/129 130/130/130
f 121/121/121 117/117/117 130/130/130
f 131/131/131 127/127/127 111/111/111
f 131/131/131 111/111/111 132/132/132
f 121/121/121 130/130/130 133/133/133
f 111/111/111 134/134/134 132/132/132
f 132/132/132 134/134/134 135/135/135
f 134/134/134 136/136/136 135/135/135
f 137/137/137 136/136/136 134/134/134
f 138/138/138 137/137/137 134/134/134
f 139/139/139 138/138/138 134/134/134
f 134/134/134 111/111/111 113/113/113
f 140/140/140 139/139/139 134/134/134
f 141/141/141 134/134/134 113/113/113
f 141/141/141 140/140/140 134/134/134
f 142/142/142 141/141/141 113/113/113
f 141/141/141 142/142/142 140/140/140
f 143/143/143 121/121/121 133/133/133
f 121/121/121 143/143/143 126/126/126
f 143/143/143 144/144/144 126/126/126
f 143/143/143 145/145/145 144/144/144
f 143/143/143 133/133/133 145/145/145
f 133/133/133 146/146/146 145/145/145
f 149/149/149 148/148/148 147/147/147
f 150/150/150 149/149/149 147/147/147
f 150/150/150 151/151/151 149/149/149
f 151/151/151 152/152/152 149/149/149
f 153/153/153 152/152/152 151/151/151
f 154/154/154 153/153/153 151/151/151
f 155/155/155 153/153/153 154/154/154
f 156/156/156 155/155/155 154/154/154
