g flame05_geo
v -0.03738859 -0.032750037 0.0100000035
v -0.03646406 -0.038141593 0.010000001
v -0.038728923 -0.038140167 -0.009999996
v -0.04323675 -0.007356246 -0.009999987
v -0.041785907 -0.005755327 0.010000012
v -0.025249233 0.019190026 -0.009999986
v -0.033836193 0.015247666 -0.009999986
v -0.0485128 -0.002355469 -0.009999986
v -0.04323675 -0.007356246 -0.009999987
v 0.029793223 -0.039089553 -0.010000016
v -0.038728923 -0.038140167 -0.009999996
v 0.03586729 -0.037557524 -0.010000016
v -0.018727284 0.023119204 -0.009999986
v 0.038572673 -0.032054033 -0.010000016
v -0.0090911295 0.025606139 -0.009999987
v 0.046188906 0.04144379 -0.009999991
v -0.041785907 -0.005755327 0.010000012
v -0.04323675 -0.007356246 -0.009999987
v -0.0485128 -0.002355469 -0.009999986
v -0.045873165 -0.0043968684 0.010000013
v -0.031734638 0.013741295 0.010000016
v -0.041785907 -0.005755327 0.010000012
v -0.045873165 -0.0043968684 0.010000013
v -0.023591708 0.01700802 0.010000016
v 0.03001852 -0.032068837 0.009999987
v 0.023376789 -0.033653185 0.009999989
v -0.03738859 -0.032750037 0.0100000035
v -0.03646406 -0.038141593 0.010000001
v 0.029793223 -0.039089553 0.009999986
v 0.03586729 -0.037557524 0.009999984
v 0.032790203 -0.026132468 0.009999989
v -0.01813715 0.020441974 0.010000014
v -0.008047962 0.021940347 0.010000013
v 0.038572673 -0.032054033 0.009999987
v 0.039579105 0.037164975 0.010000005
v 0.046199434 0.039089553 0.010000007
v 0.029793223 -0.039089553 0.009999986
v -0.038728923 -0.038140167 -0.009999996
v -0.03646406 -0.038141593 0.010000001
v 0.029793223 -0.039089553 -0.010000016
v 0.03586729 -0.037557524 0.009999984
v 0.03586729 -0.037557524 -0.010000016
v 0.038572673 -0.032054033 0.009999987
v 0.038572673 -0.032054033 -0.010000016
v 0.046199434 0.039089553 0.010000007
v 0.046188906 0.04144379 -0.009999991
v -0.033836193 0.015247666 -0.009999986
v -0.025249233 0.019190026 -0.009999986
v -0.023591708 0.01700802 0.010000016
v -0.031734638 0.013741295 0.010000016
v -0.045873165 -0.0043968684 0.010000013
v -0.0485128 -0.002355469 -0.009999986
v -0.025249233 0.019190026 -0.009999986
v -0.01813715 0.020441974 0.010000014
v -0.023591708 0.01700802 0.010000016
v -0.018727284 0.023119204 -0.009999986
v -0.008047962 0.021940347 0.010000013
v -0.0090911295 0.025606139 -0.009999987
v 0.039579105 0.037164975 0.010000005
v 0.046188906 0.04144379 -0.009999991
v 0.046199434 0.039089553 0.010000007
vt 0.6220703 0.050689697
vt 0.625 0.050689697
vt 0.6245117 0.040618896
vt 0.60839844 0.040618896
vt 0.60839844 0.050689697
vt 1.3466797 0.45629883
vt 1.3427734 0.45458984
vt 1.3369141 0.44726562
vt 1.3388672 0.4453125
vt 1.3691406 0.4321289
vt 1.3408203 0.4326172
vt 1.3720703 0.43286133
vt 1.3496094 0.45776367
vt 1.3730469 0.4350586
vt 1.3535156 0.45874023
vt 1.3759766 0.46533203
vt 0.60839844 0.050689697
vt 0.60839844 0.040618896
vt 0.60498047 0.040618896
vt 0.6064453 0.050689697
vt 0.34399414 0.45385742
vt 0.33984375 0.44580078
vt 0.33813477 0.4465332
vt 0.3474121 0.45532227
vt 0.36914062 0.4350586
vt 0.36645508 0.43432617
vt 0.34155273 0.43481445
vt 0.34204102 0.4326172
vt 0.36914062 0.4321289
vt 0.37158203 0.43286133
vt 0.37036133 0.4375
vt 0.34960938 0.4567871
vt 0.35375977 0.4572754
vt 0.37353516 0.4350586
vt 0.37353516 0.46362305
vt 0.37695312 0.46435547
vt 0.39819336 0.08868408
vt 0.36376953 0.08117676
vt 0.36499023 0.08868408
vt 0.39819336 0.08117676
vt 0.4013672 0.08868408
vt 0.4013672 0.08117676
vt 0.40454102 0.08868408
vt 0.40429688 0.08117676
vt 0.4404297 0.08868408
vt 0.44140625 0.08117676
vt 0.6567383 0.040618896
vt 0.65185547 0.040618896
vt 0.65185547 0.050689697
vt 0.65625 0.050689697
vt 0.66748047 0.050689697
vt 0.66748047 0.040618896
vt 0.65185547 0.040618896
vt 0.6484375 0.050689697
vt 0.65185547 0.050689697
vt 0.6484375 0.040618896
vt 0.6435547 0.050689697
vt 0.6435547 0.040618896
vt 0.61816406 0.050689697
vt 0.6147461 0.040618896
vt 0.6147461 0.050689697
vn -0.98339844 -0.15270996 0.096191406
vn -0.9794922 -0.16796875 0.11090088
vn -0.9838867 -0.15197754 0.095458984
vn -0.9838867 -0.15161133 0.09515381
vn -0.9838867 -0.15161133 0.09515381
vn -2.3841858E-07 2.3841858E-07 -1
vn -1.7881393E-07 0 -1
vn -1.7881393E-07 0 -1
vn -2.9802322E-07 2.3841858E-07 -1
vn -2.3841858E-07 2.3841858E-07 -1
vn -2.9802322E-07 2.9802322E-07 -1
vn -2.3841858E-07 2.3841858E-07 -1
vn -2.3841858E-07 2.9802322E-07 -1
vn -1.7881393E-07 2.9802322E-07 -1
vn -1.7881393E-07 3.5762787E-07 -1
vn -1.1920929E-07 3.5762787E-07 -1
vn -0.56103516 -0.8261719 0.04827881
vn -0.56103516 -0.8261719 0.04827881
vn -0.56103516 -0.8261719 0.04827881
vn -0.56103516 -0.8261719 0.04827881
vn 1.1920929E-07 -2.3841858E-07 1
vn 2.3841858E-07 -2.9802322E-07 1
vn 1.1920929E-07 -2.3841858E-07 1
vn 2.3841858E-07 -2.9802322E-07 1
vn 2.3841858E-07 -2.9802322E-07 1
vn 2.3841858E-07 -2.9802322E-07 1
vn 2.3841858E-07 -2.9802322E-07 1
vn -0.01361084 -0.9667969 0.2553711
vn 0.007858276 -0.9897461 0.14282227
vn 0.5986328 -0.7470703 0.28881836
vn 1.7881393E-07 -2.9802322E-07 1
vn 1.7881393E-07 -3.5762787E-07 1
vn 2.3841858E-07 -2.9802322E-07 1
vn 0.9746094 -0.12927246 0.18273926
vn 1.7881393E-07 -2.9802322E-07 1
vn 0.97509766 -0.10272217 0.19714355
vn 0.007858276 -0.9897461 0.14282227
vn -0.014076233 -1 0.00076150894
vn -0.01361084 -0.9667969 0.2553711
vn 0.0079422 -1 0.00069856644
vn 0.5986328 -0.7470703 0.28881836
vn 0.6254883 -0.78027344 0
vn 0.9746094 -0.12927246 0.18273926
vn 0.99121094 -0.1315918 -0.0059547424
vn 0.97509766 -0.10272217 0.19714355
vn 0.9946289 -0.10479736 -0.0064315796
vn -0.6826172 0.7167969 0.1427002
vn -0.39282227 0.9116211 0.12097168
vn -0.39282227 0.9116211 0.12097168
vn -0.67578125 0.72314453 0.14233398
vn -0.77001953 0.62109375 0.1463623
vn -0.77001953 0.62109375 0.1463623
vn -0.51904297 0.8442383 0.13171387
vn -0.33496094 0.9301758 0.15124512
vn -0.51904297 0.8442383 0.13171387
vn -0.3305664 0.9316406 0.15161133
vn -0.27172852 0.9506836 0.15039062
vn -0.27172852 0.9506836 0.15039062
vn -0.2854004 0.9472656 0.14685059
vn -0.28564453 0.94677734 0.14770508
vn -0.27734375 0.95410156 0.11248779
g flame05_geo_0
f 3/3/3 2/2/2 1/1/1
f 3/3/3 1/1/1 4/4/4
f 1/1/1 5/5/5 4/4/4
f 8/8/8 7/7/7 6/6/6
f 9/9/9 8/8/8 6/6/6
f 9/9/9 6/6/6 10/10/10
f 11/11/11 9/9/9 10/10/10
f 6/6/6 12/12/12 10/10/10
f 12/12/12 6/6/6 13/13/13
f 14/14/14 12/12/12 13/13/13
f 13/13/13 15/15/15 14/14/14
f 15/15/15 16/16/16 14/14/14
f 19/19/19 18/18/18 17/17/17
f 20/20/20 19/19/19 17/17/17
f 23/23/23 22/22/22 21/21/21
f 22/22/22 24/24/24 21/21/21
f 25/25/25 24/24/24 22/22/22
f 26/26/26 25/25/25 22/22/22
f 27/27/27 26/26/26 22/22/22
f 26/26/26 27/27/27 28/28/28
f 29/29/29 26/26/26 28/28/28
f 26/26/26 29/29/29 30/30/30
f 25/25/25 26/26/26 30/30/30
f 25/25/25 31/31/31 24/24/24
f 25/25/25 30/30/30 31/31/31
f 31/31/31 32/32/32 24/24/24
f 32/32/32 31/31/31 33/33/33
f 30/30/30 34/34/34 31/31/31
f 35/35/35 33/33/33 31/31/31
f 31/31/31 34/34/34 35/35/35
f 34/34/34 36/36/36 35/35/35
f 39/39/39 38/38/38 37/37/37
f 38/38/38 40/40/40 37/37/37
f 37/37/37 40/40/40 41/41/41
f 40/40/40 42/42/42 41/41/41
f 41/41/41 42/42/42 43/43/43
f 42/42/42 44/44/44 43/43/43
f 43/43/43 44/44/44 45/45/45
f 44/44/44 46/46/46 45/45/45
f 49/49/49 48/48/48 47/47/47
f 50/50/50 49/49/49 47/47/47
f 50/50/50 47/47/47 51/51/51
f 47/47/47 52/52/52 51/51/51
f 55/55/55 54/54/54 53/53/53
f 54/54/54 56/56/56 53/53/53
f 56/56/56 54/54/54 57/57/57
f 58/58/58 56/56/56 57/57/57
f 57/57/57 59/59/59 58/58/58
f 59/59/59 60/60/60 58/58/58
f 59/59/59 61/61/61 60/60/60
