g flame18_geo
v -0.0819462 -0.0075354385 0.009999957
v -0.08201457 -0.007552223 -0.010000041
v -0.08265431 -0.0029040144 -0.010000043
v -0.08256048 -0.0030143356 0.009999963
v -0.08193845 0.008291664 0.009999975
v -0.08224666 0.008279304 -0.010000024
v -0.08369352 0.019331016 0.009999993
v -0.08338905 0.019362602 -0.010000004
v -0.08358792 0.030359153 0.010000017
v -0.08401486 0.030207558 -0.009999983
v -0.10043346 0.05118038 0.010000018
v -0.1039641 0.05478092 -0.009999983
v -0.103451304 0.054905508 0.010000016
v 0.095399976 -0.052412756 0.009999952
v 0.1038905 -0.06175205 0.009999952
v 0.103621766 -0.061456528 -0.010000045
v 0.095399976 -0.052412756 -0.010000045
v 0.08237764 -0.042623747 -0.010000044
v 0.08204647 -0.0423748 0.009999954
v 0.068742916 -0.032374382 -0.010000041
v 0.068742916 -0.032374382 0.009999957
v 0.039486 -0.020037422 -0.010000045
v 0.039486 -0.020037422 0.009999952
v 0.009229319 -0.0107036205 -0.010000045
v 0.009229319 -0.0107036205 0.009999952
v -0.019926198 -0.007220039 -0.010000045
v -0.019926198 -0.007220039 0.009999952
v -0.04782261 -0.0041197585 -0.010000045
v -0.04782261 -0.0041197585 0.009999952
v -0.07697788 -0.006315956 -0.010000041
v -0.07697788 -0.006315956 0.009999957
v -0.08201457 -0.007552223 -0.010000041
v -0.0819462 -0.0075354385 0.009999957
v 0.103621766 -0.061456528 -0.010000045
v 0.1038905 -0.06175205 0.009999952
v 0.10369779 -0.05528927 0.009999948
v 0.1039641 -0.055254553 -0.010000057
v 0.102584444 -0.053380545 0.009999949
v 0.10215062 -0.052302778 -0.009950881
v 0.101604566 -0.048321683 0.010085587
v 0.10094101 -0.047598038 -0.00993382
v 0.099096 -0.043673933 -0.009971373
v 0.09912099 -0.044080466 0.009999958
v 0.09742975 -0.037490655 -0.010000021
v 0.0971232 -0.037612114 0.009999967
v 0.095313445 -0.031101264 -0.010000014
v 0.094349265 -0.0312228 0.0099999765
v 0.095000274 -0.022570305 0.009999991
v 0.096106 -0.022052918 -0.009918849
v 0.09431643 -0.013901863 -0.00999999
v 0.093780346 -0.0138817215 0.010000004
v 0.09619816 -0.0054034805 0.01000002
v 0.09670088 -0.0054637524 -0.009999976
v 0.09621601 0.003098564 0.010000034
v 0.09514421 0.0022365188 -0.00998144
v 0.09657553 0.012468071 -0.010078854
v 0.098116234 0.010662498 0.010000047
v 0.10096374 0.02199703 0.01000006
v 0.10126428 0.02678707 -0.0099999355
v 0.1020702 0.026401328 0.010000064
v 0.09657553 0.012468071 -0.010078854
v 0.10126428 0.02678707 -0.0099999355
v 0.070884004 0.041330907 -0.010000007
v 0.039486 -0.020037422 -0.010000045
v 0.031100951 0.050798528 -0.010000073
v 0.009229319 -0.0107036205 -0.010000045
v -0.005231774 0.057880897 -0.009999988
v -0.019926198 -0.007220039 -0.010000045
v 0.068742916 -0.032374382 -0.010000041
v 0.09514421 0.0022365188 -0.00998144
v 0.09670088 -0.0054637524 -0.009999976
v -0.04544063 0.06175205 -0.009999922
v -0.04782261 -0.0041197585 -0.010000045
v 0.08237764 -0.042623747 -0.010000044
v -0.07697788 -0.006315956 -0.010000041
v 0.09431643 -0.013901863 -0.00999999
v 0.096106 -0.022052918 -0.009918849
v 0.095313445 -0.031101264 -0.010000014
v 0.09742975 -0.037490655 -0.010000021
v 0.099096 -0.043673933 -0.009971373
v 0.095399976 -0.052412756 -0.010000045
v 0.10094101 -0.047598038 -0.00993382
v 0.10215062 -0.052302778 -0.009950881
v 0.103621766 -0.061456528 -0.010000045
v 0.1039641 -0.055254553 -0.010000057
v -0.08372308 0.059701573 -0.009999922
v -0.08401486 0.030207558 -0.009999983
v -0.1039641 0.05478092 -0.009999983
v -0.08338905 0.019362602 -0.010000004
v -0.08224666 0.008279304 -0.010000024
v -0.08265431 -0.0029040144 -0.010000043
v -0.08201457 -0.007552223 -0.010000041
v -0.103451304 0.054905508 0.010000016
v -0.1039641 0.05478092 -0.009999983
v -0.08372308 0.059701573 -0.009999922
v -0.08372308 0.059701573 0.010000076
v -0.04544063 0.06175205 -0.009999922
v -0.04544063 0.06175205 0.010000076
v -0.005231774 0.057880897 -0.009999988
v -0.005231774 0.057880897 0.010000009
v 0.031100951 0.050798528 -0.010000073
v 0.031100951 0.050798528 0.009999923
v 0.070884004 0.041330907 -0.010000007
v 0.070884004 0.041330907 0.00999999
v 0.1020702 0.026401328 0.010000064
v 0.10126428 0.02678707 -0.0099999355
v -0.10043346 0.05118038 0.010000018
v -0.103451304 0.054905508 0.010000016
v -0.08372308 0.059701573 0.010000076
v -0.08327876 0.055352896 0.010000069
v -0.08358792 0.030359153 0.010000017
v -0.04544063 0.06175205 0.010000076
v -0.045597535 0.057412907 0.010000068
v -0.005231774 0.057880897 0.010000009
v -0.08074727 0.030576361 0.010000024
v -0.08369352 0.019331016 0.009999993
v -0.07967813 0.020112343 0.010000004
v -0.08193845 0.008291664 0.009999975
v -0.07842887 0.007885475 0.009999982
v -0.08256048 -0.0030143356 0.009999963
v -0.047662176 0.0003167343 0.009999961
v -0.077432185 -0.001869545 0.009999964
v -0.0819462 -0.0075354385 0.009999957
v -0.07697788 -0.006315956 0.009999957
v -0.04782261 -0.0041197585 0.009999952
v -0.01893651 -0.0028353499 0.009999956
v -0.019926198 -0.007220039 0.009999952
v -0.0061997534 0.053592566 0.010000005
v 0.010702402 -0.0065614698 0.00999995
v 0.009229319 -0.0107036205 0.009999952
v 0.039486 -0.020037422 0.009999952
v 0.029660203 0.04674732 0.009999924
v 0.031100951 0.050798528 0.009999923
v 0.041600693 -0.015904274 0.009999955
v 0.07133215 -0.028580742 0.009999964
v 0.068742916 -0.032374382 0.009999957
v 0.08407145 -0.037982482 0.009999956
v 0.08204647 -0.0423748 0.009999954
v 0.06881574 0.037288476 0.009999988
v 0.070884004 0.041330907 0.00999999
v 0.1020702 0.026401328 0.010000064
v 0.10096374 0.02199703 0.01000006
v 0.098116234 0.010662498 0.010000047
v 0.09621601 0.003098564 0.010000034
v 0.09619816 -0.0054034805 0.01000002
v 0.093780346 -0.0138817215 0.010000004
v 0.095000274 -0.022570305 0.009999991
v 0.094349265 -0.0312228 0.0099999765
v 0.0971232 -0.037612114 0.009999967
v 0.09842571 -0.04882183 0.00999995
v 0.09912099 -0.044080466 0.009999958
v 0.101604566 -0.048321683 0.010085587
v 0.102584444 -0.053380545 0.009999949
v 0.095399976 -0.052412756 0.009999952
v 0.10369779 -0.05528927 0.009999948
v 0.1038905 -0.06175205 0.009999952
vt 0.67285156 0.050689697
vt 0.67285156 0.040618896
vt 0.67041016 0.040618896
vt 0.67041016 0.050689697
vt 0.66503906 0.050689697
vt 0.66503906 0.040618896
vt 0.6591797 0.050689697
vt 0.6591797 0.040618896
vt 0.6538086 0.050689697
vt 0.6538086 0.040618896
vt 0.640625 0.050689697
vt 0.6376953 0.040618896
vt 0.6381836 0.050689697
vt 0.13977051 0.06793213
vt 0.13378906 0.06793213
vt 0.13391113 0.07507324
vt 0.13977051 0.07507324
vt 0.14758301 0.07507324
vt 0.14770508 0.06793213
vt 0.15563965 0.07507324
vt 0.15563965 0.06793213
vt 0.17077637 0.07507324
vt 0.17077637 0.06793213
vt 0.18591309 0.07507324
vt 0.18591309 0.06793213
vt 0.19995117 0.07507324
vt 0.19995117 0.06793213
vt 0.2133789 0.07507324
vt 0.2133789 0.06793213
vt 0.22729492 0.07507324
vt 0.22729492 0.06793213
vt 0.22973633 0.07507324
vt 0.22973633 0.06793213
vt 0.6113281 0.040618896
vt 0.6113281 0.050689697
vt 0.6142578 0.050689697
vt 0.6142578 0.040618896
vt 0.61572266 0.050689697
vt 0.61621094 0.040618896
vt 0.61816406 0.050689697
vt 0.61865234 0.040618896
vt 0.62109375 0.040618896
vt 0.62060547 0.050689697
vt 0.62402344 0.040618896
vt 0.62402344 0.050689697
vt 0.6274414 0.040618896
vt 0.6274414 0.050689697
vt 0.63183594 0.050689697
vt 0.63183594 0.040618896
vt 0.63623047 0.040618896
vt 0.63623047 0.050689697
vt 0.640625 0.050689697
vt 0.640625 0.040618896
vt 0.64501953 0.050689697
vt 0.64453125 0.040618896
vt 0.64990234 0.040618896
vt 0.6489258 0.050689697
vt 0.65478516 0.050689697
vt 0.65722656 0.040618896
vt 0.65722656 0.050689697
vt 1.2666016 0.7128906
vt 1.2685547 0.71875
vt 1.2558594 0.7246094
vt 1.2431641 0.69921875
vt 1.2402344 0.7285156
vt 1.2304688 0.703125
vt 1.2246094 0.7314453
vt 1.21875 0.70458984
vt 1.2548828 0.69433594
vt 1.265625 0.7084961
vt 1.2666016 0.7055664
vt 1.2089844 0.73291016
vt 1.2080078 0.7060547
vt 1.2607422 0.6899414
vt 1.1953125 0.7050781
vt 1.265625 0.70214844
vt 1.2666016 0.69873047
vt 1.265625 0.6948242
vt 1.2666016 0.6923828
vt 1.2675781 0.6894531
vt 1.265625 0.68603516
vt 1.2685547 0.6879883
vt 1.2685547 0.68603516
vt 1.2695312 0.6821289
vt 1.2695312 0.6850586
vt 1.1933594 0.7324219
vt 1.1923828 0.72021484
vt 1.1845703 0.73046875
vt 1.1933594 0.7158203
vt 1.1933594 0.7109375
vt 1.1933594 0.70654297
vt 1.1933594 0.70458984
vt 0.29760742 0.10089111
vt 0.29785156 0.09338379
vt 0.28759766 0.09338379
vt 0.28759766 0.10089111
vt 0.26831055 0.09338379
vt 0.26831055 0.10089111
vt 0.24804688 0.09338379
vt 0.24804688 0.10089111
vt 0.22949219 0.09338379
vt 0.22949219 0.10089111
vt 0.20898438 0.09338379
vt 0.20898438 0.10089111
vt 0.19177246 0.10089111
vt 0.19213867 0.09338379
vt 0.18603516 0.7285156
vt 0.18481445 0.73046875
vt 0.1928711 0.7324219
vt 0.19311523 0.73046875
vt 0.19299316 0.72021484
vt 0.2084961 0.73291016
vt 0.2084961 0.7314453
vt 0.22497559 0.7314453
vt 0.1940918 0.72021484
vt 0.1928711 0.7158203
vt 0.19458008 0.7158203
vt 0.19360352 0.7109375
vt 0.19506836 0.7109375
vt 0.19335938 0.70654297
vt 0.2076416 0.7080078
vt 0.19543457 0.70703125
vt 0.19360352 0.70458984
vt 0.19567871 0.7050781
vt 0.20751953 0.7060547
vt 0.21936035 0.70654297
vt 0.21899414 0.70458984
vt 0.2244873 0.72998047
vt 0.23144531 0.7050781
vt 0.23083496 0.703125
vt 0.24316406 0.69921875
vt 0.23913574 0.7270508
vt 0.2397461 0.7285156
vt 0.24401855 0.7011719
vt 0.25610352 0.6958008
vt 0.25512695 0.69433594
vt 0.2614746 0.69189453
vt 0.26049805 0.6899414
vt 0.25512695 0.72314453
vt 0.25610352 0.7246094
vt 0.26879883 0.71875
vt 0.26831055 0.7167969
vt 0.26708984 0.71191406
vt 0.26635742 0.7089844
vt 0.26635742 0.7055664
vt 0.26538086 0.70214844
vt 0.26586914 0.6982422
vt 0.265625 0.6948242
vt 0.26660156 0.6923828
vt 0.26733398 0.6875
vt 0.26757812 0.6894531
vt 0.2685547 0.6875
vt 0.26904297 0.6855469
vt 0.26611328 0.68603516
vt 0.2692871 0.6850586
vt 0.26953125 0.6821289
vn -0.99072266 -0.13549805 0.0037002563
vn -0.99072266 -0.13549805 0.0037002563
vn -1 -0.0068130493 0.008308411
vn -1 -0.007358551 0.008293152
vn -0.99902344 -0.041809082 0.0051345825
vn -0.99902344 -0.041809082 0.0051345825
vn -0.9970703 -0.07745361 0.0015678406
vn -0.9970703 -0.07745361 0.0015687943
vn -0.8745117 -0.48510742 0.018035889
vn -0.8745117 -0.48510742 0.018035889
vn -0.77685547 -0.62939453 0.022628784
vn -0.77685547 -0.62939453 0.022583008
vn -0.77685547 -0.62939453 0.023834229
vn -0.6533203 -0.7363281 0.17602539
vn -0.7392578 -0.671875 0.048706055
vn -0.7397461 -0.67285156 0
vn -0.6635742 -0.7480469 1.3113022E-06
vn -0.6010742 -0.7993164 4.172325E-07
vn -0.58447266 -0.77783203 0.23071289
vn -0.46533203 -0.8852539 -5.364418E-07
vn -0.45117188 -0.85839844 0.24389648
vn -0.34204102 -0.9394531 0
vn -0.3330078 -0.9145508 0.22937012
vn -0.2109375 -0.97753906 0
vn -0.2052002 -0.9511719 0.23022461
vn -0.11462402 -0.99316406 0
vn -0.11187744 -0.9692383 0.21826172
vn -0.015838623 -1 0
vn -0.015411377 -0.97216797 0.23278809
vn 0.099731445 -0.9951172 0
vn 0.09716797 -0.9692383 0.22521973
vn 0.23840332 -0.9711914 0
vn 0.23327637 -0.9501953 0.20568848
vn 1 -0.011810303 -0.00015830994
vn 1 -0.011810303 -0.00015830994
vn 0.98779297 0.15661621 0.0033340454
vn 0.98779297 0.1550293 0.0033016205
vn 0.9423828 0.3347168 -0.0065841675
vn 0.9453125 0.32592773 -0.007381439
vn 0.94091797 0.33813477 -0.010055542
vn 0.93847656 0.34545898 -0.009605408
vn 0.93408203 0.3569336 0.0054473877
vn 0.93310547 0.36010742 0.005241394
vn 0.9477539 0.31884766 0.021392822
vn 0.9477539 0.31884766 0.021362305
vn 0.9926758 0.11291504 0.043304443
vn 0.9926758 0.11206055 0.04333496
vn 0.9980469 0.04324341 0.04699707
vn 0.9975586 0.047058105 0.046875
vn 0.9980469 -0.053833008 0.034820557
vn 0.9980469 -0.053009033 0.034851074
vn 0.9951172 -0.09814453 0.005508423
vn 0.9951172 -0.09844971 0.005542755
vn 0.9975586 -0.057281494 -0.045013428
vn 0.9980469 -0.049591064 -0.0435791
vn 0.9667969 -0.24414062 -0.07305908
vn 0.9682617 -0.23999023 -0.07269287
vn 0.9580078 -0.27661133 -0.072265625
vn 0.95703125 -0.27978516 -0.07495117
vn 0.96875 -0.2434082 -0.04373169
vn -0.00097227097 0.0011720657 -1
vn -0.0012350082 0.0016317368 -1
vn -0.0005273819 0.0006971359 -1
vn -0.00026011467 6.121397E-05 -1
vn -0 0 -1
vn -1.7881393E-07 1.7881393E-07 -1
vn -1.013279E-06 1.013279E-06 -1
vn -1.013279E-06 1.0728836E-06 -1
vn -0.0003633499 -0.0010681152 -1
vn 0.011192322 -0.0079956055 -1
vn -0.0011672974 0.0012149811 -1
vn -4.7683716E-07 1.66893E-06 -1
vn -4.7683716E-07 1.66893E-06 -1
vn 0.00050640106 1.92523E-05 -1
vn -1.1920929E-07 1.847744E-06 -1
vn 0.0006580353 -0.00027179718 -1
vn 0.012397766 -0.0043258667 -1
vn -0.0058403015 0.0065574646 -1
vn 0.0011758804 -0.00015830994 -1
vn 0.0022029877 -0.00033164024 -1
vn 0.002418518 0.0008406639 -1
vn 0.011619568 0.00037813187 -1
vn 0.003019333 0.005630493 -1
vn 0.0018806458 0.005672455 -1
vn 0.0018806458 0.005672455 -1
vn 1.1920929E-07 1.847744E-06 -1
vn 2.2649765E-06 2.0861626E-06 -1
vn 2.6226044E-06 2.0861626E-06 -1
vn 2.1457672E-06 2.0861626E-06 -1
vn 3.9339066E-06 1.9073486E-06 -1
vn 6.556511E-07 1.3709068E-06 -1
vn -0 -4.7683716E-07 -1
vn -0.23388672 0.96191406 0.13977051
vn -0.23620605 0.9716797 2.0861626E-06
vn -0.11773682 0.99316406 7.1525574E-07
vn -0.115478516 0.9736328 0.1965332
vn 0.02319336 0.9995117 0
vn 0.022720337 0.9790039 0.20153809
vn 0.14160156 0.9897461 0
vn 0.13867188 0.9692383 0.20373535
vn 0.21252441 0.9770508 0
vn 0.20776367 0.9555664 0.20861816
vn 0.3244629 0.9458008 0
vn 0.31762695 0.92626953 0.20336914
vn 0.4169922 0.87109375 0.2590332
vn 0.43188477 0.90185547 0
vn -2.4437904E-06 -1.9073486E-06 1
vn -0.23388672 0.96191406 0.13977051
vn -0.115478516 0.9736328 0.1965332
vn -7.748604E-07 -1.847744E-06 1
vn -2.3841858E-06 -2.0861626E-06 1
vn 0.022720337 0.9790039 0.20153809
vn 6.556511E-07 -1.6093254E-06 1
vn 0.13867188 0.9692383 0.20373535
vn -1.7881393E-07 -1.9073486E-06 1
vn -2.3841858E-06 -2.0861626E-06 1
vn -0 -1.847744E-06 1
vn -1.7285347E-06 -1.7285347E-06 1
vn -1.1920929E-07 -1.7881393E-06 1
vn -4.7683716E-07 -1.4305115E-06 1
vn 5.9604645E-07 -1.6093254E-06 1
vn 1.1920929E-07 -1.7285347E-06 1
vn 0.23327637 -0.9501953 0.20568848
vn 0.09716797 -0.9692383 0.22521973
vn -0.015411377 -0.97216797 0.23278809
vn 9.536743E-07 -1.0728836E-06 1
vn -0.11187744 -0.9692383 0.21826172
vn 1.0728836E-06 -1.013279E-06 1
vn 1.7881393E-07 -1.1920929E-07 1
vn -0.2052002 -0.9511719 0.23022461
vn -0.3330078 -0.9145508 0.22937012
vn -0 0 1
vn 0.20776367 0.9555664 0.20861816
vn -1.013279E-06 0 1
vn -8.34465E-07 -1.4305115E-06 1
vn -0.45117188 -0.85839844 0.24389648
vn -4.7683716E-07 -1.3113022E-06 1
vn -0.58447266 -0.77783203 0.23071289
vn -1.3709068E-06 2.3841858E-07 1
vn 0.31762695 0.92626953 0.20336914
vn 0.4169922 0.87109375 0.2590332
vn -1.9073486E-06 1.7881393E-07 1
vn -1.7881393E-06 0 1
vn -7.1525574E-07 -1.66893E-06 1
vn -6.556511E-07 -1.66893E-06 1
vn -6.556511E-07 -1.7285347E-06 1
vn -8.940697E-07 -1.66893E-06 1
vn -8.34465E-07 -1.66893E-06 1
vn -7.748604E-07 -1.66893E-06 1
vn -0.0018157959 -0.00055742264 1
vn -0.00061941147 8.904934E-05 1
vn -0.025146484 -0.011314392 0.9995117
vn -0.0037345886 -0.0034065247 1
vn -0.6533203 -0.7363281 0.17602539
vn 8.34465E-07 6.556511E-07 1
vn -0.7392578 -0.671875 0.048706055
g flame18_geo_0
f 3/3/3 2/2/2 1/1/1
f 4/4/4 3/3/3 1/1/1
f 3/3/3 4/4/4 5/5/5
f 6/6/6 3/3/3 5/5/5
f 5/5/5 7/7/7 6/6/6
f 7/7/7 8/8/8 6/6/6
f 7/7/7 9/9/9 8/8/8
f 9/9/9 10/10/10 8/8/8
f 10/10/10 9/9/9 11/11/11
f 12/12/12 10/10/10 11/11/11
f 12/12/12 11/11/11 13/13/13
f 16/16/16 15/15/15 14/14/14
f 17/17/17 16/16/16 14/14/14
f 18/18/18 17/17/17 14/14/14
f 19/19/19 18/18/18 14/14/14
f 20/20/20 18/18/18 19/19/19
f 21/21/21 20/20/20 19/19/19
f 22/22/22 20/20/20 21/21/21
f 23/23/23 22/22/22 21/21/21
f 24/24/24 22/22/22 23/23/23
f 25/25/25 24/24/24 23/23/23
f 26/26/26 24/24/24 25/25/25
f 27/27/27 26/26/26 25/25/25
f 28/28/28 26/26/26 27/27/27
f 29/29/29 28/28/28 27/27/27
f 30/30/30 28/28/28 29/29/29
f 31/31/31 30/30/30 29/29/29
f 32/32/32 30/30/30 31/31/31
f 33/33/33 32/32/32 31/31/31
f 36/36/36 35/35/35 34/34/34
f 37/37/37 36/36/36 34/34/34
f 36/36/36 37/37/37 38/38/38
f 37/37/37 39/39/39 38/38/38
f 40/40/40 38/38/38 39/39/39
f 41/41/41 40/40/40 39/39/39
f 41/41/41 42/42/42 40/40/40
f 42/42/42 43/43/43 40/40/40
f 42/42/42 44/44/44 43/43/43
f 44/44/44 45/45/45 43/43/43
f 44/44/44 46/46/46 45/45/45
f 46/46/46 47/47/47 45/45/45
f 48/48/48 47/47/47 46/46/46
f 49/49/49 48/48/48 46/46/46
f 49/49/49 50/50/50 48/48/48
f 50/50/50 51/51/51 48/48/48
f 52/52/52 51/51/51 50/50/50
f 53/53/53 52/52/52 50/50/50
f 54/54/54 52/52/52 53/53/53
f 55/55/55 54/54/54 53/53/53
f 54/54/54 55/55/55 56/56/56
f 57/57/57 54/54/54 56/56/56
f 57/57/57 56/56/56 58/58/58
f 56/56/56 59/59/59 58/58/58
f 59/59/59 60/60/60 58/58/58
f 63/63/63 62/62/62 61/61/61
f 64/64/64 63/63/63 61/61/61
f 65/65/65 63/63/63 64/64/64
f 66/66/66 65/65/65 64/64/64
f 67/67/67 65/65/65 66/66/66
f 68/68/68 67/67/67 66/66/66
f 69/69/69 64/64/64 61/61/61
f 69/69/69 61/61/61 70/70/70
f 69/69/69 70/70/70 71/71/71
f 72/72/72 67/67/67 68/68/68
f 73/73/73 72/72/72 68/68/68
f 69/69/69 71/71/71 74/74/74
f 72/72/72 73/73/73 75/75/75
f 71/71/71 76/76/76 74/74/74
f 76/76/76 77/77/77 74/74/74
f 77/77/77 78/78/78 74/74/74
f 78/78/78 79/79/79 74/74/74
f 79/79/79 80/80/80 74/74/74
f 80/80/80 81/81/81 74/74/74
f 80/80/80 82/82/82 81/81/81
f 81/81/81 82/82/82 83/83/83
f 84/84/84 81/81/81 83/83/83
f 85/85/85 84/84/84 83/83/83
f 86/86/86 72/72/72 75/75/75
f 87/87/87 86/86/86 75/75/75
f 87/87/87 88/88/88 86/86/86
f 89/89/89 87/87/87 75/75/75
f 90/90/90 89/89/89 75/75/75
f 91/91/91 90/90/90 75/75/75
f 92/92/92 91/91/91 75/75/75
f 95/95/95 94/94/94 93/93/93
f 96/96/96 95/95/95 93/93/93
f 97/97/97 95/95/95 96/96/96
f 98/98/98 97/97/97 96/96/96
f 99/99/99 97/97/97 98/98/98
f 100/100/100 99/99/99 98/98/98
f 101/101/101 99/99/99 100/100/100
f 102/102/102 101/101/101 100/100/100
f 103/103/103 101/101/101 102/102/102
f 104/104/104 103/103/103 102/102/102
f 104/104/104 105/105/105 103/103/103
f 105/105/105 106/106/106 103/103/103
f 109/109/109 108/108/108 107/107/107
f 110/110/110 109/109/109 107/107/107
f 110/110/110 107/107/107 111/111/111
f 112/112/112 109/109/109 110/110/110
f 113/113/113 112/112/112 110/110/110
f 114/114/114 112/112/112 113/113/113
f 115/115/115 110/110/110 111/111/111
f 113/113/113 110/110/110 115/115/115
f 115/115/115 111/111/111 116/116/116
f 117/117/117 115/115/115 116/116/116
f 113/113/113 115/115/115 117/117/117
f 117/117/117 116/116/116 118/118/118
f 119/119/119 117/117/117 118/118/118
f 119/119/119 118/118/118 120/120/120
f 121/121/121 117/117/117 119/119/119
f 121/121/121 113/113/113 117/117/117
f 122/122/122 119/119/119 120/120/120
f 121/121/121 119/119/119 122/122/122
f 120/120/120 123/123/123 122/122/122
f 123/123/123 124/124/124 122/122/122
f 121/121/121 122/122/122 124/124/124
f 125/125/125 121/121/121 124/124/124
f 126/126/126 121/121/121 125/125/125
f 121/121/121 126/126/126 113/113/113
f 127/127/127 126/126/126 125/125/125
f 126/126/126 128/128/128 113/113/113
f 128/128/128 114/114/114 113/113/113
f 126/126/126 127/127/127 129/129/129
f 126/126/126 129/129/129 128/128/128
f 127/127/127 130/130/130 129/129/129
f 129/129/129 130/130/130 131/131/131
f 128/128/128 132/132/132 114/114/114
f 129/129/129 132/132/132 128/128/128
f 132/132/132 133/133/133 114/114/114
f 134/134/134 129/129/129 131/131/131
f 129/129/129 134/134/134 132/132/132
f 134/134/134 131/131/131 135/135/135
f 131/131/131 136/136/136 135/135/135
f 135/135/135 136/136/136 137/137/137
f 136/136/136 138/138/138 137/137/137
f 133/133/133 132/132/132 139/139/139
f 134/134/134 139/139/139 132/132/132
f 140/140/140 133/133/133 139/139/139
f 140/140/140 139/139/139 141/141/141
f 139/139/139 142/142/142 141/141/141
f 143/143/143 142/142/142 139/139/139
f 134/134/134 143/143/143 139/139/139
f 134/134/134 135/135/135 143/143/143
f 144/144/144 143/143/143 135/135/135
f 145/145/145 144/144/144 135/135/135
f 146/146/146 145/145/145 135/135/135
f 137/137/137 146/146/146 135/135/135
f 147/147/147 146/146/146 137/137/137
f 148/148/148 147/147/147 137/137/137
f 148/148/148 137/137/137 149/149/149
f 137/137/137 150/150/150 149/149/149
f 150/150/150 151/151/151 149/149/149
f 150/150/150 137/137/137 138/138/138
f 150/150/150 152/152/152 151/151/151
f 153/153/153 152/152/152 150/150/150
f 154/154/154 150/150/150 138/138/138
f 153/153/153 150/150/150 154/154/154
f 155/155/155 153/153/153 154/154/154
f 155/155/155 154/154/154 156/156/156
