g flame11_geo
v 0.031586263 0.044167623 -0.010000025
v 0.037461434 0.039385404 -0.010000027
v 0.037398223 0.040027454 0.00999997
v 0.03172737 0.042153843 0.009999971
v 0.023319244 0.04365054 0.009999977
v 0.023452912 0.04643729 -0.010000013
v 0.014117126 0.044051085 0.009999992
v 0.013790435 0.045407016 -0.009999999
v 0.0070790863 0.051647786 -0.009999999
v 0.0069429395 0.049485616 0.009999998
v 0.004191513 0.0593294 -0.010000001
v 0.00436924 0.05751273 0.009999994
v -0.002513542 0.06337329 -0.0100000035
v -0.003089676 0.060708456 0.009999991
v -0.008014335 0.06752005 -0.010000008
v -0.008027115 0.06550242 0.009999989
v -0.037896995 0.06746135 0.009999979
v -0.043164823 0.06913066 -0.0100000175
v -0.043162458 0.06780665 0.009999981
v 0.043162115 -0.018530415 0.009999971
v 0.03172737 0.042153843 0.009999971
v 0.037398223 0.040027454 0.00999997
v 0.037983283 -0.020725641 0.009999973
v 0.023319244 0.04365054 0.009999977
v 0.022894897 -0.030254869 0.009999989
v 0.011656532 -0.035911206 0.010000007
v 0.014117126 0.044051085 0.009999992
v 0.0069429395 0.049485616 0.009999998
v -0.003089676 0.060708456 0.009999991
v 0.00436924 0.05751273 0.009999994
v -0.008027115 0.06550242 0.009999989
v -0.026604613 -0.064275675 0.010000024
v -0.037896995 0.06746135 0.009999979
v -0.043162458 0.06780665 0.009999981
v -0.03158268 -0.06783471 0.010000029
v 0.0431649 -0.018558472 -0.010000025
v 0.043162115 -0.018530415 0.009999971
v 0.037398223 0.040027454 0.00999997
v 0.037461434 0.039385404 -0.010000027
v -0.043164823 0.06913066 -0.0100000175
v -0.043162458 0.06780665 0.009999981
v -0.03158268 -0.06783471 0.010000029
v -0.031619146 -0.07016055 -0.00999997
v -0.008014335 0.06752005 -0.010000008
v -0.043164823 0.06913066 -0.0100000175
v -0.031619146 -0.07016055 -0.00999997
v -0.002513542 0.06337329 -0.0100000035
v 0.0117527 -0.03881545 -0.009999987
v 0.0070790863 0.051647786 -0.009999999
v 0.004191513 0.0593294 -0.010000001
v 0.013790435 0.045407016 -0.009999999
v 0.023452912 0.04643729 -0.010000013
v 0.022835998 -0.0326344 -0.010000005
v 0.031586263 0.044167623 -0.010000025
v 0.03313358 -0.022831239 -0.01000002
v 0.037461434 0.039385404 -0.010000027
v 0.0431649 -0.018558472 -0.010000025
v 0.03313358 -0.022831239 -0.01000002
v 0.043162115 -0.018530415 0.009999971
v 0.0431649 -0.018558472 -0.010000025
v 0.037983283 -0.020725641 0.009999973
v 0.022835998 -0.0326344 -0.010000005
v 0.022894897 -0.030254869 0.009999989
v 0.0117527 -0.03881545 -0.009999987
v 0.011656532 -0.035911206 0.010000007
v -0.031619146 -0.07016055 -0.00999997
v -0.026604613 -0.064275675 0.010000024
v -0.03158268 -0.06783471 0.010000029
vt 0.6201172 0.040618896
vt 0.61621094 0.040618896
vt 0.6166992 0.050689697
vt 0.6196289 0.050689697
vt 0.62402344 0.050689697
vt 0.62402344 0.040618896
vt 0.62890625 0.050689697
vt 0.62890625 0.040618896
vt 0.63378906 0.040618896
vt 0.6333008 0.050689697
vt 0.6376953 0.040618896
vt 0.63720703 0.050689697
vt 0.64160156 0.040618896
vt 0.64160156 0.050689697
vt 0.64501953 0.040618896
vt 0.64501953 0.050689697
vt 0.66015625 0.050689697
vt 0.66259766 0.040618896
vt 0.66259766 0.050689697
vt 0.07312012 0.5541992
vt 0.06842041 0.57910156
vt 0.070739746 0.5786133
vt 0.07098389 0.55322266
vt 0.064941406 0.5800781
vt 0.0647583 0.5493164
vt 0.060180664 0.546875
vt 0.061187744 0.5800781
vt 0.05822754 0.58251953
vt 0.05404663 0.58691406
vt 0.057159424 0.5854492
vt 0.051971436 0.5888672
vt 0.04425049 0.53564453
vt 0.03945923 0.58984375
vt 0.03729248 0.58984375
vt 0.042236328 0.5341797
vt 0.5048828 0.07507324
vt 0.5048828 0.06793213
vt 0.47680664 0.06793213
vt 0.47729492 0.07507324
vt 0.6035156 0.09338379
vt 0.6035156 0.10089111
vt 0.671875 0.10089111
vt 0.671875 0.09338379
vt 1.0517578 0.5888672
vt 1.0371094 0.58984375
vt 1.0419922 0.5341797
vt 1.0546875 0.58740234
vt 1.0605469 0.546875
vt 1.0585938 0.58251953
vt 1.0566406 0.5854492
vt 1.0615234 0.57958984
vt 1.0654297 0.5800781
vt 1.0644531 0.5493164
vt 1.0683594 0.57910156
vt 1.0693359 0.5522461
vt 1.0703125 0.578125
vt 1.0732422 0.5541992
vt 0.6616211 0.040618896
vt 0.6669922 0.050689697
vt 0.6669922 0.040618896
vt 0.6640625 0.050689697
vt 0.65478516 0.040618896
vt 0.65527344 0.050689697
vt 0.6484375 0.040618896
vt 0.6489258 0.050689697
vt 0.62158203 0.040618896
vt 0.6254883 0.050689697
vt 0.6220703 0.050689697
vn 0.34936523 0.93359375 0.079956055
vn 0.5131836 0.85791016 0.028411865
vn 0.5131836 0.85791016 0.028411865
vn 0.35717773 0.93066406 0.07763672
vn 0.088378906 0.9897461 0.11022949
vn 0.08734131 0.9902344 0.11016846
vn 0.30981445 0.94628906 0.0904541
vn 0.32592773 0.94091797 0.089538574
vn 0.82421875 0.5644531 0.04953003
vn 0.8076172 0.5878906 0.05126953
vn 0.74609375 0.6621094 0.07397461
vn 0.76904297 0.6357422 0.07055664
vn 0.5498047 0.82910156 0.10168457
vn 0.54345703 0.8330078 0.101867676
vn 0.15917969 0.98339844 0.089416504
vn 0.16723633 0.9819336 0.08972168
vn 0.0552063 0.9951172 0.083496094
vn 0.054779053 0.9951172 0.084228516
vn 0.06530762 0.99560547 0.06591797
vn 0.9433594 0.09289551 0.31811523
vn 7.748604E-07 1.1920929E-07 1
vn 0.93310547 0.09185791 0.3479004
vn 7.748604E-07 1.1920929E-07 1
vn 1.2516975E-06 1.1920929E-07 1
vn 1.3709068E-06 1.1920929E-07 1
vn 3.5762787E-07 2.3841858E-07 1
vn 1.3709068E-06 1.7881393E-07 1
vn -2.9802322E-07 1.1920929E-07 1
vn 1.1920929E-07 2.3841858E-07 1
vn -5.364418E-07 0 1
vn -0 2.9802322E-07 1
vn 2.3841858E-07 2.9802322E-07 1
vn -0 3.5762787E-07 1
vn -0.97216797 -0.08178711 0.21875
vn -0.9838867 -0.08276367 0.15759277
vn 0.9951172 0.097961426 1.013279E-06
vn 0.9433594 0.09289551 0.31811523
vn 0.93310547 0.09185791 0.3479004
vn 0.9951172 0.097961426 1.013279E-06
vn -0.99658203 -0.08380127 0.0030670166
vn -0.97216797 -0.08178711 0.21875
vn -0.9838867 -0.08276367 0.15759277
vn -0.99658203 -0.08380127 0.0030670166
vn -0 -2.9802322E-07 -1
vn 2.3841858E-07 -2.9802322E-07 -1
vn -0 -2.3841858E-07 -1
vn -1.1920929E-07 -2.3841858E-07 -1
vn -2.9802322E-07 -1.7881393E-07 -1
vn 3.5762787E-07 -1.1920929E-07 -1
vn 4.7683716E-07 -1.1920929E-07 -1
vn -9.536743E-07 -1.1920929E-07 -1
vn -1.4305115E-06 0 -1
vn -1.4305115E-06 0 -1
vn -1.1920929E-06 0 -1
vn -1.1920929E-06 0 -1
vn -5.364418E-07 0 -1
vn -5.364418E-07 0 -1
vn 0.55078125 -0.83447266 0.011329651
vn 0.39135742 -0.92041016 0.00166893
vn 0.39135742 -0.92041016 0.00166893
vn 0.52001953 -0.8540039 0.009407043
vn 0.54296875 -0.83740234 0.062469482
vn 0.5488281 -0.8339844 0.05822754
vn 0.5654297 -0.8178711 0.10662842
vn 0.5620117 -0.8203125 0.10699463
vn 0.58691406 -0.8027344 0.104003906
vn 0.58691406 -0.80322266 0.103759766
vn 0.57910156 -0.8100586 0.09313965
g flame11_geo_0
f 3/3/3 2/2/2 1/1/1
f 4/4/4 3/3/3 1/1/1
f 4/4/4 1/1/1 5/5/5
f 1/1/1 6/6/6 5/5/5
f 5/5/5 6/6/6 7/7/7
f 6/6/6 8/8/8 7/7/7
f 7/7/7 8/8/8 9/9/9
f 10/10/10 7/7/7 9/9/9
f 10/10/10 9/9/9 11/11/11
f 12/12/12 10/10/10 11/11/11
f 12/12/12 11/11/11 13/13/13
f 14/14/14 12/12/12 13/13/13
f 14/14/14 13/13/13 15/15/15
f 16/16/16 14/14/14 15/15/15
f 16/16/16 15/15/15 17/17/17
f 15/15/15 18/18/18 17/17/17
f 18/18/18 19/19/19 17/17/17
f 22/22/22 21/21/21 20/20/20
f 21/21/21 23/23/23 20/20/20
f 23/23/23 21/21/21 24/24/24
f 25/25/25 23/23/23 24/24/24
f 25/25/25 24/24/24 26/26/26
f 24/24/24 27/27/27 26/26/26
f 26/26/26 27/27/27 28/28/28
f 26/26/26 28/28/28 29/29/29
f 28/28/28 30/30/30 29/29/29
f 29/29/29 31/31/31 26/26/26
f 31/31/31 32/32/32 26/26/26
f 31/31/31 33/33/33 32/32/32
f 33/33/33 34/34/34 32/32/32
f 34/34/34 35/35/35 32/32/32
f 38/38/38 37/37/37 36/36/36
f 39/39/39 38/38/38 36/36/36
f 42/42/42 41/41/41 40/40/40
f 43/43/43 42/42/42 40/40/40
f 46/46/46 45/45/45 44/44/44
f 46/46/46 44/44/44 47/47/47
f 48/48/48 46/46/46 47/47/47
f 48/48/48 47/47/47 49/49/49
f 47/47/47 50/50/50 49/49/49
f 51/51/51 48/48/48 49/49/49
f 51/51/51 52/52/52 48/48/48
f 52/52/52 53/53/53 48/48/48
f 52/52/52 54/54/54 53/53/53
f 54/54/54 55/55/55 53/53/53
f 54/54/54 56/56/56 55/55/55
f 56/56/56 57/57/57 55/55/55
f 60/60/60 59/59/59 58/58/58
f 59/59/59 61/61/61 58/58/58
f 62/62/62 58/58/58 61/61/61
f 63/63/63 62/62/62 61/61/61
f 62/62/62 63/63/63 64/64/64
f 63/63/63 65/65/65 64/64/64
f 64/64/64 65/65/65 66/66/66
f 65/65/65 67/67/67 66/66/66
f 67/67/67 68/68/68 66/66/66
