g flame1_geo
v -0.14032562 -0.059747826 -0.008814094
v -0.13855742 -0.06041151 0.0088142725
v -0.13929704 -0.061268367 -0.008814101
v -0.14145026 -0.0573921 0.00881411
v -0.14413568 -0.054476336 -0.008814098
v -0.1404578 -0.052127667 0.00881338
v -0.14239359 -0.04108137 -0.008814109
v -0.14228903 -0.041076906 0.00881416
v -0.13854864 -0.033308316 0.008813509
v -0.14194463 -0.030965252 -0.008814128
v -0.14188051 -0.02858221 -0.008814131
v -0.14017309 -0.028693408 0.008813933
v -0.14113735 -0.016201686 -0.008814152
v -0.14079635 -0.016222132 0.008814223
v -0.14007407 -0.0040054894 -0.008814169
v -0.13787101 -0.0037797354 0.00881388
v -0.14254522 0.013568591 0.008813649
v -0.14683063 0.016742649 -0.008814231
v -0.1463454 0.017115574 0.0088142725
v 0.13826658 -0.052412774 -0.008814101
v 0.14675705 -0.061751954 0.0088142725
v 0.14648835 -0.061456393 -0.008814096
v 0.13826655 -0.052412663 0.0088142725
v 0.11160951 -0.032374322 -0.008814089
v 0.111609496 -0.032374363 0.0088142725
v 0.082352564 -0.020037403 -0.008814094
v 0.08235258 -0.02003744 0.0088142725
v 0.052095935 -0.01070364 -0.008814098
v 0.052095924 -0.010703793 0.0088142725
v 0.022940384 -0.0072200582 -0.008814098
v 0.022940388 -0.0072201346 0.0088142725
v -0.004956012 -0.004119701 -0.008814094
v -0.004956012 -0.004119701 0.0088142725
v -0.034111284 -0.0063158986 -0.008814089
v -0.034111284 -0.006315975 0.0088142725
v -0.071236245 -0.015428371 -0.008814087
v -0.07123625 -0.0154285235 0.0088142725
v -0.09963894 -0.030120373 -0.008814101
v -0.099638954 -0.030120373 0.008814272
v -0.13019404 -0.05072298 -0.008814094
v -0.13019404 -0.05072298 0.0088142725
v -0.13929704 -0.061268367 -0.008814101
v -0.13855742 -0.06041151 0.0088142725
v 0.143546 -0.046072636 0.008814236
v 0.141022 -0.044568803 -0.008814087
v 0.1425998 -0.047270067 -0.008814098
v 0.13972488 -0.044899654 0.008813489
v 0.13671279 -0.03856123 0.008813481
v 0.14029634 -0.037490673 -0.008814075
v 0.13645262 -0.031373233 0.008814107
v 0.13818002 -0.031101322 -0.008814063
v 0.13682422 -0.022617396 0.008814038
v 0.13711248 -0.022594051 -0.008814051
v 0.13718304 -0.013901958 -0.008814039
v 0.13345325 -0.013544674 0.008813589
v 0.13956746 -0.005463848 -0.008814022
v 0.13614438 -0.0051270104 0.0088136215
v 0.13754779 0.0032229805 0.008813942
v 0.13803451 0.0032250404 -0.008814015
v 0.13953802 0.010827808 -0.008814003
v 0.13850804 0.01129343 0.008813694
v 0.14413084 0.026787052 -0.008813989
v 0.14378557 0.022008304 0.00881426
v 0.1449368 0.026401004 0.0088142725
v 0.13953802 0.010827808 -0.008814003
v 0.14413084 0.026787052 -0.008813989
v 0.11375061 0.04133089 -0.0088140555
v 0.082352564 -0.020037403 -0.008814094
v 0.11160951 -0.032374322 -0.008814089
v 0.13803451 0.0032250404 -0.008814015
v 0.073967546 0.05079851 -0.008814122
v 0.052095935 -0.01070364 -0.008814098
v 0.0376348 0.05788088 -0.008814037
v 0.022940384 -0.0072200582 -0.008814098
v 0.13956746 -0.005463848 -0.008814022
v -0.0025740378 0.061751727 -0.00881397
v -0.004956012 -0.004119701 -0.008814094
v 0.13718304 -0.013901958 -0.008814039
v -0.034111284 -0.0063158986 -0.008814089
v -0.04085648 0.059701707 -0.00881397
v -0.08892034 0.048016757 -0.008814115
v -0.071236245 -0.015428371 -0.008814087
v -0.13103268 0.028874835 -0.008814274
v 0.13711248 -0.022594051 -0.008814051
v -0.09963894 -0.030120373 -0.008814101
v 0.13818002 -0.031101322 -0.008814063
v 0.14029634 -0.037490673 -0.008814075
v 0.141022 -0.044568803 -0.008814087
v -0.14683063 0.016742649 -0.008814231
v 0.13826658 -0.052412774 -0.008814101
v -0.14007407 -0.0040054894 -0.008814169
v 0.1425998 -0.047270067 -0.008814098
v 0.14497098 -0.049948633 -0.008814113
v 0.14683063 -0.055254687 -0.0088141095
v 0.14648835 -0.061456393 -0.008814096
v -0.14113735 -0.016201686 -0.008814152
v -0.14188051 -0.02858221 -0.008814131
v -0.14194463 -0.030965252 -0.008814128
v -0.13019404 -0.05072298 -0.008814094
v -0.14239359 -0.04108137 -0.008814109
v -0.14413568 -0.054476336 -0.008814098
v -0.14032562 -0.059747826 -0.008814094
v -0.13929704 -0.061268367 -0.008814101
v 0.11375061 0.04133089 -0.0088140555
v 0.14413084 0.026787052 -0.008813989
v 0.1449368 0.026401004 0.0088142725
v 0.11375061 0.04133112 0.0088142725
v 0.073967546 0.050798435 0.0088142725
v 0.073967546 0.05079851 -0.008814122
v 0.03763482 0.057880726 0.0088142725
v 0.0376348 0.05788088 -0.008814037
v -0.0025740366 0.061751954 0.008814273
v -0.0025740378 0.061751727 -0.00881397
v -0.040856495 0.059701554 0.0088142725
v -0.04085648 0.059701707 -0.00881397
v -0.08892036 0.048016835 0.008814273
v -0.08892034 0.048016757 -0.008814115
v -0.13103269 0.028874835 0.008814273
v -0.13103268 0.028874835 -0.008814274
v -0.1463454 0.017115574 0.0088142725
v -0.14683063 0.016742649 -0.008814231
v -0.14254522 0.013568591 0.008813649
v -0.1463454 0.017115574 0.0088142725
v -0.13103269 0.028874835 0.008814273
v -0.1289647 0.024988804 0.0088142725
v -0.10175335 -0.026146831 0.0088142725
v -0.13787101 -0.0037797354 0.00881388
v -0.14079635 -0.016222132 0.008814223
v -0.14017309 -0.028693408 0.008813933
v -0.13854864 -0.033308316 0.008813509
v -0.08775545 0.04383753 0.008814274
v -0.08892036 0.048016835 0.008814273
v -0.072427265 -0.011155376 0.0088142725
v -0.040412176 0.055352725 0.0088142725
v -0.040856495 0.059701554 0.0088142725
v -0.0025740366 0.061751954 0.008814273
v -0.03456559 -0.0018696403 0.0088142725
v -0.0027309447 0.057412583 0.008814273
v 0.03763482 0.057880726 0.0088142725
v -0.1324005 -0.047013033 0.0088142725
v -0.14228903 -0.041076906 0.00881416
v -0.1404578 -0.052127667 0.00881338
v -0.14145026 -0.0573921 0.00881411
v -0.13019404 -0.05072298 0.0088142725
v -0.13855742 -0.06041151 0.0088142725
v -0.099638954 -0.030120373 0.008814272
v -0.07123625 -0.0154285235 0.0088142725
v -0.034111284 -0.006315975 0.0088142725
v -0.0047955876 0.00031671525 0.0088142725
v -0.004956012 -0.004119701 0.0088142725
v 0.023930073 -0.0028356742 0.008814273
v 0.022940388 -0.0072201346 0.0088142725
v 0.036666844 0.053592395 0.0088142725
v 0.053569004 -0.0065613366 0.0088142725
v 0.052095924 -0.010703793 0.0088142725
v 0.08235258 -0.02003744 0.0088142725
v 0.072526805 0.04674738 0.0088142725
v 0.073967546 0.050798435 0.0088142725
v 0.11168232 0.03728853 0.0088142725
v 0.11375061 0.04133112 0.0088142725
v 0.1449368 0.026401004 0.0088142725
v 0.14378557 0.022008304 0.00881426
v 0.13850804 0.01129343 0.008813694
v 0.08446729 -0.015904292 0.0088142725
v 0.11419874 -0.028580569 0.0088142725
v 0.13754779 0.0032229805 0.008813942
v 0.111609496 -0.032374363 0.0088142725
v 0.13614438 -0.0051270104 0.0088136215
v 0.13345325 -0.013544674 0.008813589
v 0.13682422 -0.022617396 0.008814038
v 0.13645262 -0.031373233 0.008814107
v 0.13671279 -0.03856123 0.008813481
v 0.13826655 -0.052412663 0.0088142725
v 0.1375639 -0.046036396 0.008813342
v 0.13972488 -0.044899654 0.008813489
v 0.14129229 -0.04882181 0.008813194
v 0.14675705 -0.061751954 0.0088142725
v 0.143546 -0.046072636 0.008814236
v 0.14656438 -0.055289287 0.0088142725
v 0.14571735 -0.04990988 0.008814252
v 0.14675705 -0.061751954 0.0088142725
v 0.14683063 -0.055254687 -0.0088141095
v 0.14648835 -0.061456393 -0.008814096
v 0.14656438 -0.055289287 0.0088142725
v 0.14497098 -0.049948633 -0.008814113
v 0.14571735 -0.04990988 0.008814252
v 0.1425998 -0.047270067 -0.008814098
v 0.143546 -0.046072636 0.008814236
vt 0.6894531 0.05432129
vt 0.6904297 0.06427002
vt 0.6904297 0.05432129
vt 0.6879883 0.06427002
vt 0.68603516 0.05432129
vt 0.6850586 0.06427002
vt 0.67822266 0.05432129
vt 0.67871094 0.06427002
vt 0.6743164 0.06427002
vt 0.67285156 0.05432129
vt 0.6713867 0.05432129
vt 0.6713867 0.06427002
vt 0.6645508 0.05432129
vt 0.6645508 0.06427002
vt 0.65771484 0.05432129
vt 0.65771484 0.06427002
vt 0.6479492 0.06427002
vt 0.6455078 0.05432129
vt 0.6455078 0.06427002
vt 0.13977051 0.07507324
vt 0.13378906 0.06878662
vt 0.13391113 0.07507324
vt 0.13977051 0.06878662
vt 0.15563965 0.07507324
vt 0.15563965 0.06878662
vt 0.17077637 0.07507324
vt 0.17077637 0.06878662
vt 0.18591309 0.07507324
vt 0.18591309 0.06878662
vt 0.19995117 0.07507324
vt 0.19995117 0.06878662
vt 0.2133789 0.07507324
vt 0.2133789 0.06878662
vt 0.22729492 0.07507324
vt 0.22729492 0.06878662
vt 0.2454834 0.07507324
vt 0.2454834 0.06878662
vt 0.2607422 0.07507324
vt 0.2607422 0.06878662
vt 0.2783203 0.07507324
vt 0.2783203 0.06878662
vt 0.2849121 0.07507324
vt 0.28442383 0.06878662
vt 0.7050781 0.06427002
vt 0.70703125 0.05432129
vt 0.7050781 0.05432129
vt 0.70751953 0.06427002
vt 0.7109375 0.06427002
vt 0.7109375 0.05432129
vt 0.71484375 0.06427002
vt 0.71484375 0.05432129
vt 0.7192383 0.06427002
vt 0.71972656 0.05432129
vt 0.7241211 0.05432129
vt 0.7246094 0.06427002
vt 0.7290039 0.05432129
vt 0.7290039 0.06427002
vt 0.7338867 0.06427002
vt 0.7338867 0.05432129
vt 0.73828125 0.05432129
vt 0.73828125 0.06427002
vt 0.7470703 0.05432129
vt 0.7446289 0.06427002
vt 0.7470703 0.06427002
vt 1.2666016 0.71191406
vt 1.2685547 0.71875
vt 1.2558594 0.7246094
vt 1.2431641 0.69921875
vt 1.2548828 0.69433594
vt 1.265625 0.7089844
vt 1.2402344 0.7285156
vt 1.2304688 0.703125
vt 1.2246094 0.7314453
vt 1.21875 0.70458984
vt 1.2666016 0.7055664
vt 1.2089844 0.73291016
vt 1.2080078 0.7060547
vt 1.265625 0.70214844
vt 1.1953125 0.7050781
vt 1.1933594 0.7324219
vt 1.1728516 0.72753906
vt 1.1806641 0.7011719
vt 1.15625 0.71972656
vt 1.265625 0.6982422
vt 1.1689453 0.6953125
vt 1.265625 0.6948242
vt 1.2666016 0.6923828
vt 1.2675781 0.6894531
vt 1.1494141 0.71435547
vt 1.265625 0.68603516
vt 1.1523438 0.7060547
vt 1.2675781 0.6879883
vt 1.2685547 0.6870117
vt 1.2695312 0.6850586
vt 1.2695312 0.6821289
vt 1.1523438 0.7011719
vt 1.1513672 0.6958008
vt 1.1513672 0.6948242
vt 1.15625 0.68652344
vt 1.1513672 0.69091797
vt 1.1503906 0.6850586
vt 1.1523438 0.68310547
vt 1.1523438 0.6826172
vt 0.20898438 0.09338379
vt 0.19213867 0.09338379
vt 0.19177246 0.099975586
vt 0.20898438 0.099975586
vt 0.22949219 0.099975586
vt 0.22949219 0.09338379
vt 0.24804688 0.099975586
vt 0.24804688 0.09338379
vt 0.26831055 0.099975586
vt 0.26831055 0.09338379
vt 0.28759766 0.099975586
vt 0.28759766 0.09338379
vt 0.31225586 0.099975586
vt 0.3125 0.09338379
vt 0.33544922 0.099975586
vt 0.33544922 0.09338379
vt 0.34521484 0.099975586
vt 0.34545898 0.09338379
vt 0.1505127 0.7128906
vt 0.14892578 0.71435547
vt 0.15539551 0.7192383
vt 0.15625 0.71777344
vt 0.16760254 0.69677734
vt 0.15246582 0.7060547
vt 0.15112305 0.7006836
vt 0.15136719 0.6958008
vt 0.15209961 0.69384766
vt 0.17346191 0.72558594
vt 0.17321777 0.72753906
vt 0.17980957 0.703125
vt 0.19311523 0.73046875
vt 0.19299316 0.7324219
vt 0.2084961 0.73291016
vt 0.19543457 0.70703125
vt 0.2084961 0.7314453
vt 0.22497559 0.7314453
vt 0.15478516 0.6879883
vt 0.1505127 0.6904297
vt 0.15136719 0.6855469
vt 0.15100098 0.68359375
vt 0.15576172 0.68652344
vt 0.15234375 0.6821289
vt 0.16845703 0.6948242
vt 0.18029785 0.7011719
vt 0.19555664 0.7050781
vt 0.2076416 0.7080078
vt 0.20751953 0.7060547
vt 0.21936035 0.70654297
vt 0.21899414 0.70458984
vt 0.22460938 0.7294922
vt 0.23156738 0.7050781
vt 0.23095703 0.703125
vt 0.2434082 0.69921875
vt 0.23925781 0.7270508
vt 0.2397461 0.7285156
vt 0.2553711 0.72314453
vt 0.25610352 0.7246094
vt 0.26879883 0.7182617
vt 0.26879883 0.7167969
vt 0.2668457 0.71240234
vt 0.24438477 0.7011719
vt 0.2565918 0.6958008
vt 0.26660156 0.7089844
vt 0.2553711 0.69433594
vt 0.26586914 0.7055664
vt 0.26464844 0.70214844
vt 0.26611328 0.6982422
vt 0.26586914 0.6948242
vt 0.26586914 0.69189453
vt 0.26635742 0.68603516
vt 0.26611328 0.68896484
vt 0.26708984 0.6894531
vt 0.26757812 0.6875
vt 0.2697754 0.6821289
vt 0.2685547 0.68847656
vt 0.2697754 0.6850586
vt 0.2692871 0.6870117
vt 0.69628906 0.06427002
vt 0.7001953 0.05432129
vt 0.69677734 0.05432129
vt 0.69970703 0.06427002
vt 0.703125 0.05432129
vt 0.703125 0.06427002
vt 0.7050781 0.05432129
vt 0.7050781 0.06427002
vn -0.9013672 -0.42456055 0.08502197
vn -0.7558594 -0.65283203 0.051239014
vn -0.7558594 -0.65283203 0.051239014
vn -0.9160156 -0.39111328 0.08917236
vn -0.9902344 -0.087646484 0.10668945
vn -0.9916992 -0.07336426 0.10675049
vn -0.9892578 0.09576416 0.109436035
vn -0.9892578 0.09588623 0.109436035
vn -0.9863281 0.117248535 0.11682129
vn -0.98876953 0.089660645 0.11804199
vn -0.99609375 -0.044952393 0.07342529
vn -0.99609375 -0.04626465 0.07385254
vn -0.9946289 0.08251953 0.06427002
vn -0.9946289 0.08258057 0.06427002
vn -0.98535156 -0.117126465 0.1227417
vn -0.98535156 -0.11834717 0.122924805
vn -0.9350586 -0.3251953 0.14233398
vn -0.9433594 -0.29736328 0.14794922
vn -0.6821289 -0.73046875 0.034240723
vn -0.640625 -0.7675781 9.536743E-07
vn -0.7363281 -0.6694336 0.095214844
vn -0.7397461 -0.67285156 1.013279E-06
vn -0.6328125 -0.7578125 0.16027832
vn -0.50097656 -0.8652344 3.5762787E-07
vn -0.4831543 -0.83447266 0.26586914
vn -0.34204102 -0.9394531 -2.861023E-06
vn -0.3305664 -0.90771484 0.25830078
vn -0.2109375 -0.97753906 -5.6028366E-06
vn -0.20373535 -0.94433594 0.25927734
vn -0.11462402 -0.99316406 -5.9604645E-06
vn -0.11114502 -0.9628906 0.24597168
vn -0.015838623 -1 -4.5895576E-06
vn -0.015289307 -0.96484375 0.2619629
vn 0.16821289 -0.98583984 -2.5629997E-06
vn 0.16235352 -0.95166016 0.2602539
vn 0.34155273 -0.9399414 -2.4437904E-06
vn 0.3293457 -0.90625 0.26416016
vn 0.5136719 -0.85791016 -1.4305115E-06
vn 0.49682617 -0.8300781 0.2536621
vn 0.61572266 -0.78759766 0
vn 0.59716797 -0.7636719 0.2454834
vn 0.75683594 -0.6533203 1.3113022E-06
vn 0.74072266 -0.63964844 0.20581055
vn 0.5830078 0.8125 -0.014167786
vn 0.87939453 0.4658203 0.09710693
vn 0.5830078 0.8125 -0.014167786
vn 0.8833008 0.45825195 0.09899902
vn 0.96435547 0.21875 0.14794922
vn 0.96484375 0.21801758 0.14807129
vn 0.9897461 0.099243164 0.10089111
vn 0.9902344 0.09887695 0.10064697
vn 0.9902344 0.112976074 0.08441162
vn 0.9902344 0.112976074 0.08441162
vn 0.9863281 -0.052001953 0.15734863
vn 0.98583984 -0.054260254 0.15771484
vn 0.9770508 -0.14343262 0.15625
vn 0.9770508 -0.1451416 0.15673828
vn 0.9941406 -0.070739746 0.07897949
vn 0.9941406 -0.07098389 0.07885742
vn 0.9604492 -0.27905273 0.012413025
vn 0.95996094 -0.2800293 0.012107849
vn 0.93896484 -0.34423828 -0.0071754456
vn 0.94140625 -0.33740234 -0.010414124
vn 0.9663086 -0.25317383 -0.049713135
vn 1.4305115E-06 4.172325E-07 -1
vn 2.3245811E-06 2.3841858E-07 -1
vn 1.1324883E-06 0 -1
vn 1.1324883E-06 0 -1
vn 1.3709068E-06 4.7683716E-07 -1
vn 1.1324883E-06 1.2516975E-06 -1
vn -0 1.1920929E-07 -1
vn -1.7881393E-07 1.7881393E-07 -1
vn -1.013279E-06 1.0728836E-06 -1
vn -1.013279E-06 1.1324883E-06 -1
vn 1.1920929E-06 1.1324883E-06 -1
vn -5.364418E-07 1.66893E-06 -1
vn -5.364418E-07 1.66893E-06 -1
vn 5.364418E-07 1.66893E-06 -1
vn 7.748604E-07 1.3113022E-06 -1
vn 7.1525574E-07 1.3709068E-06 -1
vn 2.026558E-06 2.9802322E-07 -1
vn 2.0861626E-06 2.3841858E-07 -1
vn 1.9073486E-06 -1.2516975E-06 -1
vn 1.013279E-06 1.4305115E-06 -1
vn 2.2649765E-06 -8.940697E-07 -1
vn 8.34465E-07 1.847744E-06 -1
vn 8.34465E-07 1.7285347E-06 -1
vn 7.748604E-07 1.66893E-06 -1
vn -3.5762787E-07 -3.0994415E-06 -1
vn 5.364418E-07 1.4305115E-06 -1
vn -2.9802322E-07 -2.9206276E-06 -1
vn -2.4437904E-06 2.8014183E-06 -1
vn -2.026558E-06 1.1920929E-07 -1
vn -1.4305115E-06 -1.7881393E-06 -1
vn -1.3113022E-06 -2.026558E-06 -1
vn 7.1525574E-07 -1.5497208E-06 -1
vn 7.1525574E-07 -1.66893E-06 -1
vn 5.9604645E-07 -1.3709068E-06 -1
vn 5.9604645E-07 -1.2516975E-06 -1
vn -0 -1.4901161E-06 -1
vn 4.172325E-07 -7.1525574E-07 -1
vn -4.7683716E-07 2.9802322E-07 -1
vn -3.6358833E-06 2.9206276E-06 -1
vn 0.3244629 0.9458008 -1.1324883E-06
vn 0.43188477 0.90185547 2.5629997E-06
vn 0.41308594 0.86279297 0.29077148
vn 0.31591797 0.92089844 0.22937012
vn 0.20654297 0.94970703 0.23522949
vn 0.21252441 0.9770508 -1.0728836E-06
vn 0.13781738 0.9633789 0.22973633
vn 0.14160156 0.9897461 5.364418E-07
vn 0.022583008 0.9736328 0.22729492
vn 0.02319336 0.9995117 -4.23193E-06
vn -0.15307617 0.96240234 0.2241211
vn -0.15710449 0.98779297 -4.172325E-07
vn -0.31518555 0.921875 0.22473145
vn -0.32348633 0.94628906 1.3113022E-06
vn -0.4621582 0.8574219 0.22705078
vn -0.47460938 0.8803711 -3.993511E-06
vn -0.59472656 0.77441406 0.21679688
vn -0.6088867 0.79296875 -7.0929527E-06
vn -1.7523766E-05 -1.168251E-05 1
vn -0.59472656 0.77441406 0.21679688
vn -0.4621582 0.8574219 0.22705078
vn -3.7550926E-06 -3.4570694E-06 1
vn -2.6226044E-06 2.3841858E-07 1
vn -1.7821789E-05 -1.9073486E-06 1
vn -0 4.887581E-06 1
vn -6.198883E-06 -4.0233135E-05 1
vn -1.7285347E-05 7.4505806E-06 1
vn -0 0 1
vn -0.31518555 0.921875 0.22473145
vn -0 0 1
vn -0 0 1
vn -0.15307617 0.96240234 0.2241211
vn 0.022583008 0.9736328 0.22729492
vn -0 0 1
vn -0 0 1
vn 0.13781738 0.9633789 0.22973633
vn -1.9907951E-05 1.937151E-05 1
vn -5.364418E-07 1.8179417E-05 1
vn -0.00013113022 3.2126904E-05 1
vn -3.9994717E-05 2.5987625E-05 1
vn 0.59716797 -0.7636719 0.2454834
vn 0.74072266 -0.63964844 0.20581055
vn 0.49682617 -0.8300781 0.2536621
vn 0.3293457 -0.90625 0.26416016
vn 0.16235352 -0.95166016 0.2602539
vn -0 0 1
vn -0.015289307 -0.96484375 0.2619629
vn -0 0 1
vn -0.11114502 -0.9628906 0.24597168
vn -0 0 1
vn -0 0 1
vn -0.20373535 -0.94433594 0.25927734
vn -0.3305664 -0.90771484 0.25830078
vn -0 0 1
vn 0.20654297 0.94970703 0.23522949
vn 3.993511E-06 -4.172325E-07 1
vn 0.31591797 0.92089844 0.22937012
vn 0.41308594 0.86279297 0.29077148
vn -1.2278557E-05 -2.6404858E-05 1
vn 7.8082085E-06 -2.503395E-06 1
vn 4.23193E-06 1.7881393E-07 1
vn 1.3887882E-05 4.887581E-06 1
vn -1.5735626E-05 2.193451E-05 1
vn -0.4831543 -0.83447266 0.26586914
vn 8.183718E-05 -4.8816204E-05 1
vn 2.5510788E-05 1.2695789E-05 1
vn 2.2053719E-06 3.093481E-05 1
vn 2.6226044E-06 -3.8564205E-05 1
vn 1.6570091E-05 -3.9994717E-05 1
vn -0.6328125 -0.7578125 0.16027832
vn 6.1035156E-05 5.6266785E-05 1
vn -0.000118374825 -9.8347664E-05 1
vn -1.8656254E-05 4.2140484E-05 1
vn -0.7363281 -0.6694336 0.095214844
vn -0.00019931793 -0.00014173985 1
vn 1.9609928E-05 9.101629E-05 1
vn -0.00025367737 -5.966425E-05 1
vn 1 -0.011810303 -0.00017976761
vn 0.9941406 0.10882568 -0.0063056946
vn 1 -0.011810303 -0.00017976761
vn 0.9941406 0.10882568 -0.00630188
vn 0.9199219 0.39013672 -0.033355713
vn 0.9213867 0.3869629 -0.032928467
vn 0.81884766 0.5708008 -0.059326172
vn 0.81884766 0.5708008 -0.059326172
g flame1_geo_0
f 3/3/3 2/2/2 1/1/1
f 2/2/2 4/4/4 1/1/1
f 1/1/1 4/4/4 5/5/5
f 4/4/4 6/6/6 5/5/5
f 5/5/5 6/6/6 7/7/7
f 6/6/6 8/8/8 7/7/7
f 7/7/7 8/8/8 9/9/9
f 10/10/10 7/7/7 9/9/9
f 10/10/10 9/9/9 11/11/11
f 9/9/9 12/12/12 11/11/11
f 11/11/11 12/12/12 13/13/13
f 12/12/12 14/14/14 13/13/13
f 13/13/13 14/14/14 15/15/15
f 14/14/14 16/16/16 15/15/15
f 16/16/16 17/17/17 15/15/15
f 17/17/17 18/18/18 15/15/15
f 17/17/17 19/19/19 18/18/18
f 22/22/22 21/21/21 20/20/20
f 21/21/21 23/23/23 20/20/20
f 24/24/24 20/20/20 23/23/23
f 25/25/25 24/24/24 23/23/23
f 26/26/26 24/24/24 25/25/25
f 27/27/27 26/26/26 25/25/25
f 28/28/28 26/26/26 27/27/27
f 29/29/29 28/28/28 27/27/27
f 30/30/30 28/28/28 29/29/29
f 31/31/31 30/30/30 29/29/29
f 32/32/32 30/30/30 31/31/31
f 33/33/33 32/32/32 31/31/31
f 34/34/34 32/32/32 33/33/33
f 35/35/35 34/34/34 33/33/33
f 36/36/36 34/34/34 35/35/35
f 37/37/37 36/36/36 35/35/35
f 38/38/38 36/36/36 37/37/37
f 39/39/39 38/38/38 37/37/37
f 40/40/40 38/38/38 39/39/39
f 41/41/41 40/40/40 39/39/39
f 42/42/42 40/40/40 41/41/41
f 43/43/43 42/42/42 41/41/41
f 46/46/46 45/45/45 44/44/44
f 45/45/45 47/47/47 44/44/44
f 48/48/48 47/47/47 45/45/45
f 49/49/49 48/48/48 45/45/45
f 50/50/50 48/48/48 49/49/49
f 51/51/51 50/50/50 49/49/49
f 52/52/52 50/50/50 51/51/51
f 53/53/53 52/52/52 51/51/51
f 53/53/53 54/54/54 52/52/52
f 54/54/54 55/55/55 52/52/52
f 54/54/54 56/56/56 55/55/55
f 56/56/56 57/57/57 55/55/55
f 58/58/58 57/57/57 56/56/56
f 59/59/59 58/58/58 56/56/56
f 59/59/59 60/60/60 58/58/58
f 60/60/60 61/61/61 58/58/58
f 60/60/60 62/62/62 61/61/61
f 62/62/62 63/63/63 61/61/61
f 62/62/62 64/64/64 63/63/63
f 67/67/67 66/66/66 65/65/65
f 68/68/68 67/67/67 65/65/65
f 69/69/69 68/68/68 65/65/65
f 69/69/69 65/65/65 70/70/70
f 71/71/71 67/67/67 68/68/68
f 72/72/72 71/71/71 68/68/68
f 73/73/73 71/71/71 72/72/72
f 74/74/74 73/73/73 72/72/72
f 75/75/75 69/69/69 70/70/70
f 76/76/76 73/73/73 74/74/74
f 77/77/77 76/76/76 74/74/74
f 75/75/75 78/78/78 69/69/69
f 76/76/76 77/77/77 79/79/79
f 80/80/80 76/76/76 79/79/79
f 81/81/81 80/80/80 79/79/79
f 82/82/82 81/81/81 79/79/79
f 83/83/83 81/81/81 82/82/82
f 78/78/78 84/84/84 69/69/69
f 85/85/85 83/83/83 82/82/82
f 84/84/84 86/86/86 69/69/69
f 86/86/86 87/87/87 69/69/69
f 87/87/87 88/88/88 69/69/69
f 89/89/89 83/83/83 85/85/85
f 88/88/88 90/90/90 69/69/69
f 91/91/91 89/89/89 85/85/85
f 88/88/88 92/92/92 90/90/90
f 90/90/90 92/92/92 93/93/93
f 94/94/94 90/90/90 93/93/93
f 94/94/94 95/95/95 90/90/90
f 91/91/91 85/85/85 96/96/96
f 85/85/85 97/97/97 96/96/96
f 85/85/85 98/98/98 97/97/97
f 85/85/85 99/99/99 98/98/98
f 100/100/100 98/98/98 99/99/99
f 100/100/100 99/99/99 101/101/101
f 99/99/99 102/102/102 101/101/101
f 99/99/99 103/103/103 102/102/102
f 106/106/106 105/105/105 104/104/104
f 107/107/107 106/106/106 104/104/104
f 107/107/107 104/104/104 108/108/108
f 104/104/104 109/109/109 108/108/108
f 108/108/108 109/109/109 110/110/110
f 109/109/109 111/111/111 110/110/110
f 110/110/110 111/111/111 112/112/112
f 111/111/111 113/113/113 112/112/112
f 112/112/112 113/113/113 114/114/114
f 113/113/113 115/115/115 114/114/114
f 114/114/114 115/115/115 116/116/116
f 115/115/115 117/117/117 116/116/116
f 116/116/116 117/117/117 118/118/118
f 117/117/117 119/119/119 118/118/118
f 118/118/118 119/119/119 120/120/120
f 119/119/119 121/121/121 120/120/120
f 124/124/124 123/123/123 122/122/122
f 125/125/125 124/124/124 122/122/122
f 125/125/125 122/122/122 126/126/126
f 122/122/122 127/127/127 126/126/126
f 127/127/127 128/128/128 126/126/126
f 128/128/128 129/129/129 126/126/126
f 129/129/129 130/130/130 126/126/126
f 125/125/125 131/131/131 124/124/124
f 131/131/131 132/132/132 124/124/124
f 126/126/126 133/133/133 125/125/125
f 133/133/133 131/131/131 125/125/125
f 131/131/131 134/134/134 132/132/132
f 134/134/134 135/135/135 132/132/132
f 136/136/136 135/135/135 134/134/134
f 137/137/137 134/134/134 131/131/131
f 133/133/133 137/137/137 131/131/131
f 138/138/138 136/136/136 134/134/134
f 138/138/138 134/134/134 137/137/137
f 139/139/139 136/136/136 138/138/138
f 130/130/130 140/140/140 126/126/126
f 130/130/130 141/141/141 140/140/140
f 141/141/141 142/142/142 140/140/140
f 142/142/142 143/143/143 140/140/140
f 140/140/140 143/143/143 144/144/144
f 140/140/140 144/144/144 126/126/126
f 143/143/143 145/145/145 144/144/144
f 144/144/144 146/146/146 126/126/126
f 126/126/126 146/146/146 133/133/133
f 146/146/146 147/147/147 133/133/133
f 133/133/133 147/147/147 137/137/137
f 147/147/147 148/148/148 137/137/137
f 149/149/149 137/137/137 148/148/148
f 150/150/150 149/149/149 148/148/148
f 149/149/149 138/138/138 137/137/137
f 151/151/151 149/149/149 150/150/150
f 149/149/149 151/151/151 138/138/138
f 152/152/152 151/151/151 150/150/150
f 151/151/151 153/153/153 138/138/138
f 153/153/153 139/139/139 138/138/138
f 151/151/151 152/152/152 154/154/154
f 151/151/151 154/154/154 153/153/153
f 152/152/152 155/155/155 154/154/154
f 154/154/154 155/155/155 156/156/156
f 153/153/153 157/157/157 139/139/139
f 154/154/154 157/157/157 153/153/153
f 157/157/157 158/158/158 139/139/139
f 158/158/158 157/157/157 159/159/159
f 160/160/160 158/158/158 159/159/159
f 160/160/160 159/159/159 161/161/161
f 159/159/159 162/162/162 161/161/161
f 163/163/163 162/162/162 159/159/159
f 154/154/154 164/164/164 157/157/157
f 164/164/164 154/154/154 156/156/156
f 164/164/164 159/159/159 157/157/157
f 165/165/165 163/163/163 159/159/159
f 164/164/164 165/165/165 159/159/159
f 164/164/164 156/156/156 165/165/165
f 166/166/166 163/163/163 165/165/165
f 156/156/156 167/167/167 165/165/165
f 168/168/168 166/166/166 165/165/165
f 169/169/169 168/168/168 165/165/165
f 170/170/170 169/169/169 165/165/165
f 171/171/171 170/170/170 165/165/165
f 172/172/172 171/171/171 165/165/165
f 165/165/165 167/167/167 173/173/173
f 174/174/174 172/172/172 165/165/165
f 174/174/174 165/165/165 173/173/173
f 174/174/174 175/175/175 172/172/172
f 174/174/174 173/173/173 176/176/176
f 174/174/174 176/176/176 175/175/175
f 173/173/173 177/177/177 176/176/176
f 176/176/176 178/178/178 175/175/175
f 177/177/177 179/179/179 176/176/176
f 180/180/180 178/178/178 176/176/176
f 179/179/179 180/180/180 176/176/176
f 183/183/183 182/182/182 181/181/181
f 182/182/182 184/184/184 181/181/181
f 182/182/182 185/185/185 184/184/184
f 185/185/185 186/186/186 184/184/184
f 185/185/185 187/187/187 186/186/186
f 187/187/187 188/188/188 186/186/186
