g flame02_geo
v 0.07039513 -0.1805762 0.010000018
v 0.078218 -0.18403049 0.010000018
v 0.078175314 -0.18442866 -0.009999982
v 0.068718486 -0.18556473 -0.0137177585
v 0.051077347 -0.16667202 -0.016197173
v 0.053729817 -0.15834719 0.010000007
v 0.037123527 -0.15568542 0.009999995
v 0.037117116 -0.15792361 -0.012201068
v 0.02521614 -0.15740252 0.009999997
v 0.025233077 -0.16164452 -0.01274482
v 0.013322448 -0.16392799 -0.017669132
v 0.016357994 -0.15670256 0.010000003
v 0.008165436 -0.15059158 0.010000007
v 0.006173935 -0.15468428 -0.015038595
v -0.0034189606 -0.15323992 -0.015899422
v -0.0018314361 -0.14762175 0.010000009
v -0.00846321 -0.14635724 0.010000012
v -0.008883667 -0.14525495 -0.010052302
v -0.014645881 -0.14746794 -0.009999991
v -0.014765663 -0.14404003 0.010000012
v -0.014765663 -0.14404003 0.010000012
v -0.014645881 -0.14746794 -0.009999991
v -0.01330761 -0.13058233 -0.009999986
v -0.01359169 -0.13153253 0.010000009
v 0.00951229 0.08004683 0.010000012
v 0.009512252 0.08004687 -0.00999999
v 0.008874664 0.09615489 -0.009999988
v 0.008874664 0.09615493 0.010000014
v -0.10132143 0.122588836 0.010000012
v -0.10870466 0.12863395 0.010000014
v -0.10247745 0.1303501 0.01
v -0.09378526 0.12672941 0.010000003
v -0.068585835 0.10984305 0.010000009
v -0.084239885 0.13231024 0.009999983
v -0.066529885 0.11537654 0.009999997
v -0.07075783 0.13423216 0.009999971
v -0.05894594 0.13367175 0.009999966
v 0.0071879956 0.10886241 0.010000021
v -0.045317784 0.15222426 0.009999933
v 9.014129E-05 0.10467295 0.010000009
v -0.036015566 0.1596654 0.009999919
v 0.015817909 0.100671984 0.010000021
v 0.008874664 0.09615493 0.010000014
v 0.00951229 0.08004683 0.010000012
v 0.016601562 0.08522544 0.010000018
v -0.01359169 -0.13153253 0.010000009
v 0.06438083 0.16835059 0.01000005
v -0.030586585 0.1708044 0.009999905
v -0.008983536 0.1803189 0.009999931
v 0.06412517 0.17376712 0.010000043
v 0.00029212952 0.18440413 0.0099999355
v 0.06555641 0.14359133 0.0100000715
v 0.0705215 0.13612868 0.0100000715
v 0.06810097 0.12826426 0.0100000715
v 0.07106689 0.12099162 0.0100000715
v 0.07163586 0.11321273 0.0100000715
v -0.006984863 -0.13269824 0.010000014
v 0.02335926 -0.14083655 0.010000018
v -0.00846321 -0.14635724 0.010000012
v -0.014765663 -0.14404003 0.010000012
v -0.0018314361 -0.14762175 0.010000009
v 0.008165436 -0.15059158 0.010000007
v 0.016357994 -0.15670256 0.010000003
v 0.02521614 -0.15740252 0.009999997
v 0.037123527 -0.15568542 0.009999995
v 0.07401558 -0.15467548 0.010566849
v 0.053729817 -0.15834719 0.010000007
v 0.10268131 0.10380423 0.010000095
v 0.07039513 -0.1805762 0.010000018
v 0.08148597 -0.15354659 0.010000026
v 0.10884113 0.1016265 0.010000102
v 0.078218 -0.18403049 0.010000018
v 0.08155785 -0.152876 -0.009999973
v 0.078175314 -0.18442866 -0.009999982
v 0.078218 -0.18403049 0.010000018
v 0.08148597 -0.15354659 0.010000026
v 0.10884113 0.1016265 0.010000102
v 0.108765334 0.10414656 -0.009999905
v 0.008874664 0.09615493 0.010000014
v 0.008874664 0.09615489 -0.009999988
v 9.0103145E-05 0.10467295 -0.009999989
v 9.014129E-05 0.10467295 0.010000009
v -0.06858585 0.10984305 -0.009999994
v -0.068585835 0.10984305 0.010000009
v -0.101321444 0.122588836 -0.009999991
v -0.10132143 0.122588836 0.010000012
v -0.111646004 0.1302352 -0.009999988
v -0.10870466 0.12863395 0.010000014
v 0.07163586 0.11321273 0.0100000715
v 0.07416 0.12111426 -0.011255316
v 0.079114 0.11505114 -0.01401154
v 0.07106689 0.12099162 0.0100000715
v 0.072564505 0.12928396 -0.014893641
v 0.06810097 0.12826426 0.0100000715
v 0.07379459 0.13712645 -0.016651206
v 0.0705215 0.13612868 0.0100000715
v 0.07147278 0.14459941 -0.015841398
v 0.06555641 0.14359133 0.0100000715
v 0.065188594 0.16856407 -0.010494785
v 0.06438083 0.16835059 0.01000005
v 0.06412517 0.17376712 0.010000043
v 0.06444103 0.17371447 -0.009999959
v 0.108765334 0.10414656 -0.009999905
v 0.07163586 0.11321273 0.0100000715
v 0.079114 0.11505114 -0.01401154
v 0.10268131 0.10380423 0.010000095
v 0.10884113 0.1016265 0.010000102
v 0.06444103 0.17371447 -0.009999959
v 0.06412517 0.17376712 0.010000043
v 0.00029212952 0.18440413 0.0099999355
v 0.0017782593 0.18415645 -0.010000062
v -0.0063539883 0.18244582 -0.011784592
v 0.0017782593 0.18415645 -0.010000062
v 0.00029212952 0.18440413 0.0099999355
v -0.008983536 0.1803189 0.009999931
v -0.032683335 0.1730944 -0.013483193
v -0.030586585 0.1708044 0.009999905
v -0.036015566 0.1596654 0.009999919
v -0.03843412 0.16166213 -0.012280662
v -0.045317784 0.15222426 0.009999933
v -0.04770254 0.15448187 -0.013692145
v -0.058635004 0.13874362 -0.019191401
v -0.05894594 0.13367175 0.009999966
v -0.07075783 0.13423216 0.009999971
v -0.071000956 0.13775717 -0.015201838
v -0.084239885 0.13231024 0.009999983
v -0.08444185 0.13500755 -0.013168127
v -0.10240078 0.1348802 -0.01385782
v -0.10247745 0.1303501 0.01
v -0.10870466 0.12863395 0.010000014
v -0.111646004 0.1302352 -0.009999988
v 0.068718486 -0.18556473 -0.0137177585
v 0.078175314 -0.18442866 -0.009999982
v 0.08155785 -0.152876 -0.009999973
v 0.051077347 -0.16667202 -0.016197173
v 0.037117116 -0.15792361 -0.012201068
v 0.026514206 -0.13994057 -0.009999981
v 0.025233077 -0.16164452 -0.01274482
v 0.108765334 0.10414656 -0.009999905
v 0.013322448 -0.16392799 -0.017669132
v 0.079114 0.11505114 -0.01401154
v 0.006173935 -0.15468428 -0.015038595
v 0.009512252 0.08004687 -0.00999999
v 0.07416 0.12111426 -0.011255316
v -0.01330761 -0.13058233 -0.009999986
v -0.0034189606 -0.15323992 -0.015899422
v -0.008883667 -0.14525495 -0.010052302
v -0.014645881 -0.14746794 -0.009999991
v 0.008874664 0.09615489 -0.009999988
v 0.072564505 0.12928396 -0.014893641
v 0.07379459 0.13712645 -0.016651206
v 9.0103145E-05 0.10467295 -0.009999989
v 0.07147278 0.14459941 -0.015841398
v 0.065188594 0.16856407 -0.010494785
v -0.03843412 0.16166213 -0.012280662
v 0.06444103 0.17371447 -0.009999959
v -0.04770254 0.15448187 -0.013692145
v -0.032683335 0.1730944 -0.013483193
v -0.0063539883 0.18244582 -0.011784592
v 0.0017782593 0.18415645 -0.010000062
v -0.058635004 0.13874362 -0.019191401
v -0.06858585 0.10984305 -0.009999994
v -0.071000956 0.13775717 -0.015201838
v -0.08444185 0.13500755 -0.013168127
v -0.101321444 0.122588836 -0.009999991
v -0.10240078 0.1348802 -0.01385782
v -0.111646004 0.1302352 -0.009999988
vt 0.6582031 0.050689697
vt 0.66259766 0.050689697
vt 0.6621094 0.040618896
vt 0.6582031 0.040618896
vt 0.6484375 0.040618896
vt 0.64746094 0.050689697
vt 0.6411133 0.050689697
vt 0.64160156 0.040618896
vt 0.6357422 0.050689697
vt 0.6357422 0.040618896
vt 0.63183594 0.040618896
vt 0.63183594 0.050689697
vt 0.6274414 0.050689697
vt 0.6279297 0.040618896
vt 0.6245117 0.040618896
vt 0.6230469 0.050689697
vt 0.6196289 0.050689697
vt 0.6201172 0.040618896
vt 0.6171875 0.040618896
vt 0.61621094 0.050689697
vt 0.37231445 0.05557251
vt 0.37060547 0.06274414
vt 0.37890625 0.06274414
vt 0.37841797 0.05557251
vt 0.47998047 0.05557251
vt 0.47998047 0.06274414
vt 0.48754883 0.06274414
vt 0.48754883 0.05557251
vt 0.30566406 0.6357422
vt 0.30273438 0.6381836
vt 0.30517578 0.6386719
vt 0.3088379 0.63720703
vt 0.3190918 0.6303711
vt 0.31274414 0.63964844
vt 0.31982422 0.6328125
vt 0.31811523 0.640625
vt 0.3232422 0.6401367
vt 0.3540039 0.6298828
vt 0.32910156 0.6479492
vt 0.35107422 0.62841797
vt 0.3334961 0.6508789
vt 0.35766602 0.62646484
vt 0.35473633 0.625
vt 0.35498047 0.61816406
vt 0.35791016 0.6201172
vt 0.34399414 0.5307617
vt 0.37646484 0.6542969
vt 0.33569336 0.6557617
vt 0.34472656 0.65966797
vt 0.37646484 0.65625
vt 0.34887695 0.66064453
vt 0.3779297 0.64453125
vt 0.3798828 0.6411133
vt 0.37890625 0.6381836
vt 0.38012695 0.6352539
vt 0.3803711 0.63183594
vt 0.3466797 0.53027344
vt 0.35913086 0.52685547
vt 0.3461914 0.52490234
vt 0.34350586 0.5258789
vt 0.34887695 0.52441406
vt 0.35302734 0.5229492
vt 0.35620117 0.5205078
vt 0.36010742 0.52001953
vt 0.36499023 0.5209961
vt 0.3803711 0.5214844
vt 0.37158203 0.52001953
vt 0.39282227 0.6279297
vt 0.37841797 0.5107422
vt 0.38378906 0.52197266
vt 0.39624023 0.6269531
vt 0.38232422 0.50927734
vt 0.5107422 0.08117676
vt 0.49487305 0.08117676
vt 0.4951172 0.08868408
vt 0.5107422 0.08868408
vt 0.63916016 0.08874512
vt 0.6401367 0.08117676
vt 0.009017944 0.06793213
vt 0.009025574 0.07507324
vt 0.014884949 0.07507324
vt 0.014884949 0.06793213
vt 0.047729492 0.07507324
vt 0.047729492 0.06793213
vt 0.06451416 0.07507324
vt 0.06451416 0.06793213
vt 0.070617676 0.07507324
vt 0.06903076 0.06793213
vt 0.62890625 0.050689697
vt 0.63134766 0.040618896
vt 0.6274414 0.040618896
vt 0.63183594 0.050689697
vt 0.6352539 0.040618896
vt 0.6347656 0.050689697
vt 0.6381836 0.040618896
vt 0.6381836 0.050689697
vt 0.640625 0.040618896
vt 0.64160156 0.050689697
vt 0.65185547 0.040618896
vt 0.65234375 0.050689697
vt 0.65527344 0.050689697
vt 0.6542969 0.040618896
vt 0.61279297 0.040618896
vt 0.62890625 0.050689697
vt 0.6274414 0.040618896
vt 0.6152344 0.050689697
vt 0.6118164 0.050689697
vt 0.034454346 0.09338379
vt 0.03463745 0.10089111
vt 0.06707764 0.10089111
vt 0.06628418 0.09338379
vt 0.60791016 0.040618896
vt 0.6035156 0.040618896
vt 0.6040039 0.050689697
vt 0.6088867 0.050689697
vt 0.6201172 0.040618896
vt 0.6196289 0.050689697
vt 0.6254883 0.050689697
vt 0.62597656 0.040618896
vt 0.6303711 0.050689697
vt 0.63134766 0.040618896
vt 0.6386719 0.040618896
vt 0.63916016 0.050689697
vt 0.6435547 0.050689697
vt 0.6430664 0.040618896
vt 0.64941406 0.050689697
vt 0.6489258 0.040618896
vt 0.6557617 0.040618896
vt 0.6567383 0.050689697
vt 0.66015625 0.050689697
vt 0.66015625 0.040618896
vt 1.3798828 0.5102539
vt 1.3818359 0.50927734
vt 1.3828125 0.52197266
vt 1.3720703 0.5180664
vt 1.3652344 0.5209961
vt 1.3603516 0.52734375
vt 1.3603516 0.52001953
vt 1.3955078 0.6279297
vt 1.3564453 0.5209961
vt 1.3828125 0.63183594
vt 1.3525391 0.5229492
vt 1.3554688 0.61816406
vt 1.3808594 0.6347656
vt 1.34375 0.53125
vt 1.3486328 0.52441406
vt 1.3457031 0.5253906
vt 1.34375 0.52441406
vt 1.3544922 0.625
vt 1.3789062 0.6381836
vt 1.3789062 0.6411133
vt 1.3515625 0.62841797
vt 1.3779297 0.64453125
vt 1.3769531 0.65478516
vt 1.3330078 0.6513672
vt 1.3759766 0.6567383
vt 1.3291016 0.6479492
vt 1.3359375 0.65527344
vt 1.3457031 0.65966797
vt 1.3496094 0.6611328
vt 1.3242188 0.63964844
vt 1.3193359 0.6303711
vt 1.3183594 0.63964844
vt 1.3125 0.63964844
vt 1.3056641 0.6357422
vt 1.3056641 0.6386719
vt 1.3017578 0.6386719
vn -0.66064453 -0.7182617 0.21765137
vn -0.1586914 -0.9790039 0.12683105
vn -0.1586914 -0.9790039 0.12683105
vn -0.6796875 -0.69970703 0.22033691
vn -0.6376953 -0.7338867 0.23352051
vn -0.6040039 -0.76220703 0.23352051
vn -0.10253906 -0.97558594 0.19348145
vn -0.118774414 -0.9736328 0.19567871
vn 0.123046875 -0.9760742 0.17993164
vn 0.1081543 -0.9765625 0.18603516
vn -0.3955078 -0.8881836 0.23461914
vn -0.3647461 -0.9008789 0.23510742
vn -0.4753418 -0.8535156 0.21447754
vn -0.4855957 -0.84716797 0.21496582
vn -0.33032227 -0.9277344 0.17333984
vn -0.36889648 -0.91503906 0.16369629
vn -0.36254883 -0.9277344 0.090148926
vn -0.39331055 -0.9145508 0.0925293
vn -0.008369446 -0.9980469 0.058013916
vn -0.008369446 -0.9980469 0.058013916
vn -0.9560547 0.081726074 0.28198242
vn -0.99609375 0.08514404 -0.015335083
vn -0.9941406 0.10675049 -0.005153656
vn -0.93896484 0.10058594 0.32958984
vn -0.9008789 0.08850098 0.42529297
vn -0.9951172 0.09777832 -0.0041770935
vn -0.93408203 -0.35742188 1.3113022E-06
vn -0.8354492 -0.31958008 0.44702148
vn -0.4177246 -0.88671875 0.19873047
vn -0.6044922 -0.78222656 0.15136719
vn 9.536743E-07 1.7881393E-06 1
vn 7.748604E-07 1.66893E-06 1
vn -0.16894531 -0.9560547 0.23913574
vn 8.34465E-07 1.7285347E-06 1
vn -0 1.1920929E-06 1
vn 5.9604645E-07 1.5497208E-06 1
vn -1.1920929E-07 1.7881393E-06 1
vn -1.1920929E-06 7.748604E-07 1
vn -0 1.9073486E-06 1
vn -0.15966797 -0.9038086 0.39746094
vn -1.1920929E-06 1.1324883E-06 1
vn -7.748604E-07 -2.9802322E-07 1
vn -0.8354492 -0.31958008 0.44702148
vn -0.9008789 0.08850098 0.42529297
vn -6.556511E-07 0 1
vn -0.93896484 0.10058594 0.32958984
vn -1.3709068E-06 8.940697E-07 1
vn -1.4901161E-06 1.7881393E-06 1
vn -1.4901161E-06 8.34465E-07 1
vn 0.15612793 0.93652344 0.31347656
vn 0.08935547 0.9111328 0.40283203
vn -1.3113022E-06 7.748604E-07 1
vn -6.556511E-07 -3.5762787E-07 1
vn -7.748604E-07 -2.3841858E-07 1
vn -8.34465E-07 -2.3841858E-07 1
vn -0.004016876 0.0013017654 1
vn -6.556511E-07 0 1
vn -0.003522873 0.00097084045 1
vn -0 0 1
vn -0.9560547 0.081726074 0.28198242
vn 1.7881393E-07 -2.3841858E-07 1
vn -2.3841858E-07 -7.748604E-07 1
vn -1.7881393E-07 -8.34465E-07 1
vn 4.172325E-07 -1.2516975E-06 1
vn -0.013145447 -0.02279663 0.9995117
vn 8.8751316E-05 0.00044703484 1
vn -0.016952515 -0.02381897 0.9995117
vn -0.0011072159 0.001458168 1
vn 0.015213013 -0.015670776 1
vn 0.9296875 -0.09906006 0.35546875
vn 0.93847656 -0.099609375 0.3310547
vn 0.9580078 -0.105529785 0.26635742
vn 0.9941406 -0.10601807 -0.007659912
vn 0.9941406 -0.10656738 -3.5762787E-07
vn 0.9580078 -0.105529785 0.26635742
vn 0.9296875 -0.09906006 0.35546875
vn 0.93847656 -0.099609375 0.3310547
vn 0.9941406 -0.105895996 -0.008544922
vn -0.8354492 -0.31958008 0.44702148
vn -0.93408203 -0.35742188 1.3113022E-06
vn -0.17407227 -0.9848633 5.9604645E-07
vn -0.15966797 -0.9038086 0.39746094
vn -0.1739502 -0.9848633 3.5762787E-07
vn -0.16894531 -0.9560547 0.23913574
vn -0.42626953 -0.90478516 0.0032405853
vn -0.4177246 -0.88671875 0.19873047
vn -0.6118164 -0.7910156 0.013313293
vn -0.6044922 -0.78222656 0.15136719
vn 0.9189453 0.32128906 0.22851562
vn 0.92822266 0.3178711 0.19360352
vn 0.9189453 0.32128906 0.22851562
vn 0.92822266 0.31762695 0.19262695
vn 0.98828125 -0.020187378 0.15063477
vn 0.9868164 0.046844482 0.1541748
vn 0.9760742 0.14367676 0.16467285
vn 0.9794922 0.11968994 0.16345215
vn 0.9604492 0.23120117 0.15588379
vn 0.96484375 0.21386719 0.1541748
vn 0.98291016 0.12866211 0.13012695
vn 0.98339844 0.12780762 0.12756348
vn 0.9951172 0.09320068 0.02798462
vn 0.9951172 0.09320068 0.02798462
vn 0.30639648 0.94140625 0.14038086
vn 0.3059082 0.94140625 0.14086914
vn 0.3059082 0.94140625 0.14086914
vn 0.30737305 0.94140625 0.1394043
vn 0.3310547 0.93652344 0.116760254
vn 0.16442871 0.9863281 -5.4836273E-06
vn 0.15612793 0.93652344 0.31347656
vn 0.08935547 0.9111328 0.40283203
vn 0.10040283 0.9951172 0.0015687943
vn -0.3552246 0.9321289 0.06744385
vn 0.10040283 0.9951172 0.0015687943
vn 0.08935547 0.9111328 0.40283203
vn -0.3569336 0.9316406 0.07006836
vn -0.56933594 0.8154297 0.10614014
vn -0.5722656 0.8129883 0.10644531
vn -0.7734375 0.6191406 0.13562012
vn -0.7729492 0.6201172 0.13574219
vn -0.75878906 0.6401367 0.12005615
vn -0.7685547 0.62890625 0.11859131
vn -0.60009766 0.78759766 0.14001465
vn -0.5522461 0.82128906 0.14404297
vn -0.076049805 0.9868164 0.14233398
vn -0.06402588 0.9873047 0.14428711
vn -0.103515625 0.984375 0.14135742
vn -0.10534668 0.984375 0.14099121
vn -0.12915039 0.97998047 0.15307617
vn -0.14941406 0.9770508 0.15319824
vn -0.34326172 0.9267578 0.15197754
vn -0.34326172 0.9267578 0.15197754
vn 0.23205566 0.019454956 -0.97265625
vn 0.3696289 -0.039642334 -0.92822266
vn 0.04611206 -0.00674057 -0.99902344
vn 0.063964844 0.19042969 -0.9794922
vn 0.01914978 0.23327637 -0.97216797
vn 0.0041618347 -0.0015707016 -1
vn 0.23339844 0.10845947 -0.9663086
vn 0.04321289 -0.014564514 -0.99902344
vn 0.16442871 0.21716309 -0.96240234
vn 0.007865906 -0.0054244995 -1
vn 0.056518555 0.26489258 -0.96240234
vn -0.03387451 -0.0069732666 -0.9995117
vn -0.021224976 -0.041046143 -0.99902344
vn -0.03503418 0.0007452965 -0.9995117
vn 0.061584473 0.27661133 -0.9589844
vn -0.61816406 -0.18371582 -0.76416016
vn -0.009361267 0.00074243546 -1
vn 0.00868988 -0.13354492 -0.99121094
vn -0.00075149536 -0.12963867 -0.9916992
vn -0.06768799 -0.037017822 -0.9970703
vn -0.012191772 -0.010795593 -1
vn -0.034088135 0.024490356 -0.99902344
vn -0.026870728 0.025848389 -0.9995117
vn -0.005466461 0.009414673 -1
vn 0.016860962 0.07537842 -0.9970703
vn 0.091674805 -0.08886719 -0.9916992
vn 0.0362854 -0.09893799 -0.9946289
vn 0.036956787 0.09631348 -0.9946289
vn 0.08355713 0.50146484 -0.8613281
vn 0.06756592 -0.12524414 -0.9897461
vn 0.054626465 -0.13464355 -0.9892578
vn -0.20141602 -0.19628906 -0.95947266
vn -0.05154419 -0.19836426 -0.9790039
vn -0.04849243 -0.20727539 -0.9770508
vn -0.05621338 -0.21179199 -0.97558594
vn -0.22937012 -0.30981445 -0.92285156
g flame02_geo_0
f 3/3/3 2/2/2 1/1/1
f 4/4/4 3/3/3 1/1/1
f 4/4/4 1/1/1 5/5/5
f 1/1/1 6/6/6 5/5/5
f 5/5/5 6/6/6 7/7/7
f 8/8/8 5/5/5 7/7/7
f 8/8/8 7/7/7 9/9/9
f 10/10/10 8/8/8 9/9/9
f 10/10/10 9/9/9 11/11/11
f 9/9/9 12/12/12 11/11/11
f 11/11/11 12/12/12 13/13/13
f 14/14/14 11/11/11 13/13/13
f 14/14/14 13/13/13 15/15/15
f 13/13/13 16/16/16 15/15/15
f 15/15/15 16/16/16 17/17/17
f 18/18/18 15/15/15 17/17/17
f 18/18/18 17/17/17 19/19/19
f 17/17/17 20/20/20 19/19/19
f 23/23/23 22/22/22 21/21/21
f 24/24/24 23/23/23 21/21/21
f 24/24/24 25/25/25 23/23/23
f 25/25/25 26/26/26 23/23/23
f 27/27/27 26/26/26 25/25/25
f 28/28/28 27/27/27 25/25/25
f 31/31/31 30/30/30 29/29/29
f 32/32/32 31/31/31 29/29/29
f 29/29/29 33/33/33 32/32/32
f 31/31/31 32/32/32 34/34/34
f 33/33/33 35/35/35 32/32/32
f 32/32/32 35/35/35 34/34/34
f 35/35/35 36/36/36 34/34/34
f 35/35/35 37/37/37 36/36/36
f 37/37/37 35/35/35 38/38/38
f 39/39/39 37/37/37 38/38/38
f 33/33/33 40/40/40 35/35/35
f 40/40/40 38/38/38 35/35/35
f 41/41/41 39/39/39 38/38/38
f 38/38/38 40/40/40 42/42/42
f 40/40/40 43/43/43 42/42/42
f 42/42/42 43/43/43 44/44/44
f 45/45/45 42/42/42 44/44/44
f 45/45/45 44/44/44 46/46/46
f 41/41/41 38/38/38 47/47/47
f 48/48/48 41/41/41 47/47/47
f 48/48/48 47/47/47 49/49/49
f 47/47/47 50/50/50 49/49/49
f 50/50/50 51/51/51 49/49/49
f 38/38/38 52/52/52 47/47/47
f 38/38/38 53/53/53 52/52/52
f 53/53/53 38/38/38 42/42/42
f 54/54/54 53/53/53 42/42/42
f 54/54/54 42/42/42 45/45/45
f 55/55/55 54/54/54 45/45/45
f 56/56/56 55/55/55 45/45/45
f 57/57/57 45/45/45 46/46/46
f 58/58/58 56/56/56 45/45/45
f 57/57/57 58/58/58 45/45/45
f 57/57/57 46/46/46 59/59/59
f 46/46/46 60/60/60 59/59/59
f 57/57/57 59/59/59 61/61/61
f 57/57/57 61/61/61 62/62/62
f 57/57/57 62/62/62 63/63/63
f 58/58/58 57/57/57 63/63/63
f 58/58/58 63/63/63 64/64/64
f 58/58/58 64/64/64 65/65/65
f 58/58/58 66/66/66 56/56/56
f 58/58/58 65/65/65 66/66/66
f 65/65/65 67/67/67 66/66/66
f 66/66/66 68/68/68 56/56/56
f 67/67/67 69/69/69 66/66/66
f 66/66/66 70/70/70 68/68/68
f 66/66/66 69/69/69 70/70/70
f 70/70/70 71/71/71 68/68/68
f 69/69/69 72/72/72 70/70/70
f 75/75/75 74/74/74 73/73/73
f 76/76/76 75/75/75 73/73/73
f 76/76/76 73/73/73 77/77/77
f 73/73/73 78/78/78 77/77/77
f 81/81/81 80/80/80 79/79/79
f 82/82/82 81/81/81 79/79/79
f 83/83/83 81/81/81 82/82/82
f 84/84/84 83/83/83 82/82/82
f 85/85/85 83/83/83 84/84/84
f 86/86/86 85/85/85 84/84/84
f 87/87/87 85/85/85 86/86/86
f 88/88/88 87/87/87 86/86/86
f 91/91/91 90/90/90 89/89/89
f 90/90/90 92/92/92 89/89/89
f 90/90/90 93/93/93 92/92/92
f 93/93/93 94/94/94 92/92/92
f 93/93/93 95/95/95 94/94/94
f 95/95/95 96/96/96 94/94/94
f 95/95/95 97/97/97 96/96/96
f 97/97/97 98/98/98 96/96/96
f 98/98/98 97/97/97 99/99/99
f 100/100/100 98/98/98 99/99/99
f 100/100/100 99/99/99 101/101/101
f 99/99/99 102/102/102 101/101/101
f 105/105/105 104/104/104 103/103/103
f 104/104/104 106/106/106 103/103/103
f 106/106/106 107/107/107 103/103/103
f 110/110/110 109/109/109 108/108/108
f 111/111/111 110/110/110 108/108/108
f 114/114/114 113/113/113 112/112/112
f 115/115/115 114/114/114 112/112/112
f 115/115/115 112/112/112 116/116/116
f 117/117/117 115/115/115 116/116/116
f 118/118/118 117/117/117 116/116/116
f 119/119/119 118/118/118 116/116/116
f 120/120/120 118/118/118 119/119/119
f 121/121/121 120/120/120 119/119/119
f 120/120/120 121/121/121 122/122/122
f 123/123/123 120/120/120 122/122/122
f 124/124/124 123/123/123 122/122/122
f 125/125/125 124/124/124 122/122/122
f 126/126/126 124/124/124 125/125/125
f 127/127/127 126/126/126 125/125/125
f 126/126/126 127/127/127 128/128/128
f 129/129/129 126/126/126 128/128/128
f 130/130/130 129/129/129 128/128/128
f 131/131/131 130/130/130 128/128/128
f 134/134/134 133/133/133 132/132/132
f 134/134/134 132/132/132 135/135/135
f 134/134/134 135/135/135 136/136/136
f 137/137/137 134/134/134 136/136/136
f 137/137/137 136/136/136 138/138/138
f 139/139/139 134/134/134 137/137/137
f 137/137/137 138/138/138 140/140/140
f 141/141/141 139/139/139 137/137/137
f 137/137/137 140/140/140 142/142/142
f 141/141/141 137/137/137 143/143/143
f 144/144/144 141/141/141 143/143/143
f 137/137/137 142/142/142 145/145/145
f 137/137/137 145/145/145 143/143/143
f 142/142/142 146/146/146 145/145/145
f 146/146/146 147/147/147 145/145/145
f 147/147/147 148/148/148 145/145/145
f 144/144/144 143/143/143 149/149/149
f 150/150/150 144/144/144 149/149/149
f 150/150/150 149/149/149 151/151/151
f 149/149/149 152/152/152 151/151/151
f 153/153/153 151/151/151 152/152/152
f 154/154/154 153/153/153 152/152/152
f 155/155/155 154/154/154 152/152/152
f 155/155/155 156/156/156 154/154/154
f 157/157/157 155/155/155 152/152/152
f 155/155/155 158/158/158 156/156/156
f 158/158/158 159/159/159 156/156/156
f 159/159/159 160/160/160 156/156/156
f 161/161/161 157/157/157 152/152/152
f 162/162/162 161/161/161 152/152/152
f 163/163/163 161/161/161 162/162/162
f 164/164/164 163/163/163 162/162/162
f 164/164/164 162/162/162 165/165/165
f 166/166/166 164/164/164 165/165/165
f 167/167/167 166/166/166 165/165/165
