g flame07_geo
v -0.040241174 0.042881273 0.009999968
v -0.08558843 0.043900806 0.009999968
v -0.08490066 0.043907035 -0.010033211
v -0.040825322 0.043167137 -0.010277573
v 0.07104762 0.041948684 -0.011762875
v 0.069903456 0.039988074 0.009999968
v 0.07362585 0.034264136 0.009999971
v 0.069903456 0.039988074 0.009999968
v 0.07104762 0.041948684 -0.011762875
v 0.07405854 0.035203855 -0.010771986
v 0.08638223 0.020205328 -0.012623209
v 0.083219185 0.019036667 0.009999988
v 0.0877929 0.0153648015 -0.011227966
v 0.0845417 0.015271642 0.009999989
v 0.08402906 0.012018039 0.009999989
v 0.084917724 0.011981837 -0.010576611
v 0.08558843 0.005354163 0.0099999895
v 0.0867581 0.005227038 -0.011513694
v 0.08194883 -0.0028302555 0.00999999
v 0.083149716 -0.003619278 -0.010971261
v 0.075753324 -0.008844635 0.00999999
v 0.07739874 -0.0096903425 -0.011980446
v 0.07477768 -0.017481396 0.00999999
v 0.07640367 -0.018092362 -0.0118199475
v 0.070049934 -0.024200859 0.00999999
v 0.072292134 -0.024733378 -0.012770391
v 0.07185516 -0.03835764 0.0100000035
v 0.07573495 -0.037393272 -0.011161949
v 0.07472378 -0.044139426 -0.010251923
v 0.072561994 -0.043900806 0.010000005
v 0.07185516 -0.03835764 0.0100000035
v 0.072561994 -0.043900806 0.010000005
v -0.029879069 -0.042435158 0.010000032
v -0.03499149 -0.036769595 0.010000029
v 0.070049934 -0.024200859 0.00999999
v -0.04778586 -0.022590918 0.010000012
v -0.040091965 -0.010028765 0.010000003
v 0.07477768 -0.017481396 0.00999999
v -0.05570279 -0.017734513 0.010000007
v -0.062203538 -0.010804989 0.009999999
v 0.075753324 -0.008844635 0.00999999
v -0.038390566 0.0112357065 0.009999983
v 0.07235478 0.01348264 0.009999977
v -0.03975418 0.03782299 0.009999974
v -0.070985585 -0.0069728927 0.009999996
v 0.08194883 -0.0028302555 0.00999999
v -0.07741283 -0.0019885188 0.00999999
v 0.08558843 0.005354163 0.0099999895
v -0.07704998 0.0039534345 0.009999986
v -0.073438756 0.010524599 0.009999986
v -0.074004546 0.017399909 0.009999984
v -0.07215947 0.024585864 0.009999984
v -0.07509427 0.030862886 0.009999984
v -0.083327405 0.03851277 0.009999974
v -0.08558843 0.043900806 0.009999968
v -0.040241174 0.042881273 0.009999968
v 0.069903456 0.039988074 0.009999968
v 0.07362585 0.034264136 0.009999971
v 0.08402906 0.012018039 0.009999989
v 0.083219185 0.019036667 0.009999988
v 0.0845417 0.015271642 0.009999989
v 0.072561994 -0.043900806 0.010000005
v 0.07472378 -0.044139426 -0.010251923
v -0.0364788 -0.043231335 -0.01070717
v -0.029879069 -0.042435158 0.010000032
v -0.08249201 0.0401101 -0.01021869
v -0.08490066 0.043907035 -0.010033211
v -0.08558843 0.043900806 0.009999968
v -0.083327405 0.03851277 0.009999974
v -0.07509427 0.030862886 0.009999984
v -0.075800866 0.030405099 -0.011288265
v -0.074912086 0.02432385 -0.011579233
v -0.07215947 0.024585864 0.009999984
v -0.074004546 0.017399909 0.009999984
v -0.075411804 0.017545916 -0.012466999
v -0.0769841 0.011149347 -0.012304097
v -0.073438756 0.010524599 0.009999986
v -0.07704998 0.0039534345 0.009999986
v -0.080746904 0.004020907 -0.010839862
v -0.081289336 -0.002201007 -0.010931621
v -0.07741283 -0.0019885188 0.00999999
v -0.070985585 -0.0069728927 0.009999996
v -0.07537527 -0.007904771 -0.011372929
v -0.06393311 -0.013025691 -0.012634235
v -0.062203538 -0.010804989 0.009999999
v -0.05570279 -0.017734513 0.010000007
v -0.06003144 -0.019150302 -0.010154678
v -0.052990254 -0.024800582 -0.011781935
v -0.04778586 -0.022590918 0.010000012
v -0.040496483 -0.03780134 -0.01008895
v -0.03499149 -0.036769595 0.010000029
v -0.0364788 -0.043231335 -0.01070717
v -0.029879069 -0.042435158 0.010000032
v -0.040825322 0.043167137 -0.010277573
v -0.08490066 0.043907035 -0.010033211
v -0.08249201 0.0401101 -0.01021869
v -0.075800866 0.030405099 -0.011288265
v -0.039974544 0.009926034 -0.010843996
v -0.074912086 0.02432385 -0.011579233
v -0.075411804 0.017545916 -0.012466999
v -0.0769841 0.011149347 -0.012304097
v -0.080746904 0.004020907 -0.010839862
v -0.081289336 -0.002201007 -0.010931621
v -0.07537527 -0.007904771 -0.011372929
v -0.06393311 -0.013025691 -0.012634235
v 0.0733124 0.012766358 -0.013123201
v 0.07104762 0.041948684 -0.011762875
v 0.07405854 0.035203855 -0.010771986
v 0.08638223 0.020205328 -0.012623209
v 0.0877929 0.0153648015 -0.011227966
v 0.084917724 0.011981837 -0.010576611
v 0.0867581 0.005227038 -0.011513694
v 0.083149716 -0.003619278 -0.010971261
v 0.07739874 -0.0096903425 -0.011980446
v -0.039434552 -0.010830641 -0.011386858
v -0.06003144 -0.019150302 -0.010154678
v 0.07640367 -0.018092362 -0.0118199475
v 0.072292134 -0.024733378 -0.012770391
v -0.052990254 -0.024800582 -0.011781935
v 0.07573495 -0.037393272 -0.011161949
v -0.040496483 -0.03780134 -0.01008895
v -0.0364788 -0.043231335 -0.01070717
v 0.07472378 -0.044139426 -0.010251923
vt 0.12475586 0.05557251
vt 0.10308838 0.05557251
vt 0.10345459 0.06274414
vt 0.12445068 0.06274414
vt 0.17736816 0.06274414
vt 0.1772461 0.05557251
vt 0.6743164 0.050689697
vt 0.6772461 0.050689697
vt 0.67822266 0.040618896
vt 0.6743164 0.040618896
vt 0.66552734 0.040618896
vt 0.66552734 0.050689697
vt 0.6635742 0.040618896
vt 0.6635742 0.050689697
vt 0.6616211 0.050689697
vt 0.6616211 0.040618896
vt 0.6582031 0.050689697
vt 0.6582031 0.040618896
vt 0.6538086 0.050689697
vt 0.6533203 0.040618896
vt 0.64941406 0.050689697
vt 0.64941406 0.040618896
vt 0.6455078 0.050689697
vt 0.64501953 0.040618896
vt 0.64160156 0.050689697
vt 0.64160156 0.040618896
vt 0.6347656 0.050689697
vt 0.6357422 0.040618896
vt 0.6323242 0.040618896
vt 0.6323242 0.050689697
vt 0.22729492 0.43652344
vt 0.22766113 0.43432617
vt 0.18554688 0.43481445
vt 0.18347168 0.43725586
vt 0.2265625 0.4423828
vt 0.17822266 0.4428711
vt 0.18139648 0.4482422
vt 0.22851562 0.44506836
vt 0.17492676 0.44506836
vt 0.17224121 0.4477539
vt 0.22888184 0.44873047
vt 0.18200684 0.45703125
vt 0.22753906 0.45776367
vt 0.18151855 0.46777344
vt 0.16870117 0.4494629
vt 0.23144531 0.45117188
vt 0.16601562 0.45141602
vt 0.23303223 0.45458984
vt 0.1661377 0.45385742
vt 0.16760254 0.45654297
vt 0.16748047 0.45947266
vt 0.16821289 0.46240234
vt 0.16699219 0.4650879
vt 0.16357422 0.46826172
vt 0.16271973 0.47045898
vt 0.18127441 0.4699707
vt 0.2265625 0.46875
vt 0.22802734 0.4663086
vt 0.23242188 0.4572754
vt 0.23205566 0.46020508
vt 0.23254395 0.4584961
vt 0.2253418 0.08868408
vt 0.22631836 0.08117676
vt 0.17089844 0.08117676
vt 0.17407227 0.08868408
vt 0.6176758 0.040618896
vt 0.6152344 0.040618896
vt 0.6147461 0.050689697
vt 0.6176758 0.050689697
vt 0.6230469 0.050689697
vt 0.62353516 0.040618896
vt 0.62646484 0.040618896
vt 0.62646484 0.050689697
vt 0.6298828 0.050689697
vt 0.6298828 0.040618896
vt 0.6328125 0.040618896
vt 0.6333008 0.050689697
vt 0.63720703 0.050689697
vt 0.63671875 0.040618896
vt 0.63964844 0.040618896
vt 0.6401367 0.050689697
vt 0.64404297 0.050689697
vt 0.6435547 0.040618896
vt 0.6489258 0.040618896
vt 0.6489258 0.050689697
vt 0.6533203 0.050689697
vt 0.65234375 0.040618896
vt 0.6567383 0.040618896
vt 0.65771484 0.050689697
vt 0.66552734 0.040618896
vt 0.6669922 0.050689697
vt 0.6689453 0.040618896
vt 0.67089844 0.050689697
vt 1.1806641 0.4699707
vt 1.1630859 0.47045898
vt 1.1640625 0.46899414
vt 1.1669922 0.4650879
vt 1.1816406 0.45629883
vt 1.1679688 0.46240234
vt 1.1679688 0.45947266
vt 1.1669922 0.4567871
vt 1.1650391 0.45385742
vt 1.1650391 0.45166016
vt 1.1669922 0.4494629
vt 1.171875 0.4477539
vt 1.2275391 0.45751953
vt 1.2265625 0.46875
vt 1.2275391 0.46655273
vt 1.2324219 0.46020508
vt 1.2333984 0.4584961
vt 1.2324219 0.4572754
vt 1.2324219 0.45458984
vt 1.2314453 0.45117188
vt 1.2294922 0.44848633
vt 1.1816406 0.4477539
vt 1.1728516 0.44458008
vt 1.2285156 0.44506836
vt 1.2265625 0.4423828
vt 1.1767578 0.4423828
vt 1.2285156 0.43701172
vt 1.1816406 0.43676758
vt 1.1826172 0.43481445
vt 1.2285156 0.43432617
vn 0.018356323 0.9614258 0.2746582
vn 0.019317627 0.98046875 0.19543457
vn 0.019683838 1 0.007293701
vn 0.019088745 0.99902344 0.040496826
vn 0.018844604 0.99853516 0.053588867
vn 0.017547607 0.9296875 0.36816406
vn 0.8276367 0.5541992 0.087402344
vn 0.87597656 0.47827148 0.06506348
vn 0.87597656 0.47827148 0.06506348
vn 0.82910156 0.5527344 0.08685303
vn 0.83740234 0.5366211 0.105163574
vn 0.83935547 0.5336914 0.10583496
vn 0.9897461 0.045318604 0.13439941
vn 0.99121094 -0.013053894 0.13061523
vn 0.9980469 0.0019569397 0.064453125
vn 0.9980469 0.00013840199 0.064575195
vn 0.9902344 -0.12695312 0.056915283
vn 0.9892578 -0.1361084 0.05706787
vn 0.83154297 -0.55126953 0.06762695
vn 0.82958984 -0.5541992 0.06774902
vn 0.89990234 -0.42871094 0.08013916
vn 0.90527344 -0.41748047 0.080200195
vn 0.9375 -0.33813477 0.08416748
vn 0.9345703 -0.34545898 0.08428955
vn 0.98779297 -0.087524414 0.12719727
vn 0.98828125 -0.08581543 0.12731934
vn 0.98095703 0.13452148 0.14001465
vn 0.9794922 0.14453125 0.13952637
vn 0.9892578 -0.013832092 0.14404297
vn 0.9892578 -0.013832092 0.14404297
vn 2.3841858E-07 1.013279E-06 1
vn -0.010826111 -0.9692383 0.2454834
vn -0.010520935 -0.9423828 0.33447266
vn 2.3841858E-07 1.1324883E-06 1
vn 1.7881393E-07 8.34465E-07 1
vn 1.7881393E-07 8.34465E-07 1
vn -0 6.556511E-07 1
vn 1.1920929E-07 2.3841858E-07 1
vn -1.1920929E-07 9.536743E-07 1
vn -1.1920929E-07 8.34465E-07 1
vn -0 5.9604645E-07 1
vn -0 5.364418E-07 1
vn -0 5.364418E-07 1
vn -0 4.7683716E-07 1
vn -0 8.34465E-07 1
vn -5.9604645E-07 4.7683716E-07 1
vn -1.1920929E-07 8.940697E-07 1
vn -7.1525574E-07 3.5762787E-07 1
vn -0 5.9604645E-07 1
vn -0 0 1
vn -0 1.1920929E-07 1
vn -0 0 1
vn 1.1920929E-07 7.748604E-07 1
vn -0 1.1324883E-06 1
vn 0.019317627 0.98046875 0.19543457
vn 0.018356323 0.9614258 0.2746582
vn 0.017547607 0.9296875 0.36816406
vn -0 4.172325E-07 1
vn -9.536743E-07 0 1
vn -1.1324883E-06 2.9802322E-07 1
vn -9.536743E-07 0 1
vn -0.010826111 -0.9692383 0.2454834
vn -0.011161804 -0.9995117 0.02645874
vn -0.011161804 -0.9995117 0.02645874
vn -0.010520935 -0.9423828 0.33447266
vn -0.8027344 -0.59521484 -0.029785156
vn -0.890625 -0.45166016 -0.051696777
vn -0.890625 -0.45166016 -0.051696777
vn -0.8022461 -0.5961914 -0.029632568
vn -0.84716797 -0.5307617 0.017852783
vn -0.8520508 -0.5229492 0.020202637
vn -0.9951172 -0.043121338 0.090026855
vn -0.9941406 -0.056793213 0.089782715
vn -0.98779297 0.118774414 0.1015625
vn -0.98779297 0.11730957 0.10192871
vn -0.9477539 0.2890625 0.1352539
vn -0.9448242 0.2980957 0.13623047
vn -0.93359375 0.31713867 0.16687012
vn -0.93408203 0.3161621 0.16687012
vn -0.87939453 -0.44213867 0.17797852
vn -0.8691406 -0.46166992 0.17687988
vn -0.49291992 -0.86035156 0.13122559
vn -0.5097656 -0.85009766 0.13305664
vn -0.56347656 -0.81396484 0.140625
vn -0.57958984 -0.8022461 0.14245605
vn -0.6621094 -0.7265625 0.18286133
vn -0.6821289 -0.7084961 0.18017578
vn -0.6635742 -0.71435547 0.2220459
vn -0.671875 -0.7060547 0.22399902
vn -0.7246094 -0.64697266 0.23791504
vn -0.7260742 -0.64501953 0.23876953
vn -0.74121094 -0.62353516 0.2479248
vn -0.74121094 -0.62353516 0.2479248
vn -0.012184143 0.029266357 -0.9995117
vn -0.0047683716 0.045776367 -0.99902344
vn -0.007160187 0.078430176 -0.9970703
vn 0.012023926 0.054718018 -0.99853516
vn -0.011230469 0.012435913 -1
vn 0.055511475 0.08392334 -0.9951172
vn 0.056121826 0.048614502 -0.9970703
vn 0.0340271 -0.14990234 -0.98828125
vn 0.010139465 -0.070739746 -0.9975586
vn -0.009277344 0.03881836 -0.99902344
vn -0.028823853 0.08673096 -0.99560547
vn -0.005886078 0.03668213 -0.9995117
vn -0.0129776 0.010673523 -1
vn -0.015625 0.030136108 -0.9995117
vn 0.2331543 0.093688965 -0.96777344
vn 0.016906738 0.03744507 -0.99902344
vn 0.16992188 -0.25219727 -0.9526367
vn 0.21350098 -0.012313843 -0.9770508
vn 0.10223389 -0.029968262 -0.9941406
vn 0.1505127 -0.039398193 -0.98779297
vn -0.007499695 -0.01574707 -1
vn -0.0056648254 0.019851685 -1
vn 0.0018863678 -0.15112305 -0.98828125
vn -0.0042304993 0.03668213 -0.9995117
vn -0.0061149597 -0.03515625 -0.9995117
vn -0.012931824 -0.032073975 -0.9995117
vn -0.006450653 -0.09777832 -0.9951172
vn -0.007381439 -0.11633301 -0.99316406
vn -0.0027694702 -0.024642944 -0.9995117
vn -0.0027694702 -0.024642944 -0.9995117
g flame07_geo_0
f 3/3/3 2/2/2 1/1/1
f 4/4/4 3/3/3 1/1/1
f 4/4/4 1/1/1 5/5/5
f 1/1/1 6/6/6 5/5/5
f 9/9/9 8/8/8 7/7/7
f 10/10/10 9/9/9 7/7/7
f 11/11/11 10/10/10 7/7/7
f 12/12/12 11/11/11 7/7/7
f 11/11/11 12/12/12 13/13/13
f 12/12/12 14/14/14 13/13/13
f 13/13/13 14/14/14 15/15/15
f 16/16/16 13/13/13 15/15/15
f 16/16/16 15/15/15 17/17/17
f 18/18/18 16/16/16 17/17/17
f 17/17/17 19/19/19 18/18/18
f 19/19/19 20/20/20 18/18/18
f 20/20/20 19/19/19 21/21/21
f 22/22/22 20/20/20 21/21/21
f 22/22/22 21/21/21 23/23/23
f 24/24/24 22/22/22 23/23/23
f 23/23/23 25/25/25 24/24/24
f 25/25/25 26/26/26 24/24/24
f 26/26/26 25/25/25 27/27/27
f 28/28/28 26/26/26 27/27/27
f 28/28/28 27/27/27 29/29/29
f 27/27/27 30/30/30 29/29/29
f 33/33/33 32/32/32 31/31/31
f 34/34/34 33/33/33 31/31/31
f 34/34/34 31/31/31 35/35/35
f 36/36/36 34/34/34 35/35/35
f 37/37/37 36/36/36 35/35/35
f 38/38/38 37/37/37 35/35/35
f 37/37/37 39/39/39 36/36/36
f 37/37/37 40/40/40 39/39/39
f 38/38/38 41/41/41 37/37/37
f 37/37/37 42/42/42 40/40/40
f 37/37/37 41/41/41 42/42/42
f 41/41/41 43/43/43 42/42/42
f 42/42/42 43/43/43 44/44/44
f 42/42/42 45/45/45 40/40/40
f 46/46/46 43/43/43 41/41/41
f 42/42/42 47/47/47 45/45/45
f 43/43/43 46/46/46 48/48/48
f 42/42/42 49/49/49 47/47/47
f 42/42/42 50/50/50 49/49/49
f 42/42/42 51/51/51 50/50/50
f 42/42/42 52/52/52 51/51/51
f 42/42/42 53/53/53 52/52/52
f 42/42/42 44/44/44 53/53/53
f 44/44/44 54/54/54 53/53/53
f 55/55/55 54/54/54 44/44/44
f 56/56/56 55/55/55 44/44/44
f 57/57/57 56/56/56 44/44/44
f 58/58/58 57/57/57 44/44/44
f 43/43/43 58/58/58 44/44/44
f 43/43/43 48/48/48 59/59/59
f 43/43/43 60/60/60 58/58/58
f 43/43/43 59/59/59 60/60/60
f 59/59/59 61/61/61 60/60/60
f 64/64/64 63/63/63 62/62/62
f 65/65/65 64/64/64 62/62/62
f 68/68/68 67/67/67 66/66/66
f 69/69/69 68/68/68 66/66/66
f 69/69/69 66/66/66 70/70/70
f 66/66/66 71/71/71 70/70/70
f 70/70/70 71/71/71 72/72/72
f 73/73/73 70/70/70 72/72/72
f 73/73/73 72/72/72 74/74/74
f 72/72/72 75/75/75 74/74/74
f 74/74/74 75/75/75 76/76/76
f 77/77/77 74/74/74 76/76/76
f 77/77/77 76/76/76 78/78/78
f 76/76/76 79/79/79 78/78/78
f 78/78/78 79/79/79 80/80/80
f 81/81/81 78/78/78 80/80/80
f 81/81/81 80/80/80 82/82/82
f 80/80/80 83/83/83 82/82/82
f 82/82/82 83/83/83 84/84/84
f 85/85/85 82/82/82 84/84/84
f 85/85/85 84/84/84 86/86/86
f 84/84/84 87/87/87 86/86/86
f 86/86/86 87/87/87 88/88/88
f 89/89/89 86/86/86 88/88/88
f 89/89/89 88/88/88 90/90/90
f 91/91/91 89/89/89 90/90/90
f 91/91/91 90/90/90 92/92/92
f 93/93/93 91/91/91 92/92/92
f 96/96/96 95/95/95 94/94/94
f 97/97/97 96/96/96 94/94/94
f 97/97/97 94/94/94 98/98/98
f 98/98/98 99/99/99 97/97/97
f 98/98/98 100/100/100 99/99/99
f 98/98/98 101/101/101 100/100/100
f 98/98/98 102/102/102 101/101/101
f 98/98/98 103/103/103 102/102/102
f 98/98/98 104/104/104 103/103/103
f 98/98/98 105/105/105 104/104/104
f 98/98/98 94/94/94 106/106/106
f 94/94/94 107/107/107 106/106/106
f 106/106/106 107/107/107 108/108/108
f 106/106/106 108/108/108 109/109/109
f 106/106/106 109/109/109 110/110/110
f 106/106/106 110/110/110 111/111/111
f 106/106/106 111/111/111 112/112/112
f 106/106/106 112/112/112 113/113/113
f 106/106/106 113/113/113 114/114/114
f 98/98/98 106/106/106 114/114/114
f 98/98/98 115/115/115 105/105/105
f 115/115/115 98/98/98 114/114/114
f 116/116/116 105/105/105 115/115/115
f 115/115/115 114/114/114 117/117/117
f 115/115/115 117/117/117 118/118/118
f 119/119/119 116/116/116 115/115/115
f 119/119/119 115/115/115 118/118/118
f 119/119/119 118/118/118 120/120/120
f 121/121/121 119/119/119 120/120/120
f 121/121/121 120/120/120 122/122/122
f 120/120/120 123/123/123 122/122/122
