g flame00_geo
v -0.008934941 -0.09987632 -0.009999971
v -0.009524445 -0.09769852 0.010000029
v 0.0017173147 -0.09452305 0.010000011
v 0.001377387 -0.0952441 -0.00999999
v 0.014978099 -0.09802242 -0.01
v 0.014940352 -0.09402225 0.009999999
v 0.028508944 -0.09462348 -0.010000012
v 0.028422408 -0.09210033 0.009999986
v 0.04140241 -0.0928947 0.009999982
v 0.047101013 -0.09628429 -0.010000018
v 0.052892335 -0.083741225 -0.010000033
v 0.046453144 -0.083246194 0.009999966
v 0.05735858 -0.07443058 -0.01000005
v 0.053862434 -0.07410827 0.00999995
v 0.066986494 -0.06602588 -0.010000067
v 0.063164644 -0.066667095 0.009999937
v 0.07370157 -0.05618923 -0.010000084
v 0.06859363 -0.055528145 0.009999922
v 0.095132574 -0.045987967 -0.010000057
v 0.09019671 -0.046013642 0.009999944
v 0.10550279 -0.042176094 -0.010000047
v 0.09947229 -0.041928444 0.009999949
v -0.093835525 0.015656814 -0.009999983
v -0.09084829 0.009159317 0.010000029
v -0.09111704 0.00945488 -0.009999971
v -0.09159767 0.016576461 0.010000025
v -0.092572 0.020995216 0.01000002
v -0.09569517 0.020962752 -0.009999988
v -0.0975552 0.02499199 -0.009999969
v -0.09477249 0.025876006 0.01000003
v -0.0976156 0.033299293 0.010000044
v -0.10120159 0.033420715 -0.009999948
v -0.10118608 0.039810143 -0.00999994
v -0.10038952 0.039688606 0.010000052
v -0.10225361 0.048317183 -0.009999928
v -0.099738516 0.048341103 0.010000068
v -0.10042236 0.057009503 -0.009999915
v -0.10095846 0.057029646 0.010000081
v -0.100675926 0.06544761 -0.009999901
v -0.09854065 0.06550789 0.010000097
v -0.1022089 0.0741365 -0.009999889
v -0.0985228 0.07400993 0.010000111
v -0.094148636 0.0929084 0.010000137
v -0.0950676 0.09298523 -0.0099998675
v -0.0934745 0.09769852 -0.009999862
v -0.092668585 0.0973127 0.01000014
v 0.095132574 -0.045987967 -0.010000057
v 0.10550279 -0.042176094 -0.010000047
v 0.05902242 -0.035188027 -0.010000119
v 0.07370157 -0.05618923 -0.010000084
v 0.066986494 -0.06602588 -0.010000067
v 0.05735858 -0.07443058 -0.01000005
v 0.052892335 -0.083741225 -0.010000033
v 0.032002024 -0.02906597 -0.010000124
v 0.047101013 -0.09628429 -0.010000018
v 0.028508944 -0.09462348 -0.010000012
v 0.014978099 -0.09802242 -0.01
v 0.001377387 -0.0952441 -0.00999999
v -0.008934941 -0.09987632 -0.009999971
v 0.013344397 -0.016149215 -0.010000133
v -0.029365925 -0.081452824 -0.009999971
v -0.055048965 -0.044938277 -0.009999976
v -0.0046254587 0.00929718 -0.010000143
v -0.07504431 -0.008224602 -0.009999971
v -0.027559914 0.043651044 -0.0100001525
v -0.093835525 0.015656814 -0.009999983
v -0.09111704 0.00945488 -0.009999971
v -0.09569517 0.020962752 -0.009999988
v -0.0975552 0.02499199 -0.009999969
v -0.05441397 0.071815334 -0.01
v -0.10120159 0.033420715 -0.009999948
v -0.10118608 0.039810143 -0.00999994
v -0.10225361 0.048317183 -0.009999928
v -0.10042236 0.057009503 -0.009999915
v -0.100675926 0.06544761 -0.009999901
v -0.1022089 0.0741365 -0.009999889
v -0.090055026 0.0905471 -0.009999856
v -0.0950676 0.09298523 -0.0099998675
v -0.08755222 0.094863355 -0.009999847
v -0.0934745 0.09769852 -0.009999862
v 0.10550279 -0.042176094 -0.010000047
v 0.09947229 -0.041928444 0.009999949
v 0.05902242 -0.035188027 0.009999881
v 0.05902242 -0.035188027 -0.010000119
v 0.032002024 -0.02906597 0.009999876
v 0.032002024 -0.02906597 -0.010000124
v 0.013344397 -0.016149215 -0.010000133
v 0.013344397 -0.016149215 0.009999867
v -0.0046254587 0.00929718 0.009999856
v -0.0046254587 0.00929718 -0.010000143
v -0.027559914 0.043651044 0.009999847
v -0.027559914 0.043651044 -0.0100001525
v -0.05441397 0.071815334 0.01
v -0.05441397 0.071815334 -0.01
v -0.08755222 0.094863355 0.0100001525
v -0.08755222 0.094863355 -0.009999847
v -0.092668585 0.0973127 0.01000014
v -0.0934745 0.09769852 -0.009999862
v -0.009524445 -0.09769852 0.010000029
v -0.008934941 -0.09987632 -0.009999971
v -0.029365925 -0.081452824 -0.009999971
v -0.029365925 -0.081452824 0.010000029
v -0.055048965 -0.044938277 0.010000024
v -0.055048965 -0.044938277 -0.009999976
v -0.07504431 -0.008224602 -0.009999971
v -0.07504431 -0.008224602 0.010000029
v -0.09111704 0.00945488 -0.009999971
v -0.09084829 0.009159317 0.010000029
v 0.028422408 -0.09210033 0.009999986
v 0.014940352 -0.09402225 0.009999999
v 0.029859023 -0.033985212 0.009999886
v 0.04140241 -0.0928947 0.009999982
v 0.0017173147 -0.09452305 0.010000011
v 0.046453144 -0.083246194 0.009999966
v 0.057011656 -0.040600013 0.00999989
v 0.053862434 -0.07410827 0.00999995
v 0.063164644 -0.066667095 0.009999937
v 0.06859363 -0.055528145 0.009999922
v 0.09019671 -0.046013642 0.009999944
v 0.09947229 -0.041928444 0.009999949
v 0.05902242 -0.035188027 0.009999881
v 0.032002024 -0.02906597 0.009999876
v 0.013344397 -0.016149215 0.009999867
v -0.008068032 -0.092088774 0.0100000175
v -0.009524445 -0.09769852 0.010000029
v 0.010530963 -0.020450974 0.009999877
v -0.026489338 -0.077054515 0.0100000175
v -0.029365925 -0.081452824 0.010000029
v -0.055048965 -0.044938277 0.010000024
v -0.05165293 -0.041285478 0.010000012
v -0.07504431 -0.008224602 0.010000029
v -0.00794703 0.0057245633 0.0099998675
v -0.0046254587 0.00929718 0.009999856
v -0.03068789 0.040233877 0.009999859
v -0.027559914 0.043651044 0.009999847
v -0.05441397 0.071815334 0.01
v -0.07184614 -0.0047307205 0.010000017
v -0.09084829 0.009159317 0.010000029
v -0.09159767 0.016576461 0.010000025
v -0.092572 0.020995216 0.01000002
v -0.09477249 0.025876006 0.01000003
v -0.05737332 0.068303145 0.010000003
v -0.0976156 0.033299293 0.010000044
v -0.10038952 0.039688606 0.010000052
v -0.099738516 0.048341103 0.010000068
v -0.10095846 0.057029646 0.010000081
v -0.09854065 0.06550789 0.010000097
v -0.08755222 0.094863355 0.0100001525
v -0.0985228 0.07400993 0.010000111
v -0.090084605 0.091153026 0.010000145
v -0.092668585 0.0973127 0.01000014
v -0.094148636 0.0929084 0.010000137
vt 0.62890625 0.040618896
vt 0.62890625 0.050689697
vt 0.6347656 0.050689697
vt 0.6347656 0.040618896
vt 0.6411133 0.040618896
vt 0.6411133 0.050689697
vt 0.6479492 0.040618896
vt 0.6479492 0.050689697
vt 0.65478516 0.050689697
vt 0.65625 0.040618896
vt 0.6621094 0.040618896
vt 0.66015625 0.050689697
vt 0.6669922 0.040618896
vt 0.66552734 0.050689697
vt 0.67333984 0.040618896
vt 0.671875 0.050689697
vt 0.6791992 0.040618896
vt 0.6777344 0.050689697
vt 0.69140625 0.040618896
vt 0.6894531 0.050689697
vt 0.69677734 0.040618896
vt 0.69433594 0.050689697
vt 0.6645508 0.040618896
vt 0.66845703 0.050689697
vt 0.66845703 0.040618896
vt 0.6645508 0.050689697
vt 0.66259766 0.050689697
vt 0.6616211 0.040618896
vt 0.65966797 0.040618896
vt 0.65966797 0.050689697
vt 0.6557617 0.050689697
vt 0.65527344 0.040618896
vt 0.65185547 0.040618896
vt 0.65234375 0.050689697
vt 0.6479492 0.040618896
vt 0.6479492 0.050689697
vt 0.6435547 0.040618896
vt 0.6435547 0.050689697
vt 0.63916016 0.040618896
vt 0.63916016 0.050689697
vt 0.6347656 0.040618896
vt 0.6347656 0.050689697
vt 0.625 0.050689697
vt 0.625 0.040618896
vt 0.6225586 0.040618896
vt 0.6225586 0.050689697
vt 1.3466797 0.65966797
vt 1.3515625 0.6611328
vt 1.3310547 0.6640625
vt 1.3378906 0.65527344
vt 1.3349609 0.6513672
vt 1.3310547 0.6479492
vt 1.3291016 0.64404297
vt 1.3193359 0.6665039
vt 1.3261719 0.6386719
vt 1.3183594 0.63964844
vt 1.3125 0.6381836
vt 1.3066406 0.63916016
vt 1.3027344 0.63720703
vt 1.3115234 0.671875
vt 1.2949219 0.64501953
vt 1.2841797 0.65966797
vt 1.3046875 0.6821289
vt 1.2763672 0.6748047
vt 1.2949219 0.69628906
vt 1.2685547 0.6850586
vt 1.2695312 0.6821289
vt 1.2675781 0.6870117
vt 1.2666016 0.68896484
vt 1.2841797 0.7080078
vt 1.265625 0.6923828
vt 1.265625 0.6948242
vt 1.2646484 0.6982422
vt 1.265625 0.70214844
vt 1.265625 0.7055664
vt 1.2646484 0.7089844
vt 1.2695312 0.7158203
vt 1.2675781 0.7167969
vt 1.2705078 0.71728516
vt 1.2685547 0.71875
vt 0.06402588 0.09338379
vt 0.06707764 0.10089111
vt 0.08758545 0.10089111
vt 0.08758545 0.09338379
vt 0.101501465 0.10089111
vt 0.101501465 0.09338379
vt 0.112854004 0.09338379
vt 0.112854004 0.10089111
vt 0.12841797 0.10089111
vt 0.12841797 0.09338379
vt 0.14916992 0.10089111
vt 0.14916992 0.09338379
vt 0.16870117 0.10089111
vt 0.16870117 0.09338379
vt 0.18884277 0.10089111
vt 0.18884277 0.09338379
vt 0.19177246 0.10089111
vt 0.19213867 0.09338379
vt 0.06903076 0.06793213
vt 0.06817627 0.07507324
vt 0.08129883 0.07507324
vt 0.08129883 0.06793213
vt 0.1026001 0.06793213
vt 0.1026001 0.07507324
vt 0.122558594 0.07507324
vt 0.122558594 0.06793213
vt 0.13391113 0.07507324
vt 0.13378906 0.06793213
vt 0.31811523 0.640625
vt 0.31274414 0.63964844
vt 0.31884766 0.6645508
vt 0.32373047 0.6401367
vt 0.30737305 0.63964844
vt 0.32592773 0.64404297
vt 0.33032227 0.6616211
vt 0.32910156 0.6479492
vt 0.3334961 0.6508789
vt 0.33569336 0.6557617
vt 0.34472656 0.65966797
vt 0.34887695 0.66064453
vt 0.33129883 0.6635742
vt 0.32006836 0.6660156
vt 0.31225586 0.6713867
vt 0.30322266 0.640625
vt 0.30273438 0.6381836
vt 0.31079102 0.6699219
vt 0.2956543 0.6464844
vt 0.29467773 0.64501953
vt 0.2841797 0.65966797
vt 0.2854004 0.6616211
vt 0.2758789 0.6748047
vt 0.30322266 0.68066406
vt 0.3046875 0.6821289
vt 0.2939453 0.6948242
vt 0.29541016 0.69628906
vt 0.28442383 0.7080078
vt 0.27734375 0.67626953
vt 0.26953125 0.6821289
vt 0.2692871 0.6850586
vt 0.26879883 0.6870117
vt 0.26782227 0.68896484
vt 0.28320312 0.70654297
vt 0.26660156 0.6923828
vt 0.265625 0.6948242
vt 0.26586914 0.6982422
vt 0.26538086 0.70214844
vt 0.26635742 0.7055664
vt 0.27075195 0.71728516
vt 0.26635742 0.7089844
vt 0.2697754 0.7158203
vt 0.26879883 0.71875
vt 0.2680664 0.7167969
vn -0.3869629 -0.92089844 0.04937744
vn -0.40161133 -0.8925781 0.20483398
vn 0.10998535 -0.9892578 0.09832764
vn 0.115722656 -0.98828125 0.09765625
vn 0.055664062 -0.98876953 0.13964844
vn 0.057250977 -0.98828125 0.13989258
vn 0.048797607 -0.98779297 0.14733887
vn 0.04824829 -0.98779297 0.1472168
vn 0.3642578 -0.89941406 0.24169922
vn 0.45996094 -0.8491211 0.26000977
vn 0.8413086 -0.47485352 0.25854492
vn 0.8442383 -0.46557617 0.265625
vn 0.7290039 -0.6660156 0.15917969
vn 0.74072266 -0.6508789 0.16589355
vn 0.7651367 -0.6245117 0.15637207
vn 0.74609375 -0.64941406 0.14904785
vn 0.5654297 -0.8120117 0.1451416
vn 0.6088867 -0.7783203 0.15270996
vn 0.39770508 -0.91015625 0.11395264
vn 0.40283203 -0.90771484 0.115356445
vn 0.3708496 -0.9223633 0.10681152
vn 0.3708496 -0.9223633 0.10681152
vn -0.9614258 -0.25952148 0.09375
vn -0.76708984 -0.55908203 0.31518555
vn -0.8105469 -0.5859375 0.015380859
vn -0.9609375 -0.25976562 0.09442139
vn -0.9296875 -0.34155273 0.13842773
vn -0.9277344 -0.34594727 0.13867188
vn -0.90966797 -0.38745117 0.14904785
vn -0.90966797 -0.3876953 0.14892578
vn -0.94189453 -0.3083496 0.13391113
vn -0.94384766 -0.30249023 0.13220215
vn -0.9902344 -0.10449219 0.09265137
vn -0.9902344 -0.10571289 0.09277344
vn -0.9980469 0.005508423 0.06591797
vn -0.9980469 0.0055732727 0.06585693
vn -0.99560547 0.08062744 0.04446411
vn -0.99560547 0.080566406 0.04446411
vn -0.99560547 0.018417358 0.09283447
vn -0.99560547 0.017730713 0.09313965
vn -0.9765625 0.17663574 0.122802734
vn -0.9760742 0.17919922 0.122558594
vn -0.9501953 0.29589844 0.09790039
vn -0.9501953 0.2956543 0.09814453
vn -0.94677734 0.3190918 0.044525146
vn -0.94677734 0.3190918 0.044525146
vn 1.3113022E-06 -9.536743E-07 -1
vn 1.2516975E-06 -1.1920929E-06 -1
vn -0 -1.6093254E-06 -1
vn 8.940697E-07 -1.013279E-06 -1
vn -0 -1.7285347E-06 -1
vn -1.1920929E-07 -1.7285347E-06 -1
vn 1.1920929E-07 -1.5497208E-06 -1
vn -6.556511E-07 -1.66893E-06 -1
vn -4.7683716E-07 -1.6093254E-06 -1
vn -4.172325E-07 -1.66893E-06 -1
vn -7.748604E-07 -1.6093254E-06 -1
vn -8.940697E-07 -1.66893E-06 -1
vn -1.1324883E-06 -1.6093254E-06 -1
vn -1.4901161E-06 -1.4901161E-06 -1
vn -1.6093254E-06 -1.4901161E-06 -1
vn -1.847744E-06 -1.3709068E-06 -1
vn -1.9073486E-06 -1.3709068E-06 -1
vn -2.026558E-06 -1.4305115E-06 -1
vn -2.3841858E-06 -4.172325E-07 -1
vn -1.7881393E-06 -1.847744E-06 -1
vn -3.2186508E-06 -3.695488E-06 -1
vn -2.6226044E-06 4.7683716E-07 -1
vn -3.2186508E-06 2.3245811E-06 -1
vn -3.1590462E-06 2.4437904E-06 -1
vn -2.2649765E-06 1.4305115E-06 -1
vn -2.2053719E-06 1.1324883E-06 -1
vn -2.1457672E-06 1.4305115E-06 -1
vn -2.4437904E-06 1.847744E-06 -1
vn -2.2649765E-06 1.3113022E-06 -1
vn -2.026558E-06 2.4437904E-06 -1
vn -1.6093254E-06 3.1590462E-06 -1
vn 1.9669533E-06 3.5762787E-07 -1
vn -1.2516975E-06 2.8014183E-06 -1
vn 2.3841858E-06 5.364418E-07 -1
vn 0.15600586 0.98779297 0.01739502
vn 0.15539551 0.9838867 0.09106445
vn 0.17480469 0.94873047 0.26245117
vn 0.18115234 0.98339844 0.010681152
vn 0.36743164 0.88183594 0.29614258
vn 0.38476562 0.92285156 0
vn 0.72314453 0.6904297 0
vn 0.6948242 0.6635742 0.27661133
vn 0.8022461 0.5488281 0.23498535
vn 0.8251953 0.5644531 0
vn 0.76416016 0.6088867 0.21252441
vn 0.78222656 0.6230469 0
vn 0.6347656 0.74365234 0.20898438
vn 0.64941406 0.7607422 0
vn 0.5410156 0.81396484 0.2121582
vn 0.55371094 0.8330078 5.364418E-07
vn 0.42578125 0.88964844 0.16503906
vn 0.43188477 0.90185547 4.2915344E-06
vn -0.40161133 -0.8925781 0.20483398
vn -0.3869629 -0.92089844 0.04937744
vn -0.76171875 -0.6479492 0.011894226
vn -0.74316406 -0.6323242 0.2199707
vn -0.82666016 -0.515625 0.22436523
vn -0.8486328 -0.5292969 0
vn -0.8334961 -0.5522461 0
vn -0.80566406 -0.5336914 0.25756836
vn -0.8105469 -0.5859375 0.015380859
vn -0.76708984 -0.55908203 0.31518555
vn 5.364418E-07 1.66893E-06 1
vn 7.748604E-07 1.66893E-06 1
vn 6.556511E-07 1.7285347E-06 1
vn 2.9802322E-07 1.66893E-06 1
vn 8.34465E-07 1.66893E-06 1
vn 1.7881393E-07 1.66893E-06 1
vn -1.1920929E-07 1.7285347E-06 1
vn 1.7881393E-07 1.7285347E-06 1
vn -1.7881393E-07 1.7881393E-06 1
vn -1.1324883E-06 1.1920929E-06 1
vn -1.3709068E-06 1.847744E-06 1
vn 0.15539551 0.9838867 0.09106445
vn 0.17480469 0.94873047 0.26245117
vn 0.36743164 0.88183594 0.29614258
vn 0.6948242 0.6635742 0.27661133
vn 1.0728836E-06 1.66893E-06 1
vn -0.40161133 -0.8925781 0.20483398
vn 1.4901161E-06 1.4901161E-06 1
vn 1.5497208E-06 1.4901161E-06 1
vn -0.74316406 -0.6323242 0.2199707
vn -0.82666016 -0.515625 0.22436523
vn 1.9073486E-06 1.3709068E-06 1
vn -0.80566406 -0.5336914 0.25756836
vn 1.9073486E-06 1.3709068E-06 1
vn 0.8022461 0.5488281 0.23498535
vn 2.4437904E-06 4.7683716E-07 1
vn 0.76416016 0.6088867 0.21252441
vn 0.6347656 0.74365234 0.20898438
vn 2.0861626E-06 1.3709068E-06 1
vn -0.76708984 -0.55908203 0.31518555
vn 2.0861626E-06 1.5497208E-06 1
vn 2.682209E-06 -3.5762787E-07 1
vn 2.9802322E-06 -1.847744E-06 1
vn 3.0398369E-06 -2.026558E-06 1
vn 1.9073486E-06 -9.536743E-07 1
vn 1.9073486E-06 -1.0728836E-06 1
vn 2.3245811E-06 -1.6093254E-06 1
vn 2.2649765E-06 -1.7285347E-06 1
vn 2.4437904E-06 -2.1457672E-06 1
vn 0.5410156 0.81396484 0.2121582
vn 2.2053719E-06 -2.5629997E-06 1
vn 1.7881393E-06 -2.682209E-06 1
vn 0.42578125 0.88964844 0.16503906
vn -2.3841858E-06 -5.9604645E-07 1
g flame00_geo_0
f 3/3/3 2/2/2 1/1/1
f 4/4/4 3/3/3 1/1/1
f 4/4/4 5/5/5 3/3/3
f 5/5/5 6/6/6 3/3/3
f 5/5/5 7/7/7 6/6/6
f 7/7/7 8/8/8 6/6/6
f 9/9/9 8/8/8 7/7/7
f 10/10/10 9/9/9 7/7/7
f 10/10/10 11/11/11 9/9/9
f 11/11/11 12/12/12 9/9/9
f 11/11/11 13/13/13 12/12/12
f 13/13/13 14/14/14 12/12/12
f 13/13/13 15/15/15 14/14/14
f 15/15/15 16/16/16 14/14/14
f 15/15/15 17/17/17 16/16/16
f 17/17/17 18/18/18 16/16/16
f 18/18/18 17/17/17 19/19/19
f 20/20/20 18/18/18 19/19/19
f 20/20/20 19/19/19 21/21/21
f 22/22/22 20/20/20 21/21/21
f 25/25/25 24/24/24 23/23/23
f 24/24/24 26/26/26 23/23/23
f 26/26/26 27/27/27 23/23/23
f 27/27/27 28/28/28 23/23/23
f 28/28/28 27/27/27 29/29/29
f 27/27/27 30/30/30 29/29/29
f 29/29/29 30/30/30 31/31/31
f 32/32/32 29/29/29 31/31/31
f 32/32/32 31/31/31 33/33/33
f 31/31/31 34/34/34 33/33/33
f 33/33/33 34/34/34 35/35/35
f 34/34/34 36/36/36 35/35/35
f 35/35/35 36/36/36 37/37/37
f 36/36/36 38/38/38 37/37/37
f 37/37/37 38/38/38 39/39/39
f 38/38/38 40/40/40 39/39/39
f 39/39/39 40/40/40 41/41/41
f 40/40/40 42/42/42 41/41/41
f 41/41/41 42/42/42 43/43/43
f 44/44/44 41/41/41 43/43/43
f 44/44/44 43/43/43 45/45/45
f 43/43/43 46/46/46 45/45/45
f 49/49/49 48/48/48 47/47/47
f 49/49/49 47/47/47 50/50/50
f 51/51/51 49/49/49 50/50/50
f 51/51/51 52/52/52 49/49/49
f 49/49/49 52/52/52 53/53/53
f 54/54/54 49/49/49 53/53/53
f 54/54/54 53/53/53 55/55/55
f 54/54/54 55/55/55 56/56/56
f 54/54/54 56/56/56 57/57/57
f 54/54/54 57/57/57 58/58/58
f 58/58/58 59/59/59 54/54/54
f 59/59/59 60/60/60 54/54/54
f 59/59/59 61/61/61 60/60/60
f 60/60/60 61/61/61 62/62/62
f 63/63/63 60/60/60 62/62/62
f 62/62/62 64/64/64 63/63/63
f 64/64/64 65/65/65 63/63/63
f 65/65/65 64/64/64 66/66/66
f 64/64/64 67/67/67 66/66/66
f 68/68/68 65/65/65 66/66/66
f 68/68/68 69/69/69 65/65/65
f 69/69/69 70/70/70 65/65/65
f 70/70/70 69/69/69 71/71/71
f 70/70/70 71/71/71 72/72/72
f 70/70/70 72/72/72 73/73/73
f 70/70/70 73/73/73 74/74/74
f 70/70/70 74/74/74 75/75/75
f 70/70/70 75/75/75 76/76/76
f 70/70/70 76/76/76 77/77/77
f 78/78/78 77/77/77 76/76/76
f 70/70/70 77/77/77 79/79/79
f 77/77/77 78/78/78 80/80/80
f 79/79/79 77/77/77 80/80/80
f 83/83/83 82/82/82 81/81/81
f 84/84/84 83/83/83 81/81/81
f 83/83/83 84/84/84 85/85/85
f 84/84/84 86/86/86 85/85/85
f 85/85/85 86/86/86 87/87/87
f 88/88/88 85/85/85 87/87/87
f 88/88/88 87/87/87 89/89/89
f 87/87/87 90/90/90 89/89/89
f 89/89/89 90/90/90 91/91/91
f 90/90/90 92/92/92 91/91/91
f 91/91/91 92/92/92 93/93/93
f 92/92/92 94/94/94 93/93/93
f 93/93/93 94/94/94 95/95/95
f 94/94/94 96/96/96 95/95/95
f 95/95/95 96/96/96 97/97/97
f 96/96/96 98/98/98 97/97/97
f 101/101/101 100/100/100 99/99/99
f 102/102/102 101/101/101 99/99/99
f 102/102/102 103/103/103 101/101/101
f 103/103/103 104/104/104 101/101/101
f 105/105/105 104/104/104 103/103/103
f 106/106/106 105/105/105 103/103/103
f 107/107/107 105/105/105 106/106/106
f 108/108/108 107/107/107 106/106/106
f 111/111/111 110/110/110 109/109/109
f 111/111/111 109/109/109 112/112/112
f 111/111/111 113/113/113 110/110/110
f 111/111/111 112/112/112 114/114/114
f 111/111/111 114/114/114 115/115/115
f 114/114/114 116/116/116 115/115/115
f 116/116/116 117/117/117 115/115/115
f 117/117/117 118/118/118 115/115/115
f 118/118/118 119/119/119 115/115/115
f 115/115/115 119/119/119 120/120/120
f 121/121/121 115/115/115 120/120/120
f 111/111/111 115/115/115 121/121/121
f 122/122/122 111/111/111 121/121/121
f 122/122/122 123/123/123 111/111/111
f 113/113/113 111/111/111 124/124/124
f 113/113/113 124/124/124 125/125/125
f 123/123/123 126/126/126 111/111/111
f 111/111/111 126/126/126 124/124/124
f 124/124/124 127/127/127 125/125/125
f 124/124/124 126/126/126 127/127/127
f 127/127/127 128/128/128 125/125/125
f 128/128/128 127/127/127 129/129/129
f 127/127/127 130/130/130 129/129/129
f 127/127/127 126/126/126 130/130/130
f 129/129/129 130/130/130 131/131/131
f 126/126/126 123/123/123 132/132/132
f 126/126/126 132/132/132 130/130/130
f 123/123/123 133/133/133 132/132/132
f 132/132/132 133/133/133 134/134/134
f 133/133/133 135/135/135 134/134/134
f 134/134/134 135/135/135 136/136/136
f 130/130/130 137/137/137 131/131/131
f 130/130/130 132/132/132 137/137/137
f 132/132/132 134/134/134 137/137/137
f 138/138/138 131/131/131 137/137/137
f 139/139/139 138/138/138 137/137/137
f 139/139/139 137/137/137 134/134/134
f 140/140/140 139/139/139 134/134/134
f 141/141/141 140/140/140 134/134/134
f 142/142/142 134/134/134 136/136/136
f 142/142/142 141/141/141 134/134/134
f 141/141/141 142/142/142 143/143/143
f 142/142/142 144/144/144 143/143/143
f 142/142/142 145/145/145 144/144/144
f 142/142/142 146/146/146 145/145/145
f 142/142/142 147/147/147 146/146/146
f 142/142/142 136/136/136 148/148/148
f 142/142/142 149/149/149 147/147/147
f 150/150/150 142/142/142 148/148/148
f 149/149/149 142/142/142 150/150/150
f 148/148/148 151/151/151 150/150/150
f 152/152/152 149/149/149 150/150/150
f 151/151/151 152/152/152 150/150/150
