g floor0_geo
v -2.3621361 0.07929359 -5.7020245
v -0.47436553 0.04981232 -2.5939407
v -0.93432415 0.04981233 -2.4641838
v -1.3645507 0.049811617 -2.2555974
v -9.347164E-11 0.049812723 -2.638578
v -1.7499614 0.049811576 -1.9744275
v 0.47436568 0.04981232 -2.5939407
v -5.702698 0.07929359 -2.3614612
v 2.3621342 0.07929359 -5.702025
v -2.075809 0.04981229 -1.6274322
v 0.93432444 0.04981233 -2.4641838
v 1.3645512 0.049811617 -2.2555974
v 1.7499615 0.049811576 -1.9744275
v -2.3335035 0.049811624 -1.2253687
v -2.5165005 0.049811624 -0.7835727
v -2.6185863 0.049811587 -0.31705132
v 5.7026978 0.07929359 -2.3614624
v -5.7026963 0.07929359 2.3628109
v 2.075809 0.04981229 -1.6274322
v -2.6335385 0.049812656 0.15871885
v 2.3335035 0.049811624 -1.2253687
v -2.5598304 0.049813047 0.6300645
v -2.403107 0.049811624 1.081772
v -2.1696196 0.04981233 1.4987637
v 2.5165005 0.049811624 -0.7835727
v 2.6185863 0.049811587 -0.31705132
v 2.6335385 0.049812656 0.15871885
v -2.3621345 0.07929359 5.7033715
v 5.702698 0.07929359 2.3628073
v -1.8657235 0.049812723 1.8657824
v 2.5598304 0.049813047 0.6300645
v -1.4657147 0.049812764 2.1918612
v 2.403107 0.049811624 1.081772
v 2.169619 0.04981233 1.4987637
v 1.8657235 0.049812723 1.8657824
v -1.0084993 0.049812395 2.434731
v -0.51346403 0.04981205 2.5862966
v 1.5209682E-07 0.049811557 2.638573
v 2.362135 0.07929359 5.703371
v 1.4657147 0.049812764 2.1918612
v 0.51346403 0.04981205 2.5862966
v 1.0084988 0.049812395 2.434731
vt 0.21862793 0.9941406
vt 0.33740234 0.79833984
vt 0.30859375 0.79052734
vt 0.28149414 0.77734375
vt 0.36694336 0.80126953
vt 0.25756836 0.7597656
vt 0.39648438 0.79833984
vt 0.009086609 0.78515625
vt 0.51464844 0.9941406
vt 0.23706055 0.73828125
vt 0.42529297 0.79052734
vt 0.4519043 0.77783203
vt 0.47607422 0.7602539
vt 0.22106934 0.7133789
vt 0.20959473 0.6855469
vt 0.20336914 0.6567383
vt 0.7246094 0.78564453
vt 0.009216309 0.48828125
vt 0.4963379 0.73828125
vt 0.20251465 0.62646484
vt 0.5126953 0.7138672
vt 0.20690918 0.59716797
vt 0.21691895 0.56884766
vt 0.23144531 0.54296875
vt 0.52441406 0.68603516
vt 0.5307617 0.6567383
vt 0.5317383 0.6269531
vt 0.21911621 0.2788086
vt 0.72509766 0.48901367
vt 0.25073242 0.52001953
vt 0.52734375 0.59765625
vt 0.27563477 0.49975586
vt 0.51708984 0.56933594
vt 0.5029297 0.54345703
vt 0.48339844 0.52001953
vt 0.30444336 0.48461914
vt 0.33520508 0.47509766
vt 0.3671875 0.47216797
vt 0.515625 0.27905273
vt 0.45898438 0.5
vt 0.39941406 0.4753418
vt 0.42993164 0.48461914
vn 0.0034065247 1 0.008125305
vn 0.0014324188 1 0.008613586
vn 0.0029411316 1 0.0078086853
vn 0.0044937134 1 0.0072517395
vn -4.452467E-05 1 0.009536743
vn 0.006717682 1 0.0067710876
vn -0.00022053719 1 0.009468079
vn 0.008178711 1 0.0033874512
vn -0.0034236908 1 0.008155823
vn 0.006816864 1 0.006641388
vn -0.0029411316 1 0.0078086853
vn -0.006416321 1 0.00687027
vn -0.0066375732 1 0.00680542
vn 0.0074157715 1 0.0039520264
vn 0.008041382 1 0.0024490356
vn 0.009513855 1 0.00012636185
vn -0.008163452 1 0.0032634735
vn 0.008140564 1 -0.003458023
vn -0.006969452 1 0.005722046
vn 0.009536743 1 -3.8146973E-05
vn -0.0074157715 1 0.0039520264
vn 0.008308411 1 -0.0019493103
vn 0.007598877 1 -0.0034389496
vn 0.0068473816 1 -0.0065345764
vn -0.008041382 1 0.0024490356
vn -0.009513855 1 0.00012636185
vn -0.009536743 1 -3.8146973E-05
vn 0.0033416748 1 -0.008117676
vn -0.008140564 1 -0.003458023
vn 0.0067634583 1 -0.0067100525
vn -0.008308411 1 -0.0019493103
vn 0.004940033 1 -0.007133484
vn -0.007598877 1 -0.0034389496
vn -0.0068473816 1 -0.0065345764
vn -0.0067634583 1 -0.0067100525
vn 0.003189087 1 -0.007698059
vn 0.0015516281 1 -0.0085372925
vn -5.143881E-05 1 -0.009521484
vn -0.0032463074 1 -0.008201599
vn -0.004940033 1 -0.007133484
vn -0.00025963783 1 -0.009437561
vn -0.003189087 1 -0.007698059
g floor0_geo_0
f 3/3/3 2/2/2 1/1/1
f 4/4/4 3/3/3 1/1/1
f 2/2/2 5/5/5 1/1/1
f 6/6/6 4/4/4 1/1/1
f 5/5/5 7/7/7 1/1/1
f 6/6/6 1/1/1 8/8/8
f 7/7/7 9/9/9 1/1/1
f 10/10/10 6/6/6 8/8/8
f 7/7/7 11/11/11 9/9/9
f 11/11/11 12/12/12 9/9/9
f 12/12/12 13/13/13 9/9/9
f 14/14/14 10/10/10 8/8/8
f 15/15/15 14/14/14 8/8/8
f 16/16/16 15/15/15 8/8/8
f 13/13/13 17/17/17 9/9/9
f 16/16/16 8/8/8 18/18/18
f 13/13/13 19/19/19 17/17/17
f 20/20/20 16/16/16 18/18/18
f 19/19/19 21/21/21 17/17/17
f 22/22/22 20/20/20 18/18/18
f 23/23/23 22/22/22 18/18/18
f 24/24/24 23/23/23 18/18/18
f 21/21/21 25/25/25 17/17/17
f 25/25/25 26/26/26 17/17/17
f 26/26/26 27/27/27 17/17/17
f 24/24/24 18/18/18 28/28/28
f 27/27/27 29/29/29 17/17/17
f 30/30/30 24/24/24 28/28/28
f 27/27/27 31/31/31 29/29/29
f 32/32/32 30/30/30 28/28/28
f 31/31/31 33/33/33 29/29/29
f 33/33/33 34/34/34 29/29/29
f 34/34/34 35/35/35 29/29/29
f 36/36/36 32/32/32 28/28/28
f 37/37/37 36/36/36 28/28/28
f 38/38/38 37/37/37 28/28/28
f 35/35/35 39/39/39 29/29/29
f 38/38/38 28/28/28 39/39/39
f 35/35/35 40/40/40 39/39/39
f 41/41/41 38/38/38 39/39/39
f 40/40/40 42/42/42 39/39/39
f 42/42/42 41/41/41 39/39/39
