g frontR_geo
v 0.36168632 0.16665356 1.5389305E-09
v 0.40424156 0.18230823 1.8359891E-09
v 0.42586166 0.13391028 1.683617E-09
v 0.37966636 0.11516964 1.2298295E-09
v -0.02044447 0.21410982 1.7888426E-09
v -0 0 0
v -0.082802944 0.0753648 1.1048732E-09
v 0.05994333 0.2401303 1.9992952E-09
v 0.14939947 0.0102355955 -1.0582266E-09
v 0.14939947 0.22709441 1.8940693E-09
v 0.2443036 0.13386303 1.2744784E-09
v 0.23458946 0.21186797 1.2796288E-09
v -0.066805854 0.1504298 1.6310039E-09
v -0.13344389 0.18234846 2.104521E-09
v -0.104511656 0.2600185 1.9992947E-09
v -0.023360385 0.23780563 1.9992947E-09
v -0.1790838 0.23486389 1.9992938E-09
v -0.15616965 0.1924835 2.0591104E-09
v -0.18755846 0.1667633 1.9522854E-09
v -0.22082871 0.20399284 1.9992943E-09
v 0.24926642 0.09946159 6.9341666E-10
v 0.3039068 0.0667958 4.9704907E-10
v 0.25798035 0.05468086 -2.591861E-11
v 0.2897988 0.1101683 8.6029317E-10
v -0.21891405 0.14505072 1.9191295E-09
v -0.24121416 0.11954147 1.8454602E-09
v -0.28270987 0.13950463 1.9713366E-09
v -0.25298968 0.17359276 1.9992943E-09
vt 0.5048828 0.3696289
vt 0.53027344 0.3791504
vt 0.54296875 0.3503418
vt 0.515625 0.33911133
vt 0.41357422 0.2626953
vt 0.42578125 0.13537598
vt 0.37646484 0.18017578
vt 0.46142578 0.27807617
vt 0.51464844 0.14147949
vt 0.51464844 0.2705078
vt 0.57128906 0.21496582
vt 0.5654297 0.2614746
vt 0.5439453 0.41381836
vt 0.50439453 0.4326172
vt 0.5214844 0.47875977
vt 0.5698242 0.46557617
vt 0.46899414 0.40234375
vt 0.48266602 0.37719727
vt 0.4638672 0.36206055
vt 0.4440918 0.3840332
vt 0.44311523 0.33276367
vt 0.47558594 0.31323242
vt 0.4482422 0.30615234
vt 0.46728516 0.33911133
vt 0.44799805 0.3515625
vt 0.43481445 0.33618164
vt 0.41015625 0.34814453
vt 0.42773438 0.3684082
vn -0 0 1
vn -0 0 1
vn -0 0 1
vn -0 0 1
vn -0 0 1
vn -0 0 1
vn -0 0 1
vn -0 0 1
vn -0 0 1
vn -0 0 1
vn -0 0 1
vn -0 0 1
vn -0 0 1
vn -0 0 1
vn -0 0 1
vn -0 0 1
vn -0 0 1
vn -0 0 1
vn -0 0 1
vn -0 0 1
vn -0 0 1
vn -0 0 1
vn -0 0 1
vn -0 0 1
vn -0 0 1
vn -0 0 1
vn -0 0 1
vn -0 0 1
g frontR_geo_0
f 3/3/3 2/2/2 1/1/1
f 4/4/4 3/3/3 1/1/1
f 7/7/7 6/6/6 5/5/5
f 6/6/6 8/8/8 5/5/5
f 6/6/6 9/9/9 8/8/8
f 9/9/9 10/10/10 8/8/8
f 11/11/11 10/10/10 9/9/9
f 11/11/11 12/12/12 10/10/10
f 15/15/15 14/14/14 13/13/13
f 16/16/16 15/15/15 13/13/13
f 19/19/19 18/18/18 17/17/17
f 20/20/20 19/19/19 17/17/17
f 23/23/23 22/22/22 21/21/21
f 21/21/21 22/22/22 24/24/24
f 27/27/27 26/26/26 25/25/25
f 28/28/28 27/27/27 25/25/25
