g front2_geo
v -0.39438322 -0.08134361 -8.881784E-18
v -0.3714966 0.20791292 -8.881784E-18
v -0.2784395 0.1859524 -8.881784E-18
v -0.4758755 0.115344256 -8.881784E-18
v -0.6494487 -0.21067525 -8.881784E-18
v -0.7906552 0.13180272 -8.881784E-18
v -0.53659165 0.2090431 -8.881784E-18
v -0.40087286 -0.33306497 -8.881784E-18
v -0.34012428 -0.32314005 -8.881784E-18
v 0.58827925 0.11221689 -8.881784E-18
v 0.7805722 0.1965101 -8.881784E-18
v 0.77322394 -0.084323004 -8.881784E-18
v 0.59605527 -0.44239852 -8.881784E-18
v 0.058533203 -0.37574035 -8.881784E-18
v 0.09974197 -0.5103906 -8.881784E-18
v -0.10158197 0.2329611 -8.881784E-18
v -0.1753666 0.35871264 -8.881784E-18
v 0.05816036 0.5173754 -8.881784E-18
v 0.26351172 0.38045695 -8.881784E-18
v 0.22815177 0.3421397 -8.881784E-18
v 0.4591787 0.4352772 -8.881784E-18
v 0.6906412 0.40469402 -8.881784E-18
v 0.6836143 0.31304425 -8.881784E-18
v 0.56662214 0.100979134 -8.881784E-18
v 0.31789288 0.09139818 -8.881784E-18
vt 0.5517578 0.20593262
vt 0.5605469 0.31689453
vt 0.5961914 0.3083496
vt 0.5205078 0.28125
vt 0.45385742 0.15625
vt 0.3996582 0.28759766
vt 0.49731445 0.3173828
vt 0.5493164 0.109313965
vt 0.5727539 0.11315918
vt 0.9238281 0.36254883
vt 0.99658203 0.3942871
vt 0.99365234 0.28808594
vt 0.9267578 0.15283203
vt 0.7236328 0.17797852
vt 0.7392578 0.1270752
vt 0.8535156 0.04724121
vt 0.8256836 0.09429932
vt 0.91308594 0.15368652
vt 0.9897461 0.10247803
vt 0.57958984 0.21777344
vt 0.66748047 0.25341797
vt 0.7558594 0.24169922
vt 0.75341797 0.20666504
vt 0.7084961 0.12573242
vt 0.61376953 0.12207031
vn -0 0 1
vn -0 0 1
vn -0 0 1
vn -0 0 1
vn -0 0 1
vn -0 0 1
vn -0 0 1
vn -0 0 1
vn -0 0 1
vn -0 0 1
vn -0 0 1
vn -0 0 1
vn -0 0 1
vn -0 0 1
vn -0 0 1
vn -0 0 1
vn -0 0 1
vn -0 0 1
vn -0 0 1
vn -0 0 1
vn -0 0 1
vn -0 0 1
vn -0 0 1
vn -0 0 1
vn -0 0 1
g front2_geo_0
f 3/3/3 2/2/2 1/1/1
f 2/2/2 4/4/4 1/1/1
f 5/5/5 1/1/1 4/4/4
f 6/6/6 5/5/5 4/4/4
f 7/7/7 6/6/6 4/4/4
f 5/5/5 8/8/8 1/1/1
f 8/8/8 9/9/9 1/1/1
f 12/12/12 11/11/11 10/10/10
f 13/13/13 12/12/12 10/10/10
f 10/10/10 14/14/14 13/13/13
f 14/14/14 15/15/15 13/13/13
f 18/18/18 17/17/17 16/16/16
f 19/19/19 18/18/18 16/16/16
f 22/22/22 21/21/21 20/20/20
f 23/23/23 22/22/22 20/20/20
f 24/24/24 23/23/23 20/20/20
f 25/25/25 24/24/24 20/20/20
