g frontL_geo
v 0.6310689 0.099721074 0
v 0.5716123 0.041014984 0
v 0.4821889 0.09972119 0
v 0.5763437 0.143876 0
v 0.48218894 0.010023318 0
v 0.48218885 0.18565539 0
v 0.39969856 0.041015137 0
v 0.39496696 0.14387612 0
v 0.34717476 0.09972138 0
v 0.39674968 0.15960228 0
v 0.36303523 0.12635145 0
v 0.2940558 0.15960217 0
v 0.35262275 0.2093741 0
v 0.29405585 0.101254016 0
v 0.2940557 0.23060888 0
v 0.21684757 0.12635136 0
v 0.22725992 0.20937403 0
v 0.1797963 0.15960214 0
vt 0.5527344 0.1652832
vt 0.5361328 0.14880371
vt 0.5107422 0.1652832
vt 0.53759766 0.17773438
vt 0.5107422 0.14001465
vt 0.5107422 0.18945312
vt 0.48779297 0.14880371
vt 0.48632812 0.17773438
vt 0.4729004 0.1652832
vt 0.47802734 0.20349121
vt 0.46875 0.19433594
vt 0.44995117 0.20349121
vt 0.4658203 0.21704102
vt 0.44995117 0.1875
vt 0.44995117 0.22290039
vt 0.42871094 0.19433594
vt 0.43164062 0.21704102
vt 0.41870117 0.20349121
vn -0 0 1
vn -0 0 1
vn -0 0 1
vn -0 0 1
vn -0 0 1
vn -0 0 1
vn -0 0 1
vn -0 0 1
vn -0 0 1
vn -0 0 1
vn -0 0 1
vn -0 0 1
vn -0 0 1
vn -0 0 1
vn -0 0 1
vn -0 0 1
vn -0 0 1
vn -0 0 1
g frontL_geo_0
f 3/3/3 2/2/2 1/1/1
f 3/3/3 1/1/1 4/4/4
f 3/3/3 5/5/5 2/2/2
f 3/3/3 4/4/4 6/6/6
f 7/7/7 5/5/5 3/3/3
f 3/3/3 6/6/6 8/8/8
f 7/7/7 3/3/3 9/9/9
f 3/3/3 8/8/8 9/9/9
f 12/12/12 11/11/11 10/10/10
f 12/12/12 10/10/10 13/13/13
f 12/12/12 14/14/14 11/11/11
f 12/12/12 13/13/13 15/15/15
f 16/16/16 14/14/14 12/12/12
f 12/12/12 15/15/15 17/17/17
f 16/16/16 12/12/12 18/18/18
f 12/12/12 17/17/17 18/18/18
