g frontL_geo
v 0.44406638 -0.013142852 0.049999997
v 0.44406638 -0.11215457 0.049999997
v 0.3452818 -0.11215457 0.049999997
v 0.3452818 -0.013142852 0.049999997
v -0.16621704 -0.07004438 0.049999997
v -0.16621704 0.09886959 0.049999997
v 0.010925417 0.09886959 0.049999997
v 0.010925417 -0.07004438 0.049999997
v -0.05619879 0.7937666 0.049999997
v 0.13534571 0.7937666 0.049999997
v 0.13534571 0.6349596 0.049999997
v -0.05619879 0.6349596 0.049999997
v 0.3338383 0.5696194 0.049999997
v 0.46044356 0.5696194 0.049999997
v 0.46044356 0.46024856 0.049999997
v 0.3338383 0.46024856 0.049999997
v 0.14043789 0.7864831 0.049999997
v 0.32628646 0.7864831 0.049999997
v 0.32628646 0.6477051 0.049999997
v 0.14043789 0.6477051 0.049999997
v 0.23210804 -0.07378362 0.049999997
v 0.33132747 -0.07378362 0.049999997
v 0.33132747 -0.15344967 0.049999997
v 0.23210804 -0.15344967 0.049999997
v 0.17971124 0.646036 0.049999997
v 0.33210105 0.646036 0.049999997
v 0.33210105 0.5170913 0.049999997
v 0.17971124 0.5170913 0.049999997
v 0.18503162 0.04267229 0.049999997
v 0.33243027 0.04267229 0.049999997
v 0.33243027 -0.06939293 0.049999997
v 0.18503162 -0.06939293 0.049999997
vt 0.38671875 0.80859375
vt 0.38671875 0.7636719
vt 0.34179688 0.7636719
vt 0.34179688 0.80859375
vt 0.13476562 0.7626953
vt 0.13476562 0.83935547
vt 0.21533203 0.83935547
vt 0.21533203 0.7626953
vt 0.0016527176 0.99853516
vt 0.08721924 0.99853516
vt 0.08721924 0.92626953
vt 0.0016527176 0.92626953
vt 0.25952148 0.9980469
vt 0.31689453 0.9980469
vt 0.31689453 0.94970703
vt 0.25952148 0.94970703
vt 0.089538574 0.9951172
vt 0.17407227 0.9951172
vt 0.17407227 0.9321289
vt 0.089538574 0.9321289
vt 0.28808594 0.80078125
vt 0.3330078 0.80078125
vt 0.3330078 0.76464844
vt 0.28808594 0.76464844
vt 0.1809082 0.9921875
vt 0.25024414 0.9921875
vt 0.25024414 0.93359375
vt 0.1809082 0.93359375
vt 0.21862793 0.81689453
vt 0.28564453 0.81689453
vt 0.28564453 0.7661133
vt 0.21862793 0.7661133
vn -0 0 1
vn -0 0 1
vn -0 0 1
vn -0 0 1
vn -0 0 1
vn -0 0 1
vn -0 0 1
vn -0 0 1
vn -0 0 1
vn -0 0 1
vn -0 0 1
vn -0 0 1
vn -0 0 1
vn -0 0 1
vn -0 0 1
vn -0 0 1
vn -0 0 1
vn -0 0 1
vn -0 0 1
vn -0 0 1
vn -0 0 1
vn -0 0 1
vn -0 0 1
vn -0 0 1
vn -0 0 1
vn -0 0 1
vn -0 0 1
vn -0 0 1
vn -0 0 1
vn -0 0 1
vn -0 0 1
vn -0 0 1
g frontL_geo_0
f 3/3/3 2/2/2 1/1/1
f 4/4/4 3/3/3 1/1/1
f 7/7/7 6/6/6 5/5/5
f 8/8/8 7/7/7 5/5/5
f 11/11/11 10/10/10 9/9/9
f 12/12/12 11/11/11 9/9/9
f 15/15/15 14/14/14 13/13/13
f 16/16/16 15/15/15 13/13/13
f 19/19/19 18/18/18 17/17/17
f 20/20/20 19/19/19 17/17/17
f 23/23/23 22/22/22 21/21/21
f 24/24/24 23/23/23 21/21/21
f 27/27/27 26/26/26 25/25/25
f 28/28/28 27/27/27 25/25/25
f 31/31/31 30/30/30 29/29/29
f 32/32/32 31/31/31 29/29/29
