g front_geo01
v 0.312264 0.043360215 0.02603517
v 0.51450646 -0.0010888664 0.02603517
v 0.43253356 -0.21263778 0.02603517
v -0.2579269 0.49088764 -0.03442243
v 0.051848855 0.654488 -0.03442243
v -0.1504309 0.22946209 -0.03442243
v 0.25271434 0.22752728 -0.03442243
v 0.3495432 0.48946765 -0.03442243
v -0.34840956 -0.148623 -0.02603517
v -0.26683643 0.10293873 -0.02603517
v -0.15503387 0.009616738 -0.02603517
v -0.29319626 0.07272911 -0.02603517
v -0.44443285 -0.00875347 -0.02603517
v -0.45533904 0.11950344 -0.02603517
v -0.44347864 0.23737362 -0.02603517
v -0.39180964 0.25089344 -0.02603517
v 0.32129532 -0.60414016 0.01603517
v 0.37587345 -0.33230835 0.01603517
v 0.48244193 -0.31673622 0.01603517
v 0.5292769 -0.60157365 0.01603517
v -0.5292769 -0.5225382 -0.0054354374
v -0.4666659 -0.27706575 -0.0054354374
v -0.38301808 -0.19735461 -0.0054354374
v -0.28050834 -0.21187 -0.0054354374
v -0.23992391 -0.44070026 -0.0054354374
v -0.49355787 -0.62257206 -0.0054354374
v -0.2780476 -0.65448797 -0.0054354374
v -0.07811758 -0.46814564 -0.0054354374
v 0.19248766 -0.48440558 -0.0054354374
v 0.07727968 -0.63009584 -0.0054354374
vt 0.35986328 0.89160156
vt 0.44970703 0.8691406
vt 0.41064453 0.7758789
vt 0.45751953 0.7080078
vt 0.59033203 0.77783203
vt 0.50341797 0.5961914
vt 0.67626953 0.59521484
vt 0.71777344 0.70751953
vt 0.080200195 0.8095703
vt 0.11376953 0.91308594
vt 0.15979004 0.8745117
vt 0.10296631 0.9003906
vt 0.040649414 0.8671875
vt 0.03616333 0.9199219
vt 0.041046143 0.9682617
vt 0.062316895 0.9741211
vt 0.85498047 0.80078125
vt 0.87841797 0.9194336
vt 0.92529297 0.92626953
vt 0.9458008 0.8017578
vt 0.49291992 0.8378906
vt 0.51953125 0.9423828
vt 0.5551758 0.9760742
vt 0.5986328 0.97021484
vt 0.61621094 0.8725586
vt 0.5083008 0.79541016
vt 0.5996094 0.7817383
vt 0.6850586 0.86083984
vt 0.7998047 0.8540039
vt 0.75097656 0.7919922
vn -0 0 1
vn -0 0 1
vn -0 0 1
vn -0 0 1
vn -0 0 1
vn -0 0 1
vn -0 0 1
vn -0 0 1
vn -0 0 1
vn -0 0 1
vn -0 0 1
vn -0 0 1
vn -0 0 1
vn -0 0 1
vn -0 0 1
vn -0 0 1
vn -0 0 1
vn -0 0 1
vn -0 0 1
vn -0 0 1
vn -0 0 1
vn -0 0 1
vn -0 0 1
vn -0 0 1
vn -0 0 1
vn -0 0 1
vn -0 0 1
vn -0 0 1
vn -0 0 1
vn -0 0 1
g front_geo01_0
f 3/3/3 2/2/2 1/1/1
f 6/6/6 5/5/5 4/4/4
f 7/7/7 5/5/5 6/6/6
f 8/8/8 5/5/5 7/7/7
f 11/11/11 10/10/10 9/9/9
f 10/10/10 12/12/12 9/9/9
f 9/9/9 12/12/12 13/13/13
f 12/12/12 14/14/14 13/13/13
f 15/15/15 14/14/14 12/12/12
f 16/16/16 15/15/15 12/12/12
f 19/19/19 18/18/18 17/17/17
f 20/20/20 19/19/19 17/17/17
f 23/23/23 22/22/22 21/21/21
f 24/24/24 23/23/23 21/21/21
f 24/24/24 21/21/21 25/25/25
f 25/25/25 21/21/21 26/26/26
f 25/25/25 26/26/26 27/27/27
f 28/28/28 25/25/25 27/27/27
f 29/29/29 28/28/28 27/27/27
f 30/30/30 29/29/29 27/27/27
