g frontGlow_geo_01
v 0.2511202 -0.30908766 -3.4210063E-10
v 0.32699093 -0.16522826 -3.4210051E-10
v 0.4596253 -0.2301131 -3.421005E-10
v 0.3631565 -0.37253365 -3.4210068E-10
v -0.19852383 -0.11426048 -3.4210051E-10
v -0.087322555 -0.25842854 -3.4210068E-10
v -0.205536 -0.37427348 -3.4210063E-10
v -0.33073515 -0.23862876 -3.4210046E-10
v -0.043786995 -0.020997943 -3.4210046E-10
v 0.017796135 -0.18114929 -3.421005E-10
v -0.117252484 -0.23845056 -3.4210057E-10
v -0.19316268 -0.08331463 -3.4210046E-10
v -0.007828508 -0.17758304 -3.421006E-10
v -0 0 -3.421006E-10
v 0.15218961 -0.006524124 -3.4210046E-10
v 0.1330369 -0.18198948 -3.421005E-10
v 0.1542366 -0.20413536 -3.421005E-10
v 0.21233861 -0.033752117 -3.4210101E-10
v 0.35607848 -0.0948052 -3.4210093E-10
v 0.27373213 -0.25412217 -3.4210057E-10
vt 0.72021484 0.7167969
vt 0.74609375 0.7661133
vt 0.7915039 0.74365234
vt 0.7583008 0.6948242
vt 0.6123047 0.8408203
vt 0.6503906 0.7910156
vt 0.6098633 0.75146484
vt 0.56689453 0.79785156
vt 0.6694336 0.7553711
vt 0.69091797 0.7006836
vt 0.64453125 0.68066406
vt 0.61865234 0.7338867
vt 0.63623047 0.6069336
vt 0.6386719 0.66748047
vt 0.69091797 0.66552734
vt 0.6845703 0.60498047
vt 0.71484375 0.609375
vt 0.734375 0.66796875
vt 0.7836914 0.64697266
vt 0.7558594 0.59228516
vn -0 0 1
vn -0 0 1
vn -0 0 1
vn -0 0 1
vn -0 0 1
vn -0 0 1
vn -0 0 1
vn -0 0 1
vn -0 0 1
vn -0 0 1
vn -0 0 1
vn -0 0 1
vn -0 0 1
vn -0 0 1
vn -0 0 1
vn -0 0 1
vn -0 0 1
vn -0 0 1
vn -0 0 1
vn -0 0 1
g frontGlow_geo_01_0
f 3/3/3 2/2/2 1/1/1
f 4/4/4 3/3/3 1/1/1
f 7/7/7 6/6/6 5/5/5
f 8/8/8 7/7/7 5/5/5
f 11/11/11 10/10/10 9/9/9
f 12/12/12 11/11/11 9/9/9
f 15/15/15 14/14/14 13/13/13
f 16/16/16 15/15/15 13/13/13
f 19/19/19 18/18/18 17/17/17
f 20/20/20 19/19/19 17/17/17
