g front_geo
v 0.49650356 -0.106623664 0.040463984
v -0.2556838 -0.06607823 0.041173525
v -0.45828742 0.07604425 0.041173548
v -0.5707048 0.2552702 0.041173566
v -0.5250434 0.49292788 0.041173566
v -0.18782474 0.8187351 0.041173566
v 0.7205986 0.3945019 0.03944622
v 0.12905249 0.85740596 0.041173566
v 0.6523662 0.5879505 0.03945026
v 0.57440954 0.7103025 0.03945556
v 0.3854816 0.8364956 0.039468467
vt 0.8779297 0.5566406
vt 0.55810547 0.57373047
vt 0.4716797 0.63427734
vt 0.42358398 0.7104492
vt 0.44311523 0.81152344
vt 0.5864258 0.9506836
vt 0.97314453 0.77001953
vt 0.7211914 0.9667969
vt 0.94433594 0.85253906
vt 0.9111328 0.9042969
vt 0.8305664 0.9580078
vn 0.0017261505 0.00055885315 1
vn 0.0010213852 0.0014562607 1
vn 0.0008635521 0.0006284714 1
vn 0.00066423416 -1.4305115E-06 1
vn 0.00049448013 -0.0003414154 1
vn 0.0008916855 -0.00033640862 1
vn 0.0023593903 0.00082826614 1
vn 0.00070905685 -0.0027332306 1
vn 0.0041007996 0.0015649796 1
vn 0.005050659 0.003610611 1
vn 0.0075645447 0.011222839 1
g front_geo_0
f 3/3/3 2/2/2 1/1/1
f 3/3/3 1/1/1 4/4/4
f 4/4/4 1/1/1 5/5/5
f 5/5/5 1/1/1 6/6/6
f 6/6/6 1/1/1 7/7/7
f 7/7/7 8/8/8 6/6/6
f 9/9/9 8/8/8 7/7/7
f 10/10/10 8/8/8 9/9/9
f 11/11/11 8/8/8 10/10/10
