g frontCenter_geo
v 0.25512874 0.64623165 0
v 0.43463328 0.87465453 -2.8098383E-15
v 0.67404854 0.68106407 0
v 0.5069641 0.13926758 0
v 0.12735547 0.5188762 0
v -0 0 0
v 1.0717743E-18 0.46082586 0
v -0.5069641 0.13926758 0
v -0.12735547 0.5188762 0
v -0.6342262 0.64623165 0
v -0.25512877 0.64623165 0
v -0.3368229 0.78697544 -1.4049191E-15
vt 0.85839844 0.36743164
vt 0.9194336 0.44458008
vt 1 0.37939453
vt 0.94384766 0.19616699
vt 0.8154297 0.3244629
vt 0.77246094 0.14916992
vt 0.77246094 0.30493164
vt 0.6010742 0.19616699
vt 0.7294922 0.3244629
vt 0.55810547 0.36743164
vt 0.68603516 0.36743164
vt 0.6586914 0.41503906
vn -0 0 1
vn -0 0 1
vn -0 0 1
vn -0 0 1
vn -0 0 1
vn -0 0 1
vn -0 0 1
vn -0 0 1
vn -0 0 1
vn -0 0 1
vn -0 0 1
vn -0 0 1
g frontCenter_geo_0
f 3/3/3 2/2/2 1/1/1
f 4/4/4 3/3/3 1/1/1
f 5/5/5 4/4/4 1/1/1
f 4/4/4 5/5/5 6/6/6
f 5/5/5 7/7/7 6/6/6
f 6/6/6 7/7/7 8/8/8
f 7/7/7 9/9/9 8/8/8
f 8/8/8 9/9/9 10/10/10
f 9/9/9 11/11/11 10/10/10
f 11/11/11 12/12/12 10/10/10
