g front1_geo
v 0.1494003 -0.0013654594 0
v 0.46445265 -0.32266465 0
v 0.12875995 -0.08838045 0
v 0.2862218 0.01744754 0
v 0.5744826 0.2275621 0
v 0.6836075 -0.14085524 0
v 0.78744847 -0.036124848 0
v 0.7906212 0.059835672 0
v -0.2746111 0.26645023 0
v 0.07572758 -0.05950114 0
v -0.15287511 -0.31754154 0
v -0.48661348 0.3158215 0
v -0.6794685 0.3378437 0
v -0.6614479 0.14231385 0
v -0.74702895 0.037175074 0
v -0.4116453 -0.35748446 0
vt 0.7133789 0.47314453
vt 0.8544922 0.33984375
vt 0.70458984 0.43554688
vt 0.7739258 0.48266602
vt 0.90185547 0.578125
vt 0.95166016 0.421875
vt 0.9975586 0.46875
vt 0.99853516 0.5102539
vt 0.60253906 0.57177734
vt 0.7495117 0.4375
vt 0.6538086 0.32910156
vt 0.51416016 0.59375
vt 0.4338379 0.60253906
vt 0.44140625 0.5209961
vt 0.40527344 0.4765625
vt 0.54541016 0.31225586
vn -0 0 1
vn -0 0 1
vn -0 0 1
vn -0 0 1
vn -0 0 1
vn -0 0 1
vn -0 0 1
vn -0 0 1
vn -0 0 1
vn -0 0 1
vn -0 0 1
vn -0 0 1
vn -0 0 1
vn -0 0 1
vn -0 0 1
vn -0 0 1
g front1_geo_0
f 3/3/3 2/2/2 1/1/1
f 2/2/2 4/4/4 1/1/1
f 2/2/2 5/5/5 4/4/4
f 6/6/6 5/5/5 2/2/2
f 6/6/6 7/7/7 5/5/5
f 7/7/7 8/8/8 5/5/5
f 11/11/11 10/10/10 9/9/9
f 11/11/11 9/9/9 12/12/12
f 11/11/11 12/12/12 13/13/13
f 11/11/11 13/13/13 14/14/14
f 11/11/11 14/14/14 15/15/15
f 11/11/11 15/15/15 16/16/16
