g frontR_geo
v -0.37043196 -0.47915533 0.005
v -0.33333462 -0.13537982 0.005
v 0.4034838 -0.20847085 0.005
v 0.3787647 -0.55211735 0.005
v -0.09315911 -0.06349878 -0.005
v -0.39573628 -0.12421024 -0.005
v -0.35727486 0.13434106 -0.005
v -0.10370776 0.10224718 -0.005
v -0.4034838 -0.2538099 0.015
v -0.3410187 0.052574594 0.015
v -0.10736472 -0.00032808303 0.015
v -0.046355296 -0.24967544 0.015
v -0.05879195 -0.46360344 0.015
v 0.2069337 -0.27455634 0.015
v 0.19670597 -0.4782698 0.015
v 0.19330327 0.24609247 -0.015
v 0.3637941 0.5011022 -0.015
v 0.3322532 0.3031057 -0.015
v 0.2113581 0.40196174 -0.015
v -0.16852432 0.11479055 -0.015
v -0.15644908 0.23563024 -0.015
v -0.33222803 0.08953241 -0.015
v -0.32641563 0.15056147 -0.015
v -0.115849674 0.47375768 -0.015
v 0.14068896 0.55211735 -0.015
vt 0.4309082 0.5371094
vt 0.44335938 0.6533203
vt 0.6928711 0.62890625
vt 0.6845703 0.51220703
vt 0.11743164 0.9042969
vt 0.015037537 0.88378906
vt 0.028045654 0.9711914
vt 0.1138916 0.9604492
vt 0.36621094 0.76171875
vt 0.38745117 0.8652344
vt 0.46655273 0.84716797
vt 0.48706055 0.7631836
vt 0.48291016 0.6904297
vt 0.5727539 0.75439453
vt 0.56933594 0.6855469
vt 0.2849121 0.88183594
vt 0.3425293 0.96777344
vt 0.33203125 0.9008789
vt 0.29101562 0.9345703
vt 0.16247559 0.83740234
vt 0.16662598 0.8779297
vt 0.107055664 0.8286133
vt 0.109069824 0.8491211
vt 0.18029785 0.9584961
vt 0.26708984 0.98535156
vn -0 0 1
vn -0 0 1
vn -0 0 1
vn -0 0 1
vn -0 0 1
vn -0 0 1
vn -0 0 1
vn -0 0 1
vn -0 0 1
vn -0 0 1
vn -0 0 1
vn -0 0 1
vn -0 0 1
vn -0 0 1
vn -0 0 1
vn -0 0 1
vn -0 0 1
vn -0 0 1
vn -0 0 1
vn -0 0 1
vn -0 0 1
vn -0 0 1
vn -0 0 1
vn -0 0 1
vn -0 0 1
g frontR_geo_0
f 3/3/3 2/2/2 1/1/1
f 4/4/4 3/3/3 1/1/1
f 7/7/7 6/6/6 5/5/5
f 8/8/8 7/7/7 5/5/5
g frontR_geo_1
f 11/11/11 10/10/10 9/9/9
f 12/12/12 11/11/11 9/9/9
f 12/12/12 9/9/9 13/13/13
f 14/14/14 12/12/12 13/13/13
f 15/15/15 14/14/14 13/13/13
g frontR_geo_2
f 18/18/18 17/17/17 16/16/16
f 17/17/17 19/19/19 16/16/16
f 16/16/16 19/19/19 20/20/20
f 19/19/19 21/21/21 20/20/20
f 20/20/20 21/21/21 22/22/22
f 21/21/21 23/23/23 22/22/22
f 24/24/24 21/21/21 19/19/19
f 25/25/25 24/24/24 19/19/19
