g frontR_geo_01
v -0.47884277 -0.3473074 0
v -0.30517438 -0.0036822176 0
v -0.3609209 -0.33192906 0
v -0.47884277 -0.0036822176 0
v -0.6544335 -0.31847298 0
v -0.38591075 0.31495318 0
v -0.6525112 -0.0036822176 0
v -0.47884277 0.33994296 0
v -0.59292 0.31495318 0
v 0.47863856 -0.3493057 0
v 0.644361 0.05507766 0
v 0.5772351 -0.32520923 0
v 0.47863856 0.05507766 0
v 0.31291613 -0.3338151 0
v 0.5927257 0.32004565 0
v 0.3438973 0.05507766 0
v 0.47863856 0.3493057 0
v 0.38520557 0.32004565 0
vt 0.6015625 0.45922852
vt 0.6567383 0.56884766
vt 0.6386719 0.46411133
vt 0.6015625 0.56884766
vt 0.54541016 0.46850586
vt 0.6308594 0.67041016
vt 0.54589844 0.56884766
vt 0.6015625 0.67822266
vt 0.5649414 0.67041016
vt 0.46191406 0.17077637
vt 0.51464844 0.29956055
vt 0.49316406 0.1784668
vt 0.46191406 0.29956055
vt 0.40893555 0.17565918
vt 0.49804688 0.38378906
vt 0.4189453 0.29956055
vt 0.46191406 0.39331055
vt 0.4321289 0.38378906
vn -0 0 1
vn -0 0 1
vn -0 0 1
vn -0 0 1
vn -0 0 1
vn -0 0 1
vn -0 0 1
vn -0 0 1
vn -0 0 1
vn -0 0 1
vn -0 0 1
vn -0 0 1
vn -0 0 1
vn -0 0 1
vn -0 0 1
vn -0 0 1
vn -0 0 1
vn -0 0 1
g frontR_geo_01_0
f 3/3/3 2/2/2 1/1/1
f 2/2/2 4/4/4 1/1/1
f 1/1/1 4/4/4 5/5/5
f 2/2/2 6/6/6 4/4/4
f 4/4/4 7/7/7 5/5/5
f 6/6/6 8/8/8 4/4/4
f 4/4/4 8/8/8 7/7/7
f 8/8/8 9/9/9 7/7/7
f 12/12/12 11/11/11 10/10/10
f 11/11/11 13/13/13 10/10/10
f 10/10/10 13/13/13 14/14/14
f 11/11/11 15/15/15 13/13/13
f 13/13/13 16/16/16 14/14/14
f 15/15/15 17/17/17 13/13/13
f 13/13/13 17/17/17 16/16/16
f 17/17/17 18/18/18 16/16/16
