g frontL_geo_02
v -0.27475575 -0.041241672 0
v -0.10801626 -0.041241672 0
v -0.10801626 -0.1490911 0
v -0.27475575 -0.1490911 0
v 0.06647583 -0.06294756 0
v 0.06647582 -0.15431258 0
v -0.0332953 -0.1543126 0
v -0.0332953 -0.06294761 0
v 0.10546871 -0.07357809 0
v 0.10546872 0.0494421 0
v 0.2254615 0.04944209 0
v 0.2254615 -0.0735781 0
v 0.6186009 -0.071223676 0
v 0.46183687 -0.0712237 0
v 0.43194434 0.043210983 0
v 0.6186008 0.043211088 0
v 0.46488643 0.81023765 0
v 0.5636345 0.81023735 0
v 0.5636345 0.7354704 0
v 0.46488643 0.7354704 0
v 0.320562 0.21121864 0
v 0.43196502 0.38143286 0
v 0.6122266 0.38143286 0
v 0.5186565 0.21121864 0
v 0.42066002 0.6458612 0
v 0.62023765 0.6458612 0
v 0.62023765 0.4041488 0
v 0.42066002 0.4041488 0
v 0.15770268 0.6450027 0
v 0.15770227 0.6936408 0
v 0.20698622 0.6936409 0
v 0.20698649 0.64500314 0
v 0.10498185 0.9433922 0
v 0.3382764 0.9196828 0
v 0.26363212 0.8035826 0
v 0.15318365 0.8035827 0
v 0.2492747 0.62295234 0
v 0.24927455 0.6953903 0
v 0.34382364 0.6953906 0
v 0.34382373 0.6229529 0
vt 0.609375 0.77734375
vt 0.6660156 0.77734375
vt 0.6660156 0.74072266
vt 0.609375 0.74072266
vt 0.7167969 0.7714844
vt 0.7167969 0.74072266
vt 0.68310547 0.74072266
vt 0.68310547 0.7714844
vt 0.7792969 0.74072266
vt 0.7792969 0.78222656
vt 0.8198242 0.78222656
vt 0.8198242 0.74072266
vt 0.99121094 0.74072266
vt 0.9379883 0.74072266
vt 0.9277344 0.7792969
vt 0.99121094 0.7792969
vt 0.37719727 0.93359375
vt 0.4128418 0.93359375
vt 0.4128418 0.90625
vt 0.37719727 0.90625
vt 0.7631836 0.8364258
vt 0.80126953 0.89404297
vt 0.8623047 0.89404297
vt 0.8305664 0.8364258
vt 0.7973633 0.99072266
vt 0.8652344 0.99072266
vt 0.8652344 0.9086914
vt 0.7973633 0.9086914
vt 0.24645996 0.77001953
vt 0.24645996 0.78759766
vt 0.2644043 0.78759766
vt 0.2644043 0.77001953
vt 0.22729492 0.9921875
vt 0.31176758 0.98339844
vt 0.2849121 0.94140625
vt 0.24475098 0.94140625
vt 0.27954102 0.7973633
vt 0.27954102 0.82373047
vt 0.3137207 0.82373047
vt 0.3137207 0.7973633
vn -0 0 1
vn -0 0 1
vn -0 0 1
vn -0 0 1
vn -0 0 1
vn -0 0 1
vn -0 0 1
vn -0 0 1
vn -0 0 1
vn -0 0 1
vn -0 0 1
vn -0 0 1
vn -0 0 1
vn -0 0 1
vn -0 0 1
vn -0 0 1
vn -0 0 1
vn -0 0 1
vn -0 0 1
vn -0 0 1
vn -0 0 1
vn -0 0 1
vn -0 0 1
vn -0 0 1
vn -0 0 1
vn -0 0 1
vn -0 0 1
vn -0 0 1
vn -0 0 1
vn -0 0 1
vn -0 0 1
vn -0 0 1
vn -0 0 1
vn -0 0 1
vn -0 0 1
vn -0 0 1
vn -0 0 1
vn -0 0 1
vn -0 0 1
vn -0 0 1
g frontL_geo_02_0
f 3/3/3 2/2/2 1/1/1
f 4/4/4 3/3/3 1/1/1
f 7/7/7 6/6/6 5/5/5
f 8/8/8 7/7/7 5/5/5
f 11/11/11 10/10/10 9/9/9
f 12/12/12 11/11/11 9/9/9
f 15/15/15 14/14/14 13/13/13
f 16/16/16 15/15/15 13/13/13
f 19/19/19 18/18/18 17/17/17
f 20/20/20 19/19/19 17/17/17
f 23/23/23 22/22/22 21/21/21
f 24/24/24 23/23/23 21/21/21
f 27/27/27 26/26/26 25/25/25
f 28/28/28 27/27/27 25/25/25
f 31/31/31 30/30/30 29/29/29
f 32/32/32 31/31/31 29/29/29
f 35/35/35 34/34/34 33/33/33
f 36/36/36 35/35/35 33/33/33
f 39/39/39 38/38/38 37/37/37
f 40/40/40 39/39/39 37/37/37
