g frontR_geo
v -0.07673949 -0.42194435 0.01
v -0.07673949 -0.21196349 0.01
v 0.033163078 -0.21196349 0.01
v 0.033163078 -0.42194435 0.01
v 0.09806159 -0.46250677 0.01
v 0.09806159 -0.33363277 0.01
v 0.1788914 -0.33363277 0.01
v 0.18945244 -0.46250677 0.01
v 0.21625389 -0.5676594 0.01
v 0.17821762 -0.29680648 0.01
v 0.5627989 -0.267647 0.01
v 0.5627989 -0.45602027 0.01
v 0.04800046 -0.41028053 0.01
v 0.04800046 -0.32610196 0.01
v 0.08581788 -0.32610196 0.01
v 0.08581788 -0.41028053 0.01
v -0.12784988 -0.37736484 -0.01
v -0.029979123 -0.0058750627 -0.01
v -0.061119832 -0.37736484 -0.01
v -0.12784988 -0.0058750627 -0.01
v -0.19457991 -0.37736484 -0.01
v -0.22572058 -0.0058750627 -0.01
v -0.0121844765 0.28584737 -0.01
v -0.12784988 0.28584743 -0.01
v -0.24351528 0.28584737 -0.01
v -0.0121844765 0.41710657 -0.01
v 0.1087992 0.26175 -0.01
v -0.12784988 0.48524082 -0.01
v 0.1087992 0.3881451 -0.01
v 0.39626244 0.44379976 -0.01
v 0.39626244 0.5676594 -0.01
v -0.24351528 0.41710666 -0.01
v -0.3593557 0.2489926 -0.01
v -0.3593557 0.3731644 -0.01
v -0.57647103 0.30830875 -0.01
v -0.57647103 0.41710666 -0.01
vt 0.009109497 0.7661133
vt 0.009109497 0.8618164
vt 0.059051514 0.8618164
vt 0.059051514 0.7661133
vt 0.08856201 0.7661133
vt 0.08856201 0.82470703
vt 0.12524414 0.82470703
vt 0.13012695 0.7661133
vt 0.828125 0.84375
vt 0.8105469 0.96728516
vt 0.98535156 0.98046875
vt 0.98535156 0.89453125
vt 0.0657959 0.7661133
vt 0.0657959 0.8046875
vt 0.08300781 0.8046875
vt 0.08300781 0.7661133
vt 0.45825195 0.55566406
vt 0.5029297 0.7241211
vt 0.4885254 0.55566406
vt 0.45825195 0.7241211
vt 0.42797852 0.55566406
vt 0.41381836 0.7241211
vt 0.5107422 0.8569336
vt 0.45825195 0.8569336
vt 0.40576172 0.8569336
vt 0.5107422 0.9165039
vt 0.56591797 0.8457031
vt 0.45825195 0.9472656
vt 0.56591797 0.9033203
vt 0.69628906 0.92871094
vt 0.69628906 0.9848633
vt 0.40576172 0.9165039
vt 0.35302734 0.83984375
vt 0.35302734 0.8964844
vt 0.25439453 0.8671875
vt 0.25439453 0.9165039
vn -0 0 1
vn -0 0 1
vn -0 0 1
vn -0 0 1
vn -0 0 1
vn -0 0 1
vn -0 0 1
vn -0 0 1
vn -0 0 1
vn -0 0 1
vn -0 0 1
vn -0 0 1
vn -0 0 1
vn -0 0 1
vn -0 0 1
vn -0 0 1
vn -0 0 1
vn -0 0 1
vn -0 0 1
vn -0 0 1
vn -0 0 1
vn -0 0 1
vn -0 0 1
vn -0 0 1
vn -0 0 1
vn -0 0 1
vn -0 0 1
vn -0 0 1
vn -0 0 1
vn -0 0 1
vn -0 0 1
vn -0 0 1
vn -0 0 1
vn -0 0 1
vn -0 0 1
vn -0 0 1
g frontR_geo_0
f 3/3/3 2/2/2 1/1/1
f 4/4/4 3/3/3 1/1/1
f 7/7/7 6/6/6 5/5/5
f 8/8/8 7/7/7 5/5/5
f 11/11/11 10/10/10 9/9/9
f 12/12/12 11/11/11 9/9/9
f 15/15/15 14/14/14 13/13/13
f 16/16/16 15/15/15 13/13/13
f 19/19/19 18/18/18 17/17/17
f 18/18/18 20/20/20 17/17/17
f 17/17/17 20/20/20 21/21/21
f 20/20/20 22/22/22 21/21/21
f 18/18/18 23/23/23 20/20/20
f 20/20/20 24/24/24 22/22/22
f 23/23/23 24/24/24 20/20/20
f 24/24/24 25/25/25 22/22/22
f 24/24/24 23/23/23 26/26/26
f 26/26/26 23/23/23 27/27/27
f 28/28/28 24/24/24 26/26/26
f 25/25/25 24/24/24 28/28/28
f 29/29/29 26/26/26 27/27/27
f 29/29/29 27/27/27 30/30/30
f 31/31/31 29/29/29 30/30/30
f 32/32/32 25/25/25 28/28/28
f 33/33/33 25/25/25 32/32/32
f 34/34/34 33/33/33 32/32/32
f 35/35/35 33/33/33 34/34/34
f 36/36/36 35/35/35 34/34/34
