g frontL_geo_03
v -0.33147478 -0.08017582 0
v -0.33147478 0.0660355 0
v -0.22638547 0.0660355 0
v -0.22638547 -0.08017582 0
v 0.008554255 -0.057168253 0
v 0.008554255 0.042994197 0
v 0.09524883 0.042994197 0
v 0.09524883 -0.057168253 0
v 0.23473638 -0.12959087 0
v 0.23473638 0.019950641 0
v 0.46668452 0.019950641 0
v 0.39206752 -0.12959087 0
v 0.575557 0.18223654 0
v 0.59260094 0.043364756 0
v 0.49321178 0.03292282 0
v 0.49321178 0.14671765 0
v 0.48457608 0.2516195 0
v 0.48457608 0.15143609 0
v 0.43826315 0.17213161 0
v 0.5285347 0.21751155 0
v 0.23473638 0.77807397 0
v 0.23473638 0.66205305 0
v 0.11324848 0.6620536 0
v 0.11324848 0.7780746 0
v 0.49186504 0.5551192 0
v 0.41882858 0.5551192 0
v 0.4188287 0.6650677 0
v 0.4918649 0.66506743 0
v 0.5929568 0.62411225 0
v 0.53910446 0.62411237 0
v 0.53910446 0.71383095 0
v 0.5929568 0.71383077 0
v 0.4697068 0.8810065 0
v 0.4697068 0.7692586 0
v 0.34226778 0.8061119 0
v 0.34226778 0.91156334 0
v 0.49123168 0.4041488 0
v 0.40863532 0.4041488 0
v 0.40863535 0.5179596 0
v 0.4912318 0.5179596 0
v 0.38993517 0.6802582 0
v 0.32973906 0.68025804 0
v 0.3297391 0.75901663 0
v 0.38993517 0.7590164 0
v 0.43931335 0.37797895 0
v 0.43931365 0.27093202 0
v 0.36723998 0.2709319 0
v 0.36723998 0.37797862 0
v 0.6180409 0.41886383 0
v 0.5520806 0.41886383 0
v 0.5520806 0.5147125 0
v 0.618041 0.51471245 0
v 0.6358709 0.34933 0
v 0.63587093 0.2445767 0
v 0.53477216 0.2445767 0
v 0.53477204 0.34933007 0
vt 0.55615234 0.74072266
vt 0.55615234 0.79052734
vt 0.59228516 0.79052734
vt 0.59228516 0.74072266
vt 0.72998047 0.74072266
vt 0.72998047 0.77490234
vt 0.75927734 0.77490234
vt 0.75927734 0.74072266
vt 0.83203125 0.74072266
vt 0.83203125 0.7915039
vt 0.91064453 0.7915039
vt 0.8852539 0.74072266
vt 0.98535156 0.8642578
vt 0.99121094 0.81689453
vt 0.95751953 0.81347656
vt 0.95751953 0.8520508
vt 0.9042969 0.8691406
vt 0.9042969 0.8354492
vt 0.8881836 0.84228516
vt 0.9189453 0.85791016
vt 0.27441406 0.87646484
vt 0.27441406 0.83447266
vt 0.23034668 0.83447266
vt 0.23034668 0.87646484
vt 0.3869629 0.79589844
vt 0.36035156 0.79589844
vt 0.36035156 0.8354492
vt 0.3869629 0.8354492
vt 0.42358398 0.8208008
vt 0.40405273 0.8208008
vt 0.40405273 0.85302734
vt 0.42358398 0.85302734
vt 0.3708496 0.96972656
vt 0.3708496 0.9291992
vt 0.32470703 0.9423828
vt 0.32470703 0.98046875
vt 0.92089844 0.9394531
vt 0.8925781 0.9394531
vt 0.8925781 0.97802734
vt 0.92089844 0.97802734
vt 0.3305664 0.8408203
vt 0.3088379 0.8408203
vt 0.3088379 0.8696289
vt 0.3305664 0.8696289
vt 0.92089844 0.93066406
vt 0.92089844 0.89453125
vt 0.8964844 0.89453125
vt 0.8964844 0.93066406
vt 0.99121094 0.9448242
vt 0.96875 0.9448242
vt 0.96875 0.9770508
vt 0.99121094 0.9770508
vt 0.99121094 0.92089844
vt 0.99121094 0.8852539
vt 0.95703125 0.8852539
vt 0.95703125 0.92089844
vn -0 0 1
vn -0 0 1
vn -0 0 1
vn -0 0 1
vn -0 0 1
vn -0 0 1
vn -0 0 1
vn -0 0 1
vn -0 0 1
vn -0 0 1
vn -0 0 1
vn -0 0 1
vn -0 0 1
vn -0 0 1
vn -0 0 1
vn -0 0 1
vn -0 0 1
vn -0 0 1
vn -0 0 1
vn -0 0 1
vn -0 0 1
vn -0 0 1
vn -0 0 1
vn -0 0 1
vn -0 0 1
vn -0 0 1
vn -0 0 1
vn -0 0 1
vn -0 0 1
vn -0 0 1
vn -0 0 1
vn -0 0 1
vn -0 0 1
vn -0 0 1
vn -0 0 1
vn -0 0 1
vn -0 0 1
vn -0 0 1
vn -0 0 1
vn -0 0 1
vn -0 0 1
vn -0 0 1
vn -0 0 1
vn -0 0 1
vn -0 0 1
vn -0 0 1
vn -0 0 1
vn -0 0 1
vn -0 0 1
vn -0 0 1
vn -0 0 1
vn -0 0 1
vn -0 0 1
vn -0 0 1
vn -0 0 1
vn -0 0 1
g frontL_geo_03_0
f 3/3/3 2/2/2 1/1/1
f 4/4/4 3/3/3 1/1/1
f 7/7/7 6/6/6 5/5/5
f 8/8/8 7/7/7 5/5/5
f 11/11/11 10/10/10 9/9/9
f 12/12/12 11/11/11 9/9/9
f 15/15/15 14/14/14 13/13/13
f 16/16/16 15/15/15 13/13/13
f 19/19/19 18/18/18 17/17/17
f 20/20/20 17/17/17 18/18/18
f 23/23/23 22/22/22 21/21/21
f 24/24/24 23/23/23 21/21/21
f 27/27/27 26/26/26 25/25/25
f 28/28/28 27/27/27 25/25/25
f 31/31/31 30/30/30 29/29/29
f 32/32/32 31/31/31 29/29/29
f 35/35/35 34/34/34 33/33/33
f 36/36/36 35/35/35 33/33/33
f 39/39/39 38/38/38 37/37/37
f 40/40/40 39/39/39 37/37/37
f 43/43/43 42/42/42 41/41/41
f 44/44/44 43/43/43 41/41/41
f 47/47/47 46/46/46 45/45/45
f 48/48/48 47/47/47 45/45/45
f 51/51/51 50/50/50 49/49/49
f 52/52/52 51/51/51 49/49/49
f 55/55/55 54/54/54 53/53/53
f 56/56/56 55/55/55 53/53/53
