g frontGlow_geo
v 0.05316635 -0.8100458 0
v 0.05316635 -0.09814369 0
v 0.7951501 -0.09814369 0
v 0.7951501 -0.8100458 0
v 0.9474659 -0.11645229 0
v 1.5213205 -0.11645229 0
v 1.5213205 -0.769059 0
v 0.9474659 -0.769059 0
vt 0.029464722 0.7915039
vt 0.029464722 0.9638672
vt 0.20947266 0.9638672
vt 0.20947266 0.7915039
vt 0.23046875 0.95947266
vt 0.3696289 0.95947266
vt 0.3696289 0.80126953
vt 0.23046875 0.80126953
vn -0 0 1
vn -0 0 1
vn -0 0 1
vn -0 0 1
vn -0 0 1
vn -0 0 1
vn -0 0 1
vn -0 0 1
g frontGlow_geo_0
f 3/3/3 2/2/2 1/1/1
f 4/4/4 3/3/3 1/1/1
f 7/7/7 6/6/6 5/5/5
f 8/8/8 7/7/7 5/5/5
