g frontR_geo
v 0.23922077 0.13946128 0
v 0.23732051 -0.4660763 0
v 0.15210618 -0.39322132 0
v 0.53084046 -0.050224412 0
v 0.45703092 0.1554467 0
v 0.34701774 0.19432698 0
v 0.1349347 0.4074797 0.01
v 0.5024691 0.29286104 0.01
v 0.46988654 0.19760244 0.01
v 0.10938256 0.19772924 0.01
v -0.2517803 0.26733962 0.01
v -0.2517803 0.44291937 0.01
v -0.5024692 0.29295465 -0.01
v -0.11513885 0.18245141 -0.01
v -0.47500715 0.11497138 -0.01
v -0.11513885 0.46607634 -0.01
v 0.26309004 0.27672353 -0.01
v 0.23625594 0.12330565 -0.01
vt 0.5239258 0.9370117
vt 0.5229492 0.74365234
vt 0.4958496 0.76708984
vt 0.6166992 0.87646484
vt 0.5932617 0.94189453
vt 0.55810547 0.95458984
vt 0.13061523 0.98046875
vt 0.2479248 0.94384766
vt 0.23754883 0.9135742
vt 0.12249756 0.9135742
vt 0.0072288513 0.9355469
vt 0.0072288513 0.9916992
vt 0.009132385 0.83447266
vt 0.13269043 0.7993164
vt 0.01789856 0.77734375
vt 0.13269043 0.88964844
vt 0.25341797 0.82910156
vt 0.24487305 0.78027344
vn -0 0 1
vn -0 0 1
vn -0 0 1
vn -0 0 1
vn -0 0 1
vn -0 0 1
vn -0 0 1
vn -0 0 1
vn -0 0 1
vn -0 0 1
vn -0 0 1
vn -0 0 1
vn -0 0 1
vn -0 0 1
vn -0 0 1
vn -0 0 1
vn -0 0 1
vn -0 0 1
g frontR_geo_0
f 3/3/3 2/2/2 1/1/1
f 2/2/2 4/4/4 1/1/1
f 1/1/1 4/4/4 5/5/5
f 6/6/6 1/1/1 5/5/5
g frontR_geo_1
f 9/9/9 8/8/8 7/7/7
f 10/10/10 9/9/9 7/7/7
f 10/10/10 7/7/7 11/11/11
f 7/7/7 12/12/12 11/11/11
g frontR_geo_2
f 15/15/15 14/14/14 13/13/13
f 14/14/14 16/16/16 13/13/13
f 17/17/17 16/16/16 14/14/14
f 18/18/18 17/17/17 14/14/14
