g frontGlow_geo
v 0.51570004 0.3029612 9.360495E-05
v 0.626206 0.27280214 9.360495E-05
v 0.61576635 0.14982094 9.360495E-05
v 0.49476057 0.16404556 9.360495E-05
v -0.38462898 0.2489249 -9.360608E-05
v -0.47917435 0.3446026 -9.360608E-05
v -0.36934325 0.4453135 -9.360608E-05
v -0.2791972 0.376059 -9.360608E-05
v -0.46398863 -0.022628956 -2.8830443E-06
v -0.5841496 -0.056229018 -2.8830443E-06
v -0.6223134 0.059716336 -2.8830443E-06
v -0.5193491 0.06807617 -2.8830443E-06
v 0.3620243 -0.42808703 9.360495E-05
v 0.2893808 -0.4453135 9.360495E-05
v 0.24226625 -0.3489185 9.360495E-05
v 0.34128013 -0.31101185 9.360495E-05
v 0.5720335 -0.19517615 -6.7940324E-05
v 0.6139025 -0.27414653 -6.7940324E-05
v 0.5348092 -0.30933115 -6.7940324E-05
v 0.4966986 -0.22576831 -6.7940324E-05
vt 0.91796875 0.93896484
vt 0.96484375 0.92626953
vt 0.9604492 0.87402344
vt 0.9091797 0.8803711
vt 0.54003906 0.9160156
vt 0.5004883 0.9560547
vt 0.5463867 0.9980469
vt 0.5839844 0.9692383
vt 0.50634766 0.80029297
vt 0.4560547 0.7861328
vt 0.44018555 0.83496094
vt 0.4831543 0.8383789
vt 0.8535156 0.6308594
vt 0.8227539 0.62353516
vt 0.8027344 0.6640625
vt 0.84472656 0.6801758
vt 0.94628906 0.7402344
vt 0.9638672 0.70654297
vt 0.93066406 0.69189453
vt 0.9145508 0.7270508
vn -0 0 1
vn -0 0 1
vn -0 0 1
vn -0 0 1
vn -0 0 1
vn -0 0 1
vn -0 0 1
vn -0 0 1
vn -0 0 1
vn -0 0 1
vn -0 0 1
vn -0 0 1
vn -0 0 1
vn -0 0 1
vn -0 0 1
vn -0 0 1
vn -0 0 1
vn -0 0 1
vn -0 0 1
vn -0 0 1
g frontGlow_geo_0
f 3/3/3 2/2/2 1/1/1
f 4/4/4 3/3/3 1/1/1
f 7/7/7 6/6/6 5/5/5
f 8/8/8 7/7/7 5/5/5
f 11/11/11 10/10/10 9/9/9
f 12/12/12 11/11/11 9/9/9
f 15/15/15 14/14/14 13/13/13
f 16/16/16 15/15/15 13/13/13
f 19/19/19 18/18/18 17/17/17
f 20/20/20 19/19/19 17/17/17
