g frontR_geo
v 0.12825145 -0.35482627 0
v -0.068226166 -0.32833034 1.2313407E-15
v -0 0 1.1828386E-15
v 0.19920929 -0.039149072 0
v 1.0062366 -0.49056 1.7417336E-15
v 0.8214462 -0.4651567 1.812861E-15
v 0.8604716 -0.11778867 1.3286205E-15
v 1.0462569 -0.13610244 2.8804497E-15
vt 0.59716797 0.86572266
vt 0.52978516 0.875
vt 0.55322266 0.98779297
vt 0.62158203 0.9741211
vt 0.7338867 0.8598633
vt 0.67089844 0.86865234
vt 0.68408203 0.98779297
vt 0.7480469 0.9814453
vn -0 0 1
vn -0 0 1
vn -0 0 1
vn -0 0 1
vn -0 0 1
vn -0 0 1
vn -0 0 1
vn -0 0 1
g frontR_geo_0
f 3/3/3 2/2/2 1/1/1
f 4/4/4 3/3/3 1/1/1
f 7/7/7 6/6/6 5/5/5
f 8/8/8 7/7/7 5/5/5
