g GateR_Sub_Mesh
v -0.03543503 -0.83619916 0.0522516
v -7.8148304E-10 -0.8750233 0.048922
v -7.8148304E-10 -0.83619916 0.05225157
v -0.03543503 -0.78886014 0.055994272
v -0.07846436 -0.78941625 0.055994306
v -7.8148304E-10 -0.78941625 0.055994242
v -0.078976095 -0.74463546 0.058806017
v -0.11930198 -0.74495494 0.058806043
v -0.11901002 -0.6529149 0.061858136
v -0.03543503 -0.7445861 0.058805987
v -7.8148304E-10 -0.74495494 0.05880596
v -0.078976095 -0.6525403 0.06185811
v -0.11900902 -0.5415039 0.06426254
v -0.035434045 -0.65243214 0.061858084
v -7.8148304E-10 -0.6529149 0.06185806
v -0.078976095 -0.5412218 0.06426252
v -0.119008064 -0.4300195 0.06608568
v -0.03543305 -0.5411446 0.0642625
v -7.8148304E-10 -0.54150385 0.06426248
v -0.078976095 -0.42983422 0.06608567
v -0.11900707 -0.3185207 0.06696029
v -0.035432067 -0.42978114 0.06608565
v -7.8148304E-10 -0.4300195 0.06608562
v -7.8148304E-10 -0.31852064 0.066960245
v -0.078976095 -0.3184365 0.06696029
v -0.035431072 -0.31840068 0.06696027
v -7.8148304E-10 -0.20700859 0.066829994
v -0.035430104 -0.20703596 0.06683001
v -7.8148304E-10 -0.09542259 0.06523993
v -0.078976095 -0.2070584 0.06683002
v -0.11900606 -0.20700866 0.066830024
v -0.035429113 -0.09563934 0.065239936
v -7.8148304E-10 0.016127244 0.0621607
v -0.078976095 -0.095654525 0.06523994
v -0.119005084 -0.09542266 0.06523995
v -0.035427865 0.015726851 0.0621607
v -7.8148304E-10 0.11050964 0.057325296
v -0.035427112 0.11050964 0.057325296
v -0.078976095 0.01570366 0.0621607
v -0.11900384 0.016127167 0.062160704
v -0.078976095 0.11050964 0.057325296
v -0.11900308 0.11050964 0.057325296
v -7.8148304E-10 -0.8750233 0.06347946
v -7.8148304E-10 -0.8750233 0.048922
v -0.03543503 -0.83619916 0.0522516
v -0.03543503 -0.83619916 0.06683776
v -0.07846436 -0.78941625 0.055994306
v -0.07846436 -0.7894163 0.070593536
v -0.11930198 -0.74495494 0.058806043
v -0.11930198 -0.74495494 0.07341585
v -7.8148304E-10 -0.83619916 0.05225157
v -7.8148304E-10 -0.8750233 0.048922
v -7.8148304E-10 -0.8750233 0.06347946
v -7.8148304E-10 -0.83619916 0.066837735
v -7.8148304E-10 -0.78941625 0.055994242
v -7.8148304E-10 -0.78941625 0.070593484
v -7.8148304E-10 -0.74495494 0.05880596
v -7.8148304E-10 -0.74495494 0.07341578
v -7.8148304E-10 -0.6529149 0.06185806
v -7.8148304E-10 -0.6529149 0.07611091
v -7.8148304E-10 -0.54150385 0.06426248
v -7.8148304E-10 -0.5415039 0.07888566
v -7.8148304E-10 -0.4300195 0.06608562
v -7.8148304E-10 -0.4300195 0.0807115
v -7.8148304E-10 -0.31852064 0.066960245
v -7.8148304E-10 -0.3185207 0.08158688
v -7.8148304E-10 -0.20700859 0.08145473
v -7.8148304E-10 -0.20700859 0.066829994
v -7.8148304E-10 -0.09542259 0.07985769
v -7.8148304E-10 -0.09542259 0.06523993
v -7.8148304E-10 0.01612732 0.07676605
v -7.8148304E-10 0.016127244 0.0621607
v -7.8148304E-10 0.11050979 0.0719125
v -7.8148304E-10 0.11050964 0.057325296
v -0.11900384 0.016127167 0.062160704
v -0.11900308 0.11050964 0.057325296
v -0.11900308 0.11050964 0.0719125
v -0.11900384 0.016127244 0.07676606
v -0.119005084 -0.09542266 0.06523995
v -0.119005084 -0.09542259 0.07985771
v -0.11900606 -0.20700866 0.066830024
v -0.11900606 -0.20700866 0.08145476
v -0.11900707 -0.3185207 0.06696029
v -0.11900707 -0.3185207 0.08158691
v -0.119008064 -0.4300195 0.08071154
v -0.119008064 -0.4300195 0.06608568
v -0.11900902 -0.5415039 0.07888573
v -0.11900902 -0.5415039 0.06426254
v -0.11901002 -0.6529149 0.076110974
v -0.11901002 -0.6529149 0.061858136
v -0.11930198 -0.74495494 0.07341585
v -0.11930198 -0.74495494 0.058806043
v -7.8148304E-10 0.11050964 0.057325296
v -7.8148304E-10 0.11050979 0.0719125
v -0.035427112 0.11050964 0.057325296
v -0.035427112 0.11050995 0.0719125
v -0.078976095 0.11050964 0.057325296
v -0.078976095 0.11050964 0.0719125
v -0.11900308 0.11050964 0.057325296
v -0.11900308 0.11050964 0.0719125
v -0.11900384 0.016127244 0.07676606
v -0.11900308 0.11050964 0.0719125
v -0.078976095 0.11050964 0.0719125
v -0.078976095 0.016720353 0.07676606
v -0.035427112 0.11050995 0.0719125
v -0.119005084 -0.09542259 0.07985771
v -0.035427865 0.016743697 0.07676605
v -7.8148304E-10 0.11050979 0.0719125
v -7.8148304E-10 0.01612732 0.07676605
v -0.078976095 -0.09501098 0.0798577
v -0.11900606 -0.20700866 0.08145476
v -0.035429113 -0.09499565 0.0798577
v -7.8148304E-10 -0.09542259 0.07985769
v -0.078976095 -0.20678817 0.081454754
v -0.11900707 -0.3185207 0.08158691
v -0.035430104 -0.20676567 0.08145474
v -7.8148304E-10 -0.20700859 0.08145473
v -0.078976095 -0.31845057 0.08158691
v -0.035431072 -0.31841478 0.08158689
v -7.8148304E-10 -0.3185207 0.08158688
v -0.035432067 -0.43001926 0.080711514
v -7.8148304E-10 -0.4300195 0.0807115
v -7.8148304E-10 -0.5415039 0.07888566
v -0.078976095 -0.43007225 0.080711536
v -0.119008064 -0.4300195 0.08071154
v -0.03543305 -0.54160684 0.07888569
v -7.8148304E-10 -0.6529149 0.07611091
v -0.078976095 -0.541684 0.07888571
v -0.11900902 -0.5415039 0.07888573
v -0.03543404 -0.6531184 0.07611093
v -7.8148304E-10 -0.74495494 0.07341578
v -0.078976095 -0.6532264 0.07611095
v -0.11901002 -0.6529149 0.076110974
v -0.03543503 -0.74529797 0.07341581
v -7.8148304E-10 -0.78941625 0.070593484
v -0.078976095 -0.7453824 0.073415846
v -0.11930198 -0.74495494 0.07341585
v -0.07846436 -0.7894163 0.070593536
v -0.03543503 -0.78966093 0.070593506
v -7.8148304E-10 -0.83619916 0.066837735
v -0.03543503 -0.83619916 0.06683776
v -7.8148304E-10 -0.8750233 0.06347946
vt 0.11437605 0.3601707
vt 0.08657849 0.33120742
vt 0.08657849 0.3601707
vt 0.11437534 0.39585382
vt 0.14707023 0.39585382
vt 0.08657849 0.39585382
vt 0.14745542 0.42948347
vt 0.17838632 0.4294835
vt 0.17838632 0.4805976
vt 0.11437355 0.42948347
vt 0.086586714 0.4294835
vt 0.14744839 0.48059762
vt 0.17837445 0.55150175
vt 0.11437009 0.4805976
vt 0.08657347 0.48059762
vt 0.1474393 0.5516179
vt 0.17836465 0.6221748
vt 0.11436461 0.5516351
vt 0.08657849 0.5516307
vt 0.1474318 0.62217486
vt 0.17835663 0.69294786
vt 0.1143602 0.62217486
vt 0.08657849 0.6221748
vt 0.08657849 0.69294786
vt 0.147426 0.69294786
vt 0.1143565 0.69294786
vt 0.08657849 0.7637565
vt 0.11435364 0.7637566
vt 0.08657849 0.8345657
vt 0.14742143 0.7637565
vt 0.17835055 0.76375645
vt 0.11435138 0.8345653
vt 0.08657849 0.9052837
vt 0.14741825 0.8345426
vt 0.17834584 0.8344227
vt 0.11434935 0.90527797
vt 0.08657849 0.97556025
vt 0.1143484 0.97556025
vt 0.14741601 0.90525115
vt 0.17834221 0.9051297
vt 0.14741527 0.97556025
vt 0.17834066 0.97556037
vt 0.21187831 0.3155981
vt 0.21187831 0.30376086
vt 0.23967575 0.30376086
vt 0.23967575 0.3155981
vt 0.27236995 0.30376086
vt 0.27236995 0.3155981
vt 0.30368614 0.30376086
vt 0.30368614 0.3155981
vt 0.20236729 0.3601706
vt 0.20236729 0.33120745
vt 0.21187831 0.33120745
vt 0.21187831 0.3601706
vt 0.20236729 0.39585385
vt 0.21187831 0.39585385
vt 0.20236729 0.4294836
vt 0.21188654 0.4294836
vt 0.20231543 0.48059756
vt 0.21187331 0.48059756
vt 0.2022141 0.5516204
vt 0.21187831 0.5516306
vt 0.20221077 0.6221748
vt 0.21187831 0.6221748
vt 0.20216392 0.6929478
vt 0.21187831 0.6929478
vt 0.21187831 0.76375645
vt 0.20218812 0.76375645
vt 0.21187831 0.8345657
vt 0.2021737 0.83453685
vt 0.21187831 0.90528363
vt 0.20221005 0.90521985
vt 0.21187831 0.9755602
vt 0.20234703 0.9755602
vt 0.31326243 0.90518016
vt 0.31326243 0.9755602
vt 0.30364048 0.9755602
vt 0.30364203 0.9051296
vt 0.31326243 0.8344199
vt 0.3036456 0.83442265
vt 0.31326243 0.76375645
vt 0.30365038 0.76375645
vt 0.31326243 0.6929478
vt 0.30365646 0.6929478
vt 0.30366445 0.6221748
vt 0.31326243 0.6221748
vt 0.30367422 0.5515017
vt 0.31326243 0.5516561
vt 0.30368614 0.48059756
vt 0.31326243 0.48059756
vt 0.30368614 0.4294836
vt 0.31326243 0.4294836
vt 0.21187831 0.983278
vt 0.21187831 0.9755602
vt 0.23964809 0.983278
vt 0.23964809 0.9755602
vt 0.27271494 0.983278
vt 0.27271494 0.9755602
vt 0.30364048 0.983278
vt 0.30364048 0.9755602
vt 0.30364203 0.9051296
vt 0.30364048 0.9755602
vt 0.27271494 0.9755602
vt 0.27271578 0.9052511
vt 0.23964809 0.9755602
vt 0.3036456 0.83442265
vt 0.23964904 0.9052779
vt 0.21187831 0.9755602
vt 0.21187831 0.90528363
vt 0.27271792 0.8345426
vt 0.30365038 0.76375645
vt 0.23965107 0.8345652
vt 0.21187831 0.8345657
vt 0.27272114 0.76375645
vt 0.30365646 0.6929478
vt 0.23965333 0.76375645
vt 0.21187831 0.76375645
vt 0.27272567 0.6929478
vt 0.2396562 0.6929478
vt 0.21187831 0.6929478
vt 0.23965989 0.6221748
vt 0.21187831 0.6221748
vt 0.21187831 0.5516306
vt 0.2727315 0.6221748
vt 0.30366445 0.6221748
vt 0.2396643 0.5516351
vt 0.21187331 0.48059756
vt 0.27273902 0.5516179
vt 0.30367422 0.5515017
vt 0.23966978 0.48059756
vt 0.21188654 0.4294836
vt 0.27274808 0.48059756
vt 0.30368614 0.48059756
vt 0.23967324 0.4294836
vt 0.21187831 0.39585385
vt 0.27275512 0.4294836
vt 0.30368614 0.4294836
vt 0.27236995 0.39585385
vt 0.23967503 0.39585385
vt 0.21187831 0.3601706
vt 0.23967575 0.3601706
vt 0.21187831 0.33120745
vn -0.00029155615 0.08025157 -0.9967746
vn -5.525389E-07 0.08544646 -0.9963427
vn 0.00027732522 0.08201907 -0.9966307
vn -2.09322E-05 0.07128122 -0.99745625
vn -0.00080141745 0.067235015 -0.9977368
vn 0.0010570522 0.071814425 -0.99741745
vn -0.00025421925 0.042806033 -0.9990834
vn -0.0003117317 0.039262876 -0.99922884
vn -0.0002462492 0.026850104 -0.9996395
vn 0.00018885794 0.042889006 -0.9990798
vn 0.0004632717 0.0429785 -0.9990759
vn -0.00014943833 0.026795937 -0.99964094
vn -0.00013968749 0.01898103 -0.99981993
vn 0.00012249743 0.026787635 -0.9996412
vn 0.00035739157 0.026872857 -0.9996388
vn -8.083826E-05 0.018973123 -0.99982005
vn -6.099244E-05 0.012114281 -0.9999267
vn 7.1246635E-05 0.018970154 -0.99982005
vn 0.00018675401 0.018988283 -0.9998197
vn -3.4503686E-05 0.012102565 -0.9999268
vn -9.752537E-06 0.003346531 -0.9999944
vn 2.9185532E-05 0.012095561 -0.9999269
vn 8.048841E-05 0.012115828 -0.99992657
vn 1.3171934E-05 0.0033489494 -0.9999944
vn -5.200951E-06 0.003339747 -0.9999944
vn 3.216871E-06 0.0033352806 -0.9999945
vn 5.184827E-06 -0.0077181216 -0.9999702
vn 8.075306E-06 -0.007719737 -0.9999702
vn 0.00012053727 -0.020961445 -0.99978024
vn -2.6160044E-06 -0.007716636 -0.9999702
vn -1.6987662E-05 -0.007720948 -0.9999702
vn 6.768392E-05 -0.020938942 -0.9997807
vn 0.00042005206 -0.03851638 -0.99925786
vn -5.0564147E-05 -0.020937081 -0.99978083
vn -0.00013586384 -0.020959953 -0.99978036
vn 0.00017810037 -0.038355563 -0.9992642
vn 0.0001310655 -0.050998267 -0.9986987
vn 4.1015496E-06 -0.050944418 -0.99870145
vn -0.0001777707 -0.03831064 -0.99926585
vn -0.00034361178 -0.038424265 -0.99926144
vn -6.598379E-05 -0.051018085 -0.99869776
vn -0 -0.051165007 -0.9986902
vn -0.7386099 -0.674133 0
vn -0.7386101 -0.67413294 0
vn -0.7372417 -0.6756291 0
vn -0.73714155 -0.6757384 0
vn -0.7362354 -0.67672545 0
vn -0.73625106 -0.6767085 0
vn -0.95587665 -0.2937685 0
vn -0.9610082 -0.27651966 0
vn 1 0 0
vn 1 0 0
vn 1 0 0
vn 1 0 0
vn 1 0 0
vn 1 0 0
vn 1 0 0
vn 1 0 0
vn 1 0 0
vn 1 0 0
vn 1 0 0
vn 1 0 0
vn 1 0 0
vn 1 0 0
vn 1 0 0
vn 1 0 0
vn 1 0 0
vn 1 0 0
vn 1 0 0
vn 1 0 0
vn 1 0 0
vn 1 0 0
vn 1 0 0
vn 1 0 0
vn -1 9.537537E-06 0
vn -1 8.173705E-06 0
vn -1 8.133202E-06 0
vn -1 9.60813E-06 0
vn -1 9.937924E-06 0
vn -1 9.909879E-06 0
vn -1 8.883469E-06 0
vn -1 8.889679E-06 0
vn -1 8.972311E-06 0
vn -1 8.959744E-06 0
vn -1 8.787845E-06 0
vn -1 8.806711E-06 0
vn -1 8.739804E-06 0
vn -1 8.760841E-06 0
vn -0.99999905 0.0014112961 0
vn -0.9999989 0.0014691907 0
vn -0.9610082 -0.27651966 0
vn -0.95587665 -0.2937685 0
vn -0 1 -1.0334284E-05
vn 1.0710086E-06 1 -1.2904024E-05
vn 1.4516438E-06 1 -1.9377037E-05
vn 1.1369706E-06 1 -1.8213217E-05
vn -2.9001321E-06 1 -2.189054E-06
vn -3.651477E-06 1 0
vn -0 1 0
vn -0 1 0
vn -0.00048181158 0.038523708 0.9992575
vn -0 0.051356554 0.9986804
vn -9.335289E-05 0.051564433 0.9986696
vn -0.00027675595 0.038696025 0.99925095
vn -4.059778E-06 0.05168804 0.9986633
vn -0.00022883332 0.020951012 0.9997805
vn 0.00024883432 0.038654406 0.9992526
vn 0.00020667598 0.051615354 0.998667
vn 0.00065238855 0.03839431 0.9992624
vn -0.00010403404 0.02099965 0.9997795
vn -4.95081E-05 0.0077224155 0.9999702
vn 0.000115971816 0.021003019 0.9997794
vn 0.00024520746 0.020942649 0.9997807
vn -2.1877804E-05 0.0077507156 0.99996996
vn 2.765023E-06 -0.0033345332 0.9999945
vn 2.5286547E-05 0.007755613 0.99996996
vn 5.299773E-05 0.007718092 0.9999702
vn 4.5450743E-06 -0.0033275597 0.9999945
vn -2.4314631E-06 -0.0033246374 0.9999945
vn -7.3428714E-06 -0.0033400173 0.9999944
vn 9.2699465E-06 -0.012103614 0.9999268
vn 2.343383E-07 -0.012113143 0.9999267
vn 5.5967255E-05 -0.020620171 0.9997874
vn 2.2671936E-06 -0.01210589 0.9999267
vn -2.1136113E-05 -0.012104056 0.9999268
vn 5.013342E-05 -0.020620177 0.9997874
vn 0.00014743248 -0.026857162 0.9996393
vn -2.1161746E-05 -0.020625634 0.9997873
vn -0.00010133037 -0.020614065 0.9997875
vn 0.00011081165 -0.0268504 0.9996395
vn 0.00037239218 -0.040263608 0.99918896
vn -6.120503E-05 -0.026855279 0.9996394
vn -0.00021836918 -0.02685791 0.9996393
vn 0.00021002583 -0.04040167 0.9991835
vn 0.0005340826 -0.071913905 0.9974107
vn -0.00019906195 -0.040507834 0.9991792
vn -0.0003834868 -0.03617715 0.99934524
vn -0.00045742214 -0.06853421 0.99764866
vn 1.1817721E-05 -0.07221668 0.997389
vn 0.00012573457 -0.082953505 0.9965534
vn -0.00012935474 -0.081700414 0.9966569
vn 8.2875613E-07 -0.086177565 0.9962798
g GateR_Sub_Mesh_0
f 3/3/3 2/2/2 1/1/1
f 4/4/4 3/3/3 1/1/1
f 5/5/5 4/4/4 1/1/1
f 4/4/4 6/6/6 3/3/3
f 7/7/7 4/4/4 5/5/5
f 8/8/8 7/7/7 5/5/5
f 9/9/9 7/7/7 8/8/8
f 10/10/10 6/6/6 4/4/4
f 7/7/7 10/10/10 4/4/4
f 10/10/10 11/11/11 6/6/6
f 9/9/9 12/12/12 7/7/7
f 12/12/12 10/10/10 7/7/7
f 13/13/13 12/12/12 9/9/9
f 11/11/11 10/10/10 14/14/14
f 12/12/12 14/14/14 10/10/10
f 14/14/14 15/15/15 11/11/11
f 13/13/13 16/16/16 12/12/12
f 16/16/16 14/14/14 12/12/12
f 17/17/17 16/16/16 13/13/13
f 15/15/15 14/14/14 18/18/18
f 16/16/16 18/18/18 14/14/14
f 15/15/15 18/18/18 19/19/19
f 17/17/17 20/20/20 16/16/16
f 20/20/20 18/18/18 16/16/16
f 21/21/21 20/20/20 17/17/17
f 19/19/19 18/18/18 22/22/22
f 20/20/20 22/22/22 18/18/18
f 19/19/19 22/22/22 23/23/23
f 22/22/22 24/24/24 23/23/23
f 21/21/21 25/25/25 20/20/20
f 25/25/25 22/22/22 20/20/20
f 22/22/22 26/26/26 24/24/24
f 25/25/25 26/26/26 22/22/22
f 26/26/26 27/27/27 24/24/24
f 26/26/26 28/28/28 27/27/27
f 28/28/28 26/26/26 25/25/25
f 28/28/28 29/29/29 27/27/27
f 30/30/30 25/25/25 21/21/21
f 25/25/25 30/30/30 28/28/28
f 21/21/21 31/31/31 30/30/30
f 28/28/28 32/32/32 29/29/29
f 32/32/32 28/28/28 30/30/30
f 33/33/33 29/29/29 32/32/32
f 31/31/31 34/34/34 30/30/30
f 30/30/30 34/34/34 32/32/32
f 31/31/31 35/35/35 34/34/34
f 32/32/32 36/36/36 33/33/33
f 36/36/36 32/32/32 34/34/34
f 37/37/37 33/33/33 36/36/36
f 36/36/36 38/38/38 37/37/37
f 35/35/35 39/39/39 34/34/34
f 34/34/34 39/39/39 36/36/36
f 38/38/38 36/36/36 39/39/39
f 35/35/35 40/40/40 39/39/39
f 39/39/39 41/41/41 38/38/38
f 40/40/40 41/41/41 39/39/39
f 40/40/40 42/42/42 41/41/41
f 45/45/45 44/44/44 43/43/43
f 45/45/45 43/43/43 46/46/46
f 47/47/47 45/45/45 46/46/46
f 47/47/47 46/46/46 48/48/48
f 49/49/49 47/47/47 48/48/48
f 49/49/49 48/48/48 50/50/50
f 53/53/53 52/52/52 51/51/51
f 53/53/53 51/51/51 54/54/54
f 54/54/54 51/51/51 55/55/55
f 54/54/54 55/55/55 56/56/56
f 56/56/56 55/55/55 57/57/57
f 56/56/56 57/57/57 58/58/58
f 58/58/58 57/57/57 59/59/59
f 58/58/58 59/59/59 60/60/60
f 60/60/60 59/59/59 61/61/61
f 60/60/60 61/61/61 62/62/62
f 62/62/62 61/61/61 63/63/63
f 62/62/62 63/63/63 64/64/64
f 64/64/64 63/63/63 65/65/65
f 64/64/64 65/65/65 66/66/66
f 67/67/67 66/66/66 65/65/65
f 67/67/67 65/65/65 68/68/68
f 68/68/68 69/69/69 67/67/67
f 68/68/68 70/70/70 69/69/69
f 70/70/70 71/71/71 69/69/69
f 70/70/70 72/72/72 71/71/71
f 72/72/72 73/73/73 71/71/71
f 72/72/72 74/74/74 73/73/73
f 77/77/77 76/76/76 75/75/75
f 77/77/77 75/75/75 78/78/78
f 78/78/78 75/75/75 79/79/79
f 78/78/78 79/79/79 80/80/80
f 80/80/80 79/79/79 81/81/81
f 80/80/80 81/81/81 82/82/82
f 83/83/83 82/82/82 81/81/81
f 83/83/83 84/84/84 82/82/82
f 83/83/83 85/85/85 84/84/84
f 83/83/83 86/86/86 85/85/85
f 86/86/86 87/87/87 85/85/85
f 86/86/86 88/88/88 87/87/87
f 88/88/88 89/89/89 87/87/87
f 88/88/88 90/90/90 89/89/89
f 90/90/90 91/91/91 89/89/89
f 90/90/90 92/92/92 91/91/91
f 95/95/95 94/94/94 93/93/93
f 95/95/95 96/96/96 94/94/94
f 97/97/97 96/96/96 95/95/95
f 97/97/97 98/98/98 96/96/96
f 99/99/99 98/98/98 97/97/97
f 99/99/99 100/100/100 98/98/98
f 103/103/103 102/102/102 101/101/101
f 101/101/101 104/104/104 103/103/103
f 105/105/105 103/103/103 104/104/104
f 104/104/104 101/101/101 106/106/106
f 104/104/104 107/107/107 105/105/105
f 108/108/108 105/105/105 107/107/107
f 108/108/108 107/107/107 109/109/109
f 106/106/106 110/110/110 104/104/104
f 107/107/107 104/104/104 110/110/110
f 110/110/110 106/106/106 111/111/111
f 109/109/109 107/107/107 112/112/112
f 110/110/110 112/112/112 107/107/107
f 109/109/109 112/112/112 113/113/113
f 111/111/111 114/114/114 110/110/110
f 112/112/112 110/110/110 114/114/114
f 114/114/114 111/111/111 115/115/115
f 113/113/113 112/112/112 116/116/116
f 114/114/114 116/116/116 112/112/112
f 113/113/113 116/116/116 117/117/117
f 115/115/115 118/118/118 114/114/114
f 116/116/116 114/114/114 118/118/118
f 117/117/117 116/116/116 119/119/119
f 118/118/118 119/119/119 116/116/116
f 117/117/117 119/119/119 120/120/120
f 120/120/120 119/119/119 121/121/121
f 118/118/118 121/121/121 119/119/119
f 120/120/120 121/121/121 122/122/122
f 121/121/121 123/123/123 122/122/122
f 124/124/124 118/118/118 115/115/115
f 118/118/118 124/124/124 121/121/121
f 124/124/124 115/115/115 125/125/125
f 121/121/121 126/126/126 123/123/123
f 124/124/124 126/126/126 121/121/121
f 126/126/126 127/127/127 123/123/123
f 125/125/125 128/128/128 124/124/124
f 124/124/124 128/128/128 126/126/126
f 125/125/125 129/129/129 128/128/128
f 126/126/126 130/130/130 127/127/127
f 128/128/128 130/130/130 126/126/126
f 130/130/130 131/131/131 127/127/127
f 129/129/129 132/132/132 128/128/128
f 128/128/128 132/132/132 130/130/130
f 129/129/129 133/133/133 132/132/132
f 130/130/130 134/134/134 131/131/131
f 132/132/132 134/134/134 130/130/130
f 134/134/134 135/135/135 131/131/131
f 136/136/136 132/132/132 133/133/133
f 132/132/132 136/136/136 134/134/134
f 133/133/133 137/137/137 136/136/136
f 137/137/137 138/138/138 136/136/136
f 134/134/134 139/139/139 135/135/135
f 136/136/136 139/139/139 134/134/134
f 136/136/136 138/138/138 139/139/139
f 139/139/139 140/140/140 135/135/135
f 141/141/141 139/139/139 138/138/138
f 139/139/139 141/141/141 140/140/140
f 141/141/141 142/142/142 140/140/140
