g groundTopGlassTop_AAK_geo
v -4.75142 -7.6293944E-08 -5.320911
v -4.75142 -7.6293944E-08 -6.0850544
v -4.566047 -7.6293944E-08 -5.320911
v -1.7514199 -7.6293944E-08 -5.870135
v -1.7514199 -7.6293944E-08 -5.320911
v -3.5320997 -7.6293944E-08 -5.320911
v -3.780094 -7.6293944E-08 -5.9213037
v -2.0102866 -7.6293944E-08 -6.3414927
v -4.4399323 -7.6293944E-08 -6.5431333
v -2.6525598 -7.6293944E-08 -6.5431333
v -4.6125283 -7.6293944E-08 -6.5431333
v -4.5373588 -7.6293944E-08 -6.5431333
v -4.1374774 -7.6293944E-08 -5.320911
v -4.4814334 -7.6293944E-08 -5.320911
vt 0.39257812 0.38305664
vt 0.37573242 0.38305664
vt 0.39257812 0.38720703
vt 0.3803711 0.44970703
vt 0.39257812 0.44970703
vt 0.39257812 0.41015625
vt 0.37939453 0.40478516
vt 0.36987305 0.4440918
vt 0.36547852 0.38989258
vt 0.36547852 0.4296875
vt 0.36547852 0.38623047
vt 0.36547852 0.38793945
vt 0.39257812 0.39672852
vt 0.39257812 0.38916016
vn -0 1 0
vn -0 1 0
vn -0 1 0
vn -0 1 0
vn -0 1 0
vn -0 1 0
vn -0 1 0
vn -0 1 0
vn -0 1 0
vn -0 1 0
vn -0 1 0
vn -0 1 0
vn -0 1 0
vn -0 1 0
g groundTopGlassTop_AAK_geo_0
f 3/3/3 2/2/2 1/1/1
f 6/6/6 5/5/5 4/4/4
f 7/7/7 6/6/6 4/4/4
f 7/7/7 4/4/4 8/8/8
f 7/7/7 8/8/8 9/9/9
f 8/8/8 10/10/10 9/9/9
f 13/13/13 12/12/12 11/11/11
f 14/14/14 13/13/13 11/11/11
