g groundTopGlassSideA_AAB_geo
v 5.1024637 -0.63455576 -10.2098
v 4.24858 -1.2222223 -10.2098
v 7.2485795 -1.2222223 -10.2098
v 6.621298 -0.5481336 -10.2098
v 7.2485795 -0.22094245 -10.2098
v 5.066235 -0.6076325 -10.2098
v 7.2485795 -7.6293944E-08 -10.2098
v 4.359635 -9.5367426E-08 -10.2098
v 6.612867 -0.5179786 -10.2098
v 7.2485795 -0.22094245 -10.2098
v 4.24858 -7.6293944E-08 -10.2098
v 4.24858 -1.2222223 -10.2098
v 4.9511766 -0.70103824 -10.2098
v 4.998852 -0.5943873 -10.2098
vt 0.25219727 0.60302734
vt 0.23925781 0.5830078
vt 0.23925781 0.64990234
vt 0.25439453 0.6357422
vt 0.2614746 0.64990234
vt 0.2541504 0.6010742
vt 0.26635742 0.64990234
vt 0.26635742 0.5854492
vt 0.25634766 0.6357422
vt 0.2614746 0.64990234
vt 0.26635742 0.5830078
vt 0.23925781 0.5830078
vt 0.25097656 0.5986328
vt 0.25317383 0.5996094
vn 2.9802322E-07 0 -1
vn 2.9802322E-07 0 -1
vn 2.3841858E-07 0 -1
vn 2.3841858E-07 0 -1
vn -0 0 -1
vn -2.3841858E-07 0 -1
vn -2.3841858E-07 0 -1
vn -2.3841858E-07 0 -1
vn -2.3841858E-07 0 -1
vn -0 0 -1
vn -0 0 -1
vn -0 0 -1
vn -0 0 -1
vn -0 0 -1
g groundTopGlassSideA_AAB_geo_0
f 3/3/3 2/2/2 1/1/1
f 4/4/4 3/3/3 1/1/1
f 4/4/4 5/5/5 3/3/3
f 8/8/8 7/7/7 6/6/6
f 7/7/7 9/9/9 6/6/6
f 7/7/7 10/10/10 9/9/9
f 13/13/13 12/12/12 11/11/11
f 14/14/14 13/13/13 11/11/11
