g groundTopGlassTop_AAY_geo
v -18.652983 -7.6293944E-08 -8.987578
v -16.75142 -7.6293944E-08 -8.987578
v -16.75142 -7.6293944E-08 -7.7653556
v -19.75142 -7.6293944E-08 -7.7653556
v -19.75142 -7.6293944E-08 -8.58725
v -19.383991 -7.6293944E-08 -8.802389
vt 0.3112793 0.074157715
vt 0.3112793 0.11639404
vt 0.3383789 0.11639404
vt 0.3383789 0.049743652
vt 0.32006836 0.049743652
vt 0.31518555 0.057922363
vn -0 1 0
vn -0 1 0
vn -0 1 0
vn -0 1 0
vn -0 1 0
vn -0 1 0
g groundTopGlassTop_AAY_geo_0
f 3/3/3 2/2/2 1/1/1
f 4/4/4 3/3/3 1/1/1
f 5/5/5 4/4/4 1/1/1
f 6/6/6 5/5/5 1/1/1
