g groundTopGlassTop_AAR_geo
v 10.24858 0.055070188 -4.098689
v 12.05494 0.055070188 -4.324416
v 11.66452 0.055070188 -4.098689
v 10.24858 0.055070188 -5.320911
v 13.24858 0.055070188 -4.402571
v 13.24858 0.055070188 -5.320911
vt 0.41992188 0.7163086
vt 0.41479492 0.75634766
vt 0.41992188 0.7480469
vt 0.39257812 0.7163086
vt 0.41308594 0.7832031
vt 0.39257812 0.7832031
vn -0 1 0
vn -0 1 0
vn -0 1 0
vn -0 1 0
vn -0 1 0
vn -0 1 0
g groundTopGlassTop_AAR_geo_0
f 3/3/3 2/2/2 1/1/1
f 2/2/2 4/4/4 1/1/1
f 2/2/2 5/5/5 4/4/4
f 5/5/5 6/6/6 4/4/4
