g groundTopGlassTop_ABA_geo
v -16.75142 0.055070188 -10.2098
v -17.7058 0.055070188 -8.987578
v -17.106224 0.055070188 -9.241534
v 1.24858 0.055070188 -0.4320224
v 1.24858 0.055070188 -1.6542447
v 4.24858 0.055070188 -1.6542447
v 4.24858 0.055070188 -0.4320224
v 1.24858 0.055070188 0.7901999
v -1.7514199 0.055070188 0.7901999
v -1.7514199 0.055070188 -0.4320224
v -4.75142 0.055070188 -0.4320224
v -4.75142 0.055070188 0.7901999
v -7.75142 0.055070188 0.7901999
v 4.24858 0.055070188 0.7901999
v -7.75142 0.055070188 -0.4320224
v -10.751419 0.055070188 0.7901999
v -4.75142 0.055070188 -1.6542447
v 7.2485795 0.055070188 -0.4320224
v 7.2485795 0.055070188 0.7901999
v 7.2485795 0.055070188 -1.6542447
v 10.24858 0.055070188 -0.4320224
v 10.24858 0.055070188 0.7901999
v -10.751419 0.055070188 -0.4320224
v -13.751419 0.055070188 0.7901999
v -13.751419 0.055070188 -0.4320224
v -7.75142 0.055070188 -1.6542447
v -4.75142 0.055070188 -2.876467
v 7.2485795 0.055070188 -2.876467
v 4.24858 0.055070188 -2.876467
v 13.24858 0.055070188 -0.4320224
v 13.24858 0.055070188 0.7901999
v -10.751419 0.055070188 -1.6542447
v -7.75142 0.055070188 -2.876467
v -4.7514205 0.055070188 -4.0986896
v -7.75142 0.055070188 -4.0986896
v -10.751419 0.055070188 -2.876467
v -10.751419 0.055070188 -4.098689
v -13.751419 0.055070188 -1.6542447
v -16.75142 0.055070188 -0.4320224
v -13.751419 0.055070188 -2.876467
v 16.248579 0.055070188 -0.4320224
v 16.248579 0.055070188 0.7901999
v -16.75142 0.055070188 -1.6542447
v -13.751419 0.055070188 -4.098689
v -10.751419 0.055070188 -5.320911
v -16.75142 0.055070188 -2.876467
v 19.248579 0.055070188 -0.4320224
v 19.248579 0.055070188 0.7901999
v 22.248579 0.055070188 -0.4320224
v 22.248579 0.055070188 0.7901999
v 22.248579 0.055070188 -1.6542447
v 19.248579 0.055070188 -1.6542447
v 22.248579 0.055070188 -2.876467
v 16.248579 0.055070188 -1.6542447
v 19.248579 0.055070188 -2.876467
v 22.248579 0.055070188 -4.098689
v 19.248579 0.055070188 -4.098689
v 16.248579 0.055070188 -2.876467
v 22.248579 0.055070188 -5.320911
v 13.24858 0.055070188 -1.6542447
v 13.24858 0.055070188 -2.876467
v 10.24858 0.055070188 -1.6542447
v 19.248579 0.055070188 -5.320911
v 16.248579 0.055070188 -4.098689
v 22.248579 0.055070188 -6.5431333
v 16.248579 0.055070188 -5.320911
v 13.24858 0.055070188 -4.098689
v 13.24858 0.055070188 -5.320911
v 19.248579 0.055070188 -6.5431333
v 22.248579 0.055070188 -7.7653556
v 16.248579 0.055070188 -6.5431333
v 13.24858 0.055070188 -6.5431333
v 19.248579 0.055070188 -7.7653556
v 22.248579 0.055070188 -8.987578
v 16.248579 0.055070188 -7.7653556
v 19.248579 0.055070188 -8.987578
v 22.248579 0.055070188 -10.2098
v 19.248579 0.055070188 -10.2098
v 16.248579 0.055070188 -8.987578
v 16.248579 0.055070188 -10.2098
v 13.24858 0.055070188 -7.7653556
v 10.24858 0.055070188 -6.5431333
v 13.24858 0.055070188 -8.987578
v 13.24858 0.055070188 -10.2098
v 10.24858 0.055070188 -7.7653556
v 10.24858 0.055070188 -8.987578
v 10.24858 0.055070188 -10.2098
v 7.2485795 0.055070188 -8.987578
v 7.2485795 0.055070188 -10.2098
v 7.2485795 0.055070188 -6.5431333
v 7.2485795 0.055070188 -7.7653556
v 4.24858 0.055070188 -8.987578
v 4.24858 0.055070188 -10.2098
v 4.24858 0.055070188 -7.7653556
v 1.24858 0.055070188 -8.987578
v 1.24858 0.055070188 -10.2098
v 4.24858 0.055070188 -6.5431333
v 7.2485795 0.055070188 -5.320911
v 10.24858 0.055070188 -5.320911
v 4.24858 0.055070188 -5.320911
v 1.24858 0.055070188 -5.320911
v 7.2485795 0.055070188 -4.098689
v 1.24858 0.055070188 -6.5431333
v 1.24858 0.055070188 -7.7653556
v -1.7514199 0.055070188 -6.5431333
v 10.24858 0.055070188 -4.098689
v -1.7514199 0.055070188 -7.7653556
v -4.75142 0.055070188 -6.5431333
v 10.24858 0.055070188 -2.876467
v 4.24858 0.055070188 -4.098689
v -4.75142 0.055070188 -7.7653556
v -7.75142 0.055070188 -6.5431333
v -1.7514199 0.055070188 -8.987578
v -1.7514199 0.055070188 -10.2098
v -4.75142 0.055070188 -8.987578
v -4.75142 0.055070188 -10.2098
v -7.75142 0.055070188 -7.7653556
v -10.751419 0.055070188 -6.5431333
v -7.75142 0.055070188 -5.320911
v -10.751419 0.055070188 -7.7653556
v -7.75142 0.055070188 -8.987578
v -13.751419 0.055070188 -5.320911
v -13.751419 0.055070188 -6.5431333
v -16.75142 0.055070188 -5.320911
v -10.751419 0.055070188 -8.987578
v -7.75142 0.055070188 -10.2098
v -10.751419 0.055070188 -10.2098
v -13.751419 0.055070188 -7.7653556
v -13.751419 0.055070188 -8.987578
v -13.751419 0.055070188 -10.2098
v -16.75142 0.055070188 -6.5431333
v -16.75142 0.055070188 -7.7653556
v -19.75142 0.055070188 -6.5431333
v -19.75142 0.055070188 -7.7653556
v -16.75142 0.055070188 -8.987578
v -16.75142 0.055070188 -10.2098
v -17.7058 0.055070188 -8.987578
v -19.75142 0.055070188 -4.098689
v -19.75142 0.055070188 -5.320911
v -16.75142 0.055070188 -4.098689
v -19.75142 0.055070188 -2.876467
v -19.75142 0.055070188 -1.6542447
v -19.75142 0.055070188 -0.4320224
v -20.17192 0.055070188 -0.99469113
v -20.825363 0.055070188 -0.4320224
v -19.75142 0.055070188 0.7901999
v -16.75142 0.055070188 0.7901999
v -21.017397 0.055070188 -5.951794
v -21.115585 0.055070188 -6.5431333
v -19.75142 0.055070188 -6.5431333
v -21.103065 0.055070188 -5.320911
v -19.75142 0.055070188 -5.320911
vt 0.28393555 0.11639404
vt 0.3112793 0.095214844
vt 0.30541992 0.10852051
vt 0.50146484 0.51660156
vt 0.4741211 0.51660156
vt 0.4741211 0.5830078
vt 0.50146484 0.5830078
vt 0.5283203 0.51660156
vt 0.5283203 0.44970703
vt 0.50146484 0.44970703
vt 0.50146484 0.38305664
vt 0.5283203 0.38305664
vt 0.5283203 0.31640625
vt 0.5283203 0.5830078
vt 0.50146484 0.31640625
vt 0.5283203 0.24975586
vt 0.4741211 0.38305664
vt 0.50146484 0.64990234
vt 0.5283203 0.64990234
vt 0.4741211 0.64990234
vt 0.50146484 0.7163086
vt 0.5283203 0.7163086
vt 0.50146484 0.24975586
vt 0.5283203 0.18310547
vt 0.50146484 0.18310547
vt 0.4741211 0.31640625
vt 0.44702148 0.38305664
vt 0.44702148 0.64990234
vt 0.44702148 0.5830078
vt 0.50146484 0.7832031
vt 0.5283203 0.7832031
vt 0.4741211 0.24975586
vt 0.44702148 0.31640625
vt 0.41992188 0.38305664
vt 0.41992188 0.31640625
vt 0.44702148 0.24975586
vt 0.41992188 0.24975586
vt 0.4741211 0.18310547
vt 0.50146484 0.11639404
vt 0.44702148 0.18310547
vt 0.50146484 0.8496094
vt 0.5283203 0.8496094
vt 0.4741211 0.11639404
vt 0.41992188 0.18310547
vt 0.39257812 0.24975586
vt 0.44702148 0.11639404
vt 0.50146484 0.9165039
vt 0.5283203 0.9165039
vt 0.50146484 0.98291016
vt 0.5283203 0.98291016
vt 0.4741211 0.98291016
vt 0.4741211 0.9165039
vt 0.44702148 0.98291016
vt 0.4741211 0.8496094
vt 0.44702148 0.9165039
vt 0.41992188 0.98291016
vt 0.41992188 0.9165039
vt 0.44702148 0.8496094
vt 0.39257812 0.98291016
vt 0.4741211 0.7832031
vt 0.44702148 0.7832031
vt 0.4741211 0.7163086
vt 0.39257812 0.9165039
vt 0.41992188 0.8496094
vt 0.36547852 0.98291016
vt 0.39257812 0.8496094
vt 0.41992188 0.7832031
vt 0.39257812 0.7832031
vt 0.36547852 0.9165039
vt 0.3383789 0.98291016
vt 0.36547852 0.8496094
vt 0.36547852 0.7832031
vt 0.3383789 0.9165039
vt 0.3112793 0.98291016
vt 0.3383789 0.8496094
vt 0.3112793 0.9165039
vt 0.28393555 0.98291016
vt 0.28393555 0.9165039
vt 0.3112793 0.8496094
vt 0.28393555 0.8496094
vt 0.3383789 0.7832031
vt 0.36547852 0.7163086
vt 0.3112793 0.7832031
vt 0.28393555 0.7832031
vt 0.3383789 0.7163086
vt 0.3112793 0.7163086
vt 0.28393555 0.7163086
vt 0.3112793 0.64990234
vt 0.28393555 0.64990234
vt 0.36547852 0.64990234
vt 0.3383789 0.64990234
vt 0.3112793 0.5830078
vt 0.28393555 0.5830078
vt 0.3383789 0.5830078
vt 0.3112793 0.51660156
vt 0.28393555 0.51660156
vt 0.36547852 0.5830078
vt 0.39257812 0.64990234
vt 0.39257812 0.7163086
vt 0.39257812 0.5830078
vt 0.39257812 0.51660156
vt 0.41992188 0.64990234
vt 0.36547852 0.51660156
vt 0.3383789 0.51660156
vt 0.36547852 0.44970703
vt 0.41992188 0.7163086
vt 0.3383789 0.44970703
vt 0.36547852 0.38305664
vt 0.44702148 0.7163086
vt 0.41992188 0.5830078
vt 0.3383789 0.38305664
vt 0.36547852 0.31640625
vt 0.3112793 0.44970703
vt 0.28393555 0.44970703
vt 0.3112793 0.38305664
vt 0.28393555 0.38305664
vt 0.3383789 0.31640625
vt 0.36547852 0.24975586
vt 0.39257812 0.31640625
vt 0.3383789 0.24975586
vt 0.3112793 0.31640625
vt 0.39257812 0.18310547
vt 0.36547852 0.18310547
vt 0.39257812 0.11639404
vt 0.3112793 0.24975586
vt 0.28393555 0.31640625
vt 0.28393555 0.24975586
vt 0.3383789 0.18310547
vt 0.3112793 0.18310547
vt 0.28393555 0.18310547
vt 0.36547852 0.11639404
vt 0.3383789 0.11639404
vt 0.36547852 0.049743652
vt 0.3383789 0.049743652
vt 0.3112793 0.11639404
vt 0.28393555 0.11639404
vt 0.3112793 0.095214844
vt 0.41992188 0.049743652
vt 0.39257812 0.049743652
vt 0.41992188 0.11639404
vt 0.44702148 0.049743652
vt 0.4741211 0.049743652
vt 0.50146484 0.049743652
vt 0.48876953 0.040405273
vt 0.50146484 0.025894165
vt 0.5283203 0.049743652
vt 0.5283203 0.11639404
vt 0.3786621 0.021621704
vt 0.36547852 0.019439697
vt 0.36547852 0.049743652
vt 0.39257812 0.019714355
vt 0.39257812 0.049743652
vn -0 1 0
vn -0 1 0
vn -0 1 0
vn -0 1 0
vn -0 1 0
vn -0 1 0
vn -0 1 0
vn -0 1 0
vn -0 1 0
vn -0 1 0
vn -0 1 0
vn -0 1 0
vn -0 1 0
vn -0 1 0
vn -0 1 0
vn -0 1 0
vn -0 1 0
vn -0 1 0
vn -0 1 0
vn -0 1 0
vn -0 1 0
vn -0 1 0
vn -0 1 0
vn -0 1 0
vn -0 1 0
vn -0 1 0
vn -0 1 0
vn -0 1 0
vn -0 1 0
vn -0 1 0
vn -0 1 0
vn -0 1 0
vn -0 1 0
vn -0 1 0
vn -0 1 0
vn -0 1 0
vn -0 1 0
vn -0 1 0
vn -0 1 0
vn -0 1 0
vn -0 1 0
vn -0 1 0
vn -0 1 0
vn -0 1 0
vn -0 1 0
vn -0 1 0
vn -0 1 0
vn -0 1 0
vn -0 1 0
vn -0 1 0
vn -0 1 0
vn -0 1 0
vn -0 1 0
vn -0 1 0
vn -0 1 0
vn -0 1 0
vn -0 1 0
vn -0 1 0
vn -0 1 0
vn -0 1 0
vn -0 1 0
vn -0 1 0
vn -0 1 0
vn -0 1 0
vn -0 1 0
vn -0 1 0
vn -0 1 0
vn -0 1 0
vn -0 1 0
vn -0 1 0
vn -0 1 0
vn -0 1 0
vn -0 1 0
vn -0 1 0
vn -0 1 0
vn -0 1 0
vn -0 1 0
vn -0 1 0
vn -0 1 0
vn -0 1 0
vn -0 1 0
vn -0 1 0
vn -0 1 0
vn -0 1 0
vn -0 1 0
vn -0 1 0
vn -0 1 0
vn -0 1 0
vn -0 1 0
vn -0 1 0
vn -0 1 0
vn -0 1 0
vn -0 1 0
vn -0 1 0
vn -0 1 0
vn -0 1 0
vn -0 1 0
vn -0 1 0
vn -0 1 0
vn -0 1 0
vn -0 1 0
vn -0 1 0
vn -0 1 0
vn -0 1 0
vn -0 1 0
vn -0 1 0
vn -0 1 0
vn -0 1 0
vn -0 1 0
vn -0 1 0
vn -0 1 0
vn -0 1 0
vn -0 1 0
vn -0 1 0
vn -0 1 0
vn -0 1 0
vn -0 1 0
vn -0 1 0
vn -0 1 0
vn -0 1 0
vn -0 1 0
vn -0 1 0
vn -0 1 0
vn -0 1 0
vn -0 1 0
vn -0 1 0
vn -0 1 0
vn -0 1 0
vn -0 1 0
vn -0 1 0
vn -0 1 0
vn -0 1 0
vn -0 1 0
vn -0 1 0
vn -0 1 0
vn -0 1 0
vn -0 1 0
vn -0 1 0
vn -0 1 0
vn -0 1 0
vn -0 1 0
vn -0 1 0
vn -0 1 0
vn -0 1 0
vn -0 1 0
vn -0 1 0
vn -0 1 0
vn -0 1 0
vn -0 1 0
vn -0 1 0
vn -0 1 0
vn -0 1 0
g groundTopGlassTop_ABA_geo_0
f 3/3/3 2/2/2 1/1/1
f 6/6/6 5/5/5 4/4/4
f 7/7/7 6/6/6 4/4/4
f 7/7/7 4/4/4 8/8/8
f 8/8/8 4/4/4 9/9/9
f 4/4/4 10/10/10 9/9/9
f 10/10/10 11/11/11 9/9/9
f 11/11/11 12/12/12 9/9/9
f 12/12/12 11/11/11 13/13/13
f 14/14/14 7/7/7 8/8/8
f 11/11/11 15/15/15 13/13/13
f 13/13/13 15/15/15 16/16/16
f 11/11/11 17/17/17 15/15/15
f 18/18/18 7/7/7 14/14/14
f 19/19/19 18/18/18 14/14/14
f 18/18/18 20/20/20 7/7/7
f 20/20/20 6/6/6 7/7/7
f 21/21/21 18/18/18 19/19/19
f 22/22/22 21/21/21 19/19/19
f 15/15/15 23/23/23 16/16/16
f 16/16/16 23/23/23 24/24/24
f 23/23/23 25/25/25 24/24/24
f 17/17/17 26/26/26 15/15/15
f 15/15/15 26/26/26 23/23/23
f 17/17/17 27/27/27 26/26/26
f 20/20/20 28/28/28 6/6/6
f 28/28/28 29/29/29 6/6/6
f 30/30/30 21/21/21 22/22/22
f 31/31/31 30/30/30 22/22/22
f 23/23/23 32/32/32 25/25/25
f 26/26/26 32/32/32 23/23/23
f 27/27/27 33/33/33 26/26/26
f 26/26/26 33/33/33 32/32/32
f 27/27/27 34/34/34 33/33/33
f 34/34/34 35/35/35 33/33/33
f 33/33/33 35/35/35 36/36/36
f 33/33/33 36/36/36 32/32/32
f 35/35/35 37/37/37 36/36/36
f 32/32/32 38/38/38 25/25/25
f 32/32/32 36/36/36 38/38/38
f 25/25/25 38/38/38 39/39/39
f 36/36/36 37/37/37 40/40/40
f 36/36/36 40/40/40 38/38/38
f 41/41/41 30/30/30 31/31/31
f 42/42/42 41/41/41 31/31/31
f 38/38/38 43/43/43 39/39/39
f 38/38/38 40/40/40 43/43/43
f 37/37/37 44/44/44 40/40/40
f 37/37/37 45/45/45 44/44/44
f 40/40/40 44/44/44 46/46/46
f 40/40/40 46/46/46 43/43/43
f 47/47/47 41/41/41 42/42/42
f 48/48/48 47/47/47 42/42/42
f 49/49/49 47/47/47 48/48/48
f 50/50/50 49/49/49 48/48/48
f 49/49/49 51/51/51 47/47/47
f 51/51/51 52/52/52 47/47/47
f 47/47/47 52/52/52 41/41/41
f 51/51/51 53/53/53 52/52/52
f 52/52/52 54/54/54 41/41/41
f 41/41/41 54/54/54 30/30/30
f 53/53/53 55/55/55 52/52/52
f 52/52/52 55/55/55 54/54/54
f 53/53/53 56/56/56 55/55/55
f 56/56/56 57/57/57 55/55/55
f 55/55/55 58/58/58 54/54/54
f 56/56/56 59/59/59 57/57/57
f 54/54/54 60/60/60 30/30/30
f 54/54/54 58/58/58 60/60/60
f 58/58/58 61/61/61 60/60/60
f 30/30/30 60/60/60 21/21/21
f 60/60/60 62/62/62 21/21/21
f 59/59/59 63/63/63 57/57/57
f 57/57/57 63/63/63 64/64/64
f 59/59/59 65/65/65 63/63/63
f 63/63/63 66/66/66 64/64/64
f 64/64/64 66/66/66 67/67/67
f 66/66/66 68/68/68 67/67/67
f 65/65/65 69/69/69 63/63/63
f 63/63/63 69/69/69 66/66/66
f 65/65/65 70/70/70 69/69/69
f 66/66/66 71/71/71 68/68/68
f 69/69/69 71/71/71 66/66/66
f 71/71/71 72/72/72 68/68/68
f 70/70/70 73/73/73 69/69/69
f 69/69/69 73/73/73 71/71/71
f 70/70/70 74/74/74 73/73/73
f 71/71/71 75/75/75 72/72/72
f 73/73/73 75/75/75 71/71/71
f 74/74/74 76/76/76 73/73/73
f 73/73/73 76/76/76 75/75/75
f 74/74/74 77/77/77 76/76/76
f 77/77/77 78/78/78 76/76/76
f 76/76/76 78/78/78 79/79/79
f 76/76/76 79/79/79 75/75/75
f 78/78/78 80/80/80 79/79/79
f 75/75/75 81/81/81 72/72/72
f 75/75/75 79/79/79 81/81/81
f 72/72/72 81/81/81 82/82/82
f 79/79/79 80/80/80 83/83/83
f 79/79/79 83/83/83 81/81/81
f 80/80/80 84/84/84 83/83/83
f 81/81/81 83/83/83 85/85/85
f 81/81/81 85/85/85 82/82/82
f 83/83/83 84/84/84 86/86/86
f 83/83/83 86/86/86 85/85/85
f 84/84/84 87/87/87 86/86/86
f 86/86/86 87/87/87 88/88/88
f 87/87/87 89/89/89 88/88/88
f 82/82/82 85/85/85 90/90/90
f 85/85/85 91/91/91 90/90/90
f 88/88/88 89/89/89 92/92/92
f 89/89/89 93/93/93 92/92/92
f 88/88/88 92/92/92 94/94/94
f 91/91/91 88/88/88 94/94/94
f 92/92/92 93/93/93 95/95/95
f 93/93/93 96/96/96 95/95/95
f 91/91/91 94/94/94 97/97/97
f 90/90/90 91/91/91 97/97/97
f 82/82/82 90/90/90 98/98/98
f 99/99/99 82/82/82 98/98/98
f 98/98/98 90/90/90 100/100/100
f 90/90/90 97/97/97 100/100/100
f 100/100/100 97/97/97 101/101/101
f 99/99/99 98/98/98 102/102/102
f 97/97/97 103/103/103 101/101/101
f 97/97/97 94/94/94 103/103/103
f 94/94/94 104/104/104 103/103/103
f 103/103/103 104/104/104 105/105/105
f 106/106/106 99/99/99 102/102/102
f 104/104/104 107/107/107 105/105/105
f 105/105/105 107/107/107 108/108/108
f 104/104/104 95/95/95 107/107/107
f 106/106/106 102/102/102 28/28/28
f 109/109/109 106/106/106 28/28/28
f 28/28/28 102/102/102 29/29/29
f 102/102/102 110/110/110 29/29/29
f 109/109/109 28/28/28 20/20/20
f 62/62/62 109/109/109 20/20/20
f 107/107/107 111/111/111 108/108/108
f 108/108/108 111/111/111 112/112/112
f 95/95/95 113/113/113 107/107/107
f 107/107/107 113/113/113 111/111/111
f 95/95/95 96/96/96 113/113/113
f 96/96/96 114/114/114 113/113/113
f 113/113/113 115/115/115 111/111/111
f 113/113/113 114/114/114 115/115/115
f 114/114/114 116/116/116 115/115/115
f 111/111/111 117/117/117 112/112/112
f 112/112/112 117/117/117 118/118/118
f 112/112/112 118/118/118 45/45/45
f 119/119/119 112/112/112 45/45/45
f 117/117/117 120/120/120 118/118/118
f 117/117/117 121/121/121 120/120/120
f 45/45/45 118/118/118 122/122/122
f 45/45/45 122/122/122 44/44/44
f 118/118/118 123/123/123 122/122/122
f 118/118/118 120/120/120 123/123/123
f 122/122/122 123/123/123 124/124/124
f 121/121/121 125/125/125 120/120/120
f 121/121/121 126/126/126 125/125/125
f 126/126/126 127/127/127 125/125/125
f 120/120/120 128/128/128 123/123/123
f 120/120/120 125/125/125 128/128/128
f 125/125/125 127/127/127 129/129/129
f 125/125/125 129/129/129 128/128/128
f 127/127/127 130/130/130 129/129/129
f 123/123/123 131/131/131 124/124/124
f 123/123/123 128/128/128 131/131/131
f 128/128/128 132/132/132 131/131/131
f 128/128/128 129/129/129 132/132/132
f 131/131/131 132/132/132 133/133/133
f 132/132/132 134/134/134 133/133/133
f 129/129/129 135/135/135 132/132/132
f 129/129/129 130/130/130 135/135/135
f 130/130/130 136/136/136 135/135/135
f 137/137/137 135/135/135 136/136/136
f 124/124/124 139/139/139 138/138/138
f 140/140/140 124/124/124 138/138/138
f 140/140/140 138/138/138 141/141/141
f 46/46/46 140/140/140 141/141/141
f 44/44/44 140/140/140 46/46/46
f 46/46/46 141/141/141 142/142/142
f 43/43/43 46/46/46 142/142/142
f 43/43/43 142/142/142 143/143/143
f 144/144/144 143/143/143 142/142/142
f 143/143/143 144/144/144 145/145/145
f 39/39/39 43/43/43 143/143/143
f 39/39/39 143/143/143 146/146/146
f 147/147/147 39/39/39 146/146/146
f 150/150/150 149/149/149 148/148/148
f 150/150/150 148/148/148 151/151/151
f 152/152/152 150/150/150 151/151/151
