g groundTopGlassSideA_AAD_geo
v -1.7514199 -0.56402993 -10.2098
v -1.7514199 -1.2222222 -10.2098
v 1.24858 -1.2222222 -10.2098
v -1.4726193 -0.31164983 -10.2098
v -0.338798 -7.6293944E-08 -10.2098
v 1.24858 -7.6293944E-08 -10.2098
vt 0.25390625 0.44970703
vt 0.23925781 0.44970703
vt 0.23925781 0.51660156
vt 0.25952148 0.4560547
vt 0.26635742 0.48120117
vt 0.26635742 0.51660156
vn -0 0 -1
vn -0 0 -1
vn -0 0 -1
vn -0 0 -1
vn -0 0 -1
vn -0 0 -1
g groundTopGlassSideA_AAD_geo_0
f 3/3/3 2/2/2 1/1/1
f 4/4/4 3/3/3 1/1/1
f 4/4/4 5/5/5 3/3/3
f 5/5/5 6/6/6 3/3/3
