g ground_wall2
v -4.196167E-08 -0.013644745 -56.249947
v -4.196167E-08 -0.013644745 -51.97491
v -4.196167E-08 0.01364476 -51.97491
v -4.196167E-08 0.01364476 -56.249947
v -4.196167E-08 -0.013644745 -51.524963
v -4.196167E-08 -0.013644745 -47.47491
v -4.196167E-08 0.01364476 -47.47491
v -4.196167E-08 0.01364476 -51.524963
v -4.196167E-08 -0.013644745 -47.024963
v -4.196167E-08 -0.013644745 -42.974915
v -4.196167E-08 0.01364476 -42.974915
v -4.196167E-08 0.01364476 -47.024963
v -4.196167E-08 -0.013644745 -42.524963
v -4.196167E-08 -0.013644745 -38.474915
v -4.196167E-08 0.01364476 -38.474915
v -4.196167E-08 0.01364476 -42.524963
v -4.196167E-08 -0.013644745 -38.024963
v -4.196167E-08 -0.013644745 -33.974915
v -4.196167E-08 0.01364476 -33.974915
v -4.196167E-08 0.01364476 -38.024963
v -4.196167E-08 -0.013644745 -33.52497
v -4.196167E-08 -0.013644745 -29.47491
v -4.196167E-08 0.01364476 -29.47491
v -4.196167E-08 0.01364476 -33.52497
v -4.196167E-08 -0.013644745 -29.024967
v -4.196167E-08 -0.013644745 -24.97491
v -4.196167E-08 0.01364476 -24.97491
v -4.196167E-08 0.01364476 -29.024967
v -4.196167E-08 -0.013644745 -24.524967
v -4.196167E-08 -0.013644745 -20.47491
v -4.196167E-08 0.01364476 -20.47491
v -4.196167E-08 0.01364476 -24.524967
v -4.196167E-08 -0.013644745 -20.02497
v -4.196167E-08 -0.013644745 -15.974907
v -4.196167E-08 0.01364476 -15.974907
v -4.196167E-08 0.01364476 -20.02497
v -4.196167E-08 -0.013644745 -15.524964
v -4.196167E-08 -0.013644745 -11.474911
v -4.196167E-08 0.01364476 -11.474911
v -4.196167E-08 0.01364476 -15.524964
v -4.196167E-08 -0.013644745 -11.024968
v -4.196167E-08 -0.013644745 -6.974907
v -4.196167E-08 0.01364476 -6.974907
v -4.196167E-08 0.01364476 -11.024968
v -4.196167E-08 -0.013644745 -6.5249643
v -4.196167E-08 -0.013644745 -2.4749079
v -4.196167E-08 0.01364476 -2.4749079
v -4.196167E-08 0.01364476 -6.5249643
v -4.196167E-08 -0.013644745 -2.024965
v -4.196167E-08 -0.013644745 2.025091
v -4.196167E-08 0.01364476 2.025091
v -4.196167E-08 0.01364476 -2.024965
v -4.196167E-08 -0.013644745 2.4750338
v -4.196167E-08 -0.013644745 6.525095
v -4.196167E-08 0.01364476 6.525095
v -4.196167E-08 0.01364476 2.4750338
v -4.196167E-08 -0.013644745 6.9750376
v -4.196167E-08 -0.013644745 11.025096
v -4.196167E-08 0.01364476 11.025096
v -4.196167E-08 0.01364476 6.9750376
v -4.196167E-08 -0.013644745 11.475039
v -4.196167E-08 -0.013644745 15.524975
v -4.196167E-08 0.01364476 15.524975
v -4.196167E-08 0.01364476 11.475039
v -4.196167E-08 -0.013644745 15.974917
v -4.196167E-08 -0.013644745 20.024975
v -4.196167E-08 0.01364476 20.024975
v -4.196167E-08 0.01364476 15.974917
v -4.196167E-08 -0.013644745 20.474918
v -4.196167E-08 -0.013644745 24.524973
v -4.196167E-08 0.01364476 24.524973
v -4.196167E-08 0.01364476 20.474918
v -4.196167E-08 -0.013644745 24.974915
v -4.196167E-08 -0.013644745 29.024977
v -4.196167E-08 0.01364476 29.024977
v -4.196167E-08 0.01364476 24.974915
v -4.196167E-08 -0.013644745 29.474918
v -4.196167E-08 -0.013644745 33.524975
v -4.196167E-08 0.01364476 33.524975
v -4.196167E-08 0.01364476 29.474918
v -4.196167E-08 -0.013644745 33.974915
v -4.196167E-08 -0.013644745 38.02497
v -4.196167E-08 0.01364476 38.02497
v -4.196167E-08 0.01364476 33.974915
v -4.196167E-08 -0.013644745 38.47492
v -4.196167E-08 -0.013644745 42.524975
v -4.196167E-08 0.01364476 42.524975
v -4.196167E-08 0.01364476 38.47492
v -4.196167E-08 -0.013644745 42.974922
v -4.196167E-08 -0.013644745 47.024975
v -4.196167E-08 0.01364476 47.024975
v -4.196167E-08 0.01364476 42.974922
v -4.196167E-08 -0.013644745 47.474922
v -4.196167E-08 -0.013644745 51.525166
v -4.196167E-08 0.01364476 51.525166
v -4.196167E-08 0.01364476 47.474922
v -4.196167E-08 -0.013644745 51.975113
v -4.196167E-08 -0.013644745 56.249947
v -4.196167E-08 0.01364476 56.249947
v -4.196167E-08 0.01364476 51.975113
vt 3.609375 -14.40625
vt 3.609375 -14.40625
vt 3.609375 -14.40625
vt 3.609375 -14.40625
vt 3.609375 -14.40625
vt 3.609375 -14.40625
vt 3.609375 -14.40625
vt 3.609375 -14.40625
vt 3.609375 -14.40625
vt 3.609375 -14.40625
vt 3.609375 -14.40625
vt 3.609375 -14.40625
vt 3.609375 -14.40625
vt 3.609375 -14.40625
vt 3.609375 -14.40625
vt 3.609375 -14.40625
vt 3.609375 -14.40625
vt 3.609375 -14.40625
vt 3.609375 -14.40625
vt 3.609375 -14.40625
vt 3.609375 -14.40625
vt 3.609375 -14.40625
vt 3.609375 -14.40625
vt 3.609375 -14.40625
vt 3.609375 -14.40625
vt 3.609375 -14.40625
vt 3.609375 -14.40625
vt 3.609375 -14.40625
vt 3.609375 -14.40625
vt 3.609375 -14.40625
vt 3.609375 -14.40625
vt 3.609375 -14.40625
vt 3.609375 -14.40625
vt 3.609375 -14.40625
vt 3.609375 -14.40625
vt 3.609375 -14.40625
vt 3.609375 -14.40625
vt 3.609375 -14.40625
vt 3.609375 -14.40625
vt 3.609375 -14.40625
vt 3.609375 -14.40625
vt 3.609375 -14.40625
vt 3.609375 -14.40625
vt 3.609375 -14.40625
vt 3.609375 -14.40625
vt 3.609375 -14.40625
vt 3.609375 -14.40625
vt 3.609375 -14.40625
vt 3.609375 -14.40625
vt 3.609375 -14.40625
vt 3.609375 -14.40625
vt 3.609375 -14.40625
vt 3.609375 -14.40625
vt 3.609375 -14.40625
vt 3.609375 -14.40625
vt 3.609375 -14.40625
vt 3.609375 -14.40625
vt 3.609375 -14.40625
vt 3.609375 -14.40625
vt 3.609375 -14.40625
vt 3.609375 -14.40625
vt 3.609375 -14.40625
vt 3.609375 -14.40625
vt 3.609375 -14.40625
vt 3.609375 -14.40625
vt 3.609375 -14.40625
vt 3.609375 -14.40625
vt 3.609375 -14.40625
vt 3.609375 -14.40625
vt 3.609375 -14.40625
vt 3.609375 -14.40625
vt 3.609375 -14.40625
vt 3.609375 -14.40625
vt 3.609375 -14.40625
vt 3.609375 -14.40625
vt 3.609375 -14.40625
vt 3.609375 -14.40625
vt 3.609375 -14.40625
vt 3.609375 -14.40625
vt 3.609375 -14.40625
vt 3.609375 -14.40625
vt 3.609375 -14.40625
vt 3.609375 -14.40625
vt 3.609375 -14.40625
vt 3.609375 -14.40625
vt 3.609375 -14.40625
vt 3.609375 -14.40625
vt 3.609375 -14.40625
vt 3.609375 -14.40625
vt 3.609375 -14.40625
vt 3.609375 -14.40625
vt 3.609375 -14.40625
vt 3.609375 -14.40625
vt 3.609375 -14.40625
vt 3.609375 -14.40625
vt 3.609375 -14.40625
vt 3.609375 -14.40625
vt 3.609375 -14.40625
vt 3.609375 -14.40625
vt 3.609375 -14.40625
vn 1 0 0
vn 1 0 0
vn 1 0 0
vn 1 0 0
vn 1 0 0
vn 1 0 0
vn 1 0 0
vn 1 0 0
vn 1 0 0
vn 1 0 0
vn 1 0 0
vn 1 0 0
vn 1 0 0
vn 1 0 0
vn 1 0 0
vn 1 0 0
vn 1 0 0
vn 1 0 0
vn 1 0 0
vn 1 0 0
vn 1 0 0
vn 1 0 0
vn 1 0 0
vn 1 0 0
vn 1 0 0
vn 1 0 0
vn 1 0 0
vn 1 0 0
vn 1 0 0
vn 1 0 0
vn 1 0 0
vn 1 0 0
vn 1 0 0
vn 1 0 0
vn 1 0 0
vn 1 0 0
vn 1 0 0
vn 1 0 0
vn 1 0 0
vn 1 0 0
vn 1 0 0
vn 1 0 0
vn 1 0 0
vn 1 0 0
vn 1 0 0
vn 1 0 0
vn 1 0 0
vn 1 0 0
vn 1 0 0
vn 1 0 0
vn 1 0 0
vn 1 0 0
vn 1 0 0
vn 1 0 0
vn 1 0 0
vn 1 0 0
vn 1 0 0
vn 1 0 0
vn 1 0 0
vn 1 0 0
vn 1 0 0
vn 1 0 0
vn 1 0 0
vn 1 0 0
vn 1 0 0
vn 1 0 0
vn 1 0 0
vn 1 0 0
vn 1 0 0
vn 1 0 0
vn 1 0 0
vn 1 0 0
vn 1 0 0
vn 1 0 0
vn 1 0 0
vn 1 0 0
vn 1 0 0
vn 1 0 0
vn 1 0 0
vn 1 0 0
vn 1 0 0
vn 1 0 0
vn 1 0 0
vn 1 0 0
vn 1 0 0
vn 1 0 0
vn 1 0 0
vn 1 0 0
vn 1 0 0
vn 1 0 0
vn 1 0 0
vn 1 0 0
vn 1 0 0
vn 1 0 0
vn 1 0 0
vn 1 0 0
vn 1 0 0
vn 1 0 0
vn 1 0 0
vn 1 0 0
g ground_wall2_0
f 3/3/3 2/2/2 1/1/1
f 4/4/4 3/3/3 1/1/1
f 7/7/7 6/6/6 5/5/5
f 8/8/8 7/7/7 5/5/5
f 11/11/11 10/10/10 9/9/9
f 12/12/12 11/11/11 9/9/9
f 15/15/15 14/14/14 13/13/13
f 16/16/16 15/15/15 13/13/13
f 19/19/19 18/18/18 17/17/17
f 20/20/20 19/19/19 17/17/17
f 23/23/23 22/22/22 21/21/21
f 24/24/24 23/23/23 21/21/21
f 27/27/27 26/26/26 25/25/25
f 28/28/28 27/27/27 25/25/25
f 31/31/31 30/30/30 29/29/29
f 32/32/32 31/31/31 29/29/29
f 35/35/35 34/34/34 33/33/33
f 36/36/36 35/35/35 33/33/33
f 39/39/39 38/38/38 37/37/37
f 40/40/40 39/39/39 37/37/37
f 43/43/43 42/42/42 41/41/41
f 44/44/44 43/43/43 41/41/41
f 47/47/47 46/46/46 45/45/45
f 48/48/48 47/47/47 45/45/45
f 51/51/51 50/50/50 49/49/49
f 52/52/52 51/51/51 49/49/49
f 55/55/55 54/54/54 53/53/53
f 56/56/56 55/55/55 53/53/53
f 59/59/59 58/58/58 57/57/57
f 60/60/60 59/59/59 57/57/57
f 63/63/63 62/62/62 61/61/61
f 64/64/64 63/63/63 61/61/61
f 67/67/67 66/66/66 65/65/65
f 68/68/68 67/67/67 65/65/65
f 71/71/71 70/70/70 69/69/69
f 72/72/72 71/71/71 69/69/69
f 75/75/75 74/74/74 73/73/73
f 76/76/76 75/75/75 73/73/73
f 79/79/79 78/78/78 77/77/77
f 80/80/80 79/79/79 77/77/77
f 83/83/83 82/82/82 81/81/81
f 84/84/84 83/83/83 81/81/81
f 87/87/87 86/86/86 85/85/85
f 88/88/88 87/87/87 85/85/85
f 91/91/91 90/90/90 89/89/89
f 92/92/92 91/91/91 89/89/89
f 95/95/95 94/94/94 93/93/93
f 96/96/96 95/95/95 93/93/93
f 99/99/99 98/98/98 97/97/97
f 100/100/100 99/99/99 97/97/97
