g groundTopGlassSideA_AAE_geo
v -2.9111054 -1.167152 -10.2098
v -2.1300201 -1.167152 -10.2098
v -1.7514199 -0.50895965 -10.2098
v -1.7514199 0.055070188 -10.2098
v -4.2336187 -0.7298483 -10.2098
v -4.75142 0.055070188 -10.2098
v -4.75142 -0.6661081 -10.2098
vt 0.23925781 0.42407227
vt 0.23925781 0.44140625
vt 0.25390625 0.44970703
vt 0.26635742 0.44970703
vt 0.24902344 0.39453125
vt 0.26635742 0.38305664
vt 0.25048828 0.38305664
vn 2.9802322E-07 0 -1
vn -0 0 -1
vn -0 0 -1
vn 1.1920929E-07 0 -1
vn -0 0 -1
vn -0 0 -1
vn -0 0 -1
g groundTopGlassSideA_AAE_geo_0
f 3/3/3 2/2/2 1/1/1
f 4/4/4 3/3/3 1/1/1
f 4/4/4 1/1/1 5/5/5
f 4/4/4 5/5/5 6/6/6
f 5/5/5 7/7/7 6/6/6
