g groundTopGlassSideB_geo
v -17.97127 2.2893262 5.5
v -18.091085 3.0424721 5.5
v -18.095585 3.0555556 5.5
v -20.499004 5.139912 5.5
v -20.77663 5.3824515 5.5
v -21.061811 5.5 5.5
v 19.5 -5.499999 5.5
v 22.5 -4.2777777 5.5
v 22.5 -5.499999 5.5
v 19.5 -4.2777777 5.5
v 16.5 -5.499999 5.5
v 22.5 -3.0555553 5.5
v 16.5 -4.2777777 5.5
v 13.5 -5.499999 5.5
v 19.5 -3.0555553 5.5
v 22.5 -1.8333331 5.5
v 13.5 -4.2777777 5.5
v 10.5 -5.499999 5.5
v 16.5 -3.0555553 5.5
v 19.5 -1.8333331 5.5
v 22.5 -0.6111109 5.5
v 10.5 -4.2777777 5.5
v 7.5 -5.499999 5.5
v 13.5 -3.0555553 5.5
v 16.5 -1.8333331 5.5
v 19.5 -0.6111109 5.5
v 22.5 0.61111134 5.5
v 7.5 -4.2777777 5.5
v 4.5 -5.499999 5.5
v 10.5 -3.0555553 5.5
v 13.5 -1.8333331 5.5
v 16.5 -0.6111109 5.5
v 19.5 0.61111134 5.5
v 22.5 1.8333334 5.5
v 4.5 -4.2777777 5.5
v 1.5 -5.499999 5.5
v 7.5 -3.0555553 5.5
v 10.5 -1.8333331 5.5
v 13.5 -0.6111109 5.5
v 16.5 0.61111134 5.5
v 19.5 1.8333334 5.5
v 22.5 3.0555556 5.5
v 1.5 -4.2777777 5.5
v -1.5 -5.499999 5.5
v 4.5 -3.0555553 5.5
v 7.5 -1.8333331 5.5
v 10.5 -0.6111109 5.5
v 13.5 0.61111134 5.5
v 16.5 1.8333334 5.5
v 19.5 3.0555556 5.5
v 22.5 4.277778 5.5
v 19.5 4.277778 5.5
v 22.5 5.5 5.5
v 19.5 5.5 5.5
v 16.5 3.0555556 5.5
v 16.5 4.277778 5.5
v 16.5 5.5 5.5
v 13.5 1.8333334 5.5
v 10.5 0.61111134 5.5
v 13.5 4.277778 5.5
v 13.5 5.5 5.5
v 13.5 3.0555556 5.5
v 10.5 4.277778 5.5
v 10.5 5.5 5.5
v 10.5 1.8333334 5.5
v 10.5 3.0555556 5.5
v 7.5 -0.6111109 5.5
v 7.5 4.277778 5.5
v 7.5 5.5 5.5
v 7.5 0.61111134 5.5
v 7.5 3.0555556 5.5
v 7.5 1.8333334 5.5
v 4.5 -1.8333331 5.5
v 4.5 4.277778 5.5
v 4.5 5.5 5.5
v 4.5 -0.6111109 5.5
v 4.5 0.61111134 5.5
v 4.5 3.0555556 5.5
v 4.5 1.8333334 5.5
v 1.5 -3.0555553 5.5
v 1.5 4.277778 5.5
v 1.5 5.5 5.5
v 1.5 -1.8333331 5.5
v 1.5 -0.6111109 5.5
v 1.5 0.61111134 5.5
v 1.5 3.0555556 5.5
v 1.5 1.8333334 5.5
v -1.5 4.277778 5.5
v -1.5 5.5 5.5
v -1.5 3.0555556 5.5
v -1.5 1.8333334 5.5
v -1.5 0.61111134 5.5
v -1.5 -0.6111109 5.5
v -4.5 4.277778 5.5
v -4.5 5.5 5.5
v -4.5 3.0555556 5.5
v -4.5 1.8333334 5.5
v -4.5 0.61111134 5.5
v -7.5 4.277778 5.5
v -7.5 5.5 5.5
v -7.5 3.0555556 5.5
v -7.5 1.8333334 5.5
v -10.5 4.277778 5.5
v -10.5 5.5 5.5
v -10.5 3.0555556 5.5
v -13.5 4.277778 5.5
v -13.5 5.5 5.5
v -16.5 4.277778 5.5
v -16.5 5.5 5.5
v -13.5 3.0555556 5.5
v -10.5 1.8333334 5.5
v -7.5 0.61111134 5.5
v -16.5 3.0555556 5.5
v -13.5 1.8333334 5.5
v -10.5 0.61111134 5.5
v -19.5 4.668244 5.5
v -19.5 5.5 5.5
v -20.499004 5.139912 5.5
v -21.061811 5.5 5.5
v -20.020634 4.8241925 5.5
v -19.189936 4.277778 5.5
v -18.419922 3.9403148 5.5
v -18.095585 3.0555556 5.5
v -17.97127 2.2893262 5.5
v -17.95532 1.8333334 5.5
v -16.5 1.8333334 5.5
v -17.988537 0.80337024 5.5
v -16.5 0.61111134 5.5
v -17.874353 0.61111134 5.5
v -17.584053 0.15241508 5.5
v -17.350922 -0.6111109 5.5
v -13.5 0.61111134 5.5
v -16.5 -0.6111109 5.5
v -13.5 -0.6111109 5.5
v -16.5 -1.4640094 5.5
v -16.94597 -1.2825243 5.5
v -16.276754 -1.5788873 5.5
v -15.980306 -1.8333331 5.5
v -10.5 -0.6111109 5.5
v -13.5 -1.8333331 5.5
v -7.5 -0.6111109 5.5
v -14.202921 -2.504062 5.5
v -15.737917 -2.043092 5.5
v -15.076126 -2.3818626 5.5
v -13.5 -2.8584075 5.5
v -13.505364 -2.8548803 5.5
v -13.20008 -3.0555553 5.5
v -10.5 -1.8333331 5.5
v -4.5 -0.6111109 5.5
v -10.5 -3.0555553 5.5
v -11.773952 -4.2777777 5.5
v -7.5 -1.8333331 5.5
v -4.5 -1.8333331 5.5
v -10.5 -4.2777777 5.5
v -11.651023 -4.4126225 5.5
v -11.212843 -5.499999 5.5
v -10.5 -5.499999 5.5
v -7.5 -3.0555553 5.5
v -7.5 -4.2777777 5.5
v -7.5 -5.499999 5.5
v -1.5 -1.8333331 5.5
v -4.5 -3.0555553 5.5
v -4.5 -4.2777777 5.5
v -4.5 -5.499999 5.5
v -1.5 -3.0555553 5.5
v -1.5 -4.2777777 5.5
vt 0.61621094 0.083740234
vt 0.5996094 0.08105469
vt 0.5991211 0.08099365
vt 0.5527344 0.027557373
vt 0.5473633 0.021392822
vt 0.5449219 0.015052795
vt 0.7890625 0.9165039
vt 0.76220703 0.98291016
vt 0.7890625 0.98291016
vt 0.76220703 0.9165039
vt 0.7890625 0.8496094
vt 0.7348633 0.98291016
vt 0.76220703 0.8496094
vt 0.7890625 0.7832031
vt 0.7348633 0.9165039
vt 0.7080078 0.98291016
vt 0.76220703 0.7832031
vt 0.7890625 0.7163086
vt 0.7348633 0.8496094
vt 0.7080078 0.9165039
vt 0.68066406 0.98291016
vt 0.76220703 0.7163086
vt 0.7890625 0.64990234
vt 0.7348633 0.7832031
vt 0.7080078 0.8496094
vt 0.68066406 0.9165039
vt 0.6533203 0.98291016
vt 0.76220703 0.64990234
vt 0.7890625 0.5830078
vt 0.7348633 0.7163086
vt 0.7080078 0.7832031
vt 0.68066406 0.8496094
vt 0.6533203 0.9165039
vt 0.62646484 0.98291016
vt 0.76220703 0.5830078
vt 0.7890625 0.51660156
vt 0.7348633 0.64990234
vt 0.7080078 0.7163086
vt 0.68066406 0.7832031
vt 0.6533203 0.8496094
vt 0.62646484 0.9165039
vt 0.5991211 0.98291016
vt 0.76220703 0.51660156
vt 0.7890625 0.44970703
vt 0.7348633 0.5830078
vt 0.7080078 0.64990234
vt 0.68066406 0.7163086
vt 0.6533203 0.7832031
vt 0.62646484 0.8496094
vt 0.5991211 0.9165039
vt 0.57177734 0.98291016
vt 0.57177734 0.9165039
vt 0.5449219 0.98291016
vt 0.5449219 0.9165039
vt 0.5991211 0.8496094
vt 0.57177734 0.8496094
vt 0.5449219 0.8496094
vt 0.62646484 0.7832031
vt 0.6533203 0.7163086
vt 0.57177734 0.7832031
vt 0.5449219 0.7832031
vt 0.5991211 0.7832031
vt 0.57177734 0.7163086
vt 0.5449219 0.7163086
vt 0.62646484 0.7163086
vt 0.5991211 0.7163086
vt 0.68066406 0.64990234
vt 0.57177734 0.64990234
vt 0.5449219 0.64990234
vt 0.6533203 0.64990234
vt 0.5991211 0.64990234
vt 0.62646484 0.64990234
vt 0.7080078 0.5830078
vt 0.57177734 0.5830078
vt 0.5449219 0.5830078
vt 0.68066406 0.5830078
vt 0.6533203 0.5830078
vt 0.5991211 0.5830078
vt 0.62646484 0.5830078
vt 0.7348633 0.51660156
vt 0.57177734 0.51660156
vt 0.5449219 0.51660156
vt 0.7080078 0.51660156
vt 0.68066406 0.51660156
vt 0.6533203 0.51660156
vt 0.5991211 0.51660156
vt 0.62646484 0.51660156
vt 0.57177734 0.44970703
vt 0.5449219 0.44970703
vt 0.5991211 0.44970703
vt 0.62646484 0.44970703
vt 0.6533203 0.44970703
vt 0.68066406 0.44970703
vt 0.57177734 0.38305664
vt 0.5449219 0.38305664
vt 0.5991211 0.38305664
vt 0.62646484 0.38305664
vt 0.6533203 0.38305664
vt 0.57177734 0.31640625
vt 0.5449219 0.31640625
vt 0.5991211 0.31640625
vt 0.62646484 0.31640625
vt 0.57177734 0.24975586
vt 0.5449219 0.24975586
vt 0.5991211 0.24975586
vt 0.57177734 0.18310547
vt 0.5449219 0.18310547
vt 0.57177734 0.11639404
vt 0.5449219 0.11639404
vt 0.5991211 0.18310547
vt 0.62646484 0.24975586
vt 0.6533203 0.31640625
vt 0.5991211 0.11639404
vt 0.62646484 0.18310547
vt 0.6533203 0.24975586
vt 0.56347656 0.049743652
vt 0.5449219 0.049743652
vt 0.5527344 0.027557373
vt 0.5449219 0.015052795
vt 0.5600586 0.03817749
vt 0.57177734 0.056640625
vt 0.57958984 0.07373047
vt 0.5991211 0.08099365
vt 0.61621094 0.083740234
vt 0.62646484 0.084106445
vt 0.62646484 0.11639404
vt 0.64941406 0.08337402
vt 0.6533203 0.11639404
vt 0.6533203 0.085876465
vt 0.6635742 0.09234619
vt 0.68066406 0.09753418
vt 0.6533203 0.18310547
vt 0.68066406 0.11639404
vt 0.68066406 0.18310547
vt 0.69970703 0.11639404
vt 0.6958008 0.10650635
vt 0.70214844 0.121398926
vt 0.7080078 0.12792969
vt 0.68066406 0.24975586
vt 0.7080078 0.18310547
vt 0.68066406 0.31640625
vt 0.72265625 0.16748047
vt 0.71240234 0.13330078
vt 0.72021484 0.14807129
vt 0.73046875 0.18310547
vt 0.73046875 0.1829834
vt 0.7348633 0.18969727
vt 0.7080078 0.24975586
vt 0.68066406 0.38305664
vt 0.7348633 0.24975586
vt 0.76220703 0.22143555
vt 0.7080078 0.31640625
vt 0.7080078 0.38305664
vt 0.76220703 0.24975586
vt 0.7651367 0.2241211
vt 0.7890625 0.23388672
vt 0.7890625 0.24975586
vt 0.7348633 0.31640625
vt 0.76220703 0.31640625
vt 0.7890625 0.31640625
vt 0.7080078 0.44970703
vt 0.7348633 0.38305664
vt 0.76220703 0.38305664
vt 0.7890625 0.38305664
vt 0.7348633 0.44970703
vt 0.76220703 0.44970703
vn -0 0 1
vn -0 0 1
vn -0 0 1
vn -0 0 1
vn -0 0 1
vn -0 0 1
vn -0 0 1
vn -0 0 1
vn -0 0 1
vn -0 0 1
vn -0 0 1
vn -0 0 1
vn -0 0 1
vn -0 0 1
vn -0 0 1
vn -0 0 1
vn -0 0 1
vn -0 0 1
vn -0 0 1
vn -0 0 1
vn -0 0 1
vn -0 0 1
vn -0 0 1
vn -0 0 1
vn -0 0 1
vn -0 0 1
vn -0 0 1
vn -0 0 1
vn -0 0 1
vn -0 0 1
vn -0 0 1
vn -0 0 1
vn -0 0 1
vn -0 0 1
vn -0 0 1
vn -0 0 1
vn -0 0 1
vn -0 0 1
vn -0 0 1
vn -0 0 1
vn -0 0 1
vn -0 0 1
vn -0 0 1
vn -0 0 1
vn -0 0 1
vn -0 0 1
vn -0 0 1
vn -0 0 1
vn -0 0 1
vn -0 0 1
vn -0 0 1
vn -0 0 1
vn -0 0 1
vn -0 0 1
vn -0 0 1
vn -0 0 1
vn -0 0 1
vn -0 0 1
vn -0 0 1
vn -0 0 1
vn -0 0 1
vn -0 0 1
vn -0 0 1
vn -0 0 1
vn -0 0 1
vn -0 0 1
vn -0 0 1
vn -0 0 1
vn -0 0 1
vn -0 0 1
vn -0 0 1
vn -0 0 1
vn -0 0 1
vn -0 0 1
vn -0 0 1
vn -0 0 1
vn -0 0 1
vn -0 0 1
vn -0 0 1
vn -0 0 1
vn -0 0 1
vn -0 0 1
vn -0 0 1
vn -0 0 1
vn -0 0 1
vn -0 0 1
vn -0 0 1
vn -0 0 1
vn -0 0 1
vn -0 0 1
vn -0 0 1
vn -0 0 1
vn -0 0 1
vn -0 0 1
vn -0 0 1
vn -0 0 1
vn -0 0 1
vn -0 0 1
vn -0 0 1
vn -0 0 1
vn -0 0 1
vn -0 0 1
vn -0 0 1
vn -0 0 1
vn -0 0 1
vn -0 0 1
vn -0 0 1
vn -0 0 1
vn -0 0 1
vn -0 0 1
vn -0 0 1
vn -0 0 1
vn -0 0 1
vn -0 0 1
vn -0 0 1
vn -0 0 1
vn -0 0 1
vn -0 0 1
vn -0 0 1
vn -0 0 1
vn -0 0 1
vn -0 0 1
vn -0 0 1
vn -0 0 1
vn -0 0 1
vn -0 0 1
vn -0 0 1
vn -0 0 1
vn -0 0 1
vn -0 0 1
vn -0 0 1
vn -0 0 1
vn -0 0 1
vn -0 0 1
vn -0 0 1
vn -0 0 1
vn -0 0 1
vn -0 0 1
vn -0 0 1
vn -0 0 1
vn -0 0 1
vn -0 0 1
vn -1.1920929E-07 0 1
vn -1.1920929E-07 0 1
vn -0 0 1
vn -0 0 1
vn -0 0 1
vn -0 0 1
vn -0 0 1
vn -0 0 1
vn -0 0 1
vn -0 0 1
vn -0 0 1
vn -0 0 1
vn -0 0 1
vn -0 0 1
vn -0 0 1
vn -0 0 1
vn -0 0 1
vn -0 0 1
vn -0 0 1
vn -0 0 1
vn -0 0 1
vn -0 0 1
vn -0 0 1
vn -0 0 1
g groundTopGlassSideB_geo_0
f 3/3/3 2/2/2 1/1/1
f 6/6/6 5/5/5 4/4/4
f 9/9/9 8/8/8 7/7/7
f 8/8/8 10/10/10 7/7/7
f 7/7/7 10/10/10 11/11/11
f 8/8/8 12/12/12 10/10/10
f 10/10/10 13/13/13 11/11/11
f 11/11/11 13/13/13 14/14/14
f 12/12/12 15/15/15 10/10/10
f 10/10/10 15/15/15 13/13/13
f 12/12/12 16/16/16 15/15/15
f 13/13/13 17/17/17 14/14/14
f 14/14/14 17/17/17 18/18/18
f 15/15/15 19/19/19 13/13/13
f 13/13/13 19/19/19 17/17/17
f 16/16/16 20/20/20 15/15/15
f 15/15/15 20/20/20 19/19/19
f 16/16/16 21/21/21 20/20/20
f 17/17/17 22/22/22 18/18/18
f 18/18/18 22/22/22 23/23/23
f 19/19/19 24/24/24 17/17/17
f 17/17/17 24/24/24 22/22/22
f 20/20/20 25/25/25 19/19/19
f 19/19/19 25/25/25 24/24/24
f 21/21/21 26/26/26 20/20/20
f 20/20/20 26/26/26 25/25/25
f 21/21/21 27/27/27 26/26/26
f 22/22/22 28/28/28 23/23/23
f 23/23/23 28/28/28 29/29/29
f 24/24/24 30/30/30 22/22/22
f 22/22/22 30/30/30 28/28/28
f 25/25/25 31/31/31 24/24/24
f 24/24/24 31/31/31 30/30/30
f 26/26/26 32/32/32 25/25/25
f 25/25/25 32/32/32 31/31/31
f 27/27/27 33/33/33 26/26/26
f 26/26/26 33/33/33 32/32/32
f 27/27/27 34/34/34 33/33/33
f 28/28/28 35/35/35 29/29/29
f 29/29/29 35/35/35 36/36/36
f 30/30/30 37/37/37 28/28/28
f 28/28/28 37/37/37 35/35/35
f 31/31/31 38/38/38 30/30/30
f 30/30/30 38/38/38 37/37/37
f 32/32/32 39/39/39 31/31/31
f 31/31/31 39/39/39 38/38/38
f 33/33/33 40/40/40 32/32/32
f 32/32/32 40/40/40 39/39/39
f 34/34/34 41/41/41 33/33/33
f 33/33/33 41/41/41 40/40/40
f 34/34/34 42/42/42 41/41/41
f 35/35/35 43/43/43 36/36/36
f 36/36/36 43/43/43 44/44/44
f 37/37/37 45/45/45 35/35/35
f 35/35/35 45/45/45 43/43/43
f 38/38/38 46/46/46 37/37/37
f 37/37/37 46/46/46 45/45/45
f 39/39/39 47/47/47 38/38/38
f 38/38/38 47/47/47 46/46/46
f 40/40/40 48/48/48 39/39/39
f 39/39/39 48/48/48 47/47/47
f 41/41/41 49/49/49 40/40/40
f 40/40/40 49/49/49 48/48/48
f 42/42/42 50/50/50 41/41/41
f 41/41/41 50/50/50 49/49/49
f 42/42/42 51/51/51 50/50/50
f 51/51/51 52/52/52 50/50/50
f 51/51/51 53/53/53 52/52/52
f 53/53/53 54/54/54 52/52/52
f 50/50/50 55/55/55 49/49/49
f 50/50/50 52/52/52 55/55/55
f 52/52/52 54/54/54 56/56/56
f 52/52/52 56/56/56 55/55/55
f 54/54/54 57/57/57 56/56/56
f 49/49/49 58/58/58 48/48/48
f 49/49/49 55/55/55 58/58/58
f 48/48/48 59/59/59 47/47/47
f 48/48/48 58/58/58 59/59/59
f 56/56/56 57/57/57 60/60/60
f 57/57/57 61/61/61 60/60/60
f 55/55/55 56/56/56 62/62/62
f 55/55/55 62/62/62 58/58/58
f 56/56/56 60/60/60 62/62/62
f 60/60/60 61/61/61 63/63/63
f 61/61/61 64/64/64 63/63/63
f 58/58/58 62/62/62 65/65/65
f 58/58/58 65/65/65 59/59/59
f 62/62/62 60/60/60 66/66/66
f 60/60/60 63/63/63 66/66/66
f 62/62/62 66/66/66 65/65/65
f 47/47/47 59/59/59 67/67/67
f 47/47/47 67/67/67 46/46/46
f 63/63/63 64/64/64 68/68/68
f 64/64/64 69/69/69 68/68/68
f 59/59/59 65/65/65 70/70/70
f 59/59/59 70/70/70 67/67/67
f 66/66/66 63/63/63 71/71/71
f 63/63/63 68/68/68 71/71/71
f 65/65/65 66/66/66 72/72/72
f 65/65/65 72/72/72 70/70/70
f 66/66/66 71/71/71 72/72/72
f 46/46/46 67/67/67 73/73/73
f 46/46/46 73/73/73 45/45/45
f 68/68/68 69/69/69 74/74/74
f 69/69/69 75/75/75 74/74/74
f 67/67/67 70/70/70 76/76/76
f 67/67/67 76/76/76 73/73/73
f 70/70/70 72/72/72 77/77/77
f 70/70/70 77/77/77 76/76/76
f 71/71/71 68/68/68 78/78/78
f 68/68/68 74/74/74 78/78/78
f 72/72/72 71/71/71 79/79/79
f 72/72/72 79/79/79 77/77/77
f 71/71/71 78/78/78 79/79/79
f 45/45/45 73/73/73 80/80/80
f 45/45/45 80/80/80 43/43/43
f 74/74/74 75/75/75 81/81/81
f 75/75/75 82/82/82 81/81/81
f 73/73/73 76/76/76 83/83/83
f 73/73/73 83/83/83 80/80/80
f 76/76/76 77/77/77 84/84/84
f 76/76/76 84/84/84 83/83/83
f 77/77/77 79/79/79 85/85/85
f 77/77/77 85/85/85 84/84/84
f 78/78/78 74/74/74 86/86/86
f 74/74/74 81/81/81 86/86/86
f 79/79/79 78/78/78 87/87/87
f 79/79/79 87/87/87 85/85/85
f 78/78/78 86/86/86 87/87/87
f 81/81/81 82/82/82 88/88/88
f 82/82/82 89/89/89 88/88/88
f 86/86/86 81/81/81 90/90/90
f 81/81/81 88/88/88 90/90/90
f 87/87/87 86/86/86 91/91/91
f 86/86/86 90/90/90 91/91/91
f 85/85/85 87/87/87 92/92/92
f 87/87/87 91/91/91 92/92/92
f 84/84/84 85/85/85 93/93/93
f 85/85/85 92/92/92 93/93/93
f 88/88/88 89/89/89 94/94/94
f 89/89/89 95/95/95 94/94/94
f 90/90/90 88/88/88 96/96/96
f 88/88/88 94/94/94 96/96/96
f 91/91/91 90/90/90 97/97/97
f 90/90/90 96/96/96 97/97/97
f 92/92/92 91/91/91 98/98/98
f 91/91/91 97/97/97 98/98/98
f 94/94/94 95/95/95 99/99/99
f 95/95/95 100/100/100 99/99/99
f 96/96/96 94/94/94 101/101/101
f 94/94/94 99/99/99 101/101/101
f 97/97/97 96/96/96 102/102/102
f 96/96/96 101/101/101 102/102/102
f 99/99/99 100/100/100 103/103/103
f 100/100/100 104/104/104 103/103/103
f 101/101/101 99/99/99 105/105/105
f 99/99/99 103/103/103 105/105/105
f 103/103/103 104/104/104 106/106/106
f 104/104/104 107/107/107 106/106/106
f 106/106/106 107/107/107 108/108/108
f 107/107/107 109/109/109 108/108/108
f 103/103/103 106/106/106 110/110/110
f 105/105/105 103/103/103 110/110/110
f 101/101/101 105/105/105 111/111/111
f 102/102/102 101/101/101 111/111/111
f 97/97/97 102/102/102 112/112/112
f 98/98/98 97/97/97 112/112/112
f 106/106/106 108/108/108 113/113/113
f 110/110/110 106/106/106 113/113/113
f 105/105/105 110/110/110 114/114/114
f 111/111/111 105/105/105 114/114/114
f 102/102/102 111/111/111 115/115/115
f 112/112/112 102/102/102 115/115/115
f 108/108/108 109/109/109 116/116/116
f 109/109/109 117/117/117 116/116/116
f 117/117/117 118/118/118 116/116/116
f 117/117/117 119/119/119 118/118/118
f 118/118/118 120/120/120 116/116/116
f 108/108/108 116/116/116 121/121/121
f 108/108/108 121/121/121 122/122/122
f 108/108/108 122/122/122 123/123/123
f 113/113/113 108/108/108 123/123/123
f 113/113/113 123/123/123 124/124/124
f 113/113/113 124/124/124 125/125/125
f 126/126/126 113/113/113 125/125/125
f 110/110/110 113/113/113 126/126/126
f 126/126/126 125/125/125 127/127/127
f 128/128/128 126/126/126 127/127/127
f 114/114/114 110/110/110 126/126/126
f 114/114/114 126/126/126 128/128/128
f 128/128/128 127/127/127 129/129/129
f 128/128/128 129/129/129 130/130/130
f 128/128/128 130/130/130 131/131/131
f 132/132/132 114/114/114 128/128/128
f 111/111/111 114/114/114 132/132/132
f 115/115/115 111/111/111 132/132/132
f 133/133/133 128/128/128 131/131/131
f 132/132/132 128/128/128 133/133/133
f 115/115/115 132/132/132 134/134/134
f 134/134/134 132/132/132 133/133/133
f 133/133/133 131/131/131 135/135/135
f 131/131/131 136/136/136 135/135/135
f 133/133/133 135/135/135 137/137/137
f 134/134/134 133/133/133 137/137/137
f 134/134/134 137/137/137 138/138/138
f 139/139/139 115/115/115 134/134/134
f 112/112/112 115/115/115 139/139/139
f 140/140/140 134/134/134 138/138/138
f 139/139/139 134/134/134 140/140/140
f 141/141/141 112/112/112 139/139/139
f 98/98/98 112/112/112 141/141/141
f 140/140/140 138/138/138 142/142/142
f 138/138/138 143/143/143 142/142/142
f 143/143/143 144/144/144 142/142/142
f 140/140/140 142/142/142 145/145/145
f 142/142/142 146/146/146 145/145/145
f 140/140/140 145/145/145 147/147/147
f 148/148/148 139/139/139 140/140/140
f 148/148/148 140/140/140 147/147/147
f 141/141/141 139/139/139 148/148/148
f 149/149/149 98/98/98 141/141/141
f 92/92/92 98/98/98 149/149/149
f 93/93/93 92/92/92 149/149/149
f 150/150/150 148/148/148 147/147/147
f 150/150/150 147/147/147 151/151/151
f 152/152/152 141/141/141 148/148/148
f 149/149/149 141/141/141 152/152/152
f 152/152/152 148/148/148 150/150/150
f 93/93/93 149/149/149 153/153/153
f 153/153/153 149/149/149 152/152/152
f 154/154/154 150/150/150 151/151/151
f 154/154/154 151/151/151 155/155/155
f 154/154/154 155/155/155 156/156/156
f 157/157/157 154/154/154 156/156/156
f 158/158/158 152/152/152 150/150/150
f 158/158/158 150/150/150 154/154/154
f 153/153/153 152/152/152 158/158/158
f 159/159/159 154/154/154 157/157/157
f 159/159/159 158/158/158 154/154/154
f 160/160/160 159/159/159 157/157/157
f 161/161/161 93/93/93 153/153/153
f 84/84/84 93/93/93 161/161/161
f 83/83/83 84/84/84 161/161/161
f 162/162/162 153/153/153 158/158/158
f 162/162/162 158/158/158 159/159/159
f 161/161/161 153/153/153 162/162/162
f 163/163/163 159/159/159 160/160/160
f 163/163/163 162/162/162 159/159/159
f 164/164/164 163/163/163 160/160/160
f 83/83/83 161/161/161 165/165/165
f 165/165/165 161/161/161 162/162/162
f 165/165/165 162/162/162 163/163/163
f 80/80/80 83/83/83 165/165/165
f 166/166/166 163/163/163 164/164/164
f 166/166/166 165/165/165 163/163/163
f 80/80/80 165/165/165 166/166/166
f 44/44/44 166/166/166 164/164/164
f 43/43/43 80/80/80 166/166/166
f 43/43/43 166/166/166 44/44/44
