g groundTopGlassSideA_AAA_geo
v -12.414265 -9.777778 -10.2098
v -12.136162 -9.972639 -10.2098
v -11.85049 -10.629902 -10.2098
v 19.248579 -7.6293944E-08 -10.2098
v 22.248579 -1.2222222 -10.2098
v 22.248579 -7.6293944E-08 -10.2098
v 19.248579 -1.2222222 -10.2098
v 16.248579 -7.6293944E-08 -10.2098
v 22.248579 -2.444445 -10.2098
v 16.248579 -1.2222222 -10.2098
v 13.24858 -7.6293944E-08 -10.2098
v 19.248579 -2.444445 -10.2098
v 22.248579 -3.6666667 -10.2098
v 13.24858 -1.2222222 -10.2098
v 10.24858 -7.6293944E-08 -10.2098
v 16.248579 -2.444445 -10.2098
v 19.248579 -3.6666667 -10.2098
v 22.248579 -4.888889 -10.2098
v 19.248579 -4.888889 -10.2098
v 22.248579 -6.111111 -10.2098
v 16.248579 -3.6666667 -10.2098
v 13.24858 -2.444445 -10.2098
v 10.24858 -1.2222222 -10.2098
v 19.248579 -6.111111 -10.2098
v 22.248579 -7.333333 -10.2098
v 16.248579 -4.888889 -10.2098
v 7.2485795 -1.2222222 -10.2098
v 7.2485795 -7.6293944E-08 -10.2098
v 10.24858 -2.444445 -10.2098
v 13.24858 -3.6666667 -10.2098
v 19.248579 -7.333333 -10.2098
v 22.248579 -8.555555 -10.2098
v 7.2485795 -2.444445 -10.2098
v 4.24858 -1.2222222 -10.2098
v 16.248579 -6.111111 -10.2098
v 10.24858 -3.6666667 -10.2098
v 13.24858 -4.888889 -10.2098
v 19.248579 -8.555555 -10.2098
v 22.248579 -9.777778 -10.2098
v 4.24858 -2.444445 -10.2098
v 1.24858 -1.2222222 -10.2098
v 16.248579 -7.333333 -10.2098
v 7.2485795 -3.6666667 -10.2098
v 10.24858 -4.888889 -10.2098
v 13.24858 -6.111111 -10.2098
v 19.248579 -9.777778 -10.2098
v 22.248579 -11 -10.2098
v 19.248579 -11 -10.2098
v 16.248579 -8.555555 -10.2098
v 16.248579 -9.777778 -10.2098
v 16.248579 -11 -10.2098
v 13.24858 -7.333333 -10.2098
v 10.24858 -6.111111 -10.2098
v 13.24858 -8.555555 -10.2098
v 13.24858 -9.777778 -10.2098
v 13.24858 -11 -10.2098
v 10.24858 -7.333333 -10.2098
v 7.2485795 -4.888889 -10.2098
v 10.24858 -8.555555 -10.2098
v 10.24858 -9.777778 -10.2098
v 10.24858 -11 -10.2098
v 7.2485795 -6.111111 -10.2098
v 4.24858 -3.6666667 -10.2098
v 7.2485795 -7.333333 -10.2098
v 7.2485795 -8.555555 -10.2098
v 7.2485795 -9.777778 -10.2098
v 7.2485795 -11 -10.2098
v 4.24858 -4.888889 -10.2098
v 1.24858 -2.444445 -10.2098
v -1.7514199 -1.2222222 -10.2098
v 4.24858 -6.111111 -10.2098
v 4.24858 -7.333333 -10.2098
v 4.24858 -8.555555 -10.2098
v 4.24858 -9.777778 -10.2098
v 4.24858 -11 -10.2098
v 1.24858 -3.6666667 -10.2098
v -1.7514199 -2.444445 -10.2098
v -4.75142 -1.2222222 -10.2098
v 1.24858 -4.888889 -10.2098
v 1.24858 -6.111111 -10.2098
v 1.24858 -7.333333 -10.2098
v 1.24858 -8.555555 -10.2098
v -1.7514199 -3.6666667 -10.2098
v -1.7514199 -4.888889 -10.2098
v -1.7514199 -6.111111 -10.2098
v -4.75142 -2.444445 -10.2098
v -4.75142 -3.6666667 -10.2098
v 1.24858 -9.777778 -10.2098
v 1.24858 -11 -10.2098
v -1.7514199 -7.333333 -10.2098
v -4.75142 -4.888889 -10.2098
v -1.7514199 -9.777778 -10.2098
v -1.7514199 -11 -10.2098
v -1.7514199 -8.555555 -10.2098
v -4.75142 -6.111111 -10.2098
v -4.75142 -9.777778 -10.2098
v -4.75142 -11 -10.2098
v -4.75142 -8.555555 -10.2098
v -4.75142 -7.333333 -10.2098
v -7.75142 -9.777778 -10.2098
v -7.75142 -11 -10.2098
v -7.75142 -8.555555 -10.2098
v -7.75142 -7.333333 -10.2098
v -10.751419 -7.333333 -10.2098
v -7.75142 -6.111111 -10.2098
v -10.751419 -9.777778 -10.2098
v -10.751419 -11 -10.2098
v -10.751419 -8.555555 -10.2098
v -11.85049 -10.629902 -10.2098
v -11.510369 -11 -10.2098
v -12.414265 -9.777778 -10.2098
v -12.811032 -8.555555 -10.2098
v -12.633275 -9.614057 -10.2098
v -12.922743 -7.9743032 -10.2098
v -10.751419 -6.111111 -10.2098
v -13.434008 -7.333333 -10.2098
v -13.403438 -7.482139 -10.2098
v -13.581479 -6.493246 -10.2098
v -13.564309 -6.699071 -10.2098
v -13.709174 -6.111111 -10.2098
v -13.751419 -5.901248 -10.2098
v -10.751419 -4.888889 -10.2098
v -7.75142 -4.888889 -10.2098
v -7.75142 -3.6666667 -10.2098
v -13.751419 -4.888889 -10.2098
v -13.837284 -5.474702 -10.2098
v -10.751419 -3.6666667 -10.2098
v -7.75142 -2.444445 -10.2098
v -13.992771 -4.888889 -10.2098
v -13.936705 -5.244612 -10.2098
v -14.070943 -4.3928995 -10.2098
v -13.751419 -3.6666667 -10.2098
v -10.751419 -2.444445 -10.2098
v -7.75142 -1.2222222 -10.2098
v -14.286186 -3.6666667 -10.2098
v -14.232575 -3.8947911 -10.2098
v -14.322285 -3.4917662 -10.2098
v -13.751419 -2.444445 -10.2098
v -10.751419 -1.2222222 -10.2098
v -7.75142 -7.6293944E-08 -10.2098
v -4.75142 -7.6293944E-08 -10.2098
v -10.751419 -7.6293944E-08 -10.2098
v -13.751419 -7.6293944E-08 -10.2098
v -13.751419 -1.2222222 -10.2098
v -14.698642 -2.444445 -10.2098
v -14.662038 -2.6802084 -10.2098
v -14.940745 -1.6685388 -10.2098
v -15.497447 -1.2222222 -10.2098
v -15.411749 -1.3659152 -10.2098
v -15.625476 -1.0069447 -10.2098
v -16.395348 -0.3501734 -10.2098
v -16.75142 -7.6293944E-08 -10.2098
v -16.75142 -0.23411629 -10.2098
vt 0.049194336 0.21289062
vt 0.04486084 0.21899414
vt 0.030258179 0.2253418
vt 0.26635742 0.9165039
vt 0.23925781 0.98291016
vt 0.26635742 0.98291016
vt 0.23925781 0.9165039
vt 0.26635742 0.8496094
vt 0.2121582 0.98291016
vt 0.23925781 0.8496094
vt 0.26635742 0.7832031
vt 0.2121582 0.9165039
vt 0.18493652 0.98291016
vt 0.23925781 0.7832031
vt 0.26635742 0.7163086
vt 0.2121582 0.8496094
vt 0.18493652 0.9165039
vt 0.15783691 0.98291016
vt 0.15783691 0.9165039
vt 0.13061523 0.98291016
vt 0.18493652 0.8496094
vt 0.2121582 0.7832031
vt 0.23925781 0.7163086
vt 0.13061523 0.9165039
vt 0.103515625 0.98291016
vt 0.15783691 0.8496094
vt 0.23925781 0.64990234
vt 0.26635742 0.64990234
vt 0.2121582 0.7163086
vt 0.18493652 0.7832031
vt 0.103515625 0.9165039
vt 0.07635498 0.98291016
vt 0.2121582 0.64990234
vt 0.23925781 0.5830078
vt 0.13061523 0.8496094
vt 0.18493652 0.7163086
vt 0.15783691 0.7832031
vt 0.07635498 0.9165039
vt 0.049194336 0.98291016
vt 0.2121582 0.5830078
vt 0.23925781 0.51660156
vt 0.103515625 0.8496094
vt 0.18493652 0.64990234
vt 0.15783691 0.7163086
vt 0.13061523 0.7832031
vt 0.049194336 0.9165039
vt 0.022033691 0.98291016
vt 0.022033691 0.9165039
vt 0.07635498 0.8496094
vt 0.049194336 0.8496094
vt 0.022033691 0.8496094
vt 0.103515625 0.7832031
vt 0.13061523 0.7163086
vt 0.07635498 0.7832031
vt 0.049194336 0.7832031
vt 0.022033691 0.7832031
vt 0.103515625 0.7163086
vt 0.15783691 0.64990234
vt 0.07635498 0.7163086
vt 0.049194336 0.7163086
vt 0.022033691 0.7163086
vt 0.13061523 0.64990234
vt 0.18493652 0.5830078
vt 0.103515625 0.64990234
vt 0.07635498 0.64990234
vt 0.049194336 0.64990234
vt 0.022033691 0.64990234
vt 0.15783691 0.5830078
vt 0.2121582 0.51660156
vt 0.23925781 0.44970703
vt 0.13061523 0.5830078
vt 0.103515625 0.5830078
vt 0.07635498 0.5830078
vt 0.049194336 0.5830078
vt 0.022033691 0.5830078
vt 0.18493652 0.51660156
vt 0.2121582 0.44970703
vt 0.23925781 0.38305664
vt 0.15783691 0.51660156
vt 0.13061523 0.51660156
vt 0.103515625 0.51660156
vt 0.07635498 0.51660156
vt 0.18493652 0.44970703
vt 0.15783691 0.44970703
vt 0.13061523 0.44970703
vt 0.2121582 0.38305664
vt 0.18493652 0.38305664
vt 0.049194336 0.51660156
vt 0.022033691 0.51660156
vt 0.103515625 0.44970703
vt 0.15783691 0.38305664
vt 0.049194336 0.44970703
vt 0.022033691 0.44970703
vt 0.07635498 0.44970703
vt 0.13061523 0.38305664
vt 0.049194336 0.38305664
vt 0.022033691 0.38305664
vt 0.07635498 0.38305664
vt 0.103515625 0.38305664
vt 0.049194336 0.31640625
vt 0.022033691 0.31640625
vt 0.07635498 0.31640625
vt 0.103515625 0.31640625
vt 0.103515625 0.24975586
vt 0.13061523 0.31640625
vt 0.049194336 0.24975586
vt 0.022033691 0.24975586
vt 0.07635498 0.24975586
vt 0.030258179 0.2253418
vt 0.022033691 0.23291016
vt 0.049194336 0.21289062
vt 0.07635498 0.20397949
vt 0.052825928 0.20800781
vt 0.08929443 0.20153809
vt 0.13061523 0.24975586
vt 0.103515625 0.19018555
vt 0.10021973 0.19091797
vt 0.12219238 0.18688965
vt 0.117614746 0.18725586
vt 0.13061523 0.18408203
vt 0.13537598 0.18310547
vt 0.15783691 0.24975586
vt 0.15783691 0.31640625
vt 0.18493652 0.31640625
vt 0.15783691 0.18310547
vt 0.14477539 0.18127441
vt 0.18493652 0.24975586
vt 0.2121582 0.31640625
vt 0.15783691 0.17773438
vt 0.14990234 0.17907715
vt 0.16882324 0.17602539
vt 0.18493652 0.18310547
vt 0.2121582 0.24975586
vt 0.23925781 0.31640625
vt 0.18493652 0.17126465
vt 0.17993164 0.17248535
vt 0.18884277 0.17041016
vt 0.2121582 0.18310547
vt 0.23925781 0.24975586
vt 0.26635742 0.31640625
vt 0.26635742 0.38305664
vt 0.26635742 0.24975586
vt 0.26635742 0.18310547
vt 0.23925781 0.18310547
vt 0.2121582 0.16210938
vt 0.20690918 0.16296387
vt 0.22937012 0.15673828
vt 0.23925781 0.14428711
vt 0.23608398 0.14624023
vt 0.24414062 0.14147949
vt 0.25878906 0.12438965
vt 0.26635742 0.11645508
vt 0.26123047 0.11645508
vn -0 0 -1
vn 5.9604645E-07 0 -1
vn 5.364418E-07 0 -1
vn -0 0 -1
vn -0 0 -1
vn -0 0 -1
vn -0 0 -1
vn -0 0 -1
vn -0 0 -1
vn -0 0 -1
vn -0 0 -1
vn -0 0 -1
vn -0 0 -1
vn -0 0 -1
vn -0 0 -1
vn -0 0 -1
vn -0 0 -1
vn -0 0 -1
vn -0 0 -1
vn -0 0 -1
vn -0 0 -1
vn -0 0 -1
vn -0 0 -1
vn -0 0 -1
vn -0 0 -1
vn -0 0 -1
vn -0 0 -1
vn -0 0 -1
vn -0 0 -1
vn -0 0 -1
vn -0 0 -1
vn -0 0 -1
vn -0 0 -1
vn -0 0 -1
vn -0 0 -1
vn -0 0 -1
vn -0 0 -1
vn -0 0 -1
vn -0 0 -1
vn -0 0 -1
vn -0 0 -1
vn -0 0 -1
vn -0 0 -1
vn -0 0 -1
vn -0 0 -1
vn -0 0 -1
vn -0 0 -1
vn -0 0 -1
vn -0 0 -1
vn -0 0 -1
vn -0 0 -1
vn -0 0 -1
vn -0 0 -1
vn -0 0 -1
vn -0 0 -1
vn -0 0 -1
vn -0 0 -1
vn -0 0 -1
vn -0 0 -1
vn -0 0 -1
vn -0 0 -1
vn -0 0 -1
vn -0 0 -1
vn -0 0 -1
vn -0 0 -1
vn -0 0 -1
vn -0 0 -1
vn -0 0 -1
vn -0 0 -1
vn -0 0 -1
vn -0 0 -1
vn -0 0 -1
vn -0 0 -1
vn -0 0 -1
vn -0 0 -1
vn -0 0 -1
vn -0 0 -1
vn -0 0 -1
vn -0 0 -1
vn -0 0 -1
vn -0 0 -1
vn -0 0 -1
vn -0 0 -1
vn -0 0 -1
vn -0 0 -1
vn -0 0 -1
vn -0 0 -1
vn -0 0 -1
vn -0 0 -1
vn -0 0 -1
vn -0 0 -1
vn -0 0 -1
vn -0 0 -1
vn -0 0 -1
vn -0 0 -1
vn -0 0 -1
vn -0 0 -1
vn -0 0 -1
vn -0 0 -1
vn -0 0 -1
vn -0 0 -1
vn -0 0 -1
vn -0 0 -1
vn -0 0 -1
vn -0 0 -1
vn -0 0 -1
vn -0 0 -1
vn -0 0 -1
vn 5.364418E-07 0 -1
vn 4.7683716E-07 0 -1
vn -0 0 -1
vn 1.1920929E-07 0 -1
vn -0 0 -1
vn 2.3841858E-07 0 -1
vn -0 0 -1
vn 2.9802322E-07 0 -1
vn 2.3841858E-07 0 -1
vn -0 0 -1
vn 3.5762787E-07 0 -1
vn -0 0 -1
vn 1.1920929E-07 0 -1
vn -0 0 -1
vn -0 0 -1
vn -0 0 -1
vn 1.7881393E-07 0 -1
vn -0 0 -1
vn -0 0 -1
vn -0 0 -1
vn 2.4437904E-06 0 -1
vn -0 0 -1
vn 2.1457672E-06 0 -1
vn -0 0 -1
vn -0 0 -1
vn -0 0 -1
vn -5.364418E-07 0 -1
vn -1.9669533E-06 0 -1
vn 1.1920929E-07 0 -1
vn -0 0 -1
vn -0 0 -1
vn -0 0 -1
vn -0 0 -1
vn -0 0 -1
vn -0 0 -1
vn -0 0 -1
vn -0 0 -1
vn 3.5762787E-07 0 -1
vn -0 0 -1
vn 1.7881393E-07 0 -1
vn 2.3841858E-07 0 -1
vn -0 0 -1
vn -0 0 -1
vn -0 0 -1
vn -0 0 -1
g groundTopGlassSideA_AAA_geo_0
f 3/3/3 2/2/2 1/1/1
f 6/6/6 5/5/5 4/4/4
f 5/5/5 7/7/7 4/4/4
f 4/4/4 7/7/7 8/8/8
f 5/5/5 9/9/9 7/7/7
f 7/7/7 10/10/10 8/8/8
f 8/8/8 10/10/10 11/11/11
f 9/9/9 12/12/12 7/7/7
f 7/7/7 12/12/12 10/10/10
f 9/9/9 13/13/13 12/12/12
f 10/10/10 14/14/14 11/11/11
f 11/11/11 14/14/14 15/15/15
f 12/12/12 16/16/16 10/10/10
f 10/10/10 16/16/16 14/14/14
f 13/13/13 17/17/17 12/12/12
f 12/12/12 17/17/17 16/16/16
f 13/13/13 18/18/18 17/17/17
f 18/18/18 19/19/19 17/17/17
f 18/18/18 20/20/20 19/19/19
f 17/17/17 21/21/21 16/16/16
f 17/17/17 19/19/19 21/21/21
f 16/16/16 22/22/22 14/14/14
f 16/16/16 21/21/21 22/22/22
f 14/14/14 23/23/23 15/15/15
f 14/14/14 22/22/22 23/23/23
f 20/20/20 24/24/24 19/19/19
f 20/20/20 25/25/25 24/24/24
f 19/19/19 26/26/26 21/21/21
f 19/19/19 24/24/24 26/26/26
f 23/23/23 27/27/27 15/15/15
f 27/27/27 28/28/28 15/15/15
f 22/22/22 29/29/29 23/23/23
f 23/23/23 29/29/29 27/27/27
f 21/21/21 30/30/30 22/22/22
f 21/21/21 26/26/26 30/30/30
f 22/22/22 30/30/30 29/29/29
f 25/25/25 31/31/31 24/24/24
f 25/25/25 32/32/32 31/31/31
f 29/29/29 33/33/33 27/27/27
f 27/27/27 33/33/33 34/34/34
f 24/24/24 35/35/35 26/26/26
f 24/24/24 31/31/31 35/35/35
f 30/30/30 36/36/36 29/29/29
f 29/29/29 36/36/36 33/33/33
f 26/26/26 37/37/37 30/30/30
f 26/26/26 35/35/35 37/37/37
f 30/30/30 37/37/37 36/36/36
f 32/32/32 38/38/38 31/31/31
f 32/32/32 39/39/39 38/38/38
f 33/33/33 40/40/40 34/34/34
f 34/34/34 40/40/40 41/41/41
f 31/31/31 42/42/42 35/35/35
f 31/31/31 38/38/38 42/42/42
f 36/36/36 43/43/43 33/33/33
f 33/33/33 43/43/43 40/40/40
f 37/37/37 44/44/44 36/36/36
f 36/36/36 44/44/44 43/43/43
f 35/35/35 45/45/45 37/37/37
f 35/35/35 42/42/42 45/45/45
f 37/37/37 45/45/45 44/44/44
f 39/39/39 46/46/46 38/38/38
f 39/39/39 47/47/47 46/46/46
f 47/47/47 48/48/48 46/46/46
f 38/38/38 49/49/49 42/42/42
f 38/38/38 46/46/46 49/49/49
f 46/46/46 48/48/48 50/50/50
f 46/46/46 50/50/50 49/49/49
f 48/48/48 51/51/51 50/50/50
f 42/42/42 52/52/52 45/45/45
f 42/42/42 49/49/49 52/52/52
f 45/45/45 53/53/53 44/44/44
f 45/45/45 52/52/52 53/53/53
f 49/49/49 50/50/50 54/54/54
f 49/49/49 54/54/54 52/52/52
f 50/50/50 51/51/51 55/55/55
f 50/50/50 55/55/55 54/54/54
f 51/51/51 56/56/56 55/55/55
f 52/52/52 54/54/54 57/57/57
f 52/52/52 57/57/57 53/53/53
f 44/44/44 53/53/53 58/58/58
f 44/44/44 58/58/58 43/43/43
f 54/54/54 55/55/55 59/59/59
f 54/54/54 59/59/59 57/57/57
f 55/55/55 56/56/56 60/60/60
f 55/55/55 60/60/60 59/59/59
f 56/56/56 61/61/61 60/60/60
f 53/53/53 57/57/57 62/62/62
f 53/53/53 62/62/62 58/58/58
f 43/43/43 58/58/58 63/63/63
f 43/43/43 63/63/63 40/40/40
f 57/57/57 59/59/59 64/64/64
f 57/57/57 64/64/64 62/62/62
f 59/59/59 60/60/60 65/65/65
f 59/59/59 65/65/65 64/64/64
f 60/60/60 61/61/61 66/66/66
f 60/60/60 66/66/66 65/65/65
f 61/61/61 67/67/67 66/66/66
f 58/58/58 62/62/62 68/68/68
f 58/58/58 68/68/68 63/63/63
f 40/40/40 63/63/63 69/69/69
f 40/40/40 69/69/69 41/41/41
f 41/41/41 69/69/69 70/70/70
f 62/62/62 64/64/64 71/71/71
f 62/62/62 71/71/71 68/68/68
f 64/64/64 65/65/65 72/72/72
f 64/64/64 72/72/72 71/71/71
f 65/65/65 66/66/66 73/73/73
f 65/65/65 73/73/73 72/72/72
f 66/66/66 67/67/67 74/74/74
f 66/66/66 74/74/74 73/73/73
f 67/67/67 75/75/75 74/74/74
f 63/63/63 68/68/68 76/76/76
f 63/63/63 76/76/76 69/69/69
f 69/69/69 77/77/77 70/70/70
f 69/69/69 76/76/76 77/77/77
f 70/70/70 77/77/77 78/78/78
f 68/68/68 71/71/71 79/79/79
f 68/68/68 79/79/79 76/76/76
f 71/71/71 72/72/72 80/80/80
f 71/71/71 80/80/80 79/79/79
f 72/72/72 73/73/73 81/81/81
f 72/72/72 81/81/81 80/80/80
f 73/73/73 74/74/74 82/82/82
f 73/73/73 82/82/82 81/81/81
f 76/76/76 83/83/83 77/77/77
f 76/76/76 79/79/79 83/83/83
f 79/79/79 80/80/80 84/84/84
f 79/79/79 84/84/84 83/83/83
f 80/80/80 81/81/81 85/85/85
f 80/80/80 85/85/85 84/84/84
f 77/77/77 83/83/83 86/86/86
f 77/77/77 86/86/86 78/78/78
f 83/83/83 84/84/84 87/87/87
f 83/83/83 87/87/87 86/86/86
f 74/74/74 88/88/88 82/82/82
f 74/74/74 75/75/75 88/88/88
f 75/75/75 89/89/89 88/88/88
f 81/81/81 82/82/82 90/90/90
f 81/81/81 90/90/90 85/85/85
f 84/84/84 85/85/85 91/91/91
f 84/84/84 91/91/91 87/87/87
f 88/88/88 89/89/89 92/92/92
f 89/89/89 93/93/93 92/92/92
f 82/82/82 88/88/88 94/94/94
f 82/82/82 94/94/94 90/90/90
f 88/88/88 92/92/92 94/94/94
f 85/85/85 90/90/90 95/95/95
f 85/85/85 95/95/95 91/91/91
f 92/92/92 93/93/93 96/96/96
f 93/93/93 97/97/97 96/96/96
f 94/94/94 92/92/92 98/98/98
f 92/92/92 96/96/96 98/98/98
f 90/90/90 94/94/94 99/99/99
f 90/90/90 99/99/99 95/95/95
f 94/94/94 98/98/98 99/99/99
f 96/96/96 97/97/97 100/100/100
f 97/97/97 101/101/101 100/100/100
f 98/98/98 96/96/96 102/102/102
f 96/96/96 100/100/100 102/102/102
f 99/99/99 98/98/98 103/103/103
f 98/98/98 102/102/102 103/103/103
f 103/103/103 102/102/102 104/104/104
f 95/95/95 99/99/99 105/105/105
f 99/99/99 103/103/103 105/105/105
f 100/100/100 101/101/101 106/106/106
f 101/101/101 107/107/107 106/106/106
f 102/102/102 100/100/100 108/108/108
f 102/102/102 108/108/108 104/104/104
f 100/100/100 106/106/106 108/108/108
f 106/106/106 107/107/107 109/109/109
f 107/107/107 110/110/110 109/109/109
f 106/106/106 109/109/109 111/111/111
f 108/108/108 106/106/106 111/111/111
f 108/108/108 111/111/111 112/112/112
f 111/111/111 113/113/113 112/112/112
f 108/108/108 112/112/112 114/114/114
f 104/104/104 108/108/108 114/114/114
f 105/105/105 103/103/103 115/115/115
f 103/103/103 104/104/104 115/115/115
f 104/104/104 114/114/114 116/116/116
f 114/114/114 117/117/117 116/116/116
f 104/104/104 116/116/116 118/118/118
f 116/116/116 119/119/119 118/118/118
f 104/104/104 118/118/118 120/120/120
f 115/115/115 104/104/104 120/120/120
f 115/115/115 120/120/120 121/121/121
f 105/105/105 115/115/115 122/122/122
f 122/122/122 115/115/115 121/121/121
f 123/123/123 105/105/105 122/122/122
f 95/95/95 105/105/105 123/123/123
f 91/91/91 95/95/95 123/123/123
f 91/91/91 123/123/123 124/124/124
f 87/87/87 91/91/91 124/124/124
f 125/125/125 122/122/122 121/121/121
f 125/125/125 121/121/121 126/126/126
f 123/123/123 122/122/122 127/127/127
f 124/124/124 123/123/123 127/127/127
f 87/87/87 124/124/124 128/128/128
f 86/86/86 87/87/87 128/128/128
f 125/125/125 126/126/126 129/129/129
f 126/126/126 130/130/130 129/129/129
f 125/125/125 129/129/129 131/131/131
f 122/122/122 125/125/125 132/132/132
f 132/132/132 125/125/125 131/131/131
f 127/127/127 122/122/122 132/132/132
f 124/124/124 127/127/127 133/133/133
f 128/128/128 124/124/124 133/133/133
f 86/86/86 128/128/128 134/134/134
f 78/78/78 86/86/86 134/134/134
f 132/132/132 131/131/131 135/135/135
f 131/131/131 136/136/136 135/135/135
f 132/132/132 135/135/135 137/137/137
f 127/127/127 132/132/132 138/138/138
f 138/138/138 132/132/132 137/137/137
f 133/133/133 127/127/127 138/138/138
f 128/128/128 133/133/133 139/139/139
f 134/134/134 128/128/128 139/139/139
f 78/78/78 134/134/134 140/140/140
f 141/141/141 78/78/78 140/140/140
f 140/140/140 134/134/134 142/142/142
f 134/134/134 139/139/139 142/142/142
f 142/142/142 139/139/139 143/143/143
f 139/139/139 133/133/133 144/144/144
f 133/133/133 138/138/138 144/144/144
f 139/139/139 144/144/144 143/143/143
f 138/138/138 137/137/137 145/145/145
f 137/137/137 146/146/146 145/145/145
f 138/138/138 145/145/145 147/147/147
f 144/144/144 138/138/138 147/147/147
f 144/144/144 147/147/147 148/148/148
f 147/147/147 149/149/149 148/148/148
f 144/144/144 148/148/148 150/150/150
f 143/143/143 144/144/144 150/150/150
f 143/143/143 150/150/150 151/151/151
f 143/143/143 151/151/151 152/152/152
f 151/151/151 153/153/153 152/152/152
