g groundTopGlassTop_AAQ_geo
v -1.7514199 0.055070188 -4.098689
v -1.7514199 0.055070188 -4.981074
v -1.2211338 0.055070188 -5.0733137
v -0.23462303 0.055070188 -4.098689
v 0.023759631 0.055070188 -4.3702216
v -0.98566145 0.055070188 -5.320911
v 0.23219875 0.055070188 -4.397369
v 0.5814365 0.055070188 -4.7147064
v 1.24858 0.055070188 -5.320911
v 1.24858 0.055070188 -4.098689
v 0.2754974 0.055070188 -4.4030085
v 0.1287759 0.055070188 -4.098689
vt 0.41992188 0.44970703
vt 0.40014648 0.44970703
vt 0.39819336 0.46142578
vt 0.41992188 0.48339844
vt 0.41381836 0.4892578
vt 0.39257812 0.46679688
vt 0.41259766 0.49389648
vt 0.40600586 0.50146484
vt 0.39257812 0.51660156
vt 0.41992188 0.51660156
vt 0.41333008 0.49536133
vt 0.41992188 0.4921875
vn -0 1 0
vn -0 1 0
vn -0 1 0
vn -0 1 0
vn -0 1 0
vn -0 1 0
vn -0 1 0
vn -0 1 0
vn -0 1 0
vn -0 1 0
vn -0 1 0
vn -0 1 0
g groundTopGlassTop_AAQ_geo_0
f 3/3/3 2/2/2 1/1/1
f 4/4/4 3/3/3 1/1/1
f 4/4/4 5/5/5 3/3/3
f 5/5/5 6/6/6 3/3/3
f 5/5/5 7/7/7 6/6/6
f 7/7/7 8/8/8 6/6/6
f 8/8/8 9/9/9 6/6/6
f 8/8/8 10/10/10 9/9/9
f 8/8/8 11/11/11 10/10/10
f 11/11/11 12/12/12 10/10/10
