g groundTopGlassTop_AAA_geo
v 1.24858 0.055070188 -7.7653556
v 1.24858 0.055070188 -8.188396
v 1.8549688 0.055070188 -8.0823345
v 2.3924942 0.055070188 -7.7653556
v 2.563588 0.055070188 -8.987578
v 2.3924942 0.055070188 -7.7653556
v 1.8925619 0.055070188 -8.083909
v 4.24858 0.055070188 -7.7653556
v 4.24858 0.055070188 -8.987578
vt 0.3383789 0.51660156
vt 0.32885742 0.51660156
vt 0.33129883 0.52978516
vt 0.3383789 0.5419922
vt 0.3112793 0.54541016
vt 0.3383789 0.5419922
vt 0.33129883 0.53222656
vt 0.3383789 0.5830078
vt 0.3112793 0.5830078
vn -0 1 0
vn -0 1 0
vn -0 1 0
vn -0 1 0
vn -0 1 0
vn -0 1 0
vn -0 1 0
vn -0 1 0
vn -0 1 0
g groundTopGlassTop_AAA_geo_0
f 3/3/3 2/2/2 1/1/1
f 4/4/4 3/3/3 1/1/1
f 7/7/7 6/6/6 5/5/5
f 6/6/6 8/8/8 5/5/5
f 8/8/8 9/9/9 5/5/5
