g groundTopGlassTop_AAJ_geo
v -7.75142 0.055070188 -4.0986896
v -4.75142 0.055070188 -4.6743474
v -4.7514205 0.055070188 -4.0986896
v -5.295792 0.055070188 -5.037612
v -6.615983 0.055070188 -5.320911
v -7.75142 0.055070188 -5.320911
vt 0.41992188 0.31640625
vt 0.40698242 0.38305664
vt 0.41992188 0.38305664
vt 0.39892578 0.37109375
vt 0.39257812 0.34155273
vt 0.39257812 0.31640625
vn -0 1 0
vn -0 1 0
vn -0 1 0
vn -0 1 0
vn -0 1 0
vn -0 1 0
g groundTopGlassTop_AAJ_geo_0
f 3/3/3 2/2/2 1/1/1
f 2/2/2 4/4/4 1/1/1
f 4/4/4 5/5/5 1/1/1
f 5/5/5 6/6/6 1/1/1
