g groundTopGlassTop_AAO_geo
v -3.3578863 0.055070188 -4.098689
v -1.7514199 0.055070188 -4.098689
v -3.7149985 0.055070188 -3.5737152
v -3.7774413 0.055070188 -3.269121
v -1.7514199 0.055070188 -2.876467
v -4.095883 0.055070188 -3.0478625
v -4.493373 0.055070188 -2.876467
vt 0.41992188 0.4140625
vt 0.41992188 0.44970703
vt 0.43139648 0.40600586
vt 0.43823242 0.40478516
vt 0.44702148 0.44970703
vt 0.44311523 0.39770508
vt 0.44702148 0.38891602
vn -0 1 0
vn -0 1 0
vn -0 1 0
vn -0 1 0
vn -0 1 0
vn -0 1 0
vn -0 1 0
g groundTopGlassTop_AAO_geo_0
f 3/3/3 2/2/2 1/1/1
f 3/3/3 4/4/4 2/2/2
f 4/4/4 5/5/5 2/2/2
f 4/4/4 6/6/6 5/5/5
f 6/6/6 7/7/7 5/5/5
