g groundTopGlassTop_AAN_geo
v -1.4999998 -5.960191E-10 0.5290962
v -0.09838729 -5.960191E-10 0.0941597
v -0.43752915 -5.960191E-10 0.24251175
v -1.4999998 -5.960191E-10 -0.611111
v 0.2771028 -5.960191E-10 0.0029200744
v 1.2778407 -5.960191E-10 -0.611111
v -1.5000005 -5.960191E-10 0.6111107
v 0.14090592 -5.960191E-10 0.08648788
v 0.6396434 -5.960191E-10 0.34985885
v 1.5000001 -5.960191E-10 0.6111113
v 0.20045029 -5.960191E-10 0.055924833
v 1.5000001 -5.960191E-10 -0.611111
vt 0.41796875 0.38305664
vt 0.40722656 0.41430664
vt 0.41064453 0.40673828
vt 0.39257812 0.38305664
vt 0.40527344 0.42260742
vt 0.39257812 0.44482422
vt 0.41992188 0.38305664
vt 0.40820312 0.4194336
vt 0.4140625 0.43066406
vt 0.41992188 0.44970703
vt 0.4074707 0.42089844
vt 0.39257812 0.44970703
vn -0 1 0
vn -0 1 0
vn -0 1 0
vn -0 1 0
vn -0 1 0
vn -0 1 0
vn -0 1 0
vn -0 1 0
vn -0 1 0
vn -0 1 0
vn -0 1 0
vn -0 1 0
g groundTopGlassTop_AAN_geo_0
f 3/3/3 2/2/2 1/1/1
f 2/2/2 4/4/4 1/1/1
f 2/2/2 5/5/5 4/4/4
f 5/5/5 6/6/6 4/4/4
f 9/9/9 8/8/8 7/7/7
f 10/10/10 9/9/9 7/7/7
f 9/9/9 10/10/10 11/11/11
f 10/10/10 12/12/12 11/11/11
