g groundTopGlassTop_AAV_geo
v 10.24858 0.055070188 -5.718253
v 12.567778 0.055070188 -5.320911
v 11.787623 0.055070188 -5.320911
v 13.018077 0.055070188 -5.6723113
v 13.24858 0.055070188 -6.5431333
v 10.24858 0.055070188 -6.5431333
vt 0.38378906 0.7163086
vt 0.39257812 0.7680664
vt 0.39257812 0.7504883
vt 0.38476562 0.77783203
vt 0.36547852 0.7832031
vt 0.36547852 0.7163086
vn -0 1 0
vn -0 1 0
vn -0 1 0
vn -0 1 0
vn -0 1 0
vn -0 1 0
g groundTopGlassTop_AAV_geo_0
f 3/3/3 2/2/2 1/1/1
f 2/2/2 4/4/4 1/1/1
f 4/4/4 5/5/5 1/1/1
f 5/5/5 6/6/6 1/1/1
