g groundTopGlassTop_AAP_geo
v -1.7514199 0.055070188 -2.5105023
v -0.14679353 0.055070188 -1.6542447
v -1.7514201 0.055070188 -1.6542447
v -1.1763257 0.055070188 -2.876467
v 0.43198836 0.055070188 -1.6542447
v 0.63332224 0.055070188 -2.1093054
v 1.24858 0.055070188 -2.6316376
v 1.24858 0.055070188 -2.876467
vt 0.45507812 0.44970703
vt 0.4741211 0.48535156
vt 0.4741211 0.44970703
vt 0.44702148 0.46264648
vt 0.4741211 0.49829102
vt 0.46411133 0.5029297
vt 0.45239258 0.51660156
vt 0.44702148 0.51660156
vn -0 1 0
vn -0 1 0
vn -0 1 0
vn -0 1 0
vn -0 1 0
vn -0 1 0
vn -0 1 0
vn -0 1 0
g groundTopGlassTop_AAP_geo_0
f 3/3/3 2/2/2 1/1/1
f 2/2/2 4/4/4 1/1/1
f 2/2/2 5/5/5 4/4/4
f 5/5/5 6/6/6 4/4/4
f 6/6/6 7/7/7 4/4/4
f 7/7/7 8/8/8 4/4/4
