g groundTopGlassTop_AAI_geo
v -1.7514199 -7.6293944E-08 -5.7817273
v -1.7514199 -7.6293944E-08 -6.5431333
v -0.02168907 -7.6293944E-08 -6.5431333
v -1.391456 -7.6293944E-08 -5.320911
v 1.24858 -7.6293944E-08 -5.320911
v 1.24858 -7.6293944E-08 -5.781708
v 0.9969289 -7.6293944E-08 -6.2522473
vt 0.38232422 0.44970703
vt 0.36547852 0.44970703
vt 0.36547852 0.48828125
vt 0.39257812 0.45776367
vt 0.39257812 0.51660156
vt 0.38232422 0.51660156
vt 0.3720703 0.5107422
vn -0 1 0
vn -0 1 0
vn -0 1 0
vn -0 1 0
vn -0 1 0
vn -0 1 0
vn -0 1 0
g groundTopGlassTop_AAI_geo_0
f 3/3/3 2/2/2 1/1/1
f 4/4/4 3/3/3 1/1/1
f 4/4/4 5/5/5 3/3/3
f 5/5/5 6/6/6 3/3/3
f 6/6/6 7/7/7 3/3/3
