g in_mesh_glass02
v 0.027404394 0.02552731 -0.11778662
v -0.012579956 -0.25047132 -0.11778662
v -0.020588368 -0.25047132 -0.07752578
v 0.016352376 0.02552731 -0.062224425
v 0.016599875 0.059995934 -0.11778662
v -0.043394286 -0.25047132 -0.04339428
v 0.006370325 0.059995934 -0.066359125
v 0.0013725758 0.09446457 -0.11778662
v -0.015121087 0.02552731 -0.015121069
v -0.077525795 -0.25047132 -0.020588359
v -0.00769783 0.09446457 -0.07218635
v -0.02334588 0.12893319 -0.11778662
v -0.02276103 0.059995934 -0.02276102
v -0.062224448 0.02552731 0.016352385
v -0.117786646 -0.25047132 -0.012579946
v -0.117786646 0.02552731 0.027404394
v -0.06635915 0.059995934 0.0063703535
v -0.117786646 0.059995934 0.016599875
v -0.030534696 0.12893319 -0.0816457
v -0.06264522 0.16340183 -0.11778662
v -0.033528354 0.09446457 -0.033528335
v -0.072186366 0.09446457 -0.0076978207
v -0.117786646 0.09446457 0.0013725758
v -0.06684253 0.16340183 -0.096684895
v -0.06264522 0.1882223 -0.11778662
v -0.05100694 0.12893319 -0.051006936
v -0.0816457 0.12893319 -0.030534677
v -0.11778663 0.12893319 -0.02334588
v -0.06684253 0.1882223 -0.096684895
v -0.049608953 0.19858472 -0.11778662
v -0.07879577 0.16340183 -0.07879576
v -0.096684895 0.16340183 -0.06684252
v -0.11778663 0.16340183 -0.06264522
v -0.054798562 0.19858472 -0.09169612
v -0.04275509 0.20894718 -0.11778662
v -0.07879577 0.1882223 -0.07879576
v -0.096684895 0.1882223 -0.06684252
v -0.11778663 0.1882223 -0.06264522
v -0.048466396 0.20894718 -0.089073256
v -0.05037278 0.21619302 -0.11778662
v -0.06957774 0.19858472 -0.06957773
v -0.09169613 0.19858472 -0.054798543
v -0.11778663 0.19858472 -0.049608953
v -0.055504255 0.21619302 -0.09198843
v -0.06264522 0.22343889 -0.11778662
v -0.06473132 0.20894718 -0.064731315
v -0.089073256 0.20894718 -0.04846638
v -0.11778663 0.20894718 -0.04275509
v -0.06684253 0.22343889 -0.096684895
v -0.065527305 0.22426516 -0.11778662
v -0.070117846 0.21619302 -0.07011784
v -0.09198843 0.21619302 -0.055504236
v -0.11778663 0.21619302 -0.05037278
v -0.06950523 0.22426516 -0.09778782
v -0.065527305 0.15722664 -0.11778662
v -0.06950523 0.15722664 -0.09778782
v -0.07879577 0.22343889 -0.07879576
v -0.096684895 0.22343889 -0.06684252
v -0.11778663 0.22343889 -0.06264522
v -0.08083372 0.22426516 -0.08083371
v -0.08083372 0.15722664 -0.08083371
v -0.09778783 0.22426516 -0.06950522
v -0.11778663 0.22426516 -0.065527305
v -0.09778783 0.15722664 -0.06950522
v -0.11778663 0.15722664 -0.065527305
v -0.06950523 0.15722664 -0.09778782
v -0.037633438 0.1314989 -0.11778662
v -0.065527305 0.15722664 -0.11778662
v -0.043734577 0.1314989 -0.08711328
v -0.08083372 0.15722664 -0.08083371
v -0.020194424 0.096286155 -0.07736264
v -0.012153806 0.096286155 -0.11778662
v -0.061109774 0.1314989 -0.06110977
v -0.09778783 0.15722664 -0.06950522
v -0.04309297 0.096286155 -0.043092966
v -0.005025396 0.06139715 -0.071079426
v 0.0042650127 0.06139715 -0.11778662
v -0.08711328 0.1314989 -0.043734565
v -0.11778663 0.15722664 -0.065527305
v -0.11778663 0.1314989 -0.037633438
v -0.117786646 0.096286155 -0.012153806
v -0.07736264 0.096286155 -0.020194406
v -0.117786646 0.06139715 0.0042650127
v -0.07107942 0.06139715 -0.005025377
v -0.117786646 0.02189552 0.016179143
v -0.031483136 0.06139715 -0.031483114
v 0.005981836 0.02189552 -0.06652008
v 0.016179143 0.02189552 -0.11778662
v -0.027001198 -0.29633036 -0.11778662
v -0.033911686 -0.29633036 -0.08304453
v -0.023058595 0.02189552 -0.023058586
v -0.05359165 -0.29633036 -0.05359163
v -0.06652007 0.02189552 0.005981836
v -0.08304453 -0.29633036 -0.033911675
v -0.11778663 -0.29633036 -0.027001198
v -0.033911686 -0.29633036 -0.08304453
v -0.117786616 -0.2963304 -0.11778662
v -0.027001198 -0.29633036 -0.11778662
v -0.05359165 -0.29633036 -0.05359163
v -0.08304453 -0.29633036 -0.033911675
v -0.11778663 -0.29633036 -0.027001198
vt 0.14550781 0.6879883
vt 0.14550781 0.5488281
vt 0.117126465 0.5488281
vt 0.117126465 0.6879883
vt 0.14550781 0.7060547
vt 0.08880615 0.5488281
vt 0.117126465 0.7060547
vt 0.14550781 0.72509766
vt 0.08880615 0.6879883
vt 0.060516357 0.5488281
vt 0.117126465 0.72509766
vt 0.14550781 0.74609375
vt 0.08880615 0.7060547
vt 0.060516357 0.6879883
vt 0.032196045 0.5488281
vt 0.032196045 0.6879883
vt 0.060516357 0.7060547
vt 0.032196045 0.7060547
vt 0.117126465 0.74609375
vt 0.14550781 0.77197266
vt 0.08880615 0.72509766
vt 0.060516357 0.72509766
vt 0.032196045 0.72509766
vt 0.117126465 0.77197266
vt 0.14550781 0.78466797
vt 0.08880615 0.74609375
vt 0.060516357 0.74609375
vt 0.032196045 0.74609375
vt 0.117126465 0.78466797
vt 0.14550781 0.79296875
vt 0.08880615 0.77197266
vt 0.060516357 0.77197266
vt 0.032196045 0.77197266
vt 0.117126465 0.79296875
vt 0.14550781 0.7993164
vt 0.08880615 0.78466797
vt 0.060516357 0.78466797
vt 0.032196045 0.78466797
vt 0.117126465 0.7993164
vt 0.14550781 0.8041992
vt 0.08880615 0.79296875
vt 0.060516357 0.79296875
vt 0.032196045 0.79296875
vt 0.117126465 0.8041992
vt 0.14550781 0.81152344
vt 0.08880615 0.7993164
vt 0.060516357 0.7993164
vt 0.032196045 0.7993164
vt 0.117126465 0.81152344
vt 0.14550781 0.8129883
vt 0.08880615 0.8041992
vt 0.060516357 0.8041992
vt 0.032196045 0.8041992
vt 0.117126465 0.8129883
vt 0.14550781 0.90625
vt 0.117126465 0.90625
vt 0.08880615 0.81152344
vt 0.060516357 0.81152344
vt 0.032196045 0.81152344
vt 0.08880615 0.8129883
vt 0.08880615 0.90625
vt 0.060516357 0.8129883
vt 0.032196045 0.8129883
vt 0.060516357 0.90625
vt 0.032196045 0.90625
vt 0.85498047 0.7949219
vt 0.8286133 0.7758789
vt 0.8286133 0.7949219
vt 0.85498047 0.7758789
vt 0.88183594 0.7949219
vt 0.85498047 0.75341797
vt 0.8286133 0.75341797
vt 0.88183594 0.7758789
vt 0.9082031 0.7949219
vt 0.88183594 0.75341797
vt 0.85498047 0.7338867
vt 0.8286133 0.7338867
vt 0.9082031 0.7758789
vt 0.9345703 0.7949219
vt 0.9345703 0.7758789
vt 0.9345703 0.75341797
vt 0.9082031 0.75341797
vt 0.9345703 0.7338867
vt 0.9082031 0.7338867
vt 0.9345703 0.7128906
vt 0.88183594 0.7338867
vt 0.85498047 0.7128906
vt 0.8286133 0.7128906
vt 0.8286133 0.5498047
vt 0.85498047 0.5498047
vt 0.88183594 0.7128906
vt 0.88183594 0.5498047
vt 0.9082031 0.7128906
vt 0.9082031 0.5498047
vt 0.9345703 0.5498047
vt 0.5913086 0.265625
vt 0.6303711 0.2265625
vt 0.57958984 0.24768066
vt 0.609375 0.2775879
vt 0.6303711 0.28173828
vt 0.65185547 0.2775879
vn 0.99609375 -0.089416504 2.3841858E-07
vn 0.9897461 -0.14343262 2.3841858E-07
vn 0.9145508 -0.14343262 0.3786621
vn 0.92041016 -0.089416504 0.38110352
vn 0.9375 0.34838867 1.7881393E-07
vn 0.69970703 -0.14343262 0.69970703
vn 0.86621094 0.34838867 0.35864258
vn 0.8725586 0.4880371 1.7881393E-07
vn 0.70410156 -0.089416504 0.70410156
vn 0.3786621 -0.14343262 0.9145508
vn 0.80615234 0.4880371 0.33398438
vn 0.7529297 0.6582031 1.7881393E-07
vn 0.66259766 0.34838867 0.66259766
vn 0.38110352 -0.089416504 0.92041016
vn -0 -0.14343262 0.9897461
vn -0 -0.089416504 0.99609375
vn 0.35864258 0.34838867 0.86621094
vn -2.9802322E-07 0.34838867 0.9375
vn 0.6953125 0.6582031 0.28808594
vn 0.79345703 0.6088867 2.9802322E-07
vn 0.6171875 0.4880371 0.6171875
vn 0.33398438 0.4880371 0.80615234
vn -2.3841858E-07 0.4880371 0.8725586
vn 0.73291016 0.6088867 0.3034668
vn 0.9199219 -0.39208984 1.7881393E-07
vn 0.53222656 0.6582031 0.53222656
vn 0.28808594 0.6582031 0.6953125
vn -0 0.6582031 0.7529297
vn 0.85009766 -0.39208984 0.35205078
vn 0.73876953 -0.6743164 1.1920929E-07
vn 0.56103516 0.6088867 0.56103516
vn 0.3034668 0.6088867 0.73291016
vn -1.7881393E-07 0.6088867 0.79345703
vn 0.6826172 -0.6743164 0.28271484
vn 0.9995117 0.031433105 5.9604645E-07
vn 0.6503906 -0.39208984 0.6503906
vn 0.35205078 -0.39208984 0.85009766
vn -2.9802322E-07 -0.39208984 0.9199219
vn 0.92333984 0.031433105 0.38256836
vn 0.60498047 0.7963867 2.9802322E-07
vn 0.52246094 -0.6743164 0.52246094
vn 0.28271484 -0.6743164 0.6826172
vn -3.5762787E-07 -0.6743164 0.73876953
vn 0.55859375 0.7963867 0.23144531
vn 0.48046875 0.8769531 0
vn 0.70654297 0.031433105 0.70654297
vn 0.38256836 0.031433105 0.92333984
vn -2.9802322E-07 0.031433105 0.9995117
vn 0.44384766 0.8769531 0.18383789
vn -0.99853516 0.05014038 -5.364418E-07
vn 0.42773438 0.7963867 0.42773438
vn 0.23144531 0.7963867 0.55859375
vn -1.1920929E-07 0.7963867 0.60498047
vn -0.92285156 0.05014038 -0.38232422
vn -0.93603516 -0.35180664 -4.7683716E-07
vn -0.8647461 -0.35180664 -0.3581543
vn 0.3395996 0.8769531 0.3395996
vn 0.18383789 0.8769531 0.44384766
vn -1.7881393E-07 0.8769531 0.48046875
vn -0.7060547 0.05014038 -0.7060547
vn -0.6621094 -0.35180664 -0.6621094
vn -0.38232422 0.05014038 -0.92285156
vn 2.9802322E-07 0.05014038 -0.99853516
vn -0.3581543 -0.35180664 -0.8647461
vn 3.5762787E-07 -0.35180664 -0.93603516
vn -0.8647461 -0.35180664 -0.3581543
vn -0.7680664 -0.640625 -5.364418E-07
vn -0.93603516 -0.35180664 -4.7683716E-07
vn -0.70947266 -0.640625 -0.2939453
vn -0.6621094 -0.35180664 -0.6621094
vn -0.80029297 -0.49975586 -0.33154297
vn -0.86621094 -0.49975586 -5.9604645E-07
vn -0.54296875 -0.640625 -0.54296875
vn -0.3581543 -0.35180664 -0.8647461
vn -0.6123047 -0.49975586 -0.6123047
vn -0.86572266 -0.34887695 -0.35864258
vn -0.9370117 -0.34887695 -5.364418E-07
vn -0.2939453 -0.640625 -0.70947266
vn 3.5762787E-07 -0.35180664 -0.93603516
vn 2.3841858E-07 -0.640625 -0.7680664
vn 2.3841858E-07 -0.49975586 -0.86621094
vn -0.33154297 -0.49975586 -0.80029297
vn 2.9802322E-07 -0.34887695 -0.9370117
vn -0.35864258 -0.34887695 -0.86572266
vn 4.172325E-07 0.08215332 -0.99658203
vn -0.66259766 -0.34887695 -0.66259766
vn -0.92089844 0.08215332 -0.38134766
vn -0.99658203 0.08215332 -2.9802322E-07
vn -0.9736328 0.2286377 -2.3841858E-07
vn -0.89941406 0.2286377 -0.3725586
vn -0.70458984 0.08215332 -0.70458984
vn -0.68847656 0.2286377 -0.68847656
vn -0.38134766 0.08215332 -0.92089844
vn -0.3725586 0.2286377 -0.89941406
vn 3.5762787E-07 0.2286377 -0.9736328
vn -0.89941406 0.2286377 -0.3725586
vn -0 1 0
vn -0.9736328 0.2286377 -2.3841858E-07
vn -0.68847656 0.2286377 -0.68847656
vn -0.3725586 0.2286377 -0.89941406
vn 3.5762787E-07 0.2286377 -0.9736328
g in_mesh_glass02_0
f 3/3/3 2/2/2 1/1/1
f 4/4/4 3/3/3 1/1/1
f 1/1/1 5/5/5 4/4/4
f 6/6/6 3/3/3 4/4/4
f 5/5/5 7/7/7 4/4/4
f 5/5/5 8/8/8 7/7/7
f 9/9/9 6/6/6 4/4/4
f 4/4/4 7/7/7 9/9/9
f 10/10/10 6/6/6 9/9/9
f 8/8/8 11/11/11 7/7/7
f 8/8/8 12/12/12 11/11/11
f 7/7/7 13/13/13 9/9/9
f 7/7/7 11/11/11 13/13/13
f 14/14/14 10/10/10 9/9/9
f 9/9/9 13/13/13 14/14/14
f 15/15/15 10/10/10 14/14/14
f 16/16/16 15/15/15 14/14/14
f 14/14/14 17/17/17 16/16/16
f 13/13/13 17/17/17 14/14/14
f 17/17/17 18/18/18 16/16/16
f 12/12/12 19/19/19 11/11/11
f 12/12/12 20/20/20 19/19/19
f 11/11/11 21/21/21 13/13/13
f 13/13/13 21/21/21 17/17/17
f 11/11/11 19/19/19 21/21/21
f 17/17/17 22/22/22 18/18/18
f 21/21/21 22/22/22 17/17/17
f 22/22/22 23/23/23 18/18/18
f 20/20/20 24/24/24 19/19/19
f 20/20/20 25/25/25 24/24/24
f 19/19/19 26/26/26 21/21/21
f 21/21/21 26/26/26 22/22/22
f 19/19/19 24/24/24 26/26/26
f 22/22/22 27/27/27 23/23/23
f 26/26/26 27/27/27 22/22/22
f 27/27/27 28/28/28 23/23/23
f 25/25/25 29/29/29 24/24/24
f 25/25/25 30/30/30 29/29/29
f 24/24/24 31/31/31 26/26/26
f 26/26/26 31/31/31 27/27/27
f 24/24/24 29/29/29 31/31/31
f 27/27/27 32/32/32 28/28/28
f 31/31/31 32/32/32 27/27/27
f 32/32/32 33/33/33 28/28/28
f 30/30/30 34/34/34 29/29/29
f 30/30/30 35/35/35 34/34/34
f 29/29/29 36/36/36 31/31/31
f 31/31/31 36/36/36 32/32/32
f 29/29/29 34/34/34 36/36/36
f 32/32/32 37/37/37 33/33/33
f 36/36/36 37/37/37 32/32/32
f 37/37/37 38/38/38 33/33/33
f 35/35/35 39/39/39 34/34/34
f 35/35/35 40/40/40 39/39/39
f 34/34/34 41/41/41 36/36/36
f 36/36/36 41/41/41 37/37/37
f 34/34/34 39/39/39 41/41/41
f 37/37/37 42/42/42 38/38/38
f 41/41/41 42/42/42 37/37/37
f 42/42/42 43/43/43 38/38/38
f 40/40/40 44/44/44 39/39/39
f 40/40/40 45/45/45 44/44/44
f 39/39/39 46/46/46 41/41/41
f 41/41/41 46/46/46 42/42/42
f 39/39/39 44/44/44 46/46/46
f 42/42/42 47/47/47 43/43/43
f 46/46/46 47/47/47 42/42/42
f 47/47/47 48/48/48 43/43/43
f 45/45/45 49/49/49 44/44/44
f 45/45/45 50/50/50 49/49/49
f 44/44/44 51/51/51 46/46/46
f 46/46/46 51/51/51 47/47/47
f 44/44/44 49/49/49 51/51/51
f 47/47/47 52/52/52 48/48/48
f 51/51/51 52/52/52 47/47/47
f 52/52/52 53/53/53 48/48/48
f 50/50/50 54/54/54 49/49/49
f 50/50/50 55/55/55 54/54/54
f 55/55/55 56/56/56 54/54/54
f 49/49/49 57/57/57 51/51/51
f 51/51/51 57/57/57 52/52/52
f 49/49/49 54/54/54 57/57/57
f 52/52/52 58/58/58 53/53/53
f 57/57/57 58/58/58 52/52/52
f 58/58/58 59/59/59 53/53/53
f 54/54/54 56/56/56 60/60/60
f 54/54/54 60/60/60 57/57/57
f 57/57/57 60/60/60 58/58/58
f 56/56/56 61/61/61 60/60/60
f 58/58/58 62/62/62 59/59/59
f 60/60/60 62/62/62 58/58/58
f 60/60/60 61/61/61 62/62/62
f 62/62/62 63/63/63 59/59/59
f 61/61/61 64/64/64 62/62/62
f 62/62/62 64/64/64 63/63/63
f 64/64/64 65/65/65 63/63/63
f 68/68/68 67/67/67 66/66/66
f 67/67/67 69/69/69 66/66/66
f 66/66/66 69/69/69 70/70/70
f 71/71/71 69/69/69 67/67/67
f 72/72/72 71/71/71 67/67/67
f 69/69/69 73/73/73 70/70/70
f 70/70/70 73/73/73 74/74/74
f 71/71/71 75/75/75 69/69/69
f 75/75/75 73/73/73 69/69/69
f 76/76/76 71/71/71 72/72/72
f 77/77/77 76/76/76 72/72/72
f 73/73/73 78/78/78 74/74/74
f 74/74/74 78/78/78 79/79/79
f 78/78/78 80/80/80 79/79/79
f 81/81/81 80/80/80 78/78/78
f 82/82/82 78/78/78 73/73/73
f 82/82/82 81/81/81 78/78/78
f 75/75/75 82/82/82 73/73/73
f 83/83/83 81/81/81 82/82/82
f 84/84/84 83/83/83 82/82/82
f 84/84/84 82/82/82 75/75/75
f 85/85/85 83/83/83 84/84/84
f 86/86/86 75/75/75 71/71/71
f 86/86/86 84/84/84 75/75/75
f 76/76/76 86/86/86 71/71/71
f 87/87/87 76/76/76 77/77/77
f 88/88/88 87/87/87 77/77/77
f 88/88/88 89/89/89 87/87/87
f 89/89/89 90/90/90 87/87/87
f 87/87/87 91/91/91 76/76/76
f 87/87/87 90/90/90 91/91/91
f 91/91/91 86/86/86 76/76/76
f 90/90/90 92/92/92 91/91/91
f 93/93/93 84/84/84 86/86/86
f 91/91/91 93/93/93 86/86/86
f 91/91/91 92/92/92 93/93/93
f 93/93/93 85/85/85 84/84/84
f 92/92/92 94/94/94 93/93/93
f 93/93/93 94/94/94 85/85/85
f 94/94/94 95/95/95 85/85/85
g in_mesh_glass02_1
f 98/98/98 97/97/97 96/96/96
f 96/96/96 97/97/97 99/99/99
f 99/99/99 97/97/97 100/100/100
f 100/100/100 97/97/97 101/101/101
