g inner_geo
v -0.26147193 0.15718229 -0.007438219
v -0.3869043 0.15331426 0.013125651
v -0.2614859 0.15717481 0.01312535
v -0.3869042 0.15331426 -0.007437933
v -0.32880497 -0.32067603 0.013125345
v -0.328805 -0.320676 -0.0074382382
v -0.0065344954 -0.32069102 0.013125317
v -0.0065337378 -0.320676 -0.0074382382
v 0.356158 -0.32068354 0.013125331
v -0.16907264 0.27076244 -0.0065832883
v -0.16904633 0.27075455 0.013980181
v 3.352761E-10 0.32000044 -0.007438219
v -2.0077452E-07 0.32000044 0.013125164
v 0.16693588 0.2734721 -0.0065832883
v 0.16690856 0.27346498 0.013980181
v 0.26425353 0.15718229 -0.007438219
v 0.26426685 0.15717478 0.01312535
v 0.3561447 -0.320676 -0.0074382382
v 0.41341913 0.14011648 0.013125651
v 0.4134192 0.14011648 -0.007437933
vt 0.17883301 0.73291016
vt 0.020050049 0.74072266
vt 0.1665039 0.74902344
vt 0.032440186 0.72802734
vt 0.088256836 0.11065674
vt 0.10028076 0.12536621
vt 0.4765625 0.103027344
vt 0.4765625 0.12536621
vt 0.9121094 0.11065674
vt 0.2866211 0.8774414
vt 0.27124023 0.8935547
vt 0.48413086 0.9399414
vt 0.48388672 0.9584961
vt 0.6791992 0.8808594
vt 0.69433594 0.89746094
vt 0.79248047 0.73291016
vt 0.80615234 0.7495117
vt 0.89990234 0.12536621
vt 0.97998047 0.7241211
vt 0.9667969 0.7114258
vn 0.009651184 -0.02168274 0.9995117
vn 0.9902344 -0.13952637 -4.261732E-05
vn 0.47509766 -0.8798828 -0.00036239624
vn 0.32958984 -0.046447754 0.9428711
vn 0.77978516 0.62597656 0.00019478798
vn 0.087646484 0.07080078 0.99365234
vn 5.4836273E-06 1 0.00046253204
vn -5.543232E-06 0.064208984 0.9980469
vn -0.7392578 0.67333984 0.00057411194
vn 0.028457642 -0.04425049 0.99853516
vn 0.5283203 -0.8491211 -0.00043058395
vn 0.00056266785 -0.07751465 0.9970703
vn 0.008056641 -1 -0.00036931038
vn -0.02658081 -0.041870117 0.99853516
vn -0.52441406 -0.8515625 -0.00043225288
vn -0.010009766 -0.021987915 0.9995117
vn -0.47631836 -0.87939453 -0.00034236908
vn -0.07873535 0.072265625 0.9941406
vn -0.9819336 -0.18884277 0.00028181076
vn -0.27246094 -0.05239868 0.9609375
g inner_geo_0
f 3/3/3 2/2/2 1/1/1
f 2/2/2 4/4/4 1/1/1
f 2/2/2 5/5/5 4/4/4
f 5/5/5 6/6/6 4/4/4
f 1/1/1 4/4/4 6/6/6
f 5/5/5 7/7/7 6/6/6
f 7/7/7 8/8/8 6/6/6
f 7/7/7 9/9/9 8/8/8
f 3/3/3 1/1/1 10/10/10
f 10/10/10 1/1/1 6/6/6
f 8/8/8 10/10/10 6/6/6
f 11/11/11 3/3/3 10/10/10
f 11/11/11 10/10/10 12/12/12
f 12/12/12 10/10/10 8/8/8
f 13/13/13 11/11/11 12/12/12
f 13/13/13 12/12/12 14/14/14
f 14/14/14 12/12/12 8/8/8
f 15/15/15 13/13/13 14/14/14
f 15/15/15 14/14/14 16/16/16
f 16/16/16 14/14/14 8/8/8
f 17/17/17 15/15/15 16/16/16
f 9/9/9 18/18/18 8/8/8
f 18/18/18 16/16/16 8/8/8
f 9/9/9 19/19/19 18/18/18
f 17/17/17 16/16/16 20/20/20
f 20/20/20 16/16/16 18/18/18
f 19/19/19 20/20/20 18/18/18
f 19/19/19 17/17/17 20/20/20
