g inner_geo
v 0.3561447 -0.320676 -0.0074382382
v 0.4134192 0.14011648 -0.007437933
v 0.4134191 0.14011648 0.033689234
v 0.26428017 0.15716726 0.033688918
v 0.35617128 -0.3206911 0.0336889
v -0.0065337378 -0.320676 -0.0074382382
v -0.0065353094 -0.32070607 0.03368887
v 0.2642536 0.15718229 -0.007438219
v 0.16688123 0.27345785 0.03454365
v 0.16693592 0.2734721 -0.0065832883
v -4.874915E-07 0.32000044 0.033688545
v 1.11758706E-10 0.32000044 -0.007438219
v -0.16901998 0.27074668 0.03454365
v -0.16907264 0.27076244 -0.0065832883
v -0.2615 0.15716733 0.033688918
v -0.328805 -0.320676 -0.0074382382
v -0.3288049 -0.32067603 0.03368893
v -0.26147187 0.15718229 -0.007438219
v -0.38690424 0.15331426 0.033689234
v -0.3869043 0.15331426 -0.007437933
vt 0.89990234 0.12536621
vt 0.9667969 0.7114258
vt 0.99365234 0.7368164
vt 0.81933594 0.7661133
vt 0.9238281 0.095947266
vt 0.4765625 0.12536621
vt 0.4765625 0.08074951
vt 0.79248047 0.73291016
vt 0.70947266 0.9135742
vt 0.6791992 0.8808594
vt 0.48388672 0.9770508
vt 0.48413086 0.9399414
vt 0.25585938 0.90966797
vt 0.2866211 0.8774414
vt 0.15429688 0.7651367
vt 0.10028076 0.12536621
vt 0.07623291 0.0960083
vt 0.17883301 0.73291016
vt 0.0076828003 0.75341797
vt 0.032440186 0.72802734
vn -0.15625 0.14294434 0.97753906
vn -0.49121094 -0.09448242 0.86572266
vn -0.9819336 -0.18884277 0.00028204918
vn -0.47631836 -0.87939453 -0.00034332275
vn -0.7392578 0.67333984 0.00057411194
vn -4.4107437E-06 0.12841797 0.9916992
vn 1.1026859E-05 1 0.00046253204
vn -0.021438599 -0.043151855 0.99902344
vn -0.52441406 -0.8515625 -0.00043177605
vn -0.051879883 -0.08294678 0.9951172
vn 0.00806427 -1 -0.0003683567
vn 0.0011777878 -0.15356445 0.98828125
vn 0.5283203 -0.8491211 -0.00043010712
vn 0.05545044 -0.08758545 0.9946289
vn 0.47509766 -0.8798828 -0.00036358833
vn 0.17358398 0.13977051 0.9746094
vn 0.77978516 0.62597656 0.00019288063
vn 0.020858765 -0.042510986 0.99902344
vn 0.9902344 -0.13952637 -4.5895576E-05
vn 0.57128906 -0.080444336 0.81689453
g inner_geo_0
f 3/3/3 2/2/2 1/1/1
f 3/3/3 4/4/4 2/2/2
f 5/5/5 3/3/3 1/1/1
f 5/5/5 1/1/1 6/6/6
f 7/7/7 5/5/5 6/6/6
f 2/2/2 8/8/8 1/1/1
f 4/4/4 8/8/8 2/2/2
f 1/1/1 8/8/8 6/6/6
f 4/4/4 9/9/9 8/8/8
f 9/9/9 10/10/10 8/8/8
f 8/8/8 10/10/10 6/6/6
f 9/9/9 11/11/11 10/10/10
f 11/11/11 12/12/12 10/10/10
f 10/10/10 12/12/12 6/6/6
f 11/11/11 13/13/13 12/12/12
f 13/13/13 14/14/14 12/12/12
f 12/12/12 14/14/14 6/6/6
f 13/13/13 15/15/15 14/14/14
f 7/7/7 6/6/6 16/16/16
f 6/6/6 14/14/14 16/16/16
f 17/17/17 7/7/7 16/16/16
f 15/15/15 18/18/18 14/14/14
f 14/14/14 18/18/18 16/16/16
f 15/15/15 19/19/19 18/18/18
f 17/17/17 16/16/16 20/20/20
f 18/18/18 20/20/20 16/16/16
f 19/19/19 20/20/20 18/18/18
f 19/19/19 17/17/17 20/20/20
