g Light_L01_Mesh
v 0.47487286 4.313355 0.564093
v 0.49931967 4.340355 0.5901405
v 0.4810413 4.340355 0.560313
v 0.4931512 4.313355 0.5939205
v 0.45802027 4.29359 0.5744203
v 0.4931512 4.367355 0.5939205
v 0.47487286 4.367355 0.564093
v 0.47629863 4.29359 0.6042478
v 0.4349992 4.2863555 0.58852756
v 0.47629863 4.38712 0.6042478
v 0.45802027 4.38712 0.5744203
v 0.45327753 4.2863555 0.61835515
v 0.41197813 4.29359 0.6026349
v 0.45327753 4.3943543 0.61835515
v 0.4349992 4.3943543 0.58852756
v 0.4302565 4.29359 0.6324624
v 0.39512557 4.313355 0.61296225
v 0.4302565 4.38712 0.6324624
v 0.41197813 4.38712 0.6026349
v 0.41340393 4.313355 0.6427897
v 0.38895714 4.340355 0.61674225
v 0.41340393 4.367355 0.6427897
v 0.39512557 4.367355 0.61296225
v 0.4072354 4.340355 0.6465698
v 0.45710713 4.3835707 0.6246044
v 0.43868336 4.3777804 0.63589454
v 0.42519623 4.361963 0.64415944
v 0.4202596 4.340355 0.6471846
v 0.45892552 4.340355 0.62757176
v 0.4755309 4.3777804 0.61331433
v 0.42519623 4.318747 0.64415944
v 0.43868336 4.3029284 0.63589454
v 0.48901802 4.361963 0.6050494
v 0.45710713 4.297139 0.6246044
v 0.4939546 4.340355 0.60202426
v 0.4755309 4.3029284 0.61331433
v 0.48901802 4.318747 0.6050494
vt 0.3033855 0.05932907
vt 0.29999262 0.06787702
vt 0.30566406 0.06787702
vt 0.2984637 0.062170677
vt 0.29712802 0.053071655
vt 0.2984637 0.0735833
vt 0.3033855 0.07642496
vt 0.29428634 0.057993494
vt 0.28858012 0.05078125
vt 0.29428634 0.07776047
vt 0.29712802 0.08268234
vt 0.28858012 0.056464516
vt 0.28003228 0.053071655
vt 0.28858012 0.07928945
vt 0.28858012 0.08496094
vt 0.2828739 0.057993494
vt 0.2737748 0.05932907
vt 0.2828739 0.07776047
vt 0.28003228 0.08268234
vt 0.27869666 0.062170677
vt 0.27148438 0.06787702
vt 0.27869666 0.0735833
vt 0.2737748 0.07642496
vt 0.27716756 0.06787702
vt 0.28858012 0.07659826
vt 0.2842195 0.075429745
vt 0.2810273 0.07223763
vt 0.2798589 0.06787702
vt 0.28858012 0.06787702
vt 0.29294086 0.075429745
vt 0.2810273 0.06351639
vt 0.2842195 0.06032417
vt 0.29613295 0.07223763
vt 0.28858012 0.05915571
vt 0.2973014 0.06787702
vt 0.29294086 0.06032417
vt 0.29613295 0.06351639
vn 0.7384085 -0.5000011 -0.4524952
vn 0.9404861 -2.842815E-07 -0.33983213
vn 0.8526399 -2.0890606E-07 -0.52249897
vn 0.82860017 -0.48972967 -0.2712686
vn 0.42631733 -0.8660273 -0.2612473
vn 0.8285997 0.48972973 -0.27127007
vn 0.7384072 0.5000007 -0.4524976
vn 0.5229202 -0.8482376 -0.08394934
vn 4.4191844E-07 -1 3.2059177E-06
vn 0.5229207 0.84823704 -0.08395184
vn 0.42631713 0.8660265 -0.26125047
vn 0.10535949 -0.9794576 0.17193626
vn -0.42631686 -0.8660266 0.26125076
vn 0.10536129 0.97945845 0.17193078
vn 4.2584833E-07 1 0
vn -0.31219983 -0.84823567 0.42781723
vn -0.73840827 -0.50000113 0.45249537
vn -0.31220073 0.84823644 0.42781514
vn -0.42631662 0.8660267 0.2612506
vn -0.61788005 -0.4897298 0.61513335
vn -0.85264134 6.186836E-07 0.5224965
vn -0.6178802 0.48973 0.6151329
vn -0.73840845 0.50000083 0.45249546
vn -0.72976667 6.7009273E-07 0.6836963
vn 0.4946396 0.32218206 0.8071744
vn 0.3572856 0.27901548 0.8913458
vn 0.25673416 0.16108973 0.95296264
vn 0.21993163 1.352132E-07 0.97551525
vn 0.52249724 1.5339742E-07 0.8526409
vn 0.6319906 0.27902037 0.7230045
vn 0.25673804 -0.16108899 0.9529617
vn 0.3572858 -0.27901974 0.8913444
vn 0.7325392 0.16109128 0.66138947
vn 0.4946363 -0.32218102 0.8071767
vn 0.7693379 -2.168628E-07 0.63884205
vn 0.63199127 -0.27901953 0.7230043
vn 0.7325377 -0.16108988 0.6613914
g Light_L01_Mesh_0
f 3/3/3 2/2/2 1/1/1
f 2/2/2 4/4/4 1/1/1
f 1/1/1 4/4/4 5/5/5
f 6/6/6 2/2/2 3/3/3
f 7/7/7 6/6/6 3/3/3
f 4/4/4 8/8/8 5/5/5
f 5/5/5 8/8/8 9/9/9
f 10/10/10 6/6/6 7/7/7
f 11/11/11 10/10/10 7/7/7
f 8/8/8 12/12/12 9/9/9
f 9/9/9 12/12/12 13/13/13
f 14/14/14 10/10/10 11/11/11
f 15/15/15 14/14/14 11/11/11
f 12/12/12 16/16/16 13/13/13
f 13/13/13 16/16/16 17/17/17
f 18/18/18 14/14/14 15/15/15
f 19/19/19 18/18/18 15/15/15
f 16/16/16 20/20/20 17/17/17
f 17/17/17 20/20/20 21/21/21
f 22/22/22 18/18/18 19/19/19
f 23/23/23 22/22/22 19/19/19
f 21/21/21 24/24/24 23/23/23
f 20/20/20 24/24/24 21/21/21
f 24/24/24 22/22/22 23/23/23
f 14/14/14 25/25/25 10/10/10
f 18/18/18 26/26/26 14/14/14
f 26/26/26 25/25/25 14/14/14
f 22/22/22 27/27/27 18/18/18
f 27/27/27 26/26/26 18/18/18
f 24/24/24 28/28/28 22/22/22
f 28/28/28 27/27/27 22/22/22
f 27/27/27 29/29/29 26/26/26
f 26/26/26 29/29/29 25/25/25
f 28/28/28 29/29/29 27/27/27
f 25/25/25 29/29/29 30/30/30
f 25/25/25 30/30/30 10/10/10
f 31/31/31 29/29/29 28/28/28
f 31/31/31 28/28/28 24/24/24
f 20/20/20 31/31/31 24/24/24
f 10/10/10 30/30/30 6/6/6
f 32/32/32 31/31/31 20/20/20
f 32/32/32 29/29/29 31/31/31
f 16/16/16 32/32/32 20/20/20
f 30/30/30 33/33/33 6/6/6
f 30/30/30 29/29/29 33/33/33
f 6/6/6 33/33/33 2/2/2
f 34/34/34 32/32/32 16/16/16
f 34/34/34 29/29/29 32/32/32
f 12/12/12 34/34/34 16/16/16
f 33/33/33 35/35/35 2/2/2
f 33/33/33 29/29/29 35/35/35
f 2/2/2 35/35/35 4/4/4
f 36/36/36 34/34/34 12/12/12
f 36/36/36 29/29/29 34/34/34
f 8/8/8 36/36/36 12/12/12
f 4/4/4 37/37/37 8/8/8
f 35/35/35 37/37/37 4/4/4
f 35/35/35 29/29/29 37/37/37
f 37/37/37 36/36/36 8/8/8
f 37/37/37 29/29/29 36/36/36
