g Light_L02_Mesh
v 0.59901893 4.313355 0.41777673
v 0.63206637 4.340355 0.43134105
v 0.6030644 4.340355 0.41177902
v 0.6280208 4.313355 0.43733874
v 0.5879664 4.29359 0.43416283
v 0.6280208 4.367355 0.43733874
v 0.59901893 4.367355 0.41777673
v 0.61696815 4.29359 0.4537248
v 0.57286835 4.2863555 0.45654663
v 0.61696815 4.38712 0.4537248
v 0.5879664 4.38712 0.43416283
v 0.60187024 4.2863555 0.4761086
v 0.5577702 4.29359 0.4789304
v 0.60187024 4.3943543 0.4761086
v 0.57286835 4.3943543 0.45654663
v 0.58677214 4.29359 0.49849242
v 0.54671776 4.313355 0.4953165
v 0.58677214 4.38712 0.49849242
v 0.5577702 4.38712 0.4789304
v 0.5757196 4.313355 0.5148785
v 0.5426723 4.340355 0.50131416
v 0.5757196 4.367355 0.5148785
v 0.54671776 4.367355 0.4953165
v 0.57167405 4.340355 0.5208762
v 0.6079465 4.3835707 0.48020712
v 0.5958636 4.3777804 0.49812087
v 0.58701813 4.361963 0.51123464
v 0.58378047 4.340355 0.51603466
v 0.61083174 4.340355 0.4821532
v 0.62002945 4.3777804 0.4622934
v 0.58701813 4.318747 0.51123464
v 0.5958636 4.3029284 0.49812087
v 0.62887484 4.361963 0.4491796
v 0.6079465 4.297139 0.48020712
v 0.6321124 4.340355 0.4443796
v 0.62002945 4.3029284 0.4622934
v 0.62887484 4.318747 0.4491796
vt 0.26725268 0.05932907
vt 0.2638598 0.06787702
vt 0.26953125 0.06787702
vt 0.2623309 0.062170677
vt 0.2609952 0.053071655
vt 0.2623309 0.0735833
vt 0.26725268 0.07642496
vt 0.25815353 0.057993494
vt 0.2524473 0.05078125
vt 0.25815353 0.07776047
vt 0.2609952 0.08268234
vt 0.2524473 0.056464516
vt 0.24389946 0.053071655
vt 0.2524473 0.07928945
vt 0.2524473 0.08496094
vt 0.24674109 0.057993494
vt 0.23764199 0.05932907
vt 0.24674109 0.07776047
vt 0.24389946 0.08268234
vt 0.24256384 0.062170677
vt 0.23535156 0.06787702
vt 0.24256384 0.0735833
vt 0.23764199 0.07642496
vt 0.24103475 0.06787702
vt 0.2524473 0.07659826
vt 0.24808669 0.075429745
vt 0.24489447 0.07223763
vt 0.24372607 0.06787702
vt 0.2524473 0.06787702
vt 0.25680804 0.075429745
vt 0.24489447 0.06351639
vt 0.24808669 0.06032417
vt 0.26000014 0.07223763
vt 0.2524473 0.05915571
vt 0.2611686 0.06787702
vt 0.25680804 0.06032417
vt 0.26000014 0.06351639
vn 0.48427412 -0.49999833 -0.7179695
vn 0.7148806 -5.9563655E-07 -0.6992466
vn 0.55919343 -6.909973E-07 -0.8290373
vn 0.6415004 -0.48972803 -0.5904606
vn 0.2795936 -0.8660232 -0.41452524
vn 0.6415021 0.48972973 -0.5904572
vn 0.48427612 0.5000015 -0.717966
vn 0.441023 -0.8482355 -0.29324943
vn 1.7676729E-07 -1 -6.427901E-06
vn 0.44102573 0.8482376 -0.29323933
vn 0.27959558 0.8660274 -0.41451535
vn 0.16717266 -0.9794592 0.112752005
vn -0.2795939 -0.8660258 0.41451964
vn 0.16717449 0.97945786 0.11276046
vn -0 1 3.5353457E-07
vn -0.1066778 -0.8482367 0.51876235
vn -0.48427385 -0.49999908 0.7179692
vn -0.10667676 0.8482357 0.51876396
vn -0.27959424 0.8660255 0.41452006
vn -0.30715197 -0.48972866 0.8159801
vn -0.5591933 3.3746403E-07 0.8290373
vn -0.3071521 0.48972753 0.8159807
vn -0.48427397 0.4999988 0.7179693
vn -0.3805319 0 0.92476773
vn 0.7848321 0.32218286 0.52937406
vn 0.6947504 0.27901763 0.6629261
vn 0.6288053 0.16109025 0.7606931
vn 0.6046731 -6.27076E-07 0.79647374
vn 0.8290374 0 0.5591931
vn 0.8749119 0.27901793 0.39582607
vn 0.6288091 -0.16109088 0.76068974
vn 0.6947526 -0.2790209 0.66292244
vn 0.940856 0.16108988 0.29806063
vn 0.78483444 -0.32218367 0.52937
vn 0.964992 0 0.2622793
vn 0.87491107 -0.27902016 0.39582604
vn 0.94085485 -0.16108924 0.2980645
g Light_L02_Mesh_0
f 3/3/3 2/2/2 1/1/1
f 2/2/2 4/4/4 1/1/1
f 1/1/1 4/4/4 5/5/5
f 6/6/6 2/2/2 3/3/3
f 7/7/7 6/6/6 3/3/3
f 4/4/4 8/8/8 5/5/5
f 5/5/5 8/8/8 9/9/9
f 10/10/10 6/6/6 7/7/7
f 11/11/11 10/10/10 7/7/7
f 8/8/8 12/12/12 9/9/9
f 9/9/9 12/12/12 13/13/13
f 14/14/14 10/10/10 11/11/11
f 15/15/15 14/14/14 11/11/11
f 12/12/12 16/16/16 13/13/13
f 13/13/13 16/16/16 17/17/17
f 18/18/18 14/14/14 15/15/15
f 19/19/19 18/18/18 15/15/15
f 16/16/16 20/20/20 17/17/17
f 17/17/17 20/20/20 21/21/21
f 22/22/22 18/18/18 19/19/19
f 23/23/23 22/22/22 19/19/19
f 21/21/21 24/24/24 23/23/23
f 20/20/20 24/24/24 21/21/21
f 24/24/24 22/22/22 23/23/23
f 14/14/14 25/25/25 10/10/10
f 18/18/18 26/26/26 14/14/14
f 26/26/26 25/25/25 14/14/14
f 22/22/22 27/27/27 18/18/18
f 27/27/27 26/26/26 18/18/18
f 24/24/24 28/28/28 22/22/22
f 28/28/28 27/27/27 22/22/22
f 27/27/27 29/29/29 26/26/26
f 26/26/26 29/29/29 25/25/25
f 28/28/28 29/29/29 27/27/27
f 25/25/25 29/29/29 30/30/30
f 25/25/25 30/30/30 10/10/10
f 31/31/31 29/29/29 28/28/28
f 31/31/31 28/28/28 24/24/24
f 20/20/20 31/31/31 24/24/24
f 10/10/10 30/30/30 6/6/6
f 32/32/32 31/31/31 20/20/20
f 32/32/32 29/29/29 31/31/31
f 16/16/16 32/32/32 20/20/20
f 30/30/30 33/33/33 6/6/6
f 30/30/30 29/29/29 33/33/33
f 6/6/6 33/33/33 2/2/2
f 34/34/34 32/32/32 16/16/16
f 34/34/34 29/29/29 32/32/32
f 12/12/12 34/34/34 16/16/16
f 33/33/33 35/35/35 2/2/2
f 33/33/33 29/29/29 35/35/35
f 2/2/2 35/35/35 4/4/4
f 36/36/36 34/34/34 12/12/12
f 36/36/36 29/29/29 34/34/34
f 8/8/8 36/36/36 12/12/12
f 4/4/4 37/37/37 8/8/8
f 35/35/35 37/37/37 4/4/4
f 35/35/35 29/29/29 37/37/37
f 37/37/37 36/36/36 8/8/8
f 37/37/37 29/29/29 36/36/36
