g Light_R02_Mesh
v -0.18796642 4.29359 0.43416283
v -0.19901897 4.313355 0.41777673
v -0.22802082 4.313355 0.43733874
v -0.21696827 4.29359 0.4537248
v -0.17286834 4.2863555 0.45654663
v -0.20187023 4.2863555 0.4761086
v -0.1577703 4.29359 0.4789304
v -0.18677215 4.29359 0.49849242
v -0.14671776 4.313355 0.49531645
v -0.1757196 4.313355 0.5148785
v -0.14267224 4.340355 0.50131416
v -0.17167412 4.340355 0.5208762
v -0.14671776 4.367355 0.49531645
v -0.1757196 4.367355 0.5148785
v -0.1577703 4.38712 0.4789304
v -0.18677215 4.38712 0.49849242
v -0.17286834 4.3943543 0.45654663
v -0.20187023 4.3943543 0.4761086
v -0.18796642 4.38712 0.43416283
v -0.21696827 4.38712 0.4537248
v -0.19901897 4.367355 0.41777673
v -0.22802082 4.367355 0.43733874
v -0.2030645 4.340355 0.41177902
v -0.23206633 4.340355 0.43134105
v -0.19901897 4.313355 0.41777673
v -0.1837805 4.340355 0.51603466
v -0.18701813 4.361963 0.51123464
v -0.19586353 4.3777804 0.49812087
v -0.20794651 4.3835707 0.48020712
v -0.21083172 4.340355 0.48215324
v -0.18701813 4.318747 0.51123464
v -0.22002949 4.3777804 0.4622934
v -0.19586353 4.3029284 0.49812087
v -0.22887482 4.361963 0.4491796
v -0.20794651 4.297139 0.48020712
v -0.23211245 4.340355 0.4443796
v -0.22002949 4.3029284 0.4622934
v -0.22887482 4.318747 0.4491796
vt 0.2438994 0.016938845
vt 0.23764199 0.02319626
vt 0.24256384 0.026037863
vt 0.24674103 0.021860683
vt 0.2524473 0.014648438
vt 0.2524473 0.020331705
vt 0.2609952 0.016938845
vt 0.25815353 0.021860683
vt 0.26725274 0.02319626
vt 0.2623309 0.026037863
vt 0.26953125 0.031744204
vt 0.2638598 0.031744204
vt 0.26725274 0.040292144
vt 0.2623309 0.037450485
vt 0.2609952 0.04654953
vt 0.25815353 0.04162766
vt 0.2524473 0.04883994
vt 0.2524473 0.04315664
vt 0.2438994 0.04654953
vt 0.24674103 0.04162766
vt 0.23764199 0.040292144
vt 0.24256384 0.037450485
vt 0.23535156 0.031744204
vt 0.24103487 0.031744204
vt 0.23764199 0.02319626
vt 0.2611686 0.031744204
vt 0.26000014 0.03610482
vt 0.25680798 0.039296933
vt 0.2524473 0.040465444
vt 0.2524473 0.031744204
vt 0.26000014 0.02738358
vt 0.24808668 0.039296933
vt 0.25680798 0.024191357
vt 0.24489447 0.03610482
vt 0.2524473 0.0230229
vt 0.24372606 0.031744204
vt 0.24808668 0.024191357
vt 0.24489447 0.02738358
vn -0.27959538 -0.8660283 -0.41451344
vn -0.48427597 -0.5000019 -0.7179658
vn -0.6415019 -0.489731 -0.5904564
vn -0.44102436 -0.84823895 -0.29323742
vn -1.12488145E-07 -1 3.3666092E-06
vn -0.16717133 -0.97945833 0.11276172
vn 0.27959448 -0.86602634 0.4145182
vn 0.10667885 -0.8482366 0.51876235
vn 0.48427564 -0.5000004 0.71796715
vn 0.30715388 -0.48972946 0.8159789
vn 0.55919296 2.4104548E-07 0.82903755
vn 0.38053095 2.1659513E-07 0.92476815
vn 0.4842764 0.5000013 0.7179659
vn 0.30715436 0.4897299 0.8159784
vn 0.27959526 0.86602783 0.41451457
vn 0.10667781 0.84823817 0.51875997
vn -1.848021E-07 1 0
vn -0.1671742 0.97945774 0.112761624
vn -0.279595 0.86602795 -0.41451445
vn -0.4410255 0.8482378 -0.29323903
vn -0.4842771 0.50000197 -0.71796507
vn -0.6415023 0.4897303 -0.59045666
vn -0.5591938 8.1955517E-07 -0.8290371
vn -0.71488065 6.633224E-07 -0.6992466
vn -0.48427597 -0.5000019 -0.7179658
vn -0.6046672 0 0.7964782
vn -0.62880677 0.16108999 0.7606918
vn -0.69475394 0.2790171 0.6629226
vn -0.7848316 0.3221823 0.5293751
vn -0.82903755 0 0.5591929
vn -0.62880605 -0.1610896 0.7606925
vn -0.87491226 0.2790176 0.3958255
vn -0.69475365 -0.27901947 0.66292185
vn -0.94085586 0.16109101 0.2980602
vn -0.78483224 -0.32218212 0.52937424
vn -0.964992 0 0.26227942
vn -0.8749102 -0.27901945 0.39582884
vn -0.9408553 -0.16109017 0.29806235
g Light_R02_Mesh_0
f 3/3/3 2/2/2 1/1/1
f 4/4/4 3/3/3 1/1/1
f 4/4/4 1/1/1 5/5/5
f 6/6/6 4/4/4 5/5/5
f 6/6/6 5/5/5 7/7/7
f 8/8/8 6/6/6 7/7/7
f 8/8/8 7/7/7 9/9/9
f 10/10/10 8/8/8 9/9/9
f 10/10/10 9/9/9 11/11/11
f 12/12/12 10/10/10 11/11/11
f 12/12/12 11/11/11 13/13/13
f 14/14/14 12/12/12 13/13/13
f 14/14/14 13/13/13 15/15/15
f 16/16/16 14/14/14 15/15/15
f 16/16/16 15/15/15 17/17/17
f 18/18/18 16/16/16 17/17/17
f 18/18/18 17/17/17 19/19/19
f 20/20/20 18/18/18 19/19/19
f 20/20/20 19/19/19 21/21/21
f 22/22/22 20/20/20 21/21/21
f 22/22/22 21/21/21 23/23/23
f 24/24/24 22/22/22 23/23/23
f 24/24/24 23/23/23 25/25/25
f 3/3/3 24/24/24 25/25/25
f 26/26/26 12/12/12 14/14/14
f 27/27/27 14/14/14 16/16/16
f 27/27/27 26/26/26 14/14/14
f 28/28/28 16/16/16 18/18/18
f 28/28/28 27/27/27 16/16/16
f 29/29/29 18/18/18 20/20/20
f 29/29/29 28/28/28 18/18/18
f 30/30/30 27/27/27 28/28/28
f 30/30/30 26/26/26 27/27/27
f 30/30/30 28/28/28 29/29/29
f 30/30/30 31/31/31 26/26/26
f 26/26/26 31/31/31 12/12/12
f 30/30/30 29/29/29 32/32/32
f 32/32/32 29/29/29 20/20/20
f 31/31/31 10/10/10 12/12/12
f 32/32/32 20/20/20 22/22/22
f 31/31/31 33/33/33 10/10/10
f 30/30/30 33/33/33 31/31/31
f 33/33/33 8/8/8 10/10/10
f 34/34/34 32/32/32 22/22/22
f 30/30/30 32/32/32 34/34/34
f 34/34/34 22/22/22 24/24/24
f 33/33/33 35/35/35 8/8/8
f 30/30/30 35/35/35 33/33/33
f 35/35/35 6/6/6 8/8/8
f 36/36/36 34/34/34 24/24/24
f 30/30/30 34/34/34 36/36/36
f 36/36/36 24/24/24 3/3/3
f 35/35/35 37/37/37 6/6/6
f 30/30/30 37/37/37 35/35/35
f 37/37/37 4/4/4 6/6/6
f 38/38/38 3/3/3 4/4/4
f 38/38/38 36/36/36 3/3/3
f 30/30/30 36/36/36 38/38/38
f 37/37/37 38/38/38 4/4/4
f 30/30/30 38/38/38 37/37/37
