g lineL_geo2
v 1.170792 0.12156805 -0.074507415
v -1.1209705 0.12162725 -0.07450497
v -1.1556716 0.037042294 -0.07450619
v 1.2060627 0.037042294 -0.07450619
v 1.2060627 0.037042294 -0.07450619
v -1.1556716 0.037042294 -0.07450619
v -1.1556716 0.037042294 0.0015008823
v 1.2060627 0.037042294 0.0015008823
v 1.170815 0.121503964 0.001502103
v -1.1210002 0.121546075 0.0015045444
v -1.1209705 0.12162725 -0.07450497
v 1.170792 0.12156805 -0.074507415
v 1.170815 0.121503964 0.001502103
v 1.2060627 0.037042294 0.0015008823
v -1.1556716 0.037042294 0.0015008823
v -1.1210002 0.121546075 0.0015045444
vt 0.19470215 0.009735107
vt 0.19396973 0.4465332
vt 0.20996094 0.453125
vt 0.21081543 0.0030345917
vt 0.21081543 0.0030345917
vt 0.20996094 0.453125
vt 0.21716309 0.453125
vt 0.21801758 0.0030403137
vt 0.23400879 0.009765625
vt 0.23327637 0.4465332
vt 0.24060059 0.4465332
vt 0.24133301 0.009780884
vt 0.23400879 0.009765625
vt 0.21801758 0.0030403137
vt 0.21716309 0.453125
vt 0.23327637 0.4465332
vn -1.1324883E-06 0 -1
vn -1.1324883E-06 0 -1
vn -1.1324883E-06 0 -1
vn -1.1324883E-06 0 -1
vn -0 -1 0
vn -0 -1 0
vn -0 -1 0
vn -0 -1 0
vn 2.2113323E-05 1 0.0009689331
vn 2.2113323E-05 1 0.0009689331
vn 2.2113323E-05 1 0.0009689331
vn 2.2113323E-05 1 0.0009689331
vn 1.013279E-06 -2.8908253E-05 1
vn 1.013279E-06 -2.8908253E-05 1
vn 1.013279E-06 -2.8908253E-05 1
vn 1.013279E-06 -2.8908253E-05 1
g lineL_geo2_0
f 3/3/3 2/2/2 1/1/1
f 4/4/4 3/3/3 1/1/1
f 7/7/7 6/6/6 5/5/5
f 8/8/8 7/7/7 5/5/5
f 11/11/11 10/10/10 9/9/9
f 12/12/12 11/11/11 9/9/9
f 15/15/15 14/14/14 13/13/13
f 16/16/16 15/15/15 13/13/13
