g mesh04
v 0.032589745 0.2019894 -0.20198938
v 0.032589745 0.2019894 0.20198938
v 0.032589745 -0.2019894 0.20198938
v 0.032589745 -0.2019894 -0.20198938
v -0.032589745 0.13680983 -0.13680987
v -0.032589745 -0.13680992 -0.13680987
v -0.032589745 -0.13680992 0.13680992
v -0.032589745 0.13680983 0.13680992
v 0.032589745 0.2019894 0.20198938
v -0.032589745 0.13680983 0.13680992
v -0.032589745 -0.13680992 0.13680992
v 0.032589745 -0.2019894 0.20198938
v 0.032589745 -0.2019894 -0.20198938
v -0.032589745 -0.13680992 -0.13680987
v -0.032589745 0.13680983 -0.13680987
v 0.032589745 0.2019894 -0.20198938
v 0.032589745 -0.2019894 0.20198938
v -0.032589745 -0.13680992 0.13680992
v -0.032589745 -0.13680992 -0.13680987
v 0.032589745 -0.2019894 -0.20198938
v 0.032589745 0.2019894 -0.20198938
v -0.032589745 0.13680983 -0.13680987
v -0.032589745 0.13680983 0.13680992
v 0.032589745 0.2019894 0.20198938
vt 0.8330078 0.13903809
vt 0.8330078 0.11364746
vt 0.8076172 0.11364746
vt 0.8076172 0.13903809
vt 0.46191406 0.20092773
vt 0.44311523 0.20092773
vt 0.44311523 0.2199707
vt 0.46191406 0.2199707
vt 0.46655273 0.2244873
vt 0.46191406 0.2199707
vt 0.44311523 0.2199707
vt 0.43847656 0.2244873
vt 0.43847656 0.19641113
vt 0.44311523 0.20092773
vt 0.46191406 0.20092773
vt 0.46655273 0.19641113
vt 0.43847656 0.2244873
vt 0.44311523 0.2199707
vt 0.44311523 0.20092773
vt 0.43847656 0.19641113
vt 0.46655273 0.19641113
vt 0.46191406 0.20092773
vt 0.46191406 0.2199707
vt 0.46655273 0.2244873
vn -1 0 0
vn -1 0 0
vn -1 0 0
vn -1 0 0
vn 1 0 0
vn 1 0 0
vn 1 0 0
vn 1 0 0
vn 0.70703125 0 -0.70703125
vn 0.70703125 0 -0.70703125
vn 0.70703125 0 -0.70703125
vn 0.70703125 0 -0.70703125
vn 0.70703125 0 0.70703125
vn 0.70703125 0 0.70703125
vn 0.70703125 0 0.70703125
vn 0.70703125 0 0.70703125
vn 0.70703125 0.70703125 0
vn 0.70703125 0.70703125 0
vn 0.70703125 0.70703125 0
vn 0.70703125 0.70703125 0
vn 0.70703125 -0.70703125 0
vn 0.70703125 -0.70703125 0
vn 0.70703125 -0.70703125 0
vn 0.70703125 -0.70703125 0
g mesh04_0
f 3/3/3 2/2/2 1/1/1
f 4/4/4 3/3/3 1/1/1
f 7/7/7 6/6/6 5/5/5
f 8/8/8 7/7/7 5/5/5
f 11/11/11 10/10/10 9/9/9
f 12/12/12 11/11/11 9/9/9
f 15/15/15 14/14/14 13/13/13
f 16/16/16 15/15/15 13/13/13
f 19/19/19 18/18/18 17/17/17
f 20/20/20 19/19/19 17/17/17
f 23/23/23 22/22/22 21/21/21
f 24/24/24 23/23/23 21/21/21
