g mesh402
v -0.19873959 0.15280378 -0.051144198
v -0.20126043 0.15280378 -0.051144198
v -0.20126043 0.039253477 0.018714141
v -0.1987396 0.039253477 0.018714141
v -0.09563433 0.15280378 -0.093851805
v -0.20128958 0.037173435 0.018365555
v -0.046236992 0.039253477 -0.04445449
v -0.093851805 0.15280378 -0.095634304
v -0.19871046 0.037173435 0.018365555
v -0.20000002 -0.15192138 -0.19999999
v -0.046504095 0.037173435 -0.044680383
v -0.04445449 0.039253477 -0.046236992
v -0.05114418 0.15280378 -0.19873959
v -0.044680383 0.037173435 -0.046504095
v 0.018365497 0.037173435 -0.19871046
v 0.018365497 0.037173435 -0.20128955
v 0.018714122 0.039253477 -0.20126043
v 0.018714122 0.039253477 -0.19873959
v -0.05114418 0.15280378 -0.20126043
v -0.19873959 0.15280378 -0.051144198
v -0.20000002 0.15396576 -0.05278368
v -0.20126043 0.15280378 -0.051144198
v -0.09563433 0.15280378 -0.093851805
v -0.09590235 0.15396576 -0.095902316
v -0.20000002 0.15396576 -0.19999999
v -0.052783642 0.15396576 -0.19999999
v -0.05114418 0.15280378 -0.19873959
v -0.05114418 0.15280378 -0.20126043
v -0.093851805 0.15280378 -0.095634304
v -0.09563433 0.15280378 -0.093851805
vt 0.6225586 0.64941406
vt 0.6201172 0.64941406
vt 0.6201172 0.5395508
vt 0.6220703 0.5395508
vt 0.74121094 0.64941406
vt 0.62109375 0.5371094
vt 0.7416992 0.5395508
vt 0.74365234 0.64941406
vt 0.6230469 0.5371094
vt 0.4716797 0.36938477
vt 0.7416992 0.5371094
vt 0.74316406 0.5395508
vt 0.86279297 0.64941406
vt 0.74365234 0.5371094
vt 0.8623047 0.5371094
vt 0.8642578 0.5371094
vt 0.8647461 0.5395508
vt 0.86279297 0.5395508
vt 0.8652344 0.64941406
vt 0.50146484 0.6767578
vt 0.5 0.6777344
vt 0.5 0.6767578
vt 0.609375 0.7216797
vt 0.609375 0.72314453
vt 0.5 0.83251953
vt 0.65478516 0.83251953
vt 0.6557617 0.8310547
vt 0.6557617 0.83251953
vt 0.61083984 0.7236328
vt 0.61035156 0.72216797
vn -0.13635254 -0.7006836 -0.7001953
vn 0.13635254 -0.7006836 -0.7001953
vn 0.19250488 -0.19091797 -0.96240234
vn -0.19250488 -0.19091797 -0.96240234
vn -0.39892578 -0.7006836 -0.5917969
vn 0.17224121 0.484375 -0.85791016
vn -0.5444336 -0.19091797 -0.81689453
vn -0.5917969 -0.7006836 -0.39892578
vn -0.17224121 0.484375 -0.85791016
vn -0 1 0
vn -0.48461914 0.484375 -0.7285156
vn -0.81689453 -0.19091797 -0.5444336
vn -0.7001953 -0.7006836 -0.13635254
vn -0.7285156 0.484375 -0.48461914
vn -0.85791016 0.484375 -0.17224121
vn -0.85791016 0.484375 0.17224121
vn -0.96240234 -0.19091797 0.19250488
vn -0.96240234 -0.19091797 -0.19250488
vn -0.7001953 -0.7006836 0.13635254
vn -0.13635254 -0.7006836 -0.7001953
vn -1.7881393E-07 -0.94921875 -0.3149414
vn 0.13635254 -0.7006836 -0.7001953
vn -0.39892578 -0.7006836 -0.5917969
vn -0.22265625 -0.94921875 -0.22265625
vn -0 -1 0
vn -0.3149414 -0.94921875 -8.34465E-07
vn -0.7001953 -0.7006836 -0.13635254
vn -0.7001953 -0.7006836 0.13635254
vn -0.5917969 -0.7006836 -0.39892578
vn -0.39892578 -0.7006836 -0.5917969
g mesh402_0
f 3/3/3 2/2/2 1/1/1
f 4/4/4 3/3/3 1/1/1
f 1/1/1 5/5/5 4/4/4
f 3/3/3 4/4/4 6/6/6
f 5/5/5 7/7/7 4/4/4
f 7/7/7 5/5/5 8/8/8
f 4/4/4 9/9/9 6/6/6
f 6/6/6 9/9/9 10/10/10
f 11/11/11 9/9/9 4/4/4
f 7/7/7 11/11/11 4/4/4
f 9/9/9 11/11/11 10/10/10
f 12/12/12 7/7/7 8/8/8
f 7/7/7 12/12/12 11/11/11
f 8/8/8 13/13/13 12/12/12
f 11/11/11 14/14/14 10/10/10
f 12/12/12 14/14/14 11/11/11
f 14/14/14 15/15/15 10/10/10
f 15/15/15 14/14/14 12/12/12
f 15/15/15 16/16/16 10/10/10
f 17/17/17 16/16/16 15/15/15
f 13/13/13 18/18/18 12/12/12
f 18/18/18 15/15/15 12/12/12
f 18/18/18 17/17/17 15/15/15
f 18/18/18 13/13/13 19/19/19
f 17/17/17 18/18/18 19/19/19
f 22/22/22 21/21/21 20/20/20
f 23/23/23 20/20/20 21/21/21
f 24/24/24 23/23/23 21/21/21
f 25/25/25 24/24/24 21/21/21
f 25/25/25 26/26/26 24/24/24
f 26/26/26 27/27/27 24/24/24
f 27/27/27 26/26/26 28/28/28
f 27/27/27 29/29/29 24/24/24
f 30/30/30 24/24/24 29/29/29
