g mesh604
v 0.05114418 0.15280378 -0.19873959
v 0.05114418 0.15280378 -0.20126043
v -0.018714141 0.039253477 -0.20126043
v -0.018714141 0.039253477 -0.19873959
v 0.09385179 0.15280378 -0.095634304
v -0.018365555 0.037173435 -0.20128955
v 0.044454478 0.039253477 -0.04623701
v 0.095634304 0.15280378 -0.093851805
v -0.018365555 0.037173435 -0.19871046
v 0.19999997 -0.15192138 -0.19999999
v 0.044680376 0.037173435 -0.046504095
v 0.046236962 0.039253477 -0.04445449
v 0.19873956 0.15280378 -0.051144198
v 0.19873956 0.039253477 0.018714141
v 0.19871041 0.037173435 0.018365555
v 0.046504088 0.037173435 -0.044680383
v 0.05114418 0.15280378 -0.19873959
v 0.052783642 0.15396576 -0.19999999
v 0.05114418 0.15280378 -0.20126043
v 0.09385179 0.15280378 -0.095634304
v 0.095902316 0.15396576 -0.09590232
v 0.19999997 0.15396576 -0.19999999
v 0.19999997 0.15396576 -0.05278368
v 0.19873956 0.15280378 -0.051144198
v 0.095634304 0.15280378 -0.093851805
v 0.09385179 0.15280378 -0.095634304
vt 0.37963867 0.64941406
vt 0.37719727 0.64941406
vt 0.37768555 0.5395508
vt 0.37939453 0.5395508
vt 0.49853516 0.64941406
vt 0.3798828 0.5371094
vt 0.4987793 0.5395508
vt 0.50097656 0.64941406
vt 0.38183594 0.5371094
vt 0.4716797 0.36938477
vt 0.5004883 0.5371094
vt 0.5004883 0.5395508
vt 0.6201172 0.64941406
vt 0.6201172 0.5395508
vt 0.62109375 0.5371094
vt 0.5024414 0.5371094
vt 0.34423828 0.8310547
vt 0.34521484 0.83251953
vt 0.34399414 0.83251953
vt 0.38891602 0.7236328
vt 0.390625 0.72314453
vt 0.5 0.83251953
vt 0.5 0.6777344
vt 0.4987793 0.6767578
vt 0.39086914 0.7216797
vt 0.38964844 0.72216797
vn 0.7001953 -0.7006836 -0.13635254
vn 0.7001953 -0.7006836 0.13635254
vn 0.96240234 -0.19091797 0.19250488
vn 0.96240234 -0.19091797 -0.19250488
vn 0.5917969 -0.7006836 -0.39892578
vn 0.85791016 0.484375 0.17224121
vn 0.81689453 -0.19091797 -0.5444336
vn 0.39892578 -0.7006836 -0.5917969
vn 0.85791016 0.484375 -0.17224121
vn -0 1 0
vn 0.7285156 0.484375 -0.48461914
vn 0.5444336 -0.19091797 -0.81689453
vn 0.13635254 -0.7006836 -0.7001953
vn 0.19250488 -0.19091797 -0.96240234
vn 0.17224121 0.484375 -0.85791016
vn 0.48461914 0.484375 -0.7285156
vn 0.7001953 -0.7006836 -0.13635254
vn 0.3149414 -0.94921875 1.1920929E-07
vn 0.7001953 -0.7006836 0.13635254
vn 0.5917969 -0.7006836 -0.39892578
vn 0.22265625 -0.94921875 -0.22265625
vn -0 -1 0
vn -1.7881393E-07 -0.94921875 -0.3149414
vn 0.13635254 -0.7006836 -0.7001953
vn 0.39892578 -0.7006836 -0.5917969
vn 0.5917969 -0.7006836 -0.39892578
g mesh604_0
f 3/3/3 2/2/2 1/1/1
f 4/4/4 3/3/3 1/1/1
f 1/1/1 5/5/5 4/4/4
f 3/3/3 4/4/4 6/6/6
f 5/5/5 7/7/7 4/4/4
f 7/7/7 5/5/5 8/8/8
f 4/4/4 9/9/9 6/6/6
f 6/6/6 9/9/9 10/10/10
f 11/11/11 9/9/9 4/4/4
f 7/7/7 11/11/11 4/4/4
f 9/9/9 11/11/11 10/10/10
f 12/12/12 7/7/7 8/8/8
f 7/7/7 12/12/12 11/11/11
f 8/8/8 13/13/13 12/12/12
f 13/13/13 14/14/14 12/12/12
f 14/14/14 15/15/15 12/12/12
f 16/16/16 15/15/15 10/10/10
f 11/11/11 16/16/16 10/10/10
f 15/15/15 16/16/16 12/12/12
f 12/12/12 16/16/16 11/11/11
f 19/19/19 18/18/18 17/17/17
f 20/20/20 17/17/17 18/18/18
f 21/21/21 20/20/20 18/18/18
f 22/22/22 21/21/21 18/18/18
f 22/22/22 23/23/23 21/21/21
f 23/23/23 24/24/24 21/21/21
f 24/24/24 25/25/25 21/21/21
f 26/26/26 21/21/21 25/25/25
