g mesh20
v -0.21188752 0.21188742 -0.22303821
v -0.22303823 0.21188742 -0.21188743
v -0.21188752 0.22303823 -0.21188746
v -0.21188752 -0.22303823 -0.21188746
v -0.22303823 -0.21188739 -0.21188743
v -0.21188752 -0.21188739 -0.22303821
v 0.22303823 0.21188742 -0.21188743
v 0.21188745 0.21188742 -0.22303821
v 0.21188745 0.22303823 -0.21188746
v 0.21188745 -0.22303823 -0.21188746
v 0.21188745 -0.21188739 -0.22303821
v 0.22303823 -0.21188739 -0.21188743
v -0.21188752 0.22303823 0.21188746
v -0.22303823 0.21188742 0.21188746
v -0.21188752 0.21188742 0.22303821
v -0.21188752 -0.21188739 0.22303821
v -0.22303823 -0.21188739 0.21188746
v -0.21188752 -0.22303823 0.21188746
v 0.21188745 0.21188742 0.22303821
v 0.22303823 0.21188742 0.21188746
v 0.21188745 0.22303823 0.21188746
v 0.21188745 -0.22303823 0.21188746
v 0.22303823 -0.21188739 0.21188746
v 0.21188745 -0.21188739 0.22303821
v 0.21188745 -0.22303823 -0.21188746
v 0.21188745 -0.22303823 0.21188746
v -0.21188752 -0.22303823 0.21188746
v -0.21188752 -0.22303823 -0.21188746
v -0.21188752 0.21188742 -0.22303821
v -0.21188752 0.22303823 -0.21188746
v 0.21188745 0.22303823 -0.21188746
v 0.21188745 0.21188742 -0.22303821
v -0.22303823 0.21188742 -0.21188743
v -0.21188752 0.21188742 -0.22303821
v -0.21188752 -0.21188739 -0.22303821
v -0.22303823 -0.21188739 -0.21188743
v -0.21188752 -0.22303823 -0.21188746
v -0.21188752 -0.21188739 -0.22303821
v 0.21188745 -0.21188739 -0.22303821
v 0.21188745 -0.22303823 -0.21188746
v 0.21188745 0.21188742 -0.22303821
v 0.22303823 0.21188742 -0.21188743
v 0.22303823 -0.21188739 -0.21188743
v 0.21188745 -0.21188739 -0.22303821
v -0.21188752 0.21188742 -0.22303821
v 0.21188745 0.21188742 -0.22303821
v 0.21188745 -0.21188739 -0.22303821
v -0.21188752 -0.21188739 -0.22303821
v -0.21188752 0.22303823 -0.21188746
v -0.21188752 0.22303823 0.21188746
v 0.21188745 0.22303823 0.21188746
v 0.21188745 0.22303823 -0.21188746
v -0.21188752 0.22303823 0.21188746
v -0.21188752 0.21188742 0.22303821
v 0.21188745 0.21188742 0.22303821
v 0.21188745 0.22303823 0.21188746
v -0.21188752 0.21188742 0.22303821
v -0.22303823 0.21188742 0.21188746
v -0.22303823 -0.21188739 0.21188746
v -0.21188752 -0.21188739 0.22303821
v -0.21188752 -0.21188739 0.22303821
v -0.21188752 -0.22303823 0.21188746
v 0.21188745 -0.22303823 0.21188746
v 0.21188745 -0.21188739 0.22303821
v 0.22303823 0.21188742 0.21188746
v 0.21188745 0.21188742 0.22303821
v 0.21188745 -0.21188739 0.22303821
v 0.22303823 -0.21188739 0.21188746
v 0.21188745 0.21188742 0.22303821
v -0.21188752 0.21188742 0.22303821
v -0.21188752 -0.21188739 0.22303821
v 0.21188745 -0.21188739 0.22303821
v -0.22303823 0.21188742 0.21188746
v -0.21188752 0.22303823 0.21188746
v -0.21188752 0.22303823 -0.21188746
v -0.22303823 0.21188742 -0.21188743
v -0.22303823 -0.21188739 -0.21188743
v -0.21188752 -0.22303823 -0.21188746
v -0.21188752 -0.22303823 0.21188746
v -0.22303823 -0.21188739 0.21188746
v -0.22303823 0.21188742 0.21188746
v -0.22303823 0.21188742 -0.21188743
v -0.22303823 -0.21188739 -0.21188743
v -0.22303823 -0.21188739 0.21188746
v 0.22303823 0.21188742 -0.21188743
v 0.21188745 0.22303823 -0.21188746
v 0.21188745 0.22303823 0.21188746
v 0.22303823 0.21188742 0.21188746
v 0.21188745 -0.22303823 -0.21188746
v 0.22303823 -0.21188739 -0.21188743
v 0.22303823 -0.21188739 0.21188746
v 0.21188745 -0.22303823 0.21188746
v 0.22303823 0.21188742 -0.21188743
v 0.22303823 0.21188742 0.21188746
v 0.22303823 -0.21188739 0.21188746
v 0.22303823 -0.21188739 -0.21188743
vt 0.51660156 0.10858154
vt 0.51708984 0.10858154
vt 0.51708984 0.10925293
vt 0.51708984 0.08227539
vt 0.51708984 0.08294678
vt 0.51660156 0.08294678
vt 0.5908203 0.10858154
vt 0.5913086 0.10858154
vt 0.5913086 0.10925293
vt 0.5913086 0.08227539
vt 0.5913086 0.08294678
vt 0.5908203 0.08294678
vt 0.54296875 0.10925293
vt 0.54296875 0.10858154
vt 0.54345703 0.10858154
vt 0.54345703 0.08294678
vt 0.54296875 0.08294678
vt 0.54296875 0.08227539
vt 0.13781738 0.60009766
vt 0.1385498 0.60009766
vt 0.1385498 0.6010742
vt 0.1385498 0.57373047
vt 0.1385498 0.57470703
vt 0.13781738 0.57470703
vt 0.11029053 0.61083984
vt 0.11029053 0.63623047
vt 0.08465576 0.63623047
vt 0.08465576 0.61083984
vt 0.6171875 0.10858154
vt 0.6171875 0.10925293
vt 0.5913086 0.10925293
vt 0.5913086 0.10858154
vt 0.51708984 0.10858154
vt 0.51660156 0.10858154
vt 0.51660156 0.08294678
vt 0.51708984 0.08294678
vt 0.6171875 0.08227539
vt 0.6171875 0.08294678
vt 0.5913086 0.08294678
vt 0.5913086 0.08227539
vt 0.5913086 0.10858154
vt 0.5908203 0.10858154
vt 0.5908203 0.08294678
vt 0.5913086 0.08294678
vt 0.6171875 0.10858154
vt 0.5913086 0.10858154
vt 0.5913086 0.08294678
vt 0.6171875 0.08294678
vt 0.4963379 0.6333008
vt 0.4963379 0.6586914
vt 0.47070312 0.6586914
vt 0.47070312 0.6333008
vt 0.5078125 0.65966797
vt 0.5078125 0.6586914
vt 0.5336914 0.6586914
vt 0.5336914 0.65966797
vt 0.54345703 0.10858154
vt 0.54296875 0.10858154
vt 0.54296875 0.08294678
vt 0.54345703 0.08294678
vt 0.5078125 0.6333008
vt 0.5078125 0.6323242
vt 0.5336914 0.6323242
vt 0.5336914 0.6333008
vt 0.1385498 0.60009766
vt 0.13781738 0.60009766
vt 0.13781738 0.57470703
vt 0.1385498 0.57470703
vt 0.5336914 0.6586914
vt 0.5078125 0.6586914
vt 0.5078125 0.6333008
vt 0.5336914 0.6333008
vt 0.54296875 0.10858154
vt 0.54296875 0.10925293
vt 0.51708984 0.10925293
vt 0.51708984 0.10858154
vt 0.51708984 0.08294678
vt 0.51708984 0.08227539
vt 0.54296875 0.08227539
vt 0.54296875 0.08294678
vt 0.54296875 0.10858154
vt 0.51708984 0.10858154
vt 0.51708984 0.08294678
vt 0.54296875 0.08294678
vt 0.16418457 0.60009766
vt 0.16418457 0.6010742
vt 0.1385498 0.6010742
vt 0.1385498 0.60009766
vt 0.16418457 0.57373047
vt 0.16418457 0.57470703
vt 0.1385498 0.57470703
vt 0.1385498 0.57373047
vt 0.16418457 0.60009766
vt 0.1385498 0.60009766
vt 0.1385498 0.57470703
vt 0.16418457 0.57470703
vn 0.57714844 -0.57714844 0.57714844
vn 0.57714844 -0.57714844 0.57714844
vn 0.57714844 -0.57714844 0.57714844
vn 0.57714844 0.57714844 0.57714844
vn 0.57714844 0.57714844 0.57714844
vn 0.57714844 0.57714844 0.57714844
vn -0.57714844 -0.57714844 0.57714844
vn -0.57714844 -0.57714844 0.57714844
vn -0.57714844 -0.57714844 0.57714844
vn -0.57714844 0.57714844 0.57714844
vn -0.57714844 0.57714844 0.57714844
vn -0.57714844 0.57714844 0.57714844
vn 0.57714844 -0.57714844 -0.57714844
vn 0.57714844 -0.57714844 -0.57714844
vn 0.57714844 -0.57714844 -0.57714844
vn 0.57714844 0.57714844 -0.57714844
vn 0.57714844 0.57714844 -0.57714844
vn 0.57714844 0.57714844 -0.57714844
vn -0.57714844 -0.57714844 -0.57714844
vn -0.57714844 -0.57714844 -0.57714844
vn -0.57714844 -0.57714844 -0.57714844
vn -0.57714844 0.57714844 -0.57714844
vn -0.57714844 0.57714844 -0.57714844
vn -0.57714844 0.57714844 -0.57714844
vn -0 1 0
vn -0 1 0
vn -0 1 0
vn -0 1 0
vn -0 -0.70703125 0.70703125
vn -0 -0.70703125 0.70703125
vn -0 -0.70703125 0.70703125
vn -0 -0.70703125 0.70703125
vn 0.70703125 0 0.70703125
vn 0.70703125 0 0.70703125
vn 0.70703125 0 0.70703125
vn 0.70703125 0 0.70703125
vn -0 0.70703125 0.70703125
vn -0 0.70703125 0.70703125
vn -0 0.70703125 0.70703125
vn -0 0.70703125 0.70703125
vn -0.70703125 0 0.70703125
vn -0.70703125 0 0.70703125
vn -0.70703125 0 0.70703125
vn -0.70703125 0 0.70703125
vn -0 0 1
vn -0 0 1
vn -0 0 1
vn -0 0 1
vn -0 -1 0
vn -0 -1 0
vn -0 -1 0
vn -0 -1 0
vn -0 -0.70703125 -0.70703125
vn -0 -0.70703125 -0.70703125
vn -0 -0.70703125 -0.70703125
vn -0 -0.70703125 -0.70703125
vn 0.70703125 0 -0.70703125
vn 0.70703125 0 -0.70703125
vn 0.70703125 0 -0.70703125
vn 0.70703125 0 -0.70703125
vn -0 0.70703125 -0.70703125
vn -0 0.70703125 -0.70703125
vn -0 0.70703125 -0.70703125
vn -0 0.70703125 -0.70703125
vn -0.70703125 0 -0.70703125
vn -0.70703125 0 -0.70703125
vn -0.70703125 0 -0.70703125
vn -0.70703125 0 -0.70703125
vn -0 0 -1
vn -0 0 -1
vn -0 0 -1
vn -0 0 -1
vn 0.70703125 -0.70703125 0
vn 0.70703125 -0.70703125 0
vn 0.70703125 -0.70703125 0
vn 0.70703125 -0.70703125 0
vn 0.70703125 0.70703125 0
vn 0.70703125 0.70703125 0
vn 0.70703125 0.70703125 0
vn 0.70703125 0.70703125 0
vn 1 0 0
vn 1 0 0
vn 1 0 0
vn 1 0 0
vn -0.70703125 -0.70703125 0
vn -0.70703125 -0.70703125 0
vn -0.70703125 -0.70703125 0
vn -0.70703125 -0.70703125 0
vn -0.70703125 0.70703125 0
vn -0.70703125 0.70703125 0
vn -0.70703125 0.70703125 0
vn -0.70703125 0.70703125 0
vn -1 0 0
vn -1 0 0
vn -1 0 0
vn -1 0 0
g mesh20_0
f 3/3/3 2/2/2 1/1/1
f 6/6/6 5/5/5 4/4/4
f 9/9/9 8/8/8 7/7/7
f 12/12/12 11/11/11 10/10/10
f 15/15/15 14/14/14 13/13/13
f 18/18/18 17/17/17 16/16/16
f 21/21/21 20/20/20 19/19/19
f 24/24/24 23/23/23 22/22/22
f 27/27/27 26/26/26 25/25/25
f 28/28/28 27/27/27 25/25/25
f 31/31/31 30/30/30 29/29/29
f 32/32/32 31/31/31 29/29/29
f 35/35/35 34/34/34 33/33/33
f 36/36/36 35/35/35 33/33/33
f 39/39/39 38/38/38 37/37/37
f 40/40/40 39/39/39 37/37/37
f 43/43/43 42/42/42 41/41/41
f 44/44/44 43/43/43 41/41/41
f 47/47/47 46/46/46 45/45/45
f 48/48/48 47/47/47 45/45/45
f 51/51/51 50/50/50 49/49/49
f 52/52/52 51/51/51 49/49/49
f 55/55/55 54/54/54 53/53/53
f 56/56/56 55/55/55 53/53/53
f 59/59/59 58/58/58 57/57/57
f 60/60/60 59/59/59 57/57/57
f 63/63/63 62/62/62 61/61/61
f 64/64/64 63/63/63 61/61/61
f 67/67/67 66/66/66 65/65/65
f 68/68/68 67/67/67 65/65/65
f 71/71/71 70/70/70 69/69/69
f 72/72/72 71/71/71 69/69/69
f 75/75/75 74/74/74 73/73/73
f 76/76/76 75/75/75 73/73/73
f 79/79/79 78/78/78 77/77/77
f 80/80/80 79/79/79 77/77/77
f 83/83/83 82/82/82 81/81/81
f 84/84/84 83/83/83 81/81/81
f 87/87/87 86/86/86 85/85/85
f 88/88/88 87/87/87 85/85/85
f 91/91/91 90/90/90 89/89/89
f 92/92/92 91/91/91 89/89/89
f 95/95/95 94/94/94 93/93/93
f 96/96/96 95/95/95 93/93/93
