g mesh_outer01
v -0.17876758 0.270333 0.14874049
v -0.19999996 0.2512765 0.14201629
v -0.19999996 0.270333 0.14451715
v -0.17781053 0.2512765 0.14642997
v -0.16076766 0.270333 0.1607677
v -0.17859377 0.22413482 0.14832085
v -0.19999996 0.22413485 0.14406298
v -0.16044651 0.22413485 0.16044654
v -0.1589993 0.2512765 0.15899932
v -0.14874043 0.270333 0.17876765
v -0.1483208 0.22413482 0.17859384
v -0.14642991 0.2512765 0.17781061
v -0.14451715 0.270333 0.19999999
v -0.14406295 0.22413485 0.19999999
v -0.14201628 0.2512765 0.19999999
v -0.17876758 0.270333 0.14874049
v -0.19999996 0.270333 0.14451715
v -0.19999997 0.27303588 0.16689491
v -0.1873312 0.27303588 0.16941482
v -0.16076766 0.270333 0.1607677
v -0.19999999 0.27393618 0.19999999
v -0.17659113 0.27303588 0.17659114
v -0.14874043 0.270333 0.17876765
v -0.1694148 0.27303588 0.18733123
v -0.16689488 0.27303588 0.19999999
v -0.14451715 0.270333 0.19999999
v -0.19999994 -0.3087393 0.1006805
v -0.16199203 -0.3087393 0.10824076
v -0.19999999 -0.305149 0.19999999
v -0.12977047 -0.3087393 0.12977055
v -0.10824074 -0.3087393 0.16199213
v -0.10068049 -0.3087393 0.19999999
v -0.19999991 0.025840342 0.050909042
v -0.1581628 -0.24838012 0.098996215
v -0.19999994 -0.24838012 0.090674266
v -0.14294529 0.025840342 0.062257938
v -0.19999991 0.061339814 0.062042274
v -0.122694984 -0.24838012 0.12269508
v -0.14720578 0.061339814 0.072543696
v -0.19999994 0.09636055 0.077523515
v -0.0945767 0.025840342 0.09457681
v -0.09899617 -0.24838012 0.1581629
v -0.1531302 0.09636055 0.086846456
v -0.19999994 0.1314935 0.10273669
v -0.10244909 0.061339814 0.10244919
v -0.06225786 0.025840342 0.14294542
v -0.090674266 -0.24838012 0.19999999
v -0.050909 0.025840342 0.19999999
v -0.0725436 0.061339814 0.14720592
v -0.062042255 0.061339814 0.19999999
v -0.16277887 0.1314935 0.110140376
v -0.19999996 0.16513205 0.14106452
v -0.113396 0.09636055 0.11339607
v -0.0868464 0.09636055 0.15313032
v -0.07752351 0.09636055 0.19999999
v -0.17744632 0.16513205 0.14555067
v -0.19999996 0.18637946 0.14106727
v -0.13122441 0.13149346 0.13122448
v -0.11014032 0.1314935 0.16277899
v -0.10273668 0.1314935 0.19999999
v -0.17744735 0.18637946 0.14555319
v -0.19999996 0.19599397 0.12899773
v -0.1583263 0.16513205 0.15832634
v -0.1455506 0.16513202 0.1774464
v -0.14106452 0.16513205 0.19999999
v -0.17282853 0.19599396 0.13440235
v -0.19999996 0.20951341 0.12005832
v -0.15832822 0.18637946 0.15832826
v -0.14555311 0.18637946 0.17744742
v -0.14106725 0.18637946 0.19999999
v -0.16940756 0.20951343 0.1261434
v -0.19999996 0.21922353 0.13029847
v -0.14979376 0.19599397 0.14979382
v -0.13440229 0.19599396 0.17282861
v -0.1289977 0.19599397 0.19999999
v -0.1733263 0.21922356 0.13560407
v -0.19999996 0.22691931 0.14336224
v -0.14347266 0.20951341 0.1434727
v -0.12614334 0.20951341 0.16940767
v -0.120058306 0.20951341 0.19999999
v -0.17832561 0.22691931 0.14767347
v -0.19999997 0.22787105 0.14670691
v -0.17960556 0.22787105 0.15076354
v -0.15071352 0.21922353 0.15071358
v -0.13560401 0.21922353 0.17332639
v -0.13029844 0.21922356 0.19999999
v -0.15995103 0.22691931 0.15995108
v -0.16231605 0.22787105 0.16231608
v -0.14767341 0.22691931 0.17832568
v -0.14336224 0.22691931 0.19999999
v -0.15076348 0.22787105 0.17960563
v -0.14670691 0.22787105 0.19999999
v -0.09899617 -0.24838012 0.1581629
v -0.090674266 -0.24838012 0.19999999
v -0.08606738 -0.25088185 0.19999999
v -0.09473999 -0.25088182 0.15639994
v -0.122694984 -0.24838012 0.12269508
v -0.096156515 -0.26110995 0.15698668
v -0.087600626 -0.26110995 0.19999999
v -0.11943743 -0.25088182 0.11943752
v -0.1581628 -0.24838012 0.098996215
v -0.098722935 -0.263538 0.15804972
v -0.09037849 -0.263538 0.19999999
v -0.09621747 -0.30296305 0.19999999
v -0.1205216 -0.26110995 0.1205217
v -0.15639983 -0.25088182 0.094740026
v -0.19999994 -0.24838012 0.090674266
v -0.19999994 -0.25088182 0.086067386
v -0.19999994 -0.26110998 0.087600626
v -0.15698658 -0.26110995 0.09615656
v -0.19999994 -0.263538 0.09037851
v -0.12248585 -0.263538 0.12248594
v -0.10411744 -0.30296305 0.16028419
v -0.10068049 -0.3087393 0.19999999
v -0.10824074 -0.3087393 0.16199213
v -0.15804961 -0.263538 0.09872297
v -0.12661463 -0.30296305 0.1266147
v -0.12977047 -0.3087393 0.12977055
v -0.1602841 -0.30296305 0.10411747
v -0.19999994 -0.30296305 0.09621749
v -0.16199203 -0.3087393 0.10824076
v -0.19999994 -0.3087393 0.1006805
vt 0.22229004 0.15856934
vt 0.24987793 0.13842773
vt 0.24987793 0.15856934
vt 0.22229004 0.13842773
vt 0.19458008 0.15856934
vt 0.22229004 0.104003906
vt 0.24987793 0.104003906
vt 0.19458008 0.104003906
vt 0.19458008 0.13842773
vt 0.16699219 0.15856934
vt 0.16699219 0.104003906
vt 0.16699219 0.13842773
vt 0.13928223 0.15856934
vt 0.13928223 0.104003906
vt 0.13928223 0.13842773
vt 0.54345703 0.20593262
vt 0.54785156 0.22802734
vt 0.51904297 0.22802734
vt 0.51660156 0.21704102
vt 0.5307617 0.18725586
vt 0.49023438 0.22802734
vt 0.5107422 0.2076416
vt 0.51220703 0.17468262
vt 0.50097656 0.20141602
vt 0.49023438 0.19921875
vt 0.49023438 0.17028809
vt 0.5541992 0.14819336
vt 0.53271484 0.1439209
vt 0.5541992 0.091430664
vt 0.51416016 0.1315918
vt 0.5019531 0.11315918
vt 0.4975586 0.091430664
vt 0.25878906 0.6879883
vt 0.23034668 0.5488281
vt 0.25878906 0.5488281
vt 0.23034668 0.6879883
vt 0.25878906 0.7060547
vt 0.20202637 0.5488281
vt 0.23034668 0.7060547
vt 0.25878906 0.72509766
vt 0.20202637 0.6879883
vt 0.17382812 0.5488281
vt 0.23034668 0.72509766
vt 0.25878906 0.74609375
vt 0.20202637 0.7060547
vt 0.17382812 0.6879883
vt 0.14550781 0.5488281
vt 0.14550781 0.6879883
vt 0.17382812 0.7060547
vt 0.14550781 0.7060547
vt 0.23034668 0.74609375
vt 0.25878906 0.77197266
vt 0.20202637 0.72509766
vt 0.17382812 0.72509766
vt 0.14550781 0.72509766
vt 0.23034668 0.77197266
vt 0.25878906 0.78466797
vt 0.20202637 0.74609375
vt 0.17382812 0.74609375
vt 0.14550781 0.74609375
vt 0.23034668 0.78466797
vt 0.25878906 0.79296875
vt 0.20202637 0.77197266
vt 0.17382812 0.77197266
vt 0.14550781 0.77197266
vt 0.23034668 0.79296875
vt 0.25878906 0.7993164
vt 0.20202637 0.78466797
vt 0.17382812 0.78466797
vt 0.14550781 0.78466797
vt 0.23034668 0.7993164
vt 0.25878906 0.8041992
vt 0.20202637 0.79296875
vt 0.17382812 0.79296875
vt 0.14550781 0.79296875
vt 0.23034668 0.8041992
vt 0.25878906 0.81152344
vt 0.20202637 0.7993164
vt 0.17382812 0.7993164
vt 0.14550781 0.7993164
vt 0.23034668 0.81152344
vt 0.25878906 0.8129883
vt 0.23034668 0.8129883
vt 0.20202637 0.8041992
vt 0.17382812 0.8041992
vt 0.14550781 0.8041992
vt 0.20202637 0.81152344
vt 0.20202637 0.8129883
vt 0.17382812 0.81152344
vt 0.14550781 0.81152344
vt 0.17382812 0.8129883
vt 0.14550781 0.8129883
vt 0.31420898 0.98876953
vt 0.2536621 0.98876953
vt 0.2536621 0.98339844
vt 0.31420898 0.98339844
vt 0.37475586 0.98876953
vt 0.31420898 0.9765625
vt 0.2536621 0.9765625
vt 0.37475586 0.98339844
vt 0.43530273 0.98876953
vt 0.31420898 0.97265625
vt 0.2536621 0.97265625
vt 0.2536621 0.9296875
vt 0.37475586 0.9765625
vt 0.43530273 0.98339844
vt 0.49560547 0.98876953
vt 0.49560547 0.98339844
vt 0.49560547 0.9765625
vt 0.43530273 0.9765625
vt 0.49560547 0.97265625
vt 0.37475586 0.97265625
vt 0.31420898 0.9296875
vt 0.2536621 0.9248047
vt 0.31420898 0.9248047
vt 0.43530273 0.97265625
vt 0.37475586 0.9296875
vt 0.37475586 0.9248047
vt 0.43530273 0.9296875
vt 0.49560547 0.9296875
vt 0.43530273 0.9248047
vt 0.49560547 0.9248047
vn -0.29296875 -0.6435547 0.70703125
vn -1.2516975E-06 -0.009284973 1
vn -1.013279E-06 -0.6435547 0.7651367
vn -0.38256836 -0.009284973 0.9238281
vn -0.5410156 -0.6435547 0.5410156
vn -0.3815918 0.07519531 0.9213867
vn -1.2516975E-06 0.07519531 0.9970703
vn -0.7050781 0.07519531 0.7050781
vn -0.70703125 -0.009284973 0.70703125
vn -0.70703125 -0.6435547 0.29296875
vn -0.9213867 0.07519531 0.3815918
vn -0.9238281 -0.009284973 0.38256836
vn -0.7651367 -0.6435547 -7.748604E-07
vn -0.9970703 0.07519531 -4.172325E-07
vn -1 -0.009284973 -4.172325E-07
vn -0.29296875 -0.6435547 0.70703125
vn -1.013279E-06 -0.6435547 0.7651367
vn -1.1920929E-07 -0.99560547 0.09222412
vn -0.035308838 -0.99560547 0.08520508
vn -0.5410156 -0.6435547 0.5410156
vn -0 -1 -1.1920929E-07
vn -0.06524658 -0.99560547 0.06524658
vn -0.70703125 -0.6435547 0.29296875
vn -0.08520508 -0.99560547 0.035308838
vn -0.09222412 -0.99560547 -7.748604E-07
vn -0.7651367 -0.6435547 -7.748604E-07
vn -0 0.9951172 0.09844971
vn -0.03765869 0.9951172 0.09094238
vn -0 1 0
vn -0.06958008 0.9951172 0.06958008
vn -0.09094238 0.9951172 0.03765869
vn -0.09844971 0.9951172 0
vn -6.556511E-07 0.088012695 0.99609375
vn -0.37963867 0.1270752 0.9165039
vn -5.9604645E-07 0.1270752 0.9916992
vn -0.38110352 0.088012695 0.92041016
vn -7.1525574E-07 -0.34814453 0.9375
vn -0.7011719 0.1270752 0.7011719
vn -0.35864258 -0.34814453 0.86621094
vn -5.9604645E-07 -0.4885254 0.8725586
vn -0.70458984 0.088012695 0.70458984
vn -0.9165039 0.1270752 0.37963867
vn -0.33398438 -0.4885254 0.80615234
vn -6.556511E-07 -0.65722656 0.75390625
vn -0.66308594 -0.34814453 0.66308594
vn -0.92041016 0.088012695 0.38110352
vn -0.9916992 0.1270752 -1.7881393E-07
vn -0.99609375 0.088012695 -1.7881393E-07
vn -0.86621094 -0.34814453 0.35864258
vn -0.9375 -0.34814453 -1.7881393E-07
vn -0.28857422 -0.65722656 0.69628906
vn -8.940697E-07 -0.62158203 0.7832031
vn -0.6171875 -0.4885254 0.6171875
vn -0.80615234 -0.4885254 0.33398438
vn -0.8725586 -0.4885254 -1.7881393E-07
vn -0.2998047 -0.62158203 0.7236328
vn -1.0728836E-06 0.40576172 0.9140625
vn -0.5332031 -0.65722656 0.5332031
vn -0.69628906 -0.65722656 0.28857422
vn -0.75390625 -0.65722656 -1.1920929E-07
vn -0.34985352 0.40576172 0.8442383
vn -7.748604E-07 0.6538086 0.75683594
vn -0.55371094 -0.62158203 0.55371094
vn -0.7236328 -0.62158203 0.2998047
vn -0.7832031 -0.62158203 -2.9802322E-07
vn -0.28955078 0.6538086 0.69921875
vn -1.013279E-06 -0.042510986 0.99902344
vn -0.6464844 0.40576172 0.6464844
vn -0.8442383 0.40576172 0.34985352
vn -0.9140625 0.40576172 -5.9604645E-07
vn -0.38232422 -0.042510986 0.92285156
vn -5.9604645E-07 -0.7885742 0.6152344
vn -0.53515625 0.6538086 0.53515625
vn -0.69921875 0.6538086 0.28955078
vn -0.75683594 0.6538086 -2.9802322E-07
vn -0.23535156 -0.7885742 0.5683594
vn -5.9604645E-07 -0.87890625 0.47729492
vn -0.70654297 -0.042510986 0.70654297
vn -0.92285156 -0.042510986 0.38232422
vn -0.99902344 -0.042510986 -3.5762787E-07
vn -0.18273926 -0.87890625 0.4411621
vn -2.3841858E-07 -0.96191406 0.27368164
vn -0.10473633 -0.96191406 0.2529297
vn -0.43481445 -0.7885742 0.43481445
vn -0.5683594 -0.7885742 0.23535156
vn -0.6152344 -0.7885742 0
vn -0.33764648 -0.87890625 0.33764648
vn -0.19348145 -0.96191406 0.19348145
vn -0.4411621 -0.87890625 0.18273926
vn -0.47729492 -0.87890625 1.7881393E-07
vn -0.2529297 -0.96191406 0.10473633
vn -0.27368164 -0.96191406 -7.748604E-07
vn -0.9165039 0.1270752 0.37963867
vn -0.9916992 0.1270752 -1.7881393E-07
vn -0.9790039 -0.20324707 0
vn -0.90478516 -0.20324707 0.37475586
vn -0.7011719 0.1270752 0.7011719
vn -0.8798828 0.30517578 0.36450195
vn -0.95214844 0.30517578 0
vn -0.6923828 -0.20324707 0.6923828
vn -0.37963867 0.1270752 0.9165039
vn -0.9033203 0.2097168 0.37426758
vn -0.97753906 0.2097168 -2.3841858E-07
vn -0.9770508 0.21325684 0
vn -0.67333984 0.30517578 0.67333984
vn -0.37475586 -0.20324707 0.90478516
vn -5.9604645E-07 0.1270752 0.9916992
vn 2.3841858E-07 -0.20324707 0.9790039
vn 1.1920929E-07 0.30517578 0.95214844
vn -0.36450195 0.30517578 0.8798828
vn -4.172325E-07 0.2097168 0.97753906
vn -0.69140625 0.2097168 0.69140625
vn -0.90283203 0.21325684 0.3737793
vn -0.09844971 0.9951172 0
vn -0.09094238 0.9951172 0.03765869
vn -0.37426758 0.2097168 0.9033203
vn -0.69091797 0.21325684 0.69091797
vn -0.06958008 0.9951172 0.06958008
vn -0.3737793 0.21325684 0.90283203
vn -4.172325E-07 0.21325684 0.9770508
vn -0.03765869 0.9951172 0.09094238
vn -0 0.9951172 0.09844971
g mesh_outer01_0
f 3/3/3 2/2/2 1/1/1
f 2/2/2 4/4/4 1/1/1
f 1/1/1 4/4/4 5/5/5
f 6/6/6 4/4/4 2/2/2
f 7/7/7 6/6/6 2/2/2
f 6/6/6 8/8/8 4/4/4
f 4/4/4 9/9/9 5/5/5
f 8/8/8 9/9/9 4/4/4
f 5/5/5 9/9/9 10/10/10
f 8/8/8 11/11/11 9/9/9
f 9/9/9 12/12/12 10/10/10
f 11/11/11 12/12/12 9/9/9
f 10/10/10 12/12/12 13/13/13
f 11/11/11 14/14/14 12/12/12
f 12/12/12 15/15/15 13/13/13
f 14/14/14 15/15/15 12/12/12
f 18/18/18 17/17/17 16/16/16
f 19/19/19 18/18/18 16/16/16
f 19/19/19 16/16/16 20/20/20
f 18/18/18 19/19/19 21/21/21
f 22/22/22 19/19/19 20/20/20
f 19/19/19 22/22/22 21/21/21
f 22/22/22 20/20/20 23/23/23
f 22/22/22 24/24/24 21/21/21
f 24/24/24 22/22/22 23/23/23
f 21/21/21 24/24/24 25/25/25
f 24/24/24 23/23/23 26/26/26
f 25/25/25 24/24/24 26/26/26
f 29/29/29 28/28/28 27/27/27
f 29/29/29 30/30/30 28/28/28
f 29/29/29 31/31/31 30/30/30
f 29/29/29 32/32/32 31/31/31
f 35/35/35 34/34/34 33/33/33
f 34/34/34 36/36/36 33/33/33
f 37/37/37 33/33/33 36/36/36
f 34/34/34 38/38/38 36/36/36
f 39/39/39 37/37/37 36/36/36
f 40/40/40 37/37/37 39/39/39
f 38/38/38 41/41/41 36/36/36
f 39/39/39 36/36/36 41/41/41
f 38/38/38 42/42/42 41/41/41
f 43/43/43 40/40/40 39/39/39
f 44/44/44 40/40/40 43/43/43
f 45/45/45 39/39/39 41/41/41
f 43/43/43 39/39/39 45/45/45
f 42/42/42 46/46/46 41/41/41
f 45/45/45 41/41/41 46/46/46
f 42/42/42 47/47/47 46/46/46
f 47/47/47 48/48/48 46/46/46
f 49/49/49 46/46/46 48/48/48
f 49/49/49 45/45/45 46/46/46
f 50/50/50 49/49/49 48/48/48
f 51/51/51 44/44/44 43/43/43
f 52/52/52 44/44/44 51/51/51
f 53/53/53 43/43/43 45/45/45
f 53/53/53 45/45/45 49/49/49
f 51/51/51 43/43/43 53/53/53
f 54/54/54 49/49/49 50/50/50
f 54/54/54 53/53/53 49/49/49
f 55/55/55 54/54/54 50/50/50
f 56/56/56 52/52/52 51/51/51
f 57/57/57 52/52/52 56/56/56
f 58/58/58 51/51/51 53/53/53
f 58/58/58 53/53/53 54/54/54
f 56/56/56 51/51/51 58/58/58
f 59/59/59 54/54/54 55/55/55
f 59/59/59 58/58/58 54/54/54
f 60/60/60 59/59/59 55/55/55
f 61/61/61 57/57/57 56/56/56
f 62/62/62 57/57/57 61/61/61
f 63/63/63 56/56/56 58/58/58
f 63/63/63 58/58/58 59/59/59
f 61/61/61 56/56/56 63/63/63
f 64/64/64 59/59/59 60/60/60
f 64/64/64 63/63/63 59/59/59
f 65/65/65 64/64/64 60/60/60
f 66/66/66 62/62/62 61/61/61
f 67/67/67 62/62/62 66/66/66
f 68/68/68 61/61/61 63/63/63
f 68/68/68 63/63/63 64/64/64
f 66/66/66 61/61/61 68/68/68
f 69/69/69 64/64/64 65/65/65
f 69/69/69 68/68/68 64/64/64
f 70/70/70 69/69/69 65/65/65
f 71/71/71 67/67/67 66/66/66
f 72/72/72 67/67/67 71/71/71
f 73/73/73 66/66/66 68/68/68
f 73/73/73 68/68/68 69/69/69
f 71/71/71 66/66/66 73/73/73
f 74/74/74 69/69/69 70/70/70
f 74/74/74 73/73/73 69/69/69
f 75/75/75 74/74/74 70/70/70
f 76/76/76 72/72/72 71/71/71
f 77/77/77 72/72/72 76/76/76
f 78/78/78 71/71/71 73/73/73
f 78/78/78 73/73/73 74/74/74
f 76/76/76 71/71/71 78/78/78
f 79/79/79 74/74/74 75/75/75
f 79/79/79 78/78/78 74/74/74
f 80/80/80 79/79/79 75/75/75
f 81/81/81 77/77/77 76/76/76
f 82/82/82 77/77/77 81/81/81
f 83/83/83 82/82/82 81/81/81
f 84/84/84 76/76/76 78/78/78
f 84/84/84 78/78/78 79/79/79
f 81/81/81 76/76/76 84/84/84
f 85/85/85 79/79/79 80/80/80
f 85/85/85 84/84/84 79/79/79
f 86/86/86 85/85/85 80/80/80
f 83/83/83 81/81/81 87/87/87
f 87/87/87 81/81/81 84/84/84
f 87/87/87 84/84/84 85/85/85
f 88/88/88 83/83/83 87/87/87
f 89/89/89 85/85/85 86/86/86
f 89/89/89 87/87/87 85/85/85
f 88/88/88 87/87/87 89/89/89
f 90/90/90 89/89/89 86/86/86
f 91/91/91 88/88/88 89/89/89
f 91/91/91 89/89/89 90/90/90
f 92/92/92 91/91/91 90/90/90
f 95/95/95 94/94/94 93/93/93
f 96/96/96 95/95/95 93/93/93
f 96/96/96 93/93/93 97/97/97
f 95/95/95 96/96/96 98/98/98
f 99/99/99 95/95/95 98/98/98
f 100/100/100 96/96/96 97/97/97
f 100/100/100 97/97/97 101/101/101
f 99/99/99 98/98/98 102/102/102
f 103/103/103 99/99/99 102/102/102
f 104/104/104 103/103/103 102/102/102
f 105/105/105 98/98/98 96/96/96
f 100/100/100 105/105/105 96/96/96
f 106/106/106 100/100/100 101/101/101
f 106/106/106 101/101/101 107/107/107
f 108/108/108 106/106/106 107/107/107
f 108/108/108 109/109/109 106/106/106
f 106/106/106 110/110/110 100/100/100
f 109/109/109 110/110/110 106/106/106
f 110/110/110 105/105/105 100/100/100
f 109/109/109 111/111/111 110/110/110
f 112/112/112 102/102/102 98/98/98
f 105/105/105 112/112/112 98/98/98
f 113/113/113 104/104/104 102/102/102
f 113/113/113 102/102/102 112/112/112
f 104/104/104 113/113/113 114/114/114
f 113/113/113 115/115/115 114/114/114
f 110/110/110 116/116/116 105/105/105
f 111/111/111 116/116/116 110/110/110
f 116/116/116 112/112/112 105/105/105
f 113/113/113 117/117/117 115/115/115
f 117/117/117 113/113/113 112/112/112
f 117/117/117 112/112/112 116/116/116
f 117/117/117 118/118/118 115/115/115
f 119/119/119 116/116/116 111/111/111
f 119/119/119 117/117/117 116/116/116
f 117/117/117 119/119/119 118/118/118
f 120/120/120 119/119/119 111/111/111
f 119/119/119 121/121/121 118/118/118
f 119/119/119 120/120/120 121/121/121
f 120/120/120 122/122/122 121/121/121
