g mesh03
v -0.043772765 -0.016763559 -0.06513934
v -0.0592866 0.016759578 -0.14207171
v -0.05928622 -0.016763726 -0.14207149
v -0.04377326 0.016759746 -0.06513936
v 3.4332274E-07 -0.016763102 0
v 1.7763568E-17 0.01676018 1.9073486E-08
v 0.0653692 -0.016762422 0.043429792
v 0.06536883 0.016760882 0.04342981
v 0.14185266 -0.016761636 0.058538035
v 0.14185259 0.016761668 0.058538035
v 0.14185262 -0.016761634 0.04405111
v 0.14185266 -0.016761636 0.058538035
v 0.0653692 -0.016762422 0.043429792
v 0.070877954 -0.016762393 0.030030975
v 3.4332274E-07 -0.016763102 0
v 0.14185251 -0.016761651 -0.14260095
v 0.010217285 -0.016762996 -0.010270652
v -0.043772765 -0.016763559 -0.06513934
v -0.030403012 -0.01676341 -0.07071856
v -0.044799242 -0.016763568 -0.1421097
v -0.05928622 -0.016763726 -0.14207149
v -0.04377326 0.016759746 -0.06513936
v -0.04479966 0.016759722 -0.14210972
v -0.0592866 0.016759578 -0.14207171
v -0.030403547 0.01675989 -0.07071852
v 1.7763568E-17 0.01676018 1.9073486E-08
v 0.14185251 0.016761651 -0.1426008
v 0.01021677 0.016760314 -0.0102706235
v 0.06536883 0.016760882 0.04342981
v 0.070877686 0.01676091 0.030031223
v 0.14185265 0.016761668 0.044051208
v 0.14185259 0.016761668 0.058538035
vt 0.8745117 0.06210327
vt 0.9902344 0.008743286
vt 0.9902344 0.06210327
vt 0.8745117 0.008743286
vt 0.7504883 0.06210327
vt 0.7504883 0.008743286
vt 0.6254883 0.06210327
vt 0.6254883 0.008743286
vt 0.5 0.06210327
vt 0.5004883 0.008743286
vt 0.49951172 0.12756348
vt 0.49951172 0.09588623
vt 0.66796875 0.12939453
vt 0.6557617 0.15856934
vt 0.8105469 0.22460938
vt 0.49951172 0.53515625
vt 0.78808594 0.24694824
vt 0.9057617 0.3671875
vt 0.87646484 0.37939453
vt 0.90722656 0.53515625
vt 0.93896484 0.53515625
vt 0.093933105 0.3671875
vt 0.09210205 0.53564453
vt 0.06048584 0.53564453
vt 0.123168945 0.37939453
vt 0.18920898 0.22473145
vt 0.5 0.53564453
vt 0.21154785 0.24707031
vt 0.3317871 0.12939453
vt 0.34375 0.1586914
vt 0.5 0.12756348
vt 0.5 0.095947266
vn 0.6635742 0.7133789 -0.2265625
vn 0.69921875 -0.7133789 -0.048217773
vn 0.69970703 0.7133789 0.044525146
vn 0.6274414 -0.7133789 -0.31225586
vn 0.5263672 0.7133789 -0.46313477
vn 0.46044922 -0.7133789 -0.5288086
vn 0.30908203 0.7128906 -0.62939453
vn 0.22363281 -0.7128906 -0.6645508
vn 0.045440674 0.7133789 -0.69970703
vn -0.047302246 -0.7133789 -0.69921875
vn -1.0311604E-05 1 -3.5762787E-07
vn 0.045440674 0.7133789 -0.69970703
vn 0.30908203 0.7128906 -0.62939453
vn -1.013279E-05 1 -5.9604645E-07
vn 0.5263672 0.7133789 -0.46313477
vn -1.0251999E-05 1 0
vn -1.0371208E-05 1 1.7881393E-07
vn 0.6635742 0.7133789 -0.2265625
vn -1.0669231E-05 1 0
vn -1.04904175E-05 1 0
vn 0.69970703 0.7133789 0.044525146
vn 0.6274414 -0.7133789 -0.31225586
vn 1.0251999E-05 -1 0
vn 0.69921875 -0.7133789 -0.048217773
vn 1.0788441E-05 -1 -1.7881393E-07
vn 0.46044922 -0.7133789 -0.5288086
vn 1.0251999E-05 -1 0
vn 1.0550022E-05 -1 -1.7881393E-07
vn 0.22363281 -0.7128906 -0.6645508
vn 1.001358E-05 -1 6.556511E-07
vn 1.0430813E-05 -1 1.1920929E-07
vn -0.047302246 -0.7133789 -0.69921875
g mesh03_0
f 3/3/3 2/2/2 1/1/1
f 2/2/2 4/4/4 1/1/1
f 1/1/1 4/4/4 5/5/5
f 4/4/4 6/6/6 5/5/5
f 5/5/5 6/6/6 7/7/7
f 6/6/6 8/8/8 7/7/7
f 7/7/7 8/8/8 9/9/9
f 8/8/8 10/10/10 9/9/9
f 13/13/13 12/12/12 11/11/11
f 14/14/14 13/13/13 11/11/11
f 15/15/15 13/13/13 14/14/14
f 14/14/14 11/11/11 16/16/16
f 17/17/17 15/15/15 14/14/14
f 17/17/17 14/14/14 16/16/16
f 18/18/18 15/15/15 17/17/17
f 19/19/19 17/17/17 16/16/16
f 19/19/19 18/18/18 17/17/17
f 20/20/20 19/19/19 16/16/16
f 21/21/21 18/18/18 19/19/19
f 20/20/20 21/21/21 19/19/19
f 24/24/24 23/23/23 22/22/22
f 23/23/23 25/25/25 22/22/22
f 22/22/22 25/25/25 26/26/26
f 27/27/27 25/25/25 23/23/23
f 25/25/25 28/28/28 26/26/26
f 27/27/27 28/28/28 25/25/25
f 26/26/26 28/28/28 29/29/29
f 27/27/27 30/30/30 28/28/28
f 28/28/28 30/30/30 29/29/29
f 27/27/27 31/31/31 30/30/30
f 29/29/29 30/30/30 32/32/32
f 30/30/30 31/31/31 32/32/32
