g mesh01
v -0.22839959 -0.21698077 -0.09969978
v -0.22839959 0.21698077 -0.09969978
v -0.21698077 0.21698077 -0.08828096
v -0.21698077 -0.21698077 -0.08828096
v -0.21698077 -0.22839959 -0.09969978
v 0.21698077 -0.22839959 -0.09969978
v 0.21698077 -0.21698077 -0.08828096
v 0.22839959 -0.21698077 -0.09969978
v 0.22839959 0.21698077 -0.09969978
v 0.21698077 0.21698077 -0.08828096
v -0.21698077 0.22839959 -0.09969978
v -0.22839959 0.21698077 -0.09969978
v 0.21698077 0.22839959 -0.09969978
v 0.22839959 0.21698077 -0.09969978
vt 0.37719727 0.2524414
vt 0.37719727 0.48779297
vt 0.38476562 0.48779297
vt 0.38476562 0.2524414
vt 0.38476562 0.24389648
vt 0.6225586 0.24389648
vt 0.6225586 0.2524414
vt 0.6303711 0.2524414
vt 0.6303711 0.48779297
vt 0.6225586 0.48779297
vt 0.38476562 0.49609375
vt 0.37573242 0.49609375
vt 0.6225586 0.49609375
vt 0.63134766 0.49609375
vn -0.70703125 -0.006149292 0.70703125
vn -0.70703125 0.006149292 0.70703125
vn -0.02519226 0.02519226 0.9995117
vn -0.02519226 -0.02519226 0.9995117
vn -0.006149292 -0.70703125 0.70703125
vn 0.006149292 -0.70703125 0.70703125
vn 0.02519226 -0.02519226 0.9995117
vn 0.70703125 -0.006149292 0.70703125
vn 0.70703125 0.006149292 0.70703125
vn 0.02519226 0.02519226 0.9995117
vn -0.006149292 0.70703125 0.70703125
vn -0.70703125 0.006149292 0.70703125
vn 0.006149292 0.70703125 0.70703125
vn 0.70703125 0.006149292 0.70703125
g mesh01_0
f 3/3/3 2/2/2 1/1/1
f 4/4/4 3/3/3 1/1/1
f 4/4/4 1/1/1 5/5/5
f 5/5/5 6/6/6 4/4/4
f 6/6/6 7/7/7 4/4/4
f 7/7/7 6/6/6 8/8/8
f 8/8/8 9/9/9 7/7/7
f 9/9/9 10/10/10 7/7/7
f 7/7/7 10/10/10 4/4/4
f 10/10/10 3/3/3 4/4/4
f 3/3/3 10/10/10 11/11/11
f 3/3/3 11/11/11 12/12/12
f 10/10/10 13/13/13 11/11/11
f 10/10/10 14/14/14 13/13/13
