g mesh05
v -0.20644964 0.03258983 -0.20198938
v -0.20644964 0.03258983 0.20198938
v 0.20644964 0.03258983 0.20198938
v 0.20644964 0.03258983 -0.20198938
v -0.14126992 -0.03258983 -0.13680987
v 0.14127012 -0.03258983 -0.13680987
v 0.14127012 -0.03258983 0.13680992
v -0.14126992 -0.03258983 0.13680992
v -0.20644964 0.03258983 0.20198938
v -0.20644964 0.03258983 -0.20198938
v -0.14126992 -0.03258983 -0.13680987
v -0.14126992 -0.03258983 0.13680992
v -0.14126992 -0.03258983 0.13680992
v 0.14127012 -0.03258983 0.13680992
v 0.20644964 0.03258983 0.20198938
v -0.20644964 0.03258983 0.20198938
v 0.14127012 -0.03258983 -0.13680987
v -0.14126992 -0.03258983 -0.13680987
v -0.20644964 0.03258983 -0.20198938
v 0.20644964 0.03258983 -0.20198938
v 0.20644964 0.03258983 -0.20198938
v 0.20644964 0.03258983 0.20198938
v 0.14127012 -0.03258983 0.13680992
v 0.14127012 -0.03258983 -0.13680987
vt 0.7705078 0.31713867
vt 0.79589844 0.31713867
vt 0.79589844 0.29125977
vt 0.7705078 0.29125977
vt 0.22814941 0.375
vt 0.22814941 0.35546875
vt 0.20910645 0.35546875
vt 0.20910645 0.375
vt 0.20458984 0.37963867
vt 0.23266602 0.37963867
vt 0.22814941 0.375
vt 0.20910645 0.375
vt 0.20910645 0.375
vt 0.20910645 0.35546875
vt 0.20458984 0.35107422
vt 0.20458984 0.37963867
vt 0.22814941 0.35546875
vt 0.22814941 0.375
vt 0.23266602 0.37963867
vt 0.23266602 0.35107422
vt 0.23266602 0.35107422
vt 0.20458984 0.35107422
vt 0.20910645 0.35546875
vt 0.22814941 0.35546875
vn -0 -1 0
vn -0 -1 0
vn -0 -1 0
vn -0 -1 0
vn -0 1 0
vn -0 1 0
vn -0 1 0
vn -0 1 0
vn 0.70703125 0.70703125 0
vn 0.70703125 0.70703125 0
vn 0.70703125 0.70703125 0
vn 0.70703125 0.70703125 0
vn -0 0.70703125 -0.70703125
vn -0 0.70703125 -0.70703125
vn -0 0.70703125 -0.70703125
vn -0 0.70703125 -0.70703125
vn -0 0.70703125 0.70703125
vn -0 0.70703125 0.70703125
vn -0 0.70703125 0.70703125
vn -0 0.70703125 0.70703125
vn -0.70703125 0.70703125 0
vn -0.70703125 0.70703125 0
vn -0.70703125 0.70703125 0
vn -0.70703125 0.70703125 0
g mesh05_0
f 3/3/3 2/2/2 1/1/1
f 4/4/4 3/3/3 1/1/1
f 7/7/7 6/6/6 5/5/5
f 8/8/8 7/7/7 5/5/5
f 11/11/11 10/10/10 9/9/9
f 12/12/12 11/11/11 9/9/9
f 15/15/15 14/14/14 13/13/13
f 16/16/16 15/15/15 13/13/13
f 19/19/19 18/18/18 17/17/17
f 20/20/20 19/19/19 17/17/17
f 23/23/23 22/22/22 21/21/21
f 24/24/24 23/23/23 21/21/21
