g mesh04
v -0.22839959 -0.09969978 0.21698077
v -0.22839959 -0.09969978 -0.21698077
v -0.21698077 -0.08828096 -0.21698077
v -0.21698077 -0.08828096 0.21698077
v 0.21698077 -0.08828096 -0.21698077
v 0.21698077 -0.08828096 0.21698077
v 0.22839959 -0.09969978 -0.21698077
v 0.22839959 -0.09969978 0.21698077
vt 0.37573242 0.49609375
vt 0.37573242 0.7348633
vt 0.38476562 0.7348633
vt 0.38476562 0.49609375
vt 0.6225586 0.7348633
vt 0.6225586 0.49609375
vt 0.63134766 0.7348633
vt 0.63134766 0.49609375
vn -0.70703125 0.70703125 0
vn -0.70703125 0.70703125 0
vn -0.025634766 0.9995117 0
vn -0.025634766 0.9995117 0
vn 0.025634766 0.9995117 0
vn 0.025634766 0.9995117 0
vn 0.70703125 0.70703125 0
vn 0.70703125 0.70703125 0
g mesh04_0
f 3/3/3 2/2/2 1/1/1
f 4/4/4 3/3/3 1/1/1
f 5/5/5 3/3/3 4/4/4
f 6/6/6 5/5/5 4/4/4
f 7/7/7 5/5/5 6/6/6
f 8/8/8 7/7/7 6/6/6
