g mesh_outer04
v 0.108240746 -0.30873933 -0.16199209
v 0.100680485 -0.30873933 -0.20000003
v 0.19999999 -0.305149 -0.19999999
v 0.12977049 -0.3087393 -0.12977052
v 0.16199204 -0.30873933 -0.10824075
v 0.19999997 -0.30873933 -0.100680485
v 0.19999997 0.025840338 -0.050909024
v 0.15816283 -0.24838012 -0.0989962
v 0.19999997 -0.24838012 -0.090674244
v 0.14294532 0.025840342 -0.06225789
v 0.19999997 0.061339814 -0.062042255
v 0.122695014 -0.24838012 -0.12269506
v 0.14720581 0.061339814 -0.07254366
v 0.19999997 0.09636055 -0.07752351
v 0.09457673 0.025840342 -0.094576776
v 0.09899619 -0.24838012 -0.15816288
v 0.15313025 0.09636055 -0.086846426
v 0.19999997 0.1314935 -0.10273668
v 0.10244912 0.061339814 -0.102449164
v 0.06225789 0.025840342 -0.1429454
v 0.090674266 -0.24838012 -0.20000003
v 0.050909 0.025840342 -0.20000005
v 0.0725436 0.061339814 -0.1472059
v 0.062042236 0.061339814 -0.20000005
v 0.16277888 0.1314935 -0.11014035
v 0.19999999 0.16513205 -0.14106452
v 0.11339602 0.09636055 -0.11339605
v 0.086846404 0.09636055 -0.15313031
v 0.07752351 0.09636055 -0.20000003
v 0.17744632 0.16513205 -0.14555062
v 0.19999997 0.18637946 -0.14106725
v 0.13122442 0.1314935 -0.13122444
v 0.11014033 0.1314935 -0.16277896
v 0.10273668 0.1314935 -0.20000003
v 0.17744738 0.18637946 -0.14555314
v 0.19999997 0.19599397 -0.1289977
v 0.15832631 0.16513205 -0.15832631
v 0.14555062 0.16513205 -0.17744638
v 0.14106452 0.16513205 -0.20000002
v 0.17282856 0.19599396 -0.13440233
v 0.19999997 0.20951341 -0.120058306
v 0.15832824 0.18637946 -0.15832825
v 0.14555313 0.18637946 -0.17744741
v 0.14106725 0.18637946 -0.20000002
v 0.16940759 0.20951341 -0.12614338
v 0.19999997 0.21922353 -0.13029844
v 0.14979377 0.19599396 -0.14979379
v 0.1344023 0.19599396 -0.17282861
v 0.1289977 0.19599396 -0.20000002
v 0.17332631 0.21922356 -0.13560405
v 0.19999999 0.22691931 -0.14336224
v 0.14347267 0.20951341 -0.14347269
v 0.12614335 0.20951341 -0.16940765
v 0.12005832 0.20951341 -0.20000002
v 0.17832562 0.22691931 -0.14767346
v 0.19999999 0.22787105 -0.14670688
v 0.17960557 0.22787105 -0.15076351
v 0.15071353 0.21922356 -0.15071355
v 0.13560404 0.21922356 -0.17332637
v 0.13029844 0.21922353 -0.20000002
v 0.15995103 0.22691931 -0.15995106
v 0.16231607 0.22787105 -0.16231608
v 0.14767343 0.22691931 -0.17832567
v 0.14336224 0.22691931 -0.20000002
v 0.1507635 0.22787105 -0.17960562
v 0.14670691 0.22787105 -0.20000002
v 0.09899619 -0.24838012 -0.15816288
v 0.090674266 -0.24838012 -0.20000003
v 0.08606738 -0.25088182 -0.20000003
v 0.09473999 -0.25088182 -0.15639989
v 0.122695014 -0.24838012 -0.12269506
v 0.09615654 -0.26110995 -0.15698665
v 0.08760064 -0.26110995 -0.20000003
v 0.11943746 -0.25088182 -0.11943749
v 0.15816283 -0.24838012 -0.0989962
v 0.098722935 -0.263538 -0.15804969
v 0.09037849 -0.263538 -0.20000003
v 0.09621747 -0.30296305 -0.20000003
v 0.12052162 -0.26110998 -0.12052166
v 0.15639986 -0.25088182 -0.094740026
v 0.19999997 -0.24838012 -0.090674244
v 0.19999997 -0.25088182 -0.08606737
v 0.19999997 -0.26110995 -0.087600626
v 0.1569866 -0.26110995 -0.096156545
v 0.19999997 -0.263538 -0.09037849
v 0.12248588 -0.263538 -0.12248592
v 0.10411744 -0.30296305 -0.16028418
v 0.100680485 -0.30873933 -0.20000003
v 0.108240746 -0.30873933 -0.16199209
v 0.15804964 -0.263538 -0.09872295
v 0.12661466 -0.30296305 -0.12661469
v 0.12977049 -0.3087393 -0.12977052
v 0.16028412 -0.30296305 -0.10411746
v 0.19999997 -0.30296305 -0.09621746
v 0.16199204 -0.30873933 -0.10824075
v 0.19999997 -0.30873933 -0.100680485
v 0.17876758 0.270333 -0.14874044
v 0.19999999 0.2512765 -0.14201628
v 0.19999999 0.270333 -0.14451715
v 0.17781055 0.2512765 -0.14642994
v 0.16076769 0.270333 -0.1607677
v 0.17859378 0.22413485 -0.14832084
v 0.19999997 0.22413485 -0.14406295
v 0.16044652 0.22413485 -0.16044652
v 0.15899931 0.2512765 -0.15899931
v 0.14874044 0.270333 -0.17876764
v 0.14832081 0.22413482 -0.17859383
v 0.14642991 0.2512765 -0.1778106
v 0.14451715 0.270333 -0.20000002
v 0.14406295 0.22413485 -0.20000002
v 0.14201628 0.2512765 -0.20000002
v 0.17876758 0.270333 -0.14874044
v 0.19999999 0.270333 -0.14451715
v 0.19999999 0.27303588 -0.16689488
v 0.1873312 0.27303588 -0.16941482
v 0.16076769 0.270333 -0.1607677
v 0.19999999 0.27393618 -0.19999999
v 0.17659114 0.27303588 -0.17659114
v 0.14874044 0.270333 -0.17876764
v 0.1694148 0.27303585 -0.18733123
v 0.16689488 0.27303588 -0.20000002
v 0.14451715 0.270333 -0.20000002
vt 0.6069336 0.06970215
vt 0.6113281 0.091430664
vt 0.5541992 0.091430664
vt 0.59472656 0.05126953
vt 0.5761719 0.038970947
vt 0.5541992 0.03463745
vt 0.48510742 0.6879883
vt 0.45703125 0.5488281
vt 0.48510742 0.5488281
vt 0.45703125 0.6879883
vt 0.48510742 0.7060547
vt 0.42871094 0.5488281
vt 0.45703125 0.7060547
vt 0.48510742 0.72509766
vt 0.42871094 0.6879883
vt 0.40039062 0.5488281
vt 0.45703125 0.72509766
vt 0.48510742 0.74609375
vt 0.42871094 0.7060547
vt 0.40039062 0.6879883
vt 0.3720703 0.5488281
vt 0.3720703 0.6879883
vt 0.40039062 0.7060547
vt 0.3720703 0.7060547
vt 0.45703125 0.74609375
vt 0.48510742 0.77197266
vt 0.42871094 0.72509766
vt 0.40039062 0.72509766
vt 0.3720703 0.72509766
vt 0.45703125 0.77197266
vt 0.48510742 0.78466797
vt 0.42871094 0.74609375
vt 0.40039062 0.74609375
vt 0.3720703 0.74609375
vt 0.45703125 0.78466797
vt 0.48510742 0.79296875
vt 0.42871094 0.77197266
vt 0.40039062 0.77197266
vt 0.3720703 0.77197266
vt 0.45703125 0.79296875
vt 0.48510742 0.7993164
vt 0.42871094 0.78466797
vt 0.40039062 0.78466797
vt 0.3720703 0.78466797
vt 0.45703125 0.7993164
vt 0.48510742 0.8041992
vt 0.42871094 0.79296875
vt 0.40039062 0.79296875
vt 0.3720703 0.79296875
vt 0.45703125 0.8041992
vt 0.48510742 0.81152344
vt 0.42871094 0.7993164
vt 0.40039062 0.7993164
vt 0.3720703 0.7993164
vt 0.45703125 0.81152344
vt 0.48510742 0.8129883
vt 0.45703125 0.8129883
vt 0.42871094 0.8041992
vt 0.40039062 0.8041992
vt 0.3720703 0.8041992
vt 0.42871094 0.81152344
vt 0.42871094 0.8129883
vt 0.40039062 0.81152344
vt 0.3720703 0.81152344
vt 0.40039062 0.8129883
vt 0.3720703 0.8129883
vt 0.79833984 0.98876953
vt 0.73779297 0.98876953
vt 0.73779297 0.98339844
vt 0.79833984 0.98339844
vt 0.85839844 0.98876953
vt 0.79833984 0.9765625
vt 0.73779297 0.9765625
vt 0.85839844 0.98339844
vt 0.9189453 0.98876953
vt 0.79833984 0.97265625
vt 0.73779297 0.97265625
vt 0.73779297 0.9296875
vt 0.85839844 0.9765625
vt 0.9189453 0.98339844
vt 0.9794922 0.98876953
vt 0.9794922 0.98339844
vt 0.9794922 0.9765625
vt 0.9189453 0.9765625
vt 0.9794922 0.97265625
vt 0.85839844 0.97265625
vt 0.79833984 0.9296875
vt 0.73779297 0.9248047
vt 0.79833984 0.9248047
vt 0.9189453 0.97265625
vt 0.85839844 0.9296875
vt 0.85839844 0.9248047
vt 0.9189453 0.9296875
vt 0.9794922 0.9296875
vt 0.9189453 0.9248047
vt 0.9794922 0.9248047
vt 0.44335938 0.15856934
vt 0.47094727 0.13842773
vt 0.47094727 0.15856934
vt 0.44335938 0.13842773
vt 0.41577148 0.15856934
vt 0.44335938 0.104003906
vt 0.47094727 0.104003906
vt 0.41577148 0.104003906
vt 0.41577148 0.13842773
vt 0.3881836 0.15856934
vt 0.3881836 0.104003906
vt 0.3881836 0.13842773
vt 0.36035156 0.15856934
vt 0.36035156 0.104003906
vt 0.36035156 0.13842773
vt 0.43676758 0.25024414
vt 0.43237305 0.22802734
vt 0.46118164 0.22802734
vt 0.4633789 0.23913574
vt 0.44921875 0.26879883
vt 0.49023438 0.22802734
vt 0.46972656 0.24853516
vt 0.46801758 0.28149414
vt 0.4790039 0.25463867
vt 0.49023438 0.25683594
vt 0.49023438 0.28588867
vn 0.09094238 0.9951172 -0.03765869
vn 0.09844971 0.9951172 0
vn -0 1 0
vn 0.06964111 0.9951172 -0.06958008
vn 0.03765869 0.9951172 -0.09094238
vn -0 0.9951172 -0.09844971
vn -0 0.088012695 -0.99609375
vn 0.37963867 0.1270752 -0.9165039
vn -0 0.1270752 -0.9916992
vn 0.38110352 0.088012695 -0.92041016
vn 3.5762787E-07 -0.34814453 -0.9375
vn 0.7011719 0.1270752 -0.7011719
vn 0.35864258 -0.34814453 -0.86621094
vn 2.9802322E-07 -0.4885254 -0.8725586
vn 0.70458984 0.088012695 -0.70458984
vn 0.9165039 0.1270752 -0.37963867
vn 0.33398438 -0.4885254 -0.80615234
vn 2.3841858E-07 -0.65722656 -0.75390625
vn 0.66308594 -0.34814453 -0.66308594
vn 0.92041016 0.088012695 -0.38110352
vn 0.9916992 0.1270752 2.3841858E-07
vn 0.99609375 0.088012695 2.3841858E-07
vn 0.86621094 -0.34814453 -0.35864258
vn 0.9375 -0.34814453 3.5762787E-07
vn 0.28857422 -0.65722656 -0.69628906
vn 4.7683716E-07 -0.62158203 -0.7832031
vn 0.6171875 -0.4885254 -0.6171875
vn 0.80615234 -0.4885254 -0.33398438
vn 0.8725586 -0.4885254 3.5762787E-07
vn 0.2998047 -0.62158203 -0.7236328
vn 4.172325E-07 0.40576172 -0.9140625
vn 0.5332031 -0.65722656 -0.5332031
vn 0.69628906 -0.65722656 -0.28857422
vn 0.75390625 -0.65722656 3.5762787E-07
vn 0.34985352 0.40576172 -0.8442383
vn 2.3841858E-07 0.6538086 -0.75683594
vn 0.55371094 -0.62158203 -0.55371094
vn 0.7236328 -0.62158203 -0.2998047
vn 0.7832031 -0.62158203 4.7683716E-07
vn 0.28955078 0.6538086 -0.69921875
vn -0 -0.042510986 -0.99902344
vn 0.6464844 0.40576172 -0.6464844
vn 0.8442383 0.40576172 -0.34985352
vn 0.9140625 0.40576172 5.364418E-07
vn 0.38232422 -0.042510986 -0.92285156
vn -0 -0.7885742 -0.6152344
vn 0.53515625 0.6538086 -0.53515625
vn 0.69921875 0.6538086 -0.28955078
vn 0.75683594 0.6538086 3.5762787E-07
vn 0.23535156 -0.7885742 -0.5683594
vn -0 -0.87890625 -0.47729492
vn 0.70654297 -0.042510986 -0.70654297
vn 0.92285156 -0.042510986 -0.38232422
vn 0.99902344 -0.042510986 2.9802322E-07
vn 0.18273926 -0.87890625 -0.4411621
vn -0 -0.96191406 -0.27368164
vn 0.10473633 -0.96191406 -0.2529297
vn 0.43481445 -0.7885742 -0.43481445
vn 0.5683594 -0.7885742 -0.23535156
vn 0.6152344 -0.7885742 2.9802322E-07
vn 0.33764648 -0.87890625 -0.33764648
vn 0.19348145 -0.96191406 -0.19348145
vn 0.4411621 -0.87890625 -0.18273926
vn 0.47729492 -0.87890625 4.7683716E-07
vn 0.2529297 -0.96191406 -0.10473633
vn 0.27368164 -0.96191406 0
vn 0.9165039 0.1270752 -0.37963867
vn 0.9916992 0.1270752 2.3841858E-07
vn 0.9790039 -0.20324707 0
vn 0.90478516 -0.20324707 -0.37475586
vn 0.7011719 0.1270752 -0.7011719
vn 0.8798828 0.30517578 -0.36450195
vn 0.95214844 0.30517578 2.9802322E-07
vn 0.6923828 -0.20324707 -0.6923828
vn 0.37963867 0.1270752 -0.9165039
vn 0.9033203 0.2097168 -0.37426758
vn 0.97753906 0.2097168 4.172325E-07
vn 0.9770508 0.21325684 2.9802322E-07
vn 0.67333984 0.30517578 -0.67333984
vn 0.37475586 -0.20324707 -0.90478516
vn -0 0.1270752 -0.9916992
vn -0 -0.20324707 -0.9790039
vn -1.1920929E-07 0.30517578 -0.95214844
vn 0.36450195 0.30517578 -0.8798828
vn -0 0.2097168 -0.97753906
vn 0.69140625 0.2097168 -0.69140625
vn 0.90283203 0.21325684 -0.3737793
vn 0.09844971 0.9951172 0
vn 0.09094238 0.9951172 -0.03765869
vn 0.37426758 0.2097168 -0.9033203
vn 0.69091797 0.21325684 -0.69091797
vn 0.06964111 0.9951172 -0.06958008
vn 0.3737793 0.21325684 -0.90283203
vn -0 0.21325684 -0.9770508
vn 0.03765869 0.9951172 -0.09094238
vn -0 0.9951172 -0.09844971
vn 0.29296875 -0.6435547 -0.70703125
vn 4.172325E-07 -0.009284973 -1
vn 2.3841858E-07 -0.6435547 -0.7651367
vn 0.38256836 -0.009284973 -0.9238281
vn 0.5410156 -0.6435547 -0.5410156
vn 0.3815918 0.07519531 -0.9213867
vn 6.556511E-07 0.07519531 -0.9970703
vn 0.7050781 0.07519531 -0.7050781
vn 0.70703125 -0.009284973 -0.70703125
vn 0.70703125 -0.6435547 -0.29296875
vn 0.9213867 0.07519531 -0.3815918
vn 0.9238281 -0.009284973 -0.38256836
vn 0.7651367 -0.6435547 -2.3841858E-07
vn 0.9970703 0.07519531 7.1525574E-07
vn 1 -0.009284973 5.9604645E-07
vn 0.29296875 -0.6435547 -0.70703125
vn 2.3841858E-07 -0.6435547 -0.7651367
vn -0 -0.99560547 -0.09222412
vn 0.035308838 -0.99560547 -0.08520508
vn 0.5410156 -0.6435547 -0.5410156
vn -0 -1 -1.1920929E-07
vn 0.06524658 -0.99560547 -0.06518555
vn 0.70703125 -0.6435547 -0.29296875
vn 0.08520508 -0.99560547 -0.035308838
vn 0.09222412 -0.99560547 -1.1324883E-06
vn 0.7651367 -0.6435547 -2.3841858E-07
g mesh_outer04_0
f 3/3/3 2/2/2 1/1/1
f 3/3/3 1/1/1 4/4/4
f 3/3/3 4/4/4 5/5/5
f 3/3/3 5/5/5 6/6/6
f 9/9/9 8/8/8 7/7/7
f 8/8/8 10/10/10 7/7/7
f 11/11/11 7/7/7 10/10/10
f 8/8/8 12/12/12 10/10/10
f 13/13/13 11/11/11 10/10/10
f 14/14/14 11/11/11 13/13/13
f 12/12/12 15/15/15 10/10/10
f 13/13/13 10/10/10 15/15/15
f 12/12/12 16/16/16 15/15/15
f 17/17/17 14/14/14 13/13/13
f 18/18/18 14/14/14 17/17/17
f 19/19/19 13/13/13 15/15/15
f 17/17/17 13/13/13 19/19/19
f 16/16/16 20/20/20 15/15/15
f 19/19/19 15/15/15 20/20/20
f 16/16/16 21/21/21 20/20/20
f 21/21/21 22/22/22 20/20/20
f 23/23/23 20/20/20 22/22/22
f 23/23/23 19/19/19 20/20/20
f 24/24/24 23/23/23 22/22/22
f 25/25/25 18/18/18 17/17/17
f 26/26/26 18/18/18 25/25/25
f 27/27/27 17/17/17 19/19/19
f 27/27/27 19/19/19 23/23/23
f 25/25/25 17/17/17 27/27/27
f 28/28/28 23/23/23 24/24/24
f 28/28/28 27/27/27 23/23/23
f 29/29/29 28/28/28 24/24/24
f 30/30/30 26/26/26 25/25/25
f 31/31/31 26/26/26 30/30/30
f 32/32/32 25/25/25 27/27/27
f 32/32/32 27/27/27 28/28/28
f 30/30/30 25/25/25 32/32/32
f 33/33/33 28/28/28 29/29/29
f 33/33/33 32/32/32 28/28/28
f 34/34/34 33/33/33 29/29/29
f 35/35/35 31/31/31 30/30/30
f 36/36/36 31/31/31 35/35/35
f 37/37/37 30/30/30 32/32/32
f 37/37/37 32/32/32 33/33/33
f 35/35/35 30/30/30 37/37/37
f 38/38/38 33/33/33 34/34/34
f 38/38/38 37/37/37 33/33/33
f 39/39/39 38/38/38 34/34/34
f 40/40/40 36/36/36 35/35/35
f 41/41/41 36/36/36 40/40/40
f 42/42/42 35/35/35 37/37/37
f 42/42/42 37/37/37 38/38/38
f 40/40/40 35/35/35 42/42/42
f 43/43/43 38/38/38 39/39/39
f 43/43/43 42/42/42 38/38/38
f 44/44/44 43/43/43 39/39/39
f 45/45/45 41/41/41 40/40/40
f 46/46/46 41/41/41 45/45/45
f 47/47/47 40/40/40 42/42/42
f 47/47/47 42/42/42 43/43/43
f 45/45/45 40/40/40 47/47/47
f 48/48/48 43/43/43 44/44/44
f 48/48/48 47/47/47 43/43/43
f 49/49/49 48/48/48 44/44/44
f 50/50/50 46/46/46 45/45/45
f 51/51/51 46/46/46 50/50/50
f 52/52/52 45/45/45 47/47/47
f 52/52/52 47/47/47 48/48/48
f 50/50/50 45/45/45 52/52/52
f 53/53/53 48/48/48 49/49/49
f 53/53/53 52/52/52 48/48/48
f 54/54/54 53/53/53 49/49/49
f 55/55/55 51/51/51 50/50/50
f 56/56/56 51/51/51 55/55/55
f 57/57/57 56/56/56 55/55/55
f 58/58/58 50/50/50 52/52/52
f 58/58/58 52/52/52 53/53/53
f 55/55/55 50/50/50 58/58/58
f 59/59/59 53/53/53 54/54/54
f 59/59/59 58/58/58 53/53/53
f 60/60/60 59/59/59 54/54/54
f 57/57/57 55/55/55 61/61/61
f 61/61/61 55/55/55 58/58/58
f 61/61/61 58/58/58 59/59/59
f 62/62/62 57/57/57 61/61/61
f 63/63/63 59/59/59 60/60/60
f 63/63/63 61/61/61 59/59/59
f 62/62/62 61/61/61 63/63/63
f 64/64/64 63/63/63 60/60/60
f 65/65/65 62/62/62 63/63/63
f 65/65/65 63/63/63 64/64/64
f 66/66/66 65/65/65 64/64/64
f 69/69/69 68/68/68 67/67/67
f 70/70/70 69/69/69 67/67/67
f 70/70/70 67/67/67 71/71/71
f 70/70/70 72/72/72 69/69/69
f 72/72/72 73/73/73 69/69/69
f 74/74/74 70/70/70 71/71/71
f 74/74/74 71/71/71 75/75/75
f 72/72/72 76/76/76 73/73/73
f 76/76/76 77/77/77 73/73/73
f 78/78/78 77/77/77 76/76/76
f 79/79/79 72/72/72 70/70/70
f 74/74/74 79/79/79 70/70/70
f 80/80/80 74/74/74 75/75/75
f 80/80/80 75/75/75 81/81/81
f 82/82/82 80/80/80 81/81/81
f 82/82/82 83/83/83 80/80/80
f 80/80/80 84/84/84 74/74/74
f 83/83/83 84/84/84 80/80/80
f 84/84/84 79/79/79 74/74/74
f 83/83/83 85/85/85 84/84/84
f 86/86/86 76/76/76 72/72/72
f 79/79/79 86/86/86 72/72/72
f 87/87/87 78/78/78 76/76/76
f 87/87/87 76/76/76 86/86/86
f 78/78/78 87/87/87 88/88/88
f 87/87/87 89/89/89 88/88/88
f 84/84/84 90/90/90 79/79/79
f 85/85/85 90/90/90 84/84/84
f 90/90/90 86/86/86 79/79/79
f 87/87/87 91/91/91 89/89/89
f 91/91/91 87/87/87 86/86/86
f 91/91/91 86/86/86 90/90/90
f 91/91/91 92/92/92 89/89/89
f 93/93/93 90/90/90 85/85/85
f 93/93/93 91/91/91 90/90/90
f 91/91/91 93/93/93 92/92/92
f 94/94/94 93/93/93 85/85/85
f 93/93/93 95/95/95 92/92/92
f 93/93/93 94/94/94 95/95/95
f 94/94/94 96/96/96 95/95/95
f 99/99/99 98/98/98 97/97/97
f 98/98/98 100/100/100 97/97/97
f 97/97/97 100/100/100 101/101/101
f 102/102/102 100/100/100 98/98/98
f 103/103/103 102/102/102 98/98/98
f 102/102/102 104/104/104 100/100/100
f 100/100/100 105/105/105 101/101/101
f 104/104/104 105/105/105 100/100/100
f 101/101/101 105/105/105 106/106/106
f 104/104/104 107/107/107 105/105/105
f 105/105/105 108/108/108 106/106/106
f 107/107/107 108/108/108 105/105/105
f 106/106/106 108/108/108 109/109/109
f 107/107/107 110/110/110 108/108/108
f 108/108/108 111/111/111 109/109/109
f 110/110/110 111/111/111 108/108/108
f 114/114/114 113/113/113 112/112/112
f 115/115/115 114/114/114 112/112/112
f 115/115/115 112/112/112 116/116/116
f 115/115/115 117/117/117 114/114/114
f 118/118/118 115/115/115 116/116/116
f 118/118/118 117/117/117 115/115/115
f 118/118/118 116/116/116 119/119/119
f 120/120/120 117/117/117 118/118/118
f 120/120/120 118/118/118 119/119/119
f 121/121/121 117/117/117 120/120/120
f 120/120/120 119/119/119 122/122/122
f 121/121/121 120/120/120 122/122/122
