g Mouth4_Mesh
v 0.05533054 0.6752943 0.3799972
v 0.036165696 0.6776511 0.3799972
v 0.0400296 0.66077137 0.3799972
v 0.034173507 0.65941656 0.3799972
v 0.029848099 0.6779444 0.3799972
v 0.029046591 0.6568464 0.3799972
v 0.02527275 0.67810255 0.3799972
v 0.020772552 0.6481599 0.3799972
v 0.016841048 0.6798666 0.3799972
v 0.00017108917 0.6825873 0.3799972
v 0.0072047804 0.64708847 0.3799972
v -0.014076616 0.67381567 0.3799972
v -0.006530418 0.64238906 0.3799972
v -0.02190998 0.6734908 0.3799972
v -0.016436843 0.63967323 0.3799972
v -0.030079307 0.67400855 0.3799972
v -0.027108802 0.6394694 0.3799972
v -0.043112755 0.66178924 0.3799972
v -0.041787032 0.64768815 0.3799972
v -0.05263046 0.6497734 0.3799972
v -0.05263046 0.6497734 0.3799972
v -0.043112755 0.66178924 0.3799972
v -0.041813575 0.6536023 0.38232055
v -0.041787032 0.64768815 0.3799972
v -0.027108802 0.6394694 0.3799972
v -0.028904399 0.6556816 0.38453513
v -0.030079307 0.67400855 0.3799972
v -0.0191612 0.6562909 0.38521335
v -0.02190998 0.6734908 0.3799972
v -0.016436843 0.63967323 0.3799972
v -0.014076616 0.67381567 0.3799972
v -0.010344183 0.6569645 0.38526824
v -0.006530418 0.64238906 0.3799972
v 0.00017108917 0.6825873 0.3799972
v 0.0039724857 0.663437 0.38522148
v 0.0072047804 0.64708847 0.3799972
v 0.016841048 0.6798666 0.3799972
v 0.01917202 0.6649807 0.3847537
v 0.020772552 0.6481599 0.3799972
v 0.029046591 0.6568464 0.3799972
v 0.027488211 0.6675416 0.3842549
v 0.02527275 0.67810255 0.3799972
v 0.034173507 0.65941656 0.3799972
v 0.032000847 0.668466 0.3839737
v 0.029848099 0.6779444 0.3799972
v 0.0400296 0.66077137 0.3799972
v 0.03805994 0.6699042 0.3830227
v 0.036165696 0.6776511 0.3799972
v 0.05533054 0.6752943 0.3799972
vt 0.38357297 0.85335326
vt 0.35922736 0.8633032
vt 0.35922202 0.8380862
vt 0.35101175 0.83751464
vt 0.3509678 0.8659611
vt 0.34342358 0.8354515
vt 0.34498 0.8677492
vt 0.32950783 0.82676786
vt 0.3343003 0.8727617
vt 0.31255877 0.88112056
vt 0.31103978 0.8288403
vt 0.2901337 0.87350124
vt 0.29117417 0.8269592
vt 0.2792207 0.8755195
vt 0.27612567 0.82712483
vt 0.26810938 0.8788063
vt 0.2625866 0.83020395
vt 0.24627453 0.86604655
vt 0.243664 0.84616834
vt 0.2293557 0.8524605
vt 0.2293557 0.8524607
vt 0.24627453 0.86604655
vt 0.24559002 0.854779
vt 0.243664 0.8461683
vt 0.2625866 0.8301184
vt 0.2636201 0.85122883
vt 0.26810938 0.8788063
vt 0.27746034 0.84928346
vt 0.2792207 0.87551934
vt 0.27612567 0.8271248
vt 0.2901337 0.87350124
vt 0.2898546 0.8492085
vt 0.29117417 0.8269592
vt 0.31255877 0.8811206
vt 0.31165472 0.8515116
vt 0.31103978 0.82884026
vt 0.3343003 0.8727617
vt 0.33220214 0.85071707
vt 0.32950783 0.82676786
vt 0.34342358 0.8354515
vt 0.34397364 0.8517183
vt 0.34498 0.8677492
vt 0.35101175 0.83751464
vt 0.35020587 0.85148394
vt 0.3509678 0.8659611
vt 0.35922202 0.8380862
vt 0.35871512 0.8516005
vt 0.35922736 0.8633032
vt 0.38357297 0.85335326
vn 1.8200351E-06 0 -1
vn 6.083873E-07 0 -1
vn 6.03747E-07 0 -1
vn 1.3695767E-06 0 -1
vn 1.5632396E-06 0 -1
vn -4.9974983E-07 0 -1
vn -3.589329E-07 0 -1
vn -3.0250388E-07 0 -1
vn -3.3803263E-07 0 -1
vn -0 0 -1
vn -0 0 -1
vn -0 0 -1
vn -0 0 -1
vn -0 0 -1
vn -0 0 -1
vn -0 0 -1
vn -0 0 -1
vn -0 0 -1
vn -0 0 -1
vn -0 0 -1
vn -0.20597747 -0.011845858 0.97848505
vn -0.21338095 0.22651152 0.9503479
vn -0.18937951 -0.018171819 0.9817359
vn -0.1339238 -0.3118845 0.94063413
vn -0.063144945 -0.29358777 0.95384425
vn -0.109037645 -0.010815897 0.99397874
vn -0.108812824 0.24748941 0.96276104
vn -0.007715971 -0.022387002 0.99971956
vn -0.0305009 0.2735157 0.96138376
vn 0.015000544 -0.297613 0.95456874
vn -0.09741524 0.2644352 0.9594708
vn 0.005719513 -0.037108023 0.9992949
vn 0.09245255 -0.30030543 0.94935197
vn -0.0566214 0.2689034 0.9615015
vn -0.0024639694 0.038490146 0.99925596
vn 0.080151506 -0.28876257 0.95403975
vn 0.02197467 0.29604256 0.9549219
vn 0.06820669 0.00011263018 0.9976712
vn 0.08220677 -0.28287315 0.9556279
vn 0.20639381 -0.29579565 0.9326878
vn 0.1115971 0.017118203 0.9936061
vn 0.008491947 0.34601444 0.9381907
vn 0.15321262 -0.34027982 0.92775834
vn 0.09452879 0.0066443854 0.9954999
vn 0.014587299 0.3813737 0.92430586
vn 0.19722575 -0.29200408 0.93586093
vn 0.13831075 0.023352113 0.9901135
vn 0.040340316 0.37861466 0.92467487
vn 0.16448605 0.026410498 0.98602575
g Mouth4_Mesh_0
f 3/3/3 2/2/2 1/1/1
f 3/3/3 4/4/4 2/2/2
f 4/4/4 5/5/5 2/2/2
f 4/4/4 6/6/6 5/5/5
f 6/6/6 7/7/7 5/5/5
f 6/6/6 8/8/8 7/7/7
f 8/8/8 9/9/9 7/7/7
f 10/10/10 9/9/9 8/8/8
f 11/11/11 10/10/10 8/8/8
f 12/12/12 10/10/10 11/11/11
f 13/13/13 12/12/12 11/11/11
f 14/14/14 12/12/12 13/13/13
f 15/15/15 14/14/14 13/13/13
f 16/16/16 14/14/14 15/15/15
f 17/17/17 16/16/16 15/15/15
f 18/18/18 16/16/16 17/17/17
f 19/19/19 18/18/18 17/17/17
f 20/20/20 18/18/18 19/19/19
f 23/23/23 22/22/22 21/21/21
f 23/23/23 21/21/21 24/24/24
f 23/23/23 24/24/24 25/25/25
f 23/23/23 26/26/26 22/22/22
f 26/26/26 23/23/23 25/25/25
f 26/26/26 27/27/27 22/22/22
f 28/28/28 26/26/26 25/25/25
f 26/26/26 28/28/28 27/27/27
f 28/28/28 29/29/29 27/27/27
f 30/30/30 28/28/28 25/25/25
f 31/31/31 29/29/29 28/28/28
f 32/32/32 28/28/28 30/30/30
f 32/32/32 31/31/31 28/28/28
f 33/33/33 32/32/32 30/30/30
f 34/34/34 31/31/31 32/32/32
f 35/35/35 32/32/32 33/33/33
f 35/35/35 34/34/34 32/32/32
f 36/36/36 35/35/35 33/33/33
f 37/37/37 34/34/34 35/35/35
f 38/38/38 35/35/35 36/36/36
f 38/38/38 37/37/37 35/35/35
f 39/39/39 38/38/38 36/36/36
f 39/39/39 40/40/40 38/38/38
f 38/38/38 41/41/41 37/37/37
f 40/40/40 41/41/41 38/38/38
f 41/41/41 42/42/42 37/37/37
f 40/40/40 43/43/43 41/41/41
f 41/41/41 44/44/44 42/42/42
f 43/43/43 44/44/44 41/41/41
f 44/44/44 45/45/45 42/42/42
f 43/43/43 46/46/46 44/44/44
f 44/44/44 47/47/47 45/45/45
f 46/46/46 47/47/47 44/44/44
f 47/47/47 48/48/48 45/45/45
f 46/46/46 49/49/49 47/47/47
f 47/47/47 49/49/49 48/48/48
