g Mouth3_Mesh
v 0.07764885 0.6616661 0.33000046
v 0.07159721 0.67231166 0.33000046
v 0.07218193 0.64935344 0.33000046
v 0.05913345 0.68336767 0.33000046
v 0.06520428 0.6336386 0.33000046
v 0.053469084 0.63056564 0.33000046
v 0.03384388 0.6912477 0.33000046
v 0.038750574 0.6264725 0.33000046
v 0.00056583405 0.704017 0.33000046
v 0.021145439 0.62045205 0.33000046
v -0.012413826 0.69588155 0.33000046
v -0.023436317 0.6902697 0.33000046
v 0.0003760147 0.6192793 0.33000046
v -0.04025894 0.6909 0.33000046
v -0.017875442 0.6187864 0.33000046
v -0.051818848 0.68652624 0.33000046
v -0.034211922 0.614451 0.33000046
v -0.04844242 0.61929303 0.33000046
v -0.060668256 0.66567093 0.33000046
v -0.058795698 0.62458503 0.33000046
v -0.07273697 0.6457373 0.33000046
v -0.06873016 0.6276665 0.33000046
v 0.03384388 0.6912477 0.33000046
v 0.05913345 0.68336767 0.33000046
v 0.061599083 0.66255593 0.33440918
v 0.042773135 0.66219884 0.33560115
v 0.06520428 0.6336386 0.33000046
v 0.00056583405 0.704017 0.33000046
v 0.053469084 0.63056564 0.33000046
v 0.024578283 0.6610451 0.33573303
v 0.038750574 0.6264725 0.33000046
v 0.021145439 0.62045205 0.33000046
v 0.0059030484 0.6576661 0.33687285
v -0.012413826 0.69588155 0.33000046
v 0.0003760147 0.6192793 0.33000046
v -0.01131228 0.6555138 0.33761966
v -0.023436317 0.6902697 0.33000046
v -0.017875442 0.6187864 0.33000046
v -0.028639201 0.6532103 0.3381261
v -0.04025894 0.6909 0.33000046
v -0.051818848 0.68652624 0.33000046
v -0.034211922 0.614451 0.33000046
v -0.041377466 0.6499103 0.33655718
v -0.060668256 0.66567093 0.33000046
v -0.053789195 0.64535064 0.3343605
v -0.04844242 0.61929303 0.33000046
v -0.07273697 0.6457373 0.33000046
v -0.062436674 0.63784707 0.33271593
v -0.058795698 0.62458503 0.33000046
v -0.06873016 0.6276665 0.33000046
v 0.061599083 0.66255593 0.33440918
v 0.07218193 0.64935344 0.33000046
v 0.07063175 0.6619998 0.33200675
v 0.05913345 0.68336767 0.33000046
v 0.07764885 0.6616661 0.33000046
v 0.07159721 0.67231166 0.33000046
vt 0.361449 0.93971866
vt 0.35501128 0.9512856
vt 0.35706776 0.92509884
vt 0.34150067 0.96330655
vt 0.3486452 0.90758896
vt 0.33528444 0.90452236
vt 0.3142326 0.9717798
vt 0.32029265 0.9006202
vt 0.2783565 0.98515236
vt 0.3014381 0.89389294
vt 0.26427642 0.97664124
vt 0.25231034 0.9707302
vt 0.27910838 0.8920977
vt 0.23410292 0.97067094
vt 0.2593834 0.89122516
vt 0.2217598 0.96561545
vt 0.24157 0.8869611
vt 0.22615066 0.89226264
vt 0.21215555 0.9431461
vt 0.2150028 0.8980795
vt 0.19982739 0.92116374
vt 0.20434049 0.9017219
vt 0.3142326 0.9717798
vt 0.34150076 0.96330655
vt 0.34367973 0.9403542
vt 0.32411027 0.93852997
vt 0.3486452 0.90758896
vt 0.2783565 0.98515236
vt 0.33528435 0.90452224
vt 0.3058211 0.93637645
vt 0.32029277 0.90062034
vt 0.3014381 0.89389294
vt 0.28539836 0.93296903
vt 0.26427636 0.9766412
vt 0.27910858 0.8920977
vt 0.2666537 0.9306948
vt 0.2523105 0.97073036
vt 0.25938347 0.891225
vt 0.2476806 0.9296989
vt 0.23410292 0.97067076
vt 0.22175992 0.9656155
vt 0.24156995 0.8869613
vt 0.23398118 0.9261328
vt 0.21215545 0.9431461
vt 0.22070892 0.9208585
vt 0.22615074 0.89226264
vt 0.19982739 0.92116374
vt 0.21136388 0.91281897
vt 0.21500283 0.8980795
vt 0.20434041 0.9017217
vt 0.34367973 0.9403542
vt 0.35706776 0.92509884
vt 0.35569847 0.93941486
vt 0.34150076 0.96330655
vt 0.361449 0.93971866
vt 0.3550114 0.9512858
vn -0 0 -1
vn 4.0681175E-06 0 -1
vn 4.1024887E-06 0 -1
vn 3.2347438E-07 0 -1
vn 2.6402734E-07 0 -1
vn -2.2583494E-07 0 -1
vn -2.3666126E-07 0 -1
vn -6.048446E-07 0 -1
vn -7.805851E-07 0 -1
vn -6.515973E-07 0 -1
vn -6.002581E-07 0 -1
vn -0 0 -1
vn -0 0 -1
vn 7.2130587E-07 0 -1
vn 5.858727E-07 0 -1
vn 1.092555E-06 0 -1
vn 9.465723E-07 0 -1
vn -3.010433E-07 0 -1
vn -2.5782364E-07 0 -1
vn -1.7387719E-06 0 -1
vn -1.6998132E-06 0 -1
vn -4.563669E-06 0 -1
vn 0.046284165 0.18193711 0.9822203
vn 0.078968704 0.21001226 0.9745044
vn 0.10567881 0.036093406 0.99374515
vn 0.046404015 0.038866125 0.9981664
vn 0.07882325 -0.14649957 0.98606527
vn 0.0027158451 0.15460391 0.98797274
vn 0.041480754 -0.15430458 0.98715216
vn 0.035626844 0.028195405 0.9989673
vn 0.04999255 -0.15127687 0.9872264
vn 0.054128643 -0.16078182 0.98550457
vn 0.016498901 -0.010666974 0.99980706
vn -0.020224787 0.16118455 0.9867171
vn 0.033268694 -0.19163403 0.98090243
vn 0.01208764 -0.010727618 0.99986935
vn -0.008794304 0.20084663 0.9795832
vn 0.018290432 -0.20705609 0.97815806
vn -0.014690672 -0.0040207743 0.999884
vn -0.053555932 0.18785207 0.98073614
vn -0.14610459 0.14795019 0.9781432
vn -0.027768094 -0.20035915 0.9793289
vn -0.10271773 -0.030445274 0.9942445
vn -0.23259251 0.11254925 0.9660401
vn -0.1653195 -0.021165984 0.986013
vn -0.07929289 -0.19044723 0.9784898
vn -0.23051108 0.08877493 0.96901166
vn -0.16713245 -0.040238705 0.9851129
vn -0.063221164 -0.19396022 0.9789701
vn -0.17271277 -0.15277573 0.97305185
vn 0.10567881 0.036093406 0.99374515
vn 0.25511563 -0.11672157 0.95983964
vn 0.24695526 0.02640958 0.9686669
vn 0.078968704 0.21001226 0.9745044
vn 0.27470866 -0.004320033 0.96151775
vn 0.22214782 0.2041305 0.95340496
g Mouth3_Mesh_0
f 3/3/3 2/2/2 1/1/1
f 4/4/4 2/2/2 3/3/3
f 5/5/5 4/4/4 3/3/3
f 5/5/5 6/6/6 4/4/4
f 6/6/6 7/7/7 4/4/4
f 6/6/6 8/8/8 7/7/7
f 8/8/8 9/9/9 7/7/7
f 8/8/8 10/10/10 9/9/9
f 10/10/10 11/11/11 9/9/9
f 12/12/12 11/11/11 10/10/10
f 13/13/13 12/12/12 10/10/10
f 14/14/14 12/12/12 13/13/13
f 15/15/15 14/14/14 13/13/13
f 16/16/16 14/14/14 15/15/15
f 17/17/17 16/16/16 15/15/15
f 17/17/17 18/18/18 16/16/16
f 18/18/18 19/19/19 16/16/16
f 18/18/18 20/20/20 19/19/19
f 20/20/20 21/21/21 19/19/19
f 20/20/20 22/22/22 21/21/21
f 25/25/25 24/24/24 23/23/23
f 26/26/26 25/25/25 23/23/23
f 27/27/27 25/25/25 26/26/26
f 26/26/26 23/23/23 28/28/28
f 29/29/29 27/27/27 26/26/26
f 29/29/29 26/26/26 30/30/30
f 30/30/30 26/26/26 28/28/28
f 31/31/31 29/29/29 30/30/30
f 31/31/31 30/30/30 32/32/32
f 30/30/30 28/28/28 33/33/33
f 30/30/30 33/33/33 32/32/32
f 28/28/28 34/34/34 33/33/33
f 32/32/32 33/33/33 35/35/35
f 33/33/33 34/34/34 36/36/36
f 33/33/33 36/36/36 35/35/35
f 34/34/34 37/37/37 36/36/36
f 35/35/35 36/36/36 38/38/38
f 36/36/36 37/37/37 39/39/39
f 36/36/36 39/39/39 38/38/38
f 37/37/37 40/40/40 39/39/39
f 39/39/39 40/40/40 41/41/41
f 38/38/38 39/39/39 42/42/42
f 43/43/43 39/39/39 41/41/41
f 39/39/39 43/43/43 42/42/42
f 43/43/43 41/41/41 44/44/44
f 43/43/43 45/45/45 42/42/42
f 45/45/45 43/43/43 44/44/44
f 45/45/45 46/46/46 42/42/42
f 45/45/45 44/44/44 47/47/47
f 45/45/45 48/48/48 46/46/46
f 48/48/48 45/45/45 47/47/47
f 48/48/48 49/49/49 46/46/46
f 48/48/48 47/47/47 50/50/50
f 48/48/48 50/50/50 49/49/49
f 27/27/27 52/52/52 51/51/51
f 52/52/52 53/53/53 51/51/51
f 51/51/51 53/53/53 54/54/54
f 52/52/52 55/55/55 53/53/53
f 53/53/53 56/56/56 54/54/54
f 53/53/53 55/55/55 56/56/56
