g odoriba_sideL_support_geo08
v -0.007115037 3.8881454 -0.035303954
v -0.023590866 3.8881454 0.02720581
v -0.023590866 -8.106728E-10 0.02720581
v -0.007115037 -8.106728E-10 -0.035303954
v 0.0071159196 -8.106728E-10 0.035301514
v -0.023590866 -8.106728E-10 0.02720581
v -0.023590866 3.8881454 0.02720581
v 0.0071159196 3.8881454 0.035301514
v -0.007115037 -8.106728E-10 -0.035303954
v 0.02359175 -8.106728E-10 -0.027208252
v 0.02359175 3.8881454 -0.027208252
v -0.007115037 3.8881454 -0.035303954
vt 0.5175781 0.9921875
vt 0.48242188 0.9921875
vt 0.48242188 0.0078125
vt 0.5175781 0.0078125
vt 0.90478516 0.041900635
vt 0.91796875 0.041900635
vt 0.91796875 0.24475098
vt 0.90478516 0.24475098
vt 0.91796875 0.041900635
vt 0.90478516 0.041900635
vt 0.90478516 0.24475098
vt 0.91796875 0.24475098
vn -0.9667969 0 -0.2548828
vn -0.9667969 0 -0.2548828
vn -0.9667969 0 -0.2548828
vn -0.9667969 0 -0.2548828
vn -0.2548828 0 0.9667969
vn -0.2548828 0 0.9667969
vn -0.2548828 0 0.9667969
vn -0.2548828 0 0.9667969
vn 0.2548828 0 -0.9667969
vn 0.2548828 0 -0.9667969
vn 0.2548828 0 -0.9667969
vn 0.2548828 0 -0.9667969
g odoriba_sideL_support_geo08_0
f 3/3/3 2/2/2 1/1/1
f 4/4/4 3/3/3 1/1/1
f 7/7/7 6/6/6 5/5/5
f 8/8/8 7/7/7 5/5/5
f 11/11/11 10/10/10 9/9/9
f 12/12/12 11/11/11 9/9/9
