g odoriba_sideR_support_geo01
v -0.027125273 2.4962919 -0.023686811
v -0.027125273 -8.1067636E-10 -0.023686811
v 0.035326205 -8.1067636E-10 -0.0069900355
v 0.035326205 2.4962919 -0.0069900355
v 0.027125215 -8.1067636E-10 0.023688676
v 0.027125215 2.4962919 0.023688676
v 0.035326205 2.4962919 -0.0069900355
v 0.035326205 -8.1067636E-10 -0.0069900355
v -0.027125273 -8.1067636E-10 -0.023686811
v -0.027125273 2.4962919 -0.023686811
v -0.03532626 2.4962919 0.0069918977
v -0.03532626 -8.1067636E-10 0.0069918977
vt 0.5175781 0.82421875
vt 0.5175781 0.17565918
vt 0.48242188 0.17565918
vt 0.48242188 0.82421875
vt 0.8984375 0.10900879
vt 0.8984375 0.17773438
vt 0.9248047 0.17773438
vt 0.9248047 0.10900879
vt 0.9248047 0.10900879
vt 0.9248047 0.17773438
vt 0.8984375 0.17773438
vt 0.8984375 0.10900879
vn 0.25830078 0 -0.9663086
vn 0.25830078 0 -0.9663086
vn 0.25830078 0 -0.9663086
vn 0.25830078 0 -0.9663086
vn 0.9663086 0 0.25830078
vn 0.9663086 0 0.25830078
vn 0.9663086 0 0.25830078
vn 0.9663086 0 0.25830078
vn -0.9663086 0 -0.25830078
vn -0.9663086 0 -0.25830078
vn -0.9663086 0 -0.25830078
vn -0.9663086 0 -0.25830078
g odoriba_sideR_support_geo01_0
f 3/3/3 2/2/2 1/1/1
f 4/4/4 3/3/3 1/1/1
f 7/7/7 6/6/6 5/5/5
f 8/8/8 7/7/7 5/5/5
f 11/11/11 10/10/10 9/9/9
f 12/12/12 11/11/11 9/9/9
