g odoriba_sideL_support_geo03
v 0.027125243 2.5538208 -0.023685493
v -0.035325926 2.5538208 -0.0069911573
v -0.035325926 -8.106728E-10 -0.0069911573
v 0.027125243 -8.106728E-10 -0.023685493
v -0.027125243 -8.106728E-10 0.023687553
v -0.035325926 -8.106728E-10 -0.0069911573
v -0.035325926 2.5538208 -0.0069911573
v -0.027125243 2.5538208 0.023687553
v 0.027125243 -8.106728E-10 -0.023685493
v 0.035325926 -8.106728E-10 0.0069932174
v 0.035325926 2.5538208 0.0069932174
v 0.027125243 2.5538208 -0.023685493
vt 0.48217773 0.17602539
vt 0.5180664 0.17602539
vt 0.5180664 0.82421875
vt 0.48217773 0.82421875
vt 0.9248047 0.1776123
vt 0.8979492 0.1776123
vt 0.8979492 0.10900879
vt 0.9248047 0.10900879
vt 0.8979492 0.1776123
vt 0.9248047 0.1776123
vt 0.9248047 0.10900879
vt 0.8979492 0.10900879
vn -0.25830078 0 -0.9663086
vn -0.25830078 0 -0.9663086
vn -0.25830078 0 -0.9663086
vn -0.25830078 0 -0.9663086
vn -0.9663086 0 0.25830078
vn -0.9663086 0 0.25830078
vn -0.9663086 0 0.25830078
vn -0.9663086 0 0.25830078
vn 0.9663086 0 -0.25830078
vn 0.9663086 0 -0.25830078
vn 0.9663086 0 -0.25830078
vn 0.9663086 0 -0.25830078
g odoriba_sideL_support_geo03_0
f 3/3/3 2/2/2 1/1/1
f 4/4/4 3/3/3 1/1/1
f 7/7/7 6/6/6 5/5/5
f 8/8/8 7/7/7 5/5/5
f 11/11/11 10/10/10 9/9/9
f 12/12/12 11/11/11 9/9/9
