g odoriba_ground_geo
v -15.506339 0 -5.5040414E-07
v 1.953474E-13 0 6.7029896E-07
v -14.747403 0 4.791723
v -12.544892 0 9.114395
v -9.114397 0 12.5448885
v -4.791721 0 14.747403
v -1.244833E-07 0 15.506334
v -3.092069 0 15.0166
v 4.791721 0 14.747403
v 9.114394 0 12.5448885
v 12.544887 0 9.114395
v 14.747398 0 4.791722
v 15.506331 0 1.891002E-06
vt 6.703125 -2.1894531
vt 0.5 -2.1894531
vt 6.3984375 -0.27197266
vt 5.5195312 1.4570312
vt 4.1445312 2.8300781
vt 2.4160156 3.7109375
vt 0.5 4.015625
vt 1.7363281 3.8183594
vt -1.4169922 3.7109375
vt -3.1464844 2.8300781
vt -4.5195312 1.4570312
vt -5.3984375 -0.27197266
vt -5.703125 -2.1894531
vn -0 1 0
vn -0 1 0
vn -0 1 0
vn -0 1 0
vn -0 1 0
vn -0 1 0
vn -0 1 0
vn -0 1 0
vn -0 1 0
vn -0 1 0
vn -0 1 0
vn -0 1 0
vn -0 1 0
g odoriba_ground_geo_0
f 3/3/3 2/2/2 1/1/1
f 4/4/4 2/2/2 3/3/3
f 5/5/5 2/2/2 4/4/4
f 6/6/6 2/2/2 5/5/5
f 7/7/7 2/2/2 6/6/6
f 8/8/8 7/7/7 6/6/6
f 9/9/9 2/2/2 7/7/7
f 10/10/10 2/2/2 9/9/9
f 11/11/11 2/2/2 10/10/10
f 12/12/12 2/2/2 11/11/11
f 13/13/13 2/2/2 12/12/12
