g odoriba_sideL_support_geo07
v 0.0033288572 3.6003582 -0.035855394
v -0.030415038 3.6003582 0.019281326
v -0.030415038 -8.106657E-10 0.019281326
v 0.0033288572 -8.106657E-10 -0.035855394
v -0.0033288572 -8.106657E-10 0.035858475
v -0.030415038 -8.106657E-10 0.019281326
v -0.030415038 3.6003582 0.019281326
v -0.0033288572 3.6003582 0.035858475
v 0.0033288572 -8.106657E-10 -0.035855394
v 0.030415038 -8.106657E-10 -0.019283127
v 0.030415038 3.6003582 -0.019283127
v 0.0033288572 3.6003582 -0.035855394
vt 0.5175781 0.96777344
vt 0.48242188 0.96777344
vt 0.48242188 0.032165527
vt 0.5175781 0.032165527
vt 0.90185547 0.07598877
vt 0.92089844 0.07598877
vt 0.92089844 0.21069336
vt 0.90185547 0.21069336
vt 0.92089844 0.07598877
vt 0.90185547 0.07598877
vt 0.90185547 0.21069336
vt 0.92089844 0.21069336
vn -0.85302734 0 -0.52197266
vn -0.85302734 0 -0.52197266
vn -0.85302734 0 -0.52197266
vn -0.85302734 0 -0.52197266
vn -0.52197266 0 0.85302734
vn -0.52197266 0 0.85302734
vn -0.52197266 0 0.85302734
vn -0.52197266 0 0.85302734
vn 0.52197266 0 -0.85302734
vn 0.52197266 0 -0.85302734
vn 0.52197266 0 -0.85302734
vn 0.52197266 0 -0.85302734
g odoriba_sideL_support_geo07_0
f 3/3/3 2/2/2 1/1/1
f 4/4/4 3/3/3 1/1/1
f 7/7/7 6/6/6 5/5/5
f 8/8/8 7/7/7 5/5/5
f 11/11/11 10/10/10 9/9/9
f 12/12/12 11/11/11 9/9/9
