g odoriba_sideR_support_geo04
v -0.014645504 2.7283337 -0.032898422
v -0.014645504 -8.106704E-10 -0.032898422
v 0.034990724 -8.106704E-10 0.008517593
v 0.034990724 2.7283337 0.008517593
v 0.014646488 -8.106704E-10 0.032899916
v 0.014646488 2.7283337 0.032899916
v 0.034990724 2.7283337 0.008517593
v 0.034990724 -8.106704E-10 0.008517593
v -0.014645504 -8.106704E-10 -0.032898422
v -0.014645504 2.7283337 -0.032898422
v -0.03498974 2.7283337 -0.008513656
v -0.03498974 -8.106704E-10 -0.008513656
vt 0.5175781 0.84033203
vt 0.5175781 0.15991211
vt 0.48242188 0.15991211
vt 0.48242188 0.84033203
vt 0.89990234 0.10296631
vt 0.89990234 0.18371582
vt 0.92333984 0.18371582
vt 0.92333984 0.10296631
vt 0.92333984 0.10296631
vt 0.92333984 0.18371582
vt 0.89990234 0.18371582
vt 0.89990234 0.10296631
vn 0.640625 0 -0.7675781
vn 0.640625 0 -0.7675781
vn 0.640625 0 -0.7675781
vn 0.640625 0 -0.7675781
vn 0.7680664 0 0.640625
vn 0.7680664 0 0.640625
vn 0.7680664 0 0.640625
vn 0.7680664 0 0.640625
vn -0.7680664 0 -0.640625
vn -0.7680664 0 -0.640625
vn -0.7680664 0 -0.640625
vn -0.7680664 0 -0.640625
g odoriba_sideR_support_geo04_0
f 3/3/3 2/2/2 1/1/1
f 4/4/4 3/3/3 1/1/1
f 7/7/7 6/6/6 5/5/5
f 8/8/8 7/7/7 5/5/5
f 11/11/11 10/10/10 9/9/9
f 12/12/12 11/11/11 9/9/9
