g parts_geo03
v 0.39121905 -0.06357372 -3.3626893E-08
v 0.40717933 -0.06357372 -0.015961947
v 0.40717933 0.14239797 -0.015961947
v 0.39121905 0.14239797 -3.3626893E-08
v 0.40717933 0.14239797 0.01596188
v 0.4231397 0.14239797 -3.3626893E-08
v 0.4231397 -0.06357372 -3.3626893E-08
v 0.40717933 -0.06357372 0.01596188
v 0.40717933 -0.06357372 -0.015961947
v 0.4231397 -0.06357372 -3.3626893E-08
v 0.4231397 0.14239797 -3.3626893E-08
v 0.40717933 0.14239797 -0.015961947
v 0.40717933 -0.06357372 0.01596188
v 0.39121905 -0.06357372 -3.3626893E-08
v 0.39121905 0.14239797 -3.3626893E-08
v 0.40717933 0.14239797 0.01596188
vt 0.5332031 0.4399414
vt 0.5332031 0.4272461
vt 0.4165039 0.4272461
vt 0.4165039 0.4399414
vt 0.4165039 0.40161133
vt 0.4165039 0.41430664
vt 0.5332031 0.41430664
vt 0.5332031 0.40161133
vt 0.5332031 0.4272461
vt 0.5332031 0.41430664
vt 0.4165039 0.41430664
vt 0.4165039 0.4272461
vt 0.5332031 0.45263672
vt 0.5332031 0.4399414
vt 0.4165039 0.4399414
vt 0.4165039 0.45263672
vn -0.70703125 0 -0.70703125
vn -0.70703125 0 -0.70703125
vn -0.70703125 0 -0.70703125
vn -0.70703125 0 -0.70703125
vn 0.70703125 0 0.70703125
vn 0.70703125 0 0.70703125
vn 0.70703125 0 0.70703125
vn 0.70703125 0 0.70703125
vn 0.70703125 0 -0.70703125
vn 0.70703125 0 -0.70703125
vn 0.70703125 0 -0.70703125
vn 0.70703125 0 -0.70703125
vn -0.70703125 0 0.70703125
vn -0.70703125 0 0.70703125
vn -0.70703125 0 0.70703125
vn -0.70703125 0 0.70703125
g parts_geo03_0
f 3/3/3 2/2/2 1/1/1
f 4/4/4 3/3/3 1/1/1
f 7/7/7 6/6/6 5/5/5
f 8/8/8 7/7/7 5/5/5
f 11/11/11 10/10/10 9/9/9
f 12/12/12 11/11/11 9/9/9
f 15/15/15 14/14/14 13/13/13
f 16/16/16 15/15/15 13/13/13
