g parts_geo04
v -0.4337654 0.22456335 5.1239072E-05
v -0.4490503 0.2313761 -0.0039453427
v -0.43548575 0.22095129 -0.0039453427
v -0.44599342 0.23395665 5.3680476E-05
v -0.45876244 0.24563634 -0.0039502257
v -0.4553189 0.24767248 5.1239072E-05
v -0.46669573 0.2604337 -0.0039551086
v -0.4630886 0.2621622 4.3914853E-05
v -0.47311306 0.2759452 -0.0039624325
v -0.46933243 0.27725255 3.9032042E-05
v -0.4774042 0.29216465 -0.003969757
v -0.4734669 0.292869 2.9266415E-05
v -0.47864115 0.3088834 -0.0039819637
v -0.4746451 0.30872473 1.9500789E-05
v -0.47577468 0.32538003 -0.0039966125
v -0.47195324 0.32420325 4.8523525E-06
v -0.4692389 0.34082556 -0.004011261
v -0.4657014 0.33896276 -7.3546785E-06
v -0.46056017 0.35519326 -0.0040283506
v -0.4572376 0.35297155 -2.444452E-05
v -0.45078456 0.3688468 -0.004042999
v -0.4475915 0.36644202 -4.1534364E-05
v -0.44044852 0.38209265 -0.004060089
v -0.43732712 0.37959632 -5.6182802E-05
v -0.42983902 0.3951151 -0.0040747374
v -0.42675394 0.39257362 -7.327265E-05
v -0.4191019 0.40803137 -0.0040893857
v -0.41603205 0.40547156 -8.7921086E-05
v -0.43548575 0.22095129 -0.0039453427
v -0.45210707 0.22879796 5.3680476E-05
v -0.43720385 0.21733922 5.3680476E-05
v -0.4490503 0.2313761 -0.0039453427
v -0.46220636 0.24360265 5.1239072E-05
v -0.45876244 0.24563634 -0.0039502257
v -0.4703036 0.25870642 4.6356257E-05
v -0.46669573 0.2604337 -0.0039551086
v -0.47689468 0.27464148 3.9032042E-05
v -0.47311306 0.2759452 -0.0039624325
v -0.48134267 0.2914652 2.682501E-05
v -0.4774042 0.29216465 -0.003969757
v -0.48263857 0.3090482 1.7059383E-05
v -0.47864115 0.3088834 -0.0039819637
v -0.47959718 0.3265641 2.4109463E-06
v -0.47577468 0.32538003 -0.0039966125
v -0.47277704 0.34269568 -1.2237491E-05
v -0.4692389 0.34082556 -0.004011261
v -0.463883 0.3574259 -2.9327333E-05
v -0.46056017 0.35519326 -0.0040283506
v -0.45397764 0.37126014 -4.397577E-05
v -0.45078456 0.3688468 -0.004042999
v -0.4435699 0.38459998 -6.350702E-05
v -0.44044852 0.38209265 -0.004060089
v -0.43292394 0.39766517 -7.815546E-05
v -0.42983902 0.3951151 -0.0040747374
v -0.42217162 0.41060096 -9.5245305E-05
v -0.4191019 0.40803137 -0.0040893857
v -0.43720385 0.21733922 5.3680476E-05
v -0.44905016 0.23137853 0.0040527037
v -0.43548346 0.22095129 0.004055145
v -0.45210707 0.22879796 5.3680476E-05
v -0.45876288 0.24563879 0.0040502623
v -0.46220636 0.24360265 5.1239072E-05
v -0.46669647 0.26043615 0.0040429384
v -0.4703036 0.25870642 4.6356257E-05
v -0.47311404 0.27594885 0.0040380554
v -0.47689468 0.27464148 3.9032042E-05
v -0.47740543 0.29216954 0.00402829
v -0.48134267 0.2914652 2.682501E-05
v -0.4786425 0.3088895 0.0040160827
v -0.48263857 0.3090482 1.7059383E-05
v -0.47577575 0.32538733 0.004003876
v -0.47959718 0.3265641 2.4109463E-06
v -0.46923953 0.3408341 0.003989227
v -0.47277704 0.34269568 -1.2237491E-05
v -0.46056044 0.355203 0.003974579
v -0.463883 0.3574259 -2.9327333E-05
v -0.4507846 0.36885658 0.003957489
v -0.45397764 0.37126014 -4.397577E-05
v -0.44044843 0.38210243 0.0039428407
v -0.4435699 0.38459998 -6.350702E-05
v -0.4298389 0.39512488 0.003925751
v -0.43292394 0.39766517 -7.815546E-05
v -0.41910177 0.40804115 0.0039086607
v -0.42217162 0.41060096 -9.5245305E-05
v -0.43548346 0.22095129 0.004055145
v -0.44599342 0.23395665 5.3680476E-05
v -0.4337654 0.22456335 5.1239072E-05
v -0.44905016 0.23137853 0.0040527037
v -0.4553189 0.24767248 5.1239072E-05
v -0.45876288 0.24563879 0.0040502623
v -0.4630886 0.2621622 4.3914853E-05
v -0.46669647 0.26043615 0.0040429384
v -0.46933243 0.27725255 3.9032042E-05
v -0.47311404 0.27594885 0.0040380554
v -0.4734669 0.292869 2.9266415E-05
v -0.47740543 0.29216954 0.00402829
v -0.4746451 0.30872473 1.9500789E-05
v -0.4786425 0.3088895 0.0040160827
v -0.47195324 0.32420325 4.8523525E-06
v -0.47577575 0.32538733 0.004003876
v -0.4657014 0.33896276 -7.3546785E-06
v -0.46923953 0.3408341 0.003989227
v -0.4572376 0.35297155 -2.444452E-05
v -0.46056044 0.355203 0.003974579
v -0.4475915 0.36644202 -4.1534364E-05
v -0.4507846 0.36885658 0.003957489
v -0.43732712 0.37959632 -5.6182802E-05
v -0.44044843 0.38210243 0.0039428407
v -0.42675394 0.39257362 -7.327265E-05
v -0.4298389 0.39512488 0.003925751
v -0.41603205 0.40547156 -8.7921086E-05
v -0.41910177 0.40804115 0.0039086607
vt 0.5341797 0.42089844
vt 0.5253906 0.42407227
vt 0.5341797 0.42407227
vt 0.5253906 0.42089844
vt 0.5161133 0.42407227
vt 0.5161133 0.42089844
vt 0.50683594 0.42407227
vt 0.50683594 0.42089844
vt 0.49780273 0.42407227
vt 0.49780273 0.42089844
vt 0.48876953 0.42407227
vt 0.48876953 0.42089844
vt 0.47998047 0.42407227
vt 0.47998047 0.42089844
vt 0.4711914 0.42407227
vt 0.4711914 0.42089844
vt 0.4621582 0.42407227
vt 0.4621582 0.42089844
vt 0.453125 0.42407227
vt 0.453125 0.42089844
vt 0.44384766 0.42407227
vt 0.44384766 0.42089844
vt 0.43432617 0.42407227
vt 0.43432617 0.42089844
vt 0.42504883 0.42407227
vt 0.42504883 0.42089844
vt 0.41577148 0.42407227
vt 0.41577148 0.42089844
vt 0.5341797 0.42407227
vt 0.5253906 0.4272461
vt 0.5341797 0.4272461
vt 0.5253906 0.42407227
vt 0.5161133 0.4272461
vt 0.5161133 0.42407227
vt 0.50683594 0.4272461
vt 0.50683594 0.42407227
vt 0.49780273 0.4272461
vt 0.49780273 0.42407227
vt 0.48876953 0.4272461
vt 0.48876953 0.42407227
vt 0.47998047 0.4272461
vt 0.47998047 0.42407227
vt 0.4711914 0.4272461
vt 0.4711914 0.42407227
vt 0.4621582 0.4272461
vt 0.4621582 0.42407227
vt 0.453125 0.4272461
vt 0.453125 0.42407227
vt 0.44384766 0.4272461
vt 0.44384766 0.42407227
vt 0.43432617 0.4272461
vt 0.43432617 0.42407227
vt 0.42504883 0.4272461
vt 0.42504883 0.42407227
vt 0.41577148 0.4272461
vt 0.41577148 0.42407227
vt 0.5341797 0.4272461
vt 0.5253906 0.43041992
vt 0.5341797 0.43041992
vt 0.5253906 0.4272461
vt 0.5161133 0.43041992
vt 0.5161133 0.4272461
vt 0.50683594 0.43041992
vt 0.50683594 0.4272461
vt 0.49780273 0.43041992
vt 0.49780273 0.4272461
vt 0.48876953 0.43041992
vt 0.48876953 0.4272461
vt 0.47998047 0.43041992
vt 0.47998047 0.4272461
vt 0.4711914 0.43041992
vt 0.4711914 0.4272461
vt 0.4621582 0.43041992
vt 0.4621582 0.4272461
vt 0.453125 0.43041992
vt 0.453125 0.4272461
vt 0.44384766 0.43041992
vt 0.44384766 0.4272461
vt 0.43432617 0.43041992
vt 0.43432617 0.4272461
vt 0.42504883 0.43041992
vt 0.42504883 0.4272461
vt 0.41577148 0.43041992
vt 0.41577148 0.4272461
vt 0.5341797 0.43041992
vt 0.5253906 0.43359375
vt 0.5341797 0.43359375
vt 0.5253906 0.43041992
vt 0.5161133 0.43359375
vt 0.5161133 0.43041992
vt 0.50683594 0.43359375
vt 0.50683594 0.43041992
vt 0.49780273 0.43359375
vt 0.49780273 0.43041992
vt 0.48876953 0.43359375
vt 0.48876953 0.43041992
vt 0.47998047 0.43359375
vt 0.47998047 0.43041992
vt 0.4711914 0.43359375
vt 0.4711914 0.43041992
vt 0.4621582 0.43359375
vt 0.4621582 0.43041992
vt 0.453125 0.43359375
vt 0.453125 0.43041992
vt 0.44384766 0.43359375
vt 0.44384766 0.43041992
vt 0.43432617 0.43359375
vt 0.43432617 0.43041992
vt 0.42504883 0.43359375
vt 0.42504883 0.43041992
vt 0.41577148 0.43359375
vt 0.41577148 0.43041992
vn 0.6088867 0.79296875 8.165836E-06
vn -0.07171631 -0.07672119 -0.9946289
vn -0.08868408 -0.115112305 -0.9892578
vn 0.7270508 0.6870117 -8.46386E-06
vn -0.03265381 -0.020980835 -0.99902344
vn 0.85498047 0.5185547 -4.3809414E-05
vn -0.031082153 -0.0149383545 -0.9995117
vn 0.9038086 0.42797852 -0.000109910965
vn -0.043701172 -0.014816284 -0.99902344
vn 0.9472656 0.31982422 8.428097E-05
vn -0.06274414 -0.010246277 -0.9980469
vn 0.9863281 0.16564941 0.00020229816
vn -0.08282471 0.0041275024 -0.99658203
vn 0.99902344 -0.0491333 0.00035333633
vn -0.07446289 0.01966858 -0.9970703
vn 0.95947266 -0.2824707 0.00027227402
vn -0.04425049 0.020584106 -0.99902344
vn 0.890625 -0.45458984 0.0005893707
vn -0.022918701 0.013572693 -0.9995117
vn 0.83496094 -0.5498047 0.0007367134
vn -0.0118255615 0.007434845 -1
vn 0.80078125 -0.5986328 0.00068855286
vn -0.0058670044 0.0033512115 -1
vn 0.7817383 -0.62353516 0.00076150894
vn -0.0024642944 0.0010080338 -1
vn 0.77197266 -0.6352539 0.00075531006
vn -0.0009250641 3.540516E-05 -1
vn 0.76904297 -0.63916016 0.0007867813
vn -0.08868408 -0.115112305 -0.9892578
vn -0.7290039 -0.6845703 0.00014257431
vn -0.609375 -0.79296875 0.00044488907
vn -0.07171631 -0.07672119 -0.9946289
vn -0.8544922 -0.51904297 4.7683716E-05
vn -0.03265381 -0.020980835 -0.99902344
vn -0.9038086 -0.42773438 0.0001218915
vn -0.031082153 -0.0149383545 -0.9995117
vn -0.9472656 -0.31982422 4.9889088E-05
vn -0.043701172 -0.014816284 -0.99902344
vn -0.9863281 -0.16552734 -0.000117242336
vn -0.06274414 -0.010246277 -0.9980469
vn -0.99902344 0.048828125 -0.00017976761
vn -0.08282471 0.0041275024 -0.99658203
vn -0.95947266 0.2824707 -0.00034451485
vn -0.07446289 0.01966858 -0.9970703
vn -0.890625 0.45458984 -0.00051641464
vn -0.04425049 0.020584106 -0.99902344
vn -0.83496094 0.55029297 -0.0007171631
vn -0.022918701 0.013572693 -0.9995117
vn -0.80078125 0.5986328 -0.00059461594
vn -0.0118255615 0.007434845 -1
vn -0.7817383 0.62353516 -0.0007519722
vn -0.0058670044 0.0033512115 -1
vn -0.77197266 0.6352539 -0.0006136894
vn -0.0024642944 0.0010080338 -1
vn -0.76904297 0.63916016 -0.00068998337
vn -0.0009250641 3.540516E-05 -1
vn -0.609375 -0.79296875 0.00044488907
vn -0.07165527 -0.076416016 0.9946289
vn -0.08856201 -0.11480713 0.9892578
vn -0.7290039 -0.6845703 0.00014257431
vn -0.03286743 -0.020462036 0.99902344
vn -0.8544922 -0.51904297 4.7683716E-05
vn -0.031433105 -0.014144897 0.9995117
vn -0.9038086 -0.42773438 0.0001218915
vn -0.043762207 -0.013847351 0.99902344
vn -0.9472656 -0.31982422 4.9889088E-05
vn -0.06304932 -0.009063721 0.9980469
vn -0.9863281 -0.16552734 -0.000117242336
vn -0.08343506 0.0056381226 0.99658203
vn -0.99902344 0.048828125 -0.00017976761
vn -0.07476807 0.021530151 0.9970703
vn -0.95947266 0.2824707 -0.00034451485
vn -0.044525146 0.022720337 0.99853516
vn -0.890625 0.45458984 -0.00051641464
vn -0.022583008 0.015792847 0.9995117
vn -0.83496094 0.55029297 -0.0007171631
vn -0.011184692 0.009689331 1
vn -0.80078125 0.5986328 -0.00059461594
vn -0.005748749 0.0057640076 1
vn -0.7817383 0.62353516 -0.0007519722
vn -0.0028820038 0.003332138 1
vn -0.77197266 0.6352539 -0.0006136894
vn -0.0017671585 0.0022563934 1
vn -0.76904297 0.63916016 -0.00068998337
vn -0.08856201 -0.11480713 0.9892578
vn 0.7270508 0.6870117 -8.46386E-06
vn 0.6088867 0.79296875 8.165836E-06
vn -0.07165527 -0.076416016 0.9946289
vn 0.85498047 0.5185547 -4.3809414E-05
vn -0.03286743 -0.020462036 0.99902344
vn 0.9038086 0.42797852 -0.000109910965
vn -0.031433105 -0.014144897 0.9995117
vn 0.9472656 0.31982422 8.428097E-05
vn -0.043762207 -0.013847351 0.99902344
vn 0.9863281 0.16564941 0.00020229816
vn -0.06304932 -0.009063721 0.9980469
vn 0.99902344 -0.0491333 0.00035333633
vn -0.08343506 0.0056381226 0.99658203
vn 0.95947266 -0.2824707 0.00027227402
vn -0.07476807 0.021530151 0.9970703
vn 0.890625 -0.45458984 0.0005893707
vn -0.044525146 0.022720337 0.99853516
vn 0.83496094 -0.5498047 0.0007367134
vn -0.022583008 0.015792847 0.9995117
vn 0.80078125 -0.5986328 0.00068855286
vn -0.011184692 0.009689331 1
vn 0.7817383 -0.62353516 0.00076150894
vn -0.005748749 0.0057640076 1
vn 0.77197266 -0.6352539 0.00075531006
vn -0.0028820038 0.003332138 1
vn 0.76904297 -0.63916016 0.0007867813
vn -0.0017671585 0.0022563934 1
g parts_geo04_0
f 3/3/3 2/2/2 1/1/1
f 2/2/2 4/4/4 1/1/1
f 2/2/2 5/5/5 4/4/4
f 5/5/5 6/6/6 4/4/4
f 5/5/5 7/7/7 6/6/6
f 7/7/7 8/8/8 6/6/6
f 7/7/7 9/9/9 8/8/8
f 9/9/9 10/10/10 8/8/8
f 9/9/9 11/11/11 10/10/10
f 11/11/11 12/12/12 10/10/10
f 11/11/11 13/13/13 12/12/12
f 13/13/13 14/14/14 12/12/12
f 13/13/13 15/15/15 14/14/14
f 15/15/15 16/16/16 14/14/14
f 15/15/15 17/17/17 16/16/16
f 17/17/17 18/18/18 16/16/16
f 17/17/17 19/19/19 18/18/18
f 19/19/19 20/20/20 18/18/18
f 19/19/19 21/21/21 20/20/20
f 21/21/21 22/22/22 20/20/20
f 21/21/21 23/23/23 22/22/22
f 23/23/23 24/24/24 22/22/22
f 23/23/23 25/25/25 24/24/24
f 25/25/25 26/26/26 24/24/24
f 25/25/25 27/27/27 26/26/26
f 27/27/27 28/28/28 26/26/26
f 31/31/31 30/30/30 29/29/29
f 30/30/30 32/32/32 29/29/29
f 30/30/30 33/33/33 32/32/32
f 33/33/33 34/34/34 32/32/32
f 33/33/33 35/35/35 34/34/34
f 35/35/35 36/36/36 34/34/34
f 35/35/35 37/37/37 36/36/36
f 37/37/37 38/38/38 36/36/36
f 37/37/37 39/39/39 38/38/38
f 39/39/39 40/40/40 38/38/38
f 39/39/39 41/41/41 40/40/40
f 41/41/41 42/42/42 40/40/40
f 41/41/41 43/43/43 42/42/42
f 43/43/43 44/44/44 42/42/42
f 43/43/43 45/45/45 44/44/44
f 45/45/45 46/46/46 44/44/44
f 45/45/45 47/47/47 46/46/46
f 47/47/47 48/48/48 46/46/46
f 47/47/47 49/49/49 48/48/48
f 49/49/49 50/50/50 48/48/48
f 49/49/49 51/51/51 50/50/50
f 51/51/51 52/52/52 50/50/50
f 51/51/51 53/53/53 52/52/52
f 53/53/53 54/54/54 52/52/52
f 53/53/53 55/55/55 54/54/54
f 55/55/55 56/56/56 54/54/54
f 59/59/59 58/58/58 57/57/57
f 58/58/58 60/60/60 57/57/57
f 58/58/58 61/61/61 60/60/60
f 61/61/61 62/62/62 60/60/60
f 61/61/61 63/63/63 62/62/62
f 63/63/63 64/64/64 62/62/62
f 63/63/63 65/65/65 64/64/64
f 65/65/65 66/66/66 64/64/64
f 65/65/65 67/67/67 66/66/66
f 67/67/67 68/68/68 66/66/66
f 67/67/67 69/69/69 68/68/68
f 69/69/69 70/70/70 68/68/68
f 69/69/69 71/71/71 70/70/70
f 71/71/71 72/72/72 70/70/70
f 71/71/71 73/73/73 72/72/72
f 73/73/73 74/74/74 72/72/72
f 73/73/73 75/75/75 74/74/74
f 75/75/75 76/76/76 74/74/74
f 75/75/75 77/77/77 76/76/76
f 77/77/77 78/78/78 76/76/76
f 77/77/77 79/79/79 78/78/78
f 79/79/79 80/80/80 78/78/78
f 79/79/79 81/81/81 80/80/80
f 81/81/81 82/82/82 80/80/80
f 81/81/81 83/83/83 82/82/82
f 83/83/83 84/84/84 82/82/82
f 87/87/87 86/86/86 85/85/85
f 86/86/86 88/88/88 85/85/85
f 86/86/86 89/89/89 88/88/88
f 89/89/89 90/90/90 88/88/88
f 89/89/89 91/91/91 90/90/90
f 91/91/91 92/92/92 90/90/90
f 91/91/91 93/93/93 92/92/92
f 93/93/93 94/94/94 92/92/92
f 93/93/93 95/95/95 94/94/94
f 95/95/95 96/96/96 94/94/94
f 95/95/95 97/97/97 96/96/96
f 97/97/97 98/98/98 96/96/96
f 97/97/97 99/99/99 98/98/98
f 99/99/99 100/100/100 98/98/98
f 99/99/99 101/101/101 100/100/100
f 101/101/101 102/102/102 100/100/100
f 101/101/101 103/103/103 102/102/102
f 103/103/103 104/104/104 102/102/102
f 103/103/103 105/105/105 104/104/104
f 105/105/105 106/106/106 104/104/104
f 105/105/105 107/107/107 106/106/106
f 107/107/107 108/108/108 106/106/106
f 107/107/107 109/109/109 108/108/108
f 109/109/109 110/110/110 108/108/108
f 109/109/109 111/111/111 110/110/110
f 111/111/111 112/112/112 110/110/110
