g parts_geo05
v -0.2186768 0.2225553 -3.0459862E-08
v -0.2010671 0.2311942 0.0040014344
v -0.21559946 0.22000036 0.0040014344
v -0.2027729 0.23481236 -3.0459862E-08
v -0.18316963 0.23509924 0.0040014344
v -0.18303157 0.23909704 -3.0459862E-08
v -0.16452724 0.22833899 0.0040014344
v -0.16212215 0.23153478 -3.0459862E-08
v -0.15189253 0.21286047 0.0040014344
v -0.14833581 0.2146903 -3.0459862E-08
v -0.14579187 0.193765 0.0040014344
v -0.14182459 0.19427526 -3.0459862E-08
v -0.21559946 0.22000036 0.0040014344
v -0.19936132 0.22757605 -3.0459862E-08
v -0.21252212 0.21744543 -3.0459862E-08
v -0.2010671 0.2311942 0.0040014344
v -0.18330768 0.23110144 -3.0459862E-08
v -0.18316963 0.23509924 0.0040014344
v -0.16693231 0.22514196 -3.0459862E-08
v -0.16452724 0.22833899 0.0040014344
v -0.15544924 0.21102941 -3.0459862E-08
v -0.15189253 0.21286047 0.0040014344
v -0.14975916 0.19325475 -3.0459862E-08
v -0.14579187 0.193765 0.0040014344
v -0.21252212 0.21744543 -3.0459862E-08
v -0.2010671 0.2311942 -0.004001495
v -0.21559946 0.22000036 -0.004001495
v -0.19936132 0.22757605 -3.0459862E-08
v -0.18316963 0.23509924 -0.004001495
v -0.18330768 0.23110144 -3.0459862E-08
v -0.16452724 0.22833899 -0.004001495
v -0.16693231 0.22514196 -3.0459862E-08
v -0.15189253 0.21286047 -0.004001495
v -0.15544924 0.21102941 -3.0459862E-08
v -0.14579187 0.193765 -0.004001495
v -0.14975916 0.19325475 -3.0459862E-08
v -0.21559946 0.22000036 -0.004001495
v -0.2027729 0.23481236 -3.0459862E-08
v -0.2186768 0.2225553 -3.0459862E-08
v -0.2010671 0.2311942 -0.004001495
v -0.18303157 0.23909704 -3.0459862E-08
v -0.18316963 0.23509924 -0.004001495
v -0.16212215 0.23153478 -3.0459862E-08
v -0.16452724 0.22833899 -0.004001495
v -0.14833581 0.2146903 -3.0459862E-08
v -0.15189253 0.21286047 -0.004001495
v -0.14182459 0.19427526 -3.0459862E-08
v -0.14579187 0.193765 -0.004001495
vt 0.5341797 0.41455078
vt 0.51171875 0.42089844
vt 0.5341797 0.42089844
vt 0.51171875 0.41455078
vt 0.48901367 0.42089844
vt 0.48901367 0.41455078
vt 0.46411133 0.42089844
vt 0.46411133 0.41455078
vt 0.43969727 0.42089844
vt 0.43969727 0.41455078
vt 0.41577148 0.42089844
vt 0.41577148 0.41455078
vt 0.5341797 0.42089844
vt 0.51171875 0.4272461
vt 0.5341797 0.4272461
vt 0.51171875 0.42089844
vt 0.48901367 0.4272461
vt 0.48901367 0.42089844
vt 0.46411133 0.4272461
vt 0.46411133 0.42089844
vt 0.43969727 0.4272461
vt 0.43969727 0.42089844
vt 0.41577148 0.4272461
vt 0.41577148 0.42089844
vt 0.5341797 0.4272461
vt 0.51171875 0.43359375
vt 0.5341797 0.43359375
vt 0.51171875 0.4272461
vt 0.48901367 0.43359375
vt 0.48901367 0.4272461
vt 0.46411133 0.43359375
vt 0.46411133 0.4272461
vt 0.43969727 0.43359375
vt 0.43969727 0.4272461
vt 0.41577148 0.43359375
vt 0.41577148 0.4272461
vt 0.5341797 0.43359375
vt 0.51171875 0.4399414
vt 0.5341797 0.4399414
vt 0.51171875 0.43359375
vt 0.48901367 0.4399414
vt 0.48901367 0.43359375
vt 0.46411133 0.4399414
vt 0.46411133 0.43359375
vt 0.43969727 0.4399414
vt 0.43969727 0.43359375
vt 0.41577148 0.4399414
vt 0.41577148 0.43359375
vn -0.61035156 0.7919922 7.259846E-05
vn -0.060668945 0.13293457 0.9892578
vn -0.090270996 0.117004395 0.9892578
vn -0.42211914 0.9067383 3.3020973E-05
vn 0.01928711 0.1772461 0.9838867
vn 0.074645996 0.9970703 -1.0848045E-05
vn 0.09338379 0.14160156 0.98535156
vn 0.5805664 0.81396484 -6.377697E-06
vn 0.10638428 0.06109619 0.9926758
vn 0.87939453 0.47558594 -2.4735928E-05
vn 0.11102295 0.035217285 0.99316406
vn 0.9526367 0.30419922 -4.8160553E-05
vn -0.090270996 0.117004395 0.9892578
vn 0.42236328 -0.90625 -4.5776367E-05
vn 0.6098633 -0.79248047 -7.9870224E-05
vn -0.060668945 0.13293457 0.9892578
vn -0.08013916 -0.99658203 -4.6491623E-06
vn 0.01928711 0.1772461 0.9838867
vn -0.57958984 -0.8149414 8.106232E-06
vn 0.09338379 0.14160156 0.98535156
vn -0.87890625 -0.47680664 4.3928623E-05
vn 0.10638428 0.06109619 0.9926758
vn -0.9526367 -0.30444336 7.098913E-05
vn 0.11102295 0.035217285 0.99316406
vn 0.6098633 -0.79248047 -7.9870224E-05
vn -0.06072998 0.13293457 -0.9892578
vn -0.09051514 0.116882324 -0.98876953
vn 0.42236328 -0.90625 -4.5776367E-05
vn 0.019165039 0.1772461 -0.9838867
vn -0.08013916 -0.99658203 -4.6491623E-06
vn 0.09301758 0.14160156 -0.98535156
vn -0.57958984 -0.8149414 8.106232E-06
vn 0.10632324 0.06112671 -0.9926758
vn -0.87890625 -0.47680664 4.3928623E-05
vn 0.11114502 0.035247803 -0.99316406
vn -0.9526367 -0.30444336 7.098913E-05
vn -0.09051514 0.116882324 -0.98876953
vn -0.42211914 0.9067383 3.3020973E-05
vn -0.61035156 0.7919922 7.259846E-05
vn -0.06072998 0.13293457 -0.9892578
vn 0.074645996 0.9970703 -1.0848045E-05
vn 0.019165039 0.1772461 -0.9838867
vn 0.5805664 0.81396484 -6.377697E-06
vn 0.09301758 0.14160156 -0.98535156
vn 0.87939453 0.47558594 -2.4735928E-05
vn 0.10632324 0.06112671 -0.9926758
vn 0.9526367 0.30419922 -4.8160553E-05
vn 0.11114502 0.035247803 -0.99316406
g parts_geo05_0
f 3/3/3 2/2/2 1/1/1
f 2/2/2 4/4/4 1/1/1
f 2/2/2 5/5/5 4/4/4
f 5/5/5 6/6/6 4/4/4
f 5/5/5 7/7/7 6/6/6
f 7/7/7 8/8/8 6/6/6
f 7/7/7 9/9/9 8/8/8
f 9/9/9 10/10/10 8/8/8
f 9/9/9 11/11/11 10/10/10
f 11/11/11 12/12/12 10/10/10
f 15/15/15 14/14/14 13/13/13
f 14/14/14 16/16/16 13/13/13
f 14/14/14 17/17/17 16/16/16
f 17/17/17 18/18/18 16/16/16
f 17/17/17 19/19/19 18/18/18
f 19/19/19 20/20/20 18/18/18
f 19/19/19 21/21/21 20/20/20
f 21/21/21 22/22/22 20/20/20
f 21/21/21 23/23/23 22/22/22
f 23/23/23 24/24/24 22/22/22
f 27/27/27 26/26/26 25/25/25
f 26/26/26 28/28/28 25/25/25
f 26/26/26 29/29/29 28/28/28
f 29/29/29 30/30/30 28/28/28
f 29/29/29 31/31/31 30/30/30
f 31/31/31 32/32/32 30/30/30
f 31/31/31 33/33/33 32/32/32
f 33/33/33 34/34/34 32/32/32
f 33/33/33 35/35/35 34/34/34
f 35/35/35 36/36/36 34/34/34
f 39/39/39 38/38/38 37/37/37
f 38/38/38 40/40/40 37/37/37
f 38/38/38 41/41/41 40/40/40
f 41/41/41 42/42/42 40/40/40
f 41/41/41 43/43/43 42/42/42
f 43/43/43 44/44/44 42/42/42
f 43/43/43 45/45/45 44/44/44
f 45/45/45 46/46/46 44/44/44
f 45/45/45 47/47/47 46/46/46
f 47/47/47 48/48/48 46/46/46
