g Pilar_F_geo01
v -0.09457186 -2.5136485 -0.18716338
v -0.09457186 4.216411 -0.18716338
v -0.09457186 4.216411 0.187164
v -0.09457186 -2.5136485 0.187164
v -0.16879365 -2.413013 0.28730437
v -0.16879365 -2.6468844 0.28730437
v -0.16879365 -2.6468844 -0.28730378
v -0.16879365 -2.413013 -0.28730378
v -0.23976015 -2.6468844 0.53469694
v -0.23976015 -2.8670552 0.53469694
v -0.23976015 -2.8670552 -0.53469634
v -0.23976015 -2.6468844 -0.53469634
v -0.16879365 -2.6468844 0.28730437
v -0.23976015 -2.6468844 -0.53469634
v -0.16879365 -2.6468844 -0.28730378
v -0.23976015 -2.6468844 0.53469694
v 0.2774963 -2.6468844 0.28730437
v 0.3600174 -2.6468844 0.53469574
v 0.10915586 4.216411 0.187164
v 0.10915586 -2.5136485 0.187164
v -0.09457186 -2.5136485 0.187164
v -0.09457186 4.216411 0.187164
v 0.10915586 -2.5136485 -0.18716338
v 0.10915586 4.216411 -0.18716338
v -0.09457186 4.216411 -0.18716338
v -0.09457186 -2.5136485 -0.18716338
v -0.23976015 -2.6468844 -0.53469634
v 0.3600174 -2.6468844 -0.53469753
v 0.2774963 -2.6468844 -0.287305
v -0.16879365 -2.6468844 -0.28730378
v -0.23976015 -2.8670552 -0.53469634
v 0.3600174 -2.8670552 -0.53469753
v 0.3600174 -2.6468844 -0.53469753
v -0.23976015 -2.6468844 -0.53469634
v -0.16879365 -2.6468844 -0.28730378
v 0.2774963 -2.6468844 -0.287305
v 0.2774963 -2.413013 -0.287305
v -0.16879365 -2.413013 -0.28730378
v 0.1777777 4.216411 0.11598846
v 0.1777777 4.216411 -0.11598785
v 0.1777777 -2.5136485 -0.11598785
v 0.1777777 -2.5136485 0.11598846
v 0.2774963 -2.413013 -0.287305
v 0.2774963 -2.6468844 -0.287305
v 0.2774963 -2.6468844 0.28730437
v 0.2774963 -2.413013 0.28730437
v 0.3600174 -2.6468844 -0.53469753
v 0.3600174 -2.8670552 -0.53469753
v 0.3600174 -2.8670552 0.53469574
v 0.3600174 -2.6468844 0.53469574
v 0.2774963 -2.6468844 -0.287305
v 0.3600174 -2.6468844 -0.53469753
v 0.3600174 -2.6468844 0.53469574
v 0.2774963 -2.6468844 0.28730437
v -0.23976015 -2.8670552 -0.53469634
v -0.23976015 -2.8670552 0.53469694
v 0.3600174 -2.8670552 0.53469574
v 0.3600174 -2.8670552 -0.53469753
v -0.23976015 -2.8670552 0.53469694
v -0.23976015 -2.6468844 0.53469694
v 0.3600174 -2.6468844 0.53469574
v 0.3600174 -2.8670552 0.53469574
v -0.16879365 -2.6468844 0.28730437
v -0.16879365 -2.413013 0.28730437
v 0.2774963 -2.413013 0.28730437
v 0.2774963 -2.6468844 0.28730437
v 0.10915586 4.216411 0.11598846
v 0.10915586 -2.5136485 0.11598846
v 0.10915586 -2.5136485 0.187164
v 0.10915586 4.216411 0.187164
v 0.10915586 -2.5136485 -0.11598785
v 0.10915586 4.216411 -0.11598785
v 0.10915586 4.216411 -0.18716338
v 0.10915586 -2.5136485 -0.18716338
v 0.1777777 4.216411 0.11598846
v 0.1777777 -2.5136485 0.11598846
v 0.10915586 -2.5136485 0.11598846
v 0.10915586 4.216411 0.11598846
v 0.1777777 4.216411 -0.11598785
v 0.10915586 4.216411 -0.11598785
v 0.10915586 -2.5136485 -0.11598785
v 0.1777777 -2.5136485 -0.11598785
v -0.16879365 -2.413013 -0.28730378
v 0.2774963 -2.413013 -0.287305
v 0.2774963 -2.413013 0.28730437
v -0.16879365 -2.413013 0.28730437
vt 0.42773438 0.52783203
vt 0.42773438 0.52783203
vt 0.42773438 0.52783203
vt 0.42773438 0.52783203
vt 0.42773438 0.52783203
vt 0.42773438 0.52783203
vt 0.42773438 0.52783203
vt 0.42773438 0.52783203
vt 0.42773438 0.52783203
vt 0.42773438 0.52783203
vt 0.42773438 0.52783203
vt 0.42773438 0.52783203
vt 0.42773438 0.52783203
vt 0.42773438 0.52783203
vt 0.42773438 0.52783203
vt 0.42773438 0.52783203
vt 0.42773438 0.52783203
vt 0.42773438 0.52783203
vt 0.42773438 0.52783203
vt 0.42773438 0.52783203
vt 0.42773438 0.52783203
vt 0.42773438 0.52783203
vt 0.55126953 0.52783203
vt 0.55126953 0.52783203
vt 0.55126953 0.52783203
vt 0.55126953 0.52783203
vt 0.55126953 0.52783203
vt 0.55126953 0.52783203
vt 0.55126953 0.52783203
vt 0.55126953 0.52783203
vt 0.55126953 0.52783203
vt 0.55126953 0.52783203
vt 0.55126953 0.52783203
vt 0.55126953 0.52783203
vt 0.55126953 0.52783203
vt 0.55126953 0.52783203
vt 0.55126953 0.52783203
vt 0.55126953 0.52783203
vt 0.55908203 0.5361328
vt 0.55908203 0.5361328
vt 0.55908203 0.5361328
vt 0.55908203 0.5361328
vt 0.55908203 0.5361328
vt 0.55908203 0.5361328
vt 0.55908203 0.5361328
vt 0.55908203 0.5361328
vt 0.55908203 0.5361328
vt 0.55908203 0.5361328
vt 0.55908203 0.5361328
vt 0.55908203 0.5361328
vt 0.55908203 0.5361328
vt 0.55908203 0.5361328
vt 0.55908203 0.5361328
vt 0.55908203 0.5361328
vt 0.55126953 0.52783203
vt 0.55126953 0.52783203
vt 0.55126953 0.52783203
vt 0.55126953 0.52783203
vt 0.42773438 0.52783203
vt 0.42773438 0.52783203
vt 0.42773438 0.52783203
vt 0.42773438 0.52783203
vt 0.42773438 0.52783203
vt 0.42773438 0.52783203
vt 0.42773438 0.52783203
vt 0.42773438 0.52783203
vt 0.55908203 0.5361328
vt 0.55908203 0.5361328
vt 0.55908203 0.5361328
vt 0.55908203 0.5361328
vt 0.55908203 0.5361328
vt 0.55908203 0.5361328
vt 0.55908203 0.5361328
vt 0.55908203 0.5361328
vt 0.42773438 0.52783203
vt 0.42773438 0.52783203
vt 0.42773438 0.52783203
vt 0.42773438 0.52783203
vt 0.55126953 0.52783203
vt 0.55126953 0.52783203
vt 0.55126953 0.52783203
vt 0.55126953 0.52783203
vt 0.42773438 0.52783203
vt 0.42773438 0.52783203
vt 0.42773438 0.52783203
vt 0.42773438 0.52783203
vn -1 0 0
vn -1 0 0
vn -1 0 0
vn -1 0 0
vn -1 0 0
vn -1 0 0
vn -1 0 0
vn -1 0 0
vn -1 0 0
vn -1 0 0
vn -1 0 0
vn -1 0 0
vn -0 1 0
vn -0 1 0
vn -0 1 0
vn -0 1 0
vn -0 1 0
vn -0 1 0
vn -0 0 1
vn -0 0 1
vn -0 0 1
vn -0 0 1
vn -0 0 -1
vn -0 0 -1
vn -0 0 -1
vn -0 0 -1
vn -0 1 0
vn -0 1 0
vn -0 1 0
vn -0 1 0
vn -1.7881393E-06 0 -1
vn -1.7881393E-06 0 -1
vn -1.7881393E-06 0 -1
vn -1.7881393E-06 0 -1
vn -3.0398369E-06 5.9604645E-07 -1
vn -3.0398369E-06 5.9604645E-07 -1
vn -3.0398369E-06 5.9604645E-07 -1
vn -3.0398369E-06 5.9604645E-07 -1
vn 1 0 0
vn 1 0 0
vn 1 0 0
vn 1 0 0
vn 1 0 0
vn 1 0 0
vn 1 0 0
vn 1 0 0
vn 1 0 0
vn 1 0 0
vn 1 0 0
vn 1 0 0
vn -0 1 0
vn -0 1 0
vn -0 1 0
vn -0 1 0
vn -0 -1 0
vn -0 -1 0
vn -0 -1 0
vn -0 -1 0
vn 1.7881393E-06 0 1
vn 1.7881393E-06 0 1
vn 1.7881393E-06 0 1
vn 1.7881393E-06 0 1
vn 2.2649765E-06 0 1
vn 2.2649765E-06 0 1
vn 2.2649765E-06 0 1
vn 2.2649765E-06 0 1
vn 1 0 0
vn 1 0 0
vn 1 0 0
vn 1 0 0
vn 1 0 0
vn 1 0 0
vn 1 0 0
vn 1 0 0
vn -0 0 1
vn -0 0 1
vn -0 0 1
vn -0 0 1
vn -0 0 -1
vn -0 0 -1
vn -0 0 -1
vn -0 0 -1
vn -0 1 0
vn -0 1 0
vn -0 1 0
vn -0 1 0
g Pilar_F_geo01_0
f 3/3/3 2/2/2 1/1/1
f 4/4/4 3/3/3 1/1/1
f 7/7/7 6/6/6 5/5/5
f 8/8/8 7/7/7 5/5/5
f 11/11/11 10/10/10 9/9/9
f 12/12/12 11/11/11 9/9/9
f 15/15/15 14/14/14 13/13/13
f 14/14/14 16/16/16 13/13/13
f 17/17/17 13/13/13 16/16/16
f 18/18/18 17/17/17 16/16/16
f 21/21/21 20/20/20 19/19/19
f 22/22/22 21/21/21 19/19/19
f 25/25/25 24/24/24 23/23/23
f 26/26/26 25/25/25 23/23/23
f 29/29/29 28/28/28 27/27/27
f 30/30/30 29/29/29 27/27/27
f 33/33/33 32/32/32 31/31/31
f 34/34/34 33/33/33 31/31/31
f 37/37/37 36/36/36 35/35/35
f 38/38/38 37/37/37 35/35/35
f 41/41/41 40/40/40 39/39/39
f 42/42/42 41/41/41 39/39/39
f 45/45/45 44/44/44 43/43/43
f 46/46/46 45/45/45 43/43/43
f 49/49/49 48/48/48 47/47/47
f 50/50/50 49/49/49 47/47/47
f 53/53/53 52/52/52 51/51/51
f 54/54/54 53/53/53 51/51/51
f 57/57/57 56/56/56 55/55/55
f 58/58/58 57/57/57 55/55/55
f 61/61/61 60/60/60 59/59/59
f 62/62/62 61/61/61 59/59/59
f 65/65/65 64/64/64 63/63/63
f 66/66/66 65/65/65 63/63/63
f 69/69/69 68/68/68 67/67/67
f 70/70/70 69/69/69 67/67/67
f 73/73/73 72/72/72 71/71/71
f 74/74/74 73/73/73 71/71/71
f 77/77/77 76/76/76 75/75/75
f 78/78/78 77/77/77 75/75/75
f 81/81/81 80/80/80 79/79/79
f 82/82/82 81/81/81 79/79/79
f 85/85/85 84/84/84 83/83/83
f 86/86/86 85/85/85 83/83/83
