g pillar_geo08
v 3.7891235 0.14794745 -0.090037495
v -5.362199E-08 0.14794745 -0.090037495
v -5.362199E-08 -0.0017388327 -0.090037495
v 3.7891235 -0.0017388327 -0.090037495
v -5.362199E-08 -0.0017388327 0.09003818
v 3.7891235 -0.0017388327 0.09003818
v 3.7891235 -0.0017388327 -0.090037495
v -5.362199E-08 -0.0017388327 -0.090037495
v -5.362199E-08 0.14794745 -0.090037495
v 3.7891235 0.14794745 -0.090037495
v 3.7891235 0.14794745 0.09003818
v -5.362199E-08 0.14794745 0.09003818
vt 0.9140625 0.76123047
vt 0.9140625 0.3334961
vt 0.89697266 0.3334961
vt 0.89746094 0.76123047
vt 0.8769531 0.3334961
vt 0.8769531 0.76123047
vt 0.89746094 0.76123047
vt 0.89697266 0.3334961
vt 0.9140625 0.3334961
vt 0.9140625 0.76123047
vt 0.9345703 0.76123047
vt 0.9345703 0.3334961
vn -0 0 -1
vn -0 0 -1
vn -0 0 -1
vn -0 0 -1
vn -0 -1 0
vn -0 -1 0
vn -0 -1 0
vn -0 -1 0
vn -0 1 0
vn -0 1 0
vn -0 1 0
vn -0 1 0
g pillar_geo08_0
f 3/3/3 2/2/2 1/1/1
f 4/4/4 3/3/3 1/1/1
f 7/7/7 6/6/6 5/5/5
f 8/8/8 7/7/7 5/5/5
f 11/11/11 10/10/10 9/9/9
f 12/12/12 11/11/11 9/9/9
