g pillar_geo01
v 0.72149974 -0.35335508 -0.090037145
v 0.13539934 0.23274596 -0.090037145
v 0.02955584 0.12690124 -0.090037145
v 0.6156557 -0.45919982 -0.090037145
v 0.02955584 0.12690124 0.09003854
v 0.6156557 -0.45919982 0.09003854
v 0.6156557 -0.45919982 -0.090037145
v 0.02955584 0.12690124 -0.090037145
v 0.13539934 0.23274596 -0.090037145
v 0.72149974 -0.35335508 -0.090037145
v 0.72149974 -0.35335508 0.09003854
v 0.13539934 0.23274596 0.09003854
v -0.26731932 0.45919982 -0.090037145
v -0.9088449 0.45919982 -0.090037145
v -0.90884507 0.30951354 -0.090037145
v -0.26731932 0.30951354 -0.090037145
v -0.90884507 0.30951354 0.09003854
v -0.26731932 0.30951354 0.09003854
v -0.26731932 0.30951354 -0.090037145
v -0.90884507 0.30951354 -0.090037145
v -0.9088449 0.45919982 -0.090037145
v -0.26731932 0.45919982 -0.090037145
v -0.26731932 0.45919982 0.09003854
v -0.9088449 0.45919982 0.09003854
v 0.02955584 0.12690124 -0.090037145
v -0.26731932 0.30951354 -0.090037145
v -0.26731932 0.30951354 0.09003854
v 0.02955584 0.12690124 0.09003854
v 0.13539934 0.23274596 -0.090037145
v -0.26731932 0.45919982 -0.090037145
v -0.26731932 0.30951354 -0.090037145
v 0.02955584 0.12690124 -0.090037145
v 0.13539934 0.23274596 0.09003854
v -0.26731932 0.45919982 0.09003854
v -0.26731932 0.45919982 -0.090037145
v 0.13539934 0.23274596 -0.090037145
vt 0.77978516 0.78466797
vt 0.6879883 0.78466797
vt 0.6879883 0.80126953
vt 0.77978516 0.80126953
vt 0.6879883 0.82128906
vt 0.77978516 0.82128906
vt 0.77978516 0.80126953
vt 0.6879883 0.80126953
vt 0.6879883 0.78466797
vt 0.77978516 0.78466797
vt 0.77978516 0.76464844
vt 0.6879883 0.76464844
vt 0.63671875 0.78466797
vt 0.5654297 0.78466797
vt 0.5654297 0.80126953
vt 0.63671875 0.80126953
vt 0.5654297 0.82128906
vt 0.63671875 0.82128906
vt 0.63671875 0.80126953
vt 0.5654297 0.80126953
vt 0.5654297 0.78466797
vt 0.63671875 0.78466797
vt 0.63671875 0.76464844
vt 0.5654297 0.76464844
vt 0.6879883 0.80126953
vt 0.63671875 0.80126953
vt 0.63671875 0.82128906
vt 0.6879883 0.82128906
vt 0.6879883 0.78466797
vt 0.63671875 0.78466797
vt 0.63671875 0.80126953
vt 0.6879883 0.80126953
vt 0.6879883 0.76464844
vt 0.63671875 0.76464844
vt 0.63671875 0.78466797
vt 0.6879883 0.78466797
vn -1.257658E-05 0 -1
vn -1.257658E-05 0 -1
vn -1.257658E-05 0 -1
vn -1.257658E-05 0 -1
vn -0.70703125 -0.70703125 0
vn -0.70703125 -0.70703125 0
vn -0.70703125 -0.70703125 0
vn -0.70703125 -0.70703125 0
vn 0.70703125 0.70703125 0
vn 0.70703125 0.70703125 0
vn 0.70703125 0.70703125 0
vn 0.70703125 0.70703125 0
vn -0 0 -1
vn -0 0 -1
vn -0 0 -1
vn -0 0 -1
vn -0 -1 0
vn -0 -1 0
vn -0 -1 0
vn -0 -1 0
vn -0 1 0
vn -0 1 0
vn -0 1 0
vn -0 1 0
vn -0.5239258 -0.8515625 0
vn -0.5239258 -0.8515625 0
vn -0.5239258 -0.8515625 0
vn -0.5239258 -0.8515625 0
vn 1.4066696E-05 0 -1
vn 1.4066696E-05 0 -1
vn 1.4066696E-05 0 -1
vn 1.4066696E-05 0 -1
vn 0.49023438 0.87158203 0
vn 0.49023438 0.87158203 0
vn 0.49023438 0.87158203 0
vn 0.49023438 0.87158203 0
g pillar_geo01_0
f 3/3/3 2/2/2 1/1/1
f 4/4/4 3/3/3 1/1/1
f 7/7/7 6/6/6 5/5/5
f 8/8/8 7/7/7 5/5/5
f 11/11/11 10/10/10 9/9/9
f 12/12/12 11/11/11 9/9/9
f 15/15/15 14/14/14 13/13/13
f 16/16/16 15/15/15 13/13/13
f 19/19/19 18/18/18 17/17/17
f 20/20/20 19/19/19 17/17/17
f 23/23/23 22/22/22 21/21/21
f 24/24/24 23/23/23 21/21/21
f 27/27/27 26/26/26 25/25/25
f 28/28/28 27/27/27 25/25/25
f 31/31/31 30/30/30 29/29/29
f 32/32/32 31/31/31 29/29/29
f 35/35/35 34/34/34 33/33/33
f 36/36/36 35/35/35 33/33/33
