g pillar_geo12
v -0.038670078 3.0860925 -0.090037495
v 0.11101682 2.560896 -0.090037495
v 0.11101682 3.0860925 -0.090037495
v -0.038670078 2.560896 -0.090037495
v 0.636004 1.6675756 -0.090037495
v 0.4863177 1.6675756 -0.090037495
v 0.11101682 2.560896 0.090040624
v 0.11101682 3.0860925 0.09003818
v 0.11101682 3.0860925 -0.090037495
v 0.11101682 2.560896 -0.090037495
v -0.038670078 2.560896 -0.090037495
v -0.038670078 3.0860925 -0.090037495
v -0.038670078 3.0860925 0.09003818
v -0.038670078 2.560896 0.090040624
v -0.038670078 2.560896 0.090040624
v 0.4863177 1.6675756 0.090040624
v 0.4863177 1.6675756 -0.090037495
v -0.038670078 2.560896 -0.090037495
v 0.11101682 2.560896 -0.090037495
v 0.636004 1.6675756 -0.090037495
v 0.636004 1.6675756 0.090040624
v 0.11101682 2.560896 0.090040624
vt 0.5654297 0.8613281
vt 0.62402344 0.84472656
vt 0.5654297 0.84472656
vt 0.62402344 0.8613281
vt 0.7392578 0.84472656
vt 0.7392578 0.8613281
vt 0.62402344 0.82470703
vt 0.5654297 0.82470703
vt 0.5654297 0.84472656
vt 0.62402344 0.84472656
vt 0.62402344 0.8613281
vt 0.5654297 0.8613281
vt 0.5654297 0.88134766
vt 0.62402344 0.88134766
vt 0.62402344 0.88134766
vt 0.7392578 0.88134766
vt 0.7392578 0.8613281
vt 0.62402344 0.8613281
vt 0.62402344 0.84472656
vt 0.7392578 0.84472656
vt 0.7392578 0.82470703
vt 0.62402344 0.82470703
vn -0 0 -1
vn -0 0 -1
vn -0 0 -1
vn -0 0 -1
vn -0 0 -1
vn -0 0 -1
vn 1 1.7881393E-07 0
vn 1 1.7881393E-07 0
vn 1 1.7881393E-07 0
vn 1 1.7881393E-07 0
vn -1 0 0
vn -1 0 0
vn -1 0 0
vn -1 0 0
vn -0.8623047 -0.50683594 0
vn -0.8623047 -0.50683594 0
vn -0.8623047 -0.50683594 0
vn -0.8623047 -0.50683594 0
vn 0.8623047 0.50683594 0
vn 0.8623047 0.50683594 0
vn 0.8623047 0.50683594 0
vn 0.8623047 0.50683594 0
g pillar_geo12_0
f 3/3/3 2/2/2 1/1/1
f 2/2/2 4/4/4 1/1/1
f 2/2/2 5/5/5 4/4/4
f 5/5/5 6/6/6 4/4/4
f 9/9/9 8/8/8 7/7/7
f 10/10/10 9/9/9 7/7/7
f 13/13/13 12/12/12 11/11/11
f 14/14/14 13/13/13 11/11/11
f 17/17/17 16/16/16 15/15/15
f 18/18/18 17/17/17 15/15/15
f 21/21/21 20/20/20 19/19/19
f 22/22/22 21/21/21 19/19/19
