g pillar_geo03
v -5.362199E-08 0.14968571 7.009352E-07
v -3.7891235 0.14968571 7.009352E-07
v -3.7891235 -5.7676283E-07 7.009352E-07
v -5.362199E-08 -5.7676283E-07 7.009352E-07
v -3.7891235 -5.7676283E-07 0.18007639
v -5.362199E-08 -5.7676283E-07 0.18007639
v -5.362199E-08 -5.7676283E-07 7.009352E-07
v -3.7891235 -5.7676283E-07 7.009352E-07
v -3.7891235 0.14968571 7.009352E-07
v -5.362199E-08 0.14968571 7.009352E-07
v -5.362199E-08 0.14968571 0.18007639
v -3.7891235 0.14968571 0.18007639
vt 0.9345703 0.9238281
vt 0.50683594 0.9238281
vt 0.50683594 0.94091797
vt 0.9345703 0.94091797
vt 0.50683594 0.9609375
vt 0.9345703 0.9609375
vt 0.9345703 0.94091797
vt 0.50683594 0.94091797
vt 0.50683594 0.9238281
vt 0.9345703 0.9238281
vt 0.9345703 0.9033203
vt 0.50683594 0.9033203
vn -0 0 -1
vn -0 0 -1
vn -0 0 -1
vn -0 0 -1
vn -0 -1 0
vn -0 -1 0
vn -0 -1 0
vn -0 -1 0
vn -0 1 0
vn -0 1 0
vn -0 1 0
vn -0 1 0
g pillar_geo03_0
f 3/3/3 2/2/2 1/1/1
f 4/4/4 3/3/3 1/1/1
f 7/7/7 6/6/6 5/5/5
f 8/8/8 7/7/7 5/5/5
f 11/11/11 10/10/10 9/9/9
f 12/12/12 11/11/11 9/9/9
