g pillar_geo02
v -5.362199E-08 0.14968516 7.009352E-07
v -3.7891235 0.14968516 7.009352E-07
v -3.7891235 1.03399756E-07 7.009352E-07
v -5.362199E-08 1.03399756E-07 7.009352E-07
v -5.362199E-08 0.14968516 7.009352E-07
v -5.362199E-08 0.14968516 0.04616281
v -3.7891235 0.14968516 0.04616281
v -3.7891235 0.14968516 7.009352E-07
v -3.7891235 1.03399756E-07 7.009352E-07
v -3.7891235 1.03399756E-07 0.04616281
v -5.362199E-08 1.03399756E-07 0.04616281
v -5.362199E-08 1.03399756E-07 7.009352E-07
vt 0.99560547 0.96972656
vt 0.5678711 0.96972656
vt 0.5678711 0.9868164
vt 0.99560547 0.9868164
vt 0.99560547 0.96972656
vt 0.99560547 0.96435547
vt 0.5678711 0.96435547
vt 0.5678711 0.96972656
vt 0.5678711 0.9868164
vt 0.5678711 0.9916992
vt 0.99560547 0.9916992
vt 0.99560547 0.9868164
vn -0 0 -1
vn -0 0 -1
vn -0 0 -1
vn -0 0 -1
vn -0 1 0
vn -0 1 0
vn -0 1 0
vn -0 1 0
vn -0 -1 0
vn -0 -1 0
vn -0 -1 0
vn -0 -1 0
g pillar_geo02_0
f 3/3/3 2/2/2 1/1/1
f 4/4/4 3/3/3 1/1/1
f 7/7/7 6/6/6 5/5/5
f 8/8/8 7/7/7 5/5/5
f 11/11/11 10/10/10 9/9/9
f 12/12/12 11/11/11 9/9/9
