g planet2_geo
v -0.0052062515 -0.10366535 0.029839016
v -0.0015761094 -0.1071471 -0.013452943
v -0.041617382 -0.09955707 0.004517156
v -0.041708477 -0.08760883 0.04742498
v -0.007674742 -0.087010995 0.063515306
v -0.030532483 -0.06341877 0.081913404
v -0.069297664 -0.05556965 0.06143164
v -0.052228574 -0.026654245 0.090695806
v -0.07458041 -0.07503376 0.021718971
v -0.085100584 -0.014079172 0.064989805
v -0.096276425 -0.03826893 0.030501386
v -0.06420466 0.00878124 0.086398266
v -0.030515317 0.009003714 0.10320727
v -0.049967907 0.043616753 0.085233785
v -0.08370326 0.029350393 0.06161408
v -0.103697844 0.0056406767 0.0296469
v -0.06529963 0.06869915 0.051772475
v -0.026011 0.07712291 0.07098936
v -0.093482 0.048590813 0.023749955
v -0.03578967 0.09636303 0.033125218
v -0.0017840104 0.09608287 0.04928377
v 0.0015760511 0.10714733 0.0134529555
v -0.069525175 0.08209698 0.009505526
v -0.035148572 0.101514086 -0.011111702
v 0.0052063456 0.10366527 -0.029839002
v -0.106055096 -0.019028818 -0.00736275
v -0.10465785 0.024400746 -0.0107384715
v -0.08968333 0.05891216 -0.012258381
v -0.065894954 0.078615226 -0.03378645
v -0.08760821 0.042956963 -0.046297915
v -0.028529309 0.089399524 -0.053458713
v -0.09332392 -0.0542461 -0.0034628042
v -0.09727816 -0.00051655003 -0.046911635
v -0.054912288 0.05873638 -0.07210183
v -0.070950195 -0.07851551 -0.021572992
v -0.09040271 -0.04390247 -0.03954649
v -0.07195575 0.018083302 -0.07848166
v -0.034448043 -0.094572335 -0.039158937
v -0.0015761094 -0.1071471 -0.013452943
v -0.07335292 -0.025346262 -0.07510595
v -0.05891032 -0.065532416 -0.06244268
v -0.012876769 0.06452557 -0.08564245
v -0.034590025 0.028867604 -0.09815393
v -0.048900176 -0.0058977143 -0.096114494
v -0.036850844 -0.041403387 -0.092691906
v -0.017398406 -0.07601612 -0.07471842
v 0.0017841046 -0.096082956 -0.049283795
v -0.012893859 -0.007897226 -0.10693633
v 0.03578954 -0.096363105 -0.03312523
v 0.03514859 -0.10151417 0.011111708
v 0.026010865 -0.077122994 -0.07098936
v 0.0071680155 -0.046461064 -0.09723159
v 0.009639024 0.030340992 -0.10320126
v 0.030515336 -0.009003794 -0.10320727
v 0.049967773 -0.043616828 -0.08523379
v 0.06529965 -0.068699226 -0.051772475
v 0.06952519 -0.08209705 -0.009505522
v 0.030532578 0.063419 -0.08191338
v 0.052228518 0.026654163 -0.090695806
v 0.0642046 -0.00878132 -0.086398266
v 0.083703354 -0.029350473 -0.06161409
v 0.085100524 0.014079091 -0.064989805
v 0.093481876 -0.048590887 -0.023749964
v 0.0076746074 0.08701091 -0.06351531
v 0.069297686 0.055569876 -0.06143163
v 0.04170842 0.087608755 -0.04742498
v 0.10369793 -0.0056404513 -0.029646885
v 0.0416174 0.099557 -0.004517153
v 0.0015760511 0.10714733 0.0134529555
v 0.074580505 0.07503368 -0.021718971
v 0.09627644 0.03826885 -0.030501377
v 0.034447983 0.09457225 0.03915896
v -0.0017840104 0.09608287 0.04928377
v 0.07095021 0.07851543 0.021573002
v 0.093323946 0.05424633 0.0034628073
v 0.10605511 0.019028736 0.0073627536
v 0.10465794 -0.024400827 0.010738464
v 0.017398346 0.076016046 0.07471842
v -0.026011 0.07712291 0.07098936
v 0.05891034 0.06553234 0.062442686
v 0.090402804 0.043902703 0.0395465
v -0.007168074 0.04646099 0.09723159
v -0.049967907 0.043616753 0.085233785
v -0.030515317 0.009003714 0.10320727
v 0.0972781 0.0005167751 0.046911657
v 0.08968343 -0.05891193 0.012258373
v 0.036850784 0.041403312 0.09269191
v 0.07335293 0.025346486 0.07510594
v 0.012893875 0.007897146 0.106936336
v 0.08760831 -0.042957038 0.046297926
v 0.065894894 -0.078614995 0.033786457
v 0.048900194 0.0058976347 0.096114494
v 0.07195569 -0.018083079 0.07848165
v -0.009639006 -0.030341074 0.10320127
v -0.052228574 -0.026654245 0.090695806
v -0.030532483 -0.06341877 0.081913404
v 0.03458997 -0.028867684 0.09815393
v 0.05491231 -0.058736455 0.07210185
v 0.012876785 -0.06452564 0.08564245
v -0.007674742 -0.087010995 0.063515306
v 0.028529253 -0.089399606 0.053458717
v -0.0052062515 -0.10366535 0.029839016
v -0.0015761094 -0.1071471 -0.013452943
vt 1.0878906 0.064697266
vt 0.5878906 0.064697266
vt 0.8378906 0.1161499
vt 0.97998047 0.17370605
vt 1.0878906 0.17614746
vt 1.0449219 0.2734375
vt 0.9628906 0.30419922
vt 1.0175781 0.39404297
vt 0.8857422 0.23950195
vt 0.95410156 0.43530273
vt 0.8959961 0.36767578
vt 1 0.5
vt 1.0556641 0.5
vt 1.0175781 0.60595703
vt 0.95410156 0.5644531
vt 0.8959961 0.5
vt 0.9628906 0.6958008
vt 1.0449219 0.7265625
vt 0.8959961 0.6323242
vt 0.97998047 0.8261719
vt 1.0878906 0.82373047
vt 1.0878906 0.9355469
vt 0.8857422 0.7602539
vt 0.8378906 0.88378906
vt 0.5878906 0.9355469
vt 0.8378906 0.43530273
vt 0.8378906 0.5644531
vt 0.8378906 0.67626953
vt 0.79052734 0.7602539
vt 0.78027344 0.6323242
vt 0.69628906 0.8261719
vt 0.8378906 0.32373047
vt 0.78027344 0.5
vt 0.7128906 0.6958008
vt 0.79052734 0.23950195
vt 0.78027344 0.36767578
vt 0.72216797 0.5644531
vt 0.69628906 0.17370605
vt 0.5878906 0.064697266
vt 0.72216797 0.43530273
vt 0.7128906 0.30419922
vt 0.6308594 0.7265625
vt 0.6582031 0.60595703
vt 0.67626953 0.5
vt 0.6582031 0.39404297
vt 0.6308594 0.2734375
vt 0.5878906 0.17614746
vt 0.62060547 0.5
vt 0.47973633 0.17370605
vt 0.33813477 0.1161499
vt 0.54541016 0.2734375
vt 0.5878906 0.38378906
vt 0.5878906 0.61621094
vt 0.55566406 0.5
vt 0.5180664 0.39404297
vt 0.46313477 0.30419922
vt 0.3857422 0.23950195
vt 0.54541016 0.7265625
vt 0.5180664 0.60595703
vt 0.5 0.5
vt 0.4543457 0.43530273
vt 0.4543457 0.5644531
vt 0.39624023 0.36767578
vt 0.5878906 0.82373047
vt 0.46313477 0.6958008
vt 0.47973633 0.8261719
vt 0.39624023 0.5
vt 0.33813477 0.88378906
vt 0.08807373 0.9355469
vt 0.3857422 0.7602539
vt 0.39624023 0.6323242
vt 0.19641113 0.8261719
vt 0.08807373 0.82373047
vt 0.2902832 0.7602539
vt 0.33813477 0.67626953
vt 0.33813477 0.5644531
vt 0.33813477 0.43530273
vt 0.13098145 0.7265625
vt 0.045196533 0.7265625
vt 0.21313477 0.6958008
vt 0.2800293 0.6323242
vt 0.08807373 0.61621094
vt 0.01789856 0.60595703
vt 0.055755615 0.5
vt 0.2800293 0.5
vt 0.33813477 0.32373047
vt 0.1583252 0.60595703
vt 0.22192383 0.5644531
vt 0.12042236 0.5
vt 0.2800293 0.36767578
vt 0.2902832 0.23950195
vt 0.17614746 0.5
vt 0.22192383 0.43530273
vt 0.08807373 0.38378906
vt 0.01789856 0.39404297
vt 0.045196533 0.2734375
vt 0.1583252 0.39404297
vt 0.21313477 0.30419922
vt 0.13098145 0.2734375
vt 0.08807373 0.17614746
vt 0.19641113 0.17370605
vt 0.08807373 0.064697266
vt 0.5878906 0.064697266
vn -0.04623413 -0.9667969 0.25146484
vn -0.016860962 -0.9951172 -0.09893799
vn -0.3852539 -0.921875 0.0418396
vn -0.40795898 -0.8076172 0.42578125
vn -0.07104492 -0.80566406 0.5878906
vn -0.29736328 -0.5678711 0.7675781
vn -0.64160156 -0.51464844 0.56884766
vn -0.4729004 -0.27026367 0.8388672
vn -0.6743164 -0.7060547 0.21765137
vn -0.7988281 -0.14562988 0.5839844
vn -0.88916016 -0.34155273 0.3046875
vn -0.59472656 0.08129883 0.7998047
vn -0.25756836 0.08312988 0.9628906
vn -0.45043945 0.42626953 0.78466797
vn -0.78466797 0.28466797 0.55029297
vn -0.95996094 0.052215576 0.27441406
vn -0.6044922 0.63623047 0.4794922
vn -0.2565918 0.6972656 0.6694336
vn -0.86376953 0.4404297 0.24389648
vn -0.35351562 0.8881836 0.2939453
vn -0.016525269 0.88964844 0.45629883
vn 0.016860962 0.9951172 0.09893799
vn -0.62646484 0.77246094 0.1027832
vn -0.32543945 0.9399414 -0.10290527
vn 0.04623413 0.9667969 -0.25146484
vn -0.98583984 -0.15075684 -0.07055664
vn -0.9746094 0.2006836 -0.09790039
vn -0.8305664 0.54541016 -0.11352539
vn -0.59033203 0.73828125 -0.32641602
vn -0.80566406 0.38476562 -0.45043945
vn -0.28808594 0.8251953 -0.4855957
vn -0.8642578 -0.5024414 -0.032073975
vn -0.9008789 -0.0047836304 -0.43432617
vn -0.5083008 0.5439453 -0.66748047
vn -0.6381836 -0.7402344 -0.21142578
vn -0.8310547 -0.3972168 -0.38964844
vn -0.6791992 0.18334961 -0.7109375
vn -0.34277344 -0.8701172 -0.35375977
vn -0.016860962 -0.9951172 -0.09893799
vn -0.6928711 -0.24707031 -0.6772461
vn -0.54541016 -0.6069336 -0.578125
vn -0.13293457 0.5786133 -0.8046875
vn -0.3088379 0.2902832 -0.9057617
vn -0.45288086 -0.054595947 -0.8901367
vn -0.3310547 -0.40625 -0.8515625
vn -0.17370605 -0.68652344 -0.7060547
vn 0.01651001 -0.88964844 -0.45629883
vn -0.093688965 -0.074157715 -0.9926758
vn 0.35351562 -0.8881836 -0.2939453
vn 0.32543945 -0.9399414 0.10290527
vn 0.2565918 -0.6972656 -0.6694336
vn 0.066345215 -0.43017578 -0.9003906
vn 0.0892334 0.28100586 -0.9555664
vn 0.25756836 -0.08312988 -0.9628906
vn 0.45043945 -0.42626953 -0.78466797
vn 0.6044922 -0.63623047 -0.4794922
vn 0.62646484 -0.77246094 -0.1027832
vn 0.29736328 0.5678711 -0.7675781
vn 0.4729004 0.27026367 -0.8388672
vn 0.59472656 -0.08129883 -0.7998047
vn 0.78466797 -0.28466797 -0.55029297
vn 0.7988281 0.14562988 -0.5839844
vn 0.86376953 -0.4404297 -0.24389648
vn 0.07104492 0.80566406 -0.5878906
vn 0.64160156 0.51464844 -0.56884766
vn 0.40795898 0.8076172 -0.42578125
vn 0.95996094 -0.052215576 -0.27441406
vn 0.3852539 0.921875 -0.041809082
vn 0.016860962 0.9951172 0.09893799
vn 0.6743164 0.7060547 -0.21765137
vn 0.88916016 0.34155273 -0.3046875
vn 0.34277344 0.8701172 0.35375977
vn -0.016525269 0.88964844 0.45629883
vn 0.6381836 0.7402344 0.21142578
vn 0.8642578 0.5024414 0.032043457
vn 0.98583984 0.15075684 0.07055664
vn 0.9746094 -0.2006836 0.09790039
vn 0.17370605 0.68652344 0.7060547
vn -0.2565918 0.6972656 0.6694336
vn 0.54541016 0.6069336 0.578125
vn 0.8310547 0.3972168 0.38964844
vn -0.066345215 0.43017578 0.9003906
vn -0.45043945 0.42626953 0.78466797
vn -0.25756836 0.08312988 0.9628906
vn 0.9008789 0.0047836304 0.43432617
vn 0.8305664 -0.54541016 0.11352539
vn 0.3310547 0.40625 0.8515625
vn 0.6928711 0.24707031 0.6772461
vn 0.093688965 0.074157715 0.9926758
vn 0.80566406 -0.38476562 0.45043945
vn 0.59033203 -0.73828125 0.32641602
vn 0.45288086 0.054595947 0.8901367
vn 0.6791992 -0.18334961 0.7109375
vn -0.0892334 -0.28100586 0.9555664
vn -0.4729004 -0.27026367 0.8388672
vn -0.29736328 -0.5678711 0.7675781
vn 0.3088379 -0.2902832 0.9057617
vn 0.5083008 -0.5439453 0.66748047
vn 0.13293457 -0.5786133 0.8046875
vn -0.07104492 -0.80566406 0.5878906
vn 0.28808594 -0.8251953 0.4855957
vn -0.04623413 -0.9667969 0.25146484
vn -0.016860962 -0.9951172 -0.09893799
g planet2_geo_0
f 3/3/3 2/2/2 1/1/1
f 3/3/3 1/1/1 4/4/4
f 4/4/4 1/1/1 5/5/5
f 4/4/4 5/5/5 6/6/6
f 4/4/4 6/6/6 7/7/7
f 7/7/7 6/6/6 8/8/8
f 9/9/9 3/3/3 4/4/4
f 9/9/9 4/4/4 7/7/7
f 7/7/7 8/8/8 10/10/10
f 9/9/9 7/7/7 11/11/11
f 11/11/11 7/7/7 10/10/10
f 10/10/10 8/8/8 12/12/12
f 8/8/8 13/13/13 12/12/12
f 13/13/13 14/14/14 12/12/12
f 15/15/15 10/10/10 12/12/12
f 14/14/14 15/15/15 12/12/12
f 16/16/16 11/11/11 10/10/10
f 16/16/16 10/10/10 15/15/15
f 17/17/17 15/15/15 14/14/14
f 18/18/18 17/17/17 14/14/14
f 19/19/19 16/16/16 15/15/15
f 17/17/17 19/19/19 15/15/15
f 20/20/20 17/17/17 18/18/18
f 21/21/21 20/20/20 18/18/18
f 21/21/21 22/22/22 20/20/20
f 20/20/20 23/23/23 17/17/17
f 23/23/23 19/19/19 17/17/17
f 22/22/22 24/24/24 20/20/20
f 20/20/20 24/24/24 23/23/23
f 22/22/22 25/25/25 24/24/24
f 26/26/26 11/11/11 16/16/16
f 27/27/27 16/16/16 19/19/19
f 27/27/27 26/26/26 16/16/16
f 23/23/23 28/28/28 19/19/19
f 28/28/28 27/27/27 19/19/19
f 24/24/24 29/29/29 23/23/23
f 23/23/23 29/29/29 28/28/28
f 28/28/28 30/30/30 27/27/27
f 29/29/29 30/30/30 28/28/28
f 24/24/24 31/31/31 29/29/29
f 25/25/25 31/31/31 24/24/24
f 26/26/26 32/32/32 11/11/11
f 32/32/32 9/9/9 11/11/11
f 27/27/27 33/33/33 26/26/26
f 30/30/30 33/33/33 27/27/27
f 34/34/34 30/30/30 29/29/29
f 31/31/31 34/34/34 29/29/29
f 32/32/32 35/35/35 9/9/9
f 35/35/35 3/3/3 9/9/9
f 26/26/26 36/36/36 32/32/32
f 33/33/33 36/36/36 26/26/26
f 36/36/36 35/35/35 32/32/32
f 30/30/30 37/37/37 33/33/33
f 34/34/34 37/37/37 30/30/30
f 35/35/35 38/38/38 3/3/3
f 38/38/38 39/39/39 3/3/3
f 33/33/33 40/40/40 36/36/36
f 37/37/37 40/40/40 33/33/33
f 41/41/41 35/35/35 36/36/36
f 41/41/41 38/38/38 35/35/35
f 40/40/40 41/41/41 36/36/36
f 42/42/42 34/34/34 31/31/31
f 43/43/43 37/37/37 34/34/34
f 42/42/42 43/43/43 34/34/34
f 37/37/37 44/44/44 40/40/40
f 43/43/43 44/44/44 37/37/37
f 45/45/45 41/41/41 40/40/40
f 44/44/44 45/45/45 40/40/40
f 46/46/46 38/38/38 41/41/41
f 45/45/45 46/46/46 41/41/41
f 38/38/38 47/47/47 39/39/39
f 46/46/46 47/47/47 38/38/38
f 43/43/43 48/48/48 44/44/44
f 44/44/44 48/48/48 45/45/45
f 47/47/47 49/49/49 39/39/39
f 49/49/49 50/50/50 39/39/39
f 46/46/46 51/51/51 47/47/47
f 47/47/47 51/51/51 49/49/49
f 45/45/45 52/52/52 46/46/46
f 48/48/48 52/52/52 45/45/45
f 52/52/52 51/51/51 46/46/46
f 53/53/53 48/48/48 43/43/43
f 42/42/42 53/53/53 43/43/43
f 48/48/48 54/54/54 52/52/52
f 53/53/53 54/54/54 48/48/48
f 52/52/52 55/55/55 51/51/51
f 54/54/54 55/55/55 52/52/52
f 51/51/51 56/56/56 49/49/49
f 51/51/51 55/55/55 56/56/56
f 49/49/49 57/57/57 50/50/50
f 49/49/49 56/56/56 57/57/57
f 58/58/58 53/53/53 42/42/42
f 59/59/59 54/54/54 53/53/53
f 58/58/58 59/59/59 53/53/53
f 54/54/54 60/60/60 55/55/55
f 59/59/59 60/60/60 54/54/54
f 55/55/55 61/61/61 56/56/56
f 55/55/55 60/60/60 61/61/61
f 62/62/62 60/60/60 59/59/59
f 61/61/61 60/60/60 62/62/62
f 56/56/56 61/61/61 63/63/63
f 56/56/56 63/63/63 57/57/57
f 64/64/64 58/58/58 42/42/42
f 64/64/64 42/42/42 31/31/31
f 25/25/25 64/64/64 31/31/31
f 65/65/65 59/59/59 58/58/58
f 62/62/62 59/59/59 65/65/65
f 66/66/66 58/58/58 64/64/64
f 66/66/66 64/64/64 25/25/25
f 65/65/65 58/58/58 66/66/66
f 61/61/61 62/62/62 67/67/67
f 63/63/63 61/61/61 67/67/67
f 66/66/66 25/25/25 68/68/68
f 68/68/68 25/25/25 69/69/69
f 70/70/70 65/65/65 66/66/66
f 70/70/70 66/66/66 68/68/68
f 71/71/71 62/62/62 65/65/65
f 67/67/67 62/62/62 71/71/71
f 71/71/71 65/65/65 70/70/70
f 68/68/68 69/69/69 72/72/72
f 72/72/72 69/69/69 73/73/73
f 70/70/70 68/68/68 74/74/74
f 74/74/74 68/68/68 72/72/72
f 75/75/75 71/71/71 70/70/70
f 75/75/75 70/70/70 74/74/74
f 67/67/67 71/71/71 76/76/76
f 76/76/76 71/71/71 75/75/75
f 63/63/63 67/67/67 77/77/77
f 77/77/77 67/67/67 76/76/76
f 78/78/78 72/72/72 73/73/73
f 78/78/78 73/73/73 79/79/79
f 80/80/80 74/74/74 72/72/72
f 80/80/80 72/72/72 78/78/78
f 81/81/81 75/75/75 74/74/74
f 76/76/76 75/75/75 81/81/81
f 81/81/81 74/74/74 80/80/80
f 78/78/78 79/79/79 82/82/82
f 82/82/82 79/79/79 83/83/83
f 82/82/82 83/83/83 84/84/84
f 76/76/76 81/81/81 85/85/85
f 77/77/77 76/76/76 85/85/85
f 86/86/86 63/63/63 77/77/77
f 57/57/57 63/63/63 86/86/86
f 87/87/87 80/80/80 78/78/78
f 87/87/87 78/78/78 82/82/82
f 88/88/88 81/81/81 80/80/80
f 85/85/85 81/81/81 88/88/88
f 88/88/88 80/80/80 87/87/87
f 89/89/89 82/82/82 84/84/84
f 87/87/87 82/82/82 89/89/89
f 86/86/86 77/77/77 90/90/90
f 77/77/77 85/85/85 90/90/90
f 57/57/57 86/86/86 91/91/91
f 91/91/91 86/86/86 90/90/90
f 57/57/57 91/91/91 50/50/50
f 92/92/92 88/88/88 87/87/87
f 92/92/92 87/87/87 89/89/89
f 85/85/85 88/88/88 93/93/93
f 90/90/90 85/85/85 93/93/93
f 93/93/93 88/88/88 92/92/92
f 94/94/94 89/89/89 84/84/84
f 94/94/94 84/84/84 95/95/95
f 96/96/96 94/94/94 95/95/95
f 97/97/97 92/92/92 89/89/89
f 97/97/97 93/93/93 92/92/92
f 97/97/97 89/89/89 94/94/94
f 98/98/98 90/90/90 93/93/93
f 91/91/91 90/90/90 98/98/98
f 98/98/98 93/93/93 97/97/97
f 99/99/99 94/94/94 96/96/96
f 99/99/99 97/97/97 94/94/94
f 99/99/99 98/98/98 97/97/97
f 100/100/100 99/99/99 96/96/96
f 101/101/101 91/91/91 98/98/98
f 101/101/101 98/98/98 99/99/99
f 100/100/100 101/101/101 99/99/99
f 50/50/50 91/91/91 101/101/101
f 102/102/102 101/101/101 100/100/100
f 50/50/50 101/101/101 102/102/102
f 103/103/103 50/50/50 102/102/102
