g Rig_Cam
v 0.11662416 -0.1561607 -0.033490382
v 0.11662416 0.1670993 -0.033490382
v -0.11662416 0.1670993 -0.033490382
v -0.11662416 -0.1561607 -0.033490382
v 0.11662416 0.1670993 -0.033490382
v 0.11662416 0.1670993 -0.51517487
v -0.11662416 0.1670993 -0.51517487
v -0.11662416 0.1670993 -0.033490382
v 0.11662416 0.1670993 -0.51517487
v 0.11662416 0.086284295 -0.51517487
v -0.11662416 0.086284295 -0.51517487
v -0.11662416 0.1670993 -0.51517487
v 0.11662416 -0.1561607 -0.51517487
v 0.11662416 -0.1561607 -0.033490382
v -0.11662416 -0.1561607 -0.033490382
v -0.11662416 -0.1561607 -0.51517487
v -0.11662416 -0.07534572 -0.51517487
v -0.11662416 -0.1561607 -0.51517487
v -0.11662416 -0.1561607 -0.033490382
v -0.11662416 0.1670993 -0.033490382
v -0.11662416 0.086284295 -0.51517487
v -0.11662416 0.1670993 -0.51517487
v 0.11662416 0.1670993 -0.033490382
v 0.11662416 -0.1561607 -0.033490382
v 0.11662416 -0.1561607 -0.51517487
v 0.11662416 -0.07534572 -0.51517487
v 0.11662416 0.086284295 -0.51517487
v 0.11662416 0.1670993 -0.51517487
v 0.18657136 -0.12381582 -0.6505705
v -0.18657136 -0.12381582 -0.6505705
v -0.18657136 0.13475436 -0.6505705
v 0.18657136 0.13475436 -0.6505705
v 0.11662416 -0.07534572 -0.51517487
v 0.11662416 -0.1561607 -0.51517487
v -0.11662416 -0.1561607 -0.51517487
v -0.11662416 -0.07534572 -0.51517487
v 0.11662416 -0.07534572 -0.51517487
v 0.18657136 -0.12381582 -0.6505705
v 0.18657136 0.13475436 -0.6505705
v 0.11662416 0.086284295 -0.51517487
v 0.11662416 0.086284295 -0.51517487
v 0.18657136 0.13475436 -0.6505705
v -0.18657136 0.13475436 -0.6505705
v -0.11662416 0.086284295 -0.51517487
v -0.11662416 0.086284295 -0.51517487
v -0.18657136 0.13475436 -0.6505705
v -0.18657136 -0.12381582 -0.6505705
v -0.11662416 -0.07534572 -0.51517487
v -0.11662416 -0.07534572 -0.51517487
v -0.18657136 -0.12381582 -0.6505705
v 0.18657136 -0.12381582 -0.6505705
v 0.11662416 -0.07534572 -0.51517487
vt 0.375 0
vt 0.375 0.25
vt 0.625 0.25
vt 0.625 0
vt 0.375 0.25
vt 0.375 0.5
vt 0.625 0.5
vt 0.625 0.25
vt 0.375 0.5
vt 0.375 0.5625
vt 0.625 0.5625
vt 0.625 0.5
vt 0.375 0.75
vt 0.375 1
vt 0.625 1
vt 0.625 0.75
vt 0.875 0.0625
vt 0.875 0
vt 0.625 0
vt 0.625 0.25
vt 0.875 0.1875
vt 0.875 0.25
vt 0.375 0.25
vt 0.375 0
vt 0.125 0
vt 0.125 0.0625
vt 0.125 0.1875
vt 0.125 0.25
vt 0.375 0.6875
vt 0.625 0.6875
vt 0.625 0.5625
vt 0.375 0.5625
vt 0.375 0.6875
vt 0.375 0.75
vt 0.625 0.75
vt 0.625 0.6875
vt 0.375 0.6875
vt 0.375 0.6875
vt 0.375 0.5625
vt 0.375 0.5625
vt 0.375 0.5625
vt 0.375 0.5625
vt 0.625 0.5625
vt 0.625 0.5625
vt 0.625 0.5625
vt 0.625 0.5625
vt 0.625 0.6875
vt 0.625 0.6875
vt 0.625 0.6875
vt 0.625 0.6875
vt 0.375 0.6875
vt 0.375 0.6875
vn -0 0 -1
vn -0 0 -1
vn -0 0 -1
vn -0 0 -1
vn -0 -1 0
vn -0 -1 0
vn -0 -1 0
vn -0 -1 0
vn -0 0 1
vn -0 0 1
vn -0 0 1
vn -0 0 1
vn -0 1 0
vn -0 1 0
vn -0 1 0
vn -0 1 0
vn 0.99853516 0 -0.050811768
vn 1 0 0
vn 1 0 0
vn 1 0 0
vn 0.99853516 0 -0.050811768
vn 1 0 0
vn -1 0 0
vn -1 0 0
vn -1 0 0
vn -0.99853516 0 -0.050811768
vn -0.99853516 0 -0.050811768
vn -1 0 0
vn -0 0 1
vn -0 0 1
vn -0 0 1
vn -0 0 1
vn -0 0 1
vn -0 0 1
vn -0 0 1
vn -0 0 1
vn -0.99853516 0 -0.050811768
vn -0.8886719 0 -0.45898438
vn -0.8886719 0 -0.45898438
vn -0.99853516 0 -0.050811768
vn -0 -0.94140625 -0.3371582
vn -0 -0.94140625 -0.3371582
vn -0 -0.94140625 -0.3371582
vn -0 -0.94140625 -0.3371582
vn 0.99853516 0 -0.050811768
vn 0.8886719 0 -0.45898438
vn 0.8886719 0 -0.45898438
vn 0.99853516 0 -0.050811768
vn -0 0.94140625 -0.3371582
vn -0 0.94140625 -0.3371582
vn -0 0.94140625 -0.3371582
vn -0 0.94140625 -0.3371582
g Rig_Cam_0
f 3/3/3 2/2/2 1/1/1
f 4/4/4 3/3/3 1/1/1
f 7/7/7 6/6/6 5/5/5
f 8/8/8 7/7/7 5/5/5
f 11/11/11 10/10/10 9/9/9
f 12/12/12 11/11/11 9/9/9
f 15/15/15 14/14/14 13/13/13
f 16/16/16 15/15/15 13/13/13
f 19/19/19 18/18/18 17/17/17
f 17/17/17 20/20/20 19/19/19
f 17/17/17 21/21/21 20/20/20
f 21/21/21 22/22/22 20/20/20
f 25/25/25 24/24/24 23/23/23
f 23/23/23 26/26/26 25/25/25
f 23/23/23 27/27/27 26/26/26
f 23/23/23 28/28/28 27/27/27
f 31/31/31 30/30/30 29/29/29
f 32/32/32 31/31/31 29/29/29
f 35/35/35 34/34/34 33/33/33
f 36/36/36 35/35/35 33/33/33
f 39/39/39 38/38/38 37/37/37
f 40/40/40 39/39/39 37/37/37
f 43/43/43 42/42/42 41/41/41
f 44/44/44 43/43/43 41/41/41
f 47/47/47 46/46/46 45/45/45
f 48/48/48 47/47/47 45/45/45
f 51/51/51 50/50/50 49/49/49
f 52/52/52 51/51/51 49/49/49
