g rockGPlane002_geo
v 3.4236584 0.30800077 -9.857431
v 2.5949805 0.2452542 -7.874763
v 2.1826475 0.63678175 -8.687155
v 1.8383176 0.18880431 -6.09322
v 0.8138341 1.1026859 -5.762288
v 0.0642186 1.3985298 -3.8019323
v 0.9419944 0.09892159 -3.1965778
v -0.42021254 1.6513336 -2.1107373
v -1.3669273E-06 8.4716056E-08 -1.5198731E-07
v -0.90251964 2.119363 -0.7994551
v -0.9664357 2.9671624 0.5006191
v -0.93431896 2.6071506 -0.15010738
v -0.97727793 2.7354205 1.9363797
v -0.99465346 2.9244998 1.2203552
v 0.2145787 -0.08942557 3.09696
v -0.66416764 2.3977137 3.587112
v -0.4917018 2.3851972 4.4005256
v 0.687335 -0.16453804 5.7550855
v 0.22981551 1.860514 6.6668115
v -0.31711686 2.5071142 5.212822
v -0.044145655 2.347485 5.938857
v 1.347761 1.2452976 8.219284
v 1.242501 -0.20036186 7.0869274
v 2.1059349 -0.25009117 8.953773
vt 0.8496094 0.44580078
vt 0.8486328 0.47143555
vt 0.8847656 0.47558594
vt 0.84814453 0.49365234
vt 0.90185547 0.5341797
vt 0.9086914 0.57373047
vt 0.8540039 0.5708008
vt 0.91015625 0.60791016
vt 0.859375 0.65185547
vt 0.9121094 0.63916016
vt 0.9111328 0.66308594
vt 0.9116211 0.6513672
vt 0.91064453 0.6826172
vt 0.91064453 0.67285156
vt 0.8569336 0.7265625
vt 0.9086914 0.70996094
vt 0.9086914 0.7236328
vt 0.8671875 0.7832031
vt 0.9067383 0.7675781
vt 0.91308594 0.73779297
vt 0.9121094 0.7524414
vt 0.90771484 0.80371094
vt 0.8730469 0.8046875
vt 0.89501953 0.8256836
vn 0.42797852 0.8798828 0.20678711
vn 0.5957031 0.77441406 0.21264648
vn 0.5527344 0.80566406 0.21179199
vn 0.66748047 0.71240234 0.21594238
vn 0.703125 0.6767578 0.21765137
vn 0.7446289 0.6376953 0.19689941
vn 0.7841797 0.5834961 0.21203613
vn 0.8339844 0.5078125 0.2163086
vn 0.9057617 0.42041016 0.055419922
vn 0.88427734 0.4555664 0.101745605
vn 0.9501953 0.31152344 -0.012687683
vn 0.99853516 -0.001865387 0.050354004
vn 0.93408203 0.35327148 -0.04989624
vn 0.9536133 0.2956543 0.054901123
vn 0.9291992 0.35107422 -0.11608887
vn 0.9277344 0.36279297 -0.0871582
vn 0.9248047 0.33129883 -0.18603516
vn 0.91015625 0.3322754 -0.24694824
vn 0.90478516 0.3310547 -0.2680664
vn 0.94384766 0.19140625 -0.2697754
vn 0.94384766 0.19140625 -0.2697754
vn 0.85791016 0.3071289 -0.41210938
vn 0.85302734 0.3173828 -0.4140625
vn 0.88134766 0.24987793 -0.4008789
g rockGPlane002_geo_0
f 3/3/3 2/2/2 1/1/1
f 4/4/4 2/2/2 3/3/3
f 5/5/5 4/4/4 3/3/3
f 4/4/4 5/5/5 6/6/6
f 7/7/7 4/4/4 6/6/6
f 6/6/6 8/8/8 7/7/7
f 7/7/7 8/8/8 9/9/9
f 8/8/8 10/10/10 9/9/9
f 11/11/11 9/9/9 10/10/10
f 11/11/11 10/10/10 12/12/12
f 13/13/13 9/9/9 11/11/11
f 13/13/13 11/11/11 14/14/14
f 9/9/9 13/13/13 15/15/15
f 13/13/13 16/16/16 15/15/15
f 15/15/15 16/16/16 17/17/17
f 15/15/15 17/17/17 18/18/18
f 17/17/17 19/19/19 18/18/18
f 17/17/17 20/20/20 19/19/19
f 20/20/20 21/21/21 19/19/19
f 18/18/18 19/19/19 22/22/22
f 23/23/23 18/18/18 22/22/22
f 23/23/23 22/22/22 24/24/24
