g rockEPlane007_geo
v 5.4541984 1.5258789E-07 -0.49215698
v 6.2694974 0.227429 -2.313722
v 8.13087 -1.5258789E-07 -1.4435192
v 5.050553 0.40945396 -2.5191076
v 3.6254277 0.6023758 -2.6448865
v 2.7742724 0.80811995 -2.7742493
v 0.5026174 7.6293944E-08 0.8098413
v 0.9303696 0.84864753 -2.601217
v -0.8182756 0.99284714 -2.0556664
v -2.0737085 1.155131 -1.4891027
v -3.559572 1.259873 -0.5913403
v -4.3263726 1.1674862 0.13008788
v -5.085057 0.9630572 0.9268359
v -4.821513 4.5776366E-07 3.530797
v -6.428997 0.78355205 2.5227983
v -7.1794877 0.43629175 3.4604137
v -8.75756 7.629394E-07 5.605314
vt 0.7519531 0.40063477
vt 0.7338867 0.34887695
vt 0.69433594 0.35131836
vt 0.76708984 0.3461914
vt 0.7949219 0.33789062
vt 0.8120117 0.32983398
vt 0.84277344 0.41064453
vt 0.8417969 0.32202148
vt 0.8691406 0.32055664
vt 0.8857422 0.32202148
vt 0.90185547 0.3256836
vt 0.91259766 0.33129883
vt 0.92333984 0.3371582
vt 0.9238281 0.4020996
vt 0.9448242 0.35229492
vt 0.96777344 0.36743164
vt 0.9921875 0.38623047
vn 0.08331299 0.9711914 0.2232666
vn 0.07397461 0.9848633 0.15612793
vn 0.052124023 0.98779297 0.14660645
vn 0.116882324 0.97753906 0.17419434
vn 0.08526611 0.9667969 0.24047852
vn 0.07751465 0.9667969 0.24438477
vn 0.1340332 0.9501953 0.28125
vn 0.088378906 0.9638672 0.25097656
vn 0.18920898 0.95166016 0.24243164
vn 0.2154541 0.9477539 0.23486328
vn 0.19311523 0.93896484 0.28442383
vn 0.16784668 0.92578125 0.33935547
vn 0.17236328 0.9243164 0.33984375
vn 0.17480469 0.9238281 0.34057617
vn 0.21179199 0.9057617 0.36669922
vn 0.1616211 0.9277344 0.33642578
vn 0.16394043 0.93603516 0.31103516
g rockEPlane007_geo_0
f 3/3/3 2/2/2 1/1/1
f 2/2/2 4/4/4 1/1/1
f 4/4/4 5/5/5 1/1/1
f 1/1/1 5/5/5 6/6/6
f 7/7/7 1/1/1 6/6/6
f 7/7/7 6/6/6 8/8/8
f 9/9/9 7/7/7 8/8/8
f 9/9/9 10/10/10 7/7/7
f 11/11/11 7/7/7 10/10/10
f 11/11/11 12/12/12 7/7/7
f 12/12/12 13/13/13 7/7/7
f 13/13/13 14/14/14 7/7/7
f 14/14/14 13/13/13 15/15/15
f 14/14/14 15/15/15 16/16/16
f 17/17/17 14/14/14 16/16/16
