g rockI003_geo
v -0.08340332 0.10618179 -3.283692
v -0.21394165 8.392334E-07 -3.7023773
v 1.0563842 9.155273E-07 -4.453446
v 0.987655 0.109903105 -4.0156355
v -0.029091796 0.3398232 -2.8031495
v 1.8945569 8.392334E-07 -4.0541987
v -0.9479419 0.10069767 -2.3115842
v -1.1878637 6.4849854E-07 -2.6510167
v 1.674917 0.108990364 -3.600454
v 2.6198535 7.629394E-07 -3.2333183
v -1.8260547 0.09425487 -1.2091887
v -2.1568835 3.4332274E-07 -1.4126463
v -0.6964441 0.36239222 -1.9734434
v -2.1385193 0.08472454 0.26731095
v -2.5910938 1.4210854E-16 0.30255264
v 0.72003907 0.4169496 -3.118576
v 2.2181506 0.10503494 -2.9317436
v 2.4793737 4.959106E-07 -1.9558384
v -1.3282226 0.34623486 -0.9488072
v -2.2641187 0.076161765 1.5878041
v -2.6198535 -3.4332274E-07 1.7903669
v 1.3246753 0.45126805 -2.839832
v 2.3542602 0.09855042 -1.9501457
v 2.0971668 2.2888183E-07 -0.84838605
v -1.7012585 0.26510197 0.23350418
v -1.8988171 0.071391374 2.4719336
v -2.1770055 -5.340576E-07 2.7844446
v 1.7885815 0.39821166 -2.336253
v 1.964895 0.09237072 -0.90529644
v 1.5799475 -3.8146972E-08 0.5615016
v -1.8577222 0.17795883 1.2684053
v -1.4037024 0.067692794 3.150819
v -1.644491 -6.866455E-07 3.4787352
v 1.4933716 0.083931275 0.51250136
v 0.9311682 -3.814697E-07 2.074356
v -1.5523535 0.21387081 1.9335365
v -0.88127315 0.06300079 3.8941917
v -0.975697 -8.7738033E-07 4.453446
v 0.7035193 0.075964466 1.7748512
v 0.22932738 -6.1035155E-07 3.2289515
v 0.06878784 0.06975254 2.7408001
v -1.1042968 0.23291926 2.4814289
v -0.56697875 0.19250719 2.8143866
v -0.009136963 0.20382653 2.1729333
v 0.5159924 0.26387912 1.3228419
v -0.7919763 0.7285162 1.7700948
v 1.0633081 0.31789392 0.30459854
v -1.2253686 0.6645492 1.3908333
v -1.5882508 0.3367843 1.0613228
v -0.54073364 1.1838177 0.27290908
v -1.3115661 0.53130805 0.2425209
v -0.9297693 0.66690373 -0.74102646
v 1.4938464 0.3402717 -0.74994004
v -0.21474731 1.4023023 -0.37111983
v 0.09578491 1.536605 -0.20003158
v -0.17682616 1.3387887 0.39423478
v -0.4502246 0.6611268 -1.6721073
v 0.015501709 1.3559545 -1.0410502
v -0.37188232 0.64743185 1.9959602
v 0.12034424 1.1762028 0.6351527
v -0.024121093 0.47252837 1.7354395
v 0.33143553 0.63445926 0.97435254
v 0.73317015 0.72539806 0.13668045
v 0.40557373 1.3077801 -0.044246063
v 1.1131262 0.72235054 -0.6858635
v 0.733114 1.3087403 -0.65127975
v 1.4377344 0.5751384 -1.4009446
v 0.35384277 1.5995845 -0.7552373
v 1.3658655 0.70288175 -1.8122826
v 1.7844006 0.3339464 -1.6317747
v 0.9858911 0.8072383 -2.1248283
v 0.4719751 0.72130775 -2.389199
v -0.010830078 0.5307317 -2.4527628
vt 0.5605469 0.9423828
vt 0.55322266 0.94384766
vt 0.5566406 0.9682617
vt 0.56152344 0.9638672
vt 0.5673828 0.9399414
vt 0.5708008 0.97753906
vt 0.5649414 0.92285156
vt 0.5576172 0.921875
vt 0.57421875 0.9707031
vt 0.5878906 0.98095703
vt 0.5708008 0.90234375
vt 0.5644531 0.8984375
vt 0.5722656 0.9243164
vt 0.58740234 0.88720703
vt 0.5830078 0.8798828
vt 0.5708008 0.9536133
vt 0.58935547 0.9746094
vt 0.60791016 0.97558594
vt 0.57958984 0.9082031
vt 0.6044922 0.87646484
vt 0.60302734 0.8691406
vt 0.5810547 0.9604492
vt 0.6074219 0.97314453
vt 0.62402344 0.9658203
vt 0.5917969 0.89404297
vt 0.62060547 0.87597656
vt 0.6225586 0.8701172
vt 0.59375 0.96435547
vt 0.62109375 0.96191406
vt 0.63964844 0.9477539
vt 0.6040039 0.8847656
vt 0.6352539 0.87939453
vt 0.6381836 0.87402344
vt 0.63720703 0.94677734
vt 0.6503906 0.9291992
vt 0.6166992 0.8847656
vt 0.65185547 0.8828125
vt 0.6591797 0.87841797
vt 0.6455078 0.92529297
vt 0.65771484 0.90527344
vt 0.64941406 0.90771484
vt 0.62939453 0.8881836
vt 0.63964844 0.89501953
vt 0.64160156 0.90966797
vt 0.6381836 0.9248047
vt 0.6225586 0.8979492
vt 0.6303711 0.94140625
vt 0.61279297 0.8935547
vt 0.6044922 0.8901367
vt 0.60498047 0.9121094
vt 0.5961914 0.89990234
vt 0.5864258 0.91259766
vt 0.61865234 0.9550781
vt 0.5991211 0.9213867
vt 0.60498047 0.9248047
vt 0.61035156 0.9165039
vt 0.5786133 0.92626953
vt 0.59228516 0.9291992
vt 0.63183594 0.9038086
vt 0.6171875 0.9199219
vt 0.63720703 0.9111328
vt 0.63134766 0.92333984
vt 0.62353516 0.93652344
vt 0.61035156 0.92871094
vt 0.6142578 0.94921875
vt 0.60546875 0.9375
vt 0.6064453 0.9584961
vt 0.60009766 0.9326172
vt 0.59765625 0.9555664
vt 0.6064453 0.96435547
vt 0.58740234 0.9506836
vt 0.5786133 0.9448242
vt 0.5727539 0.9379883
vn -0.23986816 0.9272461 -0.28710938
vn -0.16442871 0.9638672 -0.20898438
vn -0.015235901 0.97558594 -0.21899414
vn -0.027450562 0.96191406 -0.27270508
vn -0.34570312 0.85302734 -0.39111328
vn 0.13647461 0.97509766 -0.17346191
vn -0.2993164 0.9243164 -0.23730469
vn -0.1907959 0.9682617 -0.16064453
vn 0.1842041 0.9555664 -0.23095703
vn 0.22094727 0.97021484 -0.10144043
vn -0.29467773 0.94677734 -0.12963867
vn -0.20202637 0.9746094 -0.09814453
vn -0.44140625 0.83935547 -0.3178711
vn -0.28100586 0.9589844 -0.03475952
vn -0.20471191 0.9785156 -0.0262146
vn -0.06335449 0.9238281 -0.37695312
vn 0.31762695 0.9394531 -0.12683105
vn 0.4255371 0.90283203 0.064331055
vn -0.4650879 0.8652344 -0.18615723
vn -0.21582031 0.9760742 0.032470703
vn -0.18188477 0.9824219 0.036315918
vn 0.2331543 0.92626953 -0.29541016
vn 0.46142578 0.8852539 0.061340332
vn 0.55615234 0.8066406 0.19897461
vn -0.4506836 0.8911133 -0.056365967
vn -0.18286133 0.97753906 0.10412598
vn -0.14978027 0.984375 0.09136963
vn 0.4284668 0.8955078 -0.11981201
vn 0.49316406 0.8510742 0.17932129
vn 0.39404297 0.90234375 0.1739502
vn -0.3959961 0.9169922 0.049835205
vn -0.12780762 0.984375 0.12194824
vn -0.1340332 0.9863281 0.09832764
vn 0.40893555 0.8911133 0.19665527
vn 0.2019043 0.97216797 0.12005615
vn -0.3605957 0.9111328 0.1998291
vn 0.019256592 0.9926758 0.11883545
vn 0.0072746277 0.9941406 0.107788086
vn 0.28295898 0.94091797 0.18518066
vn 0.13427734 0.984375 0.11352539
vn 0.18457031 0.9716797 0.14831543
vn -0.21740723 0.9370117 0.27368164
vn 0.066101074 0.9663086 0.24926758
vn 0.4091797 0.85498047 0.31933594
vn 0.46435547 0.8300781 0.30810547
vn -0.23657227 0.8989258 0.36889648
vn 0.53125 0.8022461 0.27148438
vn -0.53222656 0.8334961 0.14831543
vn -0.61328125 0.79003906 0.011497498
vn -0.5620117 0.82666016 0.013916016
vn -0.6220703 0.7792969 -0.07922363
vn -0.609375 0.76416016 -0.2109375
vn 0.55908203 0.8027344 0.20739746
vn -0.58935547 0.79052734 -0.16625977
vn 0.0026817322 0.98535156 0.17053223
vn -0.13757324 0.9472656 0.28930664
vn -0.50341797 0.77978516 -0.37158203
vn -0.36987305 0.8408203 -0.3947754
vn 0.22705078 0.84521484 0.48388672
vn 0.43115234 0.78808594 0.43920898
vn 0.6303711 0.6352539 0.44628906
vn 0.66552734 0.61816406 0.4177246
vn 0.7109375 0.59765625 0.37036133
vn 0.64208984 0.6645508 0.38232422
vn 0.7441406 0.61328125 0.26586914
vn 0.67089844 0.73535156 0.09527588
vn 0.7314453 0.6616211 0.16577148
vn 0.18798828 0.95751953 -0.21801758
vn 0.5751953 0.8129883 -0.089904785
vn 0.5385742 0.83447266 0.11779785
vn 0.23327637 0.9082031 -0.34692383
vn -0.1673584 0.8754883 -0.45361328
vn -0.3972168 0.80566406 -0.43920898
g rockI003_geo_0
f 3/3/3 2/2/2 1/1/1
f 4/4/4 3/3/3 1/1/1
f 4/4/4 1/1/1 5/5/5
f 6/6/6 3/3/3 4/4/4
f 1/1/1 2/2/2 7/7/7
f 1/1/1 7/7/7 5/5/5
f 2/2/2 8/8/8 7/7/7
f 9/9/9 6/6/6 4/4/4
f 10/10/10 6/6/6 9/9/9
f 7/7/7 8/8/8 11/11/11
f 8/8/8 12/12/12 11/11/11
f 7/7/7 13/13/13 5/5/5
f 7/7/7 11/11/11 13/13/13
f 11/11/11 12/12/12 14/14/14
f 12/12/12 15/15/15 14/14/14
f 16/16/16 4/4/4 5/5/5
f 9/9/9 4/4/4 16/16/16
f 17/17/17 10/10/10 9/9/9
f 18/18/18 10/10/10 17/17/17
f 11/11/11 19/19/19 13/13/13
f 11/11/11 14/14/14 19/19/19
f 14/14/14 15/15/15 20/20/20
f 15/15/15 21/21/21 20/20/20
f 22/22/22 9/9/9 16/16/16
f 17/17/17 9/9/9 22/22/22
f 23/23/23 18/18/18 17/17/17
f 24/24/24 18/18/18 23/23/23
f 14/14/14 25/25/25 19/19/19
f 14/14/14 20/20/20 25/25/25
f 20/20/20 21/21/21 26/26/26
f 21/21/21 27/27/27 26/26/26
f 28/28/28 17/17/17 22/22/22
f 23/23/23 17/17/17 28/28/28
f 29/29/29 24/24/24 23/23/23
f 30/30/30 24/24/24 29/29/29
f 20/20/20 31/31/31 25/25/25
f 20/20/20 26/26/26 31/31/31
f 26/26/26 27/27/27 32/32/32
f 27/27/27 33/33/33 32/32/32
f 34/34/34 30/30/30 29/29/29
f 35/35/35 30/30/30 34/34/34
f 26/26/26 36/36/36 31/31/31
f 26/26/26 32/32/32 36/36/36
f 32/32/32 33/33/33 37/37/37
f 33/33/33 38/38/38 37/37/37
f 39/39/39 35/35/35 34/34/34
f 40/40/40 35/35/35 39/39/39
f 38/38/38 40/40/40 41/41/41
f 37/37/37 38/38/38 41/41/41
f 41/41/41 40/40/40 39/39/39
f 32/32/32 37/37/37 42/42/42
f 32/32/32 42/42/42 36/36/36
f 37/37/37 41/41/41 43/43/43
f 37/37/37 43/43/43 42/42/42
f 41/41/41 39/39/39 44/44/44
f 41/41/41 44/44/44 43/43/43
f 39/39/39 34/34/34 45/45/45
f 39/39/39 45/45/45 44/44/44
f 42/42/42 46/46/46 36/36/36
f 42/42/42 43/43/43 46/46/46
f 34/34/34 47/47/47 45/45/45
f 34/34/34 29/29/29 47/47/47
f 46/46/46 48/48/48 36/36/36
f 36/36/36 48/48/48 31/31/31
f 48/48/48 49/49/49 31/31/31
f 31/31/31 49/49/49 25/25/25
f 48/48/48 50/50/50 49/49/49
f 48/48/48 46/46/46 50/50/50
f 49/49/49 51/51/51 25/25/25
f 50/50/50 51/51/51 49/49/49
f 19/19/19 25/25/25 51/51/51
f 52/52/52 19/19/19 51/51/51
f 19/19/19 52/52/52 13/13/13
f 29/29/29 53/53/53 47/47/47
f 29/29/29 23/23/23 53/53/53
f 50/50/50 54/54/54 51/51/51
f 54/54/54 52/52/52 51/51/51
f 55/55/55 54/54/54 50/50/50
f 46/46/46 56/56/56 50/50/50
f 56/56/56 55/55/55 50/50/50
f 52/52/52 57/57/57 13/13/13
f 5/5/5 13/13/13 57/57/57
f 54/54/54 58/58/58 52/52/52
f 54/54/54 55/55/55 58/58/58
f 58/58/58 57/57/57 52/52/52
f 46/46/46 59/59/59 56/56/56
f 43/43/43 59/59/59 46/46/46
f 59/59/59 60/60/60 56/56/56
f 56/56/56 60/60/60 55/55/55
f 61/61/61 59/59/59 43/43/43
f 59/59/59 61/61/61 60/60/60
f 44/44/44 61/61/61 43/43/43
f 62/62/62 61/61/61 44/44/44
f 61/61/61 62/62/62 60/60/60
f 45/45/45 62/62/62 44/44/44
f 63/63/63 62/62/62 45/45/45
f 62/62/62 63/63/63 60/60/60
f 47/47/47 63/63/63 45/45/45
f 60/60/60 64/64/64 55/55/55
f 63/63/63 64/64/64 60/60/60
f 63/63/63 47/47/47 65/65/65
f 47/47/47 53/53/53 65/65/65
f 64/64/64 63/63/63 66/66/66
f 64/64/64 66/66/66 55/55/55
f 63/63/63 65/65/65 66/66/66
f 67/67/67 65/65/65 53/53/53
f 65/65/65 67/67/67 66/66/66
f 66/66/66 68/68/68 55/55/55
f 55/55/55 68/68/68 58/58/58
f 66/66/66 69/69/69 68/68/68
f 67/67/67 69/69/69 66/66/66
f 70/70/70 67/67/67 53/53/53
f 23/23/23 70/70/70 53/53/53
f 70/70/70 23/23/23 28/28/28
f 67/67/67 70/70/70 28/28/28
f 69/69/69 67/67/67 28/28/28
f 69/69/69 28/28/28 22/22/22
f 69/69/69 71/71/71 68/68/68
f 71/71/71 69/69/69 22/22/22
f 68/68/68 71/71/71 58/58/58
f 71/71/71 22/22/22 16/16/16
f 71/71/71 72/72/72 58/58/58
f 72/72/72 71/71/71 16/16/16
f 58/58/58 72/72/72 57/57/57
f 72/72/72 16/16/16 5/5/5
f 72/72/72 73/73/73 57/57/57
f 73/73/73 72/72/72 5/5/5
f 73/73/73 5/5/5 57/57/57
