g rockK012_geo
v 0.23334472 0.0077153584 -0.6041641
v 0.2723169 1.335144E-07 -0.7041507
v 0.44469482 5.7220458E-08 -0.55746734
v 0.38047484 0.0073530385 -0.4780539
v 0.54980713 -1.9073486E-08 -0.3193405
v 0.04276123 0.007810802 -0.623865
v 0.044375 0.052302454 -0.48458466
v 0.04955444 5.7220458E-08 -0.7279147
v -0.1530188 0.007599697 -0.553638
v -0.17885497 5.7220458E-08 -0.6463156
v 0.4706262 0.006728115 -0.27367583
v 0.57964844 -9.5367426E-08 -0.04148407
v -0.3314099 0.0071498677 -0.416705
v -0.26001832 0.044607144 -0.31546476
v -0.38687378 5.7220458E-08 -0.48668364
v -0.45383787 0.0064998437 -0.2206955
v -0.5292773 5.7220458E-08 -0.25737518
v -0.49670532 0.0057834433 0.017886657
v -0.57964844 -1.9073486E-08 0.021366881
v -0.11433593 0.05183706 -0.42282012
v -0.07882934 0.09140939 -0.30185944
v 0.49657592 0.0059856223 -0.035234068
v 0.51603025 -9.5367426E-08 0.2534854
v -0.3638965 0.033843745 -0.17620452
v -0.4650183 0.0050502587 0.25686494
v -0.54246706 -1.7166137E-07 0.2999948
v 0.44286987 0.005179882 0.21720184
v 0.3613684 -1.7166137E-07 0.5031186
v -0.38529783 0.033119563 0.003262024
v -0.3848291 0.004390774 0.4692355
v -0.44891965 -1.7166137E-07 0.5476498
v 0.31015626 0.00455595 0.43032318
v 0.15819092 -1.7166137E-07 0.6516458
v -0.35879883 0.02966444 0.1959317
v -0.2430786 0.003959179 0.6027292
v -0.2829846 -2.479553E-07 0.70301664
v -0.29427245 0.02505087 0.36743927
v -0.25937012 0.064710066 0.13872711
v -0.28408813 0.06690458 -0.015567321
v -0.05812744 0.003938503 0.62346894
v -0.067315675 -1.7166137E-07 0.7279147
v 0.13556518 0.004167919 0.55785555
v -0.19611816 0.019372081 0.47925383
v -0.052979734 0.026836757 0.47824126
v 0.104548335 0.032824993 0.4186624
v -0.300896 0.056470584 -0.14588897
v -0.19870117 0.07966459 -0.22145355
v -0.1379016 0.12273443 -0.07255035
v 0.25011107 0.034099482 0.31447846
v -0.11352295 0.12244604 0.05489471
v 0.00015380859 0.14408015 -0.01115509
v -0.07478149 0.11437223 0.17104766
v -0.031123046 0.14227739 -0.13275298
v 0.07547852 0.13531691 -0.19082916
v 0.35927123 0.031806774 0.1676883
v -0.21028076 0.060018823 0.27954313
v -0.16312255 0.044148922 0.39337614
v -0.051350098 0.06602751 0.34662506
v 0.07594116 0.0768773 0.2890445
v 0.19766723 0.07586054 0.20985931
v 0.0328833 0.13388799 0.10973907
v 0.30083495 0.059283886 0.13321503
v 0.14221069 0.12933226 0.05202484
v 0.28842163 0.078794114 -0.002726135
v 0.11370605 0.13526167 -0.074743345
v 0.38729858 0.040385876 -0.020046081
v 0.2627661 0.08446734 -0.15729523
v 0.36254516 0.04580793 -0.21302459
v 0.21038085 0.086018965 -0.29479155
v 0.29267454 0.048511866 -0.37958953
v 0.16005492 0.07219987 -0.40429962
v 0.19026855 0.046474323 -0.48630157
v 0.048114013 0.09051233 -0.35923856
vt 0.46606445 0.9746094
vt 0.46850586 0.98095703
vt 0.48510742 0.9711914
vt 0.47998047 0.9658203
vt 0.4963379 0.9550781
vt 0.4489746 0.97558594
vt 0.4501953 0.9663086
vt 0.44873047 0.98291016
vt 0.4321289 0.9711914
vt 0.42919922 0.9770508
vt 0.4897461 0.95214844
vt 0.50146484 0.93652344
vt 0.41748047 0.96191406
vt 0.42456055 0.9550781
vt 0.41186523 0.9663086
vt 0.40795898 0.94873047
vt 0.40112305 0.9511719
vt 0.40600586 0.9326172
vt 0.39868164 0.9321289
vt 0.43652344 0.96240234
vt 0.44067383 0.95410156
vt 0.49414062 0.93603516
vt 0.49853516 0.9165039
vt 0.4165039 0.9453125
vt 0.41064453 0.9165039
vt 0.40405273 0.9135742
vt 0.49169922 0.9189453
vt 0.4868164 0.89990234
vt 0.41577148 0.93359375
vt 0.41967773 0.90185547
vt 0.41455078 0.8964844
vt 0.4814453 0.90478516
vt 0.46972656 0.88964844
vt 0.41967773 0.92041016
vt 0.4333496 0.8930664
vt 0.43066406 0.88623047
vt 0.42700195 0.9086914
vt 0.42822266 0.9243164
vt 0.4248047 0.9345703
vt 0.4501953 0.89160156
vt 0.4501953 0.88427734
vt 0.46704102 0.8959961
vt 0.43652344 0.9013672
vt 0.4494629 0.9013672
vt 0.46313477 0.90527344
vt 0.42236328 0.9433594
vt 0.43066406 0.94873047
vt 0.43725586 0.93847656
vt 0.47509766 0.91259766
vt 0.4404297 0.9296875
vt 0.4501953 0.9345703
vt 0.44482422 0.921875
vt 0.44628906 0.9423828
vt 0.45532227 0.94628906
vt 0.48364258 0.9223633
vt 0.43359375 0.9145508
vt 0.4387207 0.90722656
vt 0.44848633 0.91015625
vt 0.45947266 0.9140625
vt 0.46972656 0.9194336
vt 0.45410156 0.92626953
vt 0.47827148 0.9248047
vt 0.4633789 0.9301758
vt 0.47583008 0.93359375
vt 0.4597168 0.93847656
vt 0.48461914 0.9350586
vt 0.4724121 0.94433594
vt 0.4807129 0.9482422
vt 0.46655273 0.9536133
vt 0.47314453 0.95947266
vt 0.46118164 0.9609375
vt 0.46313477 0.9663086
vt 0.45166016 0.9580078
vn 0.06500244 0.9863281 -0.15063477
vn 0.02772522 0.9975586 -0.06524658
vn 0.05819702 0.9970703 -0.045166016
vn 0.14648438 0.9838867 -0.10296631
vn 0.07336426 0.9970703 -0.020706177
vn -0.02458191 0.98339844 -0.18005371
vn -0.049743652 0.95410156 -0.29492188
vn -0.0073280334 0.9970703 -0.074645996
vn -0.09692383 0.98046875 -0.17211914
vn -0.037384033 0.99658203 -0.07098389
vn 0.18774414 0.98095703 -0.04763794
vn 0.072387695 0.9975586 0.003774643
vn -0.140625 0.9819336 -0.12524414
vn -0.23864746 0.95214844 -0.1920166
vn -0.05911255 0.99658203 -0.05496216
vn -0.1574707 0.98583984 -0.056671143
vn -0.072143555 0.9970703 -0.027832031
vn -0.14941406 0.98876953 0.002948761
vn -0.06939697 0.9975586 -0.00047302246
vn -0.16357422 0.9511719 -0.26171875
vn -0.17028809 0.9560547 -0.23937988
vn 0.18347168 0.98291016 0.010948181
vn 0.058532715 0.9980469 0.024627686
vn -0.27368164 0.9580078 -0.08795166
vn -0.122924805 0.9916992 0.037597656
vn -0.05557251 0.99853516 0.015930176
vn 0.14660645 0.9873047 0.06427002
vn 0.03765869 0.99853516 0.03652954
vn -0.26586914 0.9638672 0.010734558
vn -0.0758667 0.99560547 0.055480957
vn -0.036071777 0.99902344 0.026535034
vn 0.09661865 0.99072266 0.09802246
vn 0.019180298 0.99902344 0.039916992
vn -0.23059082 0.97021484 0.072143555
vn -0.03250122 0.9970703 0.0703125
vn -0.01537323 0.9995117 0.03427124
vn -0.16503906 0.9794922 0.11541748
vn -0.2956543 0.9501953 0.100097656
vn -0.32714844 0.9448242 0.01146698
vn 0.0056533813 0.99560547 0.0925293
vn 0.0031871796 0.99902344 0.03857422
vn 0.05001831 0.9926758 0.109313965
vn -0.07342529 0.98535156 0.15307617
vn 0.01158905 0.9790039 0.20410156
vn 0.1015625 0.96972656 0.22241211
vn -0.32495117 0.94189453 -0.085510254
vn -0.2763672 0.94628906 -0.1665039
vn -0.27734375 0.95947266 -0.048461914
vn 0.19604492 0.9609375 0.19628906
vn -0.2467041 0.96484375 0.091308594
vn -0.037902832 0.99853516 0.040649414
vn -0.12988281 0.97021484 0.20483398
vn -0.12573242 0.98339844 -0.13232422
vn 0.093566895 0.9824219 -0.16125488
vn 0.28125 0.95166016 0.12390137
vn -0.21875 0.9589844 0.17993164
vn -0.12683105 0.9614258 0.24353027
vn -0.026397705 0.9609375 0.27539062
vn 0.11090088 0.9536133 0.27978516
vn 0.24206543 0.94189453 0.23217773
vn 0.053985596 0.9790039 0.19543457
vn 0.3383789 0.92822266 0.15515137
vn 0.23461914 0.96533203 0.11273193
vn 0.3408203 0.93896484 0.04244995
vn 0.21252441 0.9765625 -0.030303955
vn 0.32421875 0.9458008 0.024810791
vn 0.3137207 0.9477539 -0.061187744
vn 0.31420898 0.94677734 -0.06781006
vn 0.2310791 0.95947266 -0.16040039
vn 0.26049805 0.95166016 -0.16174316
vn 0.12243652 0.9604492 -0.24951172
vn 0.12005615 0.95703125 -0.26391602
vn -0.016799927 0.96435547 -0.26342773
g rockK012_geo_0
f 3/3/3 2/2/2 1/1/1
f 4/4/4 3/3/3 1/1/1
f 5/5/5 3/3/3 4/4/4
f 1/1/1 2/2/2 6/6/6
f 1/1/1 6/6/6 7/7/7
f 2/2/2 8/8/8 6/6/6
f 6/6/6 8/8/8 9/9/9
f 6/6/6 9/9/9 7/7/7
f 8/8/8 10/10/10 9/9/9
f 11/11/11 5/5/5 4/4/4
f 12/12/12 5/5/5 11/11/11
f 9/9/9 10/10/10 13/13/13
f 9/9/9 13/13/13 14/14/14
f 10/10/10 15/15/15 13/13/13
f 13/13/13 15/15/15 16/16/16
f 13/13/13 16/16/16 14/14/14
f 15/15/15 17/17/17 16/16/16
f 16/16/16 17/17/17 18/18/18
f 17/17/17 19/19/19 18/18/18
f 9/9/9 20/20/20 7/7/7
f 20/20/20 9/9/9 14/14/14
f 20/20/20 21/21/21 7/7/7
f 21/21/21 20/20/20 14/14/14
f 22/22/22 12/12/12 11/11/11
f 23/23/23 12/12/12 22/22/22
f 16/16/16 24/24/24 14/14/14
f 16/16/16 18/18/18 24/24/24
f 18/18/18 19/19/19 25/25/25
f 19/19/19 26/26/26 25/25/25
f 27/27/27 23/23/23 22/22/22
f 28/28/28 23/23/23 27/27/27
f 18/18/18 29/29/29 24/24/24
f 18/18/18 25/25/25 29/29/29
f 25/25/25 26/26/26 30/30/30
f 26/26/26 31/31/31 30/30/30
f 32/32/32 28/28/28 27/27/27
f 33/33/33 28/28/28 32/32/32
f 25/25/25 34/34/34 29/29/29
f 25/25/25 30/30/30 34/34/34
f 30/30/30 31/31/31 35/35/35
f 31/31/31 36/36/36 35/35/35
f 30/30/30 37/37/37 34/34/34
f 30/30/30 35/35/35 37/37/37
f 34/34/34 38/38/38 29/29/29
f 34/34/34 37/37/37 38/38/38
f 29/29/29 39/39/39 24/24/24
f 38/38/38 39/39/39 29/29/29
f 35/35/35 36/36/36 40/40/40
f 36/36/36 41/41/41 40/40/40
f 41/41/41 33/33/33 42/42/42
f 40/40/40 41/41/41 42/42/42
f 42/42/42 33/33/33 32/32/32
f 35/35/35 40/40/40 43/43/43
f 35/35/35 43/43/43 37/37/37
f 40/40/40 42/42/42 44/44/44
f 40/40/40 44/44/44 43/43/43
f 42/42/42 32/32/32 45/45/45
f 42/42/42 45/45/45 44/44/44
f 39/39/39 46/46/46 24/24/24
f 24/24/24 46/46/46 14/14/14
f 46/46/46 47/47/47 14/14/14
f 47/47/47 21/21/21 14/14/14
f 47/47/47 46/46/46 48/48/48
f 46/46/46 39/39/39 48/48/48
f 21/21/21 47/47/47 48/48/48
f 32/32/32 49/49/49 45/45/45
f 32/32/32 27/27/27 49/49/49
f 48/48/48 39/39/39 50/50/50
f 50/50/50 51/51/51 48/48/48
f 39/39/39 38/38/38 50/50/50
f 50/50/50 38/38/38 52/52/52
f 51/51/51 50/50/50 52/52/52
f 53/53/53 21/21/21 48/48/48
f 51/51/51 53/53/53 48/48/48
f 21/21/21 53/53/53 54/54/54
f 54/54/54 53/53/53 51/51/51
f 27/27/27 55/55/55 49/49/49
f 27/27/27 22/22/22 55/55/55
f 38/38/38 56/56/56 52/52/52
f 37/37/37 56/56/56 38/38/38
f 57/57/57 56/56/56 37/37/37
f 43/43/43 57/57/57 37/37/37
f 56/56/56 57/57/57 58/58/58
f 58/58/58 57/57/57 43/43/43
f 52/52/52 56/56/56 58/58/58
f 44/44/44 58/58/58 43/43/43
f 59/59/59 58/58/58 44/44/44
f 52/52/52 58/58/58 59/59/59
f 45/45/45 59/59/59 44/44/44
f 45/45/45 49/49/49 60/60/60
f 59/59/59 45/45/45 60/60/60
f 61/61/61 52/52/52 59/59/59
f 59/59/59 60/60/60 61/61/61
f 61/61/61 51/51/51 52/52/52
f 60/60/60 49/49/49 62/62/62
f 49/49/49 55/55/55 62/62/62
f 60/60/60 63/63/63 61/61/61
f 61/61/61 63/63/63 51/51/51
f 60/60/60 62/62/62 63/63/63
f 64/64/64 62/62/62 55/55/55
f 62/62/62 64/64/64 63/63/63
f 63/63/63 65/65/65 51/51/51
f 63/63/63 64/64/64 65/65/65
f 65/65/65 54/54/54 51/51/51
f 66/66/66 64/64/64 55/55/55
f 22/22/22 66/66/66 55/55/55
f 22/22/22 11/11/11 66/66/66
f 64/64/64 67/67/67 65/65/65
f 67/67/67 64/64/64 66/66/66
f 65/65/65 67/67/67 54/54/54
f 11/11/11 68/68/68 66/66/66
f 68/68/68 67/67/67 66/66/66
f 11/11/11 4/4/4 68/68/68
f 69/69/69 67/67/67 68/68/68
f 67/67/67 69/69/69 54/54/54
f 4/4/4 70/70/70 68/68/68
f 70/70/70 69/69/69 68/68/68
f 4/4/4 1/1/1 70/70/70
f 69/69/69 71/71/71 54/54/54
f 71/71/71 69/69/69 70/70/70
f 1/1/1 72/72/72 70/70/70
f 72/72/72 71/71/71 70/70/70
f 72/72/72 1/1/1 7/7/7
f 71/71/71 72/72/72 7/7/7
f 71/71/71 73/73/73 54/54/54
f 73/73/73 71/71/71 7/7/7
f 73/73/73 21/21/21 54/54/54
f 21/21/21 73/73/73 7/7/7
