g rockM005_geo
v -0.7123898 0.0041774223 -0.2965968
v -0.9021631 4.8718505E-09 -0.4336915
v -0.5985727 4.8718505E-09 -0.8343605
v -0.48977783 0.0042241905 -0.712383
v -0.63985014 0.026687589 -0.14058729
v -0.18134917 4.8718505E-09 -1.0133204
v -0.79914886 0.00417088 0.028539913
v -1.0293237 4.8718505E-09 -0.0057447543
v -0.1683725 0.0041031884 -0.8240016
v 0.20442963 4.8718505E-09 -1.0780226
v -0.86709195 0.004240594 0.5333592
v -1.0541769 4.8718505E-09 0.6015306
v -0.7114703 0.029895071 0.09621814
v -0.65334076 0.0040624854 0.737274
v -0.82197326 4.8718505E-09 0.9420982
v -0.40097594 0.04646543 -0.55527353
v 0.1693605 0.0040824744 -0.89267105
v 0.59902114 4.8718505E-09 -1.0190846
v -0.7137192 0.033404317 0.54331166
v -0.35653076 0.004151578 0.8660521
v -0.3239984 4.8718505E-09 1.078021
v -0.11743652 0.049751706 -0.69079727
v 0.5220691 0.0041766213 -0.88862073
v 0.85914016 4.8718505E-09 -0.89917374
v -0.57054013 0.027839035 0.72623396
v -0.0015374753 0.004107518 0.6710716
v 0.121359706 4.8718505E-09 0.86315536
v 0.16551314 0.04798634 -0.75972426
v 0.7466998 0.0042350246 -0.783213
v 1.0488886 4.8718505E-09 -0.6829298
v -0.35093567 0.01811583 0.8185765
v 0.3353653 0.004059243 0.28557727
v 0.44710723 4.8718505E-09 0.42683458
v 0.909754 0.0042766426 -0.5947767
v 1.054177 4.8718505E-09 -0.39319468
v -0.064497374 0.027913213 0.6049657
v 0.6302644 0.0042680977 0.21123154
v 0.72371507 4.8718505E-09 0.25161973
v 0.91529936 0.0042674113 -0.3436903
v 0.9844198 4.8718505E-09 -0.060455445
v 0.7754007 0.0042171716 -0.09679455
v 0.25431213 0.034603886 0.23956163
v 0.51061463 0.032376323 0.05870837
v 0.6463681 0.025187725 -0.13030651
v 0.7163342 0.032972597 -0.32032725
v 0.1623343 0.09620364 0.17033434
v 0.69653076 0.038412843 -0.51589
v -0.13210143 0.07859137 0.52492297
v 0.58633846 0.042025343 -0.674192
v -0.3445395 0.050905824 0.7623839
v -0.48429075 0.08020934 0.65903914
v -0.24299377 0.12852694 0.37627184
v -0.5869705 0.092312075 0.4686571
v 0.008562927 0.1819311 0.035366084
v -0.023373106 0.19325297 -0.07570813
v 0.26457366 0.16921563 -0.2193031
v 0.42386183 0.041818652 -0.7720778
v 0.35813475 0.08507678 -0.68765396
v -0.6165842 0.08370414 0.1884276
v -0.29989073 0.15103227 0.24095201
v -0.36057007 0.13609865 0.10534533
v -0.5942398 0.061547704 -0.076587036
v -0.40680724 0.106315866 -0.23825818
v -0.051575165 0.18595117 -0.1822035
v -0.090865016 0.117881194 -0.5088392
v 0.19030029 0.16426645 -0.43943736
v 0.16393737 0.10719294 -0.6336378
v 0.2058287 0.18055032 -0.31869274
v 0.42835784 0.09720568 -0.5772499
v 0.49892363 0.09435893 -0.441526
v 0.5336031 0.08577502 -0.28847548
v 0.4065143 0.08672442 -0.056667604
v 0.5497368 0.061471142 -0.15346082
vt 0.83496094 0.20031738
vt 0.8286133 0.21850586
vt 0.875 0.22924805
vt 0.87597656 0.21606445
vt 0.83203125 0.18640137
vt 0.9169922 0.22021484
vt 0.8095703 0.18383789
vt 0.7939453 0.1973877
vt 0.9067383 0.20739746
vt 0.9501953 0.20532227
vt 0.77490234 0.15490723
vt 0.75683594 0.15979004
vt 0.8129883 0.17492676
vt 0.7792969 0.13146973
vt 0.75439453 0.12658691
vt 0.87353516 0.2010498
vt 0.93652344 0.19519043
vt 0.9765625 0.1821289
vt 0.7871094 0.14672852
vt 0.7944336 0.10870361
vt 0.7841797 0.093444824
vt 0.90283203 0.19580078
vt 0.9628906 0.1776123
vt 0.9892578 0.16174316
vt 0.7871094 0.1282959
vt 0.83251953 0.10369873
vt 0.8305664 0.08532715
vt 0.9277344 0.18640137
vt 0.9741211 0.15979004
vt 0.99121094 0.1385498
vt 0.79833984 0.11175537
vt 0.8803711 0.11175537
vt 0.8808594 0.097229004
vt 0.97509766 0.13977051
vt 0.9746094 0.11981201
vt 0.83203125 0.11138916
vt 0.90722656 0.10205078
vt 0.9121094 0.0947876
vt 0.9609375 0.12347412
vt 0.9501953 0.10192871
vt 0.93603516 0.11462402
vt 0.8769531 0.11895752
vt 0.9067383 0.11798096
vt 0.9277344 0.123291016
vt 0.94384766 0.13195801
vt 0.87402344 0.12780762
vt 0.9536133 0.14526367
vt 0.83154297 0.11975098
vt 0.95458984 0.16064453
vt 0.8017578 0.114990234
vt 0.7973633 0.1282959
vt 0.8310547 0.13513184
vt 0.80078125 0.14538574
vt 0.8691406 0.14453125
vt 0.87353516 0.15307617
vt 0.9033203 0.14807129
vt 0.9482422 0.17468262
vt 0.93847656 0.17248535
vt 0.8144531 0.16455078
vt 0.83447266 0.14648438
vt 0.83740234 0.15795898
vt 0.83154297 0.18017578
vt 0.85498047 0.18127441
vt 0.8774414 0.16113281
vt 0.89404297 0.1829834
vt 0.91015625 0.16564941
vt 0.92041016 0.17858887
vt 0.90478516 0.15722656
vt 0.9370117 0.16210938
vt 0.9345703 0.15014648
vt 0.92822266 0.13879395
vt 0.90527344 0.13024902
vt 0.921875 0.1295166
vn -0.08917236 0.9951172 -0.038360596
vn -0.017959595 1 -0.008811951
vn -0.014549255 1 -0.016098022
vn -0.060333252 0.99609375 -0.066101074
vn -0.29418945 0.9477539 -0.12188721
vn -0.006126404 0.9995117 -0.022567749
vn -0.072509766 0.9970703 -0.013832092
vn -0.019241333 1 -0.0031661987
vn -0.040222168 0.99121094 -0.12487793
vn -0.0007390976 0.9995117 -0.023910522
vn -0.060272217 0.9980469 0.0066871643
vn -0.01763916 1 0.004184723
vn -0.2915039 0.9555664 -0.042755127
vn -0.042877197 0.9975586 0.05255127
vn -0.010017395 1 0.014892578
vn -0.19042969 0.9638672 -0.18566895
vn -0.011962891 0.9916992 -0.12878418
vn 0.0066604614 0.9995117 -0.025314331
vn -0.2854004 0.95410156 0.089538574
vn 0.0034427643 0.99902344 0.045715332
vn 0.0019493103 1 0.017364502
vn -0.12182617 0.9506836 -0.28442383
vn 0.028274536 0.9946289 -0.101989746
vn 0.016204834 0.9995117 -0.020767212
vn -0.22595215 0.9223633 0.31274414
vn 0.05343628 0.99658203 0.059783936
vn 0.012306213 1 0.015167236
vn -0.05078125 0.93652344 -0.3474121
vn 0.06500244 0.99560547 -0.07055664
vn 0.023895264 0.9995117 -0.010848999
vn 0.063964844 0.9355469 0.3479004
vn 0.074035645 0.9921875 0.0993042
vn 0.015464783 0.9995117 0.017623901
vn 0.07659912 0.99658203 -0.024963379
vn 0.028060913 0.9995117 0.0033893585
vn 0.25634766 0.92529297 0.27978516
vn 0.05380249 0.99658203 0.06097412
vn 0.021118164 0.9995117 0.019805908
vn 0.076293945 0.9970703 0.015670776
vn 0.02444458 0.9995117 0.011802673
vn 0.07836914 0.99609375 0.042114258
vn 0.24401855 0.9345703 0.25854492
vn 0.18579102 0.9658203 0.18041992
vn 0.19812012 0.9746094 0.10424805
vn 0.19848633 0.9790039 0.044433594
vn 0.2644043 0.9248047 0.27294922
vn 0.18603516 0.98095703 -0.053771973
vn 0.21569824 0.93603516 0.27783203
vn 0.16125488 0.9741211 -0.15979004
vn 0.11022949 0.9379883 0.32910156
vn -0.07446289 0.96875 0.23608398
vn 0.07727051 0.9760742 0.20239258
vn -0.24609375 0.96533203 0.08685303
vn 0.16247559 0.96533203 0.20422363
vn -0.045166016 0.99853516 0.020202637
vn 0.24975586 0.95996094 0.1262207
vn 0.06555176 0.95410156 -0.2919922
vn 0.082336426 0.9428711 -0.3227539
vn -0.3154297 0.9482422 -0.030258179
vn -0.11566162 0.99121094 0.06298828
vn -0.21179199 0.97558594 -0.058685303
vn -0.32128906 0.9404297 -0.11242676
vn -0.2475586 0.9584961 -0.14245605
vn -0.15808105 0.98046875 -0.11755371
vn -0.1574707 0.9628906 -0.21936035
vn 0.011169434 0.9814453 -0.19018555
vn -0.051116943 0.95166016 -0.30297852
vn 0.13500977 0.9892578 -0.05407715
vn 0.18481445 0.96533203 -0.18481445
vn 0.25341797 0.96484375 -0.07080078
vn 0.29296875 0.95410156 0.06048584
vn 0.28564453 0.9291992 0.23400879
vn 0.30615234 0.9370117 0.16687012
g rockM005_geo_0
f 3/3/3 2/2/2 1/1/1
f 4/4/4 3/3/3 1/1/1
f 4/4/4 1/1/1 5/5/5
f 6/6/6 3/3/3 4/4/4
f 1/1/1 2/2/2 7/7/7
f 1/1/1 7/7/7 5/5/5
f 2/2/2 8/8/8 7/7/7
f 9/9/9 6/6/6 4/4/4
f 10/10/10 6/6/6 9/9/9
f 7/7/7 8/8/8 11/11/11
f 8/8/8 12/12/12 11/11/11
f 7/7/7 13/13/13 5/5/5
f 7/7/7 11/11/11 13/13/13
f 11/11/11 12/12/12 14/14/14
f 12/12/12 15/15/15 14/14/14
f 16/16/16 4/4/4 5/5/5
f 9/9/9 4/4/4 16/16/16
f 17/17/17 10/10/10 9/9/9
f 18/18/18 10/10/10 17/17/17
f 11/11/11 19/19/19 13/13/13
f 11/11/11 14/14/14 19/19/19
f 14/14/14 15/15/15 20/20/20
f 15/15/15 21/21/21 20/20/20
f 22/22/22 9/9/9 16/16/16
f 17/17/17 9/9/9 22/22/22
f 23/23/23 18/18/18 17/17/17
f 24/24/24 18/18/18 23/23/23
f 14/14/14 25/25/25 19/19/19
f 14/14/14 20/20/20 25/25/25
f 20/20/20 21/21/21 26/26/26
f 21/21/21 27/27/27 26/26/26
f 28/28/28 17/17/17 22/22/22
f 23/23/23 17/17/17 28/28/28
f 29/29/29 24/24/24 23/23/23
f 30/30/30 24/24/24 29/29/29
f 20/20/20 31/31/31 25/25/25
f 20/20/20 26/26/26 31/31/31
f 26/26/26 27/27/27 32/32/32
f 27/27/27 33/33/33 32/32/32
f 34/34/34 30/30/30 29/29/29
f 35/35/35 30/30/30 34/34/34
f 26/26/26 36/36/36 31/31/31
f 26/26/26 32/32/32 36/36/36
f 32/32/32 33/33/33 37/37/37
f 33/33/33 38/38/38 37/37/37
f 39/39/39 35/35/35 34/34/34
f 40/40/40 35/35/35 39/39/39
f 38/38/38 40/40/40 41/41/41
f 37/37/37 38/38/38 41/41/41
f 41/41/41 40/40/40 39/39/39
f 32/32/32 37/37/37 42/42/42
f 32/32/32 42/42/42 36/36/36
f 37/37/37 41/41/41 43/43/43
f 37/37/37 43/43/43 42/42/42
f 41/41/41 39/39/39 44/44/44
f 41/41/41 44/44/44 43/43/43
f 39/39/39 34/34/34 45/45/45
f 39/39/39 45/45/45 44/44/44
f 42/42/42 46/46/46 36/36/36
f 42/42/42 43/43/43 46/46/46
f 34/34/34 47/47/47 45/45/45
f 34/34/34 29/29/29 47/47/47
f 46/46/46 48/48/48 36/36/36
f 36/36/36 48/48/48 31/31/31
f 29/29/29 49/49/49 47/47/47
f 29/29/29 23/23/23 49/49/49
f 48/48/48 50/50/50 31/31/31
f 31/31/31 50/50/50 25/25/25
f 50/50/50 51/51/51 25/25/25
f 19/19/19 25/25/25 51/51/51
f 50/50/50 48/48/48 52/52/52
f 51/51/51 50/50/50 52/52/52
f 53/53/53 19/19/19 51/51/51
f 53/53/53 51/51/51 52/52/52
f 19/19/19 53/53/53 13/13/13
f 48/48/48 46/46/46 54/54/54
f 52/52/52 48/48/48 54/54/54
f 52/52/52 54/54/54 55/55/55
f 54/54/54 46/46/46 56/56/56
f 55/55/55 54/54/54 56/56/56
f 23/23/23 57/57/57 49/49/49
f 57/57/57 23/23/23 28/28/28
f 57/57/57 58/58/58 49/49/49
f 58/58/58 57/57/57 28/28/28
f 53/53/53 59/59/59 13/13/13
f 5/5/5 13/13/13 59/59/59
f 60/60/60 53/53/53 52/52/52
f 60/60/60 52/52/52 55/55/55
f 53/53/53 60/60/60 61/61/61
f 59/59/59 53/53/53 61/61/61
f 61/61/61 60/60/60 55/55/55
f 62/62/62 5/5/5 59/59/59
f 62/62/62 59/59/59 61/61/61
f 62/62/62 63/63/63 5/5/5
f 63/63/63 62/62/62 61/61/61
f 63/63/63 16/16/16 5/5/5
f 63/63/63 61/61/61 64/64/64
f 64/64/64 61/61/61 55/55/55
f 63/63/63 65/65/65 16/16/16
f 65/65/65 63/63/63 64/64/64
f 65/65/65 22/22/22 16/16/16
f 64/64/64 55/55/55 66/66/66
f 65/65/65 64/64/64 66/66/66
f 65/65/65 67/67/67 22/22/22
f 67/67/67 65/65/65 66/66/66
f 67/67/67 28/28/28 22/22/22
f 67/67/67 58/58/58 28/28/28
f 67/67/67 66/66/66 58/58/58
f 55/55/55 68/68/68 66/66/66
f 68/68/68 55/55/55 56/56/56
f 66/66/66 69/69/69 58/58/58
f 66/66/66 68/68/68 69/69/69
f 58/58/58 69/69/69 49/49/49
f 47/47/47 49/49/49 69/69/69
f 70/70/70 47/47/47 69/69/69
f 68/68/68 70/70/70 69/69/69
f 47/47/47 70/70/70 45/45/45
f 70/70/70 68/68/68 71/71/71
f 70/70/70 71/71/71 45/45/45
f 68/68/68 56/56/56 71/71/71
f 45/45/45 71/71/71 44/44/44
f 56/56/56 72/72/72 71/71/71
f 46/46/46 72/72/72 56/56/56
f 43/43/43 72/72/72 46/46/46
f 44/44/44 73/73/73 43/43/43
f 71/71/71 73/73/73 44/44/44
f 73/73/73 72/72/72 43/43/43
f 72/72/72 73/73/73 71/71/71
