g rockJ001_geo
v -0.76310545 0.01763319 -0.7066345
v -0.68183714 2.8610229E-08 -0.91598934
v -0.15958129 2.8610229E-08 -0.60243833
v -0.31438598 0.017935066 -0.43636656
v 0.20077637 2.8610229E-08 -0.09341674
v -1.3047131 0.018010015 -0.7496832
v -1.2635168 0.12850009 -0.44579282
v -1.3115649 2.8610229E-08 -0.966795
v -1.8374816 0.018074265 -0.5992877
v -1.9305053 2.8610229E-08 -0.79236996
v -0.004309082 0.017994462 0.0018951416
v 0.36198485 2.8610229E-08 0.50053406
v -2.3056653 0.017793616 -0.30544066
v -2.0753343 0.11626861 -0.084566645
v -2.4745433 2.8610229E-08 -0.45114014
v -2.602788 0.017302236 0.11579345
v -2.819469 2.8610229E-08 0.039034422
v -2.6667786 0.017521448 0.628078
v -2.8947241 2.8610229E-08 0.6348871
v -1.6930566 0.13122277 -0.31386718
v -1.5626538 0.2607929 -0.05552185
v 0.13463745 0.017922726 0.51327085
v 0.26440063 2.8610229E-08 1.131058
v -2.3331468 0.09253405 0.21286803
v -2.5185425 0.017558021 1.1406158
v -2.7223938 2.8610229E-08 1.2304901
v 0.0514624 0.017617626 1.0553955
v -0.10518188 2.8610229E-08 1.6646807
v -2.3493652 0.102330185 0.5961743
v -2.2377367 0.017520247 1.596062
v -2.3962622 2.8610229E-08 1.759876
v -0.26706055 0.018000316 1.5136095
v -0.64253175 2.8610229E-08 1.9821854
v -2.2269433 0.10462894 1.0076898
v -1.7988489 0.017290516 1.8821859
v -1.8851929 2.8610229E-08 2.0919962
v -2.0014598 0.10191679 1.3740011
v -1.9601257 0.20906289 0.88551205
v -2.0685108 0.2052047 0.5559546
v -1.2650964 0.017761298 1.9274899
v -1.2644433 2.8610229E-08 2.14522
v -0.7298193 0.018053455 1.7870834
v -1.6947753 0.09184303 1.6128241
v -1.2888354 0.114964366 1.6106603
v -0.8576245 0.12950835 1.4834006
v -2.1482713 0.16416286 0.2776123
v -1.8794494 0.230292 0.1162207
v -1.6706336 0.3732221 0.43425292
v -0.47298706 0.12637936 1.2608823
v -1.5694005 0.3814479 0.7064578
v -1.2655994 0.44340828 0.565379
v -1.4301465 0.3648252 0.9545343
v -1.3851514 0.42905623 0.30567566
v -1.1000243 0.4034725 0.18162353
v -0.20392333 0.10934729 0.9473669
v -1.7857445 0.20427686 1.1862723
v -1.6231482 0.16292085 1.4294021
v -1.3184277 0.22754388 1.3295453
v -0.97296876 0.2571491 1.2065676
v -0.64951414 0.24847133 1.0374411
v -1.1417724 0.42071873 0.82358944
v -0.37845093 0.19191769 0.8737304
v -0.8481811 0.4024909 0.70032895
v -0.45016113 0.24274372 0.58338624
v -0.9619897 0.4116431 0.42956847
v -0.17593017 0.12316146 0.5463879
v -0.5639087 0.24949028 0.25324768
v -0.29801634 0.1268382 0.13422301
v -0.7478491 0.24473958 -0.040425412
v -0.5391467 0.123938546 -0.2215338
v -0.9180517 0.1948499 -0.27431336
v -0.8547827 0.11055435 -0.44945738
v -1.2206762 0.25406718 -0.17807312
vt 0.34643555 0.9746094
vt 0.3491211 0.9819336
vt 0.36572266 0.9716797
vt 0.36083984 0.9663086
vt 0.37719727 0.9555664
vt 0.32910156 0.97558594
vt 0.33032227 0.96533203
vt 0.32885742 0.9824219
vt 0.31201172 0.9711914
vt 0.30908203 0.97802734
vt 0.3708496 0.95214844
vt 0.38256836 0.93652344
vt 0.29711914 0.96240234
vt 0.30444336 0.9550781
vt 0.29174805 0.9667969
vt 0.28759766 0.94873047
vt 0.28051758 0.9511719
vt 0.2854004 0.9321289
vt 0.27807617 0.9321289
vt 0.3166504 0.96240234
vt 0.32080078 0.95410156
vt 0.37524414 0.93603516
vt 0.37939453 0.9160156
vt 0.29614258 0.9458008
vt 0.2902832 0.9160156
vt 0.2836914 0.91308594
vt 0.3725586 0.91845703
vt 0.36743164 0.8989258
vt 0.2956543 0.93359375
vt 0.2993164 0.9013672
vt 0.29418945 0.8959961
vt 0.3623047 0.9038086
vt 0.3503418 0.88916016
vt 0.29956055 0.92041016
vt 0.31323242 0.89208984
vt 0.31054688 0.8852539
vt 0.30688477 0.9086914
vt 0.30810547 0.9243164
vt 0.3046875 0.9345703
vt 0.33032227 0.890625
vt 0.33032227 0.88378906
vt 0.3474121 0.89501953
vt 0.3166504 0.9008789
vt 0.32958984 0.9008789
vt 0.34350586 0.90478516
vt 0.30200195 0.9433594
vt 0.31079102 0.94873047
vt 0.3173828 0.93847656
vt 0.3557129 0.9121094
vt 0.32055664 0.9296875
vt 0.33032227 0.9345703
vt 0.3251953 0.921875
vt 0.32641602 0.9428711
vt 0.33569336 0.94677734
vt 0.3642578 0.921875
vt 0.3137207 0.9145508
vt 0.31884766 0.9067383
vt 0.32861328 0.90966797
vt 0.33984375 0.9135742
vt 0.35009766 0.9194336
vt 0.33422852 0.92626953
vt 0.35864258 0.9243164
vt 0.34375 0.9301758
vt 0.3564453 0.93359375
vt 0.3400879 0.93847656
vt 0.36523438 0.9350586
vt 0.3527832 0.94433594
vt 0.36132812 0.9482422
vt 0.34692383 0.9536133
vt 0.35351562 0.95947266
vt 0.34155273 0.9614258
vt 0.34350586 0.9667969
vt 0.3317871 0.9580078
vn 0.058929443 0.98095703 -0.18408203
vn 0.024627686 0.9970703 -0.07513428
vn 0.053527832 0.9970703 -0.0574646
vn 0.13500977 0.98095703 -0.14099121
vn 0.07159424 0.9970703 -0.033813477
vn -0.022705078 0.97802734 -0.20739746
vn -0.043304443 0.93115234 -0.36254883
vn -0.0073661804 0.99658203 -0.082092285
vn -0.08868408 0.97753906 -0.19165039
vn -0.034210205 0.99658203 -0.076293945
vn 0.18164062 0.9794922 -0.08538818
vn 0.078125 0.9970703 -0.0040283203
vn -0.12902832 0.9824219 -0.13330078
vn -0.23046875 0.9448242 -0.2322998
vn -0.05532837 0.99658203 -0.057250977
vn -0.15124512 0.9868164 -0.056762695
vn -0.07080078 0.9970703 -0.026916504
vn -0.16223145 0.9868164 0.014533997
vn -0.076293945 0.9970703 0.005634308
vn -0.15429688 0.9345703 -0.32128906
vn -0.18261719 0.92285156 -0.33935547
vn 0.19262695 0.98095703 -0.012619019
vn 0.07293701 0.9970703 0.0287323
vn -0.2734375 0.95654297 -0.099243164
vn -0.15649414 0.98535156 0.06982422
vn -0.07171631 0.9970703 0.0317688
vn 0.17492676 0.9819336 0.07122803
vn 0.055999756 0.99658203 0.058258057
vn -0.2854004 0.9580078 0.029418945
vn -0.115722656 0.9868164 0.11102295
vn -0.054595947 0.9970703 0.053588867
vn 0.13232422 0.98046875 0.14575195
vn 0.032226562 0.99658203 0.07733154
vn -0.2644043 0.95703125 0.11846924
vn -0.05368042 0.9868164 0.15197754
vn -0.02558899 0.9970703 0.072387695
vn -0.20629883 0.95947266 0.1932373
vn -0.31958008 0.93603516 0.1484375
vn -0.35351562 0.9350586 0.022354126
vn 0.013893127 0.9824219 0.18701172
vn 0.006187439 0.99658203 0.08105469
vn 0.077697754 0.9785156 0.19128418
vn -0.09844971 0.9580078 0.27001953
vn 0.019348145 0.94677734 0.3215332
vn 0.125 0.9399414 0.3178711
vn -0.3486328 0.93066406 -0.11230469
vn -0.29785156 0.9272461 -0.22668457
vn -0.30249023 0.9506836 -0.06915283
vn 0.22961426 0.93896484 0.25610352
vn -0.26586914 0.9550781 0.13220215
vn -0.04058838 0.99853516 0.03086853
vn -0.13769531 0.95214844 0.27319336
vn -0.13464355 0.96972656 -0.20361328
vn 0.098083496 0.9589844 -0.26611328
vn 0.3166504 0.9399414 0.12817383
vn -0.23815918 0.93847656 0.25048828
vn -0.13464355 0.93408203 0.3305664
vn -0.025299072 0.9321289 0.36108398
vn 0.1204834 0.9291992 0.34936523
vn 0.2644043 0.9277344 0.26416016
vn 0.057250977 0.96972656 0.23791504
vn 0.36572266 0.91845703 0.14904785
vn 0.25634766 0.9614258 0.10180664
vn 0.36914062 0.9291992 -0.009689331
vn 0.22888184 0.96777344 -0.105285645
vn 0.34423828 0.93847656 -0.026931763
vn 0.3359375 0.92822266 -0.15844727
vn 0.3149414 0.9375 -0.1484375
vn 0.24743652 0.9277344 -0.27905273
vn 0.24475098 0.9370117 -0.24938965
vn 0.12597656 0.9140625 -0.38500977
vn 0.107421875 0.9355469 -0.33642578
vn -0.021270752 0.92089844 -0.38916016
g rockJ001_geo_0
f 3/3/3 2/2/2 1/1/1
f 4/4/4 3/3/3 1/1/1
f 5/5/5 3/3/3 4/4/4
f 1/1/1 2/2/2 6/6/6
f 1/1/1 6/6/6 7/7/7
f 2/2/2 8/8/8 6/6/6
f 6/6/6 8/8/8 9/9/9
f 6/6/6 9/9/9 7/7/7
f 8/8/8 10/10/10 9/9/9
f 11/11/11 5/5/5 4/4/4
f 12/12/12 5/5/5 11/11/11
f 9/9/9 10/10/10 13/13/13
f 9/9/9 13/13/13 14/14/14
f 10/10/10 15/15/15 13/13/13
f 13/13/13 15/15/15 16/16/16
f 13/13/13 16/16/16 14/14/14
f 15/15/15 17/17/17 16/16/16
f 16/16/16 17/17/17 18/18/18
f 17/17/17 19/19/19 18/18/18
f 9/9/9 20/20/20 7/7/7
f 20/20/20 9/9/9 14/14/14
f 20/20/20 21/21/21 7/7/7
f 21/21/21 20/20/20 14/14/14
f 22/22/22 12/12/12 11/11/11
f 23/23/23 12/12/12 22/22/22
f 16/16/16 24/24/24 14/14/14
f 16/16/16 18/18/18 24/24/24
f 18/18/18 19/19/19 25/25/25
f 19/19/19 26/26/26 25/25/25
f 27/27/27 23/23/23 22/22/22
f 28/28/28 23/23/23 27/27/27
f 18/18/18 29/29/29 24/24/24
f 18/18/18 25/25/25 29/29/29
f 25/25/25 26/26/26 30/30/30
f 26/26/26 31/31/31 30/30/30
f 32/32/32 28/28/28 27/27/27
f 33/33/33 28/28/28 32/32/32
f 25/25/25 34/34/34 29/29/29
f 25/25/25 30/30/30 34/34/34
f 30/30/30 31/31/31 35/35/35
f 31/31/31 36/36/36 35/35/35
f 30/30/30 37/37/37 34/34/34
f 30/30/30 35/35/35 37/37/37
f 34/34/34 38/38/38 29/29/29
f 34/34/34 37/37/37 38/38/38
f 29/29/29 39/39/39 24/24/24
f 38/38/38 39/39/39 29/29/29
f 35/35/35 36/36/36 40/40/40
f 36/36/36 41/41/41 40/40/40
f 41/41/41 33/33/33 42/42/42
f 40/40/40 41/41/41 42/42/42
f 42/42/42 33/33/33 32/32/32
f 35/35/35 40/40/40 43/43/43
f 35/35/35 43/43/43 37/37/37
f 40/40/40 42/42/42 44/44/44
f 40/40/40 44/44/44 43/43/43
f 42/42/42 32/32/32 45/45/45
f 42/42/42 45/45/45 44/44/44
f 39/39/39 46/46/46 24/24/24
f 24/24/24 46/46/46 14/14/14
f 46/46/46 47/47/47 14/14/14
f 47/47/47 21/21/21 14/14/14
f 47/47/47 46/46/46 48/48/48
f 46/46/46 39/39/39 48/48/48
f 21/21/21 47/47/47 48/48/48
f 32/32/32 49/49/49 45/45/45
f 32/32/32 27/27/27 49/49/49
f 48/48/48 39/39/39 50/50/50
f 50/50/50 51/51/51 48/48/48
f 39/39/39 38/38/38 50/50/50
f 50/50/50 38/38/38 52/52/52
f 51/51/51 50/50/50 52/52/52
f 53/53/53 21/21/21 48/48/48
f 51/51/51 53/53/53 48/48/48
f 21/21/21 53/53/53 54/54/54
f 54/54/54 53/53/53 51/51/51
f 27/27/27 55/55/55 49/49/49
f 27/27/27 22/22/22 55/55/55
f 38/38/38 56/56/56 52/52/52
f 37/37/37 56/56/56 38/38/38
f 57/57/57 56/56/56 37/37/37
f 43/43/43 57/57/57 37/37/37
f 56/56/56 57/57/57 58/58/58
f 58/58/58 57/57/57 43/43/43
f 52/52/52 56/56/56 58/58/58
f 44/44/44 58/58/58 43/43/43
f 59/59/59 58/58/58 44/44/44
f 52/52/52 58/58/58 59/59/59
f 45/45/45 59/59/59 44/44/44
f 45/45/45 49/49/49 60/60/60
f 59/59/59 45/45/45 60/60/60
f 61/61/61 52/52/52 59/59/59
f 59/59/59 60/60/60 61/61/61
f 61/61/61 51/51/51 52/52/52
f 60/60/60 49/49/49 62/62/62
f 49/49/49 55/55/55 62/62/62
f 60/60/60 63/63/63 61/61/61
f 61/61/61 63/63/63 51/51/51
f 60/60/60 62/62/62 63/63/63
f 64/64/64 62/62/62 55/55/55
f 62/62/62 64/64/64 63/63/63
f 63/63/63 65/65/65 51/51/51
f 63/63/63 64/64/64 65/65/65
f 65/65/65 54/54/54 51/51/51
f 66/66/66 64/64/64 55/55/55
f 22/22/22 66/66/66 55/55/55
f 22/22/22 11/11/11 66/66/66
f 64/64/64 67/67/67 65/65/65
f 67/67/67 64/64/64 66/66/66
f 65/65/65 67/67/67 54/54/54
f 11/11/11 68/68/68 66/66/66
f 68/68/68 67/67/67 66/66/66
f 11/11/11 4/4/4 68/68/68
f 69/69/69 67/67/67 68/68/68
f 67/67/67 69/69/69 54/54/54
f 4/4/4 70/70/70 68/68/68
f 70/70/70 69/69/69 68/68/68
f 4/4/4 1/1/1 70/70/70
f 69/69/69 71/71/71 54/54/54
f 71/71/71 69/69/69 70/70/70
f 1/1/1 72/72/72 70/70/70
f 72/72/72 71/71/71 70/70/70
f 72/72/72 1/1/1 7/7/7
f 71/71/71 72/72/72 7/7/7
f 71/71/71 73/73/73 54/54/54
f 73/73/73 71/71/71 7/7/7
f 73/73/73 21/21/21 54/54/54
f 21/21/21 73/73/73 7/7/7
