g rockI001_geo
v -1.8760772 0.27252963 1.2659433
v -1.0589923 0.9404492 1.3899057
v -1.3879755 0.34404776 1.9325906
v 0.59715027 0.44137368 -3.1219084
v 0.8171747 0.045717634 -4.019359
v 1.6722735 0.04744842 -3.6027853
v -1.3461322 0.71308357 0.23992157
v -1.0243415 0.85446876 -0.74411833
v -0.08193054 1.8469992 -0.3723288
v 0.09028503 1.7492732 -1.0427359
v -0.58212465 0.8095679 -1.6755123
v -0.92879695 0.40971762 -1.9776855
v -0.2514264 0.35312194 -2.807307
v 0.42093444 0.8590867 -2.3919296
v 1.0887835 0.9808118 -2.1262834
v -0.17324279 0.61081886 -2.4564226
v 0.59715027 0.44137368 -3.1219084
v 1.3717194 0.49457508 -2.8417537
v 1.6722735 0.04744842 -3.6027853
v 0.8171747 0.045717634 -4.019359
v 1.8952289 6.0754336E-12 -4.0565033
v 0.86346984 -1.8181012E-14 -4.457357
v -0.3926776 0.041408043 -3.2885723
v -0.59261656 -1.8181012E-14 -3.7078338
v -1.2849994 0.043379273 -2.316691
v -2.1952643 0.04459947 -1.2145658
v -1.6247344 -1.8181012E-14 -2.6569567
v 0.09389709 1.8042871 0.39417326
v 0.50697935 1.5981221 0.63605374
v 0.12344787 0.9428722 1.9977682
v -0.44865784 1.0445099 1.7706344
v 0.01661316 0.34471816 2.8169272
v -0.38037902 1.5897796 0.271929
v 0.33160582 2.0353134 -0.20037994
v -0.08193054 1.8469992 -0.3723288
v 0.09028503 1.7492732 -1.0427359
v -1.3461322 0.71308357 0.23992157
v -1.0589923 0.9404492 1.3899057
v -1.5677179 0.48133028 1.0591818
v -1.3879755 0.34404776 1.9325906
v -1.8760772 0.27252963 1.2659433
v -1.8332256 0.35572883 0.23009856
v -0.72865903 0.38936988 2.482239
v -1.546358 0.4233825 -0.95293
v -1.0243415 0.85446876 -0.74411833
v -0.92879695 0.40971762 -1.9776855
v -2.1952643 0.04459947 -1.2145658
v -2.3734992 0.041732743 0.26305023
v -2.3429425 0.038828433 1.5848416
v -2.6285198 -1.8181012E-14 -1.4188735
v -1.6247344 -1.8181012E-14 -2.6569567
v -2.9331512 -1.8181012E-14 0.2974057
v -2.7652557 -1.8181012E-14 1.7868508
v -1.7467303 0.04151473 2.47089
v -2.05606 -1.8181012E-14 2.783143
v -1.0035089 0.043393016 3.1518362
v -1.2616022 -1.8181012E-14 3.4796054
v -0.20138733 0.042222317 3.8975265
v -0.22690368 -1.8181012E-14 4.457357
v 0.81957823 0.04093625 2.7447293
v 0.6166229 0.33801082 2.1758182
v 1.1170257 -1.8181012E-14 3.2340126
v 1.4492853 0.042687245 1.7787362
v 1.7958294 -1.8181012E-14 2.0792274
v 2.2016168 0.044175766 0.5160739
v 2.319411 -1.8181012E-14 0.56533355
v 0.33160582 2.0353134 -0.20037994
v 0.50697935 1.5981221 0.63605374
v 0.09389709 1.8042871 0.39417326
v 0.74312437 1.7385726 -0.043752134
v 1.1828265 0.9682365 0.13810395
v 0.8319623 0.88126844 0.9761978
v 1.1277618 0.39078665 1.3256112
v 0.51927185 0.6915706 1.7376443
v 0.12344787 0.9428722 1.9977682
v 0.01661316 0.34471816 2.8169272
v 0.6166229 0.33801082 2.1758182
v 1.4492853 0.042687245 1.7787362
v 2.2016168 0.044175766 0.5160739
v 0.09028503 1.7492732 -1.0427359
v 0.554975 2.0864797 -0.7558731
v 0.33160582 2.0353134 -0.20037994
v 1.0887835 0.9808118 -2.1262834
v 1.6064129 0.8578398 -1.8125958
v 1.3717194 0.49457508 -2.8417537
v 2.0228827 0.44324428 -2.3366146
v 2.4292254 0.045379393 -2.9323022
v 1.6722735 0.04744842 -3.6027853
v 2.853532 -1.8181012E-14 -3.233685
v 1.8952289 6.0754336E-12 -4.0565033
v 2.9331512 -1.8181012E-14 -1.9543796
v 2.7822697 0.04276948 -1.9488968
v 2.7822697 0.04276948 -1.9488968
v 2.9331512 -1.8181012E-14 -1.9543796
v 2.68393 -1.8181012E-14 -0.84582305
v 2.5101142 0.043468785 -0.9030789
v 2.319411 -1.8181012E-14 0.56533355
v 2.2016168 0.044175766 0.5160739
v 1.625075 0.4282277 0.30695587
v 1.1277618 0.39078665 1.3256112
v 1.1828265 0.9682365 0.13810395
v 1.9602301 0.4215062 -0.748378
v 1.5030304 0.92938477 -0.684935
v 1.040733 1.7073046 -0.6510373
v 0.74312437 1.7385726 -0.043752134
v 0.33160582 2.0353134 -0.20037994
v 0.554975 2.0864797 -0.7558731
v 1.6064129 0.8578398 -1.8125958
v 1.7696624 0.7070387 -1.4004996
v 2.0228827 0.44324428 -2.3366146
v 2.4292254 0.045379393 -2.9323022
v 2.1497943 0.38338104 -1.6310482
vt 0.6040039 0.8847656
vt 0.61279297 0.8935547
vt 0.6166992 0.8847656
vt 0.5708008 0.9536133
vt 0.56152344 0.9638672
vt 0.57421875 0.9707031
vt 0.5961914 0.89990234
vt 0.5864258 0.91259766
vt 0.5991211 0.9213867
vt 0.59228516 0.9291992
vt 0.5786133 0.92626953
vt 0.5722656 0.9243164
vt 0.5673828 0.9399414
vt 0.5786133 0.9448242
vt 0.58740234 0.9506836
vt 0.5727539 0.9379883
vt 0.5708008 0.9536133
vt 0.5810547 0.9604492
vt 0.57421875 0.9707031
vt 0.56152344 0.9638672
vt 0.5708008 0.97753906
vt 0.5566406 0.9682617
vt 0.5605469 0.9423828
vt 0.55322266 0.94384766
vt 0.5649414 0.92285156
vt 0.5708008 0.90234375
vt 0.5576172 0.921875
vt 0.61035156 0.9165039
vt 0.6171875 0.9199219
vt 0.63183594 0.9038086
vt 0.6225586 0.8979492
vt 0.63964844 0.89501953
vt 0.60498047 0.9121094
vt 0.60498047 0.9248047
vt 0.5991211 0.9213867
vt 0.59228516 0.9291992
vt 0.5961914 0.89990234
vt 0.61279297 0.8935547
vt 0.6044922 0.8901367
vt 0.6166992 0.8847656
vt 0.6040039 0.8847656
vt 0.5917969 0.89404297
vt 0.62939453 0.8881836
vt 0.57958984 0.9082031
vt 0.5864258 0.91259766
vt 0.5722656 0.9243164
vt 0.5708008 0.90234375
vt 0.58740234 0.88720703
vt 0.6044922 0.87646484
vt 0.5644531 0.8984375
vt 0.5576172 0.921875
vt 0.5830078 0.8798828
vt 0.60302734 0.8691406
vt 0.62060547 0.87597656
vt 0.6225586 0.8701172
vt 0.6352539 0.87939453
vt 0.6381836 0.87402344
vt 0.65185547 0.8828125
vt 0.6591797 0.87841797
vt 0.64941406 0.90771484
vt 0.64160156 0.90966797
vt 0.65771484 0.90527344
vt 0.6455078 0.92529297
vt 0.6503906 0.9291992
vt 0.63720703 0.94677734
vt 0.63964844 0.9477539
vt 0.60498047 0.9248047
vt 0.6171875 0.9199219
vt 0.61035156 0.9165039
vt 0.61035156 0.92871094
vt 0.62353516 0.93652344
vt 0.63134766 0.92333984
vt 0.6381836 0.9248047
vt 0.63720703 0.9111328
vt 0.63183594 0.9038086
vt 0.63964844 0.89501953
vt 0.64160156 0.90966797
vt 0.6455078 0.92529297
vt 0.63720703 0.94677734
vt 0.59228516 0.9291992
vt 0.60009766 0.9326172
vt 0.60498047 0.9248047
vt 0.58740234 0.9506836
vt 0.59765625 0.9555664
vt 0.5810547 0.9604492
vt 0.59375 0.96435547
vt 0.58935547 0.9746094
vt 0.57421875 0.9707031
vt 0.5878906 0.98095703
vt 0.5708008 0.97753906
vt 0.60791016 0.97558594
vt 0.6074219 0.97314453
vt 0.6074219 0.97314453
vt 0.60791016 0.97558594
vt 0.62402344 0.9658203
vt 0.62109375 0.96191406
vt 0.63964844 0.9477539
vt 0.63720703 0.94677734
vt 0.6303711 0.94140625
vt 0.6381836 0.9248047
vt 0.62353516 0.93652344
vt 0.61865234 0.9550781
vt 0.6142578 0.94921875
vt 0.60546875 0.9375
vt 0.61035156 0.92871094
vt 0.60498047 0.9248047
vt 0.60009766 0.9326172
vt 0.59765625 0.9555664
vt 0.6064453 0.9584961
vt 0.59375 0.96435547
vt 0.58935547 0.9746094
vt 0.6064453 0.96435547
vn -0.4909668 0.8618164 0.12768555
vn -0.55615234 0.7944336 0.24450684
vn -0.42944336 0.8364258 0.3400879
vn -0.066101074 0.8803711 -0.46972656
vn -0.013473511 0.96875 -0.24780273
vn 0.15454102 0.95214844 -0.2631836
vn -0.6513672 0.7583008 -0.032470703
vn -0.63671875 0.7441406 -0.20117188
vn -0.6142578 0.77490234 -0.14929199
vn -0.375 0.80029297 -0.46801758
vn -0.5214844 0.7475586 -0.4116211
vn -0.4711914 0.8046875 -0.36108398
vn -0.35717773 0.8178711 -0.45092773
vn -0.17236328 0.81396484 -0.5546875
vn 0.2364502 0.83740234 -0.49243164
vn -0.40014648 0.76464844 -0.5048828
vn -0.066101074 0.8803711 -0.46972656
vn 0.23693848 0.87646484 -0.41870117
vn 0.15454102 0.95214844 -0.2631836
vn -0.013473511 0.96875 -0.24780273
vn 0.050689697 0.99560547 -0.080566406
vn -0.006855011 0.99560547 -0.09197998
vn -0.19909668 0.94384766 -0.2644043
vn -0.058532715 0.9951172 -0.079589844
vn -0.2709961 0.93603516 -0.22436523
vn -0.26464844 0.9584961 -0.107177734
vn -0.06903076 0.99560547 -0.061553955
vn -0.14208984 0.9223633 0.35913086
vn 0.4477539 0.76708984 0.45922852
vn 0.2364502 0.7993164 0.5522461
vn -0.24243164 0.84765625 0.47192383
vn 0.111450195 0.90771484 0.40405273
vn -0.58496094 0.8071289 0.0803833
vn 0.0017852783 0.98583984 0.16821289
vn -0.6142578 0.77490234 -0.14929199
vn -0.375 0.80029297 -0.46801758
vn -0.6513672 0.7583008 -0.032470703
vn -0.55615234 0.7944336 0.24450684
vn -0.63916016 0.7636719 0.092163086
vn -0.42944336 0.8364258 0.3400879
vn -0.4909668 0.8618164 0.12768555
vn -0.5263672 0.8496094 -0.02999878
vn -0.27514648 0.86035156 0.42944336
vn -0.51464844 0.83447266 -0.19750977
vn -0.63671875 0.7441406 -0.20117188
vn -0.4711914 0.8046875 -0.36108398
vn -0.26464844 0.9584961 -0.107177734
vn -0.28515625 0.9584961 -0.012886047
vn -0.22192383 0.97216797 0.072143555
vn -0.07849121 0.99609375 -0.034179688
vn -0.06903076 0.99560547 -0.061553955
vn -0.08239746 0.99658203 -0.0026855469
vn -0.07751465 0.99658203 0.026290894
vn -0.21606445 0.95947266 0.18115234
vn -0.07055664 0.99560547 0.06109619
vn -0.16711426 0.9614258 0.21948242
vn -0.06781006 0.9951172 0.07354736
vn 0.008308411 0.9902344 0.14074707
vn 0.0071640015 0.9975586 0.06756592
vn 0.2298584 0.9550781 0.18762207
vn 0.49389648 0.78466797 0.375
vn 0.066467285 0.99609375 0.05722046
vn 0.31762695 0.9277344 0.19616699
vn 0.09429932 0.9941406 0.051757812
vn 0.4165039 0.89404297 0.16455078
vn 0.1784668 0.9819336 0.06347656
vn 0.0017852783 0.98583984 0.16821289
vn 0.4477539 0.76708984 0.45922852
vn -0.14208984 0.9223633 0.35913086
vn 0.67333984 0.6533203 0.34570312
vn 0.74609375 0.58203125 0.3239746
vn 0.6948242 0.5986328 0.39868164
vn 0.5439453 0.77246094 0.32763672
vn 0.6503906 0.61376953 0.44750977
vn 0.2364502 0.7993164 0.5522461
vn 0.111450195 0.90771484 0.40405273
vn 0.49389648 0.78466797 0.375
vn 0.31762695 0.9277344 0.19616699
vn 0.4165039 0.89404297 0.16455078
vn -0.375 0.80029297 -0.46801758
vn 0.19177246 0.9169922 -0.34960938
vn 0.0017852783 0.98583984 0.16821289
vn 0.2364502 0.83740234 -0.49243164
vn 0.5932617 0.7680664 -0.24194336
vn 0.23693848 0.87646484 -0.41870117
vn 0.4501953 0.8569336 -0.25097656
vn 0.26245117 0.9477539 -0.18054199
vn 0.15454102 0.95214844 -0.2631836
vn 0.08691406 0.9946289 -0.055023193
vn 0.050689697 0.99560547 -0.080566406
vn 0.17211914 0.9848633 0.0007929802
vn 0.3984375 0.9169922 -0.019485474
vn 0.3984375 0.9169922 -0.019485474
vn 0.17211914 0.9848633 0.0007929802
vn 0.25830078 0.96435547 0.061553955
vn 0.48876953 0.8652344 0.112854004
vn 0.1784668 0.9819336 0.06347656
vn 0.4165039 0.89404297 0.16455078
vn 0.5991211 0.76123047 0.24853516
vn 0.5439453 0.77246094 0.32763672
vn 0.74609375 0.58203125 0.3239746
vn 0.62402344 0.76708984 0.14819336
vn 0.7817383 0.59814453 0.1763916
vn 0.69677734 0.7163086 -0.041992188
vn 0.67333984 0.6533203 0.34570312
vn 0.0017852783 0.98583984 0.16821289
vn 0.19177246 0.9169922 -0.34960938
vn 0.5932617 0.7680664 -0.24194336
vn 0.75927734 0.64941406 0.044036865
vn 0.4501953 0.8569336 -0.25097656
vn 0.26245117 0.9477539 -0.18054199
vn 0.5878906 0.80859375 0.023208618
g rockI001_geo_0
f 3/3/3 2/2/2 1/1/1
f 6/6/6 5/5/5 4/4/4
f 9/9/9 8/8/8 7/7/7
f 9/9/9 10/10/10 8/8/8
f 10/10/10 11/11/11 8/8/8
f 8/8/8 11/11/11 12/12/12
f 13/13/13 12/12/12 11/11/11
f 10/10/10 14/14/14 11/11/11
f 15/15/15 14/14/14 10/10/10
f 16/16/16 13/13/13 11/11/11
f 14/14/14 16/16/16 11/11/11
f 16/16/16 14/14/14 13/13/13
f 14/14/14 15/15/15 17/17/17
f 14/14/14 17/17/17 13/13/13
f 15/15/15 18/18/18 17/17/17
f 18/18/18 19/19/19 17/17/17
f 17/17/17 20/20/20 13/13/13
f 19/19/19 21/21/21 20/20/20
f 21/21/21 22/22/22 20/20/20
f 20/20/20 22/22/22 23/23/23
f 20/20/20 23/23/23 13/13/13
f 22/22/22 24/24/24 23/23/23
f 25/25/25 12/12/12 13/13/13
f 23/23/23 25/25/25 13/13/13
f 23/23/23 24/24/24 25/25/25
f 25/25/25 26/26/26 12/12/12
f 24/24/24 27/27/27 25/25/25
f 25/25/25 27/27/27 26/26/26
f 30/30/30 29/29/29 28/28/28
f 31/31/31 30/30/30 28/28/28
f 32/32/32 30/30/30 31/31/31
f 31/31/31 28/28/28 33/33/33
f 28/28/28 34/34/34 33/33/33
f 34/34/34 35/35/35 33/33/33
f 35/35/35 34/34/34 36/36/36
f 33/33/33 35/35/35 37/37/37
f 38/38/38 31/31/31 33/33/33
f 38/38/38 33/33/33 39/39/39
f 33/33/33 37/37/37 39/39/39
f 31/31/31 38/38/38 40/40/40
f 38/38/38 39/39/39 41/41/41
f 39/39/39 37/37/37 42/42/42
f 41/41/41 39/39/39 42/42/42
f 43/43/43 32/32/32 31/31/31
f 43/43/43 31/31/31 40/40/40
f 44/44/44 42/42/42 37/37/37
f 45/45/45 44/44/44 37/37/37
f 44/44/44 45/45/45 46/46/46
f 47/47/47 44/44/44 46/46/46
f 48/48/48 42/42/42 44/44/44
f 47/47/47 48/48/48 44/44/44
f 49/49/49 41/41/41 42/42/42
f 48/48/48 49/49/49 42/42/42
f 47/47/47 50/50/50 48/48/48
f 51/51/51 50/50/50 47/47/47
f 50/50/50 52/52/52 48/48/48
f 48/48/48 52/52/52 49/49/49
f 52/52/52 53/53/53 49/49/49
f 49/49/49 54/54/54 41/41/41
f 49/49/49 53/53/53 54/54/54
f 54/54/54 40/40/40 41/41/41
f 53/53/53 55/55/55 54/54/54
f 54/54/54 56/56/56 40/40/40
f 54/54/54 55/55/55 56/56/56
f 56/56/56 43/43/43 40/40/40
f 55/55/55 57/57/57 56/56/56
f 56/56/56 58/58/58 43/43/43
f 56/56/56 57/57/57 58/58/58
f 58/58/58 32/32/32 43/43/43
f 57/57/57 59/59/59 58/58/58
f 58/58/58 60/60/60 32/32/32
f 58/58/58 59/59/59 60/60/60
f 60/60/60 61/61/61 32/32/32
f 59/59/59 62/62/62 60/60/60
f 60/60/60 63/63/63 61/61/61
f 60/60/60 62/62/62 63/63/63
f 62/62/62 64/64/64 63/63/63
f 63/63/63 64/64/64 65/65/65
f 64/64/64 66/66/66 65/65/65
f 69/69/69 68/68/68 67/67/67
f 68/68/68 70/70/70 67/67/67
f 71/71/71 70/70/70 68/68/68
f 72/72/72 71/71/71 68/68/68
f 71/71/71 72/72/72 73/73/73
f 74/74/74 72/72/72 68/68/68
f 75/75/75 74/74/74 68/68/68
f 74/74/74 75/75/75 76/76/76
f 77/77/77 74/74/74 76/76/76
f 72/72/72 74/74/74 77/77/77
f 73/73/73 72/72/72 77/77/77
f 78/78/78 73/73/73 77/77/77
f 78/78/78 79/79/79 73/73/73
f 82/82/82 81/81/81 80/80/80
f 81/81/81 83/83/83 80/80/80
f 84/84/84 83/83/83 81/81/81
f 83/83/83 84/84/84 85/85/85
f 84/84/84 86/86/86 85/85/85
f 86/86/86 87/87/87 85/85/85
f 87/87/87 88/88/88 85/85/85
f 87/87/87 89/89/89 88/88/88
f 89/89/89 90/90/90 88/88/88
f 91/91/91 89/89/89 87/87/87
f 92/92/92 91/91/91 87/87/87
f 95/95/95 94/94/94 93/93/93
f 96/96/96 95/95/95 93/93/93
f 97/97/97 95/95/95 96/96/96
f 98/98/98 97/97/97 96/96/96
f 98/98/98 96/96/96 99/99/99
f 98/98/98 99/99/99 100/100/100
f 99/99/99 101/101/101 100/100/100
f 96/96/96 102/102/102 99/99/99
f 96/96/96 93/93/93 102/102/102
f 101/101/101 99/99/99 103/103/103
f 99/99/99 102/102/102 103/103/103
f 101/101/101 103/103/103 104/104/104
f 105/105/105 101/101/101 104/104/104
f 105/105/105 104/104/104 106/106/106
f 104/104/104 107/107/107 106/106/106
f 104/104/104 108/108/108 107/107/107
f 103/103/103 109/109/109 104/104/104
f 109/109/109 108/108/108 104/104/104
f 109/109/109 103/103/103 102/102/102
f 108/108/108 109/109/109 110/110/110
f 93/93/93 111/111/111 110/110/110
f 112/112/112 109/109/109 102/102/102
f 109/109/109 112/112/112 110/110/110
f 112/112/112 93/93/93 110/110/110
f 93/93/93 112/112/112 102/102/102
