g rockGPlane002_geo
v 1.8622558 0.26789126 -9.703491
v 1.2478441 0.21509457 -7.741831
v 0.46891353 0.8522258 -8.510917
v 0.710725 0.16764507 -5.9818425
v -0.5568726 1.489907 -5.615159
v -0.981399 1.8614308 -3.6848924
v 0.32242915 0.08815708 -3.1353612
v -1.121582 2.159598 -2.0265534
v -5.455419E-08 3.5119402E-08 5.397796E-07
v -1.3580371 2.7345412 -0.73659474
v -1.0764844 3.77271 0.5346599
v -1.2172608 3.3409603 -0.10096732
v -0.85792243 3.4370885 1.9446758
v -0.9672022 3.6922338 1.2396679
v 0.71635 -0.09156094 3.047053
v -0.28205815 2.9799688 3.5659087
v 0.020070745 2.9492078 4.3659286
v 1.5759667 -0.17166942 5.666603
v 1.1363207 2.265592 6.5884795
v 0.32219967 3.084382 5.165948
v 0.72926015 2.873762 5.8772135
v 2.6144214 1.4992663 8.10088
v 2.372368 -0.21375987 6.974299
v 3.5718236 -0.27323878 8.807487
vt 0.8496094 0.44580078
vt 0.8486328 0.47143555
vt 0.8847656 0.47558594
vt 0.84814453 0.49365234
vt 0.90185547 0.5341797
vt 0.9086914 0.57373047
vt 0.8540039 0.5708008
vt 0.91015625 0.60791016
vt 0.859375 0.65185547
vt 0.9121094 0.63916016
vt 0.9111328 0.66308594
vt 0.9116211 0.6513672
vt 0.91064453 0.6826172
vt 0.91064453 0.67285156
vt 0.8569336 0.7265625
vt 0.9086914 0.70996094
vt 0.9086914 0.7236328
vt 0.8671875 0.7832031
vt 0.9067383 0.7675781
vt 0.91308594 0.73779297
vt 0.9121094 0.7524414
vt 0.90771484 0.80371094
vt 0.8730469 0.8046875
vt 0.89501953 0.8256836
vn 0.50878906 0.8413086 0.18200684
vn 0.64697266 0.7495117 0.14147949
vn 0.63183594 0.76123047 0.1463623
vn 0.71777344 0.6875 0.11291504
vn 0.74121094 0.6635742 0.101867676
vn 0.7783203 0.6254883 0.055236816
vn 0.8173828 0.5727539 0.06335449
vn 0.859375 0.5097656 0.044128418
vn 0.9067383 0.40673828 -0.111206055
vn 0.88720703 0.44335938 -0.12634277
vn 0.93310547 0.29467773 -0.20507812
vn 0.9765625 -2.7477741E-05 -0.21618652
vn 0.92529297 0.33032227 -0.18640137
vn 0.98828125 5.0127506E-05 -0.15319824
vn 0.90771484 0.3310547 -0.25732422
vn 0.9121094 0.34204102 -0.22692871
vn 0.89404297 0.3154297 -0.31811523
vn 0.86816406 0.31420898 -0.38452148
vn 0.86572266 0.31225586 -0.39160156
vn 0.89453125 0.17541504 -0.4111328
vn 0.89453125 0.17541504 -0.4111328
vn 0.7919922 0.2861328 -0.5395508
vn 0.7890625 0.29174805 -0.54052734
vn 0.8173828 0.23132324 -0.52734375
g rockGPlane002_geo_0
f 3/3/3 2/2/2 1/1/1
f 4/4/4 2/2/2 3/3/3
f 5/5/5 4/4/4 3/3/3
f 4/4/4 5/5/5 6/6/6
f 7/7/7 4/4/4 6/6/6
f 6/6/6 8/8/8 7/7/7
f 7/7/7 8/8/8 9/9/9
f 8/8/8 10/10/10 9/9/9
f 11/11/11 9/9/9 10/10/10
f 11/11/11 10/10/10 12/12/12
f 13/13/13 9/9/9 11/11/11
f 13/13/13 11/11/11 14/14/14
f 9/9/9 13/13/13 15/15/15
f 13/13/13 16/16/16 15/15/15
f 15/15/15 16/16/16 17/17/17
f 15/15/15 17/17/17 18/18/18
f 17/17/17 19/19/19 18/18/18
f 17/17/17 20/20/20 19/19/19
f 20/20/20 21/21/21 19/19/19
f 18/18/18 19/19/19 22/22/22
f 23/23/23 18/18/18 22/22/22
f 23/23/23 22/22/22 24/24/24
