g rockGPlane005_geo
v 0.44045696 0.22551456 -9.563326
v 0.12256878 0.17552112 -7.63105
v -0.66056234 0.86844474 -8.398653
v -0.13896076 0.13114665 -5.8983545
v -1.2085531 1.3610905 -5.5544634
v -1.3310677 1.6330332 -3.6570275
v -0.12442951 0.067739226 -3.0914845
v -1.2348714 1.8421698 -2.024702
v -8.0182326E-07 -3.475257E-08 -2.2454897E-06
v -1.2673568 2.273535 -0.7591017
v -0.85951495 3.0608108 0.49241564
v -1.0635335 2.738292 -0.13379611
v -0.33972004 2.732965 1.8727688
v -0.6229598 2.967971 1.1844447
v 1.3043584 -0.042607453 2.9898586
v 0.5802104 2.3033843 3.460648
v 1.0429288 2.2425447 4.243867
v 2.6775687 -0.07435031 5.5596
v 2.538289 1.641191 6.431162
v 1.5010831 2.3044167 5.0263004
v 2.0206058 2.1147573 5.7270083
v 4.1038785 1.0361085 7.939506
v 3.6458242 -0.08492115 6.850997
v 5.039633 -0.0991399 8.665985
vt 0.8496094 0.44580078
vt 0.8486328 0.47143555
vt 0.8847656 0.47558594
vt 0.84814453 0.49365234
vt 0.90185547 0.5341797
vt 0.9086914 0.57373047
vt 0.8540039 0.5708008
vt 0.91015625 0.60791016
vt 0.859375 0.65185547
vt 0.9121094 0.63916016
vt 0.9111328 0.66308594
vt 0.9116211 0.6513672
vt 0.91064453 0.6826172
vt 0.91064453 0.67285156
vt 0.8569336 0.7265625
vt 0.9086914 0.70996094
vt 0.9086914 0.7236328
vt 0.8671875 0.7832031
vt 0.9067383 0.7675781
vt 0.91308594 0.73779297
vt 0.9121094 0.7524414
vt 0.90771484 0.80371094
vt 0.8730469 0.8046875
vt 0.89501953 0.8256836
vn 0.5908203 0.79833984 0.11785889
vn 0.6958008 0.71533203 0.066589355
vn 0.6791992 0.72998047 0.07519531
vn 0.74560547 0.6660156 0.023651123
vn 0.7578125 0.65234375 0.010131836
vn 0.7841797 0.6191406 -0.036712646
vn 0.8198242 0.5703125 -0.045013428
vn 0.85253906 0.5180664 -0.06829834
vn 0.8730469 0.41479492 -0.2565918
vn 0.8691406 0.45825195 -0.1862793
vn 0.88671875 0.3046875 -0.34716797
vn 0.9506836 -0.00066518784 -0.3095703
vn 0.8676758 0.34423828 -0.35913086
vn 0.91259766 0.30664062 -0.27075195
vn 0.84472656 0.34326172 -0.4104004
vn 0.8510742 0.35302734 -0.38867188
vn 0.8276367 0.32592773 -0.4572754
vn 0.8076172 0.32666016 -0.49121094
vn 0.79785156 0.3256836 -0.5073242
vn 0.82958984 0.17004395 -0.53222656
vn 0.82958984 0.17004395 -0.53222656
vn 0.7480469 0.3010254 -0.5917969
vn 0.7397461 0.31860352 -0.59277344
vn 0.7675781 0.25683594 -0.58740234
g rockGPlane005_geo_0
f 3/3/3 2/2/2 1/1/1
f 4/4/4 2/2/2 3/3/3
f 5/5/5 4/4/4 3/3/3
f 4/4/4 5/5/5 6/6/6
f 7/7/7 4/4/4 6/6/6
f 6/6/6 8/8/8 7/7/7
f 7/7/7 8/8/8 9/9/9
f 8/8/8 10/10/10 9/9/9
f 11/11/11 9/9/9 10/10/10
f 11/11/11 10/10/10 12/12/12
f 13/13/13 9/9/9 11/11/11
f 13/13/13 11/11/11 14/14/14
f 9/9/9 13/13/13 15/15/15
f 13/13/13 16/16/16 15/15/15
f 15/15/15 16/16/16 17/17/17
f 15/15/15 17/17/17 18/18/18
f 17/17/17 19/19/19 18/18/18
f 17/17/17 20/20/20 19/19/19
f 20/20/20 21/21/21 19/19/19
f 18/18/18 19/19/19 22/22/22
f 23/23/23 18/18/18 22/22/22
f 23/23/23 22/22/22 24/24/24
