g rockDPlane006_geo
v 1.3638635 2.1041977 -1.5370708
v 2.0247338 2.1955702 -1.0517802
v 0.5620984 1.9247572 -2.0300322
v -2.458679E-06 1.4210854E-15 -4.5297907E-07
v -1.4804382 1.691328 -3.447688
v 3.406632 1.8848954 0.117558144
v 2.7868433 2.087806 -0.4632048
v -3.7644823 1.4210854E-15 -2.3314848
v -4.3223577 1.6705209 -4.299778
v -5.8921103 1.2091693 -4.6982546
v -7.224143 1.4210854E-15 -3.6739821
v -7.7918363 0.8195199 -5.026914
v -9.967156 1.5258789E-07 -5.3254666
v 3.3942614 1.4210854E-15 2.492757
v 4.878713 1.4350992 1.3979499
v 5.736521 1.2753165 2.122602
v 7.348121 1.5258789E-07 6.8888955
v 7.308231 1.2131609 3.9585104
v 8.8742075 0.69342995 6.16027
v 10.131654 1.4210854E-15 9.355808
vt 0.41235352 0.6464844
vt 0.41333008 0.63623047
vt 0.4111328 0.6567383
vt 0.3383789 0.65283203
vt 0.40844727 0.69189453
vt 0.41333008 0.6142578
vt 0.41333008 0.625
vt 0.34399414 0.72558594
vt 0.40063477 0.73583984
vt 0.40527344 0.77197266
vt 0.35205078 0.79296875
vt 0.39648438 0.80615234
vt 0.3864746 0.8461914
vt 0.34179688 0.58154297
vt 0.4099121 0.57958984
vt 0.41479492 0.56591797
vt 0.35302734 0.4831543
vt 0.40795898 0.52734375
vt 0.38964844 0.4753418
vt 0.38793945 0.41967773
vn -0.47509766 0.71533203 0.51220703
vn -0.4243164 0.67871094 0.5996094
vn -0.39453125 0.74853516 0.53271484
vn -0.38427734 0.7402344 0.55126953
vn -0.3515625 0.7548828 0.55371094
vn -0.3798828 0.7182617 0.5830078
vn -0.43603516 0.5966797 0.6738281
vn -0.31689453 0.7441406 0.5878906
vn -0.2607422 0.7241211 0.6381836
vn -0.28100586 0.7314453 0.62158203
vn -0.29052734 0.73535156 0.6123047
vn -0.32177734 0.7441406 0.5854492
vn -0.3544922 0.7265625 0.5888672
vn -0.38745117 0.7807617 0.49023438
vn -0.37060547 0.7319336 0.57177734
vn -0.39257812 0.84033203 0.37353516
vn -0.33276367 0.87597656 0.3491211
vn -0.3864746 0.8486328 0.36132812
vn -0.25170898 0.90722656 0.33642578
vn -0.2697754 0.9135742 0.30444336
g rockDPlane006_geo_0
f 3/3/3 2/2/2 1/1/1
f 3/3/3 4/4/4 2/2/2
f 3/3/3 5/5/5 4/4/4
f 6/6/6 2/2/2 4/4/4
f 6/6/6 7/7/7 2/2/2
f 5/5/5 8/8/8 4/4/4
f 5/5/5 9/9/9 8/8/8
f 9/9/9 10/10/10 8/8/8
f 10/10/10 11/11/11 8/8/8
f 11/11/11 10/10/10 12/12/12
f 13/13/13 11/11/11 12/12/12
f 6/6/6 4/4/4 14/14/14
f 15/15/15 6/6/6 14/14/14
f 16/16/16 15/15/15 14/14/14
f 16/16/16 14/14/14 17/17/17
f 18/18/18 16/16/16 17/17/17
f 19/19/19 18/18/18 17/17/17
f 17/17/17 20/20/20 19/19/19
