g rockEPlane_geo
v -3.3947754 2.3920615 -1.3592479
v -2.8369946 2.224868 -1.6850926
v -3.9112425 2.3582487 -0.9564452
v -1.6706691 1.15400944E-07 1.7622486
v -1.8475611 1.9545604 -2.107285
v 1.2606231 9.600272E-10 0.46876964
v -0.3704853 1.7106577 -2.4502366
v 1.323541 1.6387604 -2.4092233
v 2.1639261 1.2339588 -2.1818113
v 3.5391986 0.8553094 -1.8920408
v 4.395454 0.04744144 0.16723642
v 4.7321906 0.49736765 -1.5475657
v 6.6229753 -0.27851158 -0.5203075
v -3.680857 3.9106997E-08 3.0257127
v -4.779823 1.7173799 0.39118174
v -4.3661914 2.1383173 -0.32111317
v -5.430194 1.3117874 1.8392628
v -5.7677636 0.66754854 2.6951025
v -6.3976917 7.725397E-08 4.669861
vt 0.89404297 0.32373047
vt 0.8857422 0.32202148
vt 0.90185547 0.3256836
vt 0.8857422 0.40893555
vt 0.8691406 0.32055664
vt 0.81933594 0.40795898
vt 0.8417969 0.32202148
vt 0.8120117 0.32983398
vt 0.7949219 0.33789062
vt 0.76708984 0.3461914
vt 0.75341797 0.40014648
vt 0.7338867 0.34887695
vt 0.69433594 0.35131836
vt 0.9238281 0.4020996
vt 0.92333984 0.3371582
vt 0.91259766 0.33129883
vt 0.9448242 0.35229492
vt 0.96777344 0.36743164
vt 0.9921875 0.38623047
vn 0.5488281 0.3947754 0.7368164
vn 0.27734375 0.8618164 0.4243164
vn 0.29467773 0.8378906 0.45947266
vn 0.25341797 0.85595703 0.45092773
vn 0.24597168 0.8720703 0.42333984
vn 0.17150879 0.88964844 0.42333984
vn 0.15991211 0.8881836 0.43115234
vn 0.09320068 0.8642578 0.49414062
vn 0.11193848 0.90185547 0.4169922
vn 0.07757568 0.91748047 0.38989258
vn 0.11010742 0.92285156 0.36865234
vn 0.21313477 0.93408203 0.28686523
vn 0.22521973 0.93066406 0.28833008
vn 0.25170898 0.8461914 0.4699707
vn 0.26098633 0.83984375 0.47558594
vn 0.6850586 0.37890625 0.6220703
vn 0.30541992 0.82958984 0.46728516
vn 0.20166016 0.8613281 0.46606445
vn 0.22766113 0.8979492 0.3762207
g rockEPlane_geo_0
f 3/3/3 2/2/2 1/1/1
f 3/3/3 4/4/4 2/2/2
f 5/5/5 2/2/2 4/4/4
f 6/6/6 5/5/5 4/4/4
f 5/5/5 6/6/6 7/7/7
f 6/6/6 8/8/8 7/7/7
f 6/6/6 9/9/9 8/8/8
f 10/10/10 9/9/9 6/6/6
f 11/11/11 10/10/10 6/6/6
f 12/12/12 10/10/10 11/11/11
f 11/11/11 13/13/13 12/12/12
f 14/14/14 4/4/4 3/3/3
f 15/15/15 14/14/14 3/3/3
f 3/3/3 16/16/16 15/15/15
f 14/14/14 15/15/15 17/17/17
f 14/14/14 17/17/17 18/18/18
f 14/14/14 18/18/18 19/19/19
