g rockO006_geo
v -2.4728687 0.4317799 -2.3924675
v -1.7418237 0.3928247 -2.7679045
v -1.2114062 1.1883461 -2.1430144
v 1.1578319 0.24221131 2.8331232
v 1.0065185 0.8197798 2.4175103
v 1.4880017 1.0837748 2.1089923
v 2.0010962 0.32483345 2.7187238
v 0.45938355 1.7864211 0.9032037
v 1.4880017 1.0837748 2.1089923
v 1.0065185 0.8197798 2.4175103
v 0.71177125 1.8566475 0.51405334
v 0.12446533 2.1139977 -0.025751343
v -0.1667395 2.0523465 0.2791998
v -0.8530871 2.0203526 -0.23786804
v 2.0474548 1.1739678 1.7323028
v 2.0010962 0.32483345 2.7187238
v 1.0863708 1.7891524 0.23919494
v 0.39930663 2.0168493 -0.33761656
v 2.4873118 1.0838523 1.2539605
v -0.18249267 2.006613 -0.94550717
v 3.307882 0.324613 1.8457916
v -0.4239355 2.1307487 -0.53131527
v -2.207544 1.1818808 -1.2439227
v -2.4233825 0.9055836 -0.7146503
v -1.7586132 1.2788316 -1.7389789
v -2.9676318 0.38755614 -1.8019378
v 2.7592468 0.36507148 2.3812408
v -1.2114062 1.1883461 -2.1430144
v -0.7084607 0.91696525 -2.432724
v 0.09388672 1.1546386 -1.8144183
v -2.4728687 0.4317799 -2.3924675
v -3.2382238 0.03341897 -3.09309
v -3.9067516 0.033669513 -2.4953606
v -2.3183973 0.03324621 -3.4657683
v -1.7418237 0.3928247 -2.7679045
v -1.0098339 0.033000715 -3.441342
v -0.83853394 0.30472812 -2.8335783
v 0.22587036 0.36997893 -2.2832465
v 0.3001465 0.0326053 -2.8605926
v 1.387644 0.38457 -1.3842255
v 1.7720678 0.03262692 -1.8193353
v 2.3922691 0.33039922 -0.2807269
v 2.9571984 0.0328714 -0.43183044
v 3.0357628 0.24099031 0.7888482
v 3.5891345 0.03276957 0.92985654
v 3.8577979 0.033621628 2.637486
v 3.434735 0.03344786 3.0099761
v 2.5062597 0.03330642 3.3632305
v 1.1578319 0.24221131 2.8331232
v 1.3926746 0.03333269 3.4680438
v 2.263164 -2.4181652E-09 -2.2638762
v 0.59074825 -2.4181652E-09 -3.544804
v 3.5243382 -2.4181652E-09 -0.63584167
v 4.210045 -2.4181652E-09 0.9903863
v -1.045631 -2.4181652E-09 -4.0460954
v 4.144626 -2.4181652E-09 2.851685
v -2.633905 -2.4181652E-09 -4.0640397
v 3.9953697 -2.4181652E-09 3.5087469
v -3.676903 -2.4181652E-09 -3.614196
v 2.8764195 -2.4181652E-09 3.9928386
v -4.210045 -2.4181652E-09 -2.696115
v -3.417213 0.032794826 -0.9545379
v 1.3805383 -2.4181652E-09 4.0640397
v -3.679735 -2.4181652E-09 -0.8809808
v -2.5850377 0.03235435 0.4090045
v -0.13586302 -2.4181652E-09 3.186817
v -2.8525646 -2.4181652E-09 0.4651007
v -0.053391114 0.032810587 2.8034234
v -1.6157409 0.032895647 1.8574029
v -1.7383971 -2.4181652E-09 2.0000396
v 0.09388672 1.1546386 -1.8144183
v 0.39930663 2.0168493 -0.33761656
v -0.18249267 2.006613 -0.94550717
v 1.041366 1.2009788 -1.0063666
v 1.0863708 1.7891524 0.23919494
v 1.9366381 1.0915339 -0.10565857
v 2.4873118 1.0838523 1.2539605
v 2.6423094 0.8180001 0.68234193
v 3.307882 0.324613 1.8457916
v 3.0357628 0.24099031 0.7888482
v 2.3922691 0.33039922 -0.2807269
v 1.387644 0.38457 -1.3842255
v 0.22587036 0.36997893 -2.2832465
v -0.7084607 0.91696525 -2.432724
v -0.83853394 0.30472812 -2.8335783
v -1.7418237 0.3928247 -2.7679045
v -1.2114062 1.1883461 -2.1430144
v -2.8370557 0.2968719 -0.82937926
v -3.417213 0.032794826 -0.9545379
v -3.9067516 0.033669513 -2.4953606
v -2.9676318 0.38755614 -1.8019378
v -2.207544 1.1818808 -1.2439227
v -2.5850377 0.03235435 0.4090045
v -2.4233825 0.9055836 -0.7146503
v -2.110503 0.36662748 0.24630432
v -1.6157409 0.032895647 1.8574029
v -1.6859863 1.1513646 0.075259395
v -0.8530871 2.0203526 -0.23786804
v -0.7977746 1.2059443 0.97246397
v -0.1667395 2.0523465 0.2791998
v 0.45938355 1.7864211 0.9032037
v -1.1596142 0.38622966 1.3653668
v -0.053391114 0.032810587 2.8034234
v 0.17977783 1.0938581 1.7833111
v 1.0065185 0.8197798 2.4175103
v 0.047591552 0.33210734 2.2525737
v 1.3926746 0.03333269 3.4680438
v 1.1578319 0.24221131 2.8331232
vt 0.14990234 0.87939453
vt 0.14440918 0.8911133
vt 0.15905762 0.8989258
vt 0.23754883 0.92089844
vt 0.22644043 0.9199219
vt 0.22131348 0.9277344
vt 0.23620605 0.9350586
vt 0.2010498 0.91503906
vt 0.22131348 0.9277344
vt 0.22644043 0.9199219
vt 0.19641113 0.9189453
vt 0.18884277 0.91259766
vt 0.19189453 0.9091797
vt 0.1850586 0.90185547
vt 0.2166748 0.93603516
vt 0.23620605 0.9350586
vt 0.19348145 0.9243164
vt 0.18566895 0.9165039
vt 0.21032715 0.9433594
vt 0.17797852 0.91064453
vt 0.22351074 0.9589844
vt 0.18261719 0.90722656
vt 0.16967773 0.88427734
vt 0.17614746 0.87841797
vt 0.1640625 0.89160156
vt 0.15820312 0.8701172
vt 0.23144531 0.9482422
vt 0.15905762 0.8989258
vt 0.15393066 0.90625
vt 0.16381836 0.9165039
vt 0.14990234 0.87939453
vt 0.13476562 0.86621094
vt 0.14355469 0.8544922
vt 0.12927246 0.88183594
vt 0.14440918 0.8911133
vt 0.12927246 0.9042969
vt 0.14294434 0.90527344
vt 0.1517334 0.9223633
vt 0.13916016 0.92578125
vt 0.16687012 0.93896484
vt 0.15771484 0.94921875
vt 0.18579102 0.95214844
vt 0.1829834 0.96533203
vt 0.20471191 0.95996094
vt 0.20739746 0.97265625
vt 0.23852539 0.97314453
vt 0.2454834 0.96191406
vt 0.25073242 0.9433594
vt 0.23754883 0.92089844
vt 0.25097656 0.92333984
vt 0.14953613 0.9604492
vt 0.12548828 0.9350586
vt 0.17919922 0.9770508
vt 0.20678711 0.9819336
vt 0.11804199 0.90478516
vt 0.24475098 0.9838867
vt 0.1194458 0.8769531
vt 0.25634766 0.96972656
vt 0.12646484 0.8598633
vt 0.26049805 0.94873047
vt 0.1394043 0.85058594
vt 0.17004395 0.85546875
vt 0.2602539 0.9223633
vt 0.17028809 0.85009766
vt 0.19482422 0.86376953
vt 0.24584961 0.8911133
vt 0.19592285 0.8564453
vt 0.23864746 0.8989258
vt 0.22070312 0.875
vt 0.22302246 0.8725586
vt 0.16381836 0.9165039
vt 0.18566895 0.9165039
vt 0.17797852 0.91064453
vt 0.17590332 0.92871094
vt 0.19348145 0.9243164
vt 0.1899414 0.9394531
vt 0.21032715 0.9433594
vt 0.20251465 0.94873047
vt 0.22351074 0.9589844
vt 0.20471191 0.95996094
vt 0.18579102 0.95214844
vt 0.16687012 0.93896484
vt 0.1517334 0.9223633
vt 0.15393066 0.90625
vt 0.14294434 0.90527344
vt 0.14440918 0.8911133
vt 0.15905762 0.8989258
vt 0.17370605 0.8676758
vt 0.17004395 0.85546875
vt 0.14355469 0.8544922
vt 0.15820312 0.8701172
vt 0.16967773 0.88427734
vt 0.19482422 0.86376953
vt 0.17614746 0.87841797
vt 0.19250488 0.875
vt 0.22070312 0.875
vt 0.18847656 0.88720703
vt 0.1850586 0.90185547
vt 0.20239258 0.89746094
vt 0.19189453 0.9091797
vt 0.2010498 0.91503906
vt 0.21142578 0.88671875
vt 0.23864746 0.8989258
vt 0.21533203 0.9091797
vt 0.22644043 0.9199219
vt 0.22729492 0.9033203
vt 0.25097656 0.92333984
vt 0.23754883 0.92089844
vn -0.30859375 0.86865234 -0.38793945
vn -0.12420654 0.82666016 -0.5488281
vn -0.08605957 0.78564453 -0.61279297
vn -0.123413086 0.81347656 0.5683594
vn -0.18127441 0.6723633 0.71777344
vn 0.085632324 0.81591797 0.5722656
vn 0.12939453 0.83984375 0.52734375
vn -0.101623535 0.8642578 0.4921875
vn 0.085632324 0.81591797 0.5722656
vn -0.18127441 0.6723633 0.71777344
vn 0.2409668 0.9404297 0.23901367
vn 0.12524414 0.98828125 0.08544922
vn -0.3137207 0.8286133 0.4638672
vn -0.47827148 0.85595703 0.19665527
vn 0.32080078 0.8642578 0.38793945
vn 0.12939453 0.83984375 0.52734375
vn 0.46655273 0.8725586 -0.14526367
vn 0.43481445 0.82470703 -0.36108398
vn 0.5595703 0.8276367 0.041534424
vn 0.16357422 0.8510742 -0.49926758
vn 0.5107422 0.8574219 0.062561035
vn -0.20397949 0.9526367 -0.22521973
vn -0.59472656 0.8022461 -0.05218506
vn -0.7158203 0.6254883 0.31030273
vn -0.3635254 0.84033203 -0.4025879
vn -0.4790039 0.87402344 -0.08013916
vn 0.29003906 0.8676758 0.40356445
vn -0.08605957 0.78564453 -0.61279297
vn 0.20422363 0.63964844 -0.74121094
vn 0.39135742 0.6508789 -0.6508789
vn -0.30859375 0.86865234 -0.38793945
vn -0.12988281 0.9765625 -0.17077637
vn -0.20251465 0.97802734 -0.04626465
vn -0.04559326 0.9765625 -0.21081543
vn -0.12420654 0.82666016 -0.5488281
vn 0.040649414 0.97558594 -0.21533203
vn 0.14697266 0.7729492 -0.6171875
vn 0.3894043 0.69677734 -0.6020508
vn 0.117614746 0.9707031 -0.20983887
vn 0.49169922 0.6972656 -0.52197266
vn 0.171875 0.96777344 -0.18469238
vn 0.56347656 0.71728516 -0.4099121
vn 0.19384766 0.97314453 -0.12243652
vn 0.60839844 0.7602539 -0.22814941
vn 0.23388672 0.96972656 -0.070251465
vn 0.16101074 0.98583984 0.04977417
vn 0.10510254 0.9819336 0.15710449
vn 0.04147339 0.9814453 0.1875
vn -0.123413086 0.81347656 0.5683594
vn -0.032043457 0.98095703 0.19042969
vn 0.034576416 0.99853516 -0.03591919
vn 0.02331543 0.99902344 -0.042388916
vn 0.046844482 0.99853516 -0.028274536
vn 0.0647583 0.9980469 -0.012573242
vn 0.008628845 0.99853516 -0.051574707
vn 0.06500244 0.9980469 0.011131287
vn -0.010345459 0.99853516 -0.050354004
vn 0.028045654 0.99902344 0.040252686
vn -0.032104492 0.99853516 -0.044036865
vn 0.012191772 0.99853516 0.04788208
vn -0.07165527 0.9970703 -0.018493652
vn -0.33251953 0.93359375 0.13415527
vn -0.011230469 0.9980469 0.05758667
vn -0.11682129 0.9916992 0.04989624
vn -0.34570312 0.91015625 0.22766113
vn -0.04324341 0.99609375 0.074279785
vn -0.11187744 0.99121094 0.072387695
vn -0.14538574 0.9501953 0.27563477
vn -0.25268555 0.92871094 0.27075195
vn -0.08868408 0.9916992 0.09295654
vn 0.39135742 0.6508789 -0.6508789
vn 0.43481445 0.82470703 -0.36108398
vn 0.16357422 0.8510742 -0.49926758
vn 0.54296875 0.6425781 -0.5410156
vn 0.46655273 0.8725586 -0.14526367
vn 0.6166992 0.6738281 -0.40698242
vn 0.5595703 0.8276367 0.041534424
vn 0.6928711 0.6582031 -0.29418945
vn 0.5107422 0.8574219 0.062561035
vn 0.60839844 0.7602539 -0.22814941
vn 0.56347656 0.71728516 -0.4099121
vn 0.49169922 0.6972656 -0.52197266
vn 0.3894043 0.69677734 -0.6020508
vn 0.20422363 0.63964844 -0.74121094
vn 0.14697266 0.7729492 -0.6171875
vn -0.12420654 0.82666016 -0.5488281
vn -0.08605957 0.78564453 -0.61279297
vn -0.60839844 0.7529297 0.2512207
vn -0.33251953 0.93359375 0.13415527
vn -0.20251465 0.97802734 -0.04626465
vn -0.4790039 0.87402344 -0.08013916
vn -0.59472656 0.8022461 -0.05218506
vn -0.34570312 0.91015625 0.22766113
vn -0.7158203 0.6254883 0.31030273
vn -0.58447266 0.6850586 0.4345703
vn -0.25268555 0.92871094 0.27075195
vn -0.62402344 0.63916016 0.44995117
vn -0.47827148 0.85595703 0.19665527
vn -0.49438477 0.640625 0.5878906
vn -0.3137207 0.8286133 0.4638672
vn -0.101623535 0.8642578 0.4921875
vn -0.47265625 0.7128906 0.5175781
vn -0.14538574 0.9501953 0.27563477
vn -0.3388672 0.68066406 0.64990234
vn -0.18127441 0.6723633 0.71777344
vn -0.3491211 0.7290039 0.5888672
vn -0.032043457 0.98095703 0.19042969
vn -0.123413086 0.81347656 0.5683594
g rockO006_geo_0
f 3/3/3 2/2/2 1/1/1
f 6/6/6 5/5/5 4/4/4
f 7/7/7 6/6/6 4/4/4
f 10/10/10 9/9/9 8/8/8
f 8/8/8 9/9/9 11/11/11
f 8/8/8 11/11/11 12/12/12
f 13/13/13 8/8/8 12/12/12
f 14/14/14 13/13/13 12/12/12
f 9/9/9 15/15/15 11/11/11
f 15/15/15 9/9/9 16/16/16
f 12/12/12 11/11/11 17/17/17
f 11/11/11 15/15/15 17/17/17
f 18/18/18 12/12/12 17/17/17
f 15/15/15 19/19/19 17/17/17
f 12/12/12 18/18/18 20/20/20
f 21/21/21 19/19/19 15/15/15
f 22/22/22 14/14/14 12/12/12
f 22/22/22 12/12/12 20/20/20
f 23/23/23 14/14/14 22/22/22
f 23/23/23 24/24/24 14/14/14
f 25/25/25 23/23/23 22/22/22
f 25/25/25 22/22/22 20/20/20
f 23/23/23 25/25/25 26/26/26
f 27/27/27 15/15/15 16/16/16
f 27/27/27 21/21/21 15/15/15
f 28/28/28 25/25/25 20/20/20
f 28/28/28 20/20/20 29/29/29
f 20/20/20 30/30/30 29/29/29
f 25/25/25 28/28/28 31/31/31
f 25/25/25 31/31/31 26/26/26
f 31/31/31 32/32/32 26/26/26
f 32/32/32 33/33/33 26/26/26
f 34/34/34 32/32/32 31/31/31
f 35/35/35 34/34/34 31/31/31
f 36/36/36 34/34/34 35/35/35
f 37/37/37 36/36/36 35/35/35
f 36/36/36 37/37/37 38/38/38
f 39/39/39 36/36/36 38/38/38
f 39/39/39 38/38/38 40/40/40
f 41/41/41 39/39/39 40/40/40
f 41/41/41 40/40/40 42/42/42
f 43/43/43 41/41/41 42/42/42
f 43/43/43 42/42/42 44/44/44
f 45/45/45 43/43/43 44/44/44
f 45/45/45 44/44/44 21/21/21
f 46/46/46 45/45/45 21/21/21
f 46/46/46 21/21/21 27/27/27
f 47/47/47 46/46/46 27/27/27
f 47/47/47 27/27/27 16/16/16
f 48/48/48 47/47/47 16/16/16
f 48/48/48 16/16/16 49/49/49
f 50/50/50 48/48/48 49/49/49
f 41/41/41 51/51/51 39/39/39
f 51/51/51 52/52/52 39/39/39
f 53/53/53 51/51/51 41/41/41
f 43/43/43 53/53/53 41/41/41
f 39/39/39 52/52/52 36/36/36
f 54/54/54 53/53/53 43/43/43
f 52/52/52 55/55/55 36/36/36
f 45/45/45 54/54/54 43/43/43
f 36/36/36 55/55/55 34/34/34
f 56/56/56 54/54/54 45/45/45
f 55/55/55 57/57/57 34/34/34
f 46/46/46 56/56/56 45/45/45
f 34/34/34 57/57/57 32/32/32
f 58/58/58 56/56/56 46/46/46
f 57/57/57 59/59/59 32/32/32
f 47/47/47 58/58/58 46/46/46
f 32/32/32 59/59/59 33/33/33
f 60/60/60 58/58/58 47/47/47
f 59/59/59 61/61/61 33/33/33
f 48/48/48 60/60/60 47/47/47
f 33/33/33 61/61/61 62/62/62
f 63/63/63 60/60/60 48/48/48
f 61/61/61 64/64/64 62/62/62
f 50/50/50 63/63/63 48/48/48
f 62/62/62 64/64/64 65/65/65
f 66/66/66 63/63/63 50/50/50
f 64/64/64 67/67/67 65/65/65
f 68/68/68 66/66/66 50/50/50
f 65/65/65 67/67/67 69/69/69
f 70/70/70 66/66/66 68/68/68
f 69/69/69 70/70/70 68/68/68
f 67/67/67 70/70/70 69/69/69
f 73/73/73 72/72/72 71/71/71
f 72/72/72 74/74/74 71/71/71
f 72/72/72 75/75/75 74/74/74
f 75/75/75 76/76/76 74/74/74
f 75/75/75 77/77/77 76/76/76
f 77/77/77 78/78/78 76/76/76
f 78/78/78 77/77/77 79/79/79
f 80/80/80 78/78/78 79/79/79
f 76/76/76 78/78/78 80/80/80
f 81/81/81 76/76/76 80/80/80
f 74/74/74 76/76/76 81/81/81
f 82/82/82 74/74/74 81/81/81
f 74/74/74 82/82/82 71/71/71
f 82/82/82 83/83/83 71/71/71
f 84/84/84 71/71/71 83/83/83
f 85/85/85 84/84/84 83/83/83
f 84/84/84 85/85/85 86/86/86
f 87/87/87 84/84/84 86/86/86
f 90/90/90 89/89/89 88/88/88
f 91/91/91 90/90/90 88/88/88
f 92/92/92 91/91/91 88/88/88
f 89/89/89 93/93/93 88/88/88
f 94/94/94 92/92/92 88/88/88
f 93/93/93 95/95/95 88/88/88
f 93/93/93 96/96/96 95/95/95
f 94/94/94 88/88/88 97/97/97
f 88/88/88 95/95/95 97/97/97
f 94/94/94 97/97/97 98/98/98
f 97/97/97 99/99/99 98/98/98
f 99/99/99 97/97/97 95/95/95
f 99/99/99 100/100/100 98/98/98
f 100/100/100 99/99/99 101/101/101
f 96/96/96 102/102/102 95/95/95
f 102/102/102 99/99/99 95/95/95
f 96/96/96 103/103/103 102/102/102
f 99/99/99 104/104/104 101/101/101
f 99/99/99 102/102/102 104/104/104
f 104/104/104 105/105/105 101/101/101
f 103/103/103 106/106/106 102/102/102
f 102/102/102 106/106/106 104/104/104
f 105/105/105 104/104/104 106/106/106
f 103/103/103 107/107/107 106/106/106
f 108/108/108 105/105/105 106/106/106
f 107/107/107 108/108/108 106/106/106
