g rockBPlane003_geo
v -6.7944818 0 5.2642913
v -7.5717983 0.49583593 6.6259894
v -10.481879 -1.5258789E-07 8.993606
v -2.2371123 -1.5258789E-07 1.8635112
v -4.2123103 0.7112942 4.6901855
v -3.0242474 1.1509186 4.022355
v -1.5506256 1.3732376 3.05501
v -6.5382847E-07 0 4.0041238E-07
v -0.2997028 1.8868984 2.132322
v 0.6906817 1.7935426 1.3729973
v 2.0901325 0 -2.1450484
v 2.2916582 1.3867749 0.114889316
v 2.8098125 1.4298003 -0.5684835
v 3.3272686 1.6442004 -1.250809
v 4.3600664 1.5181565 -2.6123202
v 4.6797123 -1.5258789E-07 -4.718584
v 5.415452 1.0006416 -4.0629954
v 6.9947343 0.52042663 -6.2333655
v 8.04074 -1.5258789E-07 -9.289446
vt 0.11376953 0.84716797
vt 0.08453369 0.859375
vt 0.085632324 0.9140625
vt 0.16540527 0.70947266
vt 0.084228516 0.7817383
vt 0.092285156 0.74072266
vt 0.091674805 0.7109375
vt 0.16186523 0.6254883
vt 0.09106445 0.68066406
vt 0.08770752 0.6640625
vt 0.15197754 0.57714844
vt 0.0869751 0.62353516
vt 0.08892822 0.6069336
vt 0.09088135 0.59033203
vt 0.09484863 0.5576172
vt 0.14465332 0.52246094
vt 0.09881592 0.52734375
vt 0.10479736 0.48168945
vt 0.11419678 0.42211914
vn -0.33935547 0.8208008 -0.4597168
vn -0.45629883 0.7290039 -0.5102539
vn -0.55078125 0.6323242 -0.5449219
vn -0.49829102 0.6772461 -0.5410156
vn -0.34448242 0.8173828 -0.46191406
vn -0.5180664 0.6621094 -0.5419922
vn -0.5209961 0.6489258 -0.5541992
vn -0.45629883 0.69921875 -0.55029297
vn -0.52441406 0.6347656 -0.5678711
vn -0.4189453 0.7114258 -0.56396484
vn -0.48046875 0.7006836 -0.52734375
vn -0.42700195 0.7324219 -0.53027344
vn -0.6201172 0.7006836 -0.35253906
vn -0.59472656 0.6801758 -0.42822266
vn -0.5214844 0.66015625 -0.5410156
vn -0.49975586 0.69433594 -0.5175781
vn -0.5107422 0.6665039 -0.54296875
vn -0.39648438 0.8647461 -0.3088379
vn -0.3815918 0.8808594 -0.28051758
g rockBPlane003_geo_0
f 3/3/3 2/2/2 1/1/1
f 1/1/1 2/2/2 4/4/4
f 2/2/2 5/5/5 4/4/4
f 5/5/5 6/6/6 4/4/4
f 6/6/6 7/7/7 4/4/4
f 4/4/4 7/7/7 8/8/8
f 7/7/7 9/9/9 8/8/8
f 8/8/8 9/9/9 10/10/10
f 8/8/8 10/10/10 11/11/11
f 10/10/10 12/12/12 11/11/11
f 12/12/12 13/13/13 11/11/11
f 13/13/13 14/14/14 11/11/11
f 14/14/14 15/15/15 11/11/11
f 11/11/11 15/15/15 16/16/16
f 15/15/15 17/17/17 16/16/16
f 17/17/17 18/18/18 16/16/16
f 16/16/16 18/18/18 19/19/19
