g rockL001_geo
v 0.45190728 -0.10720196 1.3486373
v -0.13553198 -0.1461584 1.6857821
v -0.71189797 -0.1461584 0.5608688
v 0.018820742 -0.10704436 0.51121426
v -0.79663277 -0.1461584 -0.45687655
v 1.1428914 -0.10702719 2.0562997
v 1.5218039 0.20525593 1.51061
v 0.7552489 -0.1461584 2.425295
v 2.1477187 -0.10772063 2.4891891
v 1.8583083 -0.1461584 3.1380403
v -0.01669409 -0.10690353 -0.29087436
v -0.38044348 -0.1461584 -1.340264
v 3.2623782 -0.1069793 3.075068
v 3.1969442 0.14927387 2.5564876
v 3.195803 -0.1461584 3.766445
v 4.2680736 -0.1066645 3.0622056
v 4.756302 -0.1461584 3.608293
v 5.0184603 -0.10646266 2.6463144
v 5.516922 -0.1461584 3.057281
v 2.2784226 0.19403248 2.0537143
v 2.4065921 0.38046035 1.6403255
v 0.32533377 -0.10692212 -1.004794
v 0.9010906 -0.1461584 -2.0473561
v 3.986968 0.10784391 2.6622763
v 5.4347034 -0.106451936 1.9723312
v 6.1246886 -0.1461584 2.1826096
v 1.2114358 -0.108374275 -1.382731
v 2.2552712 -0.1461584 -2.1410158
v 4.504827 0.12365944 2.3116438
v 5.569175 -0.106405064 1.1920125
v 6.2003956 -0.1461584 1.1236789
v 2.3498616 -0.10818536 -1.4821036
v 3.6180398 -0.1461584 -1.7854031
v 4.833438 0.13095939 1.755444
v 5.241017 -0.10670915 0.38223964
v 5.9340754 -0.1461584 0.18099819
v 4.948145 0.117624894 1.1196762
v 4.2902994 0.2663493 1.5603268
v 4.046333 0.248409 2.041257
v 4.4565687 -0.10750363 -0.34200838
v 5.0066767 -0.1461584 -0.8248965
v 3.431304 -0.107570104 -1.1577518
v 4.764283 0.10123193 0.5115243
v 4.1183195 0.14059368 -0.06538241
v 3.2531674 0.18936302 -0.72706693
v 3.8003836 0.18820164 2.4038608
v 3.169336 0.28899863 2.1219602
v 3.2002578 0.552749 1.4475778
v 2.3255453 0.20999588 -1.1239871
v 3.386091 0.58324945 1.0857724
v 2.734086 0.83907086 0.62827235
v 3.4809694 0.498819 0.6650546
v 2.6008816 0.7859738 1.0100937
v 2.0594394 0.70698863 0.4814828
v 1.4514163 0.20227501 -1.1100845
v 4.414857 0.23434632 1.0351571
v 4.4537077 0.17624371 0.5930355
v 3.8560421 0.27025738 0.18246303
v 3.0982895 0.3677787 -0.3616141
v 2.2855196 0.39292398 -0.92479885
v 2.8647475 0.7383595 0.21205288
v 1.6068515 0.3371123 -0.97481596
v 2.2436354 0.7088301 -0.34392977
v 1.3477664 0.4198173 -0.59796417
v 2.1179159 0.7412889 0.072581455
v 0.86857384 0.22998255 -0.77724516
v 1.1697433 0.44375917 -0.024408294
v 0.61038196 0.23990338 -0.15054354
v 1.1362599 0.4129192 0.5116781
v 0.6163055 0.2250262 0.49838954
v 1.1748403 0.32440883 0.94256437
v 0.8919152 0.19357319 1.1215512
v 1.7767086 0.3874896 1.038879
vt 0.82373047 0.88378906
vt 0.81347656 0.8701172
vt 0.7783203 0.8852539
vt 0.79785156 0.89501953
vt 0.75927734 0.9042969
vt 0.8544922 0.8779297
vt 0.85595703 0.8935547
vt 0.85009766 0.86621094
vt 0.88964844 0.88183594
vt 0.8925781 0.8652344
vt 0.7832031 0.91064453
vt 0.7558594 0.9267578
vt 0.9301758 0.8833008
vt 0.9194336 0.8930664
vt 0.9399414 0.8691406
vt 0.95751953 0.8959961
vt 0.97998047 0.8911133
vt 0.9711914 0.91308594
vt 0.9916992 0.9111328
vt 0.8857422 0.89160156
vt 0.8823242 0.9013672
vt 0.7807617 0.92871094
vt 0.7792969 0.95654297
vt 0.9428711 0.9003906
vt 0.9711914 0.9316406
vt 0.99365234 0.93603516
vt 0.7988281 0.94677734
vt 0.8149414 0.9746094
vt 0.95166016 0.9135742
vt 0.96191406 0.94873047
vt 0.97802734 0.95751953
vt 0.8286133 0.96240234
vt 0.85839844 0.9838867
vt 0.9511719 0.92871094
vt 0.9394531 0.9609375
vt 0.9550781 0.97314453
vt 0.9433594 0.9423828
vt 0.93310547 0.92578125
vt 0.93408203 0.9135742
vt 0.90527344 0.9658203
vt 0.91259766 0.9819336
vt 0.86376953 0.9692383
vt 0.92822266 0.9526367
vt 0.9008789 0.9560547
vt 0.86572266 0.9584961
vt 0.93359375 0.9033203
vt 0.9116211 0.9013672
vt 0.9008789 0.91503906
vt 0.8339844 0.9550781
vt 0.89990234 0.9243164
vt 0.8745117 0.92578125
vt 0.8955078 0.93408203
vt 0.8774414 0.9165039
vt 0.8535156 0.92041016
vt 0.8100586 0.94433594
vt 0.9277344 0.9379883
vt 0.92089844 0.9472656
vt 0.8979492 0.9477539
vt 0.8676758 0.94970703
vt 0.8359375 0.9506836
vt 0.87109375 0.9355469
vt 0.81640625 0.94384766
vt 0.84472656 0.93896484
vt 0.81591797 0.93310547
vt 0.84814453 0.9291992
vt 0.7993164 0.93066406
vt 0.8203125 0.9194336
vt 0.8027344 0.91503906
vt 0.8286133 0.9086914
vt 0.81396484 0.90234375
vt 0.83691406 0.9003906
vt 0.83203125 0.8935547
vt 0.85498047 0.9057617
vn -0.18603516 0.97216797 0.14404297
vn -0.04864502 0.9980469 0.035461426
vn -0.051757812 0.99853516 0.01373291
vn -0.20629883 0.9770508 0.05267334
vn -0.048675537 0.99853516 -0.009376526
vn -0.13305664 0.9711914 0.1973877
vn -0.24499512 0.9008789 0.35888672
vn -0.037719727 0.9980469 0.05218506
vn -0.12121582 0.96435547 0.23461914
vn -0.027450562 0.9980469 0.05307007
vn -0.20239258 0.9785156 -0.040130615
vn -0.036956787 0.99853516 -0.034088135
vn -0.04248047 0.9819336 0.18359375
vn -0.13110352 0.8935547 0.42919922
vn -0.010948181 0.99853516 0.056488037
vn 0.04473877 0.98583984 0.16149902
vn 0.019760132 0.9980469 0.055145264
vn 0.11871338 0.9863281 0.115600586
vn 0.04135132 0.99853516 0.040649414
vn -0.20935059 0.8925781 0.39892578
vn -0.20166016 0.9082031 0.36694336
vn -0.14013672 0.9819336 -0.12719727
vn -0.015716553 0.99853516 -0.05340576
vn 0.07672119 0.92285156 0.37695312
vn 0.15722656 0.98583984 0.05810547
vn 0.054595947 0.99853516 0.01940918
vn -0.06628418 0.96875 -0.23962402
vn 0.0038261414 0.99853516 -0.056793213
vn 0.22192383 0.94677734 0.23400879
vn 0.15942383 0.9873047 -0.012367249
vn 0.057556152 0.99853516 -0.006263733
vn 0.03741455 0.96533203 -0.25756836
vn 0.02520752 0.99853516 -0.0524292
vn 0.28149414 0.95410156 0.10131836
vn 0.14135742 0.98583984 -0.0925293
vn 0.048339844 0.99853516 -0.029525757
vn 0.31030273 0.94970703 -0.040771484
vn 0.24658203 0.9663086 0.0725708
vn 0.15637207 0.9633789 0.21826172
vn 0.1463623 0.97558594 -0.16503906
vn 0.037384033 0.99853516 -0.0435791
vn 0.114990234 0.97216797 -0.20458984
vn 0.31152344 0.9238281 -0.22290039
vn 0.3112793 0.8925781 -0.32666016
vn 0.28320312 0.8535156 -0.4375
vn 0.06402588 0.95458984 0.2902832
vn -0.034973145 0.9350586 0.35302734
vn 0.078552246 0.9453125 0.31591797
vn 0.12634277 0.7871094 -0.6040039
vn 0.29418945 0.9536133 0.064697266
vn 0.13244629 0.99121094 0.0025978088
vn 0.3684082 0.91748047 -0.14929199
vn -0.16357422 0.93408203 0.3178711
vn -0.29956055 0.93652344 0.18322754
vn -0.14208984 0.7705078 -0.62158203
vn 0.2783203 0.9580078 -0.06878662
vn 0.26538086 0.9526367 -0.14953613
vn 0.32348633 0.9189453 -0.2244873
vn 0.3317871 0.87597656 -0.34985352
vn 0.13378906 0.87109375 -0.47216797
vn 0.30541992 0.91796875 -0.25390625
vn -0.11956787 0.8647461 -0.4880371
vn 0.048034668 0.94433594 -0.3251953
vn -0.24401855 0.93603516 -0.25341797
vn -0.19665527 0.97802734 -0.07165527
vn -0.34204102 0.8725586 -0.3491211
vn -0.30859375 0.94970703 -0.053894043
vn -0.42016602 0.9038086 -0.08062744
vn -0.29833984 0.9433594 0.14624023
vn -0.43359375 0.8925781 0.125
vn -0.23657227 0.92871094 0.2854004
vn -0.34643555 0.8886719 0.30004883
vn -0.28686523 0.89990234 0.32788086
g rockL001_geo_0
f 3/3/3 2/2/2 1/1/1
f 4/4/4 3/3/3 1/1/1
f 5/5/5 3/3/3 4/4/4
f 1/1/1 2/2/2 6/6/6
f 1/1/1 6/6/6 7/7/7
f 2/2/2 8/8/8 6/6/6
f 6/6/6 8/8/8 9/9/9
f 6/6/6 9/9/9 7/7/7
f 8/8/8 10/10/10 9/9/9
f 11/11/11 5/5/5 4/4/4
f 12/12/12 5/5/5 11/11/11
f 9/9/9 10/10/10 13/13/13
f 9/9/9 13/13/13 14/14/14
f 10/10/10 15/15/15 13/13/13
f 13/13/13 15/15/15 16/16/16
f 13/13/13 16/16/16 14/14/14
f 15/15/15 17/17/17 16/16/16
f 16/16/16 17/17/17 18/18/18
f 17/17/17 19/19/19 18/18/18
f 9/9/9 20/20/20 7/7/7
f 20/20/20 9/9/9 14/14/14
f 20/20/20 21/21/21 7/7/7
f 21/21/21 20/20/20 14/14/14
f 22/22/22 12/12/12 11/11/11
f 23/23/23 12/12/12 22/22/22
f 16/16/16 24/24/24 14/14/14
f 16/16/16 18/18/18 24/24/24
f 18/18/18 19/19/19 25/25/25
f 19/19/19 26/26/26 25/25/25
f 27/27/27 23/23/23 22/22/22
f 28/28/28 23/23/23 27/27/27
f 18/18/18 29/29/29 24/24/24
f 18/18/18 25/25/25 29/29/29
f 25/25/25 26/26/26 30/30/30
f 26/26/26 31/31/31 30/30/30
f 32/32/32 28/28/28 27/27/27
f 33/33/33 28/28/28 32/32/32
f 25/25/25 34/34/34 29/29/29
f 25/25/25 30/30/30 34/34/34
f 30/30/30 31/31/31 35/35/35
f 31/31/31 36/36/36 35/35/35
f 30/30/30 37/37/37 34/34/34
f 30/30/30 35/35/35 37/37/37
f 34/34/34 38/38/38 29/29/29
f 34/34/34 37/37/37 38/38/38
f 29/29/29 39/39/39 24/24/24
f 38/38/38 39/39/39 29/29/29
f 35/35/35 36/36/36 40/40/40
f 36/36/36 41/41/41 40/40/40
f 41/41/41 33/33/33 42/42/42
f 40/40/40 41/41/41 42/42/42
f 42/42/42 33/33/33 32/32/32
f 35/35/35 40/40/40 43/43/43
f 35/35/35 43/43/43 37/37/37
f 40/40/40 42/42/42 44/44/44
f 40/40/40 44/44/44 43/43/43
f 42/42/42 32/32/32 45/45/45
f 42/42/42 45/45/45 44/44/44
f 39/39/39 46/46/46 24/24/24
f 24/24/24 46/46/46 14/14/14
f 46/46/46 47/47/47 14/14/14
f 47/47/47 21/21/21 14/14/14
f 47/47/47 46/46/46 48/48/48
f 46/46/46 39/39/39 48/48/48
f 21/21/21 47/47/47 48/48/48
f 32/32/32 49/49/49 45/45/45
f 32/32/32 27/27/27 49/49/49
f 48/48/48 39/39/39 50/50/50
f 50/50/50 51/51/51 48/48/48
f 39/39/39 38/38/38 50/50/50
f 50/50/50 38/38/38 52/52/52
f 51/51/51 50/50/50 52/52/52
f 53/53/53 21/21/21 48/48/48
f 51/51/51 53/53/53 48/48/48
f 21/21/21 53/53/53 54/54/54
f 54/54/54 53/53/53 51/51/51
f 27/27/27 55/55/55 49/49/49
f 27/27/27 22/22/22 55/55/55
f 38/38/38 56/56/56 52/52/52
f 37/37/37 56/56/56 38/38/38
f 57/57/57 56/56/56 37/37/37
f 43/43/43 57/57/57 37/37/37
f 56/56/56 57/57/57 58/58/58
f 58/58/58 57/57/57 43/43/43
f 52/52/52 56/56/56 58/58/58
f 44/44/44 58/58/58 43/43/43
f 59/59/59 58/58/58 44/44/44
f 52/52/52 58/58/58 59/59/59
f 45/45/45 59/59/59 44/44/44
f 45/45/45 49/49/49 60/60/60
f 59/59/59 45/45/45 60/60/60
f 61/61/61 52/52/52 59/59/59
f 59/59/59 60/60/60 61/61/61
f 61/61/61 51/51/51 52/52/52
f 60/60/60 49/49/49 62/62/62
f 49/49/49 55/55/55 62/62/62
f 60/60/60 63/63/63 61/61/61
f 61/61/61 63/63/63 51/51/51
f 60/60/60 62/62/62 63/63/63
f 64/64/64 62/62/62 55/55/55
f 62/62/62 64/64/64 63/63/63
f 63/63/63 65/65/65 51/51/51
f 63/63/63 64/64/64 65/65/65
f 65/65/65 54/54/54 51/51/51
f 66/66/66 64/64/64 55/55/55
f 22/22/22 66/66/66 55/55/55
f 22/22/22 11/11/11 66/66/66
f 64/64/64 67/67/67 65/65/65
f 67/67/67 64/64/64 66/66/66
f 65/65/65 67/67/67 54/54/54
f 11/11/11 68/68/68 66/66/66
f 68/68/68 67/67/67 66/66/66
f 11/11/11 4/4/4 68/68/68
f 69/69/69 67/67/67 68/68/68
f 67/67/67 69/69/69 54/54/54
f 4/4/4 70/70/70 68/68/68
f 70/70/70 69/69/69 68/68/68
f 4/4/4 1/1/1 70/70/70
f 69/69/69 71/71/71 54/54/54
f 71/71/71 69/69/69 70/70/70
f 1/1/1 72/72/72 70/70/70
f 72/72/72 71/71/71 70/70/70
f 72/72/72 1/1/1 7/7/7
f 71/71/71 72/72/72 7/7/7
f 71/71/71 73/73/73 54/54/54
f 73/73/73 71/71/71 7/7/7
f 73/73/73 21/21/21 54/54/54
f 21/21/21 73/73/73 7/7/7
