g rockFPlane007_geo
v -0.933957 1.338423 -1.8071901
v -0.27508733 1.645713 -3.5599954
v 0.18095881 1.7446501 -4.544202
v 1.2959759 1.6177766 -5.910837
v -6.629124E-07 -1.9895197E-15 -1.8456463E-07
v -2.1886225 1.3873439 1.239918
v 3.3226018 1.5258789E-07 -5.4534802
v 2.8594584 1.4461251 -7.8480725
v 4.358438 1.5023708 -9.386885
v -1.3342438 6.1035155E-07 4.387823
v -3.3708124 0.64287245 5.1822104
v 6.194854 4.5776366E-07 -8.812326
v 6.073715 1.0812297 -11.329712
v -4.1117816 0.575394 7.086609
v -2.8195672 -1.0681152E-06 6.9031353
v -4.2461467 -2.8991699E-06 9.24477
v -5.937951 -5.340576E-06 11.41923
v 8.093662 0.6457272 -13.260654
v 8.67923 -1.5258789E-07 -11.637453
v 10.253344 -7.629394E-07 -13.909917
v 10.735457 -2.2888182E-06 -15.3927
vt 0.78222656 0.70947266
vt 0.79248047 0.6850586
vt 0.7919922 0.6748047
vt 0.7866211 0.65625
vt 0.71435547 0.73876953
vt 0.77197266 0.7495117
vt 0.7006836 0.63964844
vt 0.78808594 0.6254883
vt 0.78759766 0.59716797
vt 0.69873047 0.79296875
vt 0.75 0.80322266
vt 0.7011719 0.56591797
vt 0.78564453 0.5595703
vt 0.7446289 0.82666016
vt 0.7084961 0.82714844
vt 0.7138672 0.86328125
vt 0.7338867 0.8725586
vt 0.7763672 0.5102539
vt 0.6928711 0.5019531
vt 0.7207031 0.45947266
vt 0.7416992 0.4501953
vn 0.53808594 0.77978516 0.3203125
vn 0.49560547 0.8066406 0.3215332
vn 0.49560547 0.8066406 0.3215332
vn 0.5288086 0.78027344 0.33398438
vn 0.53808594 0.79296875 0.28564453
vn 0.52197266 0.82128906 0.22961426
vn 0.5102539 0.7817383 0.35864258
vn 0.47192383 0.78027344 0.41064453
vn 0.47607422 0.7832031 0.40039062
vn 0.4958496 0.8383789 0.22607422
vn 0.45458984 0.86328125 0.22009277
vn 0.4567871 0.81103516 0.36572266
vn 0.42138672 0.8564453 0.2980957
vn 0.38183594 0.89208984 0.24230957
vn 0.38623047 0.89453125 0.22521973
vn 0.37719727 0.8886719 0.26049805
vn 0.37719727 0.8886719 0.26049805
vn 0.3671875 0.89746094 0.24389648
vn 0.38232422 0.88378906 0.2705078
vn 0.33129883 0.92578125 0.18139648
vn 0.33129883 0.92578125 0.18139648
g rockFPlane007_geo_0
f 3/3/3 2/2/2 1/1/1
f 4/4/4 3/3/3 1/1/1
f 4/4/4 1/1/1 5/5/5
f 1/1/1 6/6/6 5/5/5
f 7/7/7 4/4/4 5/5/5
f 8/8/8 4/4/4 7/7/7
f 9/9/9 8/8/8 7/7/7
f 5/5/5 6/6/6 10/10/10
f 6/6/6 11/11/11 10/10/10
f 12/12/12 9/9/9 7/7/7
f 13/13/13 9/9/9 12/12/12
f 10/10/10 11/11/11 14/14/14
f 15/15/15 10/10/10 14/14/14
f 15/15/15 14/14/14 16/16/16
f 14/14/14 17/17/17 16/16/16
f 18/18/18 13/13/13 12/12/12
f 19/19/19 18/18/18 12/12/12
f 18/18/18 19/19/19 20/20/20
f 21/21/21 18/18/18 20/20/20
