g rockC_geo
v -1.343629 0.7874793 8.7730875
v 1.1299952 4.644314E-08 9.267915
v -1.9978697 4.644314E-08 9.826326
v 0.8764479 1.1609917 8.205881
v 3.2500439 4.644314E-08 7.5115123
v 0.35077286 1.7484938 7.533195
v -0.395139 1.6132013 7.4042497
v 1.1871169 2.221515 6.305907
v 0.4188893 2.5263002 6.2435594
v 0.99594253 2.614326 4.909587
v 2.6414049 1.433224 5.7213116
v 4.247273 4.644314E-08 4.1681223
v 1.898484 2.2819993 4.9919777
v 3.2713256 1.5996188 3.024716
v 2.0109084 2.7581167 3.2817426
v 1.0139967 3.2734964 3.5387685
v 2.123334 2.947951 1.5715072
v 1.032051 3.6463826 2.1679504
v 3.2039185 1.7057468 0.14115976
v 4.2226844 4.644314E-08 0.30141795
v 1.7349172 2.9086668 -0.035815034
v 0.73095596 3.4244478 0.6211124
v 1.1522914 2.4918861 -2.446798
v 0.27931532 2.7336915 -1.6991438
v 2.1070974 1.5305635 -3.1944535
v 2.9621472 -6.670657E-08 -4.133708
v -0.5009971 2.3534362 -5.3648357
v -1.3280809 2.5306327 -4.6944222
v -1.3690989 1.8270961 -6.4884253
v 0.40791517 1.4567225 -6.0352483
v 0.72230726 4.644314E-08 -8.349579
v -1.2476121 1.3625097 -7.560472
v -1.9476097 4.644314E-08 -9.703722
v -3.8114526 4.644314E-08 -9.826331
v -3.34908 0.90589535 -8.494792
v -2.1910508 1.731252 -6.341686
v -2.1910508 1.731252 -6.341686
v -1.2476121 1.3625097 -7.560472
v -1.3690989 1.8270961 -6.4884253
v -1.3280809 2.5306327 -4.6944222
v -2.7813659 1.2911257 -5.9302244
v -3.34908 0.90589535 -8.494792
v -1.6886302 1.7844179 -3.975179
v 0.27931532 2.7336915 -1.6991438
v -3.636464 0.7193869 -7.49206
v -3.8114526 4.644314E-08 -9.826331
v -4.247293 4.644314E-08 -8.53715
v -4.0002375 4.644314E-08 -6.665112
v -3.1528015 0.33058378 -5.3152084
v -2.2288756 0.33249396 -3.876517
v -2.9880884 4.644314E-08 -4.343387
v -0.2808983 2.4187024 -1.2570477
v 0.73095596 3.4244478 0.6211124
v -1.47499 0.38675818 -1.9134852
v -2.1622496 4.644314E-08 -1.8999708
v -0.89250225 0.43416432 -0.1804418
v -1.6623216 4.644314E-08 -0.12873983
v -1.3290379 4.644314E-08 1.0520813
v 0.13735609 2.723785 0.5101716
v -0.50417954 0.46576828 0.9749204
v 0.29457045 2.688604 1.6883186
v 1.032051 3.6463826 2.1679504
v 1.0139967 3.2734964 3.5387685
v -0.43880844 0.48346704 2.671738
v -1.138225 4.644314E-08 2.5733576
v -0.94741195 4.644314E-08 4.0946336
v 0.3575197 2.66802 2.9006386
v -0.37343857 0.5011658 4.3685555
v -0.6344676 0.48462638 5.4444456
v -1.1339964 4.644314E-08 5.224509
v -1.3205808 4.644314E-08 6.3543835
v 0.29884657 2.3611522 4.1129584
v 0.99594253 2.614326 4.909587
v -0.030148787 1.8091209 5.544863
v 0.4188893 2.5263002 6.2435594
v -0.395139 1.6132013 7.4042497
v -0.50426006 1.2406543 6.7813306
v -1.343629 0.7874793 8.7730875
v -0.8708775 0.42149734 6.1745963
v -1.8773496 4.644314E-08 8.325574
v -1.2503526 0.6820751 7.875563
v -1.9978697 4.644314E-08 9.826326
vt 0.27807617 0.79541016
vt 0.24169922 0.78466797
vt 0.27783203 0.8173828
vt 0.25048828 0.7602539
vt 0.2043457 0.73583984
vt 0.26171875 0.74902344
vt 0.27416992 0.75390625
vt 0.25219727 0.72314453
vt 0.2644043 0.7236328
vt 0.25878906 0.69970703
vt 0.22509766 0.7104492
vt 0.18859863 0.6870117
vt 0.24206543 0.69970703
vt 0.21557617 0.6713867
vt 0.24121094 0.67333984
vt 0.25805664 0.67529297
vt 0.23864746 0.64990234
vt 0.25634766 0.65625
vt 0.21386719 0.63378906
vt 0.18579102 0.63916016
vt 0.24084473 0.6274414
vt 0.2578125 0.6352539
vt 0.23950195 0.5913086
vt 0.2578125 0.59716797
vt 0.2163086 0.5854492
vt 0.18786621 0.57714844
vt 0.24694824 0.5415039
vt 0.2626953 0.54345703
vt 0.25048828 0.5175781
vt 0.22558594 0.5390625
vt 0.19946289 0.5180664
vt 0.23876953 0.50341797
vt 0.22070312 0.4597168
vt 0.2553711 0.41918945
vt 0.25878906 0.4567871
vt 0.26464844 0.51123047
vt 0.26464844 0.51123047
vt 0.23876953 0.50341797
vt 0.25048828 0.5175781
vt 0.2626953 0.54345703
vt 0.2800293 0.50878906
vt 0.25878906 0.4567871
vt 0.27929688 0.5473633
vt 0.2578125 0.59716797
vt 0.27734375 0.47045898
vt 0.2553711 0.41918945
vt 0.2668457 0.41748047
vt 0.3059082 0.48583984
vt 0.3034668 0.50927734
vt 0.3059082 0.5371094
vt 0.31469727 0.52001953
vt 0.2709961 0.5996094
vt 0.2578125 0.6352539
vt 0.30981445 0.5751953
vt 0.32421875 0.5683594
vt 0.31054688 0.60839844
vt 0.32641602 0.60253906
vt 0.32788086 0.62597656
vt 0.2705078 0.62939453
vt 0.31054688 0.6308594
vt 0.2722168 0.6484375
vt 0.25634766 0.65625
vt 0.25805664 0.67529297
vt 0.31176758 0.6660156
vt 0.32763672 0.6635742
vt 0.32714844 0.70166016
vt 0.27197266 0.66748047
vt 0.30981445 0.7011719
vt 0.30859375 0.7211914
vt 0.32373047 0.7207031
vt 0.3203125 0.7402344
vt 0.27416992 0.68847656
vt 0.25878906 0.69970703
vt 0.28051758 0.7163086
vt 0.2644043 0.7236328
vt 0.27416992 0.75390625
vt 0.28564453 0.7441406
vt 0.27807617 0.79541016
vt 0.30810547 0.73535156
vt 0.29248047 0.8178711
vt 0.28759766 0.78125
vt 0.27783203 0.8173828
vn -0.1751709 0.8208008 0.5439453
vn 0.31445312 0.73535156 0.60009766
vn -0.081726074 0.7895508 0.60791016
vn 0.34423828 0.7504883 0.5644531
vn 0.5966797 0.6899414 0.41015625
vn 0.21801758 0.81591797 0.53564453
vn -0.43823242 0.85253906 0.2849121
vn 0.40039062 0.8125 0.42358398
vn -0.34692383 0.9194336 0.18554688
vn -0.08312988 0.97314453 0.21520996
vn 0.67333984 0.6723633 0.30786133
vn 0.8017578 0.5810547 0.14038086
vn 0.5703125 0.78125 0.2536621
vn 0.79345703 0.60302734 0.0848999
vn 0.6347656 0.75390625 0.16967773
vn -0.039123535 0.9589844 0.28051758
vn 0.6381836 0.76953125 -0.0037631989
vn 0.005874634 0.9970703 0.07659912
vn 0.7841797 0.60058594 -0.15490723
vn 0.83984375 0.52685547 -0.13000488
vn 0.47485352 0.8461914 -0.24133301
vn -0.10961914 0.9848633 -0.13464355
vn 0.4350586 0.86376953 -0.2536621
vn -0.16760254 0.98291016 -0.076171875
vn 0.68603516 0.65966797 -0.3076172
vn 0.71972656 0.6118164 -0.32788086
vn 0.3034668 0.8989258 -0.3161621
vn -0.27929688 0.95947266 -0.032226562
vn 0.06036377 0.9091797 -0.41210938
vn 0.546875 0.73291016 -0.4050293
vn 0.46044922 0.75 -0.47485352
vn 0.21838379 0.83740234 -0.50097656
vn 0.1739502 0.8173828 -0.5493164
vn -0.112854004 0.8544922 -0.50683594
vn -0.20922852 0.88134766 -0.42382812
vn -0.39648438 0.90527344 -0.15161133
vn -0.39648438 0.90527344 -0.15161133
vn 0.21838379 0.83740234 -0.50097656
vn 0.06036377 0.9091797 -0.41210938
vn -0.27929688 0.95947266 -0.032226562
vn -0.74609375 0.62841797 0.22009277
vn -0.20922852 0.88134766 -0.42382812
vn -0.7841797 0.54345703 0.29956055
vn -0.16760254 0.98291016 -0.076171875
vn -0.6958008 0.71484375 0.07110596
vn -0.112854004 0.8544922 -0.50683594
vn -0.7241211 0.68603516 -0.07220459
vn -0.7602539 0.6166992 0.20422363
vn -0.76953125 0.5263672 0.36132812
vn -0.77246094 0.5419922 0.33081055
vn -0.6035156 0.74658203 0.2800293
vn -0.81689453 0.5385742 0.20727539
vn -0.10961914 0.9848633 -0.13464355
vn -0.8051758 0.5258789 0.27319336
vn -0.48046875 0.86376953 0.15161133
vn -0.82958984 0.51953125 0.20446777
vn -0.48046875 0.86621094 0.13671875
vn -0.50634766 0.85839844 0.08300781
vn -0.8642578 0.4807129 0.14733887
vn -0.8618164 0.4897461 0.1307373
vn -0.90283203 0.4177246 0.10437012
vn 0.005874634 0.9970703 0.07659912
vn -0.039123535 0.9589844 0.28051758
vn -0.8676758 0.4951172 0.041534424
vn -0.56591797 0.82373047 0.040527344
vn -0.6274414 0.7783203 -0.0074691772
vn -0.89208984 0.44482422 0.0770874
vn -0.87841797 0.47558594 -0.041992188
vn -0.8491211 0.5073242 -0.14587402
vn -0.65527344 0.7446289 -0.12646484
vn -0.74560547 0.6308594 -0.21569824
vn -0.8676758 0.49487305 0.04660034
vn -0.08312988 0.97314453 0.21520996
vn -0.83935547 0.53271484 -0.10803223
vn -0.34692383 0.9194336 0.18554688
vn -0.43823242 0.85253906 0.2849121
vn -0.828125 0.5366211 -0.16259766
vn -0.1751709 0.8208008 0.5439453
vn -0.8017578 0.56591797 -0.19250488
vn -0.78564453 0.60058594 -0.14685059
vn -0.7734375 0.6035156 -0.19482422
vn -0.081726074 0.7895508 0.60791016
g rockC_geo_0
f 3/3/3 2/2/2 1/1/1
f 2/2/2 4/4/4 1/1/1
f 4/4/4 2/2/2 5/5/5
f 4/4/4 6/6/6 1/1/1
f 6/6/6 7/7/7 1/1/1
f 6/6/6 8/8/8 7/7/7
f 6/6/6 4/4/4 8/8/8
f 8/8/8 9/9/9 7/7/7
f 10/10/10 9/9/9 8/8/8
f 11/11/11 4/4/4 5/5/5
f 4/4/4 11/11/11 8/8/8
f 11/11/11 5/5/5 12/12/12
f 13/13/13 10/10/10 8/8/8
f 13/13/13 8/8/8 11/11/11
f 14/14/14 11/11/11 12/12/12
f 13/13/13 11/11/11 14/14/14
f 13/13/13 15/15/15 10/10/10
f 15/15/15 13/13/13 14/14/14
f 15/15/15 16/16/16 10/10/10
f 15/15/15 17/17/17 16/16/16
f 15/15/15 14/14/14 17/17/17
f 17/17/17 18/18/18 16/16/16
f 14/14/14 12/12/12 19/19/19
f 14/14/14 19/19/19 17/17/17
f 12/12/12 20/20/20 19/19/19
f 17/17/17 21/21/21 18/18/18
f 21/21/21 17/17/17 19/19/19
f 21/21/21 22/22/22 18/18/18
f 21/21/21 23/23/23 22/22/22
f 21/21/21 19/19/19 23/23/23
f 23/23/23 24/24/24 22/22/22
f 19/19/19 20/20/20 25/25/25
f 19/19/19 25/25/25 23/23/23
f 20/20/20 26/26/26 25/25/25
f 23/23/23 27/27/27 24/24/24
f 23/23/23 25/25/25 27/27/27
f 27/27/27 28/28/28 24/24/24
f 27/27/27 29/29/29 28/28/28
f 25/25/25 26/26/26 30/30/30
f 25/25/25 30/30/30 27/27/27
f 27/27/27 30/30/30 29/29/29
f 26/26/26 31/31/31 30/30/30
f 30/30/30 32/32/32 29/29/29
f 30/30/30 31/31/31 32/32/32
f 31/31/31 33/33/33 32/32/32
f 33/33/33 34/34/34 32/32/32
f 34/34/34 35/35/35 32/32/32
f 32/32/32 35/35/35 36/36/36
f 39/39/39 38/38/38 37/37/37
f 39/39/39 37/37/37 40/40/40
f 40/40/40 37/37/37 41/41/41
f 41/41/41 37/37/37 42/42/42
f 43/43/43 40/40/40 41/41/41
f 44/44/44 40/40/40 43/43/43
f 45/45/45 41/41/41 42/42/42
f 45/45/45 42/42/42 46/46/46
f 47/47/47 45/45/45 46/46/46
f 47/47/47 48/48/48 45/45/45
f 49/49/49 41/41/41 45/45/45
f 48/48/48 49/49/49 45/45/45
f 43/43/43 41/41/41 49/49/49
f 50/50/50 49/49/49 48/48/48
f 50/50/50 43/43/43 49/49/49
f 51/51/51 50/50/50 48/48/48
f 52/52/52 44/44/44 43/43/43
f 52/52/52 43/43/43 50/50/50
f 53/53/53 44/44/44 52/52/52
f 54/54/54 50/50/50 51/51/51
f 54/54/54 52/52/52 50/50/50
f 55/55/55 54/54/54 51/51/51
f 56/56/56 54/54/54 55/55/55
f 54/54/54 56/56/56 52/52/52
f 57/57/57 56/56/56 55/55/55
f 57/57/57 58/58/58 56/56/56
f 59/59/59 53/53/53 52/52/52
f 56/56/56 59/59/59 52/52/52
f 58/58/58 60/60/60 56/56/56
f 56/56/56 60/60/60 59/59/59
f 59/59/59 61/61/61 53/53/53
f 60/60/60 61/61/61 59/59/59
f 61/61/61 62/62/62 53/53/53
f 63/63/63 62/62/62 61/61/61
f 64/64/64 60/60/60 58/58/58
f 65/65/65 64/64/64 58/58/58
f 65/65/65 66/66/66 64/64/64
f 67/67/67 61/61/61 60/60/60
f 67/67/67 63/63/63 61/61/61
f 64/64/64 67/67/67 60/60/60
f 66/66/66 68/68/68 64/64/64
f 64/64/64 68/68/68 67/67/67
f 68/68/68 66/66/66 69/69/69
f 66/66/66 70/70/70 69/69/69
f 70/70/70 71/71/71 69/69/69
f 67/67/67 72/72/72 63/63/63
f 68/68/68 72/72/72 67/67/67
f 68/68/68 69/69/69 72/72/72
f 72/72/72 73/73/73 63/63/63
f 72/72/72 74/74/74 73/73/73
f 69/69/69 74/74/74 72/72/72
f 74/74/74 75/75/75 73/73/73
f 76/76/76 75/75/75 74/74/74
f 77/77/77 76/76/76 74/74/74
f 77/77/77 74/74/74 69/69/69
f 78/78/78 76/76/76 77/77/77
f 71/71/71 79/79/79 69/69/69
f 79/79/79 77/77/77 69/69/69
f 71/71/71 80/80/80 79/79/79
f 81/81/81 78/78/78 77/77/77
f 81/81/81 77/77/77 79/79/79
f 80/80/80 81/81/81 79/79/79
f 82/82/82 78/78/78 81/81/81
f 80/80/80 82/82/82 81/81/81
