g rockG_geo
v -0.20960627 2.1622722 -1.5192653
v -1.8900653 1.9784592 -1.896635
v -1.6296234 1.488624 -3.4488418
v -0.44606134 2.7372148 -0.22930637
v -2.2442608 2.6139495 -0.29834148
v 0.20184146 2.2606492 -0.18755375
v -0.3052862 3.343634 0.4063209
v 0.3299396 1.9034382 -1.4571284
v 0.5392194 1.5928494 -3.1778991
v -0.06942317 1.8641047 -3.1776042
v 0.35510197 1.4925809 -5.1078706
v 0.3558185 2.720939 0.39249033
v 0.8759199 4.644314E-08 -1.0787191
v 1.2338837 4.644314E-08 -2.6306798
v 1.400456 4.644314E-08 -4.0656652
v 0.89393866 4.644314E-08 -0.28575343
v 1.6217278 4.644314E-08 -5.4794426
v 0.50979555 3.00656 0.97253406
v -0.16450985 3.7753844 1.0419482
v 0.9119599 4.644314E-08 0.50721216
v -0.05522761 3.6949074 1.746956
v 0.59008974 3.022353 1.5685041
v 1.0574847 4.644314E-08 1.2841966
v 1.2030097 4.644314E-08 2.0611806
v 0.670384 2.8634775 2.1644745
v 0.05405461 3.439762 2.4519641
v 0.6299164 2.9826424 4.0731964
v 1.1209126 2.3296075 3.6262581
v 1.6288323 4.644314E-08 3.5568929
v 0.93204534 2.9518816 4.8732166
v 1.4088507 2.0700502 4.4393654
v 1.8294256 4.644314E-08 4.255031
v 2.0338702 4.644314E-08 4.949706
v 1.6967889 1.9764291 5.252473
v 1.2341743 3.0870557 5.6732364
v 1.6412348 2.8764355 6.3845024
v 1.9716034 1.926744 6.0218644
v 2.2594597 4.644314E-08 5.565956
v 2.4889104 4.644314E-08 6.1787434
v 2.2464154 1.4795092 6.7912564
v 2.0482965 2.2682657 7.0957675
v 3.526397 1.5019403 8.60817
v 3.4695048 0.8117789 8.118109
v 3.2855487 4.644314E-08 7.4876475
v 4.4853473 4.644314E-08 9.322543
v 4.4743705 4.644314E-08 9.700422
v -0.20960627 2.1622722 -1.5192653
v -1.6296234 1.488624 -3.4488418
v -0.06942317 1.8641047 -3.1776042
v -1.3653119 1.4085197 -4.706237
v 0.35510197 1.4925809 -5.1078706
v 1.3808893 0.8548996 -8.003629
v -2.8351202 0.89131767 -4.0888987
v -1.8900653 1.9784592 -1.896635
v -0.88838184 0.8671628 -5.6365643
v -1.0798162 4.644314E-08 -7.4847817
v 2.3254411 4.644314E-08 -9.891245
v -3.5965679 4.644314E-08 -4.4821014
v -3.3976018 0.9795013 -2.270841
v -4.3416157 4.644314E-08 -2.4717598
v -2.2442608 2.6139495 -0.29834148
v -3.59476 0.9542965 0.14449611
v -4.485324 4.644314E-08 0.14879085
v -2.6876764 1.2881305 3.2891393
v -3.6129131 4.644314E-08 3.3996346
v -1.9951714 2.9540582 0.6350535
v -0.44606134 2.7372148 -0.22930637
v -0.3052862 3.343634 0.4063209
v -0.16450985 3.7753844 1.0419482
v -1.7460834 3.119498 1.5684487
v -1.4752411 3.0602496 2.4405315
v -0.05522761 3.6949074 1.746956
v 0.05405461 3.439762 2.4519641
v -1.2043988 2.8263326 3.3126137
v 0.6299164 2.9826424 4.0731964
v -0.45812556 2.2876744 5.377911
v 0.93204534 2.9518816 4.8732166
v 1.2341743 3.0870557 5.6732364
v -1.6663715 1.3142906 6.029726
v -2.4226787 4.644314E-08 6.30662
v 0.37744448 2.1805468 7.14843
v -0.19489071 1.2183105 8.289456
v -0.45891413 4.644314E-08 8.9500265
v 0.9088947 4.644314E-08 9.707014
v 1.0163556 2.2211883 7.663503
v 1.6412348 2.8764355 6.3845024
v 2.0482965 2.2682657 7.0957675
v 0.88419133 1.2736639 8.758721
v 1.7935443 2.0426736 7.7988424
v 2.0173626 1.3464963 8.7654
v 2.4380853 4.644314E-08 9.89123
v 3.526397 1.5019403 8.60817
v 4.4743705 4.644314E-08 9.700422
v 1.0233197 1.1816725 -5.1564336
v 1.7385101 0.66374594 -7.54078
v 2.1585736 4.644314E-08 -7.2407937
v 1.3808893 0.8548996 -8.003629
v 2.7726824 4.644314E-08 -9.203969
v 2.3254411 4.644314E-08 -9.891245
vt 0.90185547 0.6064453
vt 0.92871094 0.5986328
vt 0.9238281 0.5654297
vt 0.9091797 0.63671875
vt 0.9350586 0.63183594
vt 0.8964844 0.63623047
vt 0.9111328 0.65283203
vt 0.89160156 0.60595703
vt 0.8852539 0.56591797
vt 0.89697266 0.56933594
vt 0.88964844 0.5263672
vt 0.9003906 0.6513672
vt 0.86083984 0.6069336
vt 0.85546875 0.56884766
vt 0.85058594 0.53759766
vt 0.86035156 0.62841797
vt 0.84814453 0.49365234
vt 0.90234375 0.66308594
vt 0.9121094 0.6640625
vt 0.8598633 0.64990234
vt 0.9121094 0.6743164
vt 0.90234375 0.6738281
vt 0.8588867 0.67041016
vt 0.85791016 0.69091797
vt 0.9008789 0.6850586
vt 0.9121094 0.68603516
vt 0.9086914 0.71875
vt 0.89501953 0.71533203
vt 0.85595703 0.7270508
vt 0.9082031 0.73535156
vt 0.89208984 0.73291016
vt 0.8588867 0.7426758
vt 0.8613281 0.7583008
vt 0.8925781 0.74902344
vt 0.9082031 0.74902344
vt 0.9067383 0.7607422
vt 0.89404297 0.76220703
vt 0.8647461 0.7705078
vt 0.8671875 0.7832031
vt 0.89160156 0.77783203
vt 0.9042969 0.7758789
vt 0.9013672 0.8051758
vt 0.88964844 0.8051758
vt 0.8730469 0.8046875
vt 0.89501953 0.8256836
vt 0.9140625 0.82910156
vt 0.90185547 0.6064453
vt 0.9238281 0.5654297
vt 0.89697266 0.56933594
vt 0.9194336 0.5419922
vt 0.88964844 0.5263672
vt 0.87841797 0.47485352
vt 0.9423828 0.55029297
vt 0.92871094 0.5986328
vt 0.9160156 0.5234375
vt 0.9296875 0.4975586
vt 0.87890625 0.4440918
vt 0.95703125 0.5366211
vt 0.95458984 0.58691406
vt 0.9741211 0.57910156
vt 0.9350586 0.63183594
vt 0.96728516 0.6333008
vt 0.98828125 0.6298828
vt 0.9609375 0.6923828
vt 0.9838867 0.69140625
vt 0.9326172 0.64941406
vt 0.9091797 0.63671875
vt 0.9111328 0.65283203
vt 0.9121094 0.6640625
vt 0.93115234 0.66552734
vt 0.93115234 0.68066406
vt 0.9121094 0.6743164
vt 0.9121094 0.68603516
vt 0.9316406 0.69628906
vt 0.9086914 0.71875
vt 0.9301758 0.7368164
vt 0.9082031 0.73535156
vt 0.9082031 0.74902344
vt 0.95214844 0.7451172
vt 0.9741211 0.7524414
vt 0.9248047 0.7675781
vt 0.93603516 0.7871094
vt 0.94433594 0.80859375
vt 0.9375 0.80566406
vt 0.9189453 0.7763672
vt 0.9067383 0.7607422
vt 0.9042969 0.7758789
vt 0.9277344 0.79296875
vt 0.9121094 0.7832031
vt 0.91748047 0.79833984
vt 0.92871094 0.8208008
vt 0.9013672 0.8051758
vt 0.9140625 0.82910156
vt 0.8754883 0.51904297
vt 0.8671875 0.47631836
vt 0.8486328 0.47143555
vt 0.87841797 0.47485352
vt 0.8496094 0.44580078
vt 0.87890625 0.4440918
vn 0.08630371 0.95166016 -0.29418945
vn -0.37231445 0.88623047 -0.27563477
vn -0.2607422 0.9394531 -0.22265625
vn 0.06896973 0.890625 -0.4489746
vn -0.46484375 0.83691406 -0.28857422
vn 0.8774414 0.4477539 -0.17321777
vn -0.014221191 0.88623047 -0.4633789
vn 0.86865234 0.49365234 0.043182373
vn 0.7919922 0.6098633 0.026443481
vn 0.030578613 0.9819336 -0.18664551
vn -0.027618408 0.96728516 -0.25268555
vn 0.8881836 0.3425293 -0.30639648
vn 0.9536133 0.2993164 0.03842163
vn 0.92089844 0.38012695 0.085632324
vn 0.90283203 0.41552734 0.111083984
vn 0.9501953 0.24658203 -0.19030762
vn 0.8769531 0.44750977 0.1739502
vn 0.9238281 0.31835938 -0.21252441
vn -0.04373169 0.98828125 -0.14746094
vn 0.9711914 0.17651367 -0.16149902
vn 0.027496338 0.9819336 0.18640137
vn 0.9428711 0.3137207 -0.110961914
vn 0.9741211 0.1673584 -0.15161133
vn 0.9589844 0.19067383 -0.21020508
vn 0.9277344 0.34472656 -0.1430664
vn 0.10699463 0.95996094 0.25952148
vn 0.12371826 0.9707031 0.20495605
vn 0.9189453 0.33398438 -0.20910645
vn 0.94628906 0.203125 -0.25219727
vn 0.06286621 0.9980469 0.01713562
vn 0.90478516 0.32836914 -0.27124023
vn 0.93652344 0.21191406 -0.2788086
vn 0.92822266 0.21032715 -0.30664062
vn 0.8964844 0.3154297 -0.31103516
vn -0.045043945 0.99560547 0.08239746
vn 0.35351562 0.921875 0.1574707
vn 0.91259766 0.30200195 -0.27612305
vn 0.92822266 0.21899414 -0.30029297
vn 0.87060547 0.2734375 -0.4091797
vn 0.84521484 0.3154297 -0.43139648
vn 0.63623047 0.77001953 0.043395996
vn 0.4025879 0.7963867 0.45141602
vn 0.7998047 0.32641602 -0.50390625
vn 0.79541016 0.29541016 -0.5292969
vn 0.85302734 0.35864258 -0.3786621
vn 0.27929688 0.7060547 0.6503906
vn 0.08630371 0.95166016 -0.29418945
vn -0.2607422 0.9394531 -0.22265625
vn 0.030578613 0.9819336 -0.18664551
vn -0.26293945 0.91503906 -0.30566406
vn -0.027618408 0.96728516 -0.25268555
vn -0.20275879 0.8959961 -0.39501953
vn -0.49853516 0.7963867 -0.34228516
vn -0.37231445 0.88623047 -0.27563477
vn -0.3713379 0.8256836 -0.42456055
vn -0.39257812 0.8046875 -0.44506836
vn -0.13354492 0.91308594 -0.38549805
vn -0.5336914 0.76220703 -0.36694336
vn -0.6381836 0.7480469 -0.18078613
vn -0.7055664 0.6958008 -0.13464355
vn -0.46484375 0.83691406 -0.28857422
vn -0.74853516 0.6611328 0.04510498
vn -0.74853516 0.65771484 0.08105469
vn -0.74316406 0.62060547 0.24890137
vn -0.7709961 0.5913086 0.2364502
vn -0.4975586 0.8388672 -0.22143555
vn 0.06896973 0.890625 -0.4489746
vn -0.014221191 0.88623047 -0.4633789
vn -0.04373169 0.98828125 -0.14746094
vn -0.69189453 0.71191406 0.12231445
vn -0.6533203 0.7192383 0.23657227
vn 0.027496338 0.9819336 0.18640137
vn 0.10699463 0.95996094 0.25952148
vn -0.45361328 0.828125 0.32983398
vn 0.12371826 0.9707031 0.20495605
vn -0.50439453 0.8105469 0.29760742
vn 0.06286621 0.9980469 0.01713562
vn -0.045043945 0.99560547 0.08239746
vn -0.6767578 0.63623047 0.37060547
vn -0.7553711 0.52001953 0.39868164
vn -0.44848633 0.8227539 0.34936523
vn -0.58251953 0.6118164 0.53466797
vn -0.6074219 0.5048828 0.61328125
vn -0.2055664 0.5839844 0.78515625
vn -0.16491699 0.83740234 0.5214844
vn 0.35351562 0.921875 0.1574707
vn 0.63623047 0.77001953 0.043395996
vn -0.22265625 0.65527344 0.7216797
vn 0.06439209 0.8466797 0.5283203
vn 0.005619049 0.7036133 0.7104492
vn 0.008979797 0.62353516 0.7817383
vn 0.4025879 0.7963867 0.45141602
vn 0.27929688 0.7060547 0.6503906
vn 0.75 0.65722656 0.07373047
vn 0.65478516 0.75390625 0.053771973
vn 0.83984375 0.50097656 0.20996094
vn -0.20275879 0.8959961 -0.39501953
vn 0.46850586 0.8769531 -0.10668945
vn -0.13354492 0.91308594 -0.38549805
g rockG_geo_0
f 3/3/3 2/2/2 1/1/1
f 1/1/1 2/2/2 4/4/4
f 2/2/2 5/5/5 4/4/4
f 1/1/1 4/4/4 6/6/6
f 6/6/6 4/4/4 7/7/7
f 8/8/8 1/1/1 6/6/6
f 8/8/8 9/9/9 1/1/1
f 9/9/9 10/10/10 1/1/1
f 11/11/11 10/10/10 9/9/9
f 12/12/12 6/6/6 7/7/7
f 8/8/8 6/6/6 13/13/13
f 13/13/13 6/6/6 12/12/12
f 14/14/14 8/8/8 13/13/13
f 9/9/9 8/8/8 14/14/14
f 15/15/15 9/9/9 14/14/14
f 16/16/16 13/13/13 12/12/12
f 15/15/15 17/17/17 9/9/9
f 12/12/12 7/7/7 18/18/18
f 16/16/16 12/12/12 18/18/18
f 7/7/7 19/19/19 18/18/18
f 20/20/20 16/16/16 18/18/18
f 18/18/18 19/19/19 21/21/21
f 20/20/20 18/18/18 22/22/22
f 22/22/22 18/18/18 21/21/21
f 23/23/23 20/20/20 22/22/22
f 23/23/23 22/22/22 24/24/24
f 22/22/22 21/21/21 25/25/25
f 22/22/22 25/25/25 24/24/24
f 21/21/21 26/26/26 25/25/25
f 25/25/25 26/26/26 27/27/27
f 24/24/24 25/25/25 28/28/28
f 28/28/28 25/25/25 27/27/27
f 29/29/29 24/24/24 28/28/28
f 28/28/28 27/27/27 30/30/30
f 29/29/29 28/28/28 31/31/31
f 31/31/31 28/28/28 30/30/30
f 32/32/32 29/29/29 31/31/31
f 32/32/32 31/31/31 33/33/33
f 31/31/31 30/30/30 34/34/34
f 31/31/31 34/34/34 33/33/33
f 30/30/30 35/35/35 34/34/34
f 34/34/34 35/35/35 36/36/36
f 33/33/33 34/34/34 37/37/37
f 37/37/37 34/34/34 36/36/36
f 38/38/38 33/33/33 37/37/37
f 38/38/38 37/37/37 39/39/39
f 37/37/37 36/36/36 40/40/40
f 37/37/37 40/40/40 39/39/39
f 36/36/36 41/41/41 40/40/40
f 40/40/40 41/41/41 42/42/42
f 39/39/39 40/40/40 43/43/43
f 43/43/43 40/40/40 42/42/42
f 44/44/44 39/39/39 43/43/43
f 44/44/44 43/43/43 45/45/45
f 45/45/45 43/43/43 42/42/42
f 46/46/46 45/45/45 42/42/42
f 49/49/49 48/48/48 47/47/47
f 50/50/50 48/48/48 49/49/49
f 51/51/51 50/50/50 49/49/49
f 50/50/50 51/51/51 52/52/52
f 50/50/50 53/53/53 48/48/48
f 48/48/48 53/53/53 54/54/54
f 55/55/55 50/50/50 52/52/52
f 50/50/50 55/55/55 53/53/53
f 56/56/56 55/55/55 52/52/52
f 55/55/55 56/56/56 53/53/53
f 57/57/57 56/56/56 52/52/52
f 56/56/56 58/58/58 53/53/53
f 53/53/53 59/59/59 54/54/54
f 53/53/53 58/58/58 59/59/59
f 58/58/58 60/60/60 59/59/59
f 54/54/54 59/59/59 61/61/61
f 59/59/59 60/60/60 62/62/62
f 59/59/59 62/62/62 61/61/61
f 60/60/60 63/63/63 62/62/62
f 64/64/64 62/62/62 63/63/63
f 65/65/65 64/64/64 63/63/63
f 66/66/66 61/61/61 62/62/62
f 67/67/67 61/61/61 66/66/66
f 68/68/68 67/67/67 66/66/66
f 68/68/68 66/66/66 69/69/69
f 66/66/66 62/62/62 70/70/70
f 66/66/66 70/70/70 69/69/69
f 70/70/70 62/62/62 64/64/64
f 69/69/69 70/70/70 71/71/71
f 71/71/71 70/70/70 64/64/64
f 72/72/72 69/69/69 71/71/71
f 72/72/72 71/71/71 73/73/73
f 71/71/71 74/74/74 73/73/73
f 71/71/71 64/64/64 74/74/74
f 73/73/73 74/74/74 75/75/75
f 74/74/74 76/76/76 75/75/75
f 74/74/74 64/64/64 76/76/76
f 77/77/77 75/75/75 76/76/76
f 77/77/77 76/76/76 78/78/78
f 64/64/64 79/79/79 76/76/76
f 64/64/64 65/65/65 79/79/79
f 65/65/65 80/80/80 79/79/79
f 76/76/76 81/81/81 78/78/78
f 76/76/76 79/79/79 81/81/81
f 79/79/79 80/80/80 82/82/82
f 79/79/79 82/82/82 81/81/81
f 80/80/80 83/83/83 82/82/82
f 82/82/82 83/83/83 84/84/84
f 78/78/78 81/81/81 85/85/85
f 86/86/86 78/78/78 85/85/85
f 86/86/86 85/85/85 87/87/87
f 81/81/81 82/82/82 88/88/88
f 88/88/88 82/82/82 84/84/84
f 85/85/85 81/81/81 88/88/88
f 85/85/85 89/89/89 87/87/87
f 85/85/85 88/88/88 89/89/89
f 88/88/88 84/84/84 90/90/90
f 88/88/88 90/90/90 89/89/89
f 89/89/89 90/90/90 87/87/87
f 84/84/84 91/91/91 90/90/90
f 90/90/90 92/92/92 87/87/87
f 91/91/91 93/93/93 90/90/90
f 93/93/93 92/92/92 90/90/90
f 17/17/17 94/94/94 9/9/9
f 94/94/94 11/11/11 9/9/9
f 95/95/95 94/94/94 17/17/17
f 94/94/94 95/95/95 11/11/11
f 96/96/96 95/95/95 17/17/17
f 95/95/95 97/97/97 11/11/11
f 98/98/98 95/95/95 96/96/96
f 99/99/99 97/97/97 95/95/95
f 98/98/98 99/99/99 95/95/95
