g rockDPlane001_geo
v 2.034374 3.9232678 -1.5677524
v 2.576168 4.0485587 -1.1337374
v 1.3327162 3.6336563 -2.0017636
v 1.316268E-07 3.8421692E-09 2.8235274E-07
v -0.4375548 3.3073065 -3.2662606
v 3.6270032 3.4004543 -0.07734957
v 3.1815174 3.8066669 -0.6055478
v -3.3353076 8.013611E-08 -2.0562606
v -3.3585887 3.316399 -3.9407551
v -5.0132446 2.4558277 -4.2439265
v -6.777727 4.6160585E-07 -3.17337
v -7.0700827 1.7187258 -4.4617586
v -9.452 -3.887149E-06 -4.635638
v 2.7067761 2.32724E-07 2.2260697
v 4.698297 2.5290554 1.080137
v 5.3154087 2.2144012 1.7331522
v 5.0744495 -1.3694488E-06 6.256584
v 6.205992 2.015754 3.420281
v 6.896527 1.0776472 5.460055
v 6.840399 -7.3966703E-06 8.4791
vt 0.41235352 0.6464844
vt 0.41333008 0.63623047
vt 0.4111328 0.6567383
vt 0.3383789 0.65283203
vt 0.40844727 0.69189453
vt 0.41333008 0.6142578
vt 0.41333008 0.625
vt 0.34399414 0.72558594
vt 0.40063477 0.73583984
vt 0.40527344 0.77197266
vt 0.35205078 0.79296875
vt 0.39648438 0.80615234
vt 0.3864746 0.8461914
vt 0.34179688 0.58154297
vt 0.4099121 0.57958984
vt 0.41479492 0.56591797
vt 0.35302734 0.4831543
vt 0.40795898 0.52734375
vt 0.38964844 0.4753418
vt 0.38793945 0.41967773
vn -0.5888672 0.5732422 0.5698242
vn -0.5058594 0.515625 0.69140625
vn -0.49829102 0.5800781 0.64453125
vn -0.4699707 0.58154297 0.6640625
vn -0.42333984 0.5761719 0.69921875
vn -0.46142578 0.55908203 0.68896484
vn -0.4724121 0.4597168 0.7519531
vn -0.37353516 0.54785156 0.74853516
vn -0.26098633 0.4970703 0.8276367
vn -0.30737305 0.50878906 0.8041992
vn -0.3310547 0.5097656 0.7944336
vn -0.34692383 0.5239258 0.77783203
vn -0.41577148 0.49926758 0.7602539
vn -0.51123047 0.66796875 0.54052734
vn -0.4580078 0.5839844 0.6699219
vn -0.5410156 0.7495117 0.38134766
vn -0.4873047 0.80029297 0.3491211
vn -0.53759766 0.7661133 0.35205078
vn -0.32543945 0.85253906 0.4091797
vn -0.3828125 0.8720703 0.30419922
g rockDPlane001_geo_0
f 3/3/3 2/2/2 1/1/1
f 3/3/3 4/4/4 2/2/2
f 3/3/3 5/5/5 4/4/4
f 6/6/6 2/2/2 4/4/4
f 6/6/6 7/7/7 2/2/2
f 5/5/5 8/8/8 4/4/4
f 5/5/5 9/9/9 8/8/8
f 9/9/9 10/10/10 8/8/8
f 10/10/10 11/11/11 8/8/8
f 11/11/11 10/10/10 12/12/12
f 13/13/13 11/11/11 12/12/12
f 6/6/6 4/4/4 14/14/14
f 15/15/15 6/6/6 14/14/14
f 16/16/16 15/15/15 14/14/14
f 16/16/16 14/14/14 17/17/17
f 18/18/18 16/16/16 17/17/17
f 19/19/19 18/18/18 17/17/17
f 17/17/17 20/20/20 19/19/19
