g rockEPlane003_geo
v -9.065974 4.04451 -0.26864257
v -7.7806025 3.7510002 -0.8464746
v -10.289476 4.012383 0.37461913
v -6.571133 0.31765118 2.5418334
v -5.5585427 3.2777684 -1.6951586
v 1.1265154E-06 2.2596764E-07 -2.4477936E-06
v -2.3506758 2.8396504 -2.633667
v 1.1637816 2.688367 -3.2145116
v 2.8386188 2.0188694 -3.280454
v 5.6038895 1.3825779 -3.4726758
v 6.622393 -0.32978222 -1.4998608
v 7.9689207 0.78544194 -3.5354102
v 11.539897 -0.5702456 -3.1002269
v -11.216675 0.5388534 4.708882
v -12.582102 3.0281441 2.1939502
v -11.466728 3.6830814 1.2515649
v -14.462268 2.425177 4.0529943
v -15.467509 1.4095911 5.1223364
v -17.471786 0.83724767 7.566245
vt 0.89404297 0.32373047
vt 0.8857422 0.32202148
vt 0.90185547 0.3256836
vt 0.8857422 0.40893555
vt 0.8691406 0.32055664
vt 0.81933594 0.40795898
vt 0.8417969 0.32202148
vt 0.8120117 0.32983398
vt 0.7949219 0.33789062
vt 0.76708984 0.3461914
vt 0.75341797 0.40014648
vt 0.7338867 0.34887695
vt 0.69433594 0.35131836
vt 0.9238281 0.4020996
vt 0.92333984 0.3371582
vt 0.91259766 0.33129883
vt 0.9448242 0.35229492
vt 0.96777344 0.36743164
vt 0.9921875 0.38623047
vn 0.44433594 0.25683594 0.85839844
vn 0.31347656 0.7402344 0.59472656
vn 0.30249023 0.7167969 0.62841797
vn 0.29711914 0.73583984 0.60839844
vn 0.2944336 0.7495117 0.59277344
vn 0.2409668 0.7524414 0.61279297
vn 0.22644043 0.75634766 0.61376953
vn 0.2076416 0.71191406 0.67089844
vn 0.20275879 0.7583008 0.6196289
vn 0.19165039 0.7705078 0.60791016
vn 0.19750977 0.7729492 0.60302734
vn 0.22338867 0.78515625 0.5776367
vn 0.22668457 0.7832031 0.57910156
vn 0.2841797 0.72802734 0.62402344
vn 0.2919922 0.72216797 0.6269531
vn 0.5283203 0.2626953 0.8076172
vn 0.2644043 0.6894531 0.6743164
vn 0.22045898 0.8457031 0.4855957
vn 0.22106934 0.8935547 0.390625
g rockEPlane003_geo_0
f 3/3/3 2/2/2 1/1/1
f 3/3/3 4/4/4 2/2/2
f 5/5/5 2/2/2 4/4/4
f 6/6/6 5/5/5 4/4/4
f 5/5/5 6/6/6 7/7/7
f 6/6/6 8/8/8 7/7/7
f 6/6/6 9/9/9 8/8/8
f 10/10/10 9/9/9 6/6/6
f 11/11/11 10/10/10 6/6/6
f 12/12/12 10/10/10 11/11/11
f 11/11/11 13/13/13 12/12/12
f 14/14/14 4/4/4 3/3/3
f 15/15/15 14/14/14 3/3/3
f 3/3/3 16/16/16 15/15/15
f 14/14/14 15/15/15 17/17/17
f 14/14/14 17/17/17 18/18/18
f 14/14/14 18/18/18 19/19/19
