g rockN002_geo
v 0.0983197 0.026517143 -1.4650325
v 0.122675166 -3.0517577E-07 -1.798096
v 0.67762756 -3.814697E-07 -2.100582
v 0.54982847 0.022803267 -1.7025084
v 0.094022825 0.13291222 -1.2322437
v 0.9535162 -3.0517577E-07 -1.8039432
v -0.2801886 0.03482521 -1.0991524
v -0.34227723 -2.2888183E-07 -1.3474444
v 0.7780499 0.028117409 -1.4635843
v 1.1659296 -2.2888183E-07 -1.3799329
v -0.6802008 0.04466747 -0.67574567
v -0.8372186 -1.5258789E-07 -0.83174956
v -0.200224 0.15569812 -0.91686946
v -0.8927142 0.057707213 -0.04013586
v -1.0970917 5.684342E-16 -0.048088625
v 0.38981506 0.15093368 -1.3139236
v 0.95237243 0.035118714 -1.1192489
v 1.259367 -7.6293944E-08 -0.75215507
v -0.49733093 0.16957653 -0.5133915
v -1.0223931 0.069814645 0.5419437
v -1.259367 2.2888183E-07 0.6685641
v 0.6042645 0.1647554 -1.1416252
v 1.0285785 0.04523163 -0.610977
v 1.1404791 5.684342E-16 -0.10517942
v -0.7088092 0.16914031 -0.01827587
v -0.9248895 0.079775505 0.9708959
v -1.1401618 3.0517577E-07 1.1963558
v 0.7671905 0.16257621 -0.8710842
v 0.9301129 0.05704235 -0.08405704
v 0.8531073 1.5258789E-07 0.6385971
v -0.8298077 0.15932205 0.42952558
v -0.7563739 0.08777164 1.3187048
v -0.93387264 3.814697E-07 1.6249057
v 0.6941681 0.07034595 0.5197552
v 0.3999603 3.0517577E-07 1.2582209
v -0.7442804 0.1855508 0.75181973
v -0.571784 0.09611603 1.6973321
v -0.7131012 5.340576E-07 2.100582
v 0.32597718 0.08080864 1.0239366
v -0.09300232 3.814697E-07 1.6107839
v -0.072022095 0.08611568 1.3126162
v -0.5911346 0.20134704 1.0340552
v -0.38571715 0.19667877 1.2289445
v -0.062566526 0.1743164 1.0898385
v 0.23999572 0.18810382 0.8067783
v -0.42567444 0.32850435 0.7380868
v 0.52834654 0.19040363 0.38302284
v -0.57940733 0.3028315 0.5339105
v 0.73934996 0.17583175 -0.09491329
v -0.70599914 0.23874839 0.35769606
v -0.5522589 0.2919924 0.017766284
v -0.2961688 0.48299703 0.12003895
v -0.35243347 0.3067306 -0.38613415
v -0.14249572 0.52713215 0.22792408
v 0.018169556 0.56776106 -0.06166731
v -0.012868042 0.4895693 0.37761146
v 0.8449896 0.15118279 -0.5240198
v 0.72702575 0.24040584 -0.46088058
v -0.12175109 0.2850151 -0.7582638
v -0.11855041 0.5190466 -0.18179004
v 0.036710814 0.47806898 -0.5000274
v 0.08254577 0.22283241 -1.0686557
v 0.26110533 0.28550246 -1.0022041
v 0.16988464 0.5262838 -0.34024155
v 0.443504 0.3110301 -0.84455717
v 0.3286017 0.4834394 -0.2339456
v 0.60422665 0.2961088 -0.6459999
v 0.15283142 0.52154386 0.05584026
v 0.58260435 0.3018296 -0.13088842
v 0.38614196 0.32233405 0.26129076
v 0.15531188 0.3071898 0.6362703
v -0.24575989 0.31195933 0.8927632
v -0.052892454 0.25243095 0.9343307
vt 0.17285156 0.38598633
vt 0.17602539 0.40039062
vt 0.20898438 0.40405273
vt 0.19934082 0.38891602
vt 0.17126465 0.37646484
vt 0.22277832 0.3869629
vt 0.14990234 0.37670898
vt 0.14758301 0.38867188
vt 0.21057129 0.375
vt 0.23205566 0.36523438
vt 0.12548828 0.36499023
vt 0.117370605 0.37451172
vt 0.15319824 0.36791992
vt 0.11071777 0.3413086
vt 0.09918213 0.3449707
vt 0.18823242 0.37524414
vt 0.21813965 0.35766602
vt 0.23327637 0.33691406
vt 0.13464355 0.35546875
vt 0.10064697 0.31835938
vt 0.08679199 0.31689453
vt 0.19921875 0.3642578
vt 0.21923828 0.3347168
vt 0.22253418 0.3112793
vt 0.12036133 0.33740234
vt 0.103759766 0.29858398
vt 0.09063721 0.29223633
vt 0.20666504 0.35009766
vt 0.21057129 0.31396484
vt 0.20214844 0.2841797
vt 0.111450195 0.3203125
vt 0.11102295 0.28100586
vt 0.09954834 0.2705078
vt 0.19384766 0.29223633
vt 0.17358398 0.26513672
vt 0.11444092 0.30493164
vt 0.11871338 0.26171875
vt 0.10882568 0.24658203
vt 0.17089844 0.27661133
vt 0.14489746 0.2578125
vt 0.14770508 0.2705078
vt 0.12121582 0.29052734
vt 0.13134766 0.2788086
vt 0.14953613 0.27954102
vt 0.16772461 0.28686523
vt 0.13183594 0.3005371
vt 0.18591309 0.30029297
vt 0.124572754 0.31176758
vt 0.20043945 0.3173828
vt 0.11859131 0.32128906
vt 0.12878418 0.3334961
vt 0.14233398 0.32495117
vt 0.14196777 0.34765625
vt 0.15014648 0.3178711
vt 0.16052246 0.32763672
vt 0.15637207 0.30932617
vt 0.2088623 0.33398438
vt 0.20202637 0.33325195
vt 0.15673828 0.35986328
vt 0.15368652 0.33496094
vt 0.1640625 0.3461914
vt 0.1697998 0.3696289
vt 0.17932129 0.36401367
vt 0.17053223 0.3371582
vt 0.18859863 0.35424805
vt 0.17858887 0.33007812
vt 0.19628906 0.34301758
vt 0.16723633 0.3203125
vt 0.1920166 0.3215332
vt 0.17883301 0.30786133
vt 0.1640625 0.2956543
vt 0.14074707 0.29101562
vt 0.15100098 0.2861328
vn -0.13549805 0.96777344 -0.2130127
vn -0.04714966 0.99560547 -0.08001709
vn 0.006111145 0.9980469 -0.062164307
vn 0.011581421 0.9916992 -0.12768555
vn -0.27783203 0.86621094 -0.41503906
vn 0.05657959 0.9970703 -0.050933838
vn -0.22644043 0.94628906 -0.23168945
vn -0.09881592 0.9892578 -0.10882568
vn 0.14733887 0.98046875 -0.13183594
vn 0.10430908 0.99365234 -0.044769287
vn -0.28515625 0.9423828 -0.17382812
vn -0.17077637 0.9790039 -0.11016846
vn -0.40161133 0.8354492 -0.37524414
vn -0.35791016 0.9267578 -0.114990234
vn -0.2685547 0.95996094 -0.080566406
vn 0.016464233 0.9370117 -0.3491211
vn 0.23376465 0.9682617 -0.08984375
vn 0.1743164 0.984375 -0.0135269165
vn -0.46362305 0.84228516 -0.27441406
vn -0.3461914 0.9379883 -0.021102905
vn -0.28344727 0.9589844 0.009140015
vn 0.28100586 0.92529297 -0.25512695
vn 0.32299805 0.94628906 -0.005004883
vn 0.26342773 0.96240234 0.064331055
vn -0.5131836 0.83984375 -0.17651367
vn -0.31469727 0.94433594 0.09399414
vn -0.26293945 0.9604492 0.0925293
vn 0.4326172 0.8876953 -0.1574707
vn 0.38061523 0.9189453 0.103637695
vn 0.29638672 0.94140625 0.1616211
vn -0.49291992 0.8691406 -0.0440979
vn -0.26953125 0.9536133 0.13549805
vn -0.27124023 0.9550781 0.11981201
vn 0.36279297 0.9121094 0.1899414
vn 0.23632812 0.93896484 0.25
vn -0.41186523 0.9038086 0.11602783
vn 0.0009317398 0.9736328 0.2286377
vn -0.03463745 0.9765625 0.21228027
vn 0.2902832 0.9194336 0.26513672
vn 0.23059082 0.92871094 0.29052734
vn 0.23010254 0.92529297 0.30200195
vn -0.29296875 0.9375 0.18774414
vn -0.00021255016 0.9628906 0.2705078
vn 0.26098633 0.89404297 0.36376953
vn 0.38623047 0.8623047 0.32714844
vn -0.2607422 0.9379883 0.22753906
vn 0.47998047 0.8408203 0.25048828
vn -0.44360352 0.89160156 0.09020996
vn 0.5385742 0.82714844 0.16052246
vn -0.5488281 0.83447266 -0.053375244
vn -0.5473633 0.8198242 -0.1665039
vn -0.45288086 0.8901367 -0.050231934
vn -0.5073242 0.8120117 -0.28930664
vn -0.18371582 0.96875 0.16662598
vn -0.006713867 1 -0.008201599
vn 0.19177246 0.9301758 0.3125
vn 0.5307617 0.84716797 0.0018730164
vn 0.5625 0.82666016 0.018997192
vn -0.3959961 0.8334961 -0.38476562
vn -0.40600586 0.8852539 -0.22753906
vn -0.20117188 0.91845703 -0.3408203
vn -0.29418945 0.8491211 -0.4387207
vn -0.026184082 0.92285156 -0.38427734
vn 0.17102051 0.96533203 -0.19836426
vn 0.25146484 0.9272461 -0.27734375
vn 0.4416504 0.89697266 0.021057129
vn 0.4416504 0.88671875 -0.13537598
vn 0.39086914 0.8959961 0.21044922
vn 0.54785156 0.82373047 0.14575195
vn 0.4975586 0.82421875 0.2705078
vn 0.38452148 0.8510742 0.35791016
vn 0.029968262 0.93847656 0.34375
vn 0.28442383 0.8676758 0.4074707
g rockN002_geo_0
f 3/3/3 2/2/2 1/1/1
f 4/4/4 3/3/3 1/1/1
f 4/4/4 1/1/1 5/5/5
f 6/6/6 3/3/3 4/4/4
f 1/1/1 2/2/2 7/7/7
f 1/1/1 7/7/7 5/5/5
f 2/2/2 8/8/8 7/7/7
f 9/9/9 6/6/6 4/4/4
f 10/10/10 6/6/6 9/9/9
f 7/7/7 8/8/8 11/11/11
f 8/8/8 12/12/12 11/11/11
f 7/7/7 13/13/13 5/5/5
f 7/7/7 11/11/11 13/13/13
f 11/11/11 12/12/12 14/14/14
f 12/12/12 15/15/15 14/14/14
f 16/16/16 4/4/4 5/5/5
f 9/9/9 4/4/4 16/16/16
f 17/17/17 10/10/10 9/9/9
f 18/18/18 10/10/10 17/17/17
f 11/11/11 19/19/19 13/13/13
f 11/11/11 14/14/14 19/19/19
f 14/14/14 15/15/15 20/20/20
f 15/15/15 21/21/21 20/20/20
f 22/22/22 9/9/9 16/16/16
f 17/17/17 9/9/9 22/22/22
f 23/23/23 18/18/18 17/17/17
f 24/24/24 18/18/18 23/23/23
f 14/14/14 25/25/25 19/19/19
f 14/14/14 20/20/20 25/25/25
f 20/20/20 21/21/21 26/26/26
f 21/21/21 27/27/27 26/26/26
f 28/28/28 17/17/17 22/22/22
f 23/23/23 17/17/17 28/28/28
f 29/29/29 24/24/24 23/23/23
f 30/30/30 24/24/24 29/29/29
f 20/20/20 31/31/31 25/25/25
f 20/20/20 26/26/26 31/31/31
f 26/26/26 27/27/27 32/32/32
f 27/27/27 33/33/33 32/32/32
f 34/34/34 30/30/30 29/29/29
f 35/35/35 30/30/30 34/34/34
f 26/26/26 36/36/36 31/31/31
f 26/26/26 32/32/32 36/36/36
f 32/32/32 33/33/33 37/37/37
f 33/33/33 38/38/38 37/37/37
f 39/39/39 35/35/35 34/34/34
f 40/40/40 35/35/35 39/39/39
f 38/38/38 40/40/40 41/41/41
f 37/37/37 38/38/38 41/41/41
f 41/41/41 40/40/40 39/39/39
f 32/32/32 37/37/37 42/42/42
f 32/32/32 42/42/42 36/36/36
f 37/37/37 41/41/41 43/43/43
f 37/37/37 43/43/43 42/42/42
f 41/41/41 39/39/39 44/44/44
f 41/41/41 44/44/44 43/43/43
f 39/39/39 34/34/34 45/45/45
f 39/39/39 45/45/45 44/44/44
f 42/42/42 46/46/46 36/36/36
f 42/42/42 43/43/43 46/46/46
f 34/34/34 47/47/47 45/45/45
f 34/34/34 29/29/29 47/47/47
f 46/46/46 48/48/48 36/36/36
f 36/36/36 48/48/48 31/31/31
f 29/29/29 49/49/49 47/47/47
f 29/29/29 23/23/23 49/49/49
f 48/48/48 50/50/50 31/31/31
f 31/31/31 50/50/50 25/25/25
f 50/50/50 51/51/51 25/25/25
f 19/19/19 25/25/25 51/51/51
f 50/50/50 48/48/48 52/52/52
f 51/51/51 50/50/50 52/52/52
f 53/53/53 19/19/19 51/51/51
f 53/53/53 51/51/51 52/52/52
f 19/19/19 53/53/53 13/13/13
f 48/48/48 46/46/46 54/54/54
f 52/52/52 48/48/48 54/54/54
f 52/52/52 54/54/54 55/55/55
f 54/54/54 46/46/46 56/56/56
f 55/55/55 54/54/54 56/56/56
f 23/23/23 57/57/57 49/49/49
f 57/57/57 23/23/23 28/28/28
f 57/57/57 58/58/58 49/49/49
f 58/58/58 57/57/57 28/28/28
f 53/53/53 59/59/59 13/13/13
f 5/5/5 13/13/13 59/59/59
f 60/60/60 53/53/53 52/52/52
f 60/60/60 52/52/52 55/55/55
f 53/53/53 60/60/60 61/61/61
f 59/59/59 53/53/53 61/61/61
f 61/61/61 60/60/60 55/55/55
f 62/62/62 5/5/5 59/59/59
f 62/62/62 59/59/59 61/61/61
f 62/62/62 63/63/63 5/5/5
f 63/63/63 62/62/62 61/61/61
f 63/63/63 16/16/16 5/5/5
f 63/63/63 61/61/61 64/64/64
f 64/64/64 61/61/61 55/55/55
f 63/63/63 65/65/65 16/16/16
f 65/65/65 63/63/63 64/64/64
f 65/65/65 22/22/22 16/16/16
f 64/64/64 55/55/55 66/66/66
f 65/65/65 64/64/64 66/66/66
f 65/65/65 67/67/67 22/22/22
f 67/67/67 65/65/65 66/66/66
f 67/67/67 28/28/28 22/22/22
f 67/67/67 58/58/58 28/28/28
f 67/67/67 66/66/66 58/58/58
f 55/55/55 68/68/68 66/66/66
f 68/68/68 55/55/55 56/56/56
f 66/66/66 69/69/69 58/58/58
f 66/66/66 68/68/68 69/69/69
f 58/58/58 69/69/69 49/49/49
f 47/47/47 49/49/49 69/69/69
f 68/68/68 70/70/70 69/69/69
f 70/70/70 47/47/47 69/69/69
f 68/68/68 56/56/56 70/70/70
f 47/47/47 70/70/70 45/45/45
f 70/70/70 71/71/71 45/45/45
f 56/56/56 71/71/71 70/70/70
f 45/45/45 71/71/71 44/44/44
f 56/56/56 72/72/72 71/71/71
f 46/46/46 72/72/72 56/56/56
f 43/43/43 72/72/72 46/46/46
f 44/44/44 73/73/73 43/43/43
f 71/71/71 73/73/73 44/44/44
f 73/73/73 72/72/72 43/43/43
f 72/72/72 73/73/73 71/71/71
