g rockO004_geo
v -3.4928827 0.037727088 -0.82625854
v -3.7430797 -4.5776366E-07 -0.77217895
v -4.5339074 -7.2479247E-07 -2.1755579
v -4.2024674 0.03614334 -2.0192883
v -2.898471 0.10753418 -0.7236267
v -4.1424975 -7.2479247E-07 -2.8696227
v -2.4793253 0.039583318 0.25059935
v -2.7376134 -2.2888183E-07 0.29209593
v -3.6256268 0.036454238 -2.4721007
v -3.1678913 -5.340576E-07 -3.2113757
v -1.3287437 0.041693877 1.4124682
v -1.4330428 7.105427E-17 1.5260986
v -2.0286417 0.16199036 0.12560669
v 0.34435102 0.044081345 2.183462
v 0.30643767 2.670288E-07 2.496422
v -3.1660411 0.1407489 -1.4796594
v -2.7607453 0.037204094 -2.7579432
v -1.5660634 -4.196167E-07 -3.2148497
v -0.93559647 0.19606183 1.0199767
v 1.8701926 0.04617153 2.7219946
v 1.9233085 4.959106E-07 3.2148497
v -2.7572124 0.16389373 -1.9343714
v -1.4402663 0.038658906 -2.75234
v 0.16594253 -1.5258789E-07 -2.8647034
v 0.38041243 0.19400924 1.7352221
v 2.9708622 0.047148094 2.6375928
v 3.3903606 6.866455E-07 3.1892126
v -2.078897 0.15233788 -2.226471
v -0.031444244 0.040497817 -2.3278186
v 2.0485198 1.9073485E-07 -1.9159484
v 1.5625879 0.16782822 2.2020714
v 3.8500783 0.0475618 2.3621924
v 4.445934 7.629394E-07 2.805299
v 1.6073608 0.042856406 -1.5503259
v 3.5491545 4.5776366E-07 -0.6663806
v 2.3992972 0.2223767 2.098037
v 4.232244 0.047678337 2.0543444
v 4.5339074 7.2479247E-07 2.2450976
v 2.9949749 0.045150567 -0.4828552
v 4.4268537 6.1035155E-07 0.65639645
v 3.805068 0.046798438 0.59724367
v 3.1282017 0.2516943 1.8067725
v 3.618411 0.2317817 1.3636743
v 3.2242339 0.17522945 0.49963987
v 2.438151 0.203753 -0.3445642
v 2.3326 0.6625445 1.2902942
v 1.2743702 0.20706683 -1.1965148
v 1.811475 0.6087875 1.6064123
v -0.025707854 0.17437927 -1.8769397
v 1.3624783 0.46492293 1.8635864
v 0.45660293 0.58510774 1.3544629
v 0.62965703 0.93631345 0.64275753
v -0.6234759 0.61341804 0.70566404
v 0.83533674 0.9726119 0.32742798
v 0.17469695 1.0813445 -0.09646118
v 1.178996 0.94258595 0.10147338
v -1.179117 0.12170738 -2.2865906
v -0.99070907 0.4296465 -1.9779333
v -1.6278169 0.5573452 -0.007996826
v -0.079001 1.047492 0.14920531
v -0.83557296 1.0059075 -0.256864
v -2.4704378 0.41274992 -0.63159543
v -2.3283567 0.5458291 -1.0442957
v -0.44338378 1.0675732 -0.49190062
v -1.9484929 0.5960314 -1.4301891
v -0.25553542 1.0045601 -0.82138306
v -1.4561634 0.55742615 -1.7474841
v 0.41132218 1.0338355 -0.34792602
v -0.094440155 0.570383 -1.5080823
v 0.9730197 0.6225351 -0.88966674
v 1.9969774 0.5946505 -0.19234985
v 2.721983 0.6175725 0.89173824
v 2.8110797 0.47335097 0.4242761
vt 0.17004395 0.85546875
vt 0.17028809 0.85009766
vt 0.1394043 0.85058594
vt 0.14355469 0.8544922
vt 0.17370605 0.8676758
vt 0.12646484 0.8598633
vt 0.19482422 0.86376953
vt 0.19592285 0.8564453
vt 0.13476562 0.86621094
vt 0.1194458 0.8769531
vt 0.22070312 0.875
vt 0.22302246 0.8725586
vt 0.19250488 0.875
vt 0.23864746 0.8989258
vt 0.24584961 0.8911133
vt 0.15820312 0.8701172
vt 0.12927246 0.88183594
vt 0.11804199 0.90478516
vt 0.21142578 0.88671875
vt 0.25097656 0.92333984
vt 0.2602539 0.9223633
vt 0.14990234 0.87939453
vt 0.12927246 0.9042969
vt 0.12548828 0.9350586
vt 0.22729492 0.9033203
vt 0.25073242 0.9433594
vt 0.26049805 0.94873047
vt 0.14440918 0.8911133
vt 0.13916016 0.92578125
vt 0.14953613 0.9604492
vt 0.23754883 0.92089844
vt 0.2454834 0.96191406
vt 0.25634766 0.96972656
vt 0.15771484 0.94921875
vt 0.17919922 0.9770508
vt 0.23620605 0.9350586
vt 0.23852539 0.97314453
vt 0.24475098 0.9838867
vt 0.1829834 0.96533203
vt 0.20678711 0.9819336
vt 0.20739746 0.97265625
vt 0.23144531 0.9482422
vt 0.22351074 0.9589844
vt 0.20471191 0.95996094
vt 0.18579102 0.95214844
vt 0.2166748 0.93603516
vt 0.16687012 0.93896484
vt 0.22131348 0.9277344
vt 0.1517334 0.9223633
vt 0.22644043 0.9199219
vt 0.21533203 0.9091797
vt 0.2010498 0.91503906
vt 0.20239258 0.89746094
vt 0.19641113 0.9189453
vt 0.18884277 0.91259766
vt 0.19348145 0.9243164
vt 0.14294434 0.90527344
vt 0.15393066 0.90625
vt 0.18847656 0.88720703
vt 0.19189453 0.9091797
vt 0.1850586 0.90185547
vt 0.17614746 0.87841797
vt 0.16967773 0.88427734
vt 0.18261719 0.90722656
vt 0.1640625 0.89160156
vt 0.17797852 0.91064453
vt 0.15905762 0.8989258
vt 0.18566895 0.9165039
vt 0.16381836 0.9165039
vt 0.17590332 0.92871094
vt 0.1899414 0.9394531
vt 0.21032715 0.9433594
vt 0.20251465 0.94873047
vn -0.14086914 0.9848633 0.099609375
vn -0.1352539 0.9863281 0.093444824
vn -0.078430176 0.9970703 -0.011665344
vn -0.10076904 0.9951172 0.0044784546
vn -0.31323242 0.93066406 0.1899414
vn -0.03857422 0.9975586 -0.05444336
vn -0.17041016 0.97265625 0.15844727
vn -0.13476562 0.9824219 0.12988281
vn -0.054382324 0.99560547 -0.075683594
vn -0.014343262 0.9975586 -0.06951904
vn -0.14733887 0.96728516 0.20678711
vn -0.117004395 0.97998047 0.16247559
vn -0.34106445 0.8691406 0.35791016
vn -0.09539795 0.97021484 0.22229004
vn -0.058013916 0.9897461 0.12927246
vn -0.1998291 0.9794922 -0.017074585
vn -0.02041626 0.99316406 -0.11553955
vn 0.007522583 0.99658203 -0.080322266
vn -0.28295898 0.8647461 0.41479492
vn -0.025726318 0.984375 0.17370605
vn -0.0146102905 0.9951172 0.09655762
vn -0.15478516 0.96777344 -0.19934082
vn 0.015777588 0.99121094 -0.1315918
vn 0.026931763 0.9970703 -0.07244873
vn -0.21582031 0.86083984 0.46118164
vn 0.02885437 0.9868164 0.16027832
vn 0.01675415 0.9970703 0.07647705
vn -0.07702637 0.9428711 -0.32495117
vn 0.05255127 0.98779297 -0.14746094
vn 0.043945312 0.99658203 -0.06695557
vn -0.07159424 0.90283203 0.42382812
vn 0.073791504 0.9897461 0.12322998
vn 0.04034424 0.9970703 0.06149292
vn 0.09265137 0.984375 -0.15112305
vn 0.06390381 0.99609375 -0.057403564
vn 0.07519531 0.92529297 0.37158203
vn 0.1328125 0.99072266 0.021896362
vn 0.09301758 0.99560547 0.00856781
vn 0.120666504 0.98535156 -0.11956787
vn 0.094177246 0.9951172 -0.03100586
vn 0.17150879 0.9814453 -0.08544922
vn 0.16906738 0.94970703 0.26342773
vn 0.31103516 0.9501953 -0.002910614
vn 0.37646484 0.8959961 -0.23474121
vn 0.32836914 0.8666992 -0.37573242
vn 0.17321777 0.95410156 0.24365234
vn 0.2734375 0.85058594 -0.44873047
vn 0.045166016 0.9189453 0.39233398
vn 0.2019043 0.8540039 -0.47998047
vn -0.12902832 0.82128906 0.55566406
vn -0.22497559 0.8208008 0.5253906
vn -0.072143555 0.93847656 0.33789062
vn -0.32836914 0.7963867 0.5078125
vn 0.107055664 0.98535156 0.13122559
vn 0.04324341 0.99853516 0.028244019
vn 0.23730469 0.9589844 -0.15454102
vn 0.049560547 0.90771484 -0.41674805
vn 0.10974121 0.7910156 -0.6015625
vn -0.41503906 0.8095703 0.41552734
vn -0.19348145 0.91845703 0.34472656
vn -0.28588867 0.9423828 0.17419434
vn -0.47851562 0.8105469 0.33764648
vn -0.36523438 0.93066406 0.010803223
vn -0.12359619 0.9814453 -0.1472168
vn -0.22167969 0.93896484 -0.26342773
vn 0.07354736 0.9223633 -0.37963867
vn -0.07659912 0.89404297 -0.44140625
vn 0.22155762 0.9223633 -0.31713867
vn 0.21899414 0.79589844 -0.5644531
vn 0.31811523 0.8041992 -0.5024414
vn 0.36987305 0.8383789 -0.40063477
vn 0.3239746 0.9458008 -0.027191162
vn 0.43603516 0.8388672 -0.3251953
g rockO004_geo_0
f 3/3/3 2/2/2 1/1/1
f 4/4/4 3/3/3 1/1/1
f 4/4/4 1/1/1 5/5/5
f 6/6/6 3/3/3 4/4/4
f 1/1/1 2/2/2 7/7/7
f 1/1/1 7/7/7 5/5/5
f 2/2/2 8/8/8 7/7/7
f 9/9/9 6/6/6 4/4/4
f 10/10/10 6/6/6 9/9/9
f 7/7/7 8/8/8 11/11/11
f 8/8/8 12/12/12 11/11/11
f 7/7/7 13/13/13 5/5/5
f 7/7/7 11/11/11 13/13/13
f 11/11/11 12/12/12 14/14/14
f 12/12/12 15/15/15 14/14/14
f 16/16/16 4/4/4 5/5/5
f 9/9/9 4/4/4 16/16/16
f 17/17/17 10/10/10 9/9/9
f 18/18/18 10/10/10 17/17/17
f 11/11/11 19/19/19 13/13/13
f 11/11/11 14/14/14 19/19/19
f 14/14/14 15/15/15 20/20/20
f 15/15/15 21/21/21 20/20/20
f 22/22/22 9/9/9 16/16/16
f 17/17/17 9/9/9 22/22/22
f 23/23/23 18/18/18 17/17/17
f 24/24/24 18/18/18 23/23/23
f 14/14/14 25/25/25 19/19/19
f 14/14/14 20/20/20 25/25/25
f 20/20/20 21/21/21 26/26/26
f 21/21/21 27/27/27 26/26/26
f 28/28/28 17/17/17 22/22/22
f 23/23/23 17/17/17 28/28/28
f 29/29/29 24/24/24 23/23/23
f 30/30/30 24/24/24 29/29/29
f 20/20/20 31/31/31 25/25/25
f 20/20/20 26/26/26 31/31/31
f 26/26/26 27/27/27 32/32/32
f 27/27/27 33/33/33 32/32/32
f 34/34/34 30/30/30 29/29/29
f 35/35/35 30/30/30 34/34/34
f 26/26/26 36/36/36 31/31/31
f 26/26/26 32/32/32 36/36/36
f 32/32/32 33/33/33 37/37/37
f 33/33/33 38/38/38 37/37/37
f 39/39/39 35/35/35 34/34/34
f 40/40/40 35/35/35 39/39/39
f 38/38/38 40/40/40 41/41/41
f 37/37/37 38/38/38 41/41/41
f 41/41/41 40/40/40 39/39/39
f 32/32/32 37/37/37 42/42/42
f 32/32/32 42/42/42 36/36/36
f 37/37/37 41/41/41 43/43/43
f 37/37/37 43/43/43 42/42/42
f 41/41/41 39/39/39 44/44/44
f 41/41/41 44/44/44 43/43/43
f 39/39/39 34/34/34 45/45/45
f 39/39/39 45/45/45 44/44/44
f 42/42/42 46/46/46 36/36/36
f 42/42/42 43/43/43 46/46/46
f 34/34/34 47/47/47 45/45/45
f 34/34/34 29/29/29 47/47/47
f 46/46/46 48/48/48 36/36/36
f 36/36/36 48/48/48 31/31/31
f 29/29/29 49/49/49 47/47/47
f 29/29/29 23/23/23 49/49/49
f 48/48/48 50/50/50 31/31/31
f 31/31/31 50/50/50 25/25/25
f 50/50/50 51/51/51 25/25/25
f 19/19/19 25/25/25 51/51/51
f 50/50/50 48/48/48 52/52/52
f 51/51/51 50/50/50 52/52/52
f 53/53/53 19/19/19 51/51/51
f 53/53/53 51/51/51 52/52/52
f 19/19/19 53/53/53 13/13/13
f 48/48/48 46/46/46 54/54/54
f 52/52/52 48/48/48 54/54/54
f 52/52/52 54/54/54 55/55/55
f 54/54/54 46/46/46 56/56/56
f 55/55/55 54/54/54 56/56/56
f 23/23/23 57/57/57 49/49/49
f 57/57/57 23/23/23 28/28/28
f 57/57/57 58/58/58 49/49/49
f 58/58/58 57/57/57 28/28/28
f 53/53/53 59/59/59 13/13/13
f 5/5/5 13/13/13 59/59/59
f 60/60/60 53/53/53 52/52/52
f 60/60/60 52/52/52 55/55/55
f 53/53/53 60/60/60 61/61/61
f 59/59/59 53/53/53 61/61/61
f 61/61/61 60/60/60 55/55/55
f 62/62/62 5/5/5 59/59/59
f 62/62/62 59/59/59 61/61/61
f 62/62/62 63/63/63 5/5/5
f 63/63/63 62/62/62 61/61/61
f 63/63/63 16/16/16 5/5/5
f 63/63/63 61/61/61 64/64/64
f 64/64/64 61/61/61 55/55/55
f 63/63/63 65/65/65 16/16/16
f 65/65/65 63/63/63 64/64/64
f 65/65/65 22/22/22 16/16/16
f 64/64/64 55/55/55 66/66/66
f 65/65/65 64/64/64 66/66/66
f 65/65/65 67/67/67 22/22/22
f 67/67/67 65/65/65 66/66/66
f 67/67/67 28/28/28 22/22/22
f 67/67/67 58/58/58 28/28/28
f 67/67/67 66/66/66 58/58/58
f 55/55/55 68/68/68 66/66/66
f 68/68/68 55/55/55 56/56/56
f 66/66/66 69/69/69 58/58/58
f 66/66/66 68/68/68 69/69/69
f 58/58/58 69/69/69 49/49/49
f 47/47/47 49/49/49 69/69/69
f 68/68/68 70/70/70 69/69/69
f 70/70/70 47/47/47 69/69/69
f 68/68/68 56/56/56 70/70/70
f 47/47/47 70/70/70 45/45/45
f 70/70/70 71/71/71 45/45/45
f 56/56/56 71/71/71 70/70/70
f 45/45/45 71/71/71 44/44/44
f 56/56/56 72/72/72 71/71/71
f 46/46/46 72/72/72 56/56/56
f 43/43/43 72/72/72 46/46/46
f 44/44/44 73/73/73 43/43/43
f 71/71/71 73/73/73 44/44/44
f 73/73/73 72/72/72 43/43/43
f 72/72/72 73/73/73 71/71/71
