g rockF_geo
v 4.863689 0.3798331 -5.0938807
v 3.493631 0.75953114 -3.9243505
v 2.9833312 1.2383894 -4.324287
v 4.69201 0.5994782 -5.4016066
v 6.0195794 4.644314E-08 -6.467948
v 5.680713 4.644314E-08 -7.321942
v 3.8662305 0.8284328 -6.171533
v 4.7092557 4.644314E-08 -8.277489
v 2.5410304 0.85186267 -6.4801974
v 2.2396479 1.5852929 -4.9919567
v 3.3381517 -1.7985629E-07 -8.88671
v 0.8150501 1.389877 -6.0960975
v 1.9659595 -2.9300597E-07 -9.268146
v 0.998808 2.2844574 -3.7826684
v -0.38176385 1.5030111 -5.1285934
v -0.011606358 -2.9300597E-07 -8.279219
v -0.114672765 2.1360872 -2.8454564
v 0.56426334 1.7488855 -2.263136
v -1.6727928 1.4838821 -4.0558896
v -2.269901 -2.9300597E-07 -6.633243
v -2.847069 1.4847673 -2.72197
v -1.1241186 2.3678787 -1.639909
v -3.6962523 1.5022997 -1.0121796
v -3.7541246 -2.9300597E-07 -5.0230055
v -1.8302561 2.5367362 -0.79532415
v -1.9481028 2.323095 -0.1523841
v -4.8145885 -2.9300597E-07 -2.8139489
v -1.9815415 1.7327276 1.0070843
v -3.9147046 1.4259281 0.7584325
v -5.623644 -1.7985629E-07 -0.73167545
v -4.235089 1.3792408 2.070849
v -2.6154015 1.6999639 2.8547838
v -6.3128366 1.5959287E-07 1.3136188
v -4.3784227 0.6984366 3.626218
v -6.971294 -2.9300597E-07 4.328424
v -3.4376307 0.67959297 5.3965564
v -6.1047034 -2.9300597E-07 6.7941413
v -4.590963 -6.670657E-08 8.587846
v -3.6261632 0.49463102 6.628989
v -4.0020676 4.644314E-08 8.987521
v -2.8899927 0.37583786 6.7787757
v -3.3406835 4.644314E-08 8.596406
v 2.9833312 1.2383894 -4.324287
v 2.2396479 1.5852929 -4.9919567
v 3.8662305 0.8284328 -6.171533
v 1.6948628 1.8912481 -3.1588488
v 0.998808 2.2844574 -3.7826684
v 3.493631 0.75953114 -3.9243505
v 0.56426334 1.7488855 -2.263136
v 2.2401886 1.0573089 -2.8646617
v 1.1349878 1.0865567 -1.9475744
v 3.842412 4.644314E-08 -3.696162
v 4.863689 0.3798331 -5.0938807
v 5.037993 4.644314E-08 -4.943794
v 6.0195794 4.644314E-08 -6.467948
v 2.6458776 4.644314E-08 -2.6418762
v 1.5908875 4.644314E-08 -1.708103
v 0.18244028 1.1874524 -0.93931097
v -0.3451171 1.9118725 -1.2471296
v -0.114672765 2.1360872 -2.8454564
v -1.1241186 2.3678787 -1.639909
v 0.8357508 4.644314E-08 -0.5710584
v -1.2048656 1.2217001 0.7038348
v -0.40668938 4.644314E-08 1.508534
v -1.8302561 2.5367362 -0.79532415
v -1.1064526 4.644314E-08 3.2290194
v -1.0514294 2.0550258 -0.9323725
v -1.9481028 2.323095 -0.1523841
v -1.2061473 1.8568532 -0.39032418
v -1.9815415 1.7327276 1.0070843
v -1.8161327 1.2126849 2.7052207
v -2.6154015 1.6999639 2.8547838
v -1.5317991 4.644314E-08 5.356206
v -3.4376307 0.67959297 5.3965564
v -2.4714475 0.5772293 4.9676414
v -2.8899927 0.37583786 6.7787757
v -3.6261632 0.49463102 6.628989
v -2.276671 4.644314E-08 6.91329
v -3.3406835 4.644314E-08 8.596406
vt 0.72558594 0.5136719
vt 0.73876953 0.55859375
vt 0.75439453 0.55810547
vt 0.7402344 0.50927734
vt 0.7207031 0.45947266
vt 0.7416992 0.4501953
vt 0.7763672 0.5102539
vt 0.7832031 0.44921875
vt 0.7944336 0.5214844
vt 0.78564453 0.5595703
vt 0.80126953 0.4802246
vt 0.81103516 0.55029297
vt 0.82128906 0.5058594
vt 0.78759766 0.59716797
vt 0.81884766 0.5830078
vt 0.8413086 0.5517578
vt 0.78808594 0.6254883
vt 0.75927734 0.6274414
vt 0.82177734 0.6176758
vt 0.8520508 0.6113281
vt 0.82128906 0.6538086
vt 0.7866211 0.65625
vt 0.8178711 0.6875
vt 0.8510742 0.6557617
vt 0.78466797 0.6748047
vt 0.78515625 0.6850586
vt 0.8466797 0.6977539
vt 0.78222656 0.70947266
vt 0.81103516 0.72021484
vt 0.8383789 0.73339844
vt 0.7939453 0.7504883
vt 0.77197266 0.7495117
vt 0.8120117 0.7685547
vt 0.78808594 0.77783203
vt 0.79296875 0.8066406
vt 0.75 0.80322266
vt 0.76708984 0.83740234
vt 0.73828125 0.8613281
vt 0.7446289 0.82666016
vt 0.7338867 0.8725586
vt 0.7241211 0.82666016
vt 0.7138672 0.86328125
vt 0.75439453 0.55810547
vt 0.78564453 0.5595703
vt 0.7763672 0.5102539
vt 0.76220703 0.59765625
vt 0.78759766 0.59716797
vt 0.73876953 0.55859375
vt 0.75927734 0.6274414
vt 0.7451172 0.5966797
vt 0.74121094 0.6269531
vt 0.7011719 0.546875
vt 0.72558594 0.5136719
vt 0.6928711 0.5019531
vt 0.7207031 0.45947266
vt 0.7006836 0.58496094
vt 0.69970703 0.62158203
vt 0.7416992 0.6557617
vt 0.76123047 0.65527344
vt 0.78808594 0.6254883
vt 0.7866211 0.65625
vt 0.70214844 0.65722656
vt 0.7548828 0.70410156
vt 0.71484375 0.72314453
vt 0.78466797 0.6748047
vt 0.7138672 0.7548828
vt 0.76660156 0.6694336
vt 0.78515625 0.6850586
vt 0.76416016 0.68066406
vt 0.78222656 0.70947266
vt 0.74853516 0.74609375
vt 0.77197266 0.7495117
vt 0.69873047 0.79296875
vt 0.75 0.80322266
vt 0.73046875 0.7890625
vt 0.7241211 0.82666016
vt 0.7446289 0.82666016
vt 0.7084961 0.82714844
vt 0.7138672 0.86328125
vn 0.57128906 0.7373047 0.36083984
vn 0.6040039 0.6074219 0.515625
vn 0.47998047 0.86816406 0.12780762
vn 0.3840332 0.92285156 -0.020721436
vn 0.42382812 0.9057617 0.012634277
vn 0.32177734 0.9326172 -0.1628418
vn 0.23608398 0.9448242 -0.2277832
vn 0.1842041 0.9453125 -0.26879883
vn 0.14831543 0.9267578 -0.3449707
vn 0.2163086 0.94433594 -0.24804688
vn 0.14123535 0.93847656 -0.31518555
vn -0.08508301 0.90771484 -0.41088867
vn 0.017120361 0.9272461 -0.37426758
vn 0.030227661 0.9892578 -0.1418457
vn -0.25341797 0.88720703 -0.3857422
vn -0.27734375 0.85253906 -0.44311523
vn -0.10180664 0.98779297 -0.11773682
vn 0.41967773 0.80615234 0.41674805
vn -0.33496094 0.8745117 -0.3503418
vn -0.3581543 0.8383789 -0.4104004
vn -0.44140625 0.84277344 -0.30810547
vn -0.14660645 0.9716797 -0.18408203
vn -0.53222656 0.8330078 -0.15185547
vn -0.46704102 0.81347656 -0.3466797
vn -0.25854492 0.9560547 -0.13842773
vn -0.0881958 0.95703125 0.27563477
vn -0.58740234 0.7729492 -0.23950195
vn 0.06768799 0.9838867 0.1665039
vn -0.44360352 0.89453125 -0.05810547
vn -0.5864258 0.79589844 -0.1496582
vn -0.390625 0.9199219 0.03111267
vn -0.01651001 0.9711914 0.23803711
vn -0.46679688 0.88378906 -0.032470703
vn -0.33203125 0.93359375 0.13586426
vn -0.2919922 0.9526367 0.084350586
vn -0.13183594 0.9760742 0.17260742
vn -0.20483398 0.97216797 0.11230469
vn -0.17150879 0.9736328 0.15039062
vn -0.09753418 0.98291016 0.15637207
vn 0.020645142 0.97753906 0.21032715
vn 0.29052734 0.9326172 0.21362305
vn 0.14550781 0.96191406 0.23083496
vn 0.47998047 0.86816406 0.12780762
vn 0.2163086 0.94433594 -0.24804688
vn 0.23608398 0.9448242 -0.2277832
vn 0.45361328 0.83203125 0.32006836
vn 0.030227661 0.9892578 -0.1418457
vn 0.6040039 0.6074219 0.515625
vn 0.41967773 0.80615234 0.41674805
vn 0.59375 0.54052734 0.5961914
vn 0.60498047 0.53466797 0.58984375
vn 0.6279297 0.453125 0.6328125
vn 0.57128906 0.7373047 0.36083984
vn 0.6586914 0.49731445 0.5649414
vn 0.42382812 0.9057617 0.012634277
vn 0.6123047 0.40795898 0.6772461
vn 0.6513672 0.43798828 0.6196289
vn 0.62841797 0.61572266 0.47509766
vn 0.4970703 0.7866211 0.36669922
vn -0.10180664 0.98779297 -0.11773682
vn -0.14660645 0.9716797 -0.18408203
vn 0.66748047 0.5683594 0.4814453
vn 0.65234375 0.6611328 0.37060547
vn 0.7060547 0.61328125 0.3544922
vn -0.25854492 0.9560547 -0.13842773
vn 0.69091797 0.67285156 0.26416016
vn 0.4650879 0.8120117 0.35253906
vn -0.0881958 0.95703125 0.27563477
vn 0.5488281 0.7114258 0.43896484
vn 0.06768799 0.9838867 0.1665039
vn 0.6225586 0.73046875 0.28100586
vn -0.01651001 0.9711914 0.23803711
vn 0.5722656 0.7832031 0.24328613
vn -0.13183594 0.9760742 0.17260742
vn 0.48779297 0.81884766 0.30322266
vn 0.29052734 0.9326172 0.21362305
vn -0.09753418 0.98291016 0.15637207
vn 0.4580078 0.859375 0.22790527
vn 0.14550781 0.96191406 0.23083496
g rockF_geo_0
f 3/3/3 2/2/2 1/1/1
f 4/4/4 3/3/3 1/1/1
f 1/1/1 5/5/5 4/4/4
f 5/5/5 6/6/6 4/4/4
f 4/4/4 7/7/7 3/3/3
f 7/7/7 4/4/4 6/6/6
f 8/8/8 7/7/7 6/6/6
f 7/7/7 8/8/8 9/9/9
f 10/10/10 7/7/7 9/9/9
f 8/8/8 11/11/11 9/9/9
f 12/12/12 10/10/10 9/9/9
f 12/12/12 9/9/9 11/11/11
f 13/13/13 12/12/12 11/11/11
f 14/14/14 10/10/10 12/12/12
f 15/15/15 12/12/12 13/13/13
f 15/15/15 14/14/14 12/12/12
f 16/16/16 15/15/15 13/13/13
f 14/14/14 15/15/15 17/17/17
f 14/14/14 17/17/17 18/18/18
f 19/19/19 15/15/15 16/16/16
f 15/15/15 19/19/19 17/17/17
f 20/20/20 19/19/19 16/16/16
f 19/19/19 21/21/21 17/17/17
f 21/21/21 19/19/19 20/20/20
f 21/21/21 22/22/22 17/17/17
f 22/22/22 21/21/21 23/23/23
f 24/24/24 21/21/21 20/20/20
f 23/23/23 21/21/21 24/24/24
f 25/25/25 22/22/22 23/23/23
f 26/26/26 25/25/25 23/23/23
f 27/27/27 23/23/23 24/24/24
f 28/28/28 26/26/26 23/23/23
f 29/29/29 23/23/23 27/27/27
f 29/29/29 28/28/28 23/23/23
f 30/30/30 29/29/29 27/27/27
f 28/28/28 29/29/29 31/31/31
f 31/31/31 29/29/29 30/30/30
f 32/32/32 28/28/28 31/31/31
f 33/33/33 31/31/31 30/30/30
f 31/31/31 34/34/34 32/32/32
f 34/34/34 31/31/31 33/33/33
f 35/35/35 34/34/34 33/33/33
f 34/34/34 36/36/36 32/32/32
f 34/34/34 35/35/35 36/36/36
f 35/35/35 37/37/37 36/36/36
f 37/37/37 38/38/38 36/36/36
f 38/38/38 39/39/39 36/36/36
f 38/38/38 40/40/40 39/39/39
f 39/39/39 40/40/40 41/41/41
f 40/40/40 42/42/42 41/41/41
f 45/45/45 44/44/44 43/43/43
f 43/43/43 44/44/44 46/46/46
f 44/44/44 47/47/47 46/46/46
f 43/43/43 46/46/46 48/48/48
f 46/46/46 47/47/47 49/49/49
f 46/46/46 50/50/50 48/48/48
f 49/49/49 51/51/51 46/46/46
f 51/51/51 50/50/50 46/46/46
f 48/48/48 50/50/50 52/52/52
f 53/53/53 48/48/48 52/52/52
f 54/54/54 53/53/53 52/52/52
f 54/54/54 55/55/55 53/53/53
f 50/50/50 56/56/56 52/52/52
f 56/56/56 50/50/50 57/57/57
f 50/50/50 51/51/51 57/57/57
f 51/51/51 58/58/58 57/57/57
f 58/58/58 51/51/51 49/49/49
f 59/59/59 58/58/58 49/49/49
f 49/49/49 60/60/60 59/59/59
f 60/60/60 61/61/61 59/59/59
f 58/58/58 62/62/62 57/57/57
f 62/62/62 58/58/58 63/63/63
f 58/58/58 59/59/59 63/63/63
f 64/64/64 62/62/62 63/63/63
f 59/59/59 61/61/61 65/65/65
f 64/64/64 63/63/63 66/66/66
f 67/67/67 59/59/59 65/65/65
f 67/67/67 65/65/65 68/68/68
f 67/67/67 69/69/69 59/59/59
f 69/69/69 67/67/67 68/68/68
f 59/59/59 69/69/69 63/63/63
f 69/69/69 68/68/68 63/63/63
f 68/68/68 70/70/70 63/63/63
f 63/63/63 71/71/71 66/66/66
f 63/63/63 70/70/70 71/71/71
f 70/70/70 72/72/72 71/71/71
f 66/66/66 71/71/71 73/73/73
f 71/71/71 72/72/72 74/74/74
f 71/71/71 75/75/75 73/73/73
f 75/75/75 71/71/71 74/74/74
f 75/75/75 76/76/76 73/73/73
f 76/76/76 75/75/75 74/74/74
f 77/77/77 76/76/76 74/74/74
f 76/76/76 78/78/78 73/73/73
f 76/76/76 79/79/79 78/78/78
