g rockN001_geo
v -0.9196968 0.033981677 -2.2092159
v -0.9399605 -1.1771917E-08 -2.5422797
v -0.22458452 -1.1771917E-08 -2.844761
v -0.3391524 0.03614667 -2.4466882
v -0.88829786 0.18628442 -1.976423
v 0.19919477 -1.1771917E-08 -2.5481262
v -1.3760408 0.034556113 -1.843336
v -1.5019697 -1.1771917E-08 -2.0916262
v 0.009266787 0.036348324 -2.2077615
v 0.5511076 -1.1771917E-08 -2.1241112
v -1.8475007 0.035551425 -1.4199293
v -2.0869918 -1.1771917E-08 -1.5759296
v -1.2374336 0.20934917 -1.6610534
v -2.0252047 0.03446337 -0.7843148
v -2.3009102 -1.1771917E-08 -0.7922702
v -0.49796587 0.21626909 -2.058107
v 0.29741865 0.03564942 -1.8634284
v 0.76593673 -1.1771917E-08 -1.4963356
v -1.5729743 0.21583064 -1.2575724
v -2.0989704 0.0337279 -0.20223951
v -2.392641 -1.1771917E-08 -0.07561925
v -0.17951737 0.23089187 -1.8858047
v 0.4734086 0.03430213 -1.3551564
v 0.6947795 -1.1771917E-08 -0.84935963
v -1.7746906 0.197935 -0.76245457
v -1.8967353 0.03470119 0.22671312
v -2.1436043 -1.1771917E-08 0.4521718
v 0.08202557 0.21801119 -1.6152647
v 0.41518107 0.034886062 -0.8282408
v 0.4138029 -1.1771917E-08 -0.10558263
v -1.8612398 0.16821077 -0.31465802
v -1.6162312 0.03536453 0.5745236
v -1.7997541 -1.1771917E-08 0.8807248
v 0.18529218 0.035206318 -0.22442685
v -0.09871295 -1.1771917E-08 0.5140413
v -1.6935139 0.19552997 0.0076370477
v -1.3120649 0.035561524 0.95315367
v -1.4329902 -1.1771917E-08 1.3563981
v -0.23081987 0.034532674 0.27975908
v -0.69613236 -1.1771917E-08 0.86659974
v -0.71385694 0.033165988 0.5684377
v -1.4440804 0.20883454 0.2898729
v -1.1411457 0.19545701 0.48476657
v -0.7354182 0.16780707 0.34566104
v -0.37706867 0.19737026 0.062594324
v -1.2722492 0.4040665 -0.0060967016
v -0.055688046 0.21528186 -0.36115786
v -1.5099788 0.37424406 -0.21026747
v 0.15743451 0.21045725 -0.8390947
v -1.7079841 0.28695372 -0.38648516
v -1.5586616 0.37757796 -0.72641575
v -1.198719 0.65452844 -0.62414014
v -1.3564693 0.41463953 -1.1303122
v -0.97581863 0.71478873 -0.5162565
v -0.8059883 0.78711903 -0.8058497
v -0.77914745 0.6534198 -0.36656642
v 0.23778729 0.18888201 -1.2682036
v 0.08772259 0.31908825 -1.2050593
v -1.1052998 0.39659256 -1.5024438
v -1.008619 0.72046745 -0.9259739
v -0.8498457 0.6734111 -1.244206
v -0.8778413 0.315325 -1.8128344
v -0.6247176 0.40668288 -1.7463858
v -0.6452864 0.73803216 -1.084422
v -0.35291094 0.4387398 -1.5887369
v -0.4153072 0.6700748 -0.97812545
v -0.10542193 0.4088206 -1.3901777
v -0.6071236 0.71393865 -0.68834305
v -0.05838214 0.39767516 -0.87506825
v -0.2636641 0.41299766 -0.48288694
v -0.51530355 0.37680954 -0.1079138
v -1.0087556 0.37426975 0.14858103
v -0.7464619 0.28636533 0.19015306
vt 0.17285156 0.38598633
vt 0.17602539 0.40039062
vt 0.20898438 0.40405273
vt 0.19934082 0.38891602
vt 0.17126465 0.37646484
vt 0.22277832 0.3869629
vt 0.14990234 0.37670898
vt 0.14758301 0.38867188
vt 0.21057129 0.375
vt 0.23205566 0.36523438
vt 0.12548828 0.36499023
vt 0.117370605 0.37451172
vt 0.15319824 0.36791992
vt 0.11071777 0.3413086
vt 0.09918213 0.3449707
vt 0.18823242 0.37524414
vt 0.21813965 0.35766602
vt 0.23327637 0.33691406
vt 0.13464355 0.35546875
vt 0.10064697 0.31835938
vt 0.08679199 0.31689453
vt 0.19921875 0.3642578
vt 0.21923828 0.3347168
vt 0.22253418 0.3112793
vt 0.12036133 0.33740234
vt 0.103759766 0.29858398
vt 0.09063721 0.29223633
vt 0.20666504 0.35009766
vt 0.21057129 0.31396484
vt 0.20214844 0.2841797
vt 0.111450195 0.3203125
vt 0.11102295 0.28100586
vt 0.09954834 0.2705078
vt 0.19384766 0.29223633
vt 0.17358398 0.26513672
vt 0.11444092 0.30493164
vt 0.11871338 0.26171875
vt 0.10882568 0.24658203
vt 0.17089844 0.27661133
vt 0.14489746 0.2578125
vt 0.14770508 0.2705078
vt 0.12121582 0.29052734
vt 0.13134766 0.2788086
vt 0.14953613 0.27954102
vt 0.16772461 0.28686523
vt 0.13183594 0.3005371
vt 0.18591309 0.30029297
vt 0.124572754 0.31176758
vt 0.20043945 0.3173828
vt 0.11859131 0.32128906
vt 0.12878418 0.3334961
vt 0.14233398 0.32495117
vt 0.14196777 0.34765625
vt 0.15014648 0.3178711
vt 0.16052246 0.32763672
vt 0.15637207 0.30932617
vt 0.2088623 0.33398438
vt 0.20202637 0.33325195
vt 0.15673828 0.35986328
vt 0.15368652 0.33496094
vt 0.1640625 0.3461914
vt 0.1697998 0.3696289
vt 0.17932129 0.36401367
vt 0.17053223 0.3371582
vt 0.18859863 0.35424805
vt 0.17858887 0.33007812
vt 0.19628906 0.34301758
vt 0.16723633 0.3203125
vt 0.1920166 0.3215332
vt 0.17883301 0.30786133
vt 0.1640625 0.2956543
vt 0.14074707 0.29101562
vt 0.15100098 0.2861328
vn -0.14489746 0.95410156 -0.26245117
vn -0.05340576 0.99365234 -0.099975586
vn 0.0074310303 0.99609375 -0.087890625
vn 0.014968872 0.98046875 -0.19604492
vn -0.2854004 0.81152344 -0.50927734
vn 0.062469482 0.99560547 -0.07055664
vn -0.22680664 0.9399414 -0.2548828
vn -0.080566406 0.9921875 -0.09674072
vn 0.16174316 0.96777344 -0.19396973
vn 0.0871582 0.9951172 -0.050872803
vn -0.25219727 0.9560547 -0.15100098
vn -0.10424805 0.9926758 -0.064697266
vn -0.42382812 0.79296875 -0.43774414
vn -0.30444336 0.9501953 -0.0647583
vn -0.12298584 0.9921875 -0.023666382
vn 0.01675415 0.8823242 -0.47070312
vn 0.22888184 0.96435547 -0.13330078
vn 0.10949707 0.99365234 -0.018218994
vn -0.49389648 0.8198242 -0.28930664
vn -0.24768066 0.9682617 0.03604126
vn -0.107421875 0.9941406 0.01966858
vn 0.29418945 0.87841797 -0.3762207
vn 0.28222656 0.9589844 -0.033599854
vn 0.12524414 0.9916992 0.027923584
vn -0.55126953 0.8232422 -0.13366699
vn -0.2253418 0.96435547 0.13964844
vn -0.088378906 0.9946289 0.05596924
vn 0.45483398 0.85058594 -0.2644043
vn 0.31762695 0.9448242 0.0826416
vn 0.116882324 0.99072266 0.06732178
vn -0.52490234 0.8491211 0.056396484
vn -0.1899414 0.96533203 0.17858887
vn -0.081970215 0.9946289 0.064453125
vn 0.2849121 0.9433594 0.16906738
vn 0.08239746 0.9916992 0.09906006
vn -0.43188477 0.86279297 0.26220703
vn -0.010025024 0.98779297 0.15673828
vn -0.01133728 0.99658203 0.084472656
vn 0.20703125 0.9501953 0.23205566
vn 0.06964111 0.9916992 0.10797119
vn 0.16088867 0.94970703 0.26879883
vn -0.30615234 0.8911133 0.33520508
vn -3.2365322E-05 0.9135742 0.40722656
vn 0.2692871 0.8364258 0.47680664
vn 0.39868164 0.8154297 0.41992188
vn -0.27197266 0.88183594 0.38500977
vn 0.50390625 0.8076172 0.30639648
vn -0.47216797 0.85253906 0.22460938
vn 0.5722656 0.8017578 0.17211914
vn -0.5839844 0.8100586 0.055908203
vn -0.58740234 0.8017578 -0.109069824
vn -0.48754883 0.8720703 0.042663574
vn -0.5410156 0.7871094 -0.29638672
vn -0.19250488 0.93310547 0.30322266
vn -0.007205963 0.9995117 0.02999878
vn 0.19885254 0.87841797 0.4345703
vn 0.5649414 0.8232422 -0.053466797
vn 0.5996094 0.7993164 -0.039093018
vn -0.41967773 0.7915039 -0.44433594
vn -0.43554688 0.87158203 -0.22424316
vn -0.21228027 0.88427734 -0.41577148
vn -0.29614258 0.79296875 -0.53271484
vn -0.025604248 0.86621094 -0.49926758
vn 0.18237305 0.9428711 -0.27856445
vn 0.26611328 0.87939453 -0.39453125
vn 0.4741211 0.8803711 -0.012718201
vn 0.4724121 0.85302734 -0.22253418
vn 0.41308594 0.8696289 0.2705078
vn 0.5830078 0.7988281 0.14733887
vn 0.5214844 0.7871094 0.3293457
vn 0.39794922 0.79541016 0.4567871
vn 0.031341553 0.87060547 0.49145508
vn 0.28393555 0.7988281 0.52978516
g rockN001_geo_0
f 3/3/3 2/2/2 1/1/1
f 4/4/4 3/3/3 1/1/1
f 4/4/4 1/1/1 5/5/5
f 6/6/6 3/3/3 4/4/4
f 1/1/1 2/2/2 7/7/7
f 1/1/1 7/7/7 5/5/5
f 2/2/2 8/8/8 7/7/7
f 9/9/9 6/6/6 4/4/4
f 10/10/10 6/6/6 9/9/9
f 7/7/7 8/8/8 11/11/11
f 8/8/8 12/12/12 11/11/11
f 7/7/7 13/13/13 5/5/5
f 7/7/7 11/11/11 13/13/13
f 11/11/11 12/12/12 14/14/14
f 12/12/12 15/15/15 14/14/14
f 16/16/16 4/4/4 5/5/5
f 9/9/9 4/4/4 16/16/16
f 17/17/17 10/10/10 9/9/9
f 18/18/18 10/10/10 17/17/17
f 11/11/11 19/19/19 13/13/13
f 11/11/11 14/14/14 19/19/19
f 14/14/14 15/15/15 20/20/20
f 15/15/15 21/21/21 20/20/20
f 22/22/22 9/9/9 16/16/16
f 17/17/17 9/9/9 22/22/22
f 23/23/23 18/18/18 17/17/17
f 24/24/24 18/18/18 23/23/23
f 14/14/14 25/25/25 19/19/19
f 14/14/14 20/20/20 25/25/25
f 20/20/20 21/21/21 26/26/26
f 21/21/21 27/27/27 26/26/26
f 28/28/28 17/17/17 22/22/22
f 23/23/23 17/17/17 28/28/28
f 29/29/29 24/24/24 23/23/23
f 30/30/30 24/24/24 29/29/29
f 20/20/20 31/31/31 25/25/25
f 20/20/20 26/26/26 31/31/31
f 26/26/26 27/27/27 32/32/32
f 27/27/27 33/33/33 32/32/32
f 34/34/34 30/30/30 29/29/29
f 35/35/35 30/30/30 34/34/34
f 26/26/26 36/36/36 31/31/31
f 26/26/26 32/32/32 36/36/36
f 32/32/32 33/33/33 37/37/37
f 33/33/33 38/38/38 37/37/37
f 39/39/39 35/35/35 34/34/34
f 40/40/40 35/35/35 39/39/39
f 38/38/38 40/40/40 41/41/41
f 37/37/37 38/38/38 41/41/41
f 41/41/41 40/40/40 39/39/39
f 32/32/32 37/37/37 42/42/42
f 32/32/32 42/42/42 36/36/36
f 37/37/37 41/41/41 43/43/43
f 37/37/37 43/43/43 42/42/42
f 41/41/41 39/39/39 44/44/44
f 41/41/41 44/44/44 43/43/43
f 39/39/39 34/34/34 45/45/45
f 39/39/39 45/45/45 44/44/44
f 42/42/42 46/46/46 36/36/36
f 42/42/42 43/43/43 46/46/46
f 34/34/34 47/47/47 45/45/45
f 34/34/34 29/29/29 47/47/47
f 46/46/46 48/48/48 36/36/36
f 36/36/36 48/48/48 31/31/31
f 29/29/29 49/49/49 47/47/47
f 29/29/29 23/23/23 49/49/49
f 48/48/48 50/50/50 31/31/31
f 31/31/31 50/50/50 25/25/25
f 50/50/50 51/51/51 25/25/25
f 19/19/19 25/25/25 51/51/51
f 50/50/50 48/48/48 52/52/52
f 51/51/51 50/50/50 52/52/52
f 53/53/53 19/19/19 51/51/51
f 53/53/53 51/51/51 52/52/52
f 19/19/19 53/53/53 13/13/13
f 48/48/48 46/46/46 54/54/54
f 52/52/52 48/48/48 54/54/54
f 52/52/52 54/54/54 55/55/55
f 54/54/54 46/46/46 56/56/56
f 55/55/55 54/54/54 56/56/56
f 23/23/23 57/57/57 49/49/49
f 57/57/57 23/23/23 28/28/28
f 57/57/57 58/58/58 49/49/49
f 58/58/58 57/57/57 28/28/28
f 53/53/53 59/59/59 13/13/13
f 5/5/5 13/13/13 59/59/59
f 60/60/60 53/53/53 52/52/52
f 60/60/60 52/52/52 55/55/55
f 53/53/53 60/60/60 61/61/61
f 59/59/59 53/53/53 61/61/61
f 61/61/61 60/60/60 55/55/55
f 62/62/62 5/5/5 59/59/59
f 62/62/62 59/59/59 61/61/61
f 62/62/62 63/63/63 5/5/5
f 63/63/63 62/62/62 61/61/61
f 63/63/63 16/16/16 5/5/5
f 63/63/63 61/61/61 64/64/64
f 64/64/64 61/61/61 55/55/55
f 63/63/63 65/65/65 16/16/16
f 65/65/65 63/63/63 64/64/64
f 65/65/65 22/22/22 16/16/16
f 64/64/64 55/55/55 66/66/66
f 65/65/65 64/64/64 66/66/66
f 65/65/65 67/67/67 22/22/22
f 67/67/67 65/65/65 66/66/66
f 67/67/67 28/28/28 22/22/22
f 67/67/67 58/58/58 28/28/28
f 67/67/67 66/66/66 58/58/58
f 55/55/55 68/68/68 66/66/66
f 68/68/68 55/55/55 56/56/56
f 66/66/66 69/69/69 58/58/58
f 66/66/66 68/68/68 69/69/69
f 58/58/58 69/69/69 49/49/49
f 47/47/47 49/49/49 69/69/69
f 68/68/68 70/70/70 69/69/69
f 70/70/70 47/47/47 69/69/69
f 68/68/68 56/56/56 70/70/70
f 47/47/47 70/70/70 45/45/45
f 70/70/70 71/71/71 45/45/45
f 56/56/56 71/71/71 70/70/70
f 45/45/45 71/71/71 44/44/44
f 56/56/56 72/72/72 71/71/71
f 46/46/46 72/72/72 56/56/56
f 43/43/43 72/72/72 46/46/46
f 44/44/44 73/73/73 43/43/43
f 71/71/71 73/73/73 44/44/44
f 73/73/73 72/72/72 43/43/43
f 72/72/72 73/73/73 71/71/71
