g rockFPlane004_geo
v -3.394607 2.2363036 2.5498204
v -3.306824 2.826671 1.2273815
v -3.1573074 3.0403118 0.48946163
v -2.401028 2.8714545 -0.50548464
v -1.7462916 -9.835941E-07 4.0433903
v -3.6428957 2.20354 4.8330946
v -1.5888466E-07 8.227109E-09 -5.2319017E-08
v -1.3199928 2.6396632 -1.9257263
v -0.14576432 2.7880335 -3.0451074
v -1.6338136 -8.310062E-07 7.381586
v -3.4605105 0.9155241 7.813944
v 2.091113 9.2375444E-07 -2.4627478
v 1.1704222 2.0888689 -4.480353
v -3.5389261 0.77424383 9.235037
v -2.284668 -3.882764E-06 9.218067
v -2.9057083 -6.629346E-06 10.914238
v -3.8234107 -1.02914555E-05 12.442734
v 2.8769429 1.3320088 -5.899657
v 4.0098495 3.8969682E-07 -4.555392
v 5.136782 -5.258305E-07 -6.2855625
v 5.2796054 -2.9672367E-06 -7.456871
vt 0.78222656 0.70947266
vt 0.79248047 0.6850586
vt 0.7919922 0.6748047
vt 0.7866211 0.65625
vt 0.71435547 0.73876953
vt 0.77197266 0.7495117
vt 0.7006836 0.63964844
vt 0.78808594 0.6254883
vt 0.78759766 0.59716797
vt 0.69873047 0.79296875
vt 0.75 0.80322266
vt 0.7011719 0.56591797
vt 0.78564453 0.5595703
vt 0.7446289 0.82666016
vt 0.7084961 0.82714844
vt 0.7138672 0.86328125
vt 0.7338867 0.8725586
vt 0.7763672 0.5102539
vt 0.6928711 0.5019531
vt 0.7207031 0.45947266
vt 0.7416992 0.4501953
vn 0.6904297 0.6611328 0.29370117
vn 0.6254883 0.69970703 0.3449707
vn 0.6254883 0.69970703 0.3449707
vn 0.6748047 0.65771484 0.3347168
vn 0.68359375 0.69189453 0.23327637
vn 0.6904297 0.71484375 0.113586426
vn 0.6401367 0.6503906 0.40893555
vn 0.5913086 0.6245117 0.5102539
vn 0.5913086 0.6254883 0.50878906
vn 0.6328125 0.76416016 0.12536621
vn 0.61572266 0.77734375 0.12841797
vn 0.57373047 0.6694336 0.47216797
vn 0.5996094 0.7011719 0.38598633
vn 0.47851562 0.8588867 0.18310547
vn 0.48120117 0.8588867 0.1763916
vn 0.46313477 0.85839844 0.22106934
vn 0.46313477 0.85839844 0.22106934
vn 0.54345703 0.7583008 0.36010742
vn 0.54248047 0.76123047 0.3544922
vn 0.5229492 0.8208008 0.22888184
vn 0.5229492 0.8208008 0.22888184
g rockFPlane004_geo_0
f 3/3/3 2/2/2 1/1/1
f 4/4/4 3/3/3 1/1/1
f 4/4/4 1/1/1 5/5/5
f 1/1/1 6/6/6 5/5/5
f 7/7/7 4/4/4 5/5/5
f 8/8/8 4/4/4 7/7/7
f 9/9/9 8/8/8 7/7/7
f 5/5/5 6/6/6 10/10/10
f 6/6/6 11/11/11 10/10/10
f 12/12/12 9/9/9 7/7/7
f 13/13/13 9/9/9 12/12/12
f 10/10/10 11/11/11 14/14/14
f 15/15/15 10/10/10 14/14/14
f 15/15/15 14/14/14 16/16/16
f 14/14/14 17/17/17 16/16/16
f 18/18/18 13/13/13 12/12/12
f 19/19/19 18/18/18 12/12/12
f 18/18/18 19/19/19 20/20/20
f 21/21/21 18/18/18 20/20/20
