g rockFPlane002_geo
v -3.2465875 2.2363036 2.1059246
v -3.2131474 2.8266711 0.9464556
v -3.095301 3.0403118 0.30351618
v -2.3891633 2.8714545 -0.5410688
v -1.5603229 -9.835941E-07 3.4856884
v -3.3997514 2.20354 4.103931
v -6.0015367E-07 8.227109E-09 1.76939E-06
v -1.3797174 2.6396632 -1.7466155
v -0.26623595 2.7880335 -2.6838286
v -1.3151447 -8.310062E-07 6.425933
v -3.099969 0.9155241 6.732723
v 1.9640667 9.2375444E-07 -2.081751
v 0.97460383 2.0888689 -3.893117
v -3.1202006 0.7742438 7.9793286
v -1.8834405 -3.882764E-06 8.014831
v -2.427962 -6.629346E-06 9.481532
v -3.2719097 -1.02914555E-05 10.788847
v 2.6011858 1.3320088 -5.072692
v 3.7729485 3.8969682E-07 -3.8449528
v 4.8152127 -5.258305E-07 -5.321219
v 4.9090323 -2.9672367E-06 -6.3455634
vt 0.78222656 0.70947266
vt 0.79248047 0.6850586
vt 0.7919922 0.6748047
vt 0.7866211 0.65625
vt 0.71435547 0.73876953
vt 0.77197266 0.7495117
vt 0.7006836 0.63964844
vt 0.78808594 0.6254883
vt 0.78759766 0.59716797
vt 0.69873047 0.79296875
vt 0.75 0.80322266
vt 0.7011719 0.56591797
vt 0.78564453 0.5595703
vt 0.7446289 0.82666016
vt 0.7084961 0.82714844
vt 0.7138672 0.86328125
vt 0.7338867 0.8725586
vt 0.7763672 0.5102539
vt 0.6928711 0.5019531
vt 0.7207031 0.45947266
vt 0.7416992 0.4501953
vn 0.6875 0.66064453 0.3017578
vn 0.6176758 0.6977539 0.3630371
vn 0.6176758 0.6977539 0.3630371
vn 0.66796875 0.6567383 0.34936523
vn 0.6816406 0.6928711 0.23474121
vn 0.6972656 0.70996094 0.09613037
vn 0.62597656 0.6459961 0.43701172
vn 0.5708008 0.61572266 0.54296875
vn 0.56689453 0.61621094 0.5463867
vn 0.6333008 0.765625 0.11407471
vn 0.6230469 0.7734375 0.11657715
vn 0.5522461 0.6640625 0.50390625
vn 0.59375 0.69433594 0.40649414
vn 0.47827148 0.8588867 0.1842041
vn 0.47998047 0.8588867 0.17944336
vn 0.4597168 0.8574219 0.23010254
vn 0.4597168 0.8574219 0.23010254
vn 0.53271484 0.75146484 0.38964844
vn 0.5317383 0.7607422 0.3720703
vn 0.52001953 0.8208008 0.23632812
vn 0.52001953 0.8208008 0.23632812
g rockFPlane002_geo_0
f 3/3/3 2/2/2 1/1/1
f 4/4/4 3/3/3 1/1/1
f 4/4/4 1/1/1 5/5/5
f 1/1/1 6/6/6 5/5/5
f 7/7/7 4/4/4 5/5/5
f 8/8/8 4/4/4 7/7/7
f 9/9/9 8/8/8 7/7/7
f 5/5/5 6/6/6 10/10/10
f 6/6/6 11/11/11 10/10/10
f 12/12/12 9/9/9 7/7/7
f 13/13/13 9/9/9 12/12/12
f 10/10/10 11/11/11 14/14/14
f 15/15/15 10/10/10 14/14/14
f 15/15/15 14/14/14 16/16/16
f 14/14/14 17/17/17 16/16/16
f 18/18/18 13/13/13 12/12/12
f 19/19/19 18/18/18 12/12/12
f 18/18/18 19/19/19 20/20/20
f 21/21/21 18/18/18 20/20/20
