g rockF003_geo
v -2.4744291 0.44862083 5.7514734
v -3.1518598 -1.7166137E-06 9.163673
v -4.410361 -1.5258788E-06 7.488447
v -5.2798233 -1.1444091E-06 5.0213976
v -2.536719 0.27695557 7.04251
v -2.6867816 -1.7547607E-06 9.505871
v -1.9598912 0.19319549 7.1183305
v -2.2059097 -1.6021728E-06 9.030968
v -1.4771574 -1.1825562E-06 7.192228
v -0.9846153 -8.392334E-07 5.518015
v -1.7496696 0.39325023 5.210493
v -1.3685662 0.9534326 2.8207872
v -0.7741771 -4.196167E-07 3.2910671
v -0.87010235 0.9979876 0.76703733
v -0.19234054 -1.9073485E-07 1.5158383
v 0.84659684 7.6293944E-08 -0.6582178
v -3.3474908 0.4978318 4.012572
v -5.0890913 -4.5776366E-07 1.7894784
v -2.0236735 1.3251705 3.037267
v -3.378305 1.0746394 2.376368
v -4.5932636 -1.9073485E-07 -0.34557313
v -1.5197868 1.3939766 1.1292322
v -3.1394463 1.1383911 1.0261072
v -2.9894805 1.2323439 -0.7762915
v -3.9732597 0 -2.5156078
v -3.1467474 3.0517577E-07 -4.833261
v 0.28731155 1.0076821 -0.98282224
v -0.1647081 1.5967822 -1.2555798
v 1.4816194 2.2888183E-07 -1.8510132
v -1.5056621 1.8899777 -0.039197996
v -2.312548 1.2556258 -2.5660467
v -1.9347923 5.340576E-07 -6.5698833
v -0.88313645 1.527389 -0.33257568
v -0.7594633 1.6996859 -0.8890381
v -1.41572 2.0775628 -0.6950934
v -0.8316722 1.9676614 -1.5963532
v -1.3479161 1.288255 -3.9972785
v -0.04158981 8.010864E-07 -8.38533
v 0.007456207 1.8148278 -2.88096
v -0.26947066 1.3338422 -5.1686587
v 1.6524323 9.918213E-07 -9.505871
v 0.5966896 1.4919696 -2.3402777
v 0.73869336 1.2660246 -6.223731
v 2.869289 1.0299682E-06 -9.196541
v 0.9457814 1.9684247 -3.8994756
v 1.0888032 0.9485649 -2.061203
v 2.229001 0.8314033 -6.7172294
v 4.092722 1.0299682E-06 -8.6558695
v 1.5542371 1.6368105 -3.3163147
v 2.0274458 0.9468327 -3.0556035
v 2.3794055 3.4332274E-07 -2.857763
v 3.4046953 5.340576E-07 -3.991535
v 1.9961586 1.422025 -5.197173
v 3.3922925 0.8159835 -6.4837213
v 4.9685087 9.918213E-07 -7.744732
v 3.0994692 0.7237236 -4.1995087
v 2.6516337 1.1262091 -4.570451
v 4.126496 0.6168682 -5.756308
v 5.2798233 8.7738033E-07 -6.9035234
v 4.2804594 0.42842937 -5.4568024
v 4.434653 7.2479247E-07 -5.316054
vt 0.75 0.80322266
vt 0.73828125 0.8613281
vt 0.76708984 0.83740234
vt 0.79296875 0.8066406
vt 0.7446289 0.82666016
vt 0.7338867 0.8725586
vt 0.7241211 0.82666016
vt 0.7138672 0.86328125
vt 0.7084961 0.82714844
vt 0.69873047 0.79296875
vt 0.73046875 0.7890625
vt 0.74853516 0.74609375
vt 0.7138672 0.7548828
vt 0.7548828 0.70410156
vt 0.71484375 0.72314453
vt 0.70214844 0.65722656
vt 0.78808594 0.77783203
vt 0.8120117 0.7685547
vt 0.77197266 0.7495117
vt 0.7939453 0.7504883
vt 0.8383789 0.73339844
vt 0.78222656 0.70947266
vt 0.81103516 0.72021484
vt 0.8178711 0.6875
vt 0.8466797 0.6977539
vt 0.8510742 0.6557617
vt 0.7416992 0.6557617
vt 0.76123047 0.65527344
vt 0.69970703 0.62158203
vt 0.78515625 0.6850586
vt 0.82128906 0.6538086
vt 0.8520508 0.6113281
vt 0.76416016 0.68066406
vt 0.76660156 0.6694336
vt 0.78466797 0.6748047
vt 0.7866211 0.65625
vt 0.82177734 0.6176758
vt 0.8413086 0.5517578
vt 0.78808594 0.6254883
vt 0.81884766 0.5830078
vt 0.82128906 0.5058594
vt 0.75927734 0.6274414
vt 0.81103516 0.55029297
vt 0.80126953 0.4802246
vt 0.78759766 0.59716797
vt 0.74121094 0.6269531
vt 0.7944336 0.5214844
vt 0.7832031 0.44921875
vt 0.76220703 0.59765625
vt 0.7451172 0.5966797
vt 0.7006836 0.58496094
vt 0.7011719 0.546875
vt 0.78564453 0.5595703
vt 0.7763672 0.5102539
vt 0.7416992 0.4501953
vt 0.73876953 0.55859375
vt 0.75439453 0.55810547
vt 0.7402344 0.50927734
vt 0.7207031 0.45947266
vt 0.72558594 0.5136719
vt 0.6928711 0.5019531
vn -0.09967041 0.98583984 0.13647461
vn -0.10858154 0.98828125 0.1060791
vn -0.15307617 0.9838867 0.09466553
vn -0.25341797 0.9633789 0.08984375
vn -0.050689697 0.9926758 0.11090088
vn 0.03817749 0.9926758 0.113220215
vn 0.25 0.95996094 0.12658691
vn 0.13293457 0.9838867 0.11810303
vn 0.38012695 0.91552734 0.13012695
vn 0.5415039 0.8261719 0.15551758
vn 0.4909668 0.8432617 0.21972656
vn 0.6279297 0.7475586 0.21728516
vn 0.69091797 0.69628906 0.19360352
vn 0.6665039 0.6748047 0.3161621
vn 0.72216797 0.6274414 0.29174805
vn 0.70410156 0.5805664 0.40893555
vn -0.31567383 0.9379883 0.14379883
vn -0.45922852 0.8881836 0.0022697449
vn -0.017730713 0.9770508 0.2133789
vn -0.37597656 0.9248047 0.05606079
vn -0.5913086 0.7998047 -0.10046387
vn 0.059783936 0.9868164 0.14880371
vn -0.4375 0.8989258 -0.024841309
vn -0.53759766 0.83691406 -0.10144043
vn -0.60253906 0.77685547 -0.18225098
vn -0.49560547 0.82177734 -0.28076172
vn 0.66064453 0.63134766 0.40600586
vn 0.50683594 0.8027344 0.31420898
vn 0.7133789 0.4453125 0.5410156
vn -0.06781006 0.96777344 0.24328613
vn -0.46899414 0.8515625 -0.23352051
vn -0.3996582 0.8486328 -0.34716797
vn 0.56396484 0.7368164 0.37329102
vn 0.46728516 0.83154297 0.30004883
vn -0.26049805 0.96191406 -0.08306885
vn -0.16235352 0.9790039 -0.12438965
vn -0.3725586 0.8847656 -0.27929688
vn -0.32470703 0.86279297 -0.38793945
vn -0.11798096 0.9902344 -0.072509766
vn -0.2915039 0.89990234 -0.32373047
vn -0.018630981 0.9375 -0.3474121
vn 0.43432617 0.82714844 0.35668945
vn -0.1295166 0.92333984 -0.36108398
vn 0.11981201 0.94433594 -0.30664062
vn 0.009895325 0.9946289 -0.10089111
vn 0.65625 0.55126953 0.5151367
vn 0.12225342 0.9404297 -0.31713867
vn 0.17895508 0.9458008 -0.27124023
vn 0.45263672 0.84521484 0.2841797
vn 0.64404297 0.55126953 0.53027344
vn 0.68310547 0.40771484 0.60595703
vn 0.6958008 0.42993164 0.5751953
vn 0.18383789 0.9633789 -0.1953125
vn 0.22814941 0.9482422 -0.2199707
vn 0.33813477 0.9243164 -0.1772461
vn 0.64941406 0.60253906 0.4638672
vn 0.46679688 0.8769531 0.11260986
vn 0.39013672 0.9199219 -0.0357666
vn 0.46801758 0.88378906 -0.0118255615
vn 0.62353516 0.7089844 0.32958984
vn 0.73046875 0.44335938 0.51953125
g rockF003_geo_0
f 3/3/3 2/2/2 1/1/1
f 4/4/4 3/3/3 1/1/1
f 2/2/2 5/5/5 1/1/1
f 2/2/2 6/6/6 5/5/5
f 5/5/5 6/6/6 7/7/7
f 5/5/5 7/7/7 1/1/1
f 6/6/6 8/8/8 7/7/7
f 7/7/7 8/8/8 9/9/9
f 7/7/7 9/9/9 10/10/10
f 11/11/11 7/7/7 10/10/10
f 7/7/7 11/11/11 1/1/1
f 12/12/12 11/11/11 10/10/10
f 11/11/11 12/12/12 1/1/1
f 13/13/13 12/12/12 10/10/10
f 14/14/14 12/12/12 13/13/13
f 15/15/15 14/14/14 13/13/13
f 15/15/15 16/16/16 14/14/14
f 17/17/17 4/4/4 1/1/1
f 4/4/4 17/17/17 18/18/18
f 12/12/12 19/19/19 1/1/1
f 17/17/17 1/1/1 19/19/19
f 17/17/17 20/20/20 18/18/18
f 20/20/20 17/17/17 19/19/19
f 18/18/18 20/20/20 21/21/21
f 22/22/22 19/19/19 12/12/12
f 19/19/19 22/22/22 20/20/20
f 14/14/14 22/22/22 12/12/12
f 20/20/20 23/23/23 21/21/21
f 22/22/22 23/23/23 20/20/20
f 23/23/23 22/22/22 24/24/24
f 21/21/21 23/23/23 25/25/25
f 23/23/23 24/24/24 25/25/25
f 25/25/25 24/24/24 26/26/26
f 16/16/16 27/27/27 14/14/14
f 27/27/27 28/28/28 14/14/14
f 27/27/27 16/16/16 29/29/29
f 30/30/30 22/22/22 14/14/14
f 22/22/22 30/30/30 24/24/24
f 24/24/24 31/31/31 26/26/26
f 26/26/26 31/31/31 32/32/32
f 28/28/28 33/33/33 14/14/14
f 33/33/33 30/30/30 14/14/14
f 33/33/33 34/34/34 30/30/30
f 34/34/34 33/33/33 28/28/28
f 34/34/34 35/35/35 30/30/30
f 30/30/30 35/35/35 24/24/24
f 34/34/34 28/28/28 35/35/35
f 35/35/35 36/36/36 24/24/24
f 36/36/36 31/31/31 24/24/24
f 28/28/28 36/36/36 35/35/35
f 31/31/31 37/37/37 32/32/32
f 32/32/32 37/37/37 38/38/38
f 31/31/31 36/36/36 39/39/39
f 39/39/39 36/36/36 28/28/28
f 37/37/37 31/31/31 39/39/39
f 37/37/37 40/40/40 38/38/38
f 40/40/40 37/37/37 39/39/39
f 38/38/38 40/40/40 41/41/41
f 42/42/42 39/39/39 28/28/28
f 28/28/28 27/27/27 42/42/42
f 40/40/40 43/43/43 41/41/41
f 41/41/41 43/43/43 44/44/44
f 45/45/45 40/40/40 39/39/39
f 45/45/45 39/39/39 42/42/42
f 40/40/40 45/45/45 43/43/43
f 27/27/27 46/46/46 42/42/42
f 46/46/46 27/27/27 29/29/29
f 43/43/43 47/47/47 44/44/44
f 48/48/48 44/44/44 47/47/47
f 49/49/49 45/45/45 42/42/42
f 42/42/42 46/46/46 49/49/49
f 50/50/50 46/46/46 29/29/29
f 46/46/46 50/50/50 49/49/49
f 51/51/51 50/50/50 29/29/29
f 50/50/50 51/51/51 52/52/52
f 45/45/45 53/53/53 43/43/43
f 43/43/43 53/53/53 47/47/47
f 53/53/53 45/45/45 49/49/49
f 54/54/54 48/48/48 47/47/47
f 53/53/53 54/54/54 47/47/47
f 48/48/48 54/54/54 55/55/55
f 56/56/56 50/50/50 52/52/52
f 49/49/49 50/50/50 56/56/56
f 57/57/57 53/53/53 49/49/49
f 54/54/54 53/53/53 57/57/57
f 57/57/57 49/49/49 56/56/56
f 54/54/54 58/58/58 55/55/55
f 58/58/58 54/54/54 57/57/57
f 59/59/59 55/55/55 58/58/58
f 60/60/60 56/56/56 52/52/52
f 57/57/57 56/56/56 60/60/60
f 58/58/58 57/57/57 60/60/60
f 60/60/60 59/59/59 58/58/58
f 61/61/61 60/60/60 52/52/52
f 61/61/61 59/59/59 60/60/60
