g rockK005_geo
v 0.13482116 0.013206844 -0.6041641
v 0.15722229 1.335144E-07 -0.7041501
v 0.34947816 1.335144E-07 -0.5574661
v 0.29905945 0.012648448 -0.47805327
v 0.49021545 5.7220458E-08 -0.3193405
v -0.055202026 0.013352413 -0.623865
v -0.03157898 0.051253337 -0.48459136
v -0.06500671 1.335144E-07 -0.7279147
v -0.23608825 0.013027477 -0.5536386
v -0.2760968 1.335144E-07 -0.6463223
v 0.4197882 0.011686764 -0.27367583
v 0.56341004 -1.9073486E-08 -0.041483458
v -0.38935485 0.012336407 -0.41671112
v -0.3033148 0.043658197 -0.31546476
v -0.45482725 5.7220458E-08 -0.48669037
v -0.47837707 0.0113381 -0.2207022
v -0.558161 -1.9073486E-08 -0.2573813
v -0.4826312 0.010235119 0.017887268
v -0.56341004 -1.9073486E-08 0.021366881
v -0.1774469 0.050765436 -0.42282012
v -0.123482056 0.089280605 -0.30186614
v 0.48293883 0.010544872 -0.035234068
v 0.54766417 -1.9073486E-08 0.2534787
v -0.38313293 0.033088207 -0.17620452
v -0.41372007 0.0091070365 0.25686494
v -0.48282775 -9.5367426E-08 0.2999948
v 0.47019225 0.009306316 0.21719512
v 0.43549377 -1.7166137E-07 0.50311184
v -0.37570494 0.03228361 0.00325531
v -0.301474 0.008092708 0.4692355
v -0.35189635 -9.5367426E-08 0.5476431
v 0.37377015 0.008345013 0.43032378
v 0.25978333 -1.7166137E-07 0.6516458
v -0.31921813 0.0288101 0.1959317
v -0.14136657 0.007429485 0.6027292
v -0.1646173 -1.7166137E-07 0.70301723
v -0.22880065 0.024218578 0.36743927
v -0.23078185 0.063003294 0.13872711
v -0.27944395 0.06522947 -0.015573425
v 0.04324402 0.007395992 0.62346953
v 0.050761107 -1.7166137E-07 0.7279147
v 0.2227655 0.007747936 0.55785614
v -0.11486633 0.018622112 0.47925383
v 0.02531311 0.025898112 0.47824126
v 0.1703363 0.03176771 0.4186557
v -0.31655455 0.05513044 -0.14589569
v -0.22830504 0.07778437 -0.22145355
v -0.14511536 0.11968717 -0.07255035
v 0.29657775 0.033067685 0.31447235
v -0.10104187 0.11933172 0.05489471
v -2.746582E-05 0.14046 -0.011161193
v -0.04467346 0.11139345 0.17104095
v -0.049938355 0.13877442 -0.13275237
v 0.04540466 0.13202314 -0.19083588
v 0.38039365 0.0309136 0.1676883
v -0.16035949 0.058351345 0.27954313
v -0.09610779 0.042818964 0.39337614
v 0.0060845944 0.064169824 0.34662506
v 0.12178283 0.07477819 0.2890451
v 0.22860901 0.07383207 0.20985931
v 0.051193237 0.1304531 0.10973236
v 0.3176422 0.05771673 0.1332083
v 0.14926574 0.12604612 0.05202484
v 0.28397033 0.07681215 -0.0027322387
v 0.10125671 0.13190088 -0.074743345
v 0.37818664 0.039380167 -0.020052794
v 0.23436584 0.082430094 -0.15730132
v 0.32339537 0.04477209 -0.21302459
v 0.16124329 0.08402059 -0.29479828
v 0.22853088 0.047500055 -0.37958953
v 0.094568476 0.07060911 -0.40430632
v 0.11122375 0.045571957 -0.48630768
v -0.008078002 0.08843824 -0.3592453
vt 0.46606445 0.9746094
vt 0.46850586 0.98095703
vt 0.48510742 0.9711914
vt 0.47998047 0.9658203
vt 0.4963379 0.9550781
vt 0.4489746 0.97558594
vt 0.4501953 0.9663086
vt 0.44873047 0.98291016
vt 0.4321289 0.9711914
vt 0.42919922 0.9770508
vt 0.4897461 0.95214844
vt 0.50146484 0.93652344
vt 0.41748047 0.96191406
vt 0.42456055 0.9550781
vt 0.41186523 0.9663086
vt 0.40795898 0.94873047
vt 0.40112305 0.9511719
vt 0.40600586 0.9326172
vt 0.39868164 0.9321289
vt 0.43652344 0.96240234
vt 0.44067383 0.95410156
vt 0.49414062 0.93603516
vt 0.49853516 0.9165039
vt 0.4165039 0.9453125
vt 0.41064453 0.9165039
vt 0.40405273 0.9135742
vt 0.49169922 0.9189453
vt 0.4868164 0.89990234
vt 0.41577148 0.93359375
vt 0.41967773 0.90185547
vt 0.41455078 0.8964844
vt 0.4814453 0.90478516
vt 0.46972656 0.88964844
vt 0.41967773 0.92041016
vt 0.4333496 0.8930664
vt 0.43066406 0.88623047
vt 0.42700195 0.9086914
vt 0.42822266 0.9243164
vt 0.4248047 0.9345703
vt 0.4501953 0.89160156
vt 0.4501953 0.88427734
vt 0.46704102 0.8959961
vt 0.43652344 0.9013672
vt 0.4494629 0.9013672
vt 0.46313477 0.90527344
vt 0.42236328 0.9433594
vt 0.43066406 0.94873047
vt 0.43725586 0.93847656
vt 0.47509766 0.91259766
vt 0.4404297 0.9296875
vt 0.4501953 0.9345703
vt 0.44482422 0.921875
vt 0.44628906 0.9423828
vt 0.45532227 0.94628906
vt 0.48364258 0.9223633
vt 0.43359375 0.9145508
vt 0.4387207 0.90722656
vt 0.44848633 0.91015625
vt 0.45947266 0.9140625
vt 0.46972656 0.9194336
vt 0.45410156 0.92626953
vt 0.47827148 0.9248047
vt 0.4633789 0.9301758
vt 0.47583008 0.93359375
vt 0.4597168 0.93847656
vt 0.48461914 0.9350586
vt 0.4724121 0.94433594
vt 0.4807129 0.9482422
vt 0.46655273 0.9536133
vt 0.47314453 0.95947266
vt 0.46118164 0.9609375
vt 0.46313477 0.9663086
vt 0.45166016 0.9580078
vn 0.069885254 0.9824219 -0.17211914
vn 0.044799805 0.9916992 -0.119628906
vn 0.10107422 0.9902344 -0.09350586
vn 0.15722656 0.9785156 -0.1315918
vn 0.12915039 0.9902344 -0.05505371
vn -0.02809143 0.98291016 -0.18249512
vn -0.044647217 0.96484375 -0.25830078
vn -0.016052246 0.9921875 -0.124694824
vn -0.10284424 0.9819336 -0.1586914
vn -0.066223145 0.9916992 -0.11016846
vn 0.19677734 0.97753906 -0.07745361
vn 0.12866211 0.9916992 -0.011711121
vn -0.14929199 0.98339844 -0.10412598
vn -0.2208252 0.9658203 -0.13574219
vn -0.10308838 0.9916992 -0.078430176
vn -0.16870117 0.98535156 -0.032165527
vn -0.1270752 0.99121094 -0.030563354
vn -0.15820312 0.9868164 0.027160645
vn -0.12548828 0.9921875 0.016799927
vn -0.15283203 0.96484375 -0.21325684
vn -0.17150879 0.9628906 -0.20739746
vn 0.19165039 0.9814453 -0.016067505
vn 0.105407715 0.9941406 0.028579712
vn -0.24487305 0.96875 -0.035308838
vn -0.12915039 0.9897461 0.05859375
vn -0.1027832 0.99365234 0.044128418
vn 0.15429688 0.9873047 0.042236328
vn 0.06994629 0.99609375 0.055633545
vn -0.23840332 0.96972656 0.04977417
vn -0.08282471 0.9941406 0.07147217
vn -0.06756592 0.99609375 0.059448242
vn 0.10253906 0.99121094 0.08331299
vn 0.03729248 0.9970703 0.0680542
vn -0.20800781 0.97314453 0.0993042
vn -0.03656006 0.99609375 0.082458496
vn -0.027236938 0.9970703 0.06878662
vn -0.14624023 0.98095703 0.12695312
vn -0.29296875 0.9453125 0.14367676
vn -0.32470703 0.94384766 0.061767578
vn 0.0073242188 0.9951172 0.096069336
vn 0.007911682 0.9975586 0.07110596
vn 0.05303955 0.99316406 0.10229492
vn -0.0637207 0.98779297 0.14355469
vn 0.008666992 0.98339844 0.1809082
vn 0.09277344 0.97802734 0.18798828
vn -0.32421875 0.9453125 -0.030700684
vn -0.27734375 0.9536133 -0.11859131
vn -0.27734375 0.9609375 -0.0027427673
vn 0.17944336 0.97216797 0.15039062
vn -0.24365234 0.9614258 0.12805176
vn -0.037384033 0.9980469 0.04626465
vn -0.12976074 0.96728516 0.21899414
vn -0.12548828 0.98583984 -0.10925293
vn 0.09411621 0.98095703 -0.16992188
vn 0.25561523 0.9638672 0.07269287
vn -0.21704102 0.9536133 0.20874023
vn -0.1270752 0.9580078 0.2565918
vn -0.02532959 0.9614258 0.2734375
vn 0.111816406 0.95996094 0.25732422
vn 0.24389648 0.9511719 0.1899414
vn 0.05331421 0.9819336 0.18249512
vn 0.3400879 0.9355469 0.09802246
vn 0.23522949 0.9692383 0.07330322
vn 0.3395996 0.9404297 -0.010192871
vn 0.21032715 0.97558594 -0.062469482
vn 0.29882812 0.95410156 -0.023254395
vn 0.31079102 0.94433594 -0.10803223
vn 0.29003906 0.9511719 -0.105773926
vn 0.22937012 0.95458984 -0.19042969
vn 0.23815918 0.95410156 -0.1809082
vn 0.12310791 0.95751953 -0.26049805
vn 0.10992432 0.96191406 -0.24938965
vn -0.018341064 0.9667969 -0.25439453
g rockK005_geo_0
f 3/3/3 2/2/2 1/1/1
f 4/4/4 3/3/3 1/1/1
f 5/5/5 3/3/3 4/4/4
f 1/1/1 2/2/2 6/6/6
f 1/1/1 6/6/6 7/7/7
f 2/2/2 8/8/8 6/6/6
f 6/6/6 8/8/8 9/9/9
f 6/6/6 9/9/9 7/7/7
f 8/8/8 10/10/10 9/9/9
f 11/11/11 5/5/5 4/4/4
f 12/12/12 5/5/5 11/11/11
f 9/9/9 10/10/10 13/13/13
f 9/9/9 13/13/13 14/14/14
f 10/10/10 15/15/15 13/13/13
f 13/13/13 15/15/15 16/16/16
f 13/13/13 16/16/16 14/14/14
f 15/15/15 17/17/17 16/16/16
f 16/16/16 17/17/17 18/18/18
f 17/17/17 19/19/19 18/18/18
f 9/9/9 20/20/20 7/7/7
f 20/20/20 9/9/9 14/14/14
f 20/20/20 21/21/21 7/7/7
f 21/21/21 20/20/20 14/14/14
f 22/22/22 12/12/12 11/11/11
f 23/23/23 12/12/12 22/22/22
f 16/16/16 24/24/24 14/14/14
f 16/16/16 18/18/18 24/24/24
f 18/18/18 19/19/19 25/25/25
f 19/19/19 26/26/26 25/25/25
f 27/27/27 23/23/23 22/22/22
f 28/28/28 23/23/23 27/27/27
f 18/18/18 29/29/29 24/24/24
f 18/18/18 25/25/25 29/29/29
f 25/25/25 26/26/26 30/30/30
f 26/26/26 31/31/31 30/30/30
f 32/32/32 28/28/28 27/27/27
f 33/33/33 28/28/28 32/32/32
f 25/25/25 34/34/34 29/29/29
f 25/25/25 30/30/30 34/34/34
f 30/30/30 31/31/31 35/35/35
f 31/31/31 36/36/36 35/35/35
f 30/30/30 37/37/37 34/34/34
f 30/30/30 35/35/35 37/37/37
f 34/34/34 38/38/38 29/29/29
f 34/34/34 37/37/37 38/38/38
f 29/29/29 39/39/39 24/24/24
f 38/38/38 39/39/39 29/29/29
f 35/35/35 36/36/36 40/40/40
f 36/36/36 41/41/41 40/40/40
f 41/41/41 33/33/33 42/42/42
f 40/40/40 41/41/41 42/42/42
f 42/42/42 33/33/33 32/32/32
f 35/35/35 40/40/40 43/43/43
f 35/35/35 43/43/43 37/37/37
f 40/40/40 42/42/42 44/44/44
f 40/40/40 44/44/44 43/43/43
f 42/42/42 32/32/32 45/45/45
f 42/42/42 45/45/45 44/44/44
f 39/39/39 46/46/46 24/24/24
f 24/24/24 46/46/46 14/14/14
f 46/46/46 47/47/47 14/14/14
f 47/47/47 21/21/21 14/14/14
f 47/47/47 46/46/46 48/48/48
f 46/46/46 39/39/39 48/48/48
f 21/21/21 47/47/47 48/48/48
f 32/32/32 49/49/49 45/45/45
f 32/32/32 27/27/27 49/49/49
f 48/48/48 39/39/39 50/50/50
f 50/50/50 51/51/51 48/48/48
f 39/39/39 38/38/38 50/50/50
f 50/50/50 38/38/38 52/52/52
f 51/51/51 50/50/50 52/52/52
f 53/53/53 21/21/21 48/48/48
f 51/51/51 53/53/53 48/48/48
f 21/21/21 53/53/53 54/54/54
f 54/54/54 53/53/53 51/51/51
f 27/27/27 55/55/55 49/49/49
f 27/27/27 22/22/22 55/55/55
f 38/38/38 56/56/56 52/52/52
f 37/37/37 56/56/56 38/38/38
f 57/57/57 56/56/56 37/37/37
f 43/43/43 57/57/57 37/37/37
f 56/56/56 57/57/57 58/58/58
f 58/58/58 57/57/57 43/43/43
f 52/52/52 56/56/56 58/58/58
f 44/44/44 58/58/58 43/43/43
f 59/59/59 58/58/58 44/44/44
f 52/52/52 58/58/58 59/59/59
f 45/45/45 59/59/59 44/44/44
f 45/45/45 49/49/49 60/60/60
f 59/59/59 45/45/45 60/60/60
f 61/61/61 52/52/52 59/59/59
f 59/59/59 60/60/60 61/61/61
f 61/61/61 51/51/51 52/52/52
f 60/60/60 49/49/49 62/62/62
f 49/49/49 55/55/55 62/62/62
f 60/60/60 63/63/63 61/61/61
f 61/61/61 63/63/63 51/51/51
f 60/60/60 62/62/62 63/63/63
f 64/64/64 62/62/62 55/55/55
f 62/62/62 64/64/64 63/63/63
f 63/63/63 65/65/65 51/51/51
f 63/63/63 64/64/64 65/65/65
f 65/65/65 54/54/54 51/51/51
f 66/66/66 64/64/64 55/55/55
f 22/22/22 66/66/66 55/55/55
f 22/22/22 11/11/11 66/66/66
f 64/64/64 67/67/67 65/65/65
f 67/67/67 64/64/64 66/66/66
f 65/65/65 67/67/67 54/54/54
f 11/11/11 68/68/68 66/66/66
f 68/68/68 67/67/67 66/66/66
f 11/11/11 4/4/4 68/68/68
f 69/69/69 67/67/67 68/68/68
f 67/67/67 69/69/69 54/54/54
f 4/4/4 70/70/70 68/68/68
f 70/70/70 69/69/69 68/68/68
f 4/4/4 1/1/1 70/70/70
f 69/69/69 71/71/71 54/54/54
f 71/71/71 69/69/69 70/70/70
f 1/1/1 72/72/72 70/70/70
f 72/72/72 71/71/71 70/70/70
f 72/72/72 1/1/1 7/7/7
f 71/71/71 72/72/72 7/7/7
f 71/71/71 73/73/73 54/54/54
f 73/73/73 71/71/71 7/7/7
f 73/73/73 21/21/21 54/54/54
f 21/21/21 73/73/73 7/7/7
