g rockFPlane007_geo
v -0.8368757 1.338423 -1.9760206
v -0.015081229 1.645713 -4.012171
v 0.53623223 1.7446501 -5.162057
v 1.804704 1.6177766 -6.7955685
v -6.629124E-07 -1.9895197E-15 -1.8456463E-07
v -2.379577 1.3873439 1.5720091
v 3.8854437 1.5258789E-07 -6.432317
v 3.58497 1.4461251 -9.109802
v 5.2674417 1.5023708 -10.967725
v -1.7282525 6.1035155E-07 5.073039
v -3.9150383 0.64287245 6.128675
v 7.14065 4.5776366E-07 -10.457155
v 7.206592 1.0812297 -13.299892
v -4.834128 0.575394 8.34284
v -3.4711003 -1.0681152E-06 8.036216
v -5.1393523 -2.8991699E-06 10.798137
v -7.071701 -5.340576E-06 13.390944
v 9.462896 0.6457272 -15.64189
v 9.950143 -1.5258789E-07 -13.847685
v 11.767125 -7.629394E-07 -16.542519
v 12.383755 -2.2888182E-06 -18.25925
vt 0.78222656 0.70947266
vt 0.79248047 0.6850586
vt 0.7919922 0.6748047
vt 0.7866211 0.65625
vt 0.71435547 0.73876953
vt 0.77197266 0.7495117
vt 0.7006836 0.63964844
vt 0.78808594 0.6254883
vt 0.78759766 0.59716797
vt 0.69873047 0.79296875
vt 0.75 0.80322266
vt 0.7011719 0.56591797
vt 0.78564453 0.5595703
vt 0.7446289 0.82666016
vt 0.7084961 0.82714844
vt 0.7138672 0.86328125
vt 0.7338867 0.8725586
vt 0.7763672 0.5102539
vt 0.6928711 0.5019531
vt 0.7207031 0.45947266
vt 0.7416992 0.4501953
vn 0.53808594 0.77978516 0.31958008
vn 0.49804688 0.8071289 0.31762695
vn 0.49804688 0.8071289 0.31762695
vn 0.5307617 0.78027344 0.3305664
vn 0.5390625 0.7915039 0.28808594
vn 0.515625 0.8232422 0.23730469
vn 0.5161133 0.7817383 0.3503418
vn 0.4807129 0.7817383 0.39672852
vn 0.48510742 0.7841797 0.38671875
vn 0.49389648 0.83740234 0.2331543
vn 0.44702148 0.86621094 0.22387695
vn 0.46777344 0.80908203 0.35595703
vn 0.42163086 0.8588867 0.29125977
vn 0.38305664 0.89160156 0.24108887
vn 0.3864746 0.89453125 0.22387695
vn 0.38012695 0.88916016 0.25561523
vn 0.38012695 0.88916016 0.25561523
vn 0.36645508 0.9003906 0.23547363
vn 0.38720703 0.8823242 0.26733398
vn 0.33081055 0.92578125 0.18249512
vn 0.33081055 0.92578125 0.18249512
g rockFPlane007_geo_0
f 3/3/3 2/2/2 1/1/1
f 4/4/4 3/3/3 1/1/1
f 4/4/4 1/1/1 5/5/5
f 1/1/1 6/6/6 5/5/5
f 7/7/7 4/4/4 5/5/5
f 8/8/8 4/4/4 7/7/7
f 9/9/9 8/8/8 7/7/7
f 5/5/5 6/6/6 10/10/10
f 6/6/6 11/11/11 10/10/10
f 12/12/12 9/9/9 7/7/7
f 13/13/13 9/9/9 12/12/12
f 10/10/10 11/11/11 14/14/14
f 15/15/15 10/10/10 14/14/14
f 15/15/15 14/14/14 16/16/16
f 14/14/14 17/17/17 16/16/16
f 18/18/18 13/13/13 12/12/12
f 19/19/19 18/18/18 12/12/12
f 18/18/18 19/19/19 20/20/20
f 21/21/21 18/18/18 20/20/20
