g rockGPlane007_geo
v 3.2223384 0.6828417 -24.429943
v 2.3299117 0.5455634 -19.469826
v 1.6492257 1.2139947 -21.348904
v 1.5435396 0.42235178 -15.020901
v 0.21428192 1.7275249 -14.046611
v -0.47984892 2.016878 -9.200082
v 0.7583005 0.22153491 -7.868657
v -0.8488455 2.244989 -5.0556273
v -2.957918E-07 -1.2357698E-07 2.0190544E-06
v -1.2635964 2.7655292 -1.8349296
v -1.1492971 3.7519405 1.2727002
v -1.2061087 3.346174 -0.28482762
v -1.1232132 3.3568947 4.791206
v -1.1359158 3.641857 3.0282385
v 0.30600065 -0.21860485 7.554599
v -0.76475614 2.8321788 8.810589
v -0.56892365 2.7683399 10.784111
v 0.81597626 -0.40732324 14.027402
v 0.2532736 1.9928082 16.267294
v -0.3724466 2.8706353 12.750568
v -0.058816213 2.6307344 14.500485
v 1.5393722 1.165378 19.946613
v 1.4425583 -0.5027128 17.225706
v 2.405024 -0.63670117 21.701763
vt 0.8496094 0.44580078
vt 0.8486328 0.47143555
vt 0.8847656 0.47558594
vt 0.84814453 0.49365234
vt 0.90185547 0.5341797
vt 0.9086914 0.57373047
vt 0.8540039 0.5708008
vt 0.91015625 0.60791016
vt 0.859375 0.65185547
vt 0.9121094 0.63916016
vt 0.9111328 0.66308594
vt 0.9116211 0.6513672
vt 0.91064453 0.6826172
vt 0.91064453 0.67285156
vt 0.8569336 0.7265625
vt 0.9086914 0.70996094
vt 0.9086914 0.7236328
vt 0.8671875 0.7832031
vt 0.9067383 0.7675781
vt 0.91308594 0.73779297
vt 0.9121094 0.7524414
vt 0.90771484 0.80371094
vt 0.8730469 0.8046875
vt 0.89501953 0.8256836
vn 0.51416016 0.8496094 0.11602783
vn 0.6621094 0.7421875 0.104003906
vn 0.5913086 0.7988281 0.1104126
vn 0.70996094 0.6972656 0.097595215
vn 0.7426758 0.66308594 0.09246826
vn 0.7709961 0.63183594 0.080322266
vn 0.8100586 0.5810547 0.07458496
vn 0.85839844 0.5073242 0.07495117
vn 0.9145508 0.40454102 0.0059394836
vn 0.88183594 0.47070312 0.03479004
vn 0.9536133 0.30029297 -0.024734497
vn 0.9995117 -0.0053749084 -0.035064697
vn 0.93847656 0.34375 -0.025802612
vn 1 -0.0042037964 -0.007888794
vn 0.9375 0.34521484 -0.04510498
vn 0.9350586 0.35180664 -0.04006958
vn 0.9404297 0.33129883 -0.07861328
vn 0.9370117 0.33496094 -0.099243164
vn 0.9291992 0.34228516 -0.14086914
vn 0.9741211 0.18640137 -0.12683105
vn 0.9741211 0.18640137 -0.12683105
vn 0.9296875 0.30932617 -0.2006836
vn 0.91552734 0.34643555 -0.20495605
vn 0.9448242 0.26367188 -0.19519043
g rockGPlane007_geo_0
f 3/3/3 2/2/2 1/1/1
f 4/4/4 2/2/2 3/3/3
f 5/5/5 4/4/4 3/3/3
f 4/4/4 5/5/5 6/6/6
f 7/7/7 4/4/4 6/6/6
f 6/6/6 8/8/8 7/7/7
f 7/7/7 8/8/8 9/9/9
f 8/8/8 10/10/10 9/9/9
f 11/11/11 9/9/9 10/10/10
f 11/11/11 10/10/10 12/12/12
f 13/13/13 9/9/9 11/11/11
f 13/13/13 11/11/11 14/14/14
f 9/9/9 13/13/13 15/15/15
f 13/13/13 16/16/16 15/15/15
f 15/15/15 16/16/16 17/17/17
f 15/15/15 17/17/17 18/18/18
f 17/17/17 19/19/19 18/18/18
f 17/17/17 20/20/20 19/19/19
f 20/20/20 21/21/21 19/19/19
f 18/18/18 19/19/19 22/22/22
f 23/23/23 18/18/18 22/22/22
f 23/23/23 22/22/22 24/24/24
