g rockCPlane003_geo
v 0.6361891 0 9.184208
v 1.6061988 0.81975853 14.01788
v 0.32283705 3.0517577E-07 19.686152
v 2.281399 1.2530164 11.398405
v 2.7150075 1.2698927 8.477369
v 1.5469733E-07 0 2.6221585E-06
v 2.5987723 1.5796008 5.53476
v 2.4867995 1.7467978 2.6205194
v 2.0410817 1.6379621 -0.66969097
v -1.6916014 0 -9.266385
v 1.3739357 1.3032696 -5.595545
v -0.54707015 1.2333791 -12.239885
v -3.5240548 1.5258789E-07 -17.345356
v -1.5941283 0.8518978 -15.970234
v -3.618486 0 -23.94801
vt 0.3251953 0.7192383
vt 0.25634766 0.74365234
vt 0.27783203 0.8173828
vt 0.25732422 0.7207031
vt 0.25317383 0.7006836
vt 0.32714844 0.62939453
vt 0.2529297 0.6796875
vt 0.25268555 0.6582031
vt 0.25195312 0.63427734
vt 0.31933594 0.5439453
vt 0.25097656 0.5986328
vt 0.2536621 0.54541016
vt 0.3059082 0.48583984
vt 0.2475586 0.5102539
vt 0.2553711 0.41918945
vn -0.5625 0.8261719 0.029296875
vn -0.59228516 0.80566406 -0.01776123
vn -0.59228516 0.8051758 -0.017684937
vn -0.5756836 0.81689453 -0.034698486
vn -0.55859375 0.828125 0.040618896
vn -0.5463867 0.83496094 0.06463623
vn -0.56396484 0.82373047 0.056549072
vn -0.6191406 0.78271484 0.06585693
vn -0.5419922 0.83740234 0.065979004
vn -0.52685547 0.84277344 0.109069824
vn -0.52783203 0.8461914 0.07324219
vn -0.5234375 0.84521484 0.107543945
vn -0.45361328 0.8901367 0.042755127
vn -0.50634766 0.85791016 0.08648682
vn -0.40722656 0.91308594 0.0058250427
g rockCPlane003_geo_0
f 3/3/3 2/2/2 1/1/1
f 1/1/1 2/2/2 4/4/4
f 4/4/4 5/5/5 1/1/1
f 1/1/1 5/5/5 6/6/6
f 5/5/5 7/7/7 6/6/6
f 7/7/7 8/8/8 6/6/6
f 8/8/8 9/9/9 6/6/6
f 6/6/6 9/9/9 10/10/10
f 9/9/9 11/11/11 10/10/10
f 11/11/11 12/12/12 10/10/10
f 10/10/10 12/12/12 13/13/13
f 12/12/12 14/14/14 13/13/13
f 15/15/15 13/13/13 14/14/14
