g rockDPlane003_geo
v 1.1076587 2.5661457 -1.6797976
v 1.6854224 2.755103 -1.0685464
v 2.1315308 2.8195877 -0.49765044
v 8.314685E-08 -8.30177E-08 -3.1056274E-07
v 2.9997618 2.2665093 0.8199728
v 2.6306407 2.5997005 0.1825241
v 3.8905199 1.5685517 2.2357247
v -3.0359447 2.2215808E-07 -2.4845192
v -0.48090568 2.3631682 -3.2042446
v -3.1179845 2.426213 -4.284955
v 2.7107677 -8.30177E-08 3.8155
v 4.405815 1.315213 3.0344002
v 5.1749706 1.1307423 4.8952427
v 4.2773 -3.1189953E-07 7.245687
v 5.812638 0.44699132 7.0106487
v 5.9408298 -3.8819346E-07 9.789773
v -6.219651 4.510399E-07 -4.0354433
v -4.6165357 1.7510437 -4.811454
v -6.48275 1.1662589 -5.3019867
v -8.564261 5.2733384E-07 -5.791506
vt 0.4111328 0.6567383
vt 0.41235352 0.6464844
vt 0.41333008 0.63623047
vt 0.3383789 0.65283203
vt 0.41333008 0.6142578
vt 0.41333008 0.625
vt 0.4099121 0.57958984
vt 0.34399414 0.72558594
vt 0.40844727 0.69189453
vt 0.40063477 0.73583984
vt 0.33911133 0.55908203
vt 0.41479492 0.56591797
vt 0.40795898 0.52734375
vt 0.35302734 0.4831543
vt 0.38964844 0.4753418
vt 0.38793945 0.41967773
vt 0.35253906 0.7944336
vt 0.40527344 0.77197266
vt 0.39648438 0.80615234
vt 0.3864746 0.8461914
vn -0.54589844 0.64160156 0.5390625
vn -0.6791992 0.56689453 0.46655273
vn -0.6166992 0.56347656 0.5498047
vn -0.5361328 0.65722656 0.52978516
vn -0.55566406 0.66796875 0.49560547
vn -0.62353516 0.48388672 0.61376953
vn -0.5385742 0.6977539 0.47216797
vn -0.44140625 0.6176758 0.6508789
vn -0.48095703 0.64160156 0.59765625
vn -0.3642578 0.5756836 0.7319336
vn -0.52441406 0.76464844 0.37402344
vn -0.47558594 0.83154297 0.28759766
vn -0.47216797 0.84375 0.2548828
vn -0.38085938 0.890625 0.24829102
vn -0.23376465 0.9379883 0.2565918
vn -0.2524414 0.9536133 0.16503906
vn -0.4116211 0.5932617 0.69140625
vn -0.39672852 0.58691406 0.7055664
vn -0.43725586 0.6142578 0.6567383
vn -0.4831543 0.5917969 0.64501953
g rockDPlane003_geo_0
f 3/3/3 2/2/2 1/1/1
f 3/3/3 1/1/1 4/4/4
f 5/5/5 3/3/3 4/4/4
f 5/5/5 6/6/6 3/3/3
f 7/7/7 5/5/5 4/4/4
f 4/4/4 1/1/1 8/8/8
f 1/1/1 9/9/9 8/8/8
f 9/9/9 10/10/10 8/8/8
f 11/11/11 7/7/7 4/4/4
f 12/12/12 7/7/7 11/11/11
f 13/13/13 12/12/12 11/11/11
f 14/14/14 13/13/13 11/11/11
f 15/15/15 13/13/13 14/14/14
f 14/14/14 16/16/16 15/15/15
f 8/8/8 10/10/10 17/17/17
f 10/10/10 18/18/18 17/17/17
f 17/17/17 18/18/18 19/19/19
f 19/19/19 20/20/20 17/17/17
