g rockDPlane009_geo
v 1.1350399 2.589557 -1.6587132
v 2.2406125 2.8372612 -1.0849155
v 3.1278987 2.9534256 -0.5454514
v -2.8864508E-07 6.502814E-08 1.4369879E-06
v 4.920206 2.4670188 0.71207297
v 4.133614 2.7789044 0.099929415
v 6.771982 1.7892054 2.0763502
v -5.470386 -1.1265806E-08 -2.4293163
v -1.8493056 2.257068 -3.0872884
v -6.257069 2.1570308 -4.117546
v 5.4001465 4.4649786E-07 3.7620497
v 7.8329296 1.5451382 2.8502712
v 9.604306 1.403849 4.7102284
v 8.827537 5.227918E-07 7.2774825
v 11.205773 0.63887197 6.8931775
v 12.108799 5.227918E-07 9.919814
v -10.79096 -3.1644157E-07 -4.0264425
v -8.706238 1.4788247 -4.6522017
v -11.668154 0.91035897 -5.2000413
v -14.915588 -3.9273553E-07 -5.80405
vt 0.4111328 0.6567383
vt 0.41235352 0.6464844
vt 0.41333008 0.63623047
vt 0.3383789 0.65283203
vt 0.41333008 0.6142578
vt 0.41333008 0.625
vt 0.4099121 0.57958984
vt 0.34399414 0.72558594
vt 0.40844727 0.69189453
vt 0.40063477 0.73583984
vt 0.33911133 0.55908203
vt 0.41479492 0.56591797
vt 0.40795898 0.52734375
vt 0.35302734 0.4831543
vt 0.38964844 0.4753418
vt 0.38793945 0.41967773
vt 0.35253906 0.7944336
vt 0.40527344 0.77197266
vt 0.39648438 0.80615234
vt 0.3864746 0.8461914
vn -0.3684082 0.64501953 0.6699219
vn -0.46826172 0.61035156 0.6386719
vn -0.4038086 0.56103516 0.72265625
vn -0.35424805 0.65625 0.6660156
vn -0.37402344 0.6777344 0.6333008
vn -0.41552734 0.47485352 0.7758789
vn -0.36108398 0.69970703 0.6166992
vn -0.27539062 0.60595703 0.74609375
vn -0.32250977 0.64501953 0.6928711
vn -0.24328613 0.5751953 0.7807617
vn -0.3720703 0.7548828 0.54003906
vn -0.35888672 0.84228516 0.40234375
vn -0.34570312 0.85498047 0.3864746
vn -0.30419922 0.8779297 0.36938477
vn -0.19543457 0.9243164 0.32763672
vn -0.21069336 0.94189453 0.26171875
vn -0.26831055 0.6118164 0.7441406
vn -0.26171875 0.58740234 0.765625
vn -0.2932129 0.63671875 0.7128906
vn -0.30859375 0.62597656 0.7163086
g rockDPlane009_geo_0
f 3/3/3 2/2/2 1/1/1
f 3/3/3 1/1/1 4/4/4
f 5/5/5 3/3/3 4/4/4
f 5/5/5 6/6/6 3/3/3
f 7/7/7 5/5/5 4/4/4
f 4/4/4 1/1/1 8/8/8
f 1/1/1 9/9/9 8/8/8
f 9/9/9 10/10/10 8/8/8
f 11/11/11 7/7/7 4/4/4
f 12/12/12 7/7/7 11/11/11
f 13/13/13 12/12/12 11/11/11
f 14/14/14 13/13/13 11/11/11
f 15/15/15 13/13/13 14/14/14
f 14/14/14 16/16/16 15/15/15
f 8/8/8 10/10/10 17/17/17
f 10/10/10 18/18/18 17/17/17
f 17/17/17 18/18/18 19/19/19
f 19/19/19 20/20/20 17/17/17
