g rockK002_geo
v -0.29964355 0.011631193 -0.1728064
v -0.2450476 1.9073486E-08 -0.31375182
v 0.09935791 1.9073486E-08 -0.106976315
v -0.005324707 0.012004999 0.0049676513
v 0.33699828 1.9073486E-08 0.22870116
v -0.6552588 0.012115722 -0.2005774
v -0.6286389 0.08481098 -0.0042437743
v -0.6603259 1.9073486E-08 -0.3472534
v -1.0054566 0.012193513 -0.10157837
v -1.0684912 1.9073486E-08 -0.23222777
v 0.19837035 0.012082586 0.29307312
v 0.4433081 1.9073486E-08 0.62038696
v -1.3132751 0.0118094105 0.09144775
v -1.1644446 0.07673795 0.23416747
v -1.4272594 1.9073486E-08 -0.007201538
v -1.5088342 0.0111729475 0.36775208
v -1.6547241 1.9073486E-08 0.31604797
v -1.5504235 0.011445718 0.70408016
v -1.7043518 1.9073486E-08 0.7089868
v -0.91213864 0.086607836 0.082827754
v -0.82607174 0.17212497 0.25333738
v 0.28983763 0.011986408 0.6291986
v 0.37895507 1.9073486E-08 1.0361907
v -1.3346008 0.061073177 0.43047667
v -1.4529345 0.011500878 1.0409613
v -1.5907092 1.9073486E-08 1.1017615
v 0.23569213 0.011604528 0.98504573
v 0.13523315 1.9073486E-08 1.3880914
v -1.3453064 0.06753867 0.6834613
v -1.2683789 0.011438642 1.3403344
v -1.3756372 1.9073486E-08 1.4508685
v 0.026171874 0.012078752 1.285481
v -0.2191272 1.9073486E-08 1.5974725
v -1.2645056 0.06905569 0.95506406
v -0.9805261 0.011155767 1.5285126
v -1.0386096 1.9073486E-08 1.6698877
v -1.115686 0.0672657 1.1968316
v -1.0884057 0.13798286 0.87442565
v -1.1599401 0.13543639 0.6569159
v -0.6300098 0.01177143 1.5577496
v -0.6292517 1.9073486E-08 1.7049872
v -0.2781665 0.012156134 1.4652569
v -0.9132727 0.06061694 1.3544568
v -0.6453491 0.075877205 1.3530285
v -0.36074707 0.08547634 1.2690362
v -1.212583 0.10834854 0.473208
v -1.0351586 0.15199402 0.36668885
v -0.89733887 0.24632896 0.5765924
v -0.10688354 0.08341116 1.1221728
v -0.83052367 0.25175792 0.7562488
v -0.6300134 0.29265225 0.66313595
v -0.7386157 0.24078685 0.91998106
v -0.70891845 0.2831798 0.49173033
v -0.52073365 0.26629442 0.40985534
v 0.07069946 0.07216993 0.91525084
v -0.9733117 0.13482396 1.0729302
v -0.8659985 0.10752882 1.2333972
v -0.66488034 0.1501804 1.1674908
v -0.436875 0.16971992 1.0863245
v -0.22339354 0.16399254 0.9746997
v -0.54828614 0.2776771 0.8335565
v -0.044489745 0.12666687 0.86665034
v -0.35451415 0.26564643 0.75220394
v -0.09181885 0.16021232 0.67502135
v -0.4296289 0.27168703 0.57350034
v 0.0891748 0.08128737 0.6506018
v -0.1668933 0.16466518 0.45712766
v 0.008597412 0.08371404 0.37857056
v -0.28829467 0.1615297 0.26330137
v -0.15054931 0.081800185 0.14376892
v -0.40062988 0.12860213 0.10893372
v -0.35887206 0.07296663 -0.0066625974
v -0.60036373 0.16768587 0.172453
vt 0.46606445 0.9746094
vt 0.46850586 0.98095703
vt 0.48510742 0.9711914
vt 0.47998047 0.9658203
vt 0.4963379 0.9550781
vt 0.4489746 0.97558594
vt 0.4501953 0.9663086
vt 0.44873047 0.98291016
vt 0.4321289 0.9711914
vt 0.42919922 0.9770508
vt 0.4897461 0.95214844
vt 0.50146484 0.93652344
vt 0.41748047 0.96191406
vt 0.42456055 0.9550781
vt 0.41186523 0.9663086
vt 0.40795898 0.94873047
vt 0.40112305 0.9511719
vt 0.40600586 0.9326172
vt 0.39868164 0.9321289
vt 0.43652344 0.96240234
vt 0.44067383 0.95410156
vt 0.49414062 0.93603516
vt 0.49853516 0.9165039
vt 0.4165039 0.9453125
vt 0.41064453 0.9165039
vt 0.40405273 0.9135742
vt 0.49169922 0.9189453
vt 0.4868164 0.89990234
vt 0.41577148 0.93359375
vt 0.41967773 0.90185547
vt 0.41455078 0.8964844
vt 0.4814453 0.90478516
vt 0.46972656 0.88964844
vt 0.41967773 0.92041016
vt 0.4333496 0.8930664
vt 0.43066406 0.88623047
vt 0.42700195 0.9086914
vt 0.42822266 0.9243164
vt 0.4248047 0.9345703
vt 0.4501953 0.89160156
vt 0.4501953 0.88427734
vt 0.46704102 0.8959961
vt 0.43652344 0.9013672
vt 0.4494629 0.9013672
vt 0.46313477 0.90527344
vt 0.42236328 0.9433594
vt 0.43066406 0.94873047
vt 0.43725586 0.93847656
vt 0.47509766 0.91259766
vt 0.4404297 0.9296875
vt 0.4501953 0.9345703
vt 0.44482422 0.921875
vt 0.44628906 0.9423828
vt 0.45532227 0.94628906
vt 0.48364258 0.9223633
vt 0.43359375 0.9145508
vt 0.4387207 0.90722656
vt 0.44848633 0.91015625
vt 0.45947266 0.9140625
vt 0.46972656 0.9194336
vt 0.45410156 0.92626953
vt 0.47827148 0.9248047
vt 0.4633789 0.9301758
vt 0.47583008 0.93359375
vt 0.4597168 0.93847656
vt 0.48461914 0.9350586
vt 0.4724121 0.94433594
vt 0.4807129 0.9482422
vt 0.46655273 0.9536133
vt 0.47314453 0.95947266
vt 0.46118164 0.9609375
vt 0.46313477 0.9663086
vt 0.45166016 0.9580078
vn 0.058807373 0.9814453 -0.18371582
vn 0.02432251 0.9970703 -0.07421875
vn 0.052947998 0.9970703 -0.056854248
vn 0.1348877 0.98095703 -0.14074707
vn 0.07104492 0.9970703 -0.03353882
vn -0.02268982 0.97802734 -0.20727539
vn -0.043884277 0.9291992 -0.36645508
vn -0.0072784424 0.99658203 -0.08135986
vn -0.08868408 0.97753906 -0.19152832
vn -0.033996582 0.99658203 -0.075683594
vn 0.18151855 0.9794922 -0.08532715
vn 0.07720947 0.9970703 -0.0039634705
vn -0.12890625 0.98291016 -0.13305664
vn -0.23327637 0.9433594 -0.23510742
vn -0.054260254 0.9970703 -0.055999756
vn -0.15063477 0.9868164 -0.05645752
vn -0.06854248 0.9970703 -0.026016235
vn -0.16174316 0.9868164 0.014503479
vn -0.07373047 0.9970703 0.005432129
vn -0.15588379 0.93310547 -0.3244629
vn -0.18261719 0.92285156 -0.33935547
vn 0.19238281 0.9814453 -0.012611389
vn 0.071899414 0.9970703 0.02835083
vn -0.27783203 0.9555664 -0.10083008
vn -0.15625 0.98535156 0.06970215
vn -0.06939697 0.9970703 0.030761719
vn 0.17443848 0.9819336 0.07104492
vn 0.055358887 0.99658203 0.057617188
vn -0.28930664 0.95654297 0.029907227
vn -0.11529541 0.9873047 0.11065674
vn -0.05267334 0.9970703 0.051727295
vn 0.13208008 0.98046875 0.14562988
vn 0.031829834 0.99658203 0.076538086
vn -0.26782227 0.9560547 0.11999512
vn -0.053497314 0.9868164 0.15124512
vn -0.024749756 0.9970703 0.06994629
vn -0.20922852 0.9580078 0.19592285
vn -0.31958008 0.93603516 0.1484375
vn -0.35351562 0.9350586 0.022354126
vn 0.013824463 0.9824219 0.18676758
vn 0.0059280396 0.9970703 0.07922363
vn 0.07763672 0.9785156 0.19116211
vn -0.10003662 0.95654297 0.27416992
vn 0.019638062 0.9453125 0.32543945
vn 0.1262207 0.93847656 0.32128906
vn -0.3486328 0.93066406 -0.11230469
vn -0.29785156 0.9272461 -0.22668457
vn -0.30249023 0.9506836 -0.06915283
vn 0.23205566 0.9375 0.2590332
vn -0.26586914 0.9550781 0.13220215
vn -0.04058838 0.99853516 0.03086853
vn -0.13769531 0.95214844 0.27319336
vn -0.13464355 0.96972656 -0.20361328
vn 0.098083496 0.9589844 -0.26611328
vn 0.32055664 0.93847656 0.12988281
vn -0.23815918 0.93847656 0.25048828
vn -0.13464355 0.93408203 0.3305664
vn -0.025299072 0.9321289 0.36108398
vn 0.1204834 0.9291992 0.34936523
vn 0.2644043 0.9277344 0.26416016
vn 0.057250977 0.96972656 0.23791504
vn 0.36572266 0.91845703 0.14904785
vn 0.25634766 0.9614258 0.10180664
vn 0.36914062 0.9291992 -0.009689331
vn 0.22888184 0.96777344 -0.105285645
vn 0.34838867 0.9370117 -0.027328491
vn 0.3359375 0.92822266 -0.15844727
vn 0.31811523 0.93603516 -0.14990234
vn 0.24743652 0.9277344 -0.27905273
vn 0.2475586 0.9355469 -0.25219727
vn 0.12597656 0.9140625 -0.38500977
vn 0.10876465 0.93408203 -0.34057617
vn -0.021270752 0.92089844 -0.38916016
g rockK002_geo_0
f 3/3/3 2/2/2 1/1/1
f 4/4/4 3/3/3 1/1/1
f 5/5/5 3/3/3 4/4/4
f 1/1/1 2/2/2 6/6/6
f 1/1/1 6/6/6 7/7/7
f 2/2/2 8/8/8 6/6/6
f 6/6/6 8/8/8 9/9/9
f 6/6/6 9/9/9 7/7/7
f 8/8/8 10/10/10 9/9/9
f 11/11/11 5/5/5 4/4/4
f 12/12/12 5/5/5 11/11/11
f 9/9/9 10/10/10 13/13/13
f 9/9/9 13/13/13 14/14/14
f 10/10/10 15/15/15 13/13/13
f 13/13/13 15/15/15 16/16/16
f 13/13/13 16/16/16 14/14/14
f 15/15/15 17/17/17 16/16/16
f 16/16/16 17/17/17 18/18/18
f 17/17/17 19/19/19 18/18/18
f 9/9/9 20/20/20 7/7/7
f 20/20/20 9/9/9 14/14/14
f 20/20/20 21/21/21 7/7/7
f 21/21/21 20/20/20 14/14/14
f 22/22/22 12/12/12 11/11/11
f 23/23/23 12/12/12 22/22/22
f 16/16/16 24/24/24 14/14/14
f 16/16/16 18/18/18 24/24/24
f 18/18/18 19/19/19 25/25/25
f 19/19/19 26/26/26 25/25/25
f 27/27/27 23/23/23 22/22/22
f 28/28/28 23/23/23 27/27/27
f 18/18/18 29/29/29 24/24/24
f 18/18/18 25/25/25 29/29/29
f 25/25/25 26/26/26 30/30/30
f 26/26/26 31/31/31 30/30/30
f 32/32/32 28/28/28 27/27/27
f 33/33/33 28/28/28 32/32/32
f 25/25/25 34/34/34 29/29/29
f 25/25/25 30/30/30 34/34/34
f 30/30/30 31/31/31 35/35/35
f 31/31/31 36/36/36 35/35/35
f 30/30/30 37/37/37 34/34/34
f 30/30/30 35/35/35 37/37/37
f 34/34/34 38/38/38 29/29/29
f 34/34/34 37/37/37 38/38/38
f 29/29/29 39/39/39 24/24/24
f 38/38/38 39/39/39 29/29/29
f 35/35/35 36/36/36 40/40/40
f 36/36/36 41/41/41 40/40/40
f 41/41/41 33/33/33 42/42/42
f 40/40/40 41/41/41 42/42/42
f 42/42/42 33/33/33 32/32/32
f 35/35/35 40/40/40 43/43/43
f 35/35/35 43/43/43 37/37/37
f 40/40/40 42/42/42 44/44/44
f 40/40/40 44/44/44 43/43/43
f 42/42/42 32/32/32 45/45/45
f 42/42/42 45/45/45 44/44/44
f 39/39/39 46/46/46 24/24/24
f 24/24/24 46/46/46 14/14/14
f 46/46/46 47/47/47 14/14/14
f 47/47/47 21/21/21 14/14/14
f 47/47/47 46/46/46 48/48/48
f 46/46/46 39/39/39 48/48/48
f 21/21/21 47/47/47 48/48/48
f 32/32/32 49/49/49 45/45/45
f 32/32/32 27/27/27 49/49/49
f 48/48/48 39/39/39 50/50/50
f 50/50/50 51/51/51 48/48/48
f 39/39/39 38/38/38 50/50/50
f 50/50/50 38/38/38 52/52/52
f 51/51/51 50/50/50 52/52/52
f 53/53/53 21/21/21 48/48/48
f 51/51/51 53/53/53 48/48/48
f 21/21/21 53/53/53 54/54/54
f 54/54/54 53/53/53 51/51/51
f 27/27/27 55/55/55 49/49/49
f 27/27/27 22/22/22 55/55/55
f 38/38/38 56/56/56 52/52/52
f 37/37/37 56/56/56 38/38/38
f 57/57/57 56/56/56 37/37/37
f 43/43/43 57/57/57 37/37/37
f 56/56/56 57/57/57 58/58/58
f 58/58/58 57/57/57 43/43/43
f 52/52/52 56/56/56 58/58/58
f 44/44/44 58/58/58 43/43/43
f 59/59/59 58/58/58 44/44/44
f 52/52/52 58/58/58 59/59/59
f 45/45/45 59/59/59 44/44/44
f 45/45/45 49/49/49 60/60/60
f 59/59/59 45/45/45 60/60/60
f 61/61/61 52/52/52 59/59/59
f 59/59/59 60/60/60 61/61/61
f 61/61/61 51/51/51 52/52/52
f 60/60/60 49/49/49 62/62/62
f 49/49/49 55/55/55 62/62/62
f 60/60/60 63/63/63 61/61/61
f 61/61/61 63/63/63 51/51/51
f 60/60/60 62/62/62 63/63/63
f 64/64/64 62/62/62 55/55/55
f 62/62/62 64/64/64 63/63/63
f 63/63/63 65/65/65 51/51/51
f 63/63/63 64/64/64 65/65/65
f 65/65/65 54/54/54 51/51/51
f 66/66/66 64/64/64 55/55/55
f 22/22/22 66/66/66 55/55/55
f 22/22/22 11/11/11 66/66/66
f 64/64/64 67/67/67 65/65/65
f 67/67/67 64/64/64 66/66/66
f 65/65/65 67/67/67 54/54/54
f 11/11/11 68/68/68 66/66/66
f 68/68/68 67/67/67 66/66/66
f 11/11/11 4/4/4 68/68/68
f 69/69/69 67/67/67 68/68/68
f 67/67/67 69/69/69 54/54/54
f 4/4/4 70/70/70 68/68/68
f 70/70/70 69/69/69 68/68/68
f 4/4/4 1/1/1 70/70/70
f 69/69/69 71/71/71 54/54/54
f 71/71/71 69/69/69 70/70/70
f 1/1/1 72/72/72 70/70/70
f 72/72/72 71/71/71 70/70/70
f 72/72/72 1/1/1 7/7/7
f 71/71/71 72/72/72 7/7/7
f 71/71/71 73/73/73 54/54/54
f 73/73/73 71/71/71 7/7/7
f 73/73/73 21/21/21 54/54/54
f 21/21/21 73/73/73 7/7/7
