g rockD001_geo
v 7.286801 0.7207615 5.2234654
v 6.667448 1.6215069 2.8384206
v 7.722829 0.8817733 4.1526637
v 5.0885696 2.1721697 0.8435452
v 5.705684 1.8575152 1.4965621
v 5.1370173 1.6269283 1.7506796
v 4.2964745 2.0118463 0.78727937
v 3.3894384 2.579442 -0.21399629
v 4.0172772 3.0435686 -0.31394014
v 2.4405146 2.9574544 -1.148945
v 3.571792 3.4497807 -0.8421371
v 2.966442 3.6916728 -1.3703293
v 2.4246478 3.5663817 -1.8043429
v 2.7647417 1.730875 -0.21781099
v 3.6219182 1.3964293 0.77716583
v 1.3268994 2.835394 -2.0130148
v 1.72299 3.2767704 -2.2383542
v -0.04728053 2.9504204 -3.5028524
v 4.5976386 1.161262 1.6707443
v 6.142249 1.4470541 3.3704011
v 2.2916276 0.96315265 0.03604521
v 3.1215758 0.8250043 1.0606015
v 1.8425152 1.9417764 -1.1548165
v 0.79402715 1.8863821 -2.0032468
v 1.3282324 1.0494376 -0.97967374
v 0.26986212 1.043 -1.8892184
v -0.24982965 2.6225698 -3.0214412
v -0.52954125 1.7526758 -2.903376
v -2.4455025 2.394983 -3.7556186
v -2.9683156 2.9595134 -4.177345
v -0.9681713 0.9832039 -2.6985152
v -2.218811 1.5842881 -3.6119845
v -4.4104996 1.7107501 -4.0093527
v -4.6229706 2.098942 -4.480516
v -6.679808 1.3618401 -4.698349
v -3.725649 1.1111842 -3.5120735
v -2.3181796 0.8898878 -3.3319185
v -6.3763375 0.8962286 -4.106555
v -3.3307066 0.7525621 -3.4480538
v -7.8456674 2.0563601E-07 -4.0800433
v -8.963242 2.0563601E-07 -4.8989987
v -5.303377 0.5622703 -3.548116
v -6.592985 2.0563601E-07 -3.4443479
v -4.2786584 0.40774417 -3.2012973
v -5.637661 2.0563601E-07 -3.0677035
v -3.0218027 0.42051592 -2.9570515
v -4.075905 2.0563601E-07 -2.712518
v -1.4842347 0.44746175 -2.289504
v -1.8141581 -8.940696E-09 -1.873187
v -0.20779748 0.46903884 -1.4882126
v -0.5473248 -8.940696E-09 -1.0682639
v 0.8722522 0.46916896 -0.56033295
v 0.39027438 -5.9604627E-10 -0.2365915
v 2.1428876 2.0563601E-07 1.0960318
v 2.1032274 0.4423008 0.53126067
v 3.0970507 2.0563601E-07 1.9894803
v 3.1253936 0.39272472 1.5727975
v 4.073275 0.3614362 2.8477762
v 4.098625 2.0563601E-07 3.7469118
v 4.1011753 0.7022112 2.0203688
v 4.9416285 0.34277815 4.0908017
v 4.8427362 2.0563601E-07 5.287293
v 5.3403635 0.9684342 3.3458803
v 4.746726 0.71332395 3.1320565
v 6.0316224 0.40670907 5.29023
v 5.890313 2.0563601E-07 6.731095
v 6.731673 0.5637352 5.229153
v 6.3870554 2.0563601E-07 7.330586
v 7.286801 0.7207615 5.2234654
v 7.2561517 2.0563601E-07 8.229823
v 7.722829 0.8817733 4.1526637
v 5.1370173 1.6269283 1.7506796
v 5.705684 1.8575152 1.4965621
v 6.5962663 1.6588682 3.1836903
v 6.142249 1.4470541 3.3704011
v 7.286801 0.7207615 5.2234654
v 7.2561517 2.0563601E-07 8.229823
v 7.722829 0.8817733 4.1526637
v 7.997736 2.2053717E-07 6.84582
v 7.9447074 1.0715485 2.865652
v 8.963271 2.2053717E-07 4.4591904
v 6.326488 1.4767178 1.6760489
v 6.667448 1.6215069 2.8384206
v 7.913532 1.2651268 0.79896694
v 8.95413 2.2053717E-07 1.3423697
v 5.93624 1.6924583 0.6844742
v 6.4699955 1.4846512 -2.1095798
v 8.121535 2.1934508E-07 -2.9909189
v 4.7878046 2.1222875 -1.7061422
v 3.4846106 2.4663756 -3.1542928
v 4.0172772 3.0435686 -0.31394014
v 5.0885696 2.1721697 0.8435452
v 5.705684 1.8575152 1.4965621
v 6.5962663 1.6588682 3.1836903
v 7.286801 0.7207615 5.2234654
v 3.571792 3.4497807 -0.8421371
v 2.966442 3.6916728 -1.3703293
v 2.4246478 3.5663817 -1.8043429
v 1.72299 3.2767704 -2.2383542
v 4.58766 1.6588746 -4.209724
v 5.924773 1.06096266E-07 -5.279905
v 2.109154 2.4482756 -4.5967183
v -0.04728053 2.9504204 -3.5028524
v 2.1658587 1.7088798 -5.897318
v 2.663117 1.5079975E-07 -6.8739986
v 0.04913579 2.336181 -5.549314
v -2.9683156 2.9595134 -4.177345
v -1.0048559 1.7152781 -7.1269674
v -1.1986634 1.2516975E-07 -8.113169
v -3.4443922 2.3084953 -5.0858893
v -4.6229706 2.098942 -4.480516
v -3.9511447 1.4991943 -6.762449
v -3.8119562 2.2053717E-07 -8.229779
v -4.50943 2.0912468 -4.8019857
v -5.6890764 1.360712 -5.6608996
v -7.3494205 2.2053717E-07 -7.432269
v -6.679808 1.3618401 -4.698349
v -8.963242 2.0563601E-07 -4.8989987
vt 0.38964844 0.4753418
vt 0.41503906 0.5317383
vt 0.41870117 0.51123047
vt 0.4099121 0.57958984
vt 0.41479492 0.56591797
vt 0.40356445 0.57421875
vt 0.39941406 0.59033203
vt 0.4038086 0.6191406
vt 0.41333008 0.6142578
vt 0.40673828 0.6381836
vt 0.41333008 0.625
vt 0.41333008 0.63623047
vt 0.41235352 0.6464844
vt 0.38354492 0.62158203
vt 0.3828125 0.59716797
vt 0.40307617 0.6542969
vt 0.4111328 0.6567383
vt 0.40844727 0.69189453
vt 0.3828125 0.5732422
vt 0.3942871 0.52734375
vt 0.36645508 0.62158203
vt 0.36694336 0.59716797
vt 0.38549805 0.64453125
vt 0.38500977 0.6669922
vt 0.36889648 0.64941406
vt 0.36938477 0.67333984
vt 0.40234375 0.6845703
vt 0.38354492 0.6933594
vt 0.39672852 0.7265625
vt 0.40063477 0.73583984
vt 0.36938477 0.6977539
vt 0.37963867 0.7216797
vt 0.3935547 0.7661133
vt 0.40527344 0.77197266
vt 0.39648438 0.80615234
vt 0.37524414 0.7480469
vt 0.36816406 0.72216797
vt 0.38085938 0.80126953
vt 0.3671875 0.7397461
vt 0.3696289 0.83691406
vt 0.3864746 0.8461914
vt 0.3635254 0.77246094
vt 0.34887695 0.7919922
vt 0.35717773 0.75341797
vt 0.34594727 0.77441406
vt 0.35595703 0.73046875
vt 0.34448242 0.74658203
vt 0.35546875 0.7026367
vt 0.34350586 0.7050781
vt 0.3544922 0.67626953
vt 0.3413086 0.6777344
vt 0.3527832 0.64990234
vt 0.3383789 0.6533203
vt 0.3395996 0.60791016
vt 0.35180664 0.6176758
vt 0.33935547 0.58251953
vt 0.35180664 0.58935547
vt 0.35302734 0.5566406
vt 0.33862305 0.53515625
vt 0.36767578 0.57128906
vt 0.3552246 0.52685547
vt 0.34423828 0.49951172
vt 0.37646484 0.5390625
vt 0.36669922 0.54785156
vt 0.36083984 0.49975586
vt 0.3618164 0.46679688
vt 0.37524414 0.48754883
vt 0.37231445 0.44799805
vt 0.38964844 0.4753418
vt 0.38793945 0.41967773
vt 0.41870117 0.51123047
vt 0.40356445 0.57421875
vt 0.41479492 0.56591797
vt 0.40795898 0.52734375
vt 0.3942871 0.52734375
vt 0.38964844 0.4753418
vt 0.38793945 0.41967773
vt 0.41870117 0.51123047
vt 0.42895508 0.48095703
vt 0.43237305 0.5366211
vt 0.44628906 0.5107422
vt 0.42382812 0.5541992
vt 0.41503906 0.5317383
vt 0.44799805 0.56884766
vt 0.46484375 0.55029297
vt 0.42919922 0.57373047
vt 0.46142578 0.61572266
vt 0.48413086 0.60839844
vt 0.4416504 0.6176758
vt 0.4416504 0.64746094
vt 0.41333008 0.6142578
vt 0.4099121 0.57958984
vt 0.41479492 0.56591797
vt 0.40795898 0.52734375
vt 0.38964844 0.4753418
vt 0.41333008 0.625
vt 0.41333008 0.63623047
vt 0.41235352 0.6464844
vt 0.4111328 0.6567383
vt 0.46166992 0.6489258
vt 0.48706055 0.6479492
vt 0.4428711 0.67626953
vt 0.40844727 0.69189453
vt 0.45776367 0.68408203
vt 0.47998047 0.69091797
vt 0.43603516 0.7080078
vt 0.40063477 0.73583984
vt 0.45043945 0.72216797
vt 0.46850586 0.7363281
vt 0.41333008 0.75390625
vt 0.40527344 0.77197266
vt 0.42626953 0.7753906
vt 0.43725586 0.8027344
vt 0.41015625 0.77246094
vt 0.4111328 0.7944336
vt 0.41235352 0.83203125
vt 0.39648438 0.80615234
vt 0.3864746 0.8461914
vn 0.12548828 0.9511719 0.28173828
vn 0.42114258 0.9067383 -0.008491516
vn 0.48461914 0.85253906 0.1953125
vn 0.41748047 0.9003906 0.12347412
vn 0.10479736 0.97753906 0.18261719
vn -0.42456055 0.7910156 0.44091797
vn -0.40576172 0.60546875 0.6845703
vn -0.47070312 0.5253906 0.7089844
vn 0.42407227 0.9008789 0.0927124
vn -0.55859375 0.46020508 0.6899414
vn 0.4387207 0.8984375 -0.018188477
vn 0.2626953 0.95654297 -0.124694824
vn 0.036010742 0.9765625 -0.21289062
vn -0.56640625 0.48510742 0.6660156
vn -0.50341797 0.58447266 0.63623047
vn -0.5498047 0.51953125 0.6542969
vn 0.0046691895 0.984375 -0.1772461
vn -0.027755737 0.9838867 -0.1776123
vn -0.50341797 0.69873047 0.5083008
vn -0.3413086 0.8510742 0.39941406
vn -0.52734375 0.6225586 0.578125
vn -0.48608398 0.68310547 0.54541016
vn -0.58984375 0.4189453 0.6904297
vn -0.56347656 0.38085938 0.73339844
vn -0.52978516 0.5957031 0.6040039
vn -0.49194336 0.59228516 0.6381836
vn -0.41723633 0.48339844 0.76953125
vn -0.45654297 0.3137207 0.83251953
vn -0.26416016 0.44213867 0.8569336
vn -0.10168457 0.98779297 -0.11743164
vn -0.40649414 0.5957031 0.6923828
vn -0.28320312 0.28710938 0.91503906
vn -0.2631836 0.5151367 0.8154297
vn -0.38549805 0.8701172 0.3076172
vn -0.4519043 0.8911133 -0.04525757
vn -0.1508789 0.39990234 0.9042969
vn -0.27978516 0.58984375 0.7578125
vn -0.32641602 0.62597656 0.7080078
vn -0.11315918 0.54296875 0.83203125
vn -0.3955078 0.6425781 0.65625
vn -0.4584961 0.875 -0.15490723
vn -0.22338867 0.57910156 0.7841797
vn -0.27807617 0.6245117 0.7294922
vn -0.13317871 0.64453125 0.7529297
vn -0.18847656 0.7055664 0.68310547
vn -0.21569824 0.7836914 0.58251953
vn -0.17163086 0.75097656 0.6376953
vn -0.30541992 0.77197266 0.5571289
vn -0.27612305 0.78222656 0.55859375
vn -0.40039062 0.7475586 0.53027344
vn -0.38793945 0.7602539 0.5209961
vn -0.44262695 0.73046875 0.52001953
vn -0.4272461 0.7451172 0.51171875
vn -0.48364258 0.68359375 0.546875
vn -0.4716797 0.7011719 0.53466797
vn -0.5839844 0.68115234 0.4416504
vn -0.5136719 0.7084961 0.48388672
vn -0.5493164 0.74853516 0.37158203
vn -0.48291016 0.8256836 0.29223633
vn -0.4580078 0.7763672 0.43286133
vn -0.44506836 0.8364258 0.3190918
vn -0.33447266 0.9121094 0.23791504
vn -0.46826172 0.7915039 0.39233398
vn -0.5107422 0.78808594 0.34375
vn -0.3166504 0.89746094 0.30688477
vn -0.25561523 0.93896484 0.2298584
vn -0.26391602 0.90527344 0.33325195
vn -0.23925781 0.9453125 0.22143555
vn 0.12548828 0.9511719 0.28173828
vn 0.003189087 0.9711914 0.2376709
vn 0.48461914 0.85253906 0.1953125
vn -0.42456055 0.7910156 0.44091797
vn 0.10479736 0.97753906 0.18261719
vn 0.085876465 0.953125 0.29052734
vn -0.3413086 0.8510742 0.39941406
vn 0.12548828 0.9511719 0.28173828
vn 0.003189087 0.9711914 0.2376709
vn 0.48461914 0.85253906 0.1953125
vn 0.41235352 0.8808594 0.23156738
vn 0.59033203 0.8051758 0.053833008
vn 0.6044922 0.7817383 0.15356445
vn 0.27294922 0.9609375 0.04711914
vn 0.42114258 0.9067383 -0.008491516
vn 0.5732422 0.8144531 -0.09124756
vn 0.7182617 0.6894531 -0.09375
vn 0.3474121 0.9375 -0.013298035
vn 0.5019531 0.8310547 -0.23962402
vn 0.60302734 0.7314453 -0.31884766
vn 0.43286133 0.88964844 -0.14501953
vn 0.3557129 0.8779297 -0.32080078
vn 0.42407227 0.9008789 0.0927124
vn 0.41748047 0.9003906 0.12347412
vn 0.10479736 0.97753906 0.18261719
vn 0.085876465 0.953125 0.29052734
vn 0.12548828 0.9511719 0.28173828
vn 0.4387207 0.8984375 -0.018188477
vn 0.2626953 0.95654297 -0.124694824
vn 0.036010742 0.9765625 -0.21289062
vn 0.0046691895 0.984375 -0.1772461
vn 0.4230957 0.7651367 -0.48510742
vn 0.45947266 0.7011719 -0.54541016
vn 0.19702148 0.9042969 -0.37890625
vn -0.027755737 0.9838867 -0.1776123
vn 0.31567383 0.67285156 -0.6689453
vn 0.34423828 0.56396484 -0.7504883
vn 0.054779053 0.91552734 -0.3984375
vn -0.10168457 0.98779297 -0.11743164
vn 0.08282471 0.7314453 -0.6767578
vn 0.11846924 0.5595703 -0.8203125
vn -0.11193848 0.92041016 -0.375
vn -0.38549805 0.8701172 0.3076172
vn -0.15930176 0.80615234 -0.5698242
vn -0.14428711 0.7006836 -0.69873047
vn -0.30517578 0.8911133 -0.33569336
vn -0.31689453 0.8408203 -0.43920898
vn -0.33544922 0.82666016 -0.4519043
vn -0.4519043 0.8911133 -0.04525757
vn -0.4584961 0.875 -0.15490723
g rockD001_geo_0
f 3/3/3 2/2/2 1/1/1
f 6/6/6 5/5/5 4/4/4
f 7/7/7 6/6/6 4/4/4
f 7/7/7 4/4/4 8/8/8
f 4/4/4 9/9/9 8/8/8
f 8/8/8 9/9/9 10/10/10
f 9/9/9 11/11/11 10/10/10
f 11/11/11 12/12/12 10/10/10
f 10/10/10 12/12/12 13/13/13
f 7/7/7 8/8/8 14/14/14
f 14/14/14 8/8/8 10/10/10
f 6/6/6 7/7/7 15/15/15
f 15/15/15 7/7/7 14/14/14
f 10/10/10 13/13/13 16/16/16
f 13/13/13 17/17/17 16/16/16
f 16/16/16 17/17/17 18/18/18
f 19/19/19 6/6/6 15/15/15
f 20/20/20 6/6/6 19/19/19
f 15/15/15 14/14/14 21/21/21
f 19/19/19 15/15/15 22/22/22
f 22/22/22 15/15/15 21/21/21
f 23/23/23 14/14/14 10/10/10
f 10/10/10 16/16/16 24/24/24
f 23/23/23 10/10/10 24/24/24
f 14/14/14 23/23/23 25/25/25
f 21/21/21 14/14/14 25/25/25
f 23/23/23 24/24/24 26/26/26
f 25/25/25 23/23/23 26/26/26
f 27/27/27 16/16/16 18/18/18
f 24/24/24 16/16/16 28/28/28
f 16/16/16 27/27/27 28/28/28
f 27/27/27 18/18/18 29/29/29
f 18/18/18 30/30/30 29/29/29
f 26/26/26 24/24/24 31/31/31
f 24/24/24 28/28/28 31/31/31
f 28/28/28 27/27/27 32/32/32
f 27/27/27 29/29/29 32/32/32
f 29/29/29 30/30/30 33/33/33
f 30/30/30 34/34/34 33/33/33
f 33/33/33 34/34/34 35/35/35
f 29/29/29 33/33/33 36/36/36
f 32/32/32 29/29/29 36/36/36
f 28/28/28 32/32/32 37/37/37
f 31/31/31 28/28/28 37/37/37
f 38/38/38 33/33/33 35/35/35
f 36/36/36 33/33/33 38/38/38
f 32/32/32 36/36/36 39/39/39
f 37/37/37 32/32/32 39/39/39
f 40/40/40 38/38/38 35/35/35
f 41/41/41 40/40/40 35/35/35
f 42/42/42 36/36/36 38/38/38
f 42/42/42 38/38/38 40/40/40
f 39/39/39 36/36/36 42/42/42
f 43/43/43 42/42/42 40/40/40
f 44/44/44 39/39/39 42/42/42
f 44/44/44 42/42/42 43/43/43
f 37/37/37 39/39/39 44/44/44
f 45/45/45 44/44/44 43/43/43
f 46/46/46 37/37/37 44/44/44
f 46/46/46 44/44/44 45/45/45
f 31/31/31 37/37/37 46/46/46
f 47/47/47 46/46/46 45/45/45
f 48/48/48 31/31/31 46/46/46
f 48/48/48 46/46/46 47/47/47
f 26/26/26 31/31/31 48/48/48
f 49/49/49 48/48/48 47/47/47
f 50/50/50 26/26/26 48/48/48
f 50/50/50 48/48/48 49/49/49
f 51/51/51 50/50/50 49/49/49
f 25/25/25 26/26/26 50/50/50
f 52/52/52 50/50/50 51/51/51
f 52/52/52 25/25/25 50/50/50
f 53/53/53 52/52/52 51/51/51
f 53/53/53 54/54/54 52/52/52
f 52/52/52 55/55/55 25/25/25
f 54/54/54 55/55/55 52/52/52
f 55/55/55 21/21/21 25/25/25
f 54/54/54 56/56/56 55/55/55
f 55/55/55 57/57/57 21/21/21
f 56/56/56 57/57/57 55/55/55
f 57/57/57 22/22/22 21/21/21
f 58/58/58 57/57/57 56/56/56
f 59/59/59 58/58/58 56/56/56
f 60/60/60 22/22/22 57/57/57
f 58/58/58 60/60/60 57/57/57
f 60/60/60 19/19/19 22/22/22
f 61/61/61 58/58/58 59/59/59
f 62/62/62 61/61/61 59/59/59
f 63/63/63 19/19/19 60/60/60
f 63/63/63 20/20/20 19/19/19
f 64/64/64 60/60/60 58/58/58
f 61/61/61 64/64/64 58/58/58
f 64/64/64 63/63/63 60/60/60
f 63/63/63 64/64/64 61/61/61
f 65/65/65 61/61/61 62/62/62
f 65/65/65 63/63/63 61/61/61
f 20/20/20 63/63/63 65/65/65
f 66/66/66 65/65/65 62/62/62
f 67/67/67 20/20/20 65/65/65
f 67/67/67 65/65/65 66/66/66
f 68/68/68 67/67/67 66/66/66
f 20/20/20 67/67/67 69/69/69
f 68/68/68 70/70/70 67/67/67
f 70/70/70 69/69/69 67/67/67
f 71/71/71 69/69/69 70/70/70
f 74/74/74 73/73/73 72/72/72
f 75/75/75 74/74/74 72/72/72
f 74/74/74 75/75/75 76/76/76
f 79/79/79 78/78/78 77/77/77
f 78/78/78 79/79/79 80/80/80
f 79/79/79 81/81/81 80/80/80
f 78/78/78 80/80/80 82/82/82
f 83/83/83 78/78/78 82/82/82
f 80/80/80 81/81/81 84/84/84
f 81/81/81 85/85/85 84/84/84
f 82/82/82 80/80/80 86/86/86
f 80/80/80 84/84/84 86/86/86
f 84/84/84 85/85/85 87/87/87
f 85/85/85 88/88/88 87/87/87
f 86/86/86 84/84/84 89/89/89
f 84/84/84 87/87/87 89/89/89
f 89/89/89 87/87/87 90/90/90
f 91/91/91 89/89/89 90/90/90
f 86/86/86 89/89/89 91/91/91
f 92/92/92 86/86/86 91/91/91
f 82/82/82 86/86/86 92/92/92
f 93/93/93 82/82/82 92/92/92
f 83/83/83 82/82/82 93/93/93
f 94/94/94 83/83/83 93/93/93
f 83/83/83 94/94/94 95/95/95
f 96/96/96 91/91/91 90/90/90
f 96/96/96 90/90/90 97/97/97
f 98/98/98 97/97/97 90/90/90
f 98/98/98 90/90/90 99/99/99
f 87/87/87 100/100/100 90/90/90
f 87/87/87 88/88/88 100/100/100
f 88/88/88 101/101/101 100/100/100
f 90/90/90 102/102/102 99/99/99
f 90/90/90 100/100/100 102/102/102
f 99/99/99 102/102/102 103/103/103
f 100/100/100 101/101/101 104/104/104
f 100/100/100 104/104/104 102/102/102
f 101/101/101 105/105/105 104/104/104
f 102/102/102 106/106/106 103/103/103
f 102/102/102 104/104/104 106/106/106
f 103/103/103 106/106/106 107/107/107
f 104/104/104 105/105/105 108/108/108
f 104/104/104 108/108/108 106/106/106
f 105/105/105 109/109/109 108/108/108
f 106/106/106 110/110/110 107/107/107
f 106/106/106 108/108/108 110/110/110
f 107/107/107 110/110/110 111/111/111
f 108/108/108 109/109/109 112/112/112
f 108/108/108 112/112/112 110/110/110
f 109/109/109 113/113/113 112/112/112
f 110/110/110 114/114/114 111/111/111
f 110/110/110 112/112/112 114/114/114
f 112/112/112 113/113/113 115/115/115
f 112/112/112 115/115/115 114/114/114
f 114/114/114 115/115/115 111/111/111
f 113/113/113 116/116/116 115/115/115
f 115/115/115 117/117/117 111/111/111
f 116/116/116 118/118/118 115/115/115
f 118/118/118 117/117/117 115/115/115
