g rockL002_geo
v -1.5579677 0.11350887 0.53592163
v -1.9545726 2.670288E-07 0.8730688
v -2.4041767 -3.8146972E-08 -0.25184324
v -1.8998045 0.095441855 -0.30149657
v -2.5019236 -2.670288E-07 -1.2695935
v -1.0340339 0.12896961 1.2435827
v -0.7986778 0.31314623 0.6978943
v -1.2887355 4.196167E-07 1.6125805
v -0.29506943 0.13791744 1.6764783
v -0.46010664 5.7220456E-07 2.3253248
v -1.9609282 0.078127705 -1.1035913
v -2.2545176 -4.196167E-07 -2.1529784
v 0.5420909 0.15110035 2.2623522
v 0.45618606 0.30363178 1.7437744
v 0.54639024 6.4849854E-07 2.9537327
v 1.2616764 0.15102421 2.249491
v 1.6604393 6.4849854E-07 2.795576
v 1.7610221 0.14213009 1.833601
v 2.155977 5.7220456E-07 2.244569
v -0.23117965 0.3196741 1.2410009
v -0.16862442 0.42662558 0.8276123
v -1.7612327 0.06262905 -1.8175085
v -1.4266695 -6.4849854E-07 -2.8600707
v 1.0272611 0.27969623 1.8495605
v 1.9930034 0.12751208 1.1596167
v 2.5019236 3.4332274E-07 1.369895
v -1.1811693 0.05356464 -2.1954455
v -0.5266206 -5.7220456E-07 -2.9537327
v 1.3657634 0.28133023 1.4989294
v 2.0121763 0.11060909 0.37930176
v 2.4464817 3.8146972E-08 0.31096557
v -0.41898572 0.05152256 -2.2948205
v 0.41236463 -4.959106E-07 -2.5981188
v 1.5486674 0.27246115 0.9427331
v 1.7065067 0.09285 -0.4304773
v 2.1656663 -1.14440915E-07 -0.6317175
v 1.5713432 0.24869956 0.30696166
v 1.1494285 0.3527753 0.74761593
v 1.0179771 0.35380992 1.2285424
v 1.100977 0.076654315 -1.1547216
v 1.4333988 -3.4332274E-07 -1.6376122
v 0.33552077 0.058922842 -1.9704674
v 1.3883463 0.22390021 -0.30118895
v 0.8924406 0.23409641 -0.87809813
v 0.24746414 0.24736415 -1.5397791
v 0.87338364 0.3247075 1.5911437
v 0.403954 0.38162407 1.3092431
v 0.37508315 0.52943814 0.63486207
v -0.41132858 0.24982105 -1.9367003
v 0.47760206 0.5379774 0.27305907
v -0.010095977 0.68269575 -0.18443847
v 0.5110902 0.47345644 -0.14765869
v -0.07591507 0.6618983 0.19738036
v -0.487787 0.5965734 -0.33122924
v -1.002976 0.2455461 -1.922799
v 1.191519 0.31931403 0.22244507
v 1.1802275 0.27218395 -0.21967651
v 0.7322636 0.31964642 -0.630249
v 0.16908431 0.36480752 -1.1743286
v -0.42515028 0.3647743 -1.7375121
v 0.05054489 0.60757107 -0.600664
v -0.88941664 0.32990253 -1.787528
v -0.4150337 0.57242674 -1.1566455
v -1.0434673 0.3899132 -1.4106786
v -0.47396988 0.6050467 -0.74013305
v -1.3802143 0.2705909 -1.589956
v -1.1325911 0.42029056 -0.83712155
v -1.5238756 0.29254624 -0.963258
v -1.1255064 0.41613376 -0.3010339
v -1.4864671 0.29991633 -0.31432495
v -1.0744114 0.37292942 0.12984863
v -1.261926 0.29609242 0.3088391
v -0.6489964 0.41474268 0.226167
vt 0.82373047 0.88378906
vt 0.81347656 0.8701172
vt 0.7783203 0.8852539
vt 0.79785156 0.89501953
vt 0.75927734 0.9042969
vt 0.8544922 0.8779297
vt 0.85595703 0.8935547
vt 0.85009766 0.86621094
vt 0.88964844 0.88183594
vt 0.8925781 0.8652344
vt 0.7832031 0.91064453
vt 0.7558594 0.9267578
vt 0.9301758 0.8833008
vt 0.9194336 0.8930664
vt 0.9399414 0.8691406
vt 0.95751953 0.8959961
vt 0.97998047 0.8911133
vt 0.9711914 0.91308594
vt 0.9916992 0.9111328
vt 0.8857422 0.89160156
vt 0.8823242 0.9013672
vt 0.7807617 0.92871094
vt 0.7792969 0.95654297
vt 0.9428711 0.9003906
vt 0.9711914 0.9316406
vt 0.99365234 0.93603516
vt 0.7988281 0.94677734
vt 0.8149414 0.9746094
vt 0.95166016 0.9135742
vt 0.96191406 0.94873047
vt 0.97802734 0.95751953
vt 0.8286133 0.96240234
vt 0.85839844 0.9838867
vt 0.9511719 0.92871094
vt 0.9394531 0.9609375
vt 0.9550781 0.97314453
vt 0.9433594 0.9423828
vt 0.93310547 0.92578125
vt 0.93408203 0.9135742
vt 0.90527344 0.9658203
vt 0.91259766 0.9819336
vt 0.86376953 0.9692383
vt 0.92822266 0.9526367
vt 0.9008789 0.9560547
vt 0.86572266 0.9584961
vt 0.93359375 0.9033203
vt 0.9116211 0.9013672
vt 0.9008789 0.91503906
vt 0.8339844 0.9550781
vt 0.89990234 0.9243164
vt 0.8745117 0.92578125
vt 0.8955078 0.93408203
vt 0.8774414 0.9165039
vt 0.8535156 0.92041016
vt 0.8100586 0.94433594
vt 0.9277344 0.9379883
vt 0.92089844 0.9472656
vt 0.8979492 0.9477539
vt 0.8676758 0.94970703
vt 0.8359375 0.9506836
vt 0.87109375 0.9355469
vt 0.81640625 0.94384766
vt 0.84472656 0.93896484
vt 0.81591797 0.93310547
vt 0.84814453 0.9291992
vt 0.7993164 0.93066406
vt 0.8203125 0.9194336
vt 0.8027344 0.91503906
vt 0.8286133 0.9086914
vt 0.81396484 0.90234375
vt 0.83691406 0.9003906
vt 0.83203125 0.8935547
vt 0.85498047 0.9057617
vn -0.25732422 0.9560547 0.1418457
vn -0.19677734 0.9741211 0.11218262
vn -0.17993164 0.98291016 0.036224365
vn -0.27612305 0.95947266 0.054595947
vn -0.1361084 0.9902344 -0.02178955
vn -0.20129395 0.95703125 0.20910645
vn -0.2355957 0.9458008 0.22424316
vn -0.16748047 0.96972656 0.1763916
vn -0.17736816 0.95410156 0.24182129
vn -0.13842773 0.9711914 0.19348145
vn -0.24841309 0.96777344 -0.03503418
vn -0.08062744 0.9946289 -0.061065674
vn -0.07861328 0.96875 0.23449707
vn -0.13049316 0.9506836 0.28125
vn -0.04837036 0.97558594 0.21459961
vn 0.080444336 0.97314453 0.21508789
vn 0.09063721 0.9760742 0.19787598
vn 0.21313477 0.9692383 0.121276855
vn 0.19482422 0.97265625 0.12658691
vn -0.19519043 0.94628906 0.25830078
vn -0.1776123 0.95703125 0.2290039
vn -0.15686035 0.9814453 -0.11047363
vn -0.029052734 0.99658203 -0.07696533
vn 0.07672119 0.9707031 0.22680664
vn 0.26000977 0.96533203 0.030792236
vn 0.2401123 0.96972656 0.040374756
vn -0.06713867 0.9819336 -0.1763916
vn 0.006713867 0.99658203 -0.080566406
vn 0.20861816 0.9716797 0.10925293
vn 0.2565918 0.96533203 -0.051239014
vn 0.22351074 0.9736328 -0.04473877
vn 0.0340271 0.98095703 -0.19091797
vn 0.050354004 0.9946289 -0.088256836
vn 0.25512695 0.9667969 0.017120361
vn 0.20568848 0.97021484 -0.12658691
vn 0.15673828 0.98339844 -0.091552734
vn 0.27685547 0.9580078 -0.074645996
vn 0.21923828 0.97558594 0.007621765
vn 0.13586426 0.9848633 0.107299805
vn 0.17956543 0.9692383 -0.16784668
vn 0.09649658 0.99072266 -0.095947266
vn 0.12414551 0.9760742 -0.1776123
vn 0.28100586 0.9423828 -0.1817627
vn 0.2849121 0.92578125 -0.24853516
vn 0.27319336 0.90625 -0.32177734
vn 0.05996704 0.98583984 0.15722656
vn -0.030273438 0.97802734 0.20568848
vn 0.07055664 0.9824219 0.17358398
vn 0.12670898 0.8881836 -0.44140625
vn 0.2626953 0.96484375 -0.0073051453
vn 0.12036133 0.9916992 -0.040527344
vn 0.33007812 0.93359375 -0.14099121
vn -0.15698242 0.9692383 0.1899414
vn -0.2602539 0.9604492 0.0982666
vn -0.14904785 0.88378906 -0.44311523
vn 0.25146484 0.9638672 -0.0871582
vn 0.2409668 0.9609375 -0.13757324
vn 0.3005371 0.9345703 -0.19042969
vn 0.3022461 0.9140625 -0.27026367
vn 0.11590576 0.93408203 -0.33813477
vn 0.2697754 0.94189453 -0.2010498
vn -0.11987305 0.93408203 -0.33666992
vn 0.047821045 0.97021484 -0.2368164
vn -0.2175293 0.9604492 -0.1743164
vn -0.16772461 0.9838867 -0.06359863
vn -0.32641602 0.9194336 -0.21984863
vn -0.27661133 0.95996094 -0.043945312
vn -0.37963867 0.9238281 -0.050354004
vn -0.27001953 0.95947266 0.08062744
vn -0.39404297 0.9160156 0.07696533
vn -0.22094727 0.9604492 0.16967773
vn -0.32348633 0.9272461 0.18835449
vn -0.27661133 0.9379883 0.20812988
g rockL002_geo_0
f 3/3/3 2/2/2 1/1/1
f 4/4/4 3/3/3 1/1/1
f 5/5/5 3/3/3 4/4/4
f 1/1/1 2/2/2 6/6/6
f 1/1/1 6/6/6 7/7/7
f 2/2/2 8/8/8 6/6/6
f 6/6/6 8/8/8 9/9/9
f 6/6/6 9/9/9 7/7/7
f 8/8/8 10/10/10 9/9/9
f 11/11/11 5/5/5 4/4/4
f 12/12/12 5/5/5 11/11/11
f 9/9/9 10/10/10 13/13/13
f 9/9/9 13/13/13 14/14/14
f 10/10/10 15/15/15 13/13/13
f 13/13/13 15/15/15 16/16/16
f 13/13/13 16/16/16 14/14/14
f 15/15/15 17/17/17 16/16/16
f 16/16/16 17/17/17 18/18/18
f 17/17/17 19/19/19 18/18/18
f 9/9/9 20/20/20 7/7/7
f 20/20/20 9/9/9 14/14/14
f 20/20/20 21/21/21 7/7/7
f 21/21/21 20/20/20 14/14/14
f 22/22/22 12/12/12 11/11/11
f 23/23/23 12/12/12 22/22/22
f 16/16/16 24/24/24 14/14/14
f 16/16/16 18/18/18 24/24/24
f 18/18/18 19/19/19 25/25/25
f 19/19/19 26/26/26 25/25/25
f 27/27/27 23/23/23 22/22/22
f 28/28/28 23/23/23 27/27/27
f 18/18/18 29/29/29 24/24/24
f 18/18/18 25/25/25 29/29/29
f 25/25/25 26/26/26 30/30/30
f 26/26/26 31/31/31 30/30/30
f 32/32/32 28/28/28 27/27/27
f 33/33/33 28/28/28 32/32/32
f 25/25/25 34/34/34 29/29/29
f 25/25/25 30/30/30 34/34/34
f 30/30/30 31/31/31 35/35/35
f 31/31/31 36/36/36 35/35/35
f 30/30/30 37/37/37 34/34/34
f 30/30/30 35/35/35 37/37/37
f 34/34/34 38/38/38 29/29/29
f 34/34/34 37/37/37 38/38/38
f 29/29/29 39/39/39 24/24/24
f 38/38/38 39/39/39 29/29/29
f 35/35/35 36/36/36 40/40/40
f 36/36/36 41/41/41 40/40/40
f 41/41/41 33/33/33 42/42/42
f 40/40/40 41/41/41 42/42/42
f 42/42/42 33/33/33 32/32/32
f 35/35/35 40/40/40 43/43/43
f 35/35/35 43/43/43 37/37/37
f 40/40/40 42/42/42 44/44/44
f 40/40/40 44/44/44 43/43/43
f 42/42/42 32/32/32 45/45/45
f 42/42/42 45/45/45 44/44/44
f 39/39/39 46/46/46 24/24/24
f 24/24/24 46/46/46 14/14/14
f 46/46/46 47/47/47 14/14/14
f 47/47/47 21/21/21 14/14/14
f 47/47/47 46/46/46 48/48/48
f 46/46/46 39/39/39 48/48/48
f 21/21/21 47/47/47 48/48/48
f 32/32/32 49/49/49 45/45/45
f 32/32/32 27/27/27 49/49/49
f 48/48/48 39/39/39 50/50/50
f 50/50/50 51/51/51 48/48/48
f 39/39/39 38/38/38 50/50/50
f 50/50/50 38/38/38 52/52/52
f 51/51/51 50/50/50 52/52/52
f 53/53/53 21/21/21 48/48/48
f 51/51/51 53/53/53 48/48/48
f 21/21/21 53/53/53 54/54/54
f 54/54/54 53/53/53 51/51/51
f 27/27/27 55/55/55 49/49/49
f 27/27/27 22/22/22 55/55/55
f 38/38/38 56/56/56 52/52/52
f 37/37/37 56/56/56 38/38/38
f 57/57/57 56/56/56 37/37/37
f 43/43/43 57/57/57 37/37/37
f 56/56/56 57/57/57 58/58/58
f 58/58/58 57/57/57 43/43/43
f 52/52/52 56/56/56 58/58/58
f 44/44/44 58/58/58 43/43/43
f 59/59/59 58/58/58 44/44/44
f 52/52/52 58/58/58 59/59/59
f 45/45/45 59/59/59 44/44/44
f 45/45/45 49/49/49 60/60/60
f 59/59/59 45/45/45 60/60/60
f 61/61/61 52/52/52 59/59/59
f 59/59/59 60/60/60 61/61/61
f 61/61/61 51/51/51 52/52/52
f 60/60/60 49/49/49 62/62/62
f 49/49/49 55/55/55 62/62/62
f 60/60/60 63/63/63 61/61/61
f 61/61/61 63/63/63 51/51/51
f 60/60/60 62/62/62 63/63/63
f 64/64/64 62/62/62 55/55/55
f 62/62/62 64/64/64 63/63/63
f 63/63/63 65/65/65 51/51/51
f 63/63/63 64/64/64 65/65/65
f 65/65/65 54/54/54 51/51/51
f 66/66/66 64/64/64 55/55/55
f 22/22/22 66/66/66 55/55/55
f 22/22/22 11/11/11 66/66/66
f 64/64/64 67/67/67 65/65/65
f 67/67/67 64/64/64 66/66/66
f 65/65/65 67/67/67 54/54/54
f 11/11/11 68/68/68 66/66/66
f 68/68/68 67/67/67 66/66/66
f 11/11/11 4/4/4 68/68/68
f 69/69/69 67/67/67 68/68/68
f 67/67/67 69/69/69 54/54/54
f 4/4/4 70/70/70 68/68/68
f 70/70/70 69/69/69 68/68/68
f 4/4/4 1/1/1 70/70/70
f 69/69/69 71/71/71 54/54/54
f 71/71/71 69/69/69 70/70/70
f 1/1/1 72/72/72 70/70/70
f 72/72/72 71/71/71 70/70/70
f 72/72/72 1/1/1 7/7/7
f 71/71/71 72/72/72 7/7/7
f 71/71/71 73/73/73 54/54/54
f 73/73/73 71/71/71 7/7/7
f 73/73/73 21/21/21 54/54/54
f 21/21/21 73/73/73 7/7/7
