g rockH_geo
v 2.2851105 8.881784E-18 0.15635864
v 1.9211688 0.07196908 0.105667725
v 1.9585613 0.07016419 -0.40250853
v 2.114256 8.881784E-18 0.79067624
v 1.7804345 0.072158836 0.63852537
v 1.3196301 0.36533836 0.1642456
v 1.266532 0.406454 0.36102661
v 1.427926 0.07474673 0.9811328
v 0.9146136 0.9444015 0.20051025
v 1.4140582 0.23390724 -0.27975464
v 1.0501136 0.64221245 0.4594824
v 0.8601996 0.081489235 1.27604
v 0.44574156 1.0785803 0.6923388
v 0.3506732 1.4081918 0.36382812
v 0.07411621 1.4706875 0.42424315
v 0.14524902 1.1215018 0.75945675
v 0.32391173 1.5592418 -0.03394531
v 2.2851105 8.881784E-18 0.15635864
v 1.9585613 0.07016419 -0.40250853
v 2.3339562 8.881784E-18 -0.44545043
v 1.6549926 0.069880165 -1.2219837
v 1.9769049 8.881784E-18 -1.4192053
v 1.307456 0.069241546 -1.6396606
v 1.5590253 8.881784E-18 -1.9200561
v 0.9962396 0.18031769 -1.1638708
v 1.094278 0.20556563 -1.0240979
v 0.82211304 0.071573086 -1.8031274
v 0.97730404 8.881784E-18 -2.110681
v 0.7112597 0.34059036 -1.1732776
v 0.16830932 0.07530056 -1.835548
v 0.20541686 8.881784E-18 -2.1434412
v 0.7043957 0.68881863 -0.8806042
v 0.9615368 0.8928709 -0.17828369
v 0.04237976 0.58926904 -1.1180066
v 0.10833923 1.0533794 -0.7818396
v -0.3823877 0.07508087 -1.7849462
v -0.4497412 8.881784E-18 -2.0796947
v -0.27364683 0.63000935 -1.0730481
v -0.9108667 0.07603793 -1.6320837
v -1.0771588 8.881784E-18 -1.8960253
v -0.58789486 0.6870235 -1.0207934
v -1.1993121 0.5851763 -0.77572876
v -1.4905365 0.07421434 -1.3349633
v -0.46580198 1.0988623 -0.6641382
v -1.0461719 0.86632323 -0.5059839
v -0.17768554 1.128177 -0.7209094
v 0.006568603 1.6169391 0.036538087
v 0.32391173 1.5592418 -0.03394531
v -0.31343567 1.6067938 0.10546753
v -0.96025145 1.1109145 0.24186035
v -0.20430237 1.4660172 0.48229858
v 1.266532 0.406454 0.36102661
v 1.0501136 0.64221245 0.4594824
v 0.9146136 0.9444015 0.20051025
v 0.3506732 1.4081918 0.36382812
v 0.32391173 1.5592418 -0.03394531
v 0.9615368 0.8928709 -0.17828369
v 0.10833923 1.0533794 -0.7818396
v 0.7043957 0.68881863 -0.8806042
v 1.4140582 0.23390724 -0.27975464
v 1.094278 0.20556563 -1.0240979
v 1.9585613 0.07016419 -0.40250853
v 1.6549926 0.069880165 -1.2219837
v 1.9211688 0.07196908 0.105667725
v 1.3196301 0.36533836 0.1642456
v 0.32391173 1.5592418 -0.03394531
v 0.07411621 1.4706875 0.42424315
v 0.006568603 1.6169391 0.036538087
v -0.20430237 1.4660172 0.48229858
v 0.14524902 1.1215018 0.75945675
v -0.15943481 1.1545419 0.8173242
v -0.21516357 0.08175381 1.5047692
v -0.8716821 0.07769319 1.4754089
v -0.8131311 0.901556 0.85805416
v -1.3721979 0.07459013 1.3121899
v 0.3354907 0.08099676 1.4412719
v -0.25398925 8.881784E-18 1.7994946
v 0.44574156 1.0785803 0.6923388
v 0.39902464 8.881784E-18 1.7248291
v 0.8601996 0.081489235 1.27604
v 1.0203942 8.881784E-18 1.5321716
v 1.427926 0.07474673 0.9811328
v 1.6897382 8.881784E-18 1.1920679
v 1.7804345 0.072158836 0.63852537
v 2.114256 8.881784E-18 0.79067624
v -0.20430237 1.4660172 0.48229858
v -0.96025145 1.1109145 0.24186035
v -0.31343567 1.6067938 0.10546753
v -0.7934503 1.1575255 0.56875366
v -0.15943481 1.1545419 0.8173242
v -0.8131311 0.901556 0.85805416
v -1.2023492 0.64124 0.7062622
v -1.4495447 0.52253735 0.344635
v -1.0461719 0.86632323 -0.5059839
v -1.1027466 0.6574226 0.8424756
v -1.3721979 0.07459013 1.3121899
v -1.7400128 0.07427967 0.898313
v -1.4484198 0.5048328 -0.47611937
v -1.1993121 0.5851763 -0.77572876
v -1.9577465 0.072948575 0.44711792
v -2.0162854 0.072836615 -0.43489745
v -2.0514166 8.881784E-18 1.089541
v -1.6153625 8.881784E-18 1.5795422
v -2.3092272 8.881784E-18 0.56100583
v -0.8716821 0.07769319 1.4754089
v -2.3807886 8.881784E-18 -0.48038816
v -1.0244135 8.881784E-18 1.7669665
v -0.21516357 0.08175381 1.5047692
v -0.25398925 8.881784E-18 1.7994946
v -2.1955597 8.881784E-18 -1.1272057
v -1.8586162 0.0731149 -0.9795337
v -1.7586474 8.881784E-18 -1.5464063
v -1.3996216 0.49431476 -0.66705686
v -1.4905365 0.07421434 -1.3349633
v -1.0771588 8.881784E-18 -1.8960253
v -0.9108667 0.07603793 -1.6320837
vt 0.39941406 0.30859375
vt 0.38867188 0.3100586
vt 0.38989258 0.32495117
vt 0.39453125 0.28979492
vt 0.38452148 0.2944336
vt 0.37109375 0.3083496
vt 0.3696289 0.30249023
vt 0.37402344 0.28442383
vt 0.359375 0.3071289
vt 0.37402344 0.32128906
vt 0.36328125 0.29956055
vt 0.35742188 0.27612305
vt 0.34545898 0.2927246
vt 0.34277344 0.30249023
vt 0.3347168 0.3005371
vt 0.33666992 0.29077148
vt 0.34204102 0.31396484
vt 0.39941406 0.30859375
vt 0.38989258 0.32495117
vt 0.4008789 0.32617188
vt 0.38085938 0.34887695
vt 0.39038086 0.35473633
vt 0.3708496 0.36108398
vt 0.37817383 0.36938477
vt 0.36157227 0.34716797
vt 0.36450195 0.34301758
vt 0.3564453 0.36572266
vt 0.36108398 0.375
vt 0.35327148 0.3474121
vt 0.33740234 0.36669922
vt 0.3383789 0.37597656
vt 0.35302734 0.3388672
vt 0.3605957 0.31835938
vt 0.33374023 0.34594727
vt 0.33569336 0.3359375
vt 0.32128906 0.36523438
vt 0.31933594 0.37402344
vt 0.3244629 0.34448242
vt 0.3059082 0.3605957
vt 0.30078125 0.36865234
vt 0.31518555 0.34301758
vt 0.29736328 0.33569336
vt 0.28881836 0.35205078
vt 0.31884766 0.33251953
vt 0.3017578 0.32788086
vt 0.32714844 0.33422852
vt 0.33276367 0.31201172
vt 0.34204102 0.31396484
vt 0.3232422 0.3100586
vt 0.30444336 0.3059082
vt 0.32641602 0.29882812
vt 0.3696289 0.30249023
vt 0.36328125 0.29956055
vt 0.359375 0.3071289
vt 0.34277344 0.30249023
vt 0.34204102 0.31396484
vt 0.3605957 0.31835938
vt 0.33569336 0.3359375
vt 0.35302734 0.3388672
vt 0.37402344 0.32128906
vt 0.36450195 0.34301758
vt 0.38989258 0.32495117
vt 0.38085938 0.34887695
vt 0.38867188 0.3100586
vt 0.37109375 0.3083496
vt 0.34204102 0.31396484
vt 0.3347168 0.3005371
vt 0.33276367 0.31201172
vt 0.32641602 0.29882812
vt 0.33666992 0.29077148
vt 0.32788086 0.2890625
vt 0.32617188 0.2692871
vt 0.3071289 0.27026367
vt 0.30859375 0.2878418
vt 0.29248047 0.27490234
vt 0.34228516 0.27124023
vt 0.32495117 0.2602539
vt 0.34545898 0.2927246
vt 0.34423828 0.26245117
vt 0.35742188 0.27612305
vt 0.3623047 0.2680664
vt 0.37402344 0.28442383
vt 0.38208008 0.27807617
vt 0.38452148 0.2944336
vt 0.39453125 0.28979492
vt 0.32641602 0.29882812
vt 0.30444336 0.3059082
vt 0.3232422 0.3100586
vt 0.30932617 0.29638672
vt 0.32788086 0.2890625
vt 0.30859375 0.2878418
vt 0.29711914 0.29248047
vt 0.29003906 0.30297852
vt 0.3017578 0.32788086
vt 0.30004883 0.28833008
vt 0.29248047 0.27490234
vt 0.28173828 0.28686523
vt 0.29003906 0.32714844
vt 0.29736328 0.33569336
vt 0.27539062 0.30004883
vt 0.27368164 0.3256836
vt 0.27246094 0.28125
vt 0.28515625 0.2668457
vt 0.26489258 0.29663086
vt 0.3071289 0.27026367
vt 0.2626953 0.32714844
vt 0.30249023 0.26123047
vt 0.32617188 0.2692871
vt 0.32495117 0.2602539
vt 0.2680664 0.3461914
vt 0.27807617 0.34155273
vt 0.28100586 0.35839844
vt 0.2915039 0.33251953
vt 0.28881836 0.35205078
vt 0.30078125 0.36865234
vt 0.3059082 0.3605957
vn 0.18835449 0.9814453 0.0317688
vn 0.3046875 0.9526367 0.0047454834
vn 0.22912598 0.9707031 -0.06939697
vn 0.17199707 0.98095703 0.09210205
vn 0.3413086 0.9291992 0.14123535
vn 0.63720703 0.77001953 0.031555176
vn 0.5878906 0.7836914 0.20092773
vn 0.40039062 0.82421875 0.40014648
vn 0.72216797 0.65722656 0.21520996
vn 0.51464844 0.83740234 -0.18371582
vn 0.57177734 0.66845703 0.47558594
vn 0.33764648 0.7470703 0.5727539
vn 0.42163086 0.6323242 0.64990234
vn 0.55615234 0.75683594 0.34301758
vn 0.19116211 0.8383789 0.5107422
vn 0.19750977 0.58935547 0.7832031
vn 0.45263672 0.8330078 -0.31884766
vn 0.18835449 0.9814453 0.0317688
vn 0.22912598 0.9707031 -0.06939697
vn 0.18029785 0.98291016 -0.035491943
vn 0.18676758 0.9770508 -0.10394287
vn 0.16137695 0.98339844 -0.08569336
vn 0.14709473 0.9736328 -0.1739502
vn 0.109375 0.98291016 -0.14770508
vn 0.27026367 0.9140625 -0.30273438
vn 0.4572754 0.8408203 -0.28955078
vn 0.12683105 0.93652344 -0.32714844
vn 0.042266846 0.97753906 -0.20666504
vn 0.22338867 0.81347656 -0.5371094
vn 0.05758667 0.8989258 -0.43481445
vn -0.0015954971 0.97216797 -0.23339844
vn 0.5078125 0.6611328 -0.5522461
vn 0.671875 0.6791992 -0.2956543
vn 0.08343506 0.75 -0.65625
vn 0.29882812 0.71875 -0.6279297
vn -0.05947876 0.86572266 -0.49658203
vn -0.04562378 0.97021484 -0.23754883
vn -0.06890869 0.7314453 -0.67871094
vn -0.19519043 0.8515625 -0.48657227
vn -0.09222412 0.9716797 -0.21850586
vn -0.25 0.73876953 -0.62597656
vn -0.3972168 0.7529297 -0.52441406
vn -0.28442383 0.8666992 -0.40966797
vn -0.39086914 0.78515625 -0.4807129
vn -0.59521484 0.74560547 -0.2993164
vn -0.058135986 0.7680664 -0.6376953
vn 0.013847351 0.9550781 -0.29589844
vn 0.45263672 0.8330078 -0.31884766
vn -0.40307617 0.89941406 -0.1685791
vn -0.64453125 0.7631836 -0.046875
vn -0.21948242 0.8364258 0.5019531
vn 0.5878906 0.7836914 0.20092773
vn 0.57177734 0.66845703 0.47558594
vn 0.72216797 0.65722656 0.21520996
vn 0.55615234 0.75683594 0.34301758
vn 0.45263672 0.8330078 -0.31884766
vn 0.671875 0.6791992 -0.2956543
vn 0.29882812 0.71875 -0.6279297
vn 0.5078125 0.6611328 -0.5522461
vn 0.51464844 0.83740234 -0.18371582
vn 0.4572754 0.8408203 -0.28955078
vn 0.22912598 0.9707031 -0.06939697
vn 0.18676758 0.9770508 -0.10394287
vn 0.3046875 0.9526367 0.0047454834
vn 0.63720703 0.77001953 0.031555176
vn 0.45263672 0.8330078 -0.31884766
vn 0.19116211 0.8383789 0.5107422
vn 0.013847351 0.9550781 -0.29589844
vn -0.21948242 0.8364258 0.5019531
vn 0.19750977 0.58935547 0.7832031
vn -0.022445679 0.6118164 0.79052734
vn -0.0033245087 0.69384766 0.71972656
vn -0.14746094 0.7397461 0.6567383
vn -0.21862793 0.61572266 0.75683594
vn -0.31225586 0.84521484 0.4338379
vn 0.16552734 0.7001953 0.6948242
vn 0.0042533875 0.96484375 0.2626953
vn 0.42163086 0.6323242 0.64990234
vn 0.055877686 0.9628906 0.2631836
vn 0.33764648 0.7470703 0.5727539
vn 0.10235596 0.9667969 0.23364258
vn 0.40039062 0.82421875 0.40014648
vn 0.13476562 0.9741211 0.18139648
vn 0.3413086 0.9291992 0.14123535
vn 0.17199707 0.98095703 0.09210205
vn -0.21948242 0.8364258 0.5019531
vn -0.64453125 0.7631836 -0.046875
vn -0.40307617 0.89941406 -0.1685791
vn -0.4831543 0.75390625 0.4453125
vn -0.022445679 0.6118164 0.79052734
vn -0.21862793 0.61572266 0.75683594
vn -0.64501953 0.6772461 0.35351562
vn -0.67822266 0.73046875 0.08074951
vn -0.59521484 0.74560547 -0.2993164
vn -0.46801758 0.6484375 0.60009766
vn -0.31225586 0.84521484 0.4338379
vn -0.43408203 0.8652344 0.25048828
vn -0.66552734 0.7426758 -0.07598877
vn -0.3972168 0.7529297 -0.52441406
vn -0.46264648 0.8833008 0.07537842
vn -0.44702148 0.89404297 -0.027496338
vn -0.16491699 0.97998047 0.1104126
vn -0.119506836 0.9785156 0.16711426
vn -0.1907959 0.98095703 0.04083252
vn -0.14746094 0.7397461 0.6567383
vn -0.19470215 0.98095703 -0.013702393
vn -0.04699707 0.9711914 0.23339844
vn -0.0033245087 0.69384766 0.71972656
vn 0.0042533875 0.96484375 0.2626953
vn -0.17236328 0.98046875 -0.09442139
vn -0.3569336 0.91064453 -0.20898438
vn -0.1303711 0.97558594 -0.17700195
vn -0.5488281 0.7739258 -0.3161621
vn -0.28442383 0.8666992 -0.40966797
vn -0.09222412 0.9716797 -0.21850586
vn -0.19519043 0.8515625 -0.48657227
g rockH_geo_0
f 3/3/3 2/2/2 1/1/1
f 1/1/1 2/2/2 4/4/4
f 2/2/2 5/5/5 4/4/4
f 2/2/2 6/6/6 5/5/5
f 6/6/6 7/7/7 5/5/5
f 5/5/5 7/7/7 8/8/8
f 6/6/6 9/9/9 7/7/7
f 6/6/6 10/10/10 9/9/9
f 7/7/7 11/11/11 8/8/8
f 8/8/8 11/11/11 12/12/12
f 11/11/11 13/13/13 12/12/12
f 14/14/14 13/13/13 11/11/11
f 14/14/14 15/15/15 13/13/13
f 15/15/15 16/16/16 13/13/13
f 15/15/15 14/14/14 17/17/17
f 20/20/20 19/19/19 18/18/18
f 21/21/21 19/19/19 20/20/20
f 22/22/22 21/21/21 20/20/20
f 23/23/23 21/21/21 22/22/22
f 24/24/24 23/23/23 22/22/22
f 23/23/23 25/25/25 21/21/21
f 25/25/25 26/26/26 21/21/21
f 23/23/23 24/24/24 27/27/27
f 23/23/23 27/27/27 25/25/25
f 24/24/24 28/28/28 27/27/27
f 25/25/25 29/29/29 26/26/26
f 27/27/27 29/29/29 25/25/25
f 30/30/30 27/27/27 28/28/28
f 31/31/31 30/30/30 28/28/28
f 29/29/29 32/32/32 26/26/26
f 26/26/26 32/32/32 33/33/33
f 34/34/34 29/29/29 27/27/27
f 29/29/29 34/34/34 32/32/32
f 30/30/30 34/34/34 27/27/27
f 34/34/34 35/35/35 32/32/32
f 36/36/36 30/30/30 31/31/31
f 37/37/37 36/36/36 31/31/31
f 38/38/38 34/34/34 30/30/30
f 34/34/34 38/38/38 35/35/35
f 36/36/36 38/38/38 30/30/30
f 36/36/36 37/37/37 39/39/39
f 37/37/37 40/40/40 39/39/39
f 36/36/36 39/39/39 41/41/41
f 38/38/38 36/36/36 41/41/41
f 42/42/42 41/41/41 39/39/39
f 43/43/43 42/42/42 39/39/39
f 41/41/41 42/42/42 44/44/44
f 38/38/38 41/41/41 44/44/44
f 42/42/42 45/45/45 44/44/44
f 38/38/38 46/46/46 35/35/35
f 46/46/46 38/38/38 44/44/44
f 35/35/35 46/46/46 47/47/47
f 47/47/47 46/46/46 44/44/44
f 48/48/48 35/35/35 47/47/47
f 49/49/49 44/44/44 45/45/45
f 49/49/49 47/47/47 44/44/44
f 50/50/50 49/49/49 45/45/45
f 47/47/47 49/49/49 51/51/51
f 54/54/54 53/53/53 52/52/52
f 54/54/54 55/55/55 53/53/53
f 56/56/56 55/55/55 54/54/54
f 57/57/57 56/56/56 54/54/54
f 56/56/56 57/57/57 58/58/58
f 57/57/57 59/59/59 58/58/58
f 60/60/60 57/57/57 54/54/54
f 60/60/60 61/61/61 57/57/57
f 61/61/61 60/60/60 62/62/62
f 63/63/63 61/61/61 62/62/62
f 62/62/62 60/60/60 64/64/64
f 60/60/60 65/65/65 64/64/64
f 68/68/68 67/67/67 66/66/66
f 67/67/67 68/68/68 69/69/69
f 67/67/67 69/69/69 70/70/70
f 69/69/69 71/71/71 70/70/70
f 70/70/70 71/71/71 72/72/72
f 72/72/72 71/71/71 73/73/73
f 71/71/71 74/74/74 73/73/73
f 75/75/75 73/73/73 74/74/74
f 76/76/76 70/70/70 72/72/72
f 76/76/76 72/72/72 77/77/77
f 70/70/70 76/76/76 78/78/78
f 79/79/79 76/76/76 77/77/77
f 76/76/76 80/80/80 78/78/78
f 76/76/76 79/79/79 80/80/80
f 79/79/79 81/81/81 80/80/80
f 82/82/82 80/80/80 81/81/81
f 83/83/83 82/82/82 81/81/81
f 84/84/84 82/82/82 83/83/83
f 85/85/85 84/84/84 83/83/83
f 88/88/88 87/87/87 86/86/86
f 87/87/87 89/89/89 86/86/86
f 86/86/86 89/89/89 90/90/90
f 89/89/89 91/91/91 90/90/90
f 92/92/92 89/89/89 87/87/87
f 89/89/89 92/92/92 91/91/91
f 93/93/93 92/92/92 87/87/87
f 93/93/93 87/87/87 94/94/94
f 92/92/92 95/95/95 91/91/91
f 95/95/95 96/96/96 91/91/91
f 95/95/95 92/92/92 97/97/97
f 96/96/96 95/95/95 97/97/97
f 98/98/98 93/93/93 94/94/94
f 94/94/94 99/99/99 98/98/98
f 93/93/93 100/100/100 92/92/92
f 100/100/100 97/97/97 92/92/92
f 98/98/98 101/101/101 93/93/93
f 101/101/101 100/100/100 93/93/93
f 96/96/96 97/97/97 102/102/102
f 103/103/103 96/96/96 102/102/102
f 104/104/104 102/102/102 97/97/97
f 100/100/100 104/104/104 97/97/97
f 96/96/96 103/103/103 105/105/105
f 106/106/106 104/104/104 100/100/100
f 101/101/101 106/106/106 100/100/100
f 103/103/103 107/107/107 105/105/105
f 108/108/108 105/105/105 107/107/107
f 109/109/109 108/108/108 107/107/107
f 106/106/106 101/101/101 110/110/110
f 101/101/101 111/111/111 110/110/110
f 101/101/101 98/98/98 111/111/111
f 112/112/112 110/110/110 111/111/111
f 98/98/98 113/113/113 111/111/111
f 99/99/99 113/113/113 98/98/98
f 111/111/111 113/113/113 99/99/99
f 114/114/114 111/111/111 99/99/99
f 114/114/114 112/112/112 111/111/111
f 112/112/112 114/114/114 115/115/115
f 114/114/114 116/116/116 115/115/115
