g shaftBall
v 0.013726704 -0.82265645 -0.0137270475
v 0.052150268 -0.24459623 -1.0189453E-14
v 0.036875606 -0.24459653 -0.036875915
v 0.019412793 -0.82265615 -6.164451E-08
v -6.1035155E-07 -1.3360184 -1.525879E-07
v 0.036875606 -0.24459653 -0.036875915
v -6.1035155E-07 -0.24459653 -0.052150495
v -2.5142205E-07 -0.82265645 -0.019413013
v 0.013726704 -0.82265645 -0.0137270475
v -6.1035155E-07 -1.3360184 -1.525879E-07
v -6.1035155E-07 -0.24459653 -0.052150495
v -0.03687683 -0.24459653 -0.036876146
v -0.013727314 -0.82265645 -0.0137270475
v -2.5142205E-07 -0.82265645 -0.019413013
v -6.1035155E-07 -1.3360184 -1.525879E-07
v -0.03687683 -0.24459653 -0.036876146
v -0.05215088 -0.24459593 -1.0189453E-14
v -0.019413168 -0.82265645 -6.164451E-08
v -0.013727314 -0.82265645 -0.0137270475
v -6.1035155E-07 -1.3360184 -1.525879E-07
v -0.05215088 -0.24459593 -1.0189453E-14
v -0.03687622 -0.24459623 0.036876068
v -0.013727185 -0.82265615 0.013727031
v -0.019413168 -0.82265645 -6.164451E-08
v -6.1035155E-07 -1.3360184 -1.525879E-07
v -0.03687622 -0.24459623 0.036876068
v 1.38360325E-14 -0.24459623 0.05215042
v -2.5142205E-07 -0.82265645 0.019412922
v -0.013727185 -0.82265615 0.013727031
v -6.1035155E-07 -1.3360184 -1.525879E-07
v 1.38360325E-14 -0.24459623 0.05215042
v 0.036875606 -0.24459653 0.036875915
v 0.013726468 -0.82265645 0.013727092
v -2.5142205E-07 -0.82265645 0.019412922
v -6.1035155E-07 -1.3360184 -1.525879E-07
v 0.036875606 -0.24459653 0.036875915
v 0.052150268 -0.24459623 -1.0189453E-14
v 0.019412793 -0.82265615 -6.164451E-08
v 0.013726468 -0.82265645 0.013727092
v -6.1035155E-07 -1.3360184 -1.525879E-07
v 0.036875606 -0.24459653 -0.036875915
v 0.037410583 1.2578621E-08 -0.037410278
v 9.573807E-15 1.2578621E-08 -0.05290619
v -6.1035155E-07 -0.24459653 -0.052150495
v -6.1035155E-07 -0.24459653 -0.052150495
v 9.573807E-15 1.2578621E-08 -0.05290619
v -0.037410583 1.2578621E-08 -0.03741043
v -0.03687683 -0.24459653 -0.036876146
v -0.03687683 -0.24459653 -0.036876146
v -0.037410583 1.2578621E-08 -0.03741043
v -0.052906495 1.2578621E-08 -2.2888185E-07
v -0.05215088 -0.24459593 -1.0189453E-14
v -0.05215088 -0.24459593 -1.0189453E-14
v -0.052906495 1.2578621E-08 -2.2888185E-07
v -0.0374115 1.2578621E-08 0.037410356
v -0.03687622 -0.24459623 0.036876068
v -0.03687622 -0.24459623 0.036876068
v -0.0374115 1.2578621E-08 0.037410356
v 9.572376E-15 1.2578621E-08 0.05290634
v 1.38360325E-14 -0.24459623 0.05215042
v 1.38360325E-14 -0.24459623 0.05215042
v 9.572376E-15 1.2578621E-08 0.05290634
v 0.037409667 1.2578621E-08 0.0374102
v 0.036875606 -0.24459653 0.036875915
v 0.036875606 -0.24459653 0.036875915
v 0.037409667 1.2578621E-08 0.0374102
v 0.052905273 1.2578621E-08 -9.918136E-15
v 0.052150268 -0.24459623 -1.0189453E-14
v 0.052150268 -0.24459623 -1.0189453E-14
v 0.052905273 1.2578621E-08 -9.918136E-15
v 0.037410583 1.2578621E-08 -0.037410278
v 0.036875606 -0.24459653 -0.036875915
v 0.013726704 0.82265645 -0.0137270475
v 0.036875606 0.24459657 -0.036875915
v 0.052150268 0.24459627 -1.0175545E-14
v 0.019412793 0.82265615 -6.164451E-08
v -6.1035155E-07 1.3360187 -1.525879E-07
v 0.036875606 0.24459657 -0.036875915
v -2.5142205E-07 0.82265645 -0.019413013
v -6.1035155E-07 0.24459657 -0.052150495
v 0.013726704 0.82265645 -0.0137270475
v -6.1035155E-07 1.3360187 -1.525879E-07
v -6.1035155E-07 0.24459657 -0.052150495
v -0.013727314 0.82265645 -0.0137270475
v -0.03687683 0.24459657 -0.036876146
v -2.5142205E-07 0.82265645 -0.019413013
v -6.1035155E-07 1.3360187 -1.525879E-07
v -0.03687683 0.24459657 -0.036876146
v -0.019413168 0.82265645 -6.164451E-08
v -0.05215088 0.24459596 -1.0189291E-14
v -0.013727314 0.82265645 -0.0137270475
v -6.1035155E-07 1.3360187 -1.525879E-07
v -0.05215088 0.24459596 -1.0189291E-14
v -0.013727185 0.82265615 0.013727031
v -0.03687622 0.24459627 0.036876068
v -0.019413168 0.82265645 -6.164451E-08
v -6.1035155E-07 1.3360187 -1.525879E-07
v -0.03687622 0.24459627 0.036876068
v -2.5142205E-07 0.82265645 0.019412922
v 1.3837135E-14 0.24459627 0.05215042
v -0.013727185 0.82265615 0.013727031
v -6.1035155E-07 1.3360187 -1.525879E-07
v 1.3837135E-14 0.24459627 0.05215042
v 0.013726468 0.82265645 0.013727092
v 0.036875606 0.24459657 0.036875915
v -2.5142205E-07 0.82265645 0.019412922
v -6.1035155E-07 1.3360187 -1.525879E-07
v 0.036875606 0.24459657 0.036875915
v 0.019412793 0.82265615 -6.164451E-08
v 0.052150268 0.24459627 -1.0175545E-14
v 0.013726468 0.82265645 0.013727092
v -6.1035155E-07 1.3360187 -1.525879E-07
v 0.036875606 0.24459657 -0.036875915
v -6.1035155E-07 0.24459657 -0.052150495
v 9.573807E-15 1.2578621E-08 -0.05290619
v 0.037410583 1.2578621E-08 -0.037410278
v -6.1035155E-07 0.24459657 -0.052150495
v -0.03687683 0.24459657 -0.036876146
v -0.037410583 1.2578621E-08 -0.03741043
v 9.573807E-15 1.2578621E-08 -0.05290619
v -0.03687683 0.24459657 -0.036876146
v -0.05215088 0.24459596 -1.0189291E-14
v -0.052906495 1.2578621E-08 -2.2888185E-07
v -0.037410583 1.2578621E-08 -0.03741043
v -0.05215088 0.24459596 -1.0189291E-14
v -0.03687622 0.24459627 0.036876068
v -0.0374115 1.2578621E-08 0.037410356
v -0.052906495 1.2578621E-08 -2.2888185E-07
v -0.03687622 0.24459627 0.036876068
v 1.3837135E-14 0.24459627 0.05215042
v 9.572376E-15 1.2578621E-08 0.05290634
v -0.0374115 1.2578621E-08 0.037410356
v 1.3837135E-14 0.24459627 0.05215042
v 0.036875606 0.24459657 0.036875915
v 0.037409667 1.2578621E-08 0.0374102
v 9.572376E-15 1.2578621E-08 0.05290634
v 0.036875606 0.24459657 0.036875915
v 0.052150268 0.24459627 -1.0175545E-14
v 0.052905273 1.2578621E-08 -9.918136E-15
v 0.037409667 1.2578621E-08 0.0374102
v 0.052150268 0.24459627 -1.0175545E-14
v 0.036875606 0.24459657 -0.036875915
v 0.037410583 1.2578621E-08 -0.037410278
v 0.052905273 1.2578621E-08 -9.918136E-15
vt 0.99658203 0.28833008
vt 0.8779297 0.33325195
vt 0.9970703 0.33325195
vt 0.87841797 0.28833008
vt 0.9375 -0.4633789
vt 0.0031280518 0.33325195
vt 0.12188721 0.33325195
vt 0.12145996 0.28833008
vt 0.0035324097 0.28833008
vt 0.0625 -0.4633789
vt 0.12817383 0.33325195
vt 0.24682617 0.33325195
vt 0.24645996 0.28833008
vt 0.12854004 0.28833008
vt 0.1875 -0.4633789
vt 0.25317383 0.33325195
vt 0.37182617 0.33325195
vt 0.37158203 0.28833008
vt 0.25341797 0.28833008
vt 0.3125 -0.4633789
vt 0.37817383 0.33325195
vt 0.49682617 0.33325195
vt 0.49658203 0.28833008
vt 0.37841797 0.28833008
vt 0.4375 -0.4633789
vt 0.5029297 0.33325195
vt 0.6220703 0.33325195
vt 0.62158203 0.28833008
vt 0.50341797 0.28833008
vt 0.5625 -0.4633789
vt 0.6279297 0.33325195
vt 0.7470703 0.33325195
vt 0.74658203 0.28833008
vt 0.62841797 0.28833008
vt 0.6875 -0.4633789
vt 0.7529297 0.33325195
vt 0.8720703 0.33325195
vt 0.87158203 0.28833008
vt 0.75341797 0.28833008
vt 0.8125 -0.4633789
vt 0 0.19995117
vt 0 1
vt 1 1
vt 1 0.19995117
vt 4.529953E-06 0.19995117
vt 0 1
vt 1 1
vt 1 0.19995117
vt 0 0.19995117
vt 0 1
vt 1 1
vt 1 0.19995117
vt 0 0.19995117
vt 0 1
vt 1 1
vt 1 0.19995117
vt 0 0.19995117
vt 0 1
vt 1 1
vt 1 0.19995117
vt 0 0.19995117
vt 0 1
vt 1 1
vt 1 0.19995117
vt 0 0.19995117
vt 4.7683716E-07 1
vt 1 1
vt 1 0.19995117
vt 4.529953E-06 0.19995117
vt 2.9206276E-06 1
vt 1 1
vt 1 0.19995117
vt 0.99658203 0.28833008
vt 0.9970703 0.33325195
vt 0.8779297 0.33325195
vt 0.87841797 0.28833008
vt 0.9375 -0.4633789
vt 0.0031280518 0.33325195
vt 0.12145996 0.28833008
vt 0.12188721 0.33325195
vt 0.0035324097 0.28833008
vt 0.0625 -0.4633789
vt 0.12817383 0.33325195
vt 0.24645996 0.28833008
vt 0.24682617 0.33325195
vt 0.12854004 0.28833008
vt 0.1875 -0.4633789
vt 0.25317383 0.33325195
vt 0.37158203 0.28833008
vt 0.37182617 0.33325195
vt 0.25341797 0.28833008
vt 0.3125 -0.4633789
vt 0.37817383 0.33325195
vt 0.49658203 0.28833008
vt 0.49682617 0.33325195
vt 0.37841797 0.28833008
vt 0.4375 -0.4633789
vt 0.5029297 0.33325195
vt 0.62158203 0.28833008
vt 0.6220703 0.33325195
vt 0.50341797 0.28833008
vt 0.5625 -0.4633789
vt 0.6279297 0.33325195
vt 0.74658203 0.28833008
vt 0.7470703 0.33325195
vt 0.62841797 0.28833008
vt 0.6875 -0.4633789
vt 0.7529297 0.33325195
vt 0.87158203 0.28833008
vt 0.8720703 0.33325195
vt 0.75341797 0.28833008
vt 0.8125 -0.4633789
vt 0 0.19995117
vt 1 0.19995117
vt 1 1
vt 0 1
vt 4.529953E-06 0.19995117
vt 1 0.19995117
vt 1 1
vt 0 1
vt 0 0.19995117
vt 1 0.19995117
vt 1 1
vt 0 1
vt 0 0.19995117
vt 1 0.19995117
vt 1 1
vt 0 1
vt 0 0.19995117
vt 1 0.19995117
vt 1 1
vt 0 1
vt 0 0.19995117
vt 1 0.19995117
vt 1 1
vt 0 1
vt 0 0.19995117
vt 1 0.19995117
vt 1 1
vt 4.7683716E-07 1
vt 4.529953E-06 0.19995117
vt 1 0.19995117
vt 1 1
vt 2.9206276E-06 1
vn 0.7060547 -0.052978516 -0.7060547
vn 0.9995117 -0.03591919 3.8146973E-06
vn 0.70654297 -0.03591919 -0.70654297
vn 0.99853516 -0.052978516 3.5762787E-06
vn -9.7453594E-05 -1 0.00043416023
vn 0.70654297 -0.03591919 -0.70654297
vn 2.0861626E-06 -0.03591919 -0.9995117
vn 2.026558E-06 -0.052978516 -0.99853516
vn 0.7060547 -0.052978516 -0.7060547
vn -9.7453594E-05 -1 0.00043416023
vn 2.0861626E-06 -0.03591919 -0.9995117
vn -0.70654297 -0.03591919 -0.70654297
vn -0.7060547 -0.052978516 -0.7060547
vn 2.026558E-06 -0.052978516 -0.99853516
vn -9.7453594E-05 -1 0.00043416023
vn -0.70654297 -0.03591919 -0.70654297
vn -0.9995117 -0.03591919 4.1127205E-06
vn -0.99853516 -0.052978516 5.3048134E-06
vn -0.7060547 -0.052978516 -0.7060547
vn -9.7453594E-05 -1 0.00043416023
vn -0.9995117 -0.03591919 4.1127205E-06
vn -0.70654297 -0.03591919 0.70654297
vn -0.7060547 -0.052978516 0.7060547
vn -0.99853516 -0.052978516 5.3048134E-06
vn -9.7453594E-05 -1 0.00043416023
vn -0.70654297 -0.03591919 0.70654297
vn 1.013279E-06 -0.03591919 0.9995117
vn 1.7881393E-06 -0.052978516 0.99853516
vn -0.7060547 -0.052978516 0.7060547
vn -9.7453594E-05 -1 0.00043416023
vn 1.013279E-06 -0.03591919 0.9995117
vn 0.70654297 -0.03591919 0.70654297
vn 0.7060547 -0.052978516 0.7060547
vn 1.7881393E-06 -0.052978516 0.99853516
vn -9.7453594E-05 -1 0.00043416023
vn 0.70654297 -0.03591919 0.70654297
vn 0.9995117 -0.03591919 3.8146973E-06
vn 0.99853516 -0.052978516 3.5762787E-06
vn 0.7060547 -0.052978516 0.7060547
vn -9.7453594E-05 -1 0.00043416023
vn 0.70654297 -0.03591919 -0.70654297
vn 0.38256836 0 -0.9238281
vn 0.38256836 0 -0.9238281
vn 2.0861626E-06 -0.03591919 -0.9995117
vn 2.0861626E-06 -0.03591919 -0.9995117
vn -0.38256836 0 -0.9238281
vn -0.38256836 0 -0.9238281
vn -0.70654297 -0.03591919 -0.70654297
vn -0.70654297 -0.03591919 -0.70654297
vn -0.9238281 0 -0.38256836
vn -1 0 -2.3841858E-06
vn -0.9995117 -0.03591919 4.1127205E-06
vn -0.9995117 -0.03591919 4.1127205E-06
vn -1 0 -2.3841858E-06
vn -0.9238281 0 0.38256836
vn -0.70654297 -0.03591919 0.70654297
vn -0.70654297 -0.03591919 0.70654297
vn -0.38256836 0 0.9238281
vn -0.38256836 0 0.9238281
vn 1.013279E-06 -0.03591919 0.9995117
vn 1.013279E-06 -0.03591919 0.9995117
vn 0.3828125 0 0.9238281
vn 0.3828125 0 0.9238281
vn 0.70654297 -0.03591919 0.70654297
vn 0.70654297 -0.03591919 0.70654297
vn 0.9238281 0 0.38256836
vn 1 0 6.0796738E-06
vn 0.9995117 -0.03591919 3.8146973E-06
vn 0.9995117 -0.03591919 3.8146973E-06
vn 1 0 6.0796738E-06
vn 0.9238281 0 -0.38256836
vn 0.70654297 -0.03591919 -0.70654297
vn 0.7060547 0.052978516 -0.7060547
vn 0.70654297 0.03591919 -0.70654297
vn 0.9995117 0.03591919 3.874302E-06
vn 0.99853516 0.052978516 3.7550926E-06
vn 0.00023543835 1 0.0001001358
vn 0.70654297 0.03591919 -0.70654297
vn 1.9669533E-06 0.052978516 -0.99853516
vn 2.026558E-06 0.03591919 -0.9995117
vn 0.7060547 0.052978516 -0.7060547
vn 0.00023543835 1 0.0001001358
vn 2.026558E-06 0.03591919 -0.9995117
vn -0.7060547 0.052978516 -0.7060547
vn -0.70654297 0.03591919 -0.70654297
vn 1.9669533E-06 0.052978516 -0.99853516
vn 0.00023543835 1 0.0001001358
vn -0.70654297 0.03591919 -0.70654297
vn -0.99853516 0.052978516 5.4240227E-06
vn -0.9995117 0.03591919 4.053116E-06
vn -0.7060547 0.052978516 -0.7060547
vn 0.00023543835 1 0.0001001358
vn -0.9995117 0.03591919 4.053116E-06
vn -0.7060547 0.052978516 0.7060547
vn -0.70654297 0.03591919 0.70654297
vn -0.99853516 0.052978516 5.4240227E-06
vn 0.00023543835 1 0.0001001358
vn -0.70654297 0.03591919 0.70654297
vn 1.5497208E-06 0.052978516 0.99853516
vn 1.013279E-06 0.03591919 0.9995117
vn -0.7060547 0.052978516 0.7060547
vn 0.00023543835 1 0.0001001358
vn 1.013279E-06 0.03591919 0.9995117
vn 0.7060547 0.052978516 0.7060547
vn 0.70654297 0.03591919 0.70654297
vn 1.5497208E-06 0.052978516 0.99853516
vn 0.00023543835 1 0.0001001358
vn 0.70654297 0.03591919 0.70654297
vn 0.99853516 0.052978516 3.7550926E-06
vn 0.9995117 0.03591919 3.874302E-06
vn 0.7060547 0.052978516 0.7060547
vn 0.00023543835 1 0.0001001358
vn 0.70654297 0.03591919 -0.70654297
vn 2.026558E-06 0.03591919 -0.9995117
vn 0.38256836 0 -0.9238281
vn 0.38256836 0 -0.9238281
vn 2.026558E-06 0.03591919 -0.9995117
vn -0.70654297 0.03591919 -0.70654297
vn -0.38256836 0 -0.9238281
vn -0.38256836 0 -0.9238281
vn -0.70654297 0.03591919 -0.70654297
vn -0.9995117 0.03591919 4.053116E-06
vn -1 0 -2.3841858E-06
vn -0.9238281 0 -0.38256836
vn -0.9995117 0.03591919 4.053116E-06
vn -0.70654297 0.03591919 0.70654297
vn -0.9238281 0 0.38256836
vn -1 0 -2.3841858E-06
vn -0.70654297 0.03591919 0.70654297
vn 1.013279E-06 0.03591919 0.9995117
vn -0.38256836 0 0.9238281
vn -0.38256836 0 0.9238281
vn 1.013279E-06 0.03591919 0.9995117
vn 0.70654297 0.03591919 0.70654297
vn 0.3828125 0 0.9238281
vn 0.3828125 0 0.9238281
vn 0.70654297 0.03591919 0.70654297
vn 0.9995117 0.03591919 3.874302E-06
vn 1 0 6.0796738E-06
vn 0.9238281 0 0.38256836
vn 0.9995117 0.03591919 3.874302E-06
vn 0.70654297 0.03591919 -0.70654297
vn 0.9238281 0 -0.38256836
vn 1 0 6.0796738E-06
g shaftBall_0
f 3/3/3 2/2/2 1/1/1
f 2/2/2 4/4/4 1/1/1
f 4/4/4 5/5/5 1/1/1
f 8/8/8 7/7/7 6/6/6
f 9/9/9 8/8/8 6/6/6
f 9/9/9 10/10/10 8/8/8
f 13/13/13 12/12/12 11/11/11
f 14/14/14 13/13/13 11/11/11
f 14/14/14 15/15/15 13/13/13
f 18/18/18 17/17/17 16/16/16
f 19/19/19 18/18/18 16/16/16
f 19/19/19 20/20/20 18/18/18
f 23/23/23 22/22/22 21/21/21
f 24/24/24 23/23/23 21/21/21
f 24/24/24 25/25/25 23/23/23
f 28/28/28 27/27/27 26/26/26
f 29/29/29 28/28/28 26/26/26
f 29/29/29 30/30/30 28/28/28
f 33/33/33 32/32/32 31/31/31
f 34/34/34 33/33/33 31/31/31
f 34/34/34 35/35/35 33/33/33
f 38/38/38 37/37/37 36/36/36
f 39/39/39 38/38/38 36/36/36
f 39/39/39 40/40/40 38/38/38
f 43/43/43 42/42/42 41/41/41
f 44/44/44 43/43/43 41/41/41
f 47/47/47 46/46/46 45/45/45
f 48/48/48 47/47/47 45/45/45
f 51/51/51 50/50/50 49/49/49
f 52/52/52 51/51/51 49/49/49
f 55/55/55 54/54/54 53/53/53
f 56/56/56 55/55/55 53/53/53
f 59/59/59 58/58/58 57/57/57
f 60/60/60 59/59/59 57/57/57
f 63/63/63 62/62/62 61/61/61
f 64/64/64 63/63/63 61/61/61
f 67/67/67 66/66/66 65/65/65
f 68/68/68 67/67/67 65/65/65
f 71/71/71 70/70/70 69/69/69
f 72/72/72 71/71/71 69/69/69
f 75/75/75 74/74/74 73/73/73
f 76/76/76 75/75/75 73/73/73
f 77/77/77 76/76/76 73/73/73
f 80/80/80 79/79/79 78/78/78
f 79/79/79 81/81/81 78/78/78
f 82/82/82 81/81/81 79/79/79
f 85/85/85 84/84/84 83/83/83
f 84/84/84 86/86/86 83/83/83
f 87/87/87 86/86/86 84/84/84
f 90/90/90 89/89/89 88/88/88
f 89/89/89 91/91/91 88/88/88
f 92/92/92 91/91/91 89/89/89
f 95/95/95 94/94/94 93/93/93
f 94/94/94 96/96/96 93/93/93
f 97/97/97 96/96/96 94/94/94
f 100/100/100 99/99/99 98/98/98
f 99/99/99 101/101/101 98/98/98
f 102/102/102 101/101/101 99/99/99
f 105/105/105 104/104/104 103/103/103
f 104/104/104 106/106/106 103/103/103
f 107/107/107 106/106/106 104/104/104
f 110/110/110 109/109/109 108/108/108
f 109/109/109 111/111/111 108/108/108
f 112/112/112 111/111/111 109/109/109
f 115/115/115 114/114/114 113/113/113
f 116/116/116 115/115/115 113/113/113
f 119/119/119 118/118/118 117/117/117
f 120/120/120 119/119/119 117/117/117
f 123/123/123 122/122/122 121/121/121
f 124/124/124 123/123/123 121/121/121
f 127/127/127 126/126/126 125/125/125
f 128/128/128 127/127/127 125/125/125
f 131/131/131 130/130/130 129/129/129
f 132/132/132 131/131/131 129/129/129
f 135/135/135 134/134/134 133/133/133
f 136/136/136 135/135/135 133/133/133
f 139/139/139 138/138/138 137/137/137
f 140/140/140 139/139/139 137/137/137
f 143/143/143 142/142/142 141/141/141
f 144/144/144 143/143/143 141/141/141
