g skyBuildingAAA_geo
v 0.31107605 3.7099657 -0.03465769
v 0.3864264 3.7193823 -0.034657635
v 0.34875122 3.718114 0.028134579
v -0.09900299 3.3751166 -0.03465769
v -0.023652649 3.384533 -0.034657635
v -0.06132782 3.3832648 0.028134579
v 0.604975 -2.9638305 -0.37151188
v 0.6803253 -2.9732475 -0.37151194
v 0.6426501 -2.9719794 -0.43430415
v 0.80284023 -1.8999887 -0.40588644
v 0.12169525 -2.7290344 0.0049532317
v 0.80284023 -2.0862083 0.5384979
v -0.5277853 -3.3393834 0.049661327
v -0.452435 -3.3488007 0.04966127
v -0.49011016 -3.3475323 -0.013130946
v -0.5461957 -3.7099657 0.33438927
v -0.43402466 -3.7193823 0.33438918
v -0.49011016 -3.718114 0.24091294
v 0.23742217 -3.1500828 -0.5073075
v 0.36059418 -3.1595001 -0.5073077
v 0.29900816 -3.1582317 -0.6099521
v 0.3864264 3.7193823 -0.034657635
v 0.3864264 2.796447 -0.0346577
v 0.34875122 2.7964478 0.028134726
v 0.34875122 3.718114 0.028134579
v 0.31107542 2.7964482 -0.034657724
v 0.31107605 3.7099657 -0.03465769
v 0.34875122 3.718114 0.028134579
v 0.34875122 2.7964478 0.028134726
v 0.31107605 3.7099657 -0.03465769
v 0.31107542 2.7964482 -0.034657724
v 0.3864264 2.796447 -0.0346577
v 0.3864264 3.7193823 -0.034657635
v -0.023652649 3.384533 -0.034657635
v -0.023652649 2.461598 -0.0346577
v -0.06132782 2.4615986 0.028134726
v -0.06132782 3.3832648 0.028134579
v -0.09900329 2.4615989 -0.034657724
v -0.09900299 3.3751166 -0.03465769
v -0.06132782 3.3832648 0.028134579
v -0.06132782 2.4615986 0.028134726
v -0.09900299 3.3751166 -0.03465769
v -0.09900329 2.4615989 -0.034657724
v -0.023652649 2.461598 -0.0346577
v -0.023652649 3.384533 -0.034657635
v 0.6803253 -2.9732475 -0.37151194
v 0.6803253 -1.8929849 -0.37151188
v 0.6426501 -1.8929849 -0.4343043
v 0.6426501 -2.9719794 -0.43430415
v 0.6049743 -1.8929849 -0.37151185
v 0.604975 -2.9638305 -0.37151188
v 0.6426501 -2.9719794 -0.43430415
v 0.6426501 -1.8929849 -0.4343043
v 0.604975 -2.9638305 -0.37151188
v 0.6049743 -1.8929849 -0.37151185
v 0.6803253 -1.8929849 -0.37151188
v 0.6803253 -2.9732475 -0.37151194
v -0.07121216 -2.8672223 0.51962113
v -0.07121216 -2.0943544 0.51962113
v 0.41819152 -2.0943544 0.51962113
v 0.41819152 -2.9071593 0.51962113
v -0.07121216 -2.0943544 0.030217227
v -0.07121216 -2.8909247 0.030217227
v 0.41819152 -2.9308617 0.030217227
v 0.41819152 -2.0943544 0.030217227
v -0.07121216 -2.8909247 0.030217227
v -0.07121216 -2.8672223 0.51962113
v 0.41819152 -2.9071593 0.51962113
v 0.41819152 -2.9308617 0.030217227
v 0.41819152 -2.9071593 0.51962113
v 0.41819152 -2.0943544 0.51962113
v 0.41819152 -2.0943544 0.030217227
v 0.41819152 -2.9308617 0.030217227
v -0.07121216 -2.8909247 0.030217227
v -0.07121216 -2.0943544 0.030217227
v -0.07121216 -2.0943544 0.51962113
v -0.07121216 -2.8672223 0.51962113
v -0.8343246 -2.602649 0.826599
v -0.8257321 2.3153026 0.81800663
v -0.45484892 -2.508327 0.826599
v 0.79424775 2.3153026 0.81800663
v 0.4202774 -2.3703516 0.826599
v 0.80284023 -2.124368 0.82186025
v -0.8257321 2.3153007 -0.80197334
v -0.8343246 -2.5301483 -0.8105657
v -0.45484892 -2.4532967 -0.8105657
v 0.4202774 -2.0143306 -0.8105657
v 0.79424775 2.3153007 -0.80197334
v 0.80284023 -1.7865655 -0.8105657
v 0.80284023 -2.124368 0.82186025
v 0.79424775 2.3153026 0.81800663
v 0.80284023 -2.0862083 0.5384979
v 0.79424775 2.3153007 -0.80197334
v 0.80284023 -1.8999887 -0.40588644
v 0.80284023 -1.7865655 -0.8105657
v -0.8257321 2.3153026 0.81800663
v -0.8343246 -2.602649 0.826599
v -0.8343246 -2.7263842 0.5384979
v -0.8343246 -2.768093 -0.40588644
v -0.8257321 2.3153007 -0.80197334
v -0.8343246 -2.5301483 -0.8105657
v -0.47573194 2.3153038 0.46800643
v -0.47090375 2.813579 0.45363864
v 0.43941924 2.813579 0.45363864
v 0.44424742 2.3153038 0.46800643
v -0.47090375 2.813579 0.45363864
v -0.47090375 2.813579 -0.15729523
v 0.19256622 2.813579 -0.15729524
v 0.43941924 2.813579 0.45363864
v 0.43941924 2.813579 -0.6794957
v 0.19256622 2.813579 -0.6794957
v 0.44424742 2.3153038 -0.67478436
v -0.47090375 2.813579 -0.6699561
v -0.47573194 2.3153038 -0.67478436
v 0.19256622 2.813579 -0.6794957
v 0.43941924 2.813579 -0.6794957
v 0.44424742 2.3153038 0.46800643
v 0.43941924 2.813579 0.45363864
v 0.43941924 2.813579 -0.6794957
v 0.44424742 2.3153038 -0.67478436
v -0.47090375 2.813579 -0.15729523
v -0.47090375 2.813579 0.45363864
v -0.47573194 2.3153038 0.46800643
v -0.47573194 2.3153038 -0.67478436
v -0.47090375 2.813579 -0.6699561
v -0.8343246 -2.5301483 -0.8105657
v -0.8343246 -2.768093 -0.40588644
v -0.45484892 -2.4532967 -0.8105657
v 0.12169525 -2.7290344 0.0049532317
v -0.8343246 -2.7263842 0.5384979
v 0.4202774 -2.0143306 -0.8105657
v 0.80284023 -1.8999887 -0.40588644
v 0.80284023 -1.7865655 -0.8105657
v -0.45484892 -2.508327 0.826599
v -0.8343246 -2.602649 0.826599
v 0.4202774 -2.3703516 0.826599
v 0.80284023 -2.0862083 0.5384979
v 0.80284023 -2.124368 0.82186025
v -0.8257321 2.3153026 0.81800663
v -0.8257321 2.3153007 -0.80197334
v 0.79424775 2.3153007 -0.80197334
v 0.79424775 2.3153026 0.81800663
v -0.42348084 3.0082824 -0.1850812
v -0.42348084 3.0082824 -0.6326306
v 0.14514312 3.0082824 -0.6326306
v 0.14514312 3.0082824 -0.18508121
v -0.47090375 2.813579 -0.15729523
v -0.42348084 3.0082824 -0.1850812
v 0.14514312 3.0082824 -0.18508121
v 0.19256622 2.813579 -0.15729524
v 0.19256622 2.813579 -0.15729524
v 0.14514312 3.0082824 -0.18508121
v 0.14514312 3.0082824 -0.6326306
v 0.19256622 2.813579 -0.6794957
v 0.19256622 2.813579 -0.6794957
v 0.14514312 3.0082824 -0.6326306
v -0.42348084 3.0082824 -0.6326306
v -0.47090375 2.813579 -0.6699561
v -0.47090375 2.813579 -0.6699561
v -0.42348084 3.0082824 -0.6326306
v -0.42348084 3.0082824 -0.1850812
v -0.47090375 2.813579 -0.15729523
v -0.452435 -3.3488007 0.04966127
v -0.452435 -2.7064824 0.049661335
v -0.49011016 -2.7064831 -0.013131093
v -0.49011016 -3.3475323 -0.013130946
v -0.52778566 -2.7064831 0.049661357
v -0.5277853 -3.3393834 0.049661327
v -0.49011016 -3.3475323 -0.013130946
v -0.49011016 -2.7064831 -0.013131093
v -0.5277853 -3.3393834 0.049661327
v -0.52778566 -2.7064831 0.049661357
v -0.452435 -2.7064824 0.049661335
v -0.452435 -3.3488007 0.04966127
v -0.43402466 -3.7193823 0.33438918
v -0.43402466 -2.7274914 0.33438927
v -0.49011016 -2.727492 0.24091272
v -0.49011016 -3.718114 0.24091294
v -0.546196 -2.7274926 0.3343893
v -0.5461957 -3.7099657 0.33438927
v -0.49011016 -3.718114 0.24091294
v -0.49011016 -2.727492 0.24091272
v -0.5461957 -3.7099657 0.33438927
v -0.546196 -2.7274926 0.3343893
v -0.43402466 -2.7274914 0.33438927
v -0.43402466 -3.7193823 0.33438918
v 0.36059418 -3.1595001 -0.5073077
v 0.36059418 -2.0788445 -0.5073076
v 0.29900816 -2.0788445 -0.6099525
v 0.29900816 -3.1582317 -0.6099521
v 0.23742187 -2.0788445 -0.5073075
v 0.23742217 -3.1500828 -0.5073075
v 0.29900816 -3.1582317 -0.6099521
v 0.29900816 -2.0788445 -0.6099525
v 0.23742217 -3.1500828 -0.5073075
v 0.23742187 -2.0788445 -0.5073075
v 0.36059418 -2.0788445 -0.5073076
v 0.36059418 -3.1595001 -0.5073077
vt 0.7636719 0.06536865
vt 0.7651367 0.06536865
vt 0.76416016 0.06384277
vt 0.7705078 0.06536865
vt 0.77246094 0.06536865
vt 0.7714844 0.06384277
vt 0.8017578 0.06149292
vt 0.80371094 0.06149292
vt 0.8022461 0.05996704
vt 0.7558594 0.041748047
vt 0.7319336 0.05496216
vt 0.7548828 0.06616211
vt 0.80859375 0.07220459
vt 0.8105469 0.07220459
vt 0.8095703 0.07067871
vt 0.7832031 0.06365967
vt 0.78564453 0.06365967
vt 0.7841797 0.06137085
vt 0.79345703 0.06149292
vt 0.7963867 0.06149292
vt 0.7949219 0.05899048
vt 0.7651367 0.06536865
vt 0.7651367 0.087768555
vt 0.76708984 0.087768555
vt 0.76708984 0.06536865
vt 0.76904297 0.087768555
vt 0.76904297 0.06536865
vt 0.76708984 0.06536865
vt 0.76708984 0.087768555
vt 0.7636719 0.06536865
vt 0.7636719 0.087768555
vt 0.7651367 0.087768555
vt 0.7651367 0.06536865
vt 0.77246094 0.06536865
vt 0.77246094 0.087768555
vt 0.77441406 0.087768555
vt 0.77441406 0.06536865
vt 0.7758789 0.087768555
vt 0.7758789 0.06536865
vt 0.77441406 0.06536865
vt 0.77441406 0.087768555
vt 0.7705078 0.06536865
vt 0.7705078 0.087768555
vt 0.77246094 0.087768555
vt 0.77246094 0.06536865
vt 0.79833984 0.06149292
vt 0.79833984 0.087768555
vt 0.7998047 0.087768555
vt 0.7998047 0.06149292
vt 0.8017578 0.087768555
vt 0.8017578 0.06149292
vt 0.7998047 0.06149292
vt 0.7998047 0.087768555
vt 0.8017578 0.06149292
vt 0.8017578 0.087768555
vt 0.80371094 0.087768555
vt 0.80371094 0.06149292
vt 0.734375 0.09436035
vt 0.734375 0.11401367
vt 0.74609375 0.11401367
vt 0.74609375 0.09436035
vt 0.72216797 0.11401367
vt 0.72216797 0.09436035
vt 0.7104492 0.09436035
vt 0.7104492 0.11401367
vt 0.734375 0.08276367
vt 0.734375 0.09436035
vt 0.74609375 0.09436035
vt 0.74609375 0.08276367
vt 0.74609375 0.09436035
vt 0.74609375 0.11401367
vt 0.7583008 0.11401367
vt 0.7583008 0.09436035
vt 0.72216797 0.09436035
vt 0.72216797 0.11401367
vt 0.734375 0.11401367
vt 0.734375 0.09436035
vt 0.9003906 0.013221741
vt 0.9003906 0.13354492
vt 0.9091797 0.0154800415
vt 0.9404297 0.13354492
vt 0.93066406 0.018753052
vt 0.9404297 0.024719238
vt 0.86083984 0.13354492
vt 0.86083984 0.015304565
vt 0.8510742 0.017288208
vt 0.82958984 0.028244019
vt 0.8208008 0.13354492
vt 0.8208008 0.03390503
vt 0.9404297 0.024719238
vt 0.9404297 0.13354492
vt 0.94677734 0.025634766
vt 0.97998047 0.13354492
vt 0.97021484 0.030151367
vt 0.97998047 0.032928467
vt 0.9003906 0.13354492
vt 0.9003906 0.013221741
vt 0.8930664 0.010253906
vt 0.8701172 0.009414673
vt 0.86083984 0.13354492
vt 0.86083984 0.015304565
vt 0.7631836 0.010002136
vt 0.7631836 0.022415161
vt 0.78759766 0.022415161
vt 0.78759766 0.010002136
vt 0.7631836 0.022415161
vt 0.7631836 0.036346436
vt 0.7817383 0.036346436
vt 0.78759766 0.022415161
vt 0.78759766 0.052124023
vt 0.7817383 0.052124023
vt 0.7133789 0.010002136
vt 0.7363281 0.022415161
vt 0.7363281 0.010002136
vt 0.71972656 0.022415161
vt 0.7133789 0.022415161
vt 0.78759766 0.010002136
vt 0.78759766 0.022415161
vt 0.81591797 0.022415161
vt 0.81591797 0.010002136
vt 0.74902344 0.022415161
vt 0.7631836 0.022415161
vt 0.7631836 0.010002136
vt 0.7363281 0.010002136
vt 0.7363281 0.022415161
vt 0.7109375 0.033294678
vt 0.70947266 0.044921875
vt 0.72021484 0.033203125
vt 0.7319336 0.05496216
vt 0.70996094 0.06896973
vt 0.7451172 0.03189087
vt 0.7558594 0.041748047
vt 0.75634766 0.031341553
vt 0.7207031 0.076660156
vt 0.7109375 0.076660156
vt 0.74316406 0.07421875
vt 0.7548828 0.06616211
vt 0.7548828 0.07324219
vt 0.9003906 0.13354492
vt 0.9003906 0.17272949
vt 0.9404297 0.17272949
vt 0.9404297 0.13354492
vt 0.7661133 0.039611816
vt 0.7661133 0.04928589
vt 0.7788086 0.04928589
vt 0.7788086 0.039611816
vt 0.7631836 0.036346436
vt 0.7661133 0.039611816
vt 0.7788086 0.039611816
vt 0.7817383 0.036346436
vt 0.7817383 0.036346436
vt 0.7788086 0.039611816
vt 0.7788086 0.04928589
vt 0.7817383 0.052124023
vt 0.7817383 0.052124023
vt 0.7788086 0.04928589
vt 0.7661133 0.04928589
vt 0.7631836 0.052124023
vt 0.7631836 0.052124023
vt 0.7661133 0.04928589
vt 0.7661133 0.039611816
vt 0.7631836 0.036346436
vt 0.8051758 0.07220459
vt 0.8051758 0.087768555
vt 0.8071289 0.087768555
vt 0.8071289 0.07220459
vt 0.80859375 0.087768555
vt 0.80859375 0.07220459
vt 0.8071289 0.07220459
vt 0.8071289 0.087768555
vt 0.80859375 0.07220459
vt 0.80859375 0.087768555
vt 0.8105469 0.087768555
vt 0.8105469 0.07220459
vt 0.77783203 0.06365967
vt 0.77783203 0.087768555
vt 0.78027344 0.087768555
vt 0.78027344 0.06365967
vt 0.7832031 0.087768555
vt 0.7832031 0.06365967
vt 0.78027344 0.06365967
vt 0.78027344 0.087768555
vt 0.7832031 0.06365967
vt 0.7832031 0.087768555
vt 0.78564453 0.087768555
vt 0.78564453 0.06365967
vt 0.78759766 0.06149292
vt 0.78759766 0.087768555
vt 0.79052734 0.087768555
vt 0.79052734 0.06149292
vt 0.79345703 0.087768555
vt 0.79345703 0.06149292
vt 0.79052734 0.06149292
vt 0.79052734 0.087768555
vt 0.79345703 0.06149292
vt 0.79345703 0.087768555
vt 0.7963867 0.087768555
vt 0.7963867 0.06149292
vn -0.12384033 0.99072266 -0.05429077
vn -0.12384033 0.99072266 -0.05429077
vn -0.12384033 0.99072266 -0.054260254
vn -0.12384033 0.99072266 -0.05429077
vn -0.12384033 0.99072266 -0.05429077
vn -0.12384033 0.99072266 -0.05429077
vn -0.12384033 -0.99072266 0.05429077
vn -0.12384033 -0.99072266 0.05429077
vn -0.12384033 -0.99072266 0.05429077
vn 0.9980469 -0.055511475 -0.019851685
vn 0.39282227 -0.91308594 -0.11065674
vn 0.9980469 -0.06549072 -0.0055160522
vn -0.12384033 -0.99072266 0.05429077
vn -0.12384033 -0.99072266 0.05429077
vn -0.12384033 -0.99072266 0.05429077
vn -0.083618164 -0.99560547 0.03665161
vn -0.083618164 -0.99560547 0.03665161
vn -0.083618164 -0.99560547 0.03665161
vn -0.076171875 -0.99658203 0.03338623
vn -0.076171875 -0.99658203 0.03338623
vn -0.076171875 -0.99658203 0.03338623
vn 0.8574219 0 0.51464844
vn 0.8574219 0 0.51464844
vn 0.8574219 0 0.51464844
vn 0.8574219 0 0.51464844
vn -0.8574219 2.9802322E-07 0.51464844
vn -0.8574219 2.9802322E-07 0.51464844
vn -0.8574219 2.9802322E-07 0.51464844
vn -0.8574219 2.9802322E-07 0.51464844
vn 5.364418E-07 0 -1
vn 5.364418E-07 0 -1
vn 5.364418E-07 0 -1
vn 5.364418E-07 0 -1
vn 0.8574219 0 0.51464844
vn 0.8574219 0 0.51464844
vn 0.8574219 0 0.51464844
vn 0.8574219 0 0.51464844
vn -0.8574219 1.7881393E-07 0.51464844
vn -0.8574219 1.7881393E-07 0.51464844
vn -0.8574219 1.7881393E-07 0.51464844
vn -0.8574219 1.7881393E-07 0.51464844
vn 5.364418E-07 0 -1
vn 5.364418E-07 0 -1
vn 5.364418E-07 0 -1
vn 5.364418E-07 0 -1
vn 0.8574219 0 -0.51464844
vn 0.8574219 0 -0.51464844
vn 0.8574219 0 -0.51464844
vn 0.8574219 0 -0.51464844
vn -0.8574219 -2.3841858E-07 -0.51464844
vn -0.8574219 -2.3841858E-07 -0.51464844
vn -0.8574219 -2.3841858E-07 -0.51464844
vn -0.8574219 -2.3841858E-07 -0.51464844
vn 1.1920929E-06 0 1
vn 1.1920929E-06 0 1
vn 1.1920929E-06 0 1
vn 1.1920929E-06 0 1
vn -0 0 1
vn -0 0 1
vn -0 0 1
vn -0 0 1
vn -0 0 -1
vn -0 0 -1
vn -0 0 -1
vn -0 0 -1
vn -0.08123779 -0.99560547 0.048217773
vn -0.08123779 -0.99560547 0.048217773
vn -0.08123779 -0.99560547 0.048217773
vn -0.08123779 -0.99560547 0.048217773
vn 1 0 0
vn 1 0 0
vn 1 0 0
vn 1 0 0
vn -1 0 0
vn -1 0 0
vn -1 0 0
vn -1 0 0
vn -0.00043439865 0.001748085 1
vn -0.0001026988 0.0018062592 1
vn -0.00015175343 0.0017976761 1
vn -7.2717667E-06 0.0017995834 1
vn 0.00071048737 0.001745224 1
vn 0.011810303 0.0008907318 1
vn -0.00033259392 0.0018882751 -1
vn -0.00035905838 0.0017738342 -1
vn 0.03552246 -0.092163086 -0.9951172
vn 0.03591919 -0.052703857 -0.9980469
vn -0.00033974648 0.0018901825 -1
vn -0.0012454987 0.0020923615 -1
vn 0.99560547 -0.09106445 -0.012268066
vn 1 0.001996994 0.00014555454
vn 0.9980469 -0.06549072 -0.0055160522
vn 1 0.001996994 0.00014925003
vn 0.9980469 -0.055511475 -0.019851685
vn 0.9975586 -0.06732178 -0.018859863
vn -1 0.0016975403 -3.0577183E-05
vn -1 0.0017461777 -0.000749588
vn -1 0.0017004013 -7.647276E-05
vn -1 0.0017032623 6.121397E-05
vn -1 0.0016975403 -1.9073486E-05
vn -1 0.0017719269 0.0010414124
vn -0 0.028823853 0.9995117
vn -0 0.028823853 0.9995117
vn -0 0.028823853 0.9995117
vn -0 0.028823853 0.9995117
vn -0 1 0
vn -0 1 0
vn -0 1 0
vn -0 1 0
vn -0 1 0
vn -0 1 0
vn -0.005657196 -0.0018663406 -1
vn -0.0063705444 0.043151855 -0.99902344
vn -0.006023407 -0.0013751984 -1
vn -0.0058937073 0.031829834 -0.9995117
vn -0 -0.00945282 -1
vn 1 0.009689331 0
vn 1 0.009689331 0
vn 1 0.009689331 0
vn 1 0.009689331 0
vn -0.9995117 0.034332275 0
vn -1 0.009689331 0
vn -1 0.009689331 0
vn -1 0.009689331 0
vn -0.9951172 0.10064697 0
vn 0.17199707 -0.8491211 -0.49926758
vn 0.119506836 -0.97314453 -0.19689941
vn 0.03552246 -0.092163086 -0.9951172
vn 0.39282227 -0.91308594 -0.11065674
vn 0.109313965 -0.9736328 0.19958496
vn 0.03591919 -0.052703857 -0.9980469
vn 0.9980469 -0.055511475 -0.019851685
vn 0.9975586 -0.06732178 -0.018859863
vn 0.18273926 -0.91015625 0.3720703
vn 0.22265625 -0.8959961 0.38476562
vn 0.3996582 -0.88720703 0.23059082
vn 0.9980469 -0.06549072 -0.0055160522
vn 0.99560547 -0.09106445 -0.012268066
vn -0 1 -1.013279E-06
vn -0 1 -1.013279E-06
vn -0 1 -1.013279E-06
vn -0 1 -1.013279E-06
vn -0 1 0
vn -0 1 0
vn -0 1 0
vn -0 1 0
vn -0 0.14123535 0.9897461
vn -0 0.14123535 0.9897461
vn -0 0.14123535 0.9897461
vn -0 0.14123535 0.9897461
vn 0.9716797 0.23669434 0
vn 0.9716797 0.23669434 0
vn 0.9716797 0.23669434 0
vn 0.9716797 0.23669434 0
vn -0.0058937073 0.031829834 -0.9995117
vn -0.0075683594 0.21130371 -0.97753906
vn -0.0075683594 0.21130371 -0.97753906
vn -0.0063705444 0.043151855 -0.99902344
vn -0.9951172 0.10064697 0
vn -0.9716797 0.23669434 0
vn -0.9716797 0.23669434 0
vn -0.9995117 0.034332275 0
vn 0.8574219 0 -0.51464844
vn 0.8574219 0 -0.51464844
vn 0.8574219 0 -0.51464844
vn 0.8574219 0 -0.51464844
vn -0.8574219 -2.3841858E-07 -0.51464844
vn -0.8574219 -2.3841858E-07 -0.51464844
vn -0.8574219 -2.3841858E-07 -0.51464844
vn -0.8574219 -2.3841858E-07 -0.51464844
vn 5.364418E-07 0 1
vn 5.364418E-07 0 1
vn 5.364418E-07 0 1
vn 5.364418E-07 0 1
vn 0.8574219 0 -0.51464844
vn 0.8574219 0 -0.51464844
vn 0.8574219 0 -0.51464844
vn 0.8574219 0 -0.51464844
vn -0.8574219 -1.7881393E-07 -0.51464844
vn -0.8574219 -1.7881393E-07 -0.51464844
vn -0.8574219 -1.7881393E-07 -0.51464844
vn -0.8574219 -1.7881393E-07 -0.51464844
vn 4.172325E-07 0 1
vn 4.172325E-07 0 1
vn 4.172325E-07 0 1
vn 4.172325E-07 0 1
vn 0.8574219 0 -0.51464844
vn 0.8574219 0 -0.51464844
vn 0.8574219 0 -0.51464844
vn 0.8574219 0 -0.51464844
vn -0.8574219 -2.3841858E-07 -0.51464844
vn -0.8574219 -2.3841858E-07 -0.51464844
vn -0.8574219 -2.3841858E-07 -0.51464844
vn -0.8574219 -2.3841858E-07 -0.51464844
vn 7.1525574E-07 0 1
vn 7.1525574E-07 0 1
vn 7.1525574E-07 0 1
vn 7.1525574E-07 0 1
g skyBuildingAAA_geo_0
f 3/3/3 2/2/2 1/1/1
f 6/6/6 5/5/5 4/4/4
f 9/9/9 8/8/8 7/7/7
f 12/12/12 11/11/11 10/10/10
f 15/15/15 14/14/14 13/13/13
f 18/18/18 17/17/17 16/16/16
f 21/21/21 20/20/20 19/19/19
f 24/24/24 23/23/23 22/22/22
f 25/25/25 24/24/24 22/22/22
f 28/28/28 27/27/27 26/26/26
f 29/29/29 28/28/28 26/26/26
f 32/32/32 31/31/31 30/30/30
f 33/33/33 32/32/32 30/30/30
f 36/36/36 35/35/35 34/34/34
f 37/37/37 36/36/36 34/34/34
f 40/40/40 39/39/39 38/38/38
f 41/41/41 40/40/40 38/38/38
f 44/44/44 43/43/43 42/42/42
f 45/45/45 44/44/44 42/42/42
f 48/48/48 47/47/47 46/46/46
f 49/49/49 48/48/48 46/46/46
f 52/52/52 51/51/51 50/50/50
f 53/53/53 52/52/52 50/50/50
f 56/56/56 55/55/55 54/54/54
f 57/57/57 56/56/56 54/54/54
f 60/60/60 59/59/59 58/58/58
f 61/61/61 60/60/60 58/58/58
f 64/64/64 63/63/63 62/62/62
f 65/65/65 64/64/64 62/62/62
f 68/68/68 67/67/67 66/66/66
f 69/69/69 68/68/68 66/66/66
f 72/72/72 71/71/71 70/70/70
f 73/73/73 72/72/72 70/70/70
f 76/76/76 75/75/75 74/74/74
f 77/77/77 76/76/76 74/74/74
f 80/80/80 79/79/79 78/78/78
f 79/79/79 80/80/80 81/81/81
f 80/80/80 82/82/82 81/81/81
f 82/82/82 83/83/83 81/81/81
f 86/86/86 85/85/85 84/84/84
f 86/86/86 84/84/84 87/87/87
f 84/84/84 88/88/88 87/87/87
f 88/88/88 89/89/89 87/87/87
f 92/92/92 91/91/91 90/90/90
f 91/91/91 92/92/92 93/93/93
f 92/92/92 94/94/94 93/93/93
f 94/94/94 95/95/95 93/93/93
f 98/98/98 97/97/97 96/96/96
f 98/98/98 96/96/96 99/99/99
f 96/96/96 100/100/100 99/99/99
f 99/99/99 100/100/100 101/101/101
f 104/104/104 103/103/103 102/102/102
f 105/105/105 104/104/104 102/102/102
f 108/108/108 107/107/107 106/106/106
f 109/109/109 108/108/108 106/106/106
f 109/109/109 110/110/110 108/108/108
f 110/110/110 111/111/111 108/108/108
f 114/114/114 113/113/113 112/112/112
f 113/113/113 115/115/115 112/112/112
f 115/115/115 116/116/116 112/112/112
f 119/119/119 118/118/118 117/117/117
f 120/120/120 119/119/119 117/117/117
f 123/123/123 122/122/122 121/121/121
f 124/124/124 123/123/123 121/121/121
f 121/121/121 125/125/125 124/124/124
f 128/128/128 127/127/127 126/126/126
f 128/128/128 129/129/129 127/127/127
f 130/130/130 127/127/127 129/129/129
f 128/128/128 131/131/131 129/129/129
f 131/131/131 132/132/132 129/129/129
f 131/131/131 133/133/133 132/132/132
f 129/129/129 134/134/134 130/130/130
f 134/134/134 135/135/135 130/130/130
f 134/134/134 129/129/129 136/136/136
f 129/129/129 137/137/137 136/136/136
f 137/137/137 138/138/138 136/136/136
f 141/141/141 140/140/140 139/139/139
f 142/142/142 141/141/141 139/139/139
f 145/145/145 144/144/144 143/143/143
f 146/146/146 145/145/145 143/143/143
f 149/149/149 148/148/148 147/147/147
f 150/150/150 149/149/149 147/147/147
f 153/153/153 152/152/152 151/151/151
f 154/154/154 153/153/153 151/151/151
f 157/157/157 156/156/156 155/155/155
f 158/158/158 157/157/157 155/155/155
f 161/161/161 160/160/160 159/159/159
f 162/162/162 161/161/161 159/159/159
f 165/165/165 164/164/164 163/163/163
f 166/166/166 165/165/165 163/163/163
f 169/169/169 168/168/168 167/167/167
f 170/170/170 169/169/169 167/167/167
f 173/173/173 172/172/172 171/171/171
f 174/174/174 173/173/173 171/171/171
f 177/177/177 176/176/176 175/175/175
f 178/178/178 177/177/177 175/175/175
f 181/181/181 180/180/180 179/179/179
f 182/182/182 181/181/181 179/179/179
f 185/185/185 184/184/184 183/183/183
f 186/186/186 185/185/185 183/183/183
f 189/189/189 188/188/188 187/187/187
f 190/190/190 189/189/189 187/187/187
f 193/193/193 192/192/192 191/191/191
f 194/194/194 193/193/193 191/191/191
f 197/197/197 196/196/196 195/195/195
f 198/198/198 197/197/197 195/195/195
