g skyBuildingAAC_geo
v -0.4416858 4.0023575 0.33674613
v -0.51703614 4.011775 0.33674607
v -0.47936094 4.0105066 0.27395386
v 0.34472868 -3.224782 0.34547397
v 0.4679007 -3.2341986 0.34547377
v 0.4063147 -3.2329302 0.24282947
v -0.62735134 -3.38937 0.050022896
v -0.51518035 -3.3987873 0.050022814
v -0.5712659 -3.3975189 -0.043453407
v -0.031509705 -4.0023575 -0.15423052
v 0.08066131 -4.011775 -0.1542306
v 0.024575805 -4.0105066 -0.24770682
v 0.23829406 -3.631776 -0.43895844
v 0.3136444 -3.6411924 -0.4389585
v 0.27596924 -3.6399243 -0.5017507
v -0.3575476 -3.0187883 -0.43895844
v -0.28219727 -3.028205 -0.4389585
v -0.31987244 -3.0269365 -0.5017507
v 0.71228087 -3.481491 0.4812697
v 0.7876312 -3.4909074 0.4812696
v 0.749956 -3.4896393 0.4184774
v -0.51703614 4.0023575 -0.3841361
v -0.4416858 4.011775 -0.38413605
v -0.47936094 4.0105066 -0.32134384
v -0.51703614 4.011775 0.33674607
v -0.51703614 2.8481207 0.33674613
v -0.47936094 2.8481212 0.2739537
v -0.47936094 4.0105066 0.27395386
v -0.44168547 2.848122 0.33674613
v -0.4416858 4.0023575 0.33674613
v -0.47936094 4.0105066 0.27395386
v -0.47936094 2.8481212 0.2739537
v -0.4416858 4.0023575 0.33674613
v -0.44168547 2.848122 0.33674613
v -0.51703614 2.8481207 0.33674613
v -0.51703614 4.011775 0.33674607
v 0.4679007 -3.2341986 0.34547377
v 0.4679007 -2.339671 0.3454739
v 0.4063147 -2.339671 0.24282905
v 0.4063147 -3.2329302 0.24282947
v 0.34472838 -2.339671 0.345474
v 0.34472868 -3.224782 0.34547397
v 0.4063147 -3.2329302 0.24282947
v 0.4063147 -2.339671 0.24282905
v 0.34472868 -3.224782 0.34547397
v 0.34472838 -2.339671 0.345474
v 0.4679007 -2.339671 0.3454739
v 0.4679007 -3.2341986 0.34547377
v 0.419783 2.4991121 0.0896179
v 0.4232126 3.2554717 0.08618826
v 1.0698341 3.2554717 0.08618826
v 1.0732639 2.4991121 0.0896179
v 0.4232126 3.2554717 0.08618826
v 0.4232126 3.2554681 -0.5604332
v 1.0698341 3.2554681 -0.5604332
v 1.0698341 3.2554717 0.08618826
v 0.4232126 3.2554681 -0.5604332
v 0.419783 2.4991121 -0.5638628
v 1.0732639 2.4991126 -0.5638628
v 1.0698341 3.2554681 -0.5604332
v 1.0732639 2.4991121 0.0896179
v 1.0698341 3.2554717 0.08618826
v 1.0698341 3.2554681 -0.5604332
v 1.0732639 2.4991126 -0.5638628
v 0.419783 2.4991121 -0.5638628
v 0.4232126 3.2554681 -0.5604332
v 0.4232126 3.2554717 0.08618826
v 0.419783 2.4991121 0.0896179
v -0.51518035 -3.3987873 0.050022814
v -0.51518035 -2.406896 0.050022908
v -0.5712659 -2.4068968 -0.043453626
v -0.5712659 -3.3975189 -0.043453407
v -0.62735164 -2.406897 0.050022945
v -0.62735134 -3.38937 0.050022896
v -0.5712659 -3.3975189 -0.043453407
v -0.5712659 -2.4068968 -0.043453626
v -0.62735134 -3.38937 0.050022896
v -0.62735164 -2.406897 0.050022945
v -0.51518035 -2.406896 0.050022908
v -0.51518035 -3.3987873 0.050022814
v 0.08066131 -4.011775 -0.1542306
v 0.08066131 -2.5029297 -0.15423049
v 0.024575805 -2.5029304 -0.24770704
v 0.024575805 -4.0105066 -0.24770682
v -0.03151001 -2.5029306 -0.15423046
v -0.031509705 -4.0023575 -0.15423052
v 0.024575805 -4.0105066 -0.24770682
v 0.024575805 -2.5029304 -0.24770704
v -0.031509705 -4.0023575 -0.15423052
v -0.03151001 -2.5029306 -0.15423046
v 0.08066131 -2.5029297 -0.15423049
v 0.08066131 -4.011775 -0.1542306
v -0.4416858 3.6168468 -0.38884482
v -0.4416858 3.6168468 0.3367466
v -0.47936094 3.679639 0.33674598
v -0.47936094 3.679639 -0.38757652
v -0.51703644 3.6168468 0.33674538
v -0.51703614 3.6168468 -0.37942803
v -0.47936094 3.679639 -0.38757652
v -0.47936094 3.679639 0.33674598
v -0.51703614 3.6168468 -0.37942803
v -0.51703644 3.6168468 0.33674538
v -0.4416858 3.6168468 0.3367466
v -0.4416858 3.6168468 -0.38884482
v 0.3136444 -3.6411924 -0.4389585
v 0.3136444 -2.4819205 -0.43895844
v 0.27596924 -2.4819212 -0.5017509
v 0.27596924 -3.6399243 -0.5017507
v 0.23829375 -2.4819214 -0.43895844
v 0.23829406 -3.631776 -0.43895844
v 0.27596924 -3.6399243 -0.5017507
v 0.27596924 -2.4819212 -0.5017509
v 0.23829406 -3.631776 -0.43895844
v 0.23829375 -2.4819214 -0.43895844
v 0.3136444 -2.4819205 -0.43895844
v 0.3136444 -3.6411924 -0.4389585
v -0.28219727 -3.028205 -0.4389585
v -0.28219727 -2.385887 -0.43895844
v -0.31987244 -2.3858876 -0.5017509
v -0.31987244 -3.0269365 -0.5017507
v -0.3575479 -2.3858879 -0.43895844
v -0.3575476 -3.0187883 -0.43895844
v -0.31987244 -3.0269365 -0.5017507
v -0.31987244 -2.3858876 -0.5017509
v -0.3575476 -3.0187883 -0.43895844
v -0.3575479 -2.3858879 -0.43895844
v -0.28219727 -2.385887 -0.43895844
v -0.28219727 -3.028205 -0.4389585
v 0.7876312 -3.4909074 0.4812696
v 0.7876312 -2.2125466 0.4812697
v 0.749956 -2.2125466 0.41847724
v 0.749956 -3.4896393 0.4184774
v 0.7122806 -2.2125466 0.4812697
v 0.71228087 -3.481491 0.4812697
v 0.749956 -3.4896393 0.4184774
v 0.749956 -2.2125466 0.41847724
v 0.71228087 -3.481491 0.4812697
v 0.7122806 -2.2125466 0.4812697
v 0.7876312 -2.2125466 0.4812697
v 0.7876312 -3.4909074 0.4812696
v -1.4797708 -1.5626153 0.8212824
v 0.046658326 -2.0894196 0.8212824
v -1.0096011 -1.7764688 0.8212824
v -1.464377 2.6190772 0.81269
v 1.4378604 2.6190772 0.81269
v 1.0783262 -2.0410829 0.8212824
v 1.4532541 -2.0769532 0.8212824
v -1.464377 2.6190772 0.81269
v -1.464377 2.6190753 -0.8072901
v 1.4378604 2.6190753 -0.8072901
v 1.4378604 2.6190772 0.81269
v 0.032736205 -2.4241178 -0.81588244
v 1.0530194 -2.5633354 -0.81588244
v 1.4532541 -2.383909 -0.81588244
v 1.4378604 2.6190753 -0.8072901
v -1.464377 2.6190753 -0.8072901
v -0.70502836 -2.3090513 -0.81588244
v -1.4797708 -2.320449 -0.81588244
v 1.0783262 -2.0410829 0.8212824
v 1.4532541 -2.0769532 0.8212824
v 1.4532541 -2.4382324 0.26471838
v 0.29938903 -2.6476507 0.089523435
v 0.046658326 -2.0894196 0.8212824
v 1.4532541 -2.5868993 -0.4377841
v -1.0096011 -1.7764688 0.8212824
v 1.0530194 -2.5633354 -0.81588244
v 1.4532541 -2.383909 -0.81588244
v 0.032736205 -2.4241178 -0.81588244
v -0.70502836 -2.3090513 -0.81588244
v -0.83112824 -2.6220238 0.09792032
v -1.4797708 -2.320449 -0.81588244
v -1.4797708 -2.2281473 -0.23253962
v -1.4797708 -1.9743843 0.36019292
v -1.4797708 -1.5626153 0.8212824
v 1.4532541 -2.0769532 0.8212824
v 1.4378604 2.6190772 0.81269
v 1.4378604 2.6190753 -0.8072901
v 1.4532541 -2.383909 -0.81588244
v 1.4532541 -2.5868993 -0.4377841
v 1.4532541 -2.4382324 0.26471838
v -1.4797708 -2.320449 -0.81588244
v -1.464377 2.6190753 -0.8072901
v -1.464377 2.6190772 0.81269
v -1.4797708 -1.5626153 0.8212824
v -1.4797708 -1.9743843 0.36019292
v -1.4797708 -2.2281473 -0.23253962
v -1.1815673 2.6190753 0.65483034
v -0.9676956 2.9370978 0.53545076
v -0.024446106 2.9370978 0.53545076
v 0.18942566 2.6190755 0.65483034
v -0.9676956 2.9370978 0.53545076
v -0.9676956 2.9370966 -0.5300508
v -0.024446106 2.9370966 -0.5300508
v -0.024446106 2.9370978 0.53545076
v 0.18942566 2.6190755 0.65483034
v 0.18942566 2.6190753 -0.6494304
v -0.9676956 2.9370966 -0.5300508
v -1.1815673 2.6190755 -0.6494304
v 0.18942566 2.6190753 -0.6494304
v -0.024446106 2.9370966 -0.5300508
v -1.1815673 2.6190755 -0.6494304
v -0.9676956 2.9370966 -0.5300508
v -0.9676956 2.9370978 0.53545076
v -1.1815673 2.6190753 0.65483034
v -0.4416858 4.011775 -0.38413605
v -0.4416858 2.8481207 -0.3841361
v -0.47936094 2.8481212 -0.3213437
v -0.47936094 4.0105066 -0.32134384
v -0.51703644 2.848122 -0.3841361
v -0.51703614 4.0023575 -0.3841361
v -0.47936094 4.0105066 -0.32134384
v -0.47936094 2.8481212 -0.3213437
v -0.51703614 4.0023575 -0.3841361
v -0.51703644 2.848122 -0.3841361
v -0.4416858 2.8481207 -0.3841361
v -0.4416858 4.011775 -0.38413605
vt 0.9638672 0.31103516
vt 0.9658203 0.31079102
vt 0.96435547 0.30932617
vt 0.9145508 0.31762695
vt 0.91748047 0.3173828
vt 0.91552734 0.3149414
vt 0.9038086 0.31518555
vt 0.90625 0.3149414
vt 0.90478516 0.31274414
vt 0.92578125 0.30249023
vt 0.92871094 0.3022461
vt 0.9272461 0.30004883
vt 0.9453125 0.31030273
vt 0.9472656 0.3100586
vt 0.94628906 0.30859375
vt 0.8955078 0.32373047
vt 0.89746094 0.32348633
vt 0.8959961 0.32202148
vt 0.93652344 0.30737305
vt 0.93847656 0.3071289
vt 0.9375 0.30566406
vt 0.95654297 0.31103516
vt 0.9580078 0.31079102
vt 0.95703125 0.30932617
vt 0.9658203 0.31079102
vt 0.9658203 0.33911133
vt 0.96728516 0.33911133
vt 0.96728516 0.31079102
vt 0.9692383 0.33911133
vt 0.9692383 0.31103516
vt 0.96728516 0.31079102
vt 0.96728516 0.33911133
vt 0.9638672 0.31103516
vt 0.9638672 0.33911133
vt 0.9658203 0.33911133
vt 0.9658203 0.31079102
vt 0.91748047 0.3173828
vt 0.91748047 0.33911133
vt 0.92041016 0.33911133
vt 0.92041016 0.3173828
vt 0.92333984 0.33911133
vt 0.92333984 0.31762695
vt 0.92041016 0.3173828
vt 0.92041016 0.33911133
vt 0.9145508 0.31762695
vt 0.9145508 0.33911133
vt 0.91748047 0.33911133
vt 0.91748047 0.3173828
vt 0.9243164 0.2541504
vt 0.9243164 0.27246094
vt 0.9404297 0.27246094
vt 0.9404297 0.2541504
vt 0.9243164 0.27246094
vt 0.9243164 0.28808594
vt 0.9404297 0.28808594
vt 0.9404297 0.27246094
vt 0.97216797 0.27246094
vt 0.97216797 0.2541504
vt 0.9560547 0.2541504
vt 0.9560547 0.27246094
vt 0.9404297 0.2541504
vt 0.9404297 0.27246094
vt 0.9560547 0.27246094
vt 0.9560547 0.2541504
vt 0.9086914 0.2541504
vt 0.9086914 0.27246094
vt 0.9243164 0.27246094
vt 0.9243164 0.2541504
vt 0.90625 0.3149414
vt 0.90625 0.33911133
vt 0.9091797 0.33911133
vt 0.9091797 0.3149414
vt 0.9116211 0.33911133
vt 0.9116211 0.31518555
vt 0.9091797 0.3149414
vt 0.9091797 0.33911133
vt 0.9038086 0.31518555
vt 0.9038086 0.33911133
vt 0.90625 0.33911133
vt 0.90625 0.3149414
vt 0.92871094 0.3022461
vt 0.92871094 0.33911133
vt 0.93115234 0.33911133
vt 0.93115234 0.3022461
vt 0.93408203 0.33911133
vt 0.93408203 0.30249023
vt 0.93115234 0.3022461
vt 0.93115234 0.33911133
vt 0.92578125 0.30249023
vt 0.92578125 0.33911133
vt 0.92871094 0.33911133
vt 0.92871094 0.3022461
vt 0.9736328 0.3215332
vt 0.9736328 0.33911133
vt 0.97558594 0.33911133
vt 0.97558594 0.3215332
vt 0.9770508 0.33911133
vt 0.9770508 0.3215332
vt 0.97558594 0.3215332
vt 0.97558594 0.33911133
vt 0.9716797 0.3215332
vt 0.9716797 0.33911133
vt 0.9736328 0.33911133
vt 0.9736328 0.3215332
vt 0.9472656 0.3100586
vt 0.9472656 0.33911133
vt 0.94921875 0.33911133
vt 0.94921875 0.3100586
vt 0.9511719 0.33911133
vt 0.9511719 0.31030273
vt 0.94921875 0.3100586
vt 0.94921875 0.33911133
vt 0.9453125 0.31030273
vt 0.9453125 0.33911133
vt 0.9472656 0.33911133
vt 0.9472656 0.3100586
vt 0.89746094 0.32348633
vt 0.89746094 0.33911133
vt 0.8989258 0.33911133
vt 0.8989258 0.32348633
vt 0.9008789 0.33911133
vt 0.9008789 0.32373047
vt 0.8989258 0.32348633
vt 0.8989258 0.33911133
vt 0.8955078 0.32373047
vt 0.8955078 0.33911133
vt 0.89746094 0.33911133
vt 0.89746094 0.32348633
vt 0.93847656 0.3071289
vt 0.93847656 0.33911133
vt 0.9404297 0.33911133
vt 0.9404297 0.3071289
vt 0.9423828 0.33911133
vt 0.9423828 0.30737305
vt 0.9404297 0.3071289
vt 0.9404297 0.33911133
vt 0.93652344 0.30737305
vt 0.93652344 0.33911133
vt 0.93847656 0.33911133
vt 0.93847656 0.3071289
vt 0.7050781 0.19238281
vt 0.7421875 0.17944336
vt 0.7167969 0.18713379
vt 0.7050781 0.29492188
vt 0.7763672 0.29492188
vt 0.7675781 0.18066406
vt 0.7763672 0.17980957
vt 0.7050781 0.29492188
vt 0.7050781 0.33398438
vt 0.7763672 0.33398438
vt 0.7763672 0.29492188
vt 0.8515625 0.171875
vt 0.82666016 0.16821289
vt 0.81640625 0.17248535
vt 0.81640625 0.29492188
vt 0.8876953 0.29492188
vt 0.8696289 0.17480469
vt 0.8876953 0.17480469
vt 0.86035156 0.3474121
vt 0.87060547 0.3474121
vt 0.87060547 0.33251953
vt 0.83984375 0.32788086
vt 0.8330078 0.3474121
vt 0.87060547 0.31396484
vt 0.8051758 0.3474121
vt 0.8598633 0.30395508
vt 0.87060547 0.30395508
vt 0.83251953 0.30395508
vt 0.8129883 0.30395508
vt 0.8100586 0.328125
vt 0.79248047 0.30395508
vt 0.79248047 0.31933594
vt 0.79248047 0.33520508
vt 0.79248047 0.3474121
vt 0.7763672 0.17980957
vt 0.7763672 0.29492188
vt 0.81640625 0.29492188
vt 0.81640625 0.17248535
vt 0.8076172 0.16748047
vt 0.79052734 0.17102051
vt 0.66552734 0.17407227
vt 0.66552734 0.29492188
vt 0.7050781 0.29492188
vt 0.7050781 0.19238281
vt 0.69384766 0.18237305
vt 0.6791992 0.17626953
vt 0.6513672 0.34350586
vt 0.65722656 0.33764648
vt 0.65722656 0.31176758
vt 0.6513672 0.30566406
vt 0.65722656 0.33764648
vt 0.68652344 0.33764648
vt 0.68652344 0.31176758
vt 0.65722656 0.31176758
vt 0.6513672 0.30566406
vt 0.6928711 0.30566406
vt 0.68652344 0.33764648
vt 0.6928711 0.34350586
vt 0.6928711 0.30566406
vt 0.68652344 0.31176758
vt 0.6928711 0.34350586
vt 0.68652344 0.33764648
vt 0.65722656 0.33764648
vt 0.6513672 0.34350586
vt 0.9580078 0.31079102
vt 0.9584961 0.33911133
vt 0.95996094 0.33911133
vt 0.95996094 0.31079102
vt 0.96191406 0.33911133
vt 0.96191406 0.31103516
vt 0.95996094 0.31079102
vt 0.95996094 0.33911133
vt 0.95654297 0.31103516
vt 0.95654297 0.33911133
vt 0.9584961 0.33911133
vt 0.9580078 0.31079102
vn 0.12384033 0.99072266 0.05429077
vn 0.12384033 0.99072266 0.05429077
vn 0.12384033 0.99072266 0.05429077
vn -0.076171875 -0.99658203 0.03338623
vn -0.076171875 -0.99658203 0.03338623
vn -0.076171875 -0.99658203 0.03338623
vn -0.083618164 -0.99560547 0.03665161
vn -0.083618164 -0.99560547 0.03665161
vn -0.083618164 -0.99560547 0.03665161
vn -0.083618164 -0.99560547 0.03665161
vn -0.083618164 -0.99560547 0.03665161
vn -0.083618164 -0.99560547 0.03665161
vn -0.12384033 -0.99072266 0.05429077
vn -0.12384033 -0.99072266 0.05429077
vn -0.12384033 -0.99072266 0.05429077
vn -0.12384033 -0.99072266 0.05429077
vn -0.12384033 -0.99072266 0.05429077
vn -0.12384033 -0.99072266 0.05429077
vn -0.12384033 -0.99072266 0.05429077
vn -0.12384033 -0.99072266 0.05429077
vn -0.12384033 -0.99072266 0.05429077
vn -0.12384033 0.99072266 -0.05429077
vn -0.12384033 0.99072266 -0.05429077
vn -0.12384033 0.99072266 -0.05429077
vn -0.8574219 0 -0.51464844
vn -0.8574219 0 -0.51464844
vn -0.8574219 0 -0.51464844
vn -0.8574219 0 -0.51464844
vn 0.8574219 1.1920929E-07 -0.51464844
vn 0.8574219 1.1920929E-07 -0.51464844
vn 0.8574219 1.1920929E-07 -0.51464844
vn 0.8574219 1.1920929E-07 -0.51464844
vn -5.364418E-07 0 1
vn -5.364418E-07 0 1
vn -5.364418E-07 0 1
vn -5.364418E-07 0 1
vn 0.8574219 0 -0.51464844
vn 0.8574219 0 -0.51464844
vn 0.8574219 0 -0.51464844
vn 0.8574219 0 -0.51464844
vn -0.8574219 -2.3841858E-07 -0.51464844
vn -0.8574219 -2.3841858E-07 -0.51464844
vn -0.8574219 -2.3841858E-07 -0.51464844
vn -0.8574219 -2.3841858E-07 -0.51464844
vn 1.1324883E-06 0 1
vn 1.1324883E-06 0 1
vn 1.1324883E-06 0 1
vn 1.1324883E-06 0 1
vn -0 0.004535675 1
vn -0 0.004535675 1
vn -0 0.004535675 1
vn -0 0.004535675 1
vn -0 1 -5.6028366E-06
vn -0 1 -5.6028366E-06
vn -0 1 -5.6028366E-06
vn -0 1 -5.6028366E-06
vn -0 0.004535675 -1
vn -0 0.004535675 -1
vn -0 0.004535675 -1
vn -0 0.004535675 -1
vn 1 0.004535675 0
vn 1 0.004535675 0
vn 1 0.004535675 0
vn 1 0.004535675 0
vn -1 0.004535675 0
vn -1 0.004535675 0
vn -1 0.004535675 0
vn -1 0.004535675 0
vn 0.8574219 0 -0.51464844
vn 0.8574219 0 -0.51464844
vn 0.8574219 0 -0.51464844
vn 0.8574219 0 -0.51464844
vn -0.8574219 -1.7881393E-07 -0.51464844
vn -0.8574219 -1.7881393E-07 -0.51464844
vn -0.8574219 -1.7881393E-07 -0.51464844
vn -0.8574219 -1.7881393E-07 -0.51464844
vn 5.9604645E-07 0 1
vn 5.9604645E-07 0 1
vn 5.9604645E-07 0 1
vn 5.9604645E-07 0 1
vn 0.8574219 0 -0.51464844
vn 0.8574219 0 -0.51464844
vn 0.8574219 0 -0.51464844
vn 0.8574219 0 -0.51464844
vn -0.8574219 -1.1920929E-07 -0.51464844
vn -0.8574219 -1.1920929E-07 -0.51464844
vn -0.8574219 -1.1920929E-07 -0.51464844
vn -0.8574219 -1.1920929E-07 -0.51464844
vn 4.172325E-07 0 1
vn 4.172325E-07 0 1
vn 4.172325E-07 0 1
vn 4.172325E-07 0 1
vn 0.8574219 0.51464844 0
vn 0.8574219 0.51464844 0
vn 0.8574219 0.51464844 0
vn 0.8574219 0.51464844 0
vn -0.8574219 0.51464844 -1.1920929E-07
vn -0.8574219 0.51464844 -1.1920929E-07
vn -0.8574219 0.51464844 -1.1920929E-07
vn -0.8574219 0.51464844 -1.1920929E-07
vn -0 -1 0
vn -0 -1 0
vn -0 -1 0
vn -0 -1 0
vn 0.8574219 0 -0.51464844
vn 0.8574219 0 -0.51464844
vn 0.8574219 0 -0.51464844
vn 0.8574219 0 -0.51464844
vn -0.8574219 -1.1920929E-07 -0.51464844
vn -0.8574219 -1.1920929E-07 -0.51464844
vn -0.8574219 -1.1920929E-07 -0.51464844
vn -0.8574219 -1.1920929E-07 -0.51464844
vn 5.364418E-07 0 1
vn 5.364418E-07 0 1
vn 5.364418E-07 0 1
vn 5.364418E-07 0 1
vn 0.8574219 0 -0.51464844
vn 0.8574219 0 -0.51464844
vn 0.8574219 0 -0.51464844
vn 0.8574219 0 -0.51464844
vn -0.8574219 -2.9802322E-07 -0.51464844
vn -0.8574219 -2.9802322E-07 -0.51464844
vn -0.8574219 -2.9802322E-07 -0.51464844
vn -0.8574219 -2.9802322E-07 -0.51464844
vn 5.364418E-07 0 1
vn 5.364418E-07 0 1
vn 5.364418E-07 0 1
vn 5.364418E-07 0 1
vn 0.8574219 0 -0.51464844
vn 0.8574219 0 -0.51464844
vn 0.8574219 0 -0.51464844
vn 0.8574219 0 -0.51464844
vn -0.8574219 0 -0.51464844
vn -0.8574219 0 -0.51464844
vn -0.8574219 0 -0.51464844
vn -0.8574219 0 -0.51464844
vn 5.364418E-07 0 1
vn 5.364418E-07 0 1
vn 5.364418E-07 0 1
vn 5.364418E-07 0 1
vn -0.008995056 -0.019302368 1
vn -0.016189575 -0.15588379 0.98779297
vn -0.04248047 -0.13061523 0.99072266
vn 7.3850155E-05 0.0018463135 1
vn -1.6093254E-06 0.00182724 1
vn 0.0031223297 -0.07922363 0.9970703
vn -0.0032978058 -0.03250122 0.9995117
vn -0 1 -1.1920929E-06
vn -0 1 -1.1920929E-06
vn -0 1 -1.1920929E-06
vn -0 1 -1.1920929E-06
vn 1.8775463E-05 0.0017051697 -1
vn -4.7028065E-05 0.0016613007 -1
vn -4.7028065E-05 0.0016613007 -1
vn -4.529953E-06 0.0016994476 -1
vn 1.2397766E-05 0.001709938 -1
vn 0.00012075901 0.0017623901 -1
vn 0.00012075901 0.0017623901 -1
vn 0.0031223297 -0.07922363 0.9970703
vn -0.0032978058 -0.03250122 0.9995117
vn 0.09197998 -0.90234375 0.42089844
vn -0.06213379 -0.9589844 0.2763672
vn -0.016189575 -0.15588379 0.98779297
vn 0.11505127 -0.9926758 0.035217285
vn -0.04248047 -0.13061523 0.99072266
vn -0.019577026 -0.9863281 -0.16296387
vn 0.36743164 -0.81933594 -0.4399414
vn -0.08911133 -0.96240234 -0.25683594
vn -0.049987793 -0.9560547 -0.28930664
vn -0.19604492 -0.92333984 0.33032227
vn -0.99853516 -0.053466797 -0.011962891
vn -0.76904297 -0.56884766 0.2919922
vn -0.4765625 -0.70214844 0.5288086
vn -0.008995056 -0.019302368 1
vn 1 0.0031471252 -0.0002965927
vn 1 0.0031738281 -0.00029921532
vn 1 0.0031738281 -0.00029921532
vn 1 0.0031147003 -0.00029349327
vn 1 0 0
vn 1 0 0
vn -0.99853516 -0.053466797 -0.011962891
vn -1 0.003376007 -0.0007853508
vn -1 0.003376007 -0.0007853508
vn -1 0.0033607483 -0.00078201294
vn -1 0 0
vn -0.76904297 -0.56884766 0.2919922
vn -0 0.35131836 0.93603516
vn -0 0.35131836 0.93603516
vn -0 0.35131836 0.93603516
vn -0 0.35131836 0.93603516
vn -0.32495117 0.9458008 -9.536743E-07
vn -0.32495117 0.9458008 -9.536743E-07
vn 0.32495117 0.9458008 -9.536743E-07
vn 0.32495117 0.9458008 -9.536743E-07
vn 0.82958984 0.55810547 -2.9802322E-07
vn 0.82958984 0.55810547 -2.9802322E-07
vn -0 0.35131836 -0.93603516
vn -0 0.35131836 -0.93603516
vn -0 0.35131836 -0.93603516
vn -0 0.35131836 -0.93603516
vn -0.82958984 0.55810547 -2.9802322E-07
vn -0.32495117 0.9458008 -9.536743E-07
vn -0.32495117 0.9458008 -9.536743E-07
vn -0.82958984 0.55810547 -2.9802322E-07
vn 0.8574219 0 0.51464844
vn 0.8574219 0 0.51464844
vn 0.8574219 0 0.51464844
vn 0.8574219 0 0.51464844
vn -0.8574219 1.1920929E-07 0.51464844
vn -0.8574219 1.1920929E-07 0.51464844
vn -0.8574219 1.1920929E-07 0.51464844
vn -0.8574219 1.1920929E-07 0.51464844
vn 5.364418E-07 0 -1
vn 5.364418E-07 0 -1
vn 5.364418E-07 0 -1
vn 5.364418E-07 0 -1
g skyBuildingAAC_geo_0
f 3/3/3 2/2/2 1/1/1
f 6/6/6 5/5/5 4/4/4
f 9/9/9 8/8/8 7/7/7
f 12/12/12 11/11/11 10/10/10
f 15/15/15 14/14/14 13/13/13
f 18/18/18 17/17/17 16/16/16
f 21/21/21 20/20/20 19/19/19
f 24/24/24 23/23/23 22/22/22
f 27/27/27 26/26/26 25/25/25
f 28/28/28 27/27/27 25/25/25
f 31/31/31 30/30/30 29/29/29
f 32/32/32 31/31/31 29/29/29
f 35/35/35 34/34/34 33/33/33
f 36/36/36 35/35/35 33/33/33
f 39/39/39 38/38/38 37/37/37
f 40/40/40 39/39/39 37/37/37
f 43/43/43 42/42/42 41/41/41
f 44/44/44 43/43/43 41/41/41
f 47/47/47 46/46/46 45/45/45
f 48/48/48 47/47/47 45/45/45
f 51/51/51 50/50/50 49/49/49
f 52/52/52 51/51/51 49/49/49
f 55/55/55 54/54/54 53/53/53
f 56/56/56 55/55/55 53/53/53
f 59/59/59 58/58/58 57/57/57
f 60/60/60 59/59/59 57/57/57
f 63/63/63 62/62/62 61/61/61
f 64/64/64 63/63/63 61/61/61
f 67/67/67 66/66/66 65/65/65
f 68/68/68 67/67/67 65/65/65
f 71/71/71 70/70/70 69/69/69
f 72/72/72 71/71/71 69/69/69
f 75/75/75 74/74/74 73/73/73
f 76/76/76 75/75/75 73/73/73
f 79/79/79 78/78/78 77/77/77
f 80/80/80 79/79/79 77/77/77
f 83/83/83 82/82/82 81/81/81
f 84/84/84 83/83/83 81/81/81
f 87/87/87 86/86/86 85/85/85
f 88/88/88 87/87/87 85/85/85
f 91/91/91 90/90/90 89/89/89
f 92/92/92 91/91/91 89/89/89
f 95/95/95 94/94/94 93/93/93
f 96/96/96 95/95/95 93/93/93
f 99/99/99 98/98/98 97/97/97
f 100/100/100 99/99/99 97/97/97
f 103/103/103 102/102/102 101/101/101
f 104/104/104 103/103/103 101/101/101
f 107/107/107 106/106/106 105/105/105
f 108/108/108 107/107/107 105/105/105
f 111/111/111 110/110/110 109/109/109
f 112/112/112 111/111/111 109/109/109
f 115/115/115 114/114/114 113/113/113
f 116/116/116 115/115/115 113/113/113
f 119/119/119 118/118/118 117/117/117
f 120/120/120 119/119/119 117/117/117
f 123/123/123 122/122/122 121/121/121
f 124/124/124 123/123/123 121/121/121
f 127/127/127 126/126/126 125/125/125
f 128/128/128 127/127/127 125/125/125
f 131/131/131 130/130/130 129/129/129
f 132/132/132 131/131/131 129/129/129
f 135/135/135 134/134/134 133/133/133
f 136/136/136 135/135/135 133/133/133
f 139/139/139 138/138/138 137/137/137
f 140/140/140 139/139/139 137/137/137
f 143/143/143 142/142/142 141/141/141
f 142/142/142 144/144/144 141/141/141
f 142/142/142 145/145/145 144/144/144
f 142/142/142 146/146/146 145/145/145
f 146/146/146 147/147/147 145/145/145
f 150/150/150 149/149/149 148/148/148
f 151/151/151 150/150/150 148/148/148
f 154/154/154 153/153/153 152/152/152
f 155/155/155 154/154/154 152/152/152
f 155/155/155 152/152/152 156/156/156
f 152/152/152 157/157/157 156/156/156
f 157/157/157 158/158/158 156/156/156
f 161/161/161 160/160/160 159/159/159
f 162/162/162 161/161/161 159/159/159
f 162/162/162 159/159/159 163/163/163
f 162/162/162 164/164/164 161/161/161
f 163/163/163 165/165/165 162/162/162
f 166/166/166 164/164/164 162/162/162
f 166/166/166 167/167/167 164/164/164
f 168/168/168 166/166/166 162/162/162
f 168/168/168 162/162/162 169/169/169
f 162/162/162 170/170/170 169/169/169
f 165/165/165 170/170/170 162/162/162
f 171/171/171 169/169/169 170/170/170
f 172/172/172 171/171/171 170/170/170
f 173/173/173 172/172/172 170/170/170
f 165/165/165 173/173/173 170/170/170
f 165/165/165 174/174/174 173/173/173
f 177/177/177 176/176/176 175/175/175
f 178/178/178 177/177/177 175/175/175
f 179/179/179 178/178/178 175/175/175
f 180/180/180 179/179/179 175/175/175
f 183/183/183 182/182/182 181/181/181
f 184/184/184 183/183/183 181/181/181
f 185/185/185 184/184/184 181/181/181
f 186/186/186 185/185/185 181/181/181
f 189/189/189 188/188/188 187/187/187
f 190/190/190 189/189/189 187/187/187
f 193/193/193 192/192/192 191/191/191
f 194/194/194 193/193/193 191/191/191
f 193/193/193 194/194/194 195/195/195
f 196/196/196 193/193/193 195/195/195
f 199/199/199 198/198/198 197/197/197
f 200/200/200 199/199/199 197/197/197
f 203/203/203 202/202/202 201/201/201
f 204/204/204 203/203/203 201/201/201
f 207/207/207 206/206/206 205/205/205
f 208/208/208 207/207/207 205/205/205
f 211/211/211 210/210/210 209/209/209
f 212/212/212 211/211/211 209/209/209
f 215/215/215 214/214/214 213/213/213
f 216/216/216 215/215/215 213/213/213
