g skyBuildingAAB_geo
v -0.76543486 -3.275714 0.12854528
v -0.6900845 -3.2851312 0.12854522
v -0.72775966 -3.2838628 0.065753005
v -0.08760193 3.5079339 0.43004718
v -0.012251587 3.517351 0.43004724
v -0.049926758 3.5160828 0.49283946
v -0.06315872 -3.7192059 -0.32176465
v 0.060013276 -3.7286224 -0.32176483
v -0.0015727234 -3.727354 -0.42440918
v 0.482068 0.6030659 0.6763066
v 1.1286894 0.6030659 0.6763066
v 1.132119 0.11500503 0.6834807
v 0.482068 0.6030638 -0.6763066
v 1.132119 0.11500519 -0.6834807
v 1.1286894 0.6030638 -0.6763066
v -1.0352383 -3.6462963 0.4132732
v -0.9230673 -3.6557128 0.41327313
v -0.9791528 -3.6544445 0.3197969
v -0.54558986 3.9759147 -0.051122535
v -0.47023955 3.9853313 -0.051122483
v -0.5079147 3.984063 0.011669735
v 0.30439392 -3.9759147 -0.18596897
v 0.37974426 -3.9853313 -0.18596902
v 0.3420691 -3.984063 -0.24876122
v -0.8405274 3.204782 0.3217356
v -0.8405274 3.204782 0.23826301
v -0.76823807 3.204782 0.2799993
v -0.8405274 3.204782 0.3217356
v -0.8164309 3.1301465 0.2799993
v -0.8405274 3.204782 0.23826301
v -0.8405274 3.204782 0.23826301
v -0.8164309 3.1301465 0.2799993
v -0.76823807 3.204782 0.2799993
v -0.76823807 3.204782 0.2799993
v -0.8164309 3.1301465 0.2799993
v -0.8405274 3.204782 0.3217356
v 0.060571175 2.501905 -0.58223075
v 0.060571175 2.501905 -0.6537351
v 0.12249576 2.501905 -0.6179829
v 0.060571175 2.501905 -0.58223075
v 0.08121271 2.4282448 -0.6179829
v 0.060571175 2.501905 -0.6537351
v 0.060571175 2.501905 -0.6537351
v 0.08121271 2.4282448 -0.6179829
v 0.12249576 2.501905 -0.6179829
v 0.12249576 2.501905 -0.6179829
v 0.08121271 2.4282448 -0.6179829
v 0.060571175 2.501905 -0.58223075
v -1.171224 2.498003 0.64292336
v -1.171224 2.498003 0.5589268
v -1.0984809 2.498003 0.600925
v -1.171224 2.498003 0.64292336
v -1.1469764 2.4282448 0.600925
v -1.171224 2.498003 0.5589268
v -1.171224 2.498003 0.5589268
v -1.1469764 2.4282448 0.600925
v -1.0984809 2.498003 0.600925
v -1.0984809 2.498003 0.600925
v -1.1469764 2.4282448 0.600925
v -1.171224 2.498003 0.64292336
v -0.6900845 -3.2851312 0.12854522
v -0.6900845 -2.642813 0.12854528
v -0.72775966 -2.6428137 0.06575286
v -0.72775966 -3.2838628 0.065753005
v -0.76543516 -2.6428137 0.12854531
v -0.76543486 -3.275714 0.12854528
v -0.72775966 -3.2838628 0.065753005
v -0.72775966 -2.6428137 0.06575286
v -0.76543486 -3.275714 0.12854528
v -0.76543516 -2.6428137 0.12854531
v -0.6900845 -2.642813 0.12854528
v -0.6900845 -3.2851312 0.12854522
v 0.28835082 0.7417394 0.8124078
v 1.3364648 0.11716049 0.8124078
v 1.3426394 -2.7945745 0.8185824
v -1.3426394 -2.151377 0.8185824
v 0.28593308 2.1246533 0.80999005
v -1.3340471 2.1246533 0.80999005
v -0.51370525 -2.5722215 0.8185824
v 0.5710322 -2.7883976 0.8185824
v -1.3340471 2.1246533 0.80999005
v -1.3340471 2.1246517 -0.80999005
v 0.28593308 2.1246517 -0.80999005
v 0.28593308 2.1246533 0.80999005
v 1.3426394 -2.667154 -0.8185824
v 1.3364648 0.11715843 -0.8124078
v 0.28835082 0.74173737 -0.8124078
v 0.57125336 -2.707847 -0.8185824
v -0.68039566 -2.6670525 -0.8185824
v -1.3426394 -2.7899616 -0.8185824
v -1.3340471 2.1246517 -0.80999005
v 0.28593308 2.1246517 -0.80999005
v 0.5710322 -2.7883976 0.8185824
v 1.3426394 -2.7945745 0.8185824
v 1.3426394 -3.0482183 0.31115893
v 0.11168262 -3.1057353 0.17105599
v 1.3426394 -2.788132 -0.4062232
v 1.3426394 -2.667154 -0.8185824
v 0.57125336 -2.707847 -0.8185824
v -0.68039566 -2.6670525 -0.8185824
v -1.3426394 -2.7899616 -0.8185824
v -1.3426394 -2.7899609 -0.33136082
v -0.51370525 -2.5722215 0.8185824
v -1.3426394 -2.6318328 0.35562658
v -1.3426394 -2.151377 0.8185824
v 1.3426394 -2.7945745 0.8185824
v 1.3364648 0.11716049 0.8124078
v 1.3364648 0.11715843 -0.8124078
v 1.3426394 -2.667154 -0.8185824
v 1.3426394 -2.788132 -0.4062232
v 1.3426394 -3.0482183 0.31115893
v -1.3426394 -2.7899616 -0.8185824
v -1.3426394 -2.6318328 0.35562658
v -1.3426394 -2.7899609 -0.33136082
v -1.3426394 -2.151377 0.8185824
v -1.3340471 2.1246533 0.80999005
v -1.3340471 2.1246517 -0.80999005
v -1.1761873 2.1246517 0.65213037
v -1.1693422 2.4426742 0.6452852
v 0.12122818 2.4426742 0.6452852
v 0.12807335 2.1246517 0.65213037
v -1.1693422 2.4426742 0.6452852
v -1.1693422 2.4426725 -0.6452852
v 0.12122818 2.4426725 -0.6452852
v 0.12122818 2.4426742 0.6452852
v -1.1693422 2.4426725 -0.6452852
v -1.1761873 2.1246517 -0.65213037
v 0.12807335 2.1246517 -0.65213037
v 0.12122818 2.4426725 -0.6452852
v 0.12807335 2.1246517 0.65213037
v 0.12122818 2.4426742 0.6452852
v 0.12122818 2.4426725 -0.6452852
v 0.12807335 2.1246517 -0.65213037
v -1.1761873 2.1246517 -0.65213037
v -1.1693422 2.4426725 -0.6452852
v -1.1693422 2.4426742 0.6452852
v -1.1761873 2.1246517 0.65213037
v 0.28835082 0.7417394 0.8124078
v 0.28593308 2.1246533 0.80999005
v 0.28593308 2.1246517 -0.80999005
v 0.28835082 0.74173737 -0.8124078
v 0.28835082 0.74173737 -0.8124078
v 1.3364648 0.11715843 -0.8124078
v 1.3364648 0.11716049 0.8124078
v 0.28835082 0.7417394 0.8124078
v -0.012251587 3.517351 0.43004724
v -0.012251587 2.353697 0.43004718
v -0.049926758 2.3536975 0.4928396
v -0.049926758 3.5160828 0.49283946
v -0.087602235 2.353698 0.43004715
v -0.08760193 3.5079339 0.43004718
v -0.049926758 3.5160828 0.49283946
v -0.049926758 2.3536975 0.4928396
v -0.08760193 3.5079339 0.43004718
v -0.087602235 2.353698 0.43004715
v -0.012251587 2.353697 0.43004718
v -0.012251587 3.517351 0.43004724
v 0.060013276 -3.7286224 -0.32176483
v 0.060013276 -2.6479669 -0.3217647
v -0.0015727234 -2.6479669 -0.4244096
v -0.0015727234 -3.727354 -0.42440918
v -0.063159026 -2.6479669 -0.32176465
v -0.06315872 -3.7192059 -0.32176465
v -0.0015727234 -3.727354 -0.42440918
v -0.0015727234 -2.6479669 -0.4244096
v -0.06315872 -3.7192059 -0.32176465
v -0.063159026 -2.6479669 -0.32176465
v 0.060013276 -2.6479669 -0.3217647
v 0.060013276 -3.7286224 -0.32176483
v -0.8507974 2.4071007 0.32674038
v -0.8473677 3.1634607 0.32331073
v -0.20074627 3.1634607 0.32331073
v -0.19731662 2.4071007 0.32674038
v -0.8473677 3.1634607 0.32331073
v -0.8473677 3.163457 -0.32331073
v -0.20074627 3.163457 -0.32331073
v -0.20074627 3.1634607 0.32331073
v -0.8473677 3.163457 -0.32331073
v -0.8507974 2.4071007 -0.32674038
v -0.19731662 2.4071007 -0.32674038
v -0.20074627 3.163457 -0.32331073
v -0.19731662 2.4071007 0.32674038
v -0.20074627 3.1634607 0.32331073
v -0.20074627 3.163457 -0.32331073
v -0.19731662 2.4071007 -0.32674038
v -0.8507974 2.4071007 -0.32674038
v -0.8473677 3.163457 -0.32331073
v -0.8473677 3.1634607 0.32331073
v -0.8507974 2.4071007 0.32674038
v 0.482068 0.6030659 0.6763066
v 0.482068 0.6030638 -0.6763066
v 1.1286894 0.6030638 -0.6763066
v 1.1286894 0.6030659 0.6763066
v 1.132119 0.11500503 0.6834807
v 1.1286894 0.6030659 0.6763066
v 1.1286894 0.6030638 -0.6763066
v 1.132119 0.11500519 -0.6834807
v -0.9230673 -3.6557128 0.41327313
v -0.9230673 -2.663822 0.4132732
v -0.9791528 -2.6638227 0.31979668
v -0.9791528 -3.6544445 0.3197969
v -1.0352386 -2.6638231 0.41327322
v -1.0352383 -3.6462963 0.4132732
v -0.9791528 -3.6544445 0.3197969
v -0.9791528 -2.6638227 0.31979668
v -1.0352383 -3.6462963 0.4132732
v -1.0352386 -2.6638231 0.41327322
v -0.9230673 -2.663822 0.4132732
v -0.9230673 -3.6557128 0.41327313
v -0.47023955 3.9853313 -0.051122483
v -0.47023955 3.0623963 -0.051122546
v -0.5079147 3.0623968 0.0116698835
v -0.5079147 3.984063 0.011669735
v -0.5455902 3.0623975 -0.05112257
v -0.54558986 3.9759147 -0.051122535
v -0.5079147 3.984063 0.011669735
v -0.5079147 3.0623968 0.0116698835
v -0.54558986 3.9759147 -0.051122535
v -0.5455902 3.0623975 -0.05112257
v -0.47023955 3.0623963 -0.051122546
v -0.47023955 3.9853313 -0.051122483
v 0.37974426 -3.9853313 -0.18596902
v 0.37974426 -2.9050689 -0.18596895
v 0.3420691 -2.9050689 -0.24876139
v 0.3420691 -3.984063 -0.24876122
v 0.30439362 -2.9050689 -0.18596894
v 0.30439392 -3.9759147 -0.18596897
v 0.3420691 -3.984063 -0.24876122
v 0.3420691 -2.9050689 -0.24876139
v 0.30439392 -3.9759147 -0.18596897
v 0.30439362 -2.9050689 -0.18596894
v 0.37974426 -2.9050689 -0.18596895
v 0.37974426 -3.9853313 -0.18596902
vt 0.48095703 0.042419434
vt 0.48291016 0.04220581
vt 0.48168945 0.040802002
vt 0.4736328 0.02772522
vt 0.47265625 0.029312134
vt 0.47436523 0.029342651
vt 0.46118164 0.031555176
vt 0.46411133 0.031341553
vt 0.46240234 0.028945923
vt 0.38500977 0.110839844
vt 0.38500977 0.09503174
vt 0.37329102 0.0949707
vt 0.4182129 0.110839844
vt 0.43017578 0.0949707
vt 0.4182129 0.09503174
vt 0.44262695 0.03375244
vt 0.4453125 0.03353882
vt 0.44384766 0.03137207
vt 0.43554688 0.033691406
vt 0.4345703 0.03527832
vt 0.43652344 0.035308838
vt 0.45288086 0.031585693
vt 0.45483398 0.03137207
vt 0.45361328 0.029953003
vt 0.9902344 0.006378174
vt 0.9902344 0.00945282
vt 0.9926758 0.008277893
vt 0.9897461 0.012550354
vt 0.9921875 0.011047363
vt 0.9902344 0.00945282
vt 0.9902344 0.00945282
vt 0.9921875 0.011047363
vt 0.9926758 0.008277893
vt 0.9926758 0.008277893
vt 0.9921875 0.011047363
vt 0.9951172 0.0104522705
vt 0.9716797 0.006378174
vt 0.9711914 0.00945282
vt 0.9741211 0.008277893
vt 0.9711914 0.012550354
vt 0.9736328 0.011047363
vt 0.9711914 0.00945282
vt 0.9711914 0.00945282
vt 0.9736328 0.011047363
vt 0.9741211 0.008277893
vt 0.9741211 0.008277893
vt 0.9736328 0.011047363
vt 0.9765625 0.0104522705
vt 0.98095703 0.006378174
vt 0.98046875 0.00945282
vt 0.98339844 0.008277893
vt 0.98046875 0.012550354
vt 0.98291016 0.011047363
vt 0.98046875 0.00945282
vt 0.98046875 0.00945282
vt 0.98291016 0.011047363
vt 0.98339844 0.008277893
vt 0.98339844 0.008277893
vt 0.98291016 0.011047363
vt 0.98583984 0.0104522705
vt 0.48291016 0.04220581
vt 0.48291016 0.057891846
vt 0.48461914 0.057891846
vt 0.48461914 0.042236328
vt 0.48657227 0.057891846
vt 0.48657227 0.042419434
vt 0.48461914 0.042236328
vt 0.48461914 0.057891846
vt 0.48095703 0.042419434
vt 0.48095703 0.057891846
vt 0.48291016 0.057891846
vt 0.48291016 0.04220581
vt 0.5883789 0.09466553
vt 0.60058594 0.080566406
vt 0.60058594 0.014846802
vt 0.54003906 0.02935791
vt 0.5883789 0.1262207
vt 0.54003906 0.1262207
vt 0.55859375 0.019866943
vt 0.5883789 0.014984131
vt 0.5883789 0.1862793
vt 0.6489258 0.1862793
vt 0.6489258 0.1262207
vt 0.5883789 0.1262207
vt 0.63720703 0.0178833
vt 0.63720703 0.08074951
vt 0.6489258 0.09490967
vt 0.6489258 0.017105103
vt 0.68310547 0.01828003
vt 0.6972656 0.015625
vt 0.6972656 0.1262207
vt 0.6489258 0.1262207
vt 0.31201172 0.028640747
vt 0.29223633 0.028640747
vt 0.29223633 0.041778564
vt 0.3239746 0.04537964
vt 0.29223633 0.060302734
vt 0.29223633 0.07098389
vt 0.31201172 0.07098389
vt 0.34448242 0.07098389
vt 0.36157227 0.07098389
vt 0.36157227 0.058380127
vt 0.3400879 0.028640747
vt 0.36157227 0.040618896
vt 0.36157227 0.028640747
vt 0.60058594 0.014846802
vt 0.60058594 0.080566406
vt 0.63720703 0.08074951
vt 0.63720703 0.0178833
vt 0.6279297 0.015106201
vt 0.6118164 0.009162903
vt 0.5029297 0.015098572
vt 0.5292969 0.018554688
vt 0.5136719 0.015052795
vt 0.54003906 0.02935791
vt 0.54003906 0.1262207
vt 0.5029297 0.1262207
vt 0.4375 0.06793213
vt 0.44189453 0.072387695
vt 0.47729492 0.072387695
vt 0.4819336 0.06793213
vt 0.44189453 0.072387695
vt 0.44189453 0.107910156
vt 0.47729492 0.107910156
vt 0.47729492 0.072387695
vt 0.44189453 0.107910156
vt 0.4375 0.11236572
vt 0.4819336 0.11236572
vt 0.47729492 0.107910156
vt 0.4819336 0.06793213
vt 0.47729492 0.072387695
vt 0.47729492 0.107910156
vt 0.4819336 0.11236572
vt 0.4375 0.11236572
vt 0.44189453 0.107910156
vt 0.44189453 0.072387695
vt 0.4375 0.06793213
vt 0.5883789 0.09466553
vt 0.5883789 0.1262207
vt 0.6489258 0.1262207
vt 0.6489258 0.09490967
vt 0.6489258 0.09490967
vt 0.63720703 0.08074951
vt 0.60058594 0.080566406
vt 0.5883789 0.09466553
vt 0.47265625 0.029312134
vt 0.47265625 0.057739258
vt 0.47436523 0.05770874
vt 0.47436523 0.029342651
vt 0.47607422 0.05770874
vt 0.47607422 0.029541016
vt 0.47436523 0.029342651
vt 0.47436523 0.05770874
vt 0.47607422 0.029541016
vt 0.47607422 0.05770874
vt 0.47802734 0.05770874
vt 0.47802734 0.029312134
vt 0.46411133 0.031341553
vt 0.46411133 0.05770874
vt 0.46704102 0.05770874
vt 0.46704102 0.03137207
vt 0.4699707 0.05770874
vt 0.4699707 0.031555176
vt 0.46704102 0.03137207
vt 0.46704102 0.05770874
vt 0.46118164 0.031555176
vt 0.46118164 0.05770874
vt 0.46411133 0.05770874
vt 0.46411133 0.031341553
vt 0.31298828 0.081848145
vt 0.31298828 0.1003418
vt 0.32885742 0.1003418
vt 0.32885742 0.081848145
vt 0.32885742 0.11590576
vt 0.34472656 0.11590576
vt 0.34472656 0.1003418
vt 0.32885742 0.1003418
vt 0.3605957 0.1003418
vt 0.3605957 0.081848145
vt 0.34472656 0.081848145
vt 0.34472656 0.1003418
vt 0.32885742 0.081848145
vt 0.32885742 0.1003418
vt 0.34472656 0.1003418
vt 0.34472656 0.081848145
vt 0.29711914 0.081848145
vt 0.29711914 0.1003418
vt 0.31298828 0.1003418
vt 0.31298828 0.081848145
vt 0.38500977 0.110839844
vt 0.4182129 0.110839844
vt 0.4182129 0.09503174
vt 0.38500977 0.09503174
vt 0.38500977 0.08312988
vt 0.38500977 0.09503174
vt 0.4182129 0.09503174
vt 0.4182129 0.08312988
vt 0.4453125 0.03353882
vt 0.4453125 0.057739258
vt 0.44799805 0.057739258
vt 0.44799805 0.033569336
vt 0.4506836 0.057739258
vt 0.4506836 0.03375244
vt 0.44799805 0.033569336
vt 0.44799805 0.057739258
vt 0.44262695 0.03375244
vt 0.44262695 0.057739258
vt 0.4453125 0.057739258
vt 0.4453125 0.03353882
vt 0.4345703 0.03527832
vt 0.4345703 0.057800293
vt 0.43652344 0.057800293
vt 0.43652344 0.035308838
vt 0.43823242 0.057800293
vt 0.43823242 0.035491943
vt 0.43652344 0.035308838
vt 0.43652344 0.057800293
vt 0.43823242 0.035491943
vt 0.43823242 0.057800293
vt 0.4399414 0.057800293
vt 0.4399414 0.035247803
vt 0.45483398 0.03137207
vt 0.45483398 0.057739258
vt 0.45654297 0.057739258
vt 0.45654297 0.031402588
vt 0.4584961 0.057739258
vt 0.4584961 0.031585693
vt 0.45654297 0.031402588
vt 0.45654297 0.057739258
vt 0.45288086 0.031585693
vt 0.45288086 0.057739258
vt 0.45483398 0.057739258
vt 0.45483398 0.03137207
vn -0.12384033 -0.99072266 0.05429077
vn -0.12384033 -0.99072266 0.05429077
vn -0.12384033 -0.99072266 0.05429077
vn -0.12384033 0.99072266 -0.05429077
vn -0.12384033 0.99072266 -0.05429077
vn -0.12384033 0.99072266 -0.05429077
vn -0.076171875 -0.99658203 0.03338623
vn -0.076171875 -0.99658203 0.03338623
vn -0.076171875 -0.99658203 0.03338623
vn -0 0.014694214 1
vn -0 0.014694214 1
vn -0 0.014694214 1
vn -0 0.014694214 -1
vn -0 0.014694214 -1
vn -0 0.014694214 -1
vn -0.083618164 -0.99560547 0.03665161
vn -0.083618164 -0.99560547 0.03665161
vn -0.083618164 -0.99560547 0.03665161
vn -0.12384033 0.99072266 -0.054260254
vn -0.12384033 0.99072266 -0.054260254
vn -0.12384033 0.99072266 -0.054260254
vn -0.12384033 -0.99072266 0.05429077
vn -0.12384033 -0.99072266 0.05429077
vn -0.12384033 -0.99072266 0.05429077
vn -0 1 0
vn -0 1 0
vn -0 1 0
vn -0.95166016 -0.3071289 0
vn -0.95166016 -0.3071289 0
vn -0.95166016 -0.3071289 0
vn 0.47583008 -0.3071289 -0.82421875
vn 0.47583008 -0.3071289 -0.82421875
vn 0.47583008 -0.3071289 -0.82421875
vn 0.47583008 -0.3071289 0.82421875
vn 0.47583008 -0.3071289 0.82421875
vn 0.47583008 -0.3071289 0.82421875
vn -0 1 0
vn -0 1 0
vn -0 1 0
vn -0.9628906 -0.2697754 0
vn -0.9628906 -0.2697754 0
vn -0.9628906 -0.2697754 0
vn 0.4814453 -0.2697754 -0.8339844
vn 0.4814453 -0.2697754 -0.8339844
vn 0.4814453 -0.2697754 -0.8339844
vn 0.4814453 -0.2697754 0.8339844
vn 0.4814453 -0.2697754 0.8339844
vn 0.4814453 -0.2697754 0.8339844
vn -0 1 0
vn -0 1 0
vn -0 1 0
vn -0.94433594 -0.32836914 0
vn -0.94433594 -0.32836914 0
vn -0.94433594 -0.32836914 0
vn 0.47216797 -0.32836914 -0.8178711
vn 0.47216797 -0.32836914 -0.8178711
vn 0.47216797 -0.32836914 -0.8178711
vn 0.47216797 -0.32836914 0.8178711
vn 0.47216797 -0.32836914 0.8178711
vn 0.47216797 -0.32836914 0.8178711
vn 0.8574219 0 -0.51464844
vn 0.8574219 0 -0.51464844
vn 0.8574219 0 -0.51464844
vn 0.8574219 0 -0.51464844
vn -0.8574219 -2.3841858E-07 -0.51464844
vn -0.8574219 -2.3841858E-07 -0.51464844
vn -0.8574219 -2.3841858E-07 -0.51464844
vn -0.8574219 -2.3841858E-07 -0.51464844
vn 6.556511E-07 0 1
vn 6.556511E-07 0 1
vn 6.556511E-07 0 1
vn 6.556511E-07 0 1
vn 0.00038027763 0.0019445419 1
vn 0.0006599426 0.0019426346 1
vn 0.00065279007 0.0019216537 1
vn -0.011123657 -0.021072388 0.9995117
vn 0.00016796589 0.0019454956 1
vn 0.00016796589 0.0019454956 1
vn -0.14221191 -0.52685547 0.8378906
vn -0.041625977 -0.5292969 0.84716797
vn -0 1 -1.1920929E-06
vn -0 1 -1.1920929E-06
vn -0 1 -1.1920929E-06
vn -0 1 -1.1920929E-06
vn 0.0006451607 0.0020103455 -1
vn 0.0006451607 0.0020103455 -1
vn 8.72612E-05 0.0017948151 -1
vn 0.00027441978 0.0019197464 -1
vn 0.010772705 -0.123168945 -0.9921875
vn -0.0061798096 -0.10412598 -0.9946289
vn -0 0.001748085 -1
vn -0 0.001748085 -1
vn -0.041625977 -0.5292969 0.84716797
vn -0.007160187 -0.89453125 0.44702148
vn 0.047790527 -0.99902344 -0.006641388
vn -0.080078125 -0.99560547 0.052490234
vn 0.09918213 -0.9458008 -0.3088379
vn 0.078430176 -0.94384766 -0.32080078
vn 0.010261536 -0.9291992 -0.36889648
vn 0.010772705 -0.123168945 -0.9921875
vn -0.0061798096 -0.10412598 -0.9946289
vn -0.2467041 -0.9628906 0.10900879
vn -0.14221191 -0.52685547 0.8378906
vn -0.28222656 -0.8691406 0.40551758
vn -0.011123657 -0.021072388 0.9995117
vn 1 0.0021305084 8.3208084E-05
vn 0.95703125 0.28930664 6.6161156E-05
vn 0.95703125 0.28930664 6.6161156E-05
vn 1 0.002155304 8.416176E-05
vn 1 0 0
vn 1 0 0
vn -1 0.0018482208 -0.00036239624
vn -1 0 0
vn -1 0 0
vn -1 0.0018539429 -0.00036358833
vn -1 0.0018701553 -0.00036668777
vn -1 0.0018701553 -0.00036668777
vn -0 0.021514893 1
vn -0 0.021514893 1
vn -0 0.021514893 1
vn -0 0.021514893 1
vn -0 1 -1.1920929E-06
vn -0 1 -1.1920929E-06
vn -0 1 -1.1920929E-06
vn -0 1 -1.1920929E-06
vn -0 0.021514893 -1
vn -0 0.021514893 -1
vn -0 0.021514893 -1
vn -0 0.021514893 -1
vn 1 0.021514893 0
vn 1 0.021514893 0
vn 1 0.021514893 0
vn 1 0.021514893 0
vn -1 0.021514893 0
vn -1 0.021514893 0
vn -1 0.021514893 0
vn -1 0.021514893 0
vn 0.8857422 0.46435547 -5.9604645E-07
vn 1 0.001748085 0
vn 1 0.001748085 0
vn 0.8857422 0.46435547 -5.9604645E-07
vn 0.8857422 0.46435547 -5.9604645E-07
vn 0.95703125 0.28930664 6.6161156E-05
vn 0.95703125 0.28930664 6.6161156E-05
vn 0.8857422 0.46435547 -5.9604645E-07
vn 0.8574219 0 0.51464844
vn 0.8574219 0 0.51464844
vn 0.8574219 0 0.51464844
vn 0.8574219 0 0.51464844
vn -0.8574219 1.1920929E-07 0.51464844
vn -0.8574219 1.1920929E-07 0.51464844
vn -0.8574219 1.1920929E-07 0.51464844
vn -0.8574219 1.1920929E-07 0.51464844
vn 1.1324883E-06 0 -1
vn 1.1324883E-06 0 -1
vn 1.1324883E-06 0 -1
vn 1.1324883E-06 0 -1
vn 0.8574219 0 -0.51464844
vn 0.8574219 0 -0.51464844
vn 0.8574219 0 -0.51464844
vn 0.8574219 0 -0.51464844
vn -0.8574219 -2.3841858E-07 -0.51464844
vn -0.8574219 -2.3841858E-07 -0.51464844
vn -0.8574219 -2.3841858E-07 -0.51464844
vn -0.8574219 -2.3841858E-07 -0.51464844
vn 8.940697E-07 0 1
vn 8.940697E-07 0 1
vn 8.940697E-07 0 1
vn 8.940697E-07 0 1
vn -0 0.004535675 1
vn -0 0.004535675 1
vn -0 0.004535675 1
vn -0 0.004535675 1
vn -0 1 -5.6028366E-06
vn -0 1 -5.6028366E-06
vn -0 1 -5.6028366E-06
vn -0 1 -5.6028366E-06
vn -0 0.004535675 -1
vn -0 0.004535675 -1
vn -0 0.004535675 -1
vn -0 0.004535675 -1
vn 1 0.004535675 0
vn 1 0.004535675 0
vn 1 0.004535675 0
vn 1 0.004535675 0
vn -1 0.004535675 0
vn -1 0.004535675 0
vn -1 0.004535675 0
vn -1 0.004535675 0
vn -0 1 -1.6093254E-06
vn -0 1 -1.6093254E-06
vn -0 1 -1.6093254E-06
vn -0 1 -1.6093254E-06
vn 1 0.0070266724 0
vn 1 0.0070266724 0
vn 1 0.0070266724 0
vn 1 0.0070266724 0
vn 0.8574219 0 -0.51464844
vn 0.8574219 0 -0.51464844
vn 0.8574219 0 -0.51464844
vn 0.8574219 0 -0.51464844
vn -0.8574219 -1.1920929E-07 -0.51464844
vn -0.8574219 -1.1920929E-07 -0.51464844
vn -0.8574219 -1.1920929E-07 -0.51464844
vn -0.8574219 -1.1920929E-07 -0.51464844
vn 6.556511E-07 0 1
vn 6.556511E-07 0 1
vn 6.556511E-07 0 1
vn 6.556511E-07 0 1
vn 0.8574219 0 0.51464844
vn 0.8574219 0 0.51464844
vn 0.8574219 0 0.51464844
vn 0.8574219 0 0.51464844
vn -0.8574219 1.1920929E-07 0.51464844
vn -0.8574219 1.1920929E-07 0.51464844
vn -0.8574219 1.1920929E-07 0.51464844
vn -0.8574219 1.1920929E-07 0.51464844
vn 4.7683716E-07 0 -1
vn 4.7683716E-07 0 -1
vn 4.7683716E-07 0 -1
vn 4.7683716E-07 0 -1
vn 0.8574219 0 -0.51464844
vn 0.8574219 0 -0.51464844
vn 0.8574219 0 -0.51464844
vn 0.8574219 0 -0.51464844
vn -0.8574219 -1.1920929E-07 -0.51464844
vn -0.8574219 -1.1920929E-07 -0.51464844
vn -0.8574219 -1.1920929E-07 -0.51464844
vn -0.8574219 -1.1920929E-07 -0.51464844
vn 4.7683716E-07 0 1
vn 4.7683716E-07 0 1
vn 4.7683716E-07 0 1
vn 4.7683716E-07 0 1
g skyBuildingAAB_geo_0
f 3/3/3 2/2/2 1/1/1
f 6/6/6 5/5/5 4/4/4
f 9/9/9 8/8/8 7/7/7
f 12/12/12 11/11/11 10/10/10
f 15/15/15 14/14/14 13/13/13
f 18/18/18 17/17/17 16/16/16
f 21/21/21 20/20/20 19/19/19
f 24/24/24 23/23/23 22/22/22
f 27/27/27 26/26/26 25/25/25
f 30/30/30 29/29/29 28/28/28
f 33/33/33 32/32/32 31/31/31
f 36/36/36 35/35/35 34/34/34
f 39/39/39 38/38/38 37/37/37
f 42/42/42 41/41/41 40/40/40
f 45/45/45 44/44/44 43/43/43
f 48/48/48 47/47/47 46/46/46
f 51/51/51 50/50/50 49/49/49
f 54/54/54 53/53/53 52/52/52
f 57/57/57 56/56/56 55/55/55
f 60/60/60 59/59/59 58/58/58
f 63/63/63 62/62/62 61/61/61
f 64/64/64 63/63/63 61/61/61
f 67/67/67 66/66/66 65/65/65
f 68/68/68 67/67/67 65/65/65
f 71/71/71 70/70/70 69/69/69
f 72/72/72 71/71/71 69/69/69
f 75/75/75 74/74/74 73/73/73
f 76/76/76 75/75/75 73/73/73
f 73/73/73 77/77/77 76/76/76
f 77/77/77 78/78/78 76/76/76
f 76/76/76 79/79/79 75/75/75
f 79/79/79 80/80/80 75/75/75
f 83/83/83 82/82/82 81/81/81
f 84/84/84 83/83/83 81/81/81
f 87/87/87 86/86/86 85/85/85
f 88/88/88 87/87/87 85/85/85
f 88/88/88 89/89/89 87/87/87
f 89/89/89 90/90/90 87/87/87
f 87/87/87 90/90/90 91/91/91
f 92/92/92 87/87/87 91/91/91
f 95/95/95 94/94/94 93/93/93
f 96/96/96 95/95/95 93/93/93
f 96/96/96 97/97/97 95/95/95
f 96/96/96 98/98/98 97/97/97
f 96/96/96 99/99/99 98/98/98
f 100/100/100 99/99/99 96/96/96
f 100/100/100 96/96/96 101/101/101
f 96/96/96 102/102/102 101/101/101
f 96/96/96 93/93/93 103/103/103
f 96/96/96 104/104/104 102/102/102
f 96/96/96 103/103/103 104/104/104
f 103/103/103 105/105/105 104/104/104
f 108/108/108 107/107/107 106/106/106
f 109/109/109 108/108/108 106/106/106
f 110/110/110 109/109/109 106/106/106
f 111/111/111 110/110/110 106/106/106
f 114/114/114 113/113/113 112/112/112
f 113/113/113 115/115/115 112/112/112
f 115/115/115 116/116/116 112/112/112
f 116/116/116 117/117/117 112/112/112
f 120/120/120 119/119/119 118/118/118
f 121/121/121 120/120/120 118/118/118
f 124/124/124 123/123/123 122/122/122
f 125/125/125 124/124/124 122/122/122
f 128/128/128 127/127/127 126/126/126
f 129/129/129 128/128/128 126/126/126
f 132/132/132 131/131/131 130/130/130
f 133/133/133 132/132/132 130/130/130
f 136/136/136 135/135/135 134/134/134
f 137/137/137 136/136/136 134/134/134
f 140/140/140 139/139/139 138/138/138
f 141/141/141 140/140/140 138/138/138
f 144/144/144 143/143/143 142/142/142
f 145/145/145 144/144/144 142/142/142
f 148/148/148 147/147/147 146/146/146
f 149/149/149 148/148/148 146/146/146
f 152/152/152 151/151/151 150/150/150
f 153/153/153 152/152/152 150/150/150
f 156/156/156 155/155/155 154/154/154
f 157/157/157 156/156/156 154/154/154
f 160/160/160 159/159/159 158/158/158
f 161/161/161 160/160/160 158/158/158
f 164/164/164 163/163/163 162/162/162
f 165/165/165 164/164/164 162/162/162
f 168/168/168 167/167/167 166/166/166
f 169/169/169 168/168/168 166/166/166
f 172/172/172 171/171/171 170/170/170
f 173/173/173 172/172/172 170/170/170
f 176/176/176 175/175/175 174/174/174
f 177/177/177 176/176/176 174/174/174
f 180/180/180 179/179/179 178/178/178
f 181/181/181 180/180/180 178/178/178
f 184/184/184 183/183/183 182/182/182
f 185/185/185 184/184/184 182/182/182
f 188/188/188 187/187/187 186/186/186
f 189/189/189 188/188/188 186/186/186
f 192/192/192 191/191/191 190/190/190
f 193/193/193 192/192/192 190/190/190
f 196/196/196 195/195/195 194/194/194
f 197/197/197 196/196/196 194/194/194
f 200/200/200 199/199/199 198/198/198
f 201/201/201 200/200/200 198/198/198
f 204/204/204 203/203/203 202/202/202
f 205/205/205 204/204/204 202/202/202
f 208/208/208 207/207/207 206/206/206
f 209/209/209 208/208/208 206/206/206
f 212/212/212 211/211/211 210/210/210
f 213/213/213 212/212/212 210/210/210
f 216/216/216 215/215/215 214/214/214
f 217/217/217 216/216/216 214/214/214
f 220/220/220 219/219/219 218/218/218
f 221/221/221 220/220/220 218/218/218
f 224/224/224 223/223/223 222/222/222
f 225/225/225 224/224/224 222/222/222
f 228/228/228 227/227/227 226/226/226
f 229/229/229 228/228/228 226/226/226
f 232/232/232 231/231/231 230/230/230
f 233/233/233 232/232/232 230/230/230
