g skyRubbleMediumAAA_geo2
v -33.22455 33.333336 2.329524
v -65.79896 0 9.272513
v -65.79896 33.333336 9.272513
v -33.22455 0 2.329525
v -65.79896 -33.33333 9.272513
v 5.42101E-22 33.333336 0
v -33.22455 -33.33333 2.329524
v 5.42101E-22 0 5.921189E-14
v 33.224552 33.333336 2.329524
v 5.42101E-22 -33.33333 0
v 33.224552 0 2.3295243
v 65.798965 33.333336 9.272513
v 33.224552 -33.33333 2.329524
v 65.798965 0 9.272513
v 65.798965 -33.33333 9.272513
vt 0.42285156 0.42919922
vt 0.55908203 0.5654297
vt 0.55908203 0.42919922
vt 0.42285156 0.5654297
vt 0.55908203 0.7011719
vt 0.2866211 0.42919922
vt 0.42285156 0.7011719
vt 0.2866211 0.5654297
vt 0.15063477 0.42919922
vt 0.2866211 0.7011719
vt 0.15063477 0.5654297
vt 0.01448822 0.42919922
vt 0.15063477 0.7011719
vt 0.01448822 0.5654297
vt 0.01448822 0.7011719
vn 0.13952637 0 0.9902344
vn 0.2084961 0 0.97802734
vn 0.2084961 0 0.97802734
vn 0.13952637 0 0.9902344
vn 0.2084961 0 0.97802734
vn -0 0 1
vn 0.13952637 0 0.9902344
vn -0 0 1
vn -0.13952637 0 0.9902344
vn -0 0 1
vn -0.13952637 0 0.9902344
vn -0.2084961 0 0.97802734
vn -0.13952637 0 0.9902344
vn -0.2084961 0 0.97802734
vn -0.2084961 0 0.97802734
g skyRubbleMediumAAA_geo2_0
f 3/3/3 2/2/2 1/1/1
f 2/2/2 4/4/4 1/1/1
f 2/2/2 5/5/5 4/4/4
f 1/1/1 4/4/4 6/6/6
f 5/5/5 7/7/7 4/4/4
f 4/4/4 8/8/8 6/6/6
f 4/4/4 7/7/7 8/8/8
f 6/6/6 8/8/8 9/9/9
f 7/7/7 10/10/10 8/8/8
f 8/8/8 11/11/11 9/9/9
f 8/8/8 10/10/10 11/11/11
f 9/9/9 11/11/11 12/12/12
f 10/10/10 13/13/13 11/11/11
f 11/11/11 14/14/14 12/12/12
f 11/11/11 13/13/13 14/14/14
f 13/13/13 15/15/15 14/14/14
