g steps_geo23
v -5.205235 6.138406 6.118565
v -5.205235 6.138406 5.864385
v 0.22242752 6.138406 5.864385
v 0.22242752 6.138406 6.118565
v -5.205235 6.138406 5.864385
v -5.205235 5.882639 5.864385
v 0.22242752 5.882639 5.864385
v 0.22242752 6.138406 5.864385
vt 0.5 0.63427734
vt 0.5 0.5678711
vt 5.9604645E-08 0.5678711
vt -1.9669533E-06 0.63427734
vt 0.5 0.5678711
vt 0.5 0.50146484
vt 1.9669533E-06 0.50146484
vt 5.9604645E-08 0.5678711
vn -0 1 0
vn -0 1 0
vn -0 1 0
vn -0 1 0
vn -0 0 -1
vn -0 0 -1
vn -0 0 -1
vn -0 0 -1
g steps_geo23_0
f 3/3/3 2/2/2 1/1/1
f 4/4/4 3/3/3 1/1/1
f 7/7/7 6/6/6 5/5/5
f 8/8/8 7/7/7 5/5/5
