g steps_geo45
v -5.205235 11.765281 11.710495
v -5.205235 11.765281 11.456318
v 0.22242752 11.765281 11.456318
v 0.22242752 11.765281 11.710495
v -5.205235 11.765281 11.456318
v -5.205235 11.509514 11.456318
v 0.22242752 11.509514 11.456318
v 0.22242752 11.765281 11.456318
vt 0.5 0.63427734
vt 0.5 0.5678711
vt 5.9604645E-08 0.5678711
vt -1.9669533E-06 0.63427734
vt 0.5 0.5678711
vt 0.5 0.50146484
vt 1.9669533E-06 0.50146484
vt 5.9604645E-08 0.5678711
vn -0 1 0
vn -0 1 0
vn -0 1 0
vn -0 1 0
vn -0 0 -1
vn -0 0 -1
vn -0 0 -1
vn -0 0 -1
g steps_geo45_0
f 3/3/3 2/2/2 1/1/1
f 4/4/4 3/3/3 1/1/1
f 7/7/7 6/6/6 5/5/5
f 8/8/8 7/7/7 5/5/5
