g steps_geo56
v -0 0.26084587 0.2604956
v -0 0.25576654 0
v 5.4276624 0.25576654 0
v 5.4276624 0.26084587 0.2604956
v -0 0.25576654 0
v -0 1.1597245E-06 0
v 5.4276624 1.1597245E-06 0
v 5.4276624 0.25576654 0
vt 0.5 0.4975586
vt 0.5 0.43115234
vt 5.9604645E-08 0.43115234
vt -1.9669533E-06 0.4975586
vt 0.5 0.43115234
vt 0.5 0.3647461
vt 1.9669533E-06 0.36450195
vt 5.9604645E-08 0.43115234
vn -0 1 -0.019500732
vn -0 1 -0.019500732
vn -0 1 -0.019500732
vn -0 1 -0.019500732
vn -0 0 -1
vn -0 0 -1
vn -0 0 -1
vn -0 0 -1
g steps_geo56_0
f 3/3/3 2/2/2 1/1/1
f 4/4/4 3/3/3 1/1/1
f 7/7/7 6/6/6 5/5/5
f 8/8/8 7/7/7 5/5/5
