g steps_geo2
v -5.205235 0.7673007 0.78080153
v -5.205235 0.7673007 0.5266228
v 0.22242752 0.7673007 0.5266228
v 0.22242752 0.7673007 0.78080153
v -5.205235 0.7673007 0.5266228
v -5.205235 0.51153386 0.5266228
v 0.22242752 0.51153386 0.5266228
v 0.22242752 0.7673007 0.5266228
vt 0.5 0.4975586
vt 0.5 0.43115234
vt 5.9604645E-08 0.43115234
vt -1.9669533E-06 0.4975586
vt 0.5 0.43115234
vt 0.5 0.3647461
vt 1.9669533E-06 0.36450195
vt 5.9604645E-08 0.43115234
vn -0 1 0
vn -0 1 0
vn -0 1 0
vn -0 1 0
vn -0 0 -1
vn -0 0 -1
vn -0 0 -1
vn -0 0 -1
g steps_geo2_0
f 3/3/3 2/2/2 1/1/1
f 4/4/4 3/3/3 1/1/1
f 7/7/7 6/6/6 5/5/5
f 8/8/8 7/7/7 5/5/5
