g treeCABack_geo
v 0.8561202 10.8118515 -1.4977226E-07
v 0.75114995 8.938942 -1.9775256E-07
v 0.7807852 10.724025 -7.182755E-07
v 0.8427201 8.933893 -4.7315257E-07
v 0.5946551 8.423261 -2.3677086E-07
v 0.6636138 8.380704 -1.0488242E-06
v 0.52004004 7.940492 -1.2635192E-07
v 0.6268376 7.950251 -7.645597E-05
v 0.5710733 7.653971 2.4014115E-08
v 0.294518 7.9411097 2.0049428E-07
v 0.95369995 7.999028 4.5095433E-08
v 0.8179883 8.334127 2.8003203E-07
v 0.2266953 7.710322 -3.643258E-07
v 0.18674809 8.498526 5.544645E-07
v 0.1134536 8.463794 -8.875902E-07
v 0.18939863 7.2910643 -8.1692635E-09
v -0.009057346 8.9700575 -8.1507073E-07
v 0.45831805 7.2973094 -6.63404E-07
v -0.03143787 8.879348 8.3464005E-07
v 0.96282214 8.233496 7.511218E-08
v 0.9123866 8.277527 -3.5471547E-07
v 1.0261662 8.132849 -1.6481026E-08
v 1.3798237 8.719329 2.8533844E-07
v 1.2984035 7.8924417 -4.162421E-07
v 1.3168706 8.750836 6.933552E-07
v 1.828854 9.37788 1.4353492E-06
v 1.7659097 9.384131 -1.4808692E-06
v 1.4712315 8.089117 -4.500219E-07
v 1.4479359 7.560179 3.971046E-07
v 1.554006 7.8439636 -2.4397968E-06
v 1.5092665 7.47229 1.2891757E-06
v 1.0644459 6.81625 4.8847363E-07
v 1.1877406 6.832294 5.0879186E-07
v 0.53922576 6.181723 2.5559257E-07
v 0.77531844 6.316498 1.1254724E-07
v 0.57048464 6.083811 9.392492E-07
v 0.225254 5.642738 4.911013E-08
v 0.80674064 6.234857 -9.805776E-07
v 0.31107107 5.607195 -9.098741E-08
v 0.9751466 6.1974187 1.2780025E-07
v 2.0043721 6.431663 -2.0613544E-07
v 1.998142 6.469419 -3.2870267E-07
v 0.07264544 5.1977587 -3.7247557E-07
v 0.18869904 5.2008085 6.7481125E-07
v -0.03908361 5.1053123 8.3124814E-07
v -0.037827015 4.621097 1.2392686E-06
v -0.52017355 5.145379 4.8962427E-08
v -0.07075321 5.5439935 -1.8517814E-07
v -0.43886533 5.0150814 6.640567E-07
v -0.48460022 3.6107352 -6.0500975E-07
v -0.009163519 3.9486969 5.274691E-07
v -0.056558788 3.6177073 1.4927302E-07
v -0.5460075 5.3441 8.1634454E-07
v -0.5268043 3.312135 -8.6662413E-07
v -0.7515132 4.0996375 9.364121E-08
v 0.093699224 2.0076914 -8.701566E-07
v -0.88710636 3.895279 -2.7329259E-07
v -0.5113241 2.3092203 5.9881927E-07
v -0.39525148 2.0173461 5.744792E-07
v -0.41031817 -0.984823 -5.069514E-07
v 0.41031826 -0.984823 -6.158498E-07
v -1.0419427 3.963342 8.097476E-07
v -0.99918777 4.136762 -5.7710764E-07
v -1.0926455 4.3227277 8.9847686E-07
v -0.5598907 5.6301575 -7.809954E-07
v -0.1771523 5.9404316 7.9722577E-07
v -0.8287052 5.9041333 -5.6776607E-08
v -0.9021375 5.711007 9.979827E-08
v -0.9463722 5.8293204 -3.5621048E-07
v -1.321795 6.1783524 -2.574657E-07
v -1.314892 6.0847654 2.149658E-08
v -0.5857834 5.8294287 -3.122732E-07
v -0.47530246 6.128826 -9.503366E-07
v -0.69880515 6.028889 1.3399856E-06
v -0.4632746 6.216245 1.5992609E-07
v 0.021828089 6.1822667 -1.0231835E-06
v -0.17124309 6.37888 -5.1323804E-07
v -0.10966625 6.572855 1.7247056E-07
v 0.39578357 6.9226685 1.052792E-06
v 0.07638674 6.886285 -6.1988175E-08
v 0.05670489 7.1749997 -2.186561E-07
v -0.18005534 7.647607 7.865747E-09
v -0.35706538 7.5203404 -1.5886856E-06
v -0.14983074 8.306327 -1.0776603E-07
v -0.38622227 8.428883 -8.378367E-07
v -0.23155548 8.432029 -1.2723219E-06
v -0.2839296 8.592615 -1.3789327E-06
v -0.42327625 8.888468 -4.582459E-08
v -0.59913886 8.906733 7.1481065E-07
v -1.3016756 9.903094 1.5684441E-06
v -1.3769516 9.877718 6.3125754E-07
v -1.7218553 10.580667 3.9955953E-07
v -1.7965498 10.472669 5.266109E-07
v -0.07185345 8.970028 -9.3458944E-08
v -0.05322578 9.039306 -8.3787364E-07
v 0.32053715 10.659803 -6.386747E-07
v 0.26998422 10.685165 -1.8450567E-06
v -0.17973201 9.303963 -1.0292163E-06
v -0.21737249 9.285013 7.6414295E-07
v 2.6276152 9.6582985 -7.5586195E-07
v 2.703233 9.66477 1.9554863E-08
v 1.6081556 7.7365427 -7.388491E-08
v 1.6794773 7.1772723 -1.64144E-07
v 1.8034846 7.4348187 -2.619879E-07
v 1.9547231 7.139801 1.5139256E-07
v 1.9286119 7.441202 -2.8350448E-07
v 2.2912452 7.5987186 7.915378E-07
v 2.1342301 7.743345 6.945094E-07
v 2.4352884 7.6114306 -1.28229E-06
v 2.742034 7.825834 4.998408E-08
v 2.7543607 7.99608 -8.0682577E-07
v 2.8548288 7.9142013 -6.557054E-07
v 3.0368698 7.6875243 -2.1927451E-06
v 3.143402 8.166949 -4.1323193E-07
v 3.0744665 7.7631507 6.947117E-07
v 3.193642 8.299692 -3.5796575E-07
v 3.5038052 8.864053 -1.2685938E-06
v 3.5731266 8.768786 4.1091792E-07
v 3.2250078 7.788503 -5.4745396E-08
v 3.1246364 7.801009 -3.004949E-08
v 3.2187488 7.983975 1.1111761E-06
v 3.1434252 8.00913 8.0387615E-08
v 3.3883982 8.262016 -2.1751798E-07
v 3.3569949 8.287257 -1.193806E-06
v -1.6335455 4.8069124 3.4400355E-07
v -2.8911498 5.5971723 8.9911714E-07
v -2.8605657 5.647155 -9.3291163E-07
v -1.559511 4.875377 6.3360495E-09
v -0.96276534 4.372404 -5.374979E-07
v -0.8638707 4.4469213 -4.7431092E-07
v -0.7720528 4.900781 8.549781E-08
v -0.8839455 4.981647 2.72734E-07
v -0.86565405 5.100026 2.9915756E-07
v -0.7418141 5.2310495 -1.8971645E-06
v -0.85369337 5.2683787 -1.1764375E-06
v -1.3694466 5.386318 -1.6666328E-07
v -1.3253676 5.2243223 -6.800165E-07
v -1.5010623 5.648623 -1.2052319E-06
v -1.5690405 5.5735736 -8.201819E-07
v -1.9327193 6.180067 -1.0709726E-07
v -2.0251245 6.0358543 5.8028854E-07
v -2.0446184 6.1736436 6.5315413E-07
v -1.9921457 6.7197475 -6.634728E-07
v -2.05415 6.675643 6.5437854E-07
v -2.3183088 6.192065 1.1279185E-06
v -2.3486435 6.0855274 4.2792715E-07
v -2.5127432 6.4237876 6.429422E-08
v -2.586793 6.3484044 9.84979E-07
v -2.8253484 6.624171 -6.0236187E-07
v -2.9056747 6.561249 3.509565E-07
v -3.3398726 6.987882 -6.303526E-07
v -3.3398724 7.0374804 -6.492145E-07
vt 0.022872925 0.27490234
vt 0.023635864 0.28857422
vt 0.023406982 0.27539062
vt 0.022964478 0.28857422
vt 0.024765015 0.29223633
vt 0.024261475 0.29248047
vt 0.025314331 0.29589844
vt 0.024536133 0.2956543
vt 0.02494812 0.29785156
vt 0.02696228 0.29589844
vt 0.022155762 0.29541016
vt 0.023147583 0.29296875
vt 0.027450562 0.29736328
vt 0.027740479 0.29174805
vt 0.028274536 0.2919922
vt 0.02772522 0.3005371
vt 0.029174805 0.28833008
vt 0.025756836 0.3005371
vt 0.029327393 0.28881836
vt 0.022079468 0.29370117
vt 0.022445679 0.2932129
vt 0.021621704 0.2944336
vt 0.019042969 0.29003906
vt 0.019638062 0.29614258
vt 0.019500732 0.28979492
vt 0.015777588 0.2854004
vt 0.016235352 0.28515625
vt 0.018371582 0.29467773
vt 0.018554688 0.29858398
vt 0.01777649 0.29638672
vt 0.018096924 0.2993164
vt 0.021347046 0.30395508
vt 0.020446777 0.30395508
vt 0.025177002 0.30859375
vt 0.023452759 0.3076172
vt 0.02494812 0.30932617
vt 0.02746582 0.3125
vt 0.023223877 0.30810547
vt 0.02684021 0.31274414
vt 0.021987915 0.30859375
vt 0.01448822 0.30688477
vt 0.014533997 0.30639648
vt 0.028579712 0.31567383
vt 0.02772522 0.31567383
vt 0.029388428 0.31640625
vt 0.029373169 0.32006836
vt 0.03289795 0.3161621
vt 0.02961731 0.31323242
vt 0.032287598 0.31713867
vt 0.03262329 0.32739258
vt 0.029174805 0.32495117
vt 0.029510498 0.32739258
vt 0.033081055 0.31469727
vt 0.032928467 0.32958984
vt 0.034576416 0.32373047
vt 0.028411865 0.33911133
vt 0.035583496 0.3251953
vt 0.032836914 0.33691406
vt 0.031982422 0.3388672
vt 0.032104492 0.35131836
vt 0.026107788 0.35375977
vt 0.036712646 0.32470703
vt 0.036376953 0.32348633
vt 0.037078857 0.32226562
vt 0.033172607 0.31274414
vt 0.030395508 0.31030273
vt 0.03515625 0.31054688
vt 0.03567505 0.31201172
vt 0.036010742 0.3112793
vt 0.038726807 0.30859375
vt 0.03869629 0.30932617
vt 0.03338623 0.3112793
vt 0.032562256 0.30908203
vt 0.034210205 0.30981445
vt 0.032470703 0.3083496
vt 0.028945923 0.30859375
vt 0.030349731 0.3071289
vt 0.029907227 0.30566406
vt 0.0262146 0.30322266
vt 0.028549194 0.3034668
vt 0.028686523 0.30126953
vt 0.030410767 0.29785156
vt 0.031707764 0.29882812
vt 0.030197144 0.2932129
vt 0.031921387 0.29223633
vt 0.030792236 0.29223633
vt 0.031173706 0.29101562
vt 0.032196045 0.28881836
vt 0.033477783 0.28881836
vt 0.038604736 0.28149414
vt 0.039154053 0.28173828
vt 0.041656494 0.27661133
vt 0.04220581 0.27734375
vt 0.029632568 0.28833008
vt 0.02949524 0.2878418
vt 0.026763916 0.2758789
vt 0.027145386 0.2758789
vt 0.030410767 0.28588867
vt 0.030685425 0.28588867
vt 0.0099487305 0.28320312
vt 0.009399414 0.28320312
vt 0.01737976 0.29736328
vt 0.016860962 0.30126953
vt 0.015960693 0.29956055
vt 0.014854431 0.30151367
vt 0.015045166 0.2993164
vt 0.012397766 0.29833984
vt 0.013542175 0.29711914
vt 0.011352539 0.2980957
vt 0.009117126 0.29663086
vt 0.009025574 0.29541016
vt 0.008293152 0.29589844
vt 0.006965637 0.29760742
vt 0.006187439 0.29418945
vt 0.006690979 0.29711914
vt 0.005821228 0.2932129
vt 0.00356102 0.2890625
vt 0.0030555725 0.28979492
vt 0.005592346 0.296875
vt 0.006324768 0.296875
vt 0.0056381226 0.29541016
vt 0.006187439 0.29516602
vt 0.0044021606 0.29345703
vt 0.0046310425 0.2932129
vt 0.041015625 0.31860352
vt 0.0501709 0.31298828
vt 0.049957275 0.3125
vt 0.04046631 0.31811523
vt 0.036132812 0.32177734
vt 0.03540039 0.32128906
vt 0.034729004 0.3178711
vt 0.03555298 0.3173828
vt 0.03540039 0.31640625
vt 0.03451538 0.3154297
vt 0.035339355 0.31518555
vt 0.039093018 0.31445312
vt 0.038757324 0.31567383
vt 0.040039062 0.3125
vt 0.040527344 0.31298828
vt 0.043182373 0.30859375
vt 0.04385376 0.3095703
vt 0.044006348 0.30859375
vt 0.043640137 0.3046875
vt 0.044067383 0.30493164
vt 0.046020508 0.30859375
vt 0.04623413 0.30932617
vt 0.047424316 0.30688477
vt 0.047973633 0.30737305
vt 0.049713135 0.30541992
vt 0.05029297 0.3059082
vt 0.053466797 0.30273438
vt 0.053466797 0.30249023
vn -1.7881393E-06 0 1
vn 2.3841858E-07 -5.9604645E-07 1
vn -1.7881393E-06 0 1
vn -1.1920929E-07 -4.7683716E-07 1
vn 0.00015258789 -4.9352646E-05 1
vn 0.00023972988 -7.7188015E-05 1
vn 0.0001872778 -2.1457672E-05 1
vn -7.8082085E-05 5.0723553E-05 1
vn -3.8266182E-05 1.9729137E-05 1
vn -6.020069E-06 -1.3113022E-06 1
vn -0.0001578331 5.710125E-05 1
vn -0.00021839142 7.927418E-05 1
vn -7.748604E-07 -7.1525574E-07 1
vn -5.9604645E-06 -9.536743E-07 1
vn -7.2717667E-06 -1.1324883E-06 1
vn -1.1920929E-06 -1.7285347E-06 1
vn -5.722046E-06 3.0398369E-06 1
vn -2.9802322E-07 6.556511E-07 1
vn -4.23193E-06 6.556511E-07 1
vn 5.9604645E-07 2.3841858E-07 1
vn 8.34465E-07 4.172325E-07 1
vn 1.0728836E-06 -4.7683716E-07 1
vn -1.001358E-05 6.914139E-06 1
vn 4.4703484E-06 3.5762787E-07 1
vn -8.046627E-06 5.364418E-06 1
vn -1.6272068E-05 1.2099743E-05 1
vn -1.6272068E-05 1.2099743E-05 1
vn 4.5895576E-06 3.5762787E-07 1
vn -2.3245811E-06 4.351139E-06 1
vn -9.23872E-06 7.033348E-06 1
vn 1.7881393E-07 1.7285347E-06 1
vn -7.1525574E-07 -3.5762787E-07 1
vn -3.0398369E-06 9.536743E-07 1
vn 7.748604E-07 -2.3841858E-07 1
vn 1.4901161E-06 -1.1324883E-06 1
vn -1.7881393E-06 1.0728836E-06 1
vn -3.9339066E-06 1.3113022E-06 1
vn 3.5762787E-07 8.404255E-06 1
vn -3.9339066E-06 1.3113022E-06 1
vn -2.4437904E-06 1.1086464E-05 1
vn -2.4437904E-06 1.0788441E-05 1
vn -2.4437904E-06 1.0788441E-05 1
vn -1.4901161E-06 2.5629997E-06 1
vn -2.5629997E-06 2.2649765E-06 1
vn -3.5762787E-07 1.4305115E-06 1
vn -1.9073486E-06 -6.556511E-07 1
vn -1.1920929E-07 7.748604E-07 1
vn -6.556511E-07 -3.5762787E-07 1
vn -1.3709068E-06 2.9802322E-07 1
vn -1.3113022E-06 -9.536743E-07 1
vn -1.9669533E-06 -8.940697E-07 1
vn -1.7881393E-07 0 1
vn 5.364418E-07 1.847744E-06 1
vn 2.3841858E-07 0 1
vn 2.9802322E-07 -3.5762787E-07 1
vn 1.0728836E-06 0 1
vn 2.9802322E-07 -4.7683716E-07 1
vn 5.364418E-07 2.3841858E-07 1
vn 1.2516975E-06 0 1
vn 1.1920929E-06 0 1
vn 1.1920929E-06 0 1
vn 1.5497208E-06 1.9669533E-06 1
vn 1.847744E-06 5.364418E-07 1
vn 4.351139E-06 4.23193E-06 1
vn 3.5762787E-07 8.34465E-07 1
vn 1.7881393E-07 -1.1920929E-07 1
vn 1.9669533E-06 2.026558E-06 1
vn 3.0994415E-06 3.2186508E-06 1
vn -4.7683716E-07 1.7881393E-07 1
vn -0 -1.7881393E-07 1
vn -0 -1.7881393E-07 1
vn -5.9604645E-07 -1.0728836E-06 1
vn -5.9604645E-07 0 1
vn 1.3113022E-06 1.66893E-06 1
vn 1.2516975E-06 1.7285347E-06 1
vn 1.0728836E-06 9.536743E-07 1
vn 1.9669533E-06 1.66893E-06 1
vn -8.34465E-07 -1.3709068E-06 1
vn -1.2516975E-06 1.0728836E-06 1
vn -1.0728836E-06 0 1
vn -2.5629997E-06 4.172325E-07 1
vn -5.066395E-06 -1.0728836E-06 1
vn -4.827976E-06 -1.3113022E-06 1
vn -5.4836273E-06 -2.3841858E-07 1
vn -2.2649765E-06 -2.9802322E-07 1
vn -3.0994415E-06 3.9339066E-06 1
vn -7.1525574E-07 -4.172325E-07 1
vn 2.9206276E-06 -1.3113022E-06 1
vn 4.7683716E-07 -1.3113022E-06 1
vn -1.6093254E-06 -1.4305115E-06 1
vn -2.2053719E-06 -1.4901161E-06 1
vn -3.993511E-06 -1.6093254E-06 1
vn -3.993511E-06 -1.6093254E-06 1
vn 1.7881393E-07 4.4703484E-06 1
vn -5.364418E-06 3.695488E-06 1
vn -1.0669231E-05 2.3245811E-06 1
vn -1.0669231E-05 2.3245811E-06 1
vn 2.7000904E-05 1.1503696E-05 1
vn 2.7000904E-05 1.1503696E-05 1
vn -1.692772E-05 9.357929E-06 1
vn -1.692772E-05 9.357929E-06 1
vn -1.001358E-05 7.5101852E-06 1
vn 2.503395E-06 7.748604E-07 1
vn 2.9206276E-06 7.1525574E-07 1
vn -1.7285347E-06 5.364418E-07 1
vn -2.3245811E-06 2.9802322E-07 1
vn -7.1525574E-07 2.0861626E-06 1
vn -1.0728836E-06 -6.556511E-07 1
vn 1.66893E-06 -1.9669533E-06 1
vn 5.9604645E-07 -2.9206276E-06 1
vn -0 -1.7881393E-07 1
vn -1.4901161E-06 -2.5629997E-06 1
vn -2.682209E-06 -1.1205673E-05 1
vn -2.8014183E-06 2.682209E-06 1
vn -2.9802322E-07 -1.424551E-05 1
vn -3.0994415E-06 2.861023E-06 1
vn -9.179115E-06 6.4969063E-06 1
vn -1.2516975E-05 8.523464E-06 1
vn -3.9339066E-06 -6.556511E-06 1
vn -3.5762787E-07 -1.1861324E-05 1
vn -9.4771385E-06 5.3048134E-06 1
vn -9.4771385E-06 5.2452087E-06 1
vn -1.2516975E-05 1.3291836E-05 1
vn -1.2516975E-05 1.3291836E-05 1
vn 6.4373016E-06 9.775162E-06 1
vn 7.1525574E-06 1.1980534E-05 1
vn 7.1525574E-06 1.1980534E-05 1
vn 6.198883E-06 9.059906E-06 1
vn 2.861023E-06 2.6226044E-06 1
vn -2.7418137E-06 -4.172325E-07 1
vn -1.6093254E-06 0 1
vn -2.3841858E-06 -1.3709068E-06 1
vn 2.6226044E-06 8.940697E-07 1
vn 1.1444092E-05 5.9604645E-06 1
vn 1.1444092E-05 5.9604645E-06 1
vn -3.1590462E-06 -9.536743E-07 1
vn -2.7418137E-06 -2.0861626E-06 1
vn 3.2186508E-06 1.2516975E-06 1
vn 2.503395E-06 1.1324883E-06 1
vn 7.2717667E-06 1.4305115E-06 1
vn 3.6358833E-06 4.7683716E-07 1
vn 6.1392784E-06 -7.748604E-07 1
vn 1.1563301E-05 1.3113022E-06 1
vn 1.1563301E-05 1.3113022E-06 1
vn 1.7881393E-07 -9.536743E-07 1
vn 1.7881393E-07 -1.4901161E-06 1
vn 2.0861626E-06 5.3048134E-06 1
vn 2.2649765E-06 5.6028366E-06 1
vn 3.993511E-06 7.6293945E-06 1
vn 3.993511E-06 7.0929527E-06 1
vn 3.993511E-06 5.7816505E-06 1
vn 3.993511E-06 5.7816505E-06 1
g treeCABack_geo_0
f 3/3/3 2/2/2 1/1/1
f 2/2/2 4/4/4 1/1/1
f 2/2/2 5/5/5 4/4/4
f 5/5/5 6/6/6 4/4/4
f 5/5/5 7/7/7 6/6/6
f 7/7/7 8/8/8 6/6/6
f 7/7/7 9/9/9 8/8/8
f 7/7/7 10/10/10 9/9/9
f 9/9/9 11/11/11 8/8/8
f 11/11/11 12/12/12 8/8/8
f 10/10/10 13/13/13 9/9/9
f 13/13/13 10/10/10 14/14/14
f 15/15/15 13/13/13 14/14/14
f 9/9/9 13/13/13 16/16/16
f 15/15/15 14/14/14 17/17/17
f 18/18/18 9/9/9 16/16/16
f 19/19/19 15/15/15 17/17/17
f 11/11/11 20/20/20 12/12/12
f 20/20/20 21/21/21 12/12/12
f 11/11/11 22/22/22 20/20/20
f 20/20/20 23/23/23 21/21/21
f 11/11/11 24/24/24 22/22/22
f 23/23/23 25/25/25 21/21/21
f 23/23/23 26/26/26 25/25/25
f 26/26/26 27/27/27 25/25/25
f 24/24/24 28/28/28 22/22/22
f 24/24/24 29/29/29 28/28/28
f 29/29/29 30/30/30 28/28/28
f 29/29/29 31/31/31 30/30/30
f 29/29/29 32/32/32 31/31/31
f 32/32/32 33/33/33 31/31/31
f 32/32/32 34/34/34 33/33/33
f 34/34/34 35/35/35 33/33/33
f 34/34/34 36/36/36 35/35/35
f 34/34/34 37/37/37 36/36/36
f 36/36/36 38/38/38 35/35/35
f 37/37/37 39/39/39 36/36/36
f 36/36/36 40/40/40 38/38/38
f 40/40/40 41/41/41 38/38/38
f 41/41/41 42/42/42 38/38/38
f 37/37/37 43/43/43 39/39/39
f 43/43/43 44/44/44 39/39/39
f 43/43/43 45/45/45 44/44/44
f 45/45/45 46/46/46 44/44/44
f 45/45/45 47/47/47 46/46/46
f 45/45/45 48/48/48 47/47/47
f 47/47/47 49/49/49 46/46/46
f 49/49/49 50/50/50 46/46/46
f 50/50/50 51/51/51 46/46/46
f 51/51/51 50/50/50 52/52/52
f 48/48/48 53/53/53 47/47/47
f 50/50/50 54/54/54 52/52/52
f 54/54/54 50/50/50 55/55/55
f 52/52/52 54/54/54 56/56/56
f 57/57/57 54/54/54 55/55/55
f 54/54/54 58/58/58 56/56/56
f 58/58/58 59/59/59 56/56/56
f 59/59/59 60/60/60 56/56/56
f 60/60/60 61/61/61 56/56/56
f 62/62/62 57/57/57 55/55/55
f 63/63/63 62/62/62 55/55/55
f 64/64/64 63/63/63 55/55/55
f 48/48/48 65/65/65 53/53/53
f 48/48/48 66/66/66 65/65/65
f 65/65/65 67/67/67 53/53/53
f 67/67/67 68/68/68 53/53/53
f 67/67/67 69/69/69 68/68/68
f 67/67/67 70/70/70 69/69/69
f 70/70/70 71/71/71 69/69/69
f 66/66/66 72/72/72 65/65/65
f 66/66/66 73/73/73 72/72/72
f 73/73/73 74/74/74 72/72/72
f 66/66/66 75/75/75 73/73/73
f 66/66/66 76/76/76 75/75/75
f 76/76/76 77/77/77 75/75/75
f 76/76/76 78/78/78 77/77/77
f 76/76/76 79/79/79 78/78/78
f 79/79/79 80/80/80 78/78/78
f 79/79/79 18/18/18 80/80/80
f 18/18/18 81/81/81 80/80/80
f 18/18/18 16/16/16 81/81/81
f 16/16/16 82/82/82 81/81/81
f 82/82/82 83/83/83 81/81/81
f 82/82/82 84/84/84 83/83/83
f 84/84/84 85/85/85 83/83/83
f 84/84/84 86/86/86 85/85/85
f 86/86/86 87/87/87 85/85/85
f 86/86/86 19/19/19 87/87/87
f 87/87/87 88/88/88 85/85/85
f 88/88/88 89/89/89 85/85/85
f 88/88/88 90/90/90 89/89/89
f 90/90/90 91/91/91 89/89/89
f 90/90/90 92/92/92 91/91/91
f 92/92/92 93/93/93 91/91/91
f 19/19/19 94/94/94 87/87/87
f 19/19/19 17/17/17 94/94/94
f 17/17/17 95/95/95 94/94/94
f 17/17/17 96/96/96 95/95/95
f 96/96/96 97/97/97 95/95/95
f 95/95/95 98/98/98 94/94/94
f 98/98/98 99/99/99 94/94/94
f 101/101/101 100/100/100 30/30/30
f 102/102/102 101/101/101 30/30/30
f 31/31/31 102/102/102 30/30/30
f 31/31/31 103/103/103 102/102/102
f 103/103/103 104/104/104 102/102/102
f 103/103/103 105/105/105 104/104/104
f 105/105/105 106/106/106 104/104/104
f 105/105/105 107/107/107 106/106/106
f 107/107/107 108/108/108 106/106/106
f 107/107/107 109/109/109 108/108/108
f 109/109/109 110/110/110 108/108/108
f 110/110/110 111/111/111 108/108/108
f 111/111/111 110/110/110 112/112/112
f 110/110/110 113/113/113 112/112/112
f 114/114/114 111/111/111 112/112/112
f 113/113/113 115/115/115 112/112/112
f 114/114/114 116/116/116 111/111/111
f 116/116/116 117/117/117 111/111/111
f 116/116/116 118/118/118 117/117/117
f 113/113/113 119/119/119 115/115/115
f 119/119/119 120/120/120 115/115/115
f 119/119/119 121/121/121 120/120/120
f 121/121/121 122/122/122 120/120/120
f 121/121/121 123/123/123 122/122/122
f 123/123/123 124/124/124 122/122/122
f 127/127/127 126/126/126 125/125/125
f 128/128/128 127/127/127 125/125/125
f 128/128/128 125/125/125 64/64/64
f 129/129/129 128/128/128 64/64/64
f 129/129/129 64/64/64 55/55/55
f 130/130/130 129/129/129 55/55/55
f 130/130/130 55/55/55 131/131/131
f 132/132/132 130/130/130 131/131/131
f 132/132/132 131/131/131 133/133/133
f 131/131/131 134/134/134 133/133/133
f 134/134/134 135/135/135 133/133/133
f 132/132/132 133/133/133 136/136/136
f 137/137/137 132/132/132 136/136/136
f 137/137/137 136/136/136 138/138/138
f 139/139/139 137/137/137 138/138/138
f 139/139/139 138/138/138 140/140/140
f 141/141/141 139/139/139 140/140/140
f 141/141/141 140/140/140 142/142/142
f 140/140/140 143/143/143 142/142/142
f 143/143/143 144/144/144 142/142/142
f 141/141/141 142/142/142 145/145/145
f 146/146/146 141/141/141 145/145/145
f 146/146/146 145/145/145 147/147/147
f 148/148/148 146/146/146 147/147/147
f 148/148/148 147/147/147 149/149/149
f 150/150/150 148/148/148 149/149/149
f 150/150/150 149/149/149 151/151/151
f 149/149/149 152/152/152 151/151/151
