g treeCA001_geo
v 0.8561204 10.8118515 3.534281E-07
v 0.78078556 10.724025 7.8049703E-07
v 0.7511502 8.938942 7.572401E-07
v 0.84271985 8.933893 9.80248E-07
v 0.594655 8.423261 4.3262122E-07
v 0.66361386 8.380704 1.0188811E-06
v 0.5200403 7.940492 3.914893E-07
v 0.6268381 7.950251 7.627437E-05
v 0.57107306 7.653971 4.996515E-07
v 0.2945175 7.9411097 -2.8762634E-07
v 0.9537005 7.999028 2.0165078E-06
v 0.81798774 8.334127 -1.0418776E-06
v 0.22669569 7.710322 5.5650705E-08
v 0.18674833 8.498526 1.8102192E-07
v 0.113453954 8.463794 -4.4894588E-07
v 0.1893993 7.2910643 2.8128164E-07
v -0.009057116 8.9700575 1.6409798E-07
v 0.4583176 7.2973094 4.0973757E-07
v -0.031438574 8.879348 -3.1013448E-07
v 0.9628214 8.233496 -3.055349E-07
v 0.9123865 8.277527 1.8938052E-06
v 1.0261657 8.132849 4.114396E-07
v 1.3798245 8.719329 4.7023235E-07
v 1.2984031 7.8924417 -3.0562776E-07
v 1.31687 8.750836 3.3297567E-07
v 1.828854 9.37788 4.6135085E-07
v 1.7659098 9.384131 1.3517811E-06
v 1.4712307 8.089117 -3.1850453E-07
v 1.4479357 7.560179 2.244095E-07
v 1.5540062 7.8439636 1.0330211E-06
v 1.509267 7.47229 1.8974472E-06
v 1.0644463 6.81625 2.942773E-07
v 1.1877401 6.832294 -1.1892559E-07
v 0.5392258 6.181723 1.3708478E-07
v 0.77531815 6.316498 1.9180806E-07
v 0.5704841 6.083811 -3.2016663E-07
v 0.22525339 5.642738 -8.274191E-07
v 0.80674124 6.234857 7.220118E-07
v 0.3110718 5.607195 1.0376207E-06
v 0.97514683 6.1974187 -2.725974E-07
v 2.0043724 6.431663 1.7511618E-07
v 1.998142 6.469419 9.621267E-07
v 0.072645165 5.1977587 -6.3791265E-07
v 0.18869886 5.2008085 5.7053694E-07
v -0.039083917 5.1053123 5.0460187E-07
v -0.037827004 4.621097 -4.1078854E-07
v -0.5201734 5.145379 6.9853513E-07
v -0.070752986 5.5439935 1.1085014E-06
v -0.4388649 5.0150814 5.5487703E-07
v -0.48460034 3.6107352 -9.533546E-07
v -0.009164004 3.9486969 -9.465268E-08
v -0.05655883 3.6177073 -5.030635E-07
v -0.54600847 5.3441 -1.0905886E-06
v -0.5268041 3.312135 6.2570945E-07
v -0.75151306 4.0996375 5.1348E-07
v 0.09369858 2.0076911 -1.0860047E-06
v -0.88710576 3.895279 1.2148529E-06
v -0.51132405 2.3092203 -3.6911172E-07
v -0.3952516 2.0173464 3.2253473E-07
v -0.41031784 -5.9110114E-08 1.7906684E-07
v 0.41031775 -5.3558452E-08 2.6324159E-08
v -1.0419432 3.963342 5.173948E-08
v -0.99918735 4.136762 -7.211998E-07
v -1.0926461 4.3227277 -8.697654E-08
v -0.5598907 5.6301575 -2.3236338E-07
v -0.17715333 5.9404316 -1.2357581E-06
v -0.82870466 5.9041333 7.80017E-07
v -0.9021378 5.711007 5.158228E-07
v -0.9463722 5.8293204 -5.4059154E-07
v -1.3217952 6.1783524 3.6539043E-07
v -1.3148924 6.0847654 1.1916171E-06
v -0.585783 5.8294287 9.586897E-07
v -0.47530222 6.128826 5.989321E-07
v -0.6988057 6.028889 -1.0085524E-06
v -0.4632751 6.216245 -6.041806E-08
v 0.021828914 6.1822667 -6.919177E-07
v -0.17124295 6.37888 1.7587383E-06
v -0.10966646 6.572855 -1.1871432E-06
v 0.39578357 6.9226685 -1.1276837E-06
v 0.07638682 6.886285 1.9211369E-07
v 0.056705408 7.1749997 -2.5630123E-07
v -0.18005535 7.647607 -6.518551E-07
v -0.35706553 7.5203404 4.735873E-07
v -0.14983073 8.306327 -8.0370654E-07
v -0.38622192 8.428883 3.0954786E-07
v -0.23155506 8.432029 4.1508E-07
v -0.28392965 8.592615 -3.9174685E-07
v -0.4232763 8.888468 1.9920881E-08
v -0.5991396 8.906733 3.6270816E-07
v -1.3016757 9.903094 9.583343E-07
v -1.3769517 9.877718 -8.807772E-08
v -1.7218547 10.580667 4.0540695E-07
v -1.7965497 10.472669 6.893206E-07
v -0.07185355 8.970028 -4.6782293E-07
v -0.05322513 9.039306 5.4787057E-07
v 0.32053742 10.659803 -1.7730759E-08
v 0.2699837 10.685165 -8.298966E-07
v -0.17973174 9.303963 9.726994E-07
v -0.21737286 9.285013 9.137502E-07
v 2.7032332 9.66477 -9.033283E-08
v 2.6276162 9.6582985 -2.7632578E-07
v 1.6081557 7.7365427 8.2176183E-07
v 1.6794779 7.1772723 7.037219E-07
v 1.8034846 7.4348187 1.0431738E-06
v 1.9547231 7.139801 -9.693936E-07
v 1.9286119 7.441202 -1.7911799E-07
v 2.2912447 7.5987186 -4.2708822E-07
v 2.1342304 7.743345 1.3578397E-06
v 2.4352884 7.6114306 -8.703613E-08
v 2.7420332 7.825834 2.5691625E-07
v 2.7543602 7.99608 -1.359282E-07
v 2.8548288 7.9142013 1.4581931E-06
v 3.0368702 7.6875243 9.285937E-07
v 3.1434023 8.166949 7.648771E-07
v 3.0744672 7.7631507 -2.6969641E-07
v 3.1936417 8.299692 -6.412109E-08
v 3.5038042 8.864053 3.284535E-07
v 3.5731273 8.768786 6.638106E-07
v 3.2250078 7.788503 -2.7608718E-07
v 3.124637 7.801009 4.2609838E-07
v 3.2187483 7.983975 -5.0345E-07
v 3.1434243 8.00913 -2.8853466E-07
v 3.3883982 8.262016 7.813476E-07
v 3.3569946 8.287257 3.5759615E-07
v -1.6335455 4.8069124 2.643059E-07
v -2.8605657 5.647155 1.5451967E-07
v -2.8911502 5.5971723 -2.2514257E-07
v -1.5595105 4.875377 -9.793551E-08
v -0.9627653 4.372404 8.407725E-08
v -0.86387116 4.4469213 1.5447498E-07
v -0.7720525 4.900781 5.6993144E-07
v -0.8839459 4.981647 -4.0888548E-07
v -0.8656538 5.100026 1.9141359E-07
v -0.7418135 5.2310495 5.3757176E-08
v -0.85369337 5.2683787 4.1225394E-07
v -1.3694465 5.386318 -2.1505548E-09
v -1.3253675 5.2243223 -7.693632E-07
v -1.501062 5.648623 4.650348E-08
v -1.5690397 5.5735736 8.096395E-07
v -1.9327197 6.180067 8.604402E-09
v -2.0251243 6.0358543 2.0058974E-07
v -2.0446186 6.1736436 -4.6713922E-07
v -1.9921459 6.7197475 1.29592E-06
v -2.0541506 6.675643 -8.913636E-07
v -2.318309 6.192065 1.3454168E-07
v -2.3486433 6.0855274 1.1231625E-06
v -2.512743 6.4237876 7.40765E-07
v -2.5867932 6.3484044 -5.376049E-07
v -2.8253481 6.624171 9.4330403E-07
v -2.9056747 6.561249 -1.9645459E-08
v -3.3398726 6.987882 -3.2135037E-07
v -3.339873 7.0374804 1.6454757E-07
vt 0.022872925 0.27490234
vt 0.023406982 0.27539062
vt 0.023635864 0.28857422
vt 0.022964478 0.28857422
vt 0.024765015 0.29223633
vt 0.024261475 0.29248047
vt 0.025314331 0.29589844
vt 0.024536133 0.2956543
vt 0.02494812 0.29785156
vt 0.02696228 0.29589844
vt 0.022155762 0.29541016
vt 0.023147583 0.29296875
vt 0.027450562 0.29736328
vt 0.027740479 0.29174805
vt 0.028274536 0.2919922
vt 0.02772522 0.3005371
vt 0.029174805 0.28833008
vt 0.025756836 0.3005371
vt 0.029327393 0.28881836
vt 0.022079468 0.29370117
vt 0.022445679 0.2932129
vt 0.021621704 0.2944336
vt 0.019042969 0.29003906
vt 0.019638062 0.29614258
vt 0.019500732 0.28979492
vt 0.015777588 0.2854004
vt 0.016235352 0.28515625
vt 0.018371582 0.29467773
vt 0.018554688 0.29858398
vt 0.01777649 0.29638672
vt 0.018096924 0.2993164
vt 0.021347046 0.30395508
vt 0.020446777 0.30395508
vt 0.025177002 0.30859375
vt 0.023452759 0.3076172
vt 0.02494812 0.30932617
vt 0.02746582 0.3125
vt 0.023223877 0.30810547
vt 0.02684021 0.31274414
vt 0.021987915 0.30859375
vt 0.01448822 0.30688477
vt 0.014533997 0.30639648
vt 0.028579712 0.31567383
vt 0.02772522 0.31567383
vt 0.029388428 0.31640625
vt 0.029373169 0.32006836
vt 0.03289795 0.3161621
vt 0.02961731 0.31323242
vt 0.032287598 0.31713867
vt 0.03262329 0.32739258
vt 0.029174805 0.32495117
vt 0.029510498 0.32739258
vt 0.033081055 0.31469727
vt 0.032928467 0.32958984
vt 0.034576416 0.32373047
vt 0.028411865 0.33911133
vt 0.035583496 0.3251953
vt 0.032836914 0.33691406
vt 0.031982422 0.3388672
vt 0.032104492 0.35131836
vt 0.026107788 0.35375977
vt 0.036712646 0.32470703
vt 0.036376953 0.32348633
vt 0.037078857 0.32226562
vt 0.033172607 0.31274414
vt 0.030395508 0.31030273
vt 0.03515625 0.31054688
vt 0.03567505 0.31201172
vt 0.036010742 0.3112793
vt 0.038726807 0.30859375
vt 0.03869629 0.30932617
vt 0.03338623 0.3112793
vt 0.032562256 0.30908203
vt 0.034210205 0.30981445
vt 0.032470703 0.3083496
vt 0.028945923 0.30859375
vt 0.030349731 0.3071289
vt 0.029907227 0.30566406
vt 0.0262146 0.30322266
vt 0.028549194 0.3034668
vt 0.028686523 0.30126953
vt 0.030410767 0.29785156
vt 0.031707764 0.29882812
vt 0.030197144 0.2932129
vt 0.031921387 0.29223633
vt 0.030792236 0.29223633
vt 0.031173706 0.29101562
vt 0.032196045 0.28881836
vt 0.033477783 0.28881836
vt 0.038604736 0.28149414
vt 0.039154053 0.28173828
vt 0.041656494 0.27661133
vt 0.04220581 0.27734375
vt 0.029632568 0.28833008
vt 0.02949524 0.2878418
vt 0.026763916 0.2758789
vt 0.027145386 0.2758789
vt 0.030410767 0.28588867
vt 0.030685425 0.28588867
vt 0.009399414 0.28320312
vt 0.0099487305 0.28320312
vt 0.01737976 0.29736328
vt 0.016860962 0.30126953
vt 0.015960693 0.29956055
vt 0.014854431 0.30151367
vt 0.015045166 0.2993164
vt 0.012397766 0.29833984
vt 0.013542175 0.29711914
vt 0.011352539 0.2980957
vt 0.009117126 0.29663086
vt 0.009025574 0.29541016
vt 0.008293152 0.29589844
vt 0.006965637 0.29760742
vt 0.006187439 0.29418945
vt 0.006690979 0.29711914
vt 0.005821228 0.2932129
vt 0.00356102 0.2890625
vt 0.0030555725 0.28979492
vt 0.005592346 0.296875
vt 0.006324768 0.296875
vt 0.0056381226 0.29541016
vt 0.006187439 0.29516602
vt 0.0044021606 0.29345703
vt 0.0046310425 0.2932129
vt 0.041015625 0.31860352
vt 0.049957275 0.3125
vt 0.0501709 0.31298828
vt 0.04046631 0.31811523
vt 0.036132812 0.32177734
vt 0.03540039 0.32128906
vt 0.034729004 0.3178711
vt 0.03555298 0.3173828
vt 0.03540039 0.31640625
vt 0.03451538 0.3154297
vt 0.035339355 0.31518555
vt 0.039093018 0.31445312
vt 0.038757324 0.31567383
vt 0.040039062 0.3125
vt 0.040527344 0.31298828
vt 0.043182373 0.30859375
vt 0.04385376 0.3095703
vt 0.044006348 0.30859375
vt 0.043640137 0.3046875
vt 0.044067383 0.30493164
vt 0.046020508 0.30859375
vt 0.04623413 0.30932617
vt 0.047424316 0.30688477
vt 0.047973633 0.30737305
vt 0.049713135 0.30541992
vt 0.05029297 0.3059082
vt 0.053466797 0.30273438
vt 0.053466797 0.30249023
vn -1.1324883E-06 -1.7881393E-07 -1
vn -1.1324883E-06 -1.7881393E-07 -1
vn 3.5762787E-07 -4.172325E-07 -1
vn -0 -3.5762787E-07 -1
vn 0.00015044212 -4.8339367E-05 -1
vn 0.00023698807 -7.635355E-05 -1
vn 0.00018715858 -2.1576881E-05 -1
vn -7.3194504E-05 4.720688E-05 -1
vn -3.6001205E-05 1.8835068E-05 -1
vn 1.7285347E-06 -2.9802322E-07 -1
vn -0.00015473366 5.3584576E-05 -1
vn -0.00021135807 7.498264E-05 -1
vn 1.3113022E-06 -4.7683716E-07 -1
vn 3.9339066E-06 1.3113022E-06 -1
vn 3.33786E-06 1.0728836E-06 -1
vn 1.1920929E-07 -2.9802322E-07 -1
vn 4.9471855E-06 5.9604645E-07 -1
vn 1.1920929E-07 4.172325E-07 -1
vn 5.2452087E-06 0 -1
vn -5.364418E-06 5.3048134E-06 -1
vn -4.2915344E-06 5.364418E-06 -1
vn -4.172325E-06 -2.5629997E-06 -1
vn -7.6293945E-06 6.198883E-06 -1
vn 1.7881393E-07 -1.5497208E-06 -1
vn -8.523464E-06 6.854534E-06 -1
vn -4.7683716E-06 4.1127205E-06 -1
vn -4.7683716E-06 4.1127205E-06 -1
vn 4.172325E-07 -1.4901161E-06 -1
vn 6.1392784E-06 -2.026558E-06 -1
vn 1.4305115E-06 -7.1525574E-07 -1
vn 1.66893E-06 -1.0728836E-06 -1
vn 9.536743E-07 1.7881393E-07 -1
vn 4.351139E-06 -1.0728836E-06 -1
vn 3.1590462E-06 -1.2516975E-06 -1
vn -8.34465E-07 8.940697E-07 -1
vn 5.6028366E-06 -2.8014183E-06 -1
vn 1.0728836E-05 -4.351139E-06 -1
vn -1.013279E-06 8.225441E-06 -1
vn 1.0609627E-05 -4.351139E-06 -1
vn -3.1590462E-06 1.6152859E-05 -1
vn -3.1590462E-06 1.6391277E-05 -1
vn -3.1590462E-06 1.6391277E-05 -1
vn 4.23193E-06 -1.5497208E-06 -1
vn 8.165836E-06 -2.6226044E-06 -1
vn 8.34465E-07 -1.1920929E-07 -1
vn -1.1920929E-07 6.556511E-07 -1
vn 1.4901161E-06 -6.556511E-07 -1
vn 1.1920929E-06 -1.3709068E-06 -1
vn -2.9802322E-07 1.1324883E-06 -1
vn -1.7881393E-06 -1.013279E-06 -1
vn -0 2.9802322E-07 -1
vn -8.940697E-07 -2.3841858E-07 -1
vn 1.9669533E-06 -1.1920929E-07 -1
vn -1.7881393E-06 1.7881393E-07 -1
vn -1.9669533E-06 -1.9669533E-06 -1
vn -1.3113022E-06 -1.7881393E-07 -1
vn -4.2915344E-06 -2.9802322E-06 -1
vn -1.7881393E-06 3.5762787E-07 -1
vn -1.3113022E-06 -5.364418E-07 -1
vn -1.1920929E-06 -3.5762787E-07 -1
vn -1.1920929E-06 -3.5762787E-07 -1
vn 4.4107437E-06 -5.9604645E-06 -1
vn 3.9339066E-06 -8.940697E-07 -1
vn 5.364418E-07 4.172325E-07 -1
vn -4.172325E-07 4.7683716E-07 -1
vn -8.940697E-07 1.2516975E-06 -1
vn -4.172325E-07 2.3841858E-06 -1
vn -1.0728836E-06 2.3245811E-06 -1
vn 1.9669533E-06 1.9073486E-06 -1
vn 1.7881393E-07 2.8014183E-06 -1
vn 1.7881393E-07 2.8014183E-06 -1
vn -7.748604E-07 -1.66893E-06 -1
vn -1.9073486E-06 -1.66893E-06 -1
vn -5.9604645E-07 -9.536743E-07 -1
vn -1.66893E-06 5.6624413E-06 -1
vn -1.4901161E-06 4.053116E-06 -1
vn -5.066395E-06 3.695488E-06 -1
vn -1.6093254E-06 9.536743E-07 -1
vn -1.0728836E-06 1.5497208E-06 -1
vn -9.536743E-07 1.4305115E-06 -1
vn -1.0728836E-06 4.172325E-07 -1
vn -3.9339066E-06 -5.364418E-07 -1
vn -3.33786E-06 -7.1525574E-07 -1
vn -5.3048134E-06 0 -1
vn -4.4703484E-06 -4.172325E-07 -1
vn 1.9073486E-06 6.556511E-07 -1
vn -4.7683716E-07 -1.7285347E-06 -1
vn -8.34465E-07 4.7683716E-07 -1
vn 1.6093254E-06 1.847744E-06 -1
vn 2.861023E-06 2.4437904E-06 -1
vn 2.9206276E-06 2.3841858E-06 -1
vn 3.0994415E-06 2.2053719E-06 -1
vn 3.0994415E-06 2.2053719E-06 -1
vn 5.364418E-06 6.556511E-07 -1
vn 4.1127205E-06 0 -1
vn 3.3974648E-06 -1.1324883E-06 -1
vn 3.3974648E-06 -1.1324883E-06 -1
vn 8.165836E-06 6.9737434E-06 -1
vn 8.165836E-06 6.9737434E-06 -1
vn -4.7683716E-07 -3.5762787E-07 -1
vn -4.7683716E-07 -3.5762787E-07 -1
vn 4.172325E-07 -8.34465E-07 -1
vn -4.827976E-06 1.4305115E-06 -1
vn -4.5895576E-06 1.2516975E-06 -1
vn -4.9471855E-06 3.9339066E-06 -1
vn -3.9339066E-06 4.2915344E-06 -1
vn -2.1457672E-06 5.90086E-06 -1
vn -2.3841858E-06 3.6358833E-06 -1
vn -1.9669533E-06 1.847744E-06 -1
vn -9.536743E-07 5.364418E-07 -1
vn 1.7881393E-06 -2.0861626E-06 -1
vn 5.00679E-06 -5.1259995E-06 -1
vn -1.1920929E-06 7.1525574E-07 -1
vn 1.2516975E-06 -1.4305115E-06 -1
vn -7.748604E-07 -4.172325E-07 -1
vn 9.536743E-07 -1.1324883E-06 -1
vn 2.503395E-06 -1.1324883E-06 -1
vn 3.2782555E-06 -1.1324883E-06 -1
vn -4.708767E-06 -2.6226044E-06 -1
vn -3.2186508E-06 -3.2782555E-06 -1
vn -1.4305115E-06 -2.3841858E-07 -1
vn -1.4305115E-06 -2.3841858E-07 -1
vn 2.7418137E-06 1.6093254E-06 -1
vn 2.7418137E-06 1.6093254E-06 -1
vn -1.7881393E-07 -1.7881393E-07 -1
vn 1.1920929E-07 0 -1
vn 1.1920929E-07 0 -1
vn -2.3841858E-07 -2.3841858E-07 -1
vn 1.3709068E-06 8.34465E-07 -1
vn 5.066395E-06 -2.3841858E-07 -1
vn 5.185604E-06 -1.7881393E-07 -1
vn 5.066395E-06 2.8014183E-06 -1
vn 2.1457672E-06 3.0398369E-06 -1
vn -5.364418E-07 -5.364418E-07 -1
vn -5.364418E-07 -5.364418E-07 -1
vn -8.940697E-07 2.2649765E-06 -1
vn 3.0994415E-06 4.9471855E-06 -1
vn -2.503395E-06 -2.1457672E-06 -1
vn -2.6226044E-06 -1.9073486E-06 -1
vn 4.351139E-06 -1.0728836E-06 -1
vn -2.3245811E-06 -3.5762787E-06 -1
vn 5.9604645E-06 -2.3841858E-06 -1
vn 1.4781952E-05 1.7881393E-06 -1
vn 1.4781952E-05 1.7881393E-06 -1
vn -2.3841858E-07 -3.0994415E-06 -1
vn -1.0728836E-06 -4.053116E-06 -1
vn 4.053116E-06 5.3048134E-06 -1
vn 4.172325E-06 5.6624413E-06 -1
vn 6.4373016E-06 8.881092E-06 -1
vn 6.7949295E-06 8.46386E-06 -1
vn 7.688999E-06 7.390976E-06 -1
vn 7.688999E-06 7.390976E-06 -1
g treeCA001_geo_0
f 3/3/3 2/2/2 1/1/1
f 4/4/4 3/3/3 1/1/1
f 5/5/5 3/3/3 4/4/4
f 6/6/6 5/5/5 4/4/4
f 7/7/7 5/5/5 6/6/6
f 8/8/8 7/7/7 6/6/6
f 9/9/9 7/7/7 8/8/8
f 10/10/10 7/7/7 9/9/9
f 11/11/11 9/9/9 8/8/8
f 12/12/12 11/11/11 8/8/8
f 13/13/13 10/10/10 9/9/9
f 10/10/10 13/13/13 14/14/14
f 13/13/13 15/15/15 14/14/14
f 13/13/13 9/9/9 16/16/16
f 14/14/14 15/15/15 17/17/17
f 9/9/9 18/18/18 16/16/16
f 15/15/15 19/19/19 17/17/17
f 20/20/20 11/11/11 12/12/12
f 21/21/21 20/20/20 12/12/12
f 22/22/22 11/11/11 20/20/20
f 23/23/23 20/20/20 21/21/21
f 24/24/24 11/11/11 22/22/22
f 25/25/25 23/23/23 21/21/21
f 26/26/26 23/23/23 25/25/25
f 27/27/27 26/26/26 25/25/25
f 28/28/28 24/24/24 22/22/22
f 29/29/29 24/24/24 28/28/28
f 30/30/30 29/29/29 28/28/28
f 31/31/31 29/29/29 30/30/30
f 32/32/32 29/29/29 31/31/31
f 33/33/33 32/32/32 31/31/31
f 34/34/34 32/32/32 33/33/33
f 35/35/35 34/34/34 33/33/33
f 36/36/36 34/34/34 35/35/35
f 37/37/37 34/34/34 36/36/36
f 38/38/38 36/36/36 35/35/35
f 39/39/39 37/37/37 36/36/36
f 40/40/40 36/36/36 38/38/38
f 41/41/41 40/40/40 38/38/38
f 42/42/42 41/41/41 38/38/38
f 43/43/43 37/37/37 39/39/39
f 44/44/44 43/43/43 39/39/39
f 45/45/45 43/43/43 44/44/44
f 46/46/46 45/45/45 44/44/44
f 47/47/47 45/45/45 46/46/46
f 48/48/48 45/45/45 47/47/47
f 49/49/49 47/47/47 46/46/46
f 50/50/50 49/49/49 46/46/46
f 51/51/51 50/50/50 46/46/46
f 50/50/50 51/51/51 52/52/52
f 53/53/53 48/48/48 47/47/47
f 54/54/54 50/50/50 52/52/52
f 50/50/50 54/54/54 55/55/55
f 54/54/54 52/52/52 56/56/56
f 54/54/54 57/57/57 55/55/55
f 58/58/58 54/54/54 56/56/56
f 59/59/59 58/58/58 56/56/56
f 60/60/60 59/59/59 56/56/56
f 61/61/61 60/60/60 56/56/56
f 57/57/57 62/62/62 55/55/55
f 62/62/62 63/63/63 55/55/55
f 63/63/63 64/64/64 55/55/55
f 65/65/65 48/48/48 53/53/53
f 66/66/66 48/48/48 65/65/65
f 67/67/67 65/65/65 53/53/53
f 68/68/68 67/67/67 53/53/53
f 69/69/69 67/67/67 68/68/68
f 70/70/70 67/67/67 69/69/69
f 71/71/71 70/70/70 69/69/69
f 72/72/72 66/66/66 65/65/65
f 73/73/73 66/66/66 72/72/72
f 74/74/74 73/73/73 72/72/72
f 75/75/75 66/66/66 73/73/73
f 76/76/76 66/66/66 75/75/75
f 77/77/77 76/76/76 75/75/75
f 78/78/78 76/76/76 77/77/77
f 79/79/79 76/76/76 78/78/78
f 80/80/80 79/79/79 78/78/78
f 18/18/18 79/79/79 80/80/80
f 81/81/81 18/18/18 80/80/80
f 16/16/16 18/18/18 81/81/81
f 82/82/82 16/16/16 81/81/81
f 83/83/83 82/82/82 81/81/81
f 84/84/84 82/82/82 83/83/83
f 85/85/85 84/84/84 83/83/83
f 86/86/86 84/84/84 85/85/85
f 87/87/87 86/86/86 85/85/85
f 19/19/19 86/86/86 87/87/87
f 88/88/88 87/87/87 85/85/85
f 89/89/89 88/88/88 85/85/85
f 90/90/90 88/88/88 89/89/89
f 91/91/91 90/90/90 89/89/89
f 92/92/92 90/90/90 91/91/91
f 93/93/93 92/92/92 91/91/91
f 94/94/94 19/19/19 87/87/87
f 17/17/17 19/19/19 94/94/94
f 95/95/95 17/17/17 94/94/94
f 96/96/96 17/17/17 95/95/95
f 97/97/97 96/96/96 95/95/95
f 98/98/98 95/95/95 94/94/94
f 99/99/99 98/98/98 94/94/94
f 101/101/101 100/100/100 30/30/30
f 100/100/100 102/102/102 30/30/30
f 102/102/102 31/31/31 30/30/30
f 103/103/103 31/31/31 102/102/102
f 104/104/104 103/103/103 102/102/102
f 105/105/105 103/103/103 104/104/104
f 106/106/106 105/105/105 104/104/104
f 107/107/107 105/105/105 106/106/106
f 108/108/108 107/107/107 106/106/106
f 109/109/109 107/107/107 108/108/108
f 110/110/110 109/109/109 108/108/108
f 111/111/111 110/110/110 108/108/108
f 110/110/110 111/111/111 112/112/112
f 113/113/113 110/110/110 112/112/112
f 111/111/111 114/114/114 112/112/112
f 115/115/115 113/113/113 112/112/112
f 116/116/116 114/114/114 111/111/111
f 117/117/117 116/116/116 111/111/111
f 118/118/118 116/116/116 117/117/117
f 119/119/119 113/113/113 115/115/115
f 120/120/120 119/119/119 115/115/115
f 121/121/121 119/119/119 120/120/120
f 122/122/122 121/121/121 120/120/120
f 123/123/123 121/121/121 122/122/122
f 124/124/124 123/123/123 122/122/122
f 127/127/127 126/126/126 125/125/125
f 126/126/126 128/128/128 125/125/125
f 125/125/125 128/128/128 64/64/64
f 128/128/128 129/129/129 64/64/64
f 64/64/64 129/129/129 55/55/55
f 129/129/129 130/130/130 55/55/55
f 55/55/55 130/130/130 131/131/131
f 130/130/130 132/132/132 131/131/131
f 131/131/131 132/132/132 133/133/133
f 134/134/134 131/131/131 133/133/133
f 135/135/135 134/134/134 133/133/133
f 133/133/133 132/132/132 136/136/136
f 132/132/132 137/137/137 136/136/136
f 136/136/136 137/137/137 138/138/138
f 137/137/137 139/139/139 138/138/138
f 138/138/138 139/139/139 140/140/140
f 139/139/139 141/141/141 140/140/140
f 140/140/140 141/141/141 142/142/142
f 143/143/143 140/140/140 142/142/142
f 144/144/144 143/143/143 142/142/142
f 142/142/142 141/141/141 145/145/145
f 141/141/141 146/146/146 145/145/145
f 145/145/145 146/146/146 147/147/147
f 146/146/146 148/148/148 147/147/147
f 147/147/147 148/148/148 149/149/149
f 148/148/148 150/150/150 149/149/149
f 149/149/149 150/150/150 151/151/151
f 152/152/152 149/149/149 151/151/151
