g underBuildingBrokenD_geo
v -5.694442 43.73304 3.9296494
v -5.694442 43.73304 -3.9296494
v -4.0221295 43.733036 -3.9296494
v -4.0221295 43.733036 3.9296494
v -5.694442 -1.5512109E-07 -3.9296494
v -5.694442 28.908335 3.9296494
v -5.694442 -1.5512109E-07 3.9296494
v -5.694442 28.908335 -3.9296494
v -5.694442 43.73304 3.9296494
v -5.694442 43.73304 -3.9296494
v 5.694446 28.908335 0.74182564
v 4.160167 28.656551 2.567251
v 3.67843 31.984194 3.9296494
v 5.694446 25.500996 3.9296494
v 2.33109 28.908335 3.9296494
v 3.67843 31.984194 3.9296494
v -5.694442 28.908335 3.9296494
v -4.0221295 43.733036 3.9296494
v -5.694442 43.73304 3.9296494
v -5.694442 -1.5512109E-07 3.9296494
v 5.694446 -1.5512109E-07 3.9296494
v -5.694442 -1.5512109E-07 -3.9296494
v 5.694446 -1.5512109E-07 -3.9296494
v 5.694446 28.908335 -3.9296494
v -5.694442 28.908335 -3.9296494
v -4.0221295 43.733036 -3.9296494
v -5.694442 43.73304 -3.9296494
v -4.0221295 43.733036 -3.9296494
v 3.67843 31.984194 3.9296494
v -4.0221295 43.733036 3.9296494
v 5.694446 28.908335 0.74182564
v 5.694446 28.908335 -3.9296494
v 5.694446 25.500996 3.9296494
v 5.694446 -1.5512109E-07 -3.9296494
v 5.694446 -1.5512109E-07 3.9296494
vt 0.2331543 0.38085938
vt 0.2331543 0.4189453
vt 0.24133301 0.4189453
vt 0.24133301 0.38085938
vt 0.19494629 0.16796875
vt 0.2331543 0.30859375
vt 0.2331543 0.16796875
vt 0.19494629 0.30859375
vt 0.2331543 0.38085938
vt 0.19494629 0.38085938
vt 0.30419922 0.30859375
vt 0.28857422 0.30859375
vt 0.28857422 0.32666016
vt 0.28857422 0.2919922
vt 0.27368164 0.30859375
vt 0.2788086 0.32373047
vt 0.2331543 0.30859375
vt 0.24133301 0.38085938
vt 0.2331543 0.38085938
vt 0.2331543 0.16796875
vt 0.28857422 0.16796875
vt 0.38232422 0.16796875
vt 0.3269043 0.16796875
vt 0.3269043 0.30859375
vt 0.38232422 0.30859375
vt 0.37402344 0.38085938
vt 0.38232422 0.38085938
vt 0.3269043 0.39501953
vt 0.28857422 0.32666016
vt 0.28857422 0.39501953
vt 0.30419922 0.30859375
vt 0.3269043 0.30859375
vt 0.28857422 0.2919922
vt 0.3269043 0.16796875
vt 0.28857422 0.16796875
vn -0.8232422 0.09283447 0.5600586
vn -0.7661133 0.08642578 -0.63671875
vn 0.34887695 0.3161621 -0.8823242
vn 0.3671875 0.34521484 0.86376953
vn -0.5678711 0 -0.8232422
vn -0.8154297 0 0.57910156
vn -0.8276367 0 0.56103516
vn -0.6279297 0 -0.7783203
vn -0.8232422 0.09283447 0.5600586
vn -0.7661133 0.08642578 -0.63671875
vn 0.9746094 0.22265625 0.01008606
vn 0.67822266 0.24035645 0.69433594
vn 0.70703125 0.44995117 0.54589844
vn 0.5727539 0.0048599243 0.8198242
vn 0.010818481 0.0017223358 1
vn 0.70703125 0.44995117 0.54589844
vn -0.8154297 0 0.57910156
vn 0.3671875 0.34521484 0.86376953
vn -0.8232422 0.09283447 0.5600586
vn -0.8276367 0 0.56103516
vn 0.5678711 0 0.8232422
vn -0.5678711 0 -0.8232422
vn 0.30200195 0 -0.953125
vn 0.42993164 0.09863281 -0.89746094
vn -0.6279297 0 -0.7783203
vn 0.34887695 0.3161621 -0.8823242
vn -0.7661133 0.08642578 -0.63671875
vn 0.34887695 0.3161621 -0.8823242
vn 0.70703125 0.44995117 0.54589844
vn 0.3671875 0.34521484 0.86376953
vn 0.9746094 0.22265625 0.01008606
vn 0.42993164 0.09863281 -0.89746094
vn 0.5727539 0.0048599243 0.8198242
vn 0.30200195 0 -0.953125
vn 0.5678711 0 0.8232422
g underBuildingBrokenD_geo_0
f 3/3/3 2/2/2 1/1/1
f 4/4/4 3/3/3 1/1/1
f 7/7/7 6/6/6 5/5/5
f 6/6/6 8/8/8 5/5/5
f 6/6/6 9/9/9 8/8/8
f 9/9/9 10/10/10 8/8/8
f 13/13/13 12/12/12 11/11/11
f 11/11/11 12/12/12 14/14/14
f 15/15/15 14/14/14 12/12/12
f 15/15/15 12/12/12 16/16/16
f 17/17/17 15/15/15 16/16/16
f 15/15/15 17/17/17 14/14/14
f 17/17/17 16/16/16 18/18/18
f 19/19/19 17/17/17 18/18/18
f 17/17/17 20/20/20 14/14/14
f 20/20/20 21/21/21 14/14/14
f 24/24/24 23/23/23 22/22/22
f 25/25/25 24/24/24 22/22/22
f 26/26/26 24/24/24 25/25/25
f 27/27/27 26/26/26 25/25/25
f 30/30/30 29/29/29 28/28/28
f 29/29/29 31/31/31 28/28/28
f 31/31/31 32/32/32 28/28/28
f 32/32/32 31/31/31 33/33/33
f 34/34/34 32/32/32 33/33/33
f 34/34/34 33/33/33 35/35/35
