g underBuildingD_geo
v -5.694442 43.73304 3.9296548
v -5.694442 43.73304 -3.929652
v -4.0221295 43.733036 -3.929652
v -4.0221295 43.733036 3.9296548
v 5.694446 -1.5512109E-07 3.9296548
v 5.694446 28.908335 -3.929652
v 5.694446 -1.5512109E-07 -3.929652
v 5.694446 28.908335 3.9296548
v -4.0221295 43.733036 -3.929652
v -4.0221295 43.733036 3.9296548
v -5.694442 -1.5512109E-07 -3.929652
v -5.694442 28.908335 3.9296548
v -5.694442 -1.5512109E-07 3.9296548
v -5.694442 28.908335 -3.929652
v -5.694442 43.73304 3.9296548
v -5.694442 43.73304 -3.929652
v 5.694446 28.908335 3.9296548
v 5.694446 -1.5512109E-07 3.9296548
v -5.694442 -1.5512109E-07 3.9296548
v -5.694442 28.908335 3.9296548
v -4.0221295 43.733036 3.9296548
v -5.694442 43.73304 3.9296548
v -5.694442 -1.5512109E-07 -3.929652
v 5.694446 -1.5512109E-07 -3.929652
v 5.694446 28.908335 -3.929652
v -5.694442 28.908335 -3.929652
v -4.0221295 43.733036 -3.929652
v -5.694442 43.73304 -3.929652
vt 0.5810547 0.95947266
vt 0.5810547 0.9980469
vt 0.58935547 0.9980469
vt 0.58935547 0.95947266
vt 0.63671875 0.74609375
vt 0.67529297 0.88720703
vt 0.67529297 0.74609375
vt 0.63671875 0.88720703
vt 0.67529297 0.9736328
vt 0.63671875 0.9736328
vt 0.54296875 0.74609375
vt 0.5810547 0.88720703
vt 0.5810547 0.74609375
vt 0.54296875 0.88720703
vt 0.5810547 0.95947266
vt 0.54296875 0.95947266
vt 0.63671875 0.88720703
vt 0.63671875 0.74609375
vt 0.5810547 0.74609375
vt 0.5810547 0.88720703
vt 0.58935547 0.95947266
vt 0.5810547 0.95947266
vt 0.73046875 0.74609375
vt 0.67529297 0.74609375
vt 0.67529297 0.88720703
vt 0.73046875 0.88720703
vt 0.72265625 0.95947266
vt 0.73046875 0.95947266
vn -0.7661133 0.08642578 0.63671875
vn -0.7661133 0.08642578 -0.63671875
vn 0.5888672 0.45239258 -0.6699219
vn 0.5888672 0.45239258 0.6699219
vn 0.5678711 0 0.8232422
vn 0.6538086 0.14526367 -0.7426758
vn 0.5678711 0 -0.8232422
vn 0.6538086 0.14526367 0.7426758
vn 0.5888672 0.45239258 -0.6699219
vn 0.5888672 0.45239258 0.6699219
vn -0.5678711 0 -0.8232422
vn -0.6279297 0 0.7783203
vn -0.5678711 0 0.8232422
vn -0.6279297 0 -0.7783203
vn -0.7661133 0.08642578 0.63671875
vn -0.7661133 0.08642578 -0.63671875
vn 0.6538086 0.14526367 0.7426758
vn 0.5678711 0 0.8232422
vn -0.5678711 0 0.8232422
vn -0.6279297 0 0.7783203
vn 0.5888672 0.45239258 0.6699219
vn -0.7661133 0.08642578 0.63671875
vn -0.5678711 0 -0.8232422
vn 0.5678711 0 -0.8232422
vn 0.6538086 0.14526367 -0.7426758
vn -0.6279297 0 -0.7783203
vn 0.5888672 0.45239258 -0.6699219
vn -0.7661133 0.08642578 -0.63671875
g underBuildingD_geo_0
f 3/3/3 2/2/2 1/1/1
f 4/4/4 3/3/3 1/1/1
f 7/7/7 6/6/6 5/5/5
f 6/6/6 8/8/8 5/5/5
f 8/8/8 6/6/6 9/9/9
f 10/10/10 8/8/8 9/9/9
f 13/13/13 12/12/12 11/11/11
f 12/12/12 14/14/14 11/11/11
f 12/12/12 15/15/15 14/14/14
f 15/15/15 16/16/16 14/14/14
f 19/19/19 18/18/18 17/17/17
f 20/20/20 19/19/19 17/17/17
f 20/20/20 17/17/17 21/21/21
f 22/22/22 20/20/20 21/21/21
f 25/25/25 24/24/24 23/23/23
f 26/26/26 25/25/25 23/23/23
f 27/27/27 25/25/25 26/26/26
f 28/28/28 27/27/27 26/26/26
