g underBuildingBrokenC_geo
v -1.9467813 40.511913 -1.4876537
v -1.9467813 41.096478 -1.4876537
v -0.5180827 40.511913 -1.4876537
v -0.5180827 40.511913 -1.4876537
v -0.5180827 40.94564 -2.9163506
v -0.5180827 40.511913 -2.9163506
v 1.7337835 43.205276 -0.7188181
v 1.6345614 43.205276 -0.91727424
v 1.8330196 43.205276 -0.91727424
v 5.611562 42.7139 -3.437168
v 5.5172358 42.683666 -3.6447394
v 5.717792 42.641148 -3.627747
v -5.1446643 43.205276 3.0298705
v -5.2438865 43.205276 2.8314145
v -5.0454283 43.205276 2.8314145
v 4.7493796 43.189964 2.8906348
v 4.6513324 43.15632 2.6944556
v 4.8474264 43.18679 2.6916194
v -5.785153 40.511913 3.608742
v -5.785153 40.511913 -3.608742
v 5.785148 40.511913 -3.608742
v 5.785148 40.511913 3.608742
v 5.97222 39.30861 2.4933074
v 5.97222 38.30861 2.8730276
v 9.279537 38.30861 2.8730276
v 10.498558 39.30861 2.4933074
v 9.279537 38.30861 2.8730276
v 8.196822 34.378822 2.8730276
v 8.967266 33.90585 2.4933074
v 5.97222 31.418005 2.8730276
v 5.9600916 29.405792 2.4933074
v 5.97222 39.30861 3.2527401
v 9.279537 38.30861 2.8730276
v 5.97222 38.30861 2.8730276
v 10.498558 39.30861 3.2527401
v 8.196822 34.378822 2.8730276
v 9.279537 38.30861 2.8730276
v 8.967266 33.90585 3.2527401
v 5.97222 31.418005 2.8730276
v 5.9600916 29.405792 3.2527401
v 10.498558 39.30861 3.2527401
v 5.97222 39.30861 3.2527401
v 5.97222 39.30861 2.4933074
v 10.498558 39.30861 2.4933074
v 8.967266 33.90585 3.2527401
v 10.498558 39.30861 3.2527401
v 10.498558 39.30861 2.4933074
v 8.967266 33.90585 2.4933074
v 5.9600916 29.405792 3.2527401
v 5.9600916 29.405792 2.4933074
v 8.2149935 38.30861 2.8730276
v 8.2149935 34.234158 2.8730276
v 8.435393 34.234158 2.799619
v 8.435393 38.30861 2.799619
v 8.435393 34.234158 2.799619
v 8.655793 34.234158 2.8730276
v 8.655793 38.30861 2.8730276
v 8.435393 38.30861 2.799619
v 8.655793 38.30861 2.8730276
v 8.655793 34.234158 2.8730276
v 8.2149935 34.234158 2.8730276
v 8.2149935 38.30861 2.8730276
v 6.9698057 38.30861 2.8730276
v 6.9698057 32.749477 2.8730276
v 7.1902056 32.749477 2.799619
v 7.1902056 38.30861 2.799619
v 7.1902056 32.749477 2.799619
v 7.4106054 32.749477 2.8730276
v 7.4106054 38.30861 2.8730276
v 7.1902056 38.30861 2.799619
v 7.4106054 38.30861 2.8730276
v 7.4106054 32.749477 2.8730276
v 6.9698057 32.749477 2.8730276
v 6.9698057 38.30861 2.8730276
v -5.9722247 40.185097 3.8095708
v -5.785153 40.185097 3.608742
v 5.785148 40.185097 3.608742
v 5.97222 40.185097 3.8095708
v 5.97222 40.185097 3.8095708
v 5.785148 40.185097 3.608742
v 5.785148 40.185097 -3.608742
v 5.97222 40.185097 -3.8095708
v 5.97222 40.185097 -3.8095708
v 5.785148 40.185097 -3.608742
v -5.785153 40.185097 -3.608742
v -5.9722247 40.185097 -3.8095708
v -5.9722247 40.185097 -3.8095708
v -5.785153 40.185097 -3.608742
v -5.785153 40.185097 3.608742
v -5.9722247 40.185097 3.8095708
v -5.785153 40.185097 3.608742
v -5.785153 40.511913 3.608742
v 5.785148 40.511913 3.608742
v 5.785148 40.185097 3.608742
v 5.785148 40.185097 3.608742
v 5.785148 40.511913 3.608742
v 5.785148 40.511913 -3.608742
v 5.785148 40.185097 -3.608742
v 5.785148 40.185097 -3.608742
v 5.785148 40.511913 -3.608742
v -5.785153 40.511913 -3.608742
v -5.785153 40.185097 -3.608742
v -5.785153 40.185097 -3.608742
v -5.785153 40.511913 -3.608742
v -5.785153 40.511913 3.608742
v -5.785153 40.185097 3.608742
v -1.9467813 41.096478 -1.4876537
v -1.9467813 41.27881 -2.9163506
v -0.5180827 40.94564 -2.9163506
v -0.5180827 40.511913 -1.4876537
v -1.9467813 41.27881 -2.9163506
v -1.9467813 40.511913 -2.9163506
v -0.5180827 40.511913 -2.9163506
v -0.5180827 40.94564 -2.9163506
v -1.9467813 40.511913 -2.9163506
v -1.9467813 41.27881 -2.9163506
v -1.9467813 41.096478 -1.4876537
v -1.9467813 40.511913 -1.4876537
v 1.6345614 43.205276 -0.91727424
v 1.5782986 40.185097 -0.9735389
v 1.8892825 40.185097 -0.9735389
v 1.8330196 43.205276 -0.91727424
v 1.7337835 40.185097 -0.6625615
v 1.7337835 43.205276 -0.7188181
v 1.8330196 43.205276 -0.91727424
v 1.8892825 40.185097 -0.9735389
v 1.5782986 40.185097 -0.9735389
v 1.6345614 43.205276 -0.91727424
v 1.7337835 43.205276 -0.7188181
v 1.7337835 40.185097 -0.6625615
v 5.5172358 42.683666 -3.6447394
v 4.8989887 40.267876 -3.0986536
v 5.21326 40.201256 -3.072027
v 5.717792 42.641148 -3.627747
v 5.046794 40.31525 -2.7733922
v 5.611562 42.7139 -3.437168
v 5.717792 42.641148 -3.627747
v 5.21326 40.201256 -3.072027
v 4.8989887 40.267876 -3.0986536
v 5.5172358 42.683666 -3.6447394
v 5.611562 42.7139 -3.437168
v 5.046794 40.31525 -2.7733922
v -5.2438865 43.205276 2.8314145
v -5.3001494 40.185097 2.7751577
v -4.9891796 40.185097 2.7751577
v -5.0454283 43.205276 2.8314145
v -5.1446643 40.185097 3.086127
v -5.1446643 43.205276 3.0298705
v -5.0454283 43.205276 2.8314145
v -4.9891796 40.185097 2.7751577
v -5.3001494 40.185097 2.7751577
v -5.2438865 43.205276 2.8314145
v -5.1446643 43.205276 3.0298705
v -5.1446643 40.185097 3.086127
v 4.6513324 43.15632 2.6944556
v 5.0615377 40.17128 2.916047
v 5.368801 40.219032 2.9116051
v 4.8474264 43.18679 2.6916194
v 5.2151628 40.224003 3.2234612
v 4.7493796 43.189964 2.8906348
v 4.8474264 43.18679 2.6916194
v 5.368801 40.219032 2.9116051
v 5.0615377 40.17128 2.916047
v 4.6513324 43.15632 2.6944556
v 4.7493796 43.189964 2.8906348
v 5.2151628 40.224003 3.2234612
v -5.9722247 40.185097 -3.8095708
v 5.97222 32.14808 -3.8095708
v 5.97222 40.185097 -3.8095708
v -5.9722247 32.14808 -3.8095708
v -2.6263542 23.936176 -3.8095708
v -5.9722247 27.582006 -3.8095708
v -4.8910904 23.539658 -2.7284396
v -5.9722247 18.385305 -3.8095708
v 5.97222 12.859231 -3.8095708
v -5.9722247 12.859231 -3.8095708
v 5.97222 -1.5512109E-07 -3.8095708
v -5.9722247 -1.5512109E-07 -3.8095708
v 5.97222 32.14808 3.8095708
v 5.97222 40.185097 3.8095708
v 5.97222 40.185097 -3.8095708
v 5.97222 32.14808 -3.8095708
v 5.97222 17.960573 3.8095708
v 5.97222 12.859231 -0.9157244
v 5.97222 12.859231 -3.8095708
v 4.048641 12.899581 1.7970573
v 5.97222 -1.5512109E-07 -3.8095708
v 5.97222 7.792567 3.8095708
v 5.97222 -1.5512109E-07 3.8095708
v -5.9722247 -1.5512109E-07 -3.8095708
v -5.9722247 12.254264 3.8095708
v -5.9722247 -1.5512109E-07 3.8095708
v -5.9722247 12.859231 -3.8095708
v -5.9722247 24.247463 -0.34410667
v -5.9722247 18.385305 -3.8095708
v -4.8910904 23.539658 -2.7284396
v -5.9722247 27.582006 -3.8095708
v -5.9722247 26.978281 3.8095708
v -5.9722247 32.14808 -1.1532135
v -5.9722247 32.14808 -3.8095708
v -5.9722247 40.185097 -3.8095708
v -3.7366552 32.177147 1.5865222
v -1.4593154 32.14808 3.8095708
v -5.9722247 36.38834 3.8095708
v -5.9722247 40.185097 3.8095708
v -5.9722247 36.38834 3.8095708
v -5.9722247 40.185097 3.8095708
v 5.97222 40.185097 3.8095708
v -1.4593154 32.14808 3.8095708
v 5.97222 32.14808 3.8095708
v -5.9722247 26.978281 3.8095708
v 5.97222 17.960573 3.8095708
v -5.9722247 12.254264 3.8095708
v 2.0126352 12.658685 3.8095708
v 4.048641 12.899581 1.7970573
v -5.9722247 -1.5512109E-07 3.8095708
v 5.97222 7.792567 3.8095708
v 5.97222 -1.5512109E-07 3.8095708
vt 0.12524414 0.7558594
vt 0.125 0.75878906
vt 0.13220215 0.75634766
vt 0.117614746 0.7529297
vt 0.12487793 0.75341797
vt 0.12445068 0.75146484
vt 0.12036133 0.74560547
vt 0.12084961 0.7446289
vt 0.11987305 0.7446289
vt 0.12109375 0.72802734
vt 0.12158203 0.7270508
vt 0.12060547 0.7270508
vt 0.13537598 0.72998047
vt 0.13574219 0.7290039
vt 0.13476562 0.7290039
vt 0.12780762 0.72998047
vt 0.1282959 0.7290039
vt 0.12731934 0.7290039
vt 0.28686523 0.73339844
vt 0.28686523 0.7685547
vt 0.34326172 0.7685547
vt 0.34326172 0.73339844
vt 0.35791016 0.7998047
vt 0.3630371 0.7998047
vt 0.3630371 0.7836914
vt 0.35791016 0.77783203
vt 0.36279297 0.7714844
vt 0.36254883 0.75146484
vt 0.35791016 0.75097656
vt 0.36376953 0.73291016
vt 0.35791016 0.7246094
vt 0.35424805 0.7998047
vt 0.34887695 0.7836914
vt 0.3491211 0.7998047
vt 0.35424805 0.77783203
vt 0.34960938 0.75146484
vt 0.34936523 0.7714844
vt 0.35424805 0.75097656
vt 0.34838867 0.73291016
vt 0.35424805 0.7246094
vt 0.35424805 0.77783203
vt 0.35424805 0.7998047
vt 0.35791016 0.7998047
vt 0.35791016 0.77783203
vt 0.35424805 0.75097656
vt 0.35424805 0.77783203
vt 0.35791016 0.77783203
vt 0.35791016 0.75097656
vt 0.35424805 0.7246094
vt 0.35791016 0.7246094
vt 0.14196777 0.75878906
vt 0.14196777 0.7392578
vt 0.14086914 0.7392578
vt 0.14086914 0.75878906
vt 0.14526367 0.7392578
vt 0.14416504 0.7392578
vt 0.14416504 0.75878906
vt 0.14526367 0.75878906
vt 0.14416504 0.75878906
vt 0.14416504 0.7392578
vt 0.14196777 0.7392578
vt 0.14196777 0.75878906
vt 0.1352539 0.75927734
vt 0.1352539 0.7319336
vt 0.1340332 0.7319336
vt 0.1340332 0.75927734
vt 0.13842773 0.7319336
vt 0.1373291 0.7319336
vt 0.1373291 0.75927734
vt 0.13842773 0.75927734
vt 0.1373291 0.75927734
vt 0.1373291 0.7319336
vt 0.1352539 0.7319336
vt 0.1352539 0.75927734
vt 0.28588867 0.73095703
vt 0.28686523 0.7319336
vt 0.34326172 0.7319336
vt 0.34423828 0.73095703
vt 0.34570312 0.7324219
vt 0.3449707 0.73339844
vt 0.3449707 0.7685547
vt 0.34570312 0.76953125
vt 0.34423828 0.7709961
vt 0.34326172 0.77001953
vt 0.28686523 0.77001953
vt 0.28588867 0.7709961
vt 0.28442383 0.76953125
vt 0.2854004 0.7685547
vt 0.2854004 0.73339844
vt 0.28442383 0.7324219
vt 0.28686523 0.7319336
vt 0.28686523 0.73339844
vt 0.34326172 0.73339844
vt 0.34326172 0.7319336
vt 0.3449707 0.73339844
vt 0.34326172 0.73339844
vt 0.34326172 0.7685547
vt 0.3449707 0.7685547
vt 0.34326172 0.77001953
vt 0.34326172 0.7685547
vt 0.28686523 0.7685547
vt 0.28686523 0.77001953
vt 0.2854004 0.7685547
vt 0.28686523 0.7685547
vt 0.28686523 0.73339844
vt 0.2854004 0.73339844
vt 0.12420654 0.7402344
vt 0.12420654 0.7475586
vt 0.13134766 0.7470703
vt 0.13171387 0.7402344
vt 0.13208008 0.75390625
vt 0.13122559 0.75
vt 0.12445068 0.75146484
vt 0.12487793 0.75341797
vt 0.1182251 0.7553711
vt 0.11798096 0.75878906
vt 0.125 0.75878906
vt 0.12524414 0.7558594
vt 0.12084961 0.7446289
vt 0.121154785 0.72998047
vt 0.119628906 0.72998047
vt 0.11987305 0.7446289
vt 0.11791992 0.72998047
vt 0.11883545 0.7451172
vt 0.11987305 0.7446289
vt 0.119628906 0.72998047
vt 0.121154785 0.72998047
vt 0.12084961 0.7446289
vt 0.12194824 0.7451172
vt 0.12286377 0.72998047
vt 0.12158203 0.7270508
vt 0.12188721 0.71435547
vt 0.12030029 0.71435547
vt 0.12060547 0.7270508
vt 0.11853027 0.71435547
vt 0.1194458 0.7270508
vt 0.12060547 0.7270508
vt 0.12030029 0.71435547
vt 0.12188721 0.71435547
vt 0.12158203 0.7270508
vt 0.122680664 0.7270508
vt 0.12365723 0.71435547
vt 0.13574219 0.7290039
vt 0.13537598 0.71435547
vt 0.13391113 0.71435547
vt 0.13476562 0.7290039
vt 0.13220215 0.71484375
vt 0.13366699 0.7294922
vt 0.13476562 0.7290039
vt 0.13391113 0.71435547
vt 0.13537598 0.71435547
vt 0.13574219 0.7290039
vt 0.13684082 0.7290039
vt 0.13708496 0.71435547
vt 0.1282959 0.7290039
vt 0.12854004 0.71435547
vt 0.1270752 0.71435547
vt 0.12731934 0.7290039
vt 0.12536621 0.71435547
vt 0.1262207 0.7290039
vt 0.12731934 0.7290039
vt 0.1270752 0.71435547
vt 0.12854004 0.71435547
vt 0.1282959 0.7290039
vt 0.12939453 0.7290039
vt 0.13024902 0.71435547
vt 0.19213867 0.38085938
vt 0.13427734 0.34179688
vt 0.13427734 0.38085938
vt 0.19213867 0.34179688
vt 0.1665039 0.30200195
vt 0.19213867 0.31982422
vt 0.19213867 0.30029297
vt 0.19213867 0.27514648
vt 0.13427734 0.24853516
vt 0.19213867 0.24853516
vt 0.13427734 0.18615723
vt 0.19213867 0.18615723
vt 0.09741211 0.34179688
vt 0.09741211 0.38085938
vt 0.13427734 0.38085938
vt 0.13427734 0.34179688
vt 0.09753418 0.27319336
vt 0.12030029 0.24853516
vt 0.13427734 0.24853516
vt 0.09741211 0.24853516
vt 0.13427734 0.18615723
vt 0.09741211 0.23022461
vt 0.09741211 0.18615723
vt 0.0026817322 0.18615723
vt 0.0395813 0.24609375
vt 0.0395813 0.18615723
vt 0.0026817322 0.24853516
vt 0.007835388 0.30371094
vt 0.0026817322 0.27514648
vt 0.0026817322 0.30029297
vt 0.0026817322 0.31982422
vt 0.0395813 0.31811523
vt 0.011413574 0.34179688
vt 0.0026817322 0.34179688
vt 0.0026817322 0.38085938
vt 0.0395813 0.34179688
vt 0.06762695 0.34179688
vt 0.0395813 0.36816406
vt 0.0395813 0.38085938
vt 0.0395813 0.36816406
vt 0.0395813 0.38085938
vt 0.09741211 0.38085938
vt 0.06762695 0.34179688
vt 0.09741211 0.34179688
vt 0.0395813 0.31811523
vt 0.09753418 0.27319336
vt 0.0395813 0.24609375
vt 0.07824707 0.24768066
vt 0.09741211 0.24853516
vt 0.0395813 0.18615723
vt 0.09741211 0.23022461
vt 0.09741211 0.18615723
vn -0.91796875 0 0.39697266
vn -0.5078125 0.76660156 0.3930664
vn 0.39892578 0.84765625 0.34960938
vn 0.39892578 0.84765625 0.34960938
vn 0.41723633 0.7451172 -0.52001953
vn 0.33984375 0 -0.9404297
vn -1.7881393E-07 0.033569336 0.9995117
vn -0.89501953 0.04083252 -0.4440918
vn 0.89501953 0.04083252 -0.44384766
vn -0.019821167 0.2890625 0.95703125
vn -0.8486328 0.121398926 -0.51464844
vn 0.8964844 -0.24865723 -0.36694336
vn -2.3841858E-07 0.033569336 0.9995117
vn -0.89501953 0.04083252 -0.4440918
vn 0.89501953 0.04083252 -0.4440918
vn -0.005207062 0.12573242 0.9921875
vn -0.890625 -0.13842773 -0.43310547
vn 0.8779297 0.13647461 -0.45874023
vn -0.028213501 0.99853516 0.04522705
vn -0.028213501 0.99853516 -0.04522705
vn 0.028213501 0.99853516 -0.04522705
vn 0.028213501 0.99853516 0.04522705
vn -0 0.44580078 -0.89501953
vn -0 -1 1.0728836E-06
vn -0.88134766 -0.4729004 1.847744E-06
vn 0.6455078 0.34375 -0.6821289
vn -0.88134766 -0.4729004 1.847744E-06
vn -0.90966797 0.41552734 4.172325E-07
vn 0.48339844 -0.21411133 -0.8491211
vn -0.81884766 0.57421875 8.34465E-07
vn 0.73828125 -0.4885254 -0.46533203
vn -0 0.44580078 0.89501953
vn -0.88134766 -0.4729004 1.847744E-06
vn -0 -1 1.0728836E-06
vn 0.6455078 0.34375 0.6821289
vn -0.90966797 0.41552734 4.172325E-07
vn -0.88134766 -0.4729004 1.847744E-06
vn 0.48339844 -0.21411133 0.8491211
vn -0.81884766 0.57421875 8.34465E-07
vn 0.73828125 -0.4885254 0.46533203
vn 0.6455078 0.34375 0.6821289
vn -0 0.44580078 0.89501953
vn -0 0.44580078 -0.89501953
vn 0.6455078 0.34375 -0.6821289
vn 0.48339844 -0.21411133 0.8491211
vn 0.6455078 0.34375 0.6821289
vn 0.6455078 0.34375 -0.6821289
vn 0.48339844 -0.21411133 -0.8491211
vn 0.73828125 -0.4885254 0.46533203
vn 0.73828125 -0.4885254 -0.46533203
vn -0.31591797 0 0.94873047
vn -0.31591797 0 0.94873047
vn -0 0 -1
vn -0 0 -1
vn -0 0 -1
vn 0.31591797 0 0.94873047
vn 0.31591797 0 0.94873047
vn -0 0 -1
vn 0.31591797 0 0.94873047
vn 0.31591797 0 0.94873047
vn -0.31591797 0 0.94873047
vn -0.31591797 0 0.94873047
vn -0.31591797 0 0.94873047
vn -0.31591797 0 0.94873047
vn -0 0 -1
vn -0 0 -1
vn -0 0 -1
vn 0.31591797 0 0.94873047
vn 0.31591797 0 0.94873047
vn -0 0 -1
vn 0.31591797 0 0.94873047
vn 0.31591797 0 0.94873047
vn -0.31591797 0 0.94873047
vn -0.31591797 0 0.94873047
vn -0.5776367 0.027359009 0.81591797
vn -0.32958984 0.78271484 0.5283203
vn 0.32958984 0.78271484 0.5283203
vn 0.8125 0.025161743 0.58251953
vn 0.8125 0.025161743 0.58251953
vn 0.32958984 0.78271484 0.5283203
vn 0.32958984 0.78271484 -0.5283203
vn 0.53759766 0.016647339 -0.84277344
vn 0.53759766 0.016647339 -0.84277344
vn 0.32958984 0.78271484 -0.5283203
vn -0.32958984 0.78271484 -0.5283203
vn -0.33447266 0.018615723 -0.9423828
vn -0.33447266 0.018615723 -0.9423828
vn -0.32958984 0.78271484 -0.5283203
vn -0.32958984 0.78271484 0.5283203
vn -0.5776367 0.027359009 0.81591797
vn -0.32958984 0.78271484 0.5283203
vn -0.028213501 0.99853516 0.04522705
vn 0.028213501 0.99853516 0.04522705
vn 0.32958984 0.78271484 0.5283203
vn 0.32958984 0.78271484 0.5283203
vn 0.028213501 0.99853516 0.04522705
vn 0.028213501 0.99853516 -0.04522705
vn 0.32958984 0.78271484 -0.5283203
vn 0.32958984 0.78271484 -0.5283203
vn 0.028213501 0.99853516 -0.04522705
vn -0.028213501 0.99853516 -0.04522705
vn -0.32958984 0.78271484 -0.5283203
vn -0.32958984 0.78271484 -0.5283203
vn -0.028213501 0.99853516 -0.04522705
vn -0.028213501 0.99853516 0.04522705
vn -0.32958984 0.78271484 0.5283203
vn -0.5078125 0.76660156 0.3930664
vn -0.48779297 0.7475586 -0.45117188
vn 0.41723633 0.7451172 -0.52001953
vn 0.39892578 0.84765625 0.34960938
vn -0.48779297 0.7475586 -0.45117188
vn -0.7475586 0 -0.6640625
vn 0.33984375 0 -0.9404297
vn 0.41723633 0.7451172 -0.52001953
vn -0.7475586 0 -0.6640625
vn -0.48779297 0.7475586 -0.45117188
vn -0.5078125 0.76660156 0.3930664
vn -0.91796875 0 0.39697266
vn -0.89501953 0.04083252 -0.4440918
vn -0.8925781 0.025009155 -0.44995117
vn 0.8925781 0.025009155 -0.44995117
vn 0.89501953 0.04083252 -0.44384766
vn 2.3841858E-07 0.018630981 1
vn -1.7881393E-07 0.033569336 0.9995117
vn 0.89501953 0.04083252 -0.44384766
vn 0.8925781 0.025009155 -0.44995117
vn -0.8925781 0.025009155 -0.44995117
vn -0.89501953 0.04083252 -0.4440918
vn -1.7881393E-07 0.033569336 0.9995117
vn 2.3841858E-07 0.018630981 1
vn -0.8486328 0.121398926 -0.51464844
vn -0.85009766 0.10064697 -0.51708984
vn 0.88964844 -0.2680664 -0.3696289
vn 0.8964844 -0.24865723 -0.36694336
vn -0.023880005 0.27172852 0.96191406
vn -0.019821167 0.2890625 0.95703125
vn 0.8964844 -0.24865723 -0.36694336
vn 0.88964844 -0.2680664 -0.3696289
vn -0.85009766 0.10064697 -0.51708984
vn -0.8486328 0.121398926 -0.51464844
vn -0.019821167 0.2890625 0.95703125
vn -0.023880005 0.27172852 0.96191406
vn -0.89501953 0.04083252 -0.4440918
vn -0.8925781 0.025009155 -0.44995117
vn 0.8925781 0.025009155 -0.44995117
vn 0.89501953 0.04083252 -0.4440918
vn -0 0.018630981 1
vn -2.3841858E-07 0.033569336 0.9995117
vn 0.89501953 0.04083252 -0.4440918
vn 0.8925781 0.025009155 -0.44995117
vn -0.8925781 0.025009155 -0.44995117
vn -0.89501953 0.04083252 -0.4440918
vn -2.3841858E-07 0.033569336 0.9995117
vn -0 0.018630981 1
vn -0.890625 -0.13842773 -0.43310547
vn -0.8857422 -0.1541748 -0.43774414
vn 0.8779297 0.11993408 -0.46313477
vn 0.8779297 0.13647461 -0.45874023
vn -0.0028896332 0.111083984 0.99365234
vn -0.005207062 0.12573242 0.9921875
vn 0.8779297 0.13647461 -0.45874023
vn 0.8779297 0.11993408 -0.46313477
vn -0.8857422 -0.1541748 -0.43774414
vn -0.890625 -0.13842773 -0.43310547
vn -0.005207062 0.12573242 0.9921875
vn -0.0028896332 0.111083984 0.99365234
vn -0.33447266 0.018615723 -0.9423828
vn 0.59716797 0 -0.8022461
vn 0.53759766 0.016647339 -0.84277344
vn -0.18713379 0 -0.9824219
vn -0.014945984 -0.0006971359 -1
vn -0.32006836 -0.014160156 -0.9472656
vn -0.71728516 0.036895752 -0.6958008
vn -0.5859375 0.0057792664 -0.8100586
vn 0.50878906 0 -0.86083984
vn -0.5415039 0 -0.84033203
vn 0.2685547 0 -0.9633789
vn -0.5288086 0 -0.8486328
vn 0.65283203 0 0.7578125
vn 0.8125 0.025161743 0.58251953
vn 0.53759766 0.016647339 -0.84277344
vn 0.59716797 0 -0.8022461
vn 0.56591797 -0.012268066 0.82470703
vn 0.9995117 0.000259161 0.028930664
vn 0.50878906 0 -0.86083984
vn 0.7685547 -0.013549805 0.63964844
vn 0.2685547 0 -0.9633789
vn 0.5371094 0.018630981 0.8432617
vn 0.53759766 0 0.8432617
vn -0.5288086 0 -0.8486328
vn -0.58935547 0 0.80810547
vn -0.78222656 0 0.6230469
vn -0.5415039 0 -0.84033203
vn -0.9995117 -0.003452301 -0.03189087
vn -0.5859375 0.0057792664 -0.8100586
vn -0.71728516 0.036895752 -0.6958008
vn -0.32006836 -0.014160156 -0.9472656
vn -0.22692871 0.019638062 0.9736328
vn -0.99609375 0.0036849976 0.08843994
vn -0.18713379 0 -0.9824219
vn -0.33447266 0.018615723 -0.9423828
vn -0.7402344 -0.003982544 0.6723633
vn -0.030456543 0.0010213852 0.9995117
vn -0.578125 -0.035003662 0.8149414
vn -0.5776367 0.027359009 0.81591797
vn -0.578125 -0.035003662 0.8149414
vn -0.5776367 0.027359009 0.81591797
vn 0.8125 0.025161743 0.58251953
vn -0.030456543 0.0010213852 0.9995117
vn 0.65283203 0 0.7578125
vn -0.22692871 0.019638062 0.9736328
vn 0.56591797 -0.012268066 0.82470703
vn -0.58935547 0 0.80810547
vn 0.024673462 0.0010442734 0.9995117
vn 0.7685547 -0.013549805 0.63964844
vn -0.78222656 0 0.6230469
vn 0.5371094 0.018630981 0.8432617
vn 0.53759766 0 0.8432617
g underBuildingBrokenC_geo_0
f 3/3/3 2/2/2 1/1/1
f 6/6/6 5/5/5 4/4/4
f 9/9/9 8/8/8 7/7/7
f 12/12/12 11/11/11 10/10/10
f 15/15/15 14/14/14 13/13/13
f 18/18/18 17/17/17 16/16/16
f 21/21/21 20/20/20 19/19/19
f 22/22/22 21/21/21 19/19/19
f 25/25/25 24/24/24 23/23/23
f 26/26/26 25/25/25 23/23/23
f 28/28/28 27/27/27 26/26/26
f 29/29/29 28/28/28 26/26/26
f 30/30/30 28/28/28 29/29/29
f 31/31/31 30/30/30 29/29/29
f 34/34/34 33/33/33 32/32/32
f 33/33/33 35/35/35 32/32/32
f 37/37/37 36/36/36 35/35/35
f 36/36/36 38/38/38 35/35/35
f 36/36/36 39/39/39 38/38/38
f 39/39/39 40/40/40 38/38/38
f 43/43/43 42/42/42 41/41/41
f 44/44/44 43/43/43 41/41/41
f 47/47/47 46/46/46 45/45/45
f 48/48/48 47/47/47 45/45/45
f 48/48/48 45/45/45 49/49/49
f 50/50/50 48/48/48 49/49/49
f 53/53/53 52/52/52 51/51/51
f 54/54/54 53/53/53 51/51/51
f 57/57/57 56/56/56 55/55/55
f 58/58/58 57/57/57 55/55/55
f 61/61/61 60/60/60 59/59/59
f 62/62/62 61/61/61 59/59/59
f 65/65/65 64/64/64 63/63/63
f 66/66/66 65/65/65 63/63/63
f 69/69/69 68/68/68 67/67/67
f 70/70/70 69/69/69 67/67/67
f 73/73/73 72/72/72 71/71/71
f 74/74/74 73/73/73 71/71/71
f 77/77/77 76/76/76 75/75/75
f 78/78/78 77/77/77 75/75/75
f 81/81/81 80/80/80 79/79/79
f 82/82/82 81/81/81 79/79/79
f 85/85/85 84/84/84 83/83/83
f 86/86/86 85/85/85 83/83/83
f 89/89/89 88/88/88 87/87/87
f 90/90/90 89/89/89 87/87/87
f 93/93/93 92/92/92 91/91/91
f 94/94/94 93/93/93 91/91/91
f 97/97/97 96/96/96 95/95/95
f 98/98/98 97/97/97 95/95/95
f 101/101/101 100/100/100 99/99/99
f 102/102/102 101/101/101 99/99/99
f 105/105/105 104/104/104 103/103/103
f 106/106/106 105/105/105 103/103/103
f 109/109/109 108/108/108 107/107/107
f 110/110/110 109/109/109 107/107/107
f 113/113/113 112/112/112 111/111/111
f 114/114/114 113/113/113 111/111/111
f 117/117/117 116/116/116 115/115/115
f 118/118/118 117/117/117 115/115/115
f 121/121/121 120/120/120 119/119/119
f 122/122/122 121/121/121 119/119/119
f 125/125/125 124/124/124 123/123/123
f 126/126/126 125/125/125 123/123/123
f 129/129/129 128/128/128 127/127/127
f 130/130/130 129/129/129 127/127/127
f 133/133/133 132/132/132 131/131/131
f 134/134/134 133/133/133 131/131/131
f 137/137/137 136/136/136 135/135/135
f 138/138/138 137/137/137 135/135/135
f 141/141/141 140/140/140 139/139/139
f 142/142/142 141/141/141 139/139/139
f 145/145/145 144/144/144 143/143/143
f 146/146/146 145/145/145 143/143/143
f 149/149/149 148/148/148 147/147/147
f 150/150/150 149/149/149 147/147/147
f 153/153/153 152/152/152 151/151/151
f 154/154/154 153/153/153 151/151/151
f 157/157/157 156/156/156 155/155/155
f 158/158/158 157/157/157 155/155/155
f 161/161/161 160/160/160 159/159/159
f 162/162/162 161/161/161 159/159/159
f 165/165/165 164/164/164 163/163/163
f 166/166/166 165/165/165 163/163/163
f 169/169/169 168/168/168 167/167/167
f 168/168/168 170/170/170 167/167/167
f 168/168/168 171/171/171 170/170/170
f 171/171/171 172/172/172 170/170/170
f 171/171/171 173/173/173 172/172/172
f 171/171/171 174/174/174 173/173/173
f 175/175/175 171/171/171 168/168/168
f 171/171/171 175/175/175 174/174/174
f 175/175/175 176/176/176 174/174/174
f 175/175/175 177/177/177 176/176/176
f 177/177/177 178/178/178 176/176/176
f 181/181/181 180/180/180 179/179/179
f 182/182/182 181/181/181 179/179/179
f 182/182/182 179/179/179 183/183/183
f 183/183/183 184/184/184 182/182/182
f 184/184/184 185/185/185 182/182/182
f 184/184/184 183/183/183 186/186/186
f 185/185/185 184/184/184 187/187/187
f 184/184/184 186/186/186 188/188/188
f 184/184/184 188/188/188 187/187/187
f 187/187/187 188/188/188 189/189/189
f 192/192/192 191/191/191 190/190/190
f 191/191/191 193/193/193 190/190/190
f 191/191/191 194/194/194 193/193/193
f 194/194/194 195/195/195 193/193/193
f 194/194/194 196/196/196 195/195/195
f 194/194/194 197/197/197 196/196/196
f 191/191/191 198/198/198 194/194/194
f 194/194/194 199/199/199 197/197/197
f 198/198/198 199/199/199 194/194/194
f 199/199/199 200/200/200 197/197/197
f 199/199/199 201/201/201 200/200/200
f 198/198/198 202/202/202 199/199/199
f 203/203/203 202/202/202 198/198/198
f 203/203/203 204/204/204 202/202/202
f 199/199/199 202/202/202 204/204/204
f 199/199/199 204/204/204 201/201/201
f 204/204/204 205/205/205 201/201/201
f 208/208/208 207/207/207 206/206/206
f 209/209/209 208/208/208 206/206/206
f 209/209/209 210/210/210 208/208/208
f 210/210/210 209/209/209 211/211/211
f 212/212/212 210/210/210 211/211/211
f 212/212/212 211/211/211 213/213/213
f 214/214/214 212/212/212 213/213/213
f 214/214/214 215/215/215 212/212/212
f 214/214/214 213/213/213 216/216/216
f 217/217/217 215/215/215 214/214/214
f 217/217/217 214/214/214 216/216/216
f 218/218/218 217/217/217 216/216/216
