g underRiver_geo
v 197.2795 -146.38893 22.280413
v 249.0425 -154.27599 4.9478254
v 246.22855 -154.25558 27.619102
v 199.09802 -147.24203 48.332397
v 144.85103 -136.99796 39.976067
v 153.76302 -140.69365 67.70439
v 111.132996 -134.8978 82.784744
v 100.81855 -130.30801 53.960457
v 81.846344 -128.15892 59.498276
v 91.88375 -131.17206 80.948265
v 28.186193 -128.7392 101.96925
v 25.149889 -125.036354 75.00953
v -12.946306 -126.62853 91.05686
v -11.2607565 -123.38582 66.66976
v -46.644917 -123.9921 58.227806
v -52.883858 -127.052055 78.07359
v -112.644806 -132.71036 60.59684
v -107.42041 -130.37115 41.986736
v -170.27333 -142.03737 42.442314
v -169.33011 -141.1223 25.799099
v -246.67929 -154.19403 18.02474
v -248.49425 -154.19382 4.9261613
vt 0.09063721 0.17236328
vt 0 0.17236328
vt 0 0.8276367
vt 0.10284424 0.8276367
vt 0.17700195 0.17236328
vt 0.17749023 0.8276367
vt 0.23730469 0.8276367
vt 0.24169922 0.17236328
vt 0.27172852 0.17236328
vt 0.26464844 0.8276367
vt 0.36376953 0.8276367
vt 0.36450195 0.17236328
vt 0.41918945 0.8276367
vt 0.4272461 0.17236328
vt 0.49267578 0.17236328
vt 0.49438477 0.8276367
vt 0.62060547 0.8276367
vt 0.6201172 0.17236328
vt 0.7602539 0.8276367
vt 0.76953125 0.17236328
vt 1 0.8276367
vt 1 0.17236328
vn 0.16662598 0.98535156 0.032836914
vn 0.15649414 0.9873047 0.020080566
vn 0.15649414 0.9873047 0.020080566
vn 0.1706543 0.984375 0.037841797
vn 0.1743164 0.9824219 0.066589355
vn 0.17419434 0.9824219 0.06695557
vn 0.16809082 0.9819336 0.08557129
vn 0.16711426 0.9824219 0.08544922
vn 0.09686279 0.9892578 0.109191895
vn 0.105773926 0.98876953 0.105651855
vn 0.057495117 0.99072266 0.12200928
vn 0.053710938 0.99072266 0.123046875
vn -0.011505127 0.99121094 0.13305664
vn -0.019485474 0.99072266 0.1328125
vn -0.09423828 0.98876953 0.11425781
vn -0.096069336 0.98876953 0.11352539
vn -0.15258789 0.9848633 0.08117676
vn -0.15209961 0.9848633 0.08154297
vn -0.17663574 0.98291016 0.04864502
vn -0.17504883 0.98339844 0.04547119
vn -0.16992188 0.9848633 0.03527832
vn -0.16992188 0.9848633 0.03527832
g underRiver_geo_0
f 3/3/3 2/2/2 1/1/1
f 4/4/4 3/3/3 1/1/1
f 4/4/4 1/1/1 5/5/5
f 6/6/6 4/4/4 5/5/5
f 7/7/7 6/6/6 5/5/5
f 8/8/8 7/7/7 5/5/5
f 8/8/8 9/9/9 7/7/7
f 9/9/9 10/10/10 7/7/7
f 11/11/11 10/10/10 9/9/9
f 12/12/12 11/11/11 9/9/9
f 13/13/13 11/11/11 12/12/12
f 14/14/14 13/13/13 12/12/12
f 14/14/14 15/15/15 13/13/13
f 15/15/15 16/16/16 13/13/13
f 17/17/17 16/16/16 15/15/15
f 18/18/18 17/17/17 15/15/15
f 19/19/19 17/17/17 18/18/18
f 20/20/20 19/19/19 18/18/18
f 19/19/19 20/20/20 21/21/21
f 20/20/20 22/22/22 21/21/21
