g underBuildingBrokenG_geo
v -11.111189 29.488493 -3.979459
v -11.20648 29.513115 -4.177923
v -11.011694 29.476841 -4.1770444
v 10.795166 29.56246 3.2009172
v 10.622041 29.56246 2.8546615
v 10.968289 29.56246 2.8546615
v -9.778348 18.882198 5.95528
v -9.816845 24.77037 5.95528
v -6.3823285 24.77037 5.95528
v -6.3823285 -1.5512109E-07 5.95528
v -14.027772 -1.5512109E-07 5.95528
v -14.027772 17.204756 5.95528
v -3.946244 -1.5512109E-07 8.254525
v -3.946244 24.77037 8.254525
v 0.02305522 -1.5512109E-07 9.320526
v 0.02305522 24.77037 9.320526
v 3.9923546 -1.5512109E-07 8.254525
v 3.9923546 24.77037 8.254525
v 6.4284387 -1.5512109E-07 5.95528
v 6.4284387 24.77037 5.95528
v 9.279254 15.252687 5.4056635
v 14.027776 18.732695 5.95528
v 14.027776 24.77037 5.95528
v 14.027776 11.133637 5.95528
v 14.027776 -1.5512109E-07 5.95528
v 11.9005 15.008395 3.965279
v 13.457567 15.117673 1.8334299
v -12.602613 24.77037 -1.6694976E-08
v -6.3823285 24.77037 5.95528
v -9.816845 24.77037 5.95528
v 0.02305522 24.77037 -1.6694976E-08
v -14.027772 24.77037 -4.7406735
v -14.027772 24.77037 -5.95528
v -6.3823285 24.77037 -5.95528
v 0.02305522 24.77037 9.320526
v -3.946244 24.77037 8.254525
v 0.02305522 24.77037 -9.32053
v -3.946244 24.77037 -8.254525
v 6.4284387 24.77037 5.95528
v 3.9923546 24.77037 8.254525
v 6.4284387 24.77037 -5.95528
v 3.9923546 24.77037 -8.254525
v 14.027776 24.77037 -1.6694976E-08
v 14.027776 24.77037 5.95528
v 10.302189 24.77037 -5.95528
v 14.027776 24.77037 -2.2530382
v -14.027772 17.204756 5.95528
v -14.027772 -1.5512109E-07 5.95528
v -14.027772 -1.5512109E-07 -1.6694976E-08
v -14.027772 19.520222 -1.6694976E-08
v -14.027772 -1.5512109E-07 -5.95528
v -14.027772 24.77037 -5.95528
v -14.027772 24.77037 -4.7406735
v -14.027772 -1.5512109E-07 -5.95528
v -6.3823285 24.77037 -5.95528
v -14.027772 24.77037 -5.95528
v -6.3823285 -1.5512109E-07 -5.95528
v -3.946244 -1.5512109E-07 -8.254525
v -3.946244 24.77037 -8.254525
v 0.02305522 -1.5512109E-07 -9.32053
v 0.02305522 24.77037 -9.32053
v 3.9923546 -1.5512109E-07 -8.254525
v 3.9923546 24.77037 -8.254525
v 6.4284387 -1.5512109E-07 -5.95528
v 6.4284387 24.77037 -5.95528
v 14.027776 20.038536 -5.95528
v 10.302189 24.77037 -5.95528
v 14.027776 -1.5512109E-07 -5.95528
v 14.027776 -1.5512109E-07 -5.95528
v 14.027776 -1.5512109E-07 -1.6694976E-08
v 14.027776 20.038536 -5.95528
v 14.027776 24.77037 -2.2530382
v 10.302189 24.77037 -5.95528
v 14.027776 24.77037 -1.6694976E-08
v 13.457567 15.117673 1.8334299
v 14.027776 -1.5512109E-07 5.95528
v 14.027776 11.133637 5.95528
v 14.027776 18.732695 5.95528
v 14.027776 24.77037 5.95528
v -12.602613 24.77037 -1.6694976E-08
v -12.143663 20.432331 -0.610451
v -14.027772 24.77037 -4.7406735
v -9.778348 18.882198 5.95528
v -9.816845 24.77037 5.95528
v -12.143663 20.432331 -0.610451
v -9.778348 18.882198 5.95528
v -14.027772 17.204756 5.95528
v -14.027772 19.520222 -1.6694976E-08
v -14.027772 24.77037 -4.7406735
v -11.20648 29.513115 -4.177923
v -12.084993 24.79175 -4.341844
v -11.890207 24.755476 -4.3409653
v -11.011694 29.476841 -4.1770444
v -11.989703 24.767128 -4.1433883
v -11.111189 29.488493 -3.979459
v -11.011694 29.476841 -4.1770444
v -11.890207 24.755476 -4.3409653
v -12.084993 24.79175 -4.341844
v -11.20648 29.513115 -4.177923
v -11.111189 29.488493 -3.979459
v -11.989703 24.767128 -4.1433883
v 10.622041 29.56246 2.8546615
v 10.622041 26.739243 2.8546615
v 10.968289 26.739243 2.8546615
v 10.968289 29.56246 2.8546615
v 10.795166 26.739243 3.2009172
v 10.795166 29.56246 3.2009172
v 10.968289 29.56246 2.8546615
v 10.968289 26.739243 2.8546615
v 10.622041 26.739243 2.8546615
v 10.622041 29.56246 2.8546615
v 10.795166 29.56246 3.2009172
v 10.795166 26.739243 3.2009172
v 5.2175236 24.77037 3.6150372
v 5.2175236 26.739243 3.6150372
v 11.462568 26.739243 3.6150372
v 11.462568 24.77037 3.6150372
v 5.2175236 26.739243 3.6150372
v 5.2175236 26.739243 -0.42194888
v 11.462568 26.739243 -0.42194888
v 11.462568 26.739243 3.6150372
v 5.2175236 26.739243 -0.42194888
v 5.2175236 24.77037 -0.42194888
v 11.462568 24.77037 -0.42194888
v 11.462568 26.739243 -0.42194888
v 11.462568 24.77037 3.6150372
v 11.462568 26.739243 3.6150372
v 11.462568 26.739243 -0.42194888
v 11.462568 24.77037 -0.42194888
v 5.2175236 24.77037 -0.42194888
v 5.2175236 26.739243 -0.42194888
v 5.2175236 26.739243 3.6150372
v 5.2175236 24.77037 3.6150372
vt 0.6635742 0.37475586
vt 0.6640625 0.3737793
vt 0.66308594 0.3737793
vt 0.65478516 0.375
vt 0.6557617 0.37329102
vt 0.6542969 0.37329102
vt 0.67041016 0.34716797
vt 0.67041016 0.37597656
vt 0.6870117 0.37597656
vt 0.6875 0.2548828
vt 0.64990234 0.25463867
vt 0.64990234 0.3388672
vt 0.7036133 0.2548828
vt 0.7036133 0.37597656
vt 0.7241211 0.2548828
vt 0.7236328 0.3762207
vt 0.7441406 0.25512695
vt 0.74365234 0.3762207
vt 0.7602539 0.25512695
vt 0.7602539 0.37646484
vt 0.77685547 0.33154297
vt 0.796875 0.35131836
vt 0.79785156 0.37670898
vt 0.7949219 0.30688477
vt 0.79296875 0.2548828
vt 0.79541016 0.32958984
vt 0.8125 0.32958984
vt 0.4580078 0.3425293
vt 0.48828125 0.31347656
vt 0.4716797 0.31347656
vt 0.51953125 0.3425293
vt 0.45092773 0.36572266
vt 0.45092773 0.37158203
vt 0.48828125 0.37158203
vt 0.51953125 0.29711914
vt 0.5 0.3022461
vt 0.51953125 0.38793945
vt 0.5 0.3828125
vt 0.55078125 0.31347656
vt 0.5390625 0.3022461
vt 0.55078125 0.37158203
vt 0.5390625 0.3828125
vt 0.5878906 0.3425293
vt 0.5878906 0.31347656
vt 0.5698242 0.37158203
vt 0.5878906 0.35351562
vt 0.64990234 0.3388672
vt 0.64990234 0.25463867
vt 0.62109375 0.25439453
vt 0.62060547 0.34985352
vt 0.5917969 0.25439453
vt 0.5913086 0.37548828
vt 0.59716797 0.37548828
vt 0.9980469 0.25512695
vt 0.9604492 0.37646484
vt 0.9980469 0.37646484
vt 0.9604492 0.25512695
vt 0.94433594 0.2548828
vt 0.94433594 0.37646484
vt 0.9243164 0.2548828
vt 0.9243164 0.37646484
vt 0.9038086 0.2548828
vt 0.9038086 0.37646484
vt 0.8876953 0.2548828
vt 0.8876953 0.37670898
vt 0.8510742 0.35131836
vt 0.86621094 0.37670898
vt 0.8520508 0.2548828
vt 0.8520508 0.2548828
vt 0.82177734 0.2548828
vt 0.8510742 0.35131836
vt 0.83496094 0.37670898
vt 0.86621094 0.37670898
vt 0.82373047 0.37670898
vt 0.8125 0.32958984
vt 0.79296875 0.2548828
vt 0.7949219 0.30688477
vt 0.796875 0.35131836
vt 0.79785156 0.37670898
vt 0.5229492 0.47998047
vt 0.52246094 0.45922852
vt 0.49829102 0.47680664
vt 0.55566406 0.4501953
vt 0.55615234 0.47973633
vt 0.52246094 0.45922852
vt 0.55566406 0.4501953
vt 0.5444336 0.43066406
vt 0.51953125 0.4489746
vt 0.49829102 0.47680664
vt 0.6640625 0.3737793
vt 0.6640625 0.3503418
vt 0.66308594 0.3503418
vt 0.66308594 0.3737793
vt 0.6621094 0.3503418
vt 0.6621094 0.3737793
vt 0.66308594 0.3737793
vt 0.66308594 0.3503418
vt 0.6640625 0.3503418
vt 0.6640625 0.3737793
vt 0.66503906 0.3737793
vt 0.66503906 0.3503418
vt 0.6557617 0.37329102
vt 0.6557617 0.35961914
vt 0.6538086 0.35961914
vt 0.6542969 0.37329102
vt 0.65234375 0.35961914
vt 0.65234375 0.37329102
vt 0.6542969 0.37329102
vt 0.6538086 0.35961914
vt 0.6557617 0.35961914
vt 0.6557617 0.37329102
vt 0.65771484 0.37329102
vt 0.65771484 0.35961914
vt 0.4753418 0.38989258
vt 0.4753418 0.39941406
vt 0.5058594 0.39941406
vt 0.5058594 0.38989258
vt 0.4753418 0.39941406
vt 0.4753418 0.41918945
vt 0.5058594 0.41918945
vt 0.5058594 0.39941406
vt 0.55615234 0.39941406
vt 0.55615234 0.38989258
vt 0.5253906 0.38989258
vt 0.5253906 0.39941406
vt 0.5058594 0.38989258
vt 0.5058594 0.39941406
vt 0.5253906 0.39941406
vt 0.5253906 0.38989258
vt 0.45581055 0.38989258
vt 0.45581055 0.39941406
vt 0.4753418 0.39941406
vt 0.4753418 0.38989258
vn -0.008377075 -0.020767212 0.9995117
vn -0.8720703 0.19116211 -0.45043945
vn 0.88623047 -0.13635254 -0.4423828
vn -0 0.03616333 0.9995117
vn -0.8935547 0.038635254 -0.44677734
vn 0.8935547 0.038635254 -0.44677734
vn -0.15917969 0.068481445 0.9848633
vn -0.34594727 0.6298828 0.6958008
vn -0.34765625 0.6381836 0.6870117
vn -0.3305664 0 0.94384766
vn -0.7089844 0 0.7050781
vn -0.7055664 0.08886719 0.703125
vn -0.4650879 0 0.8852539
vn -0.4440918 0.29736328 0.84521484
vn -0 0 1
vn -0 0.27001953 0.9628906
vn 0.4650879 0 0.8852539
vn 0.4440918 0.29736328 0.84521484
vn 0.36816406 0.012321472 0.9296875
vn 0.32128906 0.72314453 0.6113281
vn 0.06982422 -0.0028076172 0.9975586
vn 0.64208984 -0.085998535 0.76171875
vn 0.453125 0.69433594 0.55908203
vn 0.6333008 0.05114746 0.77197266
vn 0.62402344 0.03640747 0.7807617
vn 0.64453125 0.021575928 0.76416016
vn 0.99316406 -0.0018873215 0.11834717
vn -0.5385742 0.8173828 0.20458984
vn -0.34765625 0.6381836 0.6870117
vn -0.34594727 0.6298828 0.6958008
vn -0 1 0
vn -0.9033203 0.42871094 0.018997192
vn -0.3720703 0.15136719 -0.9160156
vn -0.21240234 0.29614258 -0.93115234
vn -0 0.27001953 0.9628906
vn -0.4440918 0.29736328 0.84521484
vn -0 0.27001953 -0.9628906
vn -0.4440918 0.29736328 -0.84521484
vn 0.32128906 0.72314453 0.6113281
vn 0.4440918 0.29736328 0.84521484
vn 0.2956543 0.4375 -0.8491211
vn 0.4440918 0.29736328 -0.84521484
vn 0.796875 0.6040039 -0.0042686462
vn 0.453125 0.69433594 0.55908203
vn 0.039855957 0.18273926 -0.9824219
vn 0.9711914 0.23291016 -0.051452637
vn -0.7055664 0.08886719 0.703125
vn -0.7089844 0 0.7050781
vn -1 0 0
vn -0.9892578 0.13256836 0.06085205
vn -0.3095703 0 -0.9506836
vn -0.3720703 0.15136719 -0.9160156
vn -0.9033203 0.42871094 0.018997192
vn -0.3095703 0 -0.9506836
vn -0.21240234 0.29614258 -0.93115234
vn -0.3720703 0.15136719 -0.9160156
vn -0.22241211 0 -0.97509766
vn -0.4650879 0 -0.8852539
vn -0.4440918 0.29736328 -0.84521484
vn -0 0 -1
vn -0 0.27001953 -0.9628906
vn 0.4650879 0 -0.8852539
vn 0.4440918 0.29736328 -0.84521484
vn 0.37060547 0 -0.92871094
vn 0.2956543 0.4375 -0.8491211
vn 0.61572266 0.019348145 -0.78759766
vn 0.039855957 0.18273926 -0.9824219
vn 0.6166992 0 -0.7871094
vn 0.6166992 0 -0.7871094
vn 0.9995117 0.012260437 -0.018478394
vn 0.61572266 0.019348145 -0.78759766
vn 0.9711914 0.23291016 -0.051452637
vn 0.039855957 0.18273926 -0.9824219
vn 0.796875 0.6040039 -0.0042686462
vn 0.99316406 -0.0018873215 0.11834717
vn 0.62402344 0.03640747 0.7807617
vn 0.6333008 0.05114746 0.77197266
vn 0.64208984 -0.085998535 0.76171875
vn 0.453125 0.69433594 0.55908203
vn -0.5385742 0.8173828 0.20458984
vn -0.8100586 0.34179688 0.4765625
vn -0.9033203 0.42871094 0.018997192
vn -0.15917969 0.068481445 0.9848633
vn -0.34594727 0.6298828 0.6958008
vn -0.8100586 0.34179688 0.4765625
vn -0.15917969 0.068481445 0.9848633
vn -0.7055664 0.08886719 0.703125
vn -0.9892578 0.13256836 0.06085205
vn -0.9033203 0.42871094 0.018997192
vn -0.8720703 0.19116211 -0.45043945
vn -0.8745117 0.17834473 -0.45092773
vn 0.88427734 -0.14916992 -0.4428711
vn 0.88623047 -0.13635254 -0.4423828
vn -0.010604858 -0.032714844 0.9995117
vn -0.008377075 -0.020767212 0.9995117
vn 0.88623047 -0.13635254 -0.4423828
vn 0.88427734 -0.14916992 -0.4428711
vn -0.8745117 0.17834473 -0.45092773
vn -0.8720703 0.19116211 -0.45043945
vn -0.008377075 -0.020767212 0.9995117
vn -0.010604858 -0.032714844 0.9995117
vn -0.8935547 0.038635254 -0.44677734
vn -0.89453125 0 -0.44726562
vn 0.89453125 0 -0.44726562
vn 0.8935547 0.038635254 -0.44677734
vn -0 0 1
vn -0 0.03616333 0.9995117
vn 0.8935547 0.038635254 -0.44677734
vn 0.89453125 0 -0.44726562
vn -0.89453125 0 -0.44726562
vn -0.8935547 0.038635254 -0.44677734
vn -0 0.03616333 0.9995117
vn -0 0 1
vn -0.54296875 0 0.83984375
vn -0.27270508 0.8647461 0.42163086
vn 0.27270508 0.8647461 0.42163086
vn 0.54296875 0 0.83984375
vn -0.27270508 0.8647461 0.42163086
vn -0.27270508 0.8647461 -0.42163086
vn 0.27270508 0.8647461 -0.42163086
vn 0.27270508 0.8647461 0.42163086
vn -0.27270508 0.8647461 -0.42163086
vn -0.54296875 0 -0.83984375
vn 0.54296875 0 -0.83984375
vn 0.27270508 0.8647461 -0.42163086
vn 0.54296875 0 0.83984375
vn 0.27270508 0.8647461 0.42163086
vn 0.27270508 0.8647461 -0.42163086
vn 0.54296875 0 -0.83984375
vn -0.54296875 0 -0.83984375
vn -0.27270508 0.8647461 -0.42163086
vn -0.27270508 0.8647461 0.42163086
vn -0.54296875 0 0.83984375
g underBuildingBrokenG_geo_0
f 3/3/3 2/2/2 1/1/1
f 6/6/6 5/5/5 4/4/4
f 9/9/9 8/8/8 7/7/7
f 10/10/10 9/9/9 7/7/7
f 10/10/10 7/7/7 11/11/11
f 7/7/7 12/12/12 11/11/11
f 10/10/10 13/13/13 9/9/9
f 13/13/13 14/14/14 9/9/9
f 13/13/13 15/15/15 14/14/14
f 15/15/15 16/16/16 14/14/14
f 15/15/15 17/17/17 16/16/16
f 17/17/17 18/18/18 16/16/16
f 18/18/18 17/17/17 19/19/19
f 20/20/20 18/18/18 19/19/19
f 19/19/19 21/21/21 20/20/20
f 21/21/21 22/22/22 20/20/20
f 22/22/22 23/23/23 20/20/20
f 21/21/21 19/19/19 24/24/24
f 19/19/19 25/25/25 24/24/24
f 21/21/21 26/26/26 22/22/22
f 21/21/21 24/24/24 26/26/26
f 27/27/27 22/22/22 26/26/26
f 27/27/27 26/26/26 24/24/24
f 30/30/30 29/29/29 28/28/28
f 29/29/29 31/31/31 28/28/28
f 32/32/32 28/28/28 31/31/31
f 32/32/32 31/31/31 33/33/33
f 31/31/31 34/34/34 33/33/33
f 31/31/31 29/29/29 35/35/35
f 29/29/29 36/36/36 35/35/35
f 34/34/34 31/31/31 37/37/37
f 38/38/38 34/34/34 37/37/37
f 31/31/31 35/35/35 39/39/39
f 35/35/35 40/40/40 39/39/39
f 37/37/37 31/31/31 41/41/41
f 42/42/42 37/37/37 41/41/41
f 31/31/31 39/39/39 43/43/43
f 41/41/41 31/31/31 43/43/43
f 39/39/39 44/44/44 43/43/43
f 45/45/45 41/41/41 43/43/43
f 46/46/46 45/45/45 43/43/43
f 49/49/49 48/48/48 47/47/47
f 50/50/50 49/49/49 47/47/47
f 51/51/51 49/49/49 50/50/50
f 52/52/52 51/51/51 50/50/50
f 53/53/53 52/52/52 50/50/50
f 56/56/56 55/55/55 54/54/54
f 55/55/55 57/57/57 54/54/54
f 58/58/58 57/57/57 55/55/55
f 59/59/59 58/58/58 55/55/55
f 60/60/60 58/58/58 59/59/59
f 61/61/61 60/60/60 59/59/59
f 62/62/62 60/60/60 61/61/61
f 63/63/63 62/62/62 61/61/61
f 62/62/62 63/63/63 64/64/64
f 63/63/63 65/65/65 64/64/64
f 66/66/66 64/64/64 65/65/65
f 67/67/67 66/66/66 65/65/65
f 66/66/66 68/68/68 64/64/64
f 71/71/71 70/70/70 69/69/69
f 71/71/71 72/72/72 70/70/70
f 73/73/73 72/72/72 71/71/71
f 72/72/72 74/74/74 70/70/70
f 70/70/70 74/74/74 75/75/75
f 70/70/70 75/75/75 76/76/76
f 75/75/75 77/77/77 76/76/76
f 75/75/75 74/74/74 78/78/78
f 74/74/74 79/79/79 78/78/78
f 82/82/82 81/81/81 80/80/80
f 80/80/80 81/81/81 83/83/83
f 84/84/84 80/80/80 83/83/83
f 87/87/87 86/86/86 85/85/85
f 88/88/88 87/87/87 85/85/85
f 89/89/89 88/88/88 85/85/85
f 92/92/92 91/91/91 90/90/90
f 93/93/93 92/92/92 90/90/90
f 96/96/96 95/95/95 94/94/94
f 97/97/97 96/96/96 94/94/94
f 100/100/100 99/99/99 98/98/98
f 101/101/101 100/100/100 98/98/98
f 104/104/104 103/103/103 102/102/102
f 105/105/105 104/104/104 102/102/102
f 108/108/108 107/107/107 106/106/106
f 109/109/109 108/108/108 106/106/106
f 112/112/112 111/111/111 110/110/110
f 113/113/113 112/112/112 110/110/110
f 116/116/116 115/115/115 114/114/114
f 117/117/117 116/116/116 114/114/114
f 120/120/120 119/119/119 118/118/118
f 121/121/121 120/120/120 118/118/118
f 124/124/124 123/123/123 122/122/122
f 125/125/125 124/124/124 122/122/122
f 128/128/128 127/127/127 126/126/126
f 129/129/129 128/128/128 126/126/126
f 132/132/132 131/131/131 130/130/130
f 133/133/133 132/132/132 130/130/130
