g underBuildingA_geo
v -2.0161676 -1.5512109E-07 3.7453227
v -2.0161676 33.04917 3.7453227
v 2.683771 38.84403 3.7453227
v 2.683771 -1.5512109E-07 3.7453227
v -2.0161676 33.04917 3.7453227
v 3.745321 40.642258 -3.7453198
v 2.683771 38.84403 3.7453227
v -3.7453163 31.551788 -3.7453198
v -3.7453163 -1.5512109E-07 -3.7453198
v -2.0161676 -1.5512109E-07 3.7453227
v -3.7453163 31.551788 -3.7453198
v -3.7453163 -1.5512109E-07 -3.7453198
v 3.745321 -1.5512109E-07 -3.7453198
v 3.745321 40.642258 -3.7453198
v 2.683771 -1.5512109E-07 3.7453227
v 2.683771 38.84403 3.7453227
v 3.745321 40.642258 -3.7453198
v 3.745321 -1.5512109E-07 -3.7453198
vt 0.112976074 0.7871094
vt 0.112976074 0.9482422
vt 0.13586426 0.9765625
vt 0.13586426 0.7871094
vt 0.112976074 0.9482422
vt 0.07550049 0.9980469
vt 0.112976074 0.984375
vt 0.07550049 0.94091797
vt 0.07550049 0.7871094
vt 0.112976074 0.7871094
vt 0.07550049 0.94091797
vt 0.07550049 0.7871094
vt 0.039031982 0.7871094
vt 0.039001465 0.98535156
vt 0.0021705627 0.7871094
vt 0.0021362305 0.9765625
vt 0.039001465 0.98535156
vt 0.039031982 0.7871094
vn -0.7324219 0 0.68066406
vn -0.6538086 0.1270752 0.74609375
vn 0.8964844 0.17333984 0.4074707
vn 0.81591797 0 0.5786133
vn -0.6538086 0.1270752 0.74609375
vn 0.9199219 0.16796875 -0.3544922
vn 0.8964844 0.17333984 0.4074707
vn -0.6621094 0.07763672 -0.7451172
vn -0.7480469 0 -0.6635742
vn -0.7324219 0 0.68066406
vn -0.6621094 0.07763672 -0.7451172
vn -0.7480469 0 -0.6635742
vn 0.79345703 0 -0.60839844
vn 0.9199219 0.16796875 -0.3544922
vn 0.81591797 0 0.5786133
vn 0.8964844 0.17333984 0.4074707
vn 0.9199219 0.16796875 -0.3544922
vn 0.79345703 0 -0.60839844
g underBuildingA_geo_0
f 3/3/3 2/2/2 1/1/1
f 4/4/4 3/3/3 1/1/1
f 7/7/7 6/6/6 5/5/5
f 6/6/6 8/8/8 5/5/5
f 5/5/5 8/8/8 9/9/9
f 10/10/10 5/5/5 9/9/9
f 13/13/13 12/12/12 11/11/11
f 14/14/14 13/13/13 11/11/11
f 17/17/17 16/16/16 15/15/15
f 18/18/18 17/17/17 15/15/15
