g underBuildingI_geo
v -2.035967 39.77501 0.47727033
v -2.16388 39.77501 0.58991146
v -2.16388 39.77501 0.36463717
v -1.8880501 37.49252 0.47727033
v -2.3117971 37.49252 0.85042405
v -2.3117971 37.49252 0.10412463
v -2.5631328 33.121193 2.506624
v -2.7904642 35.239452 2.6691306
v -2.7904642 33.121212 3.6967456
v -2.5631328 34.51721 1.8971397
v -2.5631328 35.170216 0.47727033
v -2.7904642 36.205322 0.47727033
v -2.5631328 34.517212 -0.94259906
v -2.7904642 35.239452 -1.7145901
v -2.5631328 33.121193 -1.5520753
v -2.7904642 33.121212 -2.7422044
v -2.5631328 33.121193 2.506624
v -2.3357878 33.121212 3.6967456
v -2.3357878 35.239452 2.6691306
v -2.5631328 34.51721 1.8971397
v -2.5631328 35.170216 0.47727033
v -2.3357878 36.205322 0.47727033
v -2.3357878 36.205322 0.47727033
v -2.3357878 35.239452 -1.7145901
v -2.5631328 34.517212 -0.94259906
v -2.5631328 35.170216 0.47727033
v -2.3357878 35.239452 -1.7145901
v -2.3357878 33.121212 -2.7422044
v -2.5631328 33.121193 -1.5520753
v -2.5631328 34.517212 -0.94259906
v -2.3357878 35.239452 2.6691306
v -2.3357878 33.121212 3.6967456
v -2.7904642 33.121212 3.6967456
v -2.7904642 35.239452 2.6691306
v -2.3357878 36.205322 0.47727033
v -2.7904642 36.205322 0.47727033
v -2.3357878 35.239452 -1.7145901
v -2.3357878 36.205322 0.47727033
v -2.7904642 36.205322 0.47727033
v -2.7904642 35.239452 -1.7145901
v -2.3357878 33.121212 -2.7422044
v -2.7904642 33.121212 -2.7422044
v 2.6011343 32.47205 -2.4743664
v 2.8902953 29.777765 -2.267658
v 2.6011343 29.77779 -3.7814107
v 2.8902953 31.5534 -1.4924394
v 2.6011343 33.700565 0.31353328
v 2.8902953 32.383984 0.31353328
v 2.6011343 32.47205 3.101433
v 2.8902953 31.5534 2.1195061
v 2.8902953 29.777765 2.8947327
v 2.6011343 29.77779 4.4084854
v 2.8902953 27.284845 2.8947327
v 2.6011343 27.28487 4.4084854
v 2.6011343 26.85675 4.04666
v 3.1794567 33.700565 0.31353328
v 3.1794567 32.47205 -2.4743664
v 2.8902953 31.5534 -1.4924394
v 2.8902953 32.383984 0.31353328
v 3.1794567 32.47205 3.101433
v 3.1794567 33.700565 0.31353328
v 2.8902953 32.383984 0.31353328
v 2.8902953 31.5534 2.1195061
v 2.8902953 29.777765 2.8947327
v 3.1794567 29.77779 4.4084854
v 3.1794567 27.28487 4.4084854
v 2.8902953 27.284845 2.8947327
v 3.1794567 26.85675 4.04666
v 3.1794567 32.47205 -2.4743664
v 3.1794567 29.77779 -3.7814107
v 2.8902953 29.777765 -2.267658
v 2.8902953 31.5534 -1.4924394
v 3.1794567 32.47205 -2.4743664
v 3.1794567 33.700565 0.31353328
v 2.6011343 33.700565 0.31353328
v 2.6011343 32.47205 -2.4743664
v 3.1794567 29.77779 -3.7814107
v 2.6011343 29.77779 -3.7814107
v 3.1794567 33.700565 0.31353328
v 2.6011343 32.47205 3.101433
v 2.6011343 33.700565 0.31353328
v 3.1794567 32.47205 3.101433
v 2.6011343 29.77779 4.4084854
v 3.1794567 29.77779 4.4084854
v 2.6011343 27.28487 4.4084854
v 3.1794567 27.28487 4.4084854
v 3.1794567 27.28487 4.4084854
v 3.1794567 26.85675 4.04666
v 2.6011343 26.85675 4.04666
v 2.6011343 27.28487 4.4084854
v 3.6111073 -1.5512109E-07 4.04666
v 3.6111073 29.777777 4.04666
v 3.6111073 29.777777 -4.4084864
v 3.6111073 -1.5512109E-07 -4.4084864
v 3.6111073 29.777777 4.04666
v 1.3990672 29.777777 4.04666
v 1.3990672 29.777777 -3.1755614
v 3.6111073 29.777777 -4.4084864
v -3.6111138 29.777777 -3.1755614
v -3.6111138 29.777777 -4.4084864
v 1.3990672 29.777777 4.04666
v 3.6111073 29.777777 4.04666
v 3.6111073 -1.5512109E-07 4.04666
v -3.6111138 -1.5512109E-07 4.04666
v -3.6111138 29.777777 4.04666
v 0.11829972 33.121212 4.04666
v -3.6111138 33.121212 4.04666
v 3.6111073 29.777777 -4.4084864
v -3.6111138 29.777777 -4.4084864
v -3.6111138 -1.5512109E-07 -4.4084864
v 3.6111073 -1.5512109E-07 -4.4084864
v 0.11829972 33.121212 4.04666
v -3.6111138 33.121212 4.04666
v -3.6111138 33.121212 -3.1755614
v 0.11829972 33.121212 -3.1755614
v 1.3990672 29.777777 4.04666
v 0.11829972 33.121212 4.04666
v 0.11829972 33.121212 -3.1755614
v 1.3990672 29.777777 -3.1755614
v 1.3990672 29.777777 -3.1755614
v 0.11829972 33.121212 -3.1755614
v -3.6111138 33.121212 -3.1755614
v -3.6111138 29.777777 -3.1755614
v -3.6111138 29.777777 -3.1755614
v -3.6111138 33.121212 -3.1755614
v -3.6111138 33.121212 4.04666
v -3.6111138 29.777777 4.04666
v -3.6111138 -1.5512109E-07 4.04666
v -3.6111138 -1.5512109E-07 -4.4084864
v -3.6111138 29.777777 -4.4084864
v -2.16388 39.77501 0.58991146
v -2.1974533 37.49252 0.64904404
v -2.1974533 37.49252 0.30549663
v -2.16388 39.77501 0.36463717
v -2.0023942 37.49252 0.47727033
v -2.035967 39.77501 0.47727033
v -2.16388 39.77501 0.36463717
v -2.1974533 37.49252 0.30549663
v -2.1974533 37.49252 0.64904404
v -2.16388 39.77501 0.58991146
v -2.035967 39.77501 0.47727033
v -2.0023942 37.49252 0.47727033
v -2.3117971 37.49252 0.85042405
v -2.3117971 33.121212 0.85042405
v -2.3117971 33.121212 0.10412463
v -2.3117971 37.49252 0.10412463
v -1.8880501 33.121212 0.47727033
v -1.8880501 37.49252 0.47727033
v -2.3117971 37.49252 0.10412463
v -2.3117971 33.121212 0.10412463
v -2.3117971 33.121212 0.85042405
v -2.3117971 37.49252 0.85042405
v -1.8880501 37.49252 0.47727033
v -1.8880501 33.121212 0.47727033
vt 0.4453125 0.6953125
vt 0.44580078 0.6948242
vt 0.44458008 0.6948242
vt 0.44506836 0.6777344
vt 0.44702148 0.67578125
vt 0.44335938 0.67578125
vt 0.46240234 0.4416504
vt 0.46972656 0.43579102
vt 0.45898438 0.43579102
vt 0.47045898 0.4404297
vt 0.4794922 0.44091797
vt 0.4794922 0.43579102
vt 0.4885254 0.4404297
vt 0.4892578 0.43579102
vt 0.49682617 0.4416504
vt 0.5 0.43579102
vt 0.46240234 0.42749023
vt 0.45898438 0.4333496
vt 0.4699707 0.4333496
vt 0.47045898 0.42871094
vt 0.4794922 0.4284668
vt 0.4794922 0.43359375
vt 0.4794922 0.43359375
vt 0.4892578 0.43359375
vt 0.4885254 0.42871094
vt 0.4794922 0.4284668
vt 0.4892578 0.43359375
vt 0.5 0.4333496
vt 0.49658203 0.42749023
vt 0.4885254 0.42871094
vt 0.4699707 0.4333496
vt 0.45898438 0.4333496
vt 0.45898438 0.43579102
vt 0.46972656 0.43579102
vt 0.4794922 0.43359375
vt 0.4794922 0.43579102
vt 0.4892578 0.43359375
vt 0.4794922 0.43359375
vt 0.4794922 0.43579102
vt 0.4892578 0.43579102
vt 0.5 0.4333496
vt 0.5 0.43579102
vt 0.43554688 0.7104492
vt 0.44506836 0.7182617
vt 0.4494629 0.7109375
vt 0.43481445 0.7167969
vt 0.42333984 0.7104492
vt 0.42333984 0.71728516
vt 0.4111328 0.7109375
vt 0.4116211 0.7167969
vt 0.40063477 0.7182617
vt 0.39868164 0.7104492
vt 0.3864746 0.71777344
vt 0.38720703 0.7109375
vt 0.38500977 0.7114258
vt 0.42333984 0.7080078
vt 0.43554688 0.7080078
vt 0.4345703 0.70166016
vt 0.4230957 0.7011719
vt 0.4111328 0.7080078
vt 0.42333984 0.7080078
vt 0.4230957 0.7011719
vt 0.4116211 0.70166016
vt 0.40063477 0.7001953
vt 0.39868164 0.70751953
vt 0.38745117 0.7080078
vt 0.38623047 0.7001953
vt 0.38500977 0.70751953
vt 0.43554688 0.7080078
vt 0.4494629 0.70751953
vt 0.44506836 0.7001953
vt 0.4345703 0.70166016
vt 0.43554688 0.7080078
vt 0.42333984 0.7080078
vt 0.42333984 0.7104492
vt 0.43554688 0.7104492
vt 0.4494629 0.70751953
vt 0.4494629 0.7109375
vt 0.42333984 0.7080078
vt 0.4111328 0.7109375
vt 0.42333984 0.7104492
vt 0.4111328 0.7080078
vt 0.39868164 0.7104492
vt 0.39868164 0.70751953
vt 0.38720703 0.7109375
vt 0.38745117 0.7080078
vt 0.38745117 0.7080078
vt 0.38500977 0.70751953
vt 0.38500977 0.7114258
vt 0.38720703 0.7109375
vt 0.43798828 0.48510742
vt 0.43798828 0.6303711
vt 0.47924805 0.6303711
vt 0.47924805 0.48510742
vt 0.43701172 0.6542969
vt 0.42626953 0.6542969
vt 0.42626953 0.6894531
vt 0.43701172 0.6958008
vt 0.40185547 0.6894531
vt 0.40185547 0.6958008
vt 0.4272461 0.6303711
vt 0.43798828 0.6303711
vt 0.43798828 0.48510742
vt 0.40283203 0.48510742
vt 0.40283203 0.6303711
vt 0.42089844 0.6464844
vt 0.40283203 0.6464844
vt 0.47924805 0.6303711
vt 0.51464844 0.6303711
vt 0.51464844 0.48510742
vt 0.47924805 0.48510742
vt 0.42041016 0.64990234
vt 0.40234375 0.64990234
vt 0.40234375 0.6850586
vt 0.42041016 0.6850586
vt 0.4765625 0.44555664
vt 0.45922852 0.44555664
vt 0.45922852 0.48095703
vt 0.4765625 0.48095703
vt 0.4794922 0.44677734
vt 0.48583984 0.46313477
vt 0.50390625 0.46313477
vt 0.50390625 0.44677734
vt 0.5205078 0.6303711
vt 0.5205078 0.6464844
vt 0.55566406 0.6464844
vt 0.55566406 0.6303711
vt 0.55566406 0.48510742
vt 0.51464844 0.48510742
vt 0.51464844 0.6303711
vt 0.44580078 0.6948242
vt 0.44604492 0.68359375
vt 0.44433594 0.68359375
vt 0.44458008 0.6948242
vt 0.44311523 0.68359375
vt 0.44384766 0.6948242
vt 0.44458008 0.6948242
vt 0.44433594 0.68359375
vt 0.44604492 0.68359375
vt 0.44580078 0.6948242
vt 0.4465332 0.6948242
vt 0.44726562 0.68359375
vt 0.44702148 0.67578125
vt 0.44702148 0.6542969
vt 0.44335938 0.6542969
vt 0.44335938 0.67578125
vt 0.4404297 0.6542969
vt 0.4404297 0.67578125
vt 0.44335938 0.67578125
vt 0.44335938 0.6542969
vt 0.44702148 0.6542969
vt 0.44702148 0.67578125
vt 0.44970703 0.67578125
vt 0.44970703 0.6542969
vn 0.9995117 0.034942627 0
vn -0.6591797 0.044708252 0.7504883
vn -0.6591797 0.044708252 -0.7504883
vn 0.99902344 0.044525146 0
vn -0.66064453 0.034606934 0.75
vn -0.66064453 0.034606934 -0.75
vn -6.556511E-07 -0.42236328 -0.90625
vn -0.9121094 0.29907227 0.27978516
vn -0.88720703 0.20410156 0.41381836
vn -9.536743E-07 -0.7182617 -0.6958008
vn -1.4305115E-06 -1 -1.2516975E-06
vn -0.8979492 0.44067383 -1.7881393E-07
vn -1.0728836E-06 -0.7182617 0.6958008
vn -0.9121094 0.29907227 -0.27978516
vn -8.940697E-07 -0.42236328 0.90625
vn -0.88720703 0.20410156 -0.41381836
vn -6.556511E-07 -0.42236328 -0.90625
vn 0.88720703 0.20410156 0.41381836
vn 0.9121094 0.29907227 0.27978516
vn -9.536743E-07 -0.7182617 -0.6958008
vn -1.4305115E-06 -1 -1.2516975E-06
vn 0.8979492 0.44067383 -1.7881393E-07
vn 0.8979492 0.44067383 -1.7881393E-07
vn 0.9121094 0.29907227 -0.27978516
vn -1.0728836E-06 -0.7182617 0.6958008
vn -1.4305115E-06 -1 -1.2516975E-06
vn 0.9121094 0.29907227 -0.27978516
vn 0.88720703 0.20410156 -0.41381836
vn -8.940697E-07 -0.42236328 0.90625
vn -1.0728836E-06 -0.7182617 0.6958008
vn 0.9121094 0.29907227 0.27978516
vn 0.88720703 0.20410156 0.41381836
vn -0.88720703 0.20410156 0.41381836
vn -0.9121094 0.29907227 0.27978516
vn 0.8979492 0.44067383 -1.7881393E-07
vn -0.8979492 0.44067383 -1.7881393E-07
vn 0.9121094 0.29907227 -0.27978516
vn 0.8979492 0.44067383 -1.7881393E-07
vn -0.8979492 0.44067383 -1.7881393E-07
vn -0.9121094 0.29907227 -0.27978516
vn 0.88720703 0.20410156 -0.41381836
vn -0.88720703 0.20410156 -0.41381836
vn -0.9121094 0.29907227 -0.27978516
vn 1.1920929E-07 -0.42236328 0.90625
vn -0.88720703 0.20410156 -0.41381836
vn -0 -0.7182617 0.6958008
vn -0.8979492 0.44067383 0
vn -0 -1 0
vn -0.9121094 0.29907227 0.27978516
vn -0 -0.7182617 -0.6958008
vn 1.7881393E-07 -0.23962402 -0.9707031
vn -0.9550781 0.08428955 0.28344727
vn 2.9802322E-07 0.0158844 -1
vn -0.97216797 -0.044189453 0.22949219
vn -0.8671875 -0.32128906 0.38012695
vn 0.8979492 0.44067383 0
vn 0.9121094 0.29907227 -0.27978516
vn -0 -0.7182617 0.6958008
vn -0 -1 0
vn 0.9121094 0.29907227 0.27978516
vn 0.8979492 0.44067383 0
vn -0 -1 0
vn -0 -0.7182617 -0.6958008
vn 1.7881393E-07 -0.23962402 -0.9707031
vn 0.9550781 0.08428955 0.28344727
vn 0.97216797 -0.044189453 0.22949219
vn 2.9802322E-07 0.0158844 -1
vn 0.8671875 -0.32128906 0.38012695
vn 0.9121094 0.29907227 -0.27978516
vn 0.88720703 0.20410156 -0.41381836
vn 1.1920929E-07 -0.42236328 0.90625
vn -0 -0.7182617 0.6958008
vn 0.9121094 0.29907227 -0.27978516
vn 0.8979492 0.44067383 0
vn -0.8979492 0.44067383 0
vn -0.9121094 0.29907227 -0.27978516
vn 0.88720703 0.20410156 -0.41381836
vn -0.88720703 0.20410156 -0.41381836
vn 0.8979492 0.44067383 0
vn -0.9121094 0.29907227 0.27978516
vn -0.8979492 0.44067383 0
vn 0.9121094 0.29907227 0.27978516
vn -0.9550781 0.08428955 0.28344727
vn 0.9550781 0.08428955 0.28344727
vn -0.97216797 -0.044189453 0.22949219
vn 0.97216797 -0.044189453 0.22949219
vn 0.97216797 -0.044189453 0.22949219
vn 0.8671875 -0.32128906 0.38012695
vn -0.8671875 -0.32128906 0.38012695
vn -0.97216797 -0.044189453 0.22949219
vn 0.8730469 0 0.4873047
vn 0.87158203 0.060028076 0.48632812
vn 0.7597656 0.042755127 -0.6489258
vn 0.7602539 0 -0.64941406
vn 0.87158203 0.060028076 0.48632812
vn 0.10229492 0.1126709 0.98828125
vn 0.46313477 0.8598633 -0.21496582
vn 0.7597656 0.042755127 -0.6489258
vn -0.99853516 0.026748657 -0.051818848
vn -0.5566406 0.02911377 -0.8300781
vn 0.10229492 0.1126709 0.98828125
vn 0.87158203 0.060028076 0.48632812
vn 0.8730469 0 0.4873047
vn -0.7207031 0 0.6933594
vn -0.828125 0 0.56103516
vn 0.5126953 0.7685547 0.38256836
vn -0.6191406 0.6904297 0.37451172
vn 0.7597656 0.042755127 -0.6489258
vn -0.5566406 0.02911377 -0.8300781
vn -0.5571289 0 -0.8305664
vn 0.7602539 0 -0.64941406
vn 0.5126953 0.7685547 0.38256836
vn -0.6191406 0.6904297 0.37451172
vn -0.6191406 0.6904297 -0.37451172
vn 0.5126953 0.7685547 -0.38256836
vn 0.10229492 0.1126709 0.98828125
vn 0.5126953 0.7685547 0.38256836
vn 0.5126953 0.7685547 -0.38256836
vn 0.46313477 0.8598633 -0.21496582
vn 0.46313477 0.8598633 -0.21496582
vn 0.5126953 0.7685547 -0.38256836
vn -0.6191406 0.6904297 -0.37451172
vn -0.99853516 0.026748657 -0.051818848
vn -0.99853516 0.026748657 -0.051818848
vn -0.6191406 0.6904297 -0.37451172
vn -0.6191406 0.6904297 0.37451172
vn -0.828125 0 0.56103516
vn -0.7207031 0 0.6933594
vn -0.5571289 0 -0.8305664
vn -0.5566406 0.02911377 -0.8300781
vn -0.6591797 0.044708252 0.7504883
vn -0.6616211 0.029144287 0.74902344
vn -0.6616211 0.029144287 -0.74902344
vn -0.6591797 0.044708252 -0.7504883
vn 1 0.014709473 0
vn 0.9995117 0.034942627 0
vn -0.6591797 0.044708252 -0.7504883
vn -0.6616211 0.029144287 -0.74902344
vn -0.6616211 0.029144287 0.74902344
vn -0.6591797 0.044708252 0.7504883
vn 0.9995117 0.034942627 0
vn 1 0.014709473 0
vn -0.66064453 0.034606934 0.75
vn -0.66064453 0 0.7504883
vn -0.66064453 0 -0.7504883
vn -0.66064453 0.034606934 -0.75
vn 1 0 0
vn 0.99902344 0.044525146 0
vn -0.66064453 0.034606934 -0.75
vn -0.66064453 0 -0.7504883
vn -0.66064453 0 0.7504883
vn -0.66064453 0.034606934 0.75
vn 0.99902344 0.044525146 0
vn 1 0 0
g underBuildingI_geo_0
f 3/3/3 2/2/2 1/1/1
f 6/6/6 5/5/5 4/4/4
f 9/9/9 8/8/8 7/7/7
f 8/8/8 10/10/10 7/7/7
f 11/11/11 10/10/10 8/8/8
f 12/12/12 11/11/11 8/8/8
f 13/13/13 11/11/11 12/12/12
f 14/14/14 13/13/13 12/12/12
f 15/15/15 13/13/13 14/14/14
f 16/16/16 15/15/15 14/14/14
f 19/19/19 18/18/18 17/17/17
f 20/20/20 19/19/19 17/17/17
f 20/20/20 21/21/21 19/19/19
f 21/21/21 22/22/22 19/19/19
f 25/25/25 24/24/24 23/23/23
f 26/26/26 25/25/25 23/23/23
f 29/29/29 28/28/28 27/27/27
f 30/30/30 29/29/29 27/27/27
f 33/33/33 32/32/32 31/31/31
f 34/34/34 33/33/33 31/31/31
f 34/34/34 31/31/31 35/35/35
f 36/36/36 34/34/34 35/35/35
f 39/39/39 38/38/38 37/37/37
f 40/40/40 39/39/39 37/37/37
f 40/40/40 37/37/37 41/41/41
f 42/42/42 40/40/40 41/41/41
f 45/45/45 44/44/44 43/43/43
f 44/44/44 46/46/46 43/43/43
f 43/43/43 46/46/46 47/47/47
f 46/46/46 48/48/48 47/47/47
f 47/47/47 48/48/48 49/49/49
f 48/48/48 50/50/50 49/49/49
f 49/49/49 50/50/50 51/51/51
f 52/52/52 49/49/49 51/51/51
f 51/51/51 53/53/53 52/52/52
f 53/53/53 54/54/54 52/52/52
f 53/53/53 55/55/55 54/54/54
f 58/58/58 57/57/57 56/56/56
f 59/59/59 58/58/58 56/56/56
f 62/62/62 61/61/61 60/60/60
f 63/63/63 62/62/62 60/60/60
f 63/63/63 60/60/60 64/64/64
f 60/60/60 65/65/65 64/64/64
f 65/65/65 66/66/66 64/64/64
f 66/66/66 67/67/67 64/64/64
f 66/66/66 68/68/68 67/67/67
f 71/71/71 70/70/70 69/69/69
f 72/72/72 71/71/71 69/69/69
f 75/75/75 74/74/74 73/73/73
f 76/76/76 75/75/75 73/73/73
f 76/76/76 73/73/73 77/77/77
f 78/78/78 76/76/76 77/77/77
f 81/81/81 80/80/80 79/79/79
f 80/80/80 82/82/82 79/79/79
f 80/80/80 83/83/83 82/82/82
f 83/83/83 84/84/84 82/82/82
f 83/83/83 85/85/85 84/84/84
f 85/85/85 86/86/86 84/84/84
f 89/89/89 88/88/88 87/87/87
f 90/90/90 89/89/89 87/87/87
f 93/93/93 92/92/92 91/91/91
f 94/94/94 93/93/93 91/91/91
f 97/97/97 96/96/96 95/95/95
f 98/98/98 97/97/97 95/95/95
f 97/97/97 98/98/98 99/99/99
f 98/98/98 100/100/100 99/99/99
f 103/103/103 102/102/102 101/101/101
f 104/104/104 103/103/103 101/101/101
f 101/101/101 105/105/105 104/104/104
f 101/101/101 106/106/106 105/105/105
f 106/106/106 107/107/107 105/105/105
f 110/110/110 109/109/109 108/108/108
f 111/111/111 110/110/110 108/108/108
f 114/114/114 113/113/113 112/112/112
f 115/115/115 114/114/114 112/112/112
f 118/118/118 117/117/117 116/116/116
f 119/119/119 118/118/118 116/116/116
f 122/122/122 121/121/121 120/120/120
f 123/123/123 122/122/122 120/120/120
f 126/126/126 125/125/125 124/124/124
f 127/127/127 126/126/126 124/124/124
f 124/124/124 128/128/128 127/127/127
f 128/128/128 124/124/124 129/129/129
f 124/124/124 130/130/130 129/129/129
f 133/133/133 132/132/132 131/131/131
f 134/134/134 133/133/133 131/131/131
f 137/137/137 136/136/136 135/135/135
f 138/138/138 137/137/137 135/135/135
f 141/141/141 140/140/140 139/139/139
f 142/142/142 141/141/141 139/139/139
f 145/145/145 144/144/144 143/143/143
f 146/146/146 145/145/145 143/143/143
f 149/149/149 148/148/148 147/147/147
f 150/150/150 149/149/149 147/147/147
f 153/153/153 152/152/152 151/151/151
f 154/154/154 153/153/153 151/151/151
