g underBuildingE_geo
v 0.8570446 35.730087 -2.552082E-06
v 0.3954055 35.730087 0.3574213
v 0.3954055 35.730087 -0.35741845
v 0.7134221 38.304226 -2.552082E-06
v 0.5390262 38.304226 0.135023
v 0.5390262 38.304226 -0.13502811
v -0.80245423 34.29032 -2.552082E-06
v -0.6216742 34.29032 -0.13996515
v -0.6216742 34.29032 0.13996802
v 0.3954055 35.730087 0.3574213
v 0.3954055 30.304506 0.3574213
v 0.3954055 30.304506 -0.35741845
v 0.3954055 35.730087 -0.35741845
v 0.8570446 30.304506 -2.552082E-06
v 0.8570446 35.730087 -2.552082E-06
v 0.3954055 35.730087 -0.35741845
v 0.3954055 30.304506 -0.35741845
v 0.3954055 30.304506 0.3574213
v 0.3954055 35.730087 0.3574213
v 0.8570446 35.730087 -2.552082E-06
v 0.8570446 30.304506 -2.552082E-06
v 0.5390262 38.304226 0.135023
v 0.5390262 35.730087 0.135023
v 0.5390262 35.730087 -0.13502811
v 0.5390262 38.304226 -0.13502811
v 0.7134221 35.730087 -2.552082E-06
v 0.7134221 38.304226 -2.552082E-06
v 0.5390262 38.304226 -0.13502811
v 0.5390262 35.730087 -0.13502811
v 0.5390262 35.730087 0.135023
v 0.5390262 38.304226 0.135023
v 0.7134221 38.304226 -2.552082E-06
v 0.7134221 35.730087 -2.552082E-06
v -0.6216742 34.29032 -0.13996515
v -0.5787008 30.067776 -0.20651129
v -0.5787008 30.067776 0.20650618
v -0.6216742 34.29032 0.13996802
v -0.8454259 30.067776 -2.552082E-06
v -0.80245423 34.29032 -2.552082E-06
v -0.6216742 34.29032 0.13996802
v -0.5787008 30.067776 0.20650618
v -0.5787008 30.067776 -0.20651129
v -0.6216742 34.29032 -0.13996515
v -0.80245423 34.29032 -2.552082E-06
v -0.8454259 30.067776 -2.552082E-06
v -4.2265506 -1.5512109E-07 4.226548
v 4.22655 24.595161 4.226548
v 4.22655 -1.5512109E-07 4.226548
v -4.2265506 24.595161 4.226548
v -3.651352E-07 31.932707 4.226548
v -4.2265506 24.595161 -4.2265534
v -4.2265506 -1.5512109E-07 -4.2265534
v 4.22655 -1.5512109E-07 -4.2265534
v 4.22655 24.595161 -4.2265534
v -3.651352E-07 31.932707 -4.2265534
v 4.22655 -1.5512109E-07 4.226548
v 4.22655 24.595161 -4.2265534
v 4.22655 -1.5512109E-07 -4.2265534
v 4.22655 24.595161 4.226548
v -3.651352E-07 31.932707 -4.2265534
v -3.651352E-07 31.932707 4.226548
v -4.2265506 -1.5512109E-07 -4.2265534
v -4.2265506 24.595161 4.226548
v -4.2265506 -1.5512109E-07 4.226548
v -4.2265506 24.595161 -4.2265534
v -3.651352E-07 31.932707 4.226548
v -3.651352E-07 31.932707 -4.2265534
v -0.6741442 32.996 0.06693503
v 0.626225 32.996 0.06693503
v 0.626225 32.996 -0.06694014
v -0.6741442 32.996 -0.06694014
v 0.626225 33.1704 -2.552082E-06
v -0.6741442 33.1704 -2.552082E-06
v -0.6741442 32.996 -0.06694014
v 0.626225 32.996 -0.06694014
v 0.626225 32.996 0.06693503
v -0.6741442 32.996 0.06693503
v -0.6741442 33.1704 -2.552082E-06
v 0.626225 33.1704 -2.552082E-06
vt 0.7260742 0.9951172
vt 0.7270508 0.9980469
vt 0.7290039 0.9951172
vt 0.7089844 0.99609375
vt 0.70947266 0.9975586
vt 0.7104492 0.99609375
vt 0.7182617 0.99658203
vt 0.71728516 0.99658203
vt 0.7182617 0.9975586
vt 0.7324219 0.9951172
vt 0.7324219 0.96875
vt 0.7290039 0.96875
vt 0.7290039 0.9951172
vt 0.7260742 0.96875
vt 0.7260742 0.9951172
vt 0.7290039 0.9951172
vt 0.7290039 0.96875
vt 0.7236328 0.96875
vt 0.7236328 0.9951172
vt 0.7260742 0.9951172
vt 0.7260742 0.96875
vt 0.7114258 0.99609375
vt 0.7114258 0.9838867
vt 0.7104492 0.9838867
vt 0.7104492 0.99609375
vt 0.7089844 0.9838867
vt 0.7089844 0.99609375
vt 0.7104492 0.99609375
vt 0.7104492 0.9838867
vt 0.7080078 0.9838867
vt 0.7080078 0.99609375
vt 0.7089844 0.99609375
vt 0.7089844 0.9838867
vt 0.71728516 0.99658203
vt 0.7167969 0.9760742
vt 0.71484375 0.9760742
vt 0.7158203 0.99658203
vt 0.71875 0.9760742
vt 0.7182617 0.99658203
vt 0.71972656 0.99658203
vt 0.72021484 0.9760742
vt 0.7167969 0.9760742
vt 0.71728516 0.99658203
vt 0.7182617 0.99658203
vt 0.71875 0.9760742
vt 0.734375 0.8417969
vt 0.7758789 0.9614258
vt 0.7758789 0.8417969
vt 0.734375 0.9614258
vt 0.7548828 0.9975586
vt 0.8203125 0.9614258
vt 0.8203125 0.8417969
vt 0.7792969 0.8417969
vt 0.7792969 0.9614258
vt 0.7998047 0.9975586
vt 0.8671875 0.8364258
vt 0.9082031 0.95654297
vt 0.9082031 0.8364258
vt 0.8671875 0.95654297
vt 0.9082031 0.9980469
vt 0.8671875 0.9980469
vt 0.8232422 0.8364258
vt 0.8647461 0.95654297
vt 0.8647461 0.8364258
vt 0.8232422 0.95654297
vt 0.8647461 0.9975586
vt 0.8232422 0.9975586
vt 0.73828125 0.99316406
vt 0.7446289 0.99316406
vt 0.7446289 0.9926758
vt 0.73828125 0.9926758
vt 0.7446289 0.9941406
vt 0.73828125 0.9941406
vt 0.73828125 0.9951172
vt 0.7446289 0.9951172
vt 0.7446289 0.99316406
vt 0.73828125 0.99316406
vt 0.73828125 0.9941406
vt 0.7446289 0.9941406
vn 0.9995117 0.03567505 0
vn -0.6118164 0.030227661 0.79052734
vn -0.6118164 0.030227661 -0.79052734
vn 0.9995117 0.028411865 0
vn -0.6118164 0.02407837 0.79052734
vn -0.6118164 0.02407837 -0.79052734
vn -0.9995117 0.024597168 2.3841858E-07
vn 0.61083984 0.030853271 -0.7910156
vn 0.61083984 0.030853271 0.7910156
vn -0.6118164 0.030227661 0.79052734
vn -0.6123047 0 0.79052734
vn -0.6123047 0 -0.79052734
vn -0.6118164 0.030227661 -0.79052734
vn 1 0 0
vn 0.9995117 0.03567505 0
vn -0.6118164 0.030227661 -0.79052734
vn -0.6123047 0 -0.79052734
vn -0.6123047 0 0.79052734
vn -0.6118164 0.030227661 0.79052734
vn 0.9995117 0.03567505 0
vn 1 0 0
vn -0.6118164 0.02407837 0.79052734
vn -0.6123047 0 0.79052734
vn -0.6123047 0 -0.79052734
vn -0.6118164 0.02407837 -0.79052734
vn 1 0 0
vn 0.9995117 0.028411865 0
vn -0.6118164 0.02407837 -0.79052734
vn -0.6123047 0 -0.79052734
vn -0.6123047 0 0.79052734
vn -0.6118164 0.02407837 0.79052734
vn 0.9995117 0.028411865 0
vn 1 0 0
vn 0.61083984 0.030853271 -0.7910156
vn 0.61328125 0.018692017 -0.79003906
vn 0.61279297 0.018692017 0.79003906
vn 0.61083984 0.030853271 0.7910156
vn -1 0.010177612 2.3841858E-07
vn -0.9995117 0.024597168 2.3841858E-07
vn 0.61083984 0.030853271 0.7910156
vn 0.61279297 0.018692017 0.79003906
vn 0.61328125 0.018692017 -0.79003906
vn 0.61083984 0.030853271 -0.7910156
vn -0.9995117 0.024597168 2.3841858E-07
vn -1 0.010177612 2.3841858E-07
vn -0.70703125 0 0.70703125
vn 0.75927734 0.10046387 0.6430664
vn 0.70703125 0 0.70703125
vn -0.75927734 0.10046387 0.6430664
vn -0 0.9609375 0.27734375
vn -0.75927734 0.10046387 -0.6430664
vn -0.70703125 0 -0.70703125
vn 0.70703125 0 -0.70703125
vn 0.75927734 0.10046387 -0.6430664
vn -0 0.9609375 -0.27734375
vn 0.70703125 0 0.70703125
vn 0.75927734 0.10046387 -0.6430664
vn 0.70703125 0 -0.70703125
vn 0.75927734 0.10046387 0.6430664
vn -0 0.9609375 -0.27734375
vn -0 0.9609375 0.27734375
vn -0.70703125 0 -0.70703125
vn -0.75927734 0.10046387 0.6430664
vn -0.70703125 0 0.70703125
vn -0.75927734 0.10046387 -0.6430664
vn -0 0.9609375 0.27734375
vn -0 0.9609375 -0.27734375
vn -0 -0.35839844 0.93359375
vn -0 -0.35839844 0.93359375
vn -0 -0.35839844 -0.93359375
vn -0 -0.35839844 -0.93359375
vn -0 1 0
vn -0 1 0
vn -0 -0.35839844 -0.93359375
vn -0 -0.35839844 -0.93359375
vn -0 -0.35839844 0.93359375
vn -0 -0.35839844 0.93359375
vn -0 1 0
vn -0 1 0
g underBuildingE_geo_0
f 3/3/3 2/2/2 1/1/1
f 6/6/6 5/5/5 4/4/4
f 9/9/9 8/8/8 7/7/7
f 12/12/12 11/11/11 10/10/10
f 13/13/13 12/12/12 10/10/10
f 16/16/16 15/15/15 14/14/14
f 17/17/17 16/16/16 14/14/14
f 20/20/20 19/19/19 18/18/18
f 21/21/21 20/20/20 18/18/18
f 24/24/24 23/23/23 22/22/22
f 25/25/25 24/24/24 22/22/22
f 28/28/28 27/27/27 26/26/26
f 29/29/29 28/28/28 26/26/26
f 32/32/32 31/31/31 30/30/30
f 33/33/33 32/32/32 30/30/30
f 36/36/36 35/35/35 34/34/34
f 37/37/37 36/36/36 34/34/34
f 40/40/40 39/39/39 38/38/38
f 41/41/41 40/40/40 38/38/38
f 44/44/44 43/43/43 42/42/42
f 45/45/45 44/44/44 42/42/42
f 48/48/48 47/47/47 46/46/46
f 47/47/47 49/49/49 46/46/46
f 47/47/47 50/50/50 49/49/49
f 53/53/53 52/52/52 51/51/51
f 54/54/54 53/53/53 51/51/51
f 51/51/51 55/55/55 54/54/54
f 58/58/58 57/57/57 56/56/56
f 57/57/57 59/59/59 56/56/56
f 57/57/57 60/60/60 59/59/59
f 60/60/60 61/61/61 59/59/59
f 64/64/64 63/63/63 62/62/62
f 63/63/63 65/65/65 62/62/62
f 63/63/63 66/66/66 65/65/65
f 66/66/66 67/67/67 65/65/65
f 70/70/70 69/69/69 68/68/68
f 71/71/71 70/70/70 68/68/68
f 74/74/74 73/73/73 72/72/72
f 75/75/75 74/74/74 72/72/72
f 78/78/78 77/77/77 76/76/76
f 79/79/79 78/78/78 76/76/76
