g underBuildingH_geo
v 9.827517E-06 22.008554 0.089239575
v -0.06433839 22.008554 -0.0394589
v 0.064358056 22.008554 -0.0394589
v 0.11383624 20.231165 -0.0889491
v 0.064358056 22.008554 -0.0394589
v -0.06433839 22.008554 -0.0394589
v -0.11383058 20.231165 -0.0889491
v -0.11383058 20.231165 -0.0889491
v -0.06433839 22.008554 -0.0394589
v 9.827517E-06 22.008554 0.089239575
v 9.827517E-06 20.231165 0.13872977
v 0.11383624 20.231165 -0.0889491
v 9.827517E-06 20.231165 0.13872977
v 9.827517E-06 22.008554 0.089239575
v 0.064358056 22.008554 -0.0394589
v -4.349007 6.36161E-06 4.349007
v -4.349007 18.816616 4.349007
v 4.3489985 18.816616 4.349007
v 4.3489985 6.36161E-06 4.349007
v -4.349007 18.816616 -4.3490047
v -4.349007 6.36161E-06 -4.3490047
v 4.3489985 6.36161E-06 -4.3490047
v 4.3489985 18.816616 -4.3490047
v 4.3489985 6.36161E-06 4.349007
v 4.3489985 18.816616 4.349007
v 4.3489985 18.816616 -4.3490047
v 4.3489985 6.36161E-06 -4.3490047
v -4.349007 6.36161E-06 -4.3490047
v -4.349007 18.816616 -4.3490047
v -4.349007 18.816616 4.349007
v -4.349007 6.36161E-06 4.349007
v -2.4621632 20.231165 -2.552082E-06
v -2.2563608 19.61372 2.2563589
v -3.1224458 19.61372 -2.552082E-06
v -2.2563608 19.61372 -2.256356
v -1.7792187 20.231165 -1.7792289
v 9.827517E-06 19.61372 -3.1224465
v 9.827517E-06 20.231165 -2.46217
v 1.7792244 20.231165 -1.7792289
v 2.462169 20.231165 -2.552082E-06
v 2.2563665 19.61372 -2.256356
v 3.1224518 19.61372 -2.552082E-06
v 2.2563665 19.61372 2.2563589
v 9.827517E-06 20.231165 -2.552082E-06
v -1.7792187 20.231165 1.7792239
v 9.827517E-06 20.231165 2.4621646
v 9.827517E-06 19.61372 3.1224492
v 1.7792244 20.231165 1.7792239
v 4.3489985 18.816616 -4.3490047
v -3.359695 19.61372 -3.3596957
v -4.349007 18.816616 -4.3490047
v 3.359701 19.61372 -3.3596957
v 4.3489985 18.816616 4.349007
v -3.359695 19.61372 3.3596988
v -4.349007 18.816616 4.349007
v 3.359701 19.61372 3.3596988
vt 0.5371094 0.7988281
vt 0.5371094 0.79833984
vt 0.5366211 0.79833984
vt 0.5361328 0.7895508
vt 0.5366211 0.79833984
vt 0.5371094 0.79833984
vt 0.53759766 0.7895508
vt 0.53759766 0.7895508
vt 0.5371094 0.79833984
vt 0.53808594 0.79833984
vt 0.5385742 0.7895508
vt 0.5361328 0.7895508
vt 0.53515625 0.7895508
vt 0.53564453 0.79833984
vt 0.5366211 0.79833984
vt 0.4958496 0.64990234
vt 0.49560547 0.7421875
vt 0.5385742 0.7421875
vt 0.5385742 0.6503906
vt 0.62353516 0.7421875
vt 0.62353516 0.6503906
vt 0.5810547 0.6503906
vt 0.5810547 0.7421875
vt 0.5385742 0.6503906
vt 0.5385742 0.7421875
vt 0.5810547 0.7421875
vt 0.5810547 0.6503906
vt 0.45336914 0.64990234
vt 0.453125 0.7416992
vt 0.49560547 0.7421875
vt 0.4958496 0.64990234
vt 0.46240234 0.7631836
vt 0.46264648 0.75146484
vt 0.4580078 0.7631836
vt 0.46264648 0.77490234
vt 0.4658203 0.77197266
vt 0.47436523 0.77978516
vt 0.47436523 0.77490234
vt 0.48291016 0.77197266
vt 0.48632812 0.7631836
vt 0.48608398 0.77490234
vt 0.49072266 0.7631836
vt 0.48608398 0.75146484
vt 0.47436523 0.7631836
vt 0.4658203 0.75439453
vt 0.47436523 0.75146484
vt 0.47436523 0.74658203
vt 0.48291016 0.75439453
vt 0.5395508 0.7866211
vt 0.50097656 0.7807617
vt 0.4951172 0.7866211
vt 0.5332031 0.7807617
vt 0.5385742 0.7421875
vt 0.50146484 0.7475586
vt 0.49560547 0.7421875
vt 0.5332031 0.7480469
vn -0 0.042999268 0.99902344
vn -0.8955078 0.053375244 -0.4423828
vn 0.89501953 0.053344727 -0.4423828
vn 0.89160156 0.037384033 -0.45141602
vn 0.89501953 0.053344727 -0.4423828
vn -0.8955078 0.053375244 -0.4423828
vn -0.89160156 0.037384033 -0.45117188
vn -0.89160156 0.037384033 -0.45117188
vn -0.8955078 0.053375244 -0.4423828
vn -0 0.042999268 0.99902344
vn -5.9604645E-07 0.027832031 0.9995117
vn 0.89160156 0.037384033 -0.45141602
vn -5.9604645E-07 0.027832031 0.9995117
vn -0 0.042999268 0.99902344
vn 0.89501953 0.053344727 -0.4423828
vn -0.70703125 0 0.70703125
vn -0.70654297 0.03729248 0.70654297
vn 0.70654297 0.03729248 0.70654297
vn 0.70703125 0 0.70703125
vn -0.70654297 0.03729248 -0.70654297
vn -0.70703125 0 -0.70703125
vn 0.70703125 0 -0.70703125
vn 0.70654297 0.03729248 -0.70654297
vn 0.70703125 0 0.70703125
vn 0.70654297 0.03729248 0.70654297
vn 0.70654297 0.03729248 -0.70654297
vn 0.70703125 0 -0.70703125
vn -0.70703125 0 -0.70703125
vn -0.70654297 0.03729248 -0.70654297
vn -0.70654297 0.03729248 0.70654297
vn -0.70703125 0 0.70703125
vn -0.28393555 0.9589844 0
vn -0.47729492 0.73779297 0.47729492
vn -0.68310547 0.73046875 0
vn -0.47729492 0.73779297 -0.47729492
vn -0.20507812 0.95703125 -0.20507812
vn -1.7881393E-07 0.73046875 -0.68310547
vn -0 0.9589844 -0.28393555
vn 0.20507812 0.95703125 -0.20507812
vn 0.28393555 0.9589844 0
vn 0.47729492 0.73779297 -0.47729492
vn 0.68310547 0.73046875 0
vn 0.47729492 0.73779297 0.47729492
vn -0 1 0
vn -0.20507812 0.95703125 0.20507812
vn -0 0.9589844 0.28393555
vn -1.7881393E-07 0.73046875 0.68310547
vn 0.20507812 0.95703125 0.20507812
vn 0.70654297 0.03729248 -0.70654297
vn -0.12854004 0.98339844 -0.12854004
vn -0.70654297 0.03729248 -0.70654297
vn 0.12854004 0.98339844 -0.12854004
vn 0.70654297 0.03729248 0.70654297
vn -0.12854004 0.98339844 0.12854004
vn -0.70654297 0.03729248 0.70654297
vn 0.12854004 0.98339844 0.12854004
g underBuildingH_geo_0
f 3/3/3 2/2/2 1/1/1
f 6/6/6 5/5/5 4/4/4
f 7/7/7 6/6/6 4/4/4
f 10/10/10 9/9/9 8/8/8
f 11/11/11 10/10/10 8/8/8
f 14/14/14 13/13/13 12/12/12
f 15/15/15 14/14/14 12/12/12
f 18/18/18 17/17/17 16/16/16
f 19/19/19 18/18/18 16/16/16
f 22/22/22 21/21/21 20/20/20
f 23/23/23 22/22/22 20/20/20
f 26/26/26 25/25/25 24/24/24
f 27/27/27 26/26/26 24/24/24
f 30/30/30 29/29/29 28/28/28
f 31/31/31 30/30/30 28/28/28
f 34/34/34 33/33/33 32/32/32
f 34/34/34 32/32/32 35/35/35
f 32/32/32 36/36/36 35/35/35
f 37/37/37 35/35/35 36/36/36
f 38/38/38 37/37/37 36/36/36
f 38/38/38 36/36/36 32/32/32
f 38/38/38 39/39/39 37/37/37
f 40/40/40 39/39/39 38/38/38
f 39/39/39 41/41/41 37/37/37
f 41/41/41 39/39/39 40/40/40
f 42/42/42 41/41/41 40/40/40
f 42/42/42 40/40/40 43/43/43
f 44/44/44 38/38/38 32/32/32
f 44/44/44 40/40/40 38/38/38
f 33/33/33 45/45/45 32/32/32
f 44/44/44 32/32/32 45/45/45
f 46/46/46 45/45/45 33/33/33
f 46/46/46 44/44/44 45/45/45
f 44/44/44 46/46/46 40/40/40
f 47/47/47 46/46/46 33/33/33
f 47/47/47 43/43/43 46/46/46
f 40/40/40 48/48/48 43/43/43
f 43/43/43 48/48/48 46/46/46
f 46/46/46 48/48/48 40/40/40
f 51/51/51 50/50/50 49/49/49
f 50/50/50 52/52/52 49/49/49
f 49/49/49 52/52/52 53/53/53
f 54/54/54 50/50/50 51/51/51
f 52/52/52 50/50/50 54/54/54
f 55/55/55 54/54/54 51/51/51
f 53/53/53 56/56/56 55/55/55
f 52/52/52 56/56/56 53/53/53
f 56/56/56 52/52/52 54/54/54
f 56/56/56 54/54/54 55/55/55
