g underBuildingB_geo
v 0.917805 37.386112 0.08319211
v 0.8346139 37.386112 -0.08318922
v 1.0009961 37.386112 -0.08318922
v -1.0375139 37.94036 -0.4909341
v -1.1207049 37.94036 -0.65731543
v -0.9543227 37.94036 -0.65731543
v -1.0375139 38.68796 -0.5356151
v -1.0760249 38.68796 -0.6126345
v -0.9990028 38.68796 -0.6126345
v 0.8346139 37.386112 -0.08318922
v 0.8346139 35.90287 -0.08318922
v 1.0009961 35.90287 -0.08318922
v 1.0009961 37.386112 -0.08318922
v 0.917805 35.90287 0.08319211
v 0.917805 37.386112 0.08319211
v 1.0009961 37.386112 -0.08318922
v 1.0009961 35.90287 -0.08318922
v 0.8346139 35.90287 -0.08318922
v 0.8346139 37.386112 -0.08318922
v 0.917805 37.386112 0.08319211
v 0.917805 35.90287 0.08319211
v -1.1207049 37.94036 -0.65731543
v -1.1207049 35.90287 -0.65731543
v -0.9543227 35.90287 -0.65731543
v -0.9543227 37.94036 -0.65731543
v -1.0375139 35.90287 -0.4909341
v -1.0375139 37.94036 -0.4909341
v -0.9543227 37.94036 -0.65731543
v -0.9543227 35.90287 -0.65731543
v -1.1207049 35.90287 -0.65731543
v -1.1207049 37.94036 -0.65731543
v -1.0375139 37.94036 -0.4909341
v -1.0375139 35.90287 -0.4909341
v -5.6790214 28 -5.6790166
v -5.6790214 -1.5512109E-07 -5.6790166
v 3.4309583E-06 -1.5512109E-07 -6.8127856
v 3.4309583E-06 28 -6.8127856
v -4.4152503 31.951435 -4.415247
v 5.679014 28 -5.6790166
v 5.679014 -1.5512109E-07 -5.6790166
v 4.4152575 31.951435 -4.415247
v 3.4309583E-06 31.951435 -5.2967234
v -2.2769446 35.90287 -2.276935
v 3.4309583E-06 35.90287 -2.73151
v 2.2769372 35.90287 -2.276935
v -2.5056186 35.902874 -2.552082E-06
v -2.2769446 35.902878 2.276938
v -4.4152503 31.951437 4.41525
v -4.8586936 31.951435 -2.552082E-06
v -4.4152503 31.951435 -4.415247
v -2.2769446 35.90287 -2.276935
v -5.6790214 28 -5.6790166
v -6.2493844 28 -2.552082E-06
v -5.6790214 28 5.679019
v -5.6790214 -1.5512109E-07 -5.6790166
v -5.6790214 -1.5512109E-07 5.679019
v -6.2493844 -1.5512109E-07 -2.552082E-06
v 4.4152575 31.951435 4.41525
v 2.2769372 35.90287 2.276938
v 2.5056257 35.90287 -2.552082E-06
v 4.8587008 31.951435 -2.552082E-06
v 5.679014 28 5.679019
v 4.4152575 31.951435 -4.415247
v 2.2769372 35.90287 -2.276935
v 6.2493916 28 -2.552082E-06
v 5.679014 -1.5512109E-07 5.679019
v 5.679014 28 -5.6790166
v 6.2493916 -1.5512109E-07 -2.552082E-06
v 5.679014 -1.5512109E-07 -5.6790166
v -4.4152503 31.951437 4.41525
v -2.2769446 35.902878 2.276938
v 3.4309583E-06 35.902878 2.7315128
v 3.4309583E-06 31.951437 5.2967186
v -5.6790214 28 5.679019
v 4.4152575 31.951435 4.41525
v 2.2769372 35.90287 2.276938
v 3.4309583E-06 28 6.812788
v -5.6790214 -1.5512109E-07 5.679019
v 5.679014 28 5.679019
v 3.4309583E-06 -1.5512109E-07 6.812788
v 5.679014 -1.5512109E-07 5.679019
v 2.5056257 35.90287 -2.552082E-06
v 2.2769372 35.90287 2.276938
v 3.4309583E-06 35.902878 2.7315128
v 3.4309583E-06 35.902874 -2.552082E-06
v -2.2769446 35.902878 2.276938
v -2.5056186 35.902874 -2.552082E-06
v 3.4309583E-06 35.90287 -2.73151
v 2.2769372 35.90287 -2.276935
v -2.2769446 35.90287 -2.276935
v -0.20803718 35.90287 0.013266732
v -0.20803718 36.32914 0.013266732
v 0.54126996 36.32914 0.013266732
v 0.54126996 35.90287 0.013266732
v -0.20803718 36.32914 0.013266732
v -0.20803718 36.32914 -0.73602843
v 0.54126996 36.32914 -0.73602843
v 0.54126996 36.32914 0.013266732
v -0.20803718 36.32914 -0.73602843
v -0.20803718 35.90287 -0.73602843
v 0.54126996 35.90287 -0.73602843
v 0.54126996 36.32914 -0.73602843
v 0.54126996 35.90287 0.013266732
v 0.54126996 36.32914 0.013266732
v 0.54126996 36.32914 -0.73602843
v 0.54126996 35.90287 -0.73602843
v -0.20803718 35.90287 -0.73602843
v -0.20803718 36.32914 -0.73602843
v -0.20803718 36.32914 0.013266732
v -0.20803718 35.90287 0.013266732
v -1.0760249 38.68796 -0.6126345
v -1.0760249 37.94036 -0.6126345
v -0.9990028 37.94036 -0.6126345
v -0.9990028 38.68796 -0.6126345
v -1.0375139 37.94036 -0.5356151
v -1.0375139 38.68796 -0.5356151
v -0.9990028 38.68796 -0.6126345
v -0.9990028 37.94036 -0.6126345
v -1.0760249 37.94036 -0.6126345
v -1.0760249 38.68796 -0.6126345
v -1.0375139 38.68796 -0.5356151
v -1.0375139 37.94036 -0.5356151
vt 0.025527954 0.9980469
vt 0.025939941 0.9970703
vt 0.025115967 0.9970703
vt 0.021087646 0.9975586
vt 0.021484375 0.9970703
vt 0.02067566 0.9970703
vt 0.029006958 0.9980469
vt 0.029205322 0.9975586
vt 0.028823853 0.9975586
vt 0.025939941 0.9970703
vt 0.025924683 0.9897461
vt 0.025115967 0.9897461
vt 0.025115967 0.9970703
vt 0.024215698 0.9897461
vt 0.024215698 0.9970703
vt 0.025115967 0.9970703
vt 0.025115967 0.9897461
vt 0.025924683 0.9897461
vt 0.025939941 0.9970703
vt 0.02684021 0.9970703
vt 0.02684021 0.9897461
vt 0.021484375 0.9970703
vt 0.021484375 0.9868164
vt 0.02067566 0.9868164
vt 0.02067566 0.9970703
vt 0.019760132 0.9868164
vt 0.01977539 0.9970703
vt 0.02067566 0.9970703
vt 0.02067566 0.9868164
vt 0.021484375 0.9868164
vt 0.021484375 0.9970703
vt 0.022399902 0.9970703
vt 0.022384644 0.9868164
vt 0.34545898 0.94091797
vt 0.34545898 0.8154297
vt 0.31958008 0.8154297
vt 0.31958008 0.94091797
vt 0.34545898 0.9614258
vt 0.29345703 0.94091797
vt 0.29345703 0.8154297
vt 0.29345703 0.9614258
vt 0.31958008 0.9614258
vt 0.34545898 0.9975586
vt 0.31958008 0.9975586
vt 0.29345703 0.9975586
vt 0.16430664 0.9975586
vt 0.1899414 0.9975586
vt 0.1899414 0.9614258
vt 0.16430664 0.9614258
vt 0.1385498 0.9614258
vt 0.1385498 0.9975586
vt 0.1385498 0.94091797
vt 0.16430664 0.94091797
vt 0.1899414 0.94091797
vt 0.1385498 0.8154297
vt 0.1899414 0.8154297
vt 0.16430664 0.8154297
vt 0.24206543 0.9614258
vt 0.24206543 0.9975586
vt 0.26782227 0.9975586
vt 0.26782227 0.9614258
vt 0.24206543 0.94091797
vt 0.29345703 0.9614258
vt 0.29345703 0.9975586
vt 0.26782227 0.94091797
vt 0.24206543 0.8154297
vt 0.29345703 0.94091797
vt 0.26782227 0.8154297
vt 0.29345703 0.8154297
vt 0.1899414 0.9614258
vt 0.1899414 0.9975586
vt 0.21606445 0.9975586
vt 0.21606445 0.9614258
vt 0.1899414 0.94091797
vt 0.24206543 0.9614258
vt 0.24206543 0.9975586
vt 0.21606445 0.94091797
vt 0.1899414 0.8154297
vt 0.24206543 0.94091797
vt 0.21606445 0.8154297
vt 0.24206543 0.8154297
vt 0.0736084 0.984375
vt 0.072509766 0.9736328
vt 0.061401367 0.9711914
vt 0.061401367 0.984375
vt 0.05029297 0.9736328
vt 0.04916382 0.984375
vt 0.061401367 0.9980469
vt 0.072509766 0.99560547
vt 0.05029297 0.99560547
vt 0.006046295 0.9916992
vt 0.006046295 0.99365234
vt 0.00970459 0.99365234
vt 0.00970459 0.9916992
vt 0.006046295 0.99365234
vt 0.006046295 0.9975586
vt 0.00969696 0.9975586
vt 0.00970459 0.99365234
vt 0.01701355 0.99365234
vt 0.01701355 0.9916992
vt 0.01335144 0.9916992
vt 0.01335144 0.99365234
vt 0.00970459 0.9916992
vt 0.00970459 0.99365234
vt 0.01335144 0.99365234
vt 0.01335144 0.9916992
vt 0.0023956299 0.9916992
vt 0.0023937225 0.99365234
vt 0.006046295 0.99365234
vt 0.006046295 0.9916992
vt 0.029205322 0.9975586
vt 0.029205322 0.99365234
vt 0.028823853 0.99365234
vt 0.028823853 0.9975586
vt 0.028411865 0.99365234
vt 0.028411865 0.9975586
vt 0.028823853 0.9975586
vt 0.028823853 0.99365234
vt 0.029205322 0.99365234
vt 0.029205322 0.9975586
vt 0.02961731 0.9975586
vt 0.02961731 0.99365234
vn -0 0.033081055 0.9995117
vn -0.89404297 0.035339355 -0.44702148
vn 0.89404297 0.035339355 -0.44702148
vn -0 0.024093628 0.9995117
vn -0.89404297 0.025726318 -0.44702148
vn 0.89404297 0.025726318 -0.44702148
vn -0 0.030395508 0.9995117
vn -0.89404297 0.032470703 -0.44702148
vn 0.89404297 0.032470703 -0.44702148
vn -0.89404297 0.035339355 -0.44702148
vn -0.89453125 0 -0.44726562
vn 0.89453125 0 -0.44726562
vn 0.89404297 0.035339355 -0.44702148
vn -0 0 1
vn -0 0.033081055 0.9995117
vn 0.89404297 0.035339355 -0.44702148
vn 0.89453125 0 -0.44726562
vn -0.89453125 0 -0.44726562
vn -0.89404297 0.035339355 -0.44702148
vn -0 0.033081055 0.9995117
vn -0 0 1
vn -0.89404297 0.025726318 -0.44702148
vn -0.89453125 0 -0.44726562
vn 0.89453125 0 -0.44726562
vn 0.89404297 0.025726318 -0.44702148
vn -0 0 1
vn -0 0.024093628 0.9995117
vn 0.89404297 0.025726318 -0.44702148
vn 0.89453125 0 -0.44726562
vn -0.89453125 0 -0.44726562
vn -0.89404297 0.025726318 -0.44702148
vn -0 0.024093628 0.9995117
vn -0 0 1
vn -0.73583984 0.043182373 -0.67578125
vn -0.7368164 0 -0.67578125
vn -0 0 -1
vn -0 0.041015625 -0.99902344
vn -0.6464844 0.47998047 -0.5932617
vn 0.73583984 0.043182373 -0.67578125
vn 0.7368164 0 -0.67578125
vn 0.6464844 0.47998047 -0.5932617
vn -0 0.4345703 -0.9008789
vn -0.5175781 0.71777344 -0.46557617
vn -0 0.7133789 -0.7006836
vn 0.5175781 0.71777344 -0.46557617
vn -0.7055664 0.7084961 -6.556511E-07
vn -0.5175781 0.71777344 0.46557617
vn -0.6464844 0.47998047 0.5932617
vn -0.91308594 0.40722656 -1.1920929E-07
vn -0.6464844 0.47998047 -0.5932617
vn -0.5175781 0.71777344 -0.46557617
vn -0.73583984 0.043182373 -0.67578125
vn -0.99902344 0.03845215 0
vn -0.73583984 0.043182373 0.67578125
vn -0.7368164 0 -0.67578125
vn -0.7368164 0 0.67578125
vn -1 0 0
vn 0.6464844 0.47998047 0.5932617
vn 0.5175781 0.71777344 0.46557617
vn 0.7055664 0.7084961 -2.9802322E-07
vn 0.91308594 0.40722656 0
vn 0.73583984 0.043182373 0.67578125
vn 0.6464844 0.47998047 -0.5932617
vn 0.5175781 0.71777344 -0.46557617
vn 0.99902344 0.03845215 0
vn 0.7368164 0 0.67578125
vn 0.73583984 0.043182373 -0.67578125
vn 1 0 0
vn 0.7368164 0 -0.67578125
vn -0.6464844 0.47998047 0.5932617
vn -0.5175781 0.71777344 0.46557617
vn 4.7683716E-07 0.7133789 0.7006836
vn 1.1920929E-07 0.4345703 0.9008789
vn -0.73583984 0.043182373 0.67578125
vn 0.6464844 0.47998047 0.5932617
vn 0.5175781 0.71777344 0.46557617
vn -0 0.041015625 0.99902344
vn -0.7368164 0 0.67578125
vn 0.73583984 0.043182373 0.67578125
vn -0 0 1
vn 0.7368164 0 0.67578125
vn 0.7055664 0.7084961 -2.9802322E-07
vn 0.5175781 0.71777344 0.46557617
vn 4.7683716E-07 0.7133789 0.7006836
vn 6.556511E-07 1 -1.3709068E-06
vn -0.5175781 0.71777344 0.46557617
vn -0.7055664 0.7084961 -6.556511E-07
vn -0 0.7133789 -0.7006836
vn 0.5175781 0.71777344 -0.46557617
vn -0.5175781 0.71777344 -0.46557617
vn -0.70703125 0 0.70703125
vn -0.44335938 0.7792969 0.44335938
vn 0.44335938 0.7792969 0.44335938
vn 0.70703125 0 0.70703125
vn -0.44335938 0.7792969 0.44335938
vn -0.44335938 0.7792969 -0.44335938
vn 0.44335938 0.7792969 -0.44335938
vn 0.44335938 0.7792969 0.44335938
vn -0.44335938 0.7792969 -0.44335938
vn -0.70703125 0 -0.70703125
vn 0.70703125 0 -0.70703125
vn 0.44335938 0.7792969 -0.44335938
vn 0.70703125 0 0.70703125
vn 0.44335938 0.7792969 0.44335938
vn 0.44335938 0.7792969 -0.44335938
vn 0.70703125 0 -0.70703125
vn -0.70703125 0 -0.70703125
vn -0.44335938 0.7792969 -0.44335938
vn -0.44335938 0.7792969 0.44335938
vn -0.70703125 0 0.70703125
vn -0.89404297 0.032470703 -0.44702148
vn -0.89453125 0 -0.44726562
vn 0.89453125 0 -0.44726562
vn 0.89404297 0.032470703 -0.44702148
vn -0 0 1
vn -0 0.030395508 0.9995117
vn 0.89404297 0.032470703 -0.44702148
vn 0.89453125 0 -0.44726562
vn -0.89453125 0 -0.44726562
vn -0.89404297 0.032470703 -0.44702148
vn -0 0.030395508 0.9995117
vn -0 0 1
g underBuildingB_geo_0
f 3/3/3 2/2/2 1/1/1
f 6/6/6 5/5/5 4/4/4
f 9/9/9 8/8/8 7/7/7
f 12/12/12 11/11/11 10/10/10
f 13/13/13 12/12/12 10/10/10
f 16/16/16 15/15/15 14/14/14
f 17/17/17 16/16/16 14/14/14
f 20/20/20 19/19/19 18/18/18
f 21/21/21 20/20/20 18/18/18
f 24/24/24 23/23/23 22/22/22
f 25/25/25 24/24/24 22/22/22
f 28/28/28 27/27/27 26/26/26
f 29/29/29 28/28/28 26/26/26
f 32/32/32 31/31/31 30/30/30
f 33/33/33 32/32/32 30/30/30
f 36/36/36 35/35/35 34/34/34
f 37/37/37 36/36/36 34/34/34
f 37/37/37 34/34/34 38/38/38
f 37/37/37 39/39/39 36/36/36
f 39/39/39 40/40/40 36/36/36
f 41/41/41 39/39/39 37/37/37
f 42/42/42 37/37/37 38/38/38
f 42/42/42 41/41/41 37/37/37
f 42/42/42 38/38/38 43/43/43
f 44/44/44 42/42/42 43/43/43
f 42/42/42 44/44/44 41/41/41
f 44/44/44 45/45/45 41/41/41
f 48/48/48 47/47/47 46/46/46
f 49/49/49 48/48/48 46/46/46
f 49/49/49 46/46/46 50/50/50
f 46/46/46 51/51/51 50/50/50
f 49/49/49 50/50/50 52/52/52
f 49/49/49 53/53/53 48/48/48
f 53/53/53 49/49/49 52/52/52
f 53/53/53 54/54/54 48/48/48
f 53/53/53 52/52/52 55/55/55
f 56/56/56 54/54/54 53/53/53
f 57/57/57 53/53/53 55/55/55
f 57/57/57 56/56/56 53/53/53
f 60/60/60 59/59/59 58/58/58
f 61/61/61 60/60/60 58/58/58
f 61/61/61 58/58/58 62/62/62
f 61/61/61 63/63/63 60/60/60
f 63/63/63 64/64/64 60/60/60
f 65/65/65 61/61/61 62/62/62
f 61/61/61 65/65/65 63/63/63
f 65/65/65 62/62/62 66/66/66
f 65/65/65 67/67/67 63/63/63
f 68/68/68 65/65/65 66/66/66
f 69/69/69 67/67/67 65/65/65
f 68/68/68 69/69/69 65/65/65
f 72/72/72 71/71/71 70/70/70
f 73/73/73 72/72/72 70/70/70
f 73/73/73 70/70/70 74/74/74
f 73/73/73 75/75/75 72/72/72
f 75/75/75 76/76/76 72/72/72
f 77/77/77 73/73/73 74/74/74
f 73/73/73 77/77/77 75/75/75
f 77/77/77 74/74/74 78/78/78
f 77/77/77 79/79/79 75/75/75
f 80/80/80 77/77/77 78/78/78
f 81/81/81 79/79/79 77/77/77
f 80/80/80 81/81/81 77/77/77
f 84/84/84 83/83/83 82/82/82
f 85/85/85 84/84/84 82/82/82
f 84/84/84 85/85/85 86/86/86
f 85/85/85 87/87/87 86/86/86
f 85/85/85 82/82/82 88/88/88
f 85/85/85 88/88/88 87/87/87
f 82/82/82 89/89/89 88/88/88
f 88/88/88 90/90/90 87/87/87
f 93/93/93 92/92/92 91/91/91
f 94/94/94 93/93/93 91/91/91
f 97/97/97 96/96/96 95/95/95
f 98/98/98 97/97/97 95/95/95
f 101/101/101 100/100/100 99/99/99
f 102/102/102 101/101/101 99/99/99
f 105/105/105 104/104/104 103/103/103
f 106/106/106 105/105/105 103/103/103
f 109/109/109 108/108/108 107/107/107
f 110/110/110 109/109/109 107/107/107
f 113/113/113 112/112/112 111/111/111
f 114/114/114 113/113/113 111/111/111
f 117/117/117 116/116/116 115/115/115
f 118/118/118 117/117/117 115/115/115
f 121/121/121 120/120/120 119/119/119
f 122/122/122 121/121/121 119/119/119
