g underBuildingBrokenA_geo
v -6.9444447 -1.5512109E-07 5.184152
v 5.4339166 23.663445 5.184152
v 5.4339166 -1.5512109E-07 5.184152
v -6.9444447 20.866594 5.184152
v -4.3231916 24.009455 5.184152
v -5.8780546 24.010777 4.275146
v -6.9444447 27.10192 5.184152
v 5.4339166 27.10192 5.184152
v -6.5230613 29.676474 5.184152
v -4.230739 33.79614 5.184152
v 0.3999266 37.122566 5.184152
v 5.4339166 38.511913 5.184152
v 5.4339166 23.663445 -5.184152
v 5.4339166 -1.5512109E-07 -5.184152
v 5.4339166 -1.5512109E-07 5.184152
v 5.4339166 23.663445 5.184152
v 5.4339166 27.10192 -5.184152
v 5.4339166 27.10192 5.184152
v 5.4339166 38.511913 5.184152
v 5.4339166 38.511913 -5.184152
v 0.3999266 37.122566 -5.184152
v 5.4339166 27.10192 -5.184152
v 5.4339166 38.511913 -5.184152
v -1.622776 31.989737 -5.184152
v -4.230739 33.79614 -3.4889827
v -6.5230613 29.676474 -5.184152
v -6.9444447 27.10192 -5.184152
v -6.9444447 24.009455 -5.184152
v 5.4339166 23.663445 -5.184152
v -1.668575 19.812586 -5.184152
v -5.043262 19.985876 -3.698943
v 5.4339166 -1.5512109E-07 -5.184152
v -6.9444447 16.69507 -5.184152
v -6.9444447 -1.5512109E-07 -5.184152
v -6.9444447 -1.5512109E-07 5.184152
v -6.9444447 -1.5512109E-07 -5.184152
v -6.9444447 16.69507 -5.184152
v -6.9444447 20.0742 -1.6694976E-08
v -5.043262 19.985876 -3.698943
v -6.9444447 20.866594 5.184152
v -6.9444447 24.009455 -5.184152
v -6.9444447 24.009455 -1.6694976E-08
v -5.8780546 24.010777 4.275146
v -6.9444447 27.10192 5.184152
v -6.9444447 27.10192 -5.184152
v -6.5230613 29.676474 -5.184152
v -6.5230613 29.676474 5.184152
v -4.230739 33.79614 -3.4889827
v -4.230739 33.79614 5.184152
v 0.3999266 37.122566 -5.184152
v 0.3999266 37.122566 5.184152
v 5.4339166 38.511913 -5.184152
v 5.4339166 38.511913 5.184152
vt 0.56152344 0.3786621
vt 0.62158203 0.49389648
vt 0.62158203 0.3786621
vt 0.56152344 0.48046875
vt 0.57373047 0.4958496
vt 0.5649414 0.49609375
vt 0.5620117 0.51171875
vt 0.6220703 0.5102539
vt 0.56396484 0.5239258
vt 0.5756836 0.5439453
vt 0.5986328 0.5595703
vt 0.6230469 0.56591797
vt 0.39697266 0.5
vt 0.39697266 0.38452148
vt 0.34643555 0.38452148
vt 0.34643555 0.5
vt 0.39697266 0.51660156
vt 0.34643555 0.51660156
vt 0.34643555 0.5722656
vt 0.39697266 0.5722656
vt 0.65283203 0.5620117
vt 0.63378906 0.51123047
vt 0.6279297 0.56591797
vt 0.66552734 0.53808594
vt 0.67871094 0.5498047
vt 0.6899414 0.5288086
vt 0.6933594 0.5161133
vt 0.69433594 0.50097656
vt 0.6352539 0.4946289
vt 0.67089844 0.4777832
vt 0.6894531 0.4794922
vt 0.63720703 0.38061523
vt 0.69677734 0.46142578
vt 0.69677734 0.38061523
vt 0.44873047 0.2548828
vt 0.39819336 0.2548828
vt 0.39868164 0.33666992
vt 0.42358398 0.35375977
vt 0.4025879 0.35473633
vt 0.4489746 0.35668945
vt 0.40063477 0.37719727
vt 0.42578125 0.37426758
vt 0.44750977 0.3725586
vt 0.45214844 0.38989258
vt 0.40185547 0.38989258
vt 0.40283203 0.4025879
vt 0.45336914 0.4025879
vt 0.4128418 0.42529297
vt 0.45507812 0.42529297
vt 0.40551758 0.45336914
vt 0.4560547 0.45336914
vt 0.4050293 0.47802734
vt 0.4555664 0.47802734
vn -0.43286133 0 0.9013672
vn 0.71533203 0 0.69873047
vn 0.66503906 0 0.7470703
vn -0.17456055 0.0053215027 0.9848633
vn -0.022628784 7.43866E-05 0.9995117
vn -0.89453125 -0.0004029274 0.44702148
vn -0.734375 0.049621582 0.6767578
vn 0.9243164 0 0.38134766
vn -0.8198242 0.32592773 0.47045898
vn -0.6489258 0.6035156 0.46289062
vn -0.3857422 0.80615234 0.44848633
vn 0.8754883 0.43969727 0.20056152
vn 0.93603516 0 -0.3515625
vn 0.85546875 0 -0.5180664
vn 0.66503906 0 0.7470703
vn 0.71533203 0 0.69873047
vn 0.9243164 0 -0.38110352
vn 0.9243164 0 0.38134766
vn 0.8754883 0.43969727 0.20056152
vn 0.8754883 0.43969727 -0.20056152
vn -0.39453125 0.83447266 -0.38427734
vn 0.9243164 0 -0.38110352
vn 0.8754883 0.43969727 -0.20056152
vn -0.078063965 0.06689453 -0.9946289
vn -0.7294922 0.67626953 -0.10095215
vn -0.8520508 0.34057617 -0.3972168
vn -0.67871094 0.058441162 -0.7319336
vn -0.5073242 -0.05505371 -0.8598633
vn 0.93603516 0 -0.3515625
vn -0.009010315 -0.00025486946 -1
vn -0.68896484 0.0016288757 -0.72509766
vn 0.85546875 0 -0.5180664
vn -0.67041016 0.012565613 -0.7416992
vn -0.6621094 0 -0.74902344
vn -0.43286133 0 0.9013672
vn -0.6621094 0 -0.74902344
vn -0.67041016 0.012565613 -0.7416992
vn -1 -0.0014743805 -0.017791748
vn -0.68896484 0.0016288757 -0.72509766
vn -0.17456055 0.0053215027 0.9848633
vn -0.5073242 -0.05505371 -0.8598633
vn -1 0.00019907951 0.020187378
vn -0.89453125 -0.0004029274 0.44702148
vn -0.734375 0.049621582 0.6767578
vn -0.67871094 0.058441162 -0.7319336
vn -0.8520508 0.34057617 -0.3972168
vn -0.8198242 0.32592773 0.47045898
vn -0.7294922 0.67626953 -0.10095215
vn -0.6489258 0.6035156 0.46289062
vn -0.39453125 0.83447266 -0.38427734
vn -0.3857422 0.80615234 0.44848633
vn 0.8754883 0.43969727 -0.20056152
vn 0.8754883 0.43969727 0.20056152
g underBuildingBrokenA_geo_0
f 3/3/3 2/2/2 1/1/1
f 2/2/2 4/4/4 1/1/1
f 2/2/2 5/5/5 4/4/4
f 5/5/5 6/6/6 4/4/4
f 5/5/5 7/7/7 6/6/6
f 2/2/2 8/8/8 5/5/5
f 8/8/8 7/7/7 5/5/5
f 8/8/8 9/9/9 7/7/7
f 8/8/8 10/10/10 9/9/9
f 8/8/8 11/11/11 10/10/10
f 8/8/8 12/12/12 11/11/11
f 15/15/15 14/14/14 13/13/13
f 16/16/16 15/15/15 13/13/13
f 16/16/16 13/13/13 17/17/17
f 18/18/18 16/16/16 17/17/17
f 18/18/18 17/17/17 19/19/19
f 17/17/17 20/20/20 19/19/19
f 23/23/23 22/22/22 21/21/21
f 21/21/21 22/22/22 24/24/24
f 21/21/21 24/24/24 25/25/25
f 25/25/25 24/24/24 26/26/26
f 24/24/24 22/22/22 26/26/26
f 26/26/26 22/22/22 27/27/27
f 28/28/28 27/27/27 22/22/22
f 29/29/29 28/28/28 22/22/22
f 29/29/29 30/30/30 28/28/28
f 30/30/30 31/31/31 28/28/28
f 30/30/30 29/29/29 32/32/32
f 30/30/30 33/33/33 31/31/31
f 30/30/30 32/32/32 34/34/34
f 33/33/33 30/30/30 34/34/34
f 37/37/37 36/36/36 35/35/35
f 38/38/38 37/37/37 35/35/35
f 38/38/38 39/39/39 37/37/37
f 38/38/38 35/35/35 40/40/40
f 38/38/38 41/41/41 39/39/39
f 42/42/42 38/38/38 40/40/40
f 38/38/38 42/42/42 41/41/41
f 42/42/42 40/40/40 43/43/43
f 42/42/42 43/43/43 44/44/44
f 42/42/42 44/44/44 41/41/41
f 44/44/44 45/45/45 41/41/41
f 46/46/46 45/45/45 44/44/44
f 47/47/47 46/46/46 44/44/44
f 48/48/48 46/46/46 47/47/47
f 49/49/49 48/48/48 47/47/47
f 50/50/50 48/48/48 49/49/49
f 51/51/51 50/50/50 49/49/49
f 52/52/52 50/50/50 51/51/51
f 53/53/53 52/52/52 51/51/51
