g wall_frontB_geo02
v 0.7384056 1.4547473 1.1832129
v -0.7384056 1.4547473 1.1832129
v -0.7384056 -1.4547473 1.1832129
v 0.7384056 -1.4547473 1.1832129
v -0.7384056 -1.4547473 -1.0365307
v -0.7384056 -1.4547473 -1.1832129
v 0.7384056 -1.4547473 -1.1832129
v 0.7384056 -1.4547473 -1.0365307
v -0.7384056 -1.4547473 1.1832129
v 0.7384056 -1.4547473 1.1832129
v -0.7384056 1.4547473 1.1832129
v -0.7384056 1.4547473 -1.0365307
v -0.7384056 -1.4547473 -1.0365307
v -0.7384056 -1.4547473 1.1832129
v 0.7384056 -1.4547473 1.1832129
v 0.7384056 -1.4547473 -1.0365307
v 0.7384056 1.4547473 -1.0365307
v 0.7384056 1.4547473 1.1832129
v 0.7384056 1.4547473 -1.0365307
v -0.7384056 1.4547473 -1.0365307
v -0.7384056 1.4547473 1.1832129
v 0.7384056 1.4547473 1.1832129
vt 0.80029297 0.14929199
vt 0.67822266 0.14929199
vt 0.67822266 0.31274414
vt 0.80029297 0.31274414
vt 0.67822266 0.3930664
vt 0.67822266 0.4309082
vt 0.80029297 0.4309082
vt 0.80029297 0.3930664
vt 0.67822266 0.31274414
vt 0.80029297 0.31274414
vt 0.67822266 0.14929199
vt 0.59814453 0.14929199
vt 0.59814453 0.31274414
vt 0.67822266 0.31274414
vt 0.80029297 0.31274414
vt 0.8808594 0.31274414
vt 0.8808594 0.14929199
vt 0.80029297 0.14929199
vt 0.80029297 0.06896973
vt 0.67822266 0.06896973
vt 0.67822266 0.14929199
vt 0.80029297 0.14929199
vn -0 0 -1
vn -0 0 -1
vn -0 0 -1
vn -0 0 -1
vn -0 1 0
vn -0 1 0
vn -0 1 0
vn -0 1 0
vn -0 1 0
vn -0 1 0
vn 1 0 0
vn 1 0 0
vn 1 0 0
vn 1 0 0
vn -1 0 0
vn -1 0 0
vn -1 0 0
vn -1 0 0
vn -0 -1 0
vn -0 -1 0
vn -0 -1 0
vn -0 -1 0
g wall_frontB_geo02_0
f 3/3/3 2/2/2 1/1/1
f 4/4/4 3/3/3 1/1/1
f 7/7/7 6/6/6 5/5/5
f 8/8/8 7/7/7 5/5/5
f 8/8/8 5/5/5 9/9/9
f 10/10/10 8/8/8 9/9/9
f 13/13/13 12/12/12 11/11/11
f 14/14/14 13/13/13 11/11/11
f 17/17/17 16/16/16 15/15/15
f 18/18/18 17/17/17 15/15/15
f 21/21/21 20/20/20 19/19/19
f 22/22/22 21/21/21 19/19/19
