g Weapon_m_sp_Mesh
v 0.6918884 1.4764845 -0.03319491
v 0.5956532 1.5359262 -0.017921057
v 0.5760916 1.4689511 -0.017921057
v 0.6280836 1.4257365 -0.028894296
v 0.7409616 1.3892889 -0.039782874
v 0.61479765 1.3556044 -0.03978287
v 0.71011657 1.2933189 -0.039782874
v 0.63975817 1.2286564 -0.039782874
v 0.50679326 1.3108199 -0.039782874
v 0.33917114 1.1958829 -0.039782893
v 0.47420424 1.1260949 -0.039782893
v 0.21754397 0.9663247 -0.037980255
v 0.3323928 0.9364538 -0.038280588
v 0.15577827 0.767963 -0.0343877
v 0.26280975 0.767963 -0.035274778
v -1.4877319E-06 0 -0.019999998
v -0.040168304 -1.6172965E-18 -0.019999998
v 0.26280975 0.767963 0.02426761
v -1.4877319E-06 0 0.013759183
v -0.040168304 -1.6172965E-18 0.013759183
v 0.15577827 0.767963 0.023657335
v 0.3323928 0.9364538 0.026335457
v 0.21754397 0.9663247 0.026128868
v 0.47420424 1.1260949 0.027368985
v 0.33917114 1.1958829 0.027368985
v 0.63975817 1.2286564 0.027368985
v 0.50679326 1.3108199 0.027368985
v 0.61479765 1.3556044 0.027368985
v 0.71011657 1.2933189 0.027368985
v 0.7409616 1.3892889 0.027368985
v 0.6280836 1.4257365 0.019409213
v 0.6918884 1.4764845 0.023832673
v 0.5760916 1.4689511 0.017920304
v 0.5956532 1.5359262 0.017920304
v 0.50679326 1.3108199 -0.039782874
v 0.50679326 1.3108199 0.027368985
v 0.33917114 1.1958829 0.027368985
v 0.33917114 1.1958829 -0.039782893
v 0.21754397 0.9663247 0.026128868
v 0.21754397 0.9663247 -0.037980255
v 0.15577827 0.767963 0.023657335
v 0.15577827 0.767963 -0.0343877
v -0.040168304 -1.6172965E-18 -0.019999998
v -0.040168304 -1.6172965E-18 0.013759183
v 0.47420424 1.1260949 -0.039782893
v 0.3323928 0.9364538 0.026335457
v 0.47420424 1.1260949 0.027368985
v 0.3323928 0.9364538 -0.038280588
v 0.26280975 0.767963 0.02426761
v 0.26280975 0.767963 -0.035274778
v -1.4877319E-06 0 -0.019999998
v -1.4877319E-06 0 0.013759183
v -1.4877319E-06 0 -0.019999998
v -0.040168304 -1.6172965E-18 -0.019999998
v -0.040168304 -1.6172965E-18 0.013759183
v -1.4877319E-06 0 0.013759183
v 0.61479765 1.3556044 0.027368985
v 0.50679326 1.3108199 0.027368985
v 0.50679326 1.3108199 -0.039782874
v 0.61479765 1.3556044 -0.03978287
v 0.6280836 1.4257365 0.019409213
v 0.6280836 1.4257365 -0.028894296
v 0.5760916 1.4689511 -0.017921057
v 0.5760916 1.4689511 0.017920304
v 0.5956532 1.5359262 -0.017921057
v 0.5956532 1.5359262 0.017920304
v 0.5760916 1.4689511 0.017920304
v 0.5760916 1.4689511 -0.017921057
v 0.6918884 1.4764845 -0.03319491
v 0.5956532 1.5359262 0.017920304
v 0.5956532 1.5359262 -0.017921057
v 0.6918884 1.4764845 0.023832673
v 0.7409616 1.3892889 0.027368985
v 0.7409616 1.3892889 -0.039782874
v 0.71011657 1.2933189 0.027368985
v 0.71011657 1.2933189 -0.039782874
v 0.63975817 1.2286564 0.027368985
v 0.63975817 1.2286564 -0.039782874
v 0.63975817 1.2286564 -0.039782874
v 0.47420424 1.1260949 -0.039782893
v 0.47420424 1.1260949 0.027368985
v 0.63975817 1.2286564 0.027368985
v 0.53397566 1.2558389 -0.048763096
v 0.53397566 1.2558389 0.048763096
v 0.50679326 1.2670983 0.048763096
v 0.50679326 1.2670983 -0.048763096
v 0.47961086 1.2558389 0.048763096
v 0.47961086 1.2558389 -0.048763096
v 0.46835154 1.2286564 0.048763096
v 0.46835154 1.2286565 -0.048763096
v 0.47961086 1.2014742 0.048763096
v 0.47961086 1.2014742 -0.048763096
v 0.50679326 1.1902149 0.048763096
v 0.50679326 1.1902149 -0.048763096
v 0.53397566 1.2014742 0.048763096
v 0.53397566 1.2014742 -0.048763096
v 0.5452349 1.2286564 0.048763096
v 0.5452349 1.2286565 -0.048763096
v 0.53397566 1.2558389 0.048763096
v 0.53397566 1.2558389 -0.048763096
v 0.32169804 1.4764845 0.03319491
v 0.41793332 1.5359262 0.01792207
v 0.4374949 1.4689511 0.01792207
v 0.38550287 1.4257365 0.028894296
v 0.27262488 1.3892889 0.039782874
v 0.39878884 1.3556044 0.03978287
v 0.3034699 1.2933189 0.039782874
v 0.37382835 1.2286564 0.039782874
v 0.50679326 1.3108199 0.039782874
v 0.67441535 1.1958829 0.039782893
v 0.5393822 1.1260949 0.039782893
v 0.79604244 0.9663247 0.037980255
v 0.6811937 0.9364538 0.038280588
v 0.85780823 0.767963 0.0343877
v 0.75077665 0.767963 0.035274778
v 1.013588 0 0.019999998
v 1.0537548 -1.6172965E-18 0.019999998
v 0.75077665 0.767963 -0.02426761
v 1.013588 0 -0.013759183
v 1.0537548 -1.6172965E-18 -0.013759183
v 0.85780823 0.767963 -0.023657335
v 0.6811937 0.9364538 -0.026335457
v 0.79604244 0.9663247 -0.026128868
v 0.5393822 1.1260949 -0.027368985
v 0.67441535 1.1958829 -0.027368985
v 0.37382835 1.2286564 -0.027368985
v 0.50679326 1.3108199 -0.027368985
v 0.39878884 1.3556044 -0.027368985
v 0.3034699 1.2933189 -0.027368985
v 0.27262488 1.3892889 -0.027368985
v 0.38550287 1.4257365 -0.019409213
v 0.32169804 1.4764845 -0.023832673
v 0.4374949 1.4689511 -0.017921316
v 0.41793332 1.5359262 -0.017921316
v 0.50679326 1.3108199 0.039782874
v 0.50679326 1.3108199 -0.027368985
v 0.67441535 1.1958829 -0.027368985
v 0.67441535 1.1958829 0.039782893
v 0.79604244 0.9663247 -0.026128868
v 0.79604244 0.9663247 0.037980255
v 0.85780823 0.767963 -0.023657335
v 0.85780823 0.767963 0.0343877
v 1.0537548 -1.6172965E-18 0.019999998
v 1.0537548 -1.6172965E-18 -0.013759183
v 0.5393822 1.1260949 0.039782893
v 0.6811937 0.9364538 -0.026335457
v 0.5393822 1.1260949 -0.027368985
v 0.6811937 0.9364538 0.038280588
v 0.75077665 0.767963 -0.02426761
v 0.75077665 0.767963 0.035274778
v 1.013588 0 0.019999998
v 1.013588 0 -0.013759183
v 1.013588 0 0.019999998
v 1.0537548 -1.6172965E-18 0.019999998
v 1.0537548 -1.6172965E-18 -0.013759183
v 1.013588 0 -0.013759183
v 0.39878884 1.3556044 -0.027368985
v 0.50679326 1.3108199 -0.027368985
v 0.50679326 1.3108199 0.039782874
v 0.39878884 1.3556044 0.03978287
v 0.38550287 1.4257365 -0.019409213
v 0.38550287 1.4257365 0.028894296
v 0.4374949 1.4689511 0.01792207
v 0.4374949 1.4689511 -0.017921316
v 0.41793332 1.5359262 0.01792207
v 0.41793332 1.5359262 -0.017921316
v 0.4374949 1.4689511 -0.017921316
v 0.4374949 1.4689511 0.01792207
v 0.32169804 1.4764845 0.03319491
v 0.41793332 1.5359262 -0.017921316
v 0.41793332 1.5359262 0.01792207
v 0.32169804 1.4764845 -0.023832673
v 0.27262488 1.3892889 -0.027368985
v 0.27262488 1.3892889 0.039782874
v 0.3034699 1.2933189 -0.027368985
v 0.3034699 1.2933189 0.039782874
v 0.37382835 1.2286564 -0.027368985
v 0.37382835 1.2286564 0.039782874
v 0.37382835 1.2286564 0.039782874
v 0.5393822 1.1260949 0.039782893
v 0.5393822 1.1260949 -0.027368985
v 0.37382835 1.2286564 -0.027368985
v 0.53397566 1.2014742 0.048763096
v 0.50679326 1.2286564 0.048763096
v 0.5452349 1.2286564 0.048763096
v 0.50679326 1.1902149 0.048763096
v 0.53397566 1.2558389 0.048763096
v 0.47961086 1.2014742 0.048763096
v 0.50679326 1.2670983 0.048763096
v 0.46835154 1.2286564 0.048763096
v 0.47961086 1.2558389 0.048763096
v 0.5452349 1.2286565 -0.048763096
v 0.50679326 1.2286565 -0.048763096
v 0.53397566 1.2014742 -0.048763096
v 0.53397566 1.2558389 -0.048763096
v 0.50679326 1.1902149 -0.048763096
v 0.50679326 1.2670983 -0.048763096
v 0.47961086 1.2014742 -0.048763096
v 0.47961086 1.2558389 -0.048763096
v 0.46835154 1.2286565 -0.048763096
vt 0.378214 0.025308967
vt 0.3498227 0.021491647
vt 0.3509639 0.039985478
vt 0.36736113 0.04460132
vt 0.3972135 0.04239142
vt 0.3709651 0.06255554
vt 0.399283 0.06840825
vt 0.3890083 0.08992696
vt 0.34963873 0.08369315
vt 0.32147098 0.12611783
vt 0.35951823 0.12972605
vt 0.31494734 0.19087636
vt 0.34458697 0.18734556
vt 0.31836337 0.24372828
vt 0.34372216 0.23350012
vt 0.35482925 0.43856812
vt 0.34577256 0.44222105
vt 0.40426922 0.27993327
vt 0.43656996 0.07712072
vt 0.42794064 0.072548866
vt 0.38010705 0.26713192
vt 0.4003459 0.32592887
vt 0.37123182 0.31934524
vt 0.40922502 0.38478553
vt 0.3710087 0.38443112
vt 0.43443146 0.4274267
vt 0.39462784 0.4295467
vt 0.41364864 0.45278072
vt 0.44242063 0.44989443
vt 0.43766582 0.47555673
vt 0.40820327 0.47026473
vt 0.41699824 0.490578
vt 0.39141595 0.47315633
vt 0.38836417 0.4914323
vt 0.48046875 0.4013672
vt 0.49023438 0.40128762
vt 0.49023438 0.3476491
vt 0.48046875 0.34765625
vt 0.49023438 0.27978516
vt 0.48046875 0.27978516
vt 0.49023438 0.22558594
vt 0.48046875 0.22558594
vt 0.48046875 0.01953125
vt 0.49023438 0.01953125
vt 0.46805078 0.32006836
vt 0.45828515 0.26220703
vt 0.45828515 0.32005787
vt 0.46805078 0.26220703
vt 0.45828515 0.21777344
vt 0.46805078 0.21777344
vt 0.46805078 0.01953125
vt 0.45828515 0.01953125
vt 0.48046875 0.010742188
vt 0.48046875 0.01953125
vt 0.49023438 0.01953125
vt 0.49023438 0.010742188
vt 0.49023435 0.4323573
vt 0.49023438 0.40128762
vt 0.48046875 0.4013672
vt 0.48046878 0.4323871
vt 0.49023435 0.45131338
vt 0.48046878 0.45131338
vt 0.48046875 0.46972656
vt 0.49023438 0.46972656
vt 0.48046875 0.48828125
vt 0.49023438 0.48828125
vt 0.49023438 0.46972656
vt 0.48046875 0.46972656
vt 0.46805078 0.44189453
vt 0.45828515 0.46972656
vt 0.46805078 0.46972656
vt 0.45828515 0.44189453
vt 0.45828515 0.4169922
vt 0.46805078 0.4169922
vt 0.45828515 0.39168584
vt 0.46805078 0.39160156
vt 0.45828515 0.3680907
vt 0.46805078 0.36816406
vt 0.46805078 0.36816406
vt 0.46805078 0.32006836
vt 0.45828515 0.32005787
vt 0.45828515 0.3680907
vt 0.2673382 0.48775965
vt 0.3064007 0.48775965
vt 0.3064007 0.4633456
vt 0.2673382 0.4633456
vt 0.3064007 0.4399081
vt 0.2673382 0.4399081
vt 0.3064007 0.4164706
vt 0.2673382 0.4164706
vt 0.3064007 0.39205652
vt 0.2673382 0.39205652
vt 0.3064007 0.36861902
vt 0.2673382 0.36861902
vt 0.3064007 0.34518152
vt 0.2673382 0.34518152
vt 0.3064007 0.32076746
vt 0.2673382 0.32076746
vt 0.3064007 0.29732996
vt 0.2673382 0.29732996
vt 0.378214 0.025308967
vt 0.3498227 0.021491647
vt 0.3509639 0.039985478
vt 0.36736113 0.04460132
vt 0.3972135 0.04239142
vt 0.3709651 0.06255554
vt 0.399283 0.06840825
vt 0.3890083 0.08992696
vt 0.34963873 0.08369315
vt 0.32147098 0.12611783
vt 0.35951823 0.12972605
vt 0.31494734 0.19087636
vt 0.34458697 0.18734556
vt 0.31836337 0.24372828
vt 0.34372216 0.23350012
vt 0.35482925 0.43856812
vt 0.34577256 0.44222105
vt 0.40426922 0.27993327
vt 0.43656996 0.07712072
vt 0.42794064 0.072548866
vt 0.38010705 0.26713192
vt 0.4003459 0.32592887
vt 0.37123182 0.31934524
vt 0.40922502 0.38478553
vt 0.3710087 0.38443112
vt 0.43443146 0.4274267
vt 0.39462784 0.4295467
vt 0.41364864 0.45278072
vt 0.44242063 0.44989443
vt 0.43766582 0.47555673
vt 0.40820327 0.47026473
vt 0.41699824 0.490578
vt 0.39141595 0.47315633
vt 0.38836417 0.4914323
vt 0.48046875 0.4013672
vt 0.49023438 0.40128762
vt 0.49023438 0.3476491
vt 0.48046875 0.34765625
vt 0.49023438 0.27978516
vt 0.48046875 0.27978516
vt 0.49023438 0.22558594
vt 0.48046875 0.22558594
vt 0.48046875 0.01953125
vt 0.49023438 0.01953125
vt 0.46805078 0.32006836
vt 0.45828515 0.26220703
vt 0.45828515 0.32005787
vt 0.46805078 0.26220703
vt 0.45828515 0.21777344
vt 0.46805078 0.21777344
vt 0.46805078 0.01953125
vt 0.45828515 0.01953125
vt 0.48046875 0.010742188
vt 0.48046875 0.01953125
vt 0.49023438 0.01953125
vt 0.49023438 0.010742188
vt 0.49023435 0.4323573
vt 0.49023438 0.40128762
vt 0.48046875 0.4013672
vt 0.48046878 0.4323871
vt 0.49023435 0.45131338
vt 0.48046878 0.45131338
vt 0.48046875 0.46972656
vt 0.49023438 0.46972656
vt 0.48046875 0.48828125
vt 0.49023438 0.48828125
vt 0.49023438 0.46972656
vt 0.48046875 0.46972656
vt 0.46805078 0.44189453
vt 0.45828515 0.46972656
vt 0.46805078 0.46972656
vt 0.45828515 0.44189453
vt 0.45828515 0.4169922
vt 0.46805078 0.4169922
vt 0.45828515 0.39168584
vt 0.46805078 0.39160156
vt 0.45828515 0.3680907
vt 0.46805078 0.36816406
vt 0.46805078 0.36816406
vt 0.46805078 0.32006836
vt 0.45828515 0.32005787
vt 0.45828515 0.3680907
vt 0.30629894 0.04597962
vt 0.2935234 0.05817443
vt 0.312106 0.05875516
vt 0.2935234 0.040172517
vt 0.30629894 0.0715307
vt 0.28016716 0.04597962
vt 0.2935234 0.07733774
vt 0.2749408 0.05875516
vt 0.28016716 0.0715307
vt 0.312106 0.05875516
vt 0.2935234 0.05817443
vt 0.30629894 0.0715307
vt 0.30629894 0.04597962
vt 0.2935234 0.07733774
vt 0.2935234 0.040172517
vt 0.28016716 0.0715307
vt 0.28016716 0.04597962
vt 0.2749408 0.05875516
vn -0.114958555 0.04521931 -0.99234056
vn -0.13431197 0.05897775 -0.98918253
vn -0.13431194 0.05897775 -0.98918253
vn -0.10044888 0.081777945 -0.9915758
vn -0.033723347 0.04337099 -0.99848974
vn -0.0056034084 0.0209872 -0.999764
vn -0 0 -1
vn -0 0 -1
vn -0 0 -1
vn -0.0022178064 -0.0036376636 -0.99999094
vn -0.0015459404 -0.0025356635 -0.9999956
vn -0.005211066 -0.009943134 -0.99993706
vn -0.0047470313 -0.008808883 -0.99994993
vn -0.00631462 -0.017055454 -0.99983454
vn -0.0065445486 -0.016694574 -0.9998392
vn -0.0060253614 -0.017509442 -0.9998286
vn -0.0060253614 -0.017509446 -0.9998286
vn -0.0045027346 -0.011486167 0.99992394
vn -0.0041456185 -0.012046868 0.9999188
vn -0.004145619 -0.01204687 0.9999188
vn -0.0043446 -0.011734452 0.9999217
vn -0.0032657457 -0.0060603237 0.9999763
vn -0.0035849968 -0.0068406607 0.9999702
vn -0.0010635186 -0.0017444779 0.999998
vn -0.0015257121 -0.002502608 0.9999957
vn -0 0 1
vn -0 0 1
vn -0.004088622 0.015313756 0.99987435
vn -0 0 1
vn -0.02627367 0.026710657 0.99929786
vn -0.04906021 0.03286705 0.99825484
vn -0.058874168 -0.00042208974 0.9982653
vn -0.05089527 -0.0014844437 0.9987029
vn -0.050895274 -0.0014844434 0.9987029
vn -0.56551504 0.8247379 0
vn -0.56551504 0.8247379 0
vn -0.7638153 0.645435 0
vn -0.7637068 0.6455633 0
vn -0.91765505 0.39737773 0
vn -0.91756785 0.39757925 0
vn -0.9655019 0.26039574 0
vn -0.9654835 0.26046428 0
vn -0.9689567 0.2472303 0
vn -0.9689567 0.2472303 0
vn 0.8008492 -0.5988659 0
vn 0.8589851 -0.51200074 0
vn 0.8008493 -0.5988659 0
vn 0.85884213 -0.5122404 0
vn 0.9413661 -0.33738685 0
vn 0.94133985 -0.33746004 0
vn 0.94613117 -0.32378373 0
vn 0.94613117 -0.3237837 0
vn -0 -1 0
vn -0 -1 0
vn -0 -1 0
vn -0 -1 0
vn -0.6475972 0.76198286 0
vn -0.38303122 0.9237354 0
vn -0.38303125 0.9237354 0
vn -0.6427024 0.76611596 0
vn -0.97705954 -0.21296641 0
vn -0.98333144 -0.18182191 0
vn -0.63920516 -0.76903623 0
vn -0.63920516 -0.7690363 0
vn -0.959895 0.2803596 0
vn -0.959895 0.2803596 0
vn -0.959895 0.2803596 0
vn -0.959895 0.2803596 0
vn 0.7472444 0.66454923 0
vn 0.52550703 0.8507892 0
vn 0.52550703 0.8507892 0
vn 0.7409609 0.6715482 0
vn 0.9970266 0.07705816 0
vn 0.9973525 0.07271883 0
vn 0.8460798 -0.53305626 0
vn 0.8460798 -0.53305626 0
vn 0.6766756 -0.7362812 0
vn 0.6766756 -0.7362812 0
vn 0.5266354 -0.8500913 0
vn 0.5266354 -0.8500913 0
vn 0.5266354 -0.8500913 0
vn 0.5266354 -0.8500913 0
vn 0.70710814 0.7071054 2.8779334E-07
vn 0.70710814 0.7071054 2.8779334E-07
vn -0 1 0
vn -0 1 0
vn -0.7071078 0.7071057 2.8779323E-07
vn -0.7071078 0.7071057 2.8779323E-07
vn -1 -5.7254886E-07 -2.8779564E-07
vn -1 5.725488E-07 -2.8779326E-07
vn -0.7071064 -0.70710707 -5.755876E-07
vn -0.7071064 -0.70710707 -5.755876E-07
vn -0 -1 0
vn -0 -1 0
vn 0.70710677 -0.7071068 -2.8779397E-07
vn 0.70710677 -0.7071068 -2.8779397E-07
vn 1 -5.725488E-07 0
vn 1 6.183527E-07 0
vn 0.70710814 0.7071054 2.8779334E-07
vn 0.70710814 0.7071054 2.8779334E-07
vn 0.1149534 0.045215484 0.9923413
vn 0.13430308 0.05897127 0.989184
vn 0.13430306 0.05897128 0.989184
vn 0.10044409 0.08177451 0.9915765
vn 0.03372336 0.043370996 0.99848974
vn 0.005603406 0.020987213 0.999764
vn -0 0 1
vn -0 0 1
vn -0 0 1
vn 0.0022178073 -0.0036376645 0.99999094
vn 0.0015459408 -0.0025356638 0.9999956
vn 0.005211066 -0.009943134 0.99993706
vn 0.0047470327 -0.008808884 0.99994993
vn 0.006314617 -0.017055467 0.99983454
vn 0.0065445458 -0.016694581 0.9998392
vn 0.006025358 -0.01750946 0.9998286
vn 0.0060253586 -0.01750946 0.9998286
vn 0.0045027323 -0.011486172 -0.99992394
vn 0.0041456167 -0.012046877 -0.9999188
vn 0.0041456167 -0.012046877 -0.9999188
vn 0.004344598 -0.01173446 -0.9999217
vn 0.0032657457 -0.0060603265 -0.9999763
vn 0.003584997 -0.006840663 -0.9999702
vn 0.0010635182 -0.0017444777 -0.999998
vn 0.0015257117 -0.0025026086 -0.9999957
vn -0 0 -1
vn -0 0 -1
vn 0.0040886165 0.01531374 -0.99987435
vn -0 0 -1
vn 0.026273647 0.026710631 -0.99929786
vn 0.04905528 0.03286353 -0.9982552
vn 0.058868814 -0.00042592493 -0.9982657
vn 0.05088609 -0.0014909905 -0.99870336
vn 0.050886095 -0.0014909906 -0.99870336
vn 0.56551504 0.8247379 0
vn 0.56551504 0.8247379 0
vn 0.7638154 0.64543486 0
vn 0.76370686 0.6455631 0
vn 0.91765517 0.3973776 0
vn 0.91756785 0.39757913 0
vn 0.9655019 0.2603958 0
vn 0.9654835 0.26046428 0
vn 0.9689567 0.24723046 0
vn 0.9689567 0.24723046 0
vn -0.8008492 -0.5988661 0
vn -0.858985 -0.5120007 0
vn -0.8008492 -0.598866 0
vn -0.85884213 -0.51224047 0
vn -0.9413661 -0.33738685 0
vn -0.94133985 -0.33746004 0
vn -0.94613105 -0.32378376 0
vn -0.94613105 -0.32378376 0
vn -0 -1 0
vn -0 -1 0
vn -0 -1 0
vn -0 -1 0
vn 0.64759713 0.761983 0
vn 0.38303122 0.9237354 0
vn 0.38303125 0.9237354 0
vn 0.6427024 0.766116 0
vn 0.9770576 -0.2129752 0
vn 0.98332983 -0.18183063 0
vn 0.639205 -0.7690365 0
vn 0.63920504 -0.7690365 0
vn 0.959895 0.28035963 0
vn 0.959895 0.28035963 0
vn 0.959895 0.28035963 0
vn 0.959895 0.28035963 0
vn -0.7472421 0.66455185 0
vn -0.52550733 0.8507891 0
vn -0.52550733 0.850789 0
vn -0.7409585 0.6715507 0
vn -0.9970266 0.07705826 0
vn -0.9973525 0.07271895 0
vn -0.84607965 -0.53305644 0
vn -0.84607965 -0.53305644 0
vn -0.67667544 -0.73628145 0
vn -0.67667544 -0.73628145 0
vn -0.5266355 -0.85009116 0
vn -0.5266356 -0.85009116 0
vn -0.5266355 -0.85009116 0
vn -0.5266355 -0.85009116 0
vn -0 0 1
vn -0 0 1
vn -0 0 1
vn -0 0 1
vn -0 0 1
vn -0 0 1
vn -0 0 1
vn -0 0 1
vn -0 0 1
vn -0 0 -1
vn -0 0 -1
vn -0 0 -1
vn -0 0 -1
vn -0 0 -1
vn -0 0 -1
vn -0 0 -1
vn -0 0 -1
vn -0 0 -1
g Weapon_m_sp_Mesh_0
f 3/3/3 2/2/2 1/1/1
f 4/4/4 3/3/3 1/1/1
f 4/4/4 1/1/1 5/5/5
f 4/4/4 5/5/5 6/6/6
f 6/6/6 5/5/5 7/7/7
f 7/7/7 8/8/8 6/6/6
f 8/8/8 9/9/9 6/6/6
f 10/10/10 9/9/9 8/8/8
f 11/11/11 10/10/10 8/8/8
f 12/12/12 10/10/10 11/11/11
f 13/13/13 12/12/12 11/11/11
f 14/14/14 12/12/12 13/13/13
f 15/15/15 14/14/14 13/13/13
f 14/14/14 15/15/15 16/16/16
f 17/17/17 14/14/14 16/16/16
f 20/20/20 19/19/19 18/18/18
f 21/21/21 20/20/20 18/18/18
f 21/21/21 18/18/18 22/22/22
f 23/23/23 21/21/21 22/22/22
f 23/23/23 22/22/22 24/24/24
f 25/25/25 23/23/23 24/24/24
f 25/25/25 24/24/24 26/26/26
f 27/27/27 25/25/25 26/26/26
f 27/27/27 26/26/26 28/28/28
f 26/26/26 29/29/29 28/28/28
f 30/30/30 28/28/28 29/29/29
f 30/30/30 31/31/31 28/28/28
f 32/32/32 31/31/31 30/30/30
f 33/33/33 31/31/31 32/32/32
f 34/34/34 33/33/33 32/32/32
f 37/37/37 36/36/36 35/35/35
f 38/38/38 37/37/37 35/35/35
f 39/39/39 37/37/37 38/38/38
f 40/40/40 39/39/39 38/38/38
f 41/41/41 39/39/39 40/40/40
f 42/42/42 41/41/41 40/40/40
f 42/42/42 43/43/43 41/41/41
f 43/43/43 44/44/44 41/41/41
f 47/47/47 46/46/46 45/45/45
f 46/46/46 48/48/48 45/45/45
f 46/46/46 49/49/49 48/48/48
f 49/49/49 50/50/50 48/48/48
f 51/51/51 50/50/50 49/49/49
f 52/52/52 51/51/51 49/49/49
f 55/55/55 54/54/54 53/53/53
f 56/56/56 55/55/55 53/53/53
f 59/59/59 58/58/58 57/57/57
f 60/60/60 59/59/59 57/57/57
f 60/60/60 57/57/57 61/61/61
f 62/62/62 60/60/60 61/61/61
f 62/62/62 61/61/61 63/63/63
f 61/61/61 64/64/64 63/63/63
f 67/67/67 66/66/66 65/65/65
f 68/68/68 67/67/67 65/65/65
f 71/71/71 70/70/70 69/69/69
f 70/70/70 72/72/72 69/69/69
f 72/72/72 73/73/73 69/69/69
f 73/73/73 74/74/74 69/69/69
f 73/73/73 75/75/75 74/74/74
f 75/75/75 76/76/76 74/74/74
f 75/75/75 77/77/77 76/76/76
f 77/77/77 78/78/78 76/76/76
f 81/81/81 80/80/80 79/79/79
f 82/82/82 81/81/81 79/79/79
f 85/85/85 84/84/84 83/83/83
f 86/86/86 85/85/85 83/83/83
f 87/87/87 85/85/85 86/86/86
f 88/88/88 87/87/87 86/86/86
f 89/89/89 87/87/87 88/88/88
f 90/90/90 89/89/89 88/88/88
f 91/91/91 89/89/89 90/90/90
f 92/92/92 91/91/91 90/90/90
f 93/93/93 91/91/91 92/92/92
f 94/94/94 93/93/93 92/92/92
f 95/95/95 93/93/93 94/94/94
f 96/96/96 95/95/95 94/94/94
f 97/97/97 95/95/95 96/96/96
f 98/98/98 97/97/97 96/96/96
f 99/99/99 97/97/97 98/98/98
f 100/100/100 99/99/99 98/98/98
f 103/103/103 102/102/102 101/101/101
f 104/104/104 103/103/103 101/101/101
f 104/104/104 101/101/101 105/105/105
f 104/104/104 105/105/105 106/106/106
f 106/106/106 105/105/105 107/107/107
f 107/107/107 108/108/108 106/106/106
f 108/108/108 109/109/109 106/106/106
f 110/110/110 109/109/109 108/108/108
f 111/111/111 110/110/110 108/108/108
f 112/112/112 110/110/110 111/111/111
f 113/113/113 112/112/112 111/111/111
f 114/114/114 112/112/112 113/113/113
f 115/115/115 114/114/114 113/113/113
f 114/114/114 115/115/115 116/116/116
f 117/117/117 114/114/114 116/116/116
f 120/120/120 119/119/119 118/118/118
f 121/121/121 120/120/120 118/118/118
f 121/121/121 118/118/118 122/122/122
f 123/123/123 121/121/121 122/122/122
f 123/123/123 122/122/122 124/124/124
f 125/125/125 123/123/123 124/124/124
f 125/125/125 124/124/124 126/126/126
f 127/127/127 125/125/125 126/126/126
f 127/127/127 126/126/126 128/128/128
f 126/126/126 129/129/129 128/128/128
f 130/130/130 128/128/128 129/129/129
f 130/130/130 131/131/131 128/128/128
f 132/132/132 131/131/131 130/130/130
f 133/133/133 131/131/131 132/132/132
f 134/134/134 133/133/133 132/132/132
f 137/137/137 136/136/136 135/135/135
f 138/138/138 137/137/137 135/135/135
f 139/139/139 137/137/137 138/138/138
f 140/140/140 139/139/139 138/138/138
f 141/141/141 139/139/139 140/140/140
f 142/142/142 141/141/141 140/140/140
f 142/142/142 143/143/143 141/141/141
f 143/143/143 144/144/144 141/141/141
f 147/147/147 146/146/146 145/145/145
f 146/146/146 148/148/148 145/145/145
f 146/146/146 149/149/149 148/148/148
f 149/149/149 150/150/150 148/148/148
f 151/151/151 150/150/150 149/149/149
f 152/152/152 151/151/151 149/149/149
f 155/155/155 154/154/154 153/153/153
f 156/156/156 155/155/155 153/153/153
f 159/159/159 158/158/158 157/157/157
f 160/160/160 159/159/159 157/157/157
f 160/160/160 157/157/157 161/161/161
f 162/162/162 160/160/160 161/161/161
f 162/162/162 161/161/161 163/163/163
f 161/161/161 164/164/164 163/163/163
f 167/167/167 166/166/166 165/165/165
f 168/168/168 167/167/167 165/165/165
f 171/171/171 170/170/170 169/169/169
f 170/170/170 172/172/172 169/169/169
f 172/172/172 173/173/173 169/169/169
f 173/173/173 174/174/174 169/169/169
f 173/173/173 175/175/175 174/174/174
f 175/175/175 176/176/176 174/174/174
f 175/175/175 177/177/177 176/176/176
f 177/177/177 178/178/178 176/176/176
f 181/181/181 180/180/180 179/179/179
f 182/182/182 181/181/181 179/179/179
f 185/185/185 184/184/184 183/183/183
f 183/183/183 184/184/184 186/186/186
f 187/187/187 184/184/184 185/185/185
f 186/186/186 184/184/184 188/188/188
f 189/189/189 184/184/184 187/187/187
f 188/188/188 184/184/184 190/190/190
f 191/191/191 184/184/184 189/189/189
f 190/190/190 184/184/184 191/191/191
f 194/194/194 193/193/193 192/192/192
f 192/192/192 193/193/193 195/195/195
f 196/196/196 193/193/193 194/194/194
f 195/195/195 193/193/193 197/197/197
f 198/198/198 193/193/193 196/196/196
f 197/197/197 193/193/193 199/199/199
f 200/200/200 193/193/193 198/198/198
f 199/199/199 193/193/193 200/200/200
