g Weapon_01_Mesh
v -0 0.40360442 -0.05244355
v -0 0.40931687 -0.04791825
v -0.033883274 0.40931687 -0.03388333
v -0.037083197 0.40360442 -0.037083194
v -0 0.10242292 -0.05244355
v -0.047918253 0.40931687 1.348645E-10
v -0.037083197 0.10242292 -0.037083194
v -0 -0.19875874 -0.05244355
v -0.037083197 -0.19875874 -0.037083194
v -0.052443523 0.40360442 0
v -0.033883274 0.40931687 0.03388333
v -0.052443523 0.10242292 0
v -0.052443523 -0.19875874 0
v -0.037083197 0.40360442 0.037083194
v -0 0.40931687 0.047918253
v -0.037083197 0.10242292 0.037083194
v -0.037083197 -0.19875874 0.037083194
v -0 0.40360442 0.05244356
v 0.033883378 0.40931687 0.03388333
v -0 0.10242292 0.05244356
v -0 -0.19875874 0.05244356
v 0.037083197 0.40360442 0.037083197
v 0.047918253 0.40931687 1.348645E-10
v 0.037083197 0.10242292 0.037083197
v 0.037083197 -0.19875874 0.037083197
v 0.052443523 0.40360442 0
v 0.033883378 0.40931687 -0.03388333
v 0.052443523 0.10242292 0
v 0.052443523 -0.19875874 0
v 0.037083197 0.40360442 -0.037083194
v -0 0.40931687 -0.04791825
v -0 0.40360442 -0.05244355
v 0.037083197 0.10242292 -0.037083194
v 0.037083197 -0.19875874 -0.037083194
v -0 0.10242292 -0.05244355
v -0 -0.19875874 -0.05244355
v -0.015839096 0.5337985 -0.015839124
v -0 0.53934777 7.962507E-11
v -0.022399854 0.5337985 8.953705E-10
v -0.02755653 0.50703204 -0.027556518
v -0 0.50703204 -0.038970795
v -0 0.5337985 -0.022399906
v -0 0.53934777 7.962507E-11
v -0 0.40931687 -0.04791825
v -0.033883274 0.40931687 -0.03388333
v -0.038970843 0.50703204 4.0151935E-10
v -0.047918253 0.40931687 1.348645E-10
v -0.015839096 0.5337985 0.015839124
v -0 0.53934777 7.962507E-11
v -0 0.5337985 0.022399912
v -0.02755653 0.50703204 0.027556518
v -0.033883274 0.40931687 0.03388333
v -0 0.50703204 0.038970806
v -0 0.40931687 0.047918253
v 0.015839096 0.5337985 0.015839124
v -0 0.53934777 7.962507E-11
v 0.022399958 0.5337985 8.953705E-10
v 0.02755653 0.50703204 0.027556518
v 0.033883378 0.40931687 0.03388333
v 0.038970843 0.50703204 4.0151935E-10
v 0.047918253 0.40931687 1.348645E-10
v 0.015839096 0.5337985 -0.015839124
v -0 0.53934777 7.962507E-11
v 0.02755653 0.50703204 -0.027556518
v 0.033883378 0.40931687 -0.03388333
v -0 0.5337985 -0.022399906
v -0 0.50703204 -0.038970795
v -0 0.40931687 -0.04791825
v 0.029371079 -0.20987606 0.028039927
v 0.037083197 -0.19875874 0.037083197
v 0.052443523 -0.19875874 0
v -0 -0.20987606 0.04020584
v -0 -0.19875874 0.05244356
v 0.041537017 -0.20987606 -0.0013311913
v 0.037083197 -0.19875874 -0.037083194
v 0.027488543 -0.20987606 -0.027488526
v -0 -0.19875874 -0.05244355
v -0 -0.20987606 -0.038874645
v -0.037083197 -0.19875874 -0.037083194
v -0.029371079 -0.20987606 0.028039925
v -0.037083197 -0.19875874 0.037083194
v -0.027488543 -0.20987606 -0.027488526
v -0.052443523 -0.19875874 0
v -0.041537017 -0.20987606 -0.0013311913
vt 0.1669082 0.8449743
vt 0.16349661 0.8449743
vt 0.16349661 0.8634187
vt 0.1669082 0.8634187
vt 0.30860415 0.8449743
vt 0.16349661 0.8822323
vt 0.30860415 0.8634187
vt 0.45062396 0.8449743
vt 0.45062396 0.863419
vt 0.1669082 0.8822323
vt 0.16349661 0.9008727
vt 0.30860415 0.88223255
vt 0.45062396 0.8822327
vt 0.1669082 0.9008727
vt 0.16349661 0.9192672
vt 0.30860415 0.900873
vt 0.45062396 0.900873
vt 0.1669082 0.9192672
vt 0.16349661 0.9376145
vt 0.30860415 0.9192676
vt 0.45062396 0.9192676
vt 0.1669082 0.9376145
vt 0.16349661 0.9562094
vt 0.30860415 0.9376148
vt 0.45062396 0.9376148
vt 0.1669082 0.9562094
vt 0.16349661 0.9750588
vt 0.30860415 0.9562094
vt 0.45062396 0.9562094
vt 0.1669082 0.9750588
vt 0.16349661 0.9935066
vt 0.1669082 0.9935066
vt 0.30860415 0.9750588
vt 0.45062396 0.9750588
vt 0.30860415 0.9935066
vt 0.45062396 0.9935066
vt 0.10020561 0.8851745
vt 0.08864275 0.91892076
vt 0.10020561 0.89542353
vt 0.11338258 0.8752713
vt 0.11338258 0.8608182
vt 0.10020561 0.87884194
vt 0.08864275 0.91892076
vt 0.16349661 0.8449743
vt 0.16349661 0.8634187
vt 0.11338258 0.8898199
vt 0.16349661 0.8822323
vt 0.10020561 0.9073156
vt 0.08864275 0.91892076
vt 0.10020561 0.9197373
vt 0.11338258 0.90479153
vt 0.16349661 0.9008727
vt 0.11338258 0.91993105
vt 0.16349661 0.9192672
vt 0.10020561 0.93197054
vt 0.08864275 0.91892076
vt 0.10020561 0.9433024
vt 0.11338258 0.9348704
vt 0.16349661 0.9376145
vt 0.11338258 0.9492613
vt 0.16349661 0.9562094
vt 0.10020561 0.95270413
vt 0.08864275 0.91892076
vt 0.11338258 0.9629069
vt 0.16349661 0.9750588
vt 0.10020561 0.95827234
vt 0.11338258 0.9761962
vt 0.16349661 0.9935066
vt 0.02842186 0.97243017
vt 0.02126607 0.97941846
vt 0.044613652 0.9888609
vt 0.02149583 0.95620936
vt 0.012106383 0.9562087
vt 0.044613652 0.9794187
vt 0.0672748 0.9794187
vt 0.05992201 0.97243017
vt 0.07668035 0.95620936
vt 0.066546336 0.95620936
vt 0.06719018 0.9331035
vt 0.028490357 0.94013935
vt 0.02136676 0.9331035
vt 0.060095616 0.94013935
vt 0.044613652 0.92373306
vt 0.044613652 0.9331035
vn -0 0.011995638 -0.9999281
vn -2.9278146E-07 0.62095094 -0.78384954
vn -0.554263 0.6209527 -0.55426544
vn -0.70705616 0.011995662 -0.7070556
vn -0 0 -1
vn -0.78384763 0.62095314 -2.5459272E-07
vn -0.7071069 0 -0.7071066
vn -0 -0.030901575 -0.99952245
vn -0.7064177 -0.029021427 -0.70720005
vn -0.9999281 0.011995689 0
vn -0.5542633 0.6209533 0.5542645
vn -1 0 0
vn -0.999619 -0.02759727 0.00034061453
vn -0.70705616 0.011995678 0.7070556
vn -3.0551095E-07 0.6209523 0.78384846
vn -0.707107 0 0.70710653
vn -0.70649225 -0.028167626 0.70716
vn -0 0.011995666 0.9999281
vn 0.554266 0.6209503 0.5542652
vn -0 0 1
vn -0 -0.028955936 0.9995807
vn 0.7070561 0.011995603 0.7070556
vn 0.78385115 0.62094873 -1.1456731E-07
vn 0.707107 0 0.70710653
vn 0.70649225 -0.028167633 0.70716
vn 0.9999281 0.011995555 0
vn 0.5542659 0.62094957 -0.5542661
vn 1 0 0
vn 0.999619 -0.02759728 0.00034061453
vn 0.7070561 0.011995584 -0.70705575
vn -2.9278146E-07 0.62095094 -0.78384954
vn -0 0.011995638 -0.9999281
vn 0.7071069 0 -0.7071066
vn 0.7064177 -0.029021429 -0.7072
vn -0 0 -1
vn -0 -0.030901575 -0.99952245
vn -0.5564076 0.61710674 -0.55640787
vn -0 1 0
vn -0.7868787 0.61710757 1.9066037E-07
vn -0.6975368 0.16396502 -0.6975369
vn -0 0.16396515 -0.9864661
vn -0 0.6171064 -0.78687966
vn -0 1 0
vn -0 0.0911852 -0.9958339
vn -0.70416075 0.09118488 -0.7041611
vn -0.9864661 0.16396502 0
vn -0.995834 0.091184735 0
vn -0.5564075 0.61710685 0.55640805
vn -0 1 0
vn -0 0.6171066 0.7868796
vn -0.6975368 0.16396503 0.697537
vn -0.7041608 0.09118486 0.70416105
vn -0 0.16396514 0.9864661
vn -0 0.09118515 0.9958339
vn 0.55640715 0.61710674 0.5564085
vn -0 1 0
vn 0.7868793 0.617107 -1.7332758E-07
vn 0.69753677 0.16396527 0.69753695
vn 0.7041608 0.091185264 0.704161
vn 0.9864661 0.16396526 0
vn 0.9958339 0.09118517 0
vn 0.556407 0.61710656 -0.55640876
vn -0 1 0
vn 0.6975366 0.16396524 -0.69753706
vn 0.7041609 0.09118527 -0.7041609
vn -0 0.6171064 -0.78687966
vn -0 0.16396515 -0.9864661
vn -0 0.0911852 -0.9958339
vn 0.17887898 -0.9682759 0.17448238
vn 0.70649225 -0.028167633 0.70716
vn 0.999619 -0.02759728 0.00034061453
vn -0 -0.9749783 0.2222997
vn -0 -0.028955936 0.9995807
vn 0.5124959 -0.8584295 -0.021138242
vn 0.7064177 -0.029021429 -0.7072
vn 0.16071744 -0.97215015 -0.17056926
vn -0 -0.030901575 -0.99952245
vn -0 -0.9769572 -0.21343535
vn -0.7064177 -0.029021427 -0.70720005
vn -0.17887893 -0.9682759 0.17448252
vn -0.70649225 -0.028167626 0.70716
vn -0.16071744 -0.97215015 -0.17056935
vn -0.999619 -0.02759727 0.00034061453
vn -0.5124958 -0.8584295 -0.021138264
g Weapon_01_Mesh_0
f 3/3/3 2/2/2 1/1/1
f 4/4/4 3/3/3 1/1/1
f 4/4/4 1/1/1 5/5/5
f 6/6/6 3/3/3 4/4/4
f 7/7/7 4/4/4 5/5/5
f 7/7/7 5/5/5 8/8/8
f 9/9/9 7/7/7 8/8/8
f 10/10/10 6/6/6 4/4/4
f 10/10/10 4/4/4 7/7/7
f 11/11/11 6/6/6 10/10/10
f 12/12/12 7/7/7 9/9/9
f 12/12/12 10/10/10 7/7/7
f 13/13/13 12/12/12 9/9/9
f 14/14/14 11/11/11 10/10/10
f 14/14/14 10/10/10 12/12/12
f 15/15/15 11/11/11 14/14/14
f 16/16/16 12/12/12 13/13/13
f 16/16/16 14/14/14 12/12/12
f 17/17/17 16/16/16 13/13/13
f 18/18/18 15/15/15 14/14/14
f 18/18/18 14/14/14 16/16/16
f 19/19/19 15/15/15 18/18/18
f 20/20/20 16/16/16 17/17/17
f 20/20/20 18/18/18 16/16/16
f 21/21/21 20/20/20 17/17/17
f 22/22/22 19/19/19 18/18/18
f 22/22/22 18/18/18 20/20/20
f 23/23/23 19/19/19 22/22/22
f 24/24/24 20/20/20 21/21/21
f 24/24/24 22/22/22 20/20/20
f 25/25/25 24/24/24 21/21/21
f 26/26/26 23/23/23 22/22/22
f 26/26/26 22/22/22 24/24/24
f 27/27/27 23/23/23 26/26/26
f 28/28/28 24/24/24 25/25/25
f 28/28/28 26/26/26 24/24/24
f 29/29/29 28/28/28 25/25/25
f 30/30/30 27/27/27 26/26/26
f 30/30/30 26/26/26 28/28/28
f 31/31/31 27/27/27 30/30/30
f 32/32/32 31/31/31 30/30/30
f 33/33/33 28/28/28 29/29/29
f 33/33/33 30/30/30 28/28/28
f 32/32/32 30/30/30 33/33/33
f 34/34/34 33/33/33 29/29/29
f 35/35/35 32/32/32 33/33/33
f 35/35/35 33/33/33 34/34/34
f 36/36/36 35/35/35 34/34/34
f 39/39/39 38/38/38 37/37/37
f 39/39/39 37/37/37 40/40/40
f 40/40/40 37/37/37 41/41/41
f 37/37/37 42/42/42 41/41/41
f 37/37/37 43/43/43 42/42/42
f 40/40/40 41/41/41 44/44/44
f 45/45/45 40/40/40 44/44/44
f 46/46/46 40/40/40 45/45/45
f 46/46/46 39/39/39 40/40/40
f 47/47/47 46/46/46 45/45/45
f 48/48/48 39/39/39 46/46/46
f 48/48/48 49/49/49 39/39/39
f 50/50/50 49/49/49 48/48/48
f 51/51/51 46/46/46 47/47/47
f 51/51/51 48/48/48 46/46/46
f 50/50/50 48/48/48 51/51/51
f 52/52/52 51/51/51 47/47/47
f 53/53/53 51/51/51 52/52/52
f 53/53/53 50/50/50 51/51/51
f 54/54/54 53/53/53 52/52/52
f 55/55/55 50/50/50 53/53/53
f 55/55/55 56/56/56 50/50/50
f 57/57/57 56/56/56 55/55/55
f 58/58/58 53/53/53 54/54/54
f 58/58/58 55/55/55 53/53/53
f 57/57/57 55/55/55 58/58/58
f 59/59/59 58/58/58 54/54/54
f 60/60/60 58/58/58 59/59/59
f 60/60/60 57/57/57 58/58/58
f 61/61/61 60/60/60 59/59/59
f 62/62/62 57/57/57 60/60/60
f 62/62/62 63/63/63 57/57/57
f 64/64/64 60/60/60 61/61/61
f 64/64/64 62/62/62 60/60/60
f 65/65/65 64/64/64 61/61/61
f 66/66/66 62/62/62 64/64/64
f 66/66/66 43/43/43 62/62/62
f 67/67/67 66/66/66 64/64/64
f 67/67/67 64/64/64 65/65/65
f 68/68/68 67/67/67 65/65/65
f 71/71/71 70/70/70 69/69/69
f 69/69/69 70/70/70 72/72/72
f 70/70/70 73/73/73 72/72/72
f 74/74/74 71/71/71 69/69/69
f 75/75/75 71/71/71 74/74/74
f 69/69/69 76/76/76 74/74/74
f 76/76/76 75/75/75 74/74/74
f 69/69/69 72/72/72 76/76/76
f 77/77/77 75/75/75 76/76/76
f 78/78/78 77/77/77 76/76/76
f 72/72/72 78/78/78 76/76/76
f 79/79/79 77/77/77 78/78/78
f 72/72/72 73/73/73 80/80/80
f 78/78/78 72/72/72 80/80/80
f 73/73/73 81/81/81 80/80/80
f 82/82/82 79/79/79 78/78/78
f 82/82/82 78/78/78 80/80/80
f 83/83/83 79/79/79 82/82/82
f 81/81/81 83/83/83 84/84/84
f 80/80/80 81/81/81 84/84/84
f 84/84/84 83/83/83 82/82/82
f 84/84/84 82/82/82 80/80/80
