g weapon_b_sp_mesh
v -0.14119631 1.8973202 0.13445026
v 6.8503624E-08 1.9215378 0.13445027
v 0.14119633 1.8973202 0.1344503
v 0.25894558 1.8282332 0.13445029
v -0.25894552 1.8282332 0.13445026
v 0.35904694 1.713175 0.13445023
v -0.35904688 1.713175 0.1344502
v 0.4377445 1.5522125 0.1344502
v -0.4377445 1.5522124 0.13445018
v 0.48854473 1.3509017 0.13445018
v -0.48854473 1.3509017 0.13445018
v 0.5063281 1.1176208 0.13445015
v -0.5063281 1.1176208 0.13445015
v 0.4886277 0.88416684 0.13445014
v -0.4886277 0.88416684 0.13445014
v 0.4380014 0.68256164 0.13445008
v -0.4380014 0.68256164 0.13445008
v 0.35947543 0.52131456 0.13445002
v -0.35947552 0.5213148 0.13445005
v 0.2594788 0.4060508 0.13445002
v -0.2594789 0.40605095 0.13445002
v 0.14166449 0.33682334 0.13445002
v -0.14166452 0.3368235 0.13445002
v 6.8503624E-08 0.31253067 0.13444999
vt 0.4165039 0.9609375
vt 0.5 0.97558594
vt 0.5834961 0.9609375
vt 0.65283203 0.92041016
vt 0.34692383 0.92041016
vt 0.71240234 0.85253906
vt 0.2878418 0.85253906
vt 0.75878906 0.7573242
vt 0.24133301 0.7573242
vt 0.7885742 0.6381836
vt 0.21130371 0.6381836
vt 0.7993164 0.5004883
vt 0.20080566 0.5004883
vt 0.7885742 0.3623047
vt 0.21118164 0.3623047
vt 0.75878906 0.24328613
vt 0.24108887 0.24328613
vt 0.71240234 0.14794922
vt 0.28759766 0.14794922
vt 0.6533203 0.079833984
vt 0.3466797 0.079833984
vt 0.5834961 0.038909912
vt 0.41625977 0.038909912
vt 0.5 0.024536133
vn -1.1040195E-07 0 1
vn -1.1155933E-07 3.9379447E-07 1
vn -1.1040195E-07 0 1
vn -0 -4.6187805E-07 1
vn -0 -4.6187805E-07 1
vn -0 -2.3833742E-07 1
vn -0 -2.3833744E-07 1
vn -0 -1.0273246E-07 1
vn -0 -1.0273245E-07 1
vn -0 -1.02403035E-07 1
vn -0 -1.0240305E-07 1
vn -0 0 1
vn -0 0 1
vn -0 -1.363105E-07 1
vn -0 -1.363105E-07 1
vn -0 -2.8736252E-07 1
vn -0 -2.8736255E-07 1
vn -0 -2.7096132E-07 1
vn -0 -2.7096135E-07 1
vn -0 -1.5174636E-07 1
vn -0 -1.5174638E-07 1
vn -0 0 1
vn -0 0 1
vn -0 -7.8515114E-07 1
g weapon_b_sp_mesh_0
f 3/3/3 2/2/2 1/1/1
f 4/4/4 3/3/3 1/1/1
f 5/5/5 4/4/4 1/1/1
f 6/6/6 4/4/4 5/5/5
f 7/7/7 6/6/6 5/5/5
f 8/8/8 6/6/6 7/7/7
f 9/9/9 8/8/8 7/7/7
f 10/10/10 8/8/8 9/9/9
f 11/11/11 10/10/10 9/9/9
f 12/12/12 10/10/10 11/11/11
f 13/13/13 12/12/12 11/11/11
f 14/14/14 12/12/12 13/13/13
f 15/15/15 14/14/14 13/13/13
f 16/16/16 14/14/14 15/15/15
f 17/17/17 16/16/16 15/15/15
f 18/18/18 16/16/16 17/17/17
f 19/19/19 18/18/18 17/17/17
f 20/20/20 18/18/18 19/19/19
f 21/21/21 20/20/20 19/19/19
f 22/22/22 20/20/20 21/21/21
f 23/23/23 22/22/22 21/21/21
f 22/22/22 23/23/23 24/24/24
