g WeaponRing_Mesh
v -0.03875228 0.038752325 0.42480654
v -0.022594362 0.0545477 0.4311926
v -0.020972557 0.050632313 0.42480654
v -0.041748974 0.041749034 0.4311926
v -0.05063229 0.020972613 0.42480654
v -0.025969753 0.062696636 0.43428198
v -0.054547675 0.022594422 0.4311926
v -0.054804035 3.0361356E-08 0.42480654
v -0.04798588 0.047985934 0.43428198
v -0.029398931 0.07097542 0.43121246
v -0.059042014 3.1839242E-08 0.4311926
v -0.050632317 -0.020972563 0.42480654
v -0.0626966 0.02596982 0.43428198
v -0.054322198 0.05432226 0.43121246
v -0.03105344 0.07496977 0.42480654
v -0.054547712 -0.022594368 0.4311926
v -0.038752317 -0.03875228 0.42480654
v -0.06786232 3.653001E-08 0.43428198
v -0.05737933 0.0573794 0.42480654
v -0.029398931 0.070975415 0.41840068
v -0.07097539 0.029399011 0.43121246
v -0.04174902 -0.041748986 0.4311926
v -0.020972613 -0.050632305 0.42480654
v -0.054322183 0.054322243 0.41840068
v -0.025969753 0.06269662 0.41533118
v -0.06269662 -0.025969753 0.43428198
v -0.07496974 0.03105352 0.42480654
v -0.07682322 4.4324434E-08 0.43121246
v -0.022594418 -0.054547686 0.4311926
v -1.8505967E-08 -0.054804035 0.42480654
v -0.04798588 0.047985926 0.41533118
v -0.022594366 0.054547712 0.41842052
v -0.047985926 -0.047985885 0.43428198
v -0.07097542 -0.02939894 0.43121246
v -0.08114668 4.886732E-08 0.42480654
v -0.070975386 0.029399008 0.41840068
v -1.9450512E-08 -0.059042014 0.4311926
v 0.020972569 -0.050632313 0.42480654
v -0.041748986 0.041749023 0.41842052
v -0.020972557 0.050632313 0.42480654
v -0.03875228 0.038752325 0.42480654
v -0.06269658 0.025969815 0.41533118
v -0.05454767 0.022594422 0.41842052
v -0.05063229 0.020972613 0.42480654
v -0.07682321 4.4324434E-08 0.41840068
v -0.06786232 3.653001E-08 0.41533118
v -0.05904201 3.1839246E-08 0.41842052
v -0.054804035 3.0361356E-08 0.42480654
v -0.074969776 -0.031053454 0.42480654
v -0.07097542 -0.02939894 0.41840068
v -0.06269662 -0.025969753 0.41533118
v -0.054547712 -0.022594368 0.41842052
v -0.050632317 -0.020972563 0.42480654
v -0.054322243 -0.05432221 0.43121246
v -0.05737939 -0.057379354 0.42480654
v -0.054322243 -0.05432221 0.41840068
v -0.047985915 -0.04798588 0.41533118
v -0.04174902 -0.041748986 0.41842052
v -0.038752317 -0.03875228 0.42480654
v -0.02596981 -0.062696606 0.43428198
v -0.029399004 -0.07097539 0.43121246
v -0.031053519 -0.07496974 0.42480654
v -0.029399004 -0.070975386 0.41840068
v -0.025969807 -0.0626966 0.41533118
v -0.022594418 -0.054547686 0.41842052
v -0.020972613 -0.050632305 0.42480654
v -2.4674623E-08 -0.067862324 0.43428198
v -3.6093127E-08 -0.07682322 0.43121246
v -4.318059E-08 -0.08114668 0.42480654
v -3.6093127E-08 -0.07682322 0.41840068
v -2.4674623E-08 -0.06786232 0.41533118
v -1.9450514E-08 -0.059042014 0.41842052
v -1.8505967E-08 -0.054804035 0.42480654
v 0.022594372 -0.054547694 0.4311926
v 0.038752288 -0.03875231 0.42480654
v 0.025969762 -0.06269662 0.43428198
v 0.041749 -0.041749015 0.4311926
v 0.050632305 -0.020972604 0.42480654
v 0.022594376 -0.054547694 0.41842052
v 0.020972569 -0.050632313 0.42480654
v 0.025969762 -0.062696606 0.41533118
v 0.029398952 -0.07097541 0.43121246
v 0.05454769 -0.02259441 0.4311926
v 0.054804035 -6.6505823E-09 0.42480654
v 0.047985896 -0.047985915 0.43428198
v 0.04174899 -0.041749015 0.41842052
v 0.038752288 -0.03875231 0.42480654
v 0.031053463 -0.07496975 0.42480654
v 0.059042014 -8.128468E-09 0.4311926
v 0.050632305 0.020972574 0.42480654
v 0.062696606 -0.0259698 0.43428198
v 0.05432221 -0.05432223 0.43121246
v 0.029398952 -0.0709754 0.41840068
v 0.05454769 0.022594377 0.4311926
v 0.038752306 0.038752288 0.42480654
v 0.067862324 -1.2819239E-08 0.43428198
v 0.057379354 -0.057379376 0.42480654
v 0.07097539 -0.029398989 0.43121246
v 0.05432221 -0.054322228 0.41840068
v 0.041749015 0.041749 0.4311926
v 0.020972583 0.050632305 0.42480654
v 0.062696606 0.025969772 0.43428198
v 0.07496974 -0.03105351 0.42480654
v 0.07682322 -2.061366E-08 0.43121246
v 0.047985893 -0.047985915 0.41533118
v 0.022594392 0.05454769 0.4311926
v -0 0.054804035 0.42480654
v 0.047985915 0.047985904 0.43428198
v 0.07097541 0.029398961 0.43121246
v 0.08114668 -2.515655E-08 0.42480654
v 0.07097539 -0.029398987 0.41840068
v 0.062696606 -0.025969796 0.41533118
v -0 0.059042014 0.4311926
v -0.020972557 0.050632313 0.42480654
v -0.022594362 0.0545477 0.4311926
v 0.025969787 0.062696606 0.43428198
v -0 0.067862324 0.43428198
v -0.025969753 0.062696636 0.43428198
v 0.07682322 -2.0613658E-08 0.41840068
v 0.05454769 -0.02259441 0.41842052
v 0.050632305 -0.020972604 0.42480654
v 0.05432223 0.054322224 0.43121246
v 0.07496975 0.031053476 0.42480654
v -0 0.07682322 0.43121246
v -0.029398931 0.07097542 0.43121246
v 0.02939898 0.0709754 0.43121246
v 0.059042014 -8.128472E-09 0.41842052
v 0.054804035 -6.6505823E-09 0.42480654
v 0.05737937 0.057379358 0.42480654
v 0.0709754 0.029398968 0.41840068
v -0 0.08114668 0.42480654
v -0.03105344 0.07496977 0.42480654
v 0.031053493 0.074969746 0.42480654
v -0 0.07682322 0.41840068
v -0.029398931 0.070975415 0.41840068
v 0.054322228 0.054322217 0.41840068
v 0.02939898 0.07097539 0.41840068
v 0.06786232 -1.2819239E-08 0.41533118
v 0.062696606 0.025969777 0.41533118
v -0 0.06786232 0.41533118
v -0.025969753 0.06269662 0.41533118
v 0.04798591 0.047985904 0.41533118
v 0.05454769 0.022594385 0.41842052
v 0.050632305 0.020972574 0.42480654
v 0.025969783 0.0626966 0.41533118
v 0.041749008 0.041749 0.41842052
v 0.038752306 0.038752288 0.42480654
v 0.022594392 0.054547686 0.41842052
v 0.020972583 0.050632305 0.42480654
v -0 0.059042014 0.41842052
v -0.022594366 0.054547712 0.41842052
v -0 0.054804035 0.42480654
v -0.020972557 0.050632313 0.42480654
vt 0.19335938 0.98046875
vt 0.16601562 0.9707031
vt 0.16601562 0.98046875
vt 0.19335938 0.9707031
vt 0.22265625 0.98046875
vt 0.16601562 0.9589844
vt 0.22265625 0.9707031
vt 0.25 0.98046875
vt 0.19335938 0.9589844
vt 0.16601562 0.94921875
vt 0.25 0.9707031
vt 0.27734375 0.98046875
vt 0.22265625 0.9589844
vt 0.19335938 0.94921875
vt 0.16601562 0.9394531
vt 0.27734375 0.9707031
vt 0.30664062 0.98046875
vt 0.25 0.9589844
vt 0.19335938 0.9394531
vt 0.16601562 0.9316406
vt 0.22265625 0.94921875
vt 0.30664062 0.9707031
vt 0.33398438 0.98046875
vt 0.19335938 0.9316406
vt 0.16601562 0.921875
vt 0.27734375 0.9589844
vt 0.22265625 0.9394531
vt 0.25 0.94921875
vt 0.33398438 0.9707031
vt 0.36132812 0.98046875
vt 0.19335938 0.921875
vt 0.16601562 0.91015625
vt 0.30664062 0.9589844
vt 0.27734375 0.94921875
vt 0.25 0.9394531
vt 0.22265625 0.9316406
vt 0.36132812 0.9707031
vt 0.390625 0.98046875
vt 0.19335938 0.91015625
vt 0.16601562 0.8984375
vt 0.19335938 0.8984375
vt 0.22265625 0.921875
vt 0.22265625 0.91015625
vt 0.22265625 0.8984375
vt 0.25 0.9316406
vt 0.25 0.921875
vt 0.25 0.91015625
vt 0.25 0.8984375
vt 0.27734375 0.9394531
vt 0.27734375 0.9316406
vt 0.27734375 0.921875
vt 0.27734375 0.91015625
vt 0.27734375 0.8984375
vt 0.30664062 0.94921875
vt 0.30664062 0.9394531
vt 0.30664062 0.9316406
vt 0.30664062 0.921875
vt 0.30664062 0.91015625
vt 0.30664062 0.8984375
vt 0.33398438 0.9589844
vt 0.33398438 0.94921875
vt 0.33398438 0.9394531
vt 0.33398438 0.9316406
vt 0.33398438 0.921875
vt 0.33398438 0.91015625
vt 0.33398438 0.8984375
vt 0.36132812 0.9589844
vt 0.36132812 0.94921875
vt 0.36132812 0.9394531
vt 0.36132812 0.9316406
vt 0.36132812 0.921875
vt 0.36132812 0.91015625
vt 0.36132812 0.8984375
vt 0.390625 0.9707031
vt 0.41796875 0.98046875
vt 0.390625 0.9589844
vt 0.41796875 0.9707031
vt 0.4453125 0.98046875
vt 0.390625 0.91015625
vt 0.390625 0.8984375
vt 0.390625 0.921875
vt 0.390625 0.94921875
vt 0.4453125 0.9707031
vt 0.47460938 0.98046875
vt 0.41796875 0.9589844
vt 0.41796875 0.91015625
vt 0.41796875 0.8984375
vt 0.390625 0.9394531
vt 0.47460938 0.9707031
vt 0.5019531 0.98046875
vt 0.4453125 0.9589844
vt 0.41796875 0.94921875
vt 0.390625 0.9316406
vt 0.5019531 0.9707031
vt 0.5292969 0.98046875
vt 0.47460938 0.9589844
vt 0.41796875 0.9394531
vt 0.4453125 0.94921875
vt 0.41796875 0.9316406
vt 0.5292969 0.9707031
vt 0.55859375 0.98046875
vt 0.5019531 0.9589844
vt 0.4453125 0.9394531
vt 0.47460938 0.94921875
vt 0.41796875 0.921875
vt 0.55859375 0.9707031
vt 0.5859375 0.98046875
vt 0.5292969 0.9589844
vt 0.5019531 0.94921875
vt 0.47460938 0.9394531
vt 0.4453125 0.9316406
vt 0.4453125 0.921875
vt 0.5859375 0.9707031
vt 0.61328125 0.98046875
vt 0.61328125 0.9707031
vt 0.55859375 0.9589844
vt 0.5859375 0.9589844
vt 0.61328125 0.9589844
vt 0.47460938 0.9316406
vt 0.4453125 0.91015625
vt 0.4453125 0.8984375
vt 0.5292969 0.94921875
vt 0.5019531 0.9394531
vt 0.5859375 0.94921875
vt 0.61328125 0.94921875
vt 0.55859375 0.94921875
vt 0.47460938 0.91015625
vt 0.47460938 0.8984375
vt 0.5292969 0.9394531
vt 0.5019531 0.9316406
vt 0.5859375 0.9394531
vt 0.61328125 0.9394531
vt 0.55859375 0.9394531
vt 0.5859375 0.9316406
vt 0.61328125 0.9316406
vt 0.5292969 0.9316406
vt 0.55859375 0.9316406
vt 0.47460938 0.921875
vt 0.5019531 0.921875
vt 0.5859375 0.921875
vt 0.61328125 0.921875
vt 0.5292969 0.921875
vt 0.5019531 0.91015625
vt 0.5019531 0.8984375
vt 0.55859375 0.921875
vt 0.5292969 0.91015625
vt 0.5292969 0.8984375
vt 0.55859375 0.91015625
vt 0.55859375 0.8984375
vt 0.5859375 0.91015625
vt 0.61328125 0.91015625
vt 0.5859375 0.8984375
vt 0.61328125 0.8984375
vn 0.7071069 -0.70710665 -1.6588746E-07
vn 0.20986676 -0.5066621 0.83621144
vn 0.382684 -0.9238793 -7.9115637E-07
vn 0.3877816 -0.38778254 0.83621174
vn 0.9238793 -0.38268396 7.5287375E-07
vn -0.023628281 0.05704416 0.998092
vn 0.50666213 -0.20986685 0.8362113
vn 1 -8.485775E-07 5.104225E-07
vn -0.04366014 0.04365965 0.998092
vn -0.2366025 0.57120866 0.7859643
vn 0.5484075 -4.046873E-07 0.83621126
vn 0.9238796 0.38268313 4.083379E-07
vn -0.057045974 0.02362847 0.9980919
vn -0.43718308 0.4371846 0.7859647
vn -0.38268328 0.9238795 -4.9499846E-07
vn 0.50666225 0.20986648 0.8362113
vn 0.7071073 0.70710623 0
vn -0.0617441 0 0.998092
vn -0.70710605 0.7071074 -6.3191266E-07
vn -0.23660071 0.57120544 -0.78596723
vn -0.57120776 0.23660268 0.7859649
vn 0.38778314 0.38778242 0.8362111
vn 0.38268384 0.92387944 -3.317748E-07
vn -0.43718177 0.43718186 -0.78596693
vn -0.02362824 0.057043392 -0.998092
vn -0.05704274 -0.023628408 0.9980921
vn -0.9238792 0.3826841 -1.0637208E-06
vn -0.61827135 3.9719052E-07 0.7859647
vn 0.20986676 0.5066623 0.83621126
vn -0 1 -2.8073254E-07
vn -0.04365935 0.043659184 -0.998092
vn 0.20986484 -0.5066596 -0.83621335
vn -0.043659292 -0.043659694 0.998092
vn -0.57120794 -0.23660187 0.785965
vn -1 7.6356235E-07 -1.1058489E-06
vn -0.5712059 0.23660138 -0.78596675
vn -3.3398882E-07 0.5484072 0.8362113
vn -0.3826829 0.92387974 -1.9140863E-07
vn 0.3877796 -0.3877804 -0.83621377
vn 0.382684 -0.9238793 -7.9115637E-07
vn 0.7071069 -0.70710665 -1.6588746E-07
vn -0.057042483 0.023628248 -0.9980921
vn 0.5066596 -0.2098656 -0.8362132
vn 0.9238793 -0.38268396 7.5287375E-07
vn -0.6182684 4.491798E-07 -0.7859671
vn -0.06174308 0 -0.998092
vn 0.54840505 -3.72996E-07 -0.8362129
vn 1 -8.485775E-07 5.104225E-07
vn -0.9238798 -0.38268286 -3.58084E-07
vn -0.5712058 -0.23660064 -0.78596693
vn -0.057044737 -0.02362811 -0.998092
vn 0.5066603 0.20986488 -0.83621293
vn 0.9238796 0.38268313 4.083379E-07
vn -0.43718347 -0.43718374 0.785965
vn -0.70710677 -0.70710677 0
vn -0.4371821 -0.43718138 -0.7859671
vn -0.043660108 -0.04365906 -0.998092
vn 0.38778022 0.38778037 -0.8362134
vn 0.7071073 0.70710623 0
vn -0.023628974 -0.05704414 0.998092
vn -0.23660259 -0.5712081 0.78596467
vn -0.38268328 -0.9238796 -2.2116963E-07
vn -0.23660116 -0.57120526 -0.7859672
vn -0.023628753 -0.05704344 -0.998092
vn 0.209865 0.5066596 -0.8362133
vn 0.38268384 0.92387944 -3.317748E-07
vn -7.837439E-07 -0.06174408 0.998092
vn -7.746248E-07 -0.6182716 0.7859646
vn -5.687214E-07 -1 -4.3180702E-07
vn -0 -0.6182684 -0.78596705
vn 3.928872E-07 -0.061743323 -0.998092
vn 3.1936258E-07 0.5484043 -0.83621335
vn -0 1 -2.8073254E-07
vn -0.20986623 0.5066624 0.8362113
vn -0.7071068 0.70710665 -1.9140845E-07
vn 0.023627764 -0.057044115 0.998092
vn -0.38778087 0.3877828 0.8362119
vn -0.9238795 0.38268334 0
vn -0.20986481 0.50665987 -0.8362133
vn -0.3826829 0.92387974 -1.9140863E-07
vn 0.02362868 -0.057043422 -0.998092
vn 0.23660119 -0.5712086 0.78596485
vn -0.50666255 0.20986652 0.8362112
vn -1 0 1.5312676E-07
vn 0.04366007 -0.04365969 0.998092
vn -0.38778093 0.3877804 -0.8362131
vn -0.7071068 0.70710665 -1.9140845E-07
vn 0.38268343 -0.9238795 -5.7925286E-07
vn -0.54840755 0 0.8362112
vn -0.9238796 -0.38268322 -1.14845065E-07
vn 0.057045396 -0.023628483 0.9980919
vn 0.4371829 -0.4371842 0.785965
vn 0.23660189 -0.57120556 -0.7859668
vn -0.5066614 -0.20986661 0.83621186
vn -0.7071069 -0.70710665 -1.0208449E-07
vn 0.06174361 0 0.998092
vn 0.70710635 -0.7071072 -3.8967966E-07
vn 0.57120824 -0.23660232 0.78596467
vn 0.43718237 -0.4371819 -0.7859666
vn -0.38778234 -0.3877823 0.8362115
vn -0.3826828 -0.9238798 -1.9140859E-07
vn 0.057042733 0.02362837 0.9980921
vn 0.9238793 -0.38268408 5.2659476E-07
vn 0.6182711 -3.5144058E-07 0.78596497
vn 0.04365961 -0.043659214 -0.998092
vn -0.20986702 -0.50666225 0.8362112
vn 3.3496525E-07 -1 -4.2109917E-07
vn 0.043659132 0.043659676 0.998092
vn 0.5712072 0.2366022 0.7859655
vn 1 -5.897856E-07 2.4223337E-07
vn 0.5712058 -0.23660108 -0.7859669
vn 0.0570433 -0.02362817 -0.998092
vn -0 -0.54840696 0.8362116
vn 0.382684 -0.9238793 -7.9115637E-07
vn 0.20986676 -0.5066621 0.83621144
vn 0.023627624 0.057044055 0.998092
vn -4.3451112E-07 0.06174407 0.998092
vn -0.023628281 0.05704416 0.998092
vn 0.6182692 -1.4140835E-07 -0.78596646
vn -0.50666034 0.20986542 -0.83621275
vn -0.9238795 0.38268334 0
vn 0.43718308 0.43718413 0.785965
vn 0.9238796 0.38268313 -6.003173E-07
vn -1.3516956E-07 0.61827165 0.78596455
vn -0.2366025 0.57120866 0.7859643
vn 0.23660228 0.5712083 0.78596467
vn -0.54840493 0 -0.83621293
vn -1 0 1.5312676E-07
vn 0.70710623 0.70710725 -4.0021155E-07
vn 0.5712065 0.23660083 -0.78596634
vn 2.5803124E-07 1 -1.3691454E-07
vn -0.38268328 0.9238795 -4.9499846E-07
vn 0.3826829 0.92387974 0
vn -0 0.6182684 -0.78596705
vn -0.23660071 0.57120544 -0.78596723
vn 0.43718168 0.43718192 -0.78596705
vn 0.23660022 0.5712057 -0.7859672
vn 0.061744004 0 -0.998092
vn 0.05704518 0.023628125 -0.998092
vn -0 0.06174337 -0.998092
vn -0.02362824 0.057043392 -0.998092
vn 0.043659534 0.043659262 -0.998092
vn -0.5066602 -0.2098652 -0.8362129
vn -0.9238796 -0.38268322 -1.14845065E-07
vn 0.023627916 0.057043467 -0.998092
vn -0.38778004 -0.38778028 -0.8362135
vn -0.7071069 -0.70710665 -1.0208449E-07
vn -0.20986508 -0.5066597 -0.8362133
vn -0.3826828 -0.9238798 -1.9140859E-07
vn 2.1697176E-07 -0.5484043 -0.83621335
vn 0.20986484 -0.5066596 -0.83621335
vn 3.3496525E-07 -1 -4.2109917E-07
vn 0.382684 -0.9238793 -7.9115637E-07
g WeaponRing_Mesh_0
f 3/3/3 2/2/2 1/1/1
f 2/2/2 4/4/4 1/1/1
f 1/1/1 4/4/4 5/5/5
f 2/2/2 6/6/6 4/4/4
f 4/4/4 7/7/7 5/5/5
f 5/5/5 7/7/7 8/8/8
f 6/6/6 9/9/9 4/4/4
f 4/4/4 9/9/9 7/7/7
f 6/6/6 10/10/10 9/9/9
f 7/7/7 11/11/11 8/8/8
f 8/8/8 11/11/11 12/12/12
f 9/9/9 13/13/13 7/7/7
f 7/7/7 13/13/13 11/11/11
f 10/10/10 14/14/14 9/9/9
f 9/9/9 14/14/14 13/13/13
f 10/10/10 15/15/15 14/14/14
f 11/11/11 16/16/16 12/12/12
f 12/12/12 16/16/16 17/17/17
f 13/13/13 18/18/18 11/11/11
f 11/11/11 18/18/18 16/16/16
f 15/15/15 19/19/19 14/14/14
f 15/15/15 20/20/20 19/19/19
f 14/14/14 21/21/21 13/13/13
f 13/13/13 21/21/21 18/18/18
f 14/14/14 19/19/19 21/21/21
f 16/16/16 22/22/22 17/17/17
f 17/17/17 22/22/22 23/23/23
f 20/20/20 24/24/24 19/19/19
f 20/20/20 25/25/25 24/24/24
f 18/18/18 26/26/26 16/16/16
f 16/16/16 26/26/26 22/22/22
f 19/19/19 27/27/27 21/21/21
f 19/19/19 24/24/24 27/27/27
f 21/21/21 28/28/28 18/18/18
f 18/18/18 28/28/28 26/26/26
f 21/21/21 27/27/27 28/28/28
f 22/22/22 29/29/29 23/23/23
f 23/23/23 29/29/29 30/30/30
f 25/25/25 31/31/31 24/24/24
f 25/25/25 32/32/32 31/31/31
f 26/26/26 33/33/33 22/22/22
f 22/22/22 33/33/33 29/29/29
f 28/28/28 34/34/34 26/26/26
f 26/26/26 34/34/34 33/33/33
f 27/27/27 35/35/35 28/28/28
f 28/28/28 35/35/35 34/34/34
f 24/24/24 36/36/36 27/27/27
f 24/24/24 31/31/31 36/36/36
f 27/27/27 36/36/36 35/35/35
f 29/29/29 37/37/37 30/30/30
f 30/30/30 37/37/37 38/38/38
f 32/32/32 39/39/39 31/31/31
f 32/32/32 40/40/40 39/39/39
f 40/40/40 41/41/41 39/39/39
f 31/31/31 42/42/42 36/36/36
f 31/31/31 39/39/39 42/42/42
f 39/39/39 41/41/41 43/43/43
f 39/39/39 43/43/43 42/42/42
f 41/41/41 44/44/44 43/43/43
f 36/36/36 45/45/45 35/35/35
f 36/36/36 42/42/42 45/45/45
f 42/42/42 43/43/43 46/46/46
f 42/42/42 46/46/46 45/45/45
f 43/43/43 44/44/44 47/47/47
f 43/43/43 47/47/47 46/46/46
f 44/44/44 48/48/48 47/47/47
f 35/35/35 45/45/45 49/49/49
f 35/35/35 49/49/49 34/34/34
f 45/45/45 46/46/46 50/50/50
f 45/45/45 50/50/50 49/49/49
f 46/46/46 47/47/47 51/51/51
f 46/46/46 51/51/51 50/50/50
f 47/47/47 48/48/48 52/52/52
f 47/47/47 52/52/52 51/51/51
f 48/48/48 53/53/53 52/52/52
f 34/34/34 49/49/49 54/54/54
f 34/34/34 54/54/54 33/33/33
f 49/49/49 50/50/50 55/55/55
f 49/49/49 55/55/55 54/54/54
f 50/50/50 51/51/51 56/56/56
f 50/50/50 56/56/56 55/55/55
f 51/51/51 52/52/52 57/57/57
f 51/51/51 57/57/57 56/56/56
f 52/52/52 53/53/53 58/58/58
f 52/52/52 58/58/58 57/57/57
f 53/53/53 59/59/59 58/58/58
f 33/33/33 54/54/54 60/60/60
f 33/33/33 60/60/60 29/29/29
f 29/29/29 60/60/60 37/37/37
f 54/54/54 55/55/55 61/61/61
f 54/54/54 61/61/61 60/60/60
f 55/55/55 56/56/56 62/62/62
f 55/55/55 62/62/62 61/61/61
f 56/56/56 57/57/57 63/63/63
f 56/56/56 63/63/63 62/62/62
f 57/57/57 58/58/58 64/64/64
f 57/57/57 64/64/64 63/63/63
f 58/58/58 59/59/59 65/65/65
f 58/58/58 65/65/65 64/64/64
f 59/59/59 66/66/66 65/65/65
f 60/60/60 67/67/67 37/37/37
f 60/60/60 61/61/61 67/67/67
f 61/61/61 62/62/62 68/68/68
f 61/61/61 68/68/68 67/67/67
f 62/62/62 63/63/63 69/69/69
f 62/62/62 69/69/69 68/68/68
f 63/63/63 64/64/64 70/70/70
f 63/63/63 70/70/70 69/69/69
f 64/64/64 65/65/65 71/71/71
f 64/64/64 71/71/71 70/70/70
f 65/65/65 66/66/66 72/72/72
f 65/65/65 72/72/72 71/71/71
f 66/66/66 73/73/73 72/72/72
f 37/37/37 67/67/67 74/74/74
f 37/37/37 74/74/74 38/38/38
f 38/38/38 74/74/74 75/75/75
f 67/67/67 68/68/68 76/76/76
f 67/67/67 76/76/76 74/74/74
f 74/74/74 77/77/77 75/75/75
f 74/74/74 76/76/76 77/77/77
f 75/75/75 77/77/77 78/78/78
f 72/72/72 73/73/73 79/79/79
f 73/73/73 80/80/80 79/79/79
f 71/71/71 72/72/72 81/81/81
f 72/72/72 79/79/79 81/81/81
f 68/68/68 82/82/82 76/76/76
f 68/68/68 69/69/69 82/82/82
f 77/77/77 83/83/83 78/78/78
f 78/78/78 83/83/83 84/84/84
f 76/76/76 85/85/85 77/77/77
f 76/76/76 82/82/82 85/85/85
f 77/77/77 85/85/85 83/83/83
f 79/79/79 80/80/80 86/86/86
f 80/80/80 87/87/87 86/86/86
f 69/69/69 88/88/88 82/82/82
f 69/69/69 70/70/70 88/88/88
f 83/83/83 89/89/89 84/84/84
f 84/84/84 89/89/89 90/90/90
f 85/85/85 91/91/91 83/83/83
f 83/83/83 91/91/91 89/89/89
f 82/82/82 92/92/92 85/85/85
f 82/82/82 88/88/88 92/92/92
f 85/85/85 92/92/92 91/91/91
f 70/70/70 93/93/93 88/88/88
f 70/70/70 71/71/71 93/93/93
f 71/71/71 81/81/81 93/93/93
f 89/89/89 94/94/94 90/90/90
f 90/90/90 94/94/94 95/95/95
f 91/91/91 96/96/96 89/89/89
f 89/89/89 96/96/96 94/94/94
f 88/88/88 97/97/97 92/92/92
f 88/88/88 93/93/93 97/97/97
f 92/92/92 98/98/98 91/91/91
f 91/91/91 98/98/98 96/96/96
f 92/92/92 97/97/97 98/98/98
f 93/93/93 81/81/81 99/99/99
f 93/93/93 99/99/99 97/97/97
f 94/94/94 100/100/100 95/95/95
f 95/95/95 100/100/100 101/101/101
f 96/96/96 102/102/102 94/94/94
f 94/94/94 102/102/102 100/100/100
f 97/97/97 103/103/103 98/98/98
f 97/97/97 99/99/99 103/103/103
f 98/98/98 104/104/104 96/96/96
f 96/96/96 104/104/104 102/102/102
f 98/98/98 103/103/103 104/104/104
f 81/81/81 105/105/105 99/99/99
f 81/81/81 79/79/79 105/105/105
f 79/79/79 86/86/86 105/105/105
f 100/100/100 106/106/106 101/101/101
f 101/101/101 106/106/106 107/107/107
f 102/102/102 108/108/108 100/100/100
f 100/100/100 108/108/108 106/106/106
f 104/104/104 109/109/109 102/102/102
f 102/102/102 109/109/109 108/108/108
f 103/103/103 110/110/110 104/104/104
f 104/104/104 110/110/110 109/109/109
f 99/99/99 111/111/111 103/103/103
f 99/99/99 105/105/105 111/111/111
f 103/103/103 111/111/111 110/110/110
f 105/105/105 86/86/86 112/112/112
f 105/105/105 112/112/112 111/111/111
f 106/106/106 113/113/113 107/107/107
f 107/107/107 113/113/113 114/114/114
f 113/113/113 115/115/115 114/114/114
f 108/108/108 116/116/116 106/106/106
f 106/106/106 116/116/116 113/113/113
f 113/113/113 117/117/117 115/115/115
f 116/116/116 117/117/117 113/113/113
f 117/117/117 118/118/118 115/115/115
f 111/111/111 119/119/119 110/110/110
f 111/111/111 112/112/112 119/119/119
f 86/86/86 120/120/120 112/112/112
f 86/86/86 87/87/87 120/120/120
f 87/87/87 121/121/121 120/120/120
f 108/108/108 122/122/122 116/116/116
f 109/109/109 122/122/122 108/108/108
f 110/110/110 123/123/123 109/109/109
f 110/110/110 119/119/119 123/123/123
f 109/109/109 123/123/123 122/122/122
f 117/117/117 124/124/124 118/118/118
f 124/124/124 125/125/125 118/118/118
f 116/116/116 126/126/126 117/117/117
f 122/122/122 126/126/126 116/116/116
f 126/126/126 124/124/124 117/117/117
f 120/120/120 121/121/121 127/127/127
f 121/121/121 128/128/128 127/127/127
f 123/123/123 129/129/129 122/122/122
f 122/122/122 129/129/129 126/126/126
f 119/119/119 130/130/130 123/123/123
f 123/123/123 130/130/130 129/129/129
f 124/124/124 131/131/131 125/125/125
f 131/131/131 132/132/132 125/125/125
f 126/126/126 133/133/133 124/124/124
f 129/129/129 133/133/133 126/126/126
f 133/133/133 131/131/131 124/124/124
f 131/131/131 134/134/134 132/132/132
f 134/134/134 135/135/135 132/132/132
f 129/129/129 136/136/136 133/133/133
f 130/130/130 136/136/136 129/129/129
f 133/133/133 137/137/137 131/131/131
f 137/137/137 134/134/134 131/131/131
f 136/136/136 137/137/137 133/133/133
f 119/119/119 138/138/138 130/130/130
f 112/112/112 138/138/138 119/119/119
f 112/112/112 120/120/120 138/138/138
f 120/120/120 127/127/127 138/138/138
f 138/138/138 139/139/139 130/130/130
f 130/130/130 139/139/139 136/136/136
f 138/138/138 127/127/127 139/139/139
f 134/134/134 140/140/140 135/135/135
f 140/140/140 141/141/141 135/135/135
f 136/136/136 142/142/142 137/137/137
f 139/139/139 142/142/142 136/136/136
f 127/127/127 143/143/143 139/139/139
f 139/139/139 143/143/143 142/142/142
f 127/127/127 128/128/128 143/143/143
f 128/128/128 144/144/144 143/143/143
f 137/137/137 145/145/145 134/134/134
f 142/142/142 145/145/145 137/137/137
f 145/145/145 140/140/140 134/134/134
f 143/143/143 146/146/146 142/142/142
f 143/143/143 144/144/144 146/146/146
f 142/142/142 146/146/146 145/145/145
f 144/144/144 147/147/147 146/146/146
f 146/146/146 148/148/148 145/145/145
f 146/146/146 147/147/147 148/148/148
f 145/145/145 148/148/148 140/140/140
f 147/147/147 149/149/149 148/148/148
f 140/140/140 150/150/150 141/141/141
f 148/148/148 150/150/150 140/140/140
f 148/148/148 149/149/149 150/150/150
f 150/150/150 151/151/151 141/141/141
f 149/149/149 152/152/152 150/150/150
f 150/150/150 152/152/152 151/151/151
f 152/152/152 153/153/153 151/151/151
