g Weapon_b_sp_Mesh
v 0.34175628 1.1842428 -0.034865506
v 0.34175628 1.1842428 0.034865506
v 0.3145739 1.1955022 0.034865506
v 0.3145739 1.1955022 -0.034865506
v 0.28739154 1.1842428 0.034865506
v 0.28739154 1.1842428 -0.034865506
v 0.27613223 1.1570605 0.034865506
v 0.27613223 1.1570605 -0.034865506
v 0.28739154 1.1298779 0.034865506
v 0.28739154 1.1298779 -0.034865506
v 0.3145739 1.1186187 0.034865506
v 0.3145739 1.1186187 -0.034865506
v 0.34175628 1.1298779 0.034865506
v 0.34175628 1.1298779 -0.034865506
v 0.35301557 1.1570605 0.034865506
v 0.35301557 1.1570605 -0.034865506
v 0.34175628 1.1842428 0.034865506
v 0.34175628 1.1842428 -0.034865506
v 0.36678362 1.542827 -0.01055333
v 0.35648307 1.542827 -0.01055333
v 0.38933384 1.3800535 -0.02028078
v 0.32480356 1.2513349 -0.028444666
v 0.3961579 1.2254983 -0.028444666
v 0.38730395 1.1891205 -0.02844466
v 0.21323586 1.1070247 -0.028444665
v 0.29755542 1.0335327 -0.028444665
v 0.16961637 0.7873317 -0.028444666
v 0.085603274 0.81150746 -0.028444666
v 0.0067321584 0.5359841 -0.022724446
v 0.05356882 0.51633567 -0.022724446
v -0.037007313 -6.7949294E-08 -0.015199829
v -0 -6.7949294E-08 -0.015199829
v 0.05356882 0.51633567 0.0136352945
v -0 -6.7949294E-08 0.009120315
v -0.037007313 -6.7949294E-08 0.009120315
v 0.0067321584 0.5359841 0.013635282
v 0.16961637 0.7873317 0.01706758
v 0.085603274 0.81150746 0.01706758
v 0.21323586 1.1070247 0.01706758
v 0.29755542 1.0335327 0.01706758
v 0.38730395 1.1891205 0.01706758
v 0.32480356 1.2513349 0.01706758
v 0.3961579 1.2254983 0.01706758
v 0.38933384 1.3800535 0.012169023
v 0.35648307 1.542827 0.0063322997
v 0.36678362 1.542827 0.0063322997
v 0.05356882 0.51633567 -0.022724446
v -0 -6.7949294E-08 -0.015199829
v -0 -6.7949294E-08 0.009120315
v 0.05356882 0.51633567 0.0136352945
v 0.16961637 0.7873317 -0.028444666
v 0.16961637 0.7873317 0.01706758
v 0.29755542 1.0335327 -0.028444665
v 0.29755542 1.0335327 0.01706758
v 0.38730395 1.1891205 -0.02844466
v 0.38730395 1.1891205 0.01706758
v 0.3961579 1.2254983 0.01706758
v 0.3961579 1.2254983 -0.028444666
v 0.38933384 1.3800535 -0.02028078
v 0.38933384 1.3800535 0.012169023
v 0.36678362 1.542827 -0.01055333
v 0.36678362 1.542827 0.0063322997
v 0.35648307 1.542827 -0.01055333
v 0.36678362 1.542827 -0.01055333
v 0.36678362 1.542827 0.0063322997
v 0.35648307 1.542827 0.0063322997
v -0 -6.7949294E-08 -0.015199829
v -0.037007313 -6.7949294E-08 -0.015199829
v -0.037007313 -6.7949294E-08 0.009120315
v -0 -6.7949294E-08 0.009120315
v 0.0067321584 0.5359841 -0.022724446
v -0.037007313 -6.7949294E-08 0.009120315
v -0.037007313 -6.7949294E-08 -0.015199829
v 0.0067321584 0.5359841 0.013635282
v 0.085603274 0.81150746 0.01706758
v 0.085603274 0.81150746 -0.028444666
v 0.21323586 1.1070247 0.01706758
v 0.21323586 1.1070247 -0.028444665
v 0.32480356 1.2513349 -0.028444666
v 0.32480356 1.2513349 0.01706758
v 0.35648307 1.542827 -0.01055333
v 0.35648307 1.542827 0.0063322997
v 0.2623642 1.542827 0.01055333
v 0.2726648 1.542827 0.01055333
v 0.23981397 1.3800535 0.02028078
v 0.30434427 1.2513349 0.028444666
v 0.23298992 1.2254983 0.028444666
v 0.24184386 1.1891205 0.02844466
v 0.41591197 1.1070247 0.028444665
v 0.3315924 1.0335327 0.028444665
v 0.45953146 0.7873317 0.028444666
v 0.54354453 0.81150746 0.028444666
v 0.6224157 0.5359841 0.022724446
v 0.575579 0.51633567 0.022724446
v 0.66615516 -6.7949294E-08 0.015199829
v 0.6291478 -6.7949294E-08 0.015199829
v 0.575579 0.51633567 -0.0136352945
v 0.6291478 -6.7949294E-08 -0.009120315
v 0.66615516 -6.7949294E-08 -0.009120315
v 0.6224157 0.5359841 -0.013635282
v 0.45953146 0.7873317 -0.01706758
v 0.54354453 0.81150746 -0.01706758
v 0.41591197 1.1070247 -0.01706758
v 0.3315924 1.0335327 -0.01706758
v 0.24184386 1.1891205 -0.01706758
v 0.30434427 1.2513349 -0.01706758
v 0.23298992 1.2254983 -0.01706758
v 0.23981397 1.3800535 -0.012169023
v 0.2726648 1.542827 -0.0063322997
v 0.2623642 1.542827 -0.0063322997
v 0.575579 0.51633567 0.022724446
v 0.6291478 -6.7949294E-08 0.015199829
v 0.6291478 -6.7949294E-08 -0.009120315
v 0.575579 0.51633567 -0.0136352945
v 0.45953146 0.7873317 0.028444666
v 0.45953146 0.7873317 -0.01706758
v 0.3315924 1.0335327 0.028444665
v 0.3315924 1.0335327 -0.01706758
v 0.24184386 1.1891205 0.02844466
v 0.24184386 1.1891205 -0.01706758
v 0.23298992 1.2254983 -0.01706758
v 0.23298992 1.2254983 0.028444666
v 0.23981397 1.3800535 0.02028078
v 0.23981397 1.3800535 -0.012169023
v 0.2623642 1.542827 0.01055333
v 0.2623642 1.542827 -0.0063322997
v 0.2726648 1.542827 0.01055333
v 0.2623642 1.542827 0.01055333
v 0.2623642 1.542827 -0.0063322997
v 0.2726648 1.542827 -0.0063322997
v 0.6291478 -6.7949294E-08 0.015199829
v 0.66615516 -6.7949294E-08 0.015199829
v 0.66615516 -6.7949294E-08 -0.009120315
v 0.6291478 -6.7949294E-08 -0.009120315
v 0.6224157 0.5359841 0.022724446
v 0.66615516 -6.7949294E-08 -0.009120315
v 0.66615516 -6.7949294E-08 0.015199829
v 0.6224157 0.5359841 -0.013635282
v 0.54354453 0.81150746 -0.01706758
v 0.54354453 0.81150746 0.028444666
v 0.41591197 1.1070247 -0.01706758
v 0.41591197 1.1070247 0.028444665
v 0.30434427 1.2513349 0.028444666
v 0.30434427 1.2513349 -0.01706758
v 0.2726648 1.542827 0.01055333
v 0.2726648 1.542827 -0.0063322997
v 0.34175628 1.1298779 0.034865506
v 0.3145739 1.1570605 0.034865506
v 0.35301557 1.1570605 0.034865506
v 0.3145739 1.1186187 0.034865506
v 0.34175628 1.1842428 0.034865506
v 0.28739154 1.1298779 0.034865506
v 0.3145739 1.1955022 0.034865506
v 0.27613223 1.1570605 0.034865506
v 0.28739154 1.1842428 0.034865506
v 0.35301557 1.1570605 -0.034865506
v 0.3145739 1.1570605 -0.034865506
v 0.34175628 1.1298779 -0.034865506
v 0.34175628 1.1842428 -0.034865506
v 0.3145739 1.1186187 -0.034865506
v 0.3145739 1.1955022 -0.034865506
v 0.28739154 1.1298779 -0.034865506
v 0.28739154 1.1842428 -0.034865506
v 0.27613223 1.1570605 -0.034865506
vt 0.07323685 0.7884374
vt 0.0176811 0.7884374
vt 0.017681055 0.8128513
vt 0.07323693 0.8128513
vt 0.017681055 0.8362888
vt 0.07323693 0.8362888
vt 0.017681055 0.8597263
vt 0.07323693 0.8597263
vt 0.017681055 0.8841404
vt 0.07323693 0.8841404
vt 0.017681055 0.9075779
vt 0.07323693 0.9075779
vt 0.017681055 0.93101543
vt 0.07323693 0.93101543
vt 0.017681055 0.95542943
vt 0.07323693 0.95542943
vt 0.017681114 0.9788668
vt 0.07323687 0.9788668
vt 0.09431371 0.5176244
vt 0.09146544 0.5184448
vt 0.11457712 0.56284463
vt 0.10659589 0.6056934
vt 0.12963612 0.60699815
vt 0.1303167 0.61783034
vt 0.086403795 0.65673447
vt 0.11805733 0.66934556
vt 0.10781222 0.749241
vt 0.08220591 0.75153047
vt 0.0923507 0.8336384
vt 0.1065798 0.8353006
vt 0.11216633 0.97941077
vt 0.12184713 0.9772581
vt 0.15649313 0.66497254
vt 0.17537367 0.50845724
vt 0.16577737 0.50540125
vt 0.14224334 0.66669255
vt 0.15650605 0.7518823
vt 0.13095261 0.74924725
vt 0.13318463 0.8458066
vt 0.16509537 0.8314823
vt 0.1762863 0.883877
vt 0.15231802 0.8963366
vt 0.1753811 0.89525104
vt 0.15941401 0.93890846
vt 0.13538496 0.98271513
vt 0.1382075 0.9835559
vt 0.20021625 0.66848063
vt 0.19746077 0.5175898
vt 0.1885549 0.5175653
vt 0.18690154 0.66839474
vt 0.20231102 0.75246173
vt 0.18564461 0.7523066
vt 0.20231107 0.8295342
vt 0.18564457 0.8292182
vt 0.20231077 0.87974244
vt 0.18564427 0.8794251
vt 0.18564452 0.8893724
vt 0.20231111 0.88962805
vt 0.19932145 0.9344965
vt 0.18743843 0.93434715
vt 0.19575928 0.98425865
vt 0.18957582 0.98421526
vt 0.19575915 0.99296933
vt 0.19575928 0.98425865
vt 0.18957582 0.98421526
vt 0.18957594 0.9929533
vt 0.22246109 0.5193445
vt 0.22246106 0.5291101
vt 0.23136704 0.5291101
vt 0.23136699 0.5193445
vt 0.21970558 0.6869148
vt 0.23136704 0.5291101
vt 0.22246106 0.5291101
vt 0.23302037 0.6869148
vt 0.23427731 0.76956606
vt 0.21761082 0.76956606
vt 0.23427735 0.8588519
vt 0.21761076 0.8588519
vt 0.2176108 0.9085705
vt 0.23427731 0.9085705
vt 0.2241626 0.9914979
vt 0.23034602 0.9914979
vt 0.09431371 0.5176244
vt 0.09146544 0.5184448
vt 0.11457712 0.56284463
vt 0.10659589 0.6056934
vt 0.12963612 0.60699815
vt 0.1303167 0.61783034
vt 0.086403795 0.65673447
vt 0.11805733 0.66934556
vt 0.10781222 0.749241
vt 0.08220591 0.75153047
vt 0.0923507 0.8336384
vt 0.1065798 0.8353006
vt 0.11216633 0.97941077
vt 0.12184713 0.9772581
vt 0.15649313 0.66497254
vt 0.17537367 0.50845724
vt 0.16577737 0.50540125
vt 0.14224334 0.66669255
vt 0.15650605 0.7518823
vt 0.13095261 0.74924725
vt 0.13318463 0.8458066
vt 0.16509537 0.8314823
vt 0.1762863 0.883877
vt 0.15231802 0.8963366
vt 0.1753811 0.89525104
vt 0.15941401 0.93890846
vt 0.13538496 0.98271513
vt 0.1382075 0.9835559
vt 0.20021625 0.66848063
vt 0.19746077 0.5175898
vt 0.1885549 0.5175653
vt 0.18690154 0.66839474
vt 0.20231102 0.75246173
vt 0.18564461 0.7523066
vt 0.20231107 0.8295342
vt 0.18564457 0.8292182
vt 0.20231077 0.87974244
vt 0.18564427 0.8794251
vt 0.18564452 0.8893724
vt 0.20231111 0.88962805
vt 0.19932145 0.9344965
vt 0.18743843 0.93434715
vt 0.19575928 0.98425865
vt 0.18957582 0.98421526
vt 0.19575915 0.99296933
vt 0.19575928 0.98425865
vt 0.18957582 0.98421526
vt 0.18957594 0.9929533
vt 0.22246109 0.5193445
vt 0.22246106 0.5291101
vt 0.23136704 0.5291101
vt 0.23136699 0.5193445
vt 0.21970558 0.6869148
vt 0.23136704 0.5291101
vt 0.22246106 0.5291101
vt 0.23302037 0.6869148
vt 0.23427731 0.76956606
vt 0.21761082 0.76956606
vt 0.23427735 0.8588519
vt 0.21761076 0.8588519
vt 0.2176108 0.9085705
vt 0.23427731 0.9085705
vt 0.2241626 0.9914979
vt 0.23034602 0.9914979
vt 0.04780476 0.69582784
vt 0.04004386 0.70349115
vt 0.05109216 0.7034911
vt 0.040064488 0.6925404
vt 0.04780476 0.71115446
vt 0.032241773 0.69582784
vt 0.040064488 0.71444184
vt 0.029036812 0.7034911
vt 0.032241773 0.71115446
vt 0.05109216 0.7034911
vt 0.04004386 0.7034911
vt 0.04780476 0.71115446
vt 0.04780476 0.69582784
vt 0.040064488 0.71444184
vt 0.040064488 0.6925404
vt 0.032241773 0.71115446
vt 0.032241773 0.69582784
vt 0.029036812 0.7034911
vn 0.70710695 0.7071066 0
vn 0.70710695 0.7071066 0
vn -0 1 0
vn -0 1 0
vn -0.70710665 0.7071068 0
vn -0.70710665 0.7071068 0
vn -1 0 0
vn -1 0 0
vn -0.7071074 -0.7071061 0
vn -0.7071074 -0.7071061 0
vn -0 -1 0
vn -0 -1 0
vn 0.70710766 -0.7071059 0
vn 0.70710766 -0.7071059 0
vn 1 0 0
vn 1 0 0
vn 0.70710695 0.7071066 0
vn 0.70710695 0.7071066 0
vn -0 0.059654366 -0.9982191
vn 0.0034468924 0.06034714 -0.99817145
vn 0.0070464117 0.059767943 -0.99818736
vn 0.0073651103 0.025708126 -0.9996424
vn 0.0141702015 0.039134566 -0.9991335
vn -0 0 -1
vn -0 0 -1
vn -0 0 -1
vn -0.002256548 -0.0067376033 -0.9999747
vn -0.0026828686 -0.008010497 -0.99996436
vn -0.0049035014 -0.01655529 -0.99985087
vn -0.0045595192 -0.016013118 -0.99986136
vn -0.0032799272 -0.013996233 -0.99989665
vn -0.0032799272 -0.013996233 -0.99989665
vn -0.0027361899 -0.009609137 0.9999502
vn -0.0019683274 -0.008398659 0.9999628
vn -0.0019683274 -0.008398658 0.9999628
vn -0.002942634 -0.009934577 0.99994636
vn -0.0013540406 -0.0040427824 0.99999094
vn -0.0016098713 -0.0048066215 0.9999871
vn -0 0 1
vn -0 0 1
vn -0 0 1
vn 0.0044198916 0.015431242 0.99987113
vn 0.008506502 0.023492869 0.9996878
vn 0.0042342413 0.035903376 0.9993463
vn 0.002071624 0.036252424 0.9993405
vn -0 0.035834886 0.99935776
vn 0.9723947 -0.23334208 0
vn 0.9946613 -0.10319415 0
vn 0.9946613 -0.10319416 0
vn 0.97254455 -0.23271675 0
vn 0.90346915 -0.42865315 0
vn 0.903509 -0.42856905 0
vn 0.8792443 -0.47637108 0
vn 0.8792443 -0.47637108 0
vn 0.8895189 -0.4568983 0
vn 0.8895189 -0.4568983 0
vn 0.9998229 -0.018823937 0
vn 0.9998098 -0.019504108 0
vn 0.9967918 0.08003746 0
vn 0.9967409 0.08067052 0
vn 0.99053967 0.13722672 0
vn 0.99053967 0.13722669 0
vn -0 1 0
vn -0 1 0
vn -0 1 0
vn -0 1 0
vn -0 -1 0
vn -0 -1 0
vn -0 -1 0
vn -0 -1 0
vn -0.9864225 0.16422774 0
vn -0.99668676 0.08133551 0
vn -0.99668676 0.08133551 0
vn -0.9864907 0.16381711 0
vn -0.93915534 0.34349257 0
vn -0.9390992 0.3436461 0
vn -0.87848735 0.47776562 0
vn -0.87848735 0.47776562 0
vn -0.930475 0.36635533 0
vn -0.9312982 0.3642575 0
vn -0.9941461 0.10804421 0
vn -0.994146 0.10804421 0
vn -0 0.059654146 0.9982191
vn -0.0034468884 0.060347017 0.99817157
vn -0.0070464066 0.059767865 0.99818736
vn -0.0073651103 0.025708126 0.9996424
vn -0.014170204 0.039134566 0.9991335
vn -0 0 1
vn -0 0 1
vn -0 0 1
vn 0.0022565485 -0.0067376047 0.9999747
vn 0.0026828682 -0.008010498 0.99996436
vn 0.004903499 -0.01655529 0.99985087
vn 0.004559516 -0.016013116 0.99986136
vn 0.0032799237 -0.0139962295 0.99989665
vn 0.0032799237 -0.0139962295 0.99989665
vn 0.0027361887 -0.009609131 -0.9999502
vn 0.0019683256 -0.008398647 -0.9999628
vn 0.0019683253 -0.008398647 -0.9999628
vn 0.0029426317 -0.0099345725 -0.99994636
vn 0.0013540407 -0.004042783 -0.99999094
vn 0.0016098712 -0.004806622 -0.9999871
vn -0 0 -1
vn -0 0 -1
vn -0 0 -1
vn -0.004419891 0.015431238 -0.99987113
vn -0.008506502 0.02349287 -0.9996878
vn -0.004234238 0.035903323 -0.9993463
vn -0.0020716214 0.03625242 -0.9993405
vn -0 0.035834998 -0.99935776
vn -0.9723947 -0.23334205 0
vn -0.9946613 -0.10319413 0
vn -0.9946613 -0.10319414 0
vn -0.97254455 -0.23271674 0
vn -0.90346915 -0.42865312 0
vn -0.903509 -0.42856893 0
vn -0.8792443 -0.47637102 0
vn -0.8792443 -0.47637102 0
vn -0.8895189 -0.45689842 0
vn -0.8895189 -0.45689842 0
vn -0.9998229 -0.018823966 0
vn -0.9998098 -0.019504135 0
vn -0.9967918 0.08003752 0
vn -0.9967409 0.080670565 0
vn -0.99053967 0.13722707 0
vn -0.99053967 0.13722707 0
vn -0 1 0
vn -0 1 0
vn -0 1 0
vn -0 1 0
vn -0 -1 0
vn -0 -1 0
vn -0 -1 0
vn -0 -1 0
vn 0.9864225 0.16422781 0
vn 0.99668676 0.08133539 0
vn 0.99668676 0.08133539 0
vn 0.9864907 0.16381717 0
vn 0.93915534 0.34349257 0
vn 0.9390992 0.3436461 0
vn 0.8784874 0.47776553 0
vn 0.8784874 0.47776553 0
vn 0.930475 0.36635545 0
vn 0.9312982 0.3642576 0
vn 0.9941461 0.10804421 0
vn 0.994146 0.10804421 0
vn -0 0 1
vn -0 0 1
vn -0 0 1
vn -0 0 1
vn -0 0 1
vn -0 0 1
vn -0 0 1
vn -0 0 1
vn -0 0 1
vn -0 0 -1
vn -0 0 -1
vn -0 0 -1
vn -0 0 -1
vn -0 0 -1
vn -0 0 -1
vn -0 0 -1
vn -0 0 -1
vn -0 0 -1
g Weapon_b_sp_Mesh_0
f 3/3/3 2/2/2 1/1/1
f 4/4/4 3/3/3 1/1/1
f 5/5/5 3/3/3 4/4/4
f 6/6/6 5/5/5 4/4/4
f 7/7/7 5/5/5 6/6/6
f 8/8/8 7/7/7 6/6/6
f 9/9/9 7/7/7 8/8/8
f 10/10/10 9/9/9 8/8/8
f 11/11/11 9/9/9 10/10/10
f 12/12/12 11/11/11 10/10/10
f 13/13/13 11/11/11 12/12/12
f 14/14/14 13/13/13 12/12/12
f 15/15/15 13/13/13 14/14/14
f 16/16/16 15/15/15 14/14/14
f 17/17/17 15/15/15 16/16/16
f 18/18/18 17/17/17 16/16/16
f 21/21/21 20/20/20 19/19/19
f 20/20/20 21/21/21 22/22/22
f 22/22/22 21/21/21 23/23/23
f 22/22/22 23/23/23 24/24/24
f 24/24/24 25/25/25 22/22/22
f 25/25/25 24/24/24 26/26/26
f 25/25/25 26/26/26 27/27/27
f 28/28/28 25/25/25 27/27/27
f 28/28/28 27/27/27 29/29/29
f 27/27/27 30/30/30 29/29/29
f 31/31/31 29/29/29 30/30/30
f 32/32/32 31/31/31 30/30/30
f 35/35/35 34/34/34 33/33/33
f 36/36/36 35/35/35 33/33/33
f 33/33/33 37/37/37 36/36/36
f 37/37/37 38/38/38 36/36/36
f 39/39/39 38/38/38 37/37/37
f 40/40/40 39/39/39 37/37/37
f 41/41/41 39/39/39 40/40/40
f 42/42/42 39/39/39 41/41/41
f 41/41/41 43/43/43 42/42/42
f 44/44/44 42/42/42 43/43/43
f 45/45/45 42/42/42 44/44/44
f 45/45/45 44/44/44 46/46/46
f 49/49/49 48/48/48 47/47/47
f 50/50/50 49/49/49 47/47/47
f 50/50/50 47/47/47 51/51/51
f 52/52/52 50/50/50 51/51/51
f 52/52/52 51/51/51 53/53/53
f 54/54/54 52/52/52 53/53/53
f 54/54/54 53/53/53 55/55/55
f 56/56/56 54/54/54 55/55/55
f 56/56/56 55/55/55 57/57/57
f 55/55/55 58/58/58 57/57/57
f 57/57/57 58/58/58 59/59/59
f 60/60/60 57/57/57 59/59/59
f 60/60/60 59/59/59 61/61/61
f 62/62/62 60/60/60 61/61/61
f 65/65/65 64/64/64 63/63/63
f 66/66/66 65/65/65 63/63/63
f 69/69/69 68/68/68 67/67/67
f 70/70/70 69/69/69 67/67/67
f 73/73/73 72/72/72 71/71/71
f 72/72/72 74/74/74 71/71/71
f 74/74/74 75/75/75 71/71/71
f 75/75/75 76/76/76 71/71/71
f 75/75/75 77/77/77 76/76/76
f 77/77/77 78/78/78 76/76/76
f 79/79/79 78/78/78 77/77/77
f 80/80/80 79/79/79 77/77/77
f 79/79/79 80/80/80 81/81/81
f 80/80/80 82/82/82 81/81/81
f 85/85/85 84/84/84 83/83/83
f 84/84/84 85/85/85 86/86/86
f 86/86/86 85/85/85 87/87/87
f 86/86/86 87/87/87 88/88/88
f 88/88/88 89/89/89 86/86/86
f 89/89/89 88/88/88 90/90/90
f 89/89/89 90/90/90 91/91/91
f 92/92/92 89/89/89 91/91/91
f 92/92/92 91/91/91 93/93/93
f 91/91/91 94/94/94 93/93/93
f 95/95/95 93/93/93 94/94/94
f 96/96/96 95/95/95 94/94/94
f 99/99/99 98/98/98 97/97/97
f 100/100/100 99/99/99 97/97/97
f 97/97/97 101/101/101 100/100/100
f 101/101/101 102/102/102 100/100/100
f 103/103/103 102/102/102 101/101/101
f 104/104/104 103/103/103 101/101/101
f 105/105/105 103/103/103 104/104/104
f 106/106/106 103/103/103 105/105/105
f 105/105/105 107/107/107 106/106/106
f 108/108/108 106/106/106 107/107/107
f 109/109/109 106/106/106 108/108/108
f 109/109/109 108/108/108 110/110/110
f 113/113/113 112/112/112 111/111/111
f 114/114/114 113/113/113 111/111/111
f 114/114/114 111/111/111 115/115/115
f 116/116/116 114/114/114 115/115/115
f 116/116/116 115/115/115 117/117/117
f 118/118/118 116/116/116 117/117/117
f 118/118/118 117/117/117 119/119/119
f 120/120/120 118/118/118 119/119/119
f 120/120/120 119/119/119 121/121/121
f 119/119/119 122/122/122 121/121/121
f 121/121/121 122/122/122 123/123/123
f 124/124/124 121/121/121 123/123/123
f 124/124/124 123/123/123 125/125/125
f 126/126/126 124/124/124 125/125/125
f 129/129/129 128/128/128 127/127/127
f 130/130/130 129/129/129 127/127/127
f 133/133/133 132/132/132 131/131/131
f 134/134/134 133/133/133 131/131/131
f 137/137/137 136/136/136 135/135/135
f 136/136/136 138/138/138 135/135/135
f 138/138/138 139/139/139 135/135/135
f 139/139/139 140/140/140 135/135/135
f 139/139/139 141/141/141 140/140/140
f 141/141/141 142/142/142 140/140/140
f 143/143/143 142/142/142 141/141/141
f 144/144/144 143/143/143 141/141/141
f 143/143/143 144/144/144 145/145/145
f 144/144/144 146/146/146 145/145/145
f 149/149/149 148/148/148 147/147/147
f 147/147/147 148/148/148 150/150/150
f 151/151/151 148/148/148 149/149/149
f 150/150/150 148/148/148 152/152/152
f 153/153/153 148/148/148 151/151/151
f 152/152/152 148/148/148 154/154/154
f 155/155/155 148/148/148 153/153/153
f 154/154/154 148/148/148 155/155/155
f 158/158/158 157/157/157 156/156/156
f 156/156/156 157/157/157 159/159/159
f 160/160/160 157/157/157 158/158/158
f 159/159/159 157/157/157 161/161/161
f 162/162/162 157/157/157 160/160/160
f 161/161/161 157/157/157 163/163/163
f 164/164/164 157/157/157 162/162/162
f 163/163/163 157/157/157 164/164/164
