g Weapon_Mesh
v 0.012190348 0.07506495 -0.006889797
v 0.0074719447 0.076358214 -0.0042227777
v 1.2357787E-09 0.076358214 -0.008582444
v 2.4715574E-09 0.07506495 -0.0140026
v 0.018222397 0.061162513 -0.0102988565
v -0 0.061162513 -0.020931184
v 0.012145817 0.07506495 0.0069679855
v 0.0074719447 0.076358214 -0.0042227777
v 0.007444648 0.07635823 0.004270733
v 0.023012217 0.026790284 -0.01300599
v -0 0.026790284 -0.026433105
v 0.018155836 0.061162513 0.010415751
v 0.024923071 -0.007582099 -0.014086317
v -0 -0.007582099 -0.028628469
v 0.022928154 0.026790284 0.013153611
v 0.024113126 -0.036721405 -0.01255488
v -1.0259064E-09 -0.036721405 -0.025516147
v 0.02483204 -0.007582099 0.014246193
v 0.015081157 -0.056191854 -0.008523348
v 2.7357474E-09 -0.056191854 -0.017322771
v -0 -0.062165383 0
v 0.024031987 -0.036721405 0.012697379
v 0.015026073 -0.056191854 0.0086200945
v -0 -0.062165383 0
v -0 -0.056191854 0.017322773
v -0 -0.062165383 0
v -0 -0.036721405 0.025516147
v 2.7357474E-09 -0.007582099 0.028628469
v -0.015025733 -0.056191854 0.008620182
v -0 -0.062165383 0
v 6.8393685E-10 0.026790284 0.026433084
v -0.02403131 -0.036721405 0.012697564
v -0.02483204 -0.007582099 0.014246193
v -0 0.061162513 0.020931184
v -0.022927476 0.026790284 0.013153795
v -0 0.07506495 0.0140026
v 0.007444648 0.07635823 0.004270733
v -0 0.076358214 0.008582444
v -0.018155497 0.061162513 0.01041584
v -0.0121452 0.07506495 0.006968163
v -0 0.076358214 0.008582444
v -0.007444621 0.076357946 0.004271067
v -0.012189729 0.07506495 -0.006889969
v -0.007444621 0.076357946 0.004271067
v -0.0074718473 0.076357946 -0.0042231358
v -0.018222054 0.061162513 -0.0102989515
v -0.023011541 0.026790284 -0.0130061805
v -0.024923071 -0.007582099 -0.014086316
v -0.02411245 -0.036721405 -0.012555067
v -0.0150808245 -0.056191854 -0.008523439
v -0 -0.062165383 0
v 2.7357474E-09 -0.056191854 -0.017322771
v -0 -0.062165383 0
v -1.0259064E-09 -0.036721405 -0.025516147
v -0 -0.007582099 -0.028628469
v -0 0.026790284 -0.026433105
v -0 0.061162513 -0.020931184
v 2.4715574E-09 0.07506495 -0.0140026
v -0.0074718473 0.076357946 -0.0042231358
v 1.2357787E-09 0.076358214 -0.008582444
v 0.0074719447 0.076358214 -0.0042227777
v -0 0.11498926 -0.00858371
v 1.2357787E-09 0.076358214 -0.008582444
v 0.0074723586 0.11498926 -0.0042233244
v 0.007444648 0.07635823 0.004270733
v -6.6653944E-16 0.22758587 -0.007979209
v 0.0074450527 0.11498932 0.0042712768
v -0 0.076358214 0.008582444
v 0.0069448706 0.2275859 -0.003925743
v -1.6663481E-15 0.3964807 -0.007072457
v -0 0.11498926 0.00858371
v -0.007444621 0.076357946 0.004271067
v 0.006153638 0.39648074 -0.0034793713
v 7.787009E-08 0.5649443 -0.0030137342
v 0.0026211857 0.5649443 -0.0014825031
v 0.0069194906 0.22758593 0.003970308
v 0.0061311475 0.39648074 0.0035188561
v 0.0026116052 0.5649443 0.001499315
v -0.0074447556 0.11498926 0.004271342
v -0.0074718473 0.076357946 -0.0042231358
v 6.17889E-10 0.22758587 0.007979206
v 1.544722E-09 0.3964807 0.007072451
v 7.906832E-08 0.5649443 0.003013725
v -0.007472054 0.11498926 -0.0042234086
v 1.2357787E-09 0.076358214 -0.008582444
v -0 0.11498926 -0.00858371
v -0.0069191908 0.22758587 0.003970378
v -0.0061308444 0.3964807 0.0035189325
v -0.0026112988 0.5649443 0.0014993555
v -0.0069445656 0.22758587 -0.0039258287
v -6.6653944E-16 0.22758587 -0.007979209
v -0.0061533344 0.3964807 -0.0034794589
v -1.6663481E-15 0.3964807 -0.007072457
v -0.0026208817 0.5649443 -0.0014825474
v 7.787009E-08 0.5649443 -0.0030137342
v 3.7298612E-08 0.56708276 -0.0014911768
v 0.0026211857 0.5649443 -0.0014825031
v -0.0014894125 0.56708306 1.12643356E-07
v -0.0026112988 0.5649443 0.0014993555
v 0.0014897329 0.56708306 1.1256863E-07
v 0.0026116052 0.5649443 0.001499315
v 3.7298612E-08 0.56708276 0.0014914004
v 7.906832E-08 0.5649443 0.003013725
v 3.0856345E-08 0.5678526 -3.657318E-09
vt 0.32192945 0.80067545
vt 0.3220867 0.8032133
vt 0.32587296 0.8050174
vt 0.32821232 0.8035515
vt 0.32515877 0.79393137
vt 0.333799 0.7976244
vt 0.3144948 0.7988802
vt 0.31970817 0.8025255
vt 0.31532955 0.80140084
vt 0.32983077 0.7780834
vt 0.3416806 0.7805987
vt 0.31582528 0.792227
vt 0.3311193 0.76185286
vt 0.3442403 0.76183355
vt 0.31806672 0.77688193
vt 0.32883245 0.7483577
vt 0.34109068 0.7458169
vt 0.3187244 0.7618148
vt 0.32622743 0.7386807
vt 0.3346091 0.736378
vt 0.32792914 0.73038787
vt 0.31823468 0.7490281
vt 0.31666416 0.7390107
vt 0.32081163 0.7312692
vt 0.30664062 0.7398035
vt 0.31084347 0.73187524
vt 0.30659175 0.7487705
vt 0.30638105 0.76172775
vt 0.29664898 0.7391261
vt 0.3024624 0.7319336
vt 0.3063066 0.77654004
vt 0.29499835 0.7487125
vt 0.29413617 0.76158845
vt 0.30633324 0.7918033
vt 0.29453546 0.77684677
vt 0.3063957 0.7987689
vt 0.3127885 0.80114126
vt 0.30803722 0.80107546
vt 0.29675877 0.79236376
vt 0.29828203 0.79952264
vt 0.30504775 0.80115926
vt 0.30029917 0.801651
vt 0.290689 0.8005406
vt 0.29720193 0.80193716
vt 0.2927258 0.8026101
vt 0.28765565 0.7939476
vt 0.28293085 0.77794003
vt 0.2816398 0.7615196
vt 0.28421772 0.74799174
vt 0.2871241 0.7378521
vt 0.29350394 0.73106045
vt 0.27866417 0.73564804
vt 0.28531855 0.7295857
vt 0.27213824 0.7451951
vt 0.26904094 0.7612728
vt 0.27094257 0.7802104
vt 0.27848542 0.7976776
vt 0.28435397 0.8037349
vt 0.29060042 0.80309004
vt 0.28681087 0.8050822
vt 0.87024754 0.008787774
vt 0.8742508 0.026756622
vt 0.8742645 0.008794829
vt 0.87023765 0.026717559
vt 0.86630106 0.008782424
vt 0.8734081 0.078996316
vt 0.8662971 0.026694536
vt 0.8623028 0.008781292
vt 0.869678 0.07895733
vt 0.87214404 0.15735583
vt 0.862306 0.02668687
vt 0.85830504 0.00878495
vt 0.86883855 0.15731694
vt 0.87088 0.2357153
vt 0.8679991 0.23567653
vt 0.86601496 0.07893435
vt 0.86559176 0.15729403
vt 0.86516863 0.2356537
vt 0.8583152 0.02669441
vt 0.8543593 0.008792363
vt 0.8623052 0.07892671
vt 0.8623041 0.15728645
vt 0.862303 0.23564616
vt 0.8543746 0.026717313
vt 0.8503449 0.008801393
vt 0.85036117 0.026756354
vt 0.85859567 0.07893425
vt 0.8590164 0.15729399
vt 0.85943717 0.2356537
vt 0.8549326 0.07895711
vt 0.8512008 0.07899615
vt 0.85576963 0.15731677
vt 0.8524604 0.1573558
vt 0.85660666 0.23567641
vt 0.85371983 0.23571542
vt 0.85451245 0.23723459
vt 0.8520361 0.23850682
vt 0.8563337 0.23773205
vt 0.8583419 0.23838684
vt 0.85402 0.23914465
vt 0.8536441 0.24121872
vt 0.8558995 0.23963782
vt 0.8568016 0.24114755
vt 0.8551914 0.23843727
vn 0.7334473 0.5302202 -0.42534885
vn 0.20068885 0.9726898 -0.11661238
vn 6.3921343E-06 0.9726969 -0.23207942
vn 3.8247317E-06 0.5297996 -0.8481229
vn 0.8439839 0.2207033 -0.48885712
vn 3.543033E-06 0.2206156 -0.9753609
vn 0.73206896 0.53036904 0.42753214
vn 0.20068885 0.9726898 -0.11661238
vn 0.20035693 0.9726916 0.11716721
vn 0.8604923 0.10603497 -0.49830672
vn 2.612927E-06 0.10602869 -0.99436307
vn 0.84240574 0.22073957 0.4915552
vn 0.8588894 0.00642142 -0.5121208
vn 1.9060504E-06 -0.0058955196 -0.9999826
vn 0.8588757 0.10604277 0.5010863
vn 0.8467513 -0.19018292 -0.4968327
vn 2.3702087E-06 -0.1950234 -0.98079866
vn 0.85720265 0.0064074956 0.5149394
vn 0.7095164 -0.5485788 -0.4423209
vn 2.8864201E-06 -0.5190126 -0.85476655
vn -6.8712916E-07 -0.99999976 -0.0007063679
vn 0.8451575 -0.1902325 0.49952018
vn 0.7080173 -0.5487458 0.44451043
vn -6.8712916E-07 -0.99999976 -0.0007063679
vn 2.7486503E-06 -0.5192252 0.8546375
vn -6.8712916E-07 -0.99999976 -0.0007063679
vn 2.3503649E-06 -0.19514221 0.980775
vn 1.9126226E-06 -0.0059705684 0.99998224
vn -0.7080281 -0.5487393 0.44450134
vn -6.8712916E-07 -0.99999976 -0.0007063679
vn 2.5822847E-06 0.10603823 0.994362
vn -0.84515834 -0.19023876 0.49951646
vn -0.8572089 0.006408009 0.5149289
vn 3.4477116E-06 0.22067523 0.9753474
vn -0.85887825 0.10604676 0.501081
vn 3.745894E-06 0.5300699 0.847954
vn 0.20035693 0.9726916 0.11716721
vn 6.4120195E-06 0.97269654 0.23208047
vn -0.8424142 0.22073674 0.49154207
vn -0.7320729 0.5303715 0.42752245
vn 6.4120195E-06 0.97269654 0.23208047
vn -0.20034635 0.9726952 0.11715597
vn -0.73345125 0.53022254 -0.425339
vn -0.20034635 0.9726952 0.11715597
vn -0.20067781 0.97269315 -0.11660419
vn -0.8439922 0.22070053 -0.48884407
vn -0.86049485 0.10603897 -0.49830145
vn -0.85889566 0.0064219306 -0.51211023
vn -0.84675205 -0.19018915 -0.49682897
vn -0.7095271 -0.5485723 -0.4423118
vn -6.8712916E-07 -0.99999976 -0.0007063679
vn 2.8864201E-06 -0.5190126 -0.85476655
vn -6.8712916E-07 -0.99999976 -0.0007063679
vn 2.3702087E-06 -0.1950234 -0.98079866
vn 1.9060504E-06 -0.0058955196 -0.9999826
vn 2.612927E-06 0.10602869 -0.99436307
vn 3.543033E-06 0.2206156 -0.9753609
vn 3.8247317E-06 0.5297996 -0.8481229
vn -0.20067781 0.97269315 -0.11660419
vn 6.3921343E-06 0.9726969 -0.23207942
vn 0.8653394 -1.9428782E-05 -0.5011864
vn 7.99718E-06 0.0039551966 -0.99999225
vn 8.071285E-06 -2.4031193E-05 -1
vn 0.8653546 0.003959164 -0.50114447
vn 0.86372393 -1.9352521E-05 0.50396526
vn 6.16698E-06 0.0053729936 -0.9999856
vn 0.86373854 0.003959331 0.5039246
vn 6.517635E-06 -2.3695737E-05 1
vn 0.8653819 0.0053762374 -0.50108397
vn 7.0717133E-06 0.012828885 -0.99991775
vn 6.155001E-06 0.003955304 0.99999225
vn -0.86373657 -1.3051974E-05 0.5039436
vn 0.86537236 0.012827432 -0.5009652
vn 7.5640733E-06 0.02617954 -0.9996573
vn 0.86514324 0.026015012 -0.5008496
vn 0.8637669 0.0053764097 0.5038628
vn 0.86375654 0.012827927 0.50374603
vn 0.86353415 0.026019752 0.50361866
vn -0.8637492 0.003960954 0.5039063
vn -0.86535037 -1.3339727E-05 -0.5011675
vn 4.950084E-06 0.005373015 0.9999856
vn 6.0883613E-06 0.012829134 0.99991775
vn 6.673197E-06 0.026182106 0.99965715
vn -0.86536473 0.003960745 -0.50112677
vn 8.071285E-06 -2.4031193E-05 -1
vn 7.99718E-06 0.0039551966 -0.99999225
vn -0.8637784 0.005376399 0.5038433
vn -0.86376876 0.012827946 0.5037251
vn -0.86354744 0.026019799 0.50359577
vn -0.865393 0.005376228 -0.50106496
vn 6.16698E-06 0.0053729936 -0.9999856
vn -0.8653844 0.012827459 -0.5009445
vn 7.0717133E-06 0.012828885 -0.99991775
vn -0.86515635 0.026015082 -0.5008271
vn 7.5640733E-06 0.02617954 -0.9996573
vn 2.2497485E-07 0.70689195 -0.70732164
vn 0.86514324 0.026015012 -0.5008496
vn -0.6941393 0.71984076 9.545177E-05
vn -0.86354744 0.026019799 0.50359577
vn 0.6941102 0.7198688 8.434527E-05
vn 0.86353415 0.026019752 0.50361866
vn -4.7725104E-07 0.7078639 0.70634884
vn 6.673197E-06 0.026182106 0.99965715
vn 5.5312858E-06 1 -2.0196521E-05
g Weapon_Mesh_0
f 3/3/3 2/2/2 1/1/1
f 4/4/4 3/3/3 1/1/1
f 4/4/4 1/1/1 5/5/5
f 6/6/6 4/4/4 5/5/5
f 5/5/5 1/1/1 7/7/7
f 7/7/7 1/1/1 8/8/8
f 9/9/9 7/7/7 8/8/8
f 6/6/6 5/5/5 10/10/10
f 11/11/11 6/6/6 10/10/10
f 12/12/12 5/5/5 7/7/7
f 10/10/10 5/5/5 12/12/12
f 11/11/11 10/10/10 13/13/13
f 14/14/14 11/11/11 13/13/13
f 15/15/15 10/10/10 12/12/12
f 13/13/13 10/10/10 15/15/15
f 14/14/14 13/13/13 16/16/16
f 17/17/17 14/14/14 16/16/16
f 18/18/18 13/13/13 15/15/15
f 16/16/16 13/13/13 18/18/18
f 17/17/17 16/16/16 19/19/19
f 20/20/20 17/17/17 19/19/19
f 19/19/19 21/21/21 20/20/20
f 19/19/19 16/16/16 22/22/22
f 22/22/22 16/16/16 18/18/18
f 23/23/23 19/19/19 22/22/22
f 23/23/23 24/24/24 19/19/19
f 23/23/23 22/22/22 25/25/25
f 25/25/25 26/26/26 23/23/23
f 22/22/22 18/18/18 27/27/27
f 22/22/22 27/27/27 25/25/25
f 18/18/18 15/15/15 28/28/28
f 18/18/18 28/28/28 27/27/27
f 25/25/25 27/27/27 29/29/29
f 29/29/29 30/30/30 25/25/25
f 15/15/15 31/31/31 28/28/28
f 15/15/15 12/12/12 31/31/31
f 27/27/27 28/28/28 32/32/32
f 27/27/27 32/32/32 29/29/29
f 28/28/28 31/31/31 33/33/33
f 28/28/28 33/33/33 32/32/32
f 12/12/12 34/34/34 31/31/31
f 12/12/12 7/7/7 34/34/34
f 31/31/31 35/35/35 33/33/33
f 31/31/31 34/34/34 35/35/35
f 7/7/7 36/36/36 34/34/34
f 7/7/7 37/37/37 36/36/36
f 37/37/37 38/38/38 36/36/36
f 34/34/34 36/36/36 39/39/39
f 34/34/34 39/39/39 35/35/35
f 36/36/36 40/40/40 39/39/39
f 36/36/36 41/41/41 40/40/40
f 41/41/41 42/42/42 40/40/40
f 39/39/39 40/40/40 43/43/43
f 43/43/43 40/40/40 44/44/44
f 45/45/45 43/43/43 44/44/44
f 35/35/35 39/39/39 46/46/46
f 46/46/46 39/39/39 43/43/43
f 33/33/33 35/35/35 47/47/47
f 47/47/47 35/35/35 46/46/46
f 48/48/48 33/33/33 47/47/47
f 32/32/32 33/33/33 48/48/48
f 49/49/49 32/32/32 48/48/48
f 29/29/29 32/32/32 49/49/49
f 50/50/50 29/29/29 49/49/49
f 50/50/50 51/51/51 29/29/29
f 50/50/50 49/49/49 52/52/52
f 52/52/52 53/53/53 50/50/50
f 49/49/49 54/54/54 52/52/52
f 49/49/49 48/48/48 54/54/54
f 48/48/48 55/55/55 54/54/54
f 48/48/48 47/47/47 55/55/55
f 47/47/47 56/56/56 55/55/55
f 47/47/47 46/46/46 56/56/56
f 46/46/46 57/57/57 56/56/56
f 46/46/46 43/43/43 57/57/57
f 43/43/43 58/58/58 57/57/57
f 43/43/43 59/59/59 58/58/58
f 59/59/59 60/60/60 58/58/58
f 63/63/63 62/62/62 61/61/61
f 62/62/62 64/64/64 61/61/61
f 65/65/65 61/61/61 64/64/64
f 62/62/62 66/66/66 64/64/64
f 67/67/67 65/65/65 64/64/64
f 65/65/65 67/67/67 68/68/68
f 66/66/66 69/69/69 64/64/64
f 67/67/67 64/64/64 69/69/69
f 66/66/66 70/70/70 69/69/69
f 67/67/67 71/71/71 68/68/68
f 68/68/68 71/71/71 72/72/72
f 70/70/70 73/73/73 69/69/69
f 70/70/70 74/74/74 73/73/73
f 74/74/74 75/75/75 73/73/73
f 76/76/76 67/67/67 69/69/69
f 76/76/76 69/69/69 73/73/73
f 67/67/67 76/76/76 71/71/71
f 77/77/77 73/73/73 75/75/75
f 77/77/77 76/76/76 73/73/73
f 78/78/78 77/77/77 75/75/75
f 71/71/71 79/79/79 72/72/72
f 80/80/80 72/72/72 79/79/79
f 76/76/76 81/81/81 71/71/71
f 76/76/76 77/77/77 81/81/81
f 71/71/71 81/81/81 79/79/79
f 77/77/77 78/78/78 82/82/82
f 77/77/77 82/82/82 81/81/81
f 78/78/78 83/83/83 82/82/82
f 84/84/84 80/80/80 79/79/79
f 80/80/80 84/84/84 85/85/85
f 84/84/84 86/86/86 85/85/85
f 81/81/81 87/87/87 79/79/79
f 81/81/81 82/82/82 87/87/87
f 84/84/84 79/79/79 87/87/87
f 82/82/82 83/83/83 88/88/88
f 82/82/82 88/88/88 87/87/87
f 83/83/83 89/89/89 88/88/88
f 84/84/84 90/90/90 86/86/86
f 90/90/90 84/84/84 87/87/87
f 90/90/90 87/87/87 88/88/88
f 90/90/90 91/91/91 86/86/86
f 92/92/92 88/88/88 89/89/89
f 92/92/92 90/90/90 88/88/88
f 90/90/90 92/92/92 91/91/91
f 92/92/92 93/93/93 91/91/91
f 94/94/94 92/92/92 89/89/89
f 92/92/92 94/94/94 93/93/93
f 94/94/94 95/95/95 93/93/93
f 94/94/94 96/96/96 95/95/95
f 95/95/95 96/96/96 97/97/97
f 98/98/98 96/96/96 94/94/94
f 94/94/94 99/99/99 98/98/98
f 97/97/97 96/96/96 100/100/100
f 101/101/101 97/97/97 100/100/100
f 99/99/99 102/102/102 98/98/98
f 100/100/100 102/102/102 101/101/101
f 103/103/103 102/102/102 99/99/99
f 101/101/101 102/102/102 103/103/103
f 104/104/104 100/100/100 96/96/96
f 98/98/98 104/104/104 96/96/96
f 98/98/98 102/102/102 104/104/104
f 104/104/104 102/102/102 100/100/100
